<?xml version="1.0" encoding="UTF-8" standalone="no"?>
<!DOCTYPE svg PUBLIC "-//W3C//DTD SVG 1.1//EN"
 "http://www.w3.org/Graphics/SVG/1.1/DTD/svg11.dtd">
<!-- Generated by graphviz version 9.0.0 (20230911.1827)
 -->
<!-- Title: main Pages: 1 -->
<svg width="373pt" height="158pt"
 viewBox="0.00 0.00 372.75 158.25" xmlns="http://www.w3.org/2000/svg" xmlns:xlink="http://www.w3.org/1999/xlink">

<svg id="main" version="1.1" xmlns="http://www.w3.org/2000/svg" xmlns:xlink="http://www.w3.org/1999/xlink" xml:space="preserve" onload="init(evt)">
<style type="text/css"><![CDATA[
.node, .edge {opacity: 0.7;}
.node.selected, .edge.selected {opacity: 1;}
.edge:hover path { stroke: red; }
.edge:hover polygon { stroke: red; fill: red; }
]]></style>
<script type="application/ecmascript" xlink:href="../../svg.min.js"/>
<svg id="graph" class="graph">
<g id="graph0" class="graph" transform="scale(1 1) rotate(0) translate(4 154.25)">
<title>main</title>
<!-- Node1 -->
<g id="Node000001" class="node">
<title>Node1</title>
<g id="a_Node000001"><a xlink:title="Main function.">
<polygon fill="#999999" stroke="#666666" points="37,-84.25 0,-84.25 0,-65 37,-65 37,-84.25"/>
<text text-anchor="middle" x="18.5" y="-70.75" font-family="Helvetica,sans-Serif" font-size="10.00">main</text>
</a>
</g>
</g>
<!-- Node2 -->
<g id="Node000002" class="node">
<title>Node2</title>
<g id="a_Node000002"><a target="_blank" xlink:href="http://en.cppreference.com/w/cpp/io/manip/endl.html#" xlink:title=" ">
<polygon fill="white" stroke="#666666" points="156.88,-150.25 103.38,-150.25 103.38,-131 156.88,-131 156.88,-150.25"/>
<text text-anchor="middle" x="130.12" y="-136.75" font-family="Helvetica,sans-Serif" font-size="10.00">std::endl</text>
</a>
</g>
</g>
<!-- Node1&#45;&gt;Node2 -->
<g id="edge1_Node000001_Node000002" class="edge">
<title>Node1&#45;&gt;Node2</title>
<g id="a_edge1_Node000001_Node000002"><a xlink:title=" ">
<path fill="none" stroke="#63b8ff" d="M30.36,-84.55C40.75,-93.69 57.15,-107.24 73,-116.62 79.16,-120.28 85.98,-123.67 92.69,-126.69"/>
<polygon fill="#63b8ff" stroke="#63b8ff" points="91.05,-129.8 101.62,-130.52 93.8,-123.36 91.05,-129.8"/>
</a>
</g>
</g>
<!-- Node3 -->
<g id="Node000003" class="node">
<title>Node3</title>
<g id="a_Node000003"><a xlink:href="../../d8/dee/avltree_8cpp.html#ae4a66d8b0c2b0d626aea45977e358c83" target="_top" xlink:title=" ">
<polygon fill="white" stroke="#666666" points="270,-103.25 227.75,-103.25 227.75,-84 270,-84 270,-103.25"/>
<text text-anchor="middle" x="248.88" y="-89.75" font-family="Helvetica,sans-Serif" font-size="10.00">height</text>
</a>
</g>
</g>
<!-- Node1&#45;&gt;Node3 -->
<g id="edge2_Node000001_Node000003" class="edge">
<title>Node1&#45;&gt;Node3</title>
<g id="a_edge2_Node000001_Node000003"><a xlink:title=" ">
<path fill="none" stroke="#63b8ff" d="M37.26,-78.12C47.64,-80.03 61.02,-82.28 73,-83.62 122.74,-89.21 180.81,-91.75 215.94,-92.85"/>
<polygon fill="#63b8ff" stroke="#63b8ff" points="215.74,-96.34 225.84,-93.14 215.95,-89.35 215.74,-96.34"/>
</a>
</g>
</g>
<!-- Node5 -->
<g id="Node000005" class="node">
<title>Node5</title>
<g id="a_Node000005"><a xlink:href="../../db/dc0/namespacebacktracking.html#a78540bcb5ef3473b2348cbc34748ec50" target="_top" xlink:title="Check which is the maximum/minimum number in the array.">
<polygon fill="white" stroke="#666666" points="187.25,-56.25 73,-56.25 73,-37 187.25,-37 187.25,-56.25"/>
<text text-anchor="middle" x="130.12" y="-42.75" font-family="Helvetica,sans-Serif" font-size="10.00">backtracking::minimax</text>
</a>
</g>
</g>
<!-- Node1&#45;&gt;Node5 -->
<g id="edge5_Node000001_Node000005" class="edge">
<title>Node1&#45;&gt;Node5</title>
<g id="a_edge5_Node000001_Node000005"><a xlink:title=" ">
<path fill="none" stroke="#63b8ff" d="M37.11,-70.13C48.51,-67.22 63.97,-63.27 78.96,-59.44"/>
<polygon fill="#63b8ff" stroke="#63b8ff" points="79.44,-62.93 88.26,-57.06 77.71,-56.15 79.44,-62.93"/>
</a>
</g>
</g>
<!-- Node7 -->
<g id="Node000007" class="node">
<title>Node7</title>
<g id="a_Node000007"><a target="_blank" xlink:href="http://en.cppreference.com/w/cpp/container/array/size.html#" xlink:title=" ">
<polygon fill="white" stroke="#666666" points="170.75,-19.25 89.5,-19.25 89.5,0 170.75,0 170.75,-19.25"/>
<text text-anchor="middle" x="130.12" y="-5.75" font-family="Helvetica,sans-Serif" font-size="10.00">std::array::size</text>
</a>
</g>
</g>
<!-- Node1&#45;&gt;Node7 -->
<g id="edge10_Node000001_Node000007" class="edge">
<title>Node1&#45;&gt;Node7</title>
<g id="a_edge10_Node000001_Node000007"><a xlink:title=" ">
<path fill="none" stroke="#63b8ff" d="M28.43,-64.65C38.36,-54.1 55.36,-37.62 73,-27.62 75.21,-26.37 77.51,-25.2 79.88,-24.09"/>
<polygon fill="#63b8ff" stroke="#63b8ff" points="81.2,-27.33 89.1,-20.27 78.52,-20.87 81.2,-27.33"/>
</a>
</g>
</g>
<!-- Node3&#45;&gt;Node3 -->
<g id="edge3_Node000003_Node000003" class="edge">
<title>Node3&#45;&gt;Node3</title>
<g id="a_edge3_Node000003_Node000003"><a xlink:title=" ">
<path fill="none" stroke="#63b8ff" d="M234.98,-103.54C228.64,-112.15 233.27,-121.25 248.88,-121.25 257.41,-121.25 262.66,-118.53 264.63,-114.65"/>
<polygon fill="#63b8ff" stroke="#63b8ff" points="268.12,-114.32 263.02,-105.03 261.22,-115.47 268.12,-114.32"/>
</a>
</g>
</g>
<!-- Node4 -->
<g id="Node000004" class="node">
<title>Node4</title>
<g id="a_Node000004"><a target="_blank" xlink:href="http://en.cppreference.com/w/cpp/algorithm/max.html#" xlink:title=" ">
<polygon fill="white" stroke="#666666" points="364.75,-84.25 310.5,-84.25 310.5,-65 364.75,-65 364.75,-84.25"/>
<text text-anchor="middle" x="337.62" y="-70.75" font-family="Helvetica,sans-Serif" font-size="10.00">std::max</text>
</a>
</g>
</g>
<!-- Node3&#45;&gt;Node4 -->
<g id="edge4_Node000003_Node000004" class="edge">
<title>Node3&#45;&gt;Node4</title>
<g id="a_edge4_Node000003_Node000004"><a xlink:title=" ">
<path fill="none" stroke="#63b8ff" d="M270.43,-89.12C279,-87.25 289.24,-85 299.06,-82.85"/>
<polygon fill="#63b8ff" stroke="#63b8ff" points="299.79,-86.28 308.81,-80.72 298.29,-79.44 299.79,-86.28"/>
</a>
</g>
</g>
<!-- Node5&#45;&gt;Node3 -->
<g id="edge6_Node000005_Node000003" class="edge">
<title>Node5&#45;&gt;Node3</title>
<g id="a_edge6_Node000005_Node000003"><a xlink:title=" ">
<path fill="none" stroke="#63b8ff" d="M156.17,-56.71C173.98,-63.88 198.02,-73.55 217.01,-81.2"/>
<polygon fill="#63b8ff" stroke="#63b8ff" points="215.54,-84.38 226.13,-84.87 218.16,-77.89 215.54,-84.38"/>
</a>
</g>
</g>
<!-- Node5&#45;&gt;Node4 -->
<g id="edge7_Node000005_Node000004" class="edge">
<title>Node5&#45;&gt;Node4</title>
<g id="a_edge7_Node000005_Node000004"><a xlink:title=" ">
<path fill="none" stroke="#63b8ff" d="M187.55,-54.31C222.95,-59.14 267.63,-65.22 298.8,-69.47"/>
<polygon fill="#63b8ff" stroke="#63b8ff" points="298.16,-72.92 308.54,-70.8 299.11,-65.98 298.16,-72.92"/>
</a>
</g>
</g>
<!-- Node5&#45;&gt;Node5 -->
<g id="edge9_Node000005_Node000005" class="edge">
<title>Node5&#45;&gt;Node5</title>
<g id="a_edge9_Node000005_Node000005"><a xlink:title=" ">
<path fill="none" stroke="#63b8ff" d="M112.65,-56.54C104.68,-65.15 110.5,-74.25 130.12,-74.25 140.86,-74.25 147.46,-71.53 149.94,-67.65"/>
<polygon fill="#63b8ff" stroke="#63b8ff" points="153.4,-67.08 147.91,-58.02 146.55,-68.53 153.4,-67.08"/>
</a>
</g>
</g>
<!-- Node6 -->
<g id="Node000006" class="node">
<title>Node6</title>
<g id="a_Node000006"><a target="_blank" xlink:href="http://en.cppreference.com/w/cpp/algorithm/min.html#" xlink:title=" ">
<polygon fill="white" stroke="#666666" points="274.5,-27.25 223.25,-27.25 223.25,-8 274.5,-8 274.5,-27.25"/>
<text text-anchor="middle" x="248.88" y="-13.75" font-family="Helvetica,sans-Serif" font-size="10.00">std::min</text>
</a>
</g>
</g>
<!-- Node5&#45;&gt;Node6 -->
<g id="edge8_Node000005_Node000006" class="edge">
<title>Node5&#45;&gt;Node6</title>
<g id="a_edge8_Node000005_Node000006"><a xlink:title=" ">
<path fill="none" stroke="#63b8ff" d="M171.63,-36.56C184.74,-33.31 199.18,-29.72 211.94,-26.55"/>
<polygon fill="#63b8ff" stroke="#63b8ff" points="212.76,-29.95 221.62,-24.15 211.07,-23.16 212.76,-29.95"/>
</a>
</g>
</g>
</g>
</svg>
</svg>

<style type='text/css'>
<![CDATA[
[data-mouse-over-selected='false'] { opacity: 0.7; }
[data-mouse-over-selected='true']  { opacity: 1.0; }
]]>
</style>
<script type="application/ecmascript"><![CDATA[
document.addEventListener('DOMContentLoaded', (event) => {
  highlightEdges();
  highlightAdjacentNodes();
});
]]></script>
</svg>
