<?xml version="1.0" encoding="UTF-8" standalone="no"?>
<!DOCTYPE svg PUBLIC "-//W3C//DTD SVG 1.1//EN"
 "http://www.w3.org/Graphics/SVG/1.1/DTD/svg11.dtd">
<!-- Generated by graphviz version 8.1.0 (20230707.0739)
 -->
<!-- Title: machine_learning::update_weights Pages: 1 -->
<svg width="415pt" height="230pt"
 viewBox="0.00 0.00 414.50 230.25" xmlns="http://www.w3.org/2000/svg" xmlns:xlink="http://www.w3.org/1999/xlink">

<svg id="main" version="1.1" xmlns="http://www.w3.org/2000/svg" xmlns:xlink="http://www.w3.org/1999/xlink" xml:space="preserve" onload="init(evt)">
<style type="text/css"><![CDATA[
.node, .edge {opacity: 0.7;}
.node.selected, .edge.selected {opacity: 1;}
.edge:hover path { stroke: red; }
.edge:hover polygon { stroke: red; fill: red; }
]]></style>
<script type="application/ecmascript" xlink:href="../../svg.min.js"/>
<svg id="graph" class="graph">
<g id="graph0" class="graph" transform="scale(1 1) rotate(0) translate(4 226.25)">
<title>machine_learning::update_weights</title>
<!-- Node1 -->
<g id="Node000001" class="node">
<title>Node1</title>
<g id="a_Node000001"><a xlink:title=" ">
<polygon fill="#999999" stroke="#666666" points="127,-116.88 0,-116.88 0,-86.38 127,-86.38 127,-116.88"/>
<text text-anchor="start" x="8" y="-103.38" font-family="Helvetica,sans-Serif" font-size="10.00">machine_learning::update</text>
<text text-anchor="middle" x="63.5" y="-92.12" font-family="Helvetica,sans-Serif" font-size="10.00">_weights</text>
</a>
</g>
</g>
<!-- Node2 -->
<g id="Node000002" class="node">
<title>Node2</title>
<g id="a_Node000002"><a target="_blank" xlink:href="http://en.cppreference.com/w/cpp/numeric/math/exp.html#" xlink:title=" ">
<polygon fill="white" stroke="#666666" points="246.88,-204.25 195.62,-204.25 195.62,-185 246.88,-185 246.88,-204.25"/>
<text text-anchor="middle" x="221.25" y="-190.75" font-family="Helvetica,sans-Serif" font-size="10.00">std::exp</text>
</a>
</g>
</g>
<!-- Node1&#45;&gt;Node2 -->
<g id="edge1_Node000001_Node000002" class="edge">
<title>Node1&#45;&gt;Node2</title>
<g id="a_edge1_Node000001_Node000002"><a xlink:title=" ">
<path fill="none" stroke="#63b8ff" d="M81.05,-117.14C99.69,-133.88 131.51,-160.32 163,-176.62 169.85,-180.17 177.54,-183.18 184.99,-185.65"/>
<polygon fill="#63b8ff" stroke="#63b8ff" points="183.69,-189.22 194.27,-188.8 185.74,-182.52 183.69,-189.22"/>
</a>
</g>
</g>
<!-- Node3 -->
<g id="Node000003" class="node">
<title>Node3</title>
<g id="a_Node000003"><a xlink:href="../../d9/d66/group__machine__learning.html#ga60f9186ccb682724a8792a2bf81e9b9e" target="_top" xlink:title=" ">
<polygon fill="white" stroke="#666666" points="254.38,-167.25 188.12,-167.25 188.12,-148 254.38,-148 254.38,-167.25"/>
<text text-anchor="middle" x="221.25" y="-153.75" font-family="Helvetica,sans-Serif" font-size="10.00">get_min_2d</text>
</a>
</g>
</g>
<!-- Node1&#45;&gt;Node3 -->
<g id="edge2_Node000001_Node000003" class="edge">
<title>Node1&#45;&gt;Node3</title>
<g id="a_edge2_Node000001_Node000003"><a xlink:title=" ">
<path fill="none" stroke="#63b8ff" d="M103.59,-117.36C121.59,-124.44 143.28,-132.73 163,-139.62 167.61,-141.24 172.44,-142.86 177.27,-144.44"/>
<polygon fill="#63b8ff" stroke="#63b8ff" points="176.14,-148.07 186.74,-147.8 178.28,-141.41 176.14,-148.07"/>
</a>
</g>
</g>
<!-- Node8 -->
<g id="Node000008" class="node">
<title>Node8</title>
<g id="a_Node000008"><a target="_blank" xlink:href="http://en.cppreference.com/w/cpp/algorithm/max.html#" xlink:title=" ">
<polygon fill="white" stroke="#666666" points="248.38,-130.25 194.12,-130.25 194.12,-111 248.38,-111 248.38,-130.25"/>
<text text-anchor="middle" x="221.25" y="-116.75" font-family="Helvetica,sans-Serif" font-size="10.00">std::max</text>
</a>
</g>
</g>
<!-- Node1&#45;&gt;Node8 -->
<g id="edge7_Node000001_Node000008" class="edge">
<title>Node1&#45;&gt;Node8</title>
<g id="a_edge7_Node000001_Node000008"><a xlink:title=" ">
<path fill="none" stroke="#63b8ff" d="M127.4,-109.3C146.2,-111.59 166.2,-114.03 182.81,-116.06"/>
<polygon fill="#63b8ff" stroke="#63b8ff" points="182.36,-119.65 192.71,-117.39 183.21,-112.7 182.36,-119.65"/>
</a>
</g>
</g>
<!-- Node9 -->
<g id="Node000009" class="node">
<title>Node9</title>
<g id="a_Node000009"><a target="_blank" xlink:href="http://en.cppreference.com/w/cpp/algorithm/min.html#" xlink:title=" ">
<polygon fill="white" stroke="#666666" points="246.88,-93.25 195.62,-93.25 195.62,-74 246.88,-74 246.88,-93.25"/>
<text text-anchor="middle" x="221.25" y="-79.75" font-family="Helvetica,sans-Serif" font-size="10.00">std::min</text>
</a>
</g>
</g>
<!-- Node1&#45;&gt;Node9 -->
<g id="edge8_Node000001_Node000009" class="edge">
<title>Node1&#45;&gt;Node9</title>
<g id="a_edge8_Node000001_Node000009"><a xlink:title=" ">
<path fill="none" stroke="#63b8ff" d="M127.4,-94.36C146.93,-92.1 167.77,-89.69 184.74,-87.73"/>
<polygon fill="#63b8ff" stroke="#63b8ff" points="184.75,-91.13 194.29,-86.51 183.95,-84.18 184.75,-91.13"/>
</a>
</g>
</g>
<!-- Node10 -->
<g id="Node000010" class="node">
<title>Node10</title>
<g id="a_Node000010"><a target="_blank" xlink:href="http://en.cppreference.com/w/cpp/numeric/math/sqrt.html#" xlink:title=" ">
<polygon fill="white" stroke="#666666" points="247.25,-56.25 195.25,-56.25 195.25,-37 247.25,-37 247.25,-56.25"/>
<text text-anchor="middle" x="221.25" y="-42.75" font-family="Helvetica,sans-Serif" font-size="10.00">std::sqrt</text>
</a>
</g>
</g>
<!-- Node1&#45;&gt;Node10 -->
<g id="edge9_Node000001_Node000010" class="edge">
<title>Node1&#45;&gt;Node10</title>
<g id="a_edge9_Node000001_Node000010"><a xlink:title=" ">
<path fill="none" stroke="#63b8ff" d="M104.58,-86C122.39,-79.21 143.66,-71.29 163,-64.62 169.87,-62.26 177.24,-59.84 184.34,-57.59"/>
<polygon fill="#63b8ff" stroke="#63b8ff" points="185.3,-60.64 193.79,-54.3 183.2,-53.96 185.3,-60.64"/>
</a>
</g>
</g>
<!-- Node11 -->
<g id="Node000011" class="node">
<title>Node11</title>
<g id="a_Node000011"><a xlink:href="../../d8/d77/namespacemachine__learning.html#a6f1c98c016ad34ff3d9f39372161bd35" target="_top" xlink:title=" ">
<polygon fill="white" stroke="#666666" points="279.5,-19.25 163,-19.25 163,0 279.5,0 279.5,-19.25"/>
<text text-anchor="middle" x="221.25" y="-5.75" font-family="Helvetica,sans-Serif" font-size="10.00">machine_learning::sum</text>
</a>
</g>
</g>
<!-- Node1&#45;&gt;Node11 -->
<g id="edge10_Node000001_Node000011" class="edge">
<title>Node1&#45;&gt;Node11</title>
<g id="a_edge10_Node000001_Node000011"><a xlink:title=" ">
<path fill="none" stroke="#63b8ff" d="M81.43,-86.03C100.15,-69.51 131.8,-43.65 163,-27.62 165.87,-26.15 168.89,-24.77 171.97,-23.48"/>
<polygon fill="#63b8ff" stroke="#63b8ff" points="172.86,-26.5 180.95,-19.67 170.36,-19.96 172.86,-26.5"/>
</a>
</g>
</g>
<!-- Node4 -->
<g id="Node000004" class="node">
<title>Node4</title>
<g id="a_Node000004"><a target="_blank" xlink:href="http://en.cppreference.com/w/cpp/iterator/begin.html#" xlink:title=" ">
<polygon fill="white" stroke="#666666" points="390.38,-222.25 331.62,-222.25 331.62,-203 390.38,-203 390.38,-222.25"/>
<text text-anchor="middle" x="361" y="-208.75" font-family="Helvetica,sans-Serif" font-size="10.00">std::begin</text>
</a>
</g>
</g>
<!-- Node3&#45;&gt;Node4 -->
<g id="edge3_Node000003_Node000004" class="edge">
<title>Node3&#45;&gt;Node4</title>
<g id="a_edge3_Node000003_Node000004"><a xlink:title=" ">
<path fill="none" stroke="#63b8ff" d="M254.71,-166.71C262.91,-169.31 271.61,-172.34 279.5,-175.62 296.2,-182.59 299.09,-187 315.5,-194.62 318.26,-195.91 321.14,-197.19 324.05,-198.45"/>
<polygon fill="#63b8ff" stroke="#63b8ff" points="322.35,-201.95 332.93,-202.59 325.06,-195.5 322.35,-201.95"/>
</a>
</g>
</g>
<!-- Node5 -->
<g id="Node000005" class="node">
<title>Node5</title>
<g id="a_Node000005"><a target="_blank" xlink:href="http://en.cppreference.com/w/cpp/iterator/distance.html#" xlink:title=" ">
<polygon fill="white" stroke="#666666" points="397.12,-185.25 324.88,-185.25 324.88,-166 397.12,-166 397.12,-185.25"/>
<text text-anchor="middle" x="361" y="-171.75" font-family="Helvetica,sans-Serif" font-size="10.00">std::distance</text>
</a>
</g>
</g>
<!-- Node3&#45;&gt;Node5 -->
<g id="edge4_Node000003_Node000005" class="edge">
<title>Node3&#45;&gt;Node5</title>
<g id="a_edge4_Node000003_Node000005"><a xlink:title=" ">
<path fill="none" stroke="#63b8ff" d="M254.55,-161.85C272.18,-164.15 294.31,-167.04 313.75,-169.58"/>
<polygon fill="#63b8ff" stroke="#63b8ff" points="313.15,-173.16 323.52,-170.99 314.06,-166.22 313.15,-173.16"/>
</a>
</g>
</g>
<!-- Node6 -->
<g id="Node000006" class="node">
<title>Node6</title>
<g id="a_Node000006"><a target="_blank" xlink:href="http://en.cppreference.com/w/cpp/iterator/end.html#" xlink:title=" ">
<polygon fill="white" stroke="#666666" points="386.62,-148.25 335.38,-148.25 335.38,-129 386.62,-129 386.62,-148.25"/>
<text text-anchor="middle" x="361" y="-134.75" font-family="Helvetica,sans-Serif" font-size="10.00">std::end</text>
</a>
</g>
</g>
<!-- Node3&#45;&gt;Node6 -->
<g id="edge5_Node000003_Node000006" class="edge">
<title>Node3&#45;&gt;Node6</title>
<g id="a_edge5_Node000003_Node000006"><a xlink:title=" ">
<path fill="none" stroke="#63b8ff" d="M254.55,-153.17C275.54,-150.27 302.92,-146.5 324.52,-143.52"/>
<polygon fill="#63b8ff" stroke="#63b8ff" points="324.79,-146.88 334.22,-142.04 323.84,-139.94 324.79,-146.88"/>
</a>
</g>
</g>
<!-- Node7 -->
<g id="Node000007" class="node">
<title>Node7</title>
<g id="a_Node000007"><a target="_blank" xlink:href="http://en.cppreference.com/w/cpp/algorithm/min_element.html#" xlink:title=" ">
<polygon fill="white" stroke="#666666" points="406.5,-111.25 315.5,-111.25 315.5,-92 406.5,-92 406.5,-111.25"/>
<text text-anchor="middle" x="361" y="-97.75" font-family="Helvetica,sans-Serif" font-size="10.00">std::min_element</text>
</a>
</g>
</g>
<!-- Node3&#45;&gt;Node7 -->
<g id="edge6_Node000003_Node000007" class="edge">
<title>Node3&#45;&gt;Node7</title>
<g id="a_edge6_Node000003_Node000007"><a xlink:title=" ">
<path fill="none" stroke="#63b8ff" d="M254.76,-148.66C262.96,-146.06 271.65,-143 279.5,-139.62 296.32,-132.4 298.99,-127.52 315.5,-119.62 318.25,-118.31 321.12,-117.01 324.02,-115.73"/>
<polygon fill="#63b8ff" stroke="#63b8ff" points="325.03,-118.68 332.88,-111.57 322.31,-112.24 325.03,-118.68"/>
</a>
</g>
</g>
</g>
</svg>
</svg>

<style type='text/css'>
<![CDATA[
[data-mouse-over-selected='false'] { opacity: 0.7; }
[data-mouse-over-selected='true']  { opacity: 1.0; }
]]>
</style>
<script type="application/ecmascript"><![CDATA[
document.addEventListener('DOMContentLoaded', (event) => {
  highlightEdges();
  highlightAdjacentNodes();
});
]]></script>
</svg>
