<?xml version="1.0" encoding="UTF-8" standalone="no"?>
<!DOCTYPE svg PUBLIC "-//W3C//DTD SVG 1.1//EN"
 "http://www.w3.org/Graphics/SVG/1.1/DTD/svg11.dtd">
<!-- Generated by graphviz version 7.1.0 (20230121.1956)
 -->
<!-- Title: machine_learning::operator&lt;&lt; Pages: 1 -->
<svg width="401pt" height="138pt"
 viewBox="0.00 0.00 401.00 138.00" xmlns="http://www.w3.org/2000/svg" xmlns:xlink="http://www.w3.org/1999/xlink">
<g id="graph0" class="graph" transform="scale(1 1) rotate(0) translate(4 134)">
<title>machine_learning::operator&lt;&lt;</title>
<!-- Node1 -->
<g id="node1" class="node">
<title>Node1</title>
<g id="a_node1"><a xlink:title=" ">
<polygon fill="#999999" stroke="#666666" points="146,-74 0,-74 0,-55 146,-55 146,-74"/>
<text text-anchor="middle" x="73" y="-62" font-family="Helvetica,sans-Serif" font-size="10.00">machine_learning::operator&lt;&lt;</text>
</a>
</g>
</g>
<!-- Node2 -->
<g id="node2" class="node">
<title>Node2</title>
<g id="a_node2"><a target="_blank" xlink:href="http://en.cppreference.com/w/cpp/io/manip/endl.html#" xlink:title=" ">
<polygon fill="white" stroke="#666666" points="390.5,-130 336.5,-130 336.5,-111 390.5,-111 390.5,-130"/>
<text text-anchor="middle" x="363.5" y="-118" font-family="Helvetica,sans-Serif" font-size="10.00">std::endl</text>
</a>
</g>
</g>
<!-- Node1&#45;&gt;Node2 -->
<g id="edge1" class="edge">
<title>Node1&#45;&gt;Node2</title>
<path fill="none" stroke="#63b8ff" d="M98,-74.47C119.6,-83.02 152.39,-94.96 182,-101.5 230.72,-112.27 288.24,-116.98 325.02,-119.02"/>
<polygon fill="#63b8ff" stroke="#63b8ff" points="324.52,-122.49 334.69,-119.51 324.88,-115.5 324.52,-122.49"/>
</g>
<!-- Node3 -->
<g id="node3" class="node">
<title>Node3</title>
<g id="a_node3"><a xlink:href="../../dc/d38/ordinary__least__squares__regressor_8cpp.html#a7075a0fccad9b2d79be0275bfe8948d4" target="_top" xlink:title=" ">
<polygon fill="white" stroke="#666666" points="272,-74 208,-74 208,-55 272,-55 272,-74"/>
<text text-anchor="middle" x="240" y="-62" font-family="Helvetica,sans-Serif" font-size="10.00">operator&lt;&lt;</text>
</a>
</g>
</g>
<!-- Node1&#45;&gt;Node3 -->
<g id="edge2" class="edge">
<title>Node1&#45;&gt;Node3</title>
<path fill="none" stroke="#63b8ff" d="M146.37,-64.5C163.48,-64.5 181.19,-64.5 196.47,-64.5"/>
<polygon fill="#63b8ff" stroke="#63b8ff" points="196.13,-68 206.13,-64.5 196.13,-61 196.13,-68"/>
</g>
<!-- Node7 -->
<g id="node7" class="node">
<title>Node7</title>
<g id="a_node7"><a target="_blank" xlink:href="http://en.cppreference.com/w/cpp/io/ios_base/precision.html#" xlink:title=" ">
<polygon fill="white" stroke="#666666" points="298,-37 182,-37 182,-18 298,-18 298,-37"/>
<text text-anchor="middle" x="240" y="-25" font-family="Helvetica,sans-Serif" font-size="10.00">std::ostream::precision</text>
</a>
</g>
</g>
<!-- Node1&#45;&gt;Node7 -->
<g id="edge8" class="edge">
<title>Node1&#45;&gt;Node7</title>
<path fill="none" stroke="#63b8ff" d="M118.22,-54.58C138.28,-50.08 162.23,-44.71 183.5,-39.95"/>
<polygon fill="#63b8ff" stroke="#63b8ff" points="184.19,-43.38 193.18,-37.77 182.66,-36.55 184.19,-43.38"/>
</g>
<!-- Node3&#45;&gt;Node2 -->
<g id="edge3" class="edge">
<title>Node3&#45;&gt;Node2</title>
<path fill="none" stroke="#63b8ff" d="M262.44,-74.38C281.32,-83.09 309.09,-95.88 330.58,-105.79"/>
<polygon fill="#63b8ff" stroke="#63b8ff" points="328.94,-108.89 339.49,-109.89 331.87,-102.53 328.94,-108.89"/>
</g>
<!-- Node3&#45;&gt;Node3 -->
<g id="edge5" class="edge">
<title>Node3&#45;&gt;Node3</title>
<path fill="none" stroke="#63b8ff" d="M220.67,-74.37C211.85,-82.94 218.29,-92 240,-92 251.87,-92 259.18,-89.29 261.92,-85.43"/>
<polygon fill="#63b8ff" stroke="#63b8ff" points="265.36,-84.78 259.68,-75.84 258.55,-86.38 265.36,-84.78"/>
</g>
<!-- Node4 -->
<g id="node4" class="node">
<title>Node4</title>
<g id="a_node4"><a target="_blank" xlink:href="http://en.cppreference.com/w/cpp/io/manip/left.html#" xlink:title=" ">
<polygon fill="white" stroke="#666666" points="388.5,-93 338.5,-93 338.5,-74 388.5,-74 388.5,-93"/>
<text text-anchor="middle" x="363.5" y="-81" font-family="Helvetica,sans-Serif" font-size="10.00">std::left</text>
</a>
</g>
</g>
<!-- Node3&#45;&gt;Node4 -->
<g id="edge4" class="edge">
<title>Node3&#45;&gt;Node4</title>
<path fill="none" stroke="#63b8ff" d="M272.29,-69.39C288.97,-72 309.56,-75.22 326.86,-77.93"/>
<polygon fill="#63b8ff" stroke="#63b8ff" points="326.3,-81.38 336.72,-79.47 327.38,-74.47 326.3,-81.38"/>
</g>
<!-- Node5 -->
<g id="node5" class="node">
<title>Node5</title>
<g id="a_node5"><a target="_blank" xlink:href="http://en.cppreference.com/w/cpp/io/manip/setfill.html#" xlink:title=" ">
<polygon fill="white" stroke="#666666" points="393,-56 334,-56 334,-37 393,-37 393,-56"/>
<text text-anchor="middle" x="363.5" y="-44" font-family="Helvetica,sans-Serif" font-size="10.00">std::setfill</text>
</a>
</g>
</g>
<!-- Node3&#45;&gt;Node5 -->
<g id="edge6" class="edge">
<title>Node3&#45;&gt;Node5</title>
<path fill="none" stroke="#63b8ff" d="M272.29,-59.86C287.71,-57.58 306.48,-54.8 322.9,-52.37"/>
<polygon fill="#63b8ff" stroke="#63b8ff" points="322.94,-55.9 332.32,-50.97 321.91,-48.97 322.94,-55.9"/>
</g>
<!-- Node6 -->
<g id="node6" class="node">
<title>Node6</title>
<g id="a_node6"><a target="_blank" xlink:href="http://en.cppreference.com/w/cpp/io/manip/setw.html#" xlink:title=" ">
<polygon fill="white" stroke="#666666" points="392,-19 335,-19 335,0 392,0 392,-19"/>
<text text-anchor="middle" x="363.5" y="-7" font-family="Helvetica,sans-Serif" font-size="10.00">std::setw</text>
</a>
</g>
</g>
<!-- Node3&#45;&gt;Node6 -->
<g id="edge7" class="edge">
<title>Node3&#45;&gt;Node6</title>
<path fill="none" stroke="#63b8ff" d="M272.21,-55.97C280.71,-53.29 289.83,-50.08 298,-46.5 311.62,-40.52 326.05,-32.43 337.8,-25.34"/>
<polygon fill="#63b8ff" stroke="#63b8ff" points="339.39,-28.47 346.06,-20.23 335.71,-22.51 339.39,-28.47"/>
</g>
</g>
</svg>
