<?xml version="1.0" encoding="UTF-8" standalone="no"?>
<!DOCTYPE svg PUBLIC "-//W3C//DTD SVG 1.1//EN"
 "http://www.w3.org/Graphics/SVG/1.1/DTD/svg11.dtd">
<!-- Generated by graphviz version 2.44.1 (20200629.0846)
 -->
<!-- Title: machine_learning::update_weights Pages: 1 -->
<svg width="417pt" height="237pt"
 viewBox="0.00 0.00 417.00 237.00" xmlns="http://www.w3.org/2000/svg" xmlns:xlink="http://www.w3.org/1999/xlink">
<g id="graph0" class="graph" transform="scale(1 1) rotate(0) translate(4 233)">
<title>machine_learning::update_weights</title>
<polygon fill="white" stroke="transparent" points="-4,4 -4,-233 413,-233 413,4 -4,4"/>
<!-- Node1 -->
<g id="node1" class="node">
<title>Node1</title>
<g id="a_node1"><a xlink:title=" ">
<polygon fill="#bfbfbf" stroke="black" points="0,-90 0,-120 128,-120 128,-90 0,-90"/>
<text text-anchor="start" x="8" y="-108" font-family="Helvetica,sans-Serif" font-size="10.00">machine_learning::update</text>
<text text-anchor="middle" x="64" y="-97" font-family="Helvetica,sans-Serif" font-size="10.00">_weights</text>
</a>
</g>
</g>
<!-- Node2 -->
<g id="node2" class="node">
<title>Node2</title>
<g id="a_node2"><a target="_blank" xlink:href="http://en.cppreference.com/w/cpp/numeric/math/exp.html#" target="_top" xlink:title=" ">
<polygon fill="white" stroke="black" points="196.5,-190.5 196.5,-209.5 248.5,-209.5 248.5,-190.5 196.5,-190.5"/>
<text text-anchor="middle" x="222.5" y="-197.5" font-family="Helvetica,sans-Serif" font-size="10.00">std::exp</text>
</a>
</g>
</g>
<!-- Node1&#45;&gt;Node2 -->
<g id="edge1" class="edge">
<title>Node1&#45;&gt;Node2</title>
<path fill="none" stroke="midnightblue" d="M80.98,-120.03C99.63,-136.89 132.02,-164.07 164,-181 171.12,-184.77 179.13,-187.99 186.86,-190.64"/>
<polygon fill="midnightblue" stroke="midnightblue" points="185.82,-193.98 196.41,-193.7 187.96,-187.32 185.82,-193.98"/>
</g>
<!-- Node3 -->
<g id="node3" class="node">
<title>Node3</title>
<g id="a_node3"><a xlink:href="../../d9/d66/group__machine__learning.html#gab53c14440b2b2dd3172c66afc5c2f63f" target="_top" xlink:title=" ">
<polygon fill="white" stroke="black" points="189,-152.5 189,-171.5 256,-171.5 256,-152.5 189,-152.5"/>
<text text-anchor="middle" x="222.5" y="-159.5" font-family="Helvetica,sans-Serif" font-size="10.00">get_min_2d</text>
</a>
</g>
</g>
<!-- Node1&#45;&gt;Node3 -->
<g id="edge2" class="edge">
<title>Node1&#45;&gt;Node3</title>
<path fill="none" stroke="midnightblue" d="M102.92,-120.04C121.29,-127.2 143.71,-135.76 164,-143 169.71,-145.04 175.76,-147.12 181.72,-149.13"/>
<polygon fill="midnightblue" stroke="midnightblue" points="180.97,-152.57 191.56,-152.41 183.18,-145.93 180.97,-152.57"/>
</g>
<!-- Node8 -->
<g id="node8" class="node">
<title>Node8</title>
<g id="a_node8"><a target="_blank" xlink:href="http://en.cppreference.com/w/cpp/algorithm/max.html#" target="_top" xlink:title=" ">
<polygon fill="white" stroke="black" points="195,-114.5 195,-133.5 250,-133.5 250,-114.5 195,-114.5"/>
<text text-anchor="middle" x="222.5" y="-121.5" font-family="Helvetica,sans-Serif" font-size="10.00">std::max</text>
</a>
</g>
</g>
<!-- Node1&#45;&gt;Node8 -->
<g id="edge7" class="edge">
<title>Node1&#45;&gt;Node8</title>
<path fill="none" stroke="midnightblue" d="M128.2,-112.67C147.45,-115.01 167.96,-117.5 184.84,-119.55"/>
<polygon fill="midnightblue" stroke="midnightblue" points="184.48,-123.03 194.83,-120.76 185.33,-116.08 184.48,-123.03"/>
</g>
<!-- Node9 -->
<g id="node9" class="node">
<title>Node9</title>
<g id="a_node9"><a target="_blank" xlink:href="http://en.cppreference.com/w/cpp/algorithm/min.html#" target="_top" xlink:title=" ">
<polygon fill="white" stroke="black" points="196.5,-76.5 196.5,-95.5 248.5,-95.5 248.5,-76.5 196.5,-76.5"/>
<text text-anchor="middle" x="222.5" y="-83.5" font-family="Helvetica,sans-Serif" font-size="10.00">std::min</text>
</a>
</g>
</g>
<!-- Node1&#45;&gt;Node9 -->
<g id="edge8" class="edge">
<title>Node1&#45;&gt;Node9</title>
<path fill="none" stroke="midnightblue" d="M128.2,-97.33C148.01,-94.92 169.16,-92.35 186.31,-90.27"/>
<polygon fill="midnightblue" stroke="midnightblue" points="186.91,-93.73 196.42,-89.05 186.07,-86.78 186.91,-93.73"/>
</g>
<!-- Node10 -->
<g id="node10" class="node">
<title>Node10</title>
<g id="a_node10"><a target="_blank" xlink:href="http://en.cppreference.com/w/cpp/numeric/math/sqrt.html#" target="_top" xlink:title=" ">
<polygon fill="white" stroke="black" points="196,-38.5 196,-57.5 249,-57.5 249,-38.5 196,-38.5"/>
<text text-anchor="middle" x="222.5" y="-45.5" font-family="Helvetica,sans-Serif" font-size="10.00">std::sqrt</text>
</a>
</g>
</g>
<!-- Node1&#45;&gt;Node10 -->
<g id="edge9" class="edge">
<title>Node1&#45;&gt;Node10</title>
<path fill="none" stroke="midnightblue" d="M102.92,-89.96C121.29,-82.8 143.71,-74.24 164,-67 171.15,-64.45 178.84,-61.83 186.19,-59.37"/>
<polygon fill="midnightblue" stroke="midnightblue" points="187.54,-62.62 195.94,-56.16 185.34,-55.97 187.54,-62.62"/>
</g>
<!-- Node11 -->
<g id="node11" class="node">
<title>Node11</title>
<g id="a_node11"><a xlink:href="../../d8/d77/namespacemachine__learning.html#a5305cc18d11943d3dc0d66e70d7e9c44" target="_top" xlink:title=" ">
<polygon fill="white" stroke="black" points="164,-0.5 164,-19.5 281,-19.5 281,-0.5 164,-0.5"/>
<text text-anchor="middle" x="222.5" y="-7.5" font-family="Helvetica,sans-Serif" font-size="10.00">machine_learning::sum</text>
</a>
</g>
</g>
<!-- Node1&#45;&gt;Node11 -->
<g id="edge10" class="edge">
<title>Node1&#45;&gt;Node11</title>
<path fill="none" stroke="midnightblue" d="M80.98,-89.97C99.63,-73.11 132.02,-45.93 164,-29 168.03,-26.87 172.34,-24.91 176.73,-23.13"/>
<polygon fill="midnightblue" stroke="midnightblue" points="178.22,-26.31 186.36,-19.53 175.77,-19.76 178.22,-26.31"/>
</g>
<!-- Node4 -->
<g id="node4" class="node">
<title>Node4</title>
<g id="a_node4"><a target="_blank" xlink:href="http://en.cppreference.com/w/cpp/iterator/begin.html#" target="_top" xlink:title=" ">
<polygon fill="white" stroke="black" points="333.5,-209.5 333.5,-228.5 392.5,-228.5 392.5,-209.5 333.5,-209.5"/>
<text text-anchor="middle" x="363" y="-216.5" font-family="Helvetica,sans-Serif" font-size="10.00">std::begin</text>
</a>
</g>
</g>
<!-- Node3&#45;&gt;Node4 -->
<g id="edge3" class="edge">
<title>Node3&#45;&gt;Node4</title>
<path fill="none" stroke="midnightblue" d="M255.49,-171.52C263.89,-174.31 272.87,-177.54 281,-181 297.65,-188.08 300.65,-192.25 317,-200 320.79,-201.8 324.8,-203.61 328.8,-205.37"/>
<polygon fill="midnightblue" stroke="midnightblue" points="327.44,-208.59 338.01,-209.32 330.2,-202.16 327.44,-208.59"/>
</g>
<!-- Node5 -->
<g id="node5" class="node">
<title>Node5</title>
<g id="a_node5"><a target="_blank" xlink:href="http://en.cppreference.com/w/cpp/iterator/distance.html#" target="_top" xlink:title=" ">
<polygon fill="white" stroke="black" points="326.5,-171.5 326.5,-190.5 399.5,-190.5 399.5,-171.5 326.5,-171.5"/>
<text text-anchor="middle" x="363" y="-178.5" font-family="Helvetica,sans-Serif" font-size="10.00">std::distance</text>
</a>
</g>
</g>
<!-- Node3&#45;&gt;Node5 -->
<g id="edge4" class="edge">
<title>Node3&#45;&gt;Node5</title>
<path fill="none" stroke="midnightblue" d="M256.32,-166.5C274.17,-168.95 296.53,-172.02 316.08,-174.7"/>
<polygon fill="midnightblue" stroke="midnightblue" points="315.63,-178.17 326.01,-176.06 316.58,-171.24 315.63,-178.17"/>
</g>
<!-- Node6 -->
<g id="node6" class="node">
<title>Node6</title>
<g id="a_node6"><a target="_blank" xlink:href="http://en.cppreference.com/w/cpp/iterator/end.html#" target="_top" xlink:title=" ">
<polygon fill="white" stroke="black" points="337,-133.5 337,-152.5 389,-152.5 389,-133.5 337,-133.5"/>
<text text-anchor="middle" x="363" y="-140.5" font-family="Helvetica,sans-Serif" font-size="10.00">std::end</text>
</a>
</g>
</g>
<!-- Node3&#45;&gt;Node6 -->
<g id="edge5" class="edge">
<title>Node3&#45;&gt;Node6</title>
<path fill="none" stroke="midnightblue" d="M256.32,-157.5C277.5,-154.59 305.02,-150.82 326.67,-147.85"/>
<polygon fill="midnightblue" stroke="midnightblue" points="327.34,-151.29 336.77,-146.46 326.39,-144.35 327.34,-151.29"/>
</g>
<!-- Node7 -->
<g id="node7" class="node">
<title>Node7</title>
<g id="a_node7"><a target="_blank" xlink:href="http://en.cppreference.com/w/cpp/algorithm/min_element.html#" target="_top" xlink:title=" ">
<polygon fill="white" stroke="black" points="317,-95.5 317,-114.5 409,-114.5 409,-95.5 317,-95.5"/>
<text text-anchor="middle" x="363" y="-102.5" font-family="Helvetica,sans-Serif" font-size="10.00">std::min_element</text>
</a>
</g>
</g>
<!-- Node3&#45;&gt;Node7 -->
<g id="edge6" class="edge">
<title>Node3&#45;&gt;Node7</title>
<path fill="none" stroke="midnightblue" d="M255.49,-152.48C263.89,-149.69 272.87,-146.46 281,-143 297.65,-135.92 300.65,-131.75 317,-124 320.79,-122.2 324.8,-120.39 328.8,-118.63"/>
<polygon fill="midnightblue" stroke="midnightblue" points="330.2,-121.84 338.01,-114.68 327.44,-115.41 330.2,-121.84"/>
</g>
</g>
</svg>
