<?xml version="1.0" encoding="UTF-8" standalone="no"?>
<!DOCTYPE svg PUBLIC "-//W3C//DTD SVG 1.1//EN"
 "http://www.w3.org/Graphics/SVG/1.1/DTD/svg11.dtd">
<!-- Generated by graphviz version 12.1.1 (20240910.0053)
 -->
<!-- Title: machine_learning::update_weights Pages: 1 -->
<svg width="288pt" height="249pt"
 viewBox="0.00 0.00 287.50 249.25" xmlns="http://www.w3.org/2000/svg" xmlns:xlink="http://www.w3.org/1999/xlink">
<g id="graph0" class="graph" transform="scale(1 1) rotate(0) translate(4 245.25)">
<title>machine_learning::update_weights</title>
<!-- Node1 -->
<g id="Node000001" class="node">
<title>Node1</title>
<g id="a_Node000001"><a xlink:title=" ">
<polygon fill="#999999" stroke="#666666" points="127,-135.88 0,-135.88 0,-105.38 127,-105.38 127,-135.88"/>
<text text-anchor="start" x="8" y="-122.38" font-family="Helvetica,sans-Serif" font-size="10.00">machine_learning::update</text>
<text text-anchor="middle" x="63.5" y="-111.12" font-family="Helvetica,sans-Serif" font-size="10.00">_weights</text>
</a>
</g>
</g>
<!-- Node2 -->
<g id="Node000002" class="node">
<title>Node2</title>
<g id="a_Node000002"><a target="_blank" xlink:href="http://en.cppreference.com/w/cpp/iterator/begin.html#" xlink:title=" ">
<polygon fill="white" stroke="#666666" points="250.62,-241.25 191.88,-241.25 191.88,-222 250.62,-222 250.62,-241.25"/>
<text text-anchor="middle" x="221.25" y="-227.75" font-family="Helvetica,sans-Serif" font-size="10.00">std::begin</text>
</a>
</g>
</g>
<!-- Node1&#45;&gt;Node2 -->
<g id="edge1_Node000001_Node000002" class="edge">
<title>Node1&#45;&gt;Node2</title>
<g id="a_edge1_Node000001_Node000002"><a xlink:title=" ">
<path fill="none" stroke="#63b8ff" d="M76.89,-136.06C94.13,-156.58 127.3,-192.68 163,-213.62 168.45,-216.82 174.53,-219.51 180.63,-221.76"/>
<polygon fill="#63b8ff" stroke="#63b8ff" points="179.49,-225.07 190.08,-224.87 181.67,-218.42 179.49,-225.07"/>
</a>
</g>
</g>
<!-- Node3 -->
<g id="Node000003" class="node">
<title>Node3</title>
<g id="a_Node000003"><a target="_blank" xlink:href="http://en.cppreference.com/w/cpp/iterator/distance.html#" xlink:title=" ">
<polygon fill="white" stroke="#666666" points="257.38,-204.25 185.12,-204.25 185.12,-185 257.38,-185 257.38,-204.25"/>
<text text-anchor="middle" x="221.25" y="-190.75" font-family="Helvetica,sans-Serif" font-size="10.00">std::distance</text>
</a>
</g>
</g>
<!-- Node1&#45;&gt;Node3 -->
<g id="edge2_Node000001_Node000003" class="edge">
<title>Node1&#45;&gt;Node3</title>
<g id="a_edge2_Node000001_Node000003"><a xlink:title=" ">
<path fill="none" stroke="#63b8ff" d="M88.45,-136.16C107.95,-148.33 136.49,-165.08 163,-176.62 166.55,-178.17 170.27,-179.64 174.04,-181.04"/>
<polygon fill="#63b8ff" stroke="#63b8ff" points="172.67,-184.27 183.27,-184.24 174.97,-177.66 172.67,-184.27"/>
</a>
</g>
</g>
<!-- Node4 -->
<g id="Node000004" class="node">
<title>Node4</title>
<g id="a_Node000004"><a target="_blank" xlink:href="http://en.cppreference.com/w/cpp/iterator/end.html#" xlink:title=" ">
<polygon fill="white" stroke="#666666" points="246.88,-167.25 195.62,-167.25 195.62,-148 246.88,-148 246.88,-167.25"/>
<text text-anchor="middle" x="221.25" y="-153.75" font-family="Helvetica,sans-Serif" font-size="10.00">std::end</text>
</a>
</g>
</g>
<!-- Node1&#45;&gt;Node4 -->
<g id="edge3_Node000001_Node000004" class="edge">
<title>Node1&#45;&gt;Node4</title>
<g id="a_edge3_Node000001_Node000004"><a xlink:title=" ">
<path fill="none" stroke="#63b8ff" d="M127.4,-135.57C146.74,-140.16 167.37,-145.06 184.26,-149.07"/>
<polygon fill="#63b8ff" stroke="#63b8ff" points="183.28,-152.44 193.81,-151.34 184.89,-145.63 183.28,-152.44"/>
</a>
</g>
</g>
<!-- Node5 -->
<g id="Node000005" class="node">
<title>Node5</title>
<g id="a_Node000005"><a target="_blank" xlink:href="http://en.cppreference.com/w/cpp/algorithm/max.html#" xlink:title=" ">
<polygon fill="white" stroke="#666666" points="248.38,-130.25 194.12,-130.25 194.12,-111 248.38,-111 248.38,-130.25"/>
<text text-anchor="middle" x="221.25" y="-116.75" font-family="Helvetica,sans-Serif" font-size="10.00">std::max</text>
</a>
</g>
</g>
<!-- Node1&#45;&gt;Node5 -->
<g id="edge4_Node000001_Node000005" class="edge">
<title>Node1&#45;&gt;Node5</title>
<g id="a_edge4_Node000001_Node000005"><a xlink:title=" ">
<path fill="none" stroke="#63b8ff" d="M127.4,-120.62C146.02,-120.62 165.82,-120.62 182.33,-120.62"/>
<polygon fill="#63b8ff" stroke="#63b8ff" points="182.2,-124.13 192.2,-120.63 182.2,-117.13 182.2,-124.13"/>
</a>
</g>
</g>
<!-- Node6 -->
<g id="Node000006" class="node">
<title>Node6</title>
<g id="a_Node000006"><a target="_blank" xlink:href="http://en.cppreference.com/w/cpp/algorithm/min.html#" xlink:title=" ">
<polygon fill="white" stroke="#666666" points="246.88,-93.25 195.62,-93.25 195.62,-74 246.88,-74 246.88,-93.25"/>
<text text-anchor="middle" x="221.25" y="-79.75" font-family="Helvetica,sans-Serif" font-size="10.00">std::min</text>
</a>
</g>
</g>
<!-- Node1&#45;&gt;Node6 -->
<g id="edge5_Node000001_Node000006" class="edge">
<title>Node1&#45;&gt;Node6</title>
<g id="a_edge5_Node000001_Node000006"><a xlink:title=" ">
<path fill="none" stroke="#63b8ff" d="M127.4,-105.68C146.74,-101.09 167.37,-96.19 184.26,-92.18"/>
<polygon fill="#63b8ff" stroke="#63b8ff" points="184.89,-95.62 193.81,-89.91 183.28,-88.81 184.89,-95.62"/>
</a>
</g>
</g>
<!-- Node7 -->
<g id="Node000007" class="node">
<title>Node7</title>
<g id="a_Node000007"><a target="_blank" xlink:href="http://en.cppreference.com/w/cpp/algorithm/min_element.html#" xlink:title=" ">
<polygon fill="white" stroke="#666666" points="266.75,-56.25 175.75,-56.25 175.75,-37 266.75,-37 266.75,-56.25"/>
<text text-anchor="middle" x="221.25" y="-42.75" font-family="Helvetica,sans-Serif" font-size="10.00">std::min_element</text>
</a>
</g>
</g>
<!-- Node1&#45;&gt;Node7 -->
<g id="edge6_Node000001_Node000007" class="edge">
<title>Node1&#45;&gt;Node7</title>
<g id="a_edge6_Node000001_Node000007"><a xlink:title=" ">
<path fill="none" stroke="#63b8ff" d="M88.45,-105.09C107.95,-92.92 136.49,-76.17 163,-64.62 166.34,-63.17 169.84,-61.77 173.39,-60.45"/>
<polygon fill="#63b8ff" stroke="#63b8ff" points="174.38,-63.82 182.66,-57.21 172.07,-57.21 174.38,-63.82"/>
</a>
</g>
</g>
<!-- Node8 -->
<g id="Node000008" class="node">
<title>Node8</title>
<g id="a_Node000008"><a xlink:href="../../d8/d77/namespacemachine__learning.html#a6f1c98c016ad34ff3d9f39372161bd35" target="_top" xlink:title=" ">
<polygon fill="white" stroke="#666666" points="279.5,-19.25 163,-19.25 163,0 279.5,0 279.5,-19.25"/>
<text text-anchor="middle" x="221.25" y="-5.75" font-family="Helvetica,sans-Serif" font-size="10.00">machine_learning::sum</text>
</a>
</g>
</g>
<!-- Node1&#45;&gt;Node8 -->
<g id="edge7_Node000001_Node000008" class="edge">
<title>Node1&#45;&gt;Node8</title>
<g id="a_edge7_Node000001_Node000008"><a xlink:title=" ">
<path fill="none" stroke="#63b8ff" d="M76.89,-105.19C94.13,-84.67 127.3,-48.57 163,-27.62 165.15,-26.36 167.41,-25.18 169.72,-24.07"/>
<polygon fill="#63b8ff" stroke="#63b8ff" points="170.89,-27.37 178.75,-20.26 168.17,-20.92 170.89,-27.37"/>
</a>
</g>
</g>
</g>
</svg>
