<?xml version="1.0" encoding="UTF-8" standalone="no"?>
<!DOCTYPE svg PUBLIC "-//W3C//DTD SVG 1.1//EN"
 "http://www.w3.org/Graphics/SVG/1.1/DTD/svg11.dtd">
<!-- Generated by graphviz version 8.0.4 (20230421.1958)
 -->
<!-- Title: machine_learning::operator&lt;&lt; Pages: 1 -->
<svg width="400pt" height="138pt"
 viewBox="0.00 0.00 399.50 138.25" xmlns="http://www.w3.org/2000/svg" xmlns:xlink="http://www.w3.org/1999/xlink">
<g id="graph0" class="graph" transform="scale(1 1) rotate(0) translate(4 134.25)">
<title>machine_learning::operator&lt;&lt;</title>
<!-- Node1 -->
<g id="node1" class="node">
<title>Node1</title>
<g id="a_node1"><a xlink:title=" ">
<polygon fill="#999999" stroke="#666666" points="145,-74.25 0,-74.25 0,-55 145,-55 145,-74.25"/>
<text text-anchor="middle" x="72.5" y="-60.75" font-family="Helvetica,sans-Serif" font-size="10.00">machine_learning::operator&lt;&lt;</text>
</a>
</g>
</g>
<!-- Node2 -->
<g id="node2" class="node">
<title>Node2</title>
<g id="a_node2"><a target="_blank" xlink:href="http://en.cppreference.com/w/cpp/io/manip/endl.html#" xlink:title=" ">
<polygon fill="white" stroke="#666666" points="388.88,-130.25 335.38,-130.25 335.38,-111 388.88,-111 388.88,-130.25"/>
<text text-anchor="middle" x="362.12" y="-116.75" font-family="Helvetica,sans-Serif" font-size="10.00">std::endl</text>
</a>
</g>
</g>
<!-- Node1&#45;&gt;Node2 -->
<g id="edge1" class="edge">
<title>Node1&#45;&gt;Node2</title>
<path fill="none" stroke="#63b8ff" d="M97.39,-74.6C118.88,-83.15 151.52,-95.09 181,-101.62 229.83,-112.46 287.51,-117.16 324.2,-119.17"/>
<polygon fill="#63b8ff" stroke="#63b8ff" points="323.71,-122.7 333.88,-119.72 324.07,-115.71 323.71,-122.7"/>
</g>
<!-- Node3 -->
<g id="node3" class="node">
<title>Node3</title>
<g id="a_node3"><a xlink:href="../../dc/d38/ordinary__least__squares__regressor_8cpp.html#a7075a0fccad9b2d79be0275bfe8948d4" target="_top" xlink:title=" ">
<polygon fill="white" stroke="#666666" points="270.5,-74.25 207.25,-74.25 207.25,-55 270.5,-55 270.5,-74.25"/>
<text text-anchor="middle" x="238.88" y="-60.75" font-family="Helvetica,sans-Serif" font-size="10.00">operator&lt;&lt;</text>
</a>
</g>
</g>
<!-- Node1&#45;&gt;Node3 -->
<g id="edge2" class="edge">
<title>Node1&#45;&gt;Node3</title>
<path fill="none" stroke="#63b8ff" d="M145.12,-64.62C162.52,-64.62 180.57,-64.62 196.07,-64.62"/>
<polygon fill="#63b8ff" stroke="#63b8ff" points="195.86,-68.13 205.86,-64.62 195.86,-61.13 195.86,-68.13"/>
</g>
<!-- Node7 -->
<g id="node7" class="node">
<title>Node7</title>
<g id="a_node7"><a target="_blank" xlink:href="http://en.cppreference.com/w/cpp/io/ios_base/precision.html#" xlink:title=" ">
<polygon fill="white" stroke="#666666" points="296.75,-37.25 181,-37.25 181,-18 296.75,-18 296.75,-37.25"/>
<text text-anchor="middle" x="238.88" y="-23.75" font-family="Helvetica,sans-Serif" font-size="10.00">std::ostream::precision</text>
</a>
</g>
</g>
<!-- Node1&#45;&gt;Node7 -->
<g id="edge8" class="edge">
<title>Node1&#45;&gt;Node7</title>
<path fill="none" stroke="#63b8ff" d="M118.42,-54.51C138.17,-50.07 161.56,-44.8 182.39,-40.11"/>
<polygon fill="#63b8ff" stroke="#63b8ff" points="183.03,-43.33 192.01,-37.72 181.49,-36.5 183.03,-43.33"/>
</g>
<!-- Node3&#45;&gt;Node2 -->
<g id="edge3" class="edge">
<title>Node3&#45;&gt;Node2</title>
<path fill="none" stroke="#63b8ff" d="M261.55,-74.64C280.4,-83.34 307.96,-96.07 329.31,-105.93"/>
<polygon fill="#63b8ff" stroke="#63b8ff" points="327.68,-109.5 338.23,-110.51 330.62,-103.14 327.68,-109.5"/>
</g>
<!-- Node3&#45;&gt;Node3 -->
<g id="edge5" class="edge">
<title>Node3&#45;&gt;Node3</title>
<path fill="none" stroke="#63b8ff" d="M219.58,-74.54C210.78,-83.15 217.21,-92.25 238.88,-92.25 251.4,-92.25 258.83,-89.21 261.18,-84.98"/>
<polygon fill="#63b8ff" stroke="#63b8ff" points="264.3,-84.18 258.17,-75.54 257.57,-86.12 264.3,-84.18"/>
</g>
<!-- Node4 -->
<g id="node4" class="node">
<title>Node4</title>
<g id="a_node4"><a target="_blank" xlink:href="http://en.cppreference.com/w/cpp/io/manip/left.html#" xlink:title=" ">
<polygon fill="white" stroke="#666666" points="386.62,-93.25 337.62,-93.25 337.62,-74 386.62,-74 386.62,-93.25"/>
<text text-anchor="middle" x="362.12" y="-79.75" font-family="Helvetica,sans-Serif" font-size="10.00">std::left</text>
</a>
</g>
</g>
<!-- Node3&#45;&gt;Node4 -->
<g id="edge4" class="edge">
<title>Node3&#45;&gt;Node4</title>
<path fill="none" stroke="#63b8ff" d="M270.79,-69.47C287.87,-72.15 309.13,-75.48 326.74,-78.24"/>
<polygon fill="#63b8ff" stroke="#63b8ff" points="325.74,-81.78 336.16,-79.87 326.82,-74.86 325.74,-81.78"/>
</g>
<!-- Node5 -->
<g id="node5" class="node">
<title>Node5</title>
<g id="a_node5"><a target="_blank" xlink:href="http://en.cppreference.com/w/cpp/io/manip/setfill.html#" xlink:title=" ">
<polygon fill="white" stroke="#666666" points="391.5,-56.25 332.75,-56.25 332.75,-37 391.5,-37 391.5,-56.25"/>
<text text-anchor="middle" x="362.12" y="-42.75" font-family="Helvetica,sans-Serif" font-size="10.00">std::setfill</text>
</a>
</g>
</g>
<!-- Node3&#45;&gt;Node5 -->
<g id="edge6" class="edge">
<title>Node3&#45;&gt;Node5</title>
<path fill="none" stroke="#63b8ff" d="M270.79,-60.04C286.33,-57.73 305.33,-54.91 321.88,-52.45"/>
<polygon fill="#63b8ff" stroke="#63b8ff" points="321.98,-55.83 331.35,-50.9 320.95,-48.9 321.98,-55.83"/>
</g>
<!-- Node6 -->
<g id="node6" class="node">
<title>Node6</title>
<g id="a_node6"><a target="_blank" xlink:href="http://en.cppreference.com/w/cpp/io/manip/setw.html#" xlink:title=" ">
<polygon fill="white" stroke="#666666" points="390.38,-19.25 333.88,-19.25 333.88,0 390.38,0 390.38,-19.25"/>
<text text-anchor="middle" x="362.12" y="-5.75" font-family="Helvetica,sans-Serif" font-size="10.00">std::setw</text>
</a>
</g>
</g>
<!-- Node3&#45;&gt;Node6 -->
<g id="edge7" class="edge">
<title>Node3&#45;&gt;Node6</title>
<path fill="none" stroke="#63b8ff" d="M270.72,-56.19C279.29,-53.49 288.5,-50.25 296.75,-46.62 304.49,-43.22 321.22,-33.58 335.68,-25"/>
<polygon fill="#63b8ff" stroke="#63b8ff" points="336.95,-27.72 343.74,-19.58 333.36,-21.71 336.95,-27.72"/>
</g>
</g>
</svg>
