<?xml version="1.0" encoding="UTF-8" standalone="no"?>
<!DOCTYPE svg PUBLIC "-//W3C//DTD SVG 1.1//EN"
 "http://www.w3.org/Graphics/SVG/1.1/DTD/svg11.dtd">
<!-- Generated by graphviz version 2.49.3 (20211023.0002)
 -->
<!-- Title: machine_learning::minmax_scaler Pages: 1 -->
<svg width="295pt" height="230pt"
 viewBox="0.00 0.00 295.00 230.00" xmlns="http://www.w3.org/2000/svg" xmlns:xlink="http://www.w3.org/1999/xlink">
<g id="graph0" class="graph" transform="scale(1 1) rotate(0) translate(4 226)">
<title>machine_learning::minmax_scaler</title>
<polygon fill="white" stroke="transparent" points="-4,4 -4,-226 291,-226 291,4 -4,4"/>
<!-- Node1 -->
<g id="node1" class="node">
<title>Node1</title>
<g id="a_node1"><a xlink:title=" ">
<polygon fill="#bfbfbf" stroke="black" points="0,-93 0,-123 136,-123 136,-93 0,-93"/>
<text text-anchor="start" x="8" y="-111" font-family="Helvetica,sans-Serif" font-size="10.00">machine_learning::minmax</text>
<text text-anchor="middle" x="68" y="-100" font-family="Helvetica,sans-Serif" font-size="10.00">_scaler</text>
</a>
</g>
</g>
<!-- Node2 -->
<g id="node2" class="node">
<title>Node2</title>
<g id="a_node2"><a target="_blank" xlink:href="http://en.cppreference.com/w/cpp/io/manip/endl.html#" xlink:title=" ">
<polygon fill="white" stroke="black" points="202.5,-202.5 202.5,-221.5 256.5,-221.5 256.5,-202.5 202.5,-202.5"/>
<text text-anchor="middle" x="229.5" y="-209.5" font-family="Helvetica,sans-Serif" font-size="10.00">std::endl</text>
</a>
</g>
</g>
<!-- Node1&#45;&gt;Node2 -->
<g id="edge1" class="edge">
<title>Node1&#45;&gt;Node2</title>
<path fill="none" stroke="midnightblue" d="M83.73,-123.19C102.63,-141.92 137.14,-173.63 172,-193 178.47,-196.59 185.73,-199.66 192.84,-202.22"/>
<polygon fill="midnightblue" stroke="midnightblue" points="191.75,-205.55 202.35,-205.39 193.97,-198.91 191.75,-205.55"/>
</g>
<!-- Node3 -->
<g id="node3" class="node">
<title>Node3</title>
<g id="a_node3"><a target="_blank" xlink:href="http://en.cppreference.com/w/cpp/utility/program/exit.html#" xlink:title=" ">
<polygon fill="white" stroke="black" points="204,-164.5 204,-183.5 255,-183.5 255,-164.5 204,-164.5"/>
<text text-anchor="middle" x="229.5" y="-171.5" font-family="Helvetica,sans-Serif" font-size="10.00">std::exit</text>
</a>
</g>
</g>
<!-- Node1&#45;&gt;Node3 -->
<g id="edge2" class="edge">
<title>Node1&#45;&gt;Node3</title>
<path fill="none" stroke="midnightblue" d="M99.74,-123.04C120.03,-132.71 147.32,-145.25 172,-155 179.08,-157.8 186.76,-160.56 194.1,-163.07"/>
<polygon fill="midnightblue" stroke="midnightblue" points="193.23,-166.47 203.83,-166.32 195.45,-159.83 193.23,-166.47"/>
</g>
<!-- Node4 -->
<g id="node4" class="node">
<title>Node4</title>
<g id="a_node4"><a xlink:href="../../d8/d77/namespacemachine__learning.html#aa4bbf61e65f8cd297255fa94b983d078" target="_top" xlink:title=" ">
<polygon fill="white" stroke="black" points="172,-115 172,-145 287,-145 287,-115 172,-115"/>
<text text-anchor="start" x="180" y="-133" font-family="Helvetica,sans-Serif" font-size="10.00">machine_learning::get</text>
<text text-anchor="middle" x="229.5" y="-122" font-family="Helvetica,sans-Serif" font-size="10.00">_shape</text>
</a>
</g>
</g>
<!-- Node1&#45;&gt;Node4 -->
<g id="edge3" class="edge">
<title>Node1&#45;&gt;Node4</title>
<path fill="none" stroke="midnightblue" d="M136.18,-117.27C144.75,-118.45 153.51,-119.66 162.07,-120.84"/>
<polygon fill="midnightblue" stroke="midnightblue" points="161.6,-124.31 171.99,-122.21 162.56,-117.37 161.6,-124.31"/>
</g>
<!-- Node5 -->
<g id="node5" class="node">
<title>Node5</title>
<g id="a_node5"><a target="_blank" xlink:href="http://en.cppreference.com/w/cpp/algorithm/max.html#" xlink:title=" ">
<polygon fill="white" stroke="black" points="202.5,-76.5 202.5,-95.5 256.5,-95.5 256.5,-76.5 202.5,-76.5"/>
<text text-anchor="middle" x="229.5" y="-83.5" font-family="Helvetica,sans-Serif" font-size="10.00">std::max</text>
</a>
</g>
</g>
<!-- Node1&#45;&gt;Node5 -->
<g id="edge4" class="edge">
<title>Node1&#45;&gt;Node5</title>
<path fill="none" stroke="midnightblue" d="M136.18,-98.73C155.32,-96.09 175.44,-93.32 192,-91.03"/>
<polygon fill="midnightblue" stroke="midnightblue" points="192.89,-94.44 202.32,-89.61 191.94,-87.51 192.89,-94.44"/>
</g>
<!-- Node6 -->
<g id="node6" class="node">
<title>Node6</title>
<g id="a_node6"><a target="_blank" xlink:href="http://en.cppreference.com/w/cpp/algorithm/min.html#" xlink:title=" ">
<polygon fill="white" stroke="black" points="203.5,-38.5 203.5,-57.5 255.5,-57.5 255.5,-38.5 203.5,-38.5"/>
<text text-anchor="middle" x="229.5" y="-45.5" font-family="Helvetica,sans-Serif" font-size="10.00">std::min</text>
</a>
</g>
</g>
<!-- Node1&#45;&gt;Node6 -->
<g id="edge5" class="edge">
<title>Node1&#45;&gt;Node6</title>
<path fill="none" stroke="midnightblue" d="M105.52,-92.9C125.13,-84.94 149.78,-75.15 172,-67 179.01,-64.43 186.56,-61.79 193.79,-59.34"/>
<polygon fill="midnightblue" stroke="midnightblue" points="195,-62.63 203.37,-56.13 192.77,-55.99 195,-62.63"/>
</g>
<!-- Node7 -->
<g id="node7" class="node">
<title>Node7</title>
<g id="a_node7"><a target="_blank" xlink:href="http://en.cppreference.com/w/cpp/container/vector/size.html#" xlink:title=" ">
<polygon fill="white" stroke="black" points="186.5,-0.5 186.5,-19.5 272.5,-19.5 272.5,-0.5 186.5,-0.5"/>
<text text-anchor="middle" x="229.5" y="-7.5" font-family="Helvetica,sans-Serif" font-size="10.00">std::vector::size</text>
</a>
</g>
</g>
<!-- Node1&#45;&gt;Node7 -->
<g id="edge6" class="edge">
<title>Node1&#45;&gt;Node7</title>
<path fill="none" stroke="midnightblue" d="M85.3,-92.72C104.67,-75.26 138.58,-46.8 172,-29 175.96,-26.89 180.2,-24.95 184.51,-23.18"/>
<polygon fill="midnightblue" stroke="midnightblue" points="185.87,-26.41 193.98,-19.59 183.39,-19.87 185.87,-26.41"/>
</g>
</g>
</svg>
