<?xml version="1.0" encoding="UTF-8" standalone="no"?>
<!DOCTYPE svg PUBLIC "-//W3C//DTD SVG 1.1//EN"
 "http://www.w3.org/Graphics/SVG/1.1/DTD/svg11.dtd">
<!-- Generated by graphviz version 9.0.0 (20230911.1827)
 -->
<!-- Title: games/memory_game.cpp Pages: 1 -->
<svg width="452pt" height="83pt"
 viewBox="0.00 0.00 452.12 82.50" xmlns="http://www.w3.org/2000/svg" xmlns:xlink="http://www.w3.org/1999/xlink">
<g id="graph0" class="graph" transform="scale(1 1) rotate(0) translate(4 78.5)">
<title>games/memory_game.cpp</title>
<!-- Node1 -->
<g id="Node000001" class="node">
<title>Node1</title>
<g id="a_Node000001"><a xlink:title="A simple Memory Game with 3 different sizes and multiple letters.">
<polygon fill="#999999" stroke="#666666" points="286.62,-74.5 155.12,-74.5 155.12,-55.25 286.62,-55.25 286.62,-74.5"/>
<text text-anchor="middle" x="220.88" y="-61" font-family="Helvetica,sans-Serif" font-size="10.00">games/memory_game.cpp</text>
</a>
</g>
</g>
<!-- Node2 -->
<g id="Node000002" class="node">
<title>Node2</title>
<g id="a_Node000002"><a xlink:title=" ">
<polygon fill="#e0e0e0" stroke="#999999" points="55.75,-19.25 0,-19.25 0,0 55.75,0 55.75,-19.25"/>
<text text-anchor="middle" x="27.88" y="-5.75" font-family="Helvetica,sans-Serif" font-size="10.00">algorithm</text>
</a>
</g>
</g>
<!-- Node1&#45;&gt;Node2 -->
<g id="edge1_Node000001_Node000002" class="edge">
<title>Node1&#45;&gt;Node2</title>
<g id="a_edge1_Node000001_Node000002"><a xlink:title=" ">
<path fill="none" stroke="#63b8ff" d="M188.14,-54.84C154.66,-45.6 102.64,-31.25 67.01,-21.42"/>
<polygon fill="#63b8ff" stroke="#63b8ff" points="68.09,-18.09 57.52,-18.8 66.23,-24.84 68.09,-18.09"/>
</a>
</g>
</g>
<!-- Node3 -->
<g id="Node000003" class="node">
<title>Node3</title>
<g id="a_Node000003"><a xlink:title=" ">
<polygon fill="#e0e0e0" stroke="#999999" points="118.12,-19.25 73.62,-19.25 73.62,0 118.12,0 118.12,-19.25"/>
<text text-anchor="middle" x="95.88" y="-5.75" font-family="Helvetica,sans-Serif" font-size="10.00">cstdlib</text>
</a>
</g>
</g>
<!-- Node1&#45;&gt;Node3 -->
<g id="edge2_Node000001_Node000003" class="edge">
<title>Node1&#45;&gt;Node3</title>
<g id="a_edge2_Node000001_Node000003"><a xlink:title=" ">
<path fill="none" stroke="#63b8ff" d="M199.67,-54.84C179.92,-46.43 150.2,-33.77 127.62,-24.15"/>
<polygon fill="#63b8ff" stroke="#63b8ff" points="129.15,-20.99 118.58,-20.3 126.4,-27.43 129.15,-20.99"/>
</a>
</g>
</g>
<!-- Node4 -->
<g id="Node000004" class="node">
<title>Node4</title>
<g id="a_Node000004"><a xlink:title=" ">
<polygon fill="#e0e0e0" stroke="#999999" points="175.88,-19.25 135.88,-19.25 135.88,0 175.88,0 175.88,-19.25"/>
<text text-anchor="middle" x="155.88" y="-5.75" font-family="Helvetica,sans-Serif" font-size="10.00">ctime</text>
</a>
</g>
</g>
<!-- Node1&#45;&gt;Node4 -->
<g id="edge3_Node000001_Node000004" class="edge">
<title>Node1&#45;&gt;Node4</title>
<g id="a_edge3_Node000001_Node000004"><a xlink:title=" ">
<path fill="none" stroke="#63b8ff" d="M209.85,-54.84C200.45,-47.15 186.73,-35.9 175.47,-26.68"/>
<polygon fill="#63b8ff" stroke="#63b8ff" points="177.86,-24.11 167.91,-20.48 173.43,-29.53 177.86,-24.11"/>
</a>
</g>
</g>
<!-- Node5 -->
<g id="Node000005" class="node">
<title>Node5</title>
<g id="a_Node000005"><a xlink:title=" ">
<polygon fill="#e0e0e0" stroke="#999999" points="247.62,-19.25 194.12,-19.25 194.12,0 247.62,0 247.62,-19.25"/>
<text text-anchor="middle" x="220.88" y="-5.75" font-family="Helvetica,sans-Serif" font-size="10.00">iostream</text>
</a>
</g>
</g>
<!-- Node1&#45;&gt;Node5 -->
<g id="edge4_Node000001_Node000005" class="edge">
<title>Node1&#45;&gt;Node5</title>
<g id="a_edge4_Node000001_Node000005"><a xlink:title=" ">
<path fill="none" stroke="#63b8ff" d="M220.88,-55.08C220.88,-48.57 220.88,-39.42 220.88,-31.12"/>
<polygon fill="#63b8ff" stroke="#63b8ff" points="224.38,-31.12 220.88,-21.12 217.38,-31.12 224.38,-31.12"/>
</a>
</g>
</g>
<!-- Node6 -->
<g id="Node000006" class="node">
<title>Node6</title>
<g id="a_Node000006"><a xlink:title=" ">
<polygon fill="#e0e0e0" stroke="#999999" points="314,-19.25 265.75,-19.25 265.75,0 314,0 314,-19.25"/>
<text text-anchor="middle" x="289.88" y="-5.75" font-family="Helvetica,sans-Serif" font-size="10.00">random</text>
</a>
</g>
</g>
<!-- Node1&#45;&gt;Node6 -->
<g id="edge5_Node000001_Node000006" class="edge">
<title>Node1&#45;&gt;Node6</title>
<g id="a_edge5_Node000001_Node000006"><a xlink:title=" ">
<path fill="none" stroke="#63b8ff" d="M232.58,-54.84C242.65,-47.07 257.42,-35.67 269.44,-26.4"/>
<polygon fill="#63b8ff" stroke="#63b8ff" points="271.37,-29.33 277.14,-20.45 267.09,-23.79 271.37,-29.33"/>
</a>
</g>
</g>
<!-- Node7 -->
<g id="Node000007" class="node">
<title>Node7</title>
<g id="a_Node000007"><a xlink:title=" ">
<polygon fill="#e0e0e0" stroke="#999999" points="375.38,-19.25 332.38,-19.25 332.38,0 375.38,0 375.38,-19.25"/>
<text text-anchor="middle" x="353.88" y="-5.75" font-family="Helvetica,sans-Serif" font-size="10.00">vector</text>
</a>
</g>
</g>
<!-- Node1&#45;&gt;Node7 -->
<g id="edge6_Node000001_Node000007" class="edge">
<title>Node1&#45;&gt;Node7</title>
<g id="a_edge6_Node000001_Node000007"><a xlink:title=" ">
<path fill="none" stroke="#63b8ff" d="M243.44,-54.84C264.9,-46.25 297.42,-33.23 321.62,-23.54"/>
<polygon fill="#63b8ff" stroke="#63b8ff" points="322.7,-26.88 330.68,-19.91 320.1,-20.38 322.7,-26.88"/>
</a>
</g>
</g>
<!-- Node8 -->
<g id="Node000008" class="node">
<title>Node8</title>
<g id="a_Node000008"><a xlink:title=" ">
<polygon fill="#e0e0e0" stroke="#999999" points="444.12,-19.25 393.62,-19.25 393.62,0 444.12,0 444.12,-19.25"/>
<text text-anchor="middle" x="418.88" y="-5.75" font-family="Helvetica,sans-Serif" font-size="10.00">unistd.h</text>
</a>
</g>
</g>
<!-- Node1&#45;&gt;Node8 -->
<g id="edge7_Node000001_Node000008" class="edge">
<title>Node1&#45;&gt;Node8</title>
<g id="a_edge7_Node000001_Node000008"><a xlink:title=" ">
<path fill="none" stroke="#63b8ff" d="M254.46,-54.84C290.06,-45.27 346.08,-30.2 382.65,-20.37"/>
<polygon fill="#63b8ff" stroke="#63b8ff" points="383.12,-23.87 391.86,-17.89 381.3,-17.11 383.12,-23.87"/>
</a>
</g>
</g>
</g>
</svg>
