<?xml version="1.0" encoding="UTF-8" standalone="no"?>
<!DOCTYPE svg PUBLIC "-//W3C//DTD SVG 1.1//EN"
 "http://www.w3.org/Graphics/SVG/1.1/DTD/svg11.dtd">
<!-- Generated by graphviz version 8.0.5 (20230430.1635)
 -->
<!-- Title: assertArray Pages: 1 -->
<svg width="170pt" height="64pt"
 viewBox="0.00 0.00 169.75 64.25" xmlns="http://www.w3.org/2000/svg" xmlns:xlink="http://www.w3.org/1999/xlink">
<g id="graph0" class="graph" transform="scale(1 1) rotate(0) translate(4 60.25)">
<title>assertArray</title>
<!-- Node1 -->
<g id="node1" class="node">
<title>Node1</title>
<g id="a_node1"><a xlink:title="Asserts an array of complex numbers.">
<polygon fill="#999999" stroke="#666666" points="66.25,-37.25 0,-37.25 0,-18 66.25,-18 66.25,-37.25"/>
<text text-anchor="middle" x="33.12" y="-23.75" font-family="Helvetica,sans-Serif" font-size="10.00">assertArray</text>
</a>
</g>
</g>
<!-- Node2 -->
<g id="node2" class="node">
<title>Node2</title>
<g id="a_node2"><a target="_blank" xlink:href="http://en.cppreference.com/w/cpp/numeric/math/pow.html#" xlink:title=" ">
<polygon fill="white" stroke="#666666" points="158.75,-56.25 105.25,-56.25 105.25,-37 158.75,-37 158.75,-56.25"/>
<text text-anchor="middle" x="132" y="-42.75" font-family="Helvetica,sans-Serif" font-size="10.00">std::pow</text>
</a>
</g>
</g>
<!-- Node1&#45;&gt;Node2 -->
<g id="edge1" class="edge">
<title>Node1&#45;&gt;Node2</title>
<path fill="none" stroke="#63b8ff" d="M66.65,-34C75.48,-35.74 85.11,-37.62 94.16,-39.4"/>
<polygon fill="#63b8ff" stroke="#63b8ff" points="93.34,-43 103.83,-41.49 94.69,-36.13 93.34,-43"/>
</g>
<!-- Node3 -->
<g id="node3" class="node">
<title>Node3</title>
<g id="a_node3"><a target="_blank" xlink:href="http://en.cppreference.com/w/cpp/numeric/math/round.html#" xlink:title=" ">
<polygon fill="white" stroke="#666666" points="161.75,-19.25 102.25,-19.25 102.25,0 161.75,0 161.75,-19.25"/>
<text text-anchor="middle" x="132" y="-5.75" font-family="Helvetica,sans-Serif" font-size="10.00">std::round</text>
</a>
</g>
</g>
<!-- Node1&#45;&gt;Node3 -->
<g id="edge2" class="edge">
<title>Node1&#45;&gt;Node3</title>
<path fill="none" stroke="#63b8ff" d="M66.65,-21.58C74.6,-20.1 83.19,-18.51 91.43,-16.98"/>
<polygon fill="#63b8ff" stroke="#63b8ff" points="91.78,-20.29 100.98,-15.02 90.5,-13.4 91.78,-20.29"/>
</g>
</g>
</svg>
