<?xml version="1.0" encoding="UTF-8" standalone="no"?>
<!DOCTYPE svg PUBLIC "-//W3C//DTD SVG 1.1//EN"
 "http://www.w3.org/Graphics/SVG/1.1/DTD/svg11.dtd">
<!-- Generated by graphviz version 5.0.0 (20220707.1540)
 -->
<!-- Title: numerical_methods/lu_decomposition.h Pages: 1 -->
<svg width="252pt" height="106pt"
 viewBox="0.00 0.00 251.50 106.00" xmlns="http://www.w3.org/2000/svg" xmlns:xlink="http://www.w3.org/1999/xlink">
<g id="graph0" class="graph" transform="scale(1 1) rotate(0) translate(4 102)">
<title>numerical_methods/lu_decomposition.h</title>
<polygon fill="white" stroke="transparent" points="-4,4 -4,-102 247.5,-102 247.5,4 -4,4"/>
<!-- Node1 -->
<g id="node1" class="node">
<title>Node1</title>
<g id="a_node1"><a xlink:title="Functions associated with LU Decomposition of a square matrix.">
<polygon fill="#bfbfbf" stroke="black" points="65.5,-67.5 65.5,-97.5 177.5,-97.5 177.5,-67.5 65.5,-67.5"/>
<text text-anchor="start" x="73.5" y="-85.5" font-family="Helvetica,sans-Serif" font-size="10.00">numerical_methods/lu</text>
<text text-anchor="middle" x="121.5" y="-74.5" font-family="Helvetica,sans-Serif" font-size="10.00">_decomposition.h</text>
</a>
</g>
</g>
<!-- Node2 -->
<g id="node2" class="node">
<title>Node2</title>
<g id="a_node2"><a xlink:href="../../d7/db9/hill__cipher_8cpp.html" target="_top" xlink:title="Implementation of Hill cipher algorithm.">
<polygon fill="white" stroke="black" points="0,-6 0,-25 113,-25 113,-6 0,-6"/>
<text text-anchor="middle" x="56.5" y="-13" font-family="Helvetica,sans-Serif" font-size="10.00">ciphers/hill_cipher.cpp</text>
</a>
</g>
</g>
<!-- Node1&#45;&gt;Node2 -->
<g id="edge1" class="edge">
<title>Node1&#45;&gt;Node2</title>
<path fill="none" stroke="midnightblue" d="M100,-60C88.13,-48.13 74.05,-34.05 65.19,-25.19"/>
<polygon fill="midnightblue" stroke="midnightblue" points="97.85,-62.8 107.4,-67.4 102.8,-57.85 97.85,-62.8"/>
</g>
<!-- Node3 -->
<g id="node3" class="node">
<title>Node3</title>
<g id="a_node3"><a xlink:href="../../dd/d65/lu__decompose_8cpp.html" target="_top" xlink:title="LU decomposition of a square matrix">
<polygon fill="white" stroke="black" points="131.5,-0.5 131.5,-30.5 243.5,-30.5 243.5,-0.5 131.5,-0.5"/>
<text text-anchor="start" x="139.5" y="-18.5" font-family="Helvetica,sans-Serif" font-size="10.00">numerical_methods/lu</text>
<text text-anchor="middle" x="187.5" y="-7.5" font-family="Helvetica,sans-Serif" font-size="10.00">_decompose.cpp</text>
</a>
</g>
</g>
<!-- Node1&#45;&gt;Node3 -->
<g id="edge2" class="edge">
<title>Node1&#45;&gt;Node3</title>
<path fill="none" stroke="midnightblue" d="M143.01,-60.31C152.91,-50.56 164.39,-39.26 173.21,-30.58"/>
<polygon fill="midnightblue" stroke="midnightblue" points="140.49,-57.89 135.82,-67.4 145.4,-62.87 140.49,-57.89"/>
</g>
</g>
</svg>
