<?xml version="1.0" encoding="UTF-8" standalone="no"?>
<!DOCTYPE svg PUBLIC "-//W3C//DTD SVG 1.1//EN"
 "http://www.w3.org/Graphics/SVG/1.1/DTD/svg11.dtd">
<!-- Generated by graphviz version 2.49.3 (20211023.0002)
 -->
<!-- Title: main Pages: 1 -->
<svg width="207pt" height="89pt"
 viewBox="0.00 0.00 207.00 89.00" xmlns="http://www.w3.org/2000/svg" xmlns:xlink="http://www.w3.org/1999/xlink">
<g id="graph0" class="graph" transform="scale(1 1) rotate(0) translate(4 85)">
<title>main</title>
<polygon fill="white" stroke="transparent" points="-4,4 -4,-85 203,-85 203,4 -4,4"/>
<!-- Node1 -->
<g id="node1" class="node">
<title>Node1</title>
<g id="a_node1"><a xlink:title="Main function.">
<polygon fill="#bfbfbf" stroke="black" points="0,-28.5 0,-47.5 38,-47.5 38,-28.5 0,-28.5"/>
<text text-anchor="middle" x="19" y="-35.5" font-family="Helvetica,sans-Serif" font-size="10.00">main</text>
</a>
</g>
</g>
<!-- Node2 -->
<g id="node2" class="node">
<title>Node2</title>
<g id="a_node2"><a target="_blank" xlink:href="http://en.cppreference.com/w/cpp/io/manip/endl.html#" xlink:title=" ">
<polygon fill="white" stroke="black" points="144,-61.5 144,-80.5 198,-80.5 198,-61.5 144,-61.5"/>
<text text-anchor="middle" x="171" y="-68.5" font-family="Helvetica,sans-Serif" font-size="10.00">std::endl</text>
</a>
</g>
</g>
<!-- Node1&#45;&gt;Node2 -->
<g id="edge1" class="edge">
<title>Node1&#45;&gt;Node2</title>
<path fill="none" stroke="midnightblue" d="M38.23,-45.41C48.57,-49.35 61.84,-54 74,-57 93.41,-61.78 115.46,-65.14 133.53,-67.37"/>
<polygon fill="midnightblue" stroke="midnightblue" points="133.32,-70.86 143.66,-68.55 134.13,-63.91 133.32,-70.86"/>
</g>
<!-- Node3 -->
<g id="node3" class="node">
<title>Node3</title>
<g id="a_node3"><a xlink:href="../../d9/d89/fibonacci_8cpp.html#aaf94f3212385cff0a5f19ff6b0cce8e7" target="_top" xlink:title=" ">
<polygon fill="white" stroke="black" points="143,-0.5 143,-19.5 199,-19.5 199,-0.5 143,-0.5"/>
<text text-anchor="middle" x="171" y="-7.5" font-family="Helvetica,sans-Serif" font-size="10.00">fibonacci</text>
</a>
</g>
</g>
<!-- Node1&#45;&gt;Node3 -->
<g id="edge2" class="edge">
<title>Node1&#45;&gt;Node3</title>
<path fill="none" stroke="midnightblue" d="M38.17,-30.35C48.5,-26.33 61.77,-21.68 74,-19 93.14,-14.8 114.84,-12.56 132.76,-11.37"/>
<polygon fill="midnightblue" stroke="midnightblue" points="133.05,-14.86 142.83,-10.78 132.64,-7.87 133.05,-14.86"/>
</g>
<!-- Node4 -->
<g id="node4" class="node">
<title>Node4</title>
<g id="a_node4"><a xlink:href="../../d9/d89/fibonacci_8cpp.html#aa8dca7b867074164d5f45b0f3851269d" target="_top" xlink:title=" ">
<polygon fill="white" stroke="black" points="74,-28.5 74,-47.5 107,-47.5 107,-28.5 74,-28.5"/>
<text text-anchor="middle" x="90.5" y="-35.5" font-family="Helvetica,sans-Serif" font-size="10.00">test</text>
</a>
</g>
</g>
<!-- Node1&#45;&gt;Node4 -->
<g id="edge4" class="edge">
<title>Node1&#45;&gt;Node4</title>
<path fill="none" stroke="midnightblue" d="M38.26,-38C46.07,-38 55.31,-38 63.79,-38"/>
<polygon fill="midnightblue" stroke="midnightblue" points="63.95,-41.5 73.95,-38 63.95,-34.5 63.95,-41.5"/>
</g>
<!-- Node3&#45;&gt;Node3 -->
<g id="edge3" class="edge">
<title>Node3&#45;&gt;Node3</title>
<path fill="none" stroke="midnightblue" d="M158.67,-19.76C152.67,-28.57 156.78,-38 171,-38 179.66,-38 184.58,-34.5 185.73,-29.77"/>
<polygon fill="midnightblue" stroke="midnightblue" points="189.07,-28.66 183.33,-19.76 182.26,-30.3 189.07,-28.66"/>
</g>
<!-- Node4&#45;&gt;Node2 -->
<g id="edge5" class="edge">
<title>Node4&#45;&gt;Node2</title>
<path fill="none" stroke="midnightblue" d="M107.01,-44.52C115.84,-48.23 127.23,-53.02 137.89,-57.5"/>
<polygon fill="midnightblue" stroke="midnightblue" points="136.81,-60.84 147.39,-61.49 139.52,-54.39 136.81,-60.84"/>
</g>
<!-- Node4&#45;&gt;Node3 -->
<g id="edge6" class="edge">
<title>Node4&#45;&gt;Node3</title>
<path fill="none" stroke="midnightblue" d="M107.01,-32.47C114.64,-29.75 124.18,-26.34 133.51,-23.01"/>
<polygon fill="midnightblue" stroke="midnightblue" points="134.83,-26.26 143.08,-19.6 132.48,-19.67 134.83,-26.26"/>
</g>
</g>
</svg>
