<?xml version="1.0" encoding="UTF-8" standalone="no"?>
<!DOCTYPE svg PUBLIC "-//W3C//DTD SVG 1.1//EN"
 "http://www.w3.org/Graphics/SVG/1.1/DTD/svg11.dtd">
<!-- Generated by graphviz version 8.0.5 (20230430.1635)
 -->
<!-- Title: test Pages: 1 -->
<svg width="294pt" height="175pt"
 viewBox="0.00 0.00 293.75 175.25" xmlns="http://www.w3.org/2000/svg" xmlns:xlink="http://www.w3.org/1999/xlink">
<g id="graph0" class="graph" transform="scale(1 1) rotate(0) translate(4 171.25)">
<title>test</title>
<!-- Node1 -->
<g id="node1" class="node">
<title>Node1</title>
<g id="a_node1"><a xlink:title="Function to test the correctness of shift_right() function.">
<polygon fill="#999999" stroke="#666666" points="32.5,-93.25 0,-93.25 0,-74 32.5,-74 32.5,-93.25"/>
<text text-anchor="middle" x="16.25" y="-79.75" font-family="Helvetica,sans-Serif" font-size="10.00">test</text>
</a>
</g>
</g>
<!-- Node2 -->
<g id="node2" class="node">
<title>Node2</title>
<g id="a_node2"><a xlink:href="../../d9/df4/namespacetests.html#a167c24bd817469ae47358d12e034f2d5" target="_top" xlink:title="A Test to check an simple case.">
<polygon fill="white" stroke="#666666" points="134,-167.25 68.5,-167.25 68.5,-148 134,-148 134,-167.25"/>
<text text-anchor="middle" x="101.25" y="-153.75" font-family="Helvetica,sans-Serif" font-size="10.00">tests::test1</text>
</a>
</g>
</g>
<!-- Node1&#45;&gt;Node2 -->
<g id="edge1" class="edge">
<title>Node1&#45;&gt;Node2</title>
<path fill="none" stroke="#63b8ff" d="M24.78,-93.61C34.13,-105.55 50.98,-125.66 68.5,-139.62 69.39,-140.34 70.32,-141.04 71.26,-141.72"/>
<polygon fill="#63b8ff" stroke="#63b8ff" points="68.86,-144.99 79.15,-147.5 72.68,-139.12 68.86,-144.99"/>
</g>
<!-- Node3 -->
<g id="node3" class="node">
<title>Node3</title>
<g id="a_node3"><a xlink:href="../../d9/df4/namespacetests.html#abdd77344d4af8fd56d14a5cabbf2f669" target="_top" xlink:title="A Test to check an empty vector.">
<polygon fill="white" stroke="#666666" points="134,-130.25 68.5,-130.25 68.5,-111 134,-111 134,-130.25"/>
<text text-anchor="middle" x="101.25" y="-116.75" font-family="Helvetica,sans-Serif" font-size="10.00">tests::test2</text>
</a>
</g>
</g>
<!-- Node1&#45;&gt;Node3 -->
<g id="edge2" class="edge">
<title>Node1&#45;&gt;Node3</title>
<path fill="none" stroke="#63b8ff" d="M32.86,-90.58C42.77,-95 55.95,-100.88 68.03,-106.26"/>
<polygon fill="#63b8ff" stroke="#63b8ff" points="66.26,-109.75 76.81,-110.62 69.11,-103.36 66.26,-109.75"/>
</g>
<!-- Node4 -->
<g id="node4" class="node">
<title>Node4</title>
<g id="a_node4"><a xlink:href="../../d9/df4/namespacetests.html#aa515639572647508b94986489aab6d76" target="_top" xlink:title="A Test to check an invalid shift value.">
<polygon fill="white" stroke="#666666" points="134,-93.25 68.5,-93.25 68.5,-74 134,-74 134,-93.25"/>
<text text-anchor="middle" x="101.25" y="-79.75" font-family="Helvetica,sans-Serif" font-size="10.00">tests::test3</text>
</a>
</g>
</g>
<!-- Node1&#45;&gt;Node4 -->
<g id="edge3" class="edge">
<title>Node1&#45;&gt;Node4</title>
<path fill="none" stroke="#63b8ff" d="M32.86,-83.62C39.86,-83.62 48.5,-83.62 57.22,-83.62"/>
<polygon fill="#63b8ff" stroke="#63b8ff" points="57.21,-87.13 67.21,-83.62 57.21,-80.13 57.21,-87.13"/>
</g>
<!-- Node5 -->
<g id="node5" class="node">
<title>Node5</title>
<g id="a_node5"><a xlink:href="../../d9/df4/namespacetests.html#a2b9769e44683dcb67fe1083ad91e134d" target="_top" xlink:title="A Test to check a very large input.">
<polygon fill="white" stroke="#666666" points="134,-56.25 68.5,-56.25 68.5,-37 134,-37 134,-56.25"/>
<text text-anchor="middle" x="101.25" y="-42.75" font-family="Helvetica,sans-Serif" font-size="10.00">tests::test4</text>
</a>
</g>
</g>
<!-- Node1&#45;&gt;Node5 -->
<g id="edge4" class="edge">
<title>Node1&#45;&gt;Node5</title>
<path fill="none" stroke="#63b8ff" d="M32.86,-76.67C42.77,-72.25 55.95,-66.37 68.03,-60.99"/>
<polygon fill="#63b8ff" stroke="#63b8ff" points="69.11,-63.89 76.81,-56.63 66.26,-57.5 69.11,-63.89"/>
</g>
<!-- Node7 -->
<g id="node7" class="node">
<title>Node7</title>
<g id="a_node7"><a xlink:href="../../d9/df4/namespacetests.html#af7b81d7a1534216af6a36a80135beb86" target="_top" xlink:title="A Test to check a shift of zero.">
<polygon fill="white" stroke="#666666" points="134,-19.25 68.5,-19.25 68.5,0 134,0 134,-19.25"/>
<text text-anchor="middle" x="101.25" y="-5.75" font-family="Helvetica,sans-Serif" font-size="10.00">tests::test5</text>
</a>
</g>
</g>
<!-- Node1&#45;&gt;Node7 -->
<g id="edge6" class="edge">
<title>Node1&#45;&gt;Node7</title>
<path fill="none" stroke="#63b8ff" d="M24.78,-73.64C34.13,-61.7 50.98,-41.59 68.5,-27.62 69.39,-26.91 70.32,-26.21 71.26,-25.53"/>
<polygon fill="#63b8ff" stroke="#63b8ff" points="72.68,-28.13 79.15,-19.75 68.86,-22.26 72.68,-28.13"/>
</g>
<!-- Node6 -->
<g id="node6" class="node">
<title>Node6</title>
<g id="a_node6"><a target="_blank" xlink:href="http://en.cppreference.com/w/cpp/container/vector/push_back.html#" xlink:title=" ">
<polygon fill="white" stroke="#666666" points="285.75,-56.25 170,-56.25 170,-37 285.75,-37 285.75,-56.25"/>
<text text-anchor="middle" x="227.88" y="-42.75" font-family="Helvetica,sans-Serif" font-size="10.00">std::vector::push_back</text>
</a>
</g>
</g>
<!-- Node5&#45;&gt;Node6 -->
<g id="edge5" class="edge">
<title>Node5&#45;&gt;Node6</title>
<path fill="none" stroke="#63b8ff" d="M134.34,-46.62C141.95,-46.62 150.35,-46.62 158.89,-46.62"/>
<polygon fill="#63b8ff" stroke="#63b8ff" points="158.74,-50.13 168.74,-46.62 158.74,-43.13 158.74,-50.13"/>
</g>
</g>
</svg>
