<?xml version="1.0" encoding="UTF-8" standalone="no"?>
<!DOCTYPE svg PUBLIC "-//W3C//DTD SVG 1.1//EN"
 "http://www.w3.org/Graphics/SVG/1.1/DTD/svg11.dtd">
<!-- Generated by graphviz version 9.0.0 (20230911.1827)
 -->
<!-- Title: test Pages: 1 -->
<svg width="294pt" height="175pt"
 viewBox="0.00 0.00 293.75 175.25" xmlns="http://www.w3.org/2000/svg" xmlns:xlink="http://www.w3.org/1999/xlink">
<g id="graph0" class="graph" transform="scale(1 1) rotate(0) translate(4 171.25)">
<title>test</title>
<!-- Node1 -->
<g id="Node000001" class="node">
<title>Node1</title>
<g id="a_Node000001"><a xlink:title="Function to test the correctness of shift_right() function.">
<polygon fill="#999999" stroke="#666666" points="32.5,-93.25 0,-93.25 0,-74 32.5,-74 32.5,-93.25"/>
<text text-anchor="middle" x="16.25" y="-79.75" font-family="Helvetica,sans-Serif" font-size="10.00">test</text>
</a>
</g>
</g>
<!-- Node2 -->
<g id="Node000002" class="node">
<title>Node2</title>
<g id="a_Node000002"><a xlink:href="../../d9/df4/namespacetests.html#a167c24bd817469ae47358d12e034f2d5" target="_top" xlink:title="A Test to check an simple case.">
<polygon fill="white" stroke="#666666" points="134,-167.25 68.5,-167.25 68.5,-148 134,-148 134,-167.25"/>
<text text-anchor="middle" x="101.25" y="-153.75" font-family="Helvetica,sans-Serif" font-size="10.00">tests::test1</text>
</a>
</g>
</g>
<!-- Node1&#45;&gt;Node2 -->
<g id="edge1_Node000001_Node000002" class="edge">
<title>Node1&#45;&gt;Node2</title>
<g id="a_edge1_Node000001_Node000002"><a xlink:title=" ">
<path fill="none" stroke="#63b8ff" d="M24.78,-93.61C34.13,-105.55 50.98,-125.66 68.5,-139.62 69.17,-140.16 69.86,-140.68 70.56,-141.2"/>
<polygon fill="#63b8ff" stroke="#63b8ff" points="68.61,-144.11 78.89,-146.67 72.45,-138.26 68.61,-144.11"/>
</a>
</g>
</g>
<!-- Node3 -->
<g id="Node000003" class="node">
<title>Node3</title>
<g id="a_Node000003"><a xlink:href="../../d9/df4/namespacetests.html#abdd77344d4af8fd56d14a5cabbf2f669" target="_top" xlink:title="A Test to check an empty vector.">
<polygon fill="white" stroke="#666666" points="134,-130.25 68.5,-130.25 68.5,-111 134,-111 134,-130.25"/>
<text text-anchor="middle" x="101.25" y="-116.75" font-family="Helvetica,sans-Serif" font-size="10.00">tests::test2</text>
</a>
</g>
</g>
<!-- Node1&#45;&gt;Node3 -->
<g id="edge2_Node000001_Node000003" class="edge">
<title>Node1&#45;&gt;Node3</title>
<g id="a_edge2_Node000001_Node000003"><a xlink:title=" ">
<path fill="none" stroke="#63b8ff" d="M32.86,-90.58C42.57,-94.91 55.42,-100.64 67.3,-105.94"/>
<polygon fill="#63b8ff" stroke="#63b8ff" points="65.87,-109.13 76.43,-110.01 68.72,-102.74 65.87,-109.13"/>
</a>
</g>
</g>
<!-- Node4 -->
<g id="Node000004" class="node">
<title>Node4</title>
<g id="a_Node000004"><a xlink:href="../../d9/df4/namespacetests.html#aa515639572647508b94986489aab6d76" target="_top" xlink:title="A Test to check an invalid shift value.">
<polygon fill="white" stroke="#666666" points="134,-93.25 68.5,-93.25 68.5,-74 134,-74 134,-93.25"/>
<text text-anchor="middle" x="101.25" y="-79.75" font-family="Helvetica,sans-Serif" font-size="10.00">tests::test3</text>
</a>
</g>
</g>
<!-- Node1&#45;&gt;Node4 -->
<g id="edge3_Node000001_Node000004" class="edge">
<title>Node1&#45;&gt;Node4</title>
<g id="a_edge3_Node000001_Node000004"><a xlink:title=" ">
<path fill="none" stroke="#63b8ff" d="M32.86,-83.62C39.78,-83.62 48.31,-83.62 56.93,-83.62"/>
<polygon fill="#63b8ff" stroke="#63b8ff" points="56.69,-87.13 66.69,-83.63 56.69,-80.13 56.69,-87.13"/>
</a>
</g>
</g>
<!-- Node5 -->
<g id="Node000005" class="node">
<title>Node5</title>
<g id="a_Node000005"><a xlink:href="../../d9/df4/namespacetests.html#a2b9769e44683dcb67fe1083ad91e134d" target="_top" xlink:title="A Test to check a very large input.">
<polygon fill="white" stroke="#666666" points="134,-56.25 68.5,-56.25 68.5,-37 134,-37 134,-56.25"/>
<text text-anchor="middle" x="101.25" y="-42.75" font-family="Helvetica,sans-Serif" font-size="10.00">tests::test4</text>
</a>
</g>
</g>
<!-- Node1&#45;&gt;Node5 -->
<g id="edge4_Node000001_Node000005" class="edge">
<title>Node1&#45;&gt;Node5</title>
<g id="a_edge4_Node000001_Node000005"><a xlink:title=" ">
<path fill="none" stroke="#63b8ff" d="M32.86,-76.67C42.57,-72.34 55.42,-66.61 67.3,-61.31"/>
<polygon fill="#63b8ff" stroke="#63b8ff" points="68.72,-64.51 76.43,-57.24 65.87,-58.12 68.72,-64.51"/>
</a>
</g>
</g>
<!-- Node7 -->
<g id="Node000007" class="node">
<title>Node7</title>
<g id="a_Node000007"><a xlink:href="../../d9/df4/namespacetests.html#af7b81d7a1534216af6a36a80135beb86" target="_top" xlink:title="A Test to check a shift of zero.">
<polygon fill="white" stroke="#666666" points="134,-19.25 68.5,-19.25 68.5,0 134,0 134,-19.25"/>
<text text-anchor="middle" x="101.25" y="-5.75" font-family="Helvetica,sans-Serif" font-size="10.00">tests::test5</text>
</a>
</g>
</g>
<!-- Node1&#45;&gt;Node7 -->
<g id="edge6_Node000001_Node000007" class="edge">
<title>Node1&#45;&gt;Node7</title>
<g id="a_edge6_Node000001_Node000007"><a xlink:title=" ">
<path fill="none" stroke="#63b8ff" d="M24.78,-73.64C34.13,-61.7 50.98,-41.59 68.5,-27.62 69.17,-27.09 69.86,-26.57 70.56,-26.05"/>
<polygon fill="#63b8ff" stroke="#63b8ff" points="72.45,-28.99 78.89,-20.58 68.61,-23.14 72.45,-28.99"/>
</a>
</g>
</g>
<!-- Node6 -->
<g id="Node000006" class="node">
<title>Node6</title>
<g id="a_Node000006"><a target="_blank" xlink:href="http://en.cppreference.com/w/cpp/container/vector/push_back.html#" xlink:title=" ">
<polygon fill="white" stroke="#666666" points="285.75,-56.25 170,-56.25 170,-37 285.75,-37 285.75,-56.25"/>
<text text-anchor="middle" x="227.88" y="-42.75" font-family="Helvetica,sans-Serif" font-size="10.00">std::vector::push_back</text>
</a>
</g>
</g>
<!-- Node5&#45;&gt;Node6 -->
<g id="edge5_Node000005_Node000006" class="edge">
<title>Node5&#45;&gt;Node6</title>
<g id="a_edge5_Node000005_Node000006"><a xlink:title=" ">
<path fill="none" stroke="#63b8ff" d="M134.34,-46.62C141.78,-46.62 149.98,-46.62 158.32,-46.62"/>
<polygon fill="#63b8ff" stroke="#63b8ff" points="158.23,-50.13 168.23,-46.63 158.23,-43.13 158.23,-50.13"/>
</a>
</g>
</g>
</g>
</svg>
