<?xml version="1.0" encoding="UTF-8" standalone="no"?>
<!DOCTYPE svg PUBLIC "-//W3C//DTD SVG 1.1//EN"
 "http://www.w3.org/Graphics/SVG/1.1/DTD/svg11.dtd">
<!-- Generated by graphviz version 2.49.0 (20210828.1703)
 -->
<!-- Title: main Pages: 1 -->
<svg width="413pt" height="142pt"
 viewBox="0.00 0.00 413.00 142.00" xmlns="http://www.w3.org/2000/svg" xmlns:xlink="http://www.w3.org/1999/xlink">
<g id="graph0" class="graph" transform="scale(1 1) rotate(0) translate(4 138)">
<title>main</title>
<polygon fill="white" stroke="transparent" points="-4,4 -4,-138 409,-138 409,4 -4,4"/>
<!-- Node1 -->
<g id="node1" class="node">
<title>Node1</title>
<g id="a_node1"><a xlink:title=" ">
<polygon fill="#bfbfbf" stroke="black" points="0,-51.5 0,-70.5 38,-70.5 38,-51.5 0,-51.5"/>
<text text-anchor="middle" x="19" y="-58.5" font-family="Helvetica,sans-Serif" font-size="10.00">main</text>
</a>
</g>
</g>
<!-- Node2 -->
<g id="node2" class="node">
<title>Node2</title>
<g id="a_node2"><a xlink:href="../../dc/d61/classgraph_1_1_graph.html#a877b2cba40d8d46dde6fb4209effed19" target="_top" xlink:title=" ">
<polygon fill="white" stroke="black" points="148,-104.5 148,-123.5 273,-123.5 273,-104.5 148,-104.5"/>
<text text-anchor="middle" x="210.5" y="-111.5" font-family="Helvetica,sans-Serif" font-size="10.00">graph::Graph::add_edge</text>
</a>
</g>
</g>
<!-- Node1&#45;&gt;Node2 -->
<g id="edge1" class="edge">
<title>Node1&#45;&gt;Node2</title>
<path fill="none" stroke="midnightblue" d="M30.23,-70.62C40.46,-79.62 57.06,-92.59 74,-99 93.97,-106.56 116.7,-110.65 137.76,-112.78"/>
<polygon fill="midnightblue" stroke="midnightblue" points="137.68,-116.29 147.95,-113.68 138.29,-109.32 137.68,-116.29"/>
</g>
<!-- Node3 -->
<g id="node3" class="node">
<title>Node3</title>
<g id="a_node3"><a xlink:href="../../dc/d61/classgraph_1_1_graph.html#a3755ec9e6a842238c7f4aac10b661981" target="_top" xlink:title=" ">
<polygon fill="white" stroke="black" points="153,-52 153,-82 268,-82 268,-52 153,-52"/>
<text text-anchor="start" x="161" y="-70" font-family="Helvetica,sans-Serif" font-size="10.00">graph::Graph::breadth</text>
<text text-anchor="middle" x="210.5" y="-59" font-family="Helvetica,sans-Serif" font-size="10.00">_first_search</text>
</a>
</g>
</g>
<!-- Node1&#45;&gt;Node3 -->
<g id="edge2" class="edge">
<title>Node1&#45;&gt;Node3</title>
<path fill="none" stroke="midnightblue" d="M38.33,-60.67C56.9,-60.41 86.46,-60.21 112,-61 121.92,-61.3 132.39,-61.78 142.65,-62.34"/>
<polygon fill="midnightblue" stroke="midnightblue" points="142.63,-65.85 152.82,-62.92 143.03,-58.86 142.63,-65.85"/>
</g>
<!-- Node8 -->
<g id="node8" class="node">
<title>Node8</title>
<g id="a_node8"><a target="_blank" xlink:href="http://en.cppreference.com/w/cpp/io/manip/endl.html#" xlink:title=" ">
<polygon fill="white" stroke="black" points="183.5,-7.5 183.5,-26.5 237.5,-26.5 237.5,-7.5 183.5,-7.5"/>
<text text-anchor="middle" x="210.5" y="-14.5" font-family="Helvetica,sans-Serif" font-size="10.00">std::endl</text>
</a>
</g>
</g>
<!-- Node1&#45;&gt;Node8 -->
<g id="edge7" class="edge">
<title>Node1&#45;&gt;Node8</title>
<path fill="none" stroke="midnightblue" d="M38.17,-56.78C69.19,-49.58 132.92,-34.78 173.3,-25.4"/>
<polygon fill="midnightblue" stroke="midnightblue" points="174.33,-28.76 183.28,-23.09 172.75,-21.94 174.33,-28.76"/>
</g>
<!-- Node9 -->
<g id="node9" class="node">
<title>Node9</title>
<g id="a_node9"><a xlink:href="../../df/d82/breadth__first__search_8cpp.html#a483bb8ccf42aaf7375a83e91490eda1e" target="_top" xlink:title=" ">
<polygon fill="white" stroke="black" points="74,-70.5 74,-89.5 112,-89.5 112,-70.5 74,-70.5"/>
<text text-anchor="middle" x="93" y="-77.5" font-family="Helvetica,sans-Serif" font-size="10.00">tests</text>
</a>
</g>
</g>
<!-- Node1&#45;&gt;Node9 -->
<g id="edge8" class="edge">
<title>Node1&#45;&gt;Node9</title>
<path fill="none" stroke="midnightblue" d="M38.17,-65.79C45.95,-67.85 55.23,-70.3 63.87,-72.58"/>
<polygon fill="midnightblue" stroke="midnightblue" points="63.02,-75.97 73.59,-75.14 64.81,-69.21 63.02,-75.97"/>
</g>
<!-- Node4 -->
<g id="node4" class="node">
<title>Node4</title>
<g id="a_node4"><a target="_blank" xlink:href="http://en.cppreference.com/w/cpp/container/queue/empty.html#" xlink:title=" ">
<polygon fill="white" stroke="black" points="309,-114.5 309,-133.5 405,-133.5 405,-114.5 309,-114.5"/>
<text text-anchor="middle" x="357" y="-121.5" font-family="Helvetica,sans-Serif" font-size="10.00">std::queue::empty</text>
</a>
</g>
</g>
<!-- Node3&#45;&gt;Node4 -->
<g id="edge3" class="edge">
<title>Node3&#45;&gt;Node4</title>
<path fill="none" stroke="midnightblue" d="M249.84,-82.13C272.32,-90.99 300.46,-102.09 322.12,-110.64"/>
<polygon fill="midnightblue" stroke="midnightblue" points="320.98,-113.95 331.57,-114.36 323.55,-107.44 320.98,-113.95"/>
</g>
<!-- Node5 -->
<g id="node5" class="node">
<title>Node5</title>
<g id="a_node5"><a target="_blank" xlink:href="http://en.cppreference.com/w/cpp/container/queue/front.html#" xlink:title=" ">
<polygon fill="white" stroke="black" points="312.5,-76.5 312.5,-95.5 401.5,-95.5 401.5,-76.5 312.5,-76.5"/>
<text text-anchor="middle" x="357" y="-83.5" font-family="Helvetica,sans-Serif" font-size="10.00">std::queue::front</text>
</a>
</g>
</g>
<!-- Node3&#45;&gt;Node5 -->
<g id="edge4" class="edge">
<title>Node3&#45;&gt;Node5</title>
<path fill="none" stroke="midnightblue" d="M268.2,-74.45C279.46,-75.94 291.24,-77.49 302.4,-78.95"/>
<polygon fill="midnightblue" stroke="midnightblue" points="302.06,-82.44 312.43,-80.27 302.97,-75.5 302.06,-82.44"/>
</g>
<!-- Node6 -->
<g id="node6" class="node">
<title>Node6</title>
<g id="a_node6"><a target="_blank" xlink:href="http://en.cppreference.com/w/cpp/container/queue/pop.html#" xlink:title=" ">
<polygon fill="white" stroke="black" points="314.5,-38.5 314.5,-57.5 399.5,-57.5 399.5,-38.5 314.5,-38.5"/>
<text text-anchor="middle" x="357" y="-45.5" font-family="Helvetica,sans-Serif" font-size="10.00">std::queue::pop</text>
</a>
</g>
</g>
<!-- Node3&#45;&gt;Node6 -->
<g id="edge5" class="edge">
<title>Node3&#45;&gt;Node6</title>
<path fill="none" stroke="midnightblue" d="M268.2,-59.55C280.06,-57.99 292.51,-56.35 304.19,-54.81"/>
<polygon fill="midnightblue" stroke="midnightblue" points="304.75,-58.27 314.21,-53.49 303.84,-51.33 304.75,-58.27"/>
</g>
<!-- Node7 -->
<g id="node7" class="node">
<title>Node7</title>
<g id="a_node7"><a target="_blank" xlink:href="http://en.cppreference.com/w/cpp/container/queue/push.html#" xlink:title=" ">
<polygon fill="white" stroke="black" points="312,-0.5 312,-19.5 402,-19.5 402,-0.5 312,-0.5"/>
<text text-anchor="middle" x="357" y="-7.5" font-family="Helvetica,sans-Serif" font-size="10.00">std::queue::push</text>
</a>
</g>
</g>
<!-- Node3&#45;&gt;Node7 -->
<g id="edge6" class="edge">
<title>Node3&#45;&gt;Node7</title>
<path fill="none" stroke="midnightblue" d="M249.84,-51.87C272.32,-43.01 300.46,-31.91 322.12,-23.36"/>
<polygon fill="midnightblue" stroke="midnightblue" points="323.55,-26.56 331.57,-19.64 320.98,-20.05 323.55,-26.56"/>
</g>
<!-- Node9&#45;&gt;Node2 -->
<g id="edge9" class="edge">
<title>Node9&#45;&gt;Node2</title>
<path fill="none" stroke="midnightblue" d="M112.05,-85.31C126.85,-89.67 148.4,-96.01 167.47,-101.63"/>
<polygon fill="midnightblue" stroke="midnightblue" points="166.59,-105.02 177.17,-104.48 168.57,-98.3 166.59,-105.02"/>
</g>
<!-- Node9&#45;&gt;Node3 -->
<g id="edge10" class="edge">
<title>Node9&#45;&gt;Node3</title>
<path fill="none" stroke="midnightblue" d="M112.05,-77.97C120.63,-77 131.49,-75.78 142.82,-74.51"/>
<polygon fill="midnightblue" stroke="midnightblue" points="143.3,-77.97 152.85,-73.38 142.52,-71.02 143.3,-77.97"/>
</g>
<!-- Node9&#45;&gt;Node8 -->
<g id="edge11" class="edge">
<title>Node9&#45;&gt;Node8</title>
<path fill="none" stroke="midnightblue" d="M106.41,-70.43C117.07,-62.48 133.04,-51.18 148,-43 156.37,-38.43 165.7,-34.11 174.53,-30.35"/>
<polygon fill="midnightblue" stroke="midnightblue" points="175.92,-33.56 183.83,-26.51 173.25,-27.09 175.92,-33.56"/>
</g>
</g>
</svg>
