<?xml version="1.0" encoding="UTF-8" standalone="no"?>
<!DOCTYPE svg PUBLIC "-//W3C//DTD SVG 1.1//EN"
 "http://www.w3.org/Graphics/SVG/1.1/DTD/svg11.dtd">
<!-- Generated by graphviz version 2.44.1 (20200629.0846)
 -->
<!-- Title: main Pages: 1 -->
<svg width="459pt" height="343pt"
 viewBox="0.00 0.00 459.00 343.20" xmlns="http://www.w3.org/2000/svg" xmlns:xlink="http://www.w3.org/1999/xlink">
<g id="graph0" class="graph" transform="scale(1 1) rotate(0) translate(4 339.2)">
<title>main</title>
<polygon fill="white" stroke="transparent" points="-4,4 -4,-339.2 455,-339.2 455,4 -4,4"/>
<!-- Node1 -->
<g id="node1" class="node">
<title>Node1</title>
<g id="a_node1"><a xlink:title=" ">
<polygon fill="#bfbfbf" stroke="black" points="0,-81.7 0,-100.7 38,-100.7 38,-81.7 0,-81.7"/>
<text text-anchor="middle" x="19" y="-88.7" font-family="Helvetica,sans-Serif" font-size="10.00">main</text>
</a>
</g>
</g>
<!-- Node2 -->
<g id="node2" class="node">
<title>Node2</title>
<g id="a_node2"><a xlink:href="../../df/dce/namespacegraph.html#adbe6cd1fd148173ce6a01669925d2d72" target="_top" xlink:title="Adds a directed edge from vertex u to vertex v.">
<polygon fill="white" stroke="black" points="323,-100.7 323,-119.7 451,-119.7 451,-100.7 323,-100.7"/>
<text text-anchor="middle" x="387" y="-107.7" font-family="Helvetica,sans-Serif" font-size="10.00">graph::add_directed_edge</text>
</a>
</g>
</g>
<!-- Node1&#45;&gt;Node2 -->
<g id="edge1" class="edge">
<title>Node1&#45;&gt;Node2</title>
<path fill="none" stroke="midnightblue" d="M31.36,-81.51C52.58,-64.14 100.4,-28.26 148,-15.2 207.57,1.16 229.68,7.86 287,-15.2 325.46,-30.66 357.38,-69 373.88,-91.97"/>
<polygon fill="midnightblue" stroke="midnightblue" points="371.22,-94.27 379.8,-100.49 376.96,-90.28 371.22,-94.27"/>
</g>
<!-- Node3 -->
<g id="node3" class="node">
<title>Node3</title>
<g id="a_node3"><a xlink:href="../../df/dce/namespacegraph.html#a618dce14b4883c20aace1d743d3a3f60" target="_top" xlink:title="Function performs the breadth first search algorithm over the graph.">
<polygon fill="white" stroke="black" points="167,-253.2 167,-283.2 268,-283.2 268,-253.2 167,-253.2"/>
<text text-anchor="start" x="175" y="-271.2" font-family="Helvetica,sans-Serif" font-size="10.00">graph::breadth_first</text>
<text text-anchor="middle" x="217.5" y="-260.2" font-family="Helvetica,sans-Serif" font-size="10.00">_search</text>
</a>
</g>
</g>
<!-- Node1&#45;&gt;Node3 -->
<g id="edge2" class="edge">
<title>Node1&#45;&gt;Node3</title>
<path fill="none" stroke="midnightblue" d="M27.28,-100.73C45.64,-124.36 96.11,-186.76 148,-228.2 156.98,-235.37 167.38,-242.11 177.33,-247.95"/>
<polygon fill="midnightblue" stroke="midnightblue" points="175.86,-251.14 186.28,-253.04 179.32,-245.06 175.86,-251.14"/>
</g>
<!-- Node8 -->
<g id="node8" class="node">
<title>Node8</title>
<g id="a_node8"><a target="_blank" xlink:href="http://en.cppreference.com/w/cpp/io/manip/endl.html#" target="_top" xlink:title=" ">
<polygon fill="white" stroke="black" points="190.5,-24.7 190.5,-43.7 244.5,-43.7 244.5,-24.7 190.5,-24.7"/>
<text text-anchor="middle" x="217.5" y="-31.7" font-family="Helvetica,sans-Serif" font-size="10.00">std::endl</text>
</a>
</g>
</g>
<!-- Node1&#45;&gt;Node8 -->
<g id="edge7" class="edge">
<title>Node1&#45;&gt;Node8</title>
<path fill="none" stroke="midnightblue" d="M38.2,-85.68C62.99,-78.19 108.79,-64.45 148,-53.2 158.61,-50.15 170.16,-46.91 180.71,-43.99"/>
<polygon fill="midnightblue" stroke="midnightblue" points="181.74,-47.34 190.45,-41.3 179.88,-40.59 181.74,-47.34"/>
</g>
<!-- Node9 -->
<g id="node9" class="node">
<title>Node9</title>
<g id="a_node9"><a xlink:href="../../df/d82/breadth__first__search_8cpp.html#a88ec9ad42717780d6caaff9d3d6977f9" target="_top" xlink:title=" ">
<polygon fill="white" stroke="black" points="74,-119.7 74,-138.7 112,-138.7 112,-119.7 74,-119.7"/>
<text text-anchor="middle" x="93" y="-126.7" font-family="Helvetica,sans-Serif" font-size="10.00">tests</text>
</a>
</g>
</g>
<!-- Node1&#45;&gt;Node9 -->
<g id="edge8" class="edge">
<title>Node1&#45;&gt;Node9</title>
<path fill="none" stroke="midnightblue" d="M38.17,-100.78C46.21,-105.03 55.83,-110.11 64.71,-114.79"/>
<polygon fill="midnightblue" stroke="midnightblue" points="63.11,-117.91 73.59,-119.48 66.38,-111.71 63.11,-117.91"/>
</g>
<!-- Node4 -->
<g id="node4" class="node">
<title>Node4</title>
<g id="a_node4"><a target="_blank" xlink:href="http://en.cppreference.com/w/cpp/container/queue/empty.html#" target="_top" xlink:title=" ">
<polygon fill="white" stroke="black" points="339.5,-277.7 339.5,-296.7 434.5,-296.7 434.5,-277.7 339.5,-277.7"/>
<text text-anchor="middle" x="387" y="-284.7" font-family="Helvetica,sans-Serif" font-size="10.00">std::queue::empty</text>
</a>
</g>
</g>
<!-- Node3&#45;&gt;Node4 -->
<g id="edge3" class="edge">
<title>Node3&#45;&gt;Node4</title>
<path fill="none" stroke="midnightblue" d="M268.3,-273.84C287.44,-276.02 309.42,-278.51 329.16,-280.75"/>
<polygon fill="midnightblue" stroke="midnightblue" points="328.93,-284.24 339.26,-281.89 329.72,-277.29 328.93,-284.24"/>
</g>
<!-- Node5 -->
<g id="node5" class="node">
<title>Node5</title>
<g id="a_node5"><a target="_blank" xlink:href="http://en.cppreference.com/w/cpp/container/queue/front.html#" target="_top" xlink:title=" ">
<polygon fill="white" stroke="black" points="343,-239.7 343,-258.7 431,-258.7 431,-239.7 343,-239.7"/>
<text text-anchor="middle" x="387" y="-246.7" font-family="Helvetica,sans-Serif" font-size="10.00">std::queue::front</text>
</a>
</g>
</g>
<!-- Node3&#45;&gt;Node5 -->
<g id="edge4" class="edge">
<title>Node3&#45;&gt;Node5</title>
<path fill="none" stroke="midnightblue" d="M268.3,-262.55C288.6,-260.24 312.09,-257.58 332.73,-255.24"/>
<polygon fill="midnightblue" stroke="midnightblue" points="333.37,-258.69 342.91,-254.08 332.58,-251.73 333.37,-258.69"/>
</g>
<!-- Node6 -->
<g id="node6" class="node">
<title>Node6</title>
<g id="a_node6"><a target="_blank" xlink:href="http://en.cppreference.com/w/cpp/container/queue/pop.html#" target="_top" xlink:title=" ">
<polygon fill="white" stroke="black" points="345,-201.7 345,-220.7 429,-220.7 429,-201.7 345,-201.7"/>
<text text-anchor="middle" x="387" y="-208.7" font-family="Helvetica,sans-Serif" font-size="10.00">std::queue::pop</text>
</a>
</g>
</g>
<!-- Node3&#45;&gt;Node6 -->
<g id="edge5" class="edge">
<title>Node3&#45;&gt;Node6</title>
<path fill="none" stroke="midnightblue" d="M258.51,-253.05C277.9,-245.87 301.57,-237.32 323,-230.2 329.56,-228.02 336.53,-225.81 343.36,-223.7"/>
<polygon fill="midnightblue" stroke="midnightblue" points="344.64,-226.97 353.19,-220.71 342.61,-220.27 344.64,-226.97"/>
</g>
<!-- Node7 -->
<g id="node7" class="node">
<title>Node7</title>
<g id="a_node7"><a target="_blank" xlink:href="http://en.cppreference.com/w/cpp/container/queue/push.html#" target="_top" xlink:title=" ">
<polygon fill="white" stroke="black" points="342.5,-315.7 342.5,-334.7 431.5,-334.7 431.5,-315.7 342.5,-315.7"/>
<text text-anchor="middle" x="387" y="-322.7" font-family="Helvetica,sans-Serif" font-size="10.00">std::queue::push</text>
</a>
</g>
</g>
<!-- Node3&#45;&gt;Node7 -->
<g id="edge6" class="edge">
<title>Node3&#45;&gt;Node7</title>
<path fill="none" stroke="midnightblue" d="M258.51,-283.34C277.9,-290.52 301.57,-299.07 323,-306.2 329.56,-308.37 336.53,-310.58 343.36,-312.69"/>
<polygon fill="midnightblue" stroke="midnightblue" points="342.61,-316.12 353.19,-315.68 344.64,-309.42 342.61,-316.12"/>
</g>
<!-- Node9&#45;&gt;Node2 -->
<g id="edge9" class="edge">
<title>Node9&#45;&gt;Node2</title>
<path fill="none" stroke="midnightblue" d="M97.47,-138.93C104.16,-156.06 120.67,-191.09 148,-205.2 202.9,-233.53 229.68,-228.25 287,-205.2 325.46,-189.73 357.38,-151.39 373.88,-128.42"/>
<polygon fill="midnightblue" stroke="midnightblue" points="376.96,-130.11 379.8,-119.91 371.22,-126.12 376.96,-130.11"/>
</g>
<!-- Node9&#45;&gt;Node3 -->
<g id="edge13" class="edge">
<title>Node9&#45;&gt;Node3</title>
<path fill="none" stroke="midnightblue" d="M96.4,-139C101.99,-159.91 117.74,-209.33 148,-238.2 151.93,-241.95 156.41,-245.28 161.16,-248.22"/>
<polygon fill="midnightblue" stroke="midnightblue" points="159.47,-251.29 169.91,-253.1 162.88,-245.17 159.47,-251.29"/>
</g>
<!-- Node9&#45;&gt;Node8 -->
<g id="edge15" class="edge">
<title>Node9&#45;&gt;Node8</title>
<path fill="none" stroke="midnightblue" d="M98.13,-119.66C105.64,-103.47 123.09,-70.67 148,-53.2 157.51,-46.52 169.3,-42.19 180.39,-39.37"/>
<polygon fill="midnightblue" stroke="midnightblue" points="181.29,-42.76 190.31,-37.19 179.79,-35.92 181.29,-42.76"/>
</g>
<!-- Node10 -->
<g id="node10" class="node">
<title>Node10</title>
<g id="a_node10"><a xlink:href="../../df/dce/namespacegraph.html#a59b4441a0e447469e9a4f61c87f33102" target="_top" xlink:title="Adds an undirected edge from vertex u to vertex v. Essentially adds too directed edges to the adjacen...">
<polygon fill="white" stroke="black" points="148,-100.7 148,-119.7 287,-119.7 287,-100.7 148,-100.7"/>
<text text-anchor="middle" x="217.5" y="-107.7" font-family="Helvetica,sans-Serif" font-size="10.00">graph::add_undirected_edge</text>
</a>
</g>
</g>
<!-- Node9&#45;&gt;Node10 -->
<g id="edge10" class="edge">
<title>Node9&#45;&gt;Node10</title>
<path fill="none" stroke="midnightblue" d="M112.08,-126.39C121.21,-124.97 132.96,-123.15 145.26,-121.25"/>
<polygon fill="midnightblue" stroke="midnightblue" points="145.85,-124.69 155.2,-119.7 144.78,-117.78 145.85,-124.69"/>
</g>
<!-- Node11 -->
<g id="node11" class="node">
<title>Node11</title>
<g id="a_node11"><a target="_blank" xlink:href="http://en.cppreference.com/w/cpp/container/vector/begin.html#" target="_top" xlink:title=" ">
<polygon fill="white" stroke="black" points="171.5,-176.7 171.5,-195.7 263.5,-195.7 263.5,-176.7 171.5,-176.7"/>
<text text-anchor="middle" x="217.5" y="-183.7" font-family="Helvetica,sans-Serif" font-size="10.00">std::vector::begin</text>
</a>
</g>
</g>
<!-- Node9&#45;&gt;Node11 -->
<g id="edge12" class="edge">
<title>Node9&#45;&gt;Node11</title>
<path fill="none" stroke="midnightblue" d="M105.29,-138.89C115.74,-147.43 132.04,-159.65 148,-167.2 152.95,-169.54 158.24,-171.64 163.61,-173.51"/>
<polygon fill="midnightblue" stroke="midnightblue" points="162.7,-176.9 173.29,-176.64 164.85,-170.24 162.7,-176.9"/>
</g>
<!-- Node12 -->
<g id="node12" class="node">
<title>Node12</title>
<g id="a_node12"><a target="_blank" xlink:href="http://en.cppreference.com/w/cpp/container/vector/end.html#" target="_top" xlink:title=" ">
<polygon fill="white" stroke="black" points="175,-138.7 175,-157.7 260,-157.7 260,-138.7 175,-138.7"/>
<text text-anchor="middle" x="217.5" y="-145.7" font-family="Helvetica,sans-Serif" font-size="10.00">std::vector::end</text>
</a>
</g>
</g>
<!-- Node9&#45;&gt;Node12 -->
<g id="edge14" class="edge">
<title>Node9&#45;&gt;Node12</title>
<path fill="none" stroke="midnightblue" d="M112.08,-132C126.01,-134.16 146.01,-137.26 164.78,-140.17"/>
<polygon fill="midnightblue" stroke="midnightblue" points="164.33,-143.65 174.75,-141.72 165.4,-136.73 164.33,-143.65"/>
</g>
<!-- Node13 -->
<g id="node13" class="node">
<title>Node13</title>
<g id="a_node13"><a target="_blank" xlink:href="http://en.cppreference.com/w/cpp/algorithm/equal.html#" target="_top" xlink:title=" ">
<polygon fill="white" stroke="black" points="188,-62.7 188,-81.7 247,-81.7 247,-62.7 188,-62.7"/>
<text text-anchor="middle" x="217.5" y="-69.7" font-family="Helvetica,sans-Serif" font-size="10.00">std::equal</text>
</a>
</g>
</g>
<!-- Node9&#45;&gt;Node13 -->
<g id="edge16" class="edge">
<title>Node9&#45;&gt;Node13</title>
<path fill="none" stroke="midnightblue" d="M105.29,-119.5C115.74,-110.96 132.04,-98.75 148,-91.2 157.37,-86.76 167.97,-83.19 177.98,-80.4"/>
<polygon fill="midnightblue" stroke="midnightblue" points="178.93,-83.77 187.72,-77.86 177.16,-76.99 178.93,-83.77"/>
</g>
<!-- Node10&#45;&gt;Node2 -->
<g id="edge11" class="edge">
<title>Node10&#45;&gt;Node2</title>
<path fill="none" stroke="midnightblue" d="M287.11,-110.2C295.53,-110.2 304.15,-110.2 312.63,-110.2"/>
<polygon fill="midnightblue" stroke="midnightblue" points="312.88,-113.7 322.88,-110.2 312.88,-106.7 312.88,-113.7"/>
</g>
</g>
</svg>
