<?xml version="1.0" encoding="UTF-8" standalone="no"?>
<!DOCTYPE svg PUBLIC "-//W3C//DTD SVG 1.1//EN"
 "http://www.w3.org/Graphics/SVG/1.1/DTD/svg11.dtd">
<!-- Generated by graphviz version 5.0.1 (20220820.1526)
 -->
<!-- Title: main Pages: 1 -->
<svg width="227pt" height="138pt"
 viewBox="0.00 0.00 227.00 138.00" xmlns="http://www.w3.org/2000/svg" xmlns:xlink="http://www.w3.org/1999/xlink">
<g id="graph0" class="graph" transform="scale(1 1) rotate(0) translate(4 134)">
<title>main</title>
<!-- Node1 -->
<g id="node1" class="node">
<title>Node1</title>
<g id="a_node1"><a xlink:title="Main function.">
<polygon fill="#999999" stroke="#666666" points="38,-74 0,-74 0,-55 38,-55 38,-74"/>
<text text-anchor="middle" x="19" y="-62" font-family="Helvetica,sans-Serif" font-size="10.00">main</text>
</a>
</g>
</g>
<!-- Node2 -->
<g id="node2" class="node">
<title>Node2</title>
<g id="a_node2"><a xlink:href="../../de/d07/cycle__sort_8cpp.html#aa8dca7b867074164d5f45b0f3851269d" target="_top" xlink:title="Test implementations.">
<polygon fill="white" stroke="#666666" points="107,-74 74,-74 74,-55 107,-55 107,-74"/>
<text text-anchor="middle" x="90.5" y="-62" font-family="Helvetica,sans-Serif" font-size="10.00">test</text>
</a>
</g>
</g>
<!-- Node1&#45;&gt;Node2 -->
<g id="edge1" class="edge">
<title>Node1&#45;&gt;Node2</title>
<path fill="none" stroke="#63b8ff" d="M38.26,-64.5C46.07,-64.5 55.31,-64.5 63.79,-64.5"/>
<polygon fill="#63b8ff" stroke="#63b8ff" points="63.95,-68 73.95,-64.5 63.95,-61 63.95,-68"/>
</g>
<!-- Node3 -->
<g id="node3" class="node">
<title>Node3</title>
<g id="a_node3"><a target="_blank" xlink:href="http://en.cppreference.com/w/cpp/iterator/begin.html#" xlink:title=" ">
<polygon fill="white" stroke="#666666" points="210.5,-130 151.5,-130 151.5,-111 210.5,-111 210.5,-130"/>
<text text-anchor="middle" x="181" y="-118" font-family="Helvetica,sans-Serif" font-size="10.00">std::begin</text>
</a>
</g>
</g>
<!-- Node2&#45;&gt;Node3 -->
<g id="edge2" class="edge">
<title>Node2&#45;&gt;Node3</title>
<path fill="none" stroke="#63b8ff" d="M103.34,-74.21C113.51,-82.31 128.74,-93.87 143,-102.5 144.99,-103.7 147.06,-104.89 149.18,-106.05"/>
<polygon fill="#63b8ff" stroke="#63b8ff" points="148.02,-109.39 158.51,-110.87 151.24,-103.17 148.02,-109.39"/>
</g>
<!-- Node4 -->
<g id="node4" class="node">
<title>Node4</title>
<g id="a_node4"><a target="_blank" xlink:href="http://en.cppreference.com/w/cpp/iterator/end.html#" xlink:title=" ">
<polygon fill="white" stroke="#666666" points="207,-93 155,-93 155,-74 207,-74 207,-93"/>
<text text-anchor="middle" x="181" y="-81" font-family="Helvetica,sans-Serif" font-size="10.00">std::end</text>
</a>
</g>
</g>
<!-- Node2&#45;&gt;Node4 -->
<g id="edge3" class="edge">
<title>Node2&#45;&gt;Node4</title>
<path fill="none" stroke="#63b8ff" d="M107.32,-67.9C117.76,-70.14 131.85,-73.16 144.85,-75.95"/>
<polygon fill="#63b8ff" stroke="#63b8ff" points="144.44,-79.44 154.95,-78.12 145.91,-72.6 144.44,-79.44"/>
</g>
<!-- Node5 -->
<g id="node5" class="node">
<title>Node5</title>
<g id="a_node5"><a target="_blank" xlink:href="http://en.cppreference.com/w/cpp/io/manip/endl.html#" xlink:title=" ">
<polygon fill="white" stroke="#666666" points="208,-56 154,-56 154,-37 208,-37 208,-56"/>
<text text-anchor="middle" x="181" y="-44" font-family="Helvetica,sans-Serif" font-size="10.00">std::endl</text>
</a>
</g>
</g>
<!-- Node2&#45;&gt;Node5 -->
<g id="edge4" class="edge">
<title>Node2&#45;&gt;Node5</title>
<path fill="none" stroke="#63b8ff" d="M107.32,-61.28C117.52,-59.21 131.22,-56.42 143.97,-53.83"/>
<polygon fill="#63b8ff" stroke="#63b8ff" points="144.81,-57.23 153.91,-51.81 143.41,-50.37 144.81,-57.23"/>
</g>
<!-- Node6 -->
<g id="node6" class="node">
<title>Node6</title>
<g id="a_node6"><a target="_blank" xlink:href="http://en.cppreference.com/w/cpp/algorithm/is_sorted.html#" xlink:title=" ">
<polygon fill="white" stroke="#666666" points="219,-19 143,-19 143,0 219,0 219,-19"/>
<text text-anchor="middle" x="181" y="-7" font-family="Helvetica,sans-Serif" font-size="10.00">std::is_sorted</text>
</a>
</g>
</g>
<!-- Node2&#45;&gt;Node6 -->
<g id="edge5" class="edge">
<title>Node2&#45;&gt;Node6</title>
<path fill="none" stroke="#63b8ff" d="M104.3,-54.82C114.53,-47.27 129.36,-36.72 143,-28.5 145.64,-26.91 148.42,-25.33 151.23,-23.78"/>
<polygon fill="#63b8ff" stroke="#63b8ff" points="152.94,-26.84 160.14,-19.07 149.67,-20.65 152.94,-26.84"/>
</g>
</g>
</svg>
