<?xml version="1.0" encoding="UTF-8" standalone="no"?>
<!DOCTYPE svg PUBLIC "-//W3C//DTD SVG 1.1//EN"
 "http://www.w3.org/Graphics/SVG/1.1/DTD/svg11.dtd">
<!-- Generated by graphviz version 2.47.3 (20210619.1520)
 -->
<!-- Title: test Pages: 1 -->
<!--zoomable 675 -->
<svg id="main" version="1.1" xmlns="http://www.w3.org/2000/svg" xmlns:xlink="http://www.w3.org/1999/xlink" xml:space="preserve" onload="init(evt)">
<style type="text/css"><![CDATA[
.edge:hover path { stroke: red; }
.edge:hover polygon { stroke: red; fill: red; }
]]></style>
<script type="text/javascript"><![CDATA[
var edges = document.getElementsByTagName('g');
if (edges && edges.length) {
  for (var i=0;i<edges.length;i++) {
    if (edges[i].id.substr(0,4)=='edge') {
      edges[i].setAttribute('class','edge');
    }
  }
}
]]></script>
        <defs>
                <circle id="rim" cx="0" cy="0" r="7"/>
                <circle id="rim2" cx="0" cy="0" r="3.5"/>
                <g id="zoomPlus">
                        <use xlink:href="#rim" fill="#404040">
                                <set attributeName="fill" to="#808080" begin="zoomplus.mouseover" end="zoomplus.mouseout"/>
                        </use>
                        <path d="M-4,0h8M0,-4v8" fill="none" stroke="white" stroke-width="1.5" pointer-events="none"/>
                </g>
                <g id="zoomMin">
                        <use xlink:href="#rim" fill="#404040">
                                <set attributeName="fill" to="#808080" begin="zoomminus.mouseover" end="zoomminus.mouseout"/>
                        </use>
                        <path d="M-4,0h8" fill="none" stroke="white" stroke-width="1.5" pointer-events="none"/>
                </g>
                <g id="dirArrow">
                        <path fill="none" stroke="white" stroke-width="1.5" d="M0,-3.0v7 M-2.5,-0.5L0,-3.0L2.5,-0.5"/>
                </g>
               <g id="resetDef">
                       <use xlink:href="#rim2" fill="#404040">
                               <set attributeName="fill" to="#808080" begin="reset.mouseover" end="reset.mouseout"/>
                       </use>
               </g>
        </defs>

<script type="text/javascript">
var viewWidth = 601;
var viewHeight = 675;
var sectionId = 'dynsection-2';
</script>
<script xlink:href="../../svgpan.js"/>
<svg id="graph" class="graph">
<g id="viewport">
<title>test</title>
<polygon fill="white" stroke="transparent" points="-4,4 -4,-670.92 597,-670.92 597,4 -4,4"/>
<!-- Node1 -->
<g id="node1" class="node">
<title>Node1</title>
<g id="a_node1"><a xlink:title=" ">
<polygon fill="#bfbfbf" stroke="black" points="0,-463.5 0,-482.5 33,-482.5 33,-463.5 0,-463.5"/>
<text text-anchor="middle" x="16.5" y="-470.5" font-family="Helvetica,sans-Serif" font-size="10.00">test</text>
</a>
</g>
</g>
<!-- Node2 -->
<g id="node2" class="node">
<title>Node2</title>
<g id="a_node2"><a target="_blank" xlink:href="http://en.cppreference.com/w/cpp/io/manip/endl.html#" xlink:title=" ">
<polygon fill="white" stroke="black" points="82,-539.5 82,-558.5 136,-558.5 136,-539.5 82,-539.5"/>
<text text-anchor="middle" x="109" y="-546.5" font-family="Helvetica,sans-Serif" font-size="10.00">std::endl</text>
</a>
</g>
</g>
<!-- Node1&#45;&gt;Node2 -->
<g id="edge1" class="edge">
<title>Node1&#45;&gt;Node2</title>
<path fill="none" stroke="midnightblue" d="M24.26,-482.51C33.33,-494.73 50.45,-516.05 69,-530 71.05,-531.54 73.25,-533.01 75.52,-534.4"/>
<polygon fill="midnightblue" stroke="midnightblue" points="74.02,-537.57 84.47,-539.34 77.4,-531.44 74.02,-537.57"/>
</g>
<!-- Node3 -->
<g id="node3" class="node">
<title>Node3</title>
<g id="a_node3"><a xlink:href="../../dd/d47/namespacemath.html#a04065193d190d605e1f0d0d93a87e244" target="_top" xlink:title=" ">
<polygon fill="white" stroke="black" points="69,-501.5 69,-520.5 149,-520.5 149,-501.5 69,-501.5"/>
<text text-anchor="middle" x="109" y="-508.5" font-family="Helvetica,sans-Serif" font-size="10.00">math::lcmSum</text>
</a>
</g>
</g>
<!-- Node1&#45;&gt;Node3 -->
<g id="edge2" class="edge">
<title>Node1&#45;&gt;Node3</title>
<path fill="none" stroke="midnightblue" d="M33.26,-479.62C44.95,-484.53 61.28,-491.38 75.7,-497.44"/>
<polygon fill="midnightblue" stroke="midnightblue" points="74.72,-500.82 85.29,-501.47 77.43,-494.37 74.72,-500.82"/>
</g>
<!-- Node4 -->
<g id="node4" class="node">
<title>Node4</title>
<g id="a_node4"><a xlink:href="../../d2/de9/heavy__light__decomposition_8cpp.html#a34b8683a2b429de5cce57e6d733ec817" target="_top" xlink:title=" ">
<polygon fill="white" stroke="black" points="87,-352.5 87,-371.5 131,-371.5 131,-352.5 87,-352.5"/>
<text text-anchor="middle" x="109" y="-359.5" font-family="Helvetica,sans-Serif" font-size="10.00">test_1</text>
</a>
</g>
</g>
<!-- Node1&#45;&gt;Node4 -->
<g id="edge3" class="edge">
<title>Node1&#45;&gt;Node4</title>
<path fill="none" stroke="midnightblue" d="M25.53,-463.15C40.87,-444.34 74.5,-403.09 93.74,-379.49"/>
<polygon fill="midnightblue" stroke="midnightblue" points="96.51,-381.63 100.12,-371.67 91.08,-377.21 96.51,-381.63"/>
</g>
<!-- Node24 -->
<g id="node24" class="node">
<title>Node24</title>
<g id="a_node24"><a xlink:href="../../d2/de9/heavy__light__decomposition_8cpp.html#a458410412185a5f09199deaff7157a8d" target="_top" xlink:title=" ">
<polygon fill="white" stroke="black" points="87,-463.5 87,-482.5 131,-482.5 131,-463.5 87,-463.5"/>
<text text-anchor="middle" x="109" y="-470.5" font-family="Helvetica,sans-Serif" font-size="10.00">test_2</text>
</a>
</g>
</g>
<!-- Node1&#45;&gt;Node24 -->
<g id="edge26" class="edge">
<title>Node1&#45;&gt;Node24</title>
<path fill="none" stroke="midnightblue" d="M33.26,-473C45.24,-473 62.11,-473 76.79,-473"/>
<polygon fill="midnightblue" stroke="midnightblue" points="76.99,-476.5 86.99,-473 76.99,-469.5 76.99,-476.5"/>
</g>
<!-- Node25 -->
<g id="node25" class="node">
<title>Node25</title>
<g id="a_node25"><a xlink:href="../../d2/de9/heavy__light__decomposition_8cpp.html#af31ec5409537703d9c8a47350386b32a" target="_top" xlink:title=" ">
<polygon fill="white" stroke="black" points="87,-425.5 87,-444.5 131,-444.5 131,-425.5 87,-425.5"/>
<text text-anchor="middle" x="109" y="-432.5" font-family="Helvetica,sans-Serif" font-size="10.00">test_3</text>
</a>
</g>
</g>
<!-- Node1&#45;&gt;Node25 -->
<g id="edge34" class="edge">
<title>Node1&#45;&gt;Node25</title>
<path fill="none" stroke="midnightblue" d="M33.26,-466.38C45.48,-461.25 62.77,-453.99 77.64,-447.75"/>
<polygon fill="midnightblue" stroke="midnightblue" points="79.12,-450.92 86.99,-443.82 76.41,-444.47 79.12,-450.92"/>
</g>
<!-- Node5 -->
<g id="node5" class="node">
<title>Node5</title>
<g id="a_node5"><a xlink:href="../../d1/d51/classrange__queries_1_1heavy__light__decomposition_1_1_tree.html#a79ab4601c4a95c0902ac04e779e5f54d" target="_top" xlink:title="Adds an undirected edge from node u to node v in the tree.">
<polygon fill="white" stroke="black" points="185,-365.5 185,-406.5 295,-406.5 295,-365.5 185,-365.5"/>
<text text-anchor="start" x="193" y="-394.5" font-family="Helvetica,sans-Serif" font-size="10.00">range_queries::heavy</text>
<text text-anchor="start" x="193" y="-383.5" font-family="Helvetica,sans-Serif" font-size="10.00">_light_decomposition</text>
<text text-anchor="middle" x="240" y="-372.5" font-family="Helvetica,sans-Serif" font-size="10.00">::Tree::add_edge</text>
</a>
</g>
</g>
<!-- Node4&#45;&gt;Node5 -->
<g id="edge4" class="edge">
<title>Node4&#45;&gt;Node5</title>
<path fill="none" stroke="midnightblue" d="M131.01,-365.91C143.13,-368.16 159.09,-371.13 175,-374.09"/>
<polygon fill="midnightblue" stroke="midnightblue" points="174.4,-377.54 184.87,-375.93 175.68,-370.66 174.4,-377.54"/>
</g>
<!-- Node6 -->
<g id="node6" class="node">
<title>Node6</title>
<g id="a_node6"><a target="_blank" xlink:href="http://en.cppreference.com/w/cpp/container/vector/push_back.html#" xlink:title=" ">
<polygon fill="white" stroke="black" points="331,-411.5 331,-430.5 447,-430.5 447,-411.5 331,-411.5"/>
<text text-anchor="middle" x="389" y="-418.5" font-family="Helvetica,sans-Serif" font-size="10.00">std::vector::push_back</text>
</a>
</g>
</g>
<!-- Node4&#45;&gt;Node6 -->
<g id="edge14" class="edge">
<title>Node4&#45;&gt;Node6</title>
<path fill="none" stroke="midnightblue" d="M113.38,-352.48C121.65,-330.87 145.17,-278.38 185,-258 228.52,-235.73 256.12,-228.36 295,-258 343.02,-294.6 293.8,-341.44 331,-389 336.64,-396.21 344.38,-402.05 352.34,-406.67"/>
<polygon fill="midnightblue" stroke="midnightblue" points="350.84,-409.84 361.32,-411.38 354.09,-403.64 350.84,-409.84"/>
</g>
<!-- Node7 -->
<g id="node7" class="node">
<title>Node7</title>
<g id="a_node7"><a xlink:href="../../d2/d8a/classrange__queries_1_1heavy__light__decomposition_1_1_h_l_d.html#ae9e979edd69678b85665c01e2ee97828" target="_top" xlink:title="This function must be called after the tree adjacency list and node values are populated The function...">
<polygon fill="white" stroke="black" points="185,-169.5 185,-210.5 295,-210.5 295,-169.5 185,-169.5"/>
<text text-anchor="start" x="193" y="-198.5" font-family="Helvetica,sans-Serif" font-size="10.00">range_queries::heavy</text>
<text text-anchor="start" x="193" y="-187.5" font-family="Helvetica,sans-Serif" font-size="10.00">_light_decomposition</text>
<text text-anchor="middle" x="240" y="-176.5" font-family="Helvetica,sans-Serif" font-size="10.00">::HLD::init</text>
</a>
</g>
</g>
<!-- Node4&#45;&gt;Node7 -->
<g id="edge6" class="edge">
<title>Node4&#45;&gt;Node7</title>
<path fill="none" stroke="midnightblue" d="M113.37,-352.36C122.08,-328.46 147.36,-265.54 185,-225 187.66,-222.13 190.6,-219.4 193.7,-216.81"/>
<polygon fill="midnightblue" stroke="midnightblue" points="195.86,-219.56 201.65,-210.69 191.59,-214.02 195.86,-219.56"/>
</g>
<!-- Node15 -->
<g id="node15" class="node">
<title>Node15</title>
<g id="a_node15"><a xlink:href="../../d2/d8a/classrange__queries_1_1heavy__light__decomposition_1_1_h_l_d.html#a4dfbf5d9df825eeb63b294c6849bdcab" target="_top" xlink:title="This function returns the sum of node values in the simple path from from node_1 to node_2.">
<polygon fill="white" stroke="black" points="185,-267.5 185,-308.5 295,-308.5 295,-267.5 185,-267.5"/>
<text text-anchor="start" x="193" y="-296.5" font-family="Helvetica,sans-Serif" font-size="10.00">range_queries::heavy</text>
<text text-anchor="start" x="193" y="-285.5" font-family="Helvetica,sans-Serif" font-size="10.00">_light_decomposition</text>
<text text-anchor="middle" x="240" y="-274.5" font-family="Helvetica,sans-Serif" font-size="10.00">::HLD::query</text>
</a>
</g>
</g>
<!-- Node4&#45;&gt;Node15 -->
<g id="edge15" class="edge">
<title>Node4&#45;&gt;Node15</title>
<path fill="none" stroke="midnightblue" d="M126.6,-352.48C143.68,-342.68 171.01,-327 194.45,-313.55"/>
<polygon fill="midnightblue" stroke="midnightblue" points="196.28,-316.54 203.22,-308.53 192.8,-310.47 196.28,-316.54"/>
</g>
<!-- Node20 -->
<g id="node20" class="node">
<title>Node20</title>
<g id="a_node20"><a xlink:href="../../d1/d51/classrange__queries_1_1heavy__light__decomposition_1_1_tree.html#a04cd96efaba147b19d3afc769b90ff70" target="_top" xlink:title="Set the values for all the nodes.">
<polygon fill="white" stroke="black" points="185,-463.5 185,-504.5 295,-504.5 295,-463.5 185,-463.5"/>
<text text-anchor="start" x="193" y="-492.5" font-family="Helvetica,sans-Serif" font-size="10.00">range_queries::heavy</text>
<text text-anchor="start" x="193" y="-481.5" font-family="Helvetica,sans-Serif" font-size="10.00">_light_decomposition</text>
<text text-anchor="middle" x="240" y="-470.5" font-family="Helvetica,sans-Serif" font-size="10.00">::Tree::set_node_val</text>
</a>
</g>
</g>
<!-- Node4&#45;&gt;Node20 -->
<g id="edge21" class="edge">
<title>Node4&#45;&gt;Node20</title>
<path fill="none" stroke="midnightblue" d="M120.12,-371.57C139.21,-389.62 181.15,-429.29 209.75,-456.34"/>
<polygon fill="midnightblue" stroke="midnightblue" points="207.4,-458.93 217.07,-463.26 212.21,-453.85 207.4,-458.93"/>
</g>
<!-- Node21 -->
<g id="node21" class="node">
<title>Node21</title>
<g id="a_node21"><a target="_blank" xlink:href="http://en.cppreference.com/w/cpp/container/vector/size.html#" xlink:title=" ">
<polygon fill="white" stroke="black" points="345.5,-498.5 345.5,-517.5 432.5,-517.5 432.5,-498.5 345.5,-498.5"/>
<text text-anchor="middle" x="389" y="-505.5" font-family="Helvetica,sans-Serif" font-size="10.00">std::vector::size</text>
</a>
</g>
</g>
<!-- Node4&#45;&gt;Node21 -->
<g id="edge23" class="edge">
<title>Node4&#45;&gt;Node21</title>
<path fill="none" stroke="midnightblue" d="M131.26,-354.01C168.03,-341.67 244.43,-322.65 295,-356 328.91,-378.36 309.73,-405.4 331,-440 342.49,-458.69 358.84,-477.63 371.09,-490.76"/>
<polygon fill="midnightblue" stroke="midnightblue" points="368.67,-493.3 378.1,-498.13 373.74,-488.47 368.67,-493.3"/>
</g>
<!-- Node22 -->
<g id="node22" class="node">
<title>Node22</title>
<g id="a_node22"><a xlink:href="../../d2/d8a/classrange__queries_1_1heavy__light__decomposition_1_1_h_l_d.html#a9f1cb54ed09fde931bf3220d75ee4c57" target="_top" xlink:title="This function updates the value at node with val.">
<polygon fill="white" stroke="black" points="185,-561.5 185,-602.5 295,-602.5 295,-561.5 185,-561.5"/>
<text text-anchor="start" x="193" y="-590.5" font-family="Helvetica,sans-Serif" font-size="10.00">range_queries::heavy</text>
<text text-anchor="start" x="193" y="-579.5" font-family="Helvetica,sans-Serif" font-size="10.00">_light_decomposition</text>
<text text-anchor="middle" x="240" y="-568.5" font-family="Helvetica,sans-Serif" font-size="10.00">::HLD::update</text>
</a>
</g>
</g>
<!-- Node4&#45;&gt;Node22 -->
<g id="edge24" class="edge">
<title>Node4&#45;&gt;Node22</title>
<path fill="none" stroke="midnightblue" d="M118.36,-371.8C126.92,-382.23 140.2,-399.46 149,-416 170.79,-456.97 162.28,-473.54 185,-514 192.8,-527.88 203.35,-541.89 213.06,-553.55"/>
<polygon fill="midnightblue" stroke="midnightblue" points="210.45,-555.88 219.61,-561.22 215.78,-551.34 210.45,-555.88"/>
</g>
<!-- Node5&#45;&gt;Node6 -->
<g id="edge5" class="edge">
<title>Node5&#45;&gt;Node6</title>
<path fill="none" stroke="midnightblue" d="M295.32,-398.93C309.27,-402.26 324.22,-405.81 337.94,-409.08"/>
<polygon fill="midnightblue" stroke="midnightblue" points="337.15,-412.49 347.69,-411.4 338.77,-405.68 337.15,-412.49"/>
</g>
<!-- Node8 -->
<g id="node8" class="node">
<title>Node8</title>
<g id="a_node8"><a xlink:href="../../d9/d35/classrange__queries_1_1heavy__light__decomposition_1_1_s_g.html#a41c733f5f5e262b308f7cb95c88c1e74" target="_top" xlink:title="Function that specifies the type of operation involved when segments are combined.">
<polygon fill="white" stroke="black" points="483,-199.5 483,-240.5 593,-240.5 593,-199.5 483,-199.5"/>
<text text-anchor="start" x="491" y="-228.5" font-family="Helvetica,sans-Serif" font-size="10.00">range_queries::heavy</text>
<text text-anchor="start" x="491" y="-217.5" font-family="Helvetica,sans-Serif" font-size="10.00">_light_decomposition</text>
<text text-anchor="middle" x="538" y="-206.5" font-family="Helvetica,sans-Serif" font-size="10.00">::SG::combine</text>
</a>
</g>
</g>
<!-- Node7&#45;&gt;Node8 -->
<g id="edge7" class="edge">
<title>Node7&#45;&gt;Node8</title>
<path fill="none" stroke="midnightblue" d="M295.26,-194.56C336.82,-198.16 395.58,-203.49 447,-209 455.32,-209.89 464.08,-210.89 472.72,-211.91"/>
<polygon fill="midnightblue" stroke="midnightblue" points="472.43,-215.4 482.77,-213.11 473.26,-208.45 472.43,-215.4"/>
</g>
<!-- Node9 -->
<g id="node9" class="node">
<title>Node9</title>
<g id="a_node9"><a xlink:href="../../d2/d8a/classrange__queries_1_1heavy__light__decomposition_1_1_h_l_d.html#af64848d6630c39d0f09ce2359cc7c4f8" target="_top" xlink:title="Utility function to assign heavy child to each node (&#45;1 for a leaf node)">
<polygon fill="white" stroke="black" points="334,-0.5 334,-41.5 444,-41.5 444,-0.5 334,-0.5"/>
<text text-anchor="start" x="342" y="-29.5" font-family="Helvetica,sans-Serif" font-size="10.00">range_queries::heavy</text>
<text text-anchor="start" x="342" y="-18.5" font-family="Helvetica,sans-Serif" font-size="10.00">_light_decomposition</text>
<text text-anchor="middle" x="389" y="-7.5" font-family="Helvetica,sans-Serif" font-size="10.00">::HLD::dfs_hc</text>
</a>
</g>
</g>
<!-- Node7&#45;&gt;Node9 -->
<g id="edge8" class="edge">
<title>Node7&#45;&gt;Node9</title>
<path fill="none" stroke="midnightblue" d="M250.22,-169.26C264.14,-139.84 293.01,-85.71 331,-51 332.28,-49.83 333.61,-48.7 334.98,-47.59"/>
<polygon fill="midnightblue" stroke="midnightblue" points="337.18,-50.32 343.24,-41.63 333.08,-44.65 337.18,-50.32"/>
</g>
<!-- Node10 -->
<g id="node10" class="node">
<title>Node10</title>
<g id="a_node10"><a xlink:href="../../d2/d8a/classrange__queries_1_1heavy__light__decomposition_1_1_h_l_d.html#a0579062b384e54b611b80c6337c7f2c8" target="_top" xlink:title="Utility function to lable the nodes so that heavy chains have a contigous lable.">
<polygon fill="white" stroke="black" points="334,-218.5 334,-259.5 444,-259.5 444,-218.5 334,-218.5"/>
<text text-anchor="start" x="342" y="-247.5" font-family="Helvetica,sans-Serif" font-size="10.00">range_queries::heavy</text>
<text text-anchor="start" x="342" y="-236.5" font-family="Helvetica,sans-Serif" font-size="10.00">_light_decomposition</text>
<text text-anchor="middle" x="389" y="-225.5" font-family="Helvetica,sans-Serif" font-size="10.00">::HLD::dfs_labels</text>
</a>
</g>
</g>
<!-- Node7&#45;&gt;Node10 -->
<g id="edge9" class="edge">
<title>Node7&#45;&gt;Node10</title>
<path fill="none" stroke="midnightblue" d="M295.32,-208.11C304.77,-211.26 314.67,-214.56 324.34,-217.78"/>
<polygon fill="midnightblue" stroke="midnightblue" points="323.31,-221.13 333.9,-220.97 325.52,-214.49 323.31,-221.13"/>
</g>
<!-- Node11 -->
<g id="node11" class="node">
<title>Node11</title>
<g id="a_node11"><a xlink:href="../../d2/d8a/classrange__queries_1_1heavy__light__decomposition_1_1_h_l_d.html#a2dfbda148aad0bfaba2ebfda9ebc915a" target="_top" xlink:title="Utility function to assign highest parent that can be reached though heavy chains.">
<polygon fill="white" stroke="black" points="334,-120.5 334,-161.5 444,-161.5 444,-120.5 334,-120.5"/>
<text text-anchor="start" x="342" y="-149.5" font-family="Helvetica,sans-Serif" font-size="10.00">range_queries::heavy</text>
<text text-anchor="start" x="342" y="-138.5" font-family="Helvetica,sans-Serif" font-size="10.00">_light_decomposition</text>
<text text-anchor="middle" x="389" y="-127.5" font-family="Helvetica,sans-Serif" font-size="10.00">::HLD::dfs_par</text>
</a>
</g>
</g>
<!-- Node7&#45;&gt;Node11 -->
<g id="edge10" class="edge">
<title>Node7&#45;&gt;Node11</title>
<path fill="none" stroke="midnightblue" d="M295.32,-171.89C304.77,-168.74 314.67,-165.44 324.34,-162.22"/>
<polygon fill="midnightblue" stroke="midnightblue" points="325.52,-165.51 333.9,-159.03 323.31,-158.87 325.52,-165.51"/>
</g>
<!-- Node12 -->
<g id="node12" class="node">
<title>Node12</title>
<g id="a_node12"><a xlink:href="../../d1/d51/classrange__queries_1_1heavy__light__decomposition_1_1_tree.html#ad22d760a5a33545a70e7ea5e1786c8dc" target="_top" xlink:title="This function must be called after the tree adjacency list and node values are populated The function...">
<polygon fill="white" stroke="black" points="334,-60.5 334,-101.5 444,-101.5 444,-60.5 334,-60.5"/>
<text text-anchor="start" x="342" y="-89.5" font-family="Helvetica,sans-Serif" font-size="10.00">range_queries::heavy</text>
<text text-anchor="start" x="342" y="-78.5" font-family="Helvetica,sans-Serif" font-size="10.00">_light_decomposition</text>
<text text-anchor="middle" x="389" y="-67.5" font-family="Helvetica,sans-Serif" font-size="10.00">::Tree::init</text>
</a>
</g>
</g>
<!-- Node7&#45;&gt;Node12 -->
<g id="edge11" class="edge">
<title>Node7&#45;&gt;Node12</title>
<path fill="none" stroke="midnightblue" d="M261.65,-169.33C279.17,-152.44 305.48,-128.55 331,-111 333.1,-109.56 335.27,-108.14 337.49,-106.74"/>
<polygon fill="midnightblue" stroke="midnightblue" points="339.44,-109.65 346.23,-101.51 335.85,-103.64 339.44,-109.65"/>
</g>
<!-- Node13 -->
<g id="node13" class="node">
<title>Node13</title>
<g id="a_node13"><a xlink:href="../../d1/d51/classrange__queries_1_1heavy__light__decomposition_1_1_tree.html#ae8de7aefcb6635d3dacdd174cd4890c4" target="_top" xlink:title="Utility function to populate the t_par vector.">
<polygon fill="white" stroke="black" points="483,-30.5 483,-71.5 593,-71.5 593,-30.5 483,-30.5"/>
<text text-anchor="start" x="491" y="-59.5" font-family="Helvetica,sans-Serif" font-size="10.00">range_queries::heavy</text>
<text text-anchor="start" x="491" y="-48.5" font-family="Helvetica,sans-Serif" font-size="10.00">_light_decomposition</text>
<text text-anchor="middle" x="538" y="-37.5" font-family="Helvetica,sans-Serif" font-size="10.00">::Tree::dfs_lca</text>
</a>
</g>
</g>
<!-- Node12&#45;&gt;Node13 -->
<g id="edge12" class="edge">
<title>Node12&#45;&gt;Node13</title>
<path fill="none" stroke="midnightblue" d="M444.32,-69.91C453.67,-68.01 463.46,-66.01 473.03,-64.05"/>
<polygon fill="midnightblue" stroke="midnightblue" points="473.81,-67.47 482.9,-62.04 472.41,-60.61 473.81,-67.47"/>
</g>
<!-- Node14 -->
<g id="node14" class="node">
<title>Node14</title>
<g id="a_node14"><a xlink:href="../../d1/d51/classrange__queries_1_1heavy__light__decomposition_1_1_tree.html#aa339c31ec74cd86a4842a8b09653d460" target="_top" xlink:title="Utility function to compute sub&#45;tree sizes.">
<polygon fill="white" stroke="black" points="483,-90.5 483,-131.5 593,-131.5 593,-90.5 483,-90.5"/>
<text text-anchor="start" x="491" y="-119.5" font-family="Helvetica,sans-Serif" font-size="10.00">range_queries::heavy</text>
<text text-anchor="start" x="491" y="-108.5" font-family="Helvetica,sans-Serif" font-size="10.00">_light_decomposition</text>
<text text-anchor="middle" x="538" y="-97.5" font-family="Helvetica,sans-Serif" font-size="10.00">::Tree::dfs_size</text>
</a>
</g>
</g>
<!-- Node12&#45;&gt;Node14 -->
<g id="edge13" class="edge">
<title>Node12&#45;&gt;Node14</title>
<path fill="none" stroke="midnightblue" d="M444.32,-92.09C453.67,-93.99 463.46,-95.99 473.03,-97.95"/>
<polygon fill="midnightblue" stroke="midnightblue" points="472.41,-101.39 482.9,-99.96 473.81,-94.53 472.41,-101.39"/>
</g>
<!-- Node16 -->
<g id="node16" class="node">
<title>Node16</title>
<g id="a_node16"><a xlink:href="../../d2/d8a/classrange__queries_1_1heavy__light__decomposition_1_1_h_l_d.html#a7d5b40c076347a6aabfb37a0590f2f24" target="_top" xlink:title="Utility function to break down a path query into two chain queries.">
<polygon fill="white" stroke="black" points="334,-278.5 334,-319.5 444,-319.5 444,-278.5 334,-278.5"/>
<text text-anchor="start" x="342" y="-307.5" font-family="Helvetica,sans-Serif" font-size="10.00">range_queries::heavy</text>
<text text-anchor="start" x="342" y="-296.5" font-family="Helvetica,sans-Serif" font-size="10.00">_light_decomposition</text>
<text text-anchor="middle" x="389" y="-285.5" font-family="Helvetica,sans-Serif" font-size="10.00">::HLD::chain_query</text>
</a>
</g>
</g>
<!-- Node15&#45;&gt;Node16 -->
<g id="edge16" class="edge">
<title>Node15&#45;&gt;Node16</title>
<path fill="none" stroke="midnightblue" d="M295.32,-292.06C304.57,-292.76 314.25,-293.48 323.73,-294.19"/>
<polygon fill="midnightblue" stroke="midnightblue" points="323.67,-297.7 333.9,-294.95 324.19,-290.72 323.67,-297.7"/>
</g>
<!-- Node18 -->
<g id="node18" class="node">
<title>Node18</title>
<g id="a_node18"><a xlink:href="../../d1/d51/classrange__queries_1_1heavy__light__decomposition_1_1_tree.html#ae2b407e64aaf9878fbee7ee6efe9c7d4" target="_top" xlink:title="The function returns the least common ancestor of two nodes.">
<polygon fill="white" stroke="black" points="334,-338.5 334,-379.5 444,-379.5 444,-338.5 334,-338.5"/>
<text text-anchor="start" x="342" y="-367.5" font-family="Helvetica,sans-Serif" font-size="10.00">range_queries::heavy</text>
<text text-anchor="start" x="342" y="-356.5" font-family="Helvetica,sans-Serif" font-size="10.00">_light_decomposition</text>
<text text-anchor="middle" x="389" y="-345.5" font-family="Helvetica,sans-Serif" font-size="10.00">::Tree::lca</text>
</a>
</g>
</g>
<!-- Node15&#45;&gt;Node18 -->
<g id="edge19" class="edge">
<title>Node15&#45;&gt;Node18</title>
<path fill="none" stroke="midnightblue" d="M283.52,-308.54C299.9,-316.45 318.8,-325.58 335.98,-333.88"/>
<polygon fill="midnightblue" stroke="midnightblue" points="334.8,-337.19 345.32,-338.39 337.84,-330.89 334.8,-337.19"/>
</g>
<!-- Node16&#45;&gt;Node8 -->
<g id="edge17" class="edge">
<title>Node16&#45;&gt;Node8</title>
<path fill="none" stroke="midnightblue" d="M429.29,-278.42C435.23,-275.28 441.28,-272.06 447,-269 461.15,-261.42 476.51,-253.1 490.46,-245.5"/>
<polygon fill="midnightblue" stroke="midnightblue" points="492.3,-248.48 499.41,-240.62 488.95,-242.34 492.3,-248.48"/>
</g>
<!-- Node17 -->
<g id="node17" class="node">
<title>Node17</title>
<g id="a_node17"><a target="_blank" xlink:href="http://en.cppreference.com/w/cpp/algorithm/swap.html#" xlink:title=" ">
<polygon fill="white" stroke="black" points="508.5,-289.5 508.5,-308.5 567.5,-308.5 567.5,-289.5 508.5,-289.5"/>
<text text-anchor="middle" x="538" y="-296.5" font-family="Helvetica,sans-Serif" font-size="10.00">std::swap</text>
</a>
</g>
</g>
<!-- Node16&#45;&gt;Node17 -->
<g id="edge18" class="edge">
<title>Node16&#45;&gt;Node17</title>
<path fill="none" stroke="midnightblue" d="M444.32,-299C462.17,-299 481.63,-299 498.1,-299"/>
<polygon fill="midnightblue" stroke="midnightblue" points="498.44,-302.5 508.44,-299 498.44,-295.5 498.44,-302.5"/>
</g>
<!-- Node19 -->
<g id="node19" class="node">
<title>Node19</title>
<g id="a_node19"><a xlink:href="../../d1/d51/classrange__queries_1_1heavy__light__decomposition_1_1_tree.html#ac7761255f2ba06b398b9aae5e4dce5f3" target="_top" xlink:title="The function lifts a node, k units up the tree. The lifting is done in place, and the result is store...">
<polygon fill="white" stroke="black" points="483,-338.5 483,-379.5 593,-379.5 593,-338.5 483,-338.5"/>
<text text-anchor="start" x="491" y="-367.5" font-family="Helvetica,sans-Serif" font-size="10.00">range_queries::heavy</text>
<text text-anchor="start" x="491" y="-356.5" font-family="Helvetica,sans-Serif" font-size="10.00">_light_decomposition</text>
<text text-anchor="middle" x="538" y="-345.5" font-family="Helvetica,sans-Serif" font-size="10.00">::Tree::lift</text>
</a>
</g>
</g>
<!-- Node18&#45;&gt;Node19 -->
<g id="edge20" class="edge">
<title>Node18&#45;&gt;Node19</title>
<path fill="none" stroke="midnightblue" d="M444.32,-359C453.57,-359 463.25,-359 472.73,-359"/>
<polygon fill="midnightblue" stroke="midnightblue" points="472.9,-362.5 482.9,-359 472.9,-355.5 472.9,-362.5"/>
</g>
<!-- Node20&#45;&gt;Node21 -->
<g id="edge22" class="edge">
<title>Node20&#45;&gt;Node21</title>
<path fill="none" stroke="midnightblue" d="M295.32,-492.87C308.36,-495 322.26,-497.27 335.22,-499.38"/>
<polygon fill="midnightblue" stroke="midnightblue" points="334.95,-502.89 345.38,-501.04 336.08,-495.98 334.95,-502.89"/>
</g>
<!-- Node23 -->
<g id="node23" class="node">
<title>Node23</title>
<g id="a_node23"><a xlink:href="../../d9/d35/classrange__queries_1_1heavy__light__decomposition_1_1_s_g.html#a3c75bf5770790f8eba8cc92227b5400c" target="_top" xlink:title="Update the value at a node.">
<polygon fill="white" stroke="black" points="334,-561.5 334,-602.5 444,-602.5 444,-561.5 334,-561.5"/>
<text text-anchor="start" x="342" y="-590.5" font-family="Helvetica,sans-Serif" font-size="10.00">range_queries::heavy</text>
<text text-anchor="start" x="342" y="-579.5" font-family="Helvetica,sans-Serif" font-size="10.00">_light_decomposition</text>
<text text-anchor="middle" x="389" y="-568.5" font-family="Helvetica,sans-Serif" font-size="10.00">::SG::update</text>
</a>
</g>
</g>
<!-- Node22&#45;&gt;Node23 -->
<g id="edge25" class="edge">
<title>Node22&#45;&gt;Node23</title>
<path fill="none" stroke="midnightblue" d="M295.32,-582C304.57,-582 314.25,-582 323.73,-582"/>
<polygon fill="midnightblue" stroke="midnightblue" points="323.9,-585.5 333.9,-582 323.9,-578.5 323.9,-585.5"/>
</g>
<!-- Node24&#45;&gt;Node5 -->
<g id="edge27" class="edge">
<title>Node24&#45;&gt;Node5</title>
<path fill="none" stroke="midnightblue" d="M131.04,-463.67C136.98,-460.79 143.35,-457.47 149,-454 168.94,-441.77 189.87,-426.15 206.52,-412.96"/>
<polygon fill="midnightblue" stroke="midnightblue" points="208.71,-415.69 214.33,-406.71 204.33,-410.23 208.71,-415.69"/>
</g>
<!-- Node24&#45;&gt;Node6 -->
<g id="edge29" class="edge">
<title>Node24&#45;&gt;Node6</title>
<path fill="none" stroke="midnightblue" d="M131.17,-479.53C137.66,-482.44 144.32,-486.49 149,-492 185.06,-534.43 140.33,-578.76 185,-612 224.22,-641.18 255.88,-641.32 295,-612 340.58,-577.85 304.13,-539.23 331,-489 341.35,-469.65 357.83,-450.78 370.41,-437.85"/>
<polygon fill="midnightblue" stroke="midnightblue" points="373.05,-440.16 377.65,-430.61 368.11,-435.21 373.05,-440.16"/>
</g>
<!-- Node24&#45;&gt;Node7 -->
<g id="edge28" class="edge">
<title>Node24&#45;&gt;Node7</title>
<path fill="none" stroke="midnightblue" d="M131.13,-466.94C137.77,-464.04 144.54,-459.88 149,-454 202.57,-383.47 148.37,-338.64 185,-258 191.54,-243.61 201.77,-229.61 211.58,-218.09"/>
<polygon fill="midnightblue" stroke="midnightblue" points="214.26,-220.34 218.25,-210.53 209.01,-215.71 214.26,-220.34"/>
</g>
<!-- Node24&#45;&gt;Node15 -->
<g id="edge30" class="edge">
<title>Node24&#45;&gt;Node15</title>
<path fill="none" stroke="midnightblue" d="M131.38,-466.11C137.73,-463.21 144.25,-459.25 149,-454 180.11,-419.57 162.28,-396.46 185,-356 192.8,-342.12 203.35,-328.11 213.06,-316.45"/>
<polygon fill="midnightblue" stroke="midnightblue" points="215.78,-318.66 219.61,-308.78 210.45,-314.12 215.78,-318.66"/>
</g>
<!-- Node24&#45;&gt;Node20 -->
<g id="edge31" class="edge">
<title>Node24&#45;&gt;Node20</title>
<path fill="none" stroke="midnightblue" d="M131.01,-474.79C143.02,-475.82 158.79,-477.16 174.55,-478.5"/>
<polygon fill="midnightblue" stroke="midnightblue" points="174.61,-482.02 184.87,-479.38 175.2,-475.05 174.61,-482.02"/>
</g>
<!-- Node24&#45;&gt;Node21 -->
<g id="edge32" class="edge">
<title>Node24&#45;&gt;Node21</title>
<path fill="none" stroke="midnightblue" d="M131.37,-479.37C137.87,-482.27 144.49,-486.35 149,-492 192.61,-546.57 130.24,-601.63 185,-645 223.32,-675.35 254.67,-672.63 295,-645 331.56,-619.95 304.48,-587.51 331,-552 339.5,-540.62 351.68,-530.67 362.61,-523.13"/>
<polygon fill="midnightblue" stroke="midnightblue" points="364.56,-526.03 371,-517.61 360.72,-520.18 364.56,-526.03"/>
</g>
<!-- Node24&#45;&gt;Node22 -->
<g id="edge33" class="edge">
<title>Node24&#45;&gt;Node22</title>
<path fill="none" stroke="midnightblue" d="M131.11,-480.76C137.3,-483.68 143.8,-487.42 149,-492 170.92,-511.31 164.3,-526.39 185,-547 187.94,-549.93 191.16,-552.74 194.52,-555.41"/>
<polygon fill="midnightblue" stroke="midnightblue" points="192.44,-558.22 202.55,-561.38 196.61,-552.6 192.44,-558.22"/>
</g>
<!-- Node25&#45;&gt;Node5 -->
<g id="edge35" class="edge">
<title>Node25&#45;&gt;Node5</title>
<path fill="none" stroke="midnightblue" d="M131.01,-427.02C143.25,-422.37 159.39,-416.24 175.45,-410.14"/>
<polygon fill="midnightblue" stroke="midnightblue" points="176.77,-413.38 184.87,-406.56 174.28,-406.84 176.77,-413.38"/>
</g>
<!-- Node25&#45;&gt;Node6 -->
<g id="edge37" class="edge">
<title>Node25&#45;&gt;Node6</title>
<path fill="none" stroke="midnightblue" d="M131.35,-433.92C171.34,-431.91 259.03,-427.49 320.74,-424.39"/>
<polygon fill="midnightblue" stroke="midnightblue" points="320.98,-427.88 330.79,-423.88 320.63,-420.89 320.98,-427.88"/>
</g>
<!-- Node25&#45;&gt;Node7 -->
<g id="edge36" class="edge">
<title>Node25&#45;&gt;Node7</title>
<path fill="none" stroke="midnightblue" d="M118.58,-425.31C127.33,-414.98 140.77,-397.83 149,-381 174.04,-329.84 158.8,-308.58 185,-258 192.32,-243.86 202.8,-229.81 212.57,-218.19"/>
<polygon fill="midnightblue" stroke="midnightblue" points="215.28,-220.41 219.18,-210.56 209.99,-215.82 215.28,-220.41"/>
</g>
<!-- Node25&#45;&gt;Node15 -->
<g id="edge38" class="edge">
<title>Node25&#45;&gt;Node15</title>
<path fill="none" stroke="midnightblue" d="M118.46,-425.35C137.61,-403.53 184.87,-349.69 214.2,-316.26"/>
<polygon fill="midnightblue" stroke="midnightblue" points="216.92,-318.47 220.88,-308.64 211.66,-313.85 216.92,-318.47"/>
</g>
<!-- Node25&#45;&gt;Node20 -->
<g id="edge39" class="edge">
<title>Node25&#45;&gt;Node20</title>
<path fill="none" stroke="midnightblue" d="M131.01,-442.98C143.25,-447.63 159.39,-453.76 175.45,-459.86"/>
<polygon fill="midnightblue" stroke="midnightblue" points="174.28,-463.16 184.87,-463.44 176.77,-456.62 174.28,-463.16"/>
</g>
<!-- Node25&#45;&gt;Node21 -->
<g id="edge40" class="edge">
<title>Node25&#45;&gt;Node21</title>
<path fill="none" stroke="midnightblue" d="M131.22,-442.64C137.42,-445.55 143.89,-449.32 149,-454 171.93,-475.01 157.94,-498.68 185,-514 236.13,-542.95 306.71,-531.67 349.75,-520.26"/>
<polygon fill="midnightblue" stroke="midnightblue" points="350.85,-523.59 359.55,-517.54 348.98,-516.85 350.85,-523.59"/>
</g>
<!-- Node25&#45;&gt;Node22 -->
<g id="edge41" class="edge">
<title>Node25&#45;&gt;Node22</title>
<path fill="none" stroke="midnightblue" d="M131.33,-441.93C137.68,-444.84 144.21,-448.79 149,-454 179,-486.63 157.04,-512.61 185,-547 187.32,-549.86 189.94,-552.56 192.74,-555.09"/>
<polygon fill="midnightblue" stroke="midnightblue" points="190.53,-557.81 200.5,-561.42 194.96,-552.39 190.53,-557.81"/>
</g>
</g>
</svg>
        <g id="navigator" transform="translate(0 0)" fill="#404254">
                <rect fill="#f2f5e9" fill-opacity="0.5" stroke="#606060" stroke-width=".5" x="0" y="0" width="60" height="60"/>
                <use id="zoomplus" xlink:href="#zoomPlus" x="17" y="9" onmousedown="handleZoom(evt,'in')"/>
                <use id="zoomminus" xlink:href="#zoomMin" x="42" y="9" onmousedown="handleZoom(evt,'out')"/>
                <use id="reset" xlink:href="#resetDef" x="30" y="36" onmousedown="handleReset()"/>
                <g id="arrowUp" xlink:href="#dirArrow" transform="translate(30 24)" onmousedown="handlePan(0,-1)">
                  <use xlink:href="#rim" fill="#404040">
                        <set attributeName="fill" to="#808080" begin="arrowUp.mouseover" end="arrowUp.mouseout"/>
                  </use>
                  <path fill="none" stroke="white" stroke-width="1.5" d="M0,-3.0v7 M-2.5,-0.5L0,-3.0L2.5,-0.5"/>
                </g>
                <g id="arrowRight" xlink:href="#dirArrow" transform="rotate(90) translate(36 -43)" onmousedown="handlePan(1,0)">
                  <use xlink:href="#rim" fill="#404040">
                        <set attributeName="fill" to="#808080" begin="arrowRight.mouseover" end="arrowRight.mouseout"/>
                  </use>
                  <path fill="none" stroke="white" stroke-width="1.5" d="M0,-3.0v7 M-2.5,-0.5L0,-3.0L2.5,-0.5"/>
                </g>
                <g id="arrowDown" xlink:href="#dirArrow" transform="rotate(180) translate(-30 -48)" onmousedown="handlePan(0,1)">
                  <use xlink:href="#rim" fill="#404040">
                        <set attributeName="fill" to="#808080" begin="arrowDown.mouseover" end="arrowDown.mouseout"/>
                  </use>
                  <path fill="none" stroke="white" stroke-width="1.5" d="M0,-3.0v7 M-2.5,-0.5L0,-3.0L2.5,-0.5"/>
                </g>
                <g id="arrowLeft" xlink:href="#dirArrow" transform="rotate(270) translate(-36 17)" onmousedown="handlePan(-1,0)">
                  <use xlink:href="#rim" fill="#404040">
                        <set attributeName="fill" to="#808080" begin="arrowLeft.mouseover" end="arrowLeft.mouseout"/>
                  </use>
                  <path fill="none" stroke="white" stroke-width="1.5" d="M0,-3.0v7 M-2.5,-0.5L0,-3.0L2.5,-0.5"/>
                </g>
        </g>
        <svg viewBox="0 0 15 15" width="100%" height="30px" preserveAspectRatio="xMaxYMin meet">
         <g id="arrow_out" transform="scale(0.3 0.3)">
          <a xlink:href="lcm__sum_8cpp_aa8dca7b867074164d5f45b0f3851269d_cgraph_org.svg" target="_base">
           <rect id="button" ry="5" rx="5" y="6" x="6" height="38" width="38"
                fill="#f2f5e9" fill-opacity="0.5" stroke="#606060" stroke-width="1.0"/>
           <path id="arrow"
             d="M 11.500037,31.436501 C 11.940474,20.09759 22.043105,11.32322 32.158766,21.979434 L 37.068811,17.246167 C 37.068811,17.246167 37.088388,32 37.088388,32 L 22.160133,31.978069 C 22.160133,31.978069 26.997745,27.140456 26.997745,27.140456 C 18.528582,18.264221 13.291696,25.230495 11.500037,31.436501 z"
             style="fill:#404040;"/>
          </a>
         </g>
        </svg>
</svg>
