<?xml version="1.0" encoding="UTF-8" standalone="no"?>
<!DOCTYPE svg PUBLIC "-//W3C//DTD SVG 1.1//EN"
 "http://www.w3.org/Graphics/SVG/1.1/DTD/svg11.dtd">
<!-- Generated by graphviz version 8.0.2 (20230410.1723)
 -->
<!-- Title: test Pages: 1 -->
<!--zoomable 708 -->
<svg id="main" version="1.1" xmlns="http://www.w3.org/2000/svg" xmlns:xlink="http://www.w3.org/1999/xlink" xml:space="preserve" onload="init(evt)">
<style type="text/css"><![CDATA[
.edge:hover path { stroke: red; }
.edge:hover polygon { stroke: red; fill: red; }
]]></style>
<script type="text/javascript"><![CDATA[
var edges = document.getElementsByTagName('g');
if (edges && edges.length) {
  for (var i=0;i<edges.length;i++) {
    if (edges[i].id.substr(0,4)=='edge') {
      edges[i].setAttribute('class','edge');
    }
  }
}
]]></script>
        <defs>
                <circle id="rim" cx="0" cy="0" r="7"/>
                <circle id="rim2" cx="0" cy="0" r="3.5"/>
                <g id="zoomPlus">
                        <use xlink:href="#rim" fill="#404040">
                                <set attributeName="fill" to="#808080" begin="zoomplus.mouseover" end="zoomplus.mouseout"/>
                        </use>
                        <path d="M-4,0h8M0,-4v8" fill="none" stroke="white" stroke-width="1.5" pointer-events="none"/>
                </g>
                <g id="zoomMin">
                        <use xlink:href="#rim" fill="#404040">
                                <set attributeName="fill" to="#808080" begin="zoomminus.mouseover" end="zoomminus.mouseout"/>
                        </use>
                        <path d="M-4,0h8" fill="none" stroke="white" stroke-width="1.5" pointer-events="none"/>
                </g>
                <g id="dirArrow">
                        <path fill="none" stroke="white" stroke-width="1.5" d="M0,-3.0v7 M-2.5,-0.5L0,-3.0L2.5,-0.5"/>
                </g>
               <g id="resetDef">
                       <use xlink:href="#rim2" fill="#404040">
                               <set attributeName="fill" to="#808080" begin="reset.mouseover" end="reset.mouseout"/>
                       </use>
               </g>
        </defs>

<script type="text/javascript">
var viewWidth = 601;
var viewHeight = 708;
var sectionId = 'dynsection-2';
</script>
<script xlink:href="../../svgpan.js"/>
<svg id="graph" class="graph">
<g id="viewport">
<title>test</title>
<!-- Node1 -->
<g id="node1" class="node">
<title>Node1</title>
<g id="a_node1"><a xlink:title=" ">
<polygon fill="#999999" stroke="#666666" points="33,-515 0,-515 0,-496 33,-496 33,-515"/>
<text text-anchor="middle" x="16.5" y="-503" font-family="Helvetica,sans-Serif" font-size="10.00">test</text>
</a>
</g>
</g>
<!-- Node2 -->
<g id="node2" class="node">
<title>Node2</title>
<g id="a_node2"><a target="_blank" xlink:href="http://en.cppreference.com/w/cpp/io/manip/endl.html#" xlink:title=" ">
<polygon fill="white" stroke="#666666" points="136,-589 82,-589 82,-570 136,-570 136,-589"/>
<text text-anchor="middle" x="109" y="-577" font-family="Helvetica,sans-Serif" font-size="10.00">std::endl</text>
</a>
</g>
</g>
<!-- Node1&#45;&gt;Node2 -->
<g id="edge1" class="edge">
<title>Node1&#45;&gt;Node2</title>
<path fill="none" stroke="#63b8ff" d="M24.57,-515.31C33.7,-527.44 50.64,-548.12 69,-561.5 70.45,-562.56 71.97,-563.57 73.54,-564.55"/>
<polygon fill="#63b8ff" stroke="#63b8ff" points="71.39,-567.91 81.83,-569.67 74.76,-561.78 71.39,-567.91"/>
</g>
<!-- Node3 -->
<g id="node3" class="node">
<title>Node3</title>
<g id="a_node3"><a xlink:href="../../dd/d47/namespacemath.html#a04065193d190d605e1f0d0d93a87e244" target="_top" xlink:title=" ">
<polygon fill="white" stroke="#666666" points="149,-552 69,-552 69,-533 149,-533 149,-552"/>
<text text-anchor="middle" x="109" y="-540" font-family="Helvetica,sans-Serif" font-size="10.00">math::lcmSum</text>
</a>
</g>
</g>
<!-- Node1&#45;&gt;Node3 -->
<g id="edge2" class="edge">
<title>Node1&#45;&gt;Node3</title>
<path fill="none" stroke="#63b8ff" d="M33.26,-511.94C44.43,-516.51 59.84,-522.81 73.76,-528.5"/>
<polygon fill="#63b8ff" stroke="#63b8ff" points="71.98,-531.96 82.56,-532.51 74.63,-525.48 71.98,-531.96"/>
</g>
<!-- Node4 -->
<g id="node4" class="node">
<title>Node4</title>
<g id="a_node4"><a xlink:href="../../d2/de9/heavy__light__decomposition_8cpp.html#a34b8683a2b429de5cce57e6d733ec817" target="_top" xlink:title=" ">
<polygon fill="white" stroke="#666666" points="131,-405 87,-405 87,-386 131,-386 131,-405"/>
<text text-anchor="middle" x="109" y="-393" font-family="Helvetica,sans-Serif" font-size="10.00">test_1</text>
</a>
</g>
</g>
<!-- Node1&#45;&gt;Node4 -->
<g id="edge3" class="edge">
<title>Node1&#45;&gt;Node4</title>
<path fill="none" stroke="#63b8ff" d="M25.53,-495.74C40.65,-477.36 73.57,-437.34 92.94,-413.81"/>
<polygon fill="#63b8ff" stroke="#63b8ff" points="96.21,-416.34 99.86,-406.4 90.8,-411.9 96.21,-416.34"/>
</g>
<!-- Node24 -->
<g id="node24" class="node">
<title>Node24</title>
<g id="a_node24"><a xlink:href="../../d2/de9/heavy__light__decomposition_8cpp.html#a458410412185a5f09199deaff7157a8d" target="_top" xlink:title=" ">
<polygon fill="white" stroke="#666666" points="131,-515 87,-515 87,-496 131,-496 131,-515"/>
<text text-anchor="middle" x="109" y="-503" font-family="Helvetica,sans-Serif" font-size="10.00">test_2</text>
</a>
</g>
</g>
<!-- Node1&#45;&gt;Node24 -->
<g id="edge31" class="edge">
<title>Node1&#45;&gt;Node24</title>
<path fill="none" stroke="#63b8ff" d="M33.26,-505.5C45.05,-505.5 61.56,-505.5 76.06,-505.5"/>
<polygon fill="#63b8ff" stroke="#63b8ff" points="75.65,-509 85.65,-505.5 75.65,-502 75.65,-509"/>
</g>
<!-- Node25 -->
<g id="node25" class="node">
<title>Node25</title>
<g id="a_node25"><a xlink:href="../../d2/de9/heavy__light__decomposition_8cpp.html#af31ec5409537703d9c8a47350386b32a" target="_top" xlink:title=" ">
<polygon fill="white" stroke="#666666" points="131,-478 87,-478 87,-459 131,-459 131,-478"/>
<text text-anchor="middle" x="109" y="-466" font-family="Helvetica,sans-Serif" font-size="10.00">test_3</text>
</a>
</g>
</g>
<!-- Node1&#45;&gt;Node25 -->
<g id="edge39" class="edge">
<title>Node1&#45;&gt;Node25</title>
<path fill="none" stroke="#63b8ff" d="M33.26,-499.06C45.16,-494.19 61.88,-487.36 76.49,-481.38"/>
<polygon fill="#63b8ff" stroke="#63b8ff" points="77.72,-484.25 85.65,-477.23 75.07,-477.77 77.72,-484.25"/>
</g>
<!-- Node5 -->
<g id="node5" class="node">
<title>Node5</title>
<g id="a_node5"><a xlink:href="../../d1/d51/classrange__queries_1_1heavy__light__decomposition_1_1_tree.html#a79ab4601c4a95c0902ac04e779e5f54d" target="_top" xlink:title="Adds an undirected edge from node u to node v in the tree.">
<polygon fill="white" stroke="#666666" points="295,-440 185,-440 185,-399 295,-399 295,-440"/>
<text text-anchor="start" x="193" y="-428" font-family="Helvetica,sans-Serif" font-size="10.00">range_queries::heavy</text>
<text text-anchor="start" x="193" y="-417" font-family="Helvetica,sans-Serif" font-size="10.00">_light_decomposition</text>
<text text-anchor="middle" x="240" y="-406" font-family="Helvetica,sans-Serif" font-size="10.00">::Tree::add_edge</text>
</a>
</g>
</g>
<!-- Node4&#45;&gt;Node5 -->
<g id="edge4" class="edge">
<title>Node4&#45;&gt;Node5</title>
<path fill="none" stroke="#63b8ff" d="M131.3,-399.46C143.1,-401.66 158.48,-404.52 173.9,-407.39"/>
<polygon fill="#63b8ff" stroke="#63b8ff" points="173.07,-410.98 183.54,-409.37 174.35,-404.1 173.07,-410.98"/>
</g>
<!-- Node6 -->
<g id="node6" class="node">
<title>Node6</title>
<g id="a_node6"><a target="_blank" xlink:href="http://en.cppreference.com/w/cpp/container/vector/push_back.html#" xlink:title=" ">
<polygon fill="white" stroke="#666666" points="447,-472 331,-472 331,-453 447,-453 447,-472"/>
<text text-anchor="middle" x="389" y="-460" font-family="Helvetica,sans-Serif" font-size="10.00">std::vector::push_back</text>
</a>
</g>
</g>
<!-- Node4&#45;&gt;Node6 -->
<g id="edge19" class="edge">
<title>Node4&#45;&gt;Node6</title>
<path fill="none" stroke="#63b8ff" d="M113.54,-385.75C121.97,-364.14 145.57,-312.56 185,-292.5 228.57,-270.33 256.51,-262.35 295,-292.5 347.61,-333.71 287.59,-387.69 331,-438.5 333.82,-441.8 337.18,-444.66 340.82,-447.13"/>
<polygon fill="#63b8ff" stroke="#63b8ff" points="338.93,-450.65 349.36,-452.52 342.37,-444.55 338.93,-450.65"/>
</g>
<!-- Node7 -->
<g id="node7" class="node">
<title>Node7</title>
<g id="a_node7"><a xlink:href="../../d2/d8a/classrange__queries_1_1heavy__light__decomposition_1_1_h_l_d.html#ae9e979edd69678b85665c01e2ee97828" target="_top" xlink:title="This function must be called after the tree adjacency list and node values are populated The function...">
<polygon fill="white" stroke="#666666" points="295,-244 185,-244 185,-203 295,-203 295,-244"/>
<text text-anchor="start" x="193" y="-232" font-family="Helvetica,sans-Serif" font-size="10.00">range_queries::heavy</text>
<text text-anchor="start" x="193" y="-221" font-family="Helvetica,sans-Serif" font-size="10.00">_light_decomposition</text>
<text text-anchor="middle" x="240" y="-210" font-family="Helvetica,sans-Serif" font-size="10.00">::HLD::init</text>
</a>
</g>
</g>
<!-- Node4&#45;&gt;Node7 -->
<g id="edge6" class="edge">
<title>Node4&#45;&gt;Node7</title>
<path fill="none" stroke="#63b8ff" d="M113.5,-385.5C122.33,-361.35 147.55,-298.84 185,-258.5 187.39,-255.92 190.02,-253.45 192.78,-251.09"/>
<polygon fill="#63b8ff" stroke="#63b8ff" points="194.63,-253.3 200.37,-244.39 190.33,-247.78 194.63,-253.3"/>
</g>
<!-- Node15 -->
<g id="node15" class="node">
<title>Node15</title>
<g id="a_node15"><a xlink:href="../../d2/d8a/classrange__queries_1_1heavy__light__decomposition_1_1_h_l_d.html#a4dfbf5d9df825eeb63b294c6849bdcab" target="_top" xlink:title="This function returns the sum of node values in the simple path from from node_1 to node_2.">
<polygon fill="white" stroke="#666666" points="295,-342 185,-342 185,-301 295,-301 295,-342"/>
<text text-anchor="start" x="193" y="-330" font-family="Helvetica,sans-Serif" font-size="10.00">range_queries::heavy</text>
<text text-anchor="start" x="193" y="-319" font-family="Helvetica,sans-Serif" font-size="10.00">_light_decomposition</text>
<text text-anchor="middle" x="240" y="-308" font-family="Helvetica,sans-Serif" font-size="10.00">::HLD::query</text>
</a>
</g>
</g>
<!-- Node4&#45;&gt;Node15 -->
<g id="edge20" class="edge">
<title>Node4&#45;&gt;Node15</title>
<path fill="none" stroke="#63b8ff" d="M127.4,-385.52C144.19,-375.89 170.34,-360.89 193.11,-347.83"/>
<polygon fill="#63b8ff" stroke="#63b8ff" points="194.69,-350.38 201.62,-342.37 191.2,-344.31 194.69,-350.38"/>
</g>
<!-- Node20 -->
<g id="node20" class="node">
<title>Node20</title>
<g id="a_node20"><a xlink:href="../../d1/d51/classrange__queries_1_1heavy__light__decomposition_1_1_tree.html#a04cd96efaba147b19d3afc769b90ff70" target="_top" xlink:title="Set the values for all the nodes.">
<polygon fill="white" stroke="#666666" points="295,-538 185,-538 185,-497 295,-497 295,-538"/>
<text text-anchor="start" x="193" y="-526" font-family="Helvetica,sans-Serif" font-size="10.00">range_queries::heavy</text>
<text text-anchor="start" x="193" y="-515" font-family="Helvetica,sans-Serif" font-size="10.00">_light_decomposition</text>
<text text-anchor="middle" x="240" y="-504" font-family="Helvetica,sans-Serif" font-size="10.00">::Tree::set_node_val</text>
</a>
</g>
</g>
<!-- Node4&#45;&gt;Node20 -->
<g id="edge26" class="edge">
<title>Node4&#45;&gt;Node20</title>
<path fill="none" stroke="#63b8ff" d="M120.56,-405.48C139.81,-423.69 181.25,-462.88 209.63,-489.72"/>
<polygon fill="#63b8ff" stroke="#63b8ff" points="206.59,-491.61 216.26,-495.94 211.4,-486.52 206.59,-491.61"/>
</g>
<!-- Node21 -->
<g id="node21" class="node">
<title>Node21</title>
<g id="a_node21"><a target="_blank" xlink:href="http://en.cppreference.com/w/cpp/container/vector/size.html#" xlink:title=" ">
<polygon fill="white" stroke="#666666" points="432.5,-552 345.5,-552 345.5,-533 432.5,-533 432.5,-552"/>
<text text-anchor="middle" x="389" y="-540" font-family="Helvetica,sans-Serif" font-size="10.00">std::vector::size</text>
</a>
</g>
</g>
<!-- Node4&#45;&gt;Node21 -->
<g id="edge28" class="edge">
<title>Node4&#45;&gt;Node21</title>
<path fill="none" stroke="#63b8ff" d="M131.36,-387.54C168.28,-375.26 244.91,-356.45 295,-390.5 330.97,-414.95 307.75,-444.74 331,-481.5 341.45,-498.02 356.71,-514.07 368.81,-525.55"/>
<polygon fill="#63b8ff" stroke="#63b8ff" points="365.87,-527.51 375.59,-531.72 370.61,-522.37 365.87,-527.51"/>
</g>
<!-- Node22 -->
<g id="node22" class="node">
<title>Node22</title>
<g id="a_node22"><a xlink:href="../../d2/d8a/classrange__queries_1_1heavy__light__decomposition_1_1_h_l_d.html#a9f1cb54ed09fde931bf3220d75ee4c57" target="_top" xlink:title="This function updates the value at node with val.">
<polygon fill="white" stroke="#666666" points="295,-636 185,-636 185,-595 295,-595 295,-636"/>
<text text-anchor="start" x="193" y="-624" font-family="Helvetica,sans-Serif" font-size="10.00">range_queries::heavy</text>
<text text-anchor="start" x="193" y="-613" font-family="Helvetica,sans-Serif" font-size="10.00">_light_decomposition</text>
<text text-anchor="middle" x="240" y="-602" font-family="Helvetica,sans-Serif" font-size="10.00">::HLD::update</text>
</a>
</g>
</g>
<!-- Node4&#45;&gt;Node22 -->
<g id="edge29" class="edge">
<title>Node4&#45;&gt;Node22</title>
<path fill="none" stroke="#63b8ff" d="M118.02,-405.13C126.55,-415.73 140.03,-433.53 149,-450.5 170.48,-491.16 162.42,-507.44 185,-547.5 192.67,-561.1 202.97,-574.83 212.52,-586.36"/>
<polygon fill="#63b8ff" stroke="#63b8ff" points="210.48,-588.36 219.63,-593.7 215.81,-583.82 210.48,-588.36"/>
</g>
<!-- Node5&#45;&gt;Node6 -->
<g id="edge5" class="edge">
<title>Node5&#45;&gt;Node6</title>
<path fill="none" stroke="#63b8ff" d="M295.32,-435.39C311.27,-440.05 328.51,-445.1 343.75,-449.56"/>
<polygon fill="#63b8ff" stroke="#63b8ff" points="342.36,-453.09 352.94,-452.54 344.33,-446.37 342.36,-453.09"/>
</g>
<!-- Node8 -->
<g id="node8" class="node">
<title>Node8</title>
<g id="a_node8"><a xlink:href="../../d9/d35/classrange__queries_1_1heavy__light__decomposition_1_1_s_g.html#a41c733f5f5e262b308f7cb95c88c1e74" target="_top" xlink:title="Function that specifies the type of operation involved when segments are combined.">
<polygon fill="white" stroke="#666666" points="593,-283 483,-283 483,-242 593,-242 593,-283"/>
<text text-anchor="start" x="491" y="-271" font-family="Helvetica,sans-Serif" font-size="10.00">range_queries::heavy</text>
<text text-anchor="start" x="491" y="-260" font-family="Helvetica,sans-Serif" font-size="10.00">_light_decomposition</text>
<text text-anchor="middle" x="538" y="-249" font-family="Helvetica,sans-Serif" font-size="10.00">::SG::combine</text>
</a>
</g>
</g>
<!-- Node7&#45;&gt;Node8 -->
<g id="edge7" class="edge">
<title>Node7&#45;&gt;Node8</title>
<path fill="none" stroke="#63b8ff" d="M295.42,-227.12C337.07,-230.3 395.86,-235.64 447,-243.5 455.21,-244.76 463.8,-246.3 472.28,-247.94"/>
<polygon fill="#63b8ff" stroke="#63b8ff" points="471.43,-251.54 481.92,-250.07 472.8,-244.67 471.43,-251.54"/>
</g>
<!-- Node9 -->
<g id="node9" class="node">
<title>Node9</title>
<g id="a_node9"><a xlink:href="../../d2/d8a/classrange__queries_1_1heavy__light__decomposition_1_1_h_l_d.html#af64848d6630c39d0f09ce2359cc7c4f8" target="_top" xlink:title="Utility function to assign heavy child to each node (&#45;1 for a leaf node)">
<polygon fill="white" stroke="#666666" points="444,-41 334,-41 334,0 444,0 444,-41"/>
<text text-anchor="start" x="342" y="-29" font-family="Helvetica,sans-Serif" font-size="10.00">range_queries::heavy</text>
<text text-anchor="start" x="342" y="-18" font-family="Helvetica,sans-Serif" font-size="10.00">_light_decomposition</text>
<text text-anchor="middle" x="389" y="-7" font-family="Helvetica,sans-Serif" font-size="10.00">::HLD::dfs_hc</text>
</a>
</g>
</g>
<!-- Node7&#45;&gt;Node9 -->
<g id="edge8" class="edge">
<title>Node7&#45;&gt;Node9</title>
<path fill="none" stroke="#63b8ff" d="M250.2,-202.75C264.62,-171.59 294.68,-111.75 331,-68.5 336.92,-61.45 343.95,-54.61 351.02,-48.41"/>
<polygon fill="#63b8ff" stroke="#63b8ff" points="352.89,-50.57 358.27,-41.45 348.37,-45.22 352.89,-50.57"/>
</g>
<!-- Node10 -->
<g id="node10" class="node">
<title>Node10</title>
<g id="a_node10"><a xlink:href="../../d2/d8a/classrange__queries_1_1heavy__light__decomposition_1_1_h_l_d.html#a0579062b384e54b611b80c6337c7f2c8" target="_top" xlink:title="Utility function to lable the nodes so that heavy chains have a contigous lable.">
<polygon fill="white" stroke="#666666" points="444,-293 334,-293 334,-252 444,-252 444,-293"/>
<text text-anchor="start" x="342" y="-281" font-family="Helvetica,sans-Serif" font-size="10.00">range_queries::heavy</text>
<text text-anchor="start" x="342" y="-270" font-family="Helvetica,sans-Serif" font-size="10.00">_light_decomposition</text>
<text text-anchor="middle" x="389" y="-259" font-family="Helvetica,sans-Serif" font-size="10.00">::HLD::dfs_labels</text>
</a>
</g>
</g>
<!-- Node7&#45;&gt;Node10 -->
<g id="edge10" class="edge">
<title>Node7&#45;&gt;Node10</title>
<path fill="none" stroke="#63b8ff" d="M295.32,-241.61C304.57,-244.69 314.25,-247.92 323.73,-251.08"/>
<polygon fill="#63b8ff" stroke="#63b8ff" points="322.31,-254.63 332.9,-254.47 324.52,-247.99 322.31,-254.63"/>
</g>
<!-- Node11 -->
<g id="node11" class="node">
<title>Node11</title>
<g id="a_node11"><a xlink:href="../../d2/d8a/classrange__queries_1_1heavy__light__decomposition_1_1_h_l_d.html#a2dfbda148aad0bfaba2ebfda9ebc915a" target="_top" xlink:title="Utility function to assign highest parent that can be reached though heavy chains.">
<polygon fill="white" stroke="#666666" points="444,-177 334,-177 334,-136 444,-136 444,-177"/>
<text text-anchor="start" x="342" y="-165" font-family="Helvetica,sans-Serif" font-size="10.00">range_queries::heavy</text>
<text text-anchor="start" x="342" y="-154" font-family="Helvetica,sans-Serif" font-size="10.00">_light_decomposition</text>
<text text-anchor="middle" x="389" y="-143" font-family="Helvetica,sans-Serif" font-size="10.00">::HLD::dfs_par</text>
</a>
</g>
</g>
<!-- Node7&#45;&gt;Node11 -->
<g id="edge12" class="edge">
<title>Node7&#45;&gt;Node11</title>
<path fill="none" stroke="#63b8ff" d="M286.71,-202.67C301.16,-196.08 317.29,-188.73 332.35,-181.86"/>
<polygon fill="#63b8ff" stroke="#63b8ff" points="333.42,-184.77 341.07,-177.43 330.52,-178.4 333.42,-184.77"/>
</g>
<!-- Node12 -->
<g id="node12" class="node">
<title>Node12</title>
<g id="a_node12"><a xlink:href="../../d1/d51/classrange__queries_1_1heavy__light__decomposition_1_1_tree.html#ad22d760a5a33545a70e7ea5e1786c8dc" target="_top" xlink:title="This function must be called after the tree adjacency list and node values are populated The function...">
<polygon fill="white" stroke="#666666" points="444,-118 334,-118 334,-77 444,-77 444,-118"/>
<text text-anchor="start" x="342" y="-106" font-family="Helvetica,sans-Serif" font-size="10.00">range_queries::heavy</text>
<text text-anchor="start" x="342" y="-95" font-family="Helvetica,sans-Serif" font-size="10.00">_light_decomposition</text>
<text text-anchor="middle" x="389" y="-84" font-family="Helvetica,sans-Serif" font-size="10.00">::Tree::init</text>
</a>
</g>
</g>
<!-- Node7&#45;&gt;Node12 -->
<g id="edge14" class="edge">
<title>Node7&#45;&gt;Node12</title>
<path fill="none" stroke="#63b8ff" d="M256.9,-202.86C273.69,-182.01 301.74,-149.79 331,-127.5 332.44,-126.41 333.92,-125.33 335.44,-124.27"/>
<polygon fill="#63b8ff" stroke="#63b8ff" points="336.92,-126.84 343.42,-118.47 333.12,-120.96 336.92,-126.84"/>
</g>
<!-- Node9&#45;&gt;Node9 -->
<g id="edge9" class="edge">
<title>Node9&#45;&gt;Node9</title>
<path fill="none" stroke="#63b8ff" d="M361.5,-41.49C358.88,-50.88 368.05,-59 389,-59 401.44,-59 409.73,-56.14 413.86,-51.85"/>
<polygon fill="#63b8ff" stroke="#63b8ff" points="417.42,-53.04 416.5,-42.49 410.64,-51.31 417.42,-53.04"/>
</g>
<!-- Node10&#45;&gt;Node10 -->
<g id="edge11" class="edge">
<title>Node10&#45;&gt;Node10</title>
<path fill="none" stroke="#63b8ff" d="M361.5,-293.49C358.88,-302.88 368.05,-311 389,-311 401.44,-311 409.73,-308.14 413.86,-303.85"/>
<polygon fill="#63b8ff" stroke="#63b8ff" points="417.42,-305.04 416.5,-294.49 410.64,-303.31 417.42,-305.04"/>
</g>
<!-- Node11&#45;&gt;Node11 -->
<g id="edge13" class="edge">
<title>Node11&#45;&gt;Node11</title>
<path fill="none" stroke="#63b8ff" d="M361.5,-177.49C358.88,-186.88 368.05,-195 389,-195 401.44,-195 409.73,-192.14 413.86,-187.85"/>
<polygon fill="#63b8ff" stroke="#63b8ff" points="417.42,-189.04 416.5,-178.49 410.64,-187.31 417.42,-189.04"/>
</g>
<!-- Node13 -->
<g id="node13" class="node">
<title>Node13</title>
<g id="a_node13"><a xlink:href="../../d1/d51/classrange__queries_1_1heavy__light__decomposition_1_1_tree.html#ae8de7aefcb6635d3dacdd174cd4890c4" target="_top" xlink:title="Utility function to populate the t_par vector.">
<polygon fill="white" stroke="#666666" points="593,-79 483,-79 483,-38 593,-38 593,-79"/>
<text text-anchor="start" x="491" y="-67" font-family="Helvetica,sans-Serif" font-size="10.00">range_queries::heavy</text>
<text text-anchor="start" x="491" y="-56" font-family="Helvetica,sans-Serif" font-size="10.00">_light_decomposition</text>
<text text-anchor="middle" x="538" y="-45" font-family="Helvetica,sans-Serif" font-size="10.00">::Tree::dfs_lca</text>
</a>
</g>
</g>
<!-- Node12&#45;&gt;Node13 -->
<g id="edge15" class="edge">
<title>Node12&#45;&gt;Node13</title>
<path fill="none" stroke="#63b8ff" d="M444.32,-83.09C453.47,-80.66 463.05,-78.12 472.43,-75.63"/>
<polygon fill="#63b8ff" stroke="#63b8ff" points="473.14,-78.8 481.9,-72.85 471.34,-72.03 473.14,-78.8"/>
</g>
<!-- Node14 -->
<g id="node14" class="node">
<title>Node14</title>
<g id="a_node14"><a xlink:href="../../d1/d51/classrange__queries_1_1heavy__light__decomposition_1_1_tree.html#aa339c31ec74cd86a4842a8b09653d460" target="_top" xlink:title="Utility function to compute sub&#45;tree sizes.">
<polygon fill="white" stroke="#666666" points="593,-156 483,-156 483,-115 593,-115 593,-156"/>
<text text-anchor="start" x="491" y="-144" font-family="Helvetica,sans-Serif" font-size="10.00">range_queries::heavy</text>
<text text-anchor="start" x="491" y="-133" font-family="Helvetica,sans-Serif" font-size="10.00">_light_decomposition</text>
<text text-anchor="middle" x="538" y="-122" font-family="Helvetica,sans-Serif" font-size="10.00">::Tree::dfs_size</text>
</a>
</g>
</g>
<!-- Node12&#45;&gt;Node14 -->
<g id="edge17" class="edge">
<title>Node12&#45;&gt;Node14</title>
<path fill="none" stroke="#63b8ff" d="M444.32,-111.54C453.47,-113.91 463.05,-116.38 472.43,-118.81"/>
<polygon fill="#63b8ff" stroke="#63b8ff" points="471.35,-122.4 481.9,-121.52 473.1,-115.62 471.35,-122.4"/>
</g>
<!-- Node13&#45;&gt;Node13 -->
<g id="edge16" class="edge">
<title>Node13&#45;&gt;Node13</title>
<path fill="none" stroke="#63b8ff" d="M510.5,-79.49C507.88,-88.88 517.05,-97 538,-97 550.44,-97 558.73,-94.14 562.86,-89.85"/>
<polygon fill="#63b8ff" stroke="#63b8ff" points="566.42,-91.04 565.5,-80.49 559.64,-89.31 566.42,-91.04"/>
</g>
<!-- Node14&#45;&gt;Node14 -->
<g id="edge18" class="edge">
<title>Node14&#45;&gt;Node14</title>
<path fill="none" stroke="#63b8ff" d="M510.5,-156.49C507.88,-165.88 517.05,-174 538,-174 550.44,-174 558.73,-171.14 562.86,-166.85"/>
<polygon fill="#63b8ff" stroke="#63b8ff" points="566.42,-168.04 565.5,-157.49 559.64,-166.31 566.42,-168.04"/>
</g>
<!-- Node16 -->
<g id="node16" class="node">
<title>Node16</title>
<g id="a_node16"><a xlink:href="../../d2/d8a/classrange__queries_1_1heavy__light__decomposition_1_1_h_l_d.html#a7d5b40c076347a6aabfb37a0590f2f24" target="_top" xlink:title="Utility function to break down a path query into two chain queries.">
<polygon fill="white" stroke="#666666" points="444,-370 334,-370 334,-329 444,-329 444,-370"/>
<text text-anchor="start" x="342" y="-358" font-family="Helvetica,sans-Serif" font-size="10.00">range_queries::heavy</text>
<text text-anchor="start" x="342" y="-347" font-family="Helvetica,sans-Serif" font-size="10.00">_light_decomposition</text>
<text text-anchor="middle" x="389" y="-336" font-family="Helvetica,sans-Serif" font-size="10.00">::HLD::chain_query</text>
</a>
</g>
</g>
<!-- Node15&#45;&gt;Node16 -->
<g id="edge21" class="edge">
<title>Node15&#45;&gt;Node16</title>
<path fill="none" stroke="#63b8ff" d="M295.32,-331.85C304.37,-333.57 313.84,-335.37 323.13,-337.14"/>
<polygon fill="#63b8ff" stroke="#63b8ff" points="322.43,-340.76 332.9,-339.2 323.74,-333.89 322.43,-340.76"/>
</g>
<!-- Node18 -->
<g id="node18" class="node">
<title>Node18</title>
<g id="a_node18"><a xlink:href="../../d1/d51/classrange__queries_1_1heavy__light__decomposition_1_1_tree.html#ae2b407e64aaf9878fbee7ee6efe9c7d4" target="_top" xlink:title="The function returns the least common ancestor of two nodes.">
<polygon fill="white" stroke="#666666" points="444,-429 334,-429 334,-388 444,-388 444,-429"/>
<text text-anchor="start" x="342" y="-417" font-family="Helvetica,sans-Serif" font-size="10.00">range_queries::heavy</text>
<text text-anchor="start" x="342" y="-406" font-family="Helvetica,sans-Serif" font-size="10.00">_light_decomposition</text>
<text text-anchor="middle" x="389" y="-395" font-family="Helvetica,sans-Serif" font-size="10.00">::Tree::lca</text>
</a>
</g>
</g>
<!-- Node15&#45;&gt;Node18 -->
<g id="edge24" class="edge">
<title>Node15&#45;&gt;Node18</title>
<path fill="none" stroke="#63b8ff" d="M272.96,-342.2C297.6,-358.15 327.98,-377.76 331,-379.5 332.77,-380.52 334.58,-381.54 336.41,-382.55"/>
<polygon fill="#63b8ff" stroke="#63b8ff" points="334.26,-385.91 344.72,-387.6 337.59,-379.76 334.26,-385.91"/>
</g>
<!-- Node16&#45;&gt;Node8 -->
<g id="edge22" class="edge">
<title>Node16&#45;&gt;Node8</title>
<path fill="none" stroke="#63b8ff" d="M432.28,-328.6C437.28,-325.95 442.28,-323.21 447,-320.5 463.84,-310.82 481.93,-299.38 497.44,-289.23"/>
<polygon fill="#63b8ff" stroke="#63b8ff" points="498.82,-291.85 505.24,-283.43 494.97,-286.01 498.82,-291.85"/>
</g>
<!-- Node17 -->
<g id="node17" class="node">
<title>Node17</title>
<g id="a_node17"><a target="_blank" xlink:href="http://en.cppreference.com/w/cpp/algorithm/swap.html#" xlink:title=" ">
<polygon fill="white" stroke="#666666" points="567.5,-359 508.5,-359 508.5,-340 567.5,-340 567.5,-359"/>
<text text-anchor="middle" x="538" y="-347" font-family="Helvetica,sans-Serif" font-size="10.00">std::swap</text>
</a>
</g>
</g>
<!-- Node16&#45;&gt;Node17 -->
<g id="edge23" class="edge">
<title>Node16&#45;&gt;Node17</title>
<path fill="none" stroke="#63b8ff" d="M444.32,-349.5C461.86,-349.5 480.97,-349.5 497.26,-349.5"/>
<polygon fill="#63b8ff" stroke="#63b8ff" points="497.03,-353 507.03,-349.5 497.03,-346 497.03,-353"/>
</g>
<!-- Node19 -->
<g id="node19" class="node">
<title>Node19</title>
<g id="a_node19"><a xlink:href="../../d1/d51/classrange__queries_1_1heavy__light__decomposition_1_1_tree.html#ac7761255f2ba06b398b9aae5e4dce5f3" target="_top" xlink:title="The function lifts a node, k units up the tree. The lifting is done in place, and the result is store...">
<polygon fill="white" stroke="#666666" points="593,-429 483,-429 483,-388 593,-388 593,-429"/>
<text text-anchor="start" x="491" y="-417" font-family="Helvetica,sans-Serif" font-size="10.00">range_queries::heavy</text>
<text text-anchor="start" x="491" y="-406" font-family="Helvetica,sans-Serif" font-size="10.00">_light_decomposition</text>
<text text-anchor="middle" x="538" y="-395" font-family="Helvetica,sans-Serif" font-size="10.00">::Tree::lift</text>
</a>
</g>
</g>
<!-- Node18&#45;&gt;Node19 -->
<g id="edge25" class="edge">
<title>Node18&#45;&gt;Node19</title>
<path fill="none" stroke="#63b8ff" d="M444.32,-408.5C453.37,-408.5 462.84,-408.5 472.13,-408.5"/>
<polygon fill="#63b8ff" stroke="#63b8ff" points="471.9,-412 481.9,-408.5 471.9,-405 471.9,-412"/>
</g>
<!-- Node20&#45;&gt;Node21 -->
<g id="edge27" class="edge">
<title>Node20&#45;&gt;Node21</title>
<path fill="none" stroke="#63b8ff" d="M295.32,-526.74C308.23,-528.93 321.98,-531.27 334.84,-533.46"/>
<polygon fill="#63b8ff" stroke="#63b8ff" points="333.94,-537.03 344.38,-535.25 335.11,-530.13 333.94,-537.03"/>
</g>
<!-- Node23 -->
<g id="node23" class="node">
<title>Node23</title>
<g id="a_node23"><a xlink:href="../../d9/d35/classrange__queries_1_1heavy__light__decomposition_1_1_s_g.html#a3c75bf5770790f8eba8cc92227b5400c" target="_top" xlink:title="Update the value at a node.">
<polygon fill="white" stroke="#666666" points="444,-636 334,-636 334,-595 444,-595 444,-636"/>
<text text-anchor="start" x="342" y="-624" font-family="Helvetica,sans-Serif" font-size="10.00">range_queries::heavy</text>
<text text-anchor="start" x="342" y="-613" font-family="Helvetica,sans-Serif" font-size="10.00">_light_decomposition</text>
<text text-anchor="middle" x="389" y="-602" font-family="Helvetica,sans-Serif" font-size="10.00">::SG::update</text>
</a>
</g>
</g>
<!-- Node22&#45;&gt;Node23 -->
<g id="edge30" class="edge">
<title>Node22&#45;&gt;Node23</title>
<path fill="none" stroke="#63b8ff" d="M295.32,-615.5C304.37,-615.5 313.84,-615.5 323.13,-615.5"/>
<polygon fill="#63b8ff" stroke="#63b8ff" points="322.9,-619 332.9,-615.5 322.9,-612 322.9,-619"/>
</g>
<!-- Node24&#45;&gt;Node5 -->
<g id="edge32" class="edge">
<title>Node24&#45;&gt;Node5</title>
<path fill="none" stroke="#63b8ff" d="M131.48,-496.59C137.29,-493.91 143.5,-490.8 149,-487.5 168.89,-475.59 189.62,-460.15 206.17,-447"/>
<polygon fill="#63b8ff" stroke="#63b8ff" points="207.82,-449.36 213.42,-440.36 203.44,-443.91 207.82,-449.36"/>
</g>
<!-- Node24&#45;&gt;Node6 -->
<g id="edge34" class="edge">
<title>Node24&#45;&gt;Node6</title>
<path fill="none" stroke="#63b8ff" d="M131.18,-512.03C137.67,-514.93 144.32,-518.99 149,-524.5 185.29,-567.29 140.02,-611.96 185,-645.5 224.19,-674.73 255.81,-674.73 295,-645.5 339.98,-611.96 303.3,-573.29 331,-524.5 340.74,-507.35 356.03,-491.06 368.33,-479.49"/>
<polygon fill="#63b8ff" stroke="#63b8ff" points="370.22,-482.59 375.26,-473.27 365.51,-477.41 370.22,-482.59"/>
</g>
<!-- Node24&#45;&gt;Node7 -->
<g id="edge33" class="edge">
<title>Node24&#45;&gt;Node7</title>
<path fill="none" stroke="#63b8ff" d="M131.11,-499.99C137.75,-497.26 144.52,-493.27 149,-487.5 203.07,-417.9 148.8,-372.85 185,-292.5 191.49,-278.1 201.59,-264.04 211.31,-252.4"/>
<polygon fill="#63b8ff" stroke="#63b8ff" points="214.36,-255.23 218.27,-245.39 209.07,-250.65 214.36,-255.23"/>
</g>
<!-- Node24&#45;&gt;Node15 -->
<g id="edge35" class="edge">
<title>Node24&#45;&gt;Node15</title>
<path fill="none" stroke="#63b8ff" d="M131.37,-499.18C137.71,-496.44 144.24,-492.64 149,-487.5 180.24,-453.76 162.56,-430.64 185,-390.5 192.82,-376.5 203.36,-362.33 213.05,-350.51"/>
<polygon fill="#63b8ff" stroke="#63b8ff" points="216.15,-353.25 219.9,-343.35 210.79,-348.75 216.15,-353.25"/>
</g>
<!-- Node24&#45;&gt;Node20 -->
<g id="edge36" class="edge">
<title>Node24&#45;&gt;Node20</title>
<path fill="none" stroke="#63b8ff" d="M131.3,-507.48C143.1,-508.58 158.48,-510.01 173.9,-511.44"/>
<polygon fill="#63b8ff" stroke="#63b8ff" points="173.26,-514.99 183.54,-512.43 173.91,-508.02 173.26,-514.99"/>
</g>
<!-- Node24&#45;&gt;Node21 -->
<g id="edge37" class="edge">
<title>Node24&#45;&gt;Node21</title>
<path fill="none" stroke="#63b8ff" d="M131.37,-511.87C137.88,-514.76 144.49,-518.85 149,-524.5 192.84,-579.44 129.93,-634.82 185,-678.5 223.3,-708.88 254.62,-706.06 295,-678.5 331.27,-653.75 304.67,-621.63 331,-586.5 339.23,-575.51 350.89,-565.86 361.53,-558.41"/>
<polygon fill="#63b8ff" stroke="#63b8ff" points="363.1,-560.9 369.49,-552.45 359.22,-555.07 363.1,-560.9"/>
</g>
<!-- Node24&#45;&gt;Node22 -->
<g id="edge38" class="edge">
<title>Node24&#45;&gt;Node22</title>
<path fill="none" stroke="#63b8ff" d="M131.13,-513.24C137.33,-516.15 143.82,-519.9 149,-524.5 171.12,-544.15 164.12,-559.54 185,-580.5 187.6,-583.11 190.43,-585.63 193.38,-588.04"/>
<polygon fill="#63b8ff" stroke="#63b8ff" points="190.87,-591.28 200.95,-594.52 195.09,-585.69 190.87,-591.28"/>
</g>
<!-- Node25&#45;&gt;Node5 -->
<g id="edge40" class="edge">
<title>Node25&#45;&gt;Node5</title>
<path fill="none" stroke="#63b8ff" d="M131.3,-460.41C143.22,-455.88 158.78,-449.97 174.35,-444.06"/>
<polygon fill="#63b8ff" stroke="#63b8ff" points="175.44,-447.01 183.54,-440.19 172.95,-440.47 175.44,-447.01"/>
</g>
<!-- Node25&#45;&gt;Node6 -->
<g id="edge42" class="edge">
<title>Node25&#45;&gt;Node6</title>
<path fill="none" stroke="#63b8ff" d="M131.35,-468.04C171.11,-467.18 258.05,-465.3 319.7,-463.97"/>
<polygon fill="#63b8ff" stroke="#63b8ff" points="319.59,-467.46 329.51,-463.74 319.44,-460.46 319.59,-467.46"/>
</g>
<!-- Node25&#45;&gt;Node7 -->
<g id="edge41" class="edge">
<title>Node25&#45;&gt;Node7</title>
<path fill="none" stroke="#63b8ff" d="M118.57,-458.81C127.32,-448.48 140.75,-431.32 149,-414.5 173.91,-363.75 159.12,-342.76 185,-292.5 192.28,-278.35 202.63,-264.25 212.32,-252.51"/>
<polygon fill="#63b8ff" stroke="#63b8ff" points="215.4,-255.3 219.21,-245.41 210.07,-250.76 215.4,-255.3"/>
</g>
<!-- Node25&#45;&gt;Node15 -->
<g id="edge43" class="edge">
<title>Node25&#45;&gt;Node15</title>
<path fill="none" stroke="#63b8ff" d="M118.46,-458.85C137.48,-437.19 184.22,-383.93 213.59,-350.46"/>
<polygon fill="#63b8ff" stroke="#63b8ff" points="216.69,-353.23 220.65,-343.41 211.43,-348.61 216.69,-353.23"/>
</g>
<!-- Node25&#45;&gt;Node20 -->
<g id="edge44" class="edge">
<title>Node25&#45;&gt;Node20</title>
<path fill="none" stroke="#63b8ff" d="M131.3,-476.59C143.22,-481.12 158.78,-487.03 174.35,-492.94"/>
<polygon fill="#63b8ff" stroke="#63b8ff" points="172.95,-496.53 183.54,-496.81 175.44,-489.99 172.95,-496.53"/>
</g>
<!-- Node25&#45;&gt;Node21 -->
<g id="edge45" class="edge">
<title>Node25&#45;&gt;Node21</title>
<path fill="none" stroke="#63b8ff" d="M131.22,-476.14C137.42,-479.05 143.89,-482.82 149,-487.5 171.93,-508.51 157.94,-532.18 185,-547.5 235.06,-575.84 303.77,-566.02 347.03,-555.18"/>
<polygon fill="#63b8ff" stroke="#63b8ff" points="347.68,-558.36 356.45,-552.42 345.89,-551.59 347.68,-558.36"/>
</g>
<!-- Node25&#45;&gt;Node22 -->
<g id="edge46" class="edge">
<title>Node25&#45;&gt;Node22</title>
<path fill="none" stroke="#63b8ff" d="M131.33,-475.43C137.68,-478.34 144.21,-482.29 149,-487.5 179,-520.13 157.04,-546.11 185,-580.5 186.98,-582.94 189.18,-585.26 191.52,-587.47"/>
<polygon fill="#63b8ff" stroke="#63b8ff" points="189.03,-590.78 198.94,-594.51 193.52,-585.41 189.03,-590.78"/>
</g>
</g>
</svg>
        <g id="navigator" transform="translate(0 0)" fill="#404254">
                <rect fill="#f2f5e9" fill-opacity="0.5" stroke="#606060" stroke-width=".5" x="0" y="0" width="60" height="60"/>
                <use id="zoomplus" xlink:href="#zoomPlus" x="17" y="9" onmousedown="handleZoom(evt,'in')"/>
                <use id="zoomminus" xlink:href="#zoomMin" x="42" y="9" onmousedown="handleZoom(evt,'out')"/>
                <use id="reset" xlink:href="#resetDef" x="30" y="36" onmousedown="handleReset()"/>
                <g id="arrowUp" xlink:href="#dirArrow" transform="translate(30 24)" onmousedown="handlePan(0,-1)">
                  <use xlink:href="#rim" fill="#404040">
                        <set attributeName="fill" to="#808080" begin="arrowUp.mouseover" end="arrowUp.mouseout"/>
                  </use>
                  <path fill="none" stroke="white" stroke-width="1.5" d="M0,-3.0v7 M-2.5,-0.5L0,-3.0L2.5,-0.5"/>
                </g>
                <g id="arrowRight" xlink:href="#dirArrow" transform="rotate(90) translate(36 -43)" onmousedown="handlePan(1,0)">
                  <use xlink:href="#rim" fill="#404040">
                        <set attributeName="fill" to="#808080" begin="arrowRight.mouseover" end="arrowRight.mouseout"/>
                  </use>
                  <path fill="none" stroke="white" stroke-width="1.5" d="M0,-3.0v7 M-2.5,-0.5L0,-3.0L2.5,-0.5"/>
                </g>
                <g id="arrowDown" xlink:href="#dirArrow" transform="rotate(180) translate(-30 -48)" onmousedown="handlePan(0,1)">
                  <use xlink:href="#rim" fill="#404040">
                        <set attributeName="fill" to="#808080" begin="arrowDown.mouseover" end="arrowDown.mouseout"/>
                  </use>
                  <path fill="none" stroke="white" stroke-width="1.5" d="M0,-3.0v7 M-2.5,-0.5L0,-3.0L2.5,-0.5"/>
                </g>
                <g id="arrowLeft" xlink:href="#dirArrow" transform="rotate(270) translate(-36 17)" onmousedown="handlePan(-1,0)">
                  <use xlink:href="#rim" fill="#404040">
                        <set attributeName="fill" to="#808080" begin="arrowLeft.mouseover" end="arrowLeft.mouseout"/>
                  </use>
                  <path fill="none" stroke="white" stroke-width="1.5" d="M0,-3.0v7 M-2.5,-0.5L0,-3.0L2.5,-0.5"/>
                </g>
        </g>
        <svg viewBox="0 0 15 15" width="100%" height="30px" preserveAspectRatio="xMaxYMin meet">
         <g id="arrow_out" transform="scale(0.3 0.3)">
          <a xlink:href="lcm__sum_8cpp_aa8dca7b867074164d5f45b0f3851269d_cgraph_org.svg" target="_base">
           <rect id="button" ry="5" rx="5" y="6" x="6" height="38" width="38"
                fill="#f2f5e9" fill-opacity="0.5" stroke="#606060" stroke-width="1.0"/>
           <path id="arrow"
             d="M 11.500037,31.436501 C 11.940474,20.09759 22.043105,11.32322 32.158766,21.979434 L 37.068811,17.246167 C 37.068811,17.246167 37.088388,32 37.088388,32 L 22.160133,31.978069 C 22.160133,31.978069 26.997745,27.140456 26.997745,27.140456 C 18.528582,18.264221 13.291696,25.230495 11.500037,31.436501 z"
             style="fill:#404040;"/>
          </a>
         </g>
        </svg>
</svg>
