<?xml version="1.0" encoding="UTF-8" standalone="no"?>
<!DOCTYPE svg PUBLIC "-//W3C//DTD SVG 1.1//EN"
 "http://www.w3.org/Graphics/SVG/1.1/DTD/svg11.dtd">
<!-- Generated by graphviz version 6.0.1 (20220911.1526)
 -->
<!-- Title: math/perimeter.cpp Pages: 1 -->
<svg width="256pt" height="82pt"
 viewBox="0.00 0.00 255.50 82.00" xmlns="http://www.w3.org/2000/svg" xmlns:xlink="http://www.w3.org/1999/xlink">
<g id="graph0" class="graph" transform="scale(1 1) rotate(0) translate(4 78)">
<title>math/perimeter.cpp</title>
<!-- Node1 -->
<g id="node1" class="node">
<title>Node1</title>
<g id="a_node1"><a xlink:title="Implementations for the perimeter of various shapes.">
<polygon fill="#999999" stroke="#666666" points="170.5,-74 70.5,-74 70.5,-55 170.5,-55 170.5,-74"/>
<text text-anchor="middle" x="120.5" y="-62" font-family="Helvetica,sans-Serif" font-size="10.00">math/perimeter.cpp</text>
</a>
</g>
</g>
<!-- Node2 -->
<g id="node2" class="node">
<title>Node2</title>
<g id="a_node2"><a xlink:title=" ">
<polygon fill="#e0e0e0" stroke="#999999" points="49,-19 0,-19 0,0 49,0 49,-19"/>
<text text-anchor="middle" x="24.5" y="-7" font-family="Helvetica,sans-Serif" font-size="10.00">cassert</text>
</a>
</g>
</g>
<!-- Node1&#45;&gt;Node2 -->
<g id="edge1" class="edge">
<title>Node1&#45;&gt;Node2</title>
<path fill="none" stroke="#63b8ff" d="M105.08,-54.98C90.05,-46.69 66.96,-33.94 49.34,-24.22"/>
<polygon fill="#63b8ff" stroke="#63b8ff" points="50.65,-20.94 40.2,-19.17 47.27,-27.07 50.65,-20.94"/>
</g>
<!-- Node3 -->
<g id="node3" class="node">
<title>Node3</title>
<g id="a_node3"><a xlink:title=" ">
<polygon fill="#e0e0e0" stroke="#999999" points="111.5,-19 67.5,-19 67.5,0 111.5,0 111.5,-19"/>
<text text-anchor="middle" x="89.5" y="-7" font-family="Helvetica,sans-Serif" font-size="10.00">cmath</text>
</a>
</g>
</g>
<!-- Node1&#45;&gt;Node3 -->
<g id="edge2" class="edge">
<title>Node1&#45;&gt;Node3</title>
<path fill="none" stroke="#63b8ff" d="M115.38,-54.75C111.14,-47.49 104.97,-36.95 99.72,-27.98"/>
<polygon fill="#63b8ff" stroke="#63b8ff" points="102.59,-25.95 94.52,-19.09 96.55,-29.49 102.59,-25.95"/>
</g>
<!-- Node4 -->
<g id="node4" class="node">
<title>Node4</title>
<g id="a_node4"><a xlink:title=" ">
<polygon fill="#e0e0e0" stroke="#999999" points="175.5,-19 129.5,-19 129.5,0 175.5,0 175.5,-19"/>
<text text-anchor="middle" x="152.5" y="-7" font-family="Helvetica,sans-Serif" font-size="10.00">cstdint</text>
</a>
</g>
</g>
<!-- Node1&#45;&gt;Node4 -->
<g id="edge3" class="edge">
<title>Node1&#45;&gt;Node4</title>
<path fill="none" stroke="#63b8ff" d="M125.78,-54.75C130.21,-47.42 136.66,-36.73 142.12,-27.7"/>
<polygon fill="#63b8ff" stroke="#63b8ff" points="145.14,-29.46 147.31,-19.09 139.15,-25.84 145.14,-29.46"/>
</g>
<!-- Node5 -->
<g id="node5" class="node">
<title>Node5</title>
<g id="a_node5"><a xlink:title=" ">
<polygon fill="#e0e0e0" stroke="#999999" points="247.5,-19 193.5,-19 193.5,0 247.5,0 247.5,-19"/>
<text text-anchor="middle" x="220.5" y="-7" font-family="Helvetica,sans-Serif" font-size="10.00">iostream</text>
</a>
</g>
</g>
<!-- Node1&#45;&gt;Node5 -->
<g id="edge4" class="edge">
<title>Node1&#45;&gt;Node5</title>
<path fill="none" stroke="#63b8ff" d="M136.57,-54.98C152.36,-46.61 176.72,-33.7 195.13,-23.95"/>
<polygon fill="#63b8ff" stroke="#63b8ff" points="196.94,-26.95 204.14,-19.17 193.67,-20.76 196.94,-26.95"/>
</g>
</g>
</svg>
