<?xml version="1.0" encoding="UTF-8" standalone="no"?>
<!DOCTYPE svg PUBLIC "-//W3C//DTD SVG 1.1//EN"
 "http://www.w3.org/Graphics/SVG/1.1/DTD/svg11.dtd">
<!-- Generated by graphviz version 8.0.5 (20230430.1635)
 -->
<!-- Title: bit_manipulation/count_of_set_bits.cpp Pages: 1 -->
<svg width="128pt" height="94pt"
 viewBox="0.00 0.00 127.88 93.75" xmlns="http://www.w3.org/2000/svg" xmlns:xlink="http://www.w3.org/1999/xlink">
<g id="graph0" class="graph" transform="scale(1 1) rotate(0) translate(4 89.75)">
<title>bit_manipulation/count_of_set_bits.cpp</title>
<!-- Node1 -->
<g id="node1" class="node">
<title>Node1</title>
<g id="a_node1"><a xlink:title="Implementation to [count number of set bits of a number] (https://www.geeksforgeeks....">
<polygon fill="#999999" stroke="#666666" points="114.88,-85.75 1.38,-85.75 1.38,-55.25 114.88,-55.25 114.88,-85.75"/>
<text text-anchor="start" x="9.38" y="-72.25" font-family="Helvetica,sans-Serif" font-size="10.00">bit_manipulation/count</text>
<text text-anchor="middle" x="58.12" y="-61" font-family="Helvetica,sans-Serif" font-size="10.00">_of_set_bits.cpp</text>
</a>
</g>
</g>
<!-- Node2 -->
<g id="node2" class="node">
<title>Node2</title>
<g id="a_node2"><a xlink:title=" ">
<polygon fill="#e0e0e0" stroke="#999999" points="48.25,-19.25 0,-19.25 0,0 48.25,0 48.25,-19.25"/>
<text text-anchor="middle" x="24.12" y="-5.75" font-family="Helvetica,sans-Serif" font-size="10.00">cassert</text>
</a>
</g>
</g>
<!-- Node1&#45;&gt;Node2 -->
<g id="edge1" class="edge">
<title>Node1&#45;&gt;Node2</title>
<path fill="none" stroke="#63b8ff" d="M49.72,-54.95C45.19,-47.1 39.56,-37.35 34.73,-28.99"/>
<polygon fill="#63b8ff" stroke="#63b8ff" points="37.4,-27.61 29.37,-20.7 31.34,-31.11 37.4,-27.61"/>
</g>
<!-- Node3 -->
<g id="node3" class="node">
<title>Node3</title>
<g id="a_node3"><a xlink:title=" ">
<polygon fill="#e0e0e0" stroke="#999999" points="119.88,-19.25 66.38,-19.25 66.38,0 119.88,0 119.88,-19.25"/>
<text text-anchor="middle" x="93.12" y="-5.75" font-family="Helvetica,sans-Serif" font-size="10.00">iostream</text>
</a>
</g>
</g>
<!-- Node1&#45;&gt;Node3 -->
<g id="edge2" class="edge">
<title>Node1&#45;&gt;Node3</title>
<path fill="none" stroke="#63b8ff" d="M66.78,-54.95C71.44,-47.1 77.24,-37.35 82.21,-28.99"/>
<polygon fill="#63b8ff" stroke="#63b8ff" points="85.63,-31.09 87.73,-20.7 79.61,-27.51 85.63,-31.09"/>
</g>
</g>
</svg>
