<?xml version="1.0" encoding="UTF-8" standalone="no"?>
<!DOCTYPE svg PUBLIC "-//W3C//DTD SVG 1.1//EN"
 "http://www.w3.org/Graphics/SVG/1.1/DTD/svg11.dtd">
<!-- Generated by graphviz version 2.49.3 (20211023.0002)
 -->
<!-- Title: machine_learning::neural_network::layers::DenseLayer::DenseLayer Pages: 1 -->
<svg width="466pt" height="165pt"
 viewBox="0.00 0.00 466.00 164.50" xmlns="http://www.w3.org/2000/svg" xmlns:xlink="http://www.w3.org/1999/xlink">
<g id="graph0" class="graph" transform="scale(1 1) rotate(0) translate(4 160.5)">
<title>machine_learning::neural_network::layers::DenseLayer::DenseLayer</title>
<polygon fill="white" stroke="transparent" points="-4,4 -4,-160.5 462,-160.5 462,4 -4,4"/>
<!-- Node1 -->
<g id="node1" class="node">
<title>Node1</title>
<g id="a_node1"><a xlink:title=" ">
<polygon fill="#bfbfbf" stroke="black" points="0,-66 0,-107 149,-107 149,-66 0,-66"/>
<text text-anchor="start" x="8" y="-95" font-family="Helvetica,sans-Serif" font-size="10.00">machine_learning::neural</text>
<text text-anchor="start" x="8" y="-84" font-family="Helvetica,sans-Serif" font-size="10.00">_network::layers::DenseLayer</text>
<text text-anchor="middle" x="74.5" y="-73" font-family="Helvetica,sans-Serif" font-size="10.00">::DenseLayer</text>
</a>
</g>
</g>
<!-- Node2 -->
<g id="node2" class="node">
<title>Node2</title>
<g id="a_node2"><a target="_blank" xlink:href="http://en.cppreference.com/w/cpp/io/manip/endl.html#" xlink:title=" ">
<polygon fill="white" stroke="black" points="225,-137 225,-156 279,-156 279,-137 225,-137"/>
<text text-anchor="middle" x="252" y="-144" font-family="Helvetica,sans-Serif" font-size="10.00">std::endl</text>
</a>
</g>
</g>
<!-- Node1&#45;&gt;Node2 -->
<g id="edge1" class="edge">
<title>Node1&#45;&gt;Node2</title>
<path fill="none" stroke="midnightblue" d="M127.84,-107.04C145.85,-113.86 166.21,-121.29 185,-127.5 194.66,-130.69 205.22,-133.87 215,-136.69"/>
<polygon fill="midnightblue" stroke="midnightblue" points="214.26,-140.12 224.84,-139.47 216.17,-133.38 214.26,-140.12"/>
</g>
<!-- Node3 -->
<g id="node3" class="node">
<title>Node3</title>
<g id="a_node3"><a target="_blank" xlink:href="http://en.cppreference.com/w/cpp/utility/program/exit.html#" xlink:title=" ">
<polygon fill="white" stroke="black" points="226.5,-99 226.5,-118 277.5,-118 277.5,-99 226.5,-99"/>
<text text-anchor="middle" x="252" y="-106" font-family="Helvetica,sans-Serif" font-size="10.00">std::exit</text>
</a>
</g>
</g>
<!-- Node1&#45;&gt;Node3 -->
<g id="edge2" class="edge">
<title>Node1&#45;&gt;Node3</title>
<path fill="none" stroke="midnightblue" d="M149.16,-95.73C172.43,-98.65 197.06,-101.74 216.27,-104.15"/>
<polygon fill="midnightblue" stroke="midnightblue" points="215.98,-107.64 226.34,-105.41 216.85,-100.69 215.98,-107.64"/>
</g>
<!-- Node4 -->
<g id="node4" class="node">
<title>Node4</title>
<g id="a_node4"><a xlink:href="../../d8/d77/namespacemachine__learning.html#abee7b35403af3612222d3b7a53074905" target="_top" xlink:title=" ">
<polygon fill="white" stroke="black" points="185,-49.5 185,-79.5 319,-79.5 319,-49.5 185,-49.5"/>
<text text-anchor="start" x="193" y="-67.5" font-family="Helvetica,sans-Serif" font-size="10.00">machine_learning::uniform</text>
<text text-anchor="middle" x="252" y="-56.5" font-family="Helvetica,sans-Serif" font-size="10.00">_random_initialization</text>
</a>
</g>
</g>
<!-- Node1&#45;&gt;Node4 -->
<g id="edge3" class="edge">
<title>Node1&#45;&gt;Node4</title>
<path fill="none" stroke="midnightblue" d="M149.16,-77.27C157.57,-76.21 166.15,-75.14 174.58,-74.08"/>
<polygon fill="midnightblue" stroke="midnightblue" points="175.3,-77.52 184.78,-72.8 174.43,-70.57 175.3,-77.52"/>
</g>
<!-- Node6 -->
<g id="node6" class="node">
<title>Node6</title>
<g id="a_node6"><a xlink:href="../../d8/d77/namespacemachine__learning.html#a8dd3f1ffbc2f26a3c88da1b1f8b7e9c4" target="_top" xlink:title=" ">
<polygon fill="white" stroke="black" points="193.5,-0.5 193.5,-30.5 310.5,-30.5 310.5,-0.5 193.5,-0.5"/>
<text text-anchor="start" x="201.5" y="-18.5" font-family="Helvetica,sans-Serif" font-size="10.00">machine_learning::unit</text>
<text text-anchor="middle" x="252" y="-7.5" font-family="Helvetica,sans-Serif" font-size="10.00">_matrix_initialization</text>
</a>
</g>
</g>
<!-- Node1&#45;&gt;Node6 -->
<g id="edge5" class="edge">
<title>Node1&#45;&gt;Node6</title>
<path fill="none" stroke="midnightblue" d="M123.32,-65.98C142.44,-57.88 164.7,-48.61 185,-40.5 190.12,-38.46 195.48,-36.36 200.84,-34.29"/>
<polygon fill="midnightblue" stroke="midnightblue" points="202.34,-37.46 210.42,-30.61 199.83,-30.92 202.34,-37.46"/>
</g>
<!-- Node5 -->
<g id="node5" class="node">
<title>Node5</title>
<g id="a_node5"><a target="_blank" xlink:href="http://en.cppreference.com/w/cpp/chrono/system_clock/now.html#" xlink:title=" ">
<polygon fill="white" stroke="black" points="355,-49.5 355,-79.5 458,-79.5 458,-49.5 355,-49.5"/>
<text text-anchor="start" x="363" y="-67.5" font-family="Helvetica,sans-Serif" font-size="10.00">std::chrono::system</text>
<text text-anchor="middle" x="406.5" y="-56.5" font-family="Helvetica,sans-Serif" font-size="10.00">_clock::now</text>
</a>
</g>
</g>
<!-- Node4&#45;&gt;Node5 -->
<g id="edge4" class="edge">
<title>Node4&#45;&gt;Node5</title>
<path fill="none" stroke="midnightblue" d="M319,-64.5C327.47,-64.5 336.11,-64.5 344.5,-64.5"/>
<polygon fill="midnightblue" stroke="midnightblue" points="344.57,-68 354.57,-64.5 344.57,-61 344.57,-68"/>
</g>
</g>
</svg>
