<?xml version="1.0" encoding="UTF-8" standalone="no"?>
<!DOCTYPE svg PUBLIC "-//W3C//DTD SVG 1.1//EN"
 "http://www.w3.org/Graphics/SVG/1.1/DTD/svg11.dtd">
<!-- Generated by graphviz version 8.0.4 (20230421.1958)
 -->
<!-- Title: sample_test Pages: 1 -->
<!--zoomable 285 -->
<svg id="main" version="1.1" xmlns="http://www.w3.org/2000/svg" xmlns:xlink="http://www.w3.org/1999/xlink" xml:space="preserve" onload="init(evt)">
<style type="text/css"><![CDATA[
.edge:hover path { stroke: red; }
.edge:hover polygon { stroke: red; fill: red; }
]]></style>
<script type="text/javascript"><![CDATA[
var edges = document.getElementsByTagName('g');
if (edges && edges.length) {
  for (var i=0;i<edges.length;i++) {
    if (edges[i].id.substr(0,4)=='edge') {
      edges[i].setAttribute('class','edge');
    }
  }
}
]]></script>
        <defs>
                <circle id="rim" cx="0" cy="0" r="7"/>
                <circle id="rim2" cx="0" cy="0" r="3.5"/>
                <g id="zoomPlus">
                        <use xlink:href="#rim" fill="#404040">
                                <set attributeName="fill" to="#808080" begin="zoomplus.mouseover" end="zoomplus.mouseout"/>
                        </use>
                        <path d="M-4,0h8M0,-4v8" fill="none" stroke="white" stroke-width="1.5" pointer-events="none"/>
                </g>
                <g id="zoomMin">
                        <use xlink:href="#rim" fill="#404040">
                                <set attributeName="fill" to="#808080" begin="zoomminus.mouseover" end="zoomminus.mouseout"/>
                        </use>
                        <path d="M-4,0h8" fill="none" stroke="white" stroke-width="1.5" pointer-events="none"/>
                </g>
                <g id="dirArrow">
                        <path fill="none" stroke="white" stroke-width="1.5" d="M0,-3.0v7 M-2.5,-0.5L0,-3.0L2.5,-0.5"/>
                </g>
               <g id="resetDef">
                       <use xlink:href="#rim2" fill="#404040">
                               <set attributeName="fill" to="#808080" begin="reset.mouseover" end="reset.mouseout"/>
                       </use>
               </g>
        </defs>

<script type="text/javascript">
var viewWidth = 530;
var viewHeight = 285;
var sectionId = 'dynsection-3';
</script>
<script xlink:href="../../svgpan.js"/>
<svg id="graph" class="graph">
<g id="viewport">
<title>sample_test</title>
<!-- Node1 -->
<g id="node1" class="node">
<title>Node1</title>
<g id="a_node1"><a xlink:title="Tests the sampling method of the geometric distribution.">
<polygon fill="#999999" stroke="#666666" points="69.25,-128.5 0,-128.5 0,-109.25 69.25,-109.25 69.25,-128.5"/>
<text text-anchor="middle" x="34.62" y="-115" font-family="Helvetica,sans-Serif" font-size="10.00">sample_test</text>
</a>
</g>
</g>
<!-- Node2 -->
<g id="node2" class="node">
<title>Node2</title>
<g id="a_node2"><a xlink:href="../../da/d19/classprobability_1_1geometric__dist_1_1geometric__distribution.html#a8aae1cebcf42ed2332f1c7217c401aa3" target="_top" xlink:title="Generates a (discrete) sample according to the geometrical distribution.">
<polygon fill="white" stroke="#666666" points="243.5,-237.75 105.25,-237.75 105.25,-196 243.5,-196 243.5,-237.75"/>
<text text-anchor="start" x="113.25" y="-224.25" font-family="Helvetica,sans-Serif" font-size="10.00">probability::geometric</text>
<text text-anchor="start" x="113.25" y="-213" font-family="Helvetica,sans-Serif" font-size="10.00">_dist::geometric_distribution</text>
<text text-anchor="middle" x="174.38" y="-201.75" font-family="Helvetica,sans-Serif" font-size="10.00">::draw_sample</text>
</a>
</g>
</g>
<!-- Node1&#45;&gt;Node2 -->
<g id="edge1" class="edge">
<title>Node1&#45;&gt;Node2</title>
<path fill="none" stroke="#63b8ff" d="M43.73,-128.79C55.87,-143.15 80.05,-169.85 105.25,-186.88 106.98,-188.04 108.76,-189.18 110.57,-190.29"/>
<polygon fill="#63b8ff" stroke="#63b8ff" points="108.51,-193.71 118.93,-195.59 111.96,-187.62 108.51,-193.71"/>
</g>
<!-- Node6 -->
<g id="node6" class="node">
<title>Node6</title>
<g id="a_node6"><a target="_blank" xlink:href="http://en.cppreference.com/w/cpp/io/manip/endl.html#" xlink:title=" ">
<polygon fill="white" stroke="#666666" points="201.12,-177.5 147.62,-177.5 147.62,-158.25 201.12,-158.25 201.12,-177.5"/>
<text text-anchor="middle" x="174.38" y="-164" font-family="Helvetica,sans-Serif" font-size="10.00">std::endl</text>
</a>
</g>
</g>
<!-- Node1&#45;&gt;Node6 -->
<g id="edge6" class="edge">
<title>Node1&#45;&gt;Node6</title>
<path fill="none" stroke="#63b8ff" d="M56.97,-128.96C70.6,-135.18 88.74,-143.05 105.25,-148.88 115.39,-152.46 126.56,-155.81 136.88,-158.67"/>
<polygon fill="#63b8ff" stroke="#63b8ff" points="135.67,-162.24 146.24,-161.47 137.5,-155.48 135.67,-162.24"/>
</g>
<!-- Node7 -->
<g id="node7" class="node">
<title>Node7</title>
<g id="a_node7"><a xlink:href="../../da/d19/classprobability_1_1geometric__dist_1_1geometric__distribution.html#a41051365f8ac7700f2ed5880a6760413" target="_top" xlink:title="The expected value of a geometrically distributed random variable X.">
<polygon fill="white" stroke="#666666" points="243.5,-139.75 105.25,-139.75 105.25,-98 243.5,-98 243.5,-139.75"/>
<text text-anchor="start" x="113.25" y="-126.25" font-family="Helvetica,sans-Serif" font-size="10.00">probability::geometric</text>
<text text-anchor="start" x="113.25" y="-115" font-family="Helvetica,sans-Serif" font-size="10.00">_dist::geometric_distribution</text>
<text text-anchor="middle" x="174.38" y="-103.75" font-family="Helvetica,sans-Serif" font-size="10.00">::expected_value</text>
</a>
</g>
</g>
<!-- Node1&#45;&gt;Node7 -->
<g id="edge7" class="edge">
<title>Node1&#45;&gt;Node7</title>
<path fill="none" stroke="#63b8ff" d="M69.68,-118.88C77.24,-118.88 85.56,-118.88 94.1,-118.88"/>
<polygon fill="#63b8ff" stroke="#63b8ff" points="94,-122.38 104,-118.88 94,-115.38 94,-122.38"/>
</g>
<!-- Node8 -->
<g id="node8" class="node">
<title>Node8</title>
<g id="a_node8"><a target="_blank" xlink:href="http://en.cppreference.com/w/cpp/container/vector/resize.html#" xlink:title=" ">
<polygon fill="white" stroke="#666666" points="221.75,-79.5 127,-79.5 127,-60.25 221.75,-60.25 221.75,-79.5"/>
<text text-anchor="middle" x="174.38" y="-66" font-family="Helvetica,sans-Serif" font-size="10.00">std::vector::resize</text>
</a>
</g>
</g>
<!-- Node1&#45;&gt;Node8 -->
<g id="edge8" class="edge">
<title>Node1&#45;&gt;Node8</title>
<path fill="none" stroke="#63b8ff" d="M56.97,-108.79C70.6,-102.57 88.74,-94.7 105.25,-88.88 111.11,-86.81 117.31,-84.81 123.5,-82.95"/>
<polygon fill="#63b8ff" stroke="#63b8ff" points="124.21,-86.09 132.83,-79.93 122.25,-79.37 124.21,-86.09"/>
</g>
<!-- Node9 -->
<g id="node9" class="node">
<title>Node9</title>
<g id="a_node9"><a xlink:href="../../da/d19/classprobability_1_1geometric__dist_1_1geometric__distribution.html#aea8b0d649f0dc9a6f8baf3341a0b4960" target="_top" xlink:title="The variance of a geometrically distributed random variable X.">
<polygon fill="white" stroke="#666666" points="243.5,-41.75 105.25,-41.75 105.25,0 243.5,0 243.5,-41.75"/>
<text text-anchor="start" x="113.25" y="-28.25" font-family="Helvetica,sans-Serif" font-size="10.00">probability::geometric</text>
<text text-anchor="start" x="113.25" y="-17" font-family="Helvetica,sans-Serif" font-size="10.00">_dist::geometric_distribution</text>
<text text-anchor="middle" x="174.38" y="-5.75" font-family="Helvetica,sans-Serif" font-size="10.00">::variance</text>
</a>
</g>
</g>
<!-- Node1&#45;&gt;Node9 -->
<g id="edge9" class="edge">
<title>Node1&#45;&gt;Node9</title>
<path fill="none" stroke="#63b8ff" d="M43.73,-108.96C55.87,-94.6 80.05,-67.9 105.25,-50.88 106.98,-49.71 108.76,-48.57 110.57,-47.46"/>
<polygon fill="#63b8ff" stroke="#63b8ff" points="111.96,-50.13 118.93,-42.16 108.51,-44.04 111.96,-50.13"/>
</g>
<!-- Node3 -->
<g id="node3" class="node">
<title>Node3</title>
<g id="a_node3"><a xlink:href="../../de/d72/geometric__dist_8cpp.html#a82964ca6180507deb5fafc71050012ba" target="_top" xlink:title="Returns a random number between [0,1].">
<polygon fill="white" stroke="#666666" points="417.75,-259.12 299.75,-259.12 299.75,-228.62 417.75,-228.62 417.75,-259.12"/>
<text text-anchor="start" x="307.75" y="-245.62" font-family="Helvetica,sans-Serif" font-size="10.00">probability::geometric</text>
<text text-anchor="middle" x="358.75" y="-234.38" font-family="Helvetica,sans-Serif" font-size="10.00">_dist::generate_uniform</text>
</a>
</g>
</g>
<!-- Node2&#45;&gt;Node3 -->
<g id="edge2" class="edge">
<title>Node2&#45;&gt;Node3</title>
<path fill="none" stroke="#63b8ff" d="M243.8,-227.01C258.52,-229.19 274.09,-231.49 288.83,-233.67"/>
<polygon fill="#63b8ff" stroke="#63b8ff" points="287.99,-237.23 298.39,-235.24 289.01,-230.31 287.99,-237.23"/>
</g>
<!-- Node4 -->
<g id="node4" class="node">
<title>Node4</title>
<g id="a_node4"><a xlink:href="../../da/d19/classprobability_1_1geometric__dist_1_1geometric__distribution.html#aaf762e88c66918d7afda4234f28a7ddf" target="_top" xlink:title="The inverse cumulative distribution function.">
<polygon fill="white" stroke="#666666" points="438,-210.75 279.5,-210.75 279.5,-169 438,-169 438,-210.75"/>
<text text-anchor="start" x="287.5" y="-197.25" font-family="Helvetica,sans-Serif" font-size="10.00">probability::geometric</text>
<text text-anchor="start" x="287.5" y="-186" font-family="Helvetica,sans-Serif" font-size="10.00">_dist::geometric_distribution</text>
<text text-anchor="middle" x="358.75" y="-174.75" font-family="Helvetica,sans-Serif" font-size="10.00">::inverse_cumulative_distribution</text>
</a>
</g>
</g>
<!-- Node2&#45;&gt;Node4 -->
<g id="edge4" class="edge">
<title>Node2&#45;&gt;Node4</title>
<path fill="none" stroke="#63b8ff" d="M243.8,-206.74C251.82,-205.56 260.08,-204.34 268.32,-203.11"/>
<polygon fill="#63b8ff" stroke="#63b8ff" points="268.74,-206.44 278.12,-201.52 267.72,-199.52 268.74,-206.44"/>
</g>
<!-- Node3&#45;&gt;Node3 -->
<g id="edge3" class="edge">
<title>Node3&#45;&gt;Node3</title>
<path fill="none" stroke="#63b8ff" d="M334.05,-259.61C329.01,-268.68 337.24,-277.12 358.75,-277.12 370.85,-277.12 378.74,-274.45 382.44,-270.5"/>
<polygon fill="#63b8ff" stroke="#63b8ff" points="386.01,-270.89 383.45,-260.61 379.04,-270.25 386.01,-270.89"/>
</g>
<!-- Node5 -->
<g id="node5" class="node">
<title>Node5</title>
<g id="a_node5"><a target="_blank" xlink:href="http://en.cppreference.com/w/cpp/numeric/math/log.html#" xlink:title=" ">
<polygon fill="white" stroke="#666666" points="522.25,-199.5 474,-199.5 474,-180.25 522.25,-180.25 522.25,-199.5"/>
<text text-anchor="middle" x="498.12" y="-186" font-family="Helvetica,sans-Serif" font-size="10.00">std::log</text>
</a>
</g>
</g>
<!-- Node4&#45;&gt;Node5 -->
<g id="edge5" class="edge">
<title>Node4&#45;&gt;Node5</title>
<path fill="none" stroke="#63b8ff" d="M438.47,-189.88C446.99,-189.88 455.3,-189.88 462.85,-189.88"/>
<polygon fill="#63b8ff" stroke="#63b8ff" points="462.68,-193.38 472.68,-189.88 462.68,-186.38 462.68,-193.38"/>
</g>
</g>
</svg>
        <g id="navigator" transform="translate(0 0)" fill="#404254">
                <rect fill="#f2f5e9" fill-opacity="0.5" stroke="#606060" stroke-width=".5" x="0" y="0" width="60" height="60"/>
                <use id="zoomplus" xlink:href="#zoomPlus" x="17" y="9" onmousedown="handleZoom(evt,'in')"/>
                <use id="zoomminus" xlink:href="#zoomMin" x="42" y="9" onmousedown="handleZoom(evt,'out')"/>
                <use id="reset" xlink:href="#resetDef" x="30" y="36" onmousedown="handleReset()"/>
                <g id="arrowUp" xlink:href="#dirArrow" transform="translate(30 24)" onmousedown="handlePan(0,-1)">
                  <use xlink:href="#rim" fill="#404040">
                        <set attributeName="fill" to="#808080" begin="arrowUp.mouseover" end="arrowUp.mouseout"/>
                  </use>
                  <path fill="none" stroke="white" stroke-width="1.5" d="M0,-3.0v7 M-2.5,-0.5L0,-3.0L2.5,-0.5"/>
                </g>
                <g id="arrowRight" xlink:href="#dirArrow" transform="rotate(90) translate(36 -43)" onmousedown="handlePan(1,0)">
                  <use xlink:href="#rim" fill="#404040">
                        <set attributeName="fill" to="#808080" begin="arrowRight.mouseover" end="arrowRight.mouseout"/>
                  </use>
                  <path fill="none" stroke="white" stroke-width="1.5" d="M0,-3.0v7 M-2.5,-0.5L0,-3.0L2.5,-0.5"/>
                </g>
                <g id="arrowDown" xlink:href="#dirArrow" transform="rotate(180) translate(-30 -48)" onmousedown="handlePan(0,1)">
                  <use xlink:href="#rim" fill="#404040">
                        <set attributeName="fill" to="#808080" begin="arrowDown.mouseover" end="arrowDown.mouseout"/>
                  </use>
                  <path fill="none" stroke="white" stroke-width="1.5" d="M0,-3.0v7 M-2.5,-0.5L0,-3.0L2.5,-0.5"/>
                </g>
                <g id="arrowLeft" xlink:href="#dirArrow" transform="rotate(270) translate(-36 17)" onmousedown="handlePan(-1,0)">
                  <use xlink:href="#rim" fill="#404040">
                        <set attributeName="fill" to="#808080" begin="arrowLeft.mouseover" end="arrowLeft.mouseout"/>
                  </use>
                  <path fill="none" stroke="white" stroke-width="1.5" d="M0,-3.0v7 M-2.5,-0.5L0,-3.0L2.5,-0.5"/>
                </g>
        </g>
        <svg viewBox="0 0 15 15" width="100%" height="30px" preserveAspectRatio="xMaxYMin meet">
         <g id="arrow_out" transform="scale(0.3 0.3)">
          <a xlink:href="geometric__dist_8cpp_a70fd1cc5c3a2813f28683dc75dcd65b6_cgraph_org.svg" target="_base">
           <rect id="button" ry="5" rx="5" y="6" x="6" height="38" width="38"
                fill="#f2f5e9" fill-opacity="0.5" stroke="#606060" stroke-width="1.0"/>
           <path id="arrow"
             d="M 11.500037,31.436501 C 11.940474,20.09759 22.043105,11.32322 32.158766,21.979434 L 37.068811,17.246167 C 37.068811,17.246167 37.088388,32 37.088388,32 L 22.160133,31.978069 C 22.160133,31.978069 26.997745,27.140456 26.997745,27.140456 C 18.528582,18.264221 13.291696,25.230495 11.500037,31.436501 z"
             style="fill:#404040;"/>
          </a>
         </g>
        </svg>
</svg>
