<?xml version="1.0" encoding="UTF-8" standalone="no"?>
<!DOCTYPE svg PUBLIC "-//W3C//DTD SVG 1.1//EN"
 "http://www.w3.org/Graphics/SVG/1.1/DTD/svg11.dtd">
<!-- Generated by graphviz version 5.0.1 (20220820.1526)
 -->
<!-- Title: sample_test Pages: 1 -->
<svg width="533pt" height="281pt"
 viewBox="0.00 0.00 533.00 280.50" xmlns="http://www.w3.org/2000/svg" xmlns:xlink="http://www.w3.org/1999/xlink">
<g id="graph0" class="graph" transform="scale(1 1) rotate(0) translate(4 276.5)">
<title>sample_test</title>
<!-- Node1 -->
<g id="node1" class="node">
<title>Node1</title>
<g id="a_node1"><a xlink:title="Tests the sampling method of the geometric distribution.">
<polygon fill="#999999" stroke="#666666" points="70,-126 0,-126 0,-107 70,-107 70,-126"/>
<text text-anchor="middle" x="35" y="-114" font-family="Helvetica,sans-Serif" font-size="10.00">sample_test</text>
</a>
</g>
</g>
<!-- Node2 -->
<g id="node2" class="node">
<title>Node2</title>
<g id="a_node2"><a xlink:href="../../da/d19/classprobability_1_1geometric__dist_1_1geometric__distribution.html#a8aae1cebcf42ed2332f1c7217c401aa3" target="_top" xlink:title="Generates a (discrete) sample according to the geometrical distribution.">
<polygon fill="white" stroke="#666666" points="245,-233 106,-233 106,-192 245,-192 245,-233"/>
<text text-anchor="start" x="114" y="-221" font-family="Helvetica,sans-Serif" font-size="10.00">probability::geometric</text>
<text text-anchor="start" x="114" y="-210" font-family="Helvetica,sans-Serif" font-size="10.00">_dist::geometric_distribution</text>
<text text-anchor="middle" x="175.5" y="-199" font-family="Helvetica,sans-Serif" font-size="10.00">::draw_sample</text>
</a>
</g>
</g>
<!-- Node1&#45;&gt;Node2 -->
<g id="edge1" class="edge">
<title>Node1&#45;&gt;Node2</title>
<path fill="none" stroke="#63b8ff" d="M44.22,-126.11C56.5,-140.02 80.92,-165.91 106,-182.5 108.39,-184.08 110.87,-185.61 113.41,-187.08"/>
<polygon fill="#63b8ff" stroke="#63b8ff" points="111.8,-190.19 122.26,-191.89 115.14,-184.04 111.8,-190.19"/>
</g>
<!-- Node6 -->
<g id="node6" class="node">
<title>Node6</title>
<g id="a_node6"><a target="_blank" xlink:href="http://en.cppreference.com/w/cpp/io/manip/endl.html#" xlink:title=" ">
<polygon fill="white" stroke="#666666" points="202.5,-174 148.5,-174 148.5,-155 202.5,-155 202.5,-174"/>
<text text-anchor="middle" x="175.5" y="-162" font-family="Helvetica,sans-Serif" font-size="10.00">std::endl</text>
</a>
</g>
</g>
<!-- Node1&#45;&gt;Node6 -->
<g id="edge6" class="edge">
<title>Node1&#45;&gt;Node6</title>
<path fill="none" stroke="#63b8ff" d="M57.19,-126.07C70.94,-132.08 89.33,-139.76 106,-145.5 116.43,-149.09 127.94,-152.49 138.49,-155.4"/>
<polygon fill="#63b8ff" stroke="#63b8ff" points="137.68,-158.81 148.25,-158.02 139.5,-152.05 137.68,-158.81"/>
</g>
<!-- Node7 -->
<g id="node7" class="node">
<title>Node7</title>
<g id="a_node7"><a xlink:href="../../da/d19/classprobability_1_1geometric__dist_1_1geometric__distribution.html#a41051365f8ac7700f2ed5880a6760413" target="_top" xlink:title="The expected value of a geometrically distributed random variable X.">
<polygon fill="white" stroke="#666666" points="245,-137 106,-137 106,-96 245,-96 245,-137"/>
<text text-anchor="start" x="114" y="-125" font-family="Helvetica,sans-Serif" font-size="10.00">probability::geometric</text>
<text text-anchor="start" x="114" y="-114" font-family="Helvetica,sans-Serif" font-size="10.00">_dist::geometric_distribution</text>
<text text-anchor="middle" x="175.5" y="-103" font-family="Helvetica,sans-Serif" font-size="10.00">::expected_value</text>
</a>
</g>
</g>
<!-- Node1&#45;&gt;Node7 -->
<g id="edge7" class="edge">
<title>Node1&#45;&gt;Node7</title>
<path fill="none" stroke="#63b8ff" d="M70.24,-116.5C78.09,-116.5 86.77,-116.5 95.65,-116.5"/>
<polygon fill="#63b8ff" stroke="#63b8ff" points="95.75,-120 105.75,-116.5 95.75,-113 95.75,-120"/>
</g>
<!-- Node8 -->
<g id="node8" class="node">
<title>Node8</title>
<g id="a_node8"><a target="_blank" xlink:href="http://en.cppreference.com/w/cpp/container/vector/resize.html#" xlink:title=" ">
<polygon fill="white" stroke="#666666" points="223,-78 128,-78 128,-59 223,-59 223,-78"/>
<text text-anchor="middle" x="175.5" y="-66" font-family="Helvetica,sans-Serif" font-size="10.00">std::vector::resize</text>
</a>
</g>
</g>
<!-- Node1&#45;&gt;Node8 -->
<g id="edge8" class="edge">
<title>Node1&#45;&gt;Node8</title>
<path fill="none" stroke="#63b8ff" d="M56.21,-106.89C70.03,-100.56 88.87,-92.39 106,-86.5 111.88,-84.48 118.1,-82.56 124.31,-80.77"/>
<polygon fill="#63b8ff" stroke="#63b8ff" points="125.3,-84.13 134,-78.08 123.43,-77.38 125.3,-84.13"/>
</g>
<!-- Node9 -->
<g id="node9" class="node">
<title>Node9</title>
<g id="a_node9"><a xlink:href="../../da/d19/classprobability_1_1geometric__dist_1_1geometric__distribution.html#aea8b0d649f0dc9a6f8baf3341a0b4960" target="_top" xlink:title="The variance of a geometrically distributed random variable X.">
<polygon fill="white" stroke="#666666" points="245,-41 106,-41 106,0 245,0 245,-41"/>
<text text-anchor="start" x="114" y="-29" font-family="Helvetica,sans-Serif" font-size="10.00">probability::geometric</text>
<text text-anchor="start" x="114" y="-18" font-family="Helvetica,sans-Serif" font-size="10.00">_dist::geometric_distribution</text>
<text text-anchor="middle" x="175.5" y="-7" font-family="Helvetica,sans-Serif" font-size="10.00">::variance</text>
</a>
</g>
</g>
<!-- Node1&#45;&gt;Node9 -->
<g id="edge9" class="edge">
<title>Node1&#45;&gt;Node9</title>
<path fill="none" stroke="#63b8ff" d="M44.16,-106.69C56.37,-92.51 80.7,-66.14 106,-49.5 107.7,-48.38 109.45,-47.29 111.24,-46.23"/>
<polygon fill="#63b8ff" stroke="#63b8ff" points="113.36,-49.06 120.43,-41.16 109.98,-42.93 113.36,-49.06"/>
</g>
<!-- Node3 -->
<g id="node3" class="node">
<title>Node3</title>
<g id="a_node3"><a xlink:href="../../de/d72/geometric__dist_8cpp.html#a82964ca6180507deb5fafc71050012ba" target="_top" xlink:title="Returns a random number between [0,1].">
<polygon fill="white" stroke="#666666" points="420,-254.5 301,-254.5 301,-224.5 420,-224.5 420,-254.5"/>
<text text-anchor="start" x="309" y="-242.5" font-family="Helvetica,sans-Serif" font-size="10.00">probability::geometric</text>
<text text-anchor="middle" x="360.5" y="-231.5" font-family="Helvetica,sans-Serif" font-size="10.00">_dist::generate_uniform</text>
</a>
</g>
</g>
<!-- Node2&#45;&gt;Node3 -->
<g id="edge2" class="edge">
<title>Node2&#45;&gt;Node3</title>
<path fill="none" stroke="#63b8ff" d="M245.16,-222.63C260.08,-224.83 275.86,-227.16 290.78,-229.36"/>
<polygon fill="#63b8ff" stroke="#63b8ff" points="290.54,-232.86 300.94,-230.86 291.56,-225.94 290.54,-232.86"/>
</g>
<!-- Node4 -->
<g id="node4" class="node">
<title>Node4</title>
<g id="a_node4"><a xlink:href="../../da/d19/classprobability_1_1geometric__dist_1_1geometric__distribution.html#aaf762e88c66918d7afda4234f28a7ddf" target="_top" xlink:title="The inverse cumulative distribution function.">
<polygon fill="white" stroke="#666666" points="440,-206 281,-206 281,-165 440,-165 440,-206"/>
<text text-anchor="start" x="289" y="-194" font-family="Helvetica,sans-Serif" font-size="10.00">probability::geometric</text>
<text text-anchor="start" x="289" y="-183" font-family="Helvetica,sans-Serif" font-size="10.00">_dist::geometric_distribution</text>
<text text-anchor="middle" x="360.5" y="-172" font-family="Helvetica,sans-Serif" font-size="10.00">::inverse_cumulative_distribution</text>
</a>
</g>
</g>
<!-- Node2&#45;&gt;Node4 -->
<g id="edge4" class="edge">
<title>Node2&#45;&gt;Node4</title>
<path fill="none" stroke="#63b8ff" d="M245.16,-202.37C253.55,-201.13 262.2,-199.86 270.82,-198.58"/>
<polygon fill="#63b8ff" stroke="#63b8ff" points="271.53,-202.02 280.91,-197.09 270.51,-195.09 271.53,-202.02"/>
</g>
<!-- Node3&#45;&gt;Node3 -->
<g id="edge3" class="edge">
<title>Node3&#45;&gt;Node3</title>
<path fill="none" stroke="#63b8ff" d="M335.89,-254.78C330.42,-263.91 338.62,-272.5 360.5,-272.5 373.49,-272.5 381.66,-269.47 385.01,-265.1"/>
<polygon fill="#63b8ff" stroke="#63b8ff" points="388.51,-264.81 385.11,-254.78 381.51,-264.74 388.51,-264.81"/>
</g>
<!-- Node5 -->
<g id="node5" class="node">
<title>Node5</title>
<g id="a_node5"><a target="_blank" xlink:href="http://en.cppreference.com/w/cpp/numeric/math/log.html#" xlink:title=" ">
<polygon fill="white" stroke="#666666" points="525,-195 476,-195 476,-176 525,-176 525,-195"/>
<text text-anchor="middle" x="500.5" y="-183" font-family="Helvetica,sans-Serif" font-size="10.00">std::log</text>
</a>
</g>
</g>
<!-- Node4&#45;&gt;Node5 -->
<g id="edge5" class="edge">
<title>Node4&#45;&gt;Node5</title>
<path fill="none" stroke="#63b8ff" d="M440.17,-185.5C449.08,-185.5 457.77,-185.5 465.62,-185.5"/>
<polygon fill="#63b8ff" stroke="#63b8ff" points="465.77,-189 475.77,-185.5 465.77,-182 465.77,-189"/>
</g>
</g>
</svg>
