<?xml version="1.0" encoding="UTF-8" standalone="no"?>
<!DOCTYPE svg PUBLIC "-//W3C//DTD SVG 1.1//EN"
 "http://www.w3.org/Graphics/SVG/1.1/DTD/svg11.dtd">
<!-- Generated by graphviz version 12.2.1 (20241206.2353)
 -->
<!-- Title: dynamic_programming/catalan_numbers.cpp Pages: 1 -->
<svg width="388pt" height="94pt"
 viewBox="0.00 0.00 387.62 93.75" xmlns="http://www.w3.org/2000/svg" xmlns:xlink="http://www.w3.org/1999/xlink">

<svg id="main" version="1.1" xmlns="http://www.w3.org/2000/svg" xmlns:xlink="http://www.w3.org/1999/xlink" xml:space="preserve">

<style type="text/css"><![CDATA[
.node, .edge {opacity: 0.7;}
.node.selected, .edge.selected {opacity: 1;}
.edge:hover path { stroke: red; }
.edge:hover polygon { stroke: red; fill: red; }
]]></style>
<script type="application/ecmascript" xlink:href="../../svg.min.js"/>
<svg id="graph" class="graph">
<g id="graph0" class="graph" transform="scale(1 1) rotate(0) translate(4 89.75)">
<title>dynamic_programming/catalan_numbers.cpp</title>
<!-- Node1 -->
<g id="Node000001" class="node">
<title>Node1</title>
<g id="a_Node000001"><a xlink:title="Provides utilities to compute Catalan numbers using dynamic programming. A Catalan numbers satisfy th...">
<polygon fill="#999999" stroke="#666666" points="243.25,-85.75 129,-85.75 129,-55.25 243.25,-55.25 243.25,-85.75"/>
<text text-anchor="start" x="137" y="-72.25" font-family="Helvetica,sans-Serif" font-size="10.00">dynamic_programming</text>
<text text-anchor="middle" x="186.12" y="-61" font-family="Helvetica,sans-Serif" font-size="10.00">/catalan_numbers.cpp</text>
</a>
</g>
</g>
<!-- Node2 -->
<g id="Node000002" class="node">
<title>Node2</title>
<g id="a_Node000002"><a xlink:title=" ">
<polygon fill="#e0e0e0" stroke="#999999" points="48.25,-19.25 0,-19.25 0,0 48.25,0 48.25,-19.25"/>
<text text-anchor="middle" x="24.12" y="-5.75" font-family="Helvetica,sans-Serif" font-size="10.00">cassert</text>
</a>
</g>
</g>
<!-- Node1&#45;&gt;Node2 -->
<g id="edge1_Node000001_Node000002" class="edge">
<title>Node1&#45;&gt;Node2</title>
<g id="a_edge1_Node000001_Node000002"><a xlink:title=" ">
<path fill="none" stroke="#63b8ff" d="M145.66,-54.8C119.05,-45.12 84.57,-32.59 59.14,-23.35"/>
<polygon fill="#63b8ff" stroke="#63b8ff" points="60.51,-20.12 49.92,-20 58.12,-26.7 60.51,-20.12"/>
</a>
</g>
</g>
<!-- Node3 -->
<g id="Node000003" class="node">
<title>Node3</title>
<g id="a_Node000003"><a xlink:title=" ">
<polygon fill="#e0e0e0" stroke="#999999" points="111.75,-19.25 66.5,-19.25 66.5,0 111.75,0 111.75,-19.25"/>
<text text-anchor="middle" x="89.12" y="-5.75" font-family="Helvetica,sans-Serif" font-size="10.00">cstdint</text>
</a>
</g>
</g>
<!-- Node1&#45;&gt;Node3 -->
<g id="edge2_Node000001_Node000003" class="edge">
<title>Node1&#45;&gt;Node3</title>
<g id="a_edge2_Node000001_Node000003"><a xlink:title=" ">
<path fill="none" stroke="#63b8ff" d="M162.15,-54.95C147.38,-45.98 128.49,-34.52 113.63,-25.5"/>
<polygon fill="#63b8ff" stroke="#63b8ff" points="115.74,-22.68 105.37,-20.49 112.11,-28.67 115.74,-22.68"/>
</a>
</g>
</g>
<!-- Node4 -->
<g id="Node000004" class="node">
<title>Node4</title>
<g id="a_Node000004"><a xlink:title=" ">
<polygon fill="#e0e0e0" stroke="#999999" points="174.38,-19.25 129.88,-19.25 129.88,0 174.38,0 174.38,-19.25"/>
<text text-anchor="middle" x="152.12" y="-5.75" font-family="Helvetica,sans-Serif" font-size="10.00">cstdlib</text>
</a>
</g>
</g>
<!-- Node1&#45;&gt;Node4 -->
<g id="edge3_Node000001_Node000004" class="edge">
<title>Node1&#45;&gt;Node4</title>
<g id="a_edge3_Node000001_Node000004"><a xlink:title=" ">
<path fill="none" stroke="#63b8ff" d="M177.72,-54.95C173.29,-47.28 167.8,-37.77 163.05,-29.54"/>
<polygon fill="#63b8ff" stroke="#63b8ff" points="166.16,-27.92 158.12,-21.01 160.09,-31.42 166.16,-27.92"/>
</a>
</g>
</g>
<!-- Node5 -->
<g id="Node000005" class="node">
<title>Node5</title>
<g id="a_Node000005"><a xlink:title=" ">
<polygon fill="#e0e0e0" stroke="#999999" points="250.12,-19.25 192.12,-19.25 192.12,0 250.12,0 250.12,-19.25"/>
<text text-anchor="middle" x="221.12" y="-5.75" font-family="Helvetica,sans-Serif" font-size="10.00">functional</text>
</a>
</g>
</g>
<!-- Node1&#45;&gt;Node5 -->
<g id="edge4_Node000001_Node000005" class="edge">
<title>Node1&#45;&gt;Node5</title>
<g id="a_edge4_Node000001_Node000005"><a xlink:title=" ">
<path fill="none" stroke="#63b8ff" d="M194.78,-54.95C199.34,-47.28 204.99,-37.77 209.88,-29.54"/>
<polygon fill="#63b8ff" stroke="#63b8ff" points="212.85,-31.39 214.96,-21 206.84,-27.81 212.85,-31.39"/>
</a>
</g>
</g>
<!-- Node6 -->
<g id="Node000006" class="node">
<title>Node6</title>
<g id="a_Node000006"><a xlink:title=" ">
<polygon fill="#e0e0e0" stroke="#999999" points="318.38,-19.25 267.88,-19.25 267.88,0 318.38,0 318.38,-19.25"/>
<text text-anchor="middle" x="293.12" y="-5.75" font-family="Helvetica,sans-Serif" font-size="10.00">numeric</text>
</a>
</g>
</g>
<!-- Node1&#45;&gt;Node6 -->
<g id="edge5_Node000001_Node000006" class="edge">
<title>Node1&#45;&gt;Node6</title>
<g id="a_edge5_Node000001_Node000006"><a xlink:title=" ">
<path fill="none" stroke="#63b8ff" d="M212.85,-54.8C229.3,-45.74 250.3,-34.19 266.7,-25.16"/>
<polygon fill="#63b8ff" stroke="#63b8ff" points="268.32,-28.27 275.39,-20.38 264.94,-22.14 268.32,-28.27"/>
</a>
</g>
</g>
<!-- Node7 -->
<g id="Node000007" class="node">
<title>Node7</title>
<g id="a_Node000007"><a xlink:title=" ">
<polygon fill="#e0e0e0" stroke="#999999" points="379.62,-19.25 336.62,-19.25 336.62,0 379.62,0 379.62,-19.25"/>
<text text-anchor="middle" x="358.12" y="-5.75" font-family="Helvetica,sans-Serif" font-size="10.00">vector</text>
</a>
</g>
</g>
<!-- Node1&#45;&gt;Node7 -->
<g id="edge6_Node000001_Node000007" class="edge">
<title>Node1&#45;&gt;Node7</title>
<g id="a_edge6_Node000001_Node000007"><a xlink:title=" ">
<path fill="none" stroke="#63b8ff" d="M229.08,-54.8C258.99,-44.56 298.26,-31.12 325.59,-21.76"/>
<polygon fill="#63b8ff" stroke="#63b8ff" points="326.39,-25.19 334.72,-18.64 324.12,-18.56 326.39,-25.19"/>
</a>
</g>
</g>
</g>
</svg>
</svg>

<style type='text/css'>
<![CDATA[
[data-mouse-over-selected='false'] { opacity: 0.7; }
[data-mouse-over-selected='true']  { opacity: 1.0; }
]]>
</style>
<script type="application/ecmascript"><![CDATA[
document.addEventListener('DOMContentLoaded', (event) => {
  highlightEdges();
  highlightAdjacentNodes();
});
]]></script>
</svg>
