<?xml version="1.0" encoding="UTF-8" standalone="no"?>
<!DOCTYPE svg PUBLIC "-//W3C//DTD SVG 1.1//EN"
 "http://www.w3.org/Graphics/SVG/1.1/DTD/svg11.dtd">
<!-- Generated by graphviz version 8.1.0 (20230707.0739)
 -->
<!-- Title: physics/ground_to_ground_projectile_motion.cpp Pages: 1 -->
<svg width="189pt" height="94pt"
 viewBox="0.00 0.00 188.88 93.75" xmlns="http://www.w3.org/2000/svg" xmlns:xlink="http://www.w3.org/1999/xlink">
<g id="graph0" class="graph" transform="scale(1 1) rotate(0) translate(4 89.75)">
<title>physics/ground_to_ground_projectile_motion.cpp</title>
<!-- Node1 -->
<g id="Node000001" class="node">
<title>Node1</title>
<g id="a_Node000001"><a xlink:title="Ground to ground projectile motion equation implementations.">
<polygon fill="#999999" stroke="#666666" points="153.12,-85.75 23.12,-85.75 23.12,-55.25 153.12,-55.25 153.12,-85.75"/>
<text text-anchor="start" x="31.12" y="-72.25" font-family="Helvetica,sans-Serif" font-size="10.00">physics/ground_to_ground</text>
<text text-anchor="middle" x="88.12" y="-61" font-family="Helvetica,sans-Serif" font-size="10.00">_projectile_motion.cpp</text>
</a>
</g>
</g>
<!-- Node2 -->
<g id="Node000002" class="node">
<title>Node2</title>
<g id="a_Node000002"><a xlink:title=" ">
<polygon fill="#e0e0e0" stroke="#999999" points="48.25,-19.25 0,-19.25 0,0 48.25,0 48.25,-19.25"/>
<text text-anchor="middle" x="24.12" y="-5.75" font-family="Helvetica,sans-Serif" font-size="10.00">cassert</text>
</a>
</g>
</g>
<!-- Node1&#45;&gt;Node2 -->
<g id="edge1_Node000001_Node000002" class="edge">
<title>Node1&#45;&gt;Node2</title>
<g id="a_edge1_Node000001_Node000002"><a xlink:title=" ">
<path fill="none" stroke="#63b8ff" d="M72.3,-54.95C63.12,-46.5 51.53,-35.83 42.01,-27.08"/>
<polygon fill="#63b8ff" stroke="#63b8ff" points="44.72,-24.9 34.99,-20.7 39.98,-30.05 44.72,-24.9"/>
</a>
</g>
</g>
<!-- Node3 -->
<g id="Node000003" class="node">
<title>Node3</title>
<g id="a_Node000003"><a xlink:title=" ">
<polygon fill="#e0e0e0" stroke="#999999" points="109.62,-19.25 66.62,-19.25 66.62,0 109.62,0 109.62,-19.25"/>
<text text-anchor="middle" x="88.12" y="-5.75" font-family="Helvetica,sans-Serif" font-size="10.00">cmath</text>
</a>
</g>
</g>
<!-- Node1&#45;&gt;Node3 -->
<g id="edge2_Node000001_Node000003" class="edge">
<title>Node1&#45;&gt;Node3</title>
<g id="a_edge2_Node000001_Node000003"><a xlink:title=" ">
<path fill="none" stroke="#63b8ff" d="M88.12,-54.95C88.12,-47.62 88.12,-38.62 88.12,-30.66"/>
<polygon fill="#63b8ff" stroke="#63b8ff" points="91.63,-30.7 88.12,-20.7 84.63,-30.7 91.63,-30.7"/>
</a>
</g>
</g>
<!-- Node4 -->
<g id="Node000004" class="node">
<title>Node4</title>
<g id="a_Node000004"><a xlink:title=" ">
<polygon fill="#e0e0e0" stroke="#999999" points="180.88,-19.25 127.38,-19.25 127.38,0 180.88,0 180.88,-19.25"/>
<text text-anchor="middle" x="154.12" y="-5.75" font-family="Helvetica,sans-Serif" font-size="10.00">iostream</text>
</a>
</g>
</g>
<!-- Node1&#45;&gt;Node4 -->
<g id="edge3_Node000001_Node000004" class="edge">
<title>Node1&#45;&gt;Node4</title>
<g id="a_edge3_Node000001_Node000004"><a xlink:title=" ">
<path fill="none" stroke="#63b8ff" d="M104.44,-54.95C114.01,-46.41 126.11,-35.62 135.98,-26.81"/>
<polygon fill="#63b8ff" stroke="#63b8ff" points="137.82,-29.97 142.95,-20.7 133.16,-24.75 137.82,-29.97"/>
</a>
</g>
</g>
</g>
</svg>
