<?xml version="1.0" encoding="UTF-8" standalone="no"?>
<!DOCTYPE svg PUBLIC "-//W3C//DTD SVG 1.1//EN"
 "http://www.w3.org/Graphics/SVG/1.1/DTD/svg11.dtd">
<!-- Generated by graphviz version 8.1.0 (20230707.0739)
 -->
<!-- Title: math/modular_inverse_fermat_little_theorem.cpp Pages: 1 -->
<svg width="140pt" height="94pt"
 viewBox="0.00 0.00 139.50 93.75" xmlns="http://www.w3.org/2000/svg" xmlns:xlink="http://www.w3.org/1999/xlink">
<g id="graph0" class="graph" transform="scale(1 1) rotate(0) translate(4 89.75)">
<title>math/modular_inverse_fermat_little_theorem.cpp</title>
<!-- Node1 -->
<g id="Node000001" class="node">
<title>Node1</title>
<g id="a_Node000001"><a xlink:title="C++ Program to find the modular inverse using Fermat&#39;s Little Theorem">
<polygon fill="#999999" stroke="#666666" points="131.5,-85.75 0,-85.75 0,-55.25 131.5,-55.25 131.5,-85.75"/>
<text text-anchor="start" x="8" y="-72.25" font-family="Helvetica,sans-Serif" font-size="10.00">math/modular_inverse</text>
<text text-anchor="middle" x="65.75" y="-61" font-family="Helvetica,sans-Serif" font-size="10.00">_fermat_little_theorem.cpp</text>
</a>
</g>
</g>
<!-- Node2 -->
<g id="Node000002" class="node">
<title>Node2</title>
<g id="a_Node000002"><a xlink:title=" ">
<polygon fill="#e0e0e0" stroke="#999999" points="59.5,-19.25 6,-19.25 6,0 59.5,0 59.5,-19.25"/>
<text text-anchor="middle" x="32.75" y="-5.75" font-family="Helvetica,sans-Serif" font-size="10.00">iostream</text>
</a>
</g>
</g>
<!-- Node1&#45;&gt;Node2 -->
<g id="edge1_Node000001_Node000002" class="edge">
<title>Node1&#45;&gt;Node2</title>
<g id="a_edge1_Node000001_Node000002"><a xlink:title=" ">
<path fill="none" stroke="#63b8ff" d="M57.59,-54.95C53.24,-47.19 47.85,-37.56 43.2,-29.26"/>
<polygon fill="#63b8ff" stroke="#63b8ff" points="45.78,-27.71 37.84,-20.7 39.67,-31.14 45.78,-27.71"/>
</a>
</g>
</g>
<!-- Node3 -->
<g id="Node000003" class="node">
<title>Node3</title>
<g id="a_Node000003"><a xlink:title=" ">
<polygon fill="#e0e0e0" stroke="#999999" points="120.25,-19.25 77.25,-19.25 77.25,0 120.25,0 120.25,-19.25"/>
<text text-anchor="middle" x="98.75" y="-5.75" font-family="Helvetica,sans-Serif" font-size="10.00">vector</text>
</a>
</g>
</g>
<!-- Node1&#45;&gt;Node3 -->
<g id="edge2_Node000001_Node000003" class="edge">
<title>Node1&#45;&gt;Node3</title>
<g id="a_edge2_Node000001_Node000003"><a xlink:title=" ">
<path fill="none" stroke="#63b8ff" d="M73.91,-54.95C78.26,-47.19 83.65,-37.56 88.3,-29.26"/>
<polygon fill="#63b8ff" stroke="#63b8ff" points="91.83,-31.14 93.66,-20.7 85.72,-27.71 91.83,-31.14"/>
</a>
</g>
</g>
</g>
</svg>
