<?xml version="1.0" encoding="UTF-8" standalone="no"?>
<!DOCTYPE svg PUBLIC "-//W3C//DTD SVG 1.1//EN"
 "http://www.w3.org/Graphics/SVG/1.1/DTD/svg11.dtd">
<!-- Generated by graphviz version 5.0.1 (20220820.1526)
 -->
<!-- Title: graph/lowest_common_ancestor.cpp Pages: 1 -->
<svg width="312pt" height="93pt"
 viewBox="0.00 0.00 311.50 93.00" xmlns="http://www.w3.org/2000/svg" xmlns:xlink="http://www.w3.org/1999/xlink">
<g id="graph0" class="graph" transform="scale(1 1) rotate(0) translate(4 89)">
<title>graph/lowest_common_ancestor.cpp</title>
<!-- Node1 -->
<g id="node1" class="node">
<title>Node1</title>
<g id="a_node1"><a xlink:title="Data structure for finding the lowest common ancestor of two vertices in a rooted tree using binary l...">
<polygon fill="#999999" stroke="#666666" points="219,-85 104,-85 104,-55 219,-55 219,-85"/>
<text text-anchor="start" x="112" y="-73" font-family="Helvetica,sans-Serif" font-size="10.00">graph/lowest_common</text>
<text text-anchor="middle" x="161.5" y="-62" font-family="Helvetica,sans-Serif" font-size="10.00">_ancestor.cpp</text>
</a>
</g>
</g>
<!-- Node2 -->
<g id="node2" class="node">
<title>Node2</title>
<g id="a_node2"><a xlink:title=" ">
<polygon fill="#e0e0e0" stroke="#999999" points="49,-19 0,-19 0,0 49,0 49,-19"/>
<text text-anchor="middle" x="24.5" y="-7" font-family="Helvetica,sans-Serif" font-size="10.00">cassert</text>
</a>
</g>
</g>
<!-- Node1&#45;&gt;Node2 -->
<g id="edge1" class="edge">
<title>Node1&#45;&gt;Node2</title>
<path fill="none" stroke="#63b8ff" d="M128.69,-54.99C106.03,-45.31 76.15,-32.56 54.2,-23.18"/>
<polygon fill="#63b8ff" stroke="#63b8ff" points="55.3,-19.85 44.73,-19.14 52.55,-26.29 55.3,-19.85"/>
</g>
<!-- Node3 -->
<g id="node3" class="node">
<title>Node3</title>
<g id="a_node3"><a xlink:title=" ">
<polygon fill="#e0e0e0" stroke="#999999" points="121.5,-19 67.5,-19 67.5,0 121.5,0 121.5,-19"/>
<text text-anchor="middle" x="94.5" y="-7" font-family="Helvetica,sans-Serif" font-size="10.00">iostream</text>
</a>
</g>
</g>
<!-- Node1&#45;&gt;Node3 -->
<g id="edge2" class="edge">
<title>Node1&#45;&gt;Node3</title>
<path fill="none" stroke="#63b8ff" d="M145.28,-54.84C135.26,-46.09 122.39,-34.85 112.12,-25.88"/>
<polygon fill="#63b8ff" stroke="#63b8ff" points="114.37,-23.21 104.54,-19.27 109.77,-28.48 114.37,-23.21"/>
</g>
<!-- Node4 -->
<g id="node4" class="node">
<title>Node4</title>
<g id="a_node4"><a xlink:title=" ">
<polygon fill="#e0e0e0" stroke="#999999" points="183,-19 140,-19 140,0 183,0 183,-19"/>
<text text-anchor="middle" x="161.5" y="-7" font-family="Helvetica,sans-Serif" font-size="10.00">queue</text>
</a>
</g>
</g>
<!-- Node1&#45;&gt;Node4 -->
<g id="edge3" class="edge">
<title>Node1&#45;&gt;Node4</title>
<path fill="none" stroke="#63b8ff" d="M161.5,-54.84C161.5,-47.21 161.5,-37.7 161.5,-29.45"/>
<polygon fill="#63b8ff" stroke="#63b8ff" points="165,-29.27 161.5,-19.27 158,-29.27 165,-29.27"/>
</g>
<!-- Node5 -->
<g id="node5" class="node">
<title>Node5</title>
<g id="a_node5"><a xlink:title=" ">
<polygon fill="#e0e0e0" stroke="#999999" points="241.5,-19 201.5,-19 201.5,0 241.5,0 241.5,-19"/>
<text text-anchor="middle" x="221.5" y="-7" font-family="Helvetica,sans-Serif" font-size="10.00">utility</text>
</a>
</g>
</g>
<!-- Node1&#45;&gt;Node5 -->
<g id="edge4" class="edge">
<title>Node1&#45;&gt;Node5</title>
<path fill="none" stroke="#63b8ff" d="M176.02,-54.84C184.82,-46.26 196.07,-35.3 205.17,-26.42"/>
<polygon fill="#63b8ff" stroke="#63b8ff" points="207.79,-28.75 212.51,-19.27 202.91,-23.74 207.79,-28.75"/>
</g>
<!-- Node6 -->
<g id="node6" class="node">
<title>Node6</title>
<g id="a_node6"><a xlink:title=" ">
<polygon fill="#e0e0e0" stroke="#999999" points="303.5,-19 259.5,-19 259.5,0 303.5,0 303.5,-19"/>
<text text-anchor="middle" x="281.5" y="-7" font-family="Helvetica,sans-Serif" font-size="10.00">vector</text>
</a>
</g>
</g>
<!-- Node1&#45;&gt;Node6 -->
<g id="edge5" class="edge">
<title>Node1&#45;&gt;Node6</title>
<path fill="none" stroke="#63b8ff" d="M190.24,-54.99C209.82,-45.45 235.55,-32.9 254.7,-23.57"/>
<polygon fill="#63b8ff" stroke="#63b8ff" points="256.32,-26.67 263.78,-19.14 253.26,-20.38 256.32,-26.67"/>
</g>
</g>
</svg>
