<?xml version="1.0" encoding="UTF-8" standalone="no"?>
<!DOCTYPE svg PUBLIC "-//W3C//DTD SVG 1.1//EN"
 "http://www.w3.org/Graphics/SVG/1.1/DTD/svg11.dtd">
<!-- Generated by graphviz version 8.0.2 (20230410.1723)
 -->
<!-- Title: main Pages: 1 -->
<svg width="285pt" height="84pt"
 viewBox="0.00 0.00 285.00 84.00" xmlns="http://www.w3.org/2000/svg" xmlns:xlink="http://www.w3.org/1999/xlink">
<g id="graph0" class="graph" transform="scale(1 1) rotate(0) translate(4 80)">
<title>main</title>
<!-- Node1 -->
<g id="node1" class="node">
<title>Node1</title>
<g id="a_node1"><a xlink:title=" ">
<polygon fill="#999999" stroke="#666666" points="38,-57 0,-57 0,-38 38,-38 38,-57"/>
<text text-anchor="middle" x="19" y="-45" font-family="Helvetica,sans-Serif" font-size="10.00">main</text>
</a>
</g>
</g>
<!-- Node2 -->
<g id="node2" class="node">
<title>Node2</title>
<g id="a_node2"><a xlink:href="../../db/d93/check__prime_8cpp.html#aa18b3517017d99bb4024853bddba5532" target="_top" xlink:title="for IO operations">
<polygon fill="white" stroke="#666666" points="277,-76 224,-76 224,-57 277,-57 277,-76"/>
<text text-anchor="middle" x="250.5" y="-64" font-family="Helvetica,sans-Serif" font-size="10.00">is_prime</text>
</a>
</g>
</g>
<!-- Node1&#45;&gt;Node2 -->
<g id="edge1" class="edge">
<title>Node1&#45;&gt;Node2</title>
<path fill="none" stroke="#63b8ff" d="M38.31,-53.15C48.68,-56.13 61.95,-59.55 74,-61.5 121.51,-69.2 177.19,-69.3 212.87,-68.25"/>
<polygon fill="#63b8ff" stroke="#63b8ff" points="212.85,-71.72 222.72,-67.88 212.61,-64.72 212.85,-71.72"/>
</g>
<!-- Node3 -->
<g id="node3" class="node">
<title>Node3</title>
<g id="a_node3"><a xlink:href="../../d8/ddf/sieve__of__eratosthenes_8cpp.html#a7eebd5e7686a8db363f937b2f30d3818" target="_top" xlink:title=" ">
<polygon fill="white" stroke="#666666" points="188,-57 148,-57 148,-38 188,-38 188,-57"/>
<text text-anchor="middle" x="168" y="-45" font-family="Helvetica,sans-Serif" font-size="10.00">sieve</text>
</a>
</g>
</g>
<!-- Node1&#45;&gt;Node3 -->
<g id="edge2" class="edge">
<title>Node1&#45;&gt;Node3</title>
<path fill="none" stroke="#63b8ff" d="M38.32,-47.5C62.92,-47.5 106.94,-47.5 136.56,-47.5"/>
<polygon fill="#63b8ff" stroke="#63b8ff" points="136.51,-51 146.51,-47.5 136.51,-44 136.51,-51"/>
</g>
<!-- Node4 -->
<g id="node4" class="node">
<title>Node4</title>
<g id="a_node4"><a xlink:href="../../d8/ddf/sieve__of__eratosthenes_8cpp.html#a88ec9ad42717780d6caaff9d3d6977f9" target="_top" xlink:title=" ">
<polygon fill="white" stroke="#666666" points="112,-19 74,-19 74,0 112,0 112,-19"/>
<text text-anchor="middle" x="93" y="-7" font-family="Helvetica,sans-Serif" font-size="10.00">tests</text>
</a>
</g>
</g>
<!-- Node1&#45;&gt;Node4 -->
<g id="edge4" class="edge">
<title>Node1&#45;&gt;Node4</title>
<path fill="none" stroke="#63b8ff" d="M38.17,-37.91C45.95,-33.8 55.23,-28.91 63.87,-24.35"/>
<polygon fill="#63b8ff" stroke="#63b8ff" points="65.38,-26.98 72.59,-19.22 62.11,-20.79 65.38,-26.98"/>
</g>
<!-- Node3&#45;&gt;Node2 -->
<g id="edge3" class="edge">
<title>Node3&#45;&gt;Node2</title>
<path fill="none" stroke="#63b8ff" d="M188.49,-52.1C195.95,-53.86 204.72,-55.93 213.24,-57.94"/>
<polygon fill="#63b8ff" stroke="#63b8ff" points="212.26,-61.54 222.8,-60.43 213.87,-54.73 212.26,-61.54"/>
</g>
<!-- Node4&#45;&gt;Node3 -->
<g id="edge5" class="edge">
<title>Node4&#45;&gt;Node3</title>
<path fill="none" stroke="#63b8ff" d="M112.42,-19.09C120.19,-23.13 129.43,-27.94 138.07,-32.44"/>
<polygon fill="#63b8ff" stroke="#63b8ff" points="136.33,-36 146.82,-37.52 139.57,-29.79 136.33,-36"/>
</g>
</g>
</svg>
