<?xml version="1.0" encoding="UTF-8" standalone="no"?>
<!DOCTYPE svg PUBLIC "-//W3C//DTD SVG 1.1//EN"
 "http://www.w3.org/Graphics/SVG/1.1/DTD/svg11.dtd">
<!-- Generated by graphviz version 2.40.1 (20161225.0304)
 -->
<!-- Title: binomial_standard_deviation Pages: 1 -->
<svg width="279pt" height="66pt"
 viewBox="0.00 0.00 279.00 66.00" xmlns="http://www.w3.org/2000/svg" xmlns:xlink="http://www.w3.org/1999/xlink">
<g id="graph0" class="graph" transform="scale(1 1) rotate(0) translate(4 62)">
<title>binomial_standard_deviation</title>
<polygon fill="#ffffff" stroke="transparent" points="-4,4 -4,-62 275,-62 275,4 -4,4"/>
<!-- Node4 -->
<g id="node1" class="node">
<title>Node4</title>
<polygon fill="#bfbfbf" stroke="#000000" points="0,-19.5 0,-38.5 140,-38.5 140,-19.5 0,-19.5"/>
<text text-anchor="middle" x="70" y="-26.5" font-family="Helvetica,sans-Serif" font-size="10.00" fill="#000000">binomial_standard_deviation</text>
</g>
<!-- Node5 -->
<g id="node2" class="node">
<title>Node5</title>
<g id="a_node2"><a doxygen="/home/runner/work/C-Plus-Plus/C-Plus-Plus/doc/cppreference-doxygen-web.tag.xml:http://en.cppreference.com/w/" xlink:href="http://en.cppreference.com/w/cpp/numeric/math/sqrt.html#" target="_top" xlink:title="std::sqrt">
<polygon fill="#ffffff" stroke="#000000" points="197,-38.5 197,-57.5 250,-57.5 250,-38.5 197,-38.5"/>
<text text-anchor="middle" x="223.5" y="-45.5" font-family="Helvetica,sans-Serif" font-size="10.00" fill="#000000">std::sqrt</text>
</a>
</g>
</g>
<!-- Node4&#45;&gt;Node5 -->
<g id="edge1" class="edge">
<title>Node4&#45;&gt;Node5</title>
<path fill="none" stroke="#191970" d="M140.0121,-37.666C156.1425,-39.6626 172.6729,-41.7087 186.7238,-43.4479"/>
<polygon fill="#191970" stroke="#191970" points="186.5833,-46.9571 196.9376,-44.7121 187.4433,-40.0102 186.5833,-46.9571"/>
</g>
<!-- Node6 -->
<g id="node3" class="node">
<title>Node6</title>
<g id="a_node3"><a xlink:href="../../d6/db0/binomial__dist_8cpp.html#acd4dd4558031e4c5d045c801f73d8861" target="_top" xlink:title="binomial_variance">
<polygon fill="#ffffff" stroke="#000000" points="176,-.5 176,-19.5 271,-19.5 271,-.5 176,-.5"/>
<text text-anchor="middle" x="223.5" y="-7.5" font-family="Helvetica,sans-Serif" font-size="10.00" fill="#000000">binomial_variance</text>
</a>
</g>
</g>
<!-- Node4&#45;&gt;Node6 -->
<g id="edge2" class="edge">
<title>Node4&#45;&gt;Node6</title>
<path fill="none" stroke="#191970" d="M140.0121,-20.334C148.6691,-19.2625 157.4413,-18.1766 165.8836,-17.1317"/>
<polygon fill="#191970" stroke="#191970" points="166.4935,-20.583 175.9878,-15.881 165.6335,-13.636 166.4935,-20.583"/>
</g>
</g>
</svg>
