<?xml version="1.0" encoding="UTF-8" standalone="no"?>
<!DOCTYPE svg PUBLIC "-//W3C//DTD SVG 1.1//EN"
 "http://www.w3.org/Graphics/SVG/1.1/DTD/svg11.dtd">
<!-- Generated by graphviz version 5.0.0 (20220707.1540)
 -->
<!-- Title: binomial_range_successes Pages: 1 -->
<svg width="232pt" height="66pt"
 viewBox="0.00 0.00 232.00 66.00" xmlns="http://www.w3.org/2000/svg" xmlns:xlink="http://www.w3.org/1999/xlink">
<g id="graph0" class="graph" transform="scale(1 1) rotate(0) translate(4 62)">
<title>binomial_range_successes</title>
<polygon fill="white" stroke="transparent" points="-4,4 -4,-62 228,-62 228,4 -4,4"/>
<!-- Node1 -->
<g id="node1" class="node">
<title>Node1</title>
<g id="a_node1"><a xlink:title=" ">
<polygon fill="#bfbfbf" stroke="black" points="0,-19.5 0,-38.5 134,-38.5 134,-19.5 0,-19.5"/>
<text text-anchor="middle" x="67" y="-26.5" font-family="Helvetica,sans-Serif" font-size="10.00">binomial_range_successes</text>
</a>
</g>
</g>
<!-- Node2 -->
<g id="node2" class="node">
<title>Node2</title>
<g id="a_node2"><a xlink:href="../../d6/db0/binomial__dist_8cpp.html#a78d36635232e54b5d71fcbf1eac9a49a" target="_top" xlink:title=" ">
<polygon fill="white" stroke="black" points="181,-38.5 181,-57.5 213,-57.5 213,-38.5 181,-38.5"/>
<text text-anchor="middle" x="197" y="-45.5" font-family="Helvetica,sans-Serif" font-size="10.00">nCr</text>
</a>
</g>
</g>
<!-- Node1&#45;&gt;Node2 -->
<g id="edge1" class="edge">
<title>Node1&#45;&gt;Node2</title>
<path fill="none" stroke="midnightblue" d="M132.37,-38.56C146.01,-40.58 159.62,-42.6 170.73,-44.25"/>
<polygon fill="midnightblue" stroke="midnightblue" points="170.52,-47.76 180.92,-45.76 171.54,-40.83 170.52,-47.76"/>
</g>
<!-- Node3 -->
<g id="node3" class="node">
<title>Node3</title>
<g id="a_node3"><a target="_blank" xlink:href="http://en.cppreference.com/w/cpp/numeric/math/pow.html#" xlink:title=" ">
<polygon fill="white" stroke="black" points="170,-0.5 170,-19.5 224,-19.5 224,-0.5 170,-0.5"/>
<text text-anchor="middle" x="197" y="-7.5" font-family="Helvetica,sans-Serif" font-size="10.00">std::pow</text>
</a>
</g>
</g>
<!-- Node1&#45;&gt;Node3 -->
<g id="edge2" class="edge">
<title>Node1&#45;&gt;Node3</title>
<path fill="none" stroke="midnightblue" d="M132.37,-19.44C141.85,-18.04 151.31,-16.63 159.93,-15.35"/>
<polygon fill="midnightblue" stroke="midnightblue" points="160.59,-18.79 169.97,-13.86 159.56,-11.87 160.59,-18.79"/>
</g>
</g>
</svg>
