<?xml version="1.0" encoding="UTF-8" standalone="no"?>
<!DOCTYPE svg PUBLIC "-//W3C//DTD SVG 1.1//EN"
 "http://www.w3.org/Graphics/SVG/1.1/DTD/svg11.dtd">
<!-- Generated by graphviz version 8.0.4 (20230421.1958)
 -->
<!-- Title: binomial_range_successes Pages: 1 -->
<svg width="231pt" height="64pt"
 viewBox="0.00 0.00 231.25 64.25" xmlns="http://www.w3.org/2000/svg" xmlns:xlink="http://www.w3.org/1999/xlink">
<g id="graph0" class="graph" transform="scale(1 1) rotate(0) translate(4 60.25)">
<title>binomial_range_successes</title>
<!-- Node1 -->
<g id="node1" class="node">
<title>Node1</title>
<g id="a_node1"><a xlink:title=" ">
<polygon fill="#999999" stroke="#666666" points="133.75,-37.25 0,-37.25 0,-18 133.75,-18 133.75,-37.25"/>
<text text-anchor="middle" x="66.88" y="-23.75" font-family="Helvetica,sans-Serif" font-size="10.00">binomial_range_successes</text>
</a>
</g>
</g>
<!-- Node2 -->
<g id="node2" class="node">
<title>Node2</title>
<g id="a_node2"><a xlink:href="../../d6/db0/binomial__dist_8cpp.html#a78d36635232e54b5d71fcbf1eac9a49a" target="_top" xlink:title=" ">
<polygon fill="white" stroke="#666666" points="212.38,-56.25 180.62,-56.25 180.62,-37 212.38,-37 212.38,-56.25"/>
<text text-anchor="middle" x="196.5" y="-42.75" font-family="Helvetica,sans-Serif" font-size="10.00">nCr</text>
</a>
</g>
</g>
<!-- Node1&#45;&gt;Node2 -->
<g id="edge1" class="edge">
<title>Node1&#45;&gt;Node2</title>
<path fill="none" stroke="#63b8ff" d="M133.93,-37.46C146.57,-39.34 159.09,-41.2 169.51,-42.76"/>
<polygon fill="#63b8ff" stroke="#63b8ff" points="168.86,-46.35 179.27,-44.36 169.89,-39.42 168.86,-46.35"/>
</g>
<!-- Node3 -->
<g id="node3" class="node">
<title>Node3</title>
<g id="a_node3"><a target="_blank" xlink:href="http://en.cppreference.com/w/cpp/numeric/math/pow.html#" xlink:title=" ">
<polygon fill="white" stroke="#666666" points="223.25,-19.25 169.75,-19.25 169.75,0 223.25,0 223.25,-19.25"/>
<text text-anchor="middle" x="196.5" y="-5.75" font-family="Helvetica,sans-Serif" font-size="10.00">std::pow</text>
</a>
</g>
</g>
<!-- Node1&#45;&gt;Node3 -->
<g id="edge2" class="edge">
<title>Node1&#45;&gt;Node3</title>
<path fill="none" stroke="#63b8ff" d="M133.93,-18.31C142.43,-17.11 150.88,-15.92 158.67,-14.82"/>
<polygon fill="#63b8ff" stroke="#63b8ff" points="159.13,-18.15 168.54,-13.29 158.15,-11.22 159.13,-18.15"/>
</g>
</g>
</svg>
