<?xml version="1.0" encoding="UTF-8" standalone="no"?>
<!DOCTYPE svg PUBLIC "-//W3C//DTD SVG 1.1//EN"
 "http://www.w3.org/Graphics/SVG/1.1/DTD/svg11.dtd">
<!-- Generated by graphviz version 7.0.6 (20230106.0513)
 -->
<!-- Title: main Pages: 1 -->
<svg width="353pt" height="214pt"
 viewBox="0.00 0.00 353.00 214.00" xmlns="http://www.w3.org/2000/svg" xmlns:xlink="http://www.w3.org/1999/xlink">
<g id="graph0" class="graph" transform="scale(1 1) rotate(0) translate(4 210)">
<title>main</title>
<!-- Node1 -->
<g id="node1" class="node">
<title>Node1</title>
<g id="a_node1"><a xlink:title=" ">
<polygon fill="#999999" stroke="#666666" points="38,-113 0,-113 0,-94 38,-94 38,-113"/>
<text text-anchor="middle" x="19" y="-101" font-family="Helvetica,sans-Serif" font-size="10.00">main</text>
</a>
</g>
</g>
<!-- Node2 -->
<g id="node2" class="node">
<title>Node2</title>
<g id="a_node2"><a xlink:href="../../d6/db0/binomial__dist_8cpp.html#a4416a7bc7fa87201883c54cdc4c82813" target="_top" xlink:title=" ">
<polygon fill="white" stroke="#666666" points="193,-206 95,-206 95,-187 193,-187 193,-206"/>
<text text-anchor="middle" x="144" y="-194" font-family="Helvetica,sans-Serif" font-size="10.00">binomial_expected</text>
</a>
</g>
</g>
<!-- Node1&#45;&gt;Node2 -->
<g id="edge1" class="edge">
<title>Node1&#45;&gt;Node2</title>
<path fill="none" stroke="#63b8ff" d="M24.38,-113.47C32.03,-129.68 49.39,-161.63 74,-178.5 77.21,-180.7 80.68,-182.63 84.28,-184.33"/>
<polygon fill="#63b8ff" stroke="#63b8ff" points="82.74,-187.48 93.32,-187.95 85.34,-180.98 82.74,-187.48"/>
</g>
<!-- Node3 -->
<g id="node3" class="node">
<title>Node3</title>
<g id="a_node3"><a xlink:href="../../d6/db0/binomial__dist_8cpp.html#a76ed6ce71415fb400b65f0656cef3d25" target="_top" xlink:title=" ">
<polygon fill="white" stroke="#666666" points="211,-169 77,-169 77,-150 211,-150 211,-169"/>
<text text-anchor="middle" x="144" y="-157" font-family="Helvetica,sans-Serif" font-size="10.00">binomial_range_successes</text>
</a>
</g>
</g>
<!-- Node1&#45;&gt;Node3 -->
<g id="edge2" class="edge">
<title>Node1&#45;&gt;Node3</title>
<path fill="none" stroke="#63b8ff" d="M31.26,-113.25C41.7,-121.83 57.98,-134.07 74,-141.5 77.53,-143.14 81.24,-144.65 85.02,-146.03"/>
<polygon fill="#63b8ff" stroke="#63b8ff" points="83.78,-149.31 94.37,-149.13 85.99,-142.66 83.78,-149.31"/>
</g>
<!-- Node6 -->
<g id="node6" class="node">
<title>Node6</title>
<g id="a_node6"><a xlink:href="../../d6/db0/binomial__dist_8cpp.html#af09e51f513cee647d41192ab0a872cdc" target="_top" xlink:title=" ">
<polygon fill="white" stroke="#666666" points="214,-56 74,-56 74,-37 214,-37 214,-56"/>
<text text-anchor="middle" x="144" y="-44" font-family="Helvetica,sans-Serif" font-size="10.00">binomial_standard_deviation</text>
</a>
</g>
</g>
<!-- Node1&#45;&gt;Node6 -->
<g id="edge5" class="edge">
<title>Node1&#45;&gt;Node6</title>
<path fill="none" stroke="#63b8ff" d="M34.2,-93.66C44.82,-86.59 59.9,-77.17 74,-70.5 81.89,-66.77 90.53,-63.31 98.94,-60.24"/>
<polygon fill="#63b8ff" stroke="#63b8ff" points="100.07,-63.56 108.36,-56.95 97.76,-56.95 100.07,-63.56"/>
</g>
<!-- Node7 -->
<g id="node7" class="node">
<title>Node7</title>
<g id="a_node7"><a xlink:href="../../d6/db0/binomial__dist_8cpp.html#acd4dd4558031e4c5d045c801f73d8861" target="_top" xlink:title=" ">
<polygon fill="white" stroke="#666666" points="345,-94 250,-94 250,-75 345,-75 345,-94"/>
<text text-anchor="middle" x="297.5" y="-82" font-family="Helvetica,sans-Serif" font-size="10.00">binomial_variance</text>
</a>
</g>
</g>
<!-- Node1&#45;&gt;Node7 -->
<g id="edge8" class="edge">
<title>Node1&#45;&gt;Node7</title>
<path fill="none" stroke="#63b8ff" d="M38.14,-102.25C78.12,-99.51 175.28,-92.83 238.39,-88.49"/>
<polygon fill="#63b8ff" stroke="#63b8ff" points="238.52,-91.99 248.25,-87.82 238.04,-85.01 238.52,-91.99"/>
</g>
<!-- Node9 -->
<g id="node9" class="node">
<title>Node9</title>
<g id="a_node9"><a xlink:href="../../d6/db0/binomial__dist_8cpp.html#a19ae0a6a2bd200fd1eb0e31b2bf4cc76" target="_top" xlink:title=" ">
<polygon fill="white" stroke="#666666" points="202,-132 86,-132 86,-113 202,-113 202,-132"/>
<text text-anchor="middle" x="144" y="-120" font-family="Helvetica,sans-Serif" font-size="10.00">binomial_x_successes</text>
</a>
</g>
</g>
<!-- Node1&#45;&gt;Node9 -->
<g id="edge9" class="edge">
<title>Node1&#45;&gt;Node9</title>
<path fill="none" stroke="#63b8ff" d="M38.41,-106.34C48.31,-107.87 61.2,-109.86 74.53,-111.92"/>
<polygon fill="#63b8ff" stroke="#63b8ff" points="73.86,-115.36 84.27,-113.43 74.93,-108.44 73.86,-115.36"/>
</g>
<!-- Node10 -->
<g id="node10" class="node">
<title>Node10</title>
<g id="a_node10"><a target="_blank" xlink:href="http://en.cppreference.com/w/cpp/io/manip/endl.html#" xlink:title=" ">
<polygon fill="white" stroke="#666666" points="171,-19 117,-19 117,0 171,0 171,-19"/>
<text text-anchor="middle" x="144" y="-7" font-family="Helvetica,sans-Serif" font-size="10.00">std::endl</text>
</a>
</g>
</g>
<!-- Node1&#45;&gt;Node10 -->
<g id="edge12" class="edge">
<title>Node1&#45;&gt;Node10</title>
<path fill="none" stroke="#63b8ff" d="M24.23,-93.66C31.76,-77.32 49.09,-44.69 74,-27.5 83.3,-21.08 94.74,-16.95 105.62,-14.29"/>
<polygon fill="#63b8ff" stroke="#63b8ff" points="106.06,-17.78 115.15,-12.33 104.64,-10.92 106.06,-17.78"/>
</g>
<!-- Node4 -->
<g id="node4" class="node">
<title>Node4</title>
<g id="a_node4"><a xlink:href="../../d6/db0/binomial__dist_8cpp.html#a78d36635232e54b5d71fcbf1eac9a49a" target="_top" xlink:title=" ">
<polygon fill="white" stroke="#666666" points="313.5,-169 281.5,-169 281.5,-150 313.5,-150 313.5,-169"/>
<text text-anchor="middle" x="297.5" y="-157" font-family="Helvetica,sans-Serif" font-size="10.00">nCr</text>
</a>
</g>
</g>
<!-- Node3&#45;&gt;Node4 -->
<g id="edge3" class="edge">
<title>Node3&#45;&gt;Node4</title>
<path fill="none" stroke="#63b8ff" d="M211.45,-159.5C232.1,-159.5 253.69,-159.5 269.95,-159.5"/>
<polygon fill="#63b8ff" stroke="#63b8ff" points="269.73,-163 279.73,-159.5 269.73,-156 269.73,-163"/>
</g>
<!-- Node5 -->
<g id="node5" class="node">
<title>Node5</title>
<g id="a_node5"><a target="_blank" xlink:href="http://en.cppreference.com/w/cpp/numeric/math/pow.html#" xlink:title=" ">
<polygon fill="white" stroke="#666666" points="324.5,-132 270.5,-132 270.5,-113 324.5,-113 324.5,-132"/>
<text text-anchor="middle" x="297.5" y="-120" font-family="Helvetica,sans-Serif" font-size="10.00">std::pow</text>
</a>
</g>
</g>
<!-- Node3&#45;&gt;Node5 -->
<g id="edge4" class="edge">
<title>Node3&#45;&gt;Node5</title>
<path fill="none" stroke="#63b8ff" d="M185.6,-149.58C208.44,-144.01 236.76,-137.09 259.06,-131.64"/>
<polygon fill="#63b8ff" stroke="#63b8ff" points="259.76,-135.08 268.64,-129.3 258.1,-128.28 259.76,-135.08"/>
</g>
<!-- Node6&#45;&gt;Node7 -->
<g id="edge6" class="edge">
<title>Node6&#45;&gt;Node7</title>
<path fill="none" stroke="#63b8ff" d="M184.8,-56.48C203.43,-61.16 225.84,-66.78 245.67,-71.75"/>
<polygon fill="#63b8ff" stroke="#63b8ff" points="244.68,-75.11 255.23,-74.15 246.38,-68.32 244.68,-75.11"/>
</g>
<!-- Node8 -->
<g id="node8" class="node">
<title>Node8</title>
<g id="a_node8"><a target="_blank" xlink:href="http://en.cppreference.com/w/cpp/numeric/math/sqrt.html#" xlink:title=" ">
<polygon fill="white" stroke="#666666" points="324,-56 271,-56 271,-37 324,-37 324,-56"/>
<text text-anchor="middle" x="297.5" y="-44" font-family="Helvetica,sans-Serif" font-size="10.00">std::sqrt</text>
</a>
</g>
</g>
<!-- Node6&#45;&gt;Node8 -->
<g id="edge7" class="edge">
<title>Node6&#45;&gt;Node8</title>
<path fill="none" stroke="#63b8ff" d="M214.1,-46.5C229.67,-46.5 245.62,-46.5 259.29,-46.5"/>
<polygon fill="#63b8ff" stroke="#63b8ff" points="259.13,-50 269.13,-46.5 259.13,-43 259.13,-50"/>
</g>
<!-- Node9&#45;&gt;Node4 -->
<g id="edge10" class="edge">
<title>Node9&#45;&gt;Node4</title>
<path fill="none" stroke="#63b8ff" d="M185.6,-132.42C212.47,-138.98 246.92,-147.39 270.24,-153.09"/>
<polygon fill="#63b8ff" stroke="#63b8ff" points="269.31,-156.46 279.85,-155.43 270.97,-149.66 269.31,-156.46"/>
</g>
<!-- Node9&#45;&gt;Node5 -->
<g id="edge11" class="edge">
<title>Node9&#45;&gt;Node5</title>
<path fill="none" stroke="#63b8ff" d="M202.28,-122.5C221.2,-122.5 241.77,-122.5 258.84,-122.5"/>
<polygon fill="#63b8ff" stroke="#63b8ff" points="258.53,-126 268.53,-122.5 258.53,-119 258.53,-126"/>
</g>
</g>
</svg>
