<?xml version="1.0" encoding="UTF-8" standalone="no"?>
<!DOCTYPE svg PUBLIC "-//W3C//DTD SVG 1.1//EN"
 "http://www.w3.org/Graphics/SVG/1.1/DTD/svg11.dtd">
<!-- Generated by graphviz version 7.0.0 (20221023.0053)
 -->
<!-- Title: backtracking::subset_sum::number_of_subsets Pages: 1 -->
<svg width="263pt" height="56pt"
 viewBox="0.00 0.00 263.00 56.00" xmlns="http://www.w3.org/2000/svg" xmlns:xlink="http://www.w3.org/1999/xlink">
<g id="graph0" class="graph" transform="scale(1 1) rotate(0) translate(4 52)">
<title>backtracking::subset_sum::number_of_subsets</title>
<!-- Node1 -->
<g id="node1" class="node">
<title>Node1</title>
<g id="a_node1"><a xlink:title="The main function implements count of subsets.">
<polygon fill="#999999" stroke="#666666" points="132,-30 0,-30 0,0 132,0 132,-30"/>
<text text-anchor="start" x="8" y="-18" font-family="Helvetica,sans-Serif" font-size="10.00">backtracking::subset</text>
<text text-anchor="middle" x="66" y="-7" font-family="Helvetica,sans-Serif" font-size="10.00">_sum::number_of_subsets</text>
</a>
</g>
</g>
<!-- Node1&#45;&gt;Node1 -->
<g id="edge1" class="edge">
<title>Node1&#45;&gt;Node1</title>
<path fill="none" stroke="#63b8ff" d="M40.42,-30.28C34.74,-39.41 43.27,-48 66,-48 78.43,-48 86.62,-45.43 90.55,-41.61"/>
<polygon fill="#63b8ff" stroke="#63b8ff" points="94.02,-42.06 91.44,-31.78 87.05,-41.43 94.02,-42.06"/>
</g>
<!-- Node2 -->
<g id="node2" class="node">
<title>Node2</title>
<g id="a_node2"><a target="_blank" xlink:href="http://en.cppreference.com/w/cpp/container/vector/size.html#" xlink:title=" ">
<polygon fill="white" stroke="#666666" points="255,-24.5 168,-24.5 168,-5.5 255,-5.5 255,-24.5"/>
<text text-anchor="middle" x="211.5" y="-12.5" font-family="Helvetica,sans-Serif" font-size="10.00">std::vector::size</text>
</a>
</g>
</g>
<!-- Node1&#45;&gt;Node2 -->
<g id="edge2" class="edge">
<title>Node1&#45;&gt;Node2</title>
<path fill="none" stroke="#63b8ff" d="M132.45,-15C140.4,-15 148.46,-15 156.22,-15"/>
<polygon fill="#63b8ff" stroke="#63b8ff" points="156.22,-18.5 166.22,-15 156.22,-11.5 156.22,-18.5"/>
</g>
</g>
</svg>
