<?xml version="1.0" encoding="UTF-8" standalone="no"?>
<!DOCTYPE svg PUBLIC "-//W3C//DTD SVG 1.1//EN"
 "http://www.w3.org/Graphics/SVG/1.1/DTD/svg11.dtd">
<!-- Generated by graphviz version 2.49.3 (20211023.0002)
 -->
<!-- Title: machine_learning/vector_ops.hpp Pages: 1 -->
<svg width="134pt" height="106pt"
 viewBox="0.00 0.00 134.00 106.00" xmlns="http://www.w3.org/2000/svg" xmlns:xlink="http://www.w3.org/1999/xlink">
<g id="graph0" class="graph" transform="scale(1 1) rotate(0) translate(4 102)">
<title>machine_learning/vector_ops.hpp</title>
<polygon fill="white" stroke="transparent" points="-4,4 -4,-102 130,-102 130,4 -4,4"/>
<!-- Node1 -->
<g id="node1" class="node">
<title>Node1</title>
<g id="a_node1"><a xlink:title="Various functions for vectors associated with &lt;a href=&quot;https://en.wikipedia.org/wiki/Multilayer_perce...">
<polygon fill="#bfbfbf" stroke="black" points="0.5,-67.5 0.5,-97.5 125.5,-97.5 125.5,-67.5 0.5,-67.5"/>
<text text-anchor="start" x="8.5" y="-85.5" font-family="Helvetica,sans-Serif" font-size="10.00">machine_learning/vector</text>
<text text-anchor="middle" x="63" y="-74.5" font-family="Helvetica,sans-Serif" font-size="10.00">_ops.hpp</text>
</a>
</g>
</g>
<!-- Node2 -->
<g id="node2" class="node">
<title>Node2</title>
<g id="a_node2"><a xlink:href="../../d2/d58/neural__network_8cpp.html" target="_top" xlink:title="Implementation of Multilayer Perceptron.">
<polygon fill="white" stroke="black" points="0,-0.5 0,-30.5 126,-30.5 126,-0.5 0,-0.5"/>
<text text-anchor="start" x="8" y="-18.5" font-family="Helvetica,sans-Serif" font-size="10.00">machine_learning/neural</text>
<text text-anchor="middle" x="63" y="-7.5" font-family="Helvetica,sans-Serif" font-size="10.00">_network.cpp</text>
</a>
</g>
</g>
<!-- Node1&#45;&gt;Node2 -->
<g id="edge1" class="edge">
<title>Node1&#45;&gt;Node2</title>
<path fill="none" stroke="midnightblue" d="M63,-57.11C63,-48.15 63,-38.32 63,-30.58"/>
<polygon fill="midnightblue" stroke="midnightblue" points="59.5,-57.4 63,-67.4 66.5,-57.4 59.5,-57.4"/>
</g>
</g>
</svg>
