<?xml version="1.0" encoding="UTF-8" standalone="no"?>
<!DOCTYPE svg PUBLIC "-//W3C//DTD SVG 1.1//EN"
 "http://www.w3.org/Graphics/SVG/1.1/DTD/svg11.dtd">
<!-- Generated by graphviz version 5.0.0 (20220707.1540)
 -->
<!-- Title: test Pages: 1 -->
<!--zoomable 338 -->
<svg id="main" version="1.1" xmlns="http://www.w3.org/2000/svg" xmlns:xlink="http://www.w3.org/1999/xlink" xml:space="preserve" onload="init(evt)">
<style type="text/css"><![CDATA[
.edge:hover path { stroke: red; }
.edge:hover polygon { stroke: red; fill: red; }
]]></style>
<script type="text/javascript"><![CDATA[
var edges = document.getElementsByTagName('g');
if (edges && edges.length) {
  for (var i=0;i<edges.length;i++) {
    if (edges[i].id.substr(0,4)=='edge') {
      edges[i].setAttribute('class','edge');
    }
  }
}
]]></script>
        <defs>
                <circle id="rim" cx="0" cy="0" r="7"/>
                <circle id="rim2" cx="0" cy="0" r="3.5"/>
                <g id="zoomPlus">
                        <use xlink:href="#rim" fill="#404040">
                                <set attributeName="fill" to="#808080" begin="zoomplus.mouseover" end="zoomplus.mouseout"/>
                        </use>
                        <path d="M-4,0h8M0,-4v8" fill="none" stroke="white" stroke-width="1.5" pointer-events="none"/>
                </g>
                <g id="zoomMin">
                        <use xlink:href="#rim" fill="#404040">
                                <set attributeName="fill" to="#808080" begin="zoomminus.mouseover" end="zoomminus.mouseout"/>
                        </use>
                        <path d="M-4,0h8" fill="none" stroke="white" stroke-width="1.5" pointer-events="none"/>
                </g>
                <g id="dirArrow">
                        <path fill="none" stroke="white" stroke-width="1.5" d="M0,-3.0v7 M-2.5,-0.5L0,-3.0L2.5,-0.5"/>
                </g>
               <g id="resetDef">
                       <use xlink:href="#rim2" fill="#404040">
                               <set attributeName="fill" to="#808080" begin="reset.mouseover" end="reset.mouseout"/>
                       </use>
               </g>
        </defs>

<script type="text/javascript">
var viewWidth = 524;
var viewHeight = 338;
var sectionId = 'dynsection-2';
</script>
<script xlink:href="../../svgpan.js"/>
<svg id="graph" class="graph">
<g id="viewport">
<title>test</title>
<polygon fill="white" stroke="transparent" points="-4,4 -4,-334 520,-334 520,4 -4,4"/>
<!-- Node1 -->
<g id="node1" class="node">
<title>Node1</title>
<g id="a_node1"><a xlink:title="Self&#45;test implementations.">
<polygon fill="#bfbfbf" stroke="black" points="0,-212.5 0,-231.5 33,-231.5 33,-212.5 0,-212.5"/>
<text text-anchor="middle" x="16.5" y="-219.5" font-family="Helvetica,sans-Serif" font-size="10.00">test</text>
</a>
</g>
</g>
<!-- Node2 -->
<g id="node2" class="node">
<title>Node2</title>
<g id="a_node2"><a xlink:href="../../df/d34/classprobability_1_1windowed__median_1_1_windowed_median.html#a938cafbdf70dc01e86e9bb12d29ec65d" target="_top" xlink:title="Gets the median of the values in the sliding window.">
<polygon fill="white" stroke="black" points="69,-201.5 69,-242.5 206,-242.5 206,-201.5 69,-201.5"/>
<text text-anchor="start" x="77" y="-230.5" font-family="Helvetica,sans-Serif" font-size="10.00">probability::windowed</text>
<text text-anchor="start" x="77" y="-219.5" font-family="Helvetica,sans-Serif" font-size="10.00">_median::WindowedMedian</text>
<text text-anchor="middle" x="137.5" y="-208.5" font-family="Helvetica,sans-Serif" font-size="10.00">::getMedian</text>
</a>
</g>
</g>
<!-- Node1&#45;&gt;Node2 -->
<g id="edge1" class="edge">
<title>Node1&#45;&gt;Node2</title>
<path fill="none" stroke="midnightblue" d="M33.06,-222C40.12,-222 49.04,-222 58.68,-222"/>
<polygon fill="midnightblue" stroke="midnightblue" points="58.93,-225.5 68.93,-222 58.93,-218.5 58.93,-225.5"/>
</g>
<!-- Node4 -->
<g id="node4" class="node">
<title>Node4</title>
<g id="a_node4"><a xlink:href="../../df/d34/classprobability_1_1windowed__median_1_1_windowed_median.html#a61804988fcb1a6caf640f8291979aaa6" target="_top" xlink:title="A naive and inefficient method to obtain the median of the sliding window. Used for testing!">
<polygon fill="white" stroke="black" points="69,-280.5 69,-321.5 206,-321.5 206,-280.5 69,-280.5"/>
<text text-anchor="start" x="77" y="-309.5" font-family="Helvetica,sans-Serif" font-size="10.00">probability::windowed</text>
<text text-anchor="start" x="77" y="-298.5" font-family="Helvetica,sans-Serif" font-size="10.00">_median::WindowedMedian</text>
<text text-anchor="middle" x="137.5" y="-287.5" font-family="Helvetica,sans-Serif" font-size="10.00">::getMedianNaive</text>
</a>
</g>
</g>
<!-- Node1&#45;&gt;Node4 -->
<g id="edge3" class="edge">
<title>Node1&#45;&gt;Node4</title>
<path fill="none" stroke="midnightblue" d="M32.09,-231.69C48.09,-242.31 74.45,-259.8 96.67,-274.56"/>
<polygon fill="midnightblue" stroke="midnightblue" points="95.01,-277.65 105.27,-280.27 98.88,-271.82 95.01,-277.65"/>
</g>
<!-- Node6 -->
<g id="node6" class="node">
<title>Node6</title>
<g id="a_node6"><a xlink:href="../../df/d34/classprobability_1_1windowed__median_1_1_windowed_median.html#a6b52b7851750f28d53508e63c52a69f7" target="_top" xlink:title="Insert a new value to the stream.">
<polygon fill="white" stroke="black" points="69,-125.5 69,-166.5 206,-166.5 206,-125.5 69,-125.5"/>
<text text-anchor="start" x="77" y="-154.5" font-family="Helvetica,sans-Serif" font-size="10.00">probability::windowed</text>
<text text-anchor="start" x="77" y="-143.5" font-family="Helvetica,sans-Serif" font-size="10.00">_median::WindowedMedian</text>
<text text-anchor="middle" x="137.5" y="-132.5" font-family="Helvetica,sans-Serif" font-size="10.00">::insert</text>
</a>
</g>
</g>
<!-- Node1&#45;&gt;Node6 -->
<g id="edge5" class="edge">
<title>Node1&#45;&gt;Node6</title>
<path fill="none" stroke="midnightblue" d="M32.57,-212.37C48.36,-202.29 73.85,-186.01 95.64,-172.1"/>
<polygon fill="midnightblue" stroke="midnightblue" points="97.54,-175.04 104.08,-166.7 93.77,-169.14 97.54,-175.04"/>
</g>
<!-- Node3 -->
<g id="node3" class="node">
<title>Node3</title>
<g id="a_node3"><a target="_blank" xlink:href="http://en.cppreference.com/w/cpp/container/multiset/size.html#" xlink:title=" ">
<polygon fill="white" stroke="black" points="418,-212.5 418,-231.5 513,-231.5 513,-212.5 418,-212.5"/>
<text text-anchor="middle" x="465.5" y="-219.5" font-family="Helvetica,sans-Serif" font-size="10.00">std::multiset::size</text>
</a>
</g>
</g>
<!-- Node2&#45;&gt;Node3 -->
<g id="edge2" class="edge">
<title>Node2&#45;&gt;Node3</title>
<path fill="none" stroke="midnightblue" d="M206.05,-222C265.57,-222 351.3,-222 407.45,-222"/>
<polygon fill="midnightblue" stroke="midnightblue" points="407.57,-225.5 417.57,-222 407.57,-218.5 407.57,-225.5"/>
</g>
<!-- Node5 -->
<g id="node5" class="node">
<title>Node5</title>
<g id="a_node5"><a target="_blank" xlink:href="http://en.cppreference.com/w/cpp/container/list/sort.html#" xlink:title=" ">
<polygon fill="white" stroke="black" points="275,-310.5 275,-329.5 346,-329.5 346,-310.5 275,-310.5"/>
<text text-anchor="middle" x="310.5" y="-317.5" font-family="Helvetica,sans-Serif" font-size="10.00">std::list::sort</text>
</a>
</g>
</g>
<!-- Node4&#45;&gt;Node5 -->
<g id="edge4" class="edge">
<title>Node4&#45;&gt;Node5</title>
<path fill="none" stroke="midnightblue" d="M206.08,-308.51C225.75,-310.69 246.74,-313.03 264.63,-315.01"/>
<polygon fill="midnightblue" stroke="midnightblue" points="264.45,-318.52 274.78,-316.14 265.23,-311.56 264.45,-318.52"/>
</g>
<!-- Node7 -->
<g id="node7" class="node">
<title>Node7</title>
<g id="a_node7"><a xlink:href="../../df/d34/classprobability_1_1windowed__median_1_1_windowed_median.html#af544e271ea19a6fd69a6b3ed6816453e" target="_top" xlink:title="Erases a value from a sorted multi&#45;value BST.">
<polygon fill="white" stroke="black" points="242,-76.5 242,-117.5 379,-117.5 379,-76.5 242,-76.5"/>
<text text-anchor="start" x="250" y="-105.5" font-family="Helvetica,sans-Serif" font-size="10.00">probability::windowed</text>
<text text-anchor="start" x="250" y="-94.5" font-family="Helvetica,sans-Serif" font-size="10.00">_median::WindowedMedian</text>
<text text-anchor="middle" x="310.5" y="-83.5" font-family="Helvetica,sans-Serif" font-size="10.00">::eraseFromSorted</text>
</a>
</g>
</g>
<!-- Node6&#45;&gt;Node7 -->
<g id="edge6" class="edge">
<title>Node6&#45;&gt;Node7</title>
<path fill="none" stroke="midnightblue" d="M206.08,-126.63C214.63,-124.18 223.43,-121.66 232.11,-119.18"/>
<polygon fill="midnightblue" stroke="midnightblue" points="233.2,-122.51 241.85,-116.39 231.27,-115.78 233.2,-122.51"/>
</g>
<!-- Node10 -->
<g id="node10" class="node">
<title>Node10</title>
<g id="a_node10"><a target="_blank" xlink:href="http://en.cppreference.com/w/cpp/container/list/front.html#" xlink:title=" ">
<polygon fill="white" stroke="black" points="273.5,-136.5 273.5,-155.5 347.5,-155.5 347.5,-136.5 273.5,-136.5"/>
<text text-anchor="middle" x="310.5" y="-143.5" font-family="Helvetica,sans-Serif" font-size="10.00">std::list::front</text>
</a>
</g>
</g>
<!-- Node6&#45;&gt;Node10 -->
<g id="edge10" class="edge">
<title>Node6&#45;&gt;Node10</title>
<path fill="none" stroke="midnightblue" d="M206.08,-146C225.28,-146 245.74,-146 263.35,-146"/>
<polygon fill="midnightblue" stroke="midnightblue" points="263.36,-149.5 273.36,-146 263.36,-142.5 263.36,-149.5"/>
</g>
<!-- Node11 -->
<g id="node11" class="node">
<title>Node11</title>
<g id="a_node11"><a xlink:href="../../df/d34/classprobability_1_1windowed__median_1_1_windowed_median.html#a3a7f57679e9cd6c9f042dfd0612b2b24" target="_top" xlink:title="Inserts a value to a sorted multi&#45;value BST.">
<polygon fill="white" stroke="black" points="242,-250.5 242,-291.5 379,-291.5 379,-250.5 242,-250.5"/>
<text text-anchor="start" x="250" y="-279.5" font-family="Helvetica,sans-Serif" font-size="10.00">probability::windowed</text>
<text text-anchor="start" x="250" y="-268.5" font-family="Helvetica,sans-Serif" font-size="10.00">_median::WindowedMedian</text>
<text text-anchor="middle" x="310.5" y="-257.5" font-family="Helvetica,sans-Serif" font-size="10.00">::insertToSorted</text>
</a>
</g>
</g>
<!-- Node6&#45;&gt;Node11 -->
<g id="edge11" class="edge">
<title>Node6&#45;&gt;Node11</title>
<path fill="none" stroke="midnightblue" d="M169.66,-166.72C181.17,-174.51 194.27,-183.54 206,-192 229.52,-208.97 255.47,-228.78 275.5,-244.31"/>
<polygon fill="midnightblue" stroke="midnightblue" points="273.38,-247.1 283.42,-250.47 277.67,-241.57 273.38,-247.1"/>
</g>
<!-- Node14 -->
<g id="node14" class="node">
<title>Node14</title>
<g id="a_node14"><a target="_blank" xlink:href="http://en.cppreference.com/w/cpp/container/list/pop_front.html#" xlink:title=" ">
<polygon fill="white" stroke="black" points="263,-38.5 263,-57.5 358,-57.5 358,-38.5 263,-38.5"/>
<text text-anchor="middle" x="310.5" y="-45.5" font-family="Helvetica,sans-Serif" font-size="10.00">std::list::pop_front</text>
</a>
</g>
</g>
<!-- Node6&#45;&gt;Node14 -->
<g id="edge15" class="edge">
<title>Node6&#45;&gt;Node14</title>
<path fill="none" stroke="midnightblue" d="M160.26,-125.43C180.13,-107.65 211.06,-82.45 242,-67 246.58,-64.71 251.48,-62.66 256.46,-60.84"/>
<polygon fill="midnightblue" stroke="midnightblue" points="257.74,-64.1 266.1,-57.6 255.5,-57.47 257.74,-64.1"/>
</g>
<!-- Node15 -->
<g id="node15" class="node">
<title>Node15</title>
<g id="a_node15"><a target="_blank" xlink:href="http://en.cppreference.com/w/cpp/container/list/push_back.html#" xlink:title=" ">
<polygon fill="white" stroke="black" points="259.5,-0.5 259.5,-19.5 361.5,-19.5 361.5,-0.5 259.5,-0.5"/>
<text text-anchor="middle" x="310.5" y="-7.5" font-family="Helvetica,sans-Serif" font-size="10.00">std::list::push_back</text>
</a>
</g>
</g>
<!-- Node6&#45;&gt;Node15 -->
<g id="edge16" class="edge">
<title>Node6&#45;&gt;Node15</title>
<path fill="none" stroke="midnightblue" d="M151.25,-125.4C168.58,-99.12 202.03,-54.08 242,-29 245.38,-26.88 249.01,-24.99 252.76,-23.3"/>
<polygon fill="midnightblue" stroke="midnightblue" points="254.26,-26.47 262.27,-19.53 251.68,-19.96 254.26,-26.47"/>
</g>
<!-- Node16 -->
<g id="node16" class="node">
<title>Node16</title>
<g id="a_node16"><a target="_blank" xlink:href="http://en.cppreference.com/w/cpp/container/list/size.html#" xlink:title=" ">
<polygon fill="white" stroke="black" points="274,-174.5 274,-193.5 347,-193.5 347,-174.5 274,-174.5"/>
<text text-anchor="middle" x="310.5" y="-181.5" font-family="Helvetica,sans-Serif" font-size="10.00">std::list::size</text>
</a>
</g>
</g>
<!-- Node6&#45;&gt;Node16 -->
<g id="edge17" class="edge">
<title>Node6&#45;&gt;Node16</title>
<path fill="none" stroke="midnightblue" d="M206.08,-161.02C225.44,-165.32 246.07,-169.91 263.78,-173.84"/>
<polygon fill="midnightblue" stroke="midnightblue" points="263.31,-177.32 273.83,-176.07 264.83,-170.49 263.31,-177.32"/>
</g>
<!-- Node7&#45;&gt;Node3 -->
<g id="edge9" class="edge">
<title>Node7&#45;&gt;Node3</title>
<path fill="none" stroke="midnightblue" d="M363.96,-117.63C369.22,-120.48 374.33,-123.61 379,-127 409.34,-149.03 436.88,-183.38 452.1,-204.17"/>
<polygon fill="midnightblue" stroke="midnightblue" points="449.35,-206.34 458.01,-212.43 455.04,-202.27 449.35,-206.34"/>
</g>
<!-- Node8 -->
<g id="node8" class="node">
<title>Node8</title>
<g id="a_node8"><a target="_blank" xlink:href="http://en.cppreference.com/w/cpp/container/multiset/erase.html#" xlink:title=" ">
<polygon fill="white" stroke="black" points="415,-68.5 415,-87.5 516,-87.5 516,-68.5 415,-68.5"/>
<text text-anchor="middle" x="465.5" y="-75.5" font-family="Helvetica,sans-Serif" font-size="10.00">std::multiset::erase</text>
</a>
</g>
</g>
<!-- Node7&#45;&gt;Node8 -->
<g id="edge7" class="edge">
<title>Node7&#45;&gt;Node8</title>
<path fill="none" stroke="midnightblue" d="M379.05,-88.61C387.59,-87.55 396.28,-86.47 404.68,-85.43"/>
<polygon fill="midnightblue" stroke="midnightblue" points="405.27,-88.88 414.77,-84.18 404.41,-81.94 405.27,-88.88"/>
</g>
<!-- Node9 -->
<g id="node9" class="node">
<title>Node9</title>
<g id="a_node9"><a target="_blank" xlink:href="http://en.cppreference.com/w/cpp/container/multiset/find.html#" xlink:title=" ">
<polygon fill="white" stroke="black" points="419.5,-106.5 419.5,-125.5 511.5,-125.5 511.5,-106.5 419.5,-106.5"/>
<text text-anchor="middle" x="465.5" y="-113.5" font-family="Helvetica,sans-Serif" font-size="10.00">std::multiset::find</text>
</a>
</g>
</g>
<!-- Node7&#45;&gt;Node9 -->
<g id="edge8" class="edge">
<title>Node7&#45;&gt;Node9</title>
<path fill="none" stroke="midnightblue" d="M379.05,-105.39C389.15,-106.64 399.46,-107.92 409.27,-109.14"/>
<polygon fill="midnightblue" stroke="midnightblue" points="408.92,-112.62 419.27,-110.38 409.78,-105.68 408.92,-112.62"/>
</g>
<!-- Node11&#45;&gt;Node3 -->
<g id="edge14" class="edge">
<title>Node11&#45;&gt;Node3</title>
<path fill="none" stroke="midnightblue" d="M375.94,-250.36C392.53,-245.05 409.9,-239.49 424.81,-234.71"/>
<polygon fill="midnightblue" stroke="midnightblue" points="426.25,-237.93 434.7,-231.54 424.11,-231.26 426.25,-237.93"/>
</g>
<!-- Node12 -->
<g id="node12" class="node">
<title>Node12</title>
<g id="a_node12"><a target="_blank" xlink:href="http://en.cppreference.com/w/cpp/container/multiset/begin.html#" xlink:title=" ">
<polygon fill="white" stroke="black" points="415.5,-293.5 415.5,-312.5 515.5,-312.5 515.5,-293.5 415.5,-293.5"/>
<text text-anchor="middle" x="465.5" y="-300.5" font-family="Helvetica,sans-Serif" font-size="10.00">std::multiset::begin</text>
</a>
</g>
</g>
<!-- Node11&#45;&gt;Node12 -->
<g id="edge12" class="edge">
<title>Node11&#45;&gt;Node12</title>
<path fill="none" stroke="midnightblue" d="M379.05,-285.13C389.03,-287.22 399.22,-289.35 408.92,-291.38"/>
<polygon fill="midnightblue" stroke="midnightblue" points="408.32,-294.83 418.83,-293.45 409.76,-287.97 408.32,-294.83"/>
</g>
<!-- Node13 -->
<g id="node13" class="node">
<title>Node13</title>
<g id="a_node13"><a target="_blank" xlink:href="http://en.cppreference.com/w/cpp/container/multiset/insert.html#" xlink:title=" ">
<polygon fill="white" stroke="black" points="415,-255.5 415,-274.5 516,-274.5 516,-255.5 415,-255.5"/>
<text text-anchor="middle" x="465.5" y="-262.5" font-family="Helvetica,sans-Serif" font-size="10.00">std::multiset::insert</text>
</a>
</g>
</g>
<!-- Node11&#45;&gt;Node13 -->
<g id="edge13" class="edge">
<title>Node11&#45;&gt;Node13</title>
<path fill="none" stroke="midnightblue" d="M379.05,-268.35C387.59,-268.02 396.28,-267.68 404.68,-267.35"/>
<polygon fill="midnightblue" stroke="midnightblue" points="404.91,-270.84 414.77,-266.95 404.64,-263.84 404.91,-270.84"/>
</g>
</g>
</svg>
        <g id="navigator" transform="translate(0 0)" fill="#404254">
                <rect fill="#f2f5e9" fill-opacity="0.5" stroke="#606060" stroke-width=".5" x="0" y="0" width="60" height="60"/>
                <use id="zoomplus" xlink:href="#zoomPlus" x="17" y="9" onmousedown="handleZoom(evt,'in')"/>
                <use id="zoomminus" xlink:href="#zoomMin" x="42" y="9" onmousedown="handleZoom(evt,'out')"/>
                <use id="reset" xlink:href="#resetDef" x="30" y="36" onmousedown="handleReset()"/>
                <g id="arrowUp" xlink:href="#dirArrow" transform="translate(30 24)" onmousedown="handlePan(0,-1)">
                  <use xlink:href="#rim" fill="#404040">
                        <set attributeName="fill" to="#808080" begin="arrowUp.mouseover" end="arrowUp.mouseout"/>
                  </use>
                  <path fill="none" stroke="white" stroke-width="1.5" d="M0,-3.0v7 M-2.5,-0.5L0,-3.0L2.5,-0.5"/>
                </g>
                <g id="arrowRight" xlink:href="#dirArrow" transform="rotate(90) translate(36 -43)" onmousedown="handlePan(1,0)">
                  <use xlink:href="#rim" fill="#404040">
                        <set attributeName="fill" to="#808080" begin="arrowRight.mouseover" end="arrowRight.mouseout"/>
                  </use>
                  <path fill="none" stroke="white" stroke-width="1.5" d="M0,-3.0v7 M-2.5,-0.5L0,-3.0L2.5,-0.5"/>
                </g>
                <g id="arrowDown" xlink:href="#dirArrow" transform="rotate(180) translate(-30 -48)" onmousedown="handlePan(0,1)">
                  <use xlink:href="#rim" fill="#404040">
                        <set attributeName="fill" to="#808080" begin="arrowDown.mouseover" end="arrowDown.mouseout"/>
                  </use>
                  <path fill="none" stroke="white" stroke-width="1.5" d="M0,-3.0v7 M-2.5,-0.5L0,-3.0L2.5,-0.5"/>
                </g>
                <g id="arrowLeft" xlink:href="#dirArrow" transform="rotate(270) translate(-36 17)" onmousedown="handlePan(-1,0)">
                  <use xlink:href="#rim" fill="#404040">
                        <set attributeName="fill" to="#808080" begin="arrowLeft.mouseover" end="arrowLeft.mouseout"/>
                  </use>
                  <path fill="none" stroke="white" stroke-width="1.5" d="M0,-3.0v7 M-2.5,-0.5L0,-3.0L2.5,-0.5"/>
                </g>
        </g>
        <svg viewBox="0 0 15 15" width="100%" height="30px" preserveAspectRatio="xMaxYMin meet">
         <g id="arrow_out" transform="scale(0.3 0.3)">
          <a xlink:href="windowed__median_8cpp_a6dc652a36ea42ba262c4e4236e3e6601_cgraph_org.svg" target="_base">
           <rect id="button" ry="5" rx="5" y="6" x="6" height="38" width="38"
                fill="#f2f5e9" fill-opacity="0.5" stroke="#606060" stroke-width="1.0"/>
           <path id="arrow"
             d="M 11.500037,31.436501 C 11.940474,20.09759 22.043105,11.32322 32.158766,21.979434 L 37.068811,17.246167 C 37.068811,17.246167 37.088388,32 37.088388,32 L 22.160133,31.978069 C 22.160133,31.978069 26.997745,27.140456 26.997745,27.140456 C 18.528582,18.264221 13.291696,25.230495 11.500037,31.436501 z"
             style="fill:#404040;"/>
          </a>
         </g>
        </svg>
</svg>
