<?xml version="1.0" encoding="UTF-8" standalone="no"?>
<!DOCTYPE svg PUBLIC "-//W3C//DTD SVG 1.1//EN"
 "http://www.w3.org/Graphics/SVG/1.1/DTD/svg11.dtd">
<!-- Generated by graphviz version 8.0.4 (20230421.1958)
 -->
<!-- Title: test Pages: 1 -->
<svg width="521pt" height="372pt"
 viewBox="0.00 0.00 520.50 372.25" xmlns="http://www.w3.org/2000/svg" xmlns:xlink="http://www.w3.org/1999/xlink">
<g id="graph0" class="graph" transform="scale(1 1) rotate(0) translate(4 368.25)">
<title>test</title>
<!-- Node1 -->
<g id="node1" class="node">
<title>Node1</title>
<g id="a_node1"><a xlink:title="Self&#45;test implementations.">
<polygon fill="#999999" stroke="#666666" points="32.5,-161.25 0,-161.25 0,-142 32.5,-142 32.5,-161.25"/>
<text text-anchor="middle" x="16.25" y="-147.75" font-family="Helvetica,sans-Serif" font-size="10.00">test</text>
</a>
</g>
</g>
<!-- Node2 -->
<g id="node2" class="node">
<title>Node2</title>
<g id="a_node2"><a xlink:href="../../df/d34/classprobability_1_1windowed__median_1_1_windowed_median.html#a938cafbdf70dc01e86e9bb12d29ec65d" target="_top" xlink:title="Gets the median of the values in the sliding window.">
<polygon fill="white" stroke="#666666" points="204.5,-135.5 68.5,-135.5 68.5,-93.75 204.5,-93.75 204.5,-135.5"/>
<text text-anchor="start" x="76.5" y="-122" font-family="Helvetica,sans-Serif" font-size="10.00">probability::windowed</text>
<text text-anchor="start" x="76.5" y="-110.75" font-family="Helvetica,sans-Serif" font-size="10.00">_median::WindowedMedian</text>
<text text-anchor="middle" x="136.5" y="-99.5" font-family="Helvetica,sans-Serif" font-size="10.00">::getMedian</text>
</a>
</g>
</g>
<!-- Node1&#45;&gt;Node2 -->
<g id="edge1" class="edge">
<title>Node1&#45;&gt;Node2</title>
<path fill="none" stroke="#63b8ff" d="M32.71,-146.79C39.61,-144.63 48.29,-141.91 57.68,-138.97"/>
<polygon fill="#63b8ff" stroke="#63b8ff" points="58.59,-142.04 67.09,-135.72 56.5,-135.36 58.59,-142.04"/>
</g>
<!-- Node4 -->
<g id="node4" class="node">
<title>Node4</title>
<g id="a_node4"><a xlink:href="../../df/d34/classprobability_1_1windowed__median_1_1_windowed_median.html#a61804988fcb1a6caf640f8291979aaa6" target="_top" xlink:title="A naive and inefficient method to obtain the median of the sliding window. Used for testing!">
<polygon fill="white" stroke="#666666" points="204.5,-319.5 68.5,-319.5 68.5,-277.75 204.5,-277.75 204.5,-319.5"/>
<text text-anchor="start" x="76.5" y="-306" font-family="Helvetica,sans-Serif" font-size="10.00">probability::windowed</text>
<text text-anchor="start" x="76.5" y="-294.75" font-family="Helvetica,sans-Serif" font-size="10.00">_median::WindowedMedian</text>
<text text-anchor="middle" x="136.5" y="-283.5" font-family="Helvetica,sans-Serif" font-size="10.00">::getMedianNaive</text>
</a>
</g>
</g>
<!-- Node1&#45;&gt;Node4 -->
<g id="edge3" class="edge">
<title>Node1&#45;&gt;Node4</title>
<path fill="none" stroke="#63b8ff" d="M25.38,-161.73C42.91,-183.52 84.85,-235.66 111.62,-268.94"/>
<polygon fill="#63b8ff" stroke="#63b8ff" points="109.41,-270.77 118.4,-276.37 114.86,-266.38 109.41,-270.77"/>
</g>
<!-- Node6 -->
<g id="node6" class="node">
<title>Node6</title>
<g id="a_node6"><a xlink:href="../../df/d34/classprobability_1_1windowed__median_1_1_windowed_median.html#a6b52b7851750f28d53508e63c52a69f7" target="_top" xlink:title="Insert a new value to the stream.">
<polygon fill="white" stroke="#666666" points="204.5,-203.5 68.5,-203.5 68.5,-161.75 204.5,-161.75 204.5,-203.5"/>
<text text-anchor="start" x="76.5" y="-190" font-family="Helvetica,sans-Serif" font-size="10.00">probability::windowed</text>
<text text-anchor="start" x="76.5" y="-178.75" font-family="Helvetica,sans-Serif" font-size="10.00">_median::WindowedMedian</text>
<text text-anchor="middle" x="136.5" y="-167.5" font-family="Helvetica,sans-Serif" font-size="10.00">::insert</text>
</a>
</g>
</g>
<!-- Node1&#45;&gt;Node6 -->
<g id="edge5" class="edge">
<title>Node1&#45;&gt;Node6</title>
<path fill="none" stroke="#63b8ff" d="M32.71,-155.68C39.61,-157.49 48.29,-159.76 57.68,-162.22"/>
<polygon fill="#63b8ff" stroke="#63b8ff" points="56.53,-165.8 67.09,-164.95 58.3,-159.03 56.53,-165.8"/>
</g>
<!-- Node17 -->
<g id="node17" class="node">
<title>Node17</title>
<g id="a_node17"><a xlink:href="../../d6/d2c/caesar__cipher_8cpp.html#ae1a3968e7947464bee7714f6d43b7002" target="_top" xlink:title=" ">
<polygon fill="white" stroke="#666666" points="152.75,-51.25 120.25,-51.25 120.25,-32 152.75,-32 152.75,-51.25"/>
<text text-anchor="middle" x="136.5" y="-37.75" font-family="Helvetica,sans-Serif" font-size="10.00">test</text>
</a>
</g>
</g>
<!-- Node1&#45;&gt;Node17 -->
<g id="edge18" class="edge">
<title>Node1&#45;&gt;Node17</title>
<path fill="none" stroke="#63b8ff" d="M23.28,-141.67C32.04,-127.78 49.32,-102.28 68.5,-84.62 81.06,-73.06 97.1,-62.65 110.33,-54.96"/>
<polygon fill="#63b8ff" stroke="#63b8ff" points="111.79,-57.59 118.8,-49.65 108.37,-51.49 111.79,-57.59"/>
</g>
<!-- Node3 -->
<g id="node3" class="node">
<title>Node3</title>
<g id="a_node3"><a target="_blank" xlink:href="http://en.cppreference.com/w/cpp/container/multiset/size.html#" xlink:title=" ">
<polygon fill="white" stroke="#666666" points="509.5,-117.25 415.5,-117.25 415.5,-98 509.5,-98 509.5,-117.25"/>
<text text-anchor="middle" x="462.5" y="-103.75" font-family="Helvetica,sans-Serif" font-size="10.00">std::multiset::size</text>
</a>
</g>
</g>
<!-- Node2&#45;&gt;Node3 -->
<g id="edge2" class="edge">
<title>Node2&#45;&gt;Node3</title>
<path fill="none" stroke="#63b8ff" d="M204.63,-113.17C263.71,-111.9 348.79,-110.06 404.59,-108.85"/>
<polygon fill="#63b8ff" stroke="#63b8ff" points="404.43,-112.34 414.35,-108.62 404.27,-105.34 404.43,-112.34"/>
</g>
<!-- Node5 -->
<g id="node5" class="node">
<title>Node5</title>
<g id="a_node5"><a target="_blank" xlink:href="http://en.cppreference.com/w/cpp/container/list/sort.html#" xlink:title=" ">
<polygon fill="white" stroke="#666666" points="343.88,-364.25 273.12,-364.25 273.12,-345 343.88,-345 343.88,-364.25"/>
<text text-anchor="middle" x="308.5" y="-350.75" font-family="Helvetica,sans-Serif" font-size="10.00">std::list::sort</text>
</a>
</g>
</g>
<!-- Node4&#45;&gt;Node5 -->
<g id="edge4" class="edge">
<title>Node4&#45;&gt;Node5</title>
<path fill="none" stroke="#63b8ff" d="M194.74,-319.97C209.57,-325.29 225.57,-330.83 240.5,-335.62 247.54,-337.88 255.04,-340.15 262.37,-342.29"/>
<polygon fill="#63b8ff" stroke="#63b8ff" points="261.36,-345.92 271.94,-345.31 263.29,-339.19 261.36,-345.92"/>
</g>
<!-- Node7 -->
<g id="node7" class="node">
<title>Node7</title>
<g id="a_node7"><a xlink:href="../../df/d34/classprobability_1_1windowed__median_1_1_windowed_median.html#af544e271ea19a6fd69a6b3ed6816453e" target="_top" xlink:title="Erases a value from a sorted multi&#45;value BST.">
<polygon fill="white" stroke="#666666" points="376.5,-79.5 240.5,-79.5 240.5,-37.75 376.5,-37.75 376.5,-79.5"/>
<text text-anchor="start" x="248.5" y="-66" font-family="Helvetica,sans-Serif" font-size="10.00">probability::windowed</text>
<text text-anchor="start" x="248.5" y="-54.75" font-family="Helvetica,sans-Serif" font-size="10.00">_median::WindowedMedian</text>
<text text-anchor="middle" x="308.5" y="-43.5" font-family="Helvetica,sans-Serif" font-size="10.00">::eraseFromSorted</text>
</a>
</g>
</g>
<!-- Node6&#45;&gt;Node7 -->
<g id="edge6" class="edge">
<title>Node6&#45;&gt;Node7</title>
<path fill="none" stroke="#63b8ff" d="M177.9,-161.27C186.85,-156.11 196.15,-150.41 204.5,-144.62 229.97,-126.98 256.78,-104.46 276.65,-86.89"/>
<polygon fill="#63b8ff" stroke="#63b8ff" points="278.59,-89.96 283.73,-80.69 273.93,-84.73 278.59,-89.96"/>
</g>
<!-- Node10 -->
<g id="node10" class="node">
<title>Node10</title>
<g id="a_node10"><a target="_blank" xlink:href="http://en.cppreference.com/w/cpp/container/list/front.html#" xlink:title=" ">
<polygon fill="white" stroke="#666666" points="345.38,-155.25 271.62,-155.25 271.62,-136 345.38,-136 345.38,-155.25"/>
<text text-anchor="middle" x="308.5" y="-141.75" font-family="Helvetica,sans-Serif" font-size="10.00">std::list::front</text>
</a>
</g>
</g>
<!-- Node6&#45;&gt;Node10 -->
<g id="edge10" class="edge">
<title>Node6&#45;&gt;Node10</title>
<path fill="none" stroke="#63b8ff" d="M204.69,-168C223.6,-163.89 243.73,-159.5 261.13,-155.72"/>
<polygon fill="#63b8ff" stroke="#63b8ff" points="261.54,-158.99 270.57,-153.44 260.06,-152.15 261.54,-158.99"/>
</g>
<!-- Node11 -->
<g id="node11" class="node">
<title>Node11</title>
<g id="a_node11"><a xlink:href="../../df/d34/classprobability_1_1windowed__median_1_1_windowed_median.html#a3a7f57679e9cd6c9f042dfd0612b2b24" target="_top" xlink:title="Inserts a value to a sorted multi&#45;value BST.">
<polygon fill="white" stroke="#666666" points="376.5,-326.5 240.5,-326.5 240.5,-284.75 376.5,-284.75 376.5,-326.5"/>
<text text-anchor="start" x="248.5" y="-313" font-family="Helvetica,sans-Serif" font-size="10.00">probability::windowed</text>
<text text-anchor="start" x="248.5" y="-301.75" font-family="Helvetica,sans-Serif" font-size="10.00">_median::WindowedMedian</text>
<text text-anchor="middle" x="308.5" y="-290.5" font-family="Helvetica,sans-Serif" font-size="10.00">::insertToSorted</text>
</a>
</g>
</g>
<!-- Node6&#45;&gt;Node11 -->
<g id="edge11" class="edge">
<title>Node6&#45;&gt;Node11</title>
<path fill="none" stroke="#63b8ff" d="M157.21,-203.94C176.85,-224.28 208.61,-254.84 240.5,-275.62 242.26,-276.77 244.07,-277.9 245.92,-279"/>
<polygon fill="#63b8ff" stroke="#63b8ff" points="243.98,-282.48 254.42,-284.28 247.38,-276.36 243.98,-282.48"/>
</g>
<!-- Node14 -->
<g id="node14" class="node">
<title>Node14</title>
<g id="a_node14"><a target="_blank" xlink:href="http://en.cppreference.com/w/cpp/container/list/pop_front.html#" xlink:title=" ">
<polygon fill="white" stroke="#666666" points="355.88,-266.25 261.12,-266.25 261.12,-247 355.88,-247 355.88,-266.25"/>
<text text-anchor="middle" x="308.5" y="-252.75" font-family="Helvetica,sans-Serif" font-size="10.00">std::list::pop_front</text>
</a>
</g>
</g>
<!-- Node6&#45;&gt;Node14 -->
<g id="edge15" class="edge">
<title>Node6&#45;&gt;Node14</title>
<path fill="none" stroke="#63b8ff" d="M171.78,-203.92C191.36,-215.39 216.69,-229.11 240.5,-238.62 244.72,-240.31 249.14,-241.89 253.62,-243.36"/>
<polygon fill="#63b8ff" stroke="#63b8ff" points="252.53,-246.99 263.12,-246.58 254.59,-240.3 252.53,-246.99"/>
</g>
<!-- Node15 -->
<g id="node15" class="node">
<title>Node15</title>
<g id="a_node15"><a target="_blank" xlink:href="http://en.cppreference.com/w/cpp/container/list/push_back.html#" xlink:title=" ">
<polygon fill="white" stroke="#666666" points="359.25,-229.25 257.75,-229.25 257.75,-210 359.25,-210 359.25,-229.25"/>
<text text-anchor="middle" x="308.5" y="-215.75" font-family="Helvetica,sans-Serif" font-size="10.00">std::list::push_back</text>
</a>
</g>
</g>
<!-- Node6&#45;&gt;Node15 -->
<g id="edge16" class="edge">
<title>Node6&#45;&gt;Node15</title>
<path fill="none" stroke="#63b8ff" d="M204.69,-197.25C219.92,-200.56 235.96,-204.05 250.71,-207.27"/>
<polygon fill="#63b8ff" stroke="#63b8ff" points="249.69,-210.84 260.2,-209.55 251.17,-204 249.69,-210.84"/>
</g>
<!-- Node16 -->
<g id="node16" class="node">
<title>Node16</title>
<g id="a_node16"><a target="_blank" xlink:href="http://en.cppreference.com/w/cpp/container/list/size.html#" xlink:title=" ">
<polygon fill="white" stroke="#666666" points="344.62,-192.25 272.38,-192.25 272.38,-173 344.62,-173 344.62,-192.25"/>
<text text-anchor="middle" x="308.5" y="-178.75" font-family="Helvetica,sans-Serif" font-size="10.00">std::list::size</text>
</a>
</g>
</g>
<!-- Node6&#45;&gt;Node16 -->
<g id="edge17" class="edge">
<title>Node6&#45;&gt;Node16</title>
<path fill="none" stroke="#63b8ff" d="M204.69,-182.62C223.57,-182.62 243.68,-182.62 261.06,-182.62"/>
<polygon fill="#63b8ff" stroke="#63b8ff" points="261.04,-186.13 271.04,-182.62 261.04,-179.13 261.04,-186.13"/>
</g>
<!-- Node7&#45;&gt;Node3 -->
<g id="edge9" class="edge">
<title>Node7&#45;&gt;Node3</title>
<path fill="none" stroke="#63b8ff" d="M375.73,-79.97C390.9,-84.87 406.6,-89.93 420.36,-94.36"/>
<polygon fill="#63b8ff" stroke="#63b8ff" points="418.87,-97.88 429.46,-97.62 421.01,-91.22 418.87,-97.88"/>
</g>
<!-- Node8 -->
<g id="node8" class="node">
<title>Node8</title>
<g id="a_node8"><a target="_blank" xlink:href="http://en.cppreference.com/w/cpp/container/multiset/erase.html#" xlink:title=" ">
<polygon fill="white" stroke="#666666" points="512.5,-37.25 412.5,-37.25 412.5,-18 512.5,-18 512.5,-37.25"/>
<text text-anchor="middle" x="462.5" y="-23.75" font-family="Helvetica,sans-Serif" font-size="10.00">std::multiset::erase</text>
</a>
</g>
</g>
<!-- Node7&#45;&gt;Node8 -->
<g id="edge7" class="edge">
<title>Node7&#45;&gt;Node8</title>
<path fill="none" stroke="#63b8ff" d="M376.61,-44.94C384.91,-43.25 393.34,-41.53 401.52,-39.86"/>
<polygon fill="#63b8ff" stroke="#63b8ff" points="401.99,-43.13 411.09,-37.7 400.59,-36.27 401.99,-43.13"/>
</g>
<!-- Node9 -->
<g id="node9" class="node">
<title>Node9</title>
<g id="a_node9"><a target="_blank" xlink:href="http://en.cppreference.com/w/cpp/container/multiset/find.html#" xlink:title=" ">
<polygon fill="white" stroke="#666666" points="508.38,-74.25 416.62,-74.25 416.62,-55 508.38,-55 508.38,-74.25"/>
<text text-anchor="middle" x="462.5" y="-60.75" font-family="Helvetica,sans-Serif" font-size="10.00">std::multiset::find</text>
</a>
</g>
</g>
<!-- Node7&#45;&gt;Node9 -->
<g id="edge8" class="edge">
<title>Node7&#45;&gt;Node9</title>
<path fill="none" stroke="#63b8ff" d="M376.61,-61.27C386.21,-61.65 396.01,-62.04 405.37,-62.41"/>
<polygon fill="#63b8ff" stroke="#63b8ff" points="405,-65.94 415.13,-62.83 405.27,-58.94 405,-65.94"/>
</g>
<!-- Node11&#45;&gt;Node3 -->
<g id="edge14" class="edge">
<title>Node11&#45;&gt;Node3</title>
<path fill="none" stroke="#63b8ff" d="M365.54,-284.25C369.47,-281.66 373.18,-278.79 376.5,-275.62 421.13,-233.06 446.14,-161.98 456.22,-127.54"/>
<polygon fill="#63b8ff" stroke="#63b8ff" points="459.74,-128.93 459.06,-118.36 453,-127.05 459.74,-128.93"/>
</g>
<!-- Node12 -->
<g id="node12" class="node">
<title>Node12</title>
<g id="a_node12"><a target="_blank" xlink:href="http://en.cppreference.com/w/cpp/container/multiset/begin.html#" xlink:title=" ">
<polygon fill="white" stroke="#666666" points="512.12,-296.25 412.88,-296.25 412.88,-277 512.12,-277 512.12,-296.25"/>
<text text-anchor="middle" x="462.5" y="-282.75" font-family="Helvetica,sans-Serif" font-size="10.00">std::multiset::begin</text>
</a>
</g>
</g>
<!-- Node11&#45;&gt;Node12 -->
<g id="edge12" class="edge">
<title>Node11&#45;&gt;Node12</title>
<path fill="none" stroke="#63b8ff" d="M376.61,-297.24C385.02,-296.19 393.57,-295.12 401.85,-294.08"/>
<polygon fill="#63b8ff" stroke="#63b8ff" points="402.05,-297.46 411.54,-292.74 401.19,-290.51 402.05,-297.46"/>
</g>
<!-- Node13 -->
<g id="node13" class="node">
<title>Node13</title>
<g id="a_node13"><a target="_blank" xlink:href="http://en.cppreference.com/w/cpp/container/multiset/insert.html#" xlink:title=" ">
<polygon fill="white" stroke="#666666" points="512.5,-333.25 412.5,-333.25 412.5,-314 512.5,-314 512.5,-333.25"/>
<text text-anchor="middle" x="462.5" y="-319.75" font-family="Helvetica,sans-Serif" font-size="10.00">std::multiset::insert</text>
</a>
</g>
</g>
<!-- Node11&#45;&gt;Node13 -->
<g id="edge13" class="edge">
<title>Node11&#45;&gt;Node13</title>
<path fill="none" stroke="#63b8ff" d="M376.61,-313.57C384.81,-314.54 393.15,-315.53 401.25,-316.49"/>
<polygon fill="#63b8ff" stroke="#63b8ff" points="400.75,-320.07 411.09,-317.77 401.57,-313.12 400.75,-320.07"/>
</g>
<!-- Node18 -->
<g id="node18" class="node">
<title>Node18</title>
<g id="a_node18"><a target="_blank" xlink:href="http://en.cppreference.com/w/cpp/io/manip/endl.html#" xlink:title=" ">
<polygon fill="white" stroke="#666666" points="335.25,-19.25 281.75,-19.25 281.75,0 335.25,0 335.25,-19.25"/>
<text text-anchor="middle" x="308.5" y="-5.75" font-family="Helvetica,sans-Serif" font-size="10.00">std::endl</text>
</a>
</g>
</g>
<!-- Node17&#45;&gt;Node18 -->
<g id="edge19" class="edge">
<title>Node17&#45;&gt;Node18</title>
<path fill="none" stroke="#63b8ff" d="M153.19,-38.67C179.71,-33.68 234.08,-23.45 270.67,-16.56"/>
<polygon fill="#63b8ff" stroke="#63b8ff" points="271.22,-19.83 280.4,-14.54 269.93,-12.95 271.22,-19.83"/>
</g>
</g>
</svg>
