<?xml version="1.0" encoding="UTF-8" standalone="no"?>
<!DOCTYPE svg PUBLIC "-//W3C//DTD SVG 1.1//EN"
 "http://www.w3.org/Graphics/SVG/1.1/DTD/svg11.dtd">
<!-- Generated by graphviz version 2.44.1 (20200629.0846)
 -->
<!-- Title: test_int Pages: 1 -->
<svg width="317pt" height="142pt"
 viewBox="0.00 0.00 317.00 142.00" xmlns="http://www.w3.org/2000/svg" xmlns:xlink="http://www.w3.org/1999/xlink">
<g id="graph0" class="graph" transform="scale(1 1) rotate(0) translate(4 138)">
<title>test_int</title>
<polygon fill="white" stroke="transparent" points="-4,4 -4,-138 313,-138 313,4 -4,4"/>
<!-- Node1 -->
<g id="node1" class="node">
<title>Node1</title>
<g id="a_node1"><a xlink:title=" ">
<polygon fill="#bfbfbf" stroke="black" points="0,-57.5 0,-76.5 49,-76.5 49,-57.5 0,-57.5"/>
<text text-anchor="middle" x="24.5" y="-64.5" font-family="Helvetica,sans-Serif" font-size="10.00">test_int</text>
</a>
</g>
</g>
<!-- Node2 -->
<g id="node2" class="node">
<title>Node2</title>
<g id="a_node2"><a target="_blank" xlink:href="http://en.cppreference.com/w/cpp/chrono/c/clock.html#" target="_top" xlink:title=" ">
<polygon fill="white" stroke="black" points="102.5,-114.5 102.5,-133.5 161.5,-133.5 161.5,-114.5 102.5,-114.5"/>
<text text-anchor="middle" x="132" y="-121.5" font-family="Helvetica,sans-Serif" font-size="10.00">std::clock</text>
</a>
</g>
</g>
<!-- Node1&#45;&gt;Node2 -->
<g id="edge1" class="edge">
<title>Node1&#45;&gt;Node2</title>
<path fill="none" stroke="midnightblue" d="M39.27,-76.78C51.07,-84.92 68.69,-96.51 85,-105 88.52,-106.83 92.26,-108.62 96.02,-110.32"/>
<polygon fill="midnightblue" stroke="midnightblue" points="94.76,-113.58 105.33,-114.33 97.53,-107.16 94.76,-113.58"/>
</g>
<!-- Node3 -->
<g id="node3" class="node">
<title>Node3</title>
<g id="a_node3"><a target="_blank" xlink:href="http://en.cppreference.com/w/cpp/algorithm/qsort.html#" target="_top" xlink:title=" ">
<polygon fill="white" stroke="black" points="103,-76.5 103,-95.5 161,-95.5 161,-76.5 103,-76.5"/>
<text text-anchor="middle" x="132" y="-83.5" font-family="Helvetica,sans-Serif" font-size="10.00">std::qsort</text>
</a>
</g>
</g>
<!-- Node1&#45;&gt;Node3 -->
<g id="edge2" class="edge">
<title>Node1&#45;&gt;Node3</title>
<path fill="none" stroke="midnightblue" d="M49.18,-71.26C61.98,-73.57 78.12,-76.48 92.67,-79.1"/>
<polygon fill="midnightblue" stroke="midnightblue" points="92.45,-82.61 102.91,-80.94 93.69,-75.72 92.45,-82.61"/>
</g>
<!-- Node4 -->
<g id="node4" class="node">
<title>Node4</title>
<g id="a_node4"><a target="_blank" xlink:href="http://en.cppreference.com/w/cpp/numeric/random/rand.html#" target="_top" xlink:title=" ">
<polygon fill="white" stroke="black" points="104.5,-38.5 104.5,-57.5 159.5,-57.5 159.5,-38.5 104.5,-38.5"/>
<text text-anchor="middle" x="132" y="-45.5" font-family="Helvetica,sans-Serif" font-size="10.00">std::rand</text>
</a>
</g>
</g>
<!-- Node1&#45;&gt;Node4 -->
<g id="edge3" class="edge">
<title>Node1&#45;&gt;Node4</title>
<path fill="none" stroke="midnightblue" d="M49.18,-62.74C62.5,-60.34 79.43,-57.29 94.43,-54.59"/>
<polygon fill="midnightblue" stroke="midnightblue" points="95.21,-58 104.43,-52.78 93.97,-51.11 95.21,-58"/>
</g>
<!-- Node5 -->
<g id="node5" class="node">
<title>Node5</title>
<g id="a_node5"><a xlink:href="../../d5/d91/namespacesorting.html#af2c5b92cbfe73f63f6074c61b0a45331" target="_top" xlink:title=" ">
<polygon fill="white" stroke="black" points="85,-0.5 85,-19.5 179,-19.5 179,-0.5 85,-0.5"/>
<text text-anchor="middle" x="132" y="-7.5" font-family="Helvetica,sans-Serif" font-size="10.00">sorting::shell_sort</text>
</a>
</g>
</g>
<!-- Node1&#45;&gt;Node5 -->
<g id="edge4" class="edge">
<title>Node1&#45;&gt;Node5</title>
<path fill="none" stroke="midnightblue" d="M39.27,-57.22C51.07,-49.08 68.69,-37.49 85,-29 88.52,-27.17 92.26,-25.38 96.02,-23.68"/>
<polygon fill="midnightblue" stroke="midnightblue" points="97.53,-26.84 105.33,-19.67 94.76,-20.42 97.53,-26.84"/>
</g>
<!-- Node6 -->
<g id="node6" class="node">
<title>Node6</title>
<g id="a_node6"><a xlink:href="../../d5/d91/namespacesorting.html#a5669396c6a6b1e14b97589b6e37980aa" target="_top" xlink:title=" ">
<polygon fill="white" stroke="black" points="215,-0.5 215,-19.5 309,-19.5 309,-0.5 215,-0.5"/>
<text text-anchor="middle" x="262" y="-7.5" font-family="Helvetica,sans-Serif" font-size="10.00">sorting::shell_sort</text>
</a>
</g>
</g>
<!-- Node5&#45;&gt;Node6 -->
<g id="edge5" class="edge">
<title>Node5&#45;&gt;Node6</title>
<path fill="none" stroke="midnightblue" d="M179.21,-10C187.46,-10 196.13,-10 204.63,-10"/>
<polygon fill="midnightblue" stroke="midnightblue" points="204.86,-13.5 214.86,-10 204.86,-6.5 204.86,-13.5"/>
</g>
</g>
</svg>
