<?xml version="1.0" encoding="UTF-8" standalone="no"?>
<!DOCTYPE svg PUBLIC "-//W3C//DTD SVG 1.1//EN"
 "http://www.w3.org/Graphics/SVG/1.1/DTD/svg11.dtd">
<!-- Generated by graphviz version 2.49.3 (20211023.0002)
 -->
<!-- Title: test_f Pages: 1 -->
<svg width="311pt" height="180pt"
 viewBox="0.00 0.00 311.00 180.00" xmlns="http://www.w3.org/2000/svg" xmlns:xlink="http://www.w3.org/1999/xlink">
<g id="graph0" class="graph" transform="scale(1 1) rotate(0) translate(4 176)">
<title>test_f</title>
<polygon fill="white" stroke="transparent" points="-4,4 -4,-176 307,-176 307,4 -4,4"/>
<!-- Node1 -->
<g id="node1" class="node">
<title>Node1</title>
<g id="a_node1"><a xlink:title=" ">
<polygon fill="#bfbfbf" stroke="black" points="0,-95.5 0,-114.5 41,-114.5 41,-95.5 0,-95.5"/>
<text text-anchor="middle" x="20.5" y="-102.5" font-family="Helvetica,sans-Serif" font-size="10.00">test_f</text>
</a>
</g>
</g>
<!-- Node2 -->
<g id="node2" class="node">
<title>Node2</title>
<g id="a_node2"><a target="_blank" xlink:href="http://en.cppreference.com/w/cpp/chrono/c/clock.html#" xlink:title=" ">
<polygon fill="white" stroke="black" points="95.5,-152.5 95.5,-171.5 153.5,-171.5 153.5,-152.5 95.5,-152.5"/>
<text text-anchor="middle" x="124.5" y="-159.5" font-family="Helvetica,sans-Serif" font-size="10.00">std::clock</text>
</a>
</g>
</g>
<!-- Node1&#45;&gt;Node2 -->
<g id="edge1" class="edge">
<title>Node1&#45;&gt;Node2</title>
<path fill="none" stroke="midnightblue" d="M33.8,-114.55C44.74,-122.76 61.37,-134.58 77,-143 80.53,-144.9 84.29,-146.73 88.08,-148.45"/>
<polygon fill="midnightblue" stroke="midnightblue" points="86.9,-151.76 97.47,-152.5 89.67,-145.33 86.9,-151.76"/>
</g>
<!-- Node3 -->
<g id="node3" class="node">
<title>Node3</title>
<g id="a_node3"><a target="_blank" xlink:href="http://en.cppreference.com/w/cpp/algorithm/qsort.html#" xlink:title=" ">
<polygon fill="white" stroke="black" points="95.5,-114.5 95.5,-133.5 153.5,-133.5 153.5,-114.5 95.5,-114.5"/>
<text text-anchor="middle" x="124.5" y="-121.5" font-family="Helvetica,sans-Serif" font-size="10.00">std::qsort</text>
</a>
</g>
</g>
<!-- Node1&#45;&gt;Node3 -->
<g id="edge2" class="edge">
<title>Node1&#45;&gt;Node3</title>
<path fill="none" stroke="midnightblue" d="M41.17,-108.66C53.68,-110.99 70.3,-114.09 85.33,-116.89"/>
<polygon fill="midnightblue" stroke="midnightblue" points="84.94,-120.38 95.41,-118.77 86.22,-113.5 84.94,-120.38"/>
</g>
<!-- Node4 -->
<g id="node4" class="node">
<title>Node4</title>
<g id="a_node4"><a target="_blank" xlink:href="http://en.cppreference.com/w/cpp/numeric/random/rand.html#" xlink:title=" ">
<polygon fill="white" stroke="black" points="97,-76.5 97,-95.5 152,-95.5 152,-76.5 97,-76.5"/>
<text text-anchor="middle" x="124.5" y="-83.5" font-family="Helvetica,sans-Serif" font-size="10.00">std::rand</text>
</a>
</g>
</g>
<!-- Node1&#45;&gt;Node4 -->
<g id="edge3" class="edge">
<title>Node1&#45;&gt;Node4</title>
<path fill="none" stroke="midnightblue" d="M41.17,-101.34C54.05,-98.94 71.3,-95.72 86.68,-92.86"/>
<polygon fill="midnightblue" stroke="midnightblue" points="87.76,-96.22 96.95,-90.95 86.48,-89.34 87.76,-96.22"/>
</g>
<!-- Node5 -->
<g id="node5" class="node">
<title>Node5</title>
<g id="a_node5"><a xlink:href="../../d5/d91/namespacesorting.html#af2c5b92cbfe73f63f6074c61b0a45331" target="_top" xlink:title=" ">
<polygon fill="white" stroke="black" points="77,-38.5 77,-57.5 172,-57.5 172,-38.5 77,-38.5"/>
<text text-anchor="middle" x="124.5" y="-45.5" font-family="Helvetica,sans-Serif" font-size="10.00">sorting::shell_sort</text>
</a>
</g>
</g>
<!-- Node1&#45;&gt;Node5 -->
<g id="edge4" class="edge">
<title>Node1&#45;&gt;Node5</title>
<path fill="none" stroke="midnightblue" d="M33.8,-95.45C44.74,-87.24 61.37,-75.42 77,-67 80.53,-65.1 84.29,-63.27 88.08,-61.55"/>
<polygon fill="midnightblue" stroke="midnightblue" points="89.67,-64.67 97.47,-57.5 86.9,-58.24 89.67,-64.67"/>
</g>
<!-- Node6 -->
<g id="node6" class="node">
<title>Node6</title>
<g id="a_node6"><a target="_blank" xlink:href="http://en.cppreference.com/w/cpp/container/vector/data.html#" xlink:title=" ">
<polygon fill="white" stroke="black" points="211.5,-76.5 211.5,-95.5 299.5,-95.5 299.5,-76.5 211.5,-76.5"/>
<text text-anchor="middle" x="255.5" y="-83.5" font-family="Helvetica,sans-Serif" font-size="10.00">std::vector::data</text>
</a>
</g>
</g>
<!-- Node5&#45;&gt;Node6 -->
<g id="edge5" class="edge">
<title>Node5&#45;&gt;Node6</title>
<path fill="none" stroke="midnightblue" d="M158.05,-57.59C174.4,-62.4 194.41,-68.3 211.96,-73.47"/>
<polygon fill="midnightblue" stroke="midnightblue" points="211.38,-76.95 221.96,-76.41 213.35,-70.23 211.38,-76.95"/>
</g>
<!-- Node7 -->
<g id="node7" class="node">
<title>Node7</title>
<g id="a_node7"><a xlink:href="../../d5/d91/namespacesorting.html#a5669396c6a6b1e14b97589b6e37980aa" target="_top" xlink:title=" ">
<polygon fill="white" stroke="black" points="208,-38.5 208,-57.5 303,-57.5 303,-38.5 208,-38.5"/>
<text text-anchor="middle" x="255.5" y="-45.5" font-family="Helvetica,sans-Serif" font-size="10.00">sorting::shell_sort</text>
</a>
</g>
</g>
<!-- Node5&#45;&gt;Node7 -->
<g id="edge6" class="edge">
<title>Node5&#45;&gt;Node7</title>
<path fill="none" stroke="midnightblue" d="M172.07,-48C180.48,-48 189.32,-48 197.97,-48"/>
<polygon fill="midnightblue" stroke="midnightblue" points="198,-51.5 208,-48 198,-44.5 198,-51.5"/>
</g>
<!-- Node8 -->
<g id="node8" class="node">
<title>Node8</title>
<g id="a_node8"><a target="_blank" xlink:href="http://en.cppreference.com/w/cpp/container/vector/size.html#" xlink:title=" ">
<polygon fill="white" stroke="black" points="212.5,-0.5 212.5,-19.5 298.5,-19.5 298.5,-0.5 212.5,-0.5"/>
<text text-anchor="middle" x="255.5" y="-7.5" font-family="Helvetica,sans-Serif" font-size="10.00">std::vector::size</text>
</a>
</g>
</g>
<!-- Node5&#45;&gt;Node8 -->
<g id="edge7" class="edge">
<title>Node5&#45;&gt;Node8</title>
<path fill="none" stroke="midnightblue" d="M158.05,-38.41C174.4,-33.6 194.41,-27.7 211.96,-22.53"/>
<polygon fill="midnightblue" stroke="midnightblue" points="213.35,-25.77 221.96,-19.59 211.38,-19.05 213.35,-25.77"/>
</g>
</g>
</svg>
