<?xml version="1.0" encoding="UTF-8" standalone="no"?>
<!DOCTYPE svg PUBLIC "-//W3C//DTD SVG 1.1//EN"
 "http://www.w3.org/Graphics/SVG/1.1/DTD/svg11.dtd">
<!-- Generated by graphviz version 6.0.1 (20220911.1526)
 -->
<!-- Title: test_int Pages: 1 -->
<svg width="152pt" height="101pt"
 viewBox="0.00 0.00 152.00 101.00" xmlns="http://www.w3.org/2000/svg" xmlns:xlink="http://www.w3.org/1999/xlink">
<g id="graph0" class="graph" transform="scale(1 1) rotate(0) translate(4 97)">
<title>test_int</title>
<!-- Node1 -->
<g id="node1" class="node">
<title>Node1</title>
<g id="a_node1"><a xlink:title=" ">
<polygon fill="#999999" stroke="#666666" points="49,-56 0,-56 0,-37 49,-37 49,-56"/>
<text text-anchor="middle" x="24.5" y="-44" font-family="Helvetica,sans-Serif" font-size="10.00">test_int</text>
</a>
</g>
</g>
<!-- Node2 -->
<g id="node2" class="node">
<title>Node2</title>
<g id="a_node2"><a target="_blank" xlink:href="http://en.cppreference.com/w/cpp/chrono/c/clock.html#" xlink:title=" ">
<polygon fill="white" stroke="#666666" points="144,-93 85,-93 85,-74 144,-74 144,-93"/>
<text text-anchor="middle" x="114.5" y="-81" font-family="Helvetica,sans-Serif" font-size="10.00">std::clock</text>
</a>
</g>
</g>
<!-- Node1&#45;&gt;Node2 -->
<g id="edge1" class="edge">
<title>Node1&#45;&gt;Node2</title>
<path fill="none" stroke="#63b8ff" d="M48.16,-56.03C58.25,-60.27 70.3,-65.34 81.3,-69.96"/>
<polygon fill="#63b8ff" stroke="#63b8ff" points="80.03,-73.23 90.61,-73.88 82.75,-66.77 80.03,-73.23"/>
</g>
<!-- Node3 -->
<g id="node3" class="node">
<title>Node3</title>
<g id="a_node3"><a target="_blank" xlink:href="http://en.cppreference.com/w/cpp/algorithm/qsort.html#" xlink:title=" ">
<polygon fill="white" stroke="#666666" points="143.5,-56 85.5,-56 85.5,-37 143.5,-37 143.5,-56"/>
<text text-anchor="middle" x="114.5" y="-44" font-family="Helvetica,sans-Serif" font-size="10.00">std::qsort</text>
</a>
</g>
</g>
<!-- Node1&#45;&gt;Node3 -->
<g id="edge2" class="edge">
<title>Node1&#45;&gt;Node3</title>
<path fill="none" stroke="#63b8ff" d="M49.08,-46.5C57.13,-46.5 66.35,-46.5 75.26,-46.5"/>
<polygon fill="#63b8ff" stroke="#63b8ff" points="75.47,-50 85.47,-46.5 75.47,-43 75.47,-50"/>
</g>
<!-- Node4 -->
<g id="node4" class="node">
<title>Node4</title>
<g id="a_node4"><a target="_blank" xlink:href="http://en.cppreference.com/w/cpp/numeric/random/rand.html#" xlink:title=" ">
<polygon fill="white" stroke="#666666" points="142,-19 87,-19 87,0 142,0 142,-19"/>
<text text-anchor="middle" x="114.5" y="-7" font-family="Helvetica,sans-Serif" font-size="10.00">std::rand</text>
</a>
</g>
</g>
<!-- Node1&#45;&gt;Node4 -->
<g id="edge3" class="edge">
<title>Node1&#45;&gt;Node4</title>
<path fill="none" stroke="#63b8ff" d="M48.16,-36.97C58.25,-32.73 70.3,-27.66 81.3,-23.04"/>
<polygon fill="#63b8ff" stroke="#63b8ff" points="82.75,-26.23 90.61,-19.12 80.03,-19.77 82.75,-26.23"/>
</g>
</g>
</svg>
