<?xml version="1.0" encoding="UTF-8" standalone="no"?>
<!DOCTYPE svg PUBLIC "-//W3C//DTD SVG 1.1//EN"
 "http://www.w3.org/Graphics/SVG/1.1/DTD/svg11.dtd">
<!-- Generated by graphviz version 2.49.3 (20211023.0002)
 -->
<!-- Title: numerical_methods/midpoint_integral_method.cpp Pages: 1 -->
<svg width="451pt" height="95pt"
 viewBox="0.00 0.00 450.50 95.00" xmlns="http://www.w3.org/2000/svg" xmlns:xlink="http://www.w3.org/1999/xlink">
<g id="graph0" class="graph" transform="scale(1 1) rotate(0) translate(4 91)">
<title>numerical_methods/midpoint_integral_method.cpp</title>
<polygon fill="white" stroke="transparent" points="-4,4 -4,-91 446.5,-91 446.5,4 -4,4"/>
<!-- Node1 -->
<g id="node1" class="node">
<title>Node1</title>
<g id="a_node1"><a xlink:title="A numerical method for easy approximation of integrals">
<polygon fill="#bfbfbf" stroke="black" points="143.5,-56.5 143.5,-86.5 287.5,-86.5 287.5,-56.5 143.5,-56.5"/>
<text text-anchor="start" x="151.5" y="-74.5" font-family="Helvetica,sans-Serif" font-size="10.00">numerical_methods/midpoint</text>
<text text-anchor="middle" x="215.5" y="-63.5" font-family="Helvetica,sans-Serif" font-size="10.00">_integral_method.cpp</text>
</a>
</g>
</g>
<!-- Node2 -->
<g id="node2" class="node">
<title>Node2</title>
<g id="a_node2"><a xlink:title=" ">
<polygon fill="white" stroke="#bfbfbf" points="0,-0.5 0,-19.5 49,-19.5 49,-0.5 0,-0.5"/>
<text text-anchor="middle" x="24.5" y="-7.5" font-family="Helvetica,sans-Serif" font-size="10.00">cassert</text>
</a>
</g>
</g>
<!-- Node1&#45;&gt;Node2 -->
<g id="edge1" class="edge">
<title>Node1&#45;&gt;Node2</title>
<path fill="none" stroke="midnightblue" d="M170.24,-56.4C136.14,-45.78 90.11,-31.44 58.97,-21.74"/>
<polygon fill="midnightblue" stroke="midnightblue" points="59.61,-18.27 49.02,-18.64 57.52,-24.95 59.61,-18.27"/>
</g>
<!-- Node3 -->
<g id="node3" class="node">
<title>Node3</title>
<g id="a_node3"><a xlink:title=" ">
<polygon fill="white" stroke="#bfbfbf" points="67.5,-0.5 67.5,-19.5 111.5,-19.5 111.5,-0.5 67.5,-0.5"/>
<text text-anchor="middle" x="89.5" y="-7.5" font-family="Helvetica,sans-Serif" font-size="10.00">cmath</text>
</a>
</g>
</g>
<!-- Node1&#45;&gt;Node3 -->
<g id="edge2" class="edge">
<title>Node1&#45;&gt;Node3</title>
<path fill="none" stroke="midnightblue" d="M185.64,-56.4C164.88,-46.59 137.4,-33.62 117.14,-24.05"/>
<polygon fill="midnightblue" stroke="midnightblue" points="118.37,-20.76 107.83,-19.66 115.38,-27.09 118.37,-20.76"/>
</g>
<!-- Node4 -->
<g id="node4" class="node">
<title>Node4</title>
<g id="a_node4"><a xlink:title=" ">
<polygon fill="white" stroke="#bfbfbf" points="130,-0.5 130,-19.5 175,-19.5 175,-0.5 130,-0.5"/>
<text text-anchor="middle" x="152.5" y="-7.5" font-family="Helvetica,sans-Serif" font-size="10.00">cstdint</text>
</a>
</g>
</g>
<!-- Node1&#45;&gt;Node4 -->
<g id="edge3" class="edge">
<title>Node1&#45;&gt;Node4</title>
<path fill="none" stroke="midnightblue" d="M200.57,-56.4C191.13,-47.49 178.92,-35.95 169.17,-26.74"/>
<polygon fill="midnightblue" stroke="midnightblue" points="171.34,-23.98 161.67,-19.66 166.53,-29.07 171.34,-23.98"/>
</g>
<!-- Node5 -->
<g id="node5" class="node">
<title>Node5</title>
<g id="a_node5"><a xlink:title=" ">
<polygon fill="white" stroke="#bfbfbf" points="193,-0.5 193,-19.5 238,-19.5 238,-0.5 193,-0.5"/>
<text text-anchor="middle" x="215.5" y="-7.5" font-family="Helvetica,sans-Serif" font-size="10.00">cstdlib</text>
</a>
</g>
</g>
<!-- Node1&#45;&gt;Node5 -->
<g id="edge4" class="edge">
<title>Node1&#45;&gt;Node5</title>
<path fill="none" stroke="midnightblue" d="M215.5,-56.4C215.5,-48.47 215.5,-38.46 215.5,-29.86"/>
<polygon fill="midnightblue" stroke="midnightblue" points="219,-29.66 215.5,-19.66 212,-29.66 219,-29.66"/>
</g>
<!-- Node6 -->
<g id="node6" class="node">
<title>Node6</title>
<g id="a_node6"><a xlink:title=" ">
<polygon fill="white" stroke="#bfbfbf" points="256,-0.5 256,-19.5 315,-19.5 315,-0.5 256,-0.5"/>
<text text-anchor="middle" x="285.5" y="-7.5" font-family="Helvetica,sans-Serif" font-size="10.00">functional</text>
</a>
</g>
</g>
<!-- Node1&#45;&gt;Node6 -->
<g id="edge5" class="edge">
<title>Node1&#45;&gt;Node6</title>
<path fill="none" stroke="midnightblue" d="M232.09,-56.4C242.79,-47.31 256.69,-35.49 267.63,-26.19"/>
<polygon fill="midnightblue" stroke="midnightblue" points="269.96,-28.8 275.31,-19.66 265.43,-23.47 269.96,-28.8"/>
</g>
<!-- Node7 -->
<g id="node7" class="node">
<title>Node7</title>
<g id="a_node7"><a xlink:title=" ">
<polygon fill="white" stroke="#bfbfbf" points="333,-0.5 333,-19.5 388,-19.5 388,-0.5 333,-0.5"/>
<text text-anchor="middle" x="360.5" y="-7.5" font-family="Helvetica,sans-Serif" font-size="10.00">iostream</text>
</a>
</g>
</g>
<!-- Node1&#45;&gt;Node7 -->
<g id="edge6" class="edge">
<title>Node1&#45;&gt;Node7</title>
<path fill="none" stroke="midnightblue" d="M249.86,-56.4C274.19,-46.42 306.53,-33.15 329.96,-23.53"/>
<polygon fill="midnightblue" stroke="midnightblue" points="331.48,-26.69 339.4,-19.66 328.82,-20.22 331.48,-26.69"/>
</g>
<!-- Node8 -->
<g id="node8" class="node">
<title>Node8</title>
<g id="a_node8"><a xlink:title=" ">
<polygon fill="white" stroke="#bfbfbf" points="406.5,-0.5 406.5,-19.5 442.5,-19.5 442.5,-0.5 406.5,-0.5"/>
<text text-anchor="middle" x="424.5" y="-7.5" font-family="Helvetica,sans-Serif" font-size="10.00">map</text>
</a>
</g>
</g>
<!-- Node1&#45;&gt;Node8 -->
<g id="edge7" class="edge">
<title>Node1&#45;&gt;Node8</title>
<path fill="none" stroke="midnightblue" d="M269.07,-56.41C303.16,-47.26 348.44,-34.79 396.58,-20.18"/>
<polygon fill="midnightblue" stroke="midnightblue" points="397.7,-23.5 406.24,-17.23 395.65,-16.8 397.7,-23.5"/>
</g>
</g>
</svg>
