<?xml version="1.0" encoding="UTF-8" standalone="no"?>
<!DOCTYPE svg PUBLIC "-//W3C//DTD SVG 1.1//EN"
 "http://www.w3.org/Graphics/SVG/1.1/DTD/svg11.dtd">
<!-- Generated by graphviz version 8.0.2 (20230410.1723)
 -->
<!-- Title: numerical_methods/midpoint_integral_method.cpp Pages: 1 -->
<svg width="450pt" height="93pt"
 viewBox="0.00 0.00 450.00 93.00" xmlns="http://www.w3.org/2000/svg" xmlns:xlink="http://www.w3.org/1999/xlink">
<g id="graph0" class="graph" transform="scale(1 1) rotate(0) translate(4 89)">
<title>numerical_methods/midpoint_integral_method.cpp</title>
<!-- Node1 -->
<g id="node1" class="node">
<title>Node1</title>
<g id="a_node1"><a xlink:title="A numerical method for easy approximation of integrals">
<polygon fill="#999999" stroke="#666666" points="287,-85 146,-85 146,-55 287,-55 287,-85"/>
<text text-anchor="start" x="154" y="-73" font-family="Helvetica,sans-Serif" font-size="10.00">numerical_methods/midpoint</text>
<text text-anchor="middle" x="216.5" y="-62" font-family="Helvetica,sans-Serif" font-size="10.00">_integral_method.cpp</text>
</a>
</g>
</g>
<!-- Node2 -->
<g id="node2" class="node">
<title>Node2</title>
<g id="a_node2"><a xlink:title=" ">
<polygon fill="#e0e0e0" stroke="#999999" points="49,-19 0,-19 0,0 49,0 49,-19"/>
<text text-anchor="middle" x="24.5" y="-7" font-family="Helvetica,sans-Serif" font-size="10.00">cassert</text>
</a>
</g>
</g>
<!-- Node1&#45;&gt;Node2 -->
<g id="edge1" class="edge">
<title>Node1&#45;&gt;Node2</title>
<path fill="none" stroke="#63b8ff" d="M169.04,-54.54C135.17,-44.22 90.35,-30.56 59.65,-21.21"/>
<polygon fill="#63b8ff" stroke="#63b8ff" points="61.01,-17.66 50.43,-18.09 58.97,-24.36 61.01,-17.66"/>
</g>
<!-- Node3 -->
<g id="node3" class="node">
<title>Node3</title>
<g id="a_node3"><a xlink:title=" ">
<polygon fill="#e0e0e0" stroke="#999999" points="111.5,-19 67.5,-19 67.5,0 111.5,0 111.5,-19"/>
<text text-anchor="middle" x="89.5" y="-7" font-family="Helvetica,sans-Serif" font-size="10.00">cmath</text>
</a>
</g>
</g>
<!-- Node1&#45;&gt;Node3 -->
<g id="edge2" class="edge">
<title>Node1&#45;&gt;Node3</title>
<path fill="none" stroke="#63b8ff" d="M185.11,-54.54C164.72,-45.15 138.33,-32.99 118.44,-23.83"/>
<polygon fill="#63b8ff" stroke="#63b8ff" points="120.25,-20.35 109.7,-19.35 117.32,-26.71 120.25,-20.35"/>
</g>
<!-- Node4 -->
<g id="node4" class="node">
<title>Node4</title>
<g id="a_node4"><a xlink:title=" ">
<polygon fill="#e0e0e0" stroke="#999999" points="175.5,-19 129.5,-19 129.5,0 175.5,0 175.5,-19"/>
<text text-anchor="middle" x="152.5" y="-7" font-family="Helvetica,sans-Serif" font-size="10.00">cstdint</text>
</a>
</g>
</g>
<!-- Node1&#45;&gt;Node4 -->
<g id="edge3" class="edge">
<title>Node1&#45;&gt;Node4</title>
<path fill="none" stroke="#63b8ff" d="M200.68,-54.54C191.38,-46.04 179.62,-35.29 170.04,-26.53"/>
<polygon fill="#63b8ff" stroke="#63b8ff" points="172.73,-24.34 162.99,-20.18 168.01,-29.51 172.73,-24.34"/>
</g>
<!-- Node5 -->
<g id="node5" class="node">
<title>Node5</title>
<g id="a_node5"><a xlink:title=" ">
<polygon fill="#e0e0e0" stroke="#999999" points="239,-19 194,-19 194,0 239,0 239,-19"/>
<text text-anchor="middle" x="216.5" y="-7" font-family="Helvetica,sans-Serif" font-size="10.00">cstdlib</text>
</a>
</g>
</g>
<!-- Node1&#45;&gt;Node5 -->
<g id="edge4" class="edge">
<title>Node1&#45;&gt;Node5</title>
<path fill="none" stroke="#63b8ff" d="M216.5,-54.54C216.5,-47.17 216.5,-38.1 216.5,-30.11"/>
<polygon fill="#63b8ff" stroke="#63b8ff" points="220,-30.18 216.5,-20.18 213,-30.18 220,-30.18"/>
</g>
<!-- Node6 -->
<g id="node6" class="node">
<title>Node6</title>
<g id="a_node6"><a xlink:title=" ">
<polygon fill="#e0e0e0" stroke="#999999" points="316,-19 257,-19 257,0 316,0 316,-19"/>
<text text-anchor="middle" x="286.5" y="-7" font-family="Helvetica,sans-Serif" font-size="10.00">functional</text>
</a>
</g>
</g>
<!-- Node1&#45;&gt;Node6 -->
<g id="edge5" class="edge">
<title>Node1&#45;&gt;Node6</title>
<path fill="none" stroke="#63b8ff" d="M233.8,-54.54C244.18,-45.87 257.37,-34.85 267.96,-26"/>
<polygon fill="#63b8ff" stroke="#63b8ff" points="269.69,-28.27 275.12,-19.18 265.2,-22.9 269.69,-28.27"/>
</g>
<!-- Node7 -->
<g id="node7" class="node">
<title>Node7</title>
<g id="a_node7"><a xlink:title=" ">
<polygon fill="#e0e0e0" stroke="#999999" points="388.5,-19 334.5,-19 334.5,0 388.5,0 388.5,-19"/>
<text text-anchor="middle" x="361.5" y="-7" font-family="Helvetica,sans-Serif" font-size="10.00">iostream</text>
</a>
</g>
</g>
<!-- Node1&#45;&gt;Node7 -->
<g id="edge6" class="edge">
<title>Node1&#45;&gt;Node7</title>
<path fill="none" stroke="#63b8ff" d="M252.34,-54.54C275.94,-45.02 306.58,-32.66 329.39,-23.46"/>
<polygon fill="#63b8ff" stroke="#63b8ff" points="330.61,-26.33 338.57,-19.35 327.99,-19.84 330.61,-26.33"/>
</g>
<!-- Node8 -->
<g id="node8" class="node">
<title>Node8</title>
<g id="a_node8"><a xlink:title=" ">
<polygon fill="#e0e0e0" stroke="#999999" points="442,-19 407,-19 407,0 442,0 442,-19"/>
<text text-anchor="middle" x="424.5" y="-7" font-family="Helvetica,sans-Serif" font-size="10.00">map</text>
</a>
</g>
</g>
<!-- Node1&#45;&gt;Node8 -->
<g id="edge7" class="edge">
<title>Node1&#45;&gt;Node8</title>
<path fill="none" stroke="#63b8ff" d="M270.9,-54.51C304.45,-45.45 348.6,-33.31 396.03,-19.36"/>
<polygon fill="#63b8ff" stroke="#63b8ff" points="396.92,-22.45 405.52,-16.26 394.94,-15.74 396.92,-22.45"/>
</g>
</g>
</svg>
