<?xml version="1.0" encoding="UTF-8" standalone="no"?>
<!DOCTYPE svg PUBLIC "-//W3C//DTD SVG 1.1//EN"
 "http://www.w3.org/Graphics/SVG/1.1/DTD/svg11.dtd">
<!-- Generated by graphviz version 2.49.3 (20211023.0002)
 -->
<!-- Title: sorting::selection_sort_recursive::findMinIndex Pages: 1 -->
<svg width="277pt" height="57pt"
 viewBox="0.00 0.00 277.00 57.00" xmlns="http://www.w3.org/2000/svg" xmlns:xlink="http://www.w3.org/1999/xlink">
<g id="graph0" class="graph" transform="scale(1 1) rotate(0) translate(4 53)">
<title>sorting::selection_sort_recursive::findMinIndex</title>
<polygon fill="white" stroke="transparent" points="-4,4 -4,-53 273,-53 273,4 -4,4"/>
<!-- Node1 -->
<g id="node1" class="node">
<title>Node1</title>
<g id="a_node1"><a xlink:title="The main function finds the index of the minimum element.">
<polygon fill="#bfbfbf" stroke="black" points="0,-0.5 0,-30.5 147,-30.5 147,-0.5 0,-0.5"/>
<text text-anchor="start" x="8" y="-18.5" font-family="Helvetica,sans-Serif" font-size="10.00">sorting::selection</text>
<text text-anchor="middle" x="73.5" y="-7.5" font-family="Helvetica,sans-Serif" font-size="10.00">_sort_recursive::findMinIndex</text>
</a>
</g>
</g>
<!-- Node1&#45;&gt;Node1 -->
<g id="edge1" class="edge">
<title>Node1&#45;&gt;Node1</title>
<path fill="none" stroke="midnightblue" d="M47.01,-30.66C40.62,-40.06 49.45,-49 73.5,-49 88.15,-49 97.16,-45.68 100.51,-40.96"/>
<polygon fill="midnightblue" stroke="midnightblue" points="103.99,-40.47 99.99,-30.66 97,-40.82 103.99,-40.47"/>
</g>
<!-- Node2 -->
<g id="node2" class="node">
<title>Node2</title>
<g id="a_node2"><a target="_blank" xlink:href="http://en.cppreference.com/w/cpp/container/vector/size.html#" xlink:title=" ">
<polygon fill="white" stroke="black" points="183,-6 183,-25 269,-25 269,-6 183,-6"/>
<text text-anchor="middle" x="226" y="-13" font-family="Helvetica,sans-Serif" font-size="10.00">std::vector::size</text>
</a>
</g>
</g>
<!-- Node1&#45;&gt;Node2 -->
<g id="edge2" class="edge">
<title>Node1&#45;&gt;Node2</title>
<path fill="none" stroke="midnightblue" d="M147.1,-15.5C155.67,-15.5 164.27,-15.5 172.48,-15.5"/>
<polygon fill="midnightblue" stroke="midnightblue" points="172.64,-19 182.64,-15.5 172.64,-12 172.64,-19"/>
</g>
</g>
</svg>
