<?xml version="1.0" encoding="UTF-8" standalone="no"?>
<!DOCTYPE svg PUBLIC "-//W3C//DTD SVG 1.1//EN"
 "http://www.w3.org/Graphics/SVG/1.1/DTD/svg11.dtd">
<!-- Generated by graphviz version 2.50.0 (20211204.2007)
 -->
<!-- Title: main Pages: 1 -->
<svg width="452pt" height="332pt"
 viewBox="0.00 0.00 452.00 332.00" xmlns="http://www.w3.org/2000/svg" xmlns:xlink="http://www.w3.org/1999/xlink">
<g id="graph0" class="graph" transform="scale(1 1) rotate(0) translate(4 328)">
<title>main</title>
<polygon fill="white" stroke="transparent" points="-4,4 -4,-328 448,-328 448,4 -4,4"/>
<!-- Node1 -->
<g id="node1" class="node">
<title>Node1</title>
<g id="a_node1"><a xlink:title="Main function.">
<polygon fill="#bfbfbf" stroke="black" points="0,-228.5 0,-247.5 38,-247.5 38,-228.5 0,-228.5"/>
<text text-anchor="middle" x="19" y="-235.5" font-family="Helvetica,sans-Serif" font-size="10.00">main</text>
</a>
</g>
</g>
<!-- Node2 -->
<g id="node2" class="node">
<title>Node2</title>
<g id="a_node2"><a xlink:href="../../d3/dae/dsu__path__compression_8cpp.html#ae7880ce913f3058a35ff106d5be9e243" target="_top" xlink:title="Self&#45;test implementations, 1st test.">
<polygon fill="white" stroke="black" points="74,-247.5 74,-266.5 112,-266.5 112,-247.5 74,-247.5"/>
<text text-anchor="middle" x="93" y="-254.5" font-family="Helvetica,sans-Serif" font-size="10.00">test1</text>
</a>
</g>
</g>
<!-- Node1&#45;&gt;Node2 -->
<g id="edge1" class="edge">
<title>Node1&#45;&gt;Node2</title>
<path fill="none" stroke="midnightblue" d="M38.17,-242.79C45.95,-244.85 55.23,-247.3 63.87,-249.58"/>
<polygon fill="midnightblue" stroke="midnightblue" points="63.02,-252.97 73.59,-252.14 64.81,-246.21 63.02,-252.97"/>
</g>
<!-- Node14 -->
<g id="node14" class="node">
<title>Node14</title>
<g id="a_node14"><a xlink:href="../../d3/dae/dsu__path__compression_8cpp.html#a45d94ead4cf4e1ff9f87c38bc99f59ae" target="_top" xlink:title="Self&#45;implementations, 2nd test.">
<polygon fill="white" stroke="black" points="74,-209.5 74,-228.5 112,-228.5 112,-209.5 74,-209.5"/>
<text text-anchor="middle" x="93" y="-216.5" font-family="Helvetica,sans-Serif" font-size="10.00">test2</text>
</a>
</g>
</g>
<!-- Node1&#45;&gt;Node14 -->
<g id="edge19" class="edge">
<title>Node1&#45;&gt;Node14</title>
<path fill="none" stroke="midnightblue" d="M38.17,-233.21C45.95,-231.15 55.23,-228.7 63.87,-226.42"/>
<polygon fill="midnightblue" stroke="midnightblue" points="64.81,-229.79 73.59,-223.86 63.02,-223.03 64.81,-229.79"/>
</g>
<!-- Node3 -->
<g id="node3" class="node">
<title>Node3</title>
<g id="a_node3"><a xlink:href="../../d7/d35/matrix__exponentiation_8cpp.html#ad8389ed58fd0ec66df248014775ad1fa" target="_top" xlink:title=" ">
<polygon fill="white" stroke="black" points="285,-304.5 285,-323.5 317,-323.5 317,-304.5 285,-304.5"/>
<text text-anchor="middle" x="301" y="-311.5" font-family="Helvetica,sans-Serif" font-size="10.00">ans</text>
</a>
</g>
</g>
<!-- Node2&#45;&gt;Node3 -->
<g id="edge2" class="edge">
<title>Node2&#45;&gt;Node3</title>
<path fill="none" stroke="midnightblue" d="M106.58,-266.67C117.08,-274.23 132.74,-284.38 148,-290 190.65,-305.69 243.73,-311.13 274.55,-313.01"/>
<polygon fill="midnightblue" stroke="midnightblue" points="274.67,-316.52 284.84,-313.55 275.04,-309.53 274.67,-316.52"/>
</g>
<!-- Node4 -->
<g id="node4" class="node">
<title>Node4</title>
<g id="a_node4"><a xlink:href="../../dd/d1f/classdsu.html#a0ce2672c570f4235eafddb0c9a58115a" target="_top" xlink:title="prints the minimum, maximum and size of the set to which i belongs to">
<polygon fill="white" stroke="black" points="161.5,-228.5 161.5,-247.5 213.5,-247.5 213.5,-228.5 161.5,-228.5"/>
<text text-anchor="middle" x="187.5" y="-235.5" font-family="Helvetica,sans-Serif" font-size="10.00">dsu::get</text>
</a>
</g>
</g>
<!-- Node2&#45;&gt;Node4 -->
<g id="edge3" class="edge">
<title>Node2&#45;&gt;Node4</title>
<path fill="none" stroke="midnightblue" d="M112.28,-253.25C123.44,-250.95 138.08,-247.95 151.4,-245.21"/>
<polygon fill="midnightblue" stroke="midnightblue" points="152.17,-248.62 161.26,-243.18 150.76,-241.77 152.17,-248.62"/>
</g>
<!-- Node9 -->
<g id="node9" class="node">
<title>Node9</title>
<g id="a_node9"><a xlink:href="../../dd/d1f/classdsu.html#a6ac30c07abca2aaa3b291504c25c3559" target="_top" xlink:title="Method that combines two disjoint sets to which i and j belongs to and make a single set having a com...">
<polygon fill="white" stroke="black" points="148,-114.5 148,-133.5 227,-133.5 227,-114.5 148,-114.5"/>
<text text-anchor="middle" x="187.5" y="-121.5" font-family="Helvetica,sans-Serif" font-size="10.00">dsu::UnionSet</text>
</a>
</g>
</g>
<!-- Node2&#45;&gt;Node9 -->
<g id="edge12" class="edge">
<title>Node2&#45;&gt;Node9</title>
<path fill="none" stroke="midnightblue" d="M103.88,-247.25C106.62,-244.36 109.52,-241.14 112,-238 137.26,-206.02 162.28,-165.42 175.93,-142.31"/>
<polygon fill="midnightblue" stroke="midnightblue" points="179.03,-143.95 181.05,-133.55 172.98,-140.42 179.03,-143.95"/>
</g>
<!-- Node4&#45;&gt;Node3 -->
<g id="edge4" class="edge">
<title>Node4&#45;&gt;Node3</title>
<path fill="none" stroke="midnightblue" d="M205.43,-247.63C212.32,-251.78 220.23,-256.85 227,-262 244.28,-275.13 245.19,-282.6 263,-295 266.91,-297.72 271.25,-300.3 275.56,-302.63"/>
<polygon fill="midnightblue" stroke="midnightblue" points="274.21,-305.87 284.71,-307.29 277.39,-299.63 274.21,-305.87"/>
</g>
<!-- Node5 -->
<g id="node5" class="node">
<title>Node5</title>
<g id="a_node5"><a xlink:href="../../dd/d1f/classdsu.html#a696141b8b092466767f4bfe1c5e46cde" target="_top" xlink:title="A utility function that returns the max element of the set to which i belongs to.">
<polygon fill="white" stroke="black" points="263,-266.5 263,-285.5 339,-285.5 339,-266.5 263,-266.5"/>
<text text-anchor="middle" x="301" y="-273.5" font-family="Helvetica,sans-Serif" font-size="10.00">dsu::get_max</text>
</a>
</g>
</g>
<!-- Node4&#45;&gt;Node5 -->
<g id="edge5" class="edge">
<title>Node4&#45;&gt;Node5</title>
<path fill="none" stroke="midnightblue" d="M213.52,-246.53C227.88,-251.42 246.19,-257.66 262.26,-263.14"/>
<polygon fill="midnightblue" stroke="midnightblue" points="261.33,-266.52 271.92,-266.43 263.59,-259.89 261.33,-266.52"/>
</g>
<!-- Node7 -->
<g id="node7" class="node">
<title>Node7</title>
<g id="a_node7"><a xlink:href="../../dd/d1f/classdsu.html#ac713a5b496d0405c82e2808a85e58415" target="_top" xlink:title="A utility function that returns the min element of the set to which i belongs to.">
<polygon fill="white" stroke="black" points="264.5,-228.5 264.5,-247.5 337.5,-247.5 337.5,-228.5 264.5,-228.5"/>
<text text-anchor="middle" x="301" y="-235.5" font-family="Helvetica,sans-Serif" font-size="10.00">dsu::get_min</text>
</a>
</g>
</g>
<!-- Node4&#45;&gt;Node7 -->
<g id="edge8" class="edge">
<title>Node4&#45;&gt;Node7</title>
<path fill="none" stroke="midnightblue" d="M213.52,-238C225.5,-238 240.22,-238 254.1,-238"/>
<polygon fill="midnightblue" stroke="midnightblue" points="254.49,-241.5 264.49,-238 254.49,-234.5 254.49,-241.5"/>
</g>
<!-- Node8 -->
<g id="node8" class="node">
<title>Node8</title>
<g id="a_node8"><a xlink:href="../../dd/d1f/classdsu.html#a1c24228b0f2f49220133fb8c3566a55c" target="_top" xlink:title="A utility function that returns the size of the set to which i belongs to.">
<polygon fill="white" stroke="black" points="273,-190.5 273,-209.5 329,-209.5 329,-190.5 273,-190.5"/>
<text text-anchor="middle" x="301" y="-197.5" font-family="Helvetica,sans-Serif" font-size="10.00">dsu::size</text>
</a>
</g>
</g>
<!-- Node4&#45;&gt;Node8 -->
<g id="edge10" class="edge">
<title>Node4&#45;&gt;Node8</title>
<path fill="none" stroke="midnightblue" d="M213.52,-229.47C228.09,-224.51 246.73,-218.15 262.97,-212.62"/>
<polygon fill="midnightblue" stroke="midnightblue" points="264.38,-215.84 272.72,-209.3 262.12,-209.21 264.38,-215.84"/>
</g>
<!-- Node6 -->
<g id="node6" class="node">
<title>Node6</title>
<g id="a_node6"><a xlink:href="../../dd/d1f/classdsu.html#a16851f78fe390fc1430905c83d6a2f1c" target="_top" xlink:title="Method to find the representative of the set to which i belongs to, T(n) = O(1)">
<polygon fill="white" stroke="black" points="375,-190.5 375,-209.5 444,-209.5 444,-190.5 375,-190.5"/>
<text text-anchor="middle" x="409.5" y="-197.5" font-family="Helvetica,sans-Serif" font-size="10.00">dsu::findSet</text>
</a>
</g>
</g>
<!-- Node5&#45;&gt;Node6 -->
<g id="edge6" class="edge">
<title>Node5&#45;&gt;Node6</title>
<path fill="none" stroke="midnightblue" d="M322.41,-266.5C327.93,-263.67 333.81,-260.41 339,-257 357.58,-244.81 377,-228.54 390.58,-216.5"/>
<polygon fill="midnightblue" stroke="midnightblue" points="393.12,-218.92 398.21,-209.63 388.44,-213.72 393.12,-218.92"/>
</g>
<!-- Node6&#45;&gt;Node6 -->
<g id="edge7" class="edge">
<title>Node6&#45;&gt;Node6</title>
<path fill="none" stroke="midnightblue" d="M392.85,-209.76C384.76,-218.57 390.3,-228 409.5,-228 421.5,-228 428.16,-224.31 429.5,-219.4"/>
<polygon fill="midnightblue" stroke="midnightblue" points="432.74,-218.05 426.15,-209.76 426.12,-220.35 432.74,-218.05"/>
</g>
<!-- Node7&#45;&gt;Node6 -->
<g id="edge9" class="edge">
<title>Node7&#45;&gt;Node6</title>
<path fill="none" stroke="midnightblue" d="M328.87,-228.41C341.99,-223.73 357.97,-218.03 372.15,-212.97"/>
<polygon fill="midnightblue" stroke="midnightblue" points="373.39,-216.24 381.63,-209.59 371.04,-209.65 373.39,-216.24"/>
</g>
<!-- Node8&#45;&gt;Node6 -->
<g id="edge11" class="edge">
<title>Node8&#45;&gt;Node6</title>
<path fill="none" stroke="midnightblue" d="M329.15,-200C339.92,-200 352.59,-200 364.6,-200"/>
<polygon fill="midnightblue" stroke="midnightblue" points="364.92,-203.5 374.92,-200 364.92,-196.5 364.92,-203.5"/>
</g>
<!-- Node9&#45;&gt;Node6 -->
<g id="edge13" class="edge">
<title>Node9&#45;&gt;Node6</title>
<path fill="none" stroke="midnightblue" d="M227.14,-123.07C258.49,-123.65 303.2,-127.6 339,-143 360.13,-152.09 379.97,-169.61 393,-182.84"/>
<polygon fill="midnightblue" stroke="midnightblue" points="390.76,-185.56 400.18,-190.41 395.84,-180.74 390.76,-185.56"/>
</g>
<!-- Node10 -->
<g id="node10" class="node">
<title>Node10</title>
<g id="a_node10"><a xlink:href="../../dd/d1f/classdsu.html#a64d25c5986742f7c234ed449b2ff7303" target="_top" xlink:title="A utility function which check whether i and j belongs to same set or not.">
<polygon fill="white" stroke="black" points="265.5,-152.5 265.5,-171.5 336.5,-171.5 336.5,-152.5 265.5,-152.5"/>
<text text-anchor="middle" x="301" y="-159.5" font-family="Helvetica,sans-Serif" font-size="10.00">dsu::isSame</text>
</a>
</g>
</g>
<!-- Node9&#45;&gt;Node10 -->
<g id="edge14" class="edge">
<title>Node9&#45;&gt;Node10</title>
<path fill="none" stroke="midnightblue" d="M216.64,-133.59C230.5,-138.31 247.42,-144.08 262.38,-149.18"/>
<polygon fill="midnightblue" stroke="midnightblue" points="261.28,-152.5 271.87,-152.41 263.54,-145.88 261.28,-152.5"/>
</g>
<!-- Node11 -->
<g id="node11" class="node">
<title>Node11</title>
<g id="a_node11"><a target="_blank" xlink:href="http://en.cppreference.com/w/cpp/algorithm/max.html#" xlink:title=" ">
<polygon fill="white" stroke="black" points="273.5,-76.5 273.5,-95.5 328.5,-95.5 328.5,-76.5 273.5,-76.5"/>
<text text-anchor="middle" x="301" y="-83.5" font-family="Helvetica,sans-Serif" font-size="10.00">std::max</text>
</a>
</g>
</g>
<!-- Node9&#45;&gt;Node11 -->
<g id="edge16" class="edge">
<title>Node9&#45;&gt;Node11</title>
<path fill="none" stroke="midnightblue" d="M216.64,-114.41C230.92,-109.54 248.45,-103.57 263.74,-98.36"/>
<polygon fill="midnightblue" stroke="midnightblue" points="265.07,-101.6 273.41,-95.06 262.81,-94.98 265.07,-101.6"/>
</g>
<!-- Node12 -->
<g id="node12" class="node">
<title>Node12</title>
<g id="a_node12"><a target="_blank" xlink:href="http://en.cppreference.com/w/cpp/algorithm/min.html#" xlink:title=" ">
<polygon fill="white" stroke="black" points="275,-38.5 275,-57.5 327,-57.5 327,-38.5 275,-38.5"/>
<text text-anchor="middle" x="301" y="-45.5" font-family="Helvetica,sans-Serif" font-size="10.00">std::min</text>
</a>
</g>
</g>
<!-- Node9&#45;&gt;Node12 -->
<g id="edge17" class="edge">
<title>Node9&#45;&gt;Node12</title>
<path fill="none" stroke="midnightblue" d="M199.65,-114.45C213.83,-102.55 239.32,-81.97 263,-67 265.46,-65.44 268.06,-63.91 270.7,-62.42"/>
<polygon fill="midnightblue" stroke="midnightblue" points="272.51,-65.43 279.67,-57.62 269.2,-59.26 272.51,-65.43"/>
</g>
<!-- Node13 -->
<g id="node13" class="node">
<title>Node13</title>
<g id="a_node13"><a target="_blank" xlink:href="http://en.cppreference.com/w/cpp/algorithm/swap.html#" xlink:title=" ">
<polygon fill="white" stroke="black" points="271.5,-0.5 271.5,-19.5 330.5,-19.5 330.5,-0.5 271.5,-0.5"/>
<text text-anchor="middle" x="301" y="-7.5" font-family="Helvetica,sans-Serif" font-size="10.00">std::swap</text>
</a>
</g>
</g>
<!-- Node9&#45;&gt;Node13 -->
<g id="edge18" class="edge">
<title>Node9&#45;&gt;Node13</title>
<path fill="none" stroke="midnightblue" d="M194.15,-114.25C205.3,-95.67 231.8,-54.75 263,-29 264.76,-27.54 266.66,-26.16 268.62,-24.84"/>
<polygon fill="midnightblue" stroke="midnightblue" points="270.69,-27.69 277.51,-19.58 267.12,-21.67 270.69,-27.69"/>
</g>
<!-- Node10&#45;&gt;Node6 -->
<g id="edge15" class="edge">
<title>Node10&#45;&gt;Node6</title>
<path fill="none" stroke="midnightblue" d="M328.87,-171.59C341.99,-176.27 357.97,-181.97 372.15,-187.03"/>
<polygon fill="midnightblue" stroke="midnightblue" points="371.04,-190.35 381.63,-190.41 373.39,-183.76 371.04,-190.35"/>
</g>
<!-- Node14&#45;&gt;Node3 -->
<g id="edge20" class="edge">
<title>Node14&#45;&gt;Node3</title>
<path fill="none" stroke="midnightblue" d="M105.87,-228.69C116.44,-236.99 132.59,-248.86 148,-257 170.78,-269.03 238.54,-292.95 275.42,-305.64"/>
<polygon fill="midnightblue" stroke="midnightblue" points="274.34,-308.97 284.94,-308.9 276.61,-302.35 274.34,-308.97"/>
</g>
<!-- Node14&#45;&gt;Node4 -->
<g id="edge21" class="edge">
<title>Node14&#45;&gt;Node4</title>
<path fill="none" stroke="midnightblue" d="M112.28,-222.75C123.44,-225.05 138.08,-228.05 151.4,-230.79"/>
<polygon fill="midnightblue" stroke="midnightblue" points="150.76,-234.23 161.26,-232.82 152.17,-227.38 150.76,-234.23"/>
</g>
<!-- Node14&#45;&gt;Node9 -->
<g id="edge22" class="edge">
<title>Node14&#45;&gt;Node9</title>
<path fill="none" stroke="midnightblue" d="M103.55,-209.19C119.28,-193.04 150.82,-160.65 170.15,-140.79"/>
<polygon fill="midnightblue" stroke="midnightblue" points="172.67,-143.22 177.14,-133.61 167.66,-138.34 172.67,-143.22"/>
</g>
</g>
</svg>
