<?xml version="1.0" encoding="UTF-8" standalone="no"?>
<!DOCTYPE svg PUBLIC "-//W3C//DTD SVG 1.1//EN"
 "http://www.w3.org/Graphics/SVG/1.1/DTD/svg11.dtd">
<!-- Generated by graphviz version 2.48.0 (20210717.1556)
 -->
<!-- Title: tests Pages: 1 -->
<svg width="491pt" height="107pt"
 viewBox="0.00 0.00 491.00 107.00" xmlns="http://www.w3.org/2000/svg" xmlns:xlink="http://www.w3.org/1999/xlink">
<g id="graph0" class="graph" transform="scale(1 1) rotate(0) translate(4 103)">
<title>tests</title>
<polygon fill="white" stroke="transparent" points="-4,4 -4,-103 487,-103 487,4 -4,4"/>
<!-- Node1 -->
<g id="node1" class="node">
<title>Node1</title>
<g id="a_node1"><a xlink:title=" ">
<polygon fill="#bfbfbf" stroke="black" points="0,-57.5 0,-76.5 38,-76.5 38,-57.5 0,-57.5"/>
<text text-anchor="middle" x="19" y="-64.5" font-family="Helvetica,sans-Serif" font-size="10.00">tests</text>
</a>
</g>
</g>
<!-- Node2 -->
<g id="node2" class="node">
<title>Node2</title>
<g id="a_node2"><a xlink:href="../../d8/d69/classgraph_1_1_h_k_graph.html#a3b49011c09cf90a116ab53bef61cd95a" target="_top" xlink:title="function to add edge from u to v">
<polygon fill="white" stroke="black" points="74,-79.5 74,-98.5 209,-98.5 209,-79.5 74,-79.5"/>
<text text-anchor="middle" x="141.5" y="-86.5" font-family="Helvetica,sans-Serif" font-size="10.00">graph::HKGraph::addEdge</text>
</a>
</g>
</g>
<!-- Node1&#45;&gt;Node2 -->
<g id="edge1" class="edge">
<title>Node1&#45;&gt;Node2</title>
<path fill="none" stroke="midnightblue" d="M38.04,-70.29C48.92,-72.28 63.5,-74.94 78.23,-77.63"/>
<polygon fill="midnightblue" stroke="midnightblue" points="77.95,-81.14 88.42,-79.49 79.21,-74.25 77.95,-81.14"/>
</g>
<!-- Node4 -->
<g id="node4" class="node">
<title>Node4</title>
<g id="a_node4"><a xlink:href="../../d8/d69/classgraph_1_1_h_k_graph.html#a9dbda80d02bdc26c3e8ff7330c9be75d" target="_top" xlink:title="This function counts the number of augmenting paths between left and right sides of the Bipartite gra...">
<polygon fill="white" stroke="black" points="76,-30 76,-60 207,-60 207,-30 76,-30"/>
<text text-anchor="start" x="84" y="-48" font-family="Helvetica,sans-Serif" font-size="10.00">graph::HKGraph::hopcroft</text>
<text text-anchor="middle" x="141.5" y="-37" font-family="Helvetica,sans-Serif" font-size="10.00">KarpAlgorithm</text>
</a>
</g>
</g>
<!-- Node1&#45;&gt;Node4 -->
<g id="edge3" class="edge">
<title>Node1&#45;&gt;Node4</title>
<path fill="none" stroke="midnightblue" d="M38.04,-63.71C45.85,-62.28 55.57,-60.51 65.88,-58.62"/>
<polygon fill="midnightblue" stroke="midnightblue" points="66.69,-62.03 75.9,-56.79 65.43,-55.15 66.69,-62.03"/>
</g>
<!-- Node3 -->
<g id="node3" class="node">
<title>Node3</title>
<g id="a_node3"><a target="_blank" xlink:href="http://en.cppreference.com/w/cpp/container/vector/push_back.html#" xlink:title=" ">
<polygon fill="white" stroke="black" points="245,-79.5 245,-98.5 362,-98.5 362,-79.5 245,-79.5"/>
<text text-anchor="middle" x="303.5" y="-86.5" font-family="Helvetica,sans-Serif" font-size="10.00">std::vector::push_back</text>
</a>
</g>
</g>
<!-- Node2&#45;&gt;Node3 -->
<g id="edge2" class="edge">
<title>Node2&#45;&gt;Node3</title>
<path fill="none" stroke="midnightblue" d="M209.43,-89C217.83,-89 226.43,-89 234.84,-89"/>
<polygon fill="midnightblue" stroke="midnightblue" points="234.98,-92.5 244.98,-89 234.98,-85.5 234.98,-92.5"/>
</g>
<!-- Node5 -->
<g id="node5" class="node">
<title>Node5</title>
<g id="a_node5"><a xlink:href="../../d8/d69/classgraph_1_1_h_k_graph.html#a7491add14d9fc04f679114ca6d6f0f93" target="_top" xlink:title="This function checks for the possibility of augmented path availability.">
<polygon fill="white" stroke="black" points="249.5,-38.5 249.5,-57.5 357.5,-57.5 357.5,-38.5 249.5,-38.5"/>
<text text-anchor="middle" x="303.5" y="-45.5" font-family="Helvetica,sans-Serif" font-size="10.00">graph::HKGraph::bfs</text>
</a>
</g>
</g>
<!-- Node4&#45;&gt;Node5 -->
<g id="edge4" class="edge">
<title>Node4&#45;&gt;Node5</title>
<path fill="none" stroke="midnightblue" d="M207.12,-46.21C217.76,-46.41 228.79,-46.62 239.4,-46.82"/>
<polygon fill="midnightblue" stroke="midnightblue" points="239.35,-50.32 249.42,-47 239.49,-43.32 239.35,-50.32"/>
</g>
<!-- Node7 -->
<g id="node7" class="node">
<title>Node7</title>
<g id="a_node7"><a xlink:href="../../d8/d69/classgraph_1_1_h_k_graph.html#ae794950cb3407b6b47d3dc986cf714c0" target="_top" xlink:title="This functions checks whether an augmenting path is available exists beginning with free vertex u.">
<polygon fill="white" stroke="black" points="249.5,-0.5 249.5,-19.5 357.5,-19.5 357.5,-0.5 249.5,-0.5"/>
<text text-anchor="middle" x="303.5" y="-7.5" font-family="Helvetica,sans-Serif" font-size="10.00">graph::HKGraph::dfs</text>
</a>
</g>
</g>
<!-- Node4&#45;&gt;Node7 -->
<g id="edge6" class="edge">
<title>Node4&#45;&gt;Node7</title>
<path fill="none" stroke="midnightblue" d="M207.12,-30.87C220.94,-27.84 235.4,-24.68 248.76,-21.76"/>
<polygon fill="midnightblue" stroke="midnightblue" points="249.71,-25.13 258.73,-19.57 248.22,-18.29 249.71,-25.13"/>
</g>
<!-- Node6 -->
<g id="node6" class="node">
<title>Node6</title>
<g id="a_node6"><a target="_blank" xlink:href="http://en.cppreference.com/w/cpp/container/vector/end.html#" xlink:title=" ">
<polygon fill="white" stroke="black" points="398,-19.5 398,-38.5 483,-38.5 483,-19.5 398,-19.5"/>
<text text-anchor="middle" x="440.5" y="-26.5" font-family="Helvetica,sans-Serif" font-size="10.00">std::vector::end</text>
</a>
</g>
</g>
<!-- Node5&#45;&gt;Node6 -->
<g id="edge5" class="edge">
<title>Node5&#45;&gt;Node6</title>
<path fill="none" stroke="midnightblue" d="M357.86,-40.49C367.7,-39.1 377.97,-37.66 387.76,-36.28"/>
<polygon fill="midnightblue" stroke="midnightblue" points="388.35,-39.73 397.77,-34.87 387.38,-32.8 388.35,-39.73"/>
</g>
<!-- Node7&#45;&gt;Node6 -->
<g id="edge7" class="edge">
<title>Node7&#45;&gt;Node6</title>
<path fill="none" stroke="midnightblue" d="M357.86,-17.51C367.7,-18.9 377.97,-20.34 387.76,-21.72"/>
<polygon fill="midnightblue" stroke="midnightblue" points="387.38,-25.2 397.77,-23.13 388.35,-18.27 387.38,-25.2"/>
</g>
</g>
</svg>
