<?xml version="1.0" encoding="UTF-8" standalone="no"?>
<!DOCTYPE svg PUBLIC "-//W3C//DTD SVG 1.1//EN"
 "http://www.w3.org/Graphics/SVG/1.1/DTD/svg11.dtd">
<!-- Generated by graphviz version 9.0.0 (20230911.1827)
 -->
<!-- Title: tests Pages: 1 -->
<svg width="485pt" height="122pt"
 viewBox="0.00 0.00 484.50 122.25" xmlns="http://www.w3.org/2000/svg" xmlns:xlink="http://www.w3.org/1999/xlink">
<g id="graph0" class="graph" transform="scale(1 1) rotate(0) translate(4 118.25)">
<title>tests</title>
<!-- Node1 -->
<g id="Node000001" class="node">
<title>Node1</title>
<g id="a_Node000001"><a xlink:title=" ">
<polygon fill="#999999" stroke="#666666" points="37.75,-92.25 0,-92.25 0,-73 37.75,-73 37.75,-92.25"/>
<text text-anchor="middle" x="18.88" y="-78.75" font-family="Helvetica,sans-Serif" font-size="10.00">tests</text>
</a>
</g>
</g>
<!-- Node2 -->
<g id="Node000002" class="node">
<title>Node2</title>
<g id="a_Node000002"><a xlink:href="../../d8/d69/classgraph_1_1_h_k_graph.html#a3b49011c09cf90a116ab53bef61cd95a" target="_top" xlink:title="function to add edge from u to v">
<polygon fill="white" stroke="#666666" points="204.5,-114.25 73.75,-114.25 73.75,-95 204.5,-95 204.5,-114.25"/>
<text text-anchor="middle" x="139.12" y="-100.75" font-family="Helvetica,sans-Serif" font-size="10.00">graph::HKGraph::addEdge</text>
</a>
</g>
</g>
<!-- Node1&#45;&gt;Node2 -->
<g id="edge1_Node000001_Node000002" class="edge">
<title>Node1&#45;&gt;Node2</title>
<g id="a_edge1_Node000001_Node000002"><a xlink:title=" ">
<path fill="none" stroke="#63b8ff" d="M38.09,-86.01C47.61,-87.79 59.91,-90.07 72.6,-92.43"/>
<polygon fill="#63b8ff" stroke="#63b8ff" points="71.84,-95.85 82.31,-94.24 73.12,-88.97 71.84,-95.85"/>
</a>
</g>
</g>
<!-- Node4 -->
<g id="Node000004" class="node">
<title>Node4</title>
<g id="a_Node000004"><a xlink:href="../../d8/d69/classgraph_1_1_h_k_graph.html#a9dbda80d02bdc26c3e8ff7330c9be75d" target="_top" xlink:title="This function counts the number of augmenting paths between left and right sides of the Bipartite gra...">
<polygon fill="white" stroke="#666666" points="203,-76.88 75.25,-76.88 75.25,-46.38 203,-46.38 203,-76.88"/>
<text text-anchor="start" x="83.25" y="-63.38" font-family="Helvetica,sans-Serif" font-size="10.00">graph::HKGraph::hopcroft</text>
<text text-anchor="middle" x="139.12" y="-52.12" font-family="Helvetica,sans-Serif" font-size="10.00">KarpAlgorithm</text>
</a>
</g>
</g>
<!-- Node1&#45;&gt;Node4 -->
<g id="edge3_Node000001_Node000004" class="edge">
<title>Node1&#45;&gt;Node4</title>
<g id="a_edge3_Node000001_Node000004"><a xlink:title=" ">
<path fill="none" stroke="#63b8ff" d="M38.09,-79.39C45.36,-78.1 54.24,-76.52 63.68,-74.85"/>
<polygon fill="#63b8ff" stroke="#63b8ff" points="64.23,-78.3 73.46,-73.11 63,-71.41 64.23,-78.3"/>
</a>
</g>
</g>
<!-- Node3 -->
<g id="Node000003" class="node">
<title>Node3</title>
<g id="a_Node000003"><a target="_blank" xlink:href="http://en.cppreference.com/w/cpp/container/vector/push_back.html#" xlink:title=" ">
<polygon fill="white" stroke="#666666" points="356.25,-114.25 240.5,-114.25 240.5,-95 356.25,-95 356.25,-114.25"/>
<text text-anchor="middle" x="298.38" y="-100.75" font-family="Helvetica,sans-Serif" font-size="10.00">std::vector::push_back</text>
</a>
</g>
</g>
<!-- Node2&#45;&gt;Node3 -->
<g id="edge2_Node000002_Node000003" class="edge">
<title>Node2&#45;&gt;Node3</title>
<g id="a_edge2_Node000002_Node000003"><a xlink:title=" ">
<path fill="none" stroke="#63b8ff" d="M204.99,-104.62C212.84,-104.62 220.87,-104.62 228.77,-104.62"/>
<polygon fill="#63b8ff" stroke="#63b8ff" points="228.68,-108.13 238.68,-104.63 228.68,-101.13 228.68,-108.13"/>
</a>
</g>
</g>
<!-- Node5 -->
<g id="Node000005" class="node">
<title>Node5</title>
<g id="a_Node000005"><a xlink:href="../../d8/d69/classgraph_1_1_h_k_graph.html#a7491add14d9fc04f679114ca6d6f0f93" target="_top" xlink:title="This function checks for the possibility of augmented path availability.">
<polygon fill="white" stroke="#666666" points="351.38,-74.25 245.38,-74.25 245.38,-55 351.38,-55 351.38,-74.25"/>
<text text-anchor="middle" x="298.38" y="-60.75" font-family="Helvetica,sans-Serif" font-size="10.00">graph::HKGraph::bfs</text>
</a>
</g>
</g>
<!-- Node4&#45;&gt;Node5 -->
<g id="edge4_Node000004_Node000005" class="edge">
<title>Node4&#45;&gt;Node5</title>
<g id="a_edge4_Node000004_Node000005"><a xlink:title=" ">
<path fill="none" stroke="#63b8ff" d="M203.18,-62.83C213.24,-63.02 223.65,-63.22 233.72,-63.41"/>
<polygon fill="#63b8ff" stroke="#63b8ff" points="233.33,-66.9 243.39,-63.6 233.46,-59.9 233.33,-66.9"/>
</a>
</g>
</g>
<!-- Node7 -->
<g id="Node000007" class="node">
<title>Node7</title>
<g id="a_Node000007"><a xlink:href="../../d8/d69/classgraph_1_1_h_k_graph.html#ae794950cb3407b6b47d3dc986cf714c0" target="_top" xlink:title="This functions checks whether an augmenting path is available exists beginning with free vertex u.">
<polygon fill="white" stroke="#666666" points="351.38,-19.25 245.38,-19.25 245.38,0 351.38,0 351.38,-19.25"/>
<text text-anchor="middle" x="298.38" y="-5.75" font-family="Helvetica,sans-Serif" font-size="10.00">graph::HKGraph::dfs</text>
</a>
</g>
</g>
<!-- Node4&#45;&gt;Node7 -->
<g id="edge6_Node000004_Node000007" class="edge">
<title>Node4&#45;&gt;Node7</title>
<g id="a_edge6_Node000004_Node000007"><a xlink:title=" ">
<path fill="none" stroke="#63b8ff" d="M187.73,-45.88C209.49,-38.69 235.03,-30.24 255.98,-23.31"/>
<polygon fill="#63b8ff" stroke="#63b8ff" points="256.95,-26.68 265.35,-20.22 254.75,-20.03 256.95,-26.68"/>
</a>
</g>
</g>
<!-- Node6 -->
<g id="Node000006" class="node">
<title>Node6</title>
<g id="a_Node000006"><a target="_blank" xlink:href="http://en.cppreference.com/w/cpp/container/vector/end.html#" xlink:title=" ">
<polygon fill="white" stroke="#666666" points="476.5,-46.25 392.25,-46.25 392.25,-27 476.5,-27 476.5,-46.25"/>
<text text-anchor="middle" x="434.38" y="-32.75" font-family="Helvetica,sans-Serif" font-size="10.00">std::vector::end</text>
</a>
</g>
</g>
<!-- Node5&#45;&gt;Node6 -->
<g id="edge5_Node000005_Node000006" class="edge">
<title>Node5&#45;&gt;Node6</title>
<g id="a_edge5_Node000005_Node000006"><a xlink:title=" ">
<path fill="none" stroke="#63b8ff" d="M347.75,-54.52C358.55,-52.26 370.04,-49.86 380.99,-47.57"/>
<polygon fill="#63b8ff" stroke="#63b8ff" points="381.59,-51.02 390.66,-45.55 380.16,-44.17 381.59,-51.02"/>
</a>
</g>
</g>
<!-- Node7&#45;&gt;Node6 -->
<g id="edge8_Node000007_Node000006" class="edge">
<title>Node7&#45;&gt;Node6</title>
<g id="a_edge8_Node000007_Node000006"><a xlink:title=" ">
<path fill="none" stroke="#63b8ff" d="M349.27,-19.68C359.54,-21.75 370.39,-23.93 380.76,-26.02"/>
<polygon fill="#63b8ff" stroke="#63b8ff" points="379.79,-29.4 390.28,-27.94 381.17,-22.54 379.79,-29.4"/>
</a>
</g>
</g>
<!-- Node7&#45;&gt;Node7 -->
<g id="edge7_Node000007_Node000007" class="edge">
<title>Node7&#45;&gt;Node7</title>
<g id="a_edge7_Node000007_Node000007"><a xlink:title=" ">
<path fill="none" stroke="#63b8ff" d="M277.08,-19.54C267.37,-28.15 274.47,-37.25 298.38,-37.25 311.45,-37.25 319.5,-34.53 322.51,-30.65"/>
<polygon fill="#63b8ff" stroke="#63b8ff" points="325.92,-29.82 320.04,-21 319.13,-31.56 325.92,-29.82"/>
</a>
</g>
</g>
</g>
</svg>
