<?xml version="1.0" encoding="UTF-8" standalone="no"?>
<!DOCTYPE svg PUBLIC "-//W3C//DTD SVG 1.1//EN"
 "http://www.w3.org/Graphics/SVG/1.1/DTD/svg11.dtd">
<!-- Generated by graphviz version 7.1.0 (20230121.1956)
 -->
<!-- Title: ciphers/uint256_t.hpp Pages: 1 -->
<svg width="252pt" height="137pt"
 viewBox="0.00 0.00 251.50 137.00" xmlns="http://www.w3.org/2000/svg" xmlns:xlink="http://www.w3.org/1999/xlink">
<g id="graph0" class="graph" transform="scale(1 1) rotate(0) translate(4 133)">
<title>ciphers/uint256_t.hpp</title>
<!-- Node1 -->
<g id="node1" class="node">
<title>Node1</title>
<g id="a_node1"><a xlink:title=" ">
<polygon fill="#999999" stroke="#666666" points="128.5,-129 18.5,-129 18.5,-110 128.5,-110 128.5,-129"/>
<text text-anchor="middle" x="73.5" y="-117" font-family="Helvetica,sans-Serif" font-size="10.00">ciphers/uint256_t.hpp</text>
</a>
</g>
</g>
<!-- Node2 -->
<g id="node2" class="node">
<title>Node2</title>
<g id="a_node2"><a xlink:title=" ">
<polygon fill="#e0e0e0" stroke="#999999" points="41,-19 0,-19 0,0 41,0 41,-19"/>
<text text-anchor="middle" x="20.5" y="-7" font-family="Helvetica,sans-Serif" font-size="10.00">string</text>
</a>
</g>
</g>
<!-- Node1&#45;&gt;Node2 -->
<g id="edge1" class="edge">
<title>Node1&#45;&gt;Node2</title>
<path fill="none" stroke="#63b8ff" d="M69.16,-109.66C60.62,-92.26 41.45,-53.19 29.88,-29.62"/>
<polygon fill="#63b8ff" stroke="#63b8ff" points="33.11,-28.25 25.56,-20.82 26.83,-31.34 33.11,-28.25"/>
</g>
<!-- Node3 -->
<g id="node3" class="node">
<title>Node3</title>
<g id="a_node3"><a xlink:title=" ">
<polygon fill="#e0e0e0" stroke="#999999" points="99.5,-19 59.5,-19 59.5,0 99.5,0 99.5,-19"/>
<text text-anchor="middle" x="79.5" y="-7" font-family="Helvetica,sans-Serif" font-size="10.00">utility</text>
</a>
</g>
</g>
<!-- Node1&#45;&gt;Node3 -->
<g id="edge2" class="edge">
<title>Node1&#45;&gt;Node3</title>
<path fill="none" stroke="#63b8ff" d="M73.99,-109.66C74.94,-92.57 77.05,-54.61 78.37,-30.92"/>
<polygon fill="#63b8ff" stroke="#63b8ff" points="81.86,-31.15 78.92,-20.97 74.87,-30.76 81.86,-31.15"/>
</g>
<!-- Node4 -->
<g id="node4" class="node">
<title>Node4</title>
<g id="a_node4"><a xlink:href="../../da/d41/uint128__t_8hpp.html" target="_top" xlink:title=" ">
<polygon fill="white" stroke="#666666" points="177,-74 102,-74 102,-55 177,-55 177,-74"/>
<text text-anchor="middle" x="139.5" y="-62" font-family="Helvetica,sans-Serif" font-size="10.00">uint128_t.hpp</text>
</a>
</g>
</g>
<!-- Node1&#45;&gt;Node4 -->
<g id="edge3" class="edge">
<title>Node1&#45;&gt;Node4</title>
<path fill="none" stroke="#63b8ff" d="M84.7,-109.51C94.24,-101.85 108.17,-90.66 119.61,-81.47"/>
<polygon fill="#63b8ff" stroke="#63b8ff" points="121.68,-84.3 127.29,-75.31 117.3,-78.84 121.68,-84.3"/>
</g>
<!-- Node4&#45;&gt;Node2 -->
<g id="edge6" class="edge">
<title>Node4&#45;&gt;Node2</title>
<path fill="none" stroke="#63b8ff" d="M119.31,-54.51C100.48,-46.12 72.13,-33.5 50.63,-23.92"/>
<polygon fill="#63b8ff" stroke="#63b8ff" points="52.33,-20.85 41.77,-19.97 49.48,-27.24 52.33,-20.85"/>
</g>
<!-- Node4&#45;&gt;Node3 -->
<g id="edge7" class="edge">
<title>Node4&#45;&gt;Node3</title>
<path fill="none" stroke="#63b8ff" d="M129.32,-54.51C120.74,-46.93 108.23,-35.88 97.9,-26.75"/>
<polygon fill="#63b8ff" stroke="#63b8ff" points="100.47,-24.36 90.66,-20.36 95.84,-29.6 100.47,-24.36"/>
</g>
<!-- Node5 -->
<g id="node5" class="node">
<title>Node5</title>
<g id="a_node5"><a xlink:title=" ">
<polygon fill="#e0e0e0" stroke="#999999" points="173.5,-19 117.5,-19 117.5,0 173.5,0 173.5,-19"/>
<text text-anchor="middle" x="145.5" y="-7" font-family="Helvetica,sans-Serif" font-size="10.00">algorithm</text>
</a>
</g>
</g>
<!-- Node4&#45;&gt;Node5 -->
<g id="edge4" class="edge">
<title>Node4&#45;&gt;Node5</title>
<path fill="none" stroke="#63b8ff" d="M140.49,-54.75C141.23,-48.19 142.28,-38.95 143.22,-30.6"/>
<polygon fill="#63b8ff" stroke="#63b8ff" points="146.67,-31.28 144.32,-20.95 139.71,-30.49 146.67,-31.28"/>
</g>
<!-- Node6 -->
<g id="node6" class="node">
<title>Node6</title>
<g id="a_node6"><a xlink:title=" ">
<polygon fill="#e0e0e0" stroke="#999999" points="243.5,-19 191.5,-19 191.5,0 243.5,0 243.5,-19"/>
<text text-anchor="middle" x="217.5" y="-7" font-family="Helvetica,sans-Serif" font-size="10.00">ostream</text>
</a>
</g>
</g>
<!-- Node4&#45;&gt;Node6 -->
<g id="edge5" class="edge">
<title>Node4&#45;&gt;Node6</title>
<path fill="none" stroke="#63b8ff" d="M152.73,-54.51C164.34,-46.62 181.47,-34.98 195.2,-25.65"/>
<polygon fill="#63b8ff" stroke="#63b8ff" points="196.91,-28.72 203.21,-20.21 192.97,-22.93 196.91,-28.72"/>
</g>
</g>
</svg>
