<?xml version="1.0" encoding="UTF-8" standalone="no"?>
<!DOCTYPE svg PUBLIC "-//W3C//DTD SVG 1.1//EN"
 "http://www.w3.org/Graphics/SVG/1.1/DTD/svg11.dtd">
<!-- Generated by graphviz version 8.0.2 (20230410.1723)
 -->
<!-- Title: ciphers/uint256_t.hpp Pages: 1 -->
<svg width="252pt" height="137pt"
 viewBox="0.00 0.00 251.50 137.00" xmlns="http://www.w3.org/2000/svg" xmlns:xlink="http://www.w3.org/1999/xlink">
<g id="graph0" class="graph" transform="scale(1 1) rotate(0) translate(4 133)">
<title>ciphers/uint256_t.hpp</title>
<!-- Node1 -->
<g id="node1" class="node">
<title>Node1</title>
<g id="a_node1"><a xlink:title=" ">
<polygon fill="#999999" stroke="#666666" points="128.5,-129 18.5,-129 18.5,-110 128.5,-110 128.5,-129"/>
<text text-anchor="middle" x="73.5" y="-117" font-family="Helvetica,sans-Serif" font-size="10.00">ciphers/uint256_t.hpp</text>
</a>
</g>
</g>
<!-- Node2 -->
<g id="node2" class="node">
<title>Node2</title>
<g id="a_node2"><a xlink:title=" ">
<polygon fill="#e0e0e0" stroke="#999999" points="41,-19 0,-19 0,0 41,0 41,-19"/>
<text text-anchor="middle" x="20.5" y="-7" font-family="Helvetica,sans-Serif" font-size="10.00">string</text>
</a>
</g>
</g>
<!-- Node1&#45;&gt;Node2 -->
<g id="edge1" class="edge">
<title>Node1&#45;&gt;Node2</title>
<path fill="none" stroke="#63b8ff" d="M69.16,-109.66C60.58,-92.18 41.28,-52.84 29.73,-29.3"/>
<polygon fill="#63b8ff" stroke="#63b8ff" points="32.44,-27.9 24.9,-20.46 26.16,-30.98 32.44,-27.9"/>
</g>
<!-- Node3 -->
<g id="node3" class="node">
<title>Node3</title>
<g id="a_node3"><a xlink:title=" ">
<polygon fill="#e0e0e0" stroke="#999999" points="99.5,-19 59.5,-19 59.5,0 99.5,0 99.5,-19"/>
<text text-anchor="middle" x="79.5" y="-7" font-family="Helvetica,sans-Serif" font-size="10.00">utility</text>
</a>
</g>
</g>
<!-- Node1&#45;&gt;Node3 -->
<g id="edge2" class="edge">
<title>Node1&#45;&gt;Node3</title>
<path fill="none" stroke="#63b8ff" d="M73.99,-109.66C74.95,-92.42 77.09,-53.9 78.4,-30.27"/>
<polygon fill="#63b8ff" stroke="#63b8ff" points="81.94,-30.64 79,-20.46 74.95,-30.25 81.94,-30.64"/>
</g>
<!-- Node4 -->
<g id="node4" class="node">
<title>Node4</title>
<g id="a_node4"><a xlink:href="../../da/d41/uint128__t_8hpp.html" target="_top" xlink:title=" ">
<polygon fill="white" stroke="#666666" points="177,-74 102,-74 102,-55 177,-55 177,-74"/>
<text text-anchor="middle" x="139.5" y="-62" font-family="Helvetica,sans-Serif" font-size="10.00">uint128_t.hpp</text>
</a>
</g>
</g>
<!-- Node1&#45;&gt;Node4 -->
<g id="edge3" class="edge">
<title>Node1&#45;&gt;Node4</title>
<path fill="none" stroke="#63b8ff" d="M84.7,-109.51C94.33,-101.77 108.45,-90.43 119.95,-81.2"/>
<polygon fill="#63b8ff" stroke="#63b8ff" points="121.86,-83.35 127.47,-74.36 117.48,-77.89 121.86,-83.35"/>
</g>
<!-- Node4&#45;&gt;Node2 -->
<g id="edge6" class="edge">
<title>Node4&#45;&gt;Node2</title>
<path fill="none" stroke="#63b8ff" d="M119.31,-54.51C100.39,-46.08 71.88,-33.38 50.33,-23.79"/>
<polygon fill="#63b8ff" stroke="#63b8ff" points="51.95,-20.23 41.39,-19.36 49.1,-26.62 51.95,-20.23"/>
</g>
<!-- Node4&#45;&gt;Node3 -->
<g id="edge7" class="edge">
<title>Node4&#45;&gt;Node3</title>
<path fill="none" stroke="#63b8ff" d="M129.32,-54.51C120.65,-46.85 107.98,-35.66 97.58,-26.47"/>
<polygon fill="#63b8ff" stroke="#63b8ff" points="100.34,-24.36 90.53,-20.36 95.71,-29.6 100.34,-24.36"/>
</g>
<!-- Node5 -->
<g id="node5" class="node">
<title>Node5</title>
<g id="a_node5"><a xlink:title=" ">
<polygon fill="#e0e0e0" stroke="#999999" points="173.5,-19 117.5,-19 117.5,0 173.5,0 173.5,-19"/>
<text text-anchor="middle" x="145.5" y="-7" font-family="Helvetica,sans-Serif" font-size="10.00">algorithm</text>
</a>
</g>
</g>
<!-- Node4&#45;&gt;Node5 -->
<g id="edge4" class="edge">
<title>Node4&#45;&gt;Node5</title>
<path fill="none" stroke="#63b8ff" d="M140.49,-54.75C141.24,-48.11 142.3,-38.73 143.26,-30.31"/>
<polygon fill="#63b8ff" stroke="#63b8ff" points="146.84,-30.77 144.49,-20.44 139.88,-29.98 146.84,-30.77"/>
</g>
<!-- Node6 -->
<g id="node6" class="node">
<title>Node6</title>
<g id="a_node6"><a xlink:title=" ">
<polygon fill="#e0e0e0" stroke="#999999" points="243.5,-19 191.5,-19 191.5,0 243.5,0 243.5,-19"/>
<text text-anchor="middle" x="217.5" y="-7" font-family="Helvetica,sans-Serif" font-size="10.00">ostream</text>
</a>
</g>
</g>
<!-- Node4&#45;&gt;Node6 -->
<g id="edge5" class="edge">
<title>Node4&#45;&gt;Node6</title>
<path fill="none" stroke="#63b8ff" d="M152.73,-54.51C164.46,-46.54 181.8,-34.75 195.6,-25.38"/>
<polygon fill="#63b8ff" stroke="#63b8ff" points="197.16,-27.87 203.46,-19.36 193.23,-22.08 197.16,-27.87"/>
</g>
</g>
</svg>
