<?xml version="1.0" encoding="UTF-8" standalone="no"?>
<!DOCTYPE svg PUBLIC "-//W3C//DTD SVG 1.1//EN"
 "http://www.w3.org/Graphics/SVG/1.1/DTD/svg11.dtd">
<!-- Generated by graphviz version 8.0.5 (20230430.1635)
 -->
<!-- Title: dynamic_programming/longest_palindromic_subsequence.cpp Pages: 1 -->
<svg width="176pt" height="105pt"
 viewBox="0.00 0.00 175.62 105.00" xmlns="http://www.w3.org/2000/svg" xmlns:xlink="http://www.w3.org/1999/xlink">
<g id="graph0" class="graph" transform="scale(1 1) rotate(0) translate(4 101)">
<title>dynamic_programming/longest_palindromic_subsequence.cpp</title>
<!-- Node1 -->
<g id="node1" class="node">
<title>Node1</title>
<g id="a_node1"><a xlink:title="Program to find the Longest Palindormic Subsequence of a string.">
<polygon fill="#999999" stroke="#666666" points="143.25,-97 29,-97 29,-55.25 143.25,-55.25 143.25,-97"/>
<text text-anchor="start" x="37" y="-83.5" font-family="Helvetica,sans-Serif" font-size="10.00">dynamic_programming</text>
<text text-anchor="start" x="37" y="-72.25" font-family="Helvetica,sans-Serif" font-size="10.00">/longest_palindromic</text>
<text text-anchor="middle" x="86.12" y="-61" font-family="Helvetica,sans-Serif" font-size="10.00">_subsequence.cpp</text>
</a>
</g>
</g>
<!-- Node2 -->
<g id="node2" class="node">
<title>Node2</title>
<g id="a_node2"><a xlink:title=" ">
<polygon fill="#e0e0e0" stroke="#999999" points="48.25,-19.25 0,-19.25 0,0 48.25,0 48.25,-19.25"/>
<text text-anchor="middle" x="24.12" y="-5.75" font-family="Helvetica,sans-Serif" font-size="10.00">cassert</text>
</a>
</g>
</g>
<!-- Node1&#45;&gt;Node2 -->
<g id="edge1" class="edge">
<title>Node1&#45;&gt;Node2</title>
<path fill="none" stroke="#63b8ff" d="M66.85,-55.07C58.32,-46.19 48.4,-35.87 40.26,-27.41"/>
<polygon fill="#63b8ff" stroke="#63b8ff" points="43.3,-25.48 33.84,-20.7 38.25,-30.33 43.3,-25.48"/>
</g>
<!-- Node3 -->
<g id="node3" class="node">
<title>Node3</title>
<g id="a_node3"><a xlink:title=" ">
<polygon fill="#e0e0e0" stroke="#999999" points="106.12,-19.25 66.12,-19.25 66.12,0 106.12,0 106.12,-19.25"/>
<text text-anchor="middle" x="86.12" y="-5.75" font-family="Helvetica,sans-Serif" font-size="10.00">string</text>
</a>
</g>
</g>
<!-- Node1&#45;&gt;Node3 -->
<g id="edge2" class="edge">
<title>Node1&#45;&gt;Node3</title>
<path fill="none" stroke="#63b8ff" d="M86.12,-55.07C86.12,-47.3 86.12,-38.43 86.12,-30.67"/>
<polygon fill="#63b8ff" stroke="#63b8ff" points="89.63,-30.7 86.12,-20.7 82.63,-30.7 89.63,-30.7"/>
</g>
<!-- Node4 -->
<g id="node4" class="node">
<title>Node4</title>
<g id="a_node4"><a xlink:title=" ">
<polygon fill="#e0e0e0" stroke="#999999" points="167.62,-19.25 124.62,-19.25 124.62,0 167.62,0 167.62,-19.25"/>
<text text-anchor="middle" x="146.12" y="-5.75" font-family="Helvetica,sans-Serif" font-size="10.00">vector</text>
</a>
</g>
</g>
<!-- Node1&#45;&gt;Node4 -->
<g id="edge3" class="edge">
<title>Node1&#45;&gt;Node4</title>
<path fill="none" stroke="#63b8ff" d="M104.78,-55.07C112.95,-46.29 122.44,-36.09 130.26,-27.68"/>
<polygon fill="#63b8ff" stroke="#63b8ff" points="132.44,-30.4 136.69,-20.7 127.31,-25.63 132.44,-30.4"/>
</g>
</g>
</svg>
