<?xml version="1.0" encoding="UTF-8" standalone="no"?>
<!DOCTYPE svg PUBLIC "-//W3C//DTD SVG 1.1//EN"
 "http://www.w3.org/Graphics/SVG/1.1/DTD/svg11.dtd">
<!-- Generated by graphviz version 2.49.3 (20211023.0002)
 -->
<!-- Title: dynamic_programming::palindrome_partitioning::pal_part Pages: 1 -->
<svg width="258pt" height="104pt"
 viewBox="0.00 0.00 258.00 104.00" xmlns="http://www.w3.org/2000/svg" xmlns:xlink="http://www.w3.org/1999/xlink">
<g id="graph0" class="graph" transform="scale(1 1) rotate(0) translate(4 100)">
<title>dynamic_programming::palindrome_partitioning::pal_part</title>
<polygon fill="white" stroke="transparent" points="-4,4 -4,-100 254,-100 254,4 -4,4"/>
<!-- Node1 -->
<g id="node1" class="node">
<title>Node1</title>
<g id="a_node1"><a xlink:title=" ">
<polygon fill="#bfbfbf" stroke="black" points="0,-27.5 0,-68.5 126,-68.5 126,-27.5 0,-27.5"/>
<text text-anchor="start" x="8" y="-56.5" font-family="Helvetica,sans-Serif" font-size="10.00">dynamic_programming</text>
<text text-anchor="start" x="8" y="-45.5" font-family="Helvetica,sans-Serif" font-size="10.00">::palindrome_partitioning</text>
<text text-anchor="middle" x="63" y="-34.5" font-family="Helvetica,sans-Serif" font-size="10.00">::pal_part</text>
</a>
</g>
</g>
<!-- Node1&#45;&gt;Node1 -->
<g id="edge2" class="edge">
<title>Node1&#45;&gt;Node1</title>
<path fill="none" stroke="midnightblue" d="M36.9,-68.86C34.05,-78.54 42.75,-87 63,-87 75.65,-87 83.8,-83.7 87.43,-78.86"/>
<polygon fill="midnightblue" stroke="midnightblue" points="90.9,-79.3 89.1,-68.86 84,-78.15 90.9,-79.3"/>
</g>
<!-- Node2 -->
<g id="node2" class="node">
<title>Node2</title>
<g id="a_node2"><a target="_blank" xlink:href="http://en.cppreference.com/w/cpp/algorithm/min.html#" xlink:title=" ">
<polygon fill="white" stroke="black" points="180,-76.5 180,-95.5 232,-95.5 232,-76.5 180,-76.5"/>
<text text-anchor="middle" x="206" y="-83.5" font-family="Helvetica,sans-Serif" font-size="10.00">std::min</text>
</a>
</g>
</g>
<!-- Node1&#45;&gt;Node2 -->
<g id="edge1" class="edge">
<title>Node1&#45;&gt;Node2</title>
<path fill="none" stroke="midnightblue" d="M126.26,-64.78C141.3,-68.83 156.86,-73.03 170.13,-76.6"/>
<polygon fill="midnightblue" stroke="midnightblue" points="169.23,-79.98 179.79,-79.21 171.05,-73.22 169.23,-79.98"/>
</g>
<!-- Node3 -->
<g id="node3" class="node">
<title>Node3</title>
<g id="a_node3"><a xlink:href="../../d5/d91/namespacesorting.html#a7e7f25f31c50523990437abf2ac3907e" target="_top" xlink:title=" ">
<polygon fill="white" stroke="black" points="162,-38.5 162,-57.5 250,-57.5 250,-38.5 162,-38.5"/>
<text text-anchor="middle" x="206" y="-45.5" font-family="Helvetica,sans-Serif" font-size="10.00">sorting::partition</text>
</a>
</g>
</g>
<!-- Node1&#45;&gt;Node3 -->
<g id="edge3" class="edge">
<title>Node1&#45;&gt;Node3</title>
<path fill="none" stroke="midnightblue" d="M126.26,-48C134.66,-48 143.22,-48 151.45,-48"/>
<polygon fill="midnightblue" stroke="midnightblue" points="151.67,-51.5 161.67,-48 151.67,-44.5 151.67,-51.5"/>
</g>
<!-- Node4 -->
<g id="node4" class="node">
<title>Node4</title>
<g id="a_node4"><a target="_blank" xlink:href="http://en.cppreference.com/w/cpp/string/basic_string/size.html#" xlink:title=" ">
<polygon fill="white" stroke="black" points="164.5,-0.5 164.5,-19.5 247.5,-19.5 247.5,-0.5 164.5,-0.5"/>
<text text-anchor="middle" x="206" y="-7.5" font-family="Helvetica,sans-Serif" font-size="10.00">std::string::size</text>
</a>
</g>
</g>
<!-- Node1&#45;&gt;Node4 -->
<g id="edge4" class="edge">
<title>Node1&#45;&gt;Node4</title>
<path fill="none" stroke="midnightblue" d="M126.26,-31.22C137.55,-28.18 149.13,-25.06 159.81,-22.18"/>
<polygon fill="midnightblue" stroke="midnightblue" points="161,-25.48 169.74,-19.5 159.18,-18.72 161,-25.48"/>
</g>
</g>
</svg>
