<?xml version="1.0" encoding="UTF-8" standalone="no"?>
<!DOCTYPE svg PUBLIC "-//W3C//DTD SVG 1.1//EN"
 "http://www.w3.org/Graphics/SVG/1.1/DTD/svg11.dtd">
<!-- Generated by graphviz version 7.0.4 (20221203.1631)
 -->
<!-- Title: main Pages: 1 -->
<svg width="275pt" height="216pt"
 viewBox="0.00 0.00 275.00 216.00" xmlns="http://www.w3.org/2000/svg" xmlns:xlink="http://www.w3.org/1999/xlink">
<g id="graph0" class="graph" transform="scale(1 1) rotate(0) translate(4 212)">
<title>main</title>
<!-- Node1 -->
<g id="node1" class="node">
<title>Node1</title>
<g id="a_node1"><a xlink:title=" ">
<polygon fill="#999999" stroke="#666666" points="38,-113 0,-113 0,-94 38,-94 38,-113"/>
<text text-anchor="middle" x="19" y="-101" font-family="Helvetica,sans-Serif" font-size="10.00">main</text>
</a>
</g>
</g>
<!-- Node2 -->
<g id="node2" class="node">
<title>Node2</title>
<g id="a_node2"><a xlink:href="../../dd/d1c/classhash__chain.html#a6b4b4de1a8c96f98a63a77f650a9dcff" target="_top" xlink:title="create and add a new node with a give value and at a given height">
<polygon fill="white" stroke="#666666" points="169.5,-208 81.5,-208 81.5,-189 169.5,-189 169.5,-208"/>
<text text-anchor="middle" x="125.5" y="-196" font-family="Helvetica,sans-Serif" font-size="10.00">hash_chain::add</text>
</a>
</g>
</g>
<!-- Node1&#45;&gt;Node2 -->
<g id="edge1" class="edge">
<title>Node1&#45;&gt;Node2</title>
<path fill="none" stroke="#63b8ff" d="M25.44,-113.41C34.06,-128.34 52.12,-156.73 74,-174.5 78.01,-177.75 82.53,-180.69 87.18,-183.31"/>
<polygon fill="#63b8ff" stroke="#63b8ff" points="85.56,-186.41 96.06,-187.82 88.73,-180.17 85.56,-186.41"/>
</g>
<!-- Node3 -->
<g id="node3" class="node">
<title>Node3</title>
<g id="a_node3"><a xlink:href="../../d1/df3/hash__search_8cpp.html#a566eaf0ffafd50bc61e644561fd27001" target="_top" xlink:title=" ">
<polygon fill="white" stroke="#666666" points="254.5,-170 225.5,-170 225.5,-151 254.5,-151 254.5,-170"/>
<text text-anchor="middle" x="240" y="-158" font-family="Helvetica,sans-Serif" font-size="10.00">h</text>
</a>
</g>
</g>
<!-- Node1&#45;&gt;Node3 -->
<g id="edge9" class="edge">
<title>Node1&#45;&gt;Node3</title>
<path fill="none" stroke="#63b8ff" d="M30.63,-113.45C40.89,-122.42 57.29,-135.13 74,-141.5 121.07,-159.43 180.73,-161.74 213.88,-161.39"/>
<polygon fill="#63b8ff" stroke="#63b8ff" points="213.77,-164.9 223.69,-161.19 213.62,-157.9 213.77,-164.9"/>
</g>
<!-- Node4 -->
<g id="node4" class="node">
<title>Node4</title>
<g id="a_node4"><a xlink:href="../../dd/d1c/classhash__chain.html#a706964ad13587fc9a8b3fe8381d410ed" target="_top" xlink:title="Display the chain.">
<polygon fill="white" stroke="#666666" points="177,-95 74,-95 74,-76 177,-76 177,-95"/>
<text text-anchor="middle" x="125.5" y="-83" font-family="Helvetica,sans-Serif" font-size="10.00">hash_chain::display</text>
</a>
</g>
</g>
<!-- Node1&#45;&gt;Node4 -->
<g id="edge3" class="edge">
<title>Node1&#45;&gt;Node4</title>
<path fill="none" stroke="#63b8ff" d="M38.2,-100.36C45.19,-99.16 53.62,-97.71 62.44,-96.19"/>
<polygon fill="#63b8ff" stroke="#63b8ff" points="62.98,-99.65 72.24,-94.5 61.79,-92.75 62.98,-99.65"/>
</g>
<!-- Node5 -->
<g id="node5" class="node">
<title>Node5</title>
<g id="a_node5"><a target="_blank" xlink:href="http://en.cppreference.com/w/cpp/io/manip/endl.html#" xlink:title=" ">
<polygon fill="white" stroke="#666666" points="267,-95 213,-95 213,-76 267,-76 267,-95"/>
<text text-anchor="middle" x="240" y="-83" font-family="Helvetica,sans-Serif" font-size="10.00">std::endl</text>
</a>
</g>
</g>
<!-- Node1&#45;&gt;Node5 -->
<g id="edge5" class="edge">
<title>Node1&#45;&gt;Node5</title>
<path fill="none" stroke="#63b8ff" d="M30.14,-93.72C40.3,-84.66 56.85,-71.81 74,-66.5 116.56,-53.32 167.86,-62.97 201.84,-72.7"/>
<polygon fill="#63b8ff" stroke="#63b8ff" points="200.63,-75.99 211.22,-75.53 202.66,-69.29 200.63,-75.99"/>
</g>
<!-- Node6 -->
<g id="node6" class="node">
<title>Node6</title>
<g id="a_node6"><a xlink:href="../../dd/d1c/classhash__chain.html#a55aa5c6753cb8853152d469c375d946a" target="_top" xlink:title="Find if a value and corresponding hash exist.">
<polygon fill="white" stroke="#666666" points="169.5,-132 81.5,-132 81.5,-113 169.5,-113 169.5,-132"/>
<text text-anchor="middle" x="125.5" y="-120" font-family="Helvetica,sans-Serif" font-size="10.00">hash_chain::find</text>
</a>
</g>
</g>
<!-- Node1&#45;&gt;Node6 -->
<g id="edge6" class="edge">
<title>Node1&#45;&gt;Node6</title>
<path fill="none" stroke="#63b8ff" d="M38.2,-106.81C47.24,-108.45 58.69,-110.53 70.27,-112.64"/>
<polygon fill="#63b8ff" stroke="#63b8ff" points="69.38,-116.04 79.85,-114.38 70.63,-109.15 69.38,-116.04"/>
</g>
<!-- Node7 -->
<g id="node7" class="node">
<title>Node7</title>
<g id="a_node7"><a xlink:href="../../dd/d1c/classhash__chain.html#a846a2f921f8fb7ea572e03901b671d64" target="_top" xlink:title="Compute the hash of a value for current chain.">
<polygon fill="white" stroke="#666666" points="172,-19 79,-19 79,0 172,0 172,-19"/>
<text text-anchor="middle" x="125.5" y="-7" font-family="Helvetica,sans-Serif" font-size="10.00">hash_chain::hash</text>
</a>
</g>
</g>
<!-- Node1&#45;&gt;Node7 -->
<g id="edge10" class="edge">
<title>Node1&#45;&gt;Node7</title>
<path fill="none" stroke="#63b8ff" d="M25.48,-93.73C34.14,-79.02 52.26,-51.04 74,-33.5 78.17,-30.14 82.89,-27.11 87.73,-24.42"/>
<polygon fill="#63b8ff" stroke="#63b8ff" points="88.99,-27.71 96.35,-20.09 85.84,-21.46 88.99,-27.71"/>
</g>
<!-- Node2&#45;&gt;Node3 -->
<g id="edge2" class="edge">
<title>Node2&#45;&gt;Node3</title>
<path fill="none" stroke="#63b8ff" d="M156.06,-188.52C174.15,-182.41 197.03,-174.68 214.18,-168.88"/>
<polygon fill="#63b8ff" stroke="#63b8ff" points="215.22,-172.23 223.57,-165.71 212.98,-165.6 215.22,-172.23"/>
</g>
<!-- Node4&#45;&gt;Node5 -->
<g id="edge4" class="edge">
<title>Node4&#45;&gt;Node5</title>
<path fill="none" stroke="#63b8ff" d="M177.48,-85.5C185.5,-85.5 193.65,-85.5 201.29,-85.5"/>
<polygon fill="#63b8ff" stroke="#63b8ff" points="201.27,-89 211.27,-85.5 201.27,-82 201.27,-89"/>
</g>
<!-- Node6&#45;&gt;Node3 -->
<g id="edge8" class="edge">
<title>Node6&#45;&gt;Node3</title>
<path fill="none" stroke="#63b8ff" d="M156.06,-132.48C174.15,-138.59 197.03,-146.32 214.18,-152.12"/>
<polygon fill="#63b8ff" stroke="#63b8ff" points="212.98,-155.4 223.57,-155.29 215.22,-148.77 212.98,-155.4"/>
</g>
<!-- Node6&#45;&gt;Node5 -->
<g id="edge7" class="edge">
<title>Node6&#45;&gt;Node5</title>
<path fill="none" stroke="#63b8ff" d="M156.65,-112.58C170.55,-108.01 187.18,-102.54 201.85,-97.72"/>
<polygon fill="#63b8ff" stroke="#63b8ff" points="202.76,-101.1 211.16,-94.66 200.57,-94.45 202.76,-101.1"/>
</g>
</g>
</svg>
