<?xml version="1.0" encoding="UTF-8" standalone="no"?>
<!DOCTYPE svg PUBLIC "-//W3C//DTD SVG 1.1//EN"
 "http://www.w3.org/Graphics/SVG/1.1/DTD/svg11.dtd">
<!-- Generated by graphviz version 9.0.0 (20230911.1827)
 -->
<!-- Title: test Pages: 1 -->
<svg width="135pt" height="100pt"
 viewBox="0.00 0.00 135.25 100.25" xmlns="http://www.w3.org/2000/svg" xmlns:xlink="http://www.w3.org/1999/xlink">

<svg id="main" version="1.1" xmlns="http://www.w3.org/2000/svg" xmlns:xlink="http://www.w3.org/1999/xlink" xml:space="preserve" onload="init(evt)">
<style type="text/css"><![CDATA[
.node, .edge {opacity: 0.7;}
.node.selected, .edge.selected {opacity: 1;}
.edge:hover path { stroke: red; }
.edge:hover polygon { stroke: red; fill: red; }
]]></style>
<script type="application/ecmascript" xlink:href="../../svg.min.js"/>
<svg id="graph" class="graph">
<g id="graph0" class="graph" transform="scale(1 1) rotate(0) translate(4 96.25)">
<title>test</title>
<!-- Node1 -->
<g id="Node000001" class="node">
<title>Node1</title>
<g id="a_Node000001"><a xlink:title="Self&#45;test implementation.">
<polygon fill="#999999" stroke="#666666" points="32.5,-46.25 0,-46.25 0,-27 32.5,-27 32.5,-46.25"/>
<text text-anchor="middle" x="16.25" y="-32.75" font-family="Helvetica,sans-Serif" font-size="10.00">test</text>
</a>
</g>
</g>
<!-- Node2 -->
<g id="Node000002" class="node">
<title>Node2</title>
<g id="a_Node000002"><a xlink:href="../../d2/d45/segtree_8cpp.html#ae752659b7c1719d68fdb2ca538a93696" target="_top" xlink:title="for std::vector">
<polygon fill="white" stroke="#666666" points="127.25,-74.25 68.5,-74.25 68.5,-55 127.25,-55 127.25,-74.25"/>
<text text-anchor="middle" x="97.88" y="-60.75" font-family="Helvetica,sans-Serif" font-size="10.00">ConsTree</text>
</a>
</g>
</g>
<!-- Node1&#45;&gt;Node2 -->
<g id="edge1_Node000001_Node000002" class="edge">
<title>Node1&#45;&gt;Node2</title>
<g id="a_edge1_Node000001_Node000002"><a xlink:title=" ">
<path fill="none" stroke="#63b8ff" d="M32.98,-42.16C40.06,-44.64 48.76,-47.7 57.43,-50.75"/>
<polygon fill="#63b8ff" stroke="#63b8ff" points="56.26,-54.05 66.86,-54.07 58.58,-47.45 56.26,-54.05"/>
</a>
</g>
</g>
<!-- Node3 -->
<g id="Node000003" class="node">
<title>Node3</title>
<g id="a_Node000003"><a xlink:href="../../d2/d45/segtree_8cpp.html#abd3e818681fb2e29cf08f4f60f82c8e0" target="_top" xlink:title="Updates a range of the segment tree.">
<polygon fill="white" stroke="#666666" points="120.5,-19.25 75.25,-19.25 75.25,0 120.5,0 120.5,-19.25"/>
<text text-anchor="middle" x="97.88" y="-5.75" font-family="Helvetica,sans-Serif" font-size="10.00">update</text>
</a>
</g>
</g>
<!-- Node1&#45;&gt;Node3 -->
<g id="edge3_Node000001_Node000003" class="edge">
<title>Node1&#45;&gt;Node3</title>
<g id="a_edge3_Node000001_Node000003"><a xlink:title=" ">
<path fill="none" stroke="#63b8ff" d="M32.98,-31.29C41.86,-28.28 53.3,-24.4 64.04,-20.76"/>
<polygon fill="#63b8ff" stroke="#63b8ff" points="65.07,-24.11 73.41,-17.58 62.82,-17.48 65.07,-24.11"/>
</a>
</g>
</g>
<!-- Node2&#45;&gt;Node2 -->
<g id="edge2_Node000002_Node000002" class="edge">
<title>Node2&#45;&gt;Node2</title>
<g id="a_edge2_Node000002_Node000002"><a xlink:title=" ">
<path fill="none" stroke="#63b8ff" d="M85.1,-74.54C79.27,-83.15 83.53,-92.25 97.88,-92.25 105.72,-92.25 110.55,-89.53 112.36,-85.65"/>
<polygon fill="#63b8ff" stroke="#63b8ff" points="115.86,-85.39 110.88,-76.03 108.95,-86.45 115.86,-85.39"/>
</a>
</g>
</g>
<!-- Node3&#45;&gt;Node3 -->
<g id="edge4_Node000003_Node000003" class="edge">
<title>Node3&#45;&gt;Node3</title>
<g id="a_edge4_Node000003_Node000003"><a xlink:title=" ">
<path fill="none" stroke="#63b8ff" d="M85.1,-19.54C79.27,-28.15 83.53,-37.25 97.88,-37.25 105.72,-37.25 110.55,-34.53 112.36,-30.65"/>
<polygon fill="#63b8ff" stroke="#63b8ff" points="115.86,-30.39 110.88,-21.03 108.95,-31.45 115.86,-30.39"/>
</a>
</g>
</g>
</g>
</svg>
</svg>

<style type='text/css'>
<![CDATA[
[data-mouse-over-selected='false'] { opacity: 0.7; }
[data-mouse-over-selected='true']  { opacity: 1.0; }
]]>
</style>
<script type="application/ecmascript"><![CDATA[
document.addEventListener('DOMContentLoaded', (event) => {
  highlightEdges();
  highlightAdjacentNodes();
});
]]></script>
</svg>
