<?xml version="1.0" encoding="UTF-8" standalone="no"?>
<!DOCTYPE svg PUBLIC "-//W3C//DTD SVG 1.1//EN"
 "http://www.w3.org/Graphics/SVG/1.1/DTD/svg11.dtd">
<!-- Generated by graphviz version 9.0.0 (20230911.1827)
 -->
<!-- Title: main Pages: 1 -->
<svg width="360pt" height="242pt"
 viewBox="0.00 0.00 360.00 241.88" xmlns="http://www.w3.org/2000/svg" xmlns:xlink="http://www.w3.org/1999/xlink">

<svg id="main" version="1.1" xmlns="http://www.w3.org/2000/svg" xmlns:xlink="http://www.w3.org/1999/xlink" xml:space="preserve" onload="init(evt)">
<style type="text/css"><![CDATA[
.node, .edge {opacity: 0.7;}
.node.selected, .edge.selected {opacity: 1;}
.edge:hover path { stroke: red; }
.edge:hover polygon { stroke: red; fill: red; }
]]></style>
<script type="application/ecmascript" xlink:href="../../svg.min.js"/>
<svg id="graph" class="graph">
<g id="graph0" class="graph" transform="scale(1 1) rotate(0) translate(4 237.88)">
<title>main</title>
<!-- Node1 -->
<g id="Node000001" class="node">
<title>Node1</title>
<g id="a_Node000001"><a xlink:title="Main function.">
<polygon fill="#999999" stroke="#666666" points="37,-140.88 0,-140.88 0,-121.62 37,-121.62 37,-140.88"/>
<text text-anchor="middle" x="18.5" y="-127.38" font-family="Helvetica,sans-Serif" font-size="10.00">main</text>
</a>
</g>
</g>
<!-- Node2 -->
<g id="Node000002" class="node">
<title>Node2</title>
<g id="a_Node000002"><a xlink:href="../../d3/df9/recursive__bubble__sort_8cpp.html#aa8dca7b867074164d5f45b0f3851269d" target="_top" xlink:title="Self&#45;test implementations.">
<polygon fill="white" stroke="#666666" points="105.5,-140.88 73,-140.88 73,-121.62 105.5,-121.62 105.5,-140.88"/>
<text text-anchor="middle" x="89.25" y="-127.38" font-family="Helvetica,sans-Serif" font-size="10.00">test</text>
</a>
</g>
</g>
<!-- Node1&#45;&gt;Node2 -->
<g id="edge1_Node000001_Node000002" class="edge">
<title>Node1&#45;&gt;Node2</title>
<g id="a_edge1_Node000001_Node000002"><a xlink:title=" ">
<path fill="none" stroke="#63b8ff" d="M37.2,-131.25C44.58,-131.25 53.31,-131.25 61.45,-131.25"/>
<polygon fill="#63b8ff" stroke="#63b8ff" points="61.2,-134.75 71.2,-131.25 61.2,-127.75 61.2,-134.75"/>
</a>
</g>
</g>
<!-- Node3 -->
<g id="Node000003" class="node">
<title>Node3</title>
<g id="a_Node000003"><a target="_blank" xlink:href="http://en.cppreference.com/w/cpp/iterator/begin.html#" xlink:title=" ">
<polygon fill="white" stroke="#666666" points="228.75,-233.88 170,-233.88 170,-214.62 228.75,-214.62 228.75,-233.88"/>
<text text-anchor="middle" x="199.38" y="-220.38" font-family="Helvetica,sans-Serif" font-size="10.00">std::begin</text>
</a>
</g>
</g>
<!-- Node2&#45;&gt;Node3 -->
<g id="edge2_Node000002_Node000003" class="edge">
<title>Node2&#45;&gt;Node3</title>
<g id="a_edge2_Node000002_Node000003"><a xlink:title=" ">
<path fill="none" stroke="#63b8ff" d="M94.49,-141.34C101.74,-157.43 118.08,-188.85 141.5,-206.25 146.77,-210.17 152.92,-213.25 159.19,-215.67"/>
<polygon fill="#63b8ff" stroke="#63b8ff" points="157.7,-218.86 168.29,-218.67 159.89,-212.21 157.7,-218.86"/>
</a>
</g>
</g>
<!-- Node4 -->
<g id="Node000004" class="node">
<title>Node4</title>
<g id="a_Node000004"><a target="_blank" xlink:href="http://en.cppreference.com/w/cpp/iterator/end.html#" xlink:title=" ">
<polygon fill="white" stroke="#666666" points="225,-196.88 173.75,-196.88 173.75,-177.62 225,-177.62 225,-196.88"/>
<text text-anchor="middle" x="199.38" y="-183.38" font-family="Helvetica,sans-Serif" font-size="10.00">std::end</text>
</a>
</g>
</g>
<!-- Node2&#45;&gt;Node4 -->
<g id="edge3_Node000002_Node000004" class="edge">
<title>Node2&#45;&gt;Node4</title>
<g id="a_edge3_Node000002_Node000004"><a xlink:title=" ">
<path fill="none" stroke="#63b8ff" d="M101.33,-141.18C111.25,-149.63 126.51,-161.59 141.5,-169.25 148.04,-172.59 155.31,-175.46 162.42,-177.86"/>
<polygon fill="#63b8ff" stroke="#63b8ff" points="161.28,-181.17 171.87,-180.81 163.36,-174.49 161.28,-181.17"/>
</a>
</g>
</g>
<!-- Node5 -->
<g id="Node000005" class="node">
<title>Node5</title>
<g id="a_Node000005"><a target="_blank" xlink:href="http://en.cppreference.com/w/cpp/io/manip/endl.html#" xlink:title=" ">
<polygon fill="white" stroke="#666666" points="226.12,-159.88 172.62,-159.88 172.62,-140.62 226.12,-140.62 226.12,-159.88"/>
<text text-anchor="middle" x="199.38" y="-146.38" font-family="Helvetica,sans-Serif" font-size="10.00">std::endl</text>
</a>
</g>
</g>
<!-- Node2&#45;&gt;Node5 -->
<g id="edge4_Node000002_Node000005" class="edge">
<title>Node2&#45;&gt;Node5</title>
<g id="a_edge4_Node000002_Node000005"><a xlink:title=" ">
<path fill="none" stroke="#63b8ff" d="M105.74,-133.97C120.15,-136.5 142.19,-140.38 161.16,-143.71"/>
<polygon fill="#63b8ff" stroke="#63b8ff" points="160.53,-147.15 170.98,-145.44 161.74,-140.26 160.53,-147.15"/>
</a>
</g>
</g>
<!-- Node6 -->
<g id="Node000006" class="node">
<title>Node6</title>
<g id="a_Node000006"><a target="_blank" xlink:href="http://en.cppreference.com/w/cpp/algorithm/is_sorted.html#" xlink:title=" ">
<polygon fill="white" stroke="#666666" points="237,-122.88 161.75,-122.88 161.75,-103.62 237,-103.62 237,-122.88"/>
<text text-anchor="middle" x="199.38" y="-109.38" font-family="Helvetica,sans-Serif" font-size="10.00">std::is_sorted</text>
</a>
</g>
</g>
<!-- Node2&#45;&gt;Node6 -->
<g id="edge5_Node000002_Node000006" class="edge">
<title>Node2&#45;&gt;Node6</title>
<g id="a_edge5_Node000002_Node000006"><a xlink:title=" ">
<path fill="none" stroke="#63b8ff" d="M105.74,-128.67C117.51,-126.71 134.36,-123.91 150.47,-121.22"/>
<polygon fill="#63b8ff" stroke="#63b8ff" points="150.66,-124.74 159.95,-119.65 149.51,-117.84 150.66,-124.74"/>
</a>
</g>
</g>
<!-- Node7 -->
<g id="Node000007" class="node">
<title>Node7</title>
<g id="a_Node000007"><a target="_blank" xlink:href="http://en.cppreference.com/w/cpp/container/vector/push_back.html#" xlink:title=" ">
<polygon fill="white" stroke="#666666" points="257.25,-85.88 141.5,-85.88 141.5,-66.62 257.25,-66.62 257.25,-85.88"/>
<text text-anchor="middle" x="199.38" y="-72.38" font-family="Helvetica,sans-Serif" font-size="10.00">std::vector::push_back</text>
</a>
</g>
</g>
<!-- Node2&#45;&gt;Node7 -->
<g id="edge6_Node000002_Node000007" class="edge">
<title>Node2&#45;&gt;Node7</title>
<g id="a_edge6_Node000002_Node000007"><a xlink:title=" ">
<path fill="none" stroke="#63b8ff" d="M101.77,-121.28C111.73,-113.08 126.79,-101.64 141.5,-94.25 144.23,-92.88 147.08,-91.59 149.99,-90.37"/>
<polygon fill="#63b8ff" stroke="#63b8ff" points="151.16,-93.67 159.27,-86.85 148.68,-87.13 151.16,-93.67"/>
</a>
</g>
</g>
<!-- Node8 -->
<g id="Node000008" class="node">
<title>Node8</title>
<g id="a_Node000008"><a xlink:href="../../d5/d91/namespacesorting.html#ae3a775d99dbbb94c130a973df0cfddcf" target="_top" xlink:title="This is an implementation of the recursive_bubble_sort. A vector is passed to the function which is t...">
<polygon fill="white" stroke="#666666" points="244.88,-30.5 153.88,-30.5 153.88,0 244.88,0 244.88,-30.5"/>
<text text-anchor="start" x="161.88" y="-17" font-family="Helvetica,sans-Serif" font-size="10.00">sorting::recursive</text>
<text text-anchor="middle" x="199.38" y="-5.75" font-family="Helvetica,sans-Serif" font-size="10.00">_bubble_sort</text>
</a>
</g>
</g>
<!-- Node2&#45;&gt;Node8 -->
<g id="edge7_Node000002_Node000008" class="edge">
<title>Node2&#45;&gt;Node8</title>
<g id="a_edge7_Node000002_Node000008"><a xlink:title=" ">
<path fill="none" stroke="#63b8ff" d="M95.66,-121.39C104.15,-106.45 121.7,-77.66 141.5,-57.25 148.32,-50.22 156.41,-43.49 164.32,-37.56"/>
<polygon fill="#63b8ff" stroke="#63b8ff" points="166.14,-40.57 172.21,-31.88 162.05,-34.89 166.14,-40.57"/>
</a>
</g>
</g>
<!-- Node8&#45;&gt;Node8 -->
<g id="edge8_Node000008_Node000008" class="edge">
<title>Node8&#45;&gt;Node8</title>
<g id="a_edge8_Node000008_Node000008"><a xlink:title=" ">
<path fill="none" stroke="#63b8ff" d="M179.86,-30.99C175.88,-40.06 182.38,-48.5 199.38,-48.5 208.67,-48.5 214.82,-45.97 217.84,-42.2"/>
<polygon fill="#63b8ff" stroke="#63b8ff" points="221.3,-42.77 218.75,-32.49 214.34,-42.12 221.3,-42.77"/>
</a>
</g>
</g>
<!-- Node9 -->
<g id="Node000009" class="node">
<title>Node9</title>
<g id="a_Node000009"><a target="_blank" xlink:href="http://en.cppreference.com/w/cpp/algorithm/swap.html#" xlink:title=" ">
<polygon fill="white" stroke="#666666" points="352,-24.88 293.25,-24.88 293.25,-5.63 352,-5.63 352,-24.88"/>
<text text-anchor="middle" x="322.62" y="-11.38" font-family="Helvetica,sans-Serif" font-size="10.00">std::swap</text>
</a>
</g>
</g>
<!-- Node8&#45;&gt;Node9 -->
<g id="edge9_Node000008_Node000009" class="edge">
<title>Node8&#45;&gt;Node9</title>
<g id="a_edge9_Node000008_Node000009"><a xlink:title=" ">
<path fill="none" stroke="#63b8ff" d="M245.18,-15.25C257.12,-15.25 269.94,-15.25 281.61,-15.25"/>
<polygon fill="#63b8ff" stroke="#63b8ff" points="281.3,-18.75 291.3,-15.25 281.3,-11.75 281.3,-18.75"/>
</a>
</g>
</g>
</g>
</svg>
</svg>

<style type='text/css'>
<![CDATA[
[data-mouse-over-selected='false'] { opacity: 0.7; }
[data-mouse-over-selected='true']  { opacity: 1.0; }
]]>
</style>
<script type="application/ecmascript"><![CDATA[
document.addEventListener('DOMContentLoaded', (event) => {
  highlightEdges();
  highlightAdjacentNodes();
});
]]></script>
</svg>
