<?xml version="1.0" encoding="UTF-8" standalone="no"?>
<!DOCTYPE svg PUBLIC "-//W3C//DTD SVG 1.1//EN"
 "http://www.w3.org/Graphics/SVG/1.1/DTD/svg11.dtd">
<!-- Generated by graphviz version 9.0.0 (20230911.1827)
 -->
<!-- Title: main Pages: 1 -->
<svg width="377pt" height="248pt"
 viewBox="0.00 0.00 376.50 248.46" xmlns="http://www.w3.org/2000/svg" xmlns:xlink="http://www.w3.org/1999/xlink">
<g id="graph0" class="graph" transform="scale(1 1) rotate(0) translate(4 244.46)">
<title>main</title>
<!-- Node1 -->
<g id="Node000001" class="node">
<title>Node1</title>
<g id="a_Node000001"><a xlink:title="Main function.">
<polygon fill="#999999" stroke="#666666" points="37,-129.46 0,-129.46 0,-110.21 37,-110.21 37,-129.46"/>
<text text-anchor="middle" x="18.5" y="-115.96" font-family="Helvetica,sans-Serif" font-size="10.00">main</text>
</a>
</g>
</g>
<!-- Node2 -->
<g id="Node000002" class="node">
<title>Node2</title>
<g id="a_Node000002"><a target="_blank" xlink:href="http://en.cppreference.com/w/cpp/string/basic_string/empty.html#" xlink:title=" ">
<polygon fill="white" stroke="#666666" points="165.5,-240.46 73,-240.46 73,-221.21 165.5,-221.21 165.5,-240.46"/>
<text text-anchor="middle" x="119.25" y="-226.96" font-family="Helvetica,sans-Serif" font-size="10.00">std::string::empty</text>
</a>
</g>
</g>
<!-- Node1&#45;&gt;Node2 -->
<g id="edge1_Node000001_Node000002" class="edge">
<title>Node1&#45;&gt;Node2</title>
<g id="a_edge1_Node000001_Node000002"><a xlink:title=" ">
<path fill="none" stroke="#63b8ff" d="M22.69,-129.69C29.22,-148.4 45.82,-189.3 73,-212.84 73.78,-213.52 74.59,-214.17 75.43,-214.8"/>
<polygon fill="#63b8ff" stroke="#63b8ff" points="73.45,-217.7 83.81,-219.93 77.11,-211.73 73.45,-217.7"/>
</a>
</g>
</g>
<!-- Node3 -->
<g id="Node000003" class="node">
<title>Node3</title>
<g id="a_Node000003"><a target="_blank" xlink:href="http://en.cppreference.com/w/cpp/io/manip/endl.html#" xlink:title=" ">
<polygon fill="white" stroke="#666666" points="146,-203.46 92.5,-203.46 92.5,-184.21 146,-184.21 146,-203.46"/>
<text text-anchor="middle" x="119.25" y="-189.96" font-family="Helvetica,sans-Serif" font-size="10.00">std::endl</text>
</a>
</g>
</g>
<!-- Node1&#45;&gt;Node3 -->
<g id="edge2_Node000001_Node000003" class="edge">
<title>Node1&#45;&gt;Node3</title>
<g id="a_edge2_Node000001_Node000003"><a xlink:title=" ">
<path fill="none" stroke="#63b8ff" d="M26.81,-129.79C36.27,-142.07 53.83,-162.91 73,-175.84 75.85,-177.76 78.94,-179.53 82.12,-181.14"/>
<polygon fill="#63b8ff" stroke="#63b8ff" points="80.46,-184.23 91.01,-185.14 83.33,-177.85 80.46,-184.23"/>
</a>
</g>
</g>
<!-- Node4 -->
<g id="Node000004" class="node">
<title>Node4</title>
<g id="a_Node000004"><a target="_blank" xlink:href="http://en.cppreference.com/w/cpp/string/basic_string/find.html#" xlink:title=" ">
<polygon fill="white" stroke="#666666" points="159.88,-166.46 78.62,-166.46 78.62,-147.21 159.88,-147.21 159.88,-166.46"/>
<text text-anchor="middle" x="119.25" y="-152.96" font-family="Helvetica,sans-Serif" font-size="10.00">std::string::find</text>
</a>
</g>
</g>
<!-- Node1&#45;&gt;Node4 -->
<g id="edge3_Node000001_Node000004" class="edge">
<title>Node1&#45;&gt;Node4</title>
<g id="a_edge3_Node000001_Node000004"><a xlink:title=" ">
<path fill="none" stroke="#63b8ff" d="M37.15,-126.45C49.3,-131 65.88,-137.22 80.88,-142.84"/>
<polygon fill="#63b8ff" stroke="#63b8ff" points="79.44,-146.03 90.03,-146.26 81.89,-139.48 79.44,-146.03"/>
</a>
</g>
</g>
<!-- Node5 -->
<g id="Node000005" class="node">
<title>Node5</title>
<g id="a_Node000005"><a target="_blank" xlink:href="http://en.cppreference.com/w/cpp/string/basic_string/getline.html#" xlink:title=" ">
<polygon fill="white" stroke="#666666" points="151.25,-129.46 87.25,-129.46 87.25,-110.21 151.25,-110.21 151.25,-129.46"/>
<text text-anchor="middle" x="119.25" y="-115.96" font-family="Helvetica,sans-Serif" font-size="10.00">std::getline</text>
</a>
</g>
</g>
<!-- Node1&#45;&gt;Node5 -->
<g id="edge4_Node000001_Node000005" class="edge">
<title>Node1&#45;&gt;Node5</title>
<g id="a_edge4_Node000001_Node000005"><a xlink:title=" ">
<path fill="none" stroke="#63b8ff" d="M37.15,-119.84C47.9,-119.84 62.13,-119.84 75.66,-119.84"/>
<polygon fill="#63b8ff" stroke="#63b8ff" points="75.26,-123.34 85.26,-119.84 75.26,-116.34 75.26,-123.34"/>
</a>
</g>
</g>
<!-- Node6 -->
<g id="Node000006" class="node">
<title>Node6</title>
<g id="a_Node000006"><a xlink:href="../../dc/db5/text__search_8cpp.html#a3f8975d227cd0e58f298b380c5dac0d9" target="_top" xlink:title="function to convert a C++ string to lower case">
<polygon fill="white" stroke="#666666" points="240.75,-53.46 201.5,-53.46 201.5,-34.21 240.75,-34.21 240.75,-53.46"/>
<text text-anchor="middle" x="221.12" y="-39.96" font-family="Helvetica,sans-Serif" font-size="10.00">lower</text>
</a>
</g>
</g>
<!-- Node1&#45;&gt;Node6 -->
<g id="edge5_Node000001_Node000006" class="edge">
<title>Node1&#45;&gt;Node6</title>
<g id="a_edge5_Node000001_Node000006"><a xlink:title=" ">
<path fill="none" stroke="#63b8ff" d="M37.3,-113.09C71.83,-100.02 148.18,-71.09 190.48,-55.07"/>
<polygon fill="#63b8ff" stroke="#63b8ff" points="191.67,-58.36 199.78,-51.55 189.19,-51.81 191.67,-58.36"/>
</a>
</g>
</g>
<!-- Node7 -->
<g id="Node000007" class="node">
<title>Node7</title>
<g id="a_Node000007"><a target="_blank" xlink:href="http://en.cppreference.com/w/cpp/string/basic_string/size.html#" xlink:title=" ">
<polygon fill="white" stroke="#666666" points="368.5,-34.46 276.75,-34.46 276.75,-15.21 368.5,-15.21 368.5,-34.46"/>
<text text-anchor="middle" x="322.62" y="-20.96" font-family="Helvetica,sans-Serif" font-size="10.00">std::string::length</text>
</a>
</g>
</g>
<!-- Node1&#45;&gt;Node7 -->
<g id="edge7_Node000001_Node000007" class="edge">
<title>Node1&#45;&gt;Node7</title>
<g id="a_edge7_Node000001_Node000007"><a xlink:title=" ">
<path fill="none" stroke="#63b8ff" d="M21.66,-109.71C26.63,-89.3 40.97,-43.56 73,-24.84 136.01,11.99 224.25,0.17 276.91,-12.1"/>
<polygon fill="#63b8ff" stroke="#63b8ff" points="275.88,-15.46 286.43,-14.43 277.54,-8.66 275.88,-15.46"/>
</a>
</g>
</g>
<!-- Node8 -->
<g id="Node000008" class="node">
<title>Node8</title>
<g id="a_Node000008"><a xlink:href="../../dc/db5/text__search_8cpp.html#aa8dca7b867074164d5f45b0f3851269d" target="_top" xlink:title="Self&#45;test implementations.">
<polygon fill="white" stroke="#666666" points="135.5,-53.46 103,-53.46 103,-34.21 135.5,-34.21 135.5,-53.46"/>
<text text-anchor="middle" x="119.25" y="-39.96" font-family="Helvetica,sans-Serif" font-size="10.00">test</text>
</a>
</g>
</g>
<!-- Node1&#45;&gt;Node8 -->
<g id="edge8_Node000001_Node000008" class="edge">
<title>Node1&#45;&gt;Node8</title>
<g id="a_edge8_Node000001_Node000008"><a xlink:title=" ">
<path fill="none" stroke="#63b8ff" d="M28.24,-109.77C38.28,-98.6 55.62,-80.5 73,-67.84 79.04,-63.44 85.99,-59.35 92.6,-55.83"/>
<polygon fill="#63b8ff" stroke="#63b8ff" points="93.83,-59.13 101.17,-51.5 90.67,-52.88 93.83,-59.13"/>
</a>
</g>
</g>
<!-- Node6&#45;&gt;Node7 -->
<g id="edge6_Node000006_Node000007" class="edge">
<title>Node6&#45;&gt;Node7</title>
<g id="a_edge6_Node000006_Node000007"><a xlink:title=" ">
<path fill="none" stroke="#63b8ff" d="M240.84,-40.26C247.96,-38.9 256.5,-37.27 265.32,-35.59"/>
<polygon fill="#63b8ff" stroke="#63b8ff" points="265.9,-39.04 275.07,-33.73 264.59,-32.17 265.9,-39.04"/>
</a>
</g>
</g>
<!-- Node8&#45;&gt;Node6 -->
<g id="edge9_Node000008_Node000006" class="edge">
<title>Node8&#45;&gt;Node6</title>
<g id="a_edge9_Node000008_Node000006"><a xlink:title=" ">
<path fill="none" stroke="#63b8ff" d="M135.86,-43.84C150.28,-43.84 172.11,-43.84 189.93,-43.84"/>
<polygon fill="#63b8ff" stroke="#63b8ff" points="189.71,-47.34 199.71,-43.84 189.71,-40.34 189.71,-47.34"/>
</a>
</g>
</g>
</g>
</svg>
