<?xml version="1.0" encoding="UTF-8" standalone="no"?>
<!DOCTYPE svg PUBLIC "-//W3C//DTD SVG 1.1//EN"
 "http://www.w3.org/Graphics/SVG/1.1/DTD/svg11.dtd">
<!-- Generated by graphviz version 5.0.0 (20220707.1540)
 -->
<!-- Title: main Pages: 1 -->
<svg width="393pt" height="256pt"
 viewBox="0.00 0.00 393.00 256.00" xmlns="http://www.w3.org/2000/svg" xmlns:xlink="http://www.w3.org/1999/xlink">
<g id="graph0" class="graph" transform="scale(1 1) rotate(0) translate(4 252)">
<title>main</title>
<polygon fill="white" stroke="transparent" points="-4,4 -4,-252 389,-252 389,4 -4,4"/>
<!-- Node1 -->
<g id="node1" class="node">
<title>Node1</title>
<g id="a_node1"><a xlink:title="Main function.">
<polygon fill="#bfbfbf" stroke="black" points="0,-114.5 0,-133.5 38,-133.5 38,-114.5 0,-114.5"/>
<text text-anchor="middle" x="19" y="-121.5" font-family="Helvetica,sans-Serif" font-size="10.00">main</text>
</a>
</g>
</g>
<!-- Node2 -->
<g id="node2" class="node">
<title>Node2</title>
<g id="a_node2"><a target="_blank" xlink:href="http://en.cppreference.com/w/cpp/string/basic_string/empty.html#" xlink:title=" ">
<polygon fill="white" stroke="black" points="74,-228.5 74,-247.5 167,-247.5 167,-228.5 74,-228.5"/>
<text text-anchor="middle" x="120.5" y="-235.5" font-family="Helvetica,sans-Serif" font-size="10.00">std::string::empty</text>
</a>
</g>
</g>
<!-- Node1&#45;&gt;Node2 -->
<g id="edge1" class="edge">
<title>Node1&#45;&gt;Node2</title>
<path fill="none" stroke="midnightblue" d="M23.12,-133.72C29.64,-152.63 46.45,-194.6 74,-219 75.72,-220.52 77.58,-221.93 79.52,-223.24"/>
<polygon fill="midnightblue" stroke="midnightblue" points="78.08,-226.44 88.5,-228.33 81.53,-220.35 78.08,-226.44"/>
</g>
<!-- Node3 -->
<g id="node3" class="node">
<title>Node3</title>
<g id="a_node3"><a target="_blank" xlink:href="http://en.cppreference.com/w/cpp/io/manip/endl.html#" xlink:title=" ">
<polygon fill="white" stroke="black" points="93.5,-190.5 93.5,-209.5 147.5,-209.5 147.5,-190.5 93.5,-190.5"/>
<text text-anchor="middle" x="120.5" y="-197.5" font-family="Helvetica,sans-Serif" font-size="10.00">std::endl</text>
</a>
</g>
</g>
<!-- Node1&#45;&gt;Node3 -->
<g id="edge2" class="edge">
<title>Node1&#45;&gt;Node3</title>
<path fill="none" stroke="midnightblue" d="M27.06,-133.65C36.55,-146.04 54.48,-167.53 74,-181 77.24,-183.23 80.78,-185.28 84.41,-187.13"/>
<polygon fill="midnightblue" stroke="midnightblue" points="82.95,-190.31 93.5,-191.33 85.89,-183.95 82.95,-190.31"/>
</g>
<!-- Node4 -->
<g id="node4" class="node">
<title>Node4</title>
<g id="a_node4"><a target="_blank" xlink:href="http://en.cppreference.com/w/cpp/string/basic_string/find.html#" xlink:title=" ">
<polygon fill="white" stroke="black" points="79.5,-152.5 79.5,-171.5 161.5,-171.5 161.5,-152.5 79.5,-152.5"/>
<text text-anchor="middle" x="120.5" y="-159.5" font-family="Helvetica,sans-Serif" font-size="10.00">std::string::find</text>
</a>
</g>
</g>
<!-- Node1&#45;&gt;Node4 -->
<g id="edge3" class="edge">
<title>Node1&#45;&gt;Node4</title>
<path fill="none" stroke="midnightblue" d="M38.25,-130.97C51.35,-135.97 69.41,-142.87 85.17,-148.89"/>
<polygon fill="midnightblue" stroke="midnightblue" points="84.03,-152.2 94.62,-152.5 86.53,-145.66 84.03,-152.2"/>
</g>
<!-- Node5 -->
<g id="node5" class="node">
<title>Node5</title>
<g id="a_node5"><a target="_blank" xlink:href="http://en.cppreference.com/w/cpp/string/basic_string/getline.html#" xlink:title=" ">
<polygon fill="white" stroke="black" points="88,-114.5 88,-133.5 153,-133.5 153,-114.5 88,-114.5"/>
<text text-anchor="middle" x="120.5" y="-121.5" font-family="Helvetica,sans-Serif" font-size="10.00">std::getline</text>
</a>
</g>
</g>
<!-- Node1&#45;&gt;Node5 -->
<g id="edge4" class="edge">
<title>Node1&#45;&gt;Node5</title>
<path fill="none" stroke="midnightblue" d="M38.25,-124C49.25,-124 63.73,-124 77.43,-124"/>
<polygon fill="midnightblue" stroke="midnightblue" points="77.67,-127.5 87.67,-124 77.67,-120.5 77.67,-127.5"/>
</g>
<!-- Node6 -->
<g id="node6" class="node">
<title>Node6</title>
<g id="a_node6"><a xlink:href="../../dc/db5/text__search_8cpp.html#a3f8975d227cd0e58f298b380c5dac0d9" target="_top" xlink:title="function to convert a C++ string to lower case">
<polygon fill="white" stroke="black" points="210,-38.5 210,-57.5 250,-57.5 250,-38.5 210,-38.5"/>
<text text-anchor="middle" x="230" y="-45.5" font-family="Helvetica,sans-Serif" font-size="10.00">lower</text>
</a>
</g>
</g>
<!-- Node1&#45;&gt;Node6 -->
<g id="edge5" class="edge">
<title>Node1&#45;&gt;Node6</title>
<path fill="none" stroke="midnightblue" d="M27.15,-114.09C36.46,-102 53.94,-81.94 74,-72 114.33,-52.01 167.21,-47.83 199.61,-47.38"/>
<polygon fill="midnightblue" stroke="midnightblue" points="199.78,-50.88 209.77,-47.35 199.76,-43.88 199.78,-50.88"/>
</g>
<!-- Node7 -->
<g id="node7" class="node">
<title>Node7</title>
<g id="a_node7"><a target="_blank" xlink:href="http://en.cppreference.com/w/cpp/string/basic_string/size.html#" xlink:title=" ">
<polygon fill="white" stroke="black" points="293,-57.5 293,-76.5 385,-76.5 385,-57.5 293,-57.5"/>
<text text-anchor="middle" x="339" y="-64.5" font-family="Helvetica,sans-Serif" font-size="10.00">std::string::length</text>
</a>
</g>
</g>
<!-- Node1&#45;&gt;Node7 -->
<g id="edge7" class="edge">
<title>Node1&#45;&gt;Node7</title>
<path fill="none" stroke="midnightblue" d="M38.22,-116.59C48.57,-112.63 61.84,-107.98 74,-105 144.98,-87.58 228.78,-77.2 282.62,-71.79"/>
<polygon fill="midnightblue" stroke="midnightblue" points="283.03,-75.27 292.64,-70.81 282.35,-68.3 283.03,-75.27"/>
</g>
<!-- Node8 -->
<g id="node8" class="node">
<title>Node8</title>
<g id="a_node8"><a xlink:href="../../dc/db5/text__search_8cpp.html#aa8dca7b867074164d5f45b0f3851269d" target="_top" xlink:title="Self&#45;test implementations.">
<polygon fill="white" stroke="black" points="104,-0.5 104,-19.5 137,-19.5 137,-0.5 104,-0.5"/>
<text text-anchor="middle" x="120.5" y="-7.5" font-family="Helvetica,sans-Serif" font-size="10.00">test</text>
</a>
</g>
</g>
<!-- Node1&#45;&gt;Node8 -->
<g id="edge8" class="edge">
<title>Node1&#45;&gt;Node8</title>
<path fill="none" stroke="midnightblue" d="M23.67,-114.45C30.92,-96.65 48.59,-58.05 74,-34 79.89,-28.43 87.32,-23.79 94.46,-20.13"/>
<polygon fill="midnightblue" stroke="midnightblue" points="96.27,-23.14 103.84,-15.73 93.3,-16.8 96.27,-23.14"/>
</g>
<!-- Node6&#45;&gt;Node7 -->
<g id="edge6" class="edge">
<title>Node6&#45;&gt;Node7</title>
<path fill="none" stroke="midnightblue" d="M250.13,-51.4C259.43,-53.05 271.13,-55.13 282.93,-57.22"/>
<polygon fill="midnightblue" stroke="midnightblue" points="282.36,-60.67 292.82,-58.98 283.58,-53.78 282.36,-60.67"/>
</g>
<!-- Node8&#45;&gt;Node6 -->
<g id="edge10" class="edge">
<title>Node8&#45;&gt;Node6</title>
<path fill="none" stroke="midnightblue" d="M137.36,-15.61C153.85,-21.44 180.02,-30.68 200.17,-37.81"/>
<polygon fill="midnightblue" stroke="midnightblue" points="199.21,-41.18 209.8,-41.21 201.54,-34.58 199.21,-41.18"/>
</g>
<!-- Node9 -->
<g id="node9" class="node">
<title>Node9</title>
<g id="a_node9"><a xlink:href="../../d4/d7a/shell__sort2_8cpp.html#a7eb77daed2cf1513f6d68c47a1c2db1c" target="_top" xlink:title=" ">
<polygon fill="white" stroke="black" points="203,-0.5 203,-19.5 257,-19.5 257,-0.5 203,-0.5"/>
<text text-anchor="middle" x="230" y="-7.5" font-family="Helvetica,sans-Serif" font-size="10.00">compare</text>
</a>
</g>
</g>
<!-- Node8&#45;&gt;Node9 -->
<g id="edge9" class="edge">
<title>Node8&#45;&gt;Node9</title>
<path fill="none" stroke="midnightblue" d="M137.36,-10C151.85,-10 173.81,-10 192.6,-10"/>
<polygon fill="midnightblue" stroke="midnightblue" points="192.65,-13.5 202.65,-10 192.65,-6.5 192.65,-13.5"/>
</g>
</g>
</svg>
