<?xml version="1.0" encoding="UTF-8" standalone="no"?>
<!DOCTYPE svg PUBLIC "-//W3C//DTD SVG 1.1//EN"
 "http://www.w3.org/Graphics/SVG/1.1/DTD/svg11.dtd">
<!-- Generated by graphviz version 5.0.1 (20220820.1526)
 -->
<!-- Title: main Pages: 1 -->
<svg width="379pt" height="248pt"
 viewBox="0.00 0.00 379.00 247.63" xmlns="http://www.w3.org/2000/svg" xmlns:xlink="http://www.w3.org/1999/xlink">
<g id="graph0" class="graph" transform="scale(1 1) rotate(0) translate(4 243.63)">
<title>main</title>
<!-- Node1 -->
<g id="node1" class="node">
<title>Node1</title>
<g id="a_node1"><a xlink:title="Main function.">
<polygon fill="#999999" stroke="#666666" points="38,-128.63 0,-128.63 0,-109.63 38,-109.63 38,-128.63"/>
<text text-anchor="middle" x="19" y="-116.63" font-family="Helvetica,sans-Serif" font-size="10.00">main</text>
</a>
</g>
</g>
<!-- Node2 -->
<g id="node2" class="node">
<title>Node2</title>
<g id="a_node2"><a target="_blank" xlink:href="http://en.cppreference.com/w/cpp/string/basic_string/empty.html#" xlink:title=" ">
<polygon fill="white" stroke="#666666" points="167,-239.63 74,-239.63 74,-220.63 167,-220.63 167,-239.63"/>
<text text-anchor="middle" x="120.5" y="-227.63" font-family="Helvetica,sans-Serif" font-size="10.00">std::string::empty</text>
</a>
</g>
</g>
<!-- Node1&#45;&gt;Node2 -->
<g id="edge1" class="edge">
<title>Node1&#45;&gt;Node2</title>
<path fill="none" stroke="#63b8ff" d="M23.14,-128.69C29.69,-147.27 46.55,-188.5 74,-212.13 75.33,-213.27 76.74,-214.35 78.21,-215.36"/>
<polygon fill="#63b8ff" stroke="#63b8ff" points="76.71,-218.53 87.12,-220.48 80.19,-212.46 76.71,-218.53"/>
</g>
<!-- Node3 -->
<g id="node3" class="node">
<title>Node3</title>
<g id="a_node3"><a target="_blank" xlink:href="http://en.cppreference.com/w/cpp/io/manip/endl.html#" xlink:title=" ">
<polygon fill="white" stroke="#666666" points="147.5,-202.63 93.5,-202.63 93.5,-183.63 147.5,-183.63 147.5,-202.63"/>
<text text-anchor="middle" x="120.5" y="-190.63" font-family="Helvetica,sans-Serif" font-size="10.00">std::endl</text>
</a>
</g>
</g>
<!-- Node1&#45;&gt;Node3 -->
<g id="edge2" class="edge">
<title>Node1&#45;&gt;Node3</title>
<path fill="none" stroke="#63b8ff" d="M27.06,-128.66C36.54,-140.88 54.47,-162.05 74,-175.13 77.07,-177.19 80.42,-179.07 83.86,-180.77"/>
<polygon fill="#63b8ff" stroke="#63b8ff" points="82.48,-183.98 93.04,-184.86 85.33,-177.59 82.48,-183.98"/>
</g>
<!-- Node4 -->
<g id="node4" class="node">
<title>Node4</title>
<g id="a_node4"><a target="_blank" xlink:href="http://en.cppreference.com/w/cpp/string/basic_string/find.html#" xlink:title=" ">
<polygon fill="white" stroke="#666666" points="161.5,-165.63 79.5,-165.63 79.5,-146.63 161.5,-146.63 161.5,-165.63"/>
<text text-anchor="middle" x="120.5" y="-153.63" font-family="Helvetica,sans-Serif" font-size="10.00">std::string::find</text>
</a>
</g>
</g>
<!-- Node1&#45;&gt;Node4 -->
<g id="edge3" class="edge">
<title>Node1&#45;&gt;Node4</title>
<path fill="none" stroke="#63b8ff" d="M38.25,-125.91C51.17,-130.72 68.89,-137.31 84.5,-143.11"/>
<polygon fill="#63b8ff" stroke="#63b8ff" points="83.28,-146.39 93.87,-146.6 85.72,-139.83 83.28,-146.39"/>
</g>
<!-- Node5 -->
<g id="node5" class="node">
<title>Node5</title>
<g id="a_node5"><a target="_blank" xlink:href="http://en.cppreference.com/w/cpp/string/basic_string/getline.html#" xlink:title=" ">
<polygon fill="white" stroke="#666666" points="153,-128.63 88,-128.63 88,-109.63 153,-109.63 153,-128.63"/>
<text text-anchor="middle" x="120.5" y="-116.63" font-family="Helvetica,sans-Serif" font-size="10.00">std::getline</text>
</a>
</g>
</g>
<!-- Node1&#45;&gt;Node5 -->
<g id="edge4" class="edge">
<title>Node1&#45;&gt;Node5</title>
<path fill="none" stroke="#63b8ff" d="M38.25,-119.13C49.25,-119.13 63.73,-119.13 77.43,-119.13"/>
<polygon fill="#63b8ff" stroke="#63b8ff" points="77.67,-122.63 87.67,-119.13 77.67,-115.63 77.67,-122.63"/>
</g>
<!-- Node6 -->
<g id="node6" class="node">
<title>Node6</title>
<g id="a_node6"><a xlink:href="../../dc/db5/text__search_8cpp.html#a3f8975d227cd0e58f298b380c5dac0d9" target="_top" xlink:title="function to convert a C++ string to lower case">
<polygon fill="white" stroke="#666666" points="243,-52.63 203,-52.63 203,-33.63 243,-33.63 243,-52.63"/>
<text text-anchor="middle" x="223" y="-40.63" font-family="Helvetica,sans-Serif" font-size="10.00">lower</text>
</a>
</g>
</g>
<!-- Node1&#45;&gt;Node6 -->
<g id="edge5" class="edge">
<title>Node1&#45;&gt;Node6</title>
<path fill="none" stroke="#63b8ff" d="M38.28,-112.25C73.53,-98.99 151.11,-69.8 193.3,-53.92"/>
<polygon fill="#63b8ff" stroke="#63b8ff" points="194.6,-57.17 202.73,-50.38 192.14,-50.62 194.6,-57.17"/>
</g>
<!-- Node7 -->
<g id="node7" class="node">
<title>Node7</title>
<g id="a_node7"><a target="_blank" xlink:href="http://en.cppreference.com/w/cpp/string/basic_string/size.html#" xlink:title=" ">
<polygon fill="white" stroke="#666666" points="371,-33.63 279,-33.63 279,-14.63 371,-14.63 371,-33.63"/>
<text text-anchor="middle" x="325" y="-21.63" font-family="Helvetica,sans-Serif" font-size="10.00">std::string::length</text>
</a>
</g>
</g>
<!-- Node1&#45;&gt;Node7 -->
<g id="edge7" class="edge">
<title>Node1&#45;&gt;Node7</title>
<path fill="none" stroke="#63b8ff" d="M22.18,-109.42C27.25,-89.38 41.95,-43.76 74,-25.13 138.37,12.3 228.74,0.01 281.36,-12.16"/>
<polygon fill="#63b8ff" stroke="#63b8ff" points="280.82,-15.63 291.36,-14.58 282.46,-8.83 280.82,-15.63"/>
</g>
<!-- Node8 -->
<g id="node8" class="node">
<title>Node8</title>
<g id="a_node8"><a xlink:href="../../dc/db5/text__search_8cpp.html#aa8dca7b867074164d5f45b0f3851269d" target="_top" xlink:title="Self&#45;test implementations.">
<polygon fill="white" stroke="#666666" points="137,-52.63 104,-52.63 104,-33.63 137,-33.63 137,-52.63"/>
<text text-anchor="middle" x="120.5" y="-40.63" font-family="Helvetica,sans-Serif" font-size="10.00">test</text>
</a>
</g>
</g>
<!-- Node1&#45;&gt;Node8 -->
<g id="edge8" class="edge">
<title>Node1&#45;&gt;Node8</title>
<path fill="none" stroke="#63b8ff" d="M28.47,-109.46C38.56,-98.33 56.28,-79.94 74,-67.13 80.37,-62.52 87.74,-58.25 94.66,-54.62"/>
<polygon fill="#63b8ff" stroke="#63b8ff" points="96.32,-57.7 103.7,-50.1 93.19,-51.44 96.32,-57.7"/>
</g>
<!-- Node6&#45;&gt;Node7 -->
<g id="edge6" class="edge">
<title>Node6&#45;&gt;Node7</title>
<path fill="none" stroke="#63b8ff" d="M243.28,-39.46C250.7,-38.05 259.59,-36.36 268.72,-34.63"/>
<polygon fill="#63b8ff" stroke="#63b8ff" points="269.49,-38.05 278.66,-32.74 268.19,-31.17 269.49,-38.05"/>
</g>
<!-- Node8&#45;&gt;Node6 -->
<g id="edge9" class="edge">
<title>Node8&#45;&gt;Node6</title>
<path fill="none" stroke="#63b8ff" d="M137.2,-43.13C152.06,-43.13 174.74,-43.13 192.9,-43.13"/>
<polygon fill="#63b8ff" stroke="#63b8ff" points="192.98,-46.63 202.98,-43.13 192.98,-39.63 192.98,-46.63"/>
</g>
</g>
</svg>
