<?xml version="1.0" encoding="UTF-8" standalone="no"?>
<!DOCTYPE svg PUBLIC "-//W3C//DTD SVG 1.1//EN"
 "http://www.w3.org/Graphics/SVG/1.1/DTD/svg11.dtd">
<!-- Generated by graphviz version 9.0.0 (20230911.1827)
 -->
<!-- Title: main Pages: 1 -->
<svg width="451pt" height="139pt"
 viewBox="0.00 0.00 451.00 139.25" xmlns="http://www.w3.org/2000/svg" xmlns:xlink="http://www.w3.org/1999/xlink">
<g id="graph0" class="graph" transform="scale(1 1) rotate(0) translate(4 135.25)">
<title>main</title>
<!-- Node1 -->
<g id="Node000001" class="node">
<title>Node1</title>
<g id="a_Node000001"><a xlink:title="Main function.">
<polygon fill="#999999" stroke="#666666" points="37,-93.25 0,-93.25 0,-74 37,-74 37,-93.25"/>
<text text-anchor="middle" x="18.5" y="-79.75" font-family="Helvetica,sans-Serif" font-size="10.00">main</text>
</a>
</g>
</g>
<!-- Node2 -->
<g id="Node000002" class="node">
<title>Node2</title>
<g id="a_Node000002"><a xlink:href="../../df/d28/dsu__union__rank_8cpp.html#ae7880ce913f3058a35ff106d5be9e243" target="_top" xlink:title="Self&#45;implementations, 1st test.">
<polygon fill="white" stroke="#666666" points="110.75,-112.25 73,-112.25 73,-93 110.75,-93 110.75,-112.25"/>
<text text-anchor="middle" x="91.88" y="-98.75" font-family="Helvetica,sans-Serif" font-size="10.00">test1</text>
</a>
</g>
</g>
<!-- Node1&#45;&gt;Node2 -->
<g id="edge1_Node000001_Node000002" class="edge">
<title>Node1&#45;&gt;Node2</title>
<g id="a_edge1_Node000001_Node000002"><a xlink:title=" ">
<path fill="none" stroke="#63b8ff" d="M37.14,-88.32C44.64,-90.32 53.57,-92.69 61.98,-94.93"/>
<polygon fill="#63b8ff" stroke="#63b8ff" points="60.91,-98.27 71.48,-97.46 62.71,-91.51 60.91,-98.27"/>
</a>
</g>
</g>
<!-- Node9 -->
<g id="Node000009" class="node">
<title>Node9</title>
<g id="a_Node000009"><a xlink:href="../../df/d28/dsu__union__rank_8cpp.html#a45d94ead4cf4e1ff9f87c38bc99f59ae" target="_top" xlink:title="Self&#45;implementations, 2nd test.">
<polygon fill="white" stroke="#666666" points="110.75,-75.25 73,-75.25 73,-56 110.75,-56 110.75,-75.25"/>
<text text-anchor="middle" x="91.88" y="-61.75" font-family="Helvetica,sans-Serif" font-size="10.00">test2</text>
</a>
</g>
</g>
<!-- Node1&#45;&gt;Node9 -->
<g id="edge10_Node000001_Node000009" class="edge">
<title>Node1&#45;&gt;Node9</title>
<g id="a_edge10_Node000001_Node000009"><a xlink:title=" ">
<path fill="none" stroke="#63b8ff" d="M37.14,-79.18C44.64,-77.29 53.57,-75.03 61.98,-72.91"/>
<polygon fill="#63b8ff" stroke="#63b8ff" points="62.63,-76.36 71.47,-70.52 60.92,-69.57 62.63,-76.36"/>
</a>
</g>
</g>
<!-- Node3 -->
<g id="Node000003" class="node">
<title>Node3</title>
<g id="a_Node000003"><a target="_blank" xlink:href="http://en.cppreference.com/w/cpp/container/vector/at.html#" xlink:title=" ">
<polygon fill="white" stroke="#666666" points="227.62,-131.25 150.88,-131.25 150.88,-112 227.62,-112 227.62,-131.25"/>
<text text-anchor="middle" x="189.25" y="-117.75" font-family="Helvetica,sans-Serif" font-size="10.00">std::vector::at</text>
</a>
</g>
</g>
<!-- Node2&#45;&gt;Node3 -->
<g id="edge2_Node000002_Node000003" class="edge">
<title>Node2&#45;&gt;Node3</title>
<g id="a_edge2_Node000002_Node000003"><a xlink:title=" ">
<path fill="none" stroke="#63b8ff" d="M110.81,-106.2C119.06,-107.84 129.27,-109.88 139.55,-111.92"/>
<polygon fill="#63b8ff" stroke="#63b8ff" points="138.67,-115.32 149.16,-113.84 140.03,-108.45 138.67,-115.32"/>
</a>
</g>
</g>
<!-- Node4 -->
<g id="Node000004" class="node">
<title>Node4</title>
<g id="a_Node000004"><a xlink:href="../../dd/d1f/classdsu.html#ab8ee27083a3c2e2df80755165a2ec280" target="_top" xlink:title="Method to print all the parents of i, or the path from i to representative.">
<polygon fill="white" stroke="#666666" points="231.75,-94.25 146.75,-94.25 146.75,-75 231.75,-75 231.75,-94.25"/>
<text text-anchor="middle" x="189.25" y="-80.75" font-family="Helvetica,sans-Serif" font-size="10.00">dsu::getParents</text>
</a>
</g>
</g>
<!-- Node2&#45;&gt;Node4 -->
<g id="edge3_Node000002_Node000004" class="edge">
<title>Node2&#45;&gt;Node4</title>
<g id="a_edge3_Node000002_Node000004"><a xlink:title=" ">
<path fill="none" stroke="#63b8ff" d="M110.81,-99.24C117.87,-97.91 126.38,-96.3 135.13,-94.65"/>
<polygon fill="#63b8ff" stroke="#63b8ff" points="135.59,-98.13 144.77,-92.83 134.29,-91.25 135.59,-98.13"/>
</a>
</g>
</g>
<!-- Node5 -->
<g id="Node000005" class="node">
<title>Node5</title>
<g id="a_Node000005"><a xlink:href="../../dd/d1f/classdsu.html#a81897528bdb53fd5e796d75d7dbc430f" target="_top" xlink:title="Method that combines two disjoint sets to which i and j belongs to and make a single set having a com...">
<polygon fill="white" stroke="#666666" points="227.25,-57.25 151.25,-57.25 151.25,-38 227.25,-38 227.25,-57.25"/>
<text text-anchor="middle" x="189.25" y="-43.75" font-family="Helvetica,sans-Serif" font-size="10.00">dsu::unionSet</text>
</a>
</g>
</g>
<!-- Node2&#45;&gt;Node5 -->
<g id="edge4_Node000002_Node000005" class="edge">
<title>Node2&#45;&gt;Node5</title>
<g id="a_edge4_Node000002_Node000005"><a xlink:title=" ">
<path fill="none" stroke="#63b8ff" d="M105.71,-92.77C116.35,-84.85 132.06,-73.76 146.75,-65.62 148.66,-64.57 150.64,-63.53 152.65,-62.52"/>
<polygon fill="#63b8ff" stroke="#63b8ff" points="153.93,-65.79 161.49,-58.36 150.95,-59.45 153.93,-65.79"/>
</a>
</g>
</g>
<!-- Node6 -->
<g id="Node000006" class="node">
<title>Node6</title>
<g id="a_Node000006"><a xlink:href="../../dd/d1f/classdsu.html#a16851f78fe390fc1430905c83d6a2f1c" target="_top" xlink:title="Method to find the representative of the set to which i belongs to, T(n) = O(1)">
<polygon fill="white" stroke="#666666" points="443,-76.25 374.5,-76.25 374.5,-57 443,-57 443,-76.25"/>
<text text-anchor="middle" x="408.75" y="-62.75" font-family="Helvetica,sans-Serif" font-size="10.00">dsu::findSet</text>
</a>
</g>
</g>
<!-- Node5&#45;&gt;Node6 -->
<g id="edge5_Node000005_Node000006" class="edge">
<title>Node5&#45;&gt;Node6</title>
<g id="a_edge5_Node000005_Node000006"><a xlink:title=" ">
<path fill="none" stroke="#63b8ff" d="M227.64,-50.89C265.11,-54.16 322.83,-59.21 362.78,-62.7"/>
<polygon fill="#63b8ff" stroke="#63b8ff" points="362.28,-66.17 372.55,-63.55 362.89,-59.19 362.28,-66.17"/>
</a>
</g>
</g>
<!-- Node7 -->
<g id="Node000007" class="node">
<title>Node7</title>
<g id="a_Node000007"><a xlink:href="../../dd/d1f/classdsu.html#a64d25c5986742f7c234ed449b2ff7303" target="_top" xlink:title="A utility function which check whether i and j belongs to same set or not.">
<polygon fill="white" stroke="#666666" points="338.5,-95.25 267.75,-95.25 267.75,-76 338.5,-76 338.5,-95.25"/>
<text text-anchor="middle" x="303.12" y="-81.75" font-family="Helvetica,sans-Serif" font-size="10.00">dsu::isSame</text>
</a>
</g>
</g>
<!-- Node5&#45;&gt;Node7 -->
<g id="edge7_Node000005_Node000007" class="edge">
<title>Node5&#45;&gt;Node7</title>
<g id="a_edge7_Node000005_Node000007"><a xlink:title=" ">
<path fill="none" stroke="#63b8ff" d="M219.94,-57.71C232.81,-62.08 248.08,-67.27 261.94,-71.98"/>
<polygon fill="#63b8ff" stroke="#63b8ff" points="260.66,-75.24 271.25,-75.14 262.91,-68.61 260.66,-75.24"/>
</a>
</g>
</g>
<!-- Node8 -->
<g id="Node000008" class="node">
<title>Node8</title>
<g id="a_Node000008"><a target="_blank" xlink:href="http://en.cppreference.com/w/cpp/algorithm/swap.html#" xlink:title=" ">
<polygon fill="white" stroke="#666666" points="332.5,-19.25 273.75,-19.25 273.75,0 332.5,0 332.5,-19.25"/>
<text text-anchor="middle" x="303.12" y="-5.75" font-family="Helvetica,sans-Serif" font-size="10.00">std::swap</text>
</a>
</g>
</g>
<!-- Node5&#45;&gt;Node8 -->
<g id="edge9_Node000005_Node000008" class="edge">
<title>Node5&#45;&gt;Node8</title>
<g id="a_edge9_Node000005_Node000008"><a xlink:title=" ">
<path fill="none" stroke="#63b8ff" d="M219.94,-37.54C233.01,-33.1 248.56,-27.82 262.6,-23.05"/>
<polygon fill="#63b8ff" stroke="#63b8ff" points="263.68,-26.38 272.03,-19.85 261.43,-19.75 263.68,-26.38"/>
</a>
</g>
</g>
<!-- Node6&#45;&gt;Node6 -->
<g id="edge6_Node000006_Node000006" class="edge">
<title>Node6&#45;&gt;Node6</title>
<g id="a_edge6_Node000006_Node000006"><a xlink:title=" ">
<path fill="none" stroke="#63b8ff" d="M392.21,-76.54C384.67,-85.15 390.18,-94.25 408.75,-94.25 418.9,-94.25 425.15,-91.53 427.5,-87.65"/>
<polygon fill="#63b8ff" stroke="#63b8ff" points="430.97,-87.15 425.58,-78.02 424.1,-88.51 430.97,-87.15"/>
</a>
</g>
</g>
<!-- Node7&#45;&gt;Node6 -->
<g id="edge8_Node000007_Node000006" class="edge">
<title>Node7&#45;&gt;Node6</title>
<g id="a_edge8_Node000007_Node000006"><a xlink:title=" ">
<path fill="none" stroke="#63b8ff" d="M338.92,-79.25C346.67,-77.82 355,-76.3 363.08,-74.81"/>
<polygon fill="#63b8ff" stroke="#63b8ff" points="363.58,-78.28 372.79,-73.04 362.32,-71.4 363.58,-78.28"/>
</a>
</g>
</g>
<!-- Node9&#45;&gt;Node3 -->
<g id="edge11_Node000009_Node000003" class="edge">
<title>Node9&#45;&gt;Node3</title>
<g id="a_edge11_Node000009_Node000003"><a xlink:title=" ">
<path fill="none" stroke="#63b8ff" d="M105.24,-75.45C115.86,-83.62 131.78,-95.22 146.75,-103.62 148.65,-104.69 150.63,-105.74 152.64,-106.76"/>
<polygon fill="#63b8ff" stroke="#63b8ff" points="150.93,-109.82 161.46,-110.94 153.92,-103.49 150.93,-109.82"/>
</a>
</g>
</g>
<!-- Node9&#45;&gt;Node4 -->
<g id="edge12_Node000009_Node000004" class="edge">
<title>Node9&#45;&gt;Node4</title>
<g id="a_edge12_Node000009_Node000004"><a xlink:title=" ">
<path fill="none" stroke="#63b8ff" d="M110.81,-69.2C117.87,-70.6 126.38,-72.3 135.13,-74.04"/>
<polygon fill="#63b8ff" stroke="#63b8ff" points="134.28,-77.44 144.77,-75.96 135.65,-70.58 134.28,-77.44"/>
</a>
</g>
</g>
<!-- Node9&#45;&gt;Node5 -->
<g id="edge13_Node000009_Node000005" class="edge">
<title>Node9&#45;&gt;Node5</title>
<g id="a_edge13_Node000009_Node000005"><a xlink:title=" ">
<path fill="none" stroke="#63b8ff" d="M110.81,-62.24C119.14,-60.67 129.47,-58.72 139.85,-56.76"/>
<polygon fill="#63b8ff" stroke="#63b8ff" points="140.37,-60.22 149.55,-54.93 139.07,-53.34 140.37,-60.22"/>
</a>
</g>
</g>
</g>
</svg>
