<?xml version="1.0" encoding="UTF-8" standalone="no"?>
<!DOCTYPE svg PUBLIC "-//W3C//DTD SVG 1.1//EN"
 "http://www.w3.org/Graphics/SVG/1.1/DTD/svg11.dtd">
<!-- Generated by graphviz version 8.0.2 (20230410.1723)
 -->
<!-- Title: numerical_methods::InverseFastFourierTransform Pages: 1 -->
<svg width="287pt" height="69pt"
 viewBox="0.00 0.00 287.00 68.50" xmlns="http://www.w3.org/2000/svg" xmlns:xlink="http://www.w3.org/1999/xlink">
<g id="graph0" class="graph" transform="scale(1 1) rotate(0) translate(4 64.5)">
<title>numerical_methods::InverseFastFourierTransform</title>
<!-- Node1 -->
<g id="node1" class="node">
<title>Node1</title>
<g id="a_node1"><a xlink:title="InverseFastFourierTransform is a recursive function which returns list of complex numbers.">
<polygon fill="#999999" stroke="#666666" points="143,-42.5 0,-42.5 0,-12.5 143,-12.5 143,-42.5"/>
<text text-anchor="start" x="8" y="-30.5" font-family="Helvetica,sans-Serif" font-size="10.00">numerical_methods::</text>
<text text-anchor="middle" x="71.5" y="-19.5" font-family="Helvetica,sans-Serif" font-size="10.00">InverseFastFourierTransform</text>
</a>
</g>
</g>
<!-- Node1&#45;&gt;Node1 -->
<g id="edge2" class="edge">
<title>Node1&#45;&gt;Node1</title>
<path fill="none" stroke="#63b8ff" d="M43.81,-42.78C37.66,-51.91 46.89,-60.5 71.5,-60.5 85.73,-60.5 94.81,-57.63 98.76,-53.44"/>
<polygon fill="#63b8ff" stroke="#63b8ff" points="102.28,-53.91 99.19,-43.78 95.29,-53.63 102.28,-53.91"/>
</g>
<!-- Node2 -->
<g id="node2" class="node">
<title>Node2</title>
<g id="a_node2"><a target="_blank" xlink:href="http://en.cppreference.com/w/cpp/numeric/complex/imag.html#" xlink:title=" ">
<polygon fill="white" stroke="#666666" points="279,-56 179,-56 179,-37 279,-37 279,-56"/>
<text text-anchor="middle" x="229" y="-44" font-family="Helvetica,sans-Serif" font-size="10.00">std::complex::imag</text>
</a>
</g>
</g>
<!-- Node1&#45;&gt;Node2 -->
<g id="edge1" class="edge">
<title>Node1&#45;&gt;Node2</title>
<path fill="none" stroke="#63b8ff" d="M143.42,-36.17C151.57,-37.16 159.83,-38.17 167.82,-39.15"/>
<polygon fill="#63b8ff" stroke="#63b8ff" points="167.16,-42.71 177.52,-40.45 168.01,-35.77 167.16,-42.71"/>
</g>
<!-- Node3 -->
<g id="node3" class="node">
<title>Node3</title>
<g id="a_node3"><a target="_blank" xlink:href="http://en.cppreference.com/w/cpp/numeric/complex/real.html#" xlink:title=" ">
<polygon fill="white" stroke="#666666" points="276.5,-19 181.5,-19 181.5,0 276.5,0 276.5,-19"/>
<text text-anchor="middle" x="229" y="-7" font-family="Helvetica,sans-Serif" font-size="10.00">std::complex::real</text>
</a>
</g>
</g>
<!-- Node1&#45;&gt;Node3 -->
<g id="edge3" class="edge">
<title>Node1&#45;&gt;Node3</title>
<path fill="none" stroke="#63b8ff" d="M143.42,-19.29C152.44,-18.25 161.57,-17.19 170.34,-16.17"/>
<polygon fill="#63b8ff" stroke="#63b8ff" points="170.68,-19.54 180.21,-14.92 169.88,-12.59 170.68,-19.54"/>
</g>
</g>
</svg>
