<?xml version="1.0" encoding="UTF-8" standalone="no"?>
<!DOCTYPE svg PUBLIC "-//W3C//DTD SVG 1.1//EN"
 "http://www.w3.org/Graphics/SVG/1.1/DTD/svg11.dtd">
<!-- Generated by graphviz version 2.49.3 (20211023.0002)
 -->
<!-- Title: main Pages: 1 -->
<svg width="194pt" height="342pt"
 viewBox="0.00 0.00 194.00 342.00" xmlns="http://www.w3.org/2000/svg" xmlns:xlink="http://www.w3.org/1999/xlink">
<g id="graph0" class="graph" transform="scale(1 1) rotate(0) translate(4 338)">
<title>main</title>
<polygon fill="white" stroke="transparent" points="-4,4 -4,-338 190,-338 190,4 -4,4"/>
<!-- Node1 -->
<g id="node1" class="node">
<title>Node1</title>
<g id="a_node1"><a xlink:title=" ">
<polygon fill="#bfbfbf" stroke="black" points="0,-145.5 0,-164.5 38,-164.5 38,-145.5 0,-145.5"/>
<text text-anchor="middle" x="19" y="-152.5" font-family="Helvetica,sans-Serif" font-size="10.00">main</text>
</a>
</g>
</g>
<!-- Node2 -->
<g id="node2" class="node">
<title>Node2</title>
<g id="a_node2"><a target="_blank" xlink:href="http://en.cppreference.com/w/cpp/io/manip/endl.html#" xlink:title=" ">
<polygon fill="white" stroke="black" points="103,-314.5 103,-333.5 157,-333.5 157,-314.5 103,-314.5"/>
<text text-anchor="middle" x="130" y="-321.5" font-family="Helvetica,sans-Serif" font-size="10.00">std::endl</text>
</a>
</g>
</g>
<!-- Node1&#45;&gt;Node2 -->
<g id="edge1" class="edge">
<title>Node1&#45;&gt;Node2</title>
<path fill="none" stroke="midnightblue" d="M20.66,-164.58C22.99,-190.81 33.03,-264.56 74,-305 79.34,-310.27 86.21,-314.08 93.27,-316.84"/>
<polygon fill="midnightblue" stroke="midnightblue" points="92.3,-320.2 102.89,-319.98 94.47,-313.55 92.3,-320.2"/>
</g>
<!-- Node3 -->
<g id="node3" class="node">
<title>Node3</title>
<g id="a_node3"><a xlink:href="../../d2/d0b/fast__power_8cpp.html#a0d4e3f0099a6975b74a314a35bd0f94d" target="_top" xlink:title=" ">
<polygon fill="white" stroke="black" points="82.5,-258.5 82.5,-277.5 177.5,-277.5 177.5,-258.5 82.5,-258.5"/>
<text text-anchor="middle" x="130" y="-265.5" font-family="Helvetica,sans-Serif" font-size="10.00">fast_power_linear</text>
</a>
</g>
</g>
<!-- Node1&#45;&gt;Node3 -->
<g id="edge2" class="edge">
<title>Node1&#45;&gt;Node3</title>
<path fill="none" stroke="midnightblue" d="M23.02,-164.78C29.36,-183.75 45.86,-225.73 74,-249 76.04,-250.69 78.25,-252.23 80.55,-253.64"/>
<polygon fill="midnightblue" stroke="midnightblue" points="79.37,-256.97 89.86,-258.44 82.57,-250.75 79.37,-256.97"/>
</g>
<!-- Node4 -->
<g id="node4" class="node">
<title>Node4</title>
<g id="a_node4"><a xlink:href="../../d2/d0b/fast__power_8cpp.html#a8399b847626e5bba983cab7c7918b445" target="_top" xlink:title=" ">
<polygon fill="white" stroke="black" points="74,-202.5 74,-221.5 186,-221.5 186,-202.5 74,-202.5"/>
<text text-anchor="middle" x="130" y="-209.5" font-family="Helvetica,sans-Serif" font-size="10.00">fast_power_recursive</text>
</a>
</g>
</g>
<!-- Node1&#45;&gt;Node4 -->
<g id="edge4" class="edge">
<title>Node1&#45;&gt;Node4</title>
<path fill="none" stroke="midnightblue" d="M31.81,-164.79C42.36,-173.16 58.49,-185.06 74,-193 78.06,-195.07 82.39,-197.01 86.78,-198.79"/>
<polygon fill="midnightblue" stroke="midnightblue" points="85.79,-202.15 96.38,-202.42 88.27,-195.61 85.79,-202.15"/>
</g>
<!-- Node5 -->
<g id="node5" class="node">
<title>Node5</title>
<g id="a_node5"><a target="_blank" xlink:href="http://en.cppreference.com/w/cpp/numeric/math/pow.html#" xlink:title=" ">
<polygon fill="white" stroke="black" points="103,-164.5 103,-183.5 157,-183.5 157,-164.5 103,-164.5"/>
<text text-anchor="middle" x="130" y="-171.5" font-family="Helvetica,sans-Serif" font-size="10.00">std::pow</text>
</a>
</g>
</g>
<!-- Node1&#45;&gt;Node5 -->
<g id="edge6" class="edge">
<title>Node1&#45;&gt;Node5</title>
<path fill="none" stroke="midnightblue" d="M38.49,-158.22C53.28,-160.8 74.48,-164.5 92.65,-167.66"/>
<polygon fill="midnightblue" stroke="midnightblue" points="92.19,-171.14 102.64,-169.41 93.39,-164.24 92.19,-171.14"/>
</g>
<!-- Node6 -->
<g id="node6" class="node">
<title>Node6</title>
<g id="a_node6"><a target="_blank" xlink:href="http://en.cppreference.com/w/cpp/numeric/random/rand.html#" xlink:title=" ">
<polygon fill="white" stroke="black" points="102.5,-126.5 102.5,-145.5 157.5,-145.5 157.5,-126.5 102.5,-126.5"/>
<text text-anchor="middle" x="130" y="-133.5" font-family="Helvetica,sans-Serif" font-size="10.00">std::rand</text>
</a>
</g>
</g>
<!-- Node1&#45;&gt;Node6 -->
<g id="edge7" class="edge">
<title>Node1&#45;&gt;Node6</title>
<path fill="none" stroke="midnightblue" d="M38.49,-151.78C53.18,-149.22 74.19,-145.55 92.27,-142.4"/>
<polygon fill="midnightblue" stroke="midnightblue" points="92.98,-145.83 102.23,-140.67 91.78,-138.94 92.98,-145.83"/>
</g>
<!-- Node7 -->
<g id="node7" class="node">
<title>Node7</title>
<g id="a_node7"><a target="_blank" xlink:href="http://en.cppreference.com/w/cpp/numeric/random/srand.html#" xlink:title=" ">
<polygon fill="white" stroke="black" points="100,-88.5 100,-107.5 160,-107.5 160,-88.5 100,-88.5"/>
<text text-anchor="middle" x="130" y="-95.5" font-family="Helvetica,sans-Serif" font-size="10.00">std::srand</text>
</a>
</g>
</g>
<!-- Node1&#45;&gt;Node7 -->
<g id="edge8" class="edge">
<title>Node1&#45;&gt;Node7</title>
<path fill="none" stroke="midnightblue" d="M31.81,-145.21C42.36,-136.84 58.49,-124.94 74,-117 79.06,-114.41 84.55,-112.04 90.04,-109.92"/>
<polygon fill="midnightblue" stroke="midnightblue" points="91.61,-113.08 99.82,-106.38 89.23,-106.49 91.61,-113.08"/>
</g>
<!-- Node8 -->
<g id="node8" class="node">
<title>Node8</title>
<g id="a_node8"><a target="_blank" xlink:href="http://en.cppreference.com/w/cpp/io/ios_base/sync_with_stdio.html#" xlink:title=" ">
<polygon fill="white" stroke="black" points="79,-39 79,-69 181,-69 181,-39 79,-39"/>
<text text-anchor="start" x="87" y="-57" font-family="Helvetica,sans-Serif" font-size="10.00">std::ios_base::sync</text>
<text text-anchor="middle" x="130" y="-46" font-family="Helvetica,sans-Serif" font-size="10.00">_with_stdio</text>
</a>
</g>
</g>
<!-- Node1&#45;&gt;Node8 -->
<g id="edge9" class="edge">
<title>Node1&#45;&gt;Node8</title>
<path fill="none" stroke="midnightblue" d="M24.7,-145.36C32.79,-129.6 50.78,-98.16 74,-79 75.98,-77.36 78.09,-75.81 80.28,-74.34"/>
<polygon fill="midnightblue" stroke="midnightblue" points="82.26,-77.23 89.04,-69.09 78.66,-71.23 82.26,-77.23"/>
</g>
<!-- Node9 -->
<g id="node9" class="node">
<title>Node9</title>
<g id="a_node9"><a target="_blank" xlink:href="http://en.cppreference.com/w/cpp/chrono/c/time.html#" xlink:title=" ">
<polygon fill="white" stroke="black" points="103,-0.5 103,-19.5 157,-19.5 157,-0.5 103,-0.5"/>
<text text-anchor="middle" x="130" y="-7.5" font-family="Helvetica,sans-Serif" font-size="10.00">std::time</text>
</a>
</g>
</g>
<!-- Node1&#45;&gt;Node9 -->
<g id="edge10" class="edge">
<title>Node1&#45;&gt;Node9</title>
<path fill="none" stroke="midnightblue" d="M21.5,-145.38C25.59,-122.23 39.08,-62.92 74,-30 79.44,-24.87 86.29,-21.04 93.3,-18.18"/>
<polygon fill="midnightblue" stroke="midnightblue" points="94.54,-21.46 102.83,-14.86 92.24,-14.85 94.54,-21.46"/>
</g>
<!-- Node3&#45;&gt;Node3 -->
<g id="edge3" class="edge">
<title>Node3&#45;&gt;Node3</title>
<path fill="none" stroke="midnightblue" d="M113.05,-277.76C104.8,-286.57 110.45,-296 130,-296 142.22,-296 149.01,-292.31 150.37,-287.4"/>
<polygon fill="midnightblue" stroke="midnightblue" points="153.59,-286.01 146.95,-277.76 146.99,-288.35 153.59,-286.01"/>
</g>
<!-- Node4&#45;&gt;Node4 -->
<g id="edge5" class="edge">
<title>Node4&#45;&gt;Node4</title>
<path fill="none" stroke="midnightblue" d="M113.05,-221.76C104.8,-230.57 110.45,-240 130,-240 142.22,-240 149.01,-236.31 150.37,-231.4"/>
<polygon fill="midnightblue" stroke="midnightblue" points="153.59,-230.01 146.95,-221.76 146.99,-232.35 153.59,-230.01"/>
</g>
</g>
</svg>
