<?xml version="1.0" encoding="UTF-8" standalone="no"?>
<!DOCTYPE svg PUBLIC "-//W3C//DTD SVG 1.1//EN"
 "http://www.w3.org/Graphics/SVG/1.1/DTD/svg11.dtd">
<!-- Generated by graphviz version 2.40.1 (20161225.0304)
 -->
<!-- Title: main Pages: 1 -->
<svg width="192pt" height="306pt"
 viewBox="0.00 0.00 192.00 306.00" xmlns="http://www.w3.org/2000/svg" xmlns:xlink="http://www.w3.org/1999/xlink">
<g id="graph0" class="graph" transform="scale(1 1) rotate(0) translate(4 302)">
<title>main</title>
<polygon fill="#ffffff" stroke="transparent" points="-4,4 -4,-302 188,-302 188,4 -4,4"/>
<!-- Node2 -->
<g id="node1" class="node">
<title>Node2</title>
<polygon fill="#bfbfbf" stroke="#000000" points="0,-133.5 0,-152.5 38,-152.5 38,-133.5 0,-133.5"/>
<text text-anchor="middle" x="19" y="-140.5" font-family="Helvetica,sans-Serif" font-size="10.00" fill="#000000">main</text>
</g>
<!-- Node3 -->
<g id="node2" class="node">
<title>Node3</title>
<g id="a_node2"><a doxygen="/home/runner/work/C-Plus-Plus/C-Plus-Plus/doc/cppreference-doxygen-web.tag.xml:http://en.cppreference.com/w/" xlink:href="http://en.cppreference.com/w/cpp/numeric/random/srand.html#" target="_top" xlink:title="std::srand">
<polygon fill="#ffffff" stroke="#000000" points="99,-278.5 99,-297.5 159,-297.5 159,-278.5 99,-278.5"/>
<text text-anchor="middle" x="129" y="-285.5" font-family="Helvetica,sans-Serif" font-size="10.00" fill="#000000">std::srand</text>
</a>
</g>
</g>
<!-- Node2&#45;&gt;Node3 -->
<g id="edge1" class="edge">
<title>Node2&#45;&gt;Node3</title>
<path fill="none" stroke="#191970" d="M20.5202,-152.7374C24.6809,-176.156 38.4134,-236.1179 74,-269 78.4206,-273.0846 83.7625,-276.2971 89.3574,-278.8222"/>
<polygon fill="#191970" stroke="#191970" points="88.3034,-282.166 98.8943,-282.4553 90.7955,-275.6246 88.3034,-282.166"/>
</g>
<!-- Node4 -->
<g id="node3" class="node">
<title>Node4</title>
<g id="a_node3"><a doxygen="/home/runner/work/C-Plus-Plus/C-Plus-Plus/doc/cppreference-doxygen-web.tag.xml:http://en.cppreference.com/w/" xlink:href="http://en.cppreference.com/w/cpp/chrono/c/time.html#" target="_top" xlink:title="std::time">
<polygon fill="#ffffff" stroke="#000000" points="101.5,-240.5 101.5,-259.5 156.5,-259.5 156.5,-240.5 101.5,-240.5"/>
<text text-anchor="middle" x="129" y="-247.5" font-family="Helvetica,sans-Serif" font-size="10.00" fill="#000000">std::time</text>
</a>
</g>
</g>
<!-- Node2&#45;&gt;Node4 -->
<g id="edge2" class="edge">
<title>Node2&#45;&gt;Node4</title>
<path fill="none" stroke="#191970" d="M22.5197,-152.7101C29.5317,-170.727 46.9384,-209.4541 74,-231 79.1865,-235.1294 85.3282,-238.3903 91.5946,-240.9565"/>
<polygon fill="#191970" stroke="#191970" points="90.8301,-244.3989 101.4249,-244.4424 93.1697,-237.8014 90.8301,-244.3989"/>
</g>
<!-- Node5 -->
<g id="node4" class="node">
<title>Node5</title>
<g id="a_node4"><a doxygen="/home/runner/work/C-Plus-Plus/C-Plus-Plus/doc/cppreference-doxygen-web.tag.xml:http://en.cppreference.com/w/" xlink:href="http://en.cppreference.com/w/cpp/io/ios_base/sync_with_stdio.html#" target="_top" xlink:title="std::ios_base::sync\l_with_stdio">
<polygon fill="#ffffff" stroke="#000000" points="78,-191 78,-221 180,-221 180,-191 78,-191"/>
<text text-anchor="start" x="86" y="-209" font-family="Helvetica,sans-Serif" font-size="10.00" fill="#000000">std::ios_base::sync</text>
<text text-anchor="middle" x="129" y="-198" font-family="Helvetica,sans-Serif" font-size="10.00" fill="#000000">_with_stdio</text>
</a>
</g>
</g>
<!-- Node2&#45;&gt;Node5 -->
<g id="edge3" class="edge">
<title>Node2&#45;&gt;Node5</title>
<path fill="none" stroke="#191970" d="M31.6899,-152.7348C42.5747,-160.8453 58.8543,-172.4162 74,-181 77.248,-182.8408 80.656,-184.653 84.1168,-186.409"/>
<polygon fill="#191970" stroke="#191970" points="82.8055,-189.6636 93.3272,-190.9068 85.8773,-183.3736 82.8055,-189.6636"/>
</g>
<!-- Node6 -->
<g id="node5" class="node">
<title>Node6</title>
<g id="a_node5"><a doxygen="/home/runner/work/C-Plus-Plus/C-Plus-Plus/doc/cppreference-doxygen-web.tag.xml:http://en.cppreference.com/w/" xlink:href="http://en.cppreference.com/w/cpp/io/manip/endl.html#" target="_top" xlink:title="std::endl">
<polygon fill="#ffffff" stroke="#000000" points="102,-152.5 102,-171.5 156,-171.5 156,-152.5 102,-152.5"/>
<text text-anchor="middle" x="129" y="-159.5" font-family="Helvetica,sans-Serif" font-size="10.00" fill="#000000">std::endl</text>
</a>
</g>
</g>
<!-- Node2&#45;&gt;Node6 -->
<g id="edge4" class="edge">
<title>Node2&#45;&gt;Node6</title>
<path fill="none" stroke="#191970" d="M38.1605,-146.3095C52.9456,-148.8633 73.8507,-152.4742 91.8797,-155.5883"/>
<polygon fill="#191970" stroke="#191970" points="91.368,-159.0517 101.8178,-157.3049 92.5595,-152.1538 91.368,-159.0517"/>
</g>
<!-- Node7 -->
<g id="node6" class="node">
<title>Node7</title>
<g id="a_node6"><a doxygen="/home/runner/work/C-Plus-Plus/C-Plus-Plus/doc/cppreference-doxygen-web.tag.xml:http://en.cppreference.com/w/" xlink:href="http://en.cppreference.com/w/cpp/numeric/random/rand.html#" target="_top" xlink:title="std::rand">
<polygon fill="#ffffff" stroke="#000000" points="101.5,-114.5 101.5,-133.5 156.5,-133.5 156.5,-114.5 101.5,-114.5"/>
<text text-anchor="middle" x="129" y="-121.5" font-family="Helvetica,sans-Serif" font-size="10.00" fill="#000000">std::rand</text>
</a>
</g>
</g>
<!-- Node2&#45;&gt;Node7 -->
<g id="edge5" class="edge">
<title>Node2&#45;&gt;Node7</title>
<path fill="none" stroke="#191970" d="M38.1605,-139.6905C52.8422,-137.1545 73.5586,-133.5762 91.501,-130.4771"/>
<polygon fill="#191970" stroke="#191970" points="92.1437,-133.918 101.4021,-128.7669 90.9522,-127.0201 92.1437,-133.918"/>
</g>
<!-- Node8 -->
<g id="node7" class="node">
<title>Node8</title>
<g id="a_node7"><a xlink:href="../../d2/d0b/fast__power_8cpp.html#a8399b847626e5bba983cab7c7918b445" target="_top" xlink:title="fast_power_recursive">
<polygon fill="#ffffff" stroke="#000000" points="74,-76.5 74,-95.5 184,-95.5 184,-76.5 74,-76.5"/>
<text text-anchor="middle" x="129" y="-83.5" font-family="Helvetica,sans-Serif" font-size="10.00" fill="#000000">fast_power_recursive</text>
</a>
</g>
</g>
<!-- Node2&#45;&gt;Node8 -->
<g id="edge6" class="edge">
<title>Node2&#45;&gt;Node8</title>
<path fill="none" stroke="#191970" d="M31.0634,-133.226C41.8221,-124.8701 58.2606,-112.9675 74,-105 78.2278,-102.8598 82.7528,-100.8661 87.3241,-99.0369"/>
<polygon fill="#191970" stroke="#191970" points="88.5606,-102.3112 96.692,-95.5193 86.0999,-95.758 88.5606,-102.3112"/>
</g>
<!-- Node9 -->
<g id="node8" class="node">
<title>Node9</title>
<g id="a_node8"><a doxygen="/home/runner/work/C-Plus-Plus/C-Plus-Plus/doc/cppreference-doxygen-web.tag.xml:http://en.cppreference.com/w/" xlink:href="http://en.cppreference.com/w/cpp/numeric/math/pow.html#" target="_top" xlink:title="std::pow">
<polygon fill="#ffffff" stroke="#000000" points="102,-38.5 102,-57.5 156,-57.5 156,-38.5 102,-38.5"/>
<text text-anchor="middle" x="129" y="-45.5" font-family="Helvetica,sans-Serif" font-size="10.00" fill="#000000">std::pow</text>
</a>
</g>
</g>
<!-- Node2&#45;&gt;Node9 -->
<g id="edge7" class="edge">
<title>Node2&#45;&gt;Node9</title>
<path fill="none" stroke="#191970" d="M23.5027,-133.3687C31.4691,-117.3373 49.5432,-85.1517 74,-67 79.5049,-62.9143 85.9559,-59.6597 92.4647,-57.0825"/>
<polygon fill="#191970" stroke="#191970" points="93.652,-60.3752 101.9387,-53.7735 91.3438,-53.7667 93.652,-60.3752"/>
</g>
<!-- Node10 -->
<g id="node9" class="node">
<title>Node10</title>
<g id="a_node9"><a xlink:href="../../d2/d0b/fast__power_8cpp.html#a0d4e3f0099a6975b74a314a35bd0f94d" target="_top" xlink:title="fast_power_linear">
<polygon fill="#ffffff" stroke="#000000" points="82.5,-.5 82.5,-19.5 175.5,-19.5 175.5,-.5 82.5,-.5"/>
<text text-anchor="middle" x="129" y="-7.5" font-family="Helvetica,sans-Serif" font-size="10.00" fill="#000000">fast_power_linear</text>
</a>
</g>
</g>
<!-- Node2&#45;&gt;Node10 -->
<g id="edge8" class="edge">
<title>Node2&#45;&gt;Node10</title>
<path fill="none" stroke="#191970" d="M21.0299,-133.2144C26.0635,-111.3588 41.1609,-58.2085 74,-29 75.9154,-27.2963 77.9915,-25.7437 80.1776,-24.329"/>
<polygon fill="#191970" stroke="#191970" points="81.9193,-27.3661 89.0473,-19.5277 78.5869,-21.2102 81.9193,-27.3661"/>
</g>
</g>
</svg>
