<?xml version="1.0" encoding="UTF-8" standalone="no"?>
<!DOCTYPE svg PUBLIC "-//W3C//DTD SVG 1.1//EN"
 "http://www.w3.org/Graphics/SVG/1.1/DTD/svg11.dtd">
<!-- Generated by graphviz version 8.0.5 (20230430.1635)
 -->
<!-- Title: test Pages: 1 -->
<svg width="216pt" height="323pt"
 viewBox="0.00 0.00 215.50 323.25" xmlns="http://www.w3.org/2000/svg" xmlns:xlink="http://www.w3.org/1999/xlink">
<g id="graph0" class="graph" transform="scale(1 1) rotate(0) translate(4 319.25)">
<title>test</title>
<!-- Node1 -->
<g id="node1" class="node">
<title>Node1</title>
<g id="a_node1"><a xlink:title="Self&#45;test implementations.">
<polygon fill="#999999" stroke="#666666" points="32.5,-167.25 0,-167.25 0,-148 32.5,-148 32.5,-167.25"/>
<text text-anchor="middle" x="16.25" y="-153.75" font-family="Helvetica,sans-Serif" font-size="10.00">test</text>
</a>
</g>
</g>
<!-- Node2 -->
<g id="node2" class="node">
<title>Node2</title>
<g id="a_node2"><a xlink:href="../../dd/d47/namespacemath.html#a40e36c67da78d2131408c57ee091ad75" target="_top" xlink:title="area of a circle (pi">
<polygon fill="white" stroke="#666666" points="183.5,-315.25 92.5,-315.25 92.5,-296 183.5,-296 183.5,-315.25"/>
<text text-anchor="middle" x="138" y="-301.75" font-family="Helvetica,sans-Serif" font-size="10.00">math::circle_area</text>
</a>
</g>
</g>
<!-- Node1&#45;&gt;Node2 -->
<g id="edge1" class="edge">
<title>Node1&#45;&gt;Node2</title>
<path fill="none" stroke="#63b8ff" d="M18.15,-167.47C20.92,-191.72 31.49,-254.76 68.5,-287.62 72.59,-291.26 77.33,-294.17 82.36,-296.5"/>
<polygon fill="#63b8ff" stroke="#63b8ff" points="80.73,-300.01 91.32,-300.32 83.24,-293.47 80.73,-300.01"/>
</g>
<!-- Node3 -->
<g id="node3" class="node">
<title>Node3</title>
<g id="a_node3"><a xlink:href="../../dd/d47/namespacemath.html#abc46c784a297fc1d2eb8b33a327fba4c" target="_top" xlink:title="surface area of a cube ( 6 * (l">
<polygon fill="white" stroke="#666666" points="201.12,-278.25 74.88,-278.25 74.88,-259 201.12,-259 201.12,-278.25"/>
<text text-anchor="middle" x="138" y="-264.75" font-family="Helvetica,sans-Serif" font-size="10.00">math::cube_surface_area</text>
</a>
</g>
</g>
<!-- Node1&#45;&gt;Node3 -->
<g id="edge2" class="edge">
<title>Node1&#45;&gt;Node3</title>
<path fill="none" stroke="#63b8ff" d="M19.85,-167.48C25.4,-186.57 40.29,-228.64 68.5,-250.62 69.77,-251.62 71.1,-252.55 72.46,-253.44"/>
<polygon fill="#63b8ff" stroke="#63b8ff" points="70.5,-256.9 80.97,-258.57 73.83,-250.74 70.5,-256.9"/>
</g>
<!-- Node4 -->
<g id="node4" class="node">
<title>Node4</title>
<g id="a_node4"><a xlink:href="../../dd/d47/namespacemath.html#ac5803413618fcfb922cb32c6db0fc864" target="_top" xlink:title="surface area of a cylinder (2 * pi * r * h + 2 * pi * r^2)">
<polygon fill="white" stroke="#666666" points="207.5,-241.25 68.5,-241.25 68.5,-222 207.5,-222 207.5,-241.25"/>
<text text-anchor="middle" x="138" y="-227.75" font-family="Helvetica,sans-Serif" font-size="10.00">math::cylinder_surface_area</text>
</a>
</g>
</g>
<!-- Node1&#45;&gt;Node4 -->
<g id="edge3" class="edge">
<title>Node1&#45;&gt;Node4</title>
<path fill="none" stroke="#63b8ff" d="M23.61,-167.53C32.25,-180.16 48.87,-201.77 68.5,-213.62 70.72,-214.97 73.04,-216.21 75.43,-217.36"/>
<polygon fill="#63b8ff" stroke="#63b8ff" points="73.97,-220.96 84.54,-221.59 76.67,-214.5 73.97,-220.96"/>
</g>
<!-- Node5 -->
<g id="node5" class="node">
<title>Node5</title>
<g id="a_node5"><a target="_blank" xlink:href="http://en.cppreference.com/w/cpp/io/manip/endl.html#" xlink:title=" ">
<polygon fill="white" stroke="#666666" points="164.75,-204.25 111.25,-204.25 111.25,-185 164.75,-185 164.75,-204.25"/>
<text text-anchor="middle" x="138" y="-190.75" font-family="Helvetica,sans-Serif" font-size="10.00">std::endl</text>
</a>
</g>
</g>
<!-- Node1&#45;&gt;Node5 -->
<g id="edge4" class="edge">
<title>Node1&#45;&gt;Node5</title>
<path fill="none" stroke="#63b8ff" d="M32.81,-163.85C42.9,-167.77 56.37,-172.79 68.5,-176.62 78.77,-179.87 90.03,-183 100.4,-185.72"/>
<polygon fill="#63b8ff" stroke="#63b8ff" points="99.25,-189.29 109.81,-188.38 100.99,-182.51 99.25,-189.29"/>
</g>
<!-- Node6 -->
<g id="node6" class="node">
<title>Node6</title>
<g id="a_node6"><a xlink:href="../../dd/d47/namespacemath.html#a5de184925e68658f15415dd53954df4f" target="_top" xlink:title="area of a parallelogram (b * h)">
<polygon fill="white" stroke="#666666" points="200.75,-167.25 75.25,-167.25 75.25,-148 200.75,-148 200.75,-167.25"/>
<text text-anchor="middle" x="138" y="-153.75" font-family="Helvetica,sans-Serif" font-size="10.00">math::parallelogram_area</text>
</a>
</g>
</g>
<!-- Node1&#45;&gt;Node6 -->
<g id="edge5" class="edge">
<title>Node1&#45;&gt;Node6</title>
<path fill="none" stroke="#63b8ff" d="M32.91,-157.62C41.3,-157.62 52.32,-157.62 64.04,-157.62"/>
<polygon fill="#63b8ff" stroke="#63b8ff" points="63.95,-161.13 73.95,-157.62 63.95,-154.13 63.95,-161.13"/>
</g>
<!-- Node7 -->
<g id="node7" class="node">
<title>Node7</title>
<g id="a_node7"><a xlink:href="../../dd/d47/namespacemath.html#ab31d141f7c5b551746b1eee0eb4dedca" target="_top" xlink:title="area of a rectangle (l * w)">
<polygon fill="white" stroke="#666666" points="180.12,-130.25 95.88,-130.25 95.88,-111 180.12,-111 180.12,-130.25"/>
<text text-anchor="middle" x="138" y="-116.75" font-family="Helvetica,sans-Serif" font-size="10.00">math::rect_area</text>
</a>
</g>
</g>
<!-- Node1&#45;&gt;Node7 -->
<g id="edge6" class="edge">
<title>Node1&#45;&gt;Node7</title>
<path fill="none" stroke="#63b8ff" d="M32.81,-151.4C42.9,-147.48 56.37,-142.46 68.5,-138.62 74,-136.89 79.78,-135.18 85.55,-133.56"/>
<polygon fill="#63b8ff" stroke="#63b8ff" points="86.16,-136.75 94.88,-130.73 84.31,-130 86.16,-136.75"/>
</g>
<!-- Node8 -->
<g id="node8" class="node">
<title>Node8</title>
<g id="a_node8"><a xlink:href="../../dd/d47/namespacemath.html#ab7f29862d30df351c317eedd60a0c656" target="_top" xlink:title="surface area of a sphere ( 4 * pi * r^2)">
<polygon fill="white" stroke="#666666" points="205.25,-93.25 70.75,-93.25 70.75,-74 205.25,-74 205.25,-93.25"/>
<text text-anchor="middle" x="138" y="-79.75" font-family="Helvetica,sans-Serif" font-size="10.00">math::sphere_surface_area</text>
</a>
</g>
</g>
<!-- Node1&#45;&gt;Node8 -->
<g id="edge7" class="edge">
<title>Node1&#45;&gt;Node8</title>
<path fill="none" stroke="#63b8ff" d="M23.61,-147.72C32.25,-135.09 48.87,-113.48 68.5,-101.62 70.72,-100.28 73.04,-99.04 75.43,-97.89"/>
<polygon fill="#63b8ff" stroke="#63b8ff" points="76.67,-100.75 84.54,-93.66 73.97,-94.29 76.67,-100.75"/>
</g>
<!-- Node9 -->
<g id="node9" class="node">
<title>Node9</title>
<g id="a_node9"><a xlink:href="../../dd/d47/namespacemath.html#a971ce57e368f2f631cf1f4ff3f864049" target="_top" xlink:title="area of a square (l * l)">
<polygon fill="white" stroke="#666666" points="186.5,-56.25 89.5,-56.25 89.5,-37 186.5,-37 186.5,-56.25"/>
<text text-anchor="middle" x="138" y="-42.75" font-family="Helvetica,sans-Serif" font-size="10.00">math::square_area</text>
</a>
</g>
</g>
<!-- Node1&#45;&gt;Node9 -->
<g id="edge8" class="edge">
<title>Node1&#45;&gt;Node9</title>
<path fill="none" stroke="#63b8ff" d="M19.85,-147.77C25.4,-128.68 40.29,-86.61 68.5,-64.62 71.84,-62.02 75.52,-59.79 79.4,-57.88"/>
<polygon fill="#63b8ff" stroke="#63b8ff" points="80.42,-60.83 88.32,-53.77 77.74,-54.37 80.42,-60.83"/>
</g>
<!-- Node10 -->
<g id="node10" class="node">
<title>Node10</title>
<g id="a_node10"><a xlink:href="../../dd/d47/namespacemath.html#ab3b920cc56442abd92279ba23b50f4dc" target="_top" xlink:title="area of a triangle (b * h / 2)">
<polygon fill="white" stroke="#666666" points="187.62,-19.25 88.38,-19.25 88.38,0 187.62,0 187.62,-19.25"/>
<text text-anchor="middle" x="138" y="-5.75" font-family="Helvetica,sans-Serif" font-size="10.00">math::triangle_area</text>
</a>
</g>
</g>
<!-- Node1&#45;&gt;Node10 -->
<g id="edge9" class="edge">
<title>Node1&#45;&gt;Node10</title>
<path fill="none" stroke="#63b8ff" d="M18.15,-147.78C20.92,-123.53 31.49,-60.49 68.5,-27.62 71.48,-24.98 74.8,-22.71 78.33,-20.78"/>
<polygon fill="#63b8ff" stroke="#63b8ff" points="79.4,-23.68 87.08,-16.38 76.52,-17.3 79.4,-23.68"/>
</g>
</g>
</svg>
