<?xml version="1.0" encoding="UTF-8" standalone="no"?>
<!DOCTYPE svg PUBLIC "-//W3C//DTD SVG 1.1//EN"
 "http://www.w3.org/Graphics/SVG/1.1/DTD/svg11.dtd">
<!-- Generated by graphviz version 8.0.5 (20230430.1635)
 -->
<!-- Title: main Pages: 1 -->
<svg width="321pt" height="82pt"
 viewBox="0.00 0.00 321.00 82.25" xmlns="http://www.w3.org/2000/svg" xmlns:xlink="http://www.w3.org/1999/xlink">
<g id="graph0" class="graph" transform="scale(1 1) rotate(0) translate(4 78.25)">
<title>main</title>
<!-- Node1 -->
<g id="node1" class="node">
<title>Node1</title>
<g id="a_node1"><a xlink:title=" ">
<polygon fill="#999999" stroke="#666666" points="37,-55.25 0,-55.25 0,-36 37,-36 37,-55.25"/>
<text text-anchor="middle" x="18.5" y="-41.75" font-family="Helvetica,sans-Serif" font-size="10.00">main</text>
</a>
</g>
</g>
<!-- Node2 -->
<g id="node2" class="node">
<title>Node2</title>
<g id="a_node2"><a target="_blank" xlink:href="http://en.cppreference.com/w/cpp/io/manip/endl.html#" xlink:title=" ">
<polygon fill="white" stroke="#666666" points="126.5,-74.25 73,-74.25 73,-55 126.5,-55 126.5,-74.25"/>
<text text-anchor="middle" x="99.75" y="-60.75" font-family="Helvetica,sans-Serif" font-size="10.00">std::endl</text>
</a>
</g>
</g>
<!-- Node1&#45;&gt;Node2 -->
<g id="edge1" class="edge">
<title>Node1&#45;&gt;Node2</title>
<path fill="none" stroke="#63b8ff" d="M37.48,-49.94C44.8,-51.69 53.55,-53.79 62.1,-55.84"/>
<polygon fill="#63b8ff" stroke="#63b8ff" points="61.18,-59.46 71.72,-58.38 62.81,-52.65 61.18,-59.46"/>
</g>
<!-- Node3 -->
<g id="node3" class="node">
<title>Node3</title>
<g id="a_node3"><a xlink:href="../../d4/d83/sum__of__digits_8cpp.html#ae1a3968e7947464bee7714f6d43b7002" target="_top" xlink:title=" ">
<polygon fill="white" stroke="#666666" points="116,-37.25 83.5,-37.25 83.5,-18 116,-18 116,-37.25"/>
<text text-anchor="middle" x="99.75" y="-23.75" font-family="Helvetica,sans-Serif" font-size="10.00">test</text>
</a>
</g>
</g>
<!-- Node1&#45;&gt;Node3 -->
<g id="edge2" class="edge">
<title>Node1&#45;&gt;Node3</title>
<path fill="none" stroke="#63b8ff" d="M37.48,-41.54C47.93,-39.17 61.28,-36.13 72.85,-33.51"/>
<polygon fill="#63b8ff" stroke="#63b8ff" points="73.27,-36.77 82.24,-31.15 71.72,-29.95 73.27,-36.77"/>
</g>
<!-- Node4 -->
<g id="node4" class="node">
<title>Node4</title>
<g id="a_node4"><a xlink:href="../../d4/d83/sum__of__digits_8cpp.html#a1440a7779ac56f47a3f355ce4a8c7da0" target="_top" xlink:title=" ">
<polygon fill="white" stroke="#666666" points="200.25,-56.25 162.5,-56.25 162.5,-37 200.25,-37 200.25,-56.25"/>
<text text-anchor="middle" x="181.38" y="-42.75" font-family="Helvetica,sans-Serif" font-size="10.00">test1</text>
</a>
</g>
</g>
<!-- Node3&#45;&gt;Node4 -->
<g id="edge3" class="edge">
<title>Node3&#45;&gt;Node4</title>
<path fill="none" stroke="#63b8ff" d="M116.48,-31.38C126.54,-33.78 139.9,-36.97 151.79,-39.8"/>
<polygon fill="#63b8ff" stroke="#63b8ff" points="150.63,-43.36 161.17,-42.28 152.25,-36.56 150.63,-43.36"/>
</g>
<!-- Node6 -->
<g id="node6" class="node">
<title>Node6</title>
<g id="a_node6"><a xlink:href="../../d4/d83/sum__of__digits_8cpp.html#a0283886819c7c140a023582b7269e2d0" target="_top" xlink:title=" ">
<polygon fill="white" stroke="#666666" points="200.25,-19.25 162.5,-19.25 162.5,0 200.25,0 200.25,-19.25"/>
<text text-anchor="middle" x="181.38" y="-5.75" font-family="Helvetica,sans-Serif" font-size="10.00">test2</text>
</a>
</g>
</g>
<!-- Node3&#45;&gt;Node6 -->
<g id="edge5" class="edge">
<title>Node3&#45;&gt;Node6</title>
<path fill="none" stroke="#63b8ff" d="M116.48,-24.07C126.54,-21.79 139.9,-18.78 151.79,-16.09"/>
<polygon fill="#63b8ff" stroke="#63b8ff" points="152.19,-19.36 161.17,-13.74 150.64,-12.53 152.19,-19.36"/>
</g>
<!-- Node5 -->
<g id="node5" class="node">
<title>Node5</title>
<g id="a_node5"><a xlink:href="../../d4/d83/sum__of__digits_8cpp.html#a4619c78b6ad985713024f930f31c4395" target="_top" xlink:title=" ">
<polygon fill="white" stroke="#666666" points="313,-37.25 236.25,-37.25 236.25,-18 313,-18 313,-37.25"/>
<text text-anchor="middle" x="274.62" y="-23.75" font-family="Helvetica,sans-Serif" font-size="10.00">sum_of_digits</text>
</a>
</g>
</g>
<!-- Node4&#45;&gt;Node5 -->
<g id="edge4" class="edge">
<title>Node4&#45;&gt;Node5</title>
<path fill="none" stroke="#63b8ff" d="M200.4,-42.87C207.72,-41.35 216.55,-39.51 225.52,-37.64"/>
<polygon fill="#63b8ff" stroke="#63b8ff" points="225.94,-40.92 235.01,-35.46 224.51,-34.07 225.94,-40.92"/>
</g>
<!-- Node6&#45;&gt;Node5 -->
<g id="edge6" class="edge">
<title>Node6&#45;&gt;Node5</title>
<path fill="none" stroke="#63b8ff" d="M200.4,-13.18C207.64,-14.61 216.36,-16.33 225.22,-18.08"/>
<polygon fill="#63b8ff" stroke="#63b8ff" points="224.52,-21.7 235.01,-20.21 225.88,-14.84 224.52,-21.7"/>
</g>
</g>
</svg>
