<?xml version="1.0" encoding="UTF-8" standalone="no"?>
<!DOCTYPE svg PUBLIC "-//W3C//DTD SVG 1.1//EN"
 "http://www.w3.org/Graphics/SVG/1.1/DTD/svg11.dtd">
<!-- Generated by graphviz version 5.0.1 (20220820.1526)
 -->
<!-- Title: main Pages: 1 -->
<svg width="323pt" height="82pt"
 viewBox="0.00 0.00 323.00 82.00" xmlns="http://www.w3.org/2000/svg" xmlns:xlink="http://www.w3.org/1999/xlink">
<g id="graph0" class="graph" transform="scale(1 1) rotate(0) translate(4 78)">
<title>main</title>
<!-- Node1 -->
<g id="node1" class="node">
<title>Node1</title>
<g id="a_node1"><a xlink:title=" ">
<polygon fill="#999999" stroke="#666666" points="38,-55 0,-55 0,-36 38,-36 38,-55"/>
<text text-anchor="middle" x="19" y="-43" font-family="Helvetica,sans-Serif" font-size="10.00">main</text>
</a>
</g>
</g>
<!-- Node2 -->
<g id="node2" class="node">
<title>Node2</title>
<g id="a_node2"><a target="_blank" xlink:href="http://en.cppreference.com/w/cpp/io/manip/endl.html#" xlink:title=" ">
<polygon fill="white" stroke="#666666" points="128,-74 74,-74 74,-55 128,-55 128,-74"/>
<text text-anchor="middle" x="101" y="-62" font-family="Helvetica,sans-Serif" font-size="10.00">std::endl</text>
</a>
</g>
</g>
<!-- Node1&#45;&gt;Node2 -->
<g id="edge1" class="edge">
<title>Node1&#45;&gt;Node2</title>
<path fill="none" stroke="#63b8ff" d="M38.15,-49.81C45.79,-51.63 54.96,-53.8 63.87,-55.92"/>
<polygon fill="#63b8ff" stroke="#63b8ff" points="63.19,-59.35 73.73,-58.26 64.8,-52.54 63.19,-59.35"/>
</g>
<!-- Node3 -->
<g id="node3" class="node">
<title>Node3</title>
<g id="a_node3"><a xlink:href="../../d4/d83/sum__of__digits_8cpp.html#ae1a3968e7947464bee7714f6d43b7002" target="_top" xlink:title=" ">
<polygon fill="white" stroke="#666666" points="117.5,-37 84.5,-37 84.5,-18 117.5,-18 117.5,-37"/>
<text text-anchor="middle" x="101" y="-25" font-family="Helvetica,sans-Serif" font-size="10.00">test</text>
</a>
</g>
</g>
<!-- Node1&#45;&gt;Node3 -->
<g id="edge2" class="edge">
<title>Node1&#45;&gt;Node3</title>
<path fill="none" stroke="#63b8ff" d="M38.15,-41.42C48.92,-38.99 62.74,-35.88 74.58,-33.22"/>
<polygon fill="#63b8ff" stroke="#63b8ff" points="75.36,-36.63 84.35,-31.02 73.82,-29.8 75.36,-36.63"/>
</g>
<!-- Node4 -->
<g id="node4" class="node">
<title>Node4</title>
<g id="a_node4"><a xlink:href="../../d4/d83/sum__of__digits_8cpp.html#a1440a7779ac56f47a3f355ce4a8c7da0" target="_top" xlink:title=" ">
<polygon fill="white" stroke="#666666" points="202,-56 164,-56 164,-37 202,-37 202,-56"/>
<text text-anchor="middle" x="183" y="-44" font-family="Helvetica,sans-Serif" font-size="10.00">test1</text>
</a>
</g>
</g>
<!-- Node3&#45;&gt;Node4 -->
<g id="edge3" class="edge">
<title>Node3&#45;&gt;Node4</title>
<path fill="none" stroke="#63b8ff" d="M117.81,-31.25C128.19,-33.72 142.07,-37.02 154.26,-39.91"/>
<polygon fill="#63b8ff" stroke="#63b8ff" points="153.46,-43.32 163.99,-42.22 155.07,-36.51 153.46,-43.32"/>
</g>
<!-- Node6 -->
<g id="node6" class="node">
<title>Node6</title>
<g id="a_node6"><a xlink:href="../../d4/d83/sum__of__digits_8cpp.html#a0283886819c7c140a023582b7269e2d0" target="_top" xlink:title=" ">
<polygon fill="white" stroke="#666666" points="202,-19 164,-19 164,0 202,0 202,-19"/>
<text text-anchor="middle" x="183" y="-7" font-family="Helvetica,sans-Serif" font-size="10.00">test2</text>
</a>
</g>
</g>
<!-- Node3&#45;&gt;Node6 -->
<g id="edge5" class="edge">
<title>Node3&#45;&gt;Node6</title>
<path fill="none" stroke="#63b8ff" d="M117.81,-23.94C128.09,-21.63 141.79,-18.55 153.89,-15.82"/>
<polygon fill="#63b8ff" stroke="#63b8ff" points="155.01,-19.16 163.99,-13.55 153.47,-12.33 155.01,-19.16"/>
</g>
<!-- Node5 -->
<g id="node5" class="node">
<title>Node5</title>
<g id="a_node5"><a xlink:href="../../d4/d83/sum__of__digits_8cpp.html#a4619c78b6ad985713024f930f31c4395" target="_top" xlink:title=" ">
<polygon fill="white" stroke="#666666" points="315,-37 238,-37 238,-18 315,-18 315,-37"/>
<text text-anchor="middle" x="276.5" y="-25" font-family="Helvetica,sans-Serif" font-size="10.00">sum_of_digits</text>
</a>
</g>
</g>
<!-- Node4&#45;&gt;Node5 -->
<g id="edge4" class="edge">
<title>Node4&#45;&gt;Node5</title>
<path fill="none" stroke="#63b8ff" d="M202.08,-42.75C209.57,-41.19 218.66,-39.3 227.85,-37.4"/>
<polygon fill="#63b8ff" stroke="#63b8ff" points="228.7,-40.79 237.78,-35.33 227.28,-33.94 228.7,-40.79"/>
</g>
<!-- Node6&#45;&gt;Node5 -->
<g id="edge6" class="edge">
<title>Node6&#45;&gt;Node5</title>
<path fill="none" stroke="#63b8ff" d="M202.08,-13.06C209.57,-14.53 218.66,-16.32 227.85,-18.13"/>
<polygon fill="#63b8ff" stroke="#63b8ff" points="227.3,-21.58 237.78,-20.08 228.65,-14.72 227.3,-21.58"/>
</g>
</g>
</svg>
