<?xml version="1.0" encoding="UTF-8" standalone="no"?>
<!DOCTYPE svg PUBLIC "-//W3C//DTD SVG 1.1//EN"
 "http://www.w3.org/Graphics/SVG/1.1/DTD/svg11.dtd">
<!-- Generated by graphviz version 12.1.2 (20240928.0832)
 -->
<!-- Title: main Pages: 1 -->
<svg width="388pt" height="293pt"
 viewBox="0.00 0.00 387.75 292.76" xmlns="http://www.w3.org/2000/svg" xmlns:xlink="http://www.w3.org/1999/xlink">

<svg id="main" version="1.1" xmlns="http://www.w3.org/2000/svg" xmlns:xlink="http://www.w3.org/1999/xlink" xml:space="preserve">

<style type="text/css"><![CDATA[
.node, .edge {opacity: 0.7;}
.node.selected, .edge.selected {opacity: 1;}
.edge:hover path { stroke: red; }
.edge:hover polygon { stroke: red; fill: red; }
]]></style>
<script type="application/ecmascript" xlink:href="../../svg.min.js"/>
<svg id="graph" class="graph">
<g id="graph0" class="graph" transform="scale(1 1) rotate(0) translate(4 288.76)">
<title>main</title>
<!-- Node1 -->
<g id="Node000001" class="node">
<title>Node1</title>
<g id="a_Node000001"><a xlink:title=" ">
<polygon fill="#999999" stroke="#666666" points="37,-152.34 0,-152.34 0,-133.09 37,-133.09 37,-152.34"/>
<text text-anchor="middle" x="18.5" y="-138.84" font-family="Helvetica,sans-Serif" font-size="10.00">main</text>
</a>
</g>
</g>
<!-- Node2 -->
<g id="Node000002" class="node">
<title>Node2</title>
<g id="a_Node000002"><a xlink:href="../../dd/da8/pigeonhole__sort_8cpp.html#a34b8683a2b429de5cce57e6d733ec817" target="_top" xlink:title=" ">
<polygon fill="white" stroke="#666666" points="116,-115.34 73,-115.34 73,-96.09 116,-96.09 116,-115.34"/>
<text text-anchor="middle" x="94.5" y="-101.84" font-family="Helvetica,sans-Serif" font-size="10.00">test_1</text>
</a>
</g>
</g>
<!-- Node1&#45;&gt;Node2 -->
<g id="edge1_Node000001_Node000002" class="edge">
<title>Node1&#45;&gt;Node2</title>
<g id="a_edge1_Node000001_Node000002"><a xlink:title=" ">
<path fill="none" stroke="#63b8ff" d="M37.41,-133.76C45.14,-129.89 54.39,-125.27 63.13,-120.9"/>
<polygon fill="#63b8ff" stroke="#63b8ff" points="64.67,-124.04 72.05,-116.44 61.54,-117.78 64.67,-124.04"/>
</a>
</g>
</g>
<!-- Node10 -->
<g id="Node000010" class="node">
<title>Node10</title>
<g id="a_Node000010"><a xlink:href="../../dd/da8/pigeonhole__sort_8cpp.html#a458410412185a5f09199deaff7157a8d" target="_top" xlink:title=" ">
<polygon fill="white" stroke="#666666" points="116,-152.34 73,-152.34 73,-133.09 116,-133.09 116,-152.34"/>
<text text-anchor="middle" x="94.5" y="-138.84" font-family="Helvetica,sans-Serif" font-size="10.00">test_2</text>
</a>
</g>
</g>
<!-- Node1&#45;&gt;Node10 -->
<g id="edge11_Node000001_Node000010" class="edge">
<title>Node1&#45;&gt;Node10</title>
<g id="a_edge11_Node000001_Node000010"><a xlink:title=" ">
<path fill="none" stroke="#63b8ff" d="M37.41,-142.71C44.54,-142.71 52.97,-142.71 61.1,-142.71"/>
<polygon fill="#63b8ff" stroke="#63b8ff" points="61.09,-146.21 71.09,-142.71 61.09,-139.21 61.09,-146.21"/>
</a>
</g>
</g>
<!-- Node11 -->
<g id="Node000011" class="node">
<title>Node11</title>
<g id="a_Node000011"><a xlink:href="../../dd/da8/pigeonhole__sort_8cpp.html#af31ec5409537703d9c8a47350386b32a" target="_top" xlink:title=" ">
<polygon fill="white" stroke="#666666" points="116,-208.34 73,-208.34 73,-189.09 116,-189.09 116,-208.34"/>
<text text-anchor="middle" x="94.5" y="-194.84" font-family="Helvetica,sans-Serif" font-size="10.00">test_3</text>
</a>
</g>
</g>
<!-- Node1&#45;&gt;Node11 -->
<g id="edge17_Node000001_Node000011" class="edge">
<title>Node1&#45;&gt;Node11</title>
<g id="a_edge17_Node000001_Node000011"><a xlink:title=" ">
<path fill="none" stroke="#63b8ff" d="M32.73,-152.72C43.46,-160.85 58.82,-172.47 71.42,-182"/>
<polygon fill="#63b8ff" stroke="#63b8ff" points="69.09,-184.63 79.18,-187.87 73.32,-179.05 69.09,-184.63"/>
</a>
</g>
</g>
<!-- Node3 -->
<g id="Node000003" class="node">
<title>Node3</title>
<g id="a_Node000003"><a target="_blank" xlink:href="http://en.cppreference.com/w/cpp/container/array/at.html#" xlink:title=" ">
<polygon fill="white" stroke="#666666" points="236.62,-190.34 165.12,-190.34 165.12,-171.09 236.62,-171.09 236.62,-190.34"/>
<text text-anchor="middle" x="200.88" y="-176.84" font-family="Helvetica,sans-Serif" font-size="10.00">std::array::at</text>
</a>
</g>
</g>
<!-- Node2&#45;&gt;Node3 -->
<g id="edge2_Node000002_Node000003" class="edge">
<title>Node2&#45;&gt;Node3</title>
<g id="a_edge2_Node000002_Node000003"><a xlink:title=" ">
<path fill="none" stroke="#63b8ff" d="M109.58,-115.83C126.79,-128.2 156.17,-149.31 176.73,-164.08"/>
<polygon fill="#63b8ff" stroke="#63b8ff" points="174.63,-166.88 184.79,-169.88 178.71,-161.2 174.63,-166.88"/>
</a>
</g>
</g>
<!-- Node4 -->
<g id="Node000004" class="node">
<title>Node4</title>
<g id="a_Node000004"><a target="_blank" xlink:href="http://en.cppreference.com/w/cpp/iterator/begin.html#" xlink:title=" ">
<polygon fill="white" stroke="#666666" points="362.12,-38.34 303.38,-38.34 303.38,-19.09 362.12,-19.09 362.12,-38.34"/>
<text text-anchor="middle" x="332.75" y="-24.84" font-family="Helvetica,sans-Serif" font-size="10.00">std::begin</text>
</a>
</g>
</g>
<!-- Node2&#45;&gt;Node4 -->
<g id="edge3_Node000002_Node000004" class="edge">
<title>Node2&#45;&gt;Node4</title>
<g id="a_edge3_Node000002_Node000004"><a xlink:title=" ">
<path fill="none" stroke="#63b8ff" d="M98.2,-95.68C104.12,-75.91 120.31,-32.34 152,-14.71 196.94,10.28 258.23,-2.57 296.37,-14.99"/>
<polygon fill="#63b8ff" stroke="#63b8ff" points="294.93,-18.19 305.52,-18.12 297.2,-11.57 294.93,-18.19"/>
</a>
</g>
</g>
<!-- Node5 -->
<g id="Node000005" class="node">
<title>Node5</title>
<g id="a_Node000005"><a target="_blank" xlink:href="http://en.cppreference.com/w/cpp/iterator/end.html#" xlink:title=" ">
<polygon fill="white" stroke="#666666" points="358.38,-150.34 307.12,-150.34 307.12,-131.09 358.38,-131.09 358.38,-150.34"/>
<text text-anchor="middle" x="332.75" y="-136.84" font-family="Helvetica,sans-Serif" font-size="10.00">std::end</text>
</a>
</g>
</g>
<!-- Node2&#45;&gt;Node5 -->
<g id="edge4_Node000002_Node000005" class="edge">
<title>Node2&#45;&gt;Node5</title>
<g id="a_edge4_Node000002_Node000005"><a xlink:title=" ">
<path fill="none" stroke="#63b8ff" d="M116.47,-108.82C156.82,-114.8 245.72,-127.97 295.74,-135.38"/>
<polygon fill="#63b8ff" stroke="#63b8ff" points="295.07,-138.82 305.48,-136.82 296.1,-131.89 295.07,-138.82"/>
</a>
</g>
</g>
<!-- Node6 -->
<g id="Node000006" class="node">
<title>Node6</title>
<g id="a_Node000006"><a target="_blank" xlink:href="http://en.cppreference.com/w/cpp/algorithm/is_sorted.html#" xlink:title=" ">
<polygon fill="white" stroke="#666666" points="238.5,-227.34 163.25,-227.34 163.25,-208.09 238.5,-208.09 238.5,-227.34"/>
<text text-anchor="middle" x="200.88" y="-213.84" font-family="Helvetica,sans-Serif" font-size="10.00">std::is_sorted</text>
</a>
</g>
</g>
<!-- Node2&#45;&gt;Node6 -->
<g id="edge5_Node000002_Node000006" class="edge">
<title>Node2&#45;&gt;Node6</title>
<g id="a_edge5_Node000002_Node000006"><a xlink:title=" ">
<path fill="none" stroke="#63b8ff" d="M108.44,-115.63C111.14,-118.09 113.83,-120.84 116,-123.71 138.51,-153.55 124.5,-174.4 152,-199.71 152.64,-200.3 153.29,-200.87 153.97,-201.42"/>
<polygon fill="#63b8ff" stroke="#63b8ff" points="152.02,-204.32 162.32,-206.78 155.8,-198.43 152.02,-204.32"/>
</a>
</g>
</g>
<!-- Node7 -->
<g id="Node000007" class="node">
<title>Node7</title>
<g id="a_Node000007"><a xlink:href="../../d5/d91/namespacesorting.html#a0e9e1b21a1684585e9e50f9afe4d53a3" target="_top" xlink:title=" ">
<polygon fill="white" stroke="#666666" points="249.75,-76.34 152,-76.34 152,-57.09 249.75,-57.09 249.75,-76.34"/>
<text text-anchor="middle" x="200.88" y="-62.84" font-family="Helvetica,sans-Serif" font-size="10.00">sorting::pigeonSort</text>
</a>
</g>
</g>
<!-- Node2&#45;&gt;Node7 -->
<g id="edge6_Node000002_Node000007" class="edge">
<title>Node2&#45;&gt;Node7</title>
<g id="a_edge6_Node000002_Node000007"><a xlink:title=" ">
<path fill="none" stroke="#63b8ff" d="M116.37,-97.91C129.62,-92.97 147.13,-86.42 162.7,-80.61"/>
<polygon fill="#63b8ff" stroke="#63b8ff" points="163.53,-84.03 171.67,-77.25 161.08,-77.47 163.53,-84.03"/>
</a>
</g>
</g>
<!-- Node7&#45;&gt;Node4 -->
<g id="edge7_Node000007_Node000004" class="edge">
<title>Node7&#45;&gt;Node4</title>
<g id="a_edge7_Node000007_Node000004"><a xlink:title=" ">
<path fill="none" stroke="#63b8ff" d="M236.34,-56.63C253.56,-51.59 274.47,-45.47 292.33,-40.25"/>
<polygon fill="#63b8ff" stroke="#63b8ff" points="293.2,-43.64 301.82,-37.47 291.24,-36.92 293.2,-43.64"/>
</a>
</g>
</g>
<!-- Node7&#45;&gt;Node5 -->
<g id="edge8_Node000007_Node000005" class="edge">
<title>Node7&#45;&gt;Node5</title>
<g id="a_edge8_Node000007_Node000005"><a xlink:title=" ">
<path fill="none" stroke="#63b8ff" d="M224.44,-76.61C232.65,-80.58 241.86,-85.45 249.75,-90.71 267.32,-102.42 267.76,-110.65 285.75,-121.71 289.09,-123.77 292.69,-125.69 296.36,-127.46"/>
<polygon fill="#63b8ff" stroke="#63b8ff" points="294.74,-130.58 305.3,-131.44 297.59,-124.18 294.74,-130.58"/>
</a>
</g>
</g>
<!-- Node8 -->
<g id="Node000008" class="node">
<title>Node8</title>
<g id="a_Node000008"><a target="_blank" xlink:href="http://en.cppreference.com/w/cpp/algorithm/max_element.html#" xlink:title=" ">
<polygon fill="white" stroke="#666666" points="379.75,-112.34 285.75,-112.34 285.75,-93.09 379.75,-93.09 379.75,-112.34"/>
<text text-anchor="middle" x="332.75" y="-98.84" font-family="Helvetica,sans-Serif" font-size="10.00">std::max_element</text>
</a>
</g>
</g>
<!-- Node7&#45;&gt;Node8 -->
<g id="edge9_Node000007_Node000008" class="edge">
<title>Node7&#45;&gt;Node8</title>
<g id="a_edge9_Node000007_Node000008"><a xlink:title=" ">
<path fill="none" stroke="#63b8ff" d="M238.4,-76.84C252.77,-80.82 269.45,-85.44 284.7,-89.67"/>
<polygon fill="#63b8ff" stroke="#63b8ff" points="283.47,-92.96 294.04,-92.26 285.34,-86.22 283.47,-92.96"/>
</a>
</g>
</g>
<!-- Node9 -->
<g id="Node000009" class="node">
<title>Node9</title>
<g id="a_Node000009"><a target="_blank" xlink:href="http://en.cppreference.com/w/cpp/algorithm/min_element.html#" xlink:title=" ">
<polygon fill="white" stroke="#666666" points="378.25,-75.34 287.25,-75.34 287.25,-56.09 378.25,-56.09 378.25,-75.34"/>
<text text-anchor="middle" x="332.75" y="-61.84" font-family="Helvetica,sans-Serif" font-size="10.00">std::min_element</text>
</a>
</g>
</g>
<!-- Node7&#45;&gt;Node9 -->
<g id="edge10_Node000007_Node000009" class="edge">
<title>Node7&#45;&gt;Node9</title>
<g id="a_edge10_Node000007_Node000009"><a xlink:title=" ">
<path fill="none" stroke="#63b8ff" d="M250.24,-66.34C258.47,-66.28 267.08,-66.21 275.49,-66.15"/>
<polygon fill="#63b8ff" stroke="#63b8ff" points="275.3,-69.65 285.27,-66.07 275.25,-62.65 275.3,-69.65"/>
</a>
</g>
</g>
<!-- Node10&#45;&gt;Node3 -->
<g id="edge12_Node000010_Node000003" class="edge">
<title>Node10&#45;&gt;Node3</title>
<g id="a_edge12_Node000010_Node000003"><a xlink:title=" ">
<path fill="none" stroke="#63b8ff" d="M116.37,-150.31C129.3,-155.02 146.29,-161.2 161.57,-166.77"/>
<polygon fill="#63b8ff" stroke="#63b8ff" points="160.29,-170.03 170.89,-170.16 162.69,-163.45 160.29,-170.03"/>
</a>
</g>
</g>
<!-- Node10&#45;&gt;Node4 -->
<g id="edge13_Node000010_Node000004" class="edge">
<title>Node10&#45;&gt;Node4</title>
<g id="a_edge13_Node000010_Node000004"><a xlink:title=" ">
<path fill="none" stroke="#63b8ff" d="M108.45,-132.8C111.15,-130.35 113.84,-127.59 116,-124.71 138.68,-94.5 121.24,-69.64 152,-47.71 192.73,-18.68 252.42,-18.43 291.67,-22.38"/>
<polygon fill="#63b8ff" stroke="#63b8ff" points="291.07,-25.84 301.41,-23.51 291.87,-18.88 291.07,-25.84"/>
</a>
</g>
</g>
<!-- Node10&#45;&gt;Node5 -->
<g id="edge14_Node000010_Node000005" class="edge">
<title>Node10&#45;&gt;Node5</title>
<g id="a_edge14_Node000010_Node000005"><a xlink:title=" ">
<path fill="none" stroke="#63b8ff" d="M116.47,-142.54C156.82,-142.19 245.72,-141.44 295.74,-141.02"/>
<polygon fill="#63b8ff" stroke="#63b8ff" points="295.49,-144.52 305.46,-140.94 295.43,-137.52 295.49,-144.52"/>
</a>
</g>
</g>
<!-- Node10&#45;&gt;Node6 -->
<g id="edge15_Node000010_Node000006" class="edge">
<title>Node10&#45;&gt;Node6</title>
<g id="a_edge15_Node000010_Node000006"><a xlink:title=" ">
<path fill="none" stroke="#63b8ff" d="M102.91,-152.45C112.86,-164.94 131.65,-186.53 152,-199.71 153.61,-200.76 155.3,-201.76 157.03,-202.71"/>
<polygon fill="#63b8ff" stroke="#63b8ff" points="155.38,-205.8 165.91,-206.98 158.42,-199.49 155.38,-205.8"/>
</a>
</g>
</g>
<!-- Node10&#45;&gt;Node7 -->
<g id="edge16_Node000010_Node000007" class="edge">
<title>Node10&#45;&gt;Node7</title>
<g id="a_edge16_Node000010_Node000007"><a xlink:title=" ">
<path fill="none" stroke="#63b8ff" d="M109.15,-132.78C126.41,-120.2 156.4,-98.37 177.15,-83.26"/>
<polygon fill="#63b8ff" stroke="#63b8ff" points="178.98,-86.26 185,-77.54 174.86,-80.6 178.98,-86.26"/>
</a>
</g>
</g>
<!-- Node11&#45;&gt;Node3 -->
<g id="edge18_Node000011_Node000003" class="edge">
<title>Node11&#45;&gt;Node3</title>
<g id="a_edge18_Node000011_Node000003"><a xlink:title=" ">
<path fill="none" stroke="#63b8ff" d="M116.37,-195.11C127.05,-193.27 140.49,-190.95 153.46,-188.72"/>
<polygon fill="#63b8ff" stroke="#63b8ff" points="153.9,-192.19 163.16,-187.04 152.71,-185.3 153.9,-192.19"/>
</a>
</g>
</g>
<!-- Node11&#45;&gt;Node4 -->
<g id="edge19_Node000011_Node000004" class="edge">
<title>Node11&#45;&gt;Node4</title>
<g id="a_edge19_Node000011_Node000004"><a xlink:title=" ">
<path fill="none" stroke="#63b8ff" d="M106.15,-208.76C116.8,-218.07 134.14,-231.26 152,-236.71 193.55,-249.39 216.29,-264.43 249.75,-236.71 315.94,-181.89 230.87,-112.86 285.75,-46.71 287.85,-44.18 290.36,-42 293.11,-40.12"/>
<polygon fill="#63b8ff" stroke="#63b8ff" points="294.55,-43.32 301.77,-35.56 291.29,-37.12 294.55,-43.32"/>
</a>
</g>
</g>
<!-- Node11&#45;&gt;Node5 -->
<g id="edge20_Node000011_Node000005" class="edge">
<title>Node11&#45;&gt;Node5</title>
<g id="a_edge20_Node000011_Node000005"><a xlink:title=" ">
<path fill="none" stroke="#63b8ff" d="M99.82,-208.62C107.55,-224.93 125.47,-256.92 152,-269.71 191.13,-288.58 211.67,-290.63 249.75,-269.71 291.86,-246.58 315.42,-191.64 325.61,-161.46"/>
<polygon fill="#63b8ff" stroke="#63b8ff" points="328.93,-162.57 328.61,-151.98 322.25,-160.46 328.93,-162.57"/>
</a>
</g>
</g>
<!-- Node11&#45;&gt;Node6 -->
<g id="edge21_Node000011_Node000006" class="edge">
<title>Node11&#45;&gt;Node6</title>
<g id="a_edge21_Node000011_Node000006"><a xlink:title=" ">
<path fill="none" stroke="#63b8ff" d="M116.37,-202.51C126.57,-204.37 139.31,-206.69 151.74,-208.95"/>
<polygon fill="#63b8ff" stroke="#63b8ff" points="151.03,-212.38 161.5,-210.73 152.28,-205.49 151.03,-212.38"/>
</a>
</g>
</g>
<!-- Node11&#45;&gt;Node7 -->
<g id="edge22_Node000011_Node000007" class="edge">
<title>Node11&#45;&gt;Node7</title>
<g id="a_edge22_Node000011_Node000007"><a xlink:title=" ">
<path fill="none" stroke="#63b8ff" d="M103.35,-188.79C120.65,-166.91 162.33,-114.19 184.85,-85.72"/>
<polygon fill="#63b8ff" stroke="#63b8ff" points="187.54,-87.95 191,-77.94 182.05,-83.61 187.54,-87.95"/>
</a>
</g>
</g>
</g>
</svg>
</svg>

<style type='text/css'>
<![CDATA[
[data-mouse-over-selected='false'] { opacity: 0.7; }
[data-mouse-over-selected='true']  { opacity: 1.0; }
]]>
</style>
<script type="application/ecmascript"><![CDATA[
document.addEventListener('DOMContentLoaded', (event) => {
  highlightEdges();
  highlightAdjacentNodes();
});
]]></script>
</svg>
