<?xml version="1.0" encoding="UTF-8" standalone="no"?>
<!DOCTYPE svg PUBLIC "-//W3C//DTD SVG 1.1//EN"
 "http://www.w3.org/Graphics/SVG/1.1/DTD/svg11.dtd">
<!-- Generated by graphviz version 9.0.0 (20230911.1827)
 -->
<!-- Title: main Pages: 1 -->
<svg width="235pt" height="138pt"
 viewBox="0.00 0.00 235.25 138.25" xmlns="http://www.w3.org/2000/svg" xmlns:xlink="http://www.w3.org/1999/xlink">

<svg id="main" version="1.1" xmlns="http://www.w3.org/2000/svg" xmlns:xlink="http://www.w3.org/1999/xlink" xml:space="preserve" onload="init(evt)">
<style type="text/css"><![CDATA[
.node, .edge {opacity: 0.7;}
.node.selected, .edge.selected {opacity: 1;}
.edge:hover path { stroke: red; }
.edge:hover polygon { stroke: red; fill: red; }
]]></style>
<script type="application/ecmascript" xlink:href="../../svg.min.js"/>
<svg id="graph" class="graph">
<g id="graph0" class="graph" transform="scale(1 1) rotate(0) translate(4 134.25)">
<title>main</title>
<!-- Node1 -->
<g id="Node000001" class="node">
<title>Node1</title>
<g id="a_Node000001"><a xlink:title=" ">
<polygon fill="#999999" stroke="#666666" points="37,-74.25 0,-74.25 0,-55 37,-55 37,-74.25"/>
<text text-anchor="middle" x="18.5" y="-60.75" font-family="Helvetica,sans-Serif" font-size="10.00">main</text>
</a>
</g>
</g>
<!-- Node2 -->
<g id="Node000002" class="node">
<title>Node2</title>
<g id="a_Node000002"><a xlink:href="../../dd/da8/pigeonhole__sort_8cpp.html#a34b8683a2b429de5cce57e6d733ec817" target="_top" xlink:title=" ">
<polygon fill="white" stroke="#666666" points="116,-111.25 73,-111.25 73,-92 116,-92 116,-111.25"/>
<text text-anchor="middle" x="94.5" y="-97.75" font-family="Helvetica,sans-Serif" font-size="10.00">test_1</text>
</a>
</g>
</g>
<!-- Node1&#45;&gt;Node2 -->
<g id="edge1_Node000001_Node000002" class="edge">
<title>Node1&#45;&gt;Node2</title>
<g id="a_edge1_Node000001_Node000002"><a xlink:title=" ">
<path fill="none" stroke="#63b8ff" d="M37.41,-73.58C45.14,-77.44 54.39,-82.07 63.13,-86.44"/>
<polygon fill="#63b8ff" stroke="#63b8ff" points="61.54,-89.56 72.05,-90.9 64.67,-83.3 61.54,-89.56"/>
</a>
</g>
</g>
<!-- Node7 -->
<g id="Node000007" class="node">
<title>Node7</title>
<g id="a_Node000007"><a xlink:href="../../dd/da8/pigeonhole__sort_8cpp.html#a458410412185a5f09199deaff7157a8d" target="_top" xlink:title=" ">
<polygon fill="white" stroke="#666666" points="116,-74.25 73,-74.25 73,-55 116,-55 116,-74.25"/>
<text text-anchor="middle" x="94.5" y="-60.75" font-family="Helvetica,sans-Serif" font-size="10.00">test_2</text>
</a>
</g>
</g>
<!-- Node1&#45;&gt;Node7 -->
<g id="edge6_Node000001_Node000007" class="edge">
<title>Node1&#45;&gt;Node7</title>
<g id="a_edge6_Node000001_Node000007"><a xlink:title=" ">
<path fill="none" stroke="#63b8ff" d="M37.41,-64.62C44.54,-64.62 52.97,-64.62 61.1,-64.62"/>
<polygon fill="#63b8ff" stroke="#63b8ff" points="61.09,-68.13 71.09,-64.63 61.09,-61.13 61.09,-68.13"/>
</a>
</g>
</g>
<!-- Node8 -->
<g id="Node000008" class="node">
<title>Node8</title>
<g id="a_Node000008"><a xlink:href="../../dd/da8/pigeonhole__sort_8cpp.html#af31ec5409537703d9c8a47350386b32a" target="_top" xlink:title=" ">
<polygon fill="white" stroke="#666666" points="116,-37.25 73,-37.25 73,-18 116,-18 116,-37.25"/>
<text text-anchor="middle" x="94.5" y="-23.75" font-family="Helvetica,sans-Serif" font-size="10.00">test_3</text>
</a>
</g>
</g>
<!-- Node1&#45;&gt;Node8 -->
<g id="edge11_Node000001_Node000008" class="edge">
<title>Node1&#45;&gt;Node8</title>
<g id="a_edge11_Node000001_Node000008"><a xlink:title=" ">
<path fill="none" stroke="#63b8ff" d="M37.41,-55.67C45.14,-51.81 54.39,-47.18 63.13,-42.81"/>
<polygon fill="#63b8ff" stroke="#63b8ff" points="64.67,-45.95 72.05,-38.35 61.54,-39.69 64.67,-45.95"/>
</a>
</g>
</g>
<!-- Node3 -->
<g id="Node000003" class="node">
<title>Node3</title>
<g id="a_Node000003"><a target="_blank" xlink:href="http://en.cppreference.com/w/cpp/container/array/at.html#" xlink:title=" ">
<polygon fill="white" stroke="#666666" points="225.38,-56.25 153.88,-56.25 153.88,-37 225.38,-37 225.38,-56.25"/>
<text text-anchor="middle" x="189.62" y="-42.75" font-family="Helvetica,sans-Serif" font-size="10.00">std::array::at</text>
</a>
</g>
</g>
<!-- Node2&#45;&gt;Node3 -->
<g id="edge2_Node000002_Node000003" class="edge">
<title>Node2&#45;&gt;Node3</title>
<g id="a_edge2_Node000002_Node000003"><a xlink:title=" ">
<path fill="none" stroke="#63b8ff" d="M109.59,-91.7C120.84,-83.95 137.13,-73.11 152,-64.62 153.65,-63.68 155.36,-62.74 157.09,-61.81"/>
<polygon fill="#63b8ff" stroke="#63b8ff" points="158.46,-65.04 165.75,-57.35 155.25,-58.82 158.46,-65.04"/>
</a>
</g>
</g>
<!-- Node4 -->
<g id="Node000004" class="node">
<title>Node4</title>
<g id="a_Node000004"><a target="_blank" xlink:href="http://en.cppreference.com/w/cpp/iterator/begin.html#" xlink:title=" ">
<polygon fill="white" stroke="#666666" points="219,-19.25 160.25,-19.25 160.25,0 219,0 219,-19.25"/>
<text text-anchor="middle" x="189.62" y="-5.75" font-family="Helvetica,sans-Serif" font-size="10.00">std::begin</text>
</a>
</g>
</g>
<!-- Node2&#45;&gt;Node4 -->
<g id="edge3_Node000002_Node000004" class="edge">
<title>Node2&#45;&gt;Node4</title>
<g id="a_edge3_Node000002_Node000004"><a xlink:title=" ">
<path fill="none" stroke="#63b8ff" d="M107.74,-91.87C110.6,-89.33 113.53,-86.5 116,-83.62 135.3,-61.2 129.91,-47.32 152,-27.62 152.63,-27.06 153.29,-26.51 153.96,-25.97"/>
<polygon fill="#63b8ff" stroke="#63b8ff" points="155.75,-28.98 162.17,-20.55 151.9,-23.14 155.75,-28.98"/>
</a>
</g>
</g>
<!-- Node5 -->
<g id="Node000005" class="node">
<title>Node5</title>
<g id="a_Node000005"><a target="_blank" xlink:href="http://en.cppreference.com/w/cpp/iterator/end.html#" xlink:title=" ">
<polygon fill="white" stroke="#666666" points="215.25,-130.25 164,-130.25 164,-111 215.25,-111 215.25,-130.25"/>
<text text-anchor="middle" x="189.62" y="-116.75" font-family="Helvetica,sans-Serif" font-size="10.00">std::end</text>
</a>
</g>
</g>
<!-- Node2&#45;&gt;Node5 -->
<g id="edge4_Node000002_Node000005" class="edge">
<title>Node2&#45;&gt;Node5</title>
<g id="a_edge4_Node000002_Node000005"><a xlink:title=" ">
<path fill="none" stroke="#63b8ff" d="M116.17,-105.84C126.92,-108.03 140.36,-110.78 152.75,-113.3"/>
<polygon fill="#63b8ff" stroke="#63b8ff" points="151.73,-116.67 162.23,-115.24 153.13,-109.81 151.73,-116.67"/>
</a>
</g>
</g>
<!-- Node6 -->
<g id="Node000006" class="node">
<title>Node6</title>
<g id="a_Node000006"><a target="_blank" xlink:href="http://en.cppreference.com/w/cpp/algorithm/is_sorted.html#" xlink:title=" ">
<polygon fill="white" stroke="#666666" points="227.25,-93.25 152,-93.25 152,-74 227.25,-74 227.25,-93.25"/>
<text text-anchor="middle" x="189.62" y="-79.75" font-family="Helvetica,sans-Serif" font-size="10.00">std::is_sorted</text>
</a>
</g>
</g>
<!-- Node2&#45;&gt;Node6 -->
<g id="edge5_Node000002_Node000006" class="edge">
<title>Node2&#45;&gt;Node6</title>
<g id="a_edge5_Node000002_Node000006"><a xlink:title=" ">
<path fill="none" stroke="#63b8ff" d="M116.17,-97.63C123.4,-96.23 131.84,-94.6 140.37,-92.95"/>
<polygon fill="#63b8ff" stroke="#63b8ff" points="140.88,-96.42 150.04,-91.08 139.55,-89.55 140.88,-96.42"/>
</a>
</g>
</g>
<!-- Node7&#45;&gt;Node3 -->
<g id="edge7_Node000007_Node000003" class="edge">
<title>Node7&#45;&gt;Node3</title>
<g id="a_edge7_Node000007_Node000003"><a xlink:title=" ">
<path fill="none" stroke="#63b8ff" d="M116.17,-60.63C123.94,-59.13 133.12,-57.35 142.29,-55.58"/>
<polygon fill="#63b8ff" stroke="#63b8ff" points="142.74,-59.06 151.89,-53.73 141.41,-52.19 142.74,-59.06"/>
</a>
</g>
</g>
<!-- Node7&#45;&gt;Node4 -->
<g id="edge8_Node000007_Node000004" class="edge">
<title>Node7&#45;&gt;Node4</title>
<g id="a_edge8_Node000007_Node000004"><a xlink:title=" ">
<path fill="none" stroke="#63b8ff" d="M109.59,-54.7C120.84,-46.95 137.13,-36.11 152,-27.62 153.65,-26.68 155.36,-25.74 157.09,-24.81"/>
<polygon fill="#63b8ff" stroke="#63b8ff" points="158.46,-28.04 165.75,-20.35 155.25,-21.82 158.46,-28.04"/>
</a>
</g>
</g>
<!-- Node7&#45;&gt;Node5 -->
<g id="edge9_Node000007_Node000005" class="edge">
<title>Node7&#45;&gt;Node5</title>
<g id="a_edge9_Node000007_Node000005"><a xlink:title=" ">
<path fill="none" stroke="#63b8ff" d="M109.1,-74.53C120.34,-82.53 136.86,-93.86 152,-102.62 153.64,-103.58 155.35,-104.53 157.07,-105.46"/>
<polygon fill="#63b8ff" stroke="#63b8ff" points="155.23,-108.45 165.72,-109.94 158.45,-102.23 155.23,-108.45"/>
</a>
</g>
</g>
<!-- Node7&#45;&gt;Node6 -->
<g id="edge10_Node000007_Node000006" class="edge">
<title>Node7&#45;&gt;Node6</title>
<g id="a_edge10_Node000007_Node000006"><a xlink:title=" ">
<path fill="none" stroke="#63b8ff" d="M116.17,-68.84C123.4,-70.32 131.84,-72.04 140.37,-73.78"/>
<polygon fill="#63b8ff" stroke="#63b8ff" points="139.54,-77.18 150.04,-75.75 140.94,-70.32 139.54,-77.18"/>
</a>
</g>
</g>
<!-- Node8&#45;&gt;Node3 -->
<g id="edge12_Node000008_Node000003" class="edge">
<title>Node8&#45;&gt;Node3</title>
<g id="a_edge12_Node000008_Node000003"><a xlink:title=" ">
<path fill="none" stroke="#63b8ff" d="M116.17,-31.84C123.94,-33.43 133.12,-35.3 142.29,-37.17"/>
<polygon fill="#63b8ff" stroke="#63b8ff" points="141.4,-40.56 151.89,-39.13 142.8,-33.7 141.4,-40.56"/>
</a>
</g>
</g>
<!-- Node8&#45;&gt;Node4 -->
<g id="edge13_Node000008_Node000004" class="edge">
<title>Node8&#45;&gt;Node4</title>
<g id="a_edge13_Node000008_Node000004"><a xlink:title=" ">
<path fill="none" stroke="#63b8ff" d="M116.17,-23.63C125.81,-21.77 137.63,-19.48 148.9,-17.3"/>
<polygon fill="#63b8ff" stroke="#63b8ff" points="149.25,-20.8 158.41,-15.47 147.92,-13.93 149.25,-20.8"/>
</a>
</g>
</g>
<!-- Node8&#45;&gt;Node5 -->
<g id="edge14_Node000008_Node000005" class="edge">
<title>Node8&#45;&gt;Node5</title>
<g id="a_edge14_Node000008_Node000005"><a xlink:title=" ">
<path fill="none" stroke="#63b8ff" d="M108.19,-37.75C110.91,-40.19 113.66,-42.89 116,-45.62 135.46,-68.41 129.72,-82.6 152,-102.62 152.76,-103.31 153.55,-103.97 154.37,-104.62"/>
<polygon fill="#63b8ff" stroke="#63b8ff" points="152.24,-107.41 162.53,-109.94 156.06,-101.54 152.24,-107.41"/>
</a>
</g>
</g>
<!-- Node8&#45;&gt;Node6 -->
<g id="edge15_Node000008_Node000006" class="edge">
<title>Node8&#45;&gt;Node6</title>
<g id="a_edge15_Node000008_Node000006"><a xlink:title=" ">
<path fill="none" stroke="#63b8ff" d="M109.1,-37.53C120.34,-45.53 136.86,-56.86 152,-65.62 153.64,-66.58 155.35,-67.53 157.07,-68.46"/>
<polygon fill="#63b8ff" stroke="#63b8ff" points="155.23,-71.45 165.72,-72.94 158.45,-65.23 155.23,-71.45"/>
</a>
</g>
</g>
</g>
</svg>
</svg>

<style type='text/css'>
<![CDATA[
[data-mouse-over-selected='false'] { opacity: 0.7; }
[data-mouse-over-selected='true']  { opacity: 1.0; }
]]>
</style>
<script type="application/ecmascript"><![CDATA[
document.addEventListener('DOMContentLoaded', (event) => {
  highlightEdges();
  highlightAdjacentNodes();
});
]]></script>
</svg>
