<?xml version="1.0" encoding="UTF-8" standalone="no"?>
<!DOCTYPE svg PUBLIC "-//W3C//DTD SVG 1.1//EN"
 "http://www.w3.org/Graphics/SVG/1.1/DTD/svg11.dtd">
<!-- Generated by graphviz version 2.48.0 (20210717.1556)
 -->
<!-- Title: test Pages: 1 -->
<svg width="582pt" height="676pt"
 viewBox="0.00 0.00 582.00 675.51" xmlns="http://www.w3.org/2000/svg" xmlns:xlink="http://www.w3.org/1999/xlink">
<g id="graph0" class="graph" transform="scale(1 1) rotate(0) translate(4 671.51)">
<title>test</title>
<polygon fill="white" stroke="transparent" points="-4,4 -4,-671.51 578,-671.51 578,4 -4,4"/>
<!-- Node1 -->
<g id="node1" class="node">
<title>Node1</title>
<g id="a_node1"><a xlink:title=" ">
<polygon fill="#bfbfbf" stroke="black" points="0,-444.5 0,-463.5 33,-463.5 33,-444.5 0,-444.5"/>
<text text-anchor="middle" x="16.5" y="-451.5" font-family="Helvetica,sans-Serif" font-size="10.00">test</text>
</a>
</g>
</g>
<!-- Node2 -->
<g id="node2" class="node">
<title>Node2</title>
<g id="a_node2"><a target="_blank" xlink:href="http://en.cppreference.com/w/cpp/io/manip/endl.html#" xlink:title=" ">
<polygon fill="white" stroke="black" points="69,-501.5 69,-520.5 123,-520.5 123,-501.5 69,-501.5"/>
<text text-anchor="middle" x="96" y="-508.5" font-family="Helvetica,sans-Serif" font-size="10.00">std::endl</text>
</a>
</g>
</g>
<!-- Node1&#45;&gt;Node2 -->
<g id="edge1" class="edge">
<title>Node1&#45;&gt;Node2</title>
<path fill="none" stroke="midnightblue" d="M30.61,-463.7C41.01,-471.39 55.92,-482.4 69,-492 70.43,-493.05 71.89,-494.12 73.38,-495.21"/>
<polygon fill="midnightblue" stroke="midnightblue" points="71.63,-498.27 81.76,-501.35 75.76,-492.62 71.63,-498.27"/>
</g>
<!-- Node3 -->
<g id="node3" class="node">
<title>Node3</title>
<g id="a_node3"><a xlink:href="../../d2/de9/heavy__light__decomposition_8cpp.html#a34b8683a2b429de5cce57e6d733ec817" target="_top" xlink:title=" ">
<polygon fill="white" stroke="black" points="74,-352.5 74,-371.5 118,-371.5 118,-352.5 74,-352.5"/>
<text text-anchor="middle" x="96" y="-359.5" font-family="Helvetica,sans-Serif" font-size="10.00">test_1</text>
</a>
</g>
</g>
<!-- Node1&#45;&gt;Node3 -->
<g id="edge2" class="edge">
<title>Node1&#45;&gt;Node3</title>
<path fill="none" stroke="midnightblue" d="M25.79,-444.15C38.79,-428.73 64.12,-398.65 80.27,-379.48"/>
<polygon fill="midnightblue" stroke="midnightblue" points="83,-381.68 86.77,-371.77 77.65,-377.17 83,-381.68"/>
</g>
<!-- Node23 -->
<g id="node23" class="node">
<title>Node23</title>
<g id="a_node23"><a xlink:href="../../d2/de9/heavy__light__decomposition_8cpp.html#a458410412185a5f09199deaff7157a8d" target="_top" xlink:title=" ">
<polygon fill="white" stroke="black" points="74,-463.5 74,-482.5 118,-482.5 118,-463.5 74,-463.5"/>
<text text-anchor="middle" x="96" y="-470.5" font-family="Helvetica,sans-Serif" font-size="10.00">test_2</text>
</a>
</g>
</g>
<!-- Node1&#45;&gt;Node23 -->
<g id="edge25" class="edge">
<title>Node1&#45;&gt;Node23</title>
<path fill="none" stroke="midnightblue" d="M33.18,-457.84C42.03,-460.01 53.4,-462.8 63.98,-465.39"/>
<polygon fill="midnightblue" stroke="midnightblue" points="63.21,-468.81 73.76,-467.79 64.88,-462.01 63.21,-468.81"/>
</g>
<!-- Node24 -->
<g id="node24" class="node">
<title>Node24</title>
<g id="a_node24"><a xlink:href="../../d2/de9/heavy__light__decomposition_8cpp.html#af31ec5409537703d9c8a47350386b32a" target="_top" xlink:title=" ">
<polygon fill="white" stroke="black" points="74,-425.5 74,-444.5 118,-444.5 118,-425.5 74,-425.5"/>
<text text-anchor="middle" x="96" y="-432.5" font-family="Helvetica,sans-Serif" font-size="10.00">test_3</text>
</a>
</g>
</g>
<!-- Node1&#45;&gt;Node24 -->
<g id="edge33" class="edge">
<title>Node1&#45;&gt;Node24</title>
<path fill="none" stroke="midnightblue" d="M33.18,-450.16C42.03,-447.99 53.4,-445.2 63.98,-442.61"/>
<polygon fill="midnightblue" stroke="midnightblue" points="64.88,-445.99 73.76,-440.21 63.21,-439.19 64.88,-445.99"/>
</g>
<!-- Node4 -->
<g id="node4" class="node">
<title>Node4</title>
<g id="a_node4"><a xlink:href="../../d1/d51/classrange__queries_1_1heavy__light__decomposition_1_1_tree.html#a79ab4601c4a95c0902ac04e779e5f54d" target="_top" xlink:title="Adds an undirected edge from node u to node v in the tree.">
<polygon fill="white" stroke="black" points="159,-365.5 159,-406.5 272,-406.5 272,-365.5 159,-365.5"/>
<text text-anchor="start" x="167" y="-394.5" font-family="Helvetica,sans-Serif" font-size="10.00">range_queries::heavy</text>
<text text-anchor="start" x="167" y="-383.5" font-family="Helvetica,sans-Serif" font-size="10.00">_light_decomposition</text>
<text text-anchor="middle" x="215.5" y="-372.5" font-family="Helvetica,sans-Serif" font-size="10.00">::Tree::add_edge</text>
</a>
</g>
</g>
<!-- Node3&#45;&gt;Node4 -->
<g id="edge3" class="edge">
<title>Node3&#45;&gt;Node4</title>
<path fill="none" stroke="midnightblue" d="M118.01,-366.29C126.89,-368.11 137.77,-370.33 148.98,-372.62"/>
<polygon fill="midnightblue" stroke="midnightblue" points="148.38,-376.07 158.88,-374.64 149.78,-369.21 148.38,-376.07"/>
</g>
<!-- Node5 -->
<g id="node5" class="node">
<title>Node5</title>
<g id="a_node5"><a target="_blank" xlink:href="http://en.cppreference.com/w/cpp/container/vector/push_back.html#" xlink:title=" ">
<polygon fill="white" stroke="black" points="308,-411.5 308,-430.5 425,-430.5 425,-411.5 308,-411.5"/>
<text text-anchor="middle" x="366.5" y="-418.5" font-family="Helvetica,sans-Serif" font-size="10.00">std::vector::push_back</text>
</a>
</g>
</g>
<!-- Node3&#45;&gt;Node5 -->
<g id="edge13" class="edge">
<title>Node3&#45;&gt;Node5</title>
<path fill="none" stroke="midnightblue" d="M99.35,-352.23C105.17,-330.56 122.45,-278.77 159,-258 202.67,-233.19 232.06,-227.55 272,-258 320.02,-294.6 270.71,-341.51 308,-389 313.69,-396.25 321.5,-402.1 329.53,-406.73"/>
<polygon fill="midnightblue" stroke="midnightblue" points="328.1,-409.93 338.59,-411.43 331.33,-403.72 328.1,-409.93"/>
</g>
<!-- Node6 -->
<g id="node6" class="node">
<title>Node6</title>
<g id="a_node6"><a xlink:href="../../d2/d8a/classrange__queries_1_1heavy__light__decomposition_1_1_h_l_d.html#ae9e979edd69678b85665c01e2ee97828" target="_top" xlink:title="This function must be called after the tree adjacency list and node values are populated The function...">
<polygon fill="white" stroke="black" points="159,-169.5 159,-210.5 272,-210.5 272,-169.5 159,-169.5"/>
<text text-anchor="start" x="167" y="-198.5" font-family="Helvetica,sans-Serif" font-size="10.00">range_queries::heavy</text>
<text text-anchor="start" x="167" y="-187.5" font-family="Helvetica,sans-Serif" font-size="10.00">_light_decomposition</text>
<text text-anchor="middle" x="215.5" y="-176.5" font-family="Helvetica,sans-Serif" font-size="10.00">::HLD::init</text>
</a>
</g>
</g>
<!-- Node3&#45;&gt;Node6 -->
<g id="edge5" class="edge">
<title>Node3&#45;&gt;Node6</title>
<path fill="none" stroke="midnightblue" d="M99.31,-352.31C105.42,-328.31 124.02,-265.16 159,-225 161.46,-222.17 164.21,-219.49 167.13,-216.97"/>
<polygon fill="midnightblue" stroke="midnightblue" points="169.47,-219.58 175.18,-210.66 165.15,-214.07 169.47,-219.58"/>
</g>
<!-- Node14 -->
<g id="node14" class="node">
<title>Node14</title>
<g id="a_node14"><a xlink:href="../../d2/d8a/classrange__queries_1_1heavy__light__decomposition_1_1_h_l_d.html#a4dfbf5d9df825eeb63b294c6849bdcab" target="_top" xlink:title="This function returns the sum of node values in the simple path from from node_1 to node_2.">
<polygon fill="white" stroke="black" points="159,-267.5 159,-308.5 272,-308.5 272,-267.5 159,-267.5"/>
<text text-anchor="start" x="167" y="-296.5" font-family="Helvetica,sans-Serif" font-size="10.00">range_queries::heavy</text>
<text text-anchor="start" x="167" y="-285.5" font-family="Helvetica,sans-Serif" font-size="10.00">_light_decomposition</text>
<text text-anchor="middle" x="215.5" y="-274.5" font-family="Helvetica,sans-Serif" font-size="10.00">::HLD::query</text>
</a>
</g>
</g>
<!-- Node3&#45;&gt;Node14 -->
<g id="edge14" class="edge">
<title>Node3&#45;&gt;Node14</title>
<path fill="none" stroke="midnightblue" d="M112.36,-352.33C127.78,-342.62 152.2,-327.23 173.3,-313.94"/>
<polygon fill="midnightblue" stroke="midnightblue" points="175.21,-316.88 181.8,-308.59 171.48,-310.96 175.21,-316.88"/>
</g>
<!-- Node19 -->
<g id="node19" class="node">
<title>Node19</title>
<g id="a_node19"><a xlink:href="../../d1/d51/classrange__queries_1_1heavy__light__decomposition_1_1_tree.html#a04cd96efaba147b19d3afc769b90ff70" target="_top" xlink:title="Set the values for all the nodes.">
<polygon fill="white" stroke="black" points="159,-463.5 159,-504.5 272,-504.5 272,-463.5 159,-463.5"/>
<text text-anchor="start" x="167" y="-492.5" font-family="Helvetica,sans-Serif" font-size="10.00">range_queries::heavy</text>
<text text-anchor="start" x="167" y="-481.5" font-family="Helvetica,sans-Serif" font-size="10.00">_light_decomposition</text>
<text text-anchor="middle" x="215.5" y="-470.5" font-family="Helvetica,sans-Serif" font-size="10.00">::Tree::set_node_val</text>
</a>
</g>
</g>
<!-- Node3&#45;&gt;Node19 -->
<g id="edge20" class="edge">
<title>Node3&#45;&gt;Node19</title>
<path fill="none" stroke="midnightblue" d="M106.22,-371.57C123.53,-389.54 161.48,-428.95 187.52,-455.99"/>
<polygon fill="midnightblue" stroke="midnightblue" points="185.07,-458.49 194.53,-463.26 190.11,-453.63 185.07,-458.49"/>
</g>
<!-- Node20 -->
<g id="node20" class="node">
<title>Node20</title>
<g id="a_node20"><a target="_blank" xlink:href="http://en.cppreference.com/w/cpp/container/vector/size.html#" xlink:title=" ">
<polygon fill="white" stroke="black" points="323.5,-498.5 323.5,-517.5 409.5,-517.5 409.5,-498.5 323.5,-498.5"/>
<text text-anchor="middle" x="366.5" y="-505.5" font-family="Helvetica,sans-Serif" font-size="10.00">std::vector::size</text>
</a>
</g>
</g>
<!-- Node3&#45;&gt;Node20 -->
<g id="edge22" class="edge">
<title>Node3&#45;&gt;Node20</title>
<path fill="none" stroke="midnightblue" d="M118.23,-354.01C153.42,-342.24 224.67,-324.79 272,-356 305.91,-378.36 286.65,-405.45 308,-440 319.57,-458.73 336.07,-477.67 348.43,-490.79"/>
<polygon fill="midnightblue" stroke="midnightblue" points="346.05,-493.37 355.5,-498.15 351.1,-488.51 346.05,-493.37"/>
</g>
<!-- Node21 -->
<g id="node21" class="node">
<title>Node21</title>
<g id="a_node21"><a xlink:href="../../d2/d8a/classrange__queries_1_1heavy__light__decomposition_1_1_h_l_d.html#a9f1cb54ed09fde931bf3220d75ee4c57" target="_top" xlink:title="This function updates the value at node with val.">
<polygon fill="white" stroke="black" points="159,-561.5 159,-602.5 272,-602.5 272,-561.5 159,-561.5"/>
<text text-anchor="start" x="167" y="-590.5" font-family="Helvetica,sans-Serif" font-size="10.00">range_queries::heavy</text>
<text text-anchor="start" x="167" y="-579.5" font-family="Helvetica,sans-Serif" font-size="10.00">_light_decomposition</text>
<text text-anchor="middle" x="215.5" y="-568.5" font-family="Helvetica,sans-Serif" font-size="10.00">::HLD::update</text>
</a>
</g>
</g>
<!-- Node3&#45;&gt;Node21 -->
<g id="edge23" class="edge">
<title>Node3&#45;&gt;Node21</title>
<path fill="none" stroke="midnightblue" d="M102.08,-371.82C107.55,-382.54 116.35,-400.29 123,-416 141.09,-458.73 136.01,-473.69 159,-514 166.97,-527.98 177.82,-542 187.8,-553.65"/>
<polygon fill="midnightblue" stroke="midnightblue" points="185.3,-556.1 194.53,-561.3 190.56,-551.48 185.3,-556.1"/>
</g>
<!-- Node4&#45;&gt;Node5 -->
<g id="edge4" class="edge">
<title>Node4&#45;&gt;Node5</title>
<path fill="none" stroke="midnightblue" d="M272.41,-399.13C286.22,-402.38 300.96,-405.84 314.53,-409.03"/>
<polygon fill="midnightblue" stroke="midnightblue" points="314.11,-412.52 324.64,-411.4 315.71,-405.71 314.11,-412.52"/>
</g>
<!-- Node7 -->
<g id="node7" class="node">
<title>Node7</title>
<g id="a_node7"><a xlink:href="../../d9/d35/classrange__queries_1_1heavy__light__decomposition_1_1_s_g.html#a41c733f5f5e262b308f7cb95c88c1e74" target="_top" xlink:title="Function that specifies the type of operation involved when segments are combined.">
<polygon fill="white" stroke="black" points="461,-199.5 461,-240.5 574,-240.5 574,-199.5 461,-199.5"/>
<text text-anchor="start" x="469" y="-228.5" font-family="Helvetica,sans-Serif" font-size="10.00">range_queries::heavy</text>
<text text-anchor="start" x="469" y="-217.5" font-family="Helvetica,sans-Serif" font-size="10.00">_light_decomposition</text>
<text text-anchor="middle" x="517.5" y="-206.5" font-family="Helvetica,sans-Serif" font-size="10.00">::SG::combine</text>
</a>
</g>
</g>
<!-- Node6&#45;&gt;Node7 -->
<g id="edge6" class="edge">
<title>Node6&#45;&gt;Node7</title>
<path fill="none" stroke="midnightblue" d="M272.3,-194.65C314.31,-198.25 373.31,-203.54 425,-209 433.35,-209.88 442.12,-210.86 450.79,-211.87"/>
<polygon fill="midnightblue" stroke="midnightblue" points="450.54,-215.36 460.88,-213.05 451.36,-208.41 450.54,-215.36"/>
</g>
<!-- Node8 -->
<g id="node8" class="node">
<title>Node8</title>
<g id="a_node8"><a xlink:href="../../d2/d8a/classrange__queries_1_1heavy__light__decomposition_1_1_h_l_d.html#af64848d6630c39d0f09ce2359cc7c4f8" target="_top" xlink:title="Utility function to assign heavy child to each node (&#45;1 for a leaf node)">
<polygon fill="white" stroke="black" points="310,-0.5 310,-41.5 423,-41.5 423,-0.5 310,-0.5"/>
<text text-anchor="start" x="318" y="-29.5" font-family="Helvetica,sans-Serif" font-size="10.00">range_queries::heavy</text>
<text text-anchor="start" x="318" y="-18.5" font-family="Helvetica,sans-Serif" font-size="10.00">_light_decomposition</text>
<text text-anchor="middle" x="366.5" y="-7.5" font-family="Helvetica,sans-Serif" font-size="10.00">::HLD::dfs_hc</text>
</a>
</g>
</g>
<!-- Node6&#45;&gt;Node8 -->
<g id="edge7" class="edge">
<title>Node6&#45;&gt;Node8</title>
<path fill="none" stroke="midnightblue" d="M225.94,-169.25C240.18,-139.81 269.63,-85.67 308,-51 309.29,-49.83 310.64,-48.7 312.03,-47.59"/>
<polygon fill="midnightblue" stroke="midnightblue" points="314.27,-50.29 320.37,-41.62 310.2,-44.6 314.27,-50.29"/>
</g>
<!-- Node9 -->
<g id="node9" class="node">
<title>Node9</title>
<g id="a_node9"><a xlink:href="../../d2/d8a/classrange__queries_1_1heavy__light__decomposition_1_1_h_l_d.html#a0579062b384e54b611b80c6337c7f2c8" target="_top" xlink:title="Utility function to lable the nodes so that heavy chains have a contigous lable.">
<polygon fill="white" stroke="black" points="310,-218.5 310,-259.5 423,-259.5 423,-218.5 310,-218.5"/>
<text text-anchor="start" x="318" y="-247.5" font-family="Helvetica,sans-Serif" font-size="10.00">range_queries::heavy</text>
<text text-anchor="start" x="318" y="-236.5" font-family="Helvetica,sans-Serif" font-size="10.00">_light_decomposition</text>
<text text-anchor="middle" x="366.5" y="-225.5" font-family="Helvetica,sans-Serif" font-size="10.00">::HLD::dfs_labels</text>
</a>
</g>
</g>
<!-- Node6&#45;&gt;Node9 -->
<g id="edge8" class="edge">
<title>Node6&#45;&gt;Node9</title>
<path fill="none" stroke="midnightblue" d="M272.41,-208.39C281.48,-211.37 290.94,-214.48 300.21,-217.53"/>
<polygon fill="midnightblue" stroke="midnightblue" points="299.18,-220.88 309.78,-220.67 301.37,-214.23 299.18,-220.88"/>
</g>
<!-- Node10 -->
<g id="node10" class="node">
<title>Node10</title>
<g id="a_node10"><a xlink:href="../../d2/d8a/classrange__queries_1_1heavy__light__decomposition_1_1_h_l_d.html#a2dfbda148aad0bfaba2ebfda9ebc915a" target="_top" xlink:title="Utility function to assign highest parent that can be reached though heavy chains.">
<polygon fill="white" stroke="black" points="310,-120.5 310,-161.5 423,-161.5 423,-120.5 310,-120.5"/>
<text text-anchor="start" x="318" y="-149.5" font-family="Helvetica,sans-Serif" font-size="10.00">range_queries::heavy</text>
<text text-anchor="start" x="318" y="-138.5" font-family="Helvetica,sans-Serif" font-size="10.00">_light_decomposition</text>
<text text-anchor="middle" x="366.5" y="-127.5" font-family="Helvetica,sans-Serif" font-size="10.00">::HLD::dfs_par</text>
</a>
</g>
</g>
<!-- Node6&#45;&gt;Node10 -->
<g id="edge9" class="edge">
<title>Node6&#45;&gt;Node10</title>
<path fill="none" stroke="midnightblue" d="M272.41,-171.61C281.48,-168.63 290.94,-165.52 300.21,-162.47"/>
<polygon fill="midnightblue" stroke="midnightblue" points="301.37,-165.77 309.78,-159.33 299.18,-159.12 301.37,-165.77"/>
</g>
<!-- Node11 -->
<g id="node11" class="node">
<title>Node11</title>
<g id="a_node11"><a xlink:href="../../d1/d51/classrange__queries_1_1heavy__light__decomposition_1_1_tree.html#ad22d760a5a33545a70e7ea5e1786c8dc" target="_top" xlink:title="This function must be called after the tree adjacency list and node values are populated The function...">
<polygon fill="white" stroke="black" points="310,-60.5 310,-101.5 423,-101.5 423,-60.5 310,-60.5"/>
<text text-anchor="start" x="318" y="-89.5" font-family="Helvetica,sans-Serif" font-size="10.00">range_queries::heavy</text>
<text text-anchor="start" x="318" y="-78.5" font-family="Helvetica,sans-Serif" font-size="10.00">_light_decomposition</text>
<text text-anchor="middle" x="366.5" y="-67.5" font-family="Helvetica,sans-Serif" font-size="10.00">::Tree::init</text>
</a>
</g>
</g>
<!-- Node6&#45;&gt;Node11 -->
<g id="edge10" class="edge">
<title>Node6&#45;&gt;Node11</title>
<path fill="none" stroke="midnightblue" d="M237.53,-169.34C255.38,-152.45 282.13,-128.57 308,-111 310.12,-109.56 312.32,-108.14 314.56,-106.75"/>
<polygon fill="midnightblue" stroke="midnightblue" points="316.56,-109.63 323.38,-101.52 312.99,-103.61 316.56,-109.63"/>
</g>
<!-- Node12 -->
<g id="node12" class="node">
<title>Node12</title>
<g id="a_node12"><a xlink:href="../../d1/d51/classrange__queries_1_1heavy__light__decomposition_1_1_tree.html#ae8de7aefcb6635d3dacdd174cd4890c4" target="_top" xlink:title="Utility function to populate the t_par vector.">
<polygon fill="white" stroke="black" points="461,-30.5 461,-71.5 574,-71.5 574,-30.5 461,-30.5"/>
<text text-anchor="start" x="469" y="-59.5" font-family="Helvetica,sans-Serif" font-size="10.00">range_queries::heavy</text>
<text text-anchor="start" x="469" y="-48.5" font-family="Helvetica,sans-Serif" font-size="10.00">_light_decomposition</text>
<text text-anchor="middle" x="517.5" y="-37.5" font-family="Helvetica,sans-Serif" font-size="10.00">::Tree::dfs_lca</text>
</a>
</g>
</g>
<!-- Node11&#45;&gt;Node12 -->
<g id="edge11" class="edge">
<title>Node11&#45;&gt;Node12</title>
<path fill="none" stroke="midnightblue" d="M423.41,-69.74C432.38,-67.94 441.74,-66.05 450.92,-64.2"/>
<polygon fill="midnightblue" stroke="midnightblue" points="451.66,-67.62 460.78,-62.22 450.28,-60.76 451.66,-67.62"/>
</g>
<!-- Node13 -->
<g id="node13" class="node">
<title>Node13</title>
<g id="a_node13"><a xlink:href="../../d1/d51/classrange__queries_1_1heavy__light__decomposition_1_1_tree.html#aa339c31ec74cd86a4842a8b09653d460" target="_top" xlink:title="Utility function to compute sub&#45;tree sizes.">
<polygon fill="white" stroke="black" points="461,-90.5 461,-131.5 574,-131.5 574,-90.5 461,-90.5"/>
<text text-anchor="start" x="469" y="-119.5" font-family="Helvetica,sans-Serif" font-size="10.00">range_queries::heavy</text>
<text text-anchor="start" x="469" y="-108.5" font-family="Helvetica,sans-Serif" font-size="10.00">_light_decomposition</text>
<text text-anchor="middle" x="517.5" y="-97.5" font-family="Helvetica,sans-Serif" font-size="10.00">::Tree::dfs_size</text>
</a>
</g>
</g>
<!-- Node11&#45;&gt;Node13 -->
<g id="edge12" class="edge">
<title>Node11&#45;&gt;Node13</title>
<path fill="none" stroke="midnightblue" d="M423.41,-92.26C432.38,-94.06 441.74,-95.95 450.92,-97.8"/>
<polygon fill="midnightblue" stroke="midnightblue" points="450.28,-101.24 460.78,-99.78 451.66,-94.38 450.28,-101.24"/>
</g>
<!-- Node15 -->
<g id="node15" class="node">
<title>Node15</title>
<g id="a_node15"><a xlink:href="../../d2/d8a/classrange__queries_1_1heavy__light__decomposition_1_1_h_l_d.html#a7d5b40c076347a6aabfb37a0590f2f24" target="_top" xlink:title="Utility function to break down a path query into two chain queries.">
<polygon fill="white" stroke="black" points="310,-278.5 310,-319.5 423,-319.5 423,-278.5 310,-278.5"/>
<text text-anchor="start" x="318" y="-307.5" font-family="Helvetica,sans-Serif" font-size="10.00">range_queries::heavy</text>
<text text-anchor="start" x="318" y="-296.5" font-family="Helvetica,sans-Serif" font-size="10.00">_light_decomposition</text>
<text text-anchor="middle" x="366.5" y="-285.5" font-family="Helvetica,sans-Serif" font-size="10.00">::HLD::chain_query</text>
</a>
</g>
</g>
<!-- Node14&#45;&gt;Node15 -->
<g id="edge15" class="edge">
<title>Node14&#45;&gt;Node15</title>
<path fill="none" stroke="midnightblue" d="M272.41,-292.13C281.29,-292.78 290.54,-293.47 299.62,-294.14"/>
<polygon fill="midnightblue" stroke="midnightblue" points="299.55,-297.64 309.78,-294.89 300.06,-290.66 299.55,-297.64"/>
</g>
<!-- Node17 -->
<g id="node17" class="node">
<title>Node17</title>
<g id="a_node17"><a xlink:href="../../d1/d51/classrange__queries_1_1heavy__light__decomposition_1_1_tree.html#ae2b407e64aaf9878fbee7ee6efe9c7d4" target="_top" xlink:title="The function returns the least common ancestor of two nodes.">
<polygon fill="white" stroke="black" points="310,-338.5 310,-379.5 423,-379.5 423,-338.5 310,-338.5"/>
<text text-anchor="start" x="318" y="-367.5" font-family="Helvetica,sans-Serif" font-size="10.00">range_queries::heavy</text>
<text text-anchor="start" x="318" y="-356.5" font-family="Helvetica,sans-Serif" font-size="10.00">_light_decomposition</text>
<text text-anchor="middle" x="366.5" y="-345.5" font-family="Helvetica,sans-Serif" font-size="10.00">::Tree::lca</text>
</a>
</g>
</g>
<!-- Node14&#45;&gt;Node17 -->
<g id="edge18" class="edge">
<title>Node14&#45;&gt;Node17</title>
<path fill="none" stroke="midnightblue" d="M259.6,-308.54C276.2,-316.45 295.36,-325.58 312.77,-333.88"/>
<polygon fill="midnightblue" stroke="midnightblue" points="311.71,-337.25 322.24,-338.39 314.72,-330.93 311.71,-337.25"/>
</g>
<!-- Node15&#45;&gt;Node7 -->
<g id="edge16" class="edge">
<title>Node15&#45;&gt;Node7</title>
<path fill="none" stroke="midnightblue" d="M407.12,-278.4C413.12,-275.26 419.23,-272.05 425,-269 439.38,-261.4 454.98,-253.07 469.17,-245.47"/>
<polygon fill="midnightblue" stroke="midnightblue" points="471.1,-248.41 478.26,-240.59 467.8,-242.24 471.1,-248.41"/>
</g>
<!-- Node16 -->
<g id="node16" class="node">
<title>Node16</title>
<g id="a_node16"><a target="_blank" xlink:href="http://en.cppreference.com/w/cpp/algorithm/swap.html#" xlink:title=" ">
<polygon fill="white" stroke="black" points="488,-289.5 488,-308.5 547,-308.5 547,-289.5 488,-289.5"/>
<text text-anchor="middle" x="517.5" y="-296.5" font-family="Helvetica,sans-Serif" font-size="10.00">std::swap</text>
</a>
</g>
</g>
<!-- Node15&#45;&gt;Node16 -->
<g id="edge17" class="edge">
<title>Node15&#45;&gt;Node16</title>
<path fill="none" stroke="midnightblue" d="M423.41,-299C441.42,-299 460.99,-299 477.52,-299"/>
<polygon fill="midnightblue" stroke="midnightblue" points="477.89,-302.5 487.89,-299 477.89,-295.5 477.89,-302.5"/>
</g>
<!-- Node18 -->
<g id="node18" class="node">
<title>Node18</title>
<g id="a_node18"><a xlink:href="../../d1/d51/classrange__queries_1_1heavy__light__decomposition_1_1_tree.html#ac7761255f2ba06b398b9aae5e4dce5f3" target="_top" xlink:title="The function lifts a node, k units up the tree. The lifting is done in place, and the result is store...">
<polygon fill="white" stroke="black" points="461,-338.5 461,-379.5 574,-379.5 574,-338.5 461,-338.5"/>
<text text-anchor="start" x="469" y="-367.5" font-family="Helvetica,sans-Serif" font-size="10.00">range_queries::heavy</text>
<text text-anchor="start" x="469" y="-356.5" font-family="Helvetica,sans-Serif" font-size="10.00">_light_decomposition</text>
<text text-anchor="middle" x="517.5" y="-345.5" font-family="Helvetica,sans-Serif" font-size="10.00">::Tree::lift</text>
</a>
</g>
</g>
<!-- Node17&#45;&gt;Node18 -->
<g id="edge19" class="edge">
<title>Node17&#45;&gt;Node18</title>
<path fill="none" stroke="midnightblue" d="M423.41,-359C432.29,-359 441.54,-359 450.62,-359"/>
<polygon fill="midnightblue" stroke="midnightblue" points="450.78,-362.5 460.78,-359 450.78,-355.5 450.78,-362.5"/>
</g>
<!-- Node19&#45;&gt;Node20 -->
<g id="edge21" class="edge">
<title>Node19&#45;&gt;Node20</title>
<path fill="none" stroke="midnightblue" d="M272.41,-493C285.83,-495.17 300.11,-497.47 313.36,-499.6"/>
<polygon fill="midnightblue" stroke="midnightblue" points="312.82,-503.06 323.25,-501.2 313.94,-496.15 312.82,-503.06"/>
</g>
<!-- Node22 -->
<g id="node22" class="node">
<title>Node22</title>
<g id="a_node22"><a xlink:href="../../d9/d35/classrange__queries_1_1heavy__light__decomposition_1_1_s_g.html#a3c75bf5770790f8eba8cc92227b5400c" target="_top" xlink:title="Update the value at a node.">
<polygon fill="white" stroke="black" points="310,-561.5 310,-602.5 423,-602.5 423,-561.5 310,-561.5"/>
<text text-anchor="start" x="318" y="-590.5" font-family="Helvetica,sans-Serif" font-size="10.00">range_queries::heavy</text>
<text text-anchor="start" x="318" y="-579.5" font-family="Helvetica,sans-Serif" font-size="10.00">_light_decomposition</text>
<text text-anchor="middle" x="366.5" y="-568.5" font-family="Helvetica,sans-Serif" font-size="10.00">::SG::update</text>
</a>
</g>
</g>
<!-- Node21&#45;&gt;Node22 -->
<g id="edge24" class="edge">
<title>Node21&#45;&gt;Node22</title>
<path fill="none" stroke="midnightblue" d="M272.41,-582C281.29,-582 290.54,-582 299.62,-582"/>
<polygon fill="midnightblue" stroke="midnightblue" points="299.78,-585.5 309.78,-582 299.78,-578.5 299.78,-585.5"/>
</g>
<!-- Node23&#45;&gt;Node4 -->
<g id="edge26" class="edge">
<title>Node23&#45;&gt;Node4</title>
<path fill="none" stroke="midnightblue" d="M110.24,-463.35C114.34,-460.36 118.86,-457.05 123,-454 141.32,-440.5 161.63,-425.41 178.46,-412.89"/>
<polygon fill="midnightblue" stroke="midnightblue" points="180.99,-415.37 186.91,-406.59 176.8,-409.76 180.99,-415.37"/>
</g>
<!-- Node23&#45;&gt;Node5 -->
<g id="edge28" class="edge">
<title>Node23&#45;&gt;Node5</title>
<path fill="none" stroke="midnightblue" d="M113.58,-482.62C117.08,-485.29 120.48,-488.44 123,-492 155.15,-537.46 114.33,-578.76 159,-612 199.29,-641.98 231.81,-642.11 272,-612 317.58,-577.85 281.03,-539.17 308,-489 318.43,-469.6 335.05,-450.74 347.75,-437.82"/>
<polygon fill="midnightblue" stroke="midnightblue" points="350.41,-440.11 355.06,-430.59 345.49,-435.14 350.41,-440.11"/>
</g>
<!-- Node23&#45;&gt;Node6 -->
<g id="edge27" class="edge">
<title>Node23&#45;&gt;Node6</title>
<path fill="none" stroke="midnightblue" d="M114.13,-463.37C117.53,-460.73 120.74,-457.6 123,-454 170.1,-378.99 121.83,-338.39 159,-258 165.65,-243.62 176.06,-229.7 186.07,-218.24"/>
<polygon fill="midnightblue" stroke="midnightblue" points="188.76,-220.48 192.89,-210.72 183.58,-215.78 188.76,-220.48"/>
</g>
<!-- Node23&#45;&gt;Node14 -->
<g id="edge29" class="edge">
<title>Node23&#45;&gt;Node14</title>
<path fill="none" stroke="midnightblue" d="M113.15,-463.47C116.76,-460.77 120.31,-457.57 123,-454 150.93,-416.95 136.01,-396.31 159,-356 166.97,-342.02 177.82,-328 187.8,-316.35"/>
<polygon fill="midnightblue" stroke="midnightblue" points="190.56,-318.52 194.53,-308.7 185.3,-313.9 190.56,-318.52"/>
</g>
<!-- Node23&#45;&gt;Node19 -->
<g id="edge30" class="edge">
<title>Node23&#45;&gt;Node19</title>
<path fill="none" stroke="midnightblue" d="M118.01,-474.97C126.8,-475.79 137.55,-476.8 148.64,-477.83"/>
<polygon fill="midnightblue" stroke="midnightblue" points="148.6,-481.35 158.88,-478.79 149.25,-474.38 148.6,-481.35"/>
</g>
<!-- Node23&#45;&gt;Node20 -->
<g id="edge31" class="edge">
<title>Node23&#45;&gt;Node20</title>
<path fill="none" stroke="midnightblue" d="M113.74,-482.51C117.24,-485.18 120.59,-488.37 123,-492 161.6,-550.23 104.24,-601.63 159,-645 198.37,-676.18 230.57,-673.39 272,-645 308.56,-619.95 281.41,-587.46 308,-552 316.57,-540.57 328.86,-530.62 339.88,-523.09"/>
<polygon fill="midnightblue" stroke="midnightblue" points="341.87,-525.97 348.35,-517.58 338.06,-520.1 341.87,-525.97"/>
</g>
<!-- Node23&#45;&gt;Node21 -->
<g id="edge32" class="edge">
<title>Node23&#45;&gt;Node21</title>
<path fill="none" stroke="midnightblue" d="M112.06,-482.59C115.85,-485.38 119.77,-488.59 123,-492 143.12,-513.18 138.17,-526.52 159,-547 162.02,-549.96 165.32,-552.81 168.78,-555.5"/>
<polygon fill="midnightblue" stroke="midnightblue" points="166.88,-558.44 177.02,-561.49 170.99,-552.78 166.88,-558.44"/>
</g>
<!-- Node24&#45;&gt;Node4 -->
<g id="edge34" class="edge">
<title>Node24&#45;&gt;Node4</title>
<path fill="none" stroke="midnightblue" d="M118.01,-426.24C128.63,-421.81 142.1,-416.19 155.58,-410.57"/>
<polygon fill="midnightblue" stroke="midnightblue" points="157,-413.77 164.88,-406.69 154.31,-407.31 157,-413.77"/>
</g>
<!-- Node24&#45;&gt;Node5 -->
<g id="edge36" class="edge">
<title>Node24&#45;&gt;Node5</title>
<path fill="none" stroke="midnightblue" d="M118.07,-433.9C156.28,-431.91 238.54,-427.62 297.74,-424.53"/>
<polygon fill="midnightblue" stroke="midnightblue" points="297.96,-428.03 307.77,-424.01 297.6,-421.04 297.96,-428.03"/>
</g>
<!-- Node24&#45;&gt;Node6 -->
<g id="edge35" class="edge">
<title>Node24&#45;&gt;Node6</title>
<path fill="none" stroke="midnightblue" d="M102.29,-425.26C107.93,-414.61 116.88,-396.93 123,-381 143.42,-327.83 132.46,-308.4 159,-258 166.44,-243.87 177.09,-229.91 187.08,-218.35"/>
<polygon fill="midnightblue" stroke="midnightblue" points="189.8,-220.56 193.84,-210.76 184.57,-215.9 189.8,-220.56"/>
</g>
<!-- Node24&#45;&gt;Node14 -->
<g id="edge37" class="edge">
<title>Node24&#45;&gt;Node14</title>
<path fill="none" stroke="midnightblue" d="M104.58,-425.22C116.2,-410.25 139.17,-380.77 159,-356 169.37,-343.05 180.95,-328.81 190.85,-316.73"/>
<polygon fill="midnightblue" stroke="midnightblue" points="193.76,-318.7 197.39,-308.75 188.35,-314.26 193.76,-318.7"/>
</g>
<!-- Node24&#45;&gt;Node19 -->
<g id="edge38" class="edge">
<title>Node24&#45;&gt;Node19</title>
<path fill="none" stroke="midnightblue" d="M118.01,-443.76C128.63,-448.19 142.1,-453.81 155.58,-459.43"/>
<polygon fill="midnightblue" stroke="midnightblue" points="154.31,-462.69 164.88,-463.31 157,-456.23 154.31,-462.69"/>
</g>
<!-- Node24&#45;&gt;Node20 -->
<g id="edge39" class="edge">
<title>Node24&#45;&gt;Node20</title>
<path fill="none" stroke="midnightblue" d="M112.15,-444.51C115.95,-447.29 119.83,-450.53 123,-454 143.97,-476.96 131.94,-498.68 159,-514 211.26,-543.59 283.51,-531.9 327.24,-520.28"/>
<polygon fill="midnightblue" stroke="midnightblue" points="328.22,-523.64 336.91,-517.58 326.34,-516.89 328.22,-523.64"/>
</g>
<!-- Node24&#45;&gt;Node21 -->
<g id="edge40" class="edge">
<title>Node24&#45;&gt;Node21</title>
<path fill="none" stroke="midnightblue" d="M113.11,-444.56C116.72,-447.27 120.28,-450.45 123,-454 149.98,-489.16 130.83,-512.78 159,-547 161.35,-549.85 163.99,-552.54 166.81,-555.06"/>
<polygon fill="midnightblue" stroke="midnightblue" points="164.65,-557.82 174.64,-561.35 169.04,-552.36 164.65,-557.82"/>
</g>
</g>
</svg>
