<?xml version="1.0" encoding="UTF-8" standalone="no"?>
<!DOCTYPE svg PUBLIC "-//W3C//DTD SVG 1.1//EN"
 "http://www.w3.org/Graphics/SVG/1.1/DTD/svg11.dtd">
<!-- Generated by graphviz version 2.49.3 (20211023.0002)
 -->
<!-- Title: math::fibonacci_sum::result Pages: 1 -->
<svg width="293pt" height="71pt"
 viewBox="0.00 0.00 293.00 70.50" xmlns="http://www.w3.org/2000/svg" xmlns:xlink="http://www.w3.org/1999/xlink">
<g id="graph0" class="graph" transform="scale(1 1) rotate(0) translate(4 66.5)">
<title>math::fibonacci_sum::result</title>
<polygon fill="white" stroke="transparent" points="-4,4 -4,-66.5 289,-66.5 289,4 -4,4"/>
<!-- Node1 -->
<g id="node1" class="node">
<title>Node1</title>
<g id="a_node1"><a xlink:title=" ">
<polygon fill="#bfbfbf" stroke="black" points="0,-14 0,-44 108,-44 108,-14 0,-14"/>
<text text-anchor="start" x="8" y="-32" font-family="Helvetica,sans-Serif" font-size="10.00">math::fibonacci_sum</text>
<text text-anchor="middle" x="54" y="-21" font-family="Helvetica,sans-Serif" font-size="10.00">::result</text>
</a>
</g>
</g>
<!-- Node1&#45;&gt;Node1 -->
<g id="edge4" class="edge">
<title>Node1&#45;&gt;Node1</title>
<path fill="none" stroke="midnightblue" d="M32.04,-44.16C26.75,-53.56 34.07,-62.5 54,-62.5 66.15,-62.5 73.61,-59.18 76.39,-54.46"/>
<polygon fill="midnightblue" stroke="midnightblue" points="79.87,-54 75.96,-44.16 72.88,-54.3 79.87,-54"/>
</g>
<!-- Node2 -->
<g id="node2" class="node">
<title>Node2</title>
<g id="a_node2"><a xlink:href="../../d7/d35/matrix__exponentiation_8cpp.html#ad8389ed58fd0ec66df248014775ad1fa" target="_top" xlink:title=" ">
<polygon fill="white" stroke="black" points="252,-19.5 252,-38.5 285,-38.5 285,-19.5 252,-19.5"/>
<text text-anchor="middle" x="268.5" y="-26.5" font-family="Helvetica,sans-Serif" font-size="10.00">ans</text>
</a>
</g>
</g>
<!-- Node1&#45;&gt;Node2 -->
<g id="edge1" class="edge">
<title>Node1&#45;&gt;Node2</title>
<path fill="none" stroke="midnightblue" d="M108.07,-29C150.71,-29 208.73,-29 241.73,-29"/>
<polygon fill="midnightblue" stroke="midnightblue" points="241.91,-32.5 251.91,-29 241.91,-25.5 241.91,-32.5"/>
</g>
<!-- Node3 -->
<g id="node3" class="node">
<title>Node3</title>
<g id="a_node3"><a xlink:href="../../dd/d47/namespacemath.html#afcd07701d73ed65cd616bcba02737f3d" target="_top" xlink:title="This function calculates a raised to exponent b under modulo c using modular exponentiation.">
<polygon fill="white" stroke="black" points="144,-0.5 144,-19.5 216,-19.5 216,-0.5 144,-0.5"/>
<text text-anchor="middle" x="180" y="-7.5" font-family="Helvetica,sans-Serif" font-size="10.00">math::power</text>
</a>
</g>
</g>
<!-- Node1&#45;&gt;Node3 -->
<g id="edge2" class="edge">
<title>Node1&#45;&gt;Node3</title>
<path fill="none" stroke="midnightblue" d="M108.31,-20.83C116.71,-19.54 125.32,-18.22 133.53,-16.97"/>
<polygon fill="midnightblue" stroke="midnightblue" points="134.29,-20.39 143.64,-15.42 133.23,-13.47 134.29,-20.39"/>
</g>
<!-- Node3&#45;&gt;Node2 -->
<g id="edge3" class="edge">
<title>Node3&#45;&gt;Node2</title>
<path fill="none" stroke="midnightblue" d="M216.18,-17.73C224.77,-19.61 233.79,-21.6 241.84,-23.36"/>
<polygon fill="midnightblue" stroke="midnightblue" points="241.22,-26.81 251.74,-25.54 242.72,-19.97 241.22,-26.81"/>
</g>
</g>
</svg>
