<?xml version="1.0" encoding="UTF-8" standalone="no"?>
<!DOCTYPE svg PUBLIC "-//W3C//DTD SVG 1.1//EN"
 "http://www.w3.org/Graphics/SVG/1.1/DTD/svg11.dtd">
<!-- Generated by graphviz version 8.0.4 (20230421.1958)
 -->
<!-- Title: math/number_of_positive_divisors.cpp Pages: 1 -->
<svg width="134pt" height="94pt"
 viewBox="0.00 0.00 133.50 93.75" xmlns="http://www.w3.org/2000/svg" xmlns:xlink="http://www.w3.org/1999/xlink">
<g id="graph0" class="graph" transform="scale(1 1) rotate(0) translate(4 89.75)">
<title>math/number_of_positive_divisors.cpp</title>
<!-- Node1 -->
<g id="node1" class="node">
<title>Node1</title>
<g id="a_node1"><a xlink:title="C++ Program to calculate the number of positive divisors.">
<polygon fill="#999999" stroke="#666666" points="125.5,-85.75 0,-85.75 0,-55.25 125.5,-55.25 125.5,-85.75"/>
<text text-anchor="start" x="8" y="-72.25" font-family="Helvetica,sans-Serif" font-size="10.00">math/number_of_positive</text>
<text text-anchor="middle" x="62.75" y="-61" font-family="Helvetica,sans-Serif" font-size="10.00">_divisors.cpp</text>
</a>
</g>
</g>
<!-- Node2 -->
<g id="node2" class="node">
<title>Node2</title>
<g id="a_node2"><a xlink:title=" ">
<polygon fill="#e0e0e0" stroke="#999999" points="52.88,-19.25 4.62,-19.25 4.62,0 52.88,0 52.88,-19.25"/>
<text text-anchor="middle" x="28.75" y="-5.75" font-family="Helvetica,sans-Serif" font-size="10.00">cassert</text>
</a>
</g>
</g>
<!-- Node1&#45;&gt;Node2 -->
<g id="edge1" class="edge">
<title>Node1&#45;&gt;Node2</title>
<path fill="none" stroke="#63b8ff" d="M54.35,-54.95C49.82,-47.1 44.18,-37.35 39.35,-28.99"/>
<polygon fill="#63b8ff" stroke="#63b8ff" points="42.02,-27.61 33.99,-20.7 35.96,-31.11 42.02,-27.61"/>
</g>
<!-- Node3 -->
<g id="node3" class="node">
<title>Node3</title>
<g id="a_node3"><a xlink:title=" ">
<polygon fill="#e0e0e0" stroke="#999999" points="124.5,-19.25 71,-19.25 71,0 124.5,0 124.5,-19.25"/>
<text text-anchor="middle" x="97.75" y="-5.75" font-family="Helvetica,sans-Serif" font-size="10.00">iostream</text>
</a>
</g>
</g>
<!-- Node1&#45;&gt;Node3 -->
<g id="edge2" class="edge">
<title>Node1&#45;&gt;Node3</title>
<path fill="none" stroke="#63b8ff" d="M71.4,-54.95C76.06,-47.1 81.86,-37.35 86.84,-28.99"/>
<polygon fill="#63b8ff" stroke="#63b8ff" points="90.25,-31.09 92.35,-20.7 84.24,-27.51 90.25,-31.09"/>
</g>
</g>
</svg>
