<?xml version="1.0" encoding="UTF-8" standalone="no"?>
<!DOCTYPE svg PUBLIC "-//W3C//DTD SVG 1.1//EN"
 "http://www.w3.org/Graphics/SVG/1.1/DTD/svg11.dtd">
<!-- Generated by graphviz version 5.0.0 (20220707.1540)
 -->
<!-- Title: Graphical Class Hierarchy Pages: 1 -->
<svg width="267pt" height="241pt"
 viewBox="0.00 0.00 267.00 240.50" xmlns="http://www.w3.org/2000/svg" xmlns:xlink="http://www.w3.org/1999/xlink">
<g id="graph0" class="graph" transform="scale(1 1) rotate(0) translate(4 236.5)">
<title>Graphical Class Hierarchy</title>
<polygon fill="white" stroke="transparent" points="-4,4 -4,-236.5 263,-236.5 263,4 -4,4"/>
<!-- Node0 -->
<g id="node1" class="node">
<title>Node0</title>
<g id="a_node1"><a target="_blank" xlink:href="http://en.cppreference.com/w/cpp/types/integral_constant.html" xlink:title=" ">
<polygon fill="white" stroke="black" points="0,-95.5 0,-114.5 77,-114.5 77,-95.5 0,-95.5"/>
<text text-anchor="middle" x="38.5" y="-102.5" font-family="Helvetica,sans-Serif" font-size="10.00">std::true_type</text>
</a>
</g>
</g>
<!-- Node1 -->
<g id="node2" class="node">
<title>Node1</title>
<g id="a_node2"><a xlink:href="d2/dfc/structstd_1_1is__arithmetic_3_01uint128__t_01_4.html" target="_top" xlink:title=" ">
<polygon fill="white" stroke="black" points="140,-202 140,-232 232,-232 232,-202 140,-202"/>
<text text-anchor="start" x="148" y="-220" font-family="Helvetica,sans-Serif" font-size="10.00">std::is_arithmetic</text>
<text text-anchor="middle" x="186" y="-209" font-family="Helvetica,sans-Serif" font-size="10.00">&lt; uint128_t &gt;</text>
</a>
</g>
</g>
<!-- Node0&#45;&gt;Node1 -->
<g id="edge1" class="edge">
<title>Node0&#45;&gt;Node1</title>
<path fill="none" stroke="midnightblue" d="M50.47,-123.44C63.17,-143.29 85.86,-174.5 113,-193 121.06,-198.49 130.47,-202.81 139.79,-206.18"/>
<polygon fill="midnightblue" stroke="midnightblue" points="53.31,-121.37 45.06,-114.71 47.36,-125.06 53.31,-121.37"/>
</g>
<!-- Node2 -->
<g id="node3" class="node">
<title>Node2</title>
<g id="a_node3"><a xlink:href="dc/d6d/structstd_1_1is__arithmetic_3_01uint256__t_01_4.html" target="_top" xlink:title=" ">
<polygon fill="white" stroke="black" points="140,-153 140,-183 232,-183 232,-153 140,-153"/>
<text text-anchor="start" x="148" y="-171" font-family="Helvetica,sans-Serif" font-size="10.00">std::is_arithmetic</text>
<text text-anchor="middle" x="186" y="-160" font-family="Helvetica,sans-Serif" font-size="10.00">&lt; uint256_t &gt;</text>
</a>
</g>
</g>
<!-- Node0&#45;&gt;Node2 -->
<g id="edge2" class="edge">
<title>Node0&#45;&gt;Node2</title>
<path fill="none" stroke="midnightblue" d="M65.36,-119.52C79.25,-127.03 96.81,-136.04 113,-143 121.51,-146.66 130.75,-150.18 139.68,-153.37"/>
<polygon fill="midnightblue" stroke="midnightblue" points="66.85,-116.35 56.39,-114.61 63.48,-122.49 66.85,-116.35"/>
</g>
<!-- Node3 -->
<g id="node4" class="node">
<title>Node3</title>
<g id="a_node4"><a xlink:href="d2/dd4/structstd_1_1is__integral_3_01uint128__t_01_4.html" target="_top" xlink:title=" ">
<polygon fill="white" stroke="black" points="117,-114.5 117,-133.5 255,-133.5 255,-114.5 117,-114.5"/>
<text text-anchor="middle" x="186" y="-121.5" font-family="Helvetica,sans-Serif" font-size="10.00">std::is_integral&lt; uint128_t &gt;</text>
</a>
</g>
</g>
<!-- Node0&#45;&gt;Node3 -->
<g id="edge3" class="edge">
<title>Node0&#45;&gt;Node3</title>
<path fill="none" stroke="midnightblue" d="M87.33,-111.25C96.8,-112.48 106.91,-113.8 116.9,-115.11"/>
<polygon fill="midnightblue" stroke="midnightblue" points="87.72,-107.77 77.35,-109.94 86.81,-114.71 87.72,-107.77"/>
</g>
<!-- Node4 -->
<g id="node5" class="node">
<title>Node4</title>
<g id="a_node5"><a xlink:href="d7/d47/structstd_1_1is__integral_3_01uint256__t_01_4.html" target="_top" xlink:title=" ">
<polygon fill="white" stroke="black" points="117,-76.5 117,-95.5 255,-95.5 255,-76.5 117,-76.5"/>
<text text-anchor="middle" x="186" y="-83.5" font-family="Helvetica,sans-Serif" font-size="10.00">std::is_integral&lt; uint256_t &gt;</text>
</a>
</g>
</g>
<!-- Node0&#45;&gt;Node4 -->
<g id="edge4" class="edge">
<title>Node0&#45;&gt;Node4</title>
<path fill="none" stroke="midnightblue" d="M87.33,-98.75C96.8,-97.52 106.91,-96.2 116.9,-94.89"/>
<polygon fill="midnightblue" stroke="midnightblue" points="86.81,-95.29 77.35,-100.06 87.72,-102.23 86.81,-95.29"/>
</g>
<!-- Node5 -->
<g id="node6" class="node">
<title>Node5</title>
<g id="a_node6"><a xlink:href="d5/d25/structstd_1_1is__unsigned_3_01uint128__t_01_4.html" target="_top" xlink:title=" ">
<polygon fill="white" stroke="black" points="113,-38.5 113,-57.5 259,-57.5 259,-38.5 113,-38.5"/>
<text text-anchor="middle" x="186" y="-45.5" font-family="Helvetica,sans-Serif" font-size="10.00">std::is_unsigned&lt; uint128_t &gt;</text>
</a>
</g>
</g>
<!-- Node0&#45;&gt;Node5 -->
<g id="edge5" class="edge">
<title>Node0&#45;&gt;Node5</title>
<path fill="none" stroke="midnightblue" d="M64.34,-90.42C78.29,-82.68 96.23,-73.46 113,-67 122.41,-63.38 132.77,-60.2 142.63,-57.53"/>
<polygon fill="midnightblue" stroke="midnightblue" points="62.35,-87.52 55.37,-95.5 65.8,-93.62 62.35,-87.52"/>
</g>
<!-- Node6 -->
<g id="node7" class="node">
<title>Node6</title>
<g id="a_node7"><a xlink:href="df/d99/structstd_1_1is__unsigned_3_01uint256__t_01_4.html" target="_top" xlink:title=" ">
<polygon fill="white" stroke="black" points="113,-0.5 113,-19.5 259,-19.5 259,-0.5 113,-0.5"/>
<text text-anchor="middle" x="186" y="-7.5" font-family="Helvetica,sans-Serif" font-size="10.00">std::is_unsigned&lt; uint256_t &gt;</text>
</a>
</g>
</g>
<!-- Node0&#45;&gt;Node6 -->
<g id="edge6" class="edge">
<title>Node0&#45;&gt;Node6</title>
<path fill="none" stroke="midnightblue" d="M52.04,-87.25C65.26,-69.85 87.65,-43.86 113,-29 119.58,-25.14 126.95,-22.06 134.4,-19.59"/>
<polygon fill="midnightblue" stroke="midnightblue" points="49.11,-85.33 46,-95.45 54.75,-89.48 49.11,-85.33"/>
</g>
</g>
</svg>
