<?xml version="1.0" encoding="UTF-8" standalone="no"?>
<!DOCTYPE svg PUBLIC "-//W3C//DTD SVG 1.1//EN"
 "http://www.w3.org/Graphics/SVG/1.1/DTD/svg11.dtd">
<!-- Generated by graphviz version 5.0.1 (20220820.1526)
 -->
<!-- Title: Graphical Class Hierarchy Pages: 1 -->
<svg width="267pt" height="235pt"
 viewBox="0.00 0.00 267.00 234.50" xmlns="http://www.w3.org/2000/svg" xmlns:xlink="http://www.w3.org/1999/xlink">
<g id="graph0" class="graph" transform="scale(1 1) rotate(0) translate(4 230.5)">
<title>Graphical Class Hierarchy</title>
<!-- Node0 -->
<g id="node1" class="node">
<title>Node0</title>
<g id="a_node1"><a target="_blank" xlink:href="http://en.cppreference.com/w/cpp/types/integral_constant.html" xlink:title=" ">
<polygon fill="white" stroke="#666666" points="77,-111 0,-111 0,-92 77,-92 77,-111"/>
<text text-anchor="middle" x="38.5" y="-99" font-family="Helvetica,sans-Serif" font-size="10.00">std::true_type</text>
</a>
</g>
</g>
<!-- Node1 -->
<g id="node2" class="node">
<title>Node1</title>
<g id="a_node2"><a xlink:href="d2/dfc/structstd_1_1is__arithmetic_3_01uint128__t_01_4.html" target="_top" xlink:title=" ">
<polygon fill="white" stroke="#666666" points="232,-226.5 140,-226.5 140,-196.5 232,-196.5 232,-226.5"/>
<text text-anchor="start" x="148" y="-214.5" font-family="Helvetica,sans-Serif" font-size="10.00">std::is_arithmetic</text>
<text text-anchor="middle" x="186" y="-203.5" font-family="Helvetica,sans-Serif" font-size="10.00">&lt; uint128_t &gt;</text>
</a>
</g>
</g>
<!-- Node0&#45;&gt;Node1 -->
<g id="edge1" class="edge">
<title>Node0&#45;&gt;Node1</title>
<path fill="none" stroke="#63b8ff" d="M50.77,-119.82C63.59,-139.22 86.26,-169.49 113,-187.5 121.09,-192.95 130.52,-197.25 139.83,-200.62"/>
<polygon fill="#63b8ff" stroke="#63b8ff" points="53.63,-117.8 45.29,-111.26 47.74,-121.57 53.63,-117.8"/>
</g>
<!-- Node2 -->
<g id="node3" class="node">
<title>Node2</title>
<g id="a_node3"><a xlink:href="dc/d6d/structstd_1_1is__arithmetic_3_01uint256__t_01_4.html" target="_top" xlink:title=" ">
<polygon fill="white" stroke="#666666" points="232,-178.5 140,-178.5 140,-148.5 232,-148.5 232,-178.5"/>
<text text-anchor="start" x="148" y="-166.5" font-family="Helvetica,sans-Serif" font-size="10.00">std::is_arithmetic</text>
<text text-anchor="middle" x="186" y="-155.5" font-family="Helvetica,sans-Serif" font-size="10.00">&lt; uint256_t &gt;</text>
</a>
</g>
</g>
<!-- Node0&#45;&gt;Node2 -->
<g id="edge2" class="edge">
<title>Node0&#45;&gt;Node2</title>
<path fill="none" stroke="#63b8ff" d="M65.05,-115.96C78.98,-123.51 96.66,-132.6 113,-139.5 121.5,-143.09 130.73,-146.51 139.66,-149.58"/>
<polygon fill="#63b8ff" stroke="#63b8ff" points="66.52,-112.77 56.08,-111.01 63.15,-118.9 66.52,-112.77"/>
</g>
<!-- Node3 -->
<g id="node4" class="node">
<title>Node3</title>
<g id="a_node4"><a xlink:href="d2/dd4/structstd_1_1is__integral_3_01uint128__t_01_4.html" target="_top" xlink:title=" ">
<polygon fill="white" stroke="#666666" points="255,-130 117,-130 117,-111 255,-111 255,-130"/>
<text text-anchor="middle" x="186" y="-118" font-family="Helvetica,sans-Serif" font-size="10.00">std::is_integral&lt; uint128_t &gt;</text>
</a>
</g>
</g>
<!-- Node0&#45;&gt;Node3 -->
<g id="edge3" class="edge">
<title>Node0&#45;&gt;Node3</title>
<path fill="none" stroke="#63b8ff" d="M87.33,-107.75C96.8,-108.98 106.91,-110.3 116.9,-111.61"/>
<polygon fill="#63b8ff" stroke="#63b8ff" points="87.72,-104.27 77.35,-106.44 86.81,-111.21 87.72,-104.27"/>
</g>
<!-- Node4 -->
<g id="node5" class="node">
<title>Node4</title>
<g id="a_node5"><a xlink:href="d7/d47/structstd_1_1is__integral_3_01uint256__t_01_4.html" target="_top" xlink:title=" ">
<polygon fill="white" stroke="#666666" points="255,-93 117,-93 117,-74 255,-74 255,-93"/>
<text text-anchor="middle" x="186" y="-81" font-family="Helvetica,sans-Serif" font-size="10.00">std::is_integral&lt; uint256_t &gt;</text>
</a>
</g>
</g>
<!-- Node0&#45;&gt;Node4 -->
<g id="edge4" class="edge">
<title>Node0&#45;&gt;Node4</title>
<path fill="none" stroke="#63b8ff" d="M87.33,-95.58C96.8,-94.41 106.91,-93.16 116.9,-91.93"/>
<polygon fill="#63b8ff" stroke="#63b8ff" points="86.84,-92.12 77.35,-96.82 87.7,-99.06 86.84,-92.12"/>
</g>
<!-- Node5 -->
<g id="node6" class="node">
<title>Node5</title>
<g id="a_node6"><a xlink:href="d5/d25/structstd_1_1is__unsigned_3_01uint128__t_01_4.html" target="_top" xlink:title=" ">
<polygon fill="white" stroke="#666666" points="259,-56 113,-56 113,-37 259,-37 259,-56"/>
<text text-anchor="middle" x="186" y="-44" font-family="Helvetica,sans-Serif" font-size="10.00">std::is_unsigned&lt; uint128_t &gt;</text>
</a>
</g>
</g>
<!-- Node0&#45;&gt;Node5 -->
<g id="edge5" class="edge">
<title>Node0&#45;&gt;Node5</title>
<path fill="none" stroke="#63b8ff" d="M65.52,-87.19C79.34,-80 96.77,-71.55 113,-65.5 122.57,-61.93 133.09,-58.76 143.06,-56.07"/>
<polygon fill="#63b8ff" stroke="#63b8ff" points="63.79,-84.15 56.6,-91.92 67.07,-90.33 63.79,-84.15"/>
</g>
<!-- Node6 -->
<g id="node7" class="node">
<title>Node6</title>
<g id="a_node7"><a xlink:href="df/d99/structstd_1_1is__unsigned_3_01uint256__t_01_4.html" target="_top" xlink:title=" ">
<polygon fill="white" stroke="#666666" points="259,-19 113,-19 113,0 259,0 259,-19"/>
<text text-anchor="middle" x="186" y="-7" font-family="Helvetica,sans-Serif" font-size="10.00">std::is_unsigned&lt; uint256_t &gt;</text>
</a>
</g>
</g>
<!-- Node0&#45;&gt;Node6 -->
<g id="edge6" class="edge">
<title>Node0&#45;&gt;Node6</title>
<path fill="none" stroke="#63b8ff" d="M52.63,-83.93C66.01,-67.24 88.28,-42.65 113,-28.5 119.73,-24.65 127.26,-21.55 134.85,-19.08"/>
<polygon fill="#63b8ff" stroke="#63b8ff" points="49.85,-81.8 46.47,-91.84 55.37,-86.1 49.85,-81.8"/>
</g>
</g>
</svg>
