<?xml version="1.0" encoding="UTF-8" standalone="no"?>
<!DOCTYPE svg PUBLIC "-//W3C//DTD SVG 1.1//EN"
 "http://www.w3.org/Graphics/SVG/1.1/DTD/svg11.dtd">
<!-- Generated by graphviz version 5.0.0 (20220707.1540)
 -->
<!-- Title: range_queries::heavy_light_decomposition::HLD::init Pages: 1 -->
<svg width="410pt" height="383pt"
 viewBox="0.00 0.00 410.00 383.00" xmlns="http://www.w3.org/2000/svg" xmlns:xlink="http://www.w3.org/1999/xlink">
<g id="graph0" class="graph" transform="scale(1 1) rotate(0) translate(4 379)">
<title>range_queries::heavy_light_decomposition::HLD::init</title>
<polygon fill="white" stroke="transparent" points="-4,4 -4,-379 406,-379 406,4 -4,4"/>
<!-- Node1 -->
<g id="node1" class="node">
<title>Node1</title>
<g id="a_node1"><a xlink:title="This function must be called after the tree adjacency list and node values are populated The function...">
<polygon fill="#bfbfbf" stroke="black" points="0,-177.5 0,-218.5 110,-218.5 110,-177.5 0,-177.5"/>
<text text-anchor="start" x="8" y="-206.5" font-family="Helvetica,sans-Serif" font-size="10.00">range_queries::heavy</text>
<text text-anchor="start" x="8" y="-195.5" font-family="Helvetica,sans-Serif" font-size="10.00">_light_decomposition</text>
<text text-anchor="middle" x="55" y="-184.5" font-family="Helvetica,sans-Serif" font-size="10.00">::HLD::init</text>
</a>
</g>
</g>
<!-- Node2 -->
<g id="node2" class="node">
<title>Node2</title>
<g id="a_node2"><a xlink:href="../../d9/d35/classrange__queries_1_1heavy__light__decomposition_1_1_s_g.html#a41c733f5f5e262b308f7cb95c88c1e74" target="_top" xlink:title="Function that specifies the type of operation involved when segments are combined.">
<polygon fill="white" stroke="black" points="146,-333.5 146,-374.5 256,-374.5 256,-333.5 146,-333.5"/>
<text text-anchor="start" x="154" y="-362.5" font-family="Helvetica,sans-Serif" font-size="10.00">range_queries::heavy</text>
<text text-anchor="start" x="154" y="-351.5" font-family="Helvetica,sans-Serif" font-size="10.00">_light_decomposition</text>
<text text-anchor="middle" x="201" y="-340.5" font-family="Helvetica,sans-Serif" font-size="10.00">::SG::combine</text>
</a>
</g>
</g>
<!-- Node1&#45;&gt;Node2 -->
<g id="edge1" class="edge">
<title>Node1&#45;&gt;Node2</title>
<path fill="none" stroke="midnightblue" d="M67.05,-218.91C82.07,-245.83 111.11,-292.85 146,-324 147.29,-325.15 148.64,-326.28 150.02,-327.38"/>
<polygon fill="midnightblue" stroke="midnightblue" points="148.16,-330.35 158.31,-333.37 152.26,-324.68 148.16,-330.35"/>
</g>
<!-- Node3 -->
<g id="node3" class="node">
<title>Node3</title>
<g id="a_node3"><a xlink:href="../../d2/d8a/classrange__queries_1_1heavy__light__decomposition_1_1_h_l_d.html#af64848d6630c39d0f09ce2359cc7c4f8" target="_top" xlink:title="Utility function to assign heavy child to each node (&#45;1 for a leaf node)">
<polygon fill="white" stroke="black" points="146,-255.5 146,-296.5 256,-296.5 256,-255.5 146,-255.5"/>
<text text-anchor="start" x="154" y="-284.5" font-family="Helvetica,sans-Serif" font-size="10.00">range_queries::heavy</text>
<text text-anchor="start" x="154" y="-273.5" font-family="Helvetica,sans-Serif" font-size="10.00">_light_decomposition</text>
<text text-anchor="middle" x="201" y="-262.5" font-family="Helvetica,sans-Serif" font-size="10.00">::HLD::dfs_hc</text>
</a>
</g>
</g>
<!-- Node1&#45;&gt;Node3 -->
<g id="edge2" class="edge">
<title>Node1&#45;&gt;Node3</title>
<path fill="none" stroke="midnightblue" d="M94.21,-218.7C112.34,-228.52 134.16,-240.34 153.26,-250.68"/>
<polygon fill="midnightblue" stroke="midnightblue" points="151.65,-253.79 162.11,-255.48 154.98,-247.64 151.65,-253.79"/>
</g>
<!-- Node4 -->
<g id="node4" class="node">
<title>Node4</title>
<g id="a_node4"><a xlink:href="../../d2/d8a/classrange__queries_1_1heavy__light__decomposition_1_1_h_l_d.html#a0579062b384e54b611b80c6337c7f2c8" target="_top" xlink:title="Utility function to lable the nodes so that heavy chains have a contigous lable.">
<polygon fill="white" stroke="black" points="146,-177.5 146,-218.5 256,-218.5 256,-177.5 146,-177.5"/>
<text text-anchor="start" x="154" y="-206.5" font-family="Helvetica,sans-Serif" font-size="10.00">range_queries::heavy</text>
<text text-anchor="start" x="154" y="-195.5" font-family="Helvetica,sans-Serif" font-size="10.00">_light_decomposition</text>
<text text-anchor="middle" x="201" y="-184.5" font-family="Helvetica,sans-Serif" font-size="10.00">::HLD::dfs_labels</text>
</a>
</g>
</g>
<!-- Node1&#45;&gt;Node4 -->
<g id="edge4" class="edge">
<title>Node1&#45;&gt;Node4</title>
<path fill="none" stroke="midnightblue" d="M110.03,-198C118.31,-198 126.94,-198 135.42,-198"/>
<polygon fill="midnightblue" stroke="midnightblue" points="135.67,-201.5 145.67,-198 135.67,-194.5 135.67,-201.5"/>
</g>
<!-- Node5 -->
<g id="node5" class="node">
<title>Node5</title>
<g id="a_node5"><a xlink:href="../../d2/d8a/classrange__queries_1_1heavy__light__decomposition_1_1_h_l_d.html#a2dfbda148aad0bfaba2ebfda9ebc915a" target="_top" xlink:title="Utility function to assign highest parent that can be reached though heavy chains.">
<polygon fill="white" stroke="black" points="146,-99.5 146,-140.5 256,-140.5 256,-99.5 146,-99.5"/>
<text text-anchor="start" x="154" y="-128.5" font-family="Helvetica,sans-Serif" font-size="10.00">range_queries::heavy</text>
<text text-anchor="start" x="154" y="-117.5" font-family="Helvetica,sans-Serif" font-size="10.00">_light_decomposition</text>
<text text-anchor="middle" x="201" y="-106.5" font-family="Helvetica,sans-Serif" font-size="10.00">::HLD::dfs_par</text>
</a>
</g>
</g>
<!-- Node1&#45;&gt;Node5 -->
<g id="edge6" class="edge">
<title>Node1&#45;&gt;Node5</title>
<path fill="none" stroke="midnightblue" d="M94.21,-177.3C112.34,-167.48 134.16,-155.66 153.26,-145.32"/>
<polygon fill="midnightblue" stroke="midnightblue" points="154.98,-148.36 162.11,-140.52 151.65,-142.21 154.98,-148.36"/>
</g>
<!-- Node6 -->
<g id="node6" class="node">
<title>Node6</title>
<g id="a_node6"><a xlink:href="../../d1/d51/classrange__queries_1_1heavy__light__decomposition_1_1_tree.html#ad22d760a5a33545a70e7ea5e1786c8dc" target="_top" xlink:title="This function must be called after the tree adjacency list and node values are populated The function...">
<polygon fill="white" stroke="black" points="146,-39.5 146,-80.5 256,-80.5 256,-39.5 146,-39.5"/>
<text text-anchor="start" x="154" y="-68.5" font-family="Helvetica,sans-Serif" font-size="10.00">range_queries::heavy</text>
<text text-anchor="start" x="154" y="-57.5" font-family="Helvetica,sans-Serif" font-size="10.00">_light_decomposition</text>
<text text-anchor="middle" x="201" y="-46.5" font-family="Helvetica,sans-Serif" font-size="10.00">::Tree::init</text>
</a>
</g>
</g>
<!-- Node1&#45;&gt;Node6 -->
<g id="edge8" class="edge">
<title>Node1&#45;&gt;Node6</title>
<path fill="none" stroke="midnightblue" d="M69.69,-177.34C85.87,-154.03 114.61,-115.99 146,-90 147.52,-88.74 149.1,-87.51 150.72,-86.31"/>
<polygon fill="midnightblue" stroke="midnightblue" points="152.85,-89.09 159.12,-80.55 148.89,-83.32 152.85,-89.09"/>
</g>
<!-- Node3&#45;&gt;Node3 -->
<g id="edge3" class="edge">
<title>Node3&#45;&gt;Node3</title>
<path fill="none" stroke="midnightblue" d="M174.17,-296.86C171.24,-306.54 180.18,-315 201,-315 214.01,-315 222.38,-311.7 226.12,-306.86"/>
<polygon fill="midnightblue" stroke="midnightblue" points="229.59,-307.31 227.83,-296.86 222.69,-306.13 229.59,-307.31"/>
</g>
<!-- Node4&#45;&gt;Node4 -->
<g id="edge5" class="edge">
<title>Node4&#45;&gt;Node4</title>
<path fill="none" stroke="midnightblue" d="M174.17,-218.86C171.24,-228.54 180.18,-237 201,-237 214.01,-237 222.38,-233.7 226.12,-228.86"/>
<polygon fill="midnightblue" stroke="midnightblue" points="229.59,-229.31 227.83,-218.86 222.69,-228.13 229.59,-229.31"/>
</g>
<!-- Node5&#45;&gt;Node5 -->
<g id="edge7" class="edge">
<title>Node5&#45;&gt;Node5</title>
<path fill="none" stroke="midnightblue" d="M174.17,-140.86C171.24,-150.54 180.18,-159 201,-159 214.01,-159 222.38,-155.7 226.12,-150.86"/>
<polygon fill="midnightblue" stroke="midnightblue" points="229.59,-151.31 227.83,-140.86 222.69,-150.13 229.59,-151.31"/>
</g>
<!-- Node7 -->
<g id="node7" class="node">
<title>Node7</title>
<g id="a_node7"><a xlink:href="../../d1/d51/classrange__queries_1_1heavy__light__decomposition_1_1_tree.html#ae8de7aefcb6635d3dacdd174cd4890c4" target="_top" xlink:title="Utility function to populate the t_par vector.">
<polygon fill="white" stroke="black" points="292,-78.5 292,-119.5 402,-119.5 402,-78.5 292,-78.5"/>
<text text-anchor="start" x="300" y="-107.5" font-family="Helvetica,sans-Serif" font-size="10.00">range_queries::heavy</text>
<text text-anchor="start" x="300" y="-96.5" font-family="Helvetica,sans-Serif" font-size="10.00">_light_decomposition</text>
<text text-anchor="middle" x="347" y="-85.5" font-family="Helvetica,sans-Serif" font-size="10.00">::Tree::dfs_lca</text>
</a>
</g>
</g>
<!-- Node6&#45;&gt;Node7 -->
<g id="edge9" class="edge">
<title>Node6&#45;&gt;Node7</title>
<path fill="none" stroke="midnightblue" d="M256.03,-74.63C264.5,-76.93 273.32,-79.31 281.98,-81.66"/>
<polygon fill="midnightblue" stroke="midnightblue" points="281.1,-85.05 291.67,-84.28 282.93,-78.29 281.1,-85.05"/>
</g>
<!-- Node8 -->
<g id="node8" class="node">
<title>Node8</title>
<g id="a_node8"><a xlink:href="../../d1/d51/classrange__queries_1_1heavy__light__decomposition_1_1_tree.html#aa339c31ec74cd86a4842a8b09653d460" target="_top" xlink:title="Utility function to compute sub&#45;tree sizes.">
<polygon fill="white" stroke="black" points="292,-0.5 292,-41.5 402,-41.5 402,-0.5 292,-0.5"/>
<text text-anchor="start" x="300" y="-29.5" font-family="Helvetica,sans-Serif" font-size="10.00">range_queries::heavy</text>
<text text-anchor="start" x="300" y="-18.5" font-family="Helvetica,sans-Serif" font-size="10.00">_light_decomposition</text>
<text text-anchor="middle" x="347" y="-7.5" font-family="Helvetica,sans-Serif" font-size="10.00">::Tree::dfs_size</text>
</a>
</g>
</g>
<!-- Node6&#45;&gt;Node8 -->
<g id="edge11" class="edge">
<title>Node6&#45;&gt;Node8</title>
<path fill="none" stroke="midnightblue" d="M256.03,-45.37C264.5,-43.07 273.32,-40.69 281.98,-38.34"/>
<polygon fill="midnightblue" stroke="midnightblue" points="282.93,-41.71 291.67,-35.72 281.1,-34.95 282.93,-41.71"/>
</g>
<!-- Node7&#45;&gt;Node7 -->
<g id="edge10" class="edge">
<title>Node7&#45;&gt;Node7</title>
<path fill="none" stroke="midnightblue" d="M320.17,-119.86C317.24,-129.54 326.18,-138 347,-138 360.01,-138 368.38,-134.7 372.12,-129.86"/>
<polygon fill="midnightblue" stroke="midnightblue" points="375.59,-130.31 373.83,-119.86 368.69,-129.13 375.59,-130.31"/>
</g>
<!-- Node8&#45;&gt;Node8 -->
<g id="edge12" class="edge">
<title>Node8&#45;&gt;Node8</title>
<path fill="none" stroke="midnightblue" d="M320.17,-41.86C317.24,-51.54 326.18,-60 347,-60 360.01,-60 368.38,-56.7 372.12,-51.86"/>
<polygon fill="midnightblue" stroke="midnightblue" points="375.59,-52.31 373.83,-41.86 368.69,-51.13 375.59,-52.31"/>
</g>
</g>
</svg>
