<?xml version="1.0" encoding="UTF-8" standalone="no"?>
<!DOCTYPE svg PUBLIC "-//W3C//DTD SVG 1.1//EN"
 "http://www.w3.org/Graphics/SVG/1.1/DTD/svg11.dtd">
<!-- Generated by graphviz version 7.1.0 (20230121.1956)
 -->
<!-- Title: machine_learning::neural_network::activations::sigmoid Pages: 1 -->
<svg width="221pt" height="67pt"
 viewBox="0.00 0.00 221.00 67.00" xmlns="http://www.w3.org/2000/svg" xmlns:xlink="http://www.w3.org/1999/xlink">
<g id="graph0" class="graph" transform="scale(1 1) rotate(0) translate(4 63)">
<title>machine_learning::neural_network::activations::sigmoid</title>
<!-- Node1 -->
<g id="node1" class="node">
<title>Node1</title>
<g id="a_node1"><a xlink:title=" ">
<polygon fill="#999999" stroke="#666666" points="125,-41 0,-41 0,0 125,0 125,-41"/>
<text text-anchor="start" x="8" y="-29" font-family="Helvetica,sans-Serif" font-size="10.00">machine_learning::neural</text>
<text text-anchor="start" x="8" y="-18" font-family="Helvetica,sans-Serif" font-size="10.00">_network::activations::</text>
<text text-anchor="middle" x="62.5" y="-7" font-family="Helvetica,sans-Serif" font-size="10.00">sigmoid</text>
</a>
</g>
</g>
<!-- Node1&#45;&gt;Node1 -->
<g id="edge2" class="edge">
<title>Node1&#45;&gt;Node1</title>
<path fill="none" stroke="#63b8ff" d="M39.52,-41.49C37.33,-50.88 44.99,-59 62.5,-59 72.35,-59 79.08,-56.43 82.7,-52.51"/>
<polygon fill="#63b8ff" stroke="#63b8ff" points="86.05,-53.51 85.11,-42.96 79.27,-51.8 86.05,-53.51"/>
</g>
<!-- Node2 -->
<g id="node2" class="node">
<title>Node2</title>
<g id="a_node2"><a target="_blank" xlink:href="http://en.cppreference.com/w/cpp/numeric/math/exp.html#" xlink:title=" ">
<polygon fill="white" stroke="#666666" points="213,-30 161,-30 161,-11 213,-11 213,-30"/>
<text text-anchor="middle" x="187" y="-18" font-family="Helvetica,sans-Serif" font-size="10.00">std::exp</text>
</a>
</g>
</g>
<!-- Node1&#45;&gt;Node2 -->
<g id="edge1" class="edge">
<title>Node1&#45;&gt;Node2</title>
<path fill="none" stroke="#63b8ff" d="M125.47,-20.5C133.65,-20.5 141.81,-20.5 149.37,-20.5"/>
<polygon fill="#63b8ff" stroke="#63b8ff" points="149.16,-24 159.16,-20.5 149.16,-17 149.16,-24"/>
</g>
</g>
</svg>
