<?xml version="1.0" encoding="UTF-8" standalone="no"?>
<!DOCTYPE svg PUBLIC "-//W3C//DTD SVG 1.1//EN"
 "http://www.w3.org/Graphics/SVG/1.1/DTD/svg11.dtd">
<!-- Generated by graphviz version 2.49.3 (20211023.0002)
 -->
<!-- Title: machine_learning::neural_network::activations::relu Pages: 1 -->
<svg width="230pt" height="57pt"
 viewBox="0.00 0.00 230.00 57.00" xmlns="http://www.w3.org/2000/svg" xmlns:xlink="http://www.w3.org/1999/xlink">
<g id="graph0" class="graph" transform="scale(1 1) rotate(0) translate(4 53)">
<title>machine_learning::neural_network::activations::relu</title>
<polygon fill="white" stroke="transparent" points="-4,4 -4,-53 226,-53 226,4 -4,4"/>
<!-- Node1 -->
<g id="node1" class="node">
<title>Node1</title>
<g id="a_node1"><a xlink:title=" ">
<polygon fill="#bfbfbf" stroke="black" points="0,-0.5 0,-30.5 132,-30.5 132,-0.5 0,-0.5"/>
<text text-anchor="start" x="8" y="-18.5" font-family="Helvetica,sans-Serif" font-size="10.00">machine_learning::neural</text>
<text text-anchor="middle" x="66" y="-7.5" font-family="Helvetica,sans-Serif" font-size="10.00">_network::activations::relu</text>
</a>
</g>
</g>
<!-- Node1&#45;&gt;Node1 -->
<g id="edge2" class="edge">
<title>Node1&#45;&gt;Node1</title>
<path fill="none" stroke="midnightblue" d="M43.69,-30.66C38.31,-40.06 45.75,-49 66,-49 78.34,-49 85.92,-45.68 88.74,-40.96"/>
<polygon fill="midnightblue" stroke="midnightblue" points="92.23,-40.5 88.31,-30.66 85.23,-40.8 92.23,-40.5"/>
</g>
<!-- Node2 -->
<g id="node2" class="node">
<title>Node2</title>
<g id="a_node2"><a target="_blank" xlink:href="http://en.cppreference.com/w/cpp/algorithm/max.html#" xlink:title=" ">
<polygon fill="white" stroke="black" points="168,-6 168,-25 222,-25 222,-6 168,-6"/>
<text text-anchor="middle" x="195" y="-13" font-family="Helvetica,sans-Serif" font-size="10.00">std::max</text>
</a>
</g>
</g>
<!-- Node1&#45;&gt;Node2 -->
<g id="edge1" class="edge">
<title>Node1&#45;&gt;Node2</title>
<path fill="none" stroke="midnightblue" d="M132.36,-15.5C141.15,-15.5 149.89,-15.5 157.91,-15.5"/>
<polygon fill="midnightblue" stroke="midnightblue" points="157.98,-19 167.98,-15.5 157.98,-12 157.98,-19"/>
</g>
</g>
</svg>
