<?xml version="1.0" encoding="UTF-8" standalone="no"?>
<!DOCTYPE svg PUBLIC "-//W3C//DTD SVG 1.1//EN"
 "http://www.w3.org/Graphics/SVG/1.1/DTD/svg11.dtd">
<!-- Generated by graphviz version 2.49.3 (20211023.0002)
 -->
<!-- Title: strings::manacher::manacher Pages: 1 -->
<svg width="229pt" height="66pt"
 viewBox="0.00 0.00 229.00 66.00" xmlns="http://www.w3.org/2000/svg" xmlns:xlink="http://www.w3.org/1999/xlink">
<g id="graph0" class="graph" transform="scale(1 1) rotate(0) translate(4 62)">
<title>strings::manacher::manacher</title>
<polygon fill="white" stroke="transparent" points="-4,4 -4,-62 225,-62 225,4 -4,4"/>
<!-- Node1 -->
<g id="node1" class="node">
<title>Node1</title>
<g id="a_node1"><a xlink:title="A function that implements Manacher&#39;s algorithm.">
<polygon fill="#bfbfbf" stroke="black" points="0,-14 0,-44 102,-44 102,-14 0,-14"/>
<text text-anchor="start" x="8" y="-32" font-family="Helvetica,sans-Serif" font-size="10.00">strings::manacher::</text>
<text text-anchor="middle" x="51" y="-21" font-family="Helvetica,sans-Serif" font-size="10.00">manacher</text>
</a>
</g>
</g>
<!-- Node2 -->
<g id="node2" class="node">
<title>Node2</title>
<g id="a_node2"><a target="_blank" xlink:href="http://en.cppreference.com/w/cpp/algorithm/min.html#" xlink:title=" ">
<polygon fill="white" stroke="black" points="153.5,-38.5 153.5,-57.5 205.5,-57.5 205.5,-38.5 153.5,-38.5"/>
<text text-anchor="middle" x="179.5" y="-45.5" font-family="Helvetica,sans-Serif" font-size="10.00">std::min</text>
</a>
</g>
</g>
<!-- Node1&#45;&gt;Node2 -->
<g id="edge1" class="edge">
<title>Node1&#45;&gt;Node2</title>
<path fill="none" stroke="midnightblue" d="M102.36,-36.56C116.03,-38.62 130.54,-40.8 143.19,-42.7"/>
<polygon fill="midnightblue" stroke="midnightblue" points="142.91,-46.19 153.32,-44.22 143.95,-39.27 142.91,-46.19"/>
</g>
<!-- Node3 -->
<g id="node3" class="node">
<title>Node3</title>
<g id="a_node3"><a target="_blank" xlink:href="http://en.cppreference.com/w/cpp/string/basic_string/size.html#" xlink:title=" ">
<polygon fill="white" stroke="black" points="138,-0.5 138,-19.5 221,-19.5 221,-0.5 138,-0.5"/>
<text text-anchor="middle" x="179.5" y="-7.5" font-family="Helvetica,sans-Serif" font-size="10.00">std::string::size</text>
</a>
</g>
</g>
<!-- Node1&#45;&gt;Node3 -->
<g id="edge2" class="edge">
<title>Node1&#45;&gt;Node3</title>
<path fill="none" stroke="midnightblue" d="M102.36,-21.44C110.69,-20.19 119.33,-18.89 127.66,-17.64"/>
<polygon fill="midnightblue" stroke="midnightblue" points="128.28,-21.08 137.65,-16.14 127.24,-14.16 128.28,-21.08"/>
</g>
</g>
</svg>
