<?xml version="1.0" encoding="UTF-8" standalone="no"?>
<!DOCTYPE svg PUBLIC "-//W3C//DTD SVG 1.1//EN"
 "http://www.w3.org/Graphics/SVG/1.1/DTD/svg11.dtd">
<!-- Generated by graphviz version 5.0.0 (20220707.1540)
 -->
<!-- Title: test Pages: 1 -->
<svg width="169pt" height="104pt"
 viewBox="0.00 0.00 169.00 104.00" xmlns="http://www.w3.org/2000/svg" xmlns:xlink="http://www.w3.org/1999/xlink">
<g id="graph0" class="graph" transform="scale(1 1) rotate(0) translate(4 100)">
<title>test</title>
<polygon fill="white" stroke="transparent" points="-4,4 -4,-100 165,-100 165,4 -4,4"/>
<!-- Node1 -->
<g id="node1" class="node">
<title>Node1</title>
<g id="a_node1"><a xlink:title="Self&#45;test implementations.">
<polygon fill="#bfbfbf" stroke="black" points="0,-38.5 0,-57.5 33,-57.5 33,-38.5 0,-38.5"/>
<text text-anchor="middle" x="16.5" y="-45.5" font-family="Helvetica,sans-Serif" font-size="10.00">test</text>
</a>
</g>
</g>
<!-- Node2 -->
<g id="node2" class="node">
<title>Node2</title>
<g id="a_node2"><a target="_blank" xlink:href="http://en.cppreference.com/w/cpp/numeric/math/fabs.html#" xlink:title=" ">
<polygon fill="white" stroke="black" points="87.5,-76.5 87.5,-95.5 142.5,-95.5 142.5,-76.5 87.5,-76.5"/>
<text text-anchor="middle" x="115" y="-83.5" font-family="Helvetica,sans-Serif" font-size="10.00">std::fabs</text>
</a>
</g>
</g>
<!-- Node1&#45;&gt;Node2 -->
<g id="edge1" class="edge">
<title>Node1&#45;&gt;Node2</title>
<path fill="none" stroke="midnightblue" d="M33,-54.11C45.71,-59.11 64.15,-66.37 80.23,-72.7"/>
<polygon fill="midnightblue" stroke="midnightblue" points="79.28,-76.09 89.87,-76.5 81.84,-69.58 79.28,-76.09"/>
</g>
<!-- Node3 -->
<g id="node3" class="node">
<title>Node3</title>
<g id="a_node3"><a xlink:href="../../d6/db8/inv__sqrt_8cpp.html#ad219034bf5fba657f5035ec5a1d50f52" target="_top" xlink:title="for numeric_limits">
<polygon fill="white" stroke="black" points="78.5,-38.5 78.5,-57.5 151.5,-57.5 151.5,-38.5 78.5,-38.5"/>
<text text-anchor="middle" x="115" y="-45.5" font-family="Helvetica,sans-Serif" font-size="10.00">Fast_InvSqrt</text>
</a>
</g>
</g>
<!-- Node1&#45;&gt;Node3 -->
<g id="edge2" class="edge">
<title>Node1&#45;&gt;Node3</title>
<path fill="none" stroke="midnightblue" d="M33,-48C42.59,-48 55.44,-48 68.08,-48"/>
<polygon fill="midnightblue" stroke="midnightblue" points="68.1,-51.5 78.1,-48 68.1,-44.5 68.1,-51.5"/>
</g>
<!-- Node4 -->
<g id="node4" class="node">
<title>Node4</title>
<g id="a_node4"><a xlink:href="../../d6/db8/inv__sqrt_8cpp.html#aa2703e5cf3fecde8becd9066b9666b97" target="_top" xlink:title="This is the function that calculates the fast inverse square root. The following code is the fast inv...">
<polygon fill="white" stroke="black" points="69,-0.5 69,-19.5 161,-19.5 161,-0.5 69,-0.5"/>
<text text-anchor="middle" x="115" y="-7.5" font-family="Helvetica,sans-Serif" font-size="10.00">Standard_InvSqrt</text>
</a>
</g>
</g>
<!-- Node1&#45;&gt;Node4 -->
<g id="edge3" class="edge">
<title>Node1&#45;&gt;Node4</title>
<path fill="none" stroke="midnightblue" d="M33,-41.89C45.71,-36.89 64.15,-29.63 80.23,-23.3"/>
<polygon fill="midnightblue" stroke="midnightblue" points="81.84,-26.42 89.87,-19.5 79.28,-19.91 81.84,-26.42"/>
</g>
</g>
</svg>
