<?xml version="1.0" encoding="UTF-8" standalone="no"?>
<!DOCTYPE svg PUBLIC "-//W3C//DTD SVG 1.1//EN"
 "http://www.w3.org/Graphics/SVG/1.1/DTD/svg11.dtd">
<!-- Generated by graphviz version 2.44.1 (20200629.0846)
 -->
<!-- Title: main Pages: 1 -->
<svg width="174pt" height="142pt"
 viewBox="0.00 0.00 174.00 142.00" xmlns="http://www.w3.org/2000/svg" xmlns:xlink="http://www.w3.org/1999/xlink">
<g id="graph0" class="graph" transform="scale(1 1) rotate(0) translate(4 138)">
<title>main</title>
<polygon fill="white" stroke="transparent" points="-4,4 -4,-138 170,-138 170,4 -4,4"/>
<!-- Node1 -->
<g id="node1" class="node">
<title>Node1</title>
<g id="a_node1"><a xlink:title=" ">
<polygon fill="#bfbfbf" stroke="black" points="0,-57.5 0,-76.5 38,-76.5 38,-57.5 0,-57.5"/>
<text text-anchor="middle" x="19" y="-64.5" font-family="Helvetica,sans-Serif" font-size="10.00">main</text>
</a>
</g>
</g>
<!-- Node2 -->
<g id="node2" class="node">
<title>Node2</title>
<g id="a_node2"><a target="_blank" xlink:href="http://en.cppreference.com/w/cpp/container/vector/begin.html#" target="_top" xlink:title=" ">
<polygon fill="white" stroke="black" points="74,-114.5 74,-133.5 166,-133.5 166,-114.5 74,-114.5"/>
<text text-anchor="middle" x="120" y="-121.5" font-family="Helvetica,sans-Serif" font-size="10.00">std::vector::begin</text>
</a>
</g>
</g>
<!-- Node1&#45;&gt;Node2 -->
<g id="edge1" class="edge">
<title>Node1&#45;&gt;Node2</title>
<path fill="none" stroke="midnightblue" d="M31.95,-76.53C42.58,-84.74 58.76,-96.55 74,-105 77.31,-106.84 80.83,-108.61 84.39,-110.28"/>
<polygon fill="midnightblue" stroke="midnightblue" points="83.23,-113.6 93.79,-114.47 86.08,-107.21 83.23,-113.6"/>
</g>
<!-- Node3 -->
<g id="node3" class="node">
<title>Node3</title>
<g id="a_node3"><a target="_blank" xlink:href="http://en.cppreference.com/w/cpp/container/vector/end.html#" target="_top" xlink:title=" ">
<polygon fill="white" stroke="black" points="77.5,-76.5 77.5,-95.5 162.5,-95.5 162.5,-76.5 77.5,-76.5"/>
<text text-anchor="middle" x="120" y="-83.5" font-family="Helvetica,sans-Serif" font-size="10.00">std::vector::end</text>
</a>
</g>
</g>
<!-- Node1&#45;&gt;Node3 -->
<g id="edge2" class="edge">
<title>Node1&#45;&gt;Node3</title>
<path fill="none" stroke="midnightblue" d="M38.16,-70.48C46.45,-72.08 56.73,-74.05 67.16,-76.05"/>
<polygon fill="midnightblue" stroke="midnightblue" points="66.65,-79.52 77.13,-77.96 67.97,-72.64 66.65,-79.52"/>
</g>
<!-- Node4 -->
<g id="node4" class="node">
<title>Node4</title>
<g id="a_node4"><a target="_blank" xlink:href="http://en.cppreference.com/w/cpp/algorithm/reverse.html#" target="_top" xlink:title=" ">
<polygon fill="white" stroke="black" points="86,-38.5 86,-57.5 154,-57.5 154,-38.5 86,-38.5"/>
<text text-anchor="middle" x="120" y="-45.5" font-family="Helvetica,sans-Serif" font-size="10.00">std::reverse</text>
</a>
</g>
</g>
<!-- Node1&#45;&gt;Node4 -->
<g id="edge3" class="edge">
<title>Node1&#45;&gt;Node4</title>
<path fill="none" stroke="midnightblue" d="M38.16,-63.52C48.74,-61.48 62.58,-58.83 75.81,-56.29"/>
<polygon fill="midnightblue" stroke="midnightblue" points="76.58,-59.71 85.74,-54.38 75.26,-52.83 76.58,-59.71"/>
</g>
<!-- Node5 -->
<g id="node5" class="node">
<title>Node5</title>
<g id="a_node5"><a target="_blank" xlink:href="http://en.cppreference.com/w/cpp/algorithm/sort.html#" target="_top" xlink:title=" ">
<polygon fill="white" stroke="black" points="93.5,-0.5 93.5,-19.5 146.5,-19.5 146.5,-0.5 93.5,-0.5"/>
<text text-anchor="middle" x="120" y="-7.5" font-family="Helvetica,sans-Serif" font-size="10.00">std::sort</text>
</a>
</g>
</g>
<!-- Node1&#45;&gt;Node5 -->
<g id="edge4" class="edge">
<title>Node1&#45;&gt;Node5</title>
<path fill="none" stroke="midnightblue" d="M31.95,-57.47C42.58,-49.26 58.76,-37.45 74,-29 77.31,-27.16 80.83,-25.39 84.39,-23.72"/>
<polygon fill="midnightblue" stroke="midnightblue" points="86.08,-26.79 93.79,-19.53 83.23,-20.4 86.08,-26.79"/>
</g>
</g>
</svg>
