<?xml version="1.0" encoding="UTF-8" standalone="no"?>
<!DOCTYPE svg PUBLIC "-//W3C//DTD SVG 1.1//EN"
 "http://www.w3.org/Graphics/SVG/1.1/DTD/svg11.dtd">
<!-- Generated by graphviz version 6.0.1 (20220911.1526)
 -->
<!-- Title: operator&lt;&lt; Pages: 1 -->
<svg width="290pt" height="220pt"
 viewBox="0.00 0.00 290.00 220.00" xmlns="http://www.w3.org/2000/svg" xmlns:xlink="http://www.w3.org/1999/xlink">
<g id="graph0" class="graph" transform="scale(1 1) rotate(0) translate(4 216)">
<title>operator&lt;&lt;</title>
<!-- Node1 -->
<g id="node1" class="node">
<title>Node1</title>
<g id="a_node1"><a xlink:title=" ">
<polygon fill="#999999" stroke="#666666" points="64,-114 0,-114 0,-95 64,-95 64,-114"/>
<text text-anchor="middle" x="32" y="-102" font-family="Helvetica,sans-Serif" font-size="10.00">operator&lt;&lt;</text>
</a>
</g>
</g>
<!-- Node2 -->
<g id="node2" class="node">
<title>Node2</title>
<g id="a_node2"><a target="_blank" xlink:href="http://en.cppreference.com/w/cpp/io/manip/endl.html#" xlink:title=" ">
<polygon fill="white" stroke="#666666" points="279.5,-212 225.5,-212 225.5,-193 279.5,-193 279.5,-212"/>
<text text-anchor="middle" x="252.5" y="-200" font-family="Helvetica,sans-Serif" font-size="10.00">std::endl</text>
</a>
</g>
</g>
<!-- Node1&#45;&gt;Node2 -->
<g id="edge1" class="edge">
<title>Node1&#45;&gt;Node2</title>
<path fill="none" stroke="#63b8ff" d="M38.81,-114.22C49,-130.3 71.71,-162.19 100,-177.5 135.92,-196.93 183.09,-202.06 215.2,-203.04"/>
<polygon fill="#63b8ff" stroke="#63b8ff" points="215.41,-206.55 225.47,-203.23 215.53,-199.55 215.41,-206.55"/>
</g>
<!-- Node3 -->
<g id="node3" class="node">
<title>Node3</title>
<g id="a_node3"><a target="_blank" xlink:href="http://en.cppreference.com/w/cpp/io/manip/left.html#" xlink:title=" ">
<polygon fill="white" stroke="#666666" points="277.5,-147 227.5,-147 227.5,-128 277.5,-128 277.5,-147"/>
<text text-anchor="middle" x="252.5" y="-135" font-family="Helvetica,sans-Serif" font-size="10.00">std::left</text>
</a>
</g>
</g>
<!-- Node1&#45;&gt;Node3 -->
<g id="edge2" class="edge">
<title>Node1&#45;&gt;Node3</title>
<path fill="none" stroke="#63b8ff" d="M40.8,-114.36C52.15,-127.82 74.63,-151.3 100,-160.5 140.28,-175.12 189.85,-162.24 221.07,-150.67"/>
<polygon fill="#63b8ff" stroke="#63b8ff" points="222.47,-153.88 230.53,-147 219.94,-147.36 222.47,-153.88"/>
</g>
<!-- Node4 -->
<g id="node4" class="node">
<title>Node4</title>
<g id="a_node4"><a xlink:href="../../dc/d38/ordinary__least__squares__regressor_8cpp.html#a7075a0fccad9b2d79be0275bfe8948d4" target="_top" xlink:title=" ">
<polygon fill="white" stroke="#666666" points="175.5,-133 111.5,-133 111.5,-114 175.5,-114 175.5,-133"/>
<text text-anchor="middle" x="143.5" y="-121" font-family="Helvetica,sans-Serif" font-size="10.00">operator&lt;&lt;</text>
</a>
</g>
</g>
<!-- Node1&#45;&gt;Node4 -->
<g id="edge3" class="edge">
<title>Node1&#45;&gt;Node4</title>
<path fill="none" stroke="#63b8ff" d="M64.09,-109.89C75.64,-111.9 88.95,-114.21 101.27,-116.35"/>
<polygon fill="#63b8ff" stroke="#63b8ff" points="100.89,-119.83 111.34,-118.09 102.08,-112.93 100.89,-119.83"/>
</g>
<!-- Node5 -->
<g id="node5" class="node">
<title>Node5</title>
<g id="a_node5"><a target="_blank" xlink:href="http://en.cppreference.com/w/cpp/io/manip/setfill.html#" xlink:title=" ">
<polygon fill="white" stroke="#666666" points="282,-102 223,-102 223,-83 282,-83 282,-102"/>
<text text-anchor="middle" x="252.5" y="-90" font-family="Helvetica,sans-Serif" font-size="10.00">std::setfill</text>
</a>
</g>
</g>
<!-- Node1&#45;&gt;Node5 -->
<g id="edge9" class="edge">
<title>Node1&#45;&gt;Node5</title>
<path fill="none" stroke="#63b8ff" d="M64.31,-102.78C103.36,-100.64 170.14,-96.97 212.48,-94.64"/>
<polygon fill="#63b8ff" stroke="#63b8ff" points="212.9,-98.13 222.69,-94.08 212.51,-91.14 212.9,-98.13"/>
</g>
<!-- Node6 -->
<g id="node6" class="node">
<title>Node6</title>
<g id="a_node6"><a target="_blank" xlink:href="http://en.cppreference.com/w/cpp/io/manip/setw.html#" xlink:title=" ">
<polygon fill="white" stroke="#666666" points="281,-65 224,-65 224,-46 281,-46 281,-65"/>
<text text-anchor="middle" x="252.5" y="-53" font-family="Helvetica,sans-Serif" font-size="10.00">std::setw</text>
</a>
</g>
</g>
<!-- Node1&#45;&gt;Node6 -->
<g id="edge10" class="edge">
<title>Node1&#45;&gt;Node6</title>
<path fill="none" stroke="#63b8ff" d="M64.31,-97.48C103.77,-88.63 171.54,-73.43 213.81,-63.95"/>
<polygon fill="#63b8ff" stroke="#63b8ff" points="214.72,-67.33 223.71,-61.73 213.19,-60.5 214.72,-67.33"/>
</g>
<!-- Node7 -->
<g id="node7" class="node">
<title>Node7</title>
<g id="a_node7"><a target="_blank" xlink:href="http://en.cppreference.com/w/cpp/container/vector/size.html#" xlink:title=" ">
<polygon fill="white" stroke="#666666" points="187,-19 100,-19 100,0 187,0 187,-19"/>
<text text-anchor="middle" x="143.5" y="-7" font-family="Helvetica,sans-Serif" font-size="10.00">std::vector::size</text>
</a>
</g>
</g>
<!-- Node1&#45;&gt;Node7 -->
<g id="edge11" class="edge">
<title>Node1&#45;&gt;Node7</title>
<path fill="none" stroke="#63b8ff" d="M40.47,-94.9C52.09,-80.38 75.71,-52.51 100,-33.5 104.23,-30.19 108.97,-27.05 113.71,-24.19"/>
<polygon fill="#63b8ff" stroke="#63b8ff" points="115.72,-27.07 122.68,-19.09 112.26,-20.99 115.72,-27.07"/>
</g>
<!-- Node4&#45;&gt;Node2 -->
<g id="edge4" class="edge">
<title>Node4&#45;&gt;Node2</title>
<path fill="none" stroke="#63b8ff" d="M157.62,-133.19C175.77,-146.59 208.73,-170.93 230.38,-186.9"/>
<polygon fill="#63b8ff" stroke="#63b8ff" points="228.48,-189.86 238.61,-192.98 232.64,-184.23 228.48,-189.86"/>
</g>
<!-- Node4&#45;&gt;Node3 -->
<g id="edge5" class="edge">
<title>Node4&#45;&gt;Node3</title>
<path fill="none" stroke="#63b8ff" d="M175.74,-127.59C188.68,-129.28 203.75,-131.25 217.02,-132.99"/>
<polygon fill="#63b8ff" stroke="#63b8ff" points="216.83,-136.49 227.2,-134.32 217.74,-129.55 216.83,-136.49"/>
</g>
<!-- Node4&#45;&gt;Node4 -->
<g id="edge6" class="edge">
<title>Node4&#45;&gt;Node4</title>
<path fill="none" stroke="#63b8ff" d="M126.7,-133.08C118.53,-141.73 124.13,-151 143.5,-151 155.61,-151 162.34,-147.38 163.68,-142.55"/>
<polygon fill="#63b8ff" stroke="#63b8ff" points="166.96,-141.32 160.3,-133.08 160.37,-143.68 166.96,-141.32"/>
</g>
<!-- Node4&#45;&gt;Node5 -->
<g id="edge7" class="edge">
<title>Node4&#45;&gt;Node5</title>
<path fill="none" stroke="#63b8ff" d="M175.74,-114.45C187.4,-111.07 200.78,-107.19 213.02,-103.65"/>
<polygon fill="#63b8ff" stroke="#63b8ff" points="214.34,-106.91 222.97,-100.77 212.39,-100.19 214.34,-106.91"/>
</g>
<!-- Node4&#45;&gt;Node6 -->
<g id="edge8" class="edge">
<title>Node4&#45;&gt;Node6</title>
<path fill="none" stroke="#63b8ff" d="M159.54,-113.9C175.33,-103.82 200.9,-87.52 223,-73.5 224.49,-72.55 226.03,-71.58 227.59,-70.59"/>
<polygon fill="#63b8ff" stroke="#63b8ff" points="229.82,-73.32 236.41,-65.02 226.08,-67.4 229.82,-73.32"/>
</g>
</g>
</svg>
