<?xml version="1.0" encoding="UTF-8" standalone="no"?>
<!DOCTYPE svg PUBLIC "-//W3C//DTD SVG 1.1//EN"
 "http://www.w3.org/Graphics/SVG/1.1/DTD/svg11.dtd">
<!-- Generated by graphviz version 7.0.4 (20221203.1631)
 -->
<!-- Title: ciphers::morse::encrypt Pages: 1 -->
<svg width="359pt" height="69pt"
 viewBox="0.00 0.00 359.00 68.50" xmlns="http://www.w3.org/2000/svg" xmlns:xlink="http://www.w3.org/1999/xlink">
<g id="graph0" class="graph" transform="scale(1 1) rotate(0) translate(4 64.5)">
<title>ciphers::morse::encrypt</title>
<!-- Node1 -->
<g id="node1" class="node">
<title>Node1</title>
<g id="a_node1"><a xlink:title=" ">
<polygon fill="#999999" stroke="#666666" points="119,-37 0,-37 0,-18 119,-18 119,-37"/>
<text text-anchor="middle" x="59.5" y="-25" font-family="Helvetica,sans-Serif" font-size="10.00">ciphers::morse::encrypt</text>
</a>
</g>
</g>
<!-- Node2 -->
<g id="node2" class="node">
<title>Node2</title>
<g id="a_node2"><a xlink:href="../../d8/d76/morse__code_8cpp.html#ab31773fd11555d21f70d6914138d9535" target="_top" xlink:title=" ">
<polygon fill="white" stroke="#666666" points="261,-42.5 155,-42.5 155,-12.5 261,-12.5 261,-42.5"/>
<text text-anchor="start" x="163" y="-30.5" font-family="Helvetica,sans-Serif" font-size="10.00">ciphers::morse::char</text>
<text text-anchor="middle" x="208" y="-19.5" font-family="Helvetica,sans-Serif" font-size="10.00">_to_morse</text>
</a>
</g>
</g>
<!-- Node1&#45;&gt;Node2 -->
<g id="edge1" class="edge">
<title>Node1&#45;&gt;Node2</title>
<path fill="none" stroke="#63b8ff" d="M119.24,-27.5C127.25,-27.5 135.5,-27.5 143.59,-27.5"/>
<polygon fill="#63b8ff" stroke="#63b8ff" points="143.35,-31 153.35,-27.5 143.35,-24 143.35,-31"/>
</g>
<!-- Node2&#45;&gt;Node2 -->
<g id="edge2" class="edge">
<title>Node2&#45;&gt;Node2</title>
<path fill="none" stroke="#63b8ff" d="M187.61,-42.78C183.08,-51.91 189.88,-60.5 208,-60.5 217.91,-60.5 224.44,-57.93 227.57,-54.11"/>
<polygon fill="#63b8ff" stroke="#63b8ff" points="231.05,-54.51 228.28,-44.29 224.07,-54.01 231.05,-54.51"/>
</g>
<!-- Node3 -->
<g id="node3" class="node">
<title>Node3</title>
<g id="a_node3"><a target="_blank" xlink:href="http://en.cppreference.com/w/cpp/io/manip/endl.html#" xlink:title=" ">
<polygon fill="white" stroke="#666666" points="351,-56 297,-56 297,-37 351,-37 351,-56"/>
<text text-anchor="middle" x="324" y="-44" font-family="Helvetica,sans-Serif" font-size="10.00">std::endl</text>
</a>
</g>
</g>
<!-- Node2&#45;&gt;Node3 -->
<g id="edge3" class="edge">
<title>Node2&#45;&gt;Node3</title>
<path fill="none" stroke="#63b8ff" d="M261.33,-36.22C269.49,-37.58 277.78,-38.96 285.53,-40.25"/>
<polygon fill="#63b8ff" stroke="#63b8ff" points="284.84,-43.69 295.28,-41.88 285.99,-36.78 284.84,-43.69"/>
</g>
<!-- Node4 -->
<g id="node4" class="node">
<title>Node4</title>
<g id="a_node4"><a target="_blank" xlink:href="http://en.cppreference.com/w/cpp/utility/program/exit.html#" xlink:title=" ">
<polygon fill="white" stroke="#666666" points="350,-19 298,-19 298,0 350,0 350,-19"/>
<text text-anchor="middle" x="324" y="-7" font-family="Helvetica,sans-Serif" font-size="10.00">std::exit</text>
</a>
</g>
</g>
<!-- Node2&#45;&gt;Node4 -->
<g id="edge4" class="edge">
<title>Node2&#45;&gt;Node4</title>
<path fill="none" stroke="#63b8ff" d="M261.33,-19.24C269.82,-17.9 278.46,-16.53 286.47,-15.27"/>
<polygon fill="#63b8ff" stroke="#63b8ff" points="286.85,-18.75 296.18,-13.74 285.75,-11.84 286.85,-18.75"/>
</g>
</g>
</svg>
