<?xml version="1.0" encoding="UTF-8" standalone="no"?>
<!DOCTYPE svg PUBLIC "-//W3C//DTD SVG 1.1//EN"
 "http://www.w3.org/Graphics/SVG/1.1/DTD/svg11.dtd">
<!-- Generated by graphviz version 6.0.1 (20220911.1526)
 -->
<!-- Title: ciphers/hill_cipher.cpp Pages: 1 -->
<svg width="643pt" height="148pt"
 viewBox="0.00 0.00 643.00 148.00" xmlns="http://www.w3.org/2000/svg" xmlns:xlink="http://www.w3.org/1999/xlink">
<g id="graph0" class="graph" transform="scale(1 1) rotate(0) translate(4 144)">
<title>ciphers/hill_cipher.cpp</title>
<!-- Node1 -->
<g id="node1" class="node">
<title>Node1</title>
<g id="a_node1"><a xlink:title="Implementation of Hill cipher algorithm.">
<polygon fill="#999999" stroke="#666666" points="369,-140 256,-140 256,-121 369,-121 369,-140"/>
<text text-anchor="middle" x="312.5" y="-128" font-family="Helvetica,sans-Serif" font-size="10.00">ciphers/hill_cipher.cpp</text>
</a>
</g>
</g>
<!-- Node2 -->
<g id="node2" class="node">
<title>Node2</title>
<g id="a_node2"><a xlink:title=" ">
<polygon fill="#e0e0e0" stroke="#999999" points="49,-79.5 0,-79.5 0,-60.5 49,-60.5 49,-79.5"/>
<text text-anchor="middle" x="24.5" y="-67.5" font-family="Helvetica,sans-Serif" font-size="10.00">cassert</text>
</a>
</g>
</g>
<!-- Node1&#45;&gt;Node2 -->
<g id="edge1" class="edge">
<title>Node1&#45;&gt;Node2</title>
<path fill="none" stroke="#63b8ff" d="M255.96,-123.17C203.95,-116.51 125.04,-104.28 58.5,-85 56.61,-84.45 54.69,-83.84 52.77,-83.17"/>
<polygon fill="#63b8ff" stroke="#63b8ff" points="53.89,-79.86 43.3,-79.59 51.42,-86.4 53.89,-79.86"/>
</g>
<!-- Node3 -->
<g id="node3" class="node">
<title>Node3</title>
<g id="a_node3"><a xlink:title=" ">
<polygon fill="#e0e0e0" stroke="#999999" points="111.5,-79.5 67.5,-79.5 67.5,-60.5 111.5,-60.5 111.5,-79.5"/>
<text text-anchor="middle" x="89.5" y="-67.5" font-family="Helvetica,sans-Serif" font-size="10.00">cmath</text>
</a>
</g>
</g>
<!-- Node1&#45;&gt;Node3 -->
<g id="edge2" class="edge">
<title>Node1&#45;&gt;Node3</title>
<path fill="none" stroke="#63b8ff" d="M263.63,-120.93C224.38,-113.39 168.15,-101.11 120.5,-85 119.1,-84.53 117.68,-84.01 116.25,-83.47"/>
<polygon fill="#63b8ff" stroke="#63b8ff" points="117.54,-80.22 106.96,-79.61 114.85,-86.68 117.54,-80.22"/>
</g>
<!-- Node4 -->
<g id="node4" class="node">
<title>Node4</title>
<g id="a_node4"><a xlink:title=" ">
<polygon fill="#e0e0e0" stroke="#999999" points="175.5,-79.5 129.5,-79.5 129.5,-60.5 175.5,-60.5 175.5,-79.5"/>
<text text-anchor="middle" x="152.5" y="-67.5" font-family="Helvetica,sans-Serif" font-size="10.00">cstring</text>
</a>
</g>
</g>
<!-- Node1&#45;&gt;Node4 -->
<g id="edge3" class="edge">
<title>Node1&#45;&gt;Node4</title>
<path fill="none" stroke="#63b8ff" d="M285.8,-120.89C259.76,-112.34 219.11,-98.56 184.5,-85 183.29,-84.53 182.06,-84.04 180.83,-83.53"/>
<polygon fill="#63b8ff" stroke="#63b8ff" points="181.92,-80.2 171.35,-79.54 179.2,-86.65 181.92,-80.2"/>
</g>
<!-- Node5 -->
<g id="node5" class="node">
<title>Node5</title>
<g id="a_node5"><a xlink:title=" ">
<polygon fill="#e0e0e0" stroke="#999999" points="235,-79.5 194,-79.5 194,-60.5 235,-60.5 235,-79.5"/>
<text text-anchor="middle" x="214.5" y="-67.5" font-family="Helvetica,sans-Serif" font-size="10.00">ctime</text>
</a>
</g>
</g>
<!-- Node1&#45;&gt;Node5 -->
<g id="edge4" class="edge">
<title>Node1&#45;&gt;Node5</title>
<path fill="none" stroke="#63b8ff" d="M298.04,-120.87C282.19,-111.41 256.53,-96.09 237.82,-84.92"/>
<polygon fill="#63b8ff" stroke="#63b8ff" points="239.4,-81.79 229.02,-79.67 235.81,-87.8 239.4,-81.79"/>
</g>
<!-- Node6 -->
<g id="node6" class="node">
<title>Node6</title>
<g id="a_node6"><a xlink:title=" ">
<polygon fill="#e0e0e0" stroke="#999999" points="303.5,-79.5 253.5,-79.5 253.5,-60.5 303.5,-60.5 303.5,-79.5"/>
<text text-anchor="middle" x="278.5" y="-67.5" font-family="Helvetica,sans-Serif" font-size="10.00">fstream</text>
</a>
</g>
</g>
<!-- Node1&#45;&gt;Node6 -->
<g id="edge5" class="edge">
<title>Node1&#45;&gt;Node6</title>
<path fill="none" stroke="#63b8ff" d="M307.48,-120.87C302.56,-112.4 294.91,-99.24 288.71,-88.57"/>
<polygon fill="#63b8ff" stroke="#63b8ff" points="291.59,-86.55 283.54,-79.67 285.54,-90.07 291.59,-86.55"/>
</g>
<!-- Node7 -->
<g id="node7" class="node">
<title>Node7</title>
<g id="a_node7"><a xlink:title=" ">
<polygon fill="#e0e0e0" stroke="#999999" points="371.5,-79.5 321.5,-79.5 321.5,-60.5 371.5,-60.5 371.5,-79.5"/>
<text text-anchor="middle" x="346.5" y="-67.5" font-family="Helvetica,sans-Serif" font-size="10.00">iomanip</text>
</a>
</g>
</g>
<!-- Node1&#45;&gt;Node7 -->
<g id="edge6" class="edge">
<title>Node1&#45;&gt;Node7</title>
<path fill="none" stroke="#63b8ff" d="M317.52,-120.87C322.44,-112.4 330.09,-99.24 336.29,-88.57"/>
<polygon fill="#63b8ff" stroke="#63b8ff" points="339.46,-90.07 341.46,-79.67 333.41,-86.55 339.46,-90.07"/>
</g>
<!-- Node8 -->
<g id="node8" class="node">
<title>Node8</title>
<g id="a_node8"><a xlink:title=" ">
<polygon fill="#e0e0e0" stroke="#999999" points="420.5,-19 366.5,-19 366.5,0 420.5,0 420.5,-19"/>
<text text-anchor="middle" x="393.5" y="-7" font-family="Helvetica,sans-Serif" font-size="10.00">iostream</text>
</a>
</g>
</g>
<!-- Node1&#45;&gt;Node8 -->
<g id="edge7" class="edge">
<title>Node1&#45;&gt;Node8</title>
<path fill="none" stroke="#63b8ff" d="M334.07,-120.99C349.49,-113.76 369.41,-101.85 380.5,-85 391.42,-68.41 393.97,-45.41 394.23,-29.37"/>
<polygon fill="#63b8ff" stroke="#63b8ff" points="397.73,-29.07 394.11,-19.11 390.73,-29.16 397.73,-29.07"/>
</g>
<!-- Node9 -->
<g id="node9" class="node">
<title>Node9</title>
<g id="a_node9"><a xlink:title=" ">
<polygon fill="#e0e0e0" stroke="#999999" points="635,-79.5 594,-79.5 594,-60.5 635,-60.5 635,-79.5"/>
<text text-anchor="middle" x="614.5" y="-67.5" font-family="Helvetica,sans-Serif" font-size="10.00">string</text>
</a>
</g>
</g>
<!-- Node1&#45;&gt;Node9 -->
<g id="edge8" class="edge">
<title>Node1&#45;&gt;Node9</title>
<path fill="none" stroke="#63b8ff" d="M369.01,-124.81C424.76,-119.13 511.92,-107.4 584.5,-85 585.94,-84.56 587.4,-84.05 588.86,-83.51"/>
<polygon fill="#63b8ff" stroke="#63b8ff" points="590.46,-86.64 598.32,-79.54 587.74,-80.19 590.46,-86.64"/>
</g>
<!-- Node10 -->
<g id="node10" class="node">
<title>Node10</title>
<g id="a_node10"><a xlink:title=" ">
<polygon fill="#e0e0e0" stroke="#999999" points="482.5,-19 438.5,-19 438.5,0 482.5,0 482.5,-19"/>
<text text-anchor="middle" x="460.5" y="-7" font-family="Helvetica,sans-Serif" font-size="10.00">omp.h</text>
</a>
</g>
</g>
<!-- Node1&#45;&gt;Node10 -->
<g id="edge9" class="edge">
<title>Node1&#45;&gt;Node10</title>
<path fill="none" stroke="#63b8ff" d="M335.76,-120.93C354.47,-113.32 380.81,-100.94 400.5,-85 420.79,-68.58 438.78,-44.24 449.65,-27.9"/>
<polygon fill="#63b8ff" stroke="#63b8ff" points="452.7,-29.62 455.19,-19.32 446.82,-25.82 452.7,-29.62"/>
</g>
<!-- Node11 -->
<g id="node11" class="node">
<title>Node11</title>
<g id="a_node11"><a xlink:href="../../d1/dbe/lu__decomposition_8h.html" target="_top" xlink:title="Functions associated with LU Decomposition of a square matrix.">
<polygon fill="white" stroke="#666666" points="575.5,-85 465.5,-85 465.5,-55 575.5,-55 575.5,-85"/>
<text text-anchor="start" x="473.5" y="-73" font-family="Helvetica,sans-Serif" font-size="10.00">../numerical_methods</text>
<text text-anchor="middle" x="520.5" y="-62" font-family="Helvetica,sans-Serif" font-size="10.00">/lu_decomposition.h</text>
</a>
</g>
</g>
<!-- Node1&#45;&gt;Node11 -->
<g id="edge10" class="edge">
<title>Node1&#45;&gt;Node11</title>
<path fill="none" stroke="#63b8ff" d="M342.74,-120.99C373.46,-112.35 421.87,-98.74 460.42,-87.9"/>
<polygon fill="#63b8ff" stroke="#63b8ff" points="461.81,-91.14 470.49,-85.06 459.92,-84.4 461.81,-91.14"/>
</g>
<!-- Node11&#45;&gt;Node8 -->
<g id="edge11" class="edge">
<title>Node11&#45;&gt;Node8</title>
<path fill="none" stroke="#63b8ff" d="M490.08,-54.99C469.27,-45.4 441.88,-32.79 421.59,-23.44"/>
<polygon fill="#63b8ff" stroke="#63b8ff" points="422.8,-20.14 412.26,-19.14 419.87,-26.5 422.8,-20.14"/>
</g>
<!-- Node11&#45;&gt;Node10 -->
<g id="edge14" class="edge">
<title>Node11&#45;&gt;Node10</title>
<path fill="none" stroke="#63b8ff" d="M505.98,-54.84C497.18,-46.26 485.93,-35.3 476.83,-26.42"/>
<polygon fill="#63b8ff" stroke="#63b8ff" points="479.09,-23.74 469.49,-19.27 474.21,-28.75 479.09,-23.74"/>
</g>
<!-- Node12 -->
<g id="node12" class="node">
<title>Node12</title>
<g id="a_node12"><a xlink:title=" ">
<polygon fill="#e0e0e0" stroke="#999999" points="552,-19 501,-19 501,0 552,0 552,-19"/>
<text text-anchor="middle" x="526.5" y="-7" font-family="Helvetica,sans-Serif" font-size="10.00">valarray</text>
</a>
</g>
</g>
<!-- Node11&#45;&gt;Node12 -->
<g id="edge12" class="edge">
<title>Node11&#45;&gt;Node12</title>
<path fill="none" stroke="#63b8ff" d="M521.95,-54.84C522.73,-47.21 523.71,-37.7 524.56,-29.45"/>
<polygon fill="#63b8ff" stroke="#63b8ff" points="528.06,-29.57 525.6,-19.27 521.1,-28.86 528.06,-29.57"/>
</g>
<!-- Node13 -->
<g id="node13" class="node">
<title>Node13</title>
<g id="a_node13"><a xlink:title=" ">
<polygon fill="#e0e0e0" stroke="#999999" points="614.5,-19 570.5,-19 570.5,0 614.5,0 614.5,-19"/>
<text text-anchor="middle" x="592.5" y="-7" font-family="Helvetica,sans-Serif" font-size="10.00">vector</text>
</a>
</g>
</g>
<!-- Node11&#45;&gt;Node13 -->
<g id="edge13" class="edge">
<title>Node11&#45;&gt;Node13</title>
<path fill="none" stroke="#63b8ff" d="M537.93,-54.84C548.81,-46 562.8,-34.63 573.89,-25.62"/>
<polygon fill="#63b8ff" stroke="#63b8ff" points="576.16,-28.29 581.71,-19.27 571.74,-22.86 576.16,-28.29"/>
</g>
</g>
</svg>
