<?xml version="1.0" encoding="UTF-8" standalone="no"?>
<!DOCTYPE svg PUBLIC "-//W3C//DTD SVG 1.1//EN"
 "http://www.w3.org/Graphics/SVG/1.1/DTD/svg11.dtd">
<!-- Generated by graphviz version 8.0.2 (20230410.1723)
 -->
<!-- Title: graph::bidirectional_dijkstra::Bidijkstra Pages: 1 -->
<svg width="266pt" height="141pt"
 viewBox="0.00 0.00 266.00 141.00" xmlns="http://www.w3.org/2000/svg" xmlns:xlink="http://www.w3.org/1999/xlink">
<g id="graph0" class="graph" transform="scale(1 1) rotate(0) translate(4 137)">
<title>graph::bidirectional_dijkstra::Bidijkstra</title>
<!-- Node1 -->
<g id="node1" class="node">
<title>Node1</title>
<g id="a_node1"><a xlink:title="Function runs the dijkstra algorithm for some source vertex and target vertex in the graph and return...">
<polygon fill="#999999" stroke="#666666" points="100,-101.5 0,-101.5 0,-71.5 100,-71.5 100,-101.5"/>
<text text-anchor="start" x="8" y="-89.5" font-family="Helvetica,sans-Serif" font-size="10.00">graph::bidirectional</text>
<text text-anchor="middle" x="50" y="-78.5" font-family="Helvetica,sans-Serif" font-size="10.00">_dijkstra::Bidijkstra</text>
</a>
</g>
</g>
<!-- Node1&#45;&gt;Node1 -->
<g id="edge1" class="edge">
<title>Node1&#45;&gt;Node1</title>
<path fill="none" stroke="#63b8ff" d="M24.16,-101.78C18.42,-110.91 27.03,-119.5 50,-119.5 63.28,-119.5 71.76,-116.63 75.44,-112.44"/>
<polygon fill="#63b8ff" stroke="#63b8ff" points="78.96,-112.9 75.84,-102.78 71.97,-112.64 78.96,-112.9"/>
</g>
<!-- Node2 -->
<g id="node2" class="node">
<title>Node2</title>
<g id="a_node2"><a target="_blank" xlink:href="http://en.cppreference.com/w/cpp/utility/pair/make_pair.html#" xlink:title=" ">
<polygon fill="white" stroke="#666666" points="237.5,-133 156.5,-133 156.5,-114 237.5,-114 237.5,-133"/>
<text text-anchor="middle" x="197" y="-121" font-family="Helvetica,sans-Serif" font-size="10.00">std::make_pair</text>
</a>
</g>
</g>
<!-- Node1&#45;&gt;Node2 -->
<g id="edge2" class="edge">
<title>Node1&#45;&gt;Node2</title>
<path fill="none" stroke="#63b8ff" d="M100.5,-99.13C115.42,-102.94 131.79,-107.11 146.69,-110.92"/>
<polygon fill="#63b8ff" stroke="#63b8ff" points="145.69,-114.53 156.25,-113.61 147.42,-107.75 145.69,-114.53"/>
</g>
<!-- Node3 -->
<g id="node3" class="node">
<title>Node3</title>
<g id="a_node3"><a target="_blank" xlink:href="http://en.cppreference.com/w/cpp/container/vector/push_back.html#" xlink:title=" ">
<polygon fill="white" stroke="#666666" points="255,-96 139,-96 139,-77 255,-77 255,-96"/>
<text text-anchor="middle" x="197" y="-84" font-family="Helvetica,sans-Serif" font-size="10.00">std::vector::push_back</text>
</a>
</g>
</g>
<!-- Node1&#45;&gt;Node3 -->
<g id="edge3" class="edge">
<title>Node1&#45;&gt;Node3</title>
<path fill="none" stroke="#63b8ff" d="M100.5,-86.5C109.34,-86.5 118.7,-86.5 127.95,-86.5"/>
<polygon fill="#63b8ff" stroke="#63b8ff" points="127.74,-90 137.74,-86.5 127.74,-83 127.74,-90"/>
</g>
<!-- Node4 -->
<g id="node4" class="node">
<title>Node4</title>
<g id="a_node4"><a xlink:href="../../d7/d07/bidirectional__dijkstra_8cpp.html#a22f1b7277e1dd4190f25014b48487ce6" target="_top" xlink:title="This function returns the shortest distance from the source to the target if there is path between ve...">
<polygon fill="white" stroke="#666666" points="258,-41 136,-41 136,0 258,0 258,-41"/>
<text text-anchor="start" x="144" y="-29" font-family="Helvetica,sans-Serif" font-size="10.00">graph::bidirectional</text>
<text text-anchor="start" x="144" y="-18" font-family="Helvetica,sans-Serif" font-size="10.00">_dijkstra::Shortest_Path</text>
<text text-anchor="middle" x="197" y="-7" font-family="Helvetica,sans-Serif" font-size="10.00">_Distance</text>
</a>
</g>
</g>
<!-- Node1&#45;&gt;Node4 -->
<g id="edge4" class="edge">
<title>Node1&#45;&gt;Node4</title>
<path fill="none" stroke="#63b8ff" d="M85,-71.03C101.39,-63.57 121.48,-54.42 140.04,-45.97"/>
<polygon fill="#63b8ff" stroke="#63b8ff" points="141.22,-48.83 148.87,-41.5 138.32,-42.46 141.22,-48.83"/>
</g>
<!-- Node4&#45;&gt;Node4 -->
<g id="edge5" class="edge">
<title>Node4&#45;&gt;Node4</title>
<path fill="none" stroke="#63b8ff" d="M169.87,-41.49C167.28,-50.88 176.33,-59 197,-59 209.27,-59 217.45,-56.14 221.52,-51.85"/>
<polygon fill="#63b8ff" stroke="#63b8ff" points="225.08,-53.04 224.13,-42.49 218.3,-51.33 225.08,-53.04"/>
</g>
</g>
</svg>
