<?xml version="1.0" encoding="UTF-8" standalone="no"?>
<!DOCTYPE svg PUBLIC "-//W3C//DTD SVG 1.1//EN"
 "http://www.w3.org/Graphics/SVG/1.1/DTD/svg11.dtd">
<!-- Generated by graphviz version 5.0.1 (20220820.1526)
 -->
<!-- Title: test Pages: 1 -->
<svg width="318pt" height="224pt"
 viewBox="0.00 0.00 318.00 224.00" xmlns="http://www.w3.org/2000/svg" xmlns:xlink="http://www.w3.org/1999/xlink">
<g id="graph0" class="graph" transform="scale(1 1) rotate(0) translate(4 220)">
<title>test</title>
<!-- Node1 -->
<g id="node1" class="node">
<title>Node1</title>
<g id="a_node1"><a xlink:title=" ">
<polygon fill="#999999" stroke="#666666" points="33,-115 0,-115 0,-96 33,-96 33,-115"/>
<text text-anchor="middle" x="16.5" y="-103" font-family="Helvetica,sans-Serif" font-size="10.00">test</text>
</a>
</g>
</g>
<!-- Node2 -->
<g id="node2" class="node">
<title>Node2</title>
<g id="a_node2"><a target="_blank" xlink:href="http://en.cppreference.com/w/cpp/container/array/begin.html#" xlink:title=" ">
<polygon fill="white" stroke="#666666" points="302,-216 215,-216 215,-197 302,-197 302,-216"/>
<text text-anchor="middle" x="258.5" y="-204" font-family="Helvetica,sans-Serif" font-size="10.00">std::array::begin</text>
</a>
</g>
</g>
<!-- Node1&#45;&gt;Node2 -->
<g id="edge1" class="edge">
<title>Node1&#45;&gt;Node2</title>
<path fill="none" stroke="#63b8ff" d="M21.58,-115.05C28.73,-130.53 45.07,-160.84 69,-175.5 109.84,-200.53 164.6,-207.18 204.57,-208.23"/>
<polygon fill="#63b8ff" stroke="#63b8ff" points="204.6,-211.73 214.65,-208.38 204.71,-204.73 204.6,-211.73"/>
</g>
<!-- Node3 -->
<g id="node3" class="node">
<title>Node3</title>
<g id="a_node3"><a target="_blank" xlink:href="http://en.cppreference.com/w/cpp/container/array/end.html#" xlink:title=" ">
<polygon fill="white" stroke="#666666" points="298.5,-177 218.5,-177 218.5,-158 298.5,-158 298.5,-177"/>
<text text-anchor="middle" x="258.5" y="-165" font-family="Helvetica,sans-Serif" font-size="10.00">std::array::end</text>
</a>
</g>
</g>
<!-- Node1&#45;&gt;Node3 -->
<g id="edge2" class="edge">
<title>Node1&#45;&gt;Node3</title>
<path fill="none" stroke="#63b8ff" d="M25.02,-115.24C34.1,-126.21 50.5,-143.53 69,-151.5 113.3,-170.59 168.82,-173.04 208.1,-171.66"/>
<polygon fill="#63b8ff" stroke="#63b8ff" points="208.38,-175.15 218.22,-171.21 208.07,-168.16 208.38,-175.15"/>
</g>
<!-- Node4 -->
<g id="node4" class="node">
<title>Node4</title>
<g id="a_node4"><a target="_blank" xlink:href="http://en.cppreference.com/w/cpp/algorithm/is_sorted.html#" xlink:title=" ">
<polygon fill="white" stroke="#666666" points="296.5,-97 220.5,-97 220.5,-78 296.5,-78 296.5,-97"/>
<text text-anchor="middle" x="258.5" y="-85" font-family="Helvetica,sans-Serif" font-size="10.00">std::is_sorted</text>
</a>
</g>
</g>
<!-- Node1&#45;&gt;Node4 -->
<g id="edge3" class="edge">
<title>Node1&#45;&gt;Node4</title>
<path fill="none" stroke="#63b8ff" d="M33.25,-104.32C68.61,-101.67 155.52,-95.15 210.17,-91.05"/>
<polygon fill="#63b8ff" stroke="#63b8ff" points="210.6,-94.53 220.31,-90.29 210.08,-87.55 210.6,-94.53"/>
</g>
<!-- Node5 -->
<g id="node5" class="node">
<title>Node5</title>
<g id="a_node5"><a target="_blank" xlink:href="http://en.cppreference.com/w/cpp/numeric/random/rand.html#" xlink:title=" ">
<polygon fill="white" stroke="#666666" points="147.5,-56 92.5,-56 92.5,-37 147.5,-37 147.5,-56"/>
<text text-anchor="middle" x="120" y="-44" font-family="Helvetica,sans-Serif" font-size="10.00">std::rand</text>
</a>
</g>
</g>
<!-- Node1&#45;&gt;Node5 -->
<g id="edge4" class="edge">
<title>Node1&#45;&gt;Node5</title>
<path fill="none" stroke="#63b8ff" d="M30.7,-95.72C40.9,-88.37 55.51,-78.26 69,-70.5 75.06,-67.01 81.7,-63.58 88.1,-60.44"/>
<polygon fill="#63b8ff" stroke="#63b8ff" points="89.71,-63.55 97.23,-56.09 86.69,-57.23 89.71,-63.55"/>
</g>
<!-- Node6 -->
<g id="node6" class="node">
<title>Node6</title>
<g id="a_node6"><a xlink:href="../../d5/d91/namespacesorting.html#affc6ee160142cd017f8c4b213437d0fd" target="_top" xlink:title=" ">
<polygon fill="white" stroke="#666666" points="171,-142.5 69,-142.5 69,-112.5 171,-112.5 171,-142.5"/>
<text text-anchor="start" x="77" y="-130.5" font-family="Helvetica,sans-Serif" font-size="10.00">sorting::randomized</text>
<text text-anchor="middle" x="120" y="-119.5" font-family="Helvetica,sans-Serif" font-size="10.00">_bogosort</text>
</a>
</g>
</g>
<!-- Node1&#45;&gt;Node6 -->
<g id="edge5" class="edge">
<title>Node1&#45;&gt;Node6</title>
<path fill="none" stroke="#63b8ff" d="M33.36,-108.94C40.56,-110.5 49.58,-112.45 59.03,-114.5"/>
<polygon fill="#63b8ff" stroke="#63b8ff" points="58.48,-117.96 68.99,-116.66 59.96,-111.12 58.48,-117.96"/>
</g>
<!-- Node8 -->
<g id="node8" class="node">
<title>Node8</title>
<g id="a_node8"><a xlink:href="../../d5/ddb/bogo__sort_8cpp.html#ae8adaeff66471f9ed84f2e673b38a859" target="_top" xlink:title=" ">
<polygon fill="white" stroke="#666666" points="153.5,-19 86.5,-19 86.5,0 153.5,0 153.5,-19"/>
<text text-anchor="middle" x="120" y="-7" font-family="Helvetica,sans-Serif" font-size="10.00">show_array</text>
</a>
</g>
</g>
<!-- Node1&#45;&gt;Node8 -->
<g id="edge10" class="edge">
<title>Node1&#45;&gt;Node8</title>
<path fill="none" stroke="#63b8ff" d="M21.39,-95.91C28.49,-79.58 45.02,-46.36 69,-27.5 71.57,-25.48 74.4,-23.67 77.35,-22.05"/>
<polygon fill="#63b8ff" stroke="#63b8ff" points="78.91,-25.19 86.47,-17.77 75.93,-18.85 78.91,-25.19"/>
</g>
<!-- Node6&#45;&gt;Node2 -->
<g id="edge6" class="edge">
<title>Node6&#45;&gt;Node2</title>
<path fill="none" stroke="#63b8ff" d="M140.35,-142.65C157.28,-155.43 182.87,-173.65 207,-186.5 211.3,-188.79 215.92,-190.97 220.56,-192.99"/>
<polygon fill="#63b8ff" stroke="#63b8ff" points="219.42,-196.31 230,-196.9 222.1,-189.84 219.42,-196.31"/>
</g>
<!-- Node6&#45;&gt;Node3 -->
<g id="edge7" class="edge">
<title>Node6&#45;&gt;Node3</title>
<path fill="none" stroke="#63b8ff" d="M171.05,-142.17C185.5,-146.4 201.13,-150.98 215.06,-155.06"/>
<polygon fill="#63b8ff" stroke="#63b8ff" points="214.29,-158.49 224.88,-157.94 216.26,-151.77 214.29,-158.49"/>
</g>
<!-- Node6&#45;&gt;Node4 -->
<g id="edge8" class="edge">
<title>Node6&#45;&gt;Node4</title>
<path fill="none" stroke="#63b8ff" d="M171.05,-112.83C185.5,-108.6 201.13,-104.02 215.06,-99.94"/>
<polygon fill="#63b8ff" stroke="#63b8ff" points="216.26,-103.23 224.88,-97.06 214.29,-96.51 216.26,-103.23"/>
</g>
<!-- Node7 -->
<g id="node7" class="node">
<title>Node7</title>
<g id="a_node7"><a target="_blank" xlink:href="http://en.cppreference.com/w/cpp/algorithm/random_shuffle.html#" xlink:title=" ">
<polygon fill="white" stroke="#666666" points="310,-137 207,-137 207,-118 310,-118 310,-137"/>
<text text-anchor="middle" x="258.5" y="-125" font-family="Helvetica,sans-Serif" font-size="10.00">std::random_shuffle</text>
</a>
</g>
</g>
<!-- Node6&#45;&gt;Node7 -->
<g id="edge9" class="edge">
<title>Node6&#45;&gt;Node7</title>
<path fill="none" stroke="#63b8ff" d="M171.05,-127.5C179.47,-127.5 188.3,-127.5 196.95,-127.5"/>
<polygon fill="#63b8ff" stroke="#63b8ff" points="197,-131 207,-127.5 197,-124 197,-131"/>
</g>
</g>
</svg>
