<?xml version="1.0" encoding="UTF-8" standalone="no"?>
<!DOCTYPE svg PUBLIC "-//W3C//DTD SVG 1.1//EN"
 "http://www.w3.org/Graphics/SVG/1.1/DTD/svg11.dtd">
<!-- Generated by graphviz version 2.44.1 (20200629.0846)
 -->
<!-- Title: main Pages: 1 -->
<svg width="392pt" height="218pt"
 viewBox="0.00 0.00 392.00 218.00" xmlns="http://www.w3.org/2000/svg" xmlns:xlink="http://www.w3.org/1999/xlink">
<g id="graph0" class="graph" transform="scale(1 1) rotate(0) translate(4 214)">
<title>main</title>
<polygon fill="white" stroke="transparent" points="-4,4 -4,-214 388,-214 388,4 -4,4"/>
<!-- Node1 -->
<g id="node1" class="node">
<title>Node1</title>
<g id="a_node1"><a xlink:title=" ">
<polygon fill="#bfbfbf" stroke="black" points="0,-66.5 0,-85.5 38,-85.5 38,-66.5 0,-66.5"/>
<text text-anchor="middle" x="19" y="-73.5" font-family="Helvetica,sans-Serif" font-size="10.00">main</text>
</a>
</g>
</g>
<!-- Node2 -->
<g id="node2" class="node">
<title>Node2</title>
<g id="a_node2"><a xlink:href="../../d5/d91/namespacesorting.html#a4c5bd73ffb6082f63dc57d8dcc76794f" target="_top" xlink:title=" ">
<polygon fill="white" stroke="black" points="143,-115 143,-145 245,-145 245,-115 143,-115"/>
<text text-anchor="start" x="151" y="-133" font-family="Helvetica,sans-Serif" font-size="10.00">sorting::randomized</text>
<text text-anchor="middle" x="194" y="-122" font-family="Helvetica,sans-Serif" font-size="10.00">_bogosort</text>
</a>
</g>
</g>
<!-- Node1&#45;&gt;Node2 -->
<g id="edge1" class="edge">
<title>Node1&#45;&gt;Node2</title>
<path fill="none" stroke="midnightblue" d="M38.41,-82.75C48.82,-86.49 62.08,-91.15 74,-95 93.11,-101.17 114.09,-107.49 133.03,-113.03"/>
<polygon fill="midnightblue" stroke="midnightblue" points="132.16,-116.42 142.74,-115.85 134.11,-109.69 132.16,-116.42"/>
</g>
<!-- Node7 -->
<g id="node7" class="node">
<title>Node7</title>
<g id="a_node7"><a xlink:href="../../d5/ddb/bogo__sort_8cpp.html#ae8adaeff66471f9ed84f2e673b38a859" target="_top" xlink:title=" ">
<polygon fill="white" stroke="black" points="160.5,-0.5 160.5,-19.5 227.5,-19.5 227.5,-0.5 160.5,-0.5"/>
<text text-anchor="middle" x="194" y="-7.5" font-family="Helvetica,sans-Serif" font-size="10.00">show_array</text>
</a>
</g>
</g>
<!-- Node1&#45;&gt;Node7 -->
<g id="edge6" class="edge">
<title>Node1&#45;&gt;Node7</title>
<path fill="none" stroke="midnightblue" d="M38.33,-68.98C62.37,-59.79 105.83,-43.16 143,-29 147.92,-27.13 153.11,-25.15 158.21,-23.21"/>
<polygon fill="midnightblue" stroke="midnightblue" points="159.71,-26.38 167.82,-19.56 157.23,-19.84 159.71,-26.38"/>
</g>
<!-- Node8 -->
<g id="node8" class="node">
<title>Node8</title>
<g id="a_node8"><a xlink:href="../../d5/ddb/bogo__sort_8cpp.html#ae1a3968e7947464bee7714f6d43b7002" target="_top" xlink:title=" ">
<polygon fill="white" stroke="black" points="74,-66.5 74,-85.5 107,-85.5 107,-66.5 74,-66.5"/>
<text text-anchor="middle" x="90.5" y="-73.5" font-family="Helvetica,sans-Serif" font-size="10.00">test</text>
</a>
</g>
</g>
<!-- Node1&#45;&gt;Node8 -->
<g id="edge7" class="edge">
<title>Node1&#45;&gt;Node8</title>
<path fill="none" stroke="midnightblue" d="M38.26,-76C46.07,-76 55.31,-76 63.79,-76"/>
<polygon fill="midnightblue" stroke="midnightblue" points="63.95,-79.5 73.95,-76 63.95,-72.5 63.95,-79.5"/>
</g>
<!-- Node3 -->
<g id="node3" class="node">
<title>Node3</title>
<g id="a_node3"><a target="_blank" xlink:href="http://en.cppreference.com/w/cpp/container/array/begin.html#" target="_top" xlink:title=" ">
<polygon fill="white" stroke="black" points="289,-190.5 289,-209.5 376,-209.5 376,-190.5 289,-190.5"/>
<text text-anchor="middle" x="332.5" y="-197.5" font-family="Helvetica,sans-Serif" font-size="10.00">std::array::begin</text>
</a>
</g>
</g>
<!-- Node2&#45;&gt;Node3 -->
<g id="edge2" class="edge">
<title>Node2&#45;&gt;Node3</title>
<path fill="none" stroke="midnightblue" d="M218.11,-145.22C235.09,-156.01 258.94,-170.41 281,-181 285.1,-182.97 289.46,-184.87 293.84,-186.67"/>
<polygon fill="midnightblue" stroke="midnightblue" points="292.76,-190.01 303.35,-190.41 295.32,-183.49 292.76,-190.01"/>
</g>
<!-- Node4 -->
<g id="node4" class="node">
<title>Node4</title>
<g id="a_node4"><a target="_blank" xlink:href="http://en.cppreference.com/w/cpp/container/array/end.html#" target="_top" xlink:title=" ">
<polygon fill="white" stroke="black" points="292.5,-152.5 292.5,-171.5 372.5,-171.5 372.5,-152.5 292.5,-152.5"/>
<text text-anchor="middle" x="332.5" y="-159.5" font-family="Helvetica,sans-Serif" font-size="10.00">std::array::end</text>
</a>
</g>
</g>
<!-- Node2&#45;&gt;Node4 -->
<g id="edge3" class="edge">
<title>Node2&#45;&gt;Node4</title>
<path fill="none" stroke="midnightblue" d="M245.05,-141.73C257.18,-144.58 270.13,-147.61 282.22,-150.45"/>
<polygon fill="midnightblue" stroke="midnightblue" points="281.6,-153.9 292.14,-152.77 283.2,-147.08 281.6,-153.9"/>
</g>
<!-- Node5 -->
<g id="node5" class="node">
<title>Node5</title>
<g id="a_node5"><a target="_blank" xlink:href="http://en.cppreference.com/w/cpp/algorithm/is_sorted.html#" target="_top" xlink:title=" ">
<polygon fill="white" stroke="black" points="294.5,-76.5 294.5,-95.5 370.5,-95.5 370.5,-76.5 294.5,-76.5"/>
<text text-anchor="middle" x="332.5" y="-83.5" font-family="Helvetica,sans-Serif" font-size="10.00">std::is_sorted</text>
</a>
</g>
</g>
<!-- Node2&#45;&gt;Node5 -->
<g id="edge4" class="edge">
<title>Node2&#45;&gt;Node5</title>
<path fill="none" stroke="midnightblue" d="M241.59,-114.98C257.94,-109.71 276.13,-103.85 291.86,-98.78"/>
<polygon fill="midnightblue" stroke="midnightblue" points="293.34,-101.98 301.79,-95.58 291.19,-95.32 293.34,-101.98"/>
</g>
<!-- Node6 -->
<g id="node6" class="node">
<title>Node6</title>
<g id="a_node6"><a target="_blank" xlink:href="http://en.cppreference.com/w/cpp/algorithm/random_shuffle.html#" target="_top" xlink:title=" ">
<polygon fill="white" stroke="black" points="281,-114.5 281,-133.5 384,-133.5 384,-114.5 281,-114.5"/>
<text text-anchor="middle" x="332.5" y="-121.5" font-family="Helvetica,sans-Serif" font-size="10.00">std::random_shuffle</text>
</a>
</g>
</g>
<!-- Node2&#45;&gt;Node6 -->
<g id="edge5" class="edge">
<title>Node2&#45;&gt;Node6</title>
<path fill="none" stroke="midnightblue" d="M245.05,-127.8C253.47,-127.43 262.3,-127.04 270.95,-126.66"/>
<polygon fill="midnightblue" stroke="midnightblue" points="271.16,-130.16 281,-126.22 270.85,-123.16 271.16,-130.16"/>
</g>
<!-- Node8&#45;&gt;Node2 -->
<g id="edge10" class="edge">
<title>Node8&#45;&gt;Node2</title>
<path fill="none" stroke="midnightblue" d="M107.36,-84.44C120.25,-91.3 138.96,-101.25 155.61,-110.11"/>
<polygon fill="midnightblue" stroke="midnightblue" points="154.12,-113.28 164.59,-114.89 157.41,-107.1 154.12,-113.28"/>
</g>
<!-- Node8&#45;&gt;Node5 -->
<g id="edge8" class="edge">
<title>Node8&#45;&gt;Node5</title>
<path fill="none" stroke="midnightblue" d="M107.25,-76.66C142.61,-78.13 229.52,-81.75 284.17,-84.03"/>
<polygon fill="midnightblue" stroke="midnightblue" points="284.18,-87.53 294.31,-84.45 284.47,-80.54 284.18,-87.53"/>
</g>
<!-- Node8&#45;&gt;Node7 -->
<g id="edge11" class="edge">
<title>Node8&#45;&gt;Node7</title>
<path fill="none" stroke="midnightblue" d="M100.12,-66.18C109.71,-55.76 126.09,-39.4 143,-29 146.15,-27.06 149.53,-25.27 153,-23.62"/>
<polygon fill="midnightblue" stroke="midnightblue" points="154.48,-26.79 162.26,-19.59 151.69,-20.37 154.48,-26.79"/>
</g>
<!-- Node9 -->
<g id="node9" class="node">
<title>Node9</title>
<g id="a_node9"><a target="_blank" xlink:href="http://en.cppreference.com/w/cpp/numeric/random/rand.html#" target="_top" xlink:title=" ">
<polygon fill="white" stroke="black" points="166.5,-38.5 166.5,-57.5 221.5,-57.5 221.5,-38.5 166.5,-38.5"/>
<text text-anchor="middle" x="194" y="-45.5" font-family="Helvetica,sans-Serif" font-size="10.00">std::rand</text>
</a>
</g>
</g>
<!-- Node8&#45;&gt;Node9 -->
<g id="edge9" class="edge">
<title>Node8&#45;&gt;Node9</title>
<path fill="none" stroke="midnightblue" d="M107.36,-71.62C120.38,-68.03 139.34,-62.8 156.11,-58.18"/>
<polygon fill="midnightblue" stroke="midnightblue" points="157.49,-61.43 166.2,-55.39 155.63,-54.68 157.49,-61.43"/>
</g>
</g>
</svg>
