<?xml version="1.0" encoding="UTF-8" standalone="no"?>
<!DOCTYPE svg PUBLIC "-//W3C//DTD SVG 1.1//EN"
 "http://www.w3.org/Graphics/SVG/1.1/DTD/svg11.dtd">
<!-- Generated by graphviz version 8.1.0 (20230707.0739)
 -->
<!-- Title: sorting::radix_sort::step_ith Pages: 1 -->
<svg width="225pt" height="57pt"
 viewBox="0.00 0.00 224.50 56.50" xmlns="http://www.w3.org/2000/svg" xmlns:xlink="http://www.w3.org/1999/xlink">
<g id="graph0" class="graph" transform="scale(1 1) rotate(0) translate(4 52.5)">
<title>sorting::radix_sort::step_ith</title>
<!-- Node1 -->
<g id="Node000001" class="node">
<title>Node1</title>
<g id="a_Node000001"><a xlink:title="Function to sort vector according to current digit using stable sorting.">
<polygon fill="#999999" stroke="#666666" points="94,-30.5 0,-30.5 0,0 94,0 94,-30.5"/>
<text text-anchor="start" x="8" y="-17" font-family="Helvetica,sans-Serif" font-size="10.00">sorting::radix_sort</text>
<text text-anchor="middle" x="47" y="-5.75" font-family="Helvetica,sans-Serif" font-size="10.00">::step_ith</text>
</a>
</g>
</g>
<!-- Node1&#45;&gt;Node1 -->
<g id="edge2_Node000001_Node000001" class="edge">
<title>Node1&#45;&gt;Node1</title>
<g id="a_edge2_Node000001_Node000001"><a xlink:title=" ">
<path fill="none" stroke="#63b8ff" d="M24.63,-30.99C20.06,-40.06 27.52,-48.5 47,-48.5 57.96,-48.5 65.11,-45.83 68.46,-41.88"/>
<polygon fill="#63b8ff" stroke="#63b8ff" points="72.03,-42.24 69.37,-31.99 65.05,-41.66 72.03,-42.24"/>
</a>
</g>
</g>
<!-- Node2 -->
<g id="Node000002" class="node">
<title>Node2</title>
<g id="a_Node000002"><a target="_blank" xlink:href="http://en.cppreference.com/w/cpp/container/vector/size.html#" xlink:title=" ">
<polygon fill="white" stroke="#666666" points="216.5,-24.88 130,-24.88 130,-5.63 216.5,-5.63 216.5,-24.88"/>
<text text-anchor="middle" x="173.25" y="-11.38" font-family="Helvetica,sans-Serif" font-size="10.00">std::vector::size</text>
</a>
</g>
</g>
<!-- Node1&#45;&gt;Node2 -->
<g id="edge1_Node000001_Node000002" class="edge">
<title>Node1&#45;&gt;Node2</title>
<g id="a_edge1_Node000001_Node000002"><a xlink:title=" ">
<path fill="none" stroke="#63b8ff" d="M94.27,-15.25C102.24,-15.25 110.58,-15.25 118.72,-15.25"/>
<polygon fill="#63b8ff" stroke="#63b8ff" points="118.64,-18.75 128.64,-15.25 118.64,-11.75 118.64,-18.75"/>
</a>
</g>
</g>
</g>
</svg>
