<?xml version="1.0" encoding="UTF-8" standalone="no"?>
<!DOCTYPE svg PUBLIC "-//W3C//DTD SVG 1.1//EN"
 "http://www.w3.org/Graphics/SVG/1.1/DTD/svg11.dtd">
<!-- Generated by graphviz version 8.1.0 (20230707.0739)
 -->
<!-- Title: sorting::radix_sort::radix Pages: 1 -->
<svg width="355pt" height="131pt"
 viewBox="0.00 0.00 354.50 130.88" xmlns="http://www.w3.org/2000/svg" xmlns:xlink="http://www.w3.org/1999/xlink">

<svg id="main" version="1.1" xmlns="http://www.w3.org/2000/svg" xmlns:xlink="http://www.w3.org/1999/xlink" xml:space="preserve" onload="init(evt)">
<style type="text/css"><![CDATA[
.node, .edge {opacity: 0.7;}
.node.selected, .edge.selected {opacity: 1;}
.edge:hover path { stroke: red; }
.edge:hover polygon { stroke: red; fill: red; }
]]></style>
<script type="application/ecmascript" xlink:href="../../svg.min.js"/>
<svg id="graph" class="graph">
<g id="graph0" class="graph" transform="scale(1 1) rotate(0) translate(4 126.88)">
<title>sorting::radix_sort::radix</title>
<!-- Node1 -->
<g id="Node000001" class="node">
<title>Node1</title>
<g id="a_Node000001"><a xlink:title="Function to sort vector digit by digit.">
<polygon fill="#999999" stroke="#666666" points="94,-91.5 0,-91.5 0,-61 94,-61 94,-91.5"/>
<text text-anchor="start" x="8" y="-78" font-family="Helvetica,sans-Serif" font-size="10.00">sorting::radix_sort</text>
<text text-anchor="middle" x="47" y="-66.75" font-family="Helvetica,sans-Serif" font-size="10.00">::radix</text>
</a>
</g>
</g>
<!-- Node1&#45;&gt;Node1 -->
<g id="edge3_Node000001_Node000001" class="edge">
<title>Node1&#45;&gt;Node1</title>
<g id="a_edge3_Node000001_Node000001"><a xlink:title=" ">
<path fill="none" stroke="#63b8ff" d="M23.96,-91.99C19.26,-101.06 26.94,-109.5 47,-109.5 58.28,-109.5 65.65,-106.83 69.1,-102.88"/>
<polygon fill="#63b8ff" stroke="#63b8ff" points="72.66,-103.25 70.04,-92.99 65.69,-102.65 72.66,-103.25"/>
</a>
</g>
</g>
<!-- Node2 -->
<g id="Node000002" class="node">
<title>Node2</title>
<g id="a_Node000002"><a target="_blank" xlink:href="http://en.cppreference.com/w/cpp/container/vector/begin.html#" xlink:title=" ">
<polygon fill="white" stroke="#666666" points="222.88,-122.88 131.12,-122.88 131.12,-103.62 222.88,-103.62 222.88,-122.88"/>
<text text-anchor="middle" x="177" y="-109.38" font-family="Helvetica,sans-Serif" font-size="10.00">std::vector::begin</text>
</a>
</g>
</g>
<!-- Node1&#45;&gt;Node2 -->
<g id="edge1_Node000001_Node000002" class="edge">
<title>Node1&#45;&gt;Node2</title>
<g id="a_edge1_Node000001_Node000002"><a xlink:title=" ">
<path fill="none" stroke="#63b8ff" d="M94.21,-89.61C106.05,-93.03 118.78,-96.71 130.58,-100.12"/>
<polygon fill="#63b8ff" stroke="#63b8ff" points="129.53,-103.75 140.11,-103.16 131.47,-97.02 129.53,-103.75"/>
</a>
</g>
</g>
<!-- Node3 -->
<g id="Node000003" class="node">
<title>Node3</title>
<g id="a_Node000003"><a target="_blank" xlink:href="http://en.cppreference.com/w/cpp/container/vector/end.html#" xlink:title=" ">
<polygon fill="white" stroke="#666666" points="219.12,-85.88 134.88,-85.88 134.88,-66.62 219.12,-66.62 219.12,-85.88"/>
<text text-anchor="middle" x="177" y="-72.38" font-family="Helvetica,sans-Serif" font-size="10.00">std::vector::end</text>
</a>
</g>
</g>
<!-- Node1&#45;&gt;Node3 -->
<g id="edge2_Node000001_Node000003" class="edge">
<title>Node1&#45;&gt;Node3</title>
<g id="a_edge2_Node000001_Node000003"><a xlink:title=" ">
<path fill="none" stroke="#63b8ff" d="M94.21,-76.25C103.78,-76.25 113.93,-76.25 123.71,-76.25"/>
<polygon fill="#63b8ff" stroke="#63b8ff" points="123.53,-79.75 133.53,-76.25 123.53,-72.75 123.53,-79.75"/>
</a>
</g>
</g>
<!-- Node4 -->
<g id="Node000004" class="node">
<title>Node4</title>
<g id="a_Node000004"><a xlink:href="../../d8/d61/radix__sort2_8cpp.html#a98ead7d43b11505398daf9a894f122f9" target="_top" xlink:title="Function to sort vector according to current digit using stable sorting.">
<polygon fill="white" stroke="#666666" points="224,-30.5 130,-30.5 130,0 224,0 224,-30.5"/>
<text text-anchor="start" x="138" y="-17" font-family="Helvetica,sans-Serif" font-size="10.00">sorting::radix_sort</text>
<text text-anchor="middle" x="177" y="-5.75" font-family="Helvetica,sans-Serif" font-size="10.00">::step_ith</text>
</a>
</g>
</g>
<!-- Node1&#45;&gt;Node4 -->
<g id="edge4_Node000001_Node000004" class="edge">
<title>Node1&#45;&gt;Node4</title>
<g id="a_edge4_Node000001_Node000004"><a xlink:title=" ">
<path fill="none" stroke="#63b8ff" d="M80.96,-60.54C96.94,-52.93 116.32,-43.69 133.4,-35.55"/>
<polygon fill="#63b8ff" stroke="#63b8ff" points="134.63,-38.37 142.15,-30.91 131.62,-32.05 134.63,-38.37"/>
</a>
</g>
</g>
<!-- Node4&#45;&gt;Node4 -->
<g id="edge6_Node000004_Node000004" class="edge">
<title>Node4&#45;&gt;Node4</title>
<g id="a_edge6_Node000004_Node000004"><a xlink:title=" ">
<path fill="none" stroke="#63b8ff" d="M154.63,-30.99C150.06,-40.06 157.52,-48.5 177,-48.5 187.96,-48.5 195.11,-45.83 198.46,-41.88"/>
<polygon fill="#63b8ff" stroke="#63b8ff" points="202.03,-42.24 199.37,-31.99 195.05,-41.66 202.03,-42.24"/>
</a>
</g>
</g>
<!-- Node5 -->
<g id="Node000005" class="node">
<title>Node5</title>
<g id="a_Node000005"><a target="_blank" xlink:href="http://en.cppreference.com/w/cpp/container/vector/size.html#" xlink:title=" ">
<polygon fill="white" stroke="#666666" points="346.5,-24.88 260,-24.88 260,-5.63 346.5,-5.63 346.5,-24.88"/>
<text text-anchor="middle" x="303.25" y="-11.38" font-family="Helvetica,sans-Serif" font-size="10.00">std::vector::size</text>
</a>
</g>
</g>
<!-- Node4&#45;&gt;Node5 -->
<g id="edge5_Node000004_Node000005" class="edge">
<title>Node4&#45;&gt;Node5</title>
<g id="a_edge5_Node000004_Node000005"><a xlink:title=" ">
<path fill="none" stroke="#63b8ff" d="M224.27,-15.25C232.24,-15.25 240.58,-15.25 248.72,-15.25"/>
<polygon fill="#63b8ff" stroke="#63b8ff" points="248.64,-18.75 258.64,-15.25 248.64,-11.75 248.64,-18.75"/>
</a>
</g>
</g>
</g>
</svg>
</svg>

<style type='text/css'>
<![CDATA[
[data-mouse-over-selected='false'] { opacity: 0.7; }
[data-mouse-over-selected='true']  { opacity: 1.0; }
]]>
</style>
<script type="application/ecmascript"><![CDATA[
document.addEventListener('DOMContentLoaded', (event) => {
  highlightEdges();
  highlightAdjacentNodes();
});
]]></script>
</svg>
