<?xml version="1.0" encoding="UTF-8" standalone="no"?>
<!DOCTYPE svg PUBLIC "-//W3C//DTD SVG 1.1//EN"
 "http://www.w3.org/Graphics/SVG/1.1/DTD/svg11.dtd">
<!-- Generated by graphviz version 7.0.6 (20230106.0513)
 -->
<!-- Title: main Pages: 1 -->
<svg width="248pt" height="101pt"
 viewBox="0.00 0.00 248.00 101.00" xmlns="http://www.w3.org/2000/svg" xmlns:xlink="http://www.w3.org/1999/xlink">
<g id="graph0" class="graph" transform="scale(1 1) rotate(0) translate(4 97)">
<title>main</title>
<!-- Node1 -->
<g id="node1" class="node">
<title>Node1</title>
<g id="a_node1"><a xlink:title="Main function.">
<polygon fill="#999999" stroke="#666666" points="38,-56 0,-56 0,-37 38,-37 38,-56"/>
<text text-anchor="middle" x="19" y="-44" font-family="Helvetica,sans-Serif" font-size="10.00">main</text>
</a>
</g>
</g>
<!-- Node2 -->
<g id="node2" class="node">
<title>Node2</title>
<g id="a_node2"><a xlink:href="../../d8/d61/radix__sort2_8cpp.html#a483bb8ccf42aaf7375a83e91490eda1e" target="_top" xlink:title="Function to test the above algorithm.">
<polygon fill="white" stroke="#666666" points="112,-56 74,-56 74,-37 112,-37 112,-56"/>
<text text-anchor="middle" x="93" y="-44" font-family="Helvetica,sans-Serif" font-size="10.00">tests</text>
</a>
</g>
</g>
<!-- Node1&#45;&gt;Node2 -->
<g id="edge1" class="edge">
<title>Node1&#45;&gt;Node2</title>
<path fill="none" stroke="#63b8ff" d="M38.17,-46.5C45.45,-46.5 54.02,-46.5 62.17,-46.5"/>
<polygon fill="#63b8ff" stroke="#63b8ff" points="62.07,-50 72.07,-46.5 62.07,-43 62.07,-50"/>
</g>
<!-- Node3 -->
<g id="node3" class="node">
<title>Node3</title>
<g id="a_node3"><a target="_blank" xlink:href="http://en.cppreference.com/w/cpp/container/vector/begin.html#" xlink:title=" ">
<polygon fill="white" stroke="#666666" points="240,-93 148,-93 148,-74 240,-74 240,-93"/>
<text text-anchor="middle" x="194" y="-81" font-family="Helvetica,sans-Serif" font-size="10.00">std::vector::begin</text>
</a>
</g>
</g>
<!-- Node2&#45;&gt;Node3 -->
<g id="edge2" class="edge">
<title>Node2&#45;&gt;Node3</title>
<path fill="none" stroke="#63b8ff" d="M112.16,-53.29C124.38,-57.85 140.92,-64.04 155.86,-69.62"/>
<polygon fill="#63b8ff" stroke="#63b8ff" points="154.36,-72.8 164.95,-73.02 156.81,-66.24 154.36,-72.8"/>
</g>
<!-- Node4 -->
<g id="node4" class="node">
<title>Node4</title>
<g id="a_node4"><a target="_blank" xlink:href="http://en.cppreference.com/w/cpp/container/vector/end.html#" xlink:title=" ">
<polygon fill="white" stroke="#666666" points="236.5,-56 151.5,-56 151.5,-37 236.5,-37 236.5,-56"/>
<text text-anchor="middle" x="194" y="-44" font-family="Helvetica,sans-Serif" font-size="10.00">std::vector::end</text>
</a>
</g>
</g>
<!-- Node2&#45;&gt;Node4 -->
<g id="edge3" class="edge">
<title>Node2&#45;&gt;Node4</title>
<path fill="none" stroke="#63b8ff" d="M112.16,-46.5C120.11,-46.5 129.89,-46.5 139.87,-46.5"/>
<polygon fill="#63b8ff" stroke="#63b8ff" points="139.62,-50 149.62,-46.5 139.62,-43 139.62,-50"/>
</g>
<!-- Node5 -->
<g id="node5" class="node">
<title>Node5</title>
<g id="a_node5"><a target="_blank" xlink:href="http://en.cppreference.com/w/cpp/algorithm/is_sorted.html#" xlink:title=" ">
<polygon fill="white" stroke="#666666" points="232,-19 156,-19 156,0 232,0 232,-19"/>
<text text-anchor="middle" x="194" y="-7" font-family="Helvetica,sans-Serif" font-size="10.00">std::is_sorted</text>
</a>
</g>
</g>
<!-- Node2&#45;&gt;Node5 -->
<g id="edge4" class="edge">
<title>Node2&#45;&gt;Node5</title>
<path fill="none" stroke="#63b8ff" d="M112.16,-39.71C124.38,-35.15 140.92,-28.96 155.86,-23.38"/>
<polygon fill="#63b8ff" stroke="#63b8ff" points="156.81,-26.76 164.95,-19.98 154.36,-20.2 156.81,-26.76"/>
</g>
</g>
</svg>
