<?xml version="1.0" encoding="UTF-8" standalone="no"?>
<!DOCTYPE svg PUBLIC "-//W3C//DTD SVG 1.1//EN"
 "http://www.w3.org/Graphics/SVG/1.1/DTD/svg11.dtd">
<!-- Generated by graphviz version 5.0.0 (20220707.1540)
 -->
<!-- Title: dynamic_programming/coin_change_topdown.cpp Pages: 1 -->
<svg width="255pt" height="95pt"
 viewBox="0.00 0.00 254.50 95.00" xmlns="http://www.w3.org/2000/svg" xmlns:xlink="http://www.w3.org/1999/xlink">
<g id="graph0" class="graph" transform="scale(1 1) rotate(0) translate(4 91)">
<title>dynamic_programming/coin_change_topdown.cpp</title>
<polygon fill="white" stroke="transparent" points="-4,4 -4,-91 250.5,-91 250.5,4 -4,4"/>
<!-- Node1 -->
<g id="node1" class="node">
<title>Node1</title>
<g id="a_node1"><a xlink:title="Minimum coins change problem is a problem used to find the minimum number of coins required to comple...">
<polygon fill="#bfbfbf" stroke="black" points="56,-56.5 56,-86.5 191,-86.5 191,-56.5 56,-56.5"/>
<text text-anchor="start" x="64" y="-74.5" font-family="Helvetica,sans-Serif" font-size="10.00">dynamic_programming</text>
<text text-anchor="middle" x="123.5" y="-63.5" font-family="Helvetica,sans-Serif" font-size="10.00">/coin_change_topdown.cpp</text>
</a>
</g>
</g>
<!-- Node2 -->
<g id="node2" class="node">
<title>Node2</title>
<g id="a_node2"><a xlink:title=" ">
<polygon fill="white" stroke="#bfbfbf" points="0,-0.5 0,-19.5 49,-19.5 49,-0.5 0,-0.5"/>
<text text-anchor="middle" x="24.5" y="-7.5" font-family="Helvetica,sans-Serif" font-size="10.00">cassert</text>
</a>
</g>
</g>
<!-- Node1&#45;&gt;Node2 -->
<g id="edge1" class="edge">
<title>Node1&#45;&gt;Node2</title>
<path fill="none" stroke="midnightblue" d="M100.04,-56.4C84.17,-46.86 63.31,-34.32 47.53,-24.84"/>
<polygon fill="midnightblue" stroke="midnightblue" points="49.28,-21.81 38.91,-19.66 45.67,-27.81 49.28,-21.81"/>
</g>
<!-- Node3 -->
<g id="node3" class="node">
<title>Node3</title>
<g id="a_node3"><a xlink:title=" ">
<polygon fill="white" stroke="#bfbfbf" points="67,-0.5 67,-19.5 112,-19.5 112,-0.5 67,-0.5"/>
<text text-anchor="middle" x="89.5" y="-7.5" font-family="Helvetica,sans-Serif" font-size="10.00">climits</text>
</a>
</g>
</g>
<!-- Node1&#45;&gt;Node3 -->
<g id="edge2" class="edge">
<title>Node1&#45;&gt;Node3</title>
<path fill="none" stroke="midnightblue" d="M115.44,-56.4C110.65,-48.02 104.54,-37.33 99.46,-28.42"/>
<polygon fill="midnightblue" stroke="midnightblue" points="102.45,-26.6 94.45,-19.66 96.37,-30.08 102.45,-26.6"/>
</g>
<!-- Node4 -->
<g id="node4" class="node">
<title>Node4</title>
<g id="a_node4"><a xlink:title=" ">
<polygon fill="white" stroke="#bfbfbf" points="130.5,-0.5 130.5,-19.5 184.5,-19.5 184.5,-0.5 130.5,-0.5"/>
<text text-anchor="middle" x="157.5" y="-7.5" font-family="Helvetica,sans-Serif" font-size="10.00">iostream</text>
</a>
</g>
</g>
<!-- Node1&#45;&gt;Node4 -->
<g id="edge3" class="edge">
<title>Node1&#45;&gt;Node4</title>
<path fill="none" stroke="midnightblue" d="M131.56,-56.4C136.35,-48.02 142.46,-37.33 147.54,-28.42"/>
<polygon fill="midnightblue" stroke="midnightblue" points="150.63,-30.08 152.55,-19.66 144.55,-26.6 150.63,-30.08"/>
</g>
<!-- Node5 -->
<g id="node5" class="node">
<title>Node5</title>
<g id="a_node5"><a xlink:title=" ">
<polygon fill="white" stroke="#bfbfbf" points="202.5,-0.5 202.5,-19.5 246.5,-19.5 246.5,-0.5 202.5,-0.5"/>
<text text-anchor="middle" x="224.5" y="-7.5" font-family="Helvetica,sans-Serif" font-size="10.00">vector</text>
</a>
</g>
</g>
<!-- Node1&#45;&gt;Node5 -->
<g id="edge4" class="edge">
<title>Node1&#45;&gt;Node5</title>
<path fill="none" stroke="midnightblue" d="M147.44,-56.4C163.63,-46.86 184.91,-34.32 201,-24.84"/>
<polygon fill="midnightblue" stroke="midnightblue" points="202.96,-27.75 209.8,-19.66 199.41,-21.72 202.96,-27.75"/>
</g>
</g>
</svg>
