<?xml version="1.0" encoding="UTF-8" standalone="no"?>
<!DOCTYPE svg PUBLIC "-//W3C//DTD SVG 1.1//EN"
 "http://www.w3.org/Graphics/SVG/1.1/DTD/svg11.dtd">
<!-- Generated by graphviz version 6.0.1 (20220911.1526)
 -->
<!-- Title: test_function Pages: 1 -->
<svg width="443pt" height="370pt"
 viewBox="0.00 0.00 443.00 370.36" xmlns="http://www.w3.org/2000/svg" xmlns:xlink="http://www.w3.org/1999/xlink">
<g id="graph0" class="graph" transform="scale(1 1) rotate(0) translate(4 366.36)">
<title>test_function</title>
<!-- Node1 -->
<g id="node1" class="node">
<title>Node1</title>
<g id="a_node1"><a xlink:title=" ">
<polygon fill="#999999" stroke="#666666" points="73,-175.36 0,-175.36 0,-156.36 73,-156.36 73,-175.36"/>
<text text-anchor="middle" x="36.5" y="-163.36" font-family="Helvetica,sans-Serif" font-size="10.00">test_function</text>
</a>
</g>
</g>
<!-- Node2 -->
<g id="node2" class="node">
<title>Node2</title>
<g id="a_node2"><a target="_blank" xlink:href="http://en.cppreference.com/w/cpp/io/manip/endl.html#" xlink:title=" ">
<polygon fill="white" stroke="#666666" points="213.5,-362.36 159.5,-362.36 159.5,-343.36 213.5,-343.36 213.5,-362.36"/>
<text text-anchor="middle" x="186.5" y="-350.36" font-family="Helvetica,sans-Serif" font-size="10.00">std::endl</text>
</a>
</g>
</g>
<!-- Node1&#45;&gt;Node2 -->
<g id="edge1" class="edge">
<title>Node1&#45;&gt;Node2</title>
<path fill="none" stroke="#63b8ff" d="M38.63,-175.58C42.53,-204.48 58.1,-290.47 109,-333.86 120.12,-343.34 135.27,-348.22 149.16,-350.68"/>
<polygon fill="#63b8ff" stroke="#63b8ff" points="149.05,-354.2 159.45,-352.13 150.03,-347.27 149.05,-354.2"/>
</g>
<!-- Node3 -->
<g id="node3" class="node">
<title>Node3</title>
<g id="a_node3"><a xlink:href="../../d7/d7c/classstatistics_1_1stats__computer1.html#a390697dcee210b91823ceff04b25081b" target="_top" xlink:title=" ">
<polygon fill="white" stroke="#666666" points="254,-324.86 119,-324.86 119,-294.86 254,-294.86 254,-324.86"/>
<text text-anchor="start" x="127" y="-312.86" font-family="Helvetica,sans-Serif" font-size="10.00">statistics::stats_computer1</text>
<text text-anchor="middle" x="186.5" y="-301.86" font-family="Helvetica,sans-Serif" font-size="10.00">::mean</text>
</a>
</g>
</g>
<!-- Node1&#45;&gt;Node3 -->
<g id="edge2" class="edge">
<title>Node1&#45;&gt;Node3</title>
<path fill="none" stroke="#63b8ff" d="M40.57,-175.57C48.27,-198.33 70.56,-255.49 109,-285.86 110.77,-287.26 112.63,-288.58 114.56,-289.83"/>
<polygon fill="#63b8ff" stroke="#63b8ff" points="112.92,-292.92 123.35,-294.81 116.37,-286.83 112.92,-292.92"/>
</g>
<!-- Node4 -->
<g id="node4" class="node">
<title>Node4</title>
<g id="a_node4"><a xlink:href="../../d8/dab/classstatistics_1_1stats__computer2.html#a8290966ad468f2a8c266d008bc60720e" target="_top" xlink:title=" ">
<polygon fill="white" stroke="#666666" points="254,-276.86 119,-276.86 119,-246.86 254,-246.86 254,-276.86"/>
<text text-anchor="start" x="127" y="-264.86" font-family="Helvetica,sans-Serif" font-size="10.00">statistics::stats_computer2</text>
<text text-anchor="middle" x="186.5" y="-253.86" font-family="Helvetica,sans-Serif" font-size="10.00">::mean</text>
</a>
</g>
</g>
<!-- Node1&#45;&gt;Node4 -->
<g id="edge3" class="edge">
<title>Node1&#45;&gt;Node4</title>
<path fill="none" stroke="#63b8ff" d="M44.71,-175.74C56.49,-191.19 81.31,-221.01 109,-237.86 111.79,-239.56 114.72,-241.15 117.73,-242.63"/>
<polygon fill="#63b8ff" stroke="#63b8ff" points="116.41,-245.88 126.97,-246.79 119.28,-239.49 116.41,-245.88"/>
</g>
<!-- Node5 -->
<g id="node5" class="node">
<title>Node5</title>
<g id="a_node5"><a xlink:href="../../d7/d7c/classstatistics_1_1stats__computer1.html#aa13bf7c38de112f71921a5525d71a2f2" target="_top" xlink:title=" ">
<polygon fill="white" stroke="#666666" points="254,-228.86 119,-228.86 119,-198.86 254,-198.86 254,-228.86"/>
<text text-anchor="start" x="127" y="-216.86" font-family="Helvetica,sans-Serif" font-size="10.00">statistics::stats_computer1</text>
<text text-anchor="middle" x="186.5" y="-205.86" font-family="Helvetica,sans-Serif" font-size="10.00">::new_val</text>
</a>
</g>
</g>
<!-- Node1&#45;&gt;Node5 -->
<g id="edge4" class="edge">
<title>Node1&#45;&gt;Node5</title>
<path fill="none" stroke="#63b8ff" d="M65.64,-175.45C78.79,-179.89 94.68,-185.21 109,-189.86 114.91,-191.78 121.08,-193.75 127.25,-195.71"/>
<polygon fill="#63b8ff" stroke="#63b8ff" points="126.3,-199.09 136.89,-198.77 128.41,-192.41 126.3,-199.09"/>
</g>
<!-- Node6 -->
<g id="node6" class="node">
<title>Node6</title>
<g id="a_node6"><a xlink:href="../../d8/dab/classstatistics_1_1stats__computer2.html#ade6de704deea24fdc88077b3d9a0d534" target="_top" xlink:title=" ">
<polygon fill="white" stroke="#666666" points="254,-180.86 119,-180.86 119,-150.86 254,-150.86 254,-180.86"/>
<text text-anchor="start" x="127" y="-168.86" font-family="Helvetica,sans-Serif" font-size="10.00">statistics::stats_computer2</text>
<text text-anchor="middle" x="186.5" y="-157.86" font-family="Helvetica,sans-Serif" font-size="10.00">::new_val</text>
</a>
</g>
</g>
<!-- Node1&#45;&gt;Node6 -->
<g id="edge5" class="edge">
<title>Node1&#45;&gt;Node6</title>
<path fill="none" stroke="#63b8ff" d="M73.33,-165.86C84.02,-165.86 96.18,-165.86 108.45,-165.86"/>
<polygon fill="#63b8ff" stroke="#63b8ff" points="108.75,-169.36 118.75,-165.86 108.75,-162.36 108.75,-169.36"/>
</g>
<!-- Node7 -->
<g id="node7" class="node">
<title>Node7</title>
<g id="a_node7"><a xlink:href="../../d7/d7c/classstatistics_1_1stats__computer1.html#af57e942d49f4fd70f059f224b4ac07e1" target="_top" xlink:title=" ">
<polygon fill="white" stroke="#666666" points="264,-94.36 109,-94.36 109,-75.36 264,-75.36 264,-94.36"/>
<text text-anchor="middle" x="186.5" y="-82.36" font-family="Helvetica,sans-Serif" font-size="10.00">statistics::stats_computer1::std</text>
</a>
</g>
</g>
<!-- Node1&#45;&gt;Node7 -->
<g id="edge6" class="edge">
<title>Node1&#45;&gt;Node7</title>
<path fill="none" stroke="#63b8ff" d="M47.3,-156.05C60.34,-143.5 84.61,-121.82 109,-108.86 117.3,-104.44 126.55,-100.69 135.67,-97.55"/>
<polygon fill="#63b8ff" stroke="#63b8ff" points="137.02,-100.79 145.46,-94.39 134.87,-94.13 137.02,-100.79"/>
</g>
<!-- Node9 -->
<g id="node9" class="node">
<title>Node9</title>
<g id="a_node9"><a xlink:href="../../d7/d7c/classstatistics_1_1stats__computer1.html#a27f0a03e2fd2254f1c81fe668226bd92" target="_top" xlink:title=" ">
<polygon fill="white" stroke="#666666" points="435,-133.86 300,-133.86 300,-103.86 435,-103.86 435,-133.86"/>
<text text-anchor="start" x="308" y="-121.86" font-family="Helvetica,sans-Serif" font-size="10.00">statistics::stats_computer1</text>
<text text-anchor="middle" x="367.5" y="-110.86" font-family="Helvetica,sans-Serif" font-size="10.00">::variance</text>
</a>
</g>
</g>
<!-- Node1&#45;&gt;Node9 -->
<g id="edge12" class="edge">
<title>Node1&#45;&gt;Node9</title>
<path fill="none" stroke="#63b8ff" d="M61.27,-156.31C75,-151.2 92.72,-145.27 109,-141.86 169.03,-129.29 238.33,-123.58 289.91,-121"/>
<polygon fill="#63b8ff" stroke="#63b8ff" points="290.16,-124.49 299.99,-120.52 289.83,-117.5 290.16,-124.49"/>
</g>
<!-- Node10 -->
<g id="node10" class="node">
<title>Node10</title>
<g id="a_node10"><a xlink:href="../../d8/dab/classstatistics_1_1stats__computer2.html#acf2e84df4fc386bb3295016ef8fd156e" target="_top" xlink:title=" ">
<polygon fill="white" stroke="#666666" points="264,-57.36 109,-57.36 109,-38.36 264,-38.36 264,-57.36"/>
<text text-anchor="middle" x="186.5" y="-45.36" font-family="Helvetica,sans-Serif" font-size="10.00">statistics::stats_computer2::std</text>
</a>
</g>
</g>
<!-- Node1&#45;&gt;Node10 -->
<g id="edge9" class="edge">
<title>Node1&#45;&gt;Node10</title>
<path fill="none" stroke="#63b8ff" d="M41.63,-156.23C50.71,-136.26 74.4,-90.25 109,-66.86 112.07,-64.78 115.35,-62.93 118.76,-61.28"/>
<polygon fill="#63b8ff" stroke="#63b8ff" points="120.17,-64.49 128.02,-57.38 117.45,-58.04 120.17,-64.49"/>
</g>
<!-- Node11 -->
<g id="node11" class="node">
<title>Node11</title>
<g id="a_node11"><a xlink:href="../../d8/dab/classstatistics_1_1stats__computer2.html#af6198817084276113b3c064e87ce0555" target="_top" xlink:title=" ">
<polygon fill="white" stroke="#666666" points="435,-37.86 300,-37.86 300,-7.86 435,-7.86 435,-37.86"/>
<text text-anchor="start" x="308" y="-25.86" font-family="Helvetica,sans-Serif" font-size="10.00">statistics::stats_computer2</text>
<text text-anchor="middle" x="367.5" y="-14.86" font-family="Helvetica,sans-Serif" font-size="10.00">::variance</text>
</a>
</g>
</g>
<!-- Node1&#45;&gt;Node11 -->
<g id="edge13" class="edge">
<title>Node1&#45;&gt;Node11</title>
<path fill="none" stroke="#63b8ff" d="M39.1,-156.32C44.03,-130.35 61.62,-58.34 109,-28.86 164.4,5.61 240.31,2.73 295.34,-6.11"/>
<polygon fill="#63b8ff" stroke="#63b8ff" points="294.92,-9.59 305.36,-7.83 296.1,-2.69 294.92,-9.59"/>
</g>
<!-- Node8 -->
<g id="node8" class="node">
<title>Node8</title>
<g id="a_node8"><a target="_blank" xlink:href="http://en.cppreference.com/w/cpp/numeric/math/sqrt.html#" xlink:title=" ">
<polygon fill="white" stroke="#666666" points="394,-82.36 341,-82.36 341,-63.36 394,-63.36 394,-82.36"/>
<text text-anchor="middle" x="367.5" y="-70.36" font-family="Helvetica,sans-Serif" font-size="10.00">std::sqrt</text>
</a>
</g>
</g>
<!-- Node7&#45;&gt;Node8 -->
<g id="edge7" class="edge">
<title>Node7&#45;&gt;Node8</title>
<path fill="none" stroke="#63b8ff" d="M264.19,-79.72C287.41,-78.16 311.8,-76.53 330.94,-75.24"/>
<polygon fill="#63b8ff" stroke="#63b8ff" points="331.25,-78.73 341,-74.57 330.79,-71.74 331.25,-78.73"/>
</g>
<!-- Node7&#45;&gt;Node9 -->
<g id="edge8" class="edge">
<title>Node7&#45;&gt;Node9</title>
<path fill="none" stroke="#63b8ff" d="M237.84,-94.42C253.92,-97.47 272.09,-100.93 289.61,-104.25"/>
<polygon fill="#63b8ff" stroke="#63b8ff" points="289.36,-107.77 299.83,-106.2 290.66,-100.89 289.36,-107.77"/>
</g>
<!-- Node10&#45;&gt;Node8 -->
<g id="edge10" class="edge">
<title>Node10&#45;&gt;Node8</title>
<path fill="none" stroke="#63b8ff" d="M255.68,-57.38C281.32,-60.96 309.44,-64.89 330.94,-67.89"/>
<polygon fill="#63b8ff" stroke="#63b8ff" points="330.54,-71.37 340.92,-69.29 331.5,-64.44 330.54,-71.37"/>
</g>
<!-- Node10&#45;&gt;Node11 -->
<g id="edge11" class="edge">
<title>Node10&#45;&gt;Node11</title>
<path fill="none" stroke="#63b8ff" d="M255.68,-38.34C266.92,-36.77 278.62,-35.13 290.04,-33.54"/>
<polygon fill="#63b8ff" stroke="#63b8ff" points="290.57,-37 299.99,-32.15 289.6,-30.06 290.57,-37"/>
</g>
</g>
</svg>
