<?xml version="1.0" encoding="UTF-8" standalone="no"?>
<!DOCTYPE svg PUBLIC "-//W3C//DTD SVG 1.1//EN"
 "http://www.w3.org/Graphics/SVG/1.1/DTD/svg11.dtd">
<!-- Generated by graphviz version 8.0.4 (20230421.1958)
 -->
<!-- Title: main Pages: 1 -->
<svg width="514pt" height="436pt"
 viewBox="0.00 0.00 513.75 436.33" xmlns="http://www.w3.org/2000/svg" xmlns:xlink="http://www.w3.org/1999/xlink">
<g id="graph0" class="graph" transform="scale(1 1) rotate(0) translate(4 432.33)">
<title>main</title>
<!-- Node1 -->
<g id="node1" class="node">
<title>Node1</title>
<g id="a_node1"><a xlink:title=" ">
<polygon fill="#999999" stroke="#666666" points="37,-225.7 0,-225.7 0,-206.45 37,-206.45 37,-225.7"/>
<text text-anchor="middle" x="18.5" y="-212.2" font-family="Helvetica,sans-Serif" font-size="10.00">main</text>
</a>
</g>
</g>
<!-- Node2 -->
<g id="node2" class="node">
<title>Node2</title>
<g id="a_node2"><a target="_blank" xlink:href="http://en.cppreference.com/w/cpp/io/manip/endl.html#" xlink:title=" ">
<polygon fill="white" stroke="#666666" points="285,-387.7 231.5,-387.7 231.5,-368.45 285,-368.45 285,-387.7"/>
<text text-anchor="middle" x="258.25" y="-374.2" font-family="Helvetica,sans-Serif" font-size="10.00">std::endl</text>
</a>
</g>
</g>
<!-- Node1&#45;&gt;Node2 -->
<g id="edge1" class="edge">
<title>Node1&#45;&gt;Node2</title>
<path fill="none" stroke="#63b8ff" d="M24.83,-226.15C33.41,-241.69 51.51,-271.82 73,-292.08 114.17,-330.88 129.13,-337.06 181.25,-359.08 193.65,-364.31 207.83,-368.34 220.55,-371.31"/>
<polygon fill="#63b8ff" stroke="#63b8ff" points="219.76,-374.94 230.28,-373.65 221.25,-368.1 219.76,-374.94"/>
</g>
<!-- Node3 -->
<g id="node3" class="node">
<title>Node3</title>
<g id="a_node3"><a xlink:href="../../d7/d7c/classstatistics_1_1stats__computer1.html#a390697dcee210b91823ceff04b25081b" target="_top" xlink:title=" ">
<polygon fill="white" stroke="#666666" points="325.5,-350.33 191,-350.33 191,-319.83 325.5,-319.83 325.5,-350.33"/>
<text text-anchor="start" x="199" y="-336.83" font-family="Helvetica,sans-Serif" font-size="10.00">statistics::stats_computer1</text>
<text text-anchor="middle" x="258.25" y="-325.58" font-family="Helvetica,sans-Serif" font-size="10.00">::mean</text>
</a>
</g>
</g>
<!-- Node1&#45;&gt;Node3 -->
<g id="edge2" class="edge">
<title>Node1&#45;&gt;Node3</title>
<path fill="none" stroke="#63b8ff" d="M29.5,-225.95C39.78,-235.73 56.57,-250.72 73,-261.08 110.59,-284.76 157.03,-303.35 193.88,-315.98"/>
<polygon fill="#63b8ff" stroke="#63b8ff" points="192.41,-319.51 203.01,-319.38 194.64,-312.87 192.41,-319.51"/>
</g>
<!-- Node4 -->
<g id="node4" class="node">
<title>Node4</title>
<g id="a_node4"><a xlink:href="../../d8/dab/classstatistics_1_1stats__computer2.html#a8290966ad468f2a8c266d008bc60720e" target="_top" xlink:title=" ">
<polygon fill="white" stroke="#666666" points="325.5,-301.33 191,-301.33 191,-270.83 325.5,-270.83 325.5,-301.33"/>
<text text-anchor="start" x="199" y="-287.83" font-family="Helvetica,sans-Serif" font-size="10.00">statistics::stats_computer2</text>
<text text-anchor="middle" x="258.25" y="-276.58" font-family="Helvetica,sans-Serif" font-size="10.00">::mean</text>
</a>
</g>
</g>
<!-- Node1&#45;&gt;Node4 -->
<g id="edge3" class="edge">
<title>Node1&#45;&gt;Node4</title>
<path fill="none" stroke="#63b8ff" d="M37.15,-223.59C47.49,-227.84 60.86,-233.09 73,-237.08 107.91,-248.53 147.18,-259.26 180.47,-267.74"/>
<polygon fill="#63b8ff" stroke="#63b8ff" points="179.5,-271.36 190.05,-270.42 181.22,-264.57 179.5,-271.36"/>
</g>
<!-- Node5 -->
<g id="node5" class="node">
<title>Node5</title>
<g id="a_node5"><a xlink:href="../../d7/d7c/classstatistics_1_1stats__computer1.html#aa13bf7c38de112f71921a5525d71a2f2" target="_top" xlink:title=" ">
<polygon fill="white" stroke="#666666" points="325.5,-252.33 191,-252.33 191,-221.83 325.5,-221.83 325.5,-252.33"/>
<text text-anchor="start" x="199" y="-238.83" font-family="Helvetica,sans-Serif" font-size="10.00">statistics::stats_computer1</text>
<text text-anchor="middle" x="258.25" y="-227.58" font-family="Helvetica,sans-Serif" font-size="10.00">::new_val</text>
</a>
</g>
</g>
<!-- Node1&#45;&gt;Node5 -->
<g id="edge4" class="edge">
<title>Node1&#45;&gt;Node5</title>
<path fill="none" stroke="#63b8ff" d="M37.37,-217.65C67.3,-220.3 129.26,-225.77 179.8,-230.23"/>
<polygon fill="#63b8ff" stroke="#63b8ff" points="179.46,-233.81 189.73,-231.2 180.07,-226.83 179.46,-233.81"/>
</g>
<!-- Node6 -->
<g id="node6" class="node">
<title>Node6</title>
<g id="a_node6"><a xlink:href="../../d8/dab/classstatistics_1_1stats__computer2.html#ade6de704deea24fdc88077b3d9a0d534" target="_top" xlink:title=" ">
<polygon fill="white" stroke="#666666" points="325.5,-52.33 191,-52.33 191,-21.83 325.5,-21.83 325.5,-52.33"/>
<text text-anchor="start" x="199" y="-38.83" font-family="Helvetica,sans-Serif" font-size="10.00">statistics::stats_computer2</text>
<text text-anchor="middle" x="258.25" y="-27.58" font-family="Helvetica,sans-Serif" font-size="10.00">::new_val</text>
</a>
</g>
</g>
<!-- Node1&#45;&gt;Node6 -->
<g id="edge5" class="edge">
<title>Node1&#45;&gt;Node6</title>
<path fill="none" stroke="#63b8ff" d="M21.96,-206.04C27.55,-185.12 43.13,-136.48 73,-108.08 102.39,-80.12 143.98,-62.84 180.2,-52.34"/>
<polygon fill="#63b8ff" stroke="#63b8ff" points="181.05,-55.46 189.75,-49.43 179.18,-48.71 181.05,-55.46"/>
</g>
<!-- Node7 -->
<g id="node7" class="node">
<title>Node7</title>
<g id="a_node7"><a xlink:href="../../d7/d7c/classstatistics_1_1stats__computer1.html#af57e942d49f4fd70f059f224b4ac07e1" target="_top" xlink:title=" ">
<polygon fill="white" stroke="#666666" points="335.25,-165.7 181.25,-165.7 181.25,-146.45 335.25,-146.45 335.25,-165.7"/>
<text text-anchor="middle" x="258.25" y="-152.2" font-family="Helvetica,sans-Serif" font-size="10.00">statistics::stats_computer1::std</text>
</a>
</g>
</g>
<!-- Node1&#45;&gt;Node7 -->
<g id="edge6" class="edge">
<title>Node1&#45;&gt;Node7</title>
<path fill="none" stroke="#63b8ff" d="M29.14,-206.29C39.15,-196.8 55.73,-182.87 73,-176.08 103.4,-164.11 138.66,-158.49 170.16,-156.06"/>
<polygon fill="#63b8ff" stroke="#63b8ff" points="170.38,-159.49 180.12,-155.33 169.91,-152.5 170.38,-159.49"/>
</g>
<!-- Node9 -->
<g id="node9" class="node">
<title>Node9</title>
<g id="a_node9"><a xlink:href="../../d7/d7c/classstatistics_1_1stats__computer1.html#a27f0a03e2fd2254f1c81fe668226bd92" target="_top" xlink:title=" ">
<polygon fill="white" stroke="#666666" points="505.75,-209.33 371.25,-209.33 371.25,-178.83 505.75,-178.83 505.75,-209.33"/>
<text text-anchor="start" x="379.25" y="-195.83" font-family="Helvetica,sans-Serif" font-size="10.00">statistics::stats_computer1</text>
<text text-anchor="middle" x="438.5" y="-184.58" font-family="Helvetica,sans-Serif" font-size="10.00">::variance</text>
</a>
</g>
</g>
<!-- Node1&#45;&gt;Node9 -->
<g id="edge22" class="edge">
<title>Node1&#45;&gt;Node9</title>
<path fill="none" stroke="#63b8ff" d="M22.02,-226.1C27.83,-247.55 43.95,-298.57 73,-331.08 153.09,-420.69 232.92,-460.11 335.25,-397.08 398.77,-357.95 424.23,-265.91 433.21,-220.44"/>
<polygon fill="#63b8ff" stroke="#63b8ff" points="436.82,-221.16 435.19,-210.69 429.94,-219.89 436.82,-221.16"/>
</g>
<!-- Node10 -->
<g id="node10" class="node">
<title>Node10</title>
<g id="a_node10"><a xlink:href="../../d8/dab/classstatistics_1_1stats__computer2.html#acf2e84df4fc386bb3295016ef8fd156e" target="_top" xlink:title=" ">
<polygon fill="white" stroke="#666666" points="335.25,-89.7 181.25,-89.7 181.25,-70.45 335.25,-70.45 335.25,-89.7"/>
<text text-anchor="middle" x="258.25" y="-76.2" font-family="Helvetica,sans-Serif" font-size="10.00">statistics::stats_computer2::std</text>
</a>
</g>
</g>
<!-- Node1&#45;&gt;Node10 -->
<g id="edge9" class="edge">
<title>Node1&#45;&gt;Node10</title>
<path fill="none" stroke="#63b8ff" d="M26.54,-206C35.99,-193.02 53.81,-170.32 73,-155.08 115.74,-121.12 130.09,-116.1 181.25,-97.08 185.13,-95.63 189.17,-94.29 193.28,-93.05"/>
<polygon fill="#63b8ff" stroke="#63b8ff" points="193.88,-96.23 202.56,-90.16 191.99,-89.49 193.88,-96.23"/>
</g>
<!-- Node11 -->
<g id="node11" class="node">
<title>Node11</title>
<g id="a_node11"><a xlink:href="../../d8/dab/classstatistics_1_1stats__computer2.html#af6198817084276113b3c064e87ce0555" target="_top" xlink:title=" ">
<polygon fill="white" stroke="#666666" points="505.75,-95.33 371.25,-95.33 371.25,-64.83 505.75,-64.83 505.75,-95.33"/>
<text text-anchor="start" x="379.25" y="-81.83" font-family="Helvetica,sans-Serif" font-size="10.00">statistics::stats_computer2</text>
<text text-anchor="middle" x="438.5" y="-70.58" font-family="Helvetica,sans-Serif" font-size="10.00">::variance</text>
</a>
</g>
</g>
<!-- Node1&#45;&gt;Node11 -->
<g id="edge23" class="edge">
<title>Node1&#45;&gt;Node11</title>
<path fill="none" stroke="#63b8ff" d="M20.29,-206.06C22.9,-179.33 33.49,-105.34 73,-62.08 108.61,-23.08 129.63,-24.21 181.25,-13.08 248.15,1.36 269.66,6.5 335.25,-13.08 364.35,-21.76 392.86,-41.67 412.35,-57.54"/>
<polygon fill="#63b8ff" stroke="#63b8ff" points="409.73,-60.75 419.65,-64.49 414.23,-55.38 409.73,-60.75"/>
</g>
<!-- Node12 -->
<g id="node12" class="node">
<title>Node12</title>
<g id="a_node12"><a xlink:href="../../d0/d08/realtime__stats_8cpp.html#aa54c915581fcc495489175a4386d59fd" target="_top" xlink:title=" ">
<polygon fill="white" stroke="#666666" points="145.25,-204.7 73,-204.7 73,-185.45 145.25,-185.45 145.25,-204.7"/>
<text text-anchor="middle" x="109.12" y="-191.2" font-family="Helvetica,sans-Serif" font-size="10.00">test_function</text>
</a>
</g>
</g>
<!-- Node1&#45;&gt;Node12 -->
<g id="edge12" class="edge">
<title>Node1&#45;&gt;Node12</title>
<path fill="none" stroke="#63b8ff" d="M37.43,-211.83C44.63,-210.12 53.28,-208.07 62.02,-206"/>
<polygon fill="#63b8ff" stroke="#63b8ff" points="62.71,-209.2 71.64,-203.48 61.1,-202.38 62.71,-209.2"/>
</g>
<!-- Node8 -->
<g id="node8" class="node">
<title>Node8</title>
<g id="a_node8"><a target="_blank" xlink:href="http://en.cppreference.com/w/cpp/numeric/math/sqrt.html#" xlink:title=" ">
<polygon fill="white" stroke="#666666" points="464.5,-146.7 412.5,-146.7 412.5,-127.45 464.5,-127.45 464.5,-146.7"/>
<text text-anchor="middle" x="438.5" y="-133.2" font-family="Helvetica,sans-Serif" font-size="10.00">std::sqrt</text>
</a>
</g>
</g>
<!-- Node7&#45;&gt;Node8 -->
<g id="edge7" class="edge">
<title>Node7&#45;&gt;Node8</title>
<path fill="none" stroke="#63b8ff" d="M335.62,-147.93C358.42,-145.5 382.36,-142.95 401.3,-140.93"/>
<polygon fill="#63b8ff" stroke="#63b8ff" points="401.53,-144.32 411.1,-139.78 400.79,-137.36 401.53,-144.32"/>
</g>
<!-- Node7&#45;&gt;Node9 -->
<g id="edge8" class="edge">
<title>Node7&#45;&gt;Node9</title>
<path fill="none" stroke="#63b8ff" d="M306.55,-166.16C323.02,-169.67 341.95,-173.71 360.21,-177.6"/>
<polygon fill="#63b8ff" stroke="#63b8ff" points="359.34,-181.21 369.85,-179.87 360.8,-174.36 359.34,-181.21"/>
</g>
<!-- Node10&#45;&gt;Node8 -->
<g id="edge10" class="edge">
<title>Node10&#45;&gt;Node8</title>
<path fill="none" stroke="#63b8ff" d="M290.71,-90.13C321.78,-100.07 369.23,-115.24 401.72,-125.63"/>
<polygon fill="#63b8ff" stroke="#63b8ff" points="400.53,-129.25 411.12,-128.96 402.66,-122.58 400.53,-129.25"/>
</g>
<!-- Node10&#45;&gt;Node11 -->
<g id="edge11" class="edge">
<title>Node10&#45;&gt;Node11</title>
<path fill="none" stroke="#63b8ff" d="M335.62,-80.08C343.68,-80.08 351.87,-80.08 359.94,-80.08"/>
<polygon fill="#63b8ff" stroke="#63b8ff" points="359.84,-83.58 369.84,-80.08 359.84,-76.58 359.84,-83.58"/>
</g>
<!-- Node12&#45;&gt;Node2 -->
<g id="edge13" class="edge">
<title>Node12&#45;&gt;Node2</title>
<path fill="none" stroke="#63b8ff" d="M111.37,-204.98C115.53,-233.57 131.54,-316.93 181.25,-359.08 192.14,-368.31 206.87,-373.16 220.47,-375.68"/>
<polygon fill="#63b8ff" stroke="#63b8ff" points="219.63,-379.24 230.03,-377.23 220.65,-372.31 219.63,-379.24"/>
</g>
<!-- Node12&#45;&gt;Node3 -->
<g id="edge14" class="edge">
<title>Node12&#45;&gt;Node3</title>
<path fill="none" stroke="#63b8ff" d="M113.55,-205.01C121.7,-227.17 144.37,-281.02 181.25,-310.08 183.11,-311.54 185.06,-312.92 187.08,-314.23"/>
<polygon fill="#63b8ff" stroke="#63b8ff" points="184.89,-317.57 195.32,-319.44 188.33,-311.48 184.89,-317.57"/>
</g>
<!-- Node12&#45;&gt;Node4 -->
<g id="edge15" class="edge">
<title>Node12&#45;&gt;Node4</title>
<path fill="none" stroke="#63b8ff" d="M118.3,-205C130.58,-219.3 155.13,-245.67 181.25,-261.08 184.24,-262.84 187.37,-264.5 190.59,-266.05"/>
<polygon fill="#63b8ff" stroke="#63b8ff" points="188.87,-269.57 199.44,-270.42 191.71,-263.17 188.87,-269.57"/>
</g>
<!-- Node12&#45;&gt;Node5 -->
<g id="edge16" class="edge">
<title>Node12&#45;&gt;Node5</title>
<path fill="none" stroke="#63b8ff" d="M145.37,-205.14C159.31,-209.12 175.81,-213.83 191.79,-218.39"/>
<polygon fill="#63b8ff" stroke="#63b8ff" points="190.61,-221.98 201.18,-221.36 192.53,-215.25 190.61,-221.98"/>
</g>
<!-- Node12&#45;&gt;Node6 -->
<g id="edge17" class="edge">
<title>Node12&#45;&gt;Node6</title>
<path fill="none" stroke="#63b8ff" d="M112.63,-184.99C119.31,-160.13 139.96,-95.46 181.25,-61.08 182.33,-60.18 183.44,-59.32 184.58,-58.48"/>
<polygon fill="#63b8ff" stroke="#63b8ff" points="186.18,-60.98 192.82,-52.72 182.48,-55.04 186.18,-60.98"/>
</g>
<!-- Node12&#45;&gt;Node7 -->
<g id="edge18" class="edge">
<title>Node12&#45;&gt;Node7</title>
<path fill="none" stroke="#63b8ff" d="M145.74,-185.63C164.64,-180.62 188.15,-174.39 208.69,-168.95"/>
<polygon fill="#63b8ff" stroke="#63b8ff" points="209.36,-172.13 218.13,-166.18 207.57,-165.36 209.36,-172.13"/>
</g>
<!-- Node12&#45;&gt;Node9 -->
<g id="edge20" class="edge">
<title>Node12&#45;&gt;Node9</title>
<path fill="none" stroke="#63b8ff" d="M145.47,-194.97C196.55,-194.81 292.33,-194.52 360.26,-194.31"/>
<polygon fill="#63b8ff" stroke="#63b8ff" points="359.92,-197.81 369.91,-194.28 359.9,-190.81 359.92,-197.81"/>
</g>
<!-- Node12&#45;&gt;Node10 -->
<g id="edge19" class="edge">
<title>Node12&#45;&gt;Node10</title>
<path fill="none" stroke="#63b8ff" d="M115.31,-184.97C125.43,-166.24 149.62,-126.02 181.25,-104.08 187.05,-100.05 193.57,-96.67 200.27,-93.85"/>
<polygon fill="#63b8ff" stroke="#63b8ff" points="201.07,-96.91 209.18,-90.09 198.59,-90.36 201.07,-96.91"/>
</g>
<!-- Node12&#45;&gt;Node11 -->
<g id="edge21" class="edge">
<title>Node12&#45;&gt;Node11</title>
<path fill="none" stroke="#63b8ff" d="M119.23,-185.21C131.86,-172.14 156.02,-149.31 181.25,-137.08 197.44,-129.23 291.14,-109.38 360.58,-95.31"/>
<polygon fill="#63b8ff" stroke="#63b8ff" points="360.96,-98.61 370.06,-93.2 359.57,-91.74 360.96,-98.61"/>
</g>
</g>
</svg>
