<?xml version="1.0" encoding="UTF-8" standalone="no"?>
<!DOCTYPE svg PUBLIC "-//W3C//DTD SVG 1.1//EN"
 "http://www.w3.org/Graphics/SVG/1.1/DTD/svg11.dtd">
<!-- Generated by graphviz version 2.44.0 (20200408.0750)
 -->
<!-- Title: main Pages: 1 -->
<svg width="490pt" height="388pt"
 viewBox="0.00 0.00 490.00 387.61" xmlns="http://www.w3.org/2000/svg" xmlns:xlink="http://www.w3.org/1999/xlink">
<g id="graph0" class="graph" transform="scale(1 1) rotate(0) translate(4 383.61)">
<title>main</title>
<polygon fill="white" stroke="transparent" points="-4,4 -4,-383.61 486,-383.61 486,4 -4,4"/>
<!-- Node1 -->
<g id="node1" class="node">
<title>Node1</title>
<g id="a_node1"><a xlink:title=" ">
<polygon fill="#bfbfbf" stroke="black" points="0,-190.08 0,-209.08 38,-209.08 38,-190.08 0,-190.08"/>
<text text-anchor="middle" x="19" y="-197.08" font-family="Helvetica,sans-Serif" font-size="10.00">main</text>
</a>
</g>
</g>
<!-- Node2 -->
<g id="node2" class="node">
<title>Node2</title>
<g id="a_node2"><a target="_parent" xlink:href="http://en.cppreference.com/w/cpp/io/manip/endl.html#" xlink:title=" ">
<polygon fill="white" stroke="black" points="221.5,-323.08 221.5,-342.08 275.5,-342.08 275.5,-323.08 221.5,-323.08"/>
<text text-anchor="middle" x="248.5" y="-330.08" font-family="Helvetica,sans-Serif" font-size="10.00">std::endl</text>
</a>
</g>
</g>
<!-- Node1&#45;&gt;Node2 -->
<g id="edge1" class="edge">
<title>Node1&#45;&gt;Node2</title>
<path fill="none" stroke="midnightblue" d="M25.35,-209.52C33.84,-224.45 51.74,-252.71 74,-269.58 115.43,-300.99 174.04,-317.9 211.4,-326.06"/>
<polygon fill="midnightblue" stroke="midnightblue" points="210.85,-329.52 221.35,-328.14 212.28,-322.67 210.85,-329.52"/>
</g>
<!-- Node3 -->
<g id="node3" class="node">
<title>Node3</title>
<g id="a_node3"><a xlink:href="../../d2/d0f/classstats__computer1.html#a4a277cbba67a6df8d5664c534a50f2a0" target="_top" xlink:title=" ">
<polygon fill="white" stroke="black" points="189,-285.08 189,-304.08 308,-304.08 308,-285.08 189,-285.08"/>
<text text-anchor="middle" x="248.5" y="-292.08" font-family="Helvetica,sans-Serif" font-size="10.00">stats_computer1::mean</text>
</a>
</g>
</g>
<!-- Node1&#45;&gt;Node3 -->
<g id="edge2" class="edge">
<title>Node1&#45;&gt;Node3</title>
<path fill="none" stroke="midnightblue" d="M29.92,-209.43C40.17,-219.1 57.02,-233.67 74,-242.58 109.73,-261.33 153.24,-274.35 187.75,-282.67"/>
<polygon fill="midnightblue" stroke="midnightblue" points="187.15,-286.13 197.69,-285 188.75,-279.31 187.15,-286.13"/>
</g>
<!-- Node4 -->
<g id="node4" class="node">
<title>Node4</title>
<g id="a_node4"><a xlink:href="../../dc/d02/classstats__computer2.html#aa8f654b856e649849cfcf1ec99a8a809" target="_top" xlink:title=" ">
<polygon fill="white" stroke="black" points="189,-247.08 189,-266.08 308,-266.08 308,-247.08 189,-247.08"/>
<text text-anchor="middle" x="248.5" y="-254.08" font-family="Helvetica,sans-Serif" font-size="10.00">stats_computer2::mean</text>
</a>
</g>
</g>
<!-- Node1&#45;&gt;Node4 -->
<g id="edge3" class="edge">
<title>Node1&#45;&gt;Node4</title>
<path fill="none" stroke="midnightblue" d="M38.23,-207.55C48.58,-211.84 61.85,-216.99 74,-220.58 108.2,-230.71 147.02,-239.04 179.25,-245.14"/>
<polygon fill="midnightblue" stroke="midnightblue" points="178.99,-248.65 189.47,-247.04 180.27,-241.77 178.99,-248.65"/>
</g>
<!-- Node5 -->
<g id="node5" class="node">
<title>Node5</title>
<g id="a_node5"><a xlink:href="../../d2/d0f/classstats__computer1.html#a9e41b44338568b77a937b2f6338826df" target="_top" xlink:title=" ">
<polygon fill="white" stroke="black" points="183,-209.08 183,-228.08 314,-228.08 314,-209.08 183,-209.08"/>
<text text-anchor="middle" x="248.5" y="-216.08" font-family="Helvetica,sans-Serif" font-size="10.00">stats_computer1::new_val</text>
</a>
</g>
</g>
<!-- Node1&#45;&gt;Node5 -->
<g id="edge4" class="edge">
<title>Node1&#45;&gt;Node5</title>
<path fill="none" stroke="midnightblue" d="M38.23,-201.11C67.17,-203.52 125.23,-208.37 172.86,-212.35"/>
<polygon fill="midnightblue" stroke="midnightblue" points="172.6,-215.84 182.85,-213.18 173.18,-208.86 172.6,-215.84"/>
</g>
<!-- Node6 -->
<g id="node6" class="node">
<title>Node6</title>
<g id="a_node6"><a xlink:href="../../dc/d02/classstats__computer2.html#a2b26832811bb8c4fff747a68923f9c0a" target="_top" xlink:title=" ">
<polygon fill="white" stroke="black" points="183,-19.08 183,-38.08 314,-38.08 314,-19.08 183,-19.08"/>
<text text-anchor="middle" x="248.5" y="-26.08" font-family="Helvetica,sans-Serif" font-size="10.00">stats_computer2::new_val</text>
</a>
</g>
</g>
<!-- Node1&#45;&gt;Node6 -->
<g id="edge5" class="edge">
<title>Node1&#45;&gt;Node6</title>
<path fill="none" stroke="midnightblue" d="M22.45,-190.01C28.13,-169.62 44.06,-121.44 74,-93.58 103.59,-66.04 145.95,-49.88 181.4,-40.55"/>
<polygon fill="midnightblue" stroke="midnightblue" points="182.35,-43.92 191.2,-38.1 180.65,-37.13 182.35,-43.92"/>
</g>
<!-- Node7 -->
<g id="node7" class="node">
<title>Node7</title>
<g id="a_node7"><a xlink:href="../../d2/d0f/classstats__computer1.html#a661caeb92f12b585a74abb15274154ba" target="_top" xlink:title=" ">
<polygon fill="white" stroke="black" points="194,-133.08 194,-152.08 303,-152.08 303,-133.08 194,-133.08"/>
<text text-anchor="middle" x="248.5" y="-140.08" font-family="Helvetica,sans-Serif" font-size="10.00">stats_computer1::std</text>
</a>
</g>
</g>
<!-- Node1&#45;&gt;Node7 -->
<g id="edge6" class="edge">
<title>Node1&#45;&gt;Node7</title>
<path fill="none" stroke="midnightblue" d="M30.23,-189.95C40.46,-180.96 57.06,-167.98 74,-161.58 108.81,-148.43 150.14,-143.53 183.74,-141.98"/>
<polygon fill="midnightblue" stroke="midnightblue" points="184.03,-145.47 193.9,-141.61 183.77,-138.48 184.03,-145.47"/>
</g>
<!-- Node9 -->
<g id="node9" class="node">
<title>Node9</title>
<g id="a_node9"><a xlink:href="../../d2/d0f/classstats__computer1.html#ac243048ca475adc0ecb81d414791b624" target="_top" xlink:title=" ">
<polygon fill="white" stroke="black" points="350,-171.08 350,-190.08 482,-190.08 482,-171.08 350,-171.08"/>
<text text-anchor="middle" x="416" y="-178.08" font-family="Helvetica,sans-Serif" font-size="10.00">stats_computer1::variance</text>
</a>
</g>
</g>
<!-- Node1&#45;&gt;Node9 -->
<g id="edge22" class="edge">
<title>Node1&#45;&gt;Node9</title>
<path fill="none" stroke="midnightblue" d="M22.8,-209.32C28.96,-229.15 45.45,-274.61 74,-301.58 153.2,-376.41 219.37,-405.59 314,-351.58 372.05,-318.45 400.1,-237.43 410.3,-200.06"/>
<polygon fill="midnightblue" stroke="midnightblue" points="413.69,-200.91 412.81,-190.35 406.92,-199.16 413.69,-200.91"/>
</g>
<!-- Node10 -->
<g id="node10" class="node">
<title>Node10</title>
<g id="a_node10"><a xlink:href="../../dc/d02/classstats__computer2.html#af42ab9133ead4806ea9ff821261bd09f" target="_top" xlink:title=" ">
<polygon fill="white" stroke="black" points="194,-57.08 194,-76.08 303,-76.08 303,-57.08 194,-57.08"/>
<text text-anchor="middle" x="248.5" y="-64.08" font-family="Helvetica,sans-Serif" font-size="10.00">stats_computer2::std</text>
</a>
</g>
</g>
<!-- Node1&#45;&gt;Node10 -->
<g id="edge9" class="edge">
<title>Node1&#45;&gt;Node10</title>
<path fill="none" stroke="midnightblue" d="M27.18,-189.83C36.79,-177.28 54.85,-155.31 74,-140.58 117.33,-107.25 132.03,-103.34 183,-83.58 187.18,-81.96 191.58,-80.44 196.02,-79.03"/>
<polygon fill="midnightblue" stroke="midnightblue" points="197.19,-82.33 205.77,-76.11 195.19,-75.63 197.19,-82.33"/>
</g>
<!-- Node11 -->
<g id="node11" class="node">
<title>Node11</title>
<g id="a_node11"><a xlink:href="../../dc/d02/classstats__computer2.html#a0973f6b8fe1108bde3265d3f9b8e604f" target="_top" xlink:title=" ">
<polygon fill="white" stroke="black" points="350,-57.08 350,-76.08 482,-76.08 482,-57.08 350,-57.08"/>
<text text-anchor="middle" x="416" y="-64.08" font-family="Helvetica,sans-Serif" font-size="10.00">stats_computer2::variance</text>
</a>
</g>
</g>
<!-- Node1&#45;&gt;Node11 -->
<g id="edge23" class="edge">
<title>Node1&#45;&gt;Node11</title>
<path fill="none" stroke="midnightblue" d="M20.66,-189.97C23,-163.62 33.05,-89.53 74,-48.58 110.38,-12.2 132.31,-18.38 183,-9.58 240.37,0.37 257.69,5.21 314,-9.58 344.4,-17.57 375.28,-37.01 394.75,-50.96"/>
<polygon fill="midnightblue" stroke="midnightblue" points="392.72,-53.82 402.85,-56.93 396.87,-48.18 392.72,-53.82"/>
</g>
<!-- Node12 -->
<g id="node12" class="node">
<title>Node12</title>
<g id="a_node12"><a xlink:href="../../d0/d08/realtime__stats_8cpp.html#aa54c915581fcc495489175a4386d59fd" target="_top" xlink:title=" ">
<polygon fill="white" stroke="black" points="74,-171.08 74,-190.08 147,-190.08 147,-171.08 74,-171.08"/>
<text text-anchor="middle" x="110.5" y="-178.08" font-family="Helvetica,sans-Serif" font-size="10.00">test_function</text>
</a>
</g>
</g>
<!-- Node1&#45;&gt;Node12 -->
<g id="edge12" class="edge">
<title>Node1&#45;&gt;Node12</title>
<path fill="none" stroke="midnightblue" d="M38.11,-195.74C45.61,-194.14 54.69,-192.22 63.81,-190.28"/>
<polygon fill="midnightblue" stroke="midnightblue" points="64.61,-193.69 73.66,-188.19 63.15,-186.84 64.61,-193.69"/>
</g>
<!-- Node8 -->
<g id="node8" class="node">
<title>Node8</title>
<g id="a_node8"><a target="_parent" xlink:href="http://en.cppreference.com/w/cpp/numeric/math/sqrt.html#" xlink:title=" ">
<polygon fill="white" stroke="black" points="389.5,-114.08 389.5,-133.08 442.5,-133.08 442.5,-114.08 389.5,-114.08"/>
<text text-anchor="middle" x="416" y="-121.08" font-family="Helvetica,sans-Serif" font-size="10.00">std::sqrt</text>
</a>
</g>
</g>
<!-- Node7&#45;&gt;Node8 -->
<g id="edge7" class="edge">
<title>Node7&#45;&gt;Node8</title>
<path fill="none" stroke="midnightblue" d="M303.23,-136.41C328.17,-133.55 357.12,-130.23 379.31,-127.68"/>
<polygon fill="midnightblue" stroke="midnightblue" points="379.77,-131.15 389.31,-126.53 378.97,-124.2 379.77,-131.15"/>
</g>
<!-- Node7&#45;&gt;Node9 -->
<g id="edge8" class="edge">
<title>Node7&#45;&gt;Node9</title>
<path fill="none" stroke="midnightblue" d="M291.26,-152.17C313.2,-157.21 340.28,-163.43 363.51,-168.76"/>
<polygon fill="midnightblue" stroke="midnightblue" points="363.01,-172.24 373.54,-171.06 364.57,-165.41 363.01,-172.24"/>
</g>
<!-- Node10&#45;&gt;Node8 -->
<g id="edge10" class="edge">
<title>Node10&#45;&gt;Node8</title>
<path fill="none" stroke="midnightblue" d="M277.2,-76.12C305.31,-85.8 348.93,-100.83 379.54,-111.37"/>
<polygon fill="midnightblue" stroke="midnightblue" points="378.79,-114.81 389.39,-114.76 381.07,-108.2 378.79,-114.81"/>
</g>
<!-- Node10&#45;&gt;Node11 -->
<g id="edge11" class="edge">
<title>Node10&#45;&gt;Node11</title>
<path fill="none" stroke="midnightblue" d="M303.23,-66.58C314.88,-66.58 327.41,-66.58 339.72,-66.58"/>
<polygon fill="midnightblue" stroke="midnightblue" points="339.98,-70.08 349.98,-66.58 339.98,-63.08 339.98,-70.08"/>
</g>
<!-- Node12&#45;&gt;Node2 -->
<g id="edge13" class="edge">
<title>Node12&#45;&gt;Node2</title>
<path fill="none" stroke="midnightblue" d="M113.92,-190.28C120.53,-214.8 141.28,-279.71 183,-313.58 191.16,-320.21 201.55,-324.52 211.6,-327.33"/>
<polygon fill="midnightblue" stroke="midnightblue" points="210.9,-330.76 221.44,-329.67 212.52,-323.95 210.9,-330.76"/>
</g>
<!-- Node12&#45;&gt;Node3 -->
<g id="edge14" class="edge">
<title>Node12&#45;&gt;Node3</title>
<path fill="none" stroke="midnightblue" d="M116.11,-190.29C125.75,-209.54 149.92,-252.65 183,-275.58 185.87,-277.57 188.95,-279.35 192.15,-280.95"/>
<polygon fill="midnightblue" stroke="midnightblue" points="190.85,-284.21 201.42,-284.99 193.65,-277.79 190.85,-284.21"/>
</g>
<!-- Node12&#45;&gt;Node4 -->
<g id="edge15" class="edge">
<title>Node12&#45;&gt;Node4</title>
<path fill="none" stroke="midnightblue" d="M121.27,-190.46C134.27,-203.08 158.5,-224.83 183,-237.58 187.3,-239.82 191.91,-241.84 196.61,-243.64"/>
<polygon fill="midnightblue" stroke="midnightblue" points="195.72,-247.03 206.31,-247.04 198.03,-240.43 195.72,-247.03"/>
</g>
<!-- Node12&#45;&gt;Node5 -->
<g id="edge16" class="edge">
<title>Node12&#45;&gt;Node5</title>
<path fill="none" stroke="midnightblue" d="M145.82,-190.17C163.29,-195.05 184.74,-201.05 203.43,-206.27"/>
<polygon fill="midnightblue" stroke="midnightblue" points="202.62,-209.68 213.19,-209 204.5,-202.93 202.62,-209.68"/>
</g>
<!-- Node12&#45;&gt;Node6 -->
<g id="edge17" class="edge">
<title>Node12&#45;&gt;Node6</title>
<path fill="none" stroke="midnightblue" d="M113.92,-170.88C120.53,-146.37 141.28,-81.46 183,-47.58 185.25,-45.75 187.67,-44.1 190.21,-42.61"/>
<polygon fill="midnightblue" stroke="midnightblue" points="191.82,-45.72 199.21,-38.12 188.7,-39.45 191.82,-45.72"/>
</g>
<!-- Node12&#45;&gt;Node7 -->
<g id="edge18" class="edge">
<title>Node12&#45;&gt;Node7</title>
<path fill="none" stroke="midnightblue" d="M145.82,-170.99C163.29,-166.11 184.74,-160.12 203.43,-154.9"/>
<polygon fill="midnightblue" stroke="midnightblue" points="204.5,-158.23 213.19,-152.17 202.62,-151.49 204.5,-158.23"/>
</g>
<!-- Node12&#45;&gt;Node9 -->
<g id="edge20" class="edge">
<title>Node12&#45;&gt;Node9</title>
<path fill="none" stroke="midnightblue" d="M147.21,-180.58C194.33,-180.58 278.5,-180.58 339.93,-180.58"/>
<polygon fill="midnightblue" stroke="midnightblue" points="339.96,-184.08 349.96,-180.58 339.96,-177.08 339.96,-184.08"/>
</g>
<!-- Node12&#45;&gt;Node10 -->
<g id="edge19" class="edge">
<title>Node12&#45;&gt;Node10</title>
<path fill="none" stroke="midnightblue" d="M116.7,-171.02C127.02,-152.87 151.83,-113.21 183,-90.58 188.65,-86.48 195.09,-83 201.65,-80.07"/>
<polygon fill="midnightblue" stroke="midnightblue" points="203.33,-83.17 211.28,-76.17 200.7,-76.68 203.33,-83.17"/>
</g>
<!-- Node12&#45;&gt;Node11 -->
<g id="edge21" class="edge">
<title>Node12&#45;&gt;Node11</title>
<path fill="none" stroke="midnightblue" d="M120.74,-170.97C133.53,-158.23 157.93,-135.91 183,-123.58 213.08,-108.79 297.68,-89.95 355.95,-78.08"/>
<polygon fill="midnightblue" stroke="midnightblue" points="356.67,-81.5 365.78,-76.09 355.28,-74.64 356.67,-81.5"/>
</g>
</g>
</svg>
