<?xml version="1.0" encoding="UTF-8" standalone="no"?>
<!DOCTYPE svg PUBLIC "-//W3C//DTD SVG 1.1//EN"
 "http://www.w3.org/Graphics/SVG/1.1/DTD/svg11.dtd">
<!-- Generated by graphviz version 9.0.0 (20230911.1827)
 -->
<!-- Title: lru_tests::test_1 Pages: 1 -->
<svg width="419pt" height="347pt"
 viewBox="0.00 0.00 419.00 347.25" xmlns="http://www.w3.org/2000/svg" xmlns:xlink="http://www.w3.org/1999/xlink">

<svg id="main" version="1.1" xmlns="http://www.w3.org/2000/svg" xmlns:xlink="http://www.w3.org/1999/xlink" xml:space="preserve" onload="init(evt)">
<style type="text/css"><![CDATA[
.node, .edge {opacity: 0.7;}
.node.selected, .edge.selected {opacity: 1;}
.edge:hover path { stroke: red; }
.edge:hover polygon { stroke: red; fill: red; }
]]></style>
<script type="application/ecmascript" xlink:href="../../svg.min.js"/>
<svg id="graph" class="graph">
<g id="graph0" class="graph" transform="scale(1 1) rotate(0) translate(4 343.25)">
<title>lru_tests::test_1</title>
<!-- Node1 -->
<g id="Node000001" class="node">
<title>Node1</title>
<g id="a_Node000001"><a xlink:title="A simple test case The assert statement will check expected hist and miss to resultant hits and miss.">
<polygon fill="#999999" stroke="#666666" points="86.5,-228.25 0,-228.25 0,-209 86.5,-209 86.5,-228.25"/>
<text text-anchor="middle" x="43.25" y="-214.75" font-family="Helvetica,sans-Serif" font-size="10.00">lru_tests::test_1</text>
</a>
</g>
</g>
<!-- Node1&#45;&gt;Node1 -->
<g id="edge13_Node000001_Node000001" class="edge">
<title>Node1&#45;&gt;Node1</title>
<g id="a_edge13_Node000001_Node000001"><a xlink:title=" ">
<path fill="none" stroke="#63b8ff" d="M20.78,-228.54C10.54,-237.15 18.03,-246.25 43.25,-246.25 57.04,-246.25 65.54,-243.53 68.72,-239.65"/>
<polygon fill="#63b8ff" stroke="#63b8ff" points="72.1,-238.74 66.11,-230 65.34,-240.57 72.1,-238.74"/>
</a>
</g>
</g>
<!-- Node2 -->
<g id="Node000002" class="node">
<title>Node2</title>
<g id="a_Node000002"><a xlink:href="../../d6/dae/classothers_1_1lru__cache_1_1_l_r_u_cache.html#aa24a141455b9fbcbec22392c28d04933" target="_top" xlink:title="A function to get page hits.">
<polygon fill="white" stroke="#666666" points="237.88,-282.88 135.62,-282.88 135.62,-252.38 237.88,-252.38 237.88,-282.88"/>
<text text-anchor="start" x="143.62" y="-269.38" font-family="Helvetica,sans-Serif" font-size="10.00">others::lru_cache::</text>
<text text-anchor="middle" x="186.75" y="-258.12" font-family="Helvetica,sans-Serif" font-size="10.00">LRUCache::getHits</text>
</a>
</g>
</g>
<!-- Node1&#45;&gt;Node2 -->
<g id="edge1_Node000001_Node000002" class="edge">
<title>Node1&#45;&gt;Node2</title>
<g id="a_edge1_Node000001_Node000002"><a xlink:title=" ">
<path fill="none" stroke="#63b8ff" d="M73.23,-228.66C89.46,-234.28 110.25,-241.48 129.54,-248.16"/>
<polygon fill="#63b8ff" stroke="#63b8ff" points="128.35,-251.45 138.94,-251.42 130.64,-244.84 128.35,-251.45"/>
</a>
</g>
</g>
<!-- Node3 -->
<g id="Node000003" class="node">
<title>Node3</title>
<g id="a_Node000003"><a xlink:href="../../d6/dae/classothers_1_1lru__cache_1_1_l_r_u_cache.html#a78be932dac71c90f485a67d4fda877e2" target="_top" xlink:title="A function to get page fault.">
<polygon fill="white" stroke="#666666" points="251,-233.88 122.5,-233.88 122.5,-203.38 251,-203.38 251,-233.88"/>
<text text-anchor="start" x="130.5" y="-220.38" font-family="Helvetica,sans-Serif" font-size="10.00">others::lru_cache::</text>
<text text-anchor="middle" x="186.75" y="-209.12" font-family="Helvetica,sans-Serif" font-size="10.00">LRUCache::getPageFault</text>
</a>
</g>
</g>
<!-- Node1&#45;&gt;Node3 -->
<g id="edge2_Node000001_Node000003" class="edge">
<title>Node1&#45;&gt;Node3</title>
<g id="a_edge2_Node000001_Node000003"><a xlink:title=" ">
<path fill="none" stroke="#63b8ff" d="M86.7,-218.62C94.37,-218.62 102.57,-218.62 110.84,-218.62"/>
<polygon fill="#63b8ff" stroke="#63b8ff" points="110.62,-222.13 120.62,-218.63 110.62,-215.13 110.62,-222.13"/>
</a>
</g>
</g>
<!-- Node4 -->
<g id="Node000004" class="node">
<title>Node4</title>
<g id="a_Node000004"><a xlink:href="../../d6/dae/classothers_1_1lru__cache_1_1_l_r_u_cache.html#a7dbf04bf7e1472c48639694f0b110602" target="_top" xlink:title="Refer to a page, or request a page from memory.">
<polygon fill="white" stroke="#666666" points="235.25,-184.88 138.25,-184.88 138.25,-154.38 235.25,-154.38 235.25,-184.88"/>
<text text-anchor="start" x="146.25" y="-171.38" font-family="Helvetica,sans-Serif" font-size="10.00">others::lru_cache::</text>
<text text-anchor="middle" x="186.75" y="-160.12" font-family="Helvetica,sans-Serif" font-size="10.00">LRUCache::refer</text>
</a>
</g>
</g>
<!-- Node1&#45;&gt;Node4 -->
<g id="edge3_Node000001_Node000004" class="edge">
<title>Node1&#45;&gt;Node4</title>
<g id="a_edge3_Node000001_Node000004"><a xlink:title=" ">
<path fill="none" stroke="#63b8ff" d="M73.23,-208.59C89.46,-202.97 110.25,-195.77 129.54,-189.09"/>
<polygon fill="#63b8ff" stroke="#63b8ff" points="130.64,-192.41 138.94,-185.83 128.35,-185.8 130.64,-192.41"/>
</a>
</g>
</g>
<!-- Node5 -->
<g id="Node000005" class="node">
<title>Node5</title>
<g id="a_Node000005"><a target="_blank" xlink:href="http://en.cppreference.com/w/cpp/container/list/back.html#" xlink:title=" ">
<polygon fill="white" stroke="#666666" points="386.62,-339.25 311.38,-339.25 311.38,-320 386.62,-320 386.62,-339.25"/>
<text text-anchor="middle" x="349" y="-325.75" font-family="Helvetica,sans-Serif" font-size="10.00">std::list::back</text>
</a>
</g>
</g>
<!-- Node4&#45;&gt;Node5 -->
<g id="edge4_Node000004_Node000005" class="edge">
<title>Node4&#45;&gt;Node5</title>
<g id="a_edge4_Node000004_Node000005"><a xlink:title=" ">
<path fill="none" stroke="#63b8ff" d="M235.66,-183.01C241.35,-186.13 246.67,-189.94 251,-194.62 287.94,-234.56 248.31,-273.38 287,-311.62 290.87,-315.45 295.51,-318.47 300.48,-320.85"/>
<polygon fill="#63b8ff" stroke="#63b8ff" points="299.01,-324.03 309.6,-324.36 301.52,-317.5 299.01,-324.03"/>
</a>
</g>
</g>
<!-- Node6 -->
<g id="Node000006" class="node">
<title>Node6</title>
<g id="a_Node000006"><a target="_blank" xlink:href="http://en.cppreference.com/w/cpp/container/list/begin.html#" xlink:title=" ">
<polygon fill="white" stroke="#666666" points="387.75,-302.25 310.25,-302.25 310.25,-283 387.75,-283 387.75,-302.25"/>
<text text-anchor="middle" x="349" y="-288.75" font-family="Helvetica,sans-Serif" font-size="10.00">std::list::begin</text>
</a>
</g>
</g>
<!-- Node4&#45;&gt;Node6 -->
<g id="edge5_Node000004_Node000006" class="edge">
<title>Node4&#45;&gt;Node6</title>
<g id="a_edge5_Node000004_Node000006"><a xlink:title=" ">
<path fill="none" stroke="#63b8ff" d="M235.45,-183.7C241.11,-186.7 246.47,-190.3 251,-194.62 279.2,-221.55 257.62,-248.99 287,-274.62 290.65,-277.81 294.84,-280.43 299.28,-282.59"/>
<polygon fill="#63b8ff" stroke="#63b8ff" points="297.96,-285.83 308.54,-286.27 300.54,-279.33 297.96,-285.83"/>
</a>
</g>
</g>
<!-- Node7 -->
<g id="Node000007" class="node">
<title>Node7</title>
<g id="a_Node000007"><a target="_blank" xlink:href="http://en.cppreference.com/w/cpp/container/unordered_map/end.html#" xlink:title=" ">
<polygon fill="white" stroke="#666666" points="411,-265.25 287,-265.25 287,-246 411,-246 411,-265.25"/>
<text text-anchor="middle" x="349" y="-251.75" font-family="Helvetica,sans-Serif" font-size="10.00">std::unordered_map::end</text>
</a>
</g>
</g>
<!-- Node4&#45;&gt;Node7 -->
<g id="edge6_Node000004_Node000007" class="edge">
<title>Node4&#45;&gt;Node7</title>
<g id="a_edge6_Node000004_Node000007"><a xlink:title=" ">
<path fill="none" stroke="#63b8ff" d="M235.04,-185.32C240.64,-188.03 246.1,-191.13 251,-194.62 271.02,-208.9 266.46,-223.11 287,-236.62 289.39,-238.2 291.92,-239.65 294.54,-240.98"/>
<polygon fill="#63b8ff" stroke="#63b8ff" points="292.99,-244.13 303.55,-244.97 295.82,-237.72 292.99,-244.13"/>
</a>
</g>
</g>
<!-- Node8 -->
<g id="Node000008" class="node">
<title>Node8</title>
<g id="a_Node000008"><a target="_blank" xlink:href="http://en.cppreference.com/w/cpp/container/unordered_map/erase.html#" xlink:title=" ">
<polygon fill="white" stroke="#666666" points="400.12,-227.88 297.88,-227.88 297.88,-197.38 400.12,-197.38 400.12,-227.88"/>
<text text-anchor="start" x="305.88" y="-214.38" font-family="Helvetica,sans-Serif" font-size="10.00">std::unordered_map</text>
<text text-anchor="middle" x="349" y="-203.12" font-family="Helvetica,sans-Serif" font-size="10.00">::erase</text>
</a>
</g>
</g>
<!-- Node4&#45;&gt;Node8 -->
<g id="edge7_Node000004_Node000008" class="edge">
<title>Node4&#45;&gt;Node8</title>
<g id="a_edge7_Node000004_Node000008"><a xlink:title=" ">
<path fill="none" stroke="#63b8ff" d="M235.4,-182.41C251.44,-186.72 269.58,-191.58 286.53,-196.13"/>
<polygon fill="#63b8ff" stroke="#63b8ff" points="285.44,-199.46 296.01,-198.67 287.26,-192.7 285.44,-199.46"/>
</a>
</g>
</g>
<!-- Node9 -->
<g id="Node000009" class="node">
<title>Node9</title>
<g id="a_Node000009"><a target="_blank" xlink:href="http://en.cppreference.com/w/cpp/container/list/erase.html#" xlink:title=" ">
<polygon fill="white" stroke="#666666" points="388.12,-179.25 309.88,-179.25 309.88,-160 388.12,-160 388.12,-179.25"/>
<text text-anchor="middle" x="349" y="-165.75" font-family="Helvetica,sans-Serif" font-size="10.00">std::list::erase</text>
</a>
</g>
</g>
<!-- Node4&#45;&gt;Node9 -->
<g id="edge8_Node000004_Node000009" class="edge">
<title>Node4&#45;&gt;Node9</title>
<g id="a_edge8_Node000004_Node000009"><a xlink:title=" ">
<path fill="none" stroke="#63b8ff" d="M235.4,-169.62C255.14,-169.62 278.05,-169.62 298.03,-169.62"/>
<polygon fill="#63b8ff" stroke="#63b8ff" points="297.9,-173.13 307.9,-169.63 297.9,-166.13 297.9,-173.13"/>
</a>
</g>
</g>
<!-- Node10 -->
<g id="Node000010" class="node">
<title>Node10</title>
<g id="a_Node000010"><a target="_blank" xlink:href="http://en.cppreference.com/w/cpp/container/unordered_map/find.html#" xlink:title=" ">
<polygon fill="white" stroke="#666666" points="400.12,-141.88 297.88,-141.88 297.88,-111.38 400.12,-111.38 400.12,-141.88"/>
<text text-anchor="start" x="305.88" y="-128.38" font-family="Helvetica,sans-Serif" font-size="10.00">std::unordered_map</text>
<text text-anchor="middle" x="349" y="-117.12" font-family="Helvetica,sans-Serif" font-size="10.00">::find</text>
</a>
</g>
</g>
<!-- Node4&#45;&gt;Node10 -->
<g id="edge9_Node000004_Node000010" class="edge">
<title>Node4&#45;&gt;Node10</title>
<g id="a_edge9_Node000004_Node000010"><a xlink:title=" ">
<path fill="none" stroke="#63b8ff" d="M235.4,-156.84C251.44,-152.53 269.58,-147.67 286.53,-143.12"/>
<polygon fill="#63b8ff" stroke="#63b8ff" points="287.26,-146.55 296.01,-140.58 285.44,-139.79 287.26,-146.55"/>
</a>
</g>
</g>
<!-- Node11 -->
<g id="Node000011" class="node">
<title>Node11</title>
<g id="a_Node000011"><a target="_blank" xlink:href="http://en.cppreference.com/w/cpp/container/list/pop_back.html#" xlink:title=" ">
<polygon fill="white" stroke="#666666" points="397.12,-93.25 300.88,-93.25 300.88,-74 397.12,-74 397.12,-93.25"/>
<text text-anchor="middle" x="349" y="-79.75" font-family="Helvetica,sans-Serif" font-size="10.00">std::list::pop_back</text>
</a>
</g>
</g>
<!-- Node4&#45;&gt;Node11 -->
<g id="edge10_Node000004_Node000011" class="edge">
<title>Node4&#45;&gt;Node11</title>
<g id="a_edge10_Node000004_Node000011"><a xlink:title=" ">
<path fill="none" stroke="#63b8ff" d="M207.23,-153.94C226.53,-139.04 257.39,-116.85 287,-102.62 290.77,-100.81 294.76,-99.12 298.81,-97.56"/>
<polygon fill="#63b8ff" stroke="#63b8ff" points="299.93,-100.87 308.17,-94.22 297.57,-94.28 299.93,-100.87"/>
</a>
</g>
</g>
<!-- Node12 -->
<g id="Node000012" class="node">
<title>Node12</title>
<g id="a_Node000012"><a target="_blank" xlink:href="http://en.cppreference.com/w/cpp/container/list/push_front.html#" xlink:title=" ">
<polygon fill="white" stroke="#666666" points="399,-56.25 299,-56.25 299,-37 399,-37 399,-56.25"/>
<text text-anchor="middle" x="349" y="-42.75" font-family="Helvetica,sans-Serif" font-size="10.00">std::list::push_front</text>
</a>
</g>
</g>
<!-- Node4&#45;&gt;Node12 -->
<g id="edge11_Node000004_Node000012" class="edge">
<title>Node4&#45;&gt;Node12</title>
<g id="a_edge11_Node000004_Node000012"><a xlink:title=" ">
<path fill="none" stroke="#63b8ff" d="M198.35,-153.98C214.71,-131.02 248.3,-88.37 287,-64.62 288.91,-63.46 290.89,-62.36 292.93,-61.33"/>
<polygon fill="#63b8ff" stroke="#63b8ff" points="294.33,-64.54 302.1,-57.34 291.54,-58.12 294.33,-64.54"/>
</a>
</g>
</g>
<!-- Node13 -->
<g id="Node000013" class="node">
<title>Node13</title>
<g id="a_Node000013"><a target="_blank" xlink:href="http://en.cppreference.com/w/cpp/container/list/size.html#" xlink:title=" ">
<polygon fill="white" stroke="#666666" points="385.12,-19.25 312.88,-19.25 312.88,0 385.12,0 385.12,-19.25"/>
<text text-anchor="middle" x="349" y="-5.75" font-family="Helvetica,sans-Serif" font-size="10.00">std::list::size</text>
</a>
</g>
</g>
<!-- Node4&#45;&gt;Node13 -->
<g id="edge12_Node000004_Node000013" class="edge">
<title>Node4&#45;&gt;Node13</title>
<g id="a_edge12_Node000004_Node000013"><a xlink:title=" ">
<path fill="none" stroke="#63b8ff" d="M194.26,-154.22C207.4,-125.02 239.89,-61.54 287,-27.62 291.47,-24.41 296.51,-21.76 301.74,-19.58"/>
<polygon fill="#63b8ff" stroke="#63b8ff" points="302.9,-22.89 311.16,-16.25 300.57,-16.29 302.9,-22.89"/>
</a>
</g>
</g>
</g>
</svg>
</svg>

<style type='text/css'>
<![CDATA[
[data-mouse-over-selected='false'] { opacity: 0.7; }
[data-mouse-over-selected='true']  { opacity: 1.0; }
]]>
</style>
<script type="application/ecmascript"><![CDATA[
document.addEventListener('DOMContentLoaded', (event) => {
  highlightEdges();
  highlightAdjacentNodes();
});
]]></script>
</svg>
