<?xml version="1.0" encoding="UTF-8" standalone="no"?>
<!DOCTYPE svg PUBLIC "-//W3C//DTD SVG 1.1//EN"
 "http://www.w3.org/Graphics/SVG/1.1/DTD/svg11.dtd">
<!-- Generated by graphviz version 12.1.2 (20240928.0832)
 -->
<!-- Title: main Pages: 1 -->
<svg width="370pt" height="390pt"
 viewBox="0.00 0.00 369.50 389.88" xmlns="http://www.w3.org/2000/svg" xmlns:xlink="http://www.w3.org/1999/xlink">
<g id="graph0" class="graph" transform="scale(1 1) rotate(0) translate(4 385.88)">
<title>main</title>
<!-- Node1 -->
<g id="Node000001" class="node">
<title>Node1</title>
<g id="a_Node000001"><a xlink:title="Main function.">
<polygon fill="#999999" stroke="#666666" points="37,-290.25 0,-290.25 0,-271 37,-271 37,-290.25"/>
<text text-anchor="middle" x="18.5" y="-276.75" font-family="Helvetica,sans-Serif" font-size="10.00">main</text>
</a>
</g>
</g>
<!-- Node2 -->
<g id="Node000002" class="node">
<title>Node2</title>
<g id="a_Node000002"><a xlink:href="../../d6/dae/classothers_1_1lru__cache_1_1_l_r_u_cache.html#aad506b1c1a3cd5b93cc7e497626bfb53" target="_top" xlink:title="A function to display the current cache.">
<polygon fill="white" stroke="#666666" points="188,-381.88 86.5,-381.88 86.5,-351.38 188,-351.38 188,-381.88"/>
<text text-anchor="start" x="94.5" y="-368.38" font-family="Helvetica,sans-Serif" font-size="10.00">others::lru_cache::</text>
<text text-anchor="middle" x="137.25" y="-357.12" font-family="Helvetica,sans-Serif" font-size="10.00">LRUCache::display</text>
</a>
</g>
</g>
<!-- Node1&#45;&gt;Node2 -->
<g id="edge1_Node000001_Node000002" class="edge">
<title>Node1&#45;&gt;Node2</title>
<g id="a_edge1_Node000001_Node000002"><a xlink:title=" ">
<path fill="none" stroke="#63b8ff" d="M26.88,-290.61C36.41,-302.95 54.05,-324 73,-337.62 77.03,-340.52 81.39,-343.23 85.87,-345.75"/>
<polygon fill="#63b8ff" stroke="#63b8ff" points="83.98,-348.71 94.46,-350.23 87.21,-342.5 83.98,-348.71"/>
</a>
</g>
</g>
<!-- Node3 -->
<g id="Node000003" class="node">
<title>Node3</title>
<g id="a_Node000003"><a target="_blank" xlink:href="http://en.cppreference.com/w/cpp/io/manip/endl.html#" xlink:title=" ">
<polygon fill="white" stroke="#666666" points="326.25,-376.25 272.75,-376.25 272.75,-357 326.25,-357 326.25,-376.25"/>
<text text-anchor="middle" x="299.5" y="-362.75" font-family="Helvetica,sans-Serif" font-size="10.00">std::endl</text>
</a>
</g>
</g>
<!-- Node1&#45;&gt;Node3 -->
<g id="edge3_Node000001_Node000003" class="edge">
<title>Node1&#45;&gt;Node3</title>
<g id="a_edge3_Node000001_Node000003"><a xlink:title=" ">
<path fill="none" stroke="#63b8ff" d="M37.05,-289.32C47.36,-294.22 60.74,-300.22 73,-304.62 107.78,-317.12 207.13,-343.2 261.63,-357.22"/>
<polygon fill="#63b8ff" stroke="#63b8ff" points="260.51,-360.55 271.07,-359.65 262.26,-353.77 260.51,-360.55"/>
</a>
</g>
</g>
<!-- Node4 -->
<g id="Node000004" class="node">
<title>Node4</title>
<g id="a_Node000004"><a xlink:href="../../d6/dae/classothers_1_1lru__cache_1_1_l_r_u_cache.html#aa24a141455b9fbcbec22392c28d04933" target="_top" xlink:title="A function to get page hits.">
<polygon fill="white" stroke="#666666" points="188.38,-295.88 86.12,-295.88 86.12,-265.38 188.38,-265.38 188.38,-295.88"/>
<text text-anchor="start" x="94.12" y="-282.38" font-family="Helvetica,sans-Serif" font-size="10.00">others::lru_cache::</text>
<text text-anchor="middle" x="137.25" y="-271.12" font-family="Helvetica,sans-Serif" font-size="10.00">LRUCache::getHits</text>
</a>
</g>
</g>
<!-- Node1&#45;&gt;Node4 -->
<g id="edge4_Node000001_Node000004" class="edge">
<title>Node1&#45;&gt;Node4</title>
<g id="a_edge4_Node000001_Node000004"><a xlink:title=" ">
<path fill="none" stroke="#63b8ff" d="M37.49,-280.62C47.58,-280.62 60.84,-280.62 74.34,-280.62"/>
<polygon fill="#63b8ff" stroke="#63b8ff" points="74.17,-284.13 84.17,-280.63 74.17,-277.13 74.17,-284.13"/>
</a>
</g>
</g>
<!-- Node5 -->
<g id="Node000005" class="node">
<title>Node5</title>
<g id="a_Node000005"><a xlink:href="../../d6/dae/classothers_1_1lru__cache_1_1_l_r_u_cache.html#a78be932dac71c90f485a67d4fda877e2" target="_top" xlink:title="A function to get page fault.">
<polygon fill="white" stroke="#666666" points="201.5,-246.88 73,-246.88 73,-216.38 201.5,-216.38 201.5,-246.88"/>
<text text-anchor="start" x="81" y="-233.38" font-family="Helvetica,sans-Serif" font-size="10.00">others::lru_cache::</text>
<text text-anchor="middle" x="137.25" y="-222.12" font-family="Helvetica,sans-Serif" font-size="10.00">LRUCache::getPageFault</text>
</a>
</g>
</g>
<!-- Node1&#45;&gt;Node5 -->
<g id="edge5_Node000001_Node000005" class="edge">
<title>Node1&#45;&gt;Node5</title>
<g id="a_edge5_Node000001_Node000005"><a xlink:title=" ">
<path fill="none" stroke="#63b8ff" d="M37.25,-272.42C47.62,-267.69 60.99,-261.69 73,-256.62 76.99,-254.94 81.13,-253.23 85.3,-251.53"/>
<polygon fill="#63b8ff" stroke="#63b8ff" points="86.28,-254.91 94.25,-247.92 83.66,-248.42 86.28,-254.91"/>
</a>
</g>
</g>
<!-- Node6 -->
<g id="Node000006" class="node">
<title>Node6</title>
<g id="a_Node000006"><a xlink:href="../../d6/dae/classothers_1_1lru__cache_1_1_l_r_u_cache.html#a7dbf04bf7e1472c48639694f0b110602" target="_top" xlink:title="Refer to a page, or request a page from memory.">
<polygon fill="white" stroke="#666666" points="185.75,-194.88 88.75,-194.88 88.75,-164.38 185.75,-164.38 185.75,-194.88"/>
<text text-anchor="start" x="96.75" y="-181.38" font-family="Helvetica,sans-Serif" font-size="10.00">others::lru_cache::</text>
<text text-anchor="middle" x="137.25" y="-170.12" font-family="Helvetica,sans-Serif" font-size="10.00">LRUCache::refer</text>
</a>
</g>
</g>
<!-- Node1&#45;&gt;Node6 -->
<g id="edge6_Node000001_Node000006" class="edge">
<title>Node1&#45;&gt;Node6</title>
<g id="a_edge6_Node000001_Node000006"><a xlink:title=" ">
<path fill="none" stroke="#63b8ff" d="M24.6,-270.6C32.88,-255.21 50.6,-225.65 73,-207.62 76.04,-205.18 79.33,-202.9 82.75,-200.79"/>
<polygon fill="#63b8ff" stroke="#63b8ff" points="84.29,-203.94 91.33,-196.02 80.89,-197.82 84.29,-203.94"/>
</a>
</g>
</g>
<!-- Node2&#45;&gt;Node3 -->
<g id="edge2_Node000002_Node000003" class="edge">
<title>Node2&#45;&gt;Node3</title>
<g id="a_edge2_Node000002_Node000003"><a xlink:title=" ">
<path fill="none" stroke="#63b8ff" d="M188.08,-366.62C211.64,-366.62 239.31,-366.62 261.06,-366.62"/>
<polygon fill="#63b8ff" stroke="#63b8ff" points="260.95,-370.13 270.95,-366.63 260.95,-363.13 260.95,-370.13"/>
</a>
</g>
</g>
<!-- Node7 -->
<g id="Node000007" class="node">
<title>Node7</title>
<g id="a_Node000007"><a target="_blank" xlink:href="http://en.cppreference.com/w/cpp/container/list/back.html#" xlink:title=" ">
<polygon fill="white" stroke="#666666" points="337.12,-339.25 261.88,-339.25 261.88,-320 337.12,-320 337.12,-339.25"/>
<text text-anchor="middle" x="299.5" y="-325.75" font-family="Helvetica,sans-Serif" font-size="10.00">std::list::back</text>
</a>
</g>
</g>
<!-- Node6&#45;&gt;Node7 -->
<g id="edge7_Node000006_Node000007" class="edge">
<title>Node6&#45;&gt;Node7</title>
<g id="a_edge7_Node000006_Node000007"><a xlink:title=" ">
<path fill="none" stroke="#63b8ff" d="M185.73,-195.31C191.56,-198.7 197.03,-202.76 201.5,-207.62 234.61,-243.63 202.12,-277.85 237.5,-311.62 241.44,-315.38 246.12,-318.36 251.11,-320.72"/>
<polygon fill="#63b8ff" stroke="#63b8ff" points="249.66,-323.91 260.25,-324.21 252.15,-317.37 249.66,-323.91"/>
</a>
</g>
</g>
<!-- Node8 -->
<g id="Node000008" class="node">
<title>Node8</title>
<g id="a_Node000008"><a target="_blank" xlink:href="http://en.cppreference.com/w/cpp/container/list/begin.html#" xlink:title=" ">
<polygon fill="white" stroke="#666666" points="338.25,-302.25 260.75,-302.25 260.75,-283 338.25,-283 338.25,-302.25"/>
<text text-anchor="middle" x="299.5" y="-288.75" font-family="Helvetica,sans-Serif" font-size="10.00">std::list::begin</text>
</a>
</g>
</g>
<!-- Node6&#45;&gt;Node8 -->
<g id="edge8_Node000006_Node000008" class="edge">
<title>Node6&#45;&gt;Node8</title>
<g id="a_edge8_Node000006_Node000008"><a xlink:title=" ">
<path fill="none" stroke="#63b8ff" d="M183.74,-195.29C190.14,-198.73 196.3,-202.81 201.5,-207.62 226.3,-230.6 211.26,-253.31 237.5,-274.62 241.21,-277.64 245.41,-280.15 249.83,-282.24"/>
<polygon fill="#63b8ff" stroke="#63b8ff" points="248.42,-285.45 259.01,-285.84 250.98,-278.93 248.42,-285.45"/>
</a>
</g>
</g>
<!-- Node9 -->
<g id="Node000009" class="node">
<title>Node9</title>
<g id="a_Node000009"><a target="_blank" xlink:href="http://en.cppreference.com/w/cpp/container/unordered_map/end.html#" xlink:title=" ">
<polygon fill="white" stroke="#666666" points="361.5,-265.25 237.5,-265.25 237.5,-246 361.5,-246 361.5,-265.25"/>
<text text-anchor="middle" x="299.5" y="-251.75" font-family="Helvetica,sans-Serif" font-size="10.00">std::unordered_map::end</text>
</a>
</g>
</g>
<!-- Node6&#45;&gt;Node9 -->
<g id="edge9_Node000006_Node000009" class="edge">
<title>Node6&#45;&gt;Node9</title>
<g id="a_edge9_Node000006_Node000009"><a xlink:title=" ">
<path fill="none" stroke="#63b8ff" d="M178.26,-195.31C186.17,-198.97 194.26,-203.13 201.5,-207.62 219.19,-218.61 219.13,-227.81 237.5,-237.62 240.01,-238.97 242.64,-240.22 245.33,-241.4"/>
<polygon fill="#63b8ff" stroke="#63b8ff" points="243.93,-244.61 254.52,-244.96 246.47,-238.08 243.93,-244.61"/>
</a>
</g>
</g>
<!-- Node10 -->
<g id="Node000010" class="node">
<title>Node10</title>
<g id="a_Node000010"><a target="_blank" xlink:href="http://en.cppreference.com/w/cpp/container/list/erase.html#" xlink:title=" ">
<polygon fill="white" stroke="#666666" points="338.62,-228.25 260.38,-228.25 260.38,-209 338.62,-209 338.62,-228.25"/>
<text text-anchor="middle" x="299.5" y="-214.75" font-family="Helvetica,sans-Serif" font-size="10.00">std::list::erase</text>
</a>
</g>
</g>
<!-- Node6&#45;&gt;Node10 -->
<g id="edge10_Node000006_Node000010" class="edge">
<title>Node6&#45;&gt;Node10</title>
<g id="a_edge10_Node000006_Node000010"><a xlink:title=" ">
<path fill="none" stroke="#63b8ff" d="M185.9,-191.22C205.73,-196.05 228.77,-201.65 248.81,-206.53"/>
<polygon fill="#63b8ff" stroke="#63b8ff" points="247.9,-209.91 258.44,-208.88 249.55,-203.11 247.9,-209.91"/>
</a>
</g>
</g>
<!-- Node11 -->
<g id="Node000011" class="node">
<title>Node11</title>
<g id="a_Node000011"><a target="_blank" xlink:href="http://en.cppreference.com/w/cpp/container/unordered_map/erase.html#" xlink:title=" ">
<polygon fill="white" stroke="#666666" points="350.62,-190.88 248.38,-190.88 248.38,-160.38 350.62,-160.38 350.62,-190.88"/>
<text text-anchor="start" x="256.38" y="-177.38" font-family="Helvetica,sans-Serif" font-size="10.00">std::unordered_map</text>
<text text-anchor="middle" x="299.5" y="-166.12" font-family="Helvetica,sans-Serif" font-size="10.00">::erase</text>
</a>
</g>
</g>
<!-- Node6&#45;&gt;Node11 -->
<g id="edge11_Node000006_Node000011" class="edge">
<title>Node6&#45;&gt;Node11</title>
<g id="a_edge11_Node000006_Node000011"><a xlink:title=" ">
<path fill="none" stroke="#63b8ff" d="M185.9,-178.44C201.79,-178.04 219.73,-177.59 236.55,-177.17"/>
<polygon fill="#63b8ff" stroke="#63b8ff" points="236.55,-180.67 246.46,-176.92 236.37,-173.67 236.55,-180.67"/>
</a>
</g>
</g>
<!-- Node12 -->
<g id="Node000012" class="node">
<title>Node12</title>
<g id="a_Node000012"><a target="_blank" xlink:href="http://en.cppreference.com/w/cpp/container/unordered_map/find.html#" xlink:title=" ">
<polygon fill="white" stroke="#666666" points="350.62,-141.88 248.38,-141.88 248.38,-111.38 350.62,-111.38 350.62,-141.88"/>
<text text-anchor="start" x="256.38" y="-128.38" font-family="Helvetica,sans-Serif" font-size="10.00">std::unordered_map</text>
<text text-anchor="middle" x="299.5" y="-117.12" font-family="Helvetica,sans-Serif" font-size="10.00">::find</text>
</a>
</g>
</g>
<!-- Node6&#45;&gt;Node12 -->
<g id="edge12_Node000006_Node000012" class="edge">
<title>Node6&#45;&gt;Node12</title>
<g id="a_edge12_Node000006_Node000012"><a xlink:title=" ">
<path fill="none" stroke="#63b8ff" d="M185.46,-164.01C202.67,-158.32 222.33,-151.82 240.37,-145.85"/>
<polygon fill="#63b8ff" stroke="#63b8ff" points="241.24,-149.25 249.63,-142.79 239.04,-142.6 241.24,-149.25"/>
</a>
</g>
</g>
<!-- Node13 -->
<g id="Node000013" class="node">
<title>Node13</title>
<g id="a_Node000013"><a target="_blank" xlink:href="http://en.cppreference.com/w/cpp/container/list/pop_back.html#" xlink:title=" ">
<polygon fill="white" stroke="#666666" points="347.62,-93.25 251.38,-93.25 251.38,-74 347.62,-74 347.62,-93.25"/>
<text text-anchor="middle" x="299.5" y="-79.75" font-family="Helvetica,sans-Serif" font-size="10.00">std::list::pop_back</text>
</a>
</g>
</g>
<!-- Node6&#45;&gt;Node13 -->
<g id="edge13_Node000006_Node000013" class="edge">
<title>Node6&#45;&gt;Node13</title>
<g id="a_edge13_Node000006_Node000013"><a xlink:title=" ">
<path fill="none" stroke="#63b8ff" d="M154.52,-163.98C173.2,-146.78 205.4,-119.37 237.5,-102.62 240.95,-100.83 244.6,-99.16 248.32,-97.63"/>
<polygon fill="#63b8ff" stroke="#63b8ff" points="249.38,-100.97 257.53,-94.2 246.93,-94.42 249.38,-100.97"/>
</a>
</g>
</g>
<!-- Node14 -->
<g id="Node000014" class="node">
<title>Node14</title>
<g id="a_Node000014"><a target="_blank" xlink:href="http://en.cppreference.com/w/cpp/container/list/push_front.html#" xlink:title=" ">
<polygon fill="white" stroke="#666666" points="349.5,-56.25 249.5,-56.25 249.5,-37 349.5,-37 349.5,-56.25"/>
<text text-anchor="middle" x="299.5" y="-42.75" font-family="Helvetica,sans-Serif" font-size="10.00">std::list::push_front</text>
</a>
</g>
</g>
<!-- Node6&#45;&gt;Node14 -->
<g id="edge14_Node000006_Node000014" class="edge">
<title>Node6&#45;&gt;Node14</title>
<g id="a_edge14_Node000006_Node000014"><a xlink:title=" ">
<path fill="none" stroke="#63b8ff" d="M147.46,-164.1C162.93,-139.35 196.5,-91.07 237.5,-64.62 239.34,-63.44 241.27,-62.32 243.25,-61.28"/>
<polygon fill="#63b8ff" stroke="#63b8ff" points="244.48,-64.57 252.16,-57.27 241.6,-58.18 244.48,-64.57"/>
</a>
</g>
</g>
<!-- Node15 -->
<g id="Node000015" class="node">
<title>Node15</title>
<g id="a_Node000015"><a target="_blank" xlink:href="http://en.cppreference.com/w/cpp/container/list/size.html#" xlink:title=" ">
<polygon fill="white" stroke="#666666" points="335.62,-19.25 263.38,-19.25 263.38,0 335.62,0 335.62,-19.25"/>
<text text-anchor="middle" x="299.5" y="-5.75" font-family="Helvetica,sans-Serif" font-size="10.00">std::list::size</text>
</a>
</g>
</g>
<!-- Node6&#45;&gt;Node15 -->
<g id="edge15_Node000006_Node000015" class="edge">
<title>Node6&#45;&gt;Node15</title>
<g id="a_edge15_Node000006_Node000015"><a xlink:title=" ">
<path fill="none" stroke="#63b8ff" d="M144.07,-164.1C156.42,-133.3 188.19,-64.31 237.5,-27.62 241.92,-24.34 246.93,-21.65 252.14,-19.45"/>
<polygon fill="#63b8ff" stroke="#63b8ff" points="253.3,-22.75 261.54,-16.09 250.95,-16.16 253.3,-22.75"/>
</a>
</g>
</g>
</g>
</svg>
