<?xml version="1.0" encoding="UTF-8" standalone="no"?>
<!DOCTYPE svg PUBLIC "-//W3C//DTD SVG 1.1//EN"
 "http://www.w3.org/Graphics/SVG/1.1/DTD/svg11.dtd">
<!-- Generated by graphviz version 8.0.4 (20230421.1958)
 -->
<!-- Title: main Pages: 1 -->
<svg width="370pt" height="390pt"
 viewBox="0.00 0.00 369.50 389.88" xmlns="http://www.w3.org/2000/svg" xmlns:xlink="http://www.w3.org/1999/xlink">
<g id="graph0" class="graph" transform="scale(1 1) rotate(0) translate(4 385.88)">
<title>main</title>
<!-- Node1 -->
<g id="node1" class="node">
<title>Node1</title>
<g id="a_node1"><a xlink:title="Main function.">
<polygon fill="#999999" stroke="#666666" points="37,-290.25 0,-290.25 0,-271 37,-271 37,-290.25"/>
<text text-anchor="middle" x="18.5" y="-276.75" font-family="Helvetica,sans-Serif" font-size="10.00">main</text>
</a>
</g>
</g>
<!-- Node2 -->
<g id="node2" class="node">
<title>Node2</title>
<g id="a_node2"><a xlink:href="../../d6/dae/classothers_1_1lru__cache_1_1_l_r_u_cache.html#aad506b1c1a3cd5b93cc7e497626bfb53" target="_top" xlink:title="A function to display the current cache.">
<polygon fill="white" stroke="#666666" points="188,-381.88 86.5,-381.88 86.5,-351.38 188,-351.38 188,-381.88"/>
<text text-anchor="start" x="94.5" y="-368.38" font-family="Helvetica,sans-Serif" font-size="10.00">others::lru_cache::</text>
<text text-anchor="middle" x="137.25" y="-357.12" font-family="Helvetica,sans-Serif" font-size="10.00">LRUCache::display</text>
</a>
</g>
</g>
<!-- Node1&#45;&gt;Node2 -->
<g id="edge1" class="edge">
<title>Node1&#45;&gt;Node2</title>
<path fill="none" stroke="#63b8ff" d="M26.88,-290.61C36.41,-302.95 54.05,-324 73,-337.62 77.13,-340.6 81.62,-343.38 86.24,-345.95"/>
<polygon fill="#63b8ff" stroke="#63b8ff" points="84.32,-349.42 94.81,-350.93 87.55,-343.21 84.32,-349.42"/>
</g>
<!-- Node3 -->
<g id="node3" class="node">
<title>Node3</title>
<g id="a_node3"><a target="_blank" xlink:href="http://en.cppreference.com/w/cpp/io/manip/endl.html#" xlink:title=" ">
<polygon fill="white" stroke="#666666" points="326.25,-376.25 272.75,-376.25 272.75,-357 326.25,-357 326.25,-376.25"/>
<text text-anchor="middle" x="299.5" y="-362.75" font-family="Helvetica,sans-Serif" font-size="10.00">std::endl</text>
</a>
</g>
</g>
<!-- Node1&#45;&gt;Node3 -->
<g id="edge3" class="edge">
<title>Node1&#45;&gt;Node3</title>
<path fill="none" stroke="#63b8ff" d="M37.05,-289.32C47.36,-294.22 60.74,-300.22 73,-304.62 107.85,-317.15 207.55,-343.31 261.97,-357.31"/>
<polygon fill="#63b8ff" stroke="#63b8ff" points="260.98,-360.93 271.54,-360.02 262.72,-354.15 260.98,-360.93"/>
</g>
<!-- Node4 -->
<g id="node4" class="node">
<title>Node4</title>
<g id="a_node4"><a xlink:href="../../d6/dae/classothers_1_1lru__cache_1_1_l_r_u_cache.html#aa24a141455b9fbcbec22392c28d04933" target="_top" xlink:title="A function to get page hits.">
<polygon fill="white" stroke="#666666" points="188.38,-295.88 86.12,-295.88 86.12,-265.38 188.38,-265.38 188.38,-295.88"/>
<text text-anchor="start" x="94.12" y="-282.38" font-family="Helvetica,sans-Serif" font-size="10.00">others::lru_cache::</text>
<text text-anchor="middle" x="137.25" y="-271.12" font-family="Helvetica,sans-Serif" font-size="10.00">LRUCache::getHits</text>
</a>
</g>
</g>
<!-- Node1&#45;&gt;Node4 -->
<g id="edge4" class="edge">
<title>Node1&#45;&gt;Node4</title>
<path fill="none" stroke="#63b8ff" d="M37.49,-280.62C47.68,-280.62 61.1,-280.62 74.75,-280.62"/>
<polygon fill="#63b8ff" stroke="#63b8ff" points="74.69,-284.13 84.68,-280.62 74.68,-277.13 74.69,-284.13"/>
</g>
<!-- Node5 -->
<g id="node5" class="node">
<title>Node5</title>
<g id="a_node5"><a xlink:href="../../d6/dae/classothers_1_1lru__cache_1_1_l_r_u_cache.html#a78be932dac71c90f485a67d4fda877e2" target="_top" xlink:title="A function to get page fault.">
<polygon fill="white" stroke="#666666" points="201.5,-246.88 73,-246.88 73,-216.38 201.5,-216.38 201.5,-246.88"/>
<text text-anchor="start" x="81" y="-233.38" font-family="Helvetica,sans-Serif" font-size="10.00">others::lru_cache::</text>
<text text-anchor="middle" x="137.25" y="-222.12" font-family="Helvetica,sans-Serif" font-size="10.00">LRUCache::getPageFault</text>
</a>
</g>
</g>
<!-- Node1&#45;&gt;Node5 -->
<g id="edge5" class="edge">
<title>Node1&#45;&gt;Node5</title>
<path fill="none" stroke="#63b8ff" d="M37.25,-272.42C47.62,-267.69 60.99,-261.69 73,-256.62 77.1,-254.9 81.36,-253.13 85.65,-251.39"/>
<polygon fill="#63b8ff" stroke="#63b8ff" points="86.68,-254.34 94.65,-247.36 84.07,-247.85 86.68,-254.34"/>
</g>
<!-- Node6 -->
<g id="node6" class="node">
<title>Node6</title>
<g id="a_node6"><a xlink:href="../../d6/dae/classothers_1_1lru__cache_1_1_l_r_u_cache.html#a7dbf04bf7e1472c48639694f0b110602" target="_top" xlink:title="Refer to a page, or request a page from memory.">
<polygon fill="white" stroke="#666666" points="185.75,-191.88 88.75,-191.88 88.75,-161.38 185.75,-161.38 185.75,-191.88"/>
<text text-anchor="start" x="96.75" y="-178.38" font-family="Helvetica,sans-Serif" font-size="10.00">others::lru_cache::</text>
<text text-anchor="middle" x="137.25" y="-167.12" font-family="Helvetica,sans-Serif" font-size="10.00">LRUCache::refer</text>
</a>
</g>
</g>
<!-- Node1&#45;&gt;Node6 -->
<g id="edge6" class="edge">
<title>Node1&#45;&gt;Node6</title>
<path fill="none" stroke="#63b8ff" d="M24.69,-270.71C33.09,-255.46 50.95,-226.08 73,-207.62 77.4,-203.95 82.3,-200.57 87.38,-197.52"/>
<polygon fill="#63b8ff" stroke="#63b8ff" points="88.61,-200.29 95.65,-192.37 85.21,-194.17 88.61,-200.29"/>
</g>
<!-- Node2&#45;&gt;Node3 -->
<g id="edge2" class="edge">
<title>Node2&#45;&gt;Node3</title>
<path fill="none" stroke="#63b8ff" d="M188.08,-366.62C211.86,-366.62 239.82,-366.62 261.66,-366.62"/>
<polygon fill="#63b8ff" stroke="#63b8ff" points="261.46,-370.13 271.46,-366.62 261.46,-363.13 261.46,-370.13"/>
</g>
<!-- Node7 -->
<g id="node7" class="node">
<title>Node7</title>
<g id="a_node7"><a target="_blank" xlink:href="http://en.cppreference.com/w/cpp/container/list/back.html#" xlink:title=" ">
<polygon fill="white" stroke="#666666" points="337.12,-339.25 261.88,-339.25 261.88,-320 337.12,-320 337.12,-339.25"/>
<text text-anchor="middle" x="299.5" y="-325.75" font-family="Helvetica,sans-Serif" font-size="10.00">std::list::back</text>
</a>
</g>
</g>
<!-- Node6&#45;&gt;Node7 -->
<g id="edge7" class="edge">
<title>Node6&#45;&gt;Node7</title>
<path fill="none" stroke="#63b8ff" d="M181.89,-192.33C189.15,-196.44 196.07,-201.49 201.5,-207.62 233.91,-244.26 202.12,-277.85 237.5,-311.62 241.54,-315.48 246.36,-318.52 251.51,-320.9"/>
<polygon fill="#63b8ff" stroke="#63b8ff" points="250.07,-324.48 260.66,-324.74 252.54,-317.93 250.07,-324.48"/>
</g>
<!-- Node8 -->
<g id="node8" class="node">
<title>Node8</title>
<g id="a_node8"><a target="_blank" xlink:href="http://en.cppreference.com/w/cpp/container/list/begin.html#" xlink:title=" ">
<polygon fill="white" stroke="#666666" points="338.25,-302.25 260.75,-302.25 260.75,-283 338.25,-283 338.25,-302.25"/>
<text text-anchor="middle" x="299.5" y="-288.75" font-family="Helvetica,sans-Serif" font-size="10.00">std::list::begin</text>
</a>
</g>
</g>
<!-- Node6&#45;&gt;Node8 -->
<g id="edge8" class="edge">
<title>Node6&#45;&gt;Node8</title>
<path fill="none" stroke="#63b8ff" d="M179.81,-192.36C187.6,-196.53 195.25,-201.6 201.5,-207.62 225.85,-231.08 211.26,-253.31 237.5,-274.62 241.31,-277.72 245.65,-280.29 250.2,-282.41"/>
<polygon fill="#63b8ff" stroke="#63b8ff" points="248.83,-286.02 259.41,-286.39 251.37,-279.5 248.83,-286.02"/>
</g>
<!-- Node9 -->
<g id="node9" class="node">
<title>Node9</title>
<g id="a_node9"><a target="_blank" xlink:href="http://en.cppreference.com/w/cpp/container/unordered_map/end.html#" xlink:title=" ">
<polygon fill="white" stroke="#666666" points="361.5,-265.25 237.5,-265.25 237.5,-246 361.5,-246 361.5,-265.25"/>
<text text-anchor="middle" x="299.5" y="-251.75" font-family="Helvetica,sans-Serif" font-size="10.00">std::unordered_map::end</text>
</a>
</g>
</g>
<!-- Node6&#45;&gt;Node9 -->
<g id="edge9" class="edge">
<title>Node6&#45;&gt;Node9</title>
<path fill="none" stroke="#63b8ff" d="M173.8,-192.33C183.05,-196.87 192.83,-202.11 201.5,-207.62 218.83,-218.66 219.37,-226.96 237.5,-236.62 240.98,-238.48 244.68,-240.19 248.46,-241.76"/>
<polygon fill="#63b8ff" stroke="#63b8ff" points="246.98,-245.32 257.57,-245.57 249.45,-238.77 246.98,-245.32"/>
</g>
<!-- Node10 -->
<g id="node10" class="node">
<title>Node10</title>
<g id="a_node10"><a target="_blank" xlink:href="http://en.cppreference.com/w/cpp/container/unordered_map/erase.html#" xlink:title=" ">
<polygon fill="white" stroke="#666666" points="350.62,-227.88 248.38,-227.88 248.38,-197.38 350.62,-197.38 350.62,-227.88"/>
<text text-anchor="start" x="256.38" y="-214.38" font-family="Helvetica,sans-Serif" font-size="10.00">std::unordered_map</text>
<text text-anchor="middle" x="299.5" y="-203.12" font-family="Helvetica,sans-Serif" font-size="10.00">::erase</text>
</a>
</g>
</g>
<!-- Node6&#45;&gt;Node10 -->
<g id="edge10" class="edge">
<title>Node6&#45;&gt;Node10</title>
<path fill="none" stroke="#63b8ff" d="M185.9,-187.33C202.09,-190.97 220.42,-195.09 237.52,-198.93"/>
<polygon fill="#63b8ff" stroke="#63b8ff" points="236.45,-202.5 246.97,-201.27 237.98,-195.67 236.45,-202.5"/>
</g>
<!-- Node11 -->
<g id="node11" class="node">
<title>Node11</title>
<g id="a_node11"><a target="_blank" xlink:href="http://en.cppreference.com/w/cpp/container/list/erase.html#" xlink:title=" ">
<polygon fill="white" stroke="#666666" points="338.62,-179.25 260.38,-179.25 260.38,-160 338.62,-160 338.62,-179.25"/>
<text text-anchor="middle" x="299.5" y="-165.75" font-family="Helvetica,sans-Serif" font-size="10.00">std::list::erase</text>
</a>
</g>
</g>
<!-- Node6&#45;&gt;Node11 -->
<g id="edge11" class="edge">
<title>Node6&#45;&gt;Node11</title>
<path fill="none" stroke="#63b8ff" d="M185.9,-174.54C205.82,-173.67 228.98,-172.66 249.09,-171.78"/>
<polygon fill="#63b8ff" stroke="#63b8ff" points="249.07,-175.24 258.91,-171.31 248.77,-168.25 249.07,-175.24"/>
</g>
<!-- Node12 -->
<g id="node12" class="node">
<title>Node12</title>
<g id="a_node12"><a target="_blank" xlink:href="http://en.cppreference.com/w/cpp/container/unordered_map/find.html#" xlink:title=" ">
<polygon fill="white" stroke="#666666" points="350.62,-141.88 248.38,-141.88 248.38,-111.38 350.62,-111.38 350.62,-141.88"/>
<text text-anchor="start" x="256.38" y="-128.38" font-family="Helvetica,sans-Serif" font-size="10.00">std::unordered_map</text>
<text text-anchor="middle" x="299.5" y="-117.12" font-family="Helvetica,sans-Serif" font-size="10.00">::find</text>
</a>
</g>
</g>
<!-- Node6&#45;&gt;Node12 -->
<g id="edge12" class="edge">
<title>Node6&#45;&gt;Node12</title>
<path fill="none" stroke="#63b8ff" d="M185.9,-161.76C202.17,-156.68 220.6,-150.93 237.76,-145.58"/>
<polygon fill="#63b8ff" stroke="#63b8ff" points="238.75,-148.62 247.25,-142.3 236.66,-141.94 238.75,-148.62"/>
</g>
<!-- Node13 -->
<g id="node13" class="node">
<title>Node13</title>
<g id="a_node13"><a target="_blank" xlink:href="http://en.cppreference.com/w/cpp/container/list/pop_back.html#" xlink:title=" ">
<polygon fill="white" stroke="#666666" points="347.62,-93.25 251.38,-93.25 251.38,-74 347.62,-74 347.62,-93.25"/>
<text text-anchor="middle" x="299.5" y="-79.75" font-family="Helvetica,sans-Serif" font-size="10.00">std::list::pop_back</text>
</a>
</g>
</g>
<!-- Node6&#45;&gt;Node13 -->
<g id="edge13" class="edge">
<title>Node6&#45;&gt;Node13</title>
<path fill="none" stroke="#63b8ff" d="M155.32,-161.02C174.19,-144.5 206.09,-118.63 237.5,-102.62 241.23,-100.72 245.18,-98.97 249.22,-97.36"/>
<polygon fill="#63b8ff" stroke="#63b8ff" points="250.13,-100.39 258.32,-93.67 247.73,-93.82 250.13,-100.39"/>
</g>
<!-- Node14 -->
<g id="node14" class="node">
<title>Node14</title>
<g id="a_node14"><a target="_blank" xlink:href="http://en.cppreference.com/w/cpp/container/list/push_front.html#" xlink:title=" ">
<polygon fill="white" stroke="#666666" points="349.5,-56.25 249.5,-56.25 249.5,-37 349.5,-37 349.5,-56.25"/>
<text text-anchor="middle" x="299.5" y="-42.75" font-family="Helvetica,sans-Serif" font-size="10.00">std::list::push_front</text>
</a>
</g>
</g>
<!-- Node6&#45;&gt;Node14 -->
<g id="edge14" class="edge">
<title>Node6&#45;&gt;Node14</title>
<path fill="none" stroke="#63b8ff" d="M147.81,-161.12C163.54,-136.91 197.16,-90.27 237.5,-64.62 239.51,-63.35 241.61,-62.16 243.77,-61.05"/>
<polygon fill="#63b8ff" stroke="#63b8ff" points="244.85,-63.96 252.58,-56.71 242.02,-57.56 244.85,-63.96"/>
</g>
<!-- Node15 -->
<g id="node15" class="node">
<title>Node15</title>
<g id="a_node15"><a target="_blank" xlink:href="http://en.cppreference.com/w/cpp/container/list/size.html#" xlink:title=" ">
<polygon fill="white" stroke="#666666" points="335.62,-19.25 263.38,-19.25 263.38,0 335.62,0 335.62,-19.25"/>
<text text-anchor="middle" x="299.5" y="-5.75" font-family="Helvetica,sans-Serif" font-size="10.00">std::list::size</text>
</a>
</g>
</g>
<!-- Node6&#45;&gt;Node15 -->
<g id="edge15" class="edge">
<title>Node6&#45;&gt;Node15</title>
<path fill="none" stroke="#63b8ff" d="M144.35,-160.93C156.99,-130.52 188.96,-63.4 237.5,-27.62 242.17,-24.19 247.48,-21.4 252.99,-19.15"/>
<polygon fill="#63b8ff" stroke="#63b8ff" points="253.73,-22.25 262,-15.63 251.41,-15.64 253.73,-22.25"/>
</g>
</g>
</svg>
