<?xml version="1.0" encoding="UTF-8" standalone="no"?>
<!DOCTYPE svg PUBLIC "-//W3C//DTD SVG 1.1//EN"
 "http://www.w3.org/Graphics/SVG/1.1/DTD/svg11.dtd">
<!-- Generated by graphviz version 5.0.0 (20220707.1540)
 -->
<!-- Title: main Pages: 1 -->
<svg width="372pt" height="400pt"
 viewBox="0.00 0.00 372.00 399.50" xmlns="http://www.w3.org/2000/svg" xmlns:xlink="http://www.w3.org/1999/xlink">
<g id="graph0" class="graph" transform="scale(1 1) rotate(0) translate(4 395.5)">
<title>main</title>
<polygon fill="white" stroke="transparent" points="-4,4 -4,-395.5 368,-395.5 368,4 -4,4"/>
<!-- Node1 -->
<g id="node1" class="node">
<title>Node1</title>
<g id="a_node1"><a xlink:title="Main function.">
<polygon fill="#bfbfbf" stroke="black" points="0,-278.5 0,-297.5 38,-297.5 38,-278.5 0,-278.5"/>
<text text-anchor="middle" x="19" y="-285.5" font-family="Helvetica,sans-Serif" font-size="10.00">main</text>
</a>
</g>
</g>
<!-- Node2 -->
<g id="node2" class="node">
<title>Node2</title>
<g id="a_node2"><a xlink:href="../../d6/dae/classothers_1_1lru__cache_1_1_l_r_u_cache.html#aad506b1c1a3cd5b93cc7e497626bfb53" target="_top" xlink:title="A function to display the current cache.">
<polygon fill="white" stroke="black" points="87.5,-361 87.5,-391 189.5,-391 189.5,-361 87.5,-361"/>
<text text-anchor="start" x="95.5" y="-379" font-family="Helvetica,sans-Serif" font-size="10.00">others::lru_cache::</text>
<text text-anchor="middle" x="138.5" y="-368" font-family="Helvetica,sans-Serif" font-size="10.00">LRUCache::display</text>
</a>
</g>
</g>
<!-- Node1&#45;&gt;Node2 -->
<g id="edge1" class="edge">
<title>Node1&#45;&gt;Node2</title>
<path fill="none" stroke="midnightblue" d="M27.12,-297.69C36.67,-310.16 54.67,-331.87 74,-346 79.1,-349.73 84.74,-353.18 90.49,-356.31"/>
<polygon fill="midnightblue" stroke="midnightblue" points="89.07,-359.51 99.56,-360.96 92.26,-353.28 89.07,-359.51"/>
</g>
<!-- Node3 -->
<g id="node3" class="node">
<title>Node3</title>
<g id="a_node3"><a target="_blank" xlink:href="http://en.cppreference.com/w/cpp/io/manip/endl.html#" xlink:title=" ">
<polygon fill="white" stroke="black" points="274.5,-366.5 274.5,-385.5 328.5,-385.5 328.5,-366.5 274.5,-366.5"/>
<text text-anchor="middle" x="301.5" y="-373.5" font-family="Helvetica,sans-Serif" font-size="10.00">std::endl</text>
</a>
</g>
</g>
<!-- Node1&#45;&gt;Node3 -->
<g id="edge3" class="edge">
<title>Node1&#45;&gt;Node3</title>
<path fill="none" stroke="midnightblue" d="M38.18,-297.32C48.51,-302.38 61.78,-308.51 74,-313 109.09,-325.9 209.94,-352.6 264.47,-366.74"/>
<polygon fill="midnightblue" stroke="midnightblue" points="263.85,-370.2 274.41,-369.31 265.61,-363.42 263.85,-370.2"/>
</g>
<!-- Node4 -->
<g id="node4" class="node">
<title>Node4</title>
<g id="a_node4"><a xlink:href="../../d6/dae/classothers_1_1lru__cache_1_1_l_r_u_cache.html#aa24a141455b9fbcbec22392c28d04933" target="_top" xlink:title="A function to get page hits.">
<polygon fill="white" stroke="black" points="87,-273 87,-303 190,-303 190,-273 87,-273"/>
<text text-anchor="start" x="95" y="-291" font-family="Helvetica,sans-Serif" font-size="10.00">others::lru_cache::</text>
<text text-anchor="middle" x="138.5" y="-280" font-family="Helvetica,sans-Serif" font-size="10.00">LRUCache::getHits</text>
</a>
</g>
</g>
<!-- Node1&#45;&gt;Node4 -->
<g id="edge4" class="edge">
<title>Node1&#45;&gt;Node4</title>
<path fill="none" stroke="midnightblue" d="M38.1,-288C48.62,-288 62.54,-288 76.63,-288"/>
<polygon fill="midnightblue" stroke="midnightblue" points="76.87,-291.5 86.87,-288 76.87,-284.5 76.87,-291.5"/>
</g>
<!-- Node5 -->
<g id="node5" class="node">
<title>Node5</title>
<g id="a_node5"><a xlink:href="../../d6/dae/classothers_1_1lru__cache_1_1_l_r_u_cache.html#a78be932dac71c90f485a67d4fda877e2" target="_top" xlink:title="A function to get page fault.">
<polygon fill="white" stroke="black" points="74,-224 74,-254 203,-254 203,-224 74,-224"/>
<text text-anchor="start" x="82" y="-242" font-family="Helvetica,sans-Serif" font-size="10.00">others::lru_cache::</text>
<text text-anchor="middle" x="138.5" y="-231" font-family="Helvetica,sans-Serif" font-size="10.00">LRUCache::getPageFault</text>
</a>
</g>
</g>
<!-- Node1&#45;&gt;Node5 -->
<g id="edge5" class="edge">
<title>Node1&#45;&gt;Node5</title>
<path fill="none" stroke="midnightblue" d="M38.41,-279.58C48.81,-274.89 62.08,-268.99 74,-264 78.79,-261.99 83.81,-259.94 88.83,-257.91"/>
<polygon fill="midnightblue" stroke="midnightblue" points="90.45,-261.03 98.44,-254.07 87.85,-254.53 90.45,-261.03"/>
</g>
<!-- Node6 -->
<g id="node6" class="node">
<title>Node6</title>
<g id="a_node6"><a xlink:href="../../d6/dae/classothers_1_1lru__cache_1_1_l_r_u_cache.html#a7dbf04bf7e1472c48639694f0b110602" target="_top" xlink:title="Refer to a page, or request a page from memory.">
<polygon fill="white" stroke="black" points="89.5,-167 89.5,-197 187.5,-197 187.5,-167 89.5,-167"/>
<text text-anchor="start" x="97.5" y="-185" font-family="Helvetica,sans-Serif" font-size="10.00">others::lru_cache::</text>
<text text-anchor="middle" x="138.5" y="-174" font-family="Helvetica,sans-Serif" font-size="10.00">LRUCache::refer</text>
</a>
</g>
</g>
<!-- Node1&#45;&gt;Node6 -->
<g id="edge6" class="edge">
<title>Node1&#45;&gt;Node6</title>
<path fill="none" stroke="midnightblue" d="M25.18,-278.39C33.69,-263.3 51.94,-233.83 74,-215 79.59,-210.23 85.98,-205.9 92.51,-202.07"/>
<polygon fill="midnightblue" stroke="midnightblue" points="94.37,-205.04 101.43,-197.15 90.99,-198.91 94.37,-205.04"/>
</g>
<!-- Node2&#45;&gt;Node3 -->
<g id="edge2" class="edge">
<title>Node2&#45;&gt;Node3</title>
<path fill="none" stroke="midnightblue" d="M189.56,-376C213.67,-376 242.06,-376 264.09,-376"/>
<polygon fill="midnightblue" stroke="midnightblue" points="264.34,-379.5 274.34,-376 264.34,-372.5 264.34,-379.5"/>
</g>
<!-- Node7 -->
<g id="node7" class="node">
<title>Node7</title>
<g id="a_node7"><a target="_blank" xlink:href="http://en.cppreference.com/w/cpp/container/list/back.html#" xlink:title=" ">
<polygon fill="white" stroke="black" points="263.5,-328.5 263.5,-347.5 339.5,-347.5 339.5,-328.5 263.5,-328.5"/>
<text text-anchor="middle" x="301.5" y="-335.5" font-family="Helvetica,sans-Serif" font-size="10.00">std::list::back</text>
</a>
</g>
</g>
<!-- Node6&#45;&gt;Node7 -->
<g id="edge7" class="edge">
<title>Node6&#45;&gt;Node7</title>
<path fill="none" stroke="midnightblue" d="M179.72,-197.04C188.3,-201.74 196.67,-207.67 203,-215 234.97,-252.02 203.84,-285 239,-319 243.27,-323.13 248.42,-326.36 253.9,-328.9"/>
<polygon fill="midnightblue" stroke="midnightblue" points="252.75,-332.2 263.34,-332.53 255.26,-325.67 252.75,-332.2"/>
</g>
<!-- Node8 -->
<g id="node8" class="node">
<title>Node8</title>
<g id="a_node8"><a target="_blank" xlink:href="http://en.cppreference.com/w/cpp/container/list/begin.html#" xlink:title=" ">
<polygon fill="white" stroke="black" points="262.5,-290.5 262.5,-309.5 340.5,-309.5 340.5,-290.5 262.5,-290.5"/>
<text text-anchor="middle" x="301.5" y="-297.5" font-family="Helvetica,sans-Serif" font-size="10.00">std::list::begin</text>
</a>
</g>
</g>
<!-- Node6&#45;&gt;Node8 -->
<g id="edge8" class="edge">
<title>Node6&#45;&gt;Node8</title>
<path fill="none" stroke="midnightblue" d="M177.54,-197.13C186.59,-201.92 195.72,-207.87 203,-215 226.86,-238.39 213.14,-259.85 239,-281 243.11,-284.36 247.82,-287.13 252.75,-289.41"/>
<polygon fill="midnightblue" stroke="midnightblue" points="251.85,-292.82 262.43,-293.22 254.41,-286.3 251.85,-292.82"/>
</g>
<!-- Node9 -->
<g id="node9" class="node">
<title>Node9</title>
<g id="a_node9"><a target="_blank" xlink:href="http://en.cppreference.com/w/cpp/container/unordered_map/end.html#" xlink:title=" ">
<polygon fill="white" stroke="black" points="239,-252.5 239,-271.5 364,-271.5 364,-252.5 239,-252.5"/>
<text text-anchor="middle" x="301.5" y="-259.5" font-family="Helvetica,sans-Serif" font-size="10.00">std::unordered_map::end</text>
</a>
</g>
</g>
<!-- Node6&#45;&gt;Node9 -->
<g id="edge9" class="edge">
<title>Node6&#45;&gt;Node9</title>
<path fill="none" stroke="midnightblue" d="M171.14,-197.01C181.52,-202.31 192.96,-208.56 203,-215 220.06,-225.94 221.02,-233.63 239,-243 243.24,-245.21 247.77,-247.21 252.39,-249.01"/>
<polygon fill="midnightblue" stroke="midnightblue" points="251.32,-252.34 261.92,-252.43 253.69,-245.75 251.32,-252.34"/>
</g>
<!-- Node10 -->
<g id="node10" class="node">
<title>Node10</title>
<g id="a_node10"><a target="_blank" xlink:href="http://en.cppreference.com/w/cpp/container/unordered_map/erase.html#" xlink:title=" ">
<polygon fill="white" stroke="black" points="250,-203 250,-233 353,-233 353,-203 250,-203"/>
<text text-anchor="start" x="258" y="-221" font-family="Helvetica,sans-Serif" font-size="10.00">std::unordered_map</text>
<text text-anchor="middle" x="301.5" y="-210" font-family="Helvetica,sans-Serif" font-size="10.00">::erase</text>
</a>
</g>
</g>
<!-- Node6&#45;&gt;Node10 -->
<g id="edge10" class="edge">
<title>Node6&#45;&gt;Node10</title>
<path fill="none" stroke="midnightblue" d="M187.81,-192.8C204.22,-196.47 222.77,-200.62 240.02,-204.48"/>
<polygon fill="midnightblue" stroke="midnightblue" points="239.47,-207.94 249.99,-206.71 241,-201.11 239.47,-207.94"/>
</g>
<!-- Node11 -->
<g id="node11" class="node">
<title>Node11</title>
<g id="a_node11"><a target="_blank" xlink:href="http://en.cppreference.com/w/cpp/container/list/erase.html#" xlink:title=" ">
<polygon fill="white" stroke="black" points="262,-164.5 262,-183.5 341,-183.5 341,-164.5 262,-164.5"/>
<text text-anchor="middle" x="301.5" y="-171.5" font-family="Helvetica,sans-Serif" font-size="10.00">std::list::erase</text>
</a>
</g>
</g>
<!-- Node6&#45;&gt;Node11 -->
<g id="edge11" class="edge">
<title>Node6&#45;&gt;Node11</title>
<path fill="none" stroke="midnightblue" d="M187.81,-179.6C208,-178.6 231.43,-177.43 251.67,-176.43"/>
<polygon fill="midnightblue" stroke="midnightblue" points="252.12,-179.91 261.94,-175.92 251.78,-172.92 252.12,-179.91"/>
</g>
<!-- Node12 -->
<g id="node12" class="node">
<title>Node12</title>
<g id="a_node12"><a target="_blank" xlink:href="http://en.cppreference.com/w/cpp/container/unordered_map/find.html#" xlink:title=" ">
<polygon fill="white" stroke="black" points="250,-115 250,-145 353,-145 353,-115 250,-115"/>
<text text-anchor="start" x="258" y="-133" font-family="Helvetica,sans-Serif" font-size="10.00">std::unordered_map</text>
<text text-anchor="middle" x="301.5" y="-122" font-family="Helvetica,sans-Serif" font-size="10.00">::find</text>
</a>
</g>
</g>
<!-- Node6&#45;&gt;Node12 -->
<g id="edge12" class="edge">
<title>Node6&#45;&gt;Node12</title>
<path fill="none" stroke="midnightblue" d="M186.07,-166.96C204.26,-161.08 225.28,-154.3 244.3,-148.15"/>
<polygon fill="midnightblue" stroke="midnightblue" points="245.6,-151.41 254.04,-145.01 243.45,-144.75 245.6,-151.41"/>
</g>
<!-- Node13 -->
<g id="node13" class="node">
<title>Node13</title>
<g id="a_node13"><a target="_blank" xlink:href="http://en.cppreference.com/w/cpp/container/list/pop_back.html#" xlink:title=" ">
<polygon fill="white" stroke="black" points="253,-76.5 253,-95.5 350,-95.5 350,-76.5 253,-76.5"/>
<text text-anchor="middle" x="301.5" y="-83.5" font-family="Helvetica,sans-Serif" font-size="10.00">std::list::pop_back</text>
</a>
</g>
</g>
<!-- Node6&#45;&gt;Node13 -->
<g id="edge13" class="edge">
<title>Node6&#45;&gt;Node13</title>
<path fill="none" stroke="midnightblue" d="M155.15,-166.96C173.76,-149.79 206.44,-121.92 239,-105 243.24,-102.8 247.78,-100.8 252.4,-99"/>
<polygon fill="midnightblue" stroke="midnightblue" points="253.69,-102.26 261.92,-95.59 251.33,-95.67 253.69,-102.26"/>
</g>
<!-- Node14 -->
<g id="node14" class="node">
<title>Node14</title>
<g id="a_node14"><a target="_blank" xlink:href="http://en.cppreference.com/w/cpp/container/list/push_front.html#" xlink:title=" ">
<polygon fill="white" stroke="black" points="251,-38.5 251,-57.5 352,-57.5 352,-38.5 251,-38.5"/>
<text text-anchor="middle" x="301.5" y="-45.5" font-family="Helvetica,sans-Serif" font-size="10.00">std::list::push_front</text>
</a>
</g>
</g>
<!-- Node6&#45;&gt;Node14 -->
<g id="edge14" class="edge">
<title>Node6&#45;&gt;Node14</title>
<path fill="none" stroke="midnightblue" d="M148.53,-166.93C163.99,-142.39 197.89,-93.85 239,-67 242.13,-64.95 245.5,-63.12 248.98,-61.47"/>
<polygon fill="midnightblue" stroke="midnightblue" points="250.51,-64.63 258.39,-57.55 247.81,-58.17 250.51,-64.63"/>
</g>
<!-- Node15 -->
<g id="node15" class="node">
<title>Node15</title>
<g id="a_node15"><a target="_blank" xlink:href="http://en.cppreference.com/w/cpp/container/list/size.html#" xlink:title=" ">
<polygon fill="white" stroke="black" points="265,-0.5 265,-19.5 338,-19.5 338,-0.5 265,-0.5"/>
<text text-anchor="middle" x="301.5" y="-7.5" font-family="Helvetica,sans-Serif" font-size="10.00">std::list::size</text>
</a>
</g>
</g>
<!-- Node6&#45;&gt;Node15 -->
<g id="edge15" class="edge">
<title>Node6&#45;&gt;Node15</title>
<path fill="none" stroke="midnightblue" d="M145.17,-166.89C157.45,-136.23 189.44,-66.43 239,-29 243.86,-25.33 249.43,-22.37 255.19,-19.97"/>
<polygon fill="midnightblue" stroke="midnightblue" points="256.76,-23.12 264.98,-16.44 254.39,-16.54 256.76,-23.12"/>
</g>
</g>
</svg>
