<?xml version="1.0" encoding="UTF-8" standalone="no"?>
<!DOCTYPE svg PUBLIC "-//W3C//DTD SVG 1.1//EN"
 "http://www.w3.org/Graphics/SVG/1.1/DTD/svg11.dtd">
<!-- Generated by graphviz version 9.0.0 (20230911.1827)
 -->
<!-- Title: lru_tests::run_tests Pages: 1 -->
<svg width="555pt" height="347pt"
 viewBox="0.00 0.00 555.00 347.25" xmlns="http://www.w3.org/2000/svg" xmlns:xlink="http://www.w3.org/1999/xlink">
<g id="graph0" class="graph" transform="scale(1 1) rotate(0) translate(4 343.25)">
<title>lru_tests::run_tests</title>
<!-- Node1 -->
<g id="Node000001" class="node">
<title>Node1</title>
<g id="a_Node000001"><a xlink:title="A function to invoke all test cases.">
<polygon fill="#999999" stroke="#666666" points="100,-228.25 0,-228.25 0,-209 100,-209 100,-228.25"/>
<text text-anchor="middle" x="50" y="-214.75" font-family="Helvetica,sans-Serif" font-size="10.00">lru_tests::run_tests</text>
</a>
</g>
</g>
<!-- Node1&#45;&gt;Node1 -->
<g id="edge1_Node000001_Node000001" class="edge">
<title>Node1&#45;&gt;Node1</title>
<g id="a_edge1_Node000001_Node000001"><a xlink:title=" ">
<path fill="none" stroke="#63b8ff" d="M29.77,-228.54C20.54,-237.15 27.28,-246.25 50,-246.25 62.42,-246.25 70.07,-243.53 72.94,-239.65"/>
<polygon fill="#63b8ff" stroke="#63b8ff" points="76.36,-238.9 70.59,-230.01 69.56,-240.55 76.36,-238.9"/>
</a>
</g>
</g>
<!-- Node2 -->
<g id="Node000002" class="node">
<title>Node2</title>
<g id="a_Node000002"><a xlink:href="../../d3/db3/lru__cache_8cpp.html#a6401e8f2d41d8cc9cd0e52ab381608d4" target="_top" xlink:title="A simple test case The assert statement will check expected hist and miss to resultant hits and miss.">
<polygon fill="white" stroke="#666666" points="222.5,-283.25 136,-283.25 136,-264 222.5,-264 222.5,-283.25"/>
<text text-anchor="middle" x="179.25" y="-269.75" font-family="Helvetica,sans-Serif" font-size="10.00">lru_tests::test_1</text>
</a>
</g>
</g>
<!-- Node1&#45;&gt;Node2 -->
<g id="edge2_Node000001_Node000002" class="edge">
<title>Node1&#45;&gt;Node2</title>
<g id="a_edge2_Node000001_Node000002"><a xlink:title=" ">
<path fill="none" stroke="#63b8ff" d="M74.07,-228.72C91.15,-236.19 115.01,-246.59 136,-255.62 138.63,-256.76 141.35,-257.92 144.08,-259.1"/>
<polygon fill="#63b8ff" stroke="#63b8ff" points="142.59,-262.26 153.16,-262.97 145.34,-255.82 142.59,-262.26"/>
</a>
</g>
</g>
<!-- Node15 -->
<g id="Node000015" class="node">
<title>Node15</title>
<g id="a_Node000015"><a xlink:href="../../d3/db3/lru__cache_8cpp.html#a4b02e288a407876a8d6024f98a2a25ec" target="_top" xlink:title="A test case contains hits more than cache size The assert statement will check expected hist and miss...">
<polygon fill="white" stroke="#666666" points="222.5,-228.25 136,-228.25 136,-209 222.5,-209 222.5,-228.25"/>
<text text-anchor="middle" x="179.25" y="-214.75" font-family="Helvetica,sans-Serif" font-size="10.00">lru_tests::test_2</text>
</a>
</g>
</g>
<!-- Node1&#45;&gt;Node15 -->
<g id="edge16_Node000001_Node000015" class="edge">
<title>Node1&#45;&gt;Node15</title>
<g id="a_edge16_Node000001_Node000015"><a xlink:title=" ">
<path fill="none" stroke="#63b8ff" d="M100.2,-218.62C108.09,-218.62 116.3,-218.62 124.3,-218.62"/>
<polygon fill="#63b8ff" stroke="#63b8ff" points="124.29,-222.13 134.29,-218.63 124.29,-215.13 124.29,-222.13"/>
</a>
</g>
</g>
<!-- Node16 -->
<g id="Node000016" class="node">
<title>Node16</title>
<g id="a_Node000016"><a xlink:href="../../d3/db3/lru__cache_8cpp.html#a01ec21fc91ddafd964ae2035ba7892c0" target="_top" xlink:title="A simple test case The assert statement will check expected hist and miss to resultant hits and miss.">
<polygon fill="white" stroke="#666666" points="222.5,-173.25 136,-173.25 136,-154 222.5,-154 222.5,-173.25"/>
<text text-anchor="middle" x="179.25" y="-159.75" font-family="Helvetica,sans-Serif" font-size="10.00">lru_tests::test_3</text>
</a>
</g>
</g>
<!-- Node1&#45;&gt;Node16 -->
<g id="edge21_Node000001_Node000016" class="edge">
<title>Node1&#45;&gt;Node16</title>
<g id="a_edge21_Node000001_Node000016"><a xlink:title=" ">
<path fill="none" stroke="#63b8ff" d="M74.34,-208.54C94.07,-200.01 122.58,-187.69 144.75,-178.1"/>
<polygon fill="#63b8ff" stroke="#63b8ff" points="145.88,-181.43 153.67,-174.25 143.1,-175 145.88,-181.43"/>
</a>
</g>
</g>
<!-- Node2&#45;&gt;Node2 -->
<g id="edge15_Node000002_Node000002" class="edge">
<title>Node2&#45;&gt;Node2</title>
<g id="a_edge15_Node000002_Node000002"><a xlink:title=" ">
<path fill="none" stroke="#63b8ff" d="M159.02,-283.54C149.79,-292.15 156.53,-301.25 179.25,-301.25 191.67,-301.25 199.32,-298.53 202.19,-294.65"/>
<polygon fill="#63b8ff" stroke="#63b8ff" points="205.61,-293.9 199.84,-285.01 198.81,-295.55 205.61,-293.9"/>
</a>
</g>
</g>
<!-- Node3 -->
<g id="Node000003" class="node">
<title>Node3</title>
<g id="a_Node000003"><a xlink:href="../../d6/dae/classothers_1_1lru__cache_1_1_l_r_u_cache.html#aa24a141455b9fbcbec22392c28d04933" target="_top" xlink:title="A function to get page hits.">
<polygon fill="white" stroke="#666666" points="373.88,-282.88 271.62,-282.88 271.62,-252.38 373.88,-252.38 373.88,-282.88"/>
<text text-anchor="start" x="279.62" y="-269.38" font-family="Helvetica,sans-Serif" font-size="10.00">others::lru_cache::</text>
<text text-anchor="middle" x="322.75" y="-258.12" font-family="Helvetica,sans-Serif" font-size="10.00">LRUCache::getHits</text>
</a>
</g>
</g>
<!-- Node2&#45;&gt;Node3 -->
<g id="edge3_Node000002_Node000003" class="edge">
<title>Node2&#45;&gt;Node3</title>
<g id="a_edge3_Node000002_Node000003"><a xlink:title=" ">
<path fill="none" stroke="#63b8ff" d="M222.7,-271.82C234.42,-271.33 247.38,-270.78 259.95,-270.25"/>
<polygon fill="#63b8ff" stroke="#63b8ff" points="259.99,-273.75 269.83,-269.83 259.69,-266.75 259.99,-273.75"/>
</a>
</g>
</g>
<!-- Node4 -->
<g id="Node000004" class="node">
<title>Node4</title>
<g id="a_Node000004"><a xlink:href="../../d6/dae/classothers_1_1lru__cache_1_1_l_r_u_cache.html#a78be932dac71c90f485a67d4fda877e2" target="_top" xlink:title="A function to get page fault.">
<polygon fill="white" stroke="#666666" points="387,-233.88 258.5,-233.88 258.5,-203.38 387,-203.38 387,-233.88"/>
<text text-anchor="start" x="266.5" y="-220.38" font-family="Helvetica,sans-Serif" font-size="10.00">others::lru_cache::</text>
<text text-anchor="middle" x="322.75" y="-209.12" font-family="Helvetica,sans-Serif" font-size="10.00">LRUCache::getPageFault</text>
</a>
</g>
</g>
<!-- Node2&#45;&gt;Node4 -->
<g id="edge4_Node000002_Node000004" class="edge">
<title>Node2&#45;&gt;Node4</title>
<g id="a_edge4_Node000002_Node000004"><a xlink:title=" ">
<path fill="none" stroke="#63b8ff" d="M206.2,-263.54C224.24,-256.53 248.86,-246.96 270.75,-238.45"/>
<polygon fill="#63b8ff" stroke="#63b8ff" points="271.77,-241.81 279.82,-234.92 269.23,-235.28 271.77,-241.81"/>
</a>
</g>
</g>
<!-- Node5 -->
<g id="Node000005" class="node">
<title>Node5</title>
<g id="a_Node000005"><a xlink:href="../../d6/dae/classothers_1_1lru__cache_1_1_l_r_u_cache.html#a7dbf04bf7e1472c48639694f0b110602" target="_top" xlink:title="Refer to a page, or request a page from memory.">
<polygon fill="white" stroke="#666666" points="371.25,-184.88 274.25,-184.88 274.25,-154.38 371.25,-154.38 371.25,-184.88"/>
<text text-anchor="start" x="282.25" y="-171.38" font-family="Helvetica,sans-Serif" font-size="10.00">others::lru_cache::</text>
<text text-anchor="middle" x="322.75" y="-160.12" font-family="Helvetica,sans-Serif" font-size="10.00">LRUCache::refer</text>
</a>
</g>
</g>
<!-- Node2&#45;&gt;Node5 -->
<g id="edge5_Node000002_Node000005" class="edge">
<title>Node2&#45;&gt;Node5</title>
<g id="a_edge5_Node000002_Node000005"><a xlink:title=" ">
<path fill="none" stroke="#63b8ff" d="M210.3,-263.68C214.67,-261.44 218.9,-258.78 222.5,-255.62 246.16,-234.86 234.57,-215.07 258.5,-194.62 260.36,-193.04 262.33,-191.54 264.39,-190.13"/>
<polygon fill="#63b8ff" stroke="#63b8ff" points="265.73,-193.41 272.54,-185.29 262.15,-187.39 265.73,-193.41"/>
</a>
</g>
</g>
<!-- Node6 -->
<g id="Node000006" class="node">
<title>Node6</title>
<g id="a_Node000006"><a target="_blank" xlink:href="http://en.cppreference.com/w/cpp/container/list/back.html#" xlink:title=" ">
<polygon fill="white" stroke="#666666" points="522.62,-339.25 447.38,-339.25 447.38,-320 522.62,-320 522.62,-339.25"/>
<text text-anchor="middle" x="485" y="-325.75" font-family="Helvetica,sans-Serif" font-size="10.00">std::list::back</text>
</a>
</g>
</g>
<!-- Node5&#45;&gt;Node6 -->
<g id="edge6_Node000005_Node000006" class="edge">
<title>Node5&#45;&gt;Node6</title>
<g id="a_edge6_Node000005_Node000006"><a xlink:title=" ">
<path fill="none" stroke="#63b8ff" d="M371.66,-183.01C377.35,-186.13 382.67,-189.94 387,-194.62 423.94,-234.56 384.31,-273.38 423,-311.62 426.87,-315.45 431.51,-318.47 436.48,-320.85"/>
<polygon fill="#63b8ff" stroke="#63b8ff" points="435.01,-324.03 445.6,-324.36 437.52,-317.5 435.01,-324.03"/>
</a>
</g>
</g>
<!-- Node7 -->
<g id="Node000007" class="node">
<title>Node7</title>
<g id="a_Node000007"><a target="_blank" xlink:href="http://en.cppreference.com/w/cpp/container/list/begin.html#" xlink:title=" ">
<polygon fill="white" stroke="#666666" points="523.75,-302.25 446.25,-302.25 446.25,-283 523.75,-283 523.75,-302.25"/>
<text text-anchor="middle" x="485" y="-288.75" font-family="Helvetica,sans-Serif" font-size="10.00">std::list::begin</text>
</a>
</g>
</g>
<!-- Node5&#45;&gt;Node7 -->
<g id="edge7_Node000005_Node000007" class="edge">
<title>Node5&#45;&gt;Node7</title>
<g id="a_edge7_Node000005_Node000007"><a xlink:title=" ">
<path fill="none" stroke="#63b8ff" d="M371.45,-183.7C377.11,-186.7 382.47,-190.3 387,-194.62 415.2,-221.55 393.62,-248.99 423,-274.62 426.65,-277.81 430.84,-280.43 435.28,-282.59"/>
<polygon fill="#63b8ff" stroke="#63b8ff" points="433.96,-285.83 444.54,-286.27 436.54,-279.33 433.96,-285.83"/>
</a>
</g>
</g>
<!-- Node8 -->
<g id="Node000008" class="node">
<title>Node8</title>
<g id="a_Node000008"><a target="_blank" xlink:href="http://en.cppreference.com/w/cpp/container/unordered_map/end.html#" xlink:title=" ">
<polygon fill="white" stroke="#666666" points="547,-265.25 423,-265.25 423,-246 547,-246 547,-265.25"/>
<text text-anchor="middle" x="485" y="-251.75" font-family="Helvetica,sans-Serif" font-size="10.00">std::unordered_map::end</text>
</a>
</g>
</g>
<!-- Node5&#45;&gt;Node8 -->
<g id="edge8_Node000005_Node000008" class="edge">
<title>Node5&#45;&gt;Node8</title>
<g id="a_edge8_Node000005_Node000008"><a xlink:title=" ">
<path fill="none" stroke="#63b8ff" d="M371.04,-185.32C376.64,-188.03 382.1,-191.13 387,-194.62 407.02,-208.9 402.46,-223.11 423,-236.62 425.39,-238.2 427.92,-239.65 430.54,-240.98"/>
<polygon fill="#63b8ff" stroke="#63b8ff" points="428.99,-244.13 439.55,-244.97 431.82,-237.72 428.99,-244.13"/>
</a>
</g>
</g>
<!-- Node9 -->
<g id="Node000009" class="node">
<title>Node9</title>
<g id="a_Node000009"><a target="_blank" xlink:href="http://en.cppreference.com/w/cpp/container/unordered_map/erase.html#" xlink:title=" ">
<polygon fill="white" stroke="#666666" points="536.12,-227.88 433.88,-227.88 433.88,-197.38 536.12,-197.38 536.12,-227.88"/>
<text text-anchor="start" x="441.88" y="-214.38" font-family="Helvetica,sans-Serif" font-size="10.00">std::unordered_map</text>
<text text-anchor="middle" x="485" y="-203.12" font-family="Helvetica,sans-Serif" font-size="10.00">::erase</text>
</a>
</g>
</g>
<!-- Node5&#45;&gt;Node9 -->
<g id="edge9_Node000005_Node000009" class="edge">
<title>Node5&#45;&gt;Node9</title>
<g id="a_edge9_Node000005_Node000009"><a xlink:title=" ">
<path fill="none" stroke="#63b8ff" d="M371.4,-182.41C387.44,-186.72 405.58,-191.58 422.53,-196.13"/>
<polygon fill="#63b8ff" stroke="#63b8ff" points="421.44,-199.46 432.01,-198.67 423.26,-192.7 421.44,-199.46"/>
</a>
</g>
</g>
<!-- Node10 -->
<g id="Node000010" class="node">
<title>Node10</title>
<g id="a_Node000010"><a target="_blank" xlink:href="http://en.cppreference.com/w/cpp/container/list/erase.html#" xlink:title=" ">
<polygon fill="white" stroke="#666666" points="524.12,-179.25 445.88,-179.25 445.88,-160 524.12,-160 524.12,-179.25"/>
<text text-anchor="middle" x="485" y="-165.75" font-family="Helvetica,sans-Serif" font-size="10.00">std::list::erase</text>
</a>
</g>
</g>
<!-- Node5&#45;&gt;Node10 -->
<g id="edge10_Node000005_Node000010" class="edge">
<title>Node5&#45;&gt;Node10</title>
<g id="a_edge10_Node000005_Node000010"><a xlink:title=" ">
<path fill="none" stroke="#63b8ff" d="M371.4,-169.62C391.14,-169.62 414.05,-169.62 434.03,-169.62"/>
<polygon fill="#63b8ff" stroke="#63b8ff" points="433.9,-173.13 443.9,-169.63 433.9,-166.13 433.9,-173.13"/>
</a>
</g>
</g>
<!-- Node11 -->
<g id="Node000011" class="node">
<title>Node11</title>
<g id="a_Node000011"><a target="_blank" xlink:href="http://en.cppreference.com/w/cpp/container/unordered_map/find.html#" xlink:title=" ">
<polygon fill="white" stroke="#666666" points="536.12,-141.88 433.88,-141.88 433.88,-111.38 536.12,-111.38 536.12,-141.88"/>
<text text-anchor="start" x="441.88" y="-128.38" font-family="Helvetica,sans-Serif" font-size="10.00">std::unordered_map</text>
<text text-anchor="middle" x="485" y="-117.12" font-family="Helvetica,sans-Serif" font-size="10.00">::find</text>
</a>
</g>
</g>
<!-- Node5&#45;&gt;Node11 -->
<g id="edge11_Node000005_Node000011" class="edge">
<title>Node5&#45;&gt;Node11</title>
<g id="a_edge11_Node000005_Node000011"><a xlink:title=" ">
<path fill="none" stroke="#63b8ff" d="M371.4,-156.84C387.44,-152.53 405.58,-147.67 422.53,-143.12"/>
<polygon fill="#63b8ff" stroke="#63b8ff" points="423.26,-146.55 432.01,-140.58 421.44,-139.79 423.26,-146.55"/>
</a>
</g>
</g>
<!-- Node12 -->
<g id="Node000012" class="node">
<title>Node12</title>
<g id="a_Node000012"><a target="_blank" xlink:href="http://en.cppreference.com/w/cpp/container/list/pop_back.html#" xlink:title=" ">
<polygon fill="white" stroke="#666666" points="533.12,-93.25 436.88,-93.25 436.88,-74 533.12,-74 533.12,-93.25"/>
<text text-anchor="middle" x="485" y="-79.75" font-family="Helvetica,sans-Serif" font-size="10.00">std::list::pop_back</text>
</a>
</g>
</g>
<!-- Node5&#45;&gt;Node12 -->
<g id="edge12_Node000005_Node000012" class="edge">
<title>Node5&#45;&gt;Node12</title>
<g id="a_edge12_Node000005_Node000012"><a xlink:title=" ">
<path fill="none" stroke="#63b8ff" d="M343.23,-153.94C362.53,-139.04 393.39,-116.85 423,-102.62 426.77,-100.81 430.76,-99.12 434.81,-97.56"/>
<polygon fill="#63b8ff" stroke="#63b8ff" points="435.93,-100.87 444.17,-94.22 433.57,-94.28 435.93,-100.87"/>
</a>
</g>
</g>
<!-- Node13 -->
<g id="Node000013" class="node">
<title>Node13</title>
<g id="a_Node000013"><a target="_blank" xlink:href="http://en.cppreference.com/w/cpp/container/list/push_front.html#" xlink:title=" ">
<polygon fill="white" stroke="#666666" points="535,-56.25 435,-56.25 435,-37 535,-37 535,-56.25"/>
<text text-anchor="middle" x="485" y="-42.75" font-family="Helvetica,sans-Serif" font-size="10.00">std::list::push_front</text>
</a>
</g>
</g>
<!-- Node5&#45;&gt;Node13 -->
<g id="edge13_Node000005_Node000013" class="edge">
<title>Node5&#45;&gt;Node13</title>
<g id="a_edge13_Node000005_Node000013"><a xlink:title=" ">
<path fill="none" stroke="#63b8ff" d="M334.35,-153.98C350.71,-131.02 384.3,-88.37 423,-64.62 424.91,-63.46 426.89,-62.36 428.93,-61.33"/>
<polygon fill="#63b8ff" stroke="#63b8ff" points="430.33,-64.54 438.1,-57.34 427.54,-58.12 430.33,-64.54"/>
</a>
</g>
</g>
<!-- Node14 -->
<g id="Node000014" class="node">
<title>Node14</title>
<g id="a_Node000014"><a target="_blank" xlink:href="http://en.cppreference.com/w/cpp/container/list/size.html#" xlink:title=" ">
<polygon fill="white" stroke="#666666" points="521.12,-19.25 448.88,-19.25 448.88,0 521.12,0 521.12,-19.25"/>
<text text-anchor="middle" x="485" y="-5.75" font-family="Helvetica,sans-Serif" font-size="10.00">std::list::size</text>
</a>
</g>
</g>
<!-- Node5&#45;&gt;Node14 -->
<g id="edge14_Node000005_Node000014" class="edge">
<title>Node5&#45;&gt;Node14</title>
<g id="a_edge14_Node000005_Node000014"><a xlink:title=" ">
<path fill="none" stroke="#63b8ff" d="M330.26,-154.22C343.4,-125.02 375.89,-61.54 423,-27.62 427.47,-24.41 432.51,-21.76 437.74,-19.58"/>
<polygon fill="#63b8ff" stroke="#63b8ff" points="438.9,-22.89 447.16,-16.25 436.57,-16.29 438.9,-22.89"/>
</a>
</g>
</g>
<!-- Node15&#45;&gt;Node3 -->
<g id="edge17_Node000015_Node000003" class="edge">
<title>Node15&#45;&gt;Node3</title>
<g id="a_edge17_Node000015_Node000003"><a xlink:title=" ">
<path fill="none" stroke="#63b8ff" d="M209.23,-228.66C225.46,-234.28 246.25,-241.48 265.54,-248.16"/>
<polygon fill="#63b8ff" stroke="#63b8ff" points="264.35,-251.45 274.94,-251.42 266.64,-244.84 264.35,-251.45"/>
</a>
</g>
</g>
<!-- Node15&#45;&gt;Node4 -->
<g id="edge18_Node000015_Node000004" class="edge">
<title>Node15&#45;&gt;Node4</title>
<g id="a_edge18_Node000015_Node000004"><a xlink:title=" ">
<path fill="none" stroke="#63b8ff" d="M222.7,-218.62C230.37,-218.62 238.57,-218.62 246.84,-218.62"/>
<polygon fill="#63b8ff" stroke="#63b8ff" points="246.62,-222.13 256.62,-218.63 246.62,-215.13 246.62,-222.13"/>
</a>
</g>
</g>
<!-- Node15&#45;&gt;Node5 -->
<g id="edge19_Node000015_Node000005" class="edge">
<title>Node15&#45;&gt;Node5</title>
<g id="a_edge19_Node000015_Node000005"><a xlink:title=" ">
<path fill="none" stroke="#63b8ff" d="M209.23,-208.59C225.46,-202.97 246.25,-195.77 265.54,-189.09"/>
<polygon fill="#63b8ff" stroke="#63b8ff" points="266.64,-192.41 274.94,-185.83 264.35,-185.8 266.64,-192.41"/>
</a>
</g>
</g>
<!-- Node15&#45;&gt;Node15 -->
<g id="edge20_Node000015_Node000015" class="edge">
<title>Node15&#45;&gt;Node15</title>
<g id="a_edge20_Node000015_Node000015"><a xlink:title=" ">
<path fill="none" stroke="#63b8ff" d="M159.02,-228.54C149.79,-237.15 156.53,-246.25 179.25,-246.25 191.67,-246.25 199.32,-243.53 202.19,-239.65"/>
<polygon fill="#63b8ff" stroke="#63b8ff" points="205.61,-238.9 199.84,-230.01 198.81,-240.55 205.61,-238.9"/>
</a>
</g>
</g>
<!-- Node16&#45;&gt;Node3 -->
<g id="edge22_Node000016_Node000003" class="edge">
<title>Node16&#45;&gt;Node3</title>
<g id="a_edge22_Node000016_Node000003"><a xlink:title=" ">
<path fill="none" stroke="#63b8ff" d="M192.94,-173.5C201.59,-180.46 213.14,-190.18 222.5,-199.62 240.05,-217.33 238.29,-228.04 258.5,-242.62 260.48,-244.06 262.56,-245.42 264.7,-246.72"/>
<polygon fill="#63b8ff" stroke="#63b8ff" points="262.63,-249.58 273.09,-251.26 265.97,-243.42 262.63,-249.58"/>
</a>
</g>
</g>
<!-- Node16&#45;&gt;Node4 -->
<g id="edge23_Node000016_Node000004" class="edge">
<title>Node16&#45;&gt;Node4</title>
<g id="a_edge23_Node000016_Node000004"><a xlink:title=" ">
<path fill="none" stroke="#63b8ff" d="M206.2,-173.71C224.24,-180.72 248.86,-190.29 270.75,-198.8"/>
<polygon fill="#63b8ff" stroke="#63b8ff" points="269.23,-201.97 279.82,-202.33 271.77,-195.44 269.23,-201.97"/>
</a>
</g>
</g>
<!-- Node16&#45;&gt;Node5 -->
<g id="edge24_Node000016_Node000005" class="edge">
<title>Node16&#45;&gt;Node5</title>
<g id="a_edge24_Node000016_Node000005"><a xlink:title=" ">
<path fill="none" stroke="#63b8ff" d="M222.7,-165.43C235.3,-165.96 249.32,-166.55 262.76,-167.12"/>
<polygon fill="#63b8ff" stroke="#63b8ff" points="262.22,-170.6 272.36,-167.53 262.52,-163.61 262.22,-170.6"/>
</a>
</g>
</g>
<!-- Node16&#45;&gt;Node16 -->
<g id="edge25_Node000016_Node000016" class="edge">
<title>Node16&#45;&gt;Node16</title>
<g id="a_edge25_Node000016_Node000016"><a xlink:title=" ">
<path fill="none" stroke="#63b8ff" d="M159.02,-173.54C149.79,-182.15 156.53,-191.25 179.25,-191.25 191.67,-191.25 199.32,-188.53 202.19,-184.65"/>
<polygon fill="#63b8ff" stroke="#63b8ff" points="205.61,-183.9 199.84,-175.01 198.81,-185.55 205.61,-183.9"/>
</a>
</g>
</g>
</g>
</svg>
