<?xml version="1.0" encoding="UTF-8" standalone="no"?>
<!DOCTYPE svg PUBLIC "-//W3C//DTD SVG 1.1//EN"
 "http://www.w3.org/Graphics/SVG/1.1/DTD/svg11.dtd">
<!-- Generated by graphviz version 7.0.0 (20221023.0053)
 -->
<!-- Title: lru_tests::test_1 Pages: 1 -->
<svg width="421pt" height="347pt"
 viewBox="0.00 0.00 421.00 347.00" xmlns="http://www.w3.org/2000/svg" xmlns:xlink="http://www.w3.org/1999/xlink">
<g id="graph0" class="graph" transform="scale(1 1) rotate(0) translate(4 343)">
<title>lru_tests::test_1</title>
<!-- Node1 -->
<g id="node1" class="node">
<title>Node1</title>
<g id="a_node1"><a xlink:title="A simple test case The assert statement will check expected hist and miss to resultant hits and miss.">
<polygon fill="#999999" stroke="#666666" points="87,-227 0,-227 0,-208 87,-208 87,-227"/>
<text text-anchor="middle" x="43.5" y="-215" font-family="Helvetica,sans-Serif" font-size="10.00">lru_tests::test_1</text>
</a>
</g>
</g>
<!-- Node1&#45;&gt;Node1 -->
<g id="edge13" class="edge">
<title>Node1&#45;&gt;Node1</title>
<path fill="none" stroke="#63b8ff" d="M20.96,-227.37C10.67,-235.94 18.19,-245 43.5,-245 57.34,-245 65.86,-242.29 69.06,-238.43"/>
<polygon fill="#63b8ff" stroke="#63b8ff" points="72.45,-237.56 66.44,-228.83 65.7,-239.4 72.45,-237.56"/>
</g>
<!-- Node2 -->
<g id="node2" class="node">
<title>Node2</title>
<g id="a_node2"><a xlink:href="../../d6/dae/classothers_1_1lru__cache_1_1_l_r_u_cache.html#aa24a141455b9fbcbec22392c28d04933" target="_top" xlink:title="A function to get page hits.">
<polygon fill="white" stroke="#666666" points="239,-280.5 136,-280.5 136,-250.5 239,-250.5 239,-280.5"/>
<text text-anchor="start" x="144" y="-268.5" font-family="Helvetica,sans-Serif" font-size="10.00">others::lru_cache::</text>
<text text-anchor="middle" x="187.5" y="-257.5" font-family="Helvetica,sans-Serif" font-size="10.00">LRUCache::getHits</text>
</a>
</g>
</g>
<!-- Node1&#45;&gt;Node2 -->
<g id="edge1" class="edge">
<title>Node1&#45;&gt;Node2</title>
<path fill="none" stroke="#63b8ff" d="M73.92,-227.45C90.16,-232.93 110.88,-239.94 130.1,-246.44"/>
<polygon fill="#63b8ff" stroke="#63b8ff" points="128.87,-249.71 139.46,-249.6 131.11,-243.08 128.87,-249.71"/>
</g>
<!-- Node3 -->
<g id="node3" class="node">
<title>Node3</title>
<g id="a_node3"><a xlink:href="../../d6/dae/classothers_1_1lru__cache_1_1_l_r_u_cache.html#a78be932dac71c90f485a67d4fda877e2" target="_top" xlink:title="A function to get page fault.">
<polygon fill="white" stroke="#666666" points="252,-232.5 123,-232.5 123,-202.5 252,-202.5 252,-232.5"/>
<text text-anchor="start" x="131" y="-220.5" font-family="Helvetica,sans-Serif" font-size="10.00">others::lru_cache::</text>
<text text-anchor="middle" x="187.5" y="-209.5" font-family="Helvetica,sans-Serif" font-size="10.00">LRUCache::getPageFault</text>
</a>
</g>
</g>
<!-- Node1&#45;&gt;Node3 -->
<g id="edge2" class="edge">
<title>Node1&#45;&gt;Node3</title>
<path fill="none" stroke="#63b8ff" d="M87.49,-217.5C95.04,-217.5 103.08,-217.5 111.21,-217.5"/>
<polygon fill="#63b8ff" stroke="#63b8ff" points="111.18,-221 121.18,-217.5 111.18,-214 111.18,-221"/>
</g>
<!-- Node4 -->
<g id="node4" class="node">
<title>Node4</title>
<g id="a_node4"><a xlink:href="../../d6/dae/classothers_1_1lru__cache_1_1_l_r_u_cache.html#a7dbf04bf7e1472c48639694f0b110602" target="_top" xlink:title="Refer to a page, or request a page from memory.">
<polygon fill="white" stroke="#666666" points="236.5,-184.5 138.5,-184.5 138.5,-154.5 236.5,-154.5 236.5,-184.5"/>
<text text-anchor="start" x="146.5" y="-172.5" font-family="Helvetica,sans-Serif" font-size="10.00">others::lru_cache::</text>
<text text-anchor="middle" x="187.5" y="-161.5" font-family="Helvetica,sans-Serif" font-size="10.00">LRUCache::refer</text>
</a>
</g>
</g>
<!-- Node1&#45;&gt;Node4 -->
<g id="edge3" class="edge">
<title>Node1&#45;&gt;Node4</title>
<path fill="none" stroke="#63b8ff" d="M73.92,-207.55C90.16,-202.07 110.88,-195.06 130.1,-188.56"/>
<polygon fill="#63b8ff" stroke="#63b8ff" points="131.11,-191.92 139.46,-185.4 128.87,-185.29 131.11,-191.92"/>
</g>
<!-- Node5 -->
<g id="node5" class="node">
<title>Node5</title>
<g id="a_node5"><a target="_blank" xlink:href="http://en.cppreference.com/w/cpp/container/list/back.html#" xlink:title=" ">
<polygon fill="white" stroke="#666666" points="388.5,-339 312.5,-339 312.5,-320 388.5,-320 388.5,-339"/>
<text text-anchor="middle" x="350.5" y="-327" font-family="Helvetica,sans-Serif" font-size="10.00">std::list::back</text>
</a>
</g>
</g>
<!-- Node4&#45;&gt;Node5 -->
<g id="edge4" class="edge">
<title>Node4&#45;&gt;Node5</title>
<path fill="none" stroke="#63b8ff" d="M236.91,-182.24C242.51,-185.24 247.73,-188.94 252,-193.5 289.49,-233.52 249.01,-272.95 288,-311.5 291.9,-315.35 296.58,-318.39 301.59,-320.78"/>
<polygon fill="#63b8ff" stroke="#63b8ff" points="300.19,-324 310.78,-324.3 302.7,-317.46 300.19,-324"/>
</g>
<!-- Node6 -->
<g id="node6" class="node">
<title>Node6</title>
<g id="a_node6"><a target="_blank" xlink:href="http://en.cppreference.com/w/cpp/container/list/begin.html#" xlink:title=" ">
<polygon fill="white" stroke="#666666" points="389.5,-302 311.5,-302 311.5,-283 389.5,-283 389.5,-302"/>
<text text-anchor="middle" x="350.5" y="-290" font-family="Helvetica,sans-Serif" font-size="10.00">std::list::begin</text>
</a>
</g>
</g>
<!-- Node4&#45;&gt;Node6 -->
<g id="edge5" class="edge">
<title>Node4&#45;&gt;Node6</title>
<path fill="none" stroke="#63b8ff" d="M236.72,-182.91C242.28,-185.8 247.55,-189.29 252,-193.5 280.64,-220.55 258.35,-248.56 288,-274.5 291.78,-277.8 296.13,-280.5 300.74,-282.7"/>
<polygon fill="#63b8ff" stroke="#63b8ff" points="299.13,-285.83 309.71,-286.23 301.68,-279.31 299.13,-285.83"/>
</g>
<!-- Node7 -->
<g id="node7" class="node">
<title>Node7</title>
<g id="a_node7"><a target="_blank" xlink:href="http://en.cppreference.com/w/cpp/container/unordered_map/end.html#" xlink:title=" ">
<polygon fill="white" stroke="#666666" points="413,-265 288,-265 288,-246 413,-246 413,-265"/>
<text text-anchor="middle" x="350.5" y="-253" font-family="Helvetica,sans-Serif" font-size="10.00">std::unordered_map::end</text>
</a>
</g>
</g>
<!-- Node4&#45;&gt;Node7 -->
<g id="edge6" class="edge">
<title>Node4&#45;&gt;Node7</title>
<path fill="none" stroke="#63b8ff" d="M236.68,-184.64C242.06,-187.21 247.29,-190.16 252,-193.5 272.32,-207.93 267.24,-222.7 288,-236.5 290.4,-238.1 292.95,-239.57 295.58,-240.91"/>
<polygon fill="#63b8ff" stroke="#63b8ff" points="294.1,-244.09 304.66,-244.93 296.94,-237.69 294.1,-244.09"/>
</g>
<!-- Node8 -->
<g id="node8" class="node">
<title>Node8</title>
<g id="a_node8"><a target="_blank" xlink:href="http://en.cppreference.com/w/cpp/container/unordered_map/erase.html#" xlink:title=" ">
<polygon fill="white" stroke="#666666" points="402,-227.5 299,-227.5 299,-197.5 402,-197.5 402,-227.5"/>
<text text-anchor="start" x="307" y="-215.5" font-family="Helvetica,sans-Serif" font-size="10.00">std::unordered_map</text>
<text text-anchor="middle" x="350.5" y="-204.5" font-family="Helvetica,sans-Serif" font-size="10.00">::erase</text>
</a>
</g>
</g>
<!-- Node4&#45;&gt;Node8 -->
<g id="edge7" class="edge">
<title>Node4&#45;&gt;Node8</title>
<path fill="none" stroke="#63b8ff" d="M236.81,-182.4C252.84,-186.68 270.91,-191.51 287.81,-196.02"/>
<polygon fill="#63b8ff" stroke="#63b8ff" points="286.69,-199.35 297.25,-198.55 288.49,-192.58 286.69,-199.35"/>
</g>
<!-- Node9 -->
<g id="node9" class="node">
<title>Node9</title>
<g id="a_node9"><a target="_blank" xlink:href="http://en.cppreference.com/w/cpp/container/list/erase.html#" xlink:title=" ">
<polygon fill="white" stroke="#666666" points="390,-179 311,-179 311,-160 390,-160 390,-179"/>
<text text-anchor="middle" x="350.5" y="-167" font-family="Helvetica,sans-Serif" font-size="10.00">std::list::erase</text>
</a>
</g>
</g>
<!-- Node4&#45;&gt;Node9 -->
<g id="edge8" class="edge">
<title>Node4&#45;&gt;Node9</title>
<path fill="none" stroke="#63b8ff" d="M236.81,-169.5C256.55,-169.5 279.39,-169.5 299.32,-169.5"/>
<polygon fill="#63b8ff" stroke="#63b8ff" points="299.16,-173 309.16,-169.5 299.16,-166 299.16,-173"/>
</g>
<!-- Node10 -->
<g id="node10" class="node">
<title>Node10</title>
<g id="a_node10"><a target="_blank" xlink:href="http://en.cppreference.com/w/cpp/container/unordered_map/find.html#" xlink:title=" ">
<polygon fill="white" stroke="#666666" points="402,-141.5 299,-141.5 299,-111.5 402,-111.5 402,-141.5"/>
<text text-anchor="start" x="307" y="-129.5" font-family="Helvetica,sans-Serif" font-size="10.00">std::unordered_map</text>
<text text-anchor="middle" x="350.5" y="-118.5" font-family="Helvetica,sans-Serif" font-size="10.00">::find</text>
</a>
</g>
</g>
<!-- Node4&#45;&gt;Node10 -->
<g id="edge9" class="edge">
<title>Node4&#45;&gt;Node10</title>
<path fill="none" stroke="#63b8ff" d="M236.81,-156.6C252.84,-152.32 270.91,-147.49 287.81,-142.98"/>
<polygon fill="#63b8ff" stroke="#63b8ff" points="288.49,-146.42 297.25,-140.45 286.69,-139.65 288.49,-146.42"/>
</g>
<!-- Node11 -->
<g id="node11" class="node">
<title>Node11</title>
<g id="a_node11"><a target="_blank" xlink:href="http://en.cppreference.com/w/cpp/container/list/pop_back.html#" xlink:title=" ">
<polygon fill="white" stroke="#666666" points="399,-93 302,-93 302,-74 399,-74 399,-93"/>
<text text-anchor="middle" x="350.5" y="-81" font-family="Helvetica,sans-Serif" font-size="10.00">std::list::pop_back</text>
</a>
</g>
</g>
<!-- Node4&#45;&gt;Node11 -->
<g id="edge10" class="edge">
<title>Node4&#45;&gt;Node11</title>
<path fill="none" stroke="#63b8ff" d="M207.66,-154.09C226.98,-139.17 258.13,-116.79 288,-102.5 291.97,-100.6 296.17,-98.84 300.44,-97.21"/>
<polygon fill="#63b8ff" stroke="#63b8ff" points="301.41,-100.58 309.68,-93.96 299.08,-93.98 301.41,-100.58"/>
</g>
<!-- Node12 -->
<g id="node12" class="node">
<title>Node12</title>
<g id="a_node12"><a target="_blank" xlink:href="http://en.cppreference.com/w/cpp/container/list/push_front.html#" xlink:title=" ">
<polygon fill="white" stroke="#666666" points="401,-56 300,-56 300,-37 401,-37 401,-56"/>
<text text-anchor="middle" x="350.5" y="-44" font-family="Helvetica,sans-Serif" font-size="10.00">std::list::push_front</text>
</a>
</g>
</g>
<!-- Node4&#45;&gt;Node12 -->
<g id="edge11" class="edge">
<title>Node4&#45;&gt;Node12</title>
<path fill="none" stroke="#63b8ff" d="M199.21,-154.07C215.72,-131.42 249.53,-89.28 288,-65.5 290.76,-63.79 293.69,-62.23 296.71,-60.8"/>
<polygon fill="#63b8ff" stroke="#63b8ff" points="297.94,-64.07 305.83,-57 295.25,-57.61 297.94,-64.07"/>
</g>
<!-- Node13 -->
<g id="node13" class="node">
<title>Node13</title>
<g id="a_node13"><a target="_blank" xlink:href="http://en.cppreference.com/w/cpp/container/list/size.html#" xlink:title=" ">
<polygon fill="white" stroke="#666666" points="387,-19 314,-19 314,0 387,0 387,-19"/>
<text text-anchor="middle" x="350.5" y="-7" font-family="Helvetica,sans-Serif" font-size="10.00">std::list::size</text>
</a>
</g>
</g>
<!-- Node4&#45;&gt;Node13 -->
<g id="edge12" class="edge">
<title>Node4&#45;&gt;Node13</title>
<path fill="none" stroke="#63b8ff" d="M195.11,-154.26C208.42,-125.36 241.21,-62.47 288,-28.5 292.63,-25.14 297.87,-22.36 303.28,-20.07"/>
<polygon fill="#63b8ff" stroke="#63b8ff" points="304.19,-23.47 312.38,-16.76 301.79,-16.89 304.19,-23.47"/>
</g>
</g>
</svg>
