<?xml version="1.0" encoding="UTF-8" standalone="no"?>
<!DOCTYPE svg PUBLIC "-//W3C//DTD SVG 1.1//EN"
 "http://www.w3.org/Graphics/SVG/1.1/DTD/svg11.dtd">
<!-- Generated by graphviz version 2.49.3 (20211023.0002)
 -->
<!-- Title: sorting::strand::strand_sort Pages: 1 -->
<svg width="281pt" height="332pt"
 viewBox="0.00 0.00 281.00 332.00" xmlns="http://www.w3.org/2000/svg" xmlns:xlink="http://www.w3.org/1999/xlink">
<g id="graph0" class="graph" transform="scale(1 1) rotate(0) translate(4 328)">
<title>sorting::strand::strand_sort</title>
<polygon fill="white" stroke="transparent" points="-4,4 -4,-328 277,-328 277,4 -4,4"/>
<!-- Node1 -->
<g id="node1" class="node">
<title>Node1</title>
<g id="a_node1"><a xlink:title="Apply sorting.">
<polygon fill="#bfbfbf" stroke="black" points="0,-152.5 0,-171.5 135,-171.5 135,-152.5 0,-152.5"/>
<text text-anchor="middle" x="67.5" y="-159.5" font-family="Helvetica,sans-Serif" font-size="10.00">sorting::strand::strand_sort</text>
</a>
</g>
</g>
<!-- Node1&#45;&gt;Node1 -->
<g id="edge10" class="edge">
<title>Node1&#45;&gt;Node1</title>
<path fill="none" stroke="midnightblue" d="M43.76,-171.76C32.22,-180.57 40.13,-190 67.5,-190 85.46,-190 95.04,-185.94 96.25,-180.65"/>
<polygon fill="midnightblue" stroke="midnightblue" points="99.19,-178.75 91.24,-171.76 93.09,-182.19 99.19,-178.75"/>
</g>
<!-- Node2 -->
<g id="node2" class="node">
<title>Node2</title>
<g id="a_node2"><a target="_blank" xlink:href="http://en.cppreference.com/w/cpp/container/list/back.html#" xlink:title=" ">
<polygon fill="white" stroke="black" points="185,-304.5 185,-323.5 259,-323.5 259,-304.5 185,-304.5"/>
<text text-anchor="middle" x="222" y="-311.5" font-family="Helvetica,sans-Serif" font-size="10.00">std::list::back</text>
</a>
</g>
</g>
<!-- Node1&#45;&gt;Node2 -->
<g id="edge1" class="edge">
<title>Node1&#45;&gt;Node2</title>
<path fill="none" stroke="midnightblue" d="M73.56,-171.85C86.51,-196.14 123.25,-259.55 171,-295 173.46,-296.82 176.11,-298.49 178.86,-300.02"/>
<polygon fill="midnightblue" stroke="midnightblue" points="177.39,-303.19 187.91,-304.4 180.44,-296.89 177.39,-303.19"/>
</g>
<!-- Node3 -->
<g id="node3" class="node">
<title>Node3</title>
<g id="a_node3"><a target="_blank" xlink:href="http://en.cppreference.com/w/cpp/container/list/begin.html#" xlink:title=" ">
<polygon fill="white" stroke="black" points="183,-266.5 183,-285.5 261,-285.5 261,-266.5 183,-266.5"/>
<text text-anchor="middle" x="222" y="-273.5" font-family="Helvetica,sans-Serif" font-size="10.00">std::list::begin</text>
</a>
</g>
</g>
<!-- Node1&#45;&gt;Node3 -->
<g id="edge2" class="edge">
<title>Node1&#45;&gt;Node3</title>
<path fill="none" stroke="midnightblue" d="M76.59,-171.65C92.76,-190.42 131,-232.19 171,-257 174.14,-258.95 177.52,-260.75 180.98,-262.41"/>
<polygon fill="midnightblue" stroke="midnightblue" points="179.67,-265.66 190.24,-266.44 182.47,-259.24 179.67,-265.66"/>
</g>
<!-- Node4 -->
<g id="node4" class="node">
<title>Node4</title>
<g id="a_node4"><a target="_blank" xlink:href="http://en.cppreference.com/w/cpp/container/list/empty.html#" xlink:title=" ">
<polygon fill="white" stroke="black" points="182,-228.5 182,-247.5 262,-247.5 262,-228.5 182,-228.5"/>
<text text-anchor="middle" x="222" y="-235.5" font-family="Helvetica,sans-Serif" font-size="10.00">std::list::empty</text>
</a>
</g>
</g>
<!-- Node1&#45;&gt;Node4 -->
<g id="edge3" class="edge">
<title>Node1&#45;&gt;Node4</title>
<path fill="none" stroke="midnightblue" d="M84.11,-171.61C103.89,-183.58 139.24,-204.23 171,-219 175.19,-220.95 179.63,-222.85 184.08,-224.66"/>
<polygon fill="midnightblue" stroke="midnightblue" points="183.13,-228.05 193.72,-228.45 185.69,-221.54 183.13,-228.05"/>
</g>
<!-- Node5 -->
<g id="node5" class="node">
<title>Node5</title>
<g id="a_node5"><a target="_blank" xlink:href="http://en.cppreference.com/w/cpp/container/list/end.html#" xlink:title=" ">
<polygon fill="white" stroke="black" points="187,-190.5 187,-209.5 257,-209.5 257,-190.5 187,-190.5"/>
<text text-anchor="middle" x="222" y="-197.5" font-family="Helvetica,sans-Serif" font-size="10.00">std::list::end</text>
</a>
</g>
</g>
<!-- Node1&#45;&gt;Node5 -->
<g id="edge4" class="edge">
<title>Node1&#45;&gt;Node5</title>
<path fill="none" stroke="midnightblue" d="M106.98,-171.59C128.33,-176.91 154.96,-183.54 177.12,-189.07"/>
<polygon fill="midnightblue" stroke="midnightblue" points="176.4,-192.49 186.95,-191.51 178.09,-185.7 176.4,-192.49"/>
</g>
<!-- Node6 -->
<g id="node6" class="node">
<title>Node6</title>
<g id="a_node6"><a target="_blank" xlink:href="http://en.cppreference.com/w/cpp/container/list/erase.html#" xlink:title=" ">
<polygon fill="white" stroke="black" points="183,-152.5 183,-171.5 261,-171.5 261,-152.5 183,-152.5"/>
<text text-anchor="middle" x="222" y="-159.5" font-family="Helvetica,sans-Serif" font-size="10.00">std::list::erase</text>
</a>
</g>
</g>
<!-- Node1&#45;&gt;Node6 -->
<g id="edge5" class="edge">
<title>Node1&#45;&gt;Node6</title>
<path fill="none" stroke="midnightblue" d="M135.39,-162C147.89,-162 160.74,-162 172.55,-162"/>
<polygon fill="midnightblue" stroke="midnightblue" points="172.63,-165.5 182.63,-162 172.63,-158.5 172.63,-165.5"/>
</g>
<!-- Node7 -->
<g id="node7" class="node">
<title>Node7</title>
<g id="a_node7"><a target="_blank" xlink:href="http://en.cppreference.com/w/cpp/container/list/front.html#" xlink:title=" ">
<polygon fill="white" stroke="black" points="185.5,-114.5 185.5,-133.5 258.5,-133.5 258.5,-114.5 185.5,-114.5"/>
<text text-anchor="middle" x="222" y="-121.5" font-family="Helvetica,sans-Serif" font-size="10.00">std::list::front</text>
</a>
</g>
</g>
<!-- Node1&#45;&gt;Node7 -->
<g id="edge6" class="edge">
<title>Node1&#45;&gt;Node7</title>
<path fill="none" stroke="midnightblue" d="M106.98,-152.41C127.87,-147.21 153.82,-140.74 175.68,-135.29"/>
<polygon fill="midnightblue" stroke="midnightblue" points="176.55,-138.68 185.41,-132.87 174.86,-131.89 176.55,-138.68"/>
</g>
<!-- Node8 -->
<g id="node8" class="node">
<title>Node8</title>
<g id="a_node8"><a target="_blank" xlink:href="http://en.cppreference.com/w/cpp/container/list/pop_front.html#" xlink:title=" ">
<polygon fill="white" stroke="black" points="174.5,-76.5 174.5,-95.5 269.5,-95.5 269.5,-76.5 174.5,-76.5"/>
<text text-anchor="middle" x="222" y="-83.5" font-family="Helvetica,sans-Serif" font-size="10.00">std::list::pop_front</text>
</a>
</g>
</g>
<!-- Node1&#45;&gt;Node8 -->
<g id="edge7" class="edge">
<title>Node1&#45;&gt;Node8</title>
<path fill="none" stroke="midnightblue" d="M84.11,-152.39C103.89,-140.42 139.24,-119.77 171,-105 175.19,-103.05 179.63,-101.15 184.08,-99.34"/>
<polygon fill="midnightblue" stroke="midnightblue" points="185.69,-102.46 193.72,-95.55 183.13,-95.95 185.69,-102.46"/>
</g>
<!-- Node9 -->
<g id="node9" class="node">
<title>Node9</title>
<g id="a_node9"><a target="_blank" xlink:href="http://en.cppreference.com/w/cpp/container/list/push_back.html#" xlink:title=" ">
<polygon fill="white" stroke="black" points="171,-38.5 171,-57.5 273,-57.5 273,-38.5 171,-38.5"/>
<text text-anchor="middle" x="222" y="-45.5" font-family="Helvetica,sans-Serif" font-size="10.00">std::list::push_back</text>
</a>
</g>
</g>
<!-- Node1&#45;&gt;Node9 -->
<g id="edge8" class="edge">
<title>Node1&#45;&gt;Node9</title>
<path fill="none" stroke="midnightblue" d="M76.59,-152.35C92.76,-133.58 131,-91.81 171,-67 174.14,-65.05 177.52,-63.25 180.98,-61.59"/>
<polygon fill="midnightblue" stroke="midnightblue" points="182.47,-64.76 190.24,-57.56 179.67,-58.34 182.47,-64.76"/>
</g>
<!-- Node10 -->
<g id="node10" class="node">
<title>Node10</title>
<g id="a_node10"><a target="_blank" xlink:href="http://en.cppreference.com/w/cpp/container/list/size.html#" xlink:title=" ">
<polygon fill="white" stroke="black" points="186.5,-0.5 186.5,-19.5 257.5,-19.5 257.5,-0.5 186.5,-0.5"/>
<text text-anchor="middle" x="222" y="-7.5" font-family="Helvetica,sans-Serif" font-size="10.00">std::list::size</text>
</a>
</g>
</g>
<!-- Node1&#45;&gt;Node10 -->
<g id="edge9" class="edge">
<title>Node1&#45;&gt;Node10</title>
<path fill="none" stroke="midnightblue" d="M73.56,-152.15C86.51,-127.86 123.25,-64.45 171,-29 173.46,-27.18 176.11,-25.51 178.86,-23.98"/>
<polygon fill="midnightblue" stroke="midnightblue" points="180.44,-27.11 187.91,-19.6 177.39,-20.81 180.44,-27.11"/>
</g>
</g>
</svg>
