<?xml version="1.0" encoding="UTF-8" standalone="no"?>
<!DOCTYPE svg PUBLIC "-//W3C//DTD SVG 1.1//EN"
 "http://www.w3.org/Graphics/SVG/1.1/DTD/svg11.dtd">
<!-- Generated by graphviz version 8.1.0 (20230707.0739)
 -->
<!-- Title: sorting::strand::strand_sort Pages: 1 -->
<svg width="279pt" height="323pt"
 viewBox="0.00 0.00 278.50 323.25" xmlns="http://www.w3.org/2000/svg" xmlns:xlink="http://www.w3.org/1999/xlink">
<g id="graph0" class="graph" transform="scale(1 1) rotate(0) translate(4 319.25)">
<title>sorting::strand::strand_sort</title>
<!-- Node1 -->
<g id="Node000001" class="node">
<title>Node1</title>
<g id="a_Node000001"><a xlink:title="Apply sorting.">
<polygon fill="#999999" stroke="#666666" points="133,-167.25 0,-167.25 0,-148 133,-148 133,-167.25"/>
<text text-anchor="middle" x="66.5" y="-153.75" font-family="Helvetica,sans-Serif" font-size="10.00">sorting::strand::strand_sort</text>
</a>
</g>
</g>
<!-- Node1&#45;&gt;Node1 -->
<g id="edge10_Node000001_Node000001" class="edge">
<title>Node1&#45;&gt;Node1</title>
<g id="a_edge10_Node000001_Node000001"><a xlink:title=" ">
<path fill="none" stroke="#63b8ff" d="M42.51,-167.54C31.56,-176.15 39.56,-185.25 66.5,-185.25 82.49,-185.25 91.81,-182.04 94.45,-177.63"/>
<polygon fill="#63b8ff" stroke="#63b8ff" points="97.4,-176.57 90.49,-168.54 90.89,-179.13 97.4,-176.57"/>
</a>
</g>
</g>
<!-- Node2 -->
<g id="Node000002" class="node">
<title>Node2</title>
<g id="a_Node000002"><a target="_blank" xlink:href="http://en.cppreference.com/w/cpp/container/list/back.html#" xlink:title=" ">
<polygon fill="white" stroke="#666666" points="257.38,-315.25 182.12,-315.25 182.12,-296 257.38,-296 257.38,-315.25"/>
<text text-anchor="middle" x="219.75" y="-301.75" font-family="Helvetica,sans-Serif" font-size="10.00">std::list::back</text>
</a>
</g>
</g>
<!-- Node1&#45;&gt;Node2 -->
<g id="edge1_Node000001_Node000002" class="edge">
<title>Node1&#45;&gt;Node2</title>
<g id="a_edge1_Node000001_Node000002"><a xlink:title=" ">
<path fill="none" stroke="#63b8ff" d="M72.7,-167.65C85.69,-191.75 121.95,-253.5 169,-287.62 170.48,-288.7 172.04,-289.72 173.64,-290.68"/>
<polygon fill="#63b8ff" stroke="#63b8ff" points="171.75,-294.15 182.24,-295.59 174.93,-287.92 171.75,-294.15"/>
</a>
</g>
</g>
<!-- Node3 -->
<g id="Node000003" class="node">
<title>Node3</title>
<g id="a_Node000003"><a target="_blank" xlink:href="http://en.cppreference.com/w/cpp/container/list/begin.html#" xlink:title=" ">
<polygon fill="white" stroke="#666666" points="258.5,-278.25 181,-278.25 181,-259 258.5,-259 258.5,-278.25"/>
<text text-anchor="middle" x="219.75" y="-264.75" font-family="Helvetica,sans-Serif" font-size="10.00">std::list::begin</text>
</a>
</g>
</g>
<!-- Node1&#45;&gt;Node3 -->
<g id="edge2_Node000001_Node000003" class="edge">
<title>Node1&#45;&gt;Node3</title>
<g id="a_edge2_Node000001_Node000003"><a xlink:title=" ">
<path fill="none" stroke="#63b8ff" d="M76,-167.7C92.28,-186.43 129.75,-226.86 169,-250.62 171.04,-251.86 173.18,-253.03 175.38,-254.14"/>
<polygon fill="#63b8ff" stroke="#63b8ff" points="173.7,-257.67 184.26,-258.58 176.57,-251.29 173.7,-257.67"/>
</a>
</g>
</g>
<!-- Node4 -->
<g id="Node000004" class="node">
<title>Node4</title>
<g id="a_Node000004"><a target="_blank" xlink:href="http://en.cppreference.com/w/cpp/container/list/empty.html#" xlink:title=" ">
<polygon fill="white" stroke="#666666" points="260.38,-241.25 179.12,-241.25 179.12,-222 260.38,-222 260.38,-241.25"/>
<text text-anchor="middle" x="219.75" y="-227.75" font-family="Helvetica,sans-Serif" font-size="10.00">std::list::empty</text>
</a>
</g>
</g>
<!-- Node1&#45;&gt;Node4 -->
<g id="edge3_Node000001_Node000004" class="edge">
<title>Node1&#45;&gt;Node4</title>
<g id="a_edge3_Node000001_Node000004"><a xlink:title=" ">
<path fill="none" stroke="#63b8ff" d="M83.62,-167.56C103.3,-179.44 137.84,-199.5 169,-213.62 172,-214.98 175.13,-216.32 178.31,-217.6"/>
<polygon fill="#63b8ff" stroke="#63b8ff" points="176.86,-221.18 187.45,-221.52 179.39,-214.65 176.86,-221.18"/>
</a>
</g>
</g>
<!-- Node5 -->
<g id="Node000005" class="node">
<title>Node5</title>
<g id="a_Node000005"><a target="_blank" xlink:href="http://en.cppreference.com/w/cpp/container/list/end.html#" xlink:title=" ">
<polygon fill="white" stroke="#666666" points="254.75,-204.25 184.75,-204.25 184.75,-185 254.75,-185 254.75,-204.25"/>
<text text-anchor="middle" x="219.75" y="-190.75" font-family="Helvetica,sans-Serif" font-size="10.00">std::list::end</text>
</a>
</g>
</g>
<!-- Node1&#45;&gt;Node5 -->
<g id="edge4_Node000001_Node000005" class="edge">
<title>Node1&#45;&gt;Node5</title>
<g id="a_edge4_Node000001_Node000005"><a xlink:title=" ">
<path fill="none" stroke="#63b8ff" d="M108.83,-167.74C129.09,-172.69 153.51,-178.67 174.19,-183.72"/>
<polygon fill="#63b8ff" stroke="#63b8ff" points="173.07,-187.3 183.62,-186.28 174.74,-180.5 173.07,-187.3"/>
</a>
</g>
</g>
<!-- Node6 -->
<g id="Node000006" class="node">
<title>Node6</title>
<g id="a_Node000006"><a target="_blank" xlink:href="http://en.cppreference.com/w/cpp/container/list/erase.html#" xlink:title=" ">
<polygon fill="white" stroke="#666666" points="258.88,-167.25 180.62,-167.25 180.62,-148 258.88,-148 258.88,-167.25"/>
<text text-anchor="middle" x="219.75" y="-153.75" font-family="Helvetica,sans-Serif" font-size="10.00">std::list::erase</text>
</a>
</g>
</g>
<!-- Node1&#45;&gt;Node6 -->
<g id="edge5_Node000001_Node000006" class="edge">
<title>Node1&#45;&gt;Node6</title>
<g id="a_edge5_Node000001_Node000006"><a xlink:title=" ">
<path fill="none" stroke="#63b8ff" d="M133.4,-157.62C145.59,-157.62 158.12,-157.62 169.69,-157.62"/>
<polygon fill="#63b8ff" stroke="#63b8ff" points="169.46,-161.13 179.46,-157.62 169.46,-154.13 169.46,-161.13"/>
</a>
</g>
</g>
<!-- Node7 -->
<g id="Node000007" class="node">
<title>Node7</title>
<g id="a_Node000007"><a target="_blank" xlink:href="http://en.cppreference.com/w/cpp/container/list/front.html#" xlink:title=" ">
<polygon fill="white" stroke="#666666" points="256.62,-130.25 182.88,-130.25 182.88,-111 256.62,-111 256.62,-130.25"/>
<text text-anchor="middle" x="219.75" y="-116.75" font-family="Helvetica,sans-Serif" font-size="10.00">std::list::front</text>
</a>
</g>
</g>
<!-- Node1&#45;&gt;Node7 -->
<g id="edge6_Node000001_Node000007" class="edge">
<title>Node1&#45;&gt;Node7</title>
<g id="a_edge6_Node000001_Node000007"><a xlink:title=" ">
<path fill="none" stroke="#63b8ff" d="M108.83,-147.51C128.4,-142.73 151.86,-136.99 172.08,-132.04"/>
<polygon fill="#63b8ff" stroke="#63b8ff" points="172.74,-135.24 181.62,-129.46 171.07,-128.44 172.74,-135.24"/>
</a>
</g>
</g>
<!-- Node8 -->
<g id="Node000008" class="node">
<title>Node8</title>
<g id="a_Node000008"><a target="_blank" xlink:href="http://en.cppreference.com/w/cpp/container/list/pop_front.html#" xlink:title=" ">
<polygon fill="white" stroke="#666666" points="267.12,-93.25 172.38,-93.25 172.38,-74 267.12,-74 267.12,-93.25"/>
<text text-anchor="middle" x="219.75" y="-79.75" font-family="Helvetica,sans-Serif" font-size="10.00">std::list::pop_front</text>
</a>
</g>
</g>
<!-- Node1&#45;&gt;Node8 -->
<g id="edge7_Node000001_Node000008" class="edge">
<title>Node1&#45;&gt;Node8</title>
<g id="a_edge7_Node000001_Node000008"><a xlink:title=" ">
<path fill="none" stroke="#63b8ff" d="M83.62,-147.69C103.3,-135.81 137.84,-115.75 169,-101.62 172,-100.27 175.13,-98.93 178.31,-97.65"/>
<polygon fill="#63b8ff" stroke="#63b8ff" points="179.39,-100.6 187.45,-93.73 176.86,-94.07 179.39,-100.6"/>
</a>
</g>
</g>
<!-- Node9 -->
<g id="Node000009" class="node">
<title>Node9</title>
<g id="a_Node000009"><a target="_blank" xlink:href="http://en.cppreference.com/w/cpp/container/list/push_back.html#" xlink:title=" ">
<polygon fill="white" stroke="#666666" points="270.5,-56.25 169,-56.25 169,-37 270.5,-37 270.5,-56.25"/>
<text text-anchor="middle" x="219.75" y="-42.75" font-family="Helvetica,sans-Serif" font-size="10.00">std::list::push_back</text>
</a>
</g>
</g>
<!-- Node1&#45;&gt;Node9 -->
<g id="edge8_Node000001_Node000009" class="edge">
<title>Node1&#45;&gt;Node9</title>
<g id="a_edge8_Node000001_Node000009"><a xlink:title=" ">
<path fill="none" stroke="#63b8ff" d="M76,-147.55C92.28,-128.82 129.75,-88.39 169,-64.62 171.04,-63.39 173.18,-62.22 175.38,-61.11"/>
<polygon fill="#63b8ff" stroke="#63b8ff" points="176.57,-63.96 184.26,-56.67 173.7,-57.58 176.57,-63.96"/>
</a>
</g>
</g>
<!-- Node10 -->
<g id="Node000010" class="node">
<title>Node10</title>
<g id="a_Node000010"><a target="_blank" xlink:href="http://en.cppreference.com/w/cpp/container/list/size.html#" xlink:title=" ">
<polygon fill="white" stroke="#666666" points="255.88,-19.25 183.62,-19.25 183.62,0 255.88,0 255.88,-19.25"/>
<text text-anchor="middle" x="219.75" y="-5.75" font-family="Helvetica,sans-Serif" font-size="10.00">std::list::size</text>
</a>
</g>
</g>
<!-- Node1&#45;&gt;Node10 -->
<g id="edge9_Node000001_Node000010" class="edge">
<title>Node1&#45;&gt;Node10</title>
<g id="a_edge9_Node000001_Node000010"><a xlink:title=" ">
<path fill="none" stroke="#63b8ff" d="M72.7,-147.6C85.69,-123.5 121.95,-61.75 169,-27.62 170.48,-26.55 172.04,-25.53 173.64,-24.57"/>
<polygon fill="#63b8ff" stroke="#63b8ff" points="174.93,-27.33 182.24,-19.66 171.75,-21.1 174.93,-27.33"/>
</a>
</g>
</g>
</g>
</svg>
