<?xml version="1.0" encoding="UTF-8" standalone="no"?>
<!DOCTYPE svg PUBLIC "-//W3C//DTD SVG 1.1//EN"
 "http://www.w3.org/Graphics/SVG/1.1/DTD/svg11.dtd">
<!-- Generated by graphviz version 8.0.2 (20230410.1723)
 -->
<!-- Title: sorting::strand::strand_sort Pages: 1 -->
<svg width="280pt" height="323pt"
 viewBox="0.00 0.00 280.00 323.00" xmlns="http://www.w3.org/2000/svg" xmlns:xlink="http://www.w3.org/1999/xlink">
<g id="graph0" class="graph" transform="scale(1 1) rotate(0) translate(4 319)">
<title>sorting::strand::strand_sort</title>
<!-- Node1 -->
<g id="node1" class="node">
<title>Node1</title>
<g id="a_node1"><a xlink:title="Apply sorting.">
<polygon fill="#999999" stroke="#666666" points="134,-167 0,-167 0,-148 134,-148 134,-167"/>
<text text-anchor="middle" x="67" y="-155" font-family="Helvetica,sans-Serif" font-size="10.00">sorting::strand::strand_sort</text>
</a>
</g>
</g>
<!-- Node1&#45;&gt;Node1 -->
<g id="edge10" class="edge">
<title>Node1&#45;&gt;Node1</title>
<path fill="none" stroke="#63b8ff" d="M42.89,-167.37C31.89,-175.94 39.93,-185 67,-185 83.07,-185 92.44,-181.8 95.09,-177.42"/>
<polygon fill="#63b8ff" stroke="#63b8ff" points="98.05,-176.38 91.11,-168.37 91.54,-178.95 98.05,-176.38"/>
</g>
<!-- Node2 -->
<g id="node2" class="node">
<title>Node2</title>
<g id="a_node2"><a target="_blank" xlink:href="http://en.cppreference.com/w/cpp/container/list/back.html#" xlink:title=" ">
<polygon fill="white" stroke="#666666" points="259,-315 183,-315 183,-296 259,-296 259,-315"/>
<text text-anchor="middle" x="221" y="-303" font-family="Helvetica,sans-Serif" font-size="10.00">std::list::back</text>
</a>
</g>
</g>
<!-- Node1&#45;&gt;Node2 -->
<g id="edge1" class="edge">
<title>Node1&#45;&gt;Node2</title>
<path fill="none" stroke="#63b8ff" d="M73.04,-167.17C85.96,-191.03 122.56,-253.23 170,-287.5 171.65,-288.7 173.4,-289.82 175.2,-290.87"/>
<polygon fill="#63b8ff" stroke="#63b8ff" points="173.08,-294.23 183.58,-295.59 176.22,-287.97 173.08,-294.23"/>
</g>
<!-- Node3 -->
<g id="node3" class="node">
<title>Node3</title>
<g id="a_node3"><a target="_blank" xlink:href="http://en.cppreference.com/w/cpp/container/list/begin.html#" xlink:title=" ">
<polygon fill="white" stroke="#666666" points="260,-278 182,-278 182,-259 260,-259 260,-278"/>
<text text-anchor="middle" x="221" y="-266" font-family="Helvetica,sans-Serif" font-size="10.00">std::list::begin</text>
</a>
</g>
</g>
<!-- Node1&#45;&gt;Node3 -->
<g id="edge2" class="edge">
<title>Node1&#45;&gt;Node3</title>
<path fill="none" stroke="#63b8ff" d="M76.29,-167.29C92.53,-185.89 130.39,-226.63 170,-250.5 172.17,-251.81 174.44,-253.04 176.78,-254.2"/>
<polygon fill="#63b8ff" stroke="#63b8ff" points="175.05,-257.7 185.61,-258.56 177.89,-251.31 175.05,-257.7"/>
</g>
<!-- Node4 -->
<g id="node4" class="node">
<title>Node4</title>
<g id="a_node4"><a target="_blank" xlink:href="http://en.cppreference.com/w/cpp/container/list/empty.html#" xlink:title=" ">
<polygon fill="white" stroke="#666666" points="262,-241 180,-241 180,-222 262,-222 262,-241"/>
<text text-anchor="middle" x="221" y="-229" font-family="Helvetica,sans-Serif" font-size="10.00">std::list::empty</text>
</a>
</g>
</g>
<!-- Node1&#45;&gt;Node4 -->
<g id="edge3" class="edge">
<title>Node1&#45;&gt;Node4</title>
<path fill="none" stroke="#63b8ff" d="M84.2,-167.43C103.99,-179.32 138.7,-199.38 170,-213.5 173.2,-214.94 176.54,-216.35 179.93,-217.71"/>
<polygon fill="#63b8ff" stroke="#63b8ff" points="178.49,-221.29 189.08,-221.59 180.99,-214.75 178.49,-221.29"/>
</g>
<!-- Node5 -->
<g id="node5" class="node">
<title>Node5</title>
<g id="a_node5"><a target="_blank" xlink:href="http://en.cppreference.com/w/cpp/container/list/end.html#" xlink:title=" ">
<polygon fill="white" stroke="#666666" points="256.5,-204 185.5,-204 185.5,-185 256.5,-185 256.5,-204"/>
<text text-anchor="middle" x="221" y="-192" font-family="Helvetica,sans-Serif" font-size="10.00">std::list::end</text>
</a>
</g>
</g>
<!-- Node1&#45;&gt;Node5 -->
<g id="edge4" class="edge">
<title>Node1&#45;&gt;Node5</title>
<path fill="none" stroke="#63b8ff" d="M108.73,-167.42C129.03,-172.36 153.63,-178.34 174.54,-183.43"/>
<polygon fill="#63b8ff" stroke="#63b8ff" points="173.55,-187.04 184.09,-186 175.2,-180.24 173.55,-187.04"/>
</g>
<!-- Node6 -->
<g id="node6" class="node">
<title>Node6</title>
<g id="a_node6"><a target="_blank" xlink:href="http://en.cppreference.com/w/cpp/container/list/erase.html#" xlink:title=" ">
<polygon fill="white" stroke="#666666" points="260.5,-167 181.5,-167 181.5,-148 260.5,-148 260.5,-167"/>
<text text-anchor="middle" x="221" y="-155" font-family="Helvetica,sans-Serif" font-size="10.00">std::list::erase</text>
</a>
</g>
</g>
<!-- Node1&#45;&gt;Node6 -->
<g id="edge5" class="edge">
<title>Node1&#45;&gt;Node6</title>
<path fill="none" stroke="#63b8ff" d="M134.23,-157.5C146.35,-157.5 158.82,-157.5 170.35,-157.5"/>
<polygon fill="#63b8ff" stroke="#63b8ff" points="170.09,-161 180.09,-157.5 170.09,-154 170.09,-161"/>
</g>
<!-- Node7 -->
<g id="node7" class="node">
<title>Node7</title>
<g id="a_node7"><a target="_blank" xlink:href="http://en.cppreference.com/w/cpp/container/list/front.html#" xlink:title=" ">
<polygon fill="white" stroke="#666666" points="258,-130 184,-130 184,-111 258,-111 258,-130"/>
<text text-anchor="middle" x="221" y="-118" font-family="Helvetica,sans-Serif" font-size="10.00">std::list::front</text>
</a>
</g>
</g>
<!-- Node1&#45;&gt;Node7 -->
<g id="edge6" class="edge">
<title>Node1&#45;&gt;Node7</title>
<path fill="none" stroke="#63b8ff" d="M108.73,-147.58C128.58,-142.75 152.54,-136.92 173.14,-131.91"/>
<polygon fill="#63b8ff" stroke="#63b8ff" points="173.68,-135.13 182.57,-129.37 172.03,-128.33 173.68,-135.13"/>
</g>
<!-- Node8 -->
<g id="node8" class="node">
<title>Node8</title>
<g id="a_node8"><a target="_blank" xlink:href="http://en.cppreference.com/w/cpp/container/list/pop_front.html#" xlink:title=" ">
<polygon fill="white" stroke="#666666" points="268.5,-93 173.5,-93 173.5,-74 268.5,-74 268.5,-93"/>
<text text-anchor="middle" x="221" y="-81" font-family="Helvetica,sans-Serif" font-size="10.00">std::list::pop_front</text>
</a>
</g>
</g>
<!-- Node1&#45;&gt;Node8 -->
<g id="edge7" class="edge">
<title>Node1&#45;&gt;Node8</title>
<path fill="none" stroke="#63b8ff" d="M84.62,-147.66C104.53,-136.08 139.08,-116.64 170,-102.5 173.83,-100.75 177.88,-99.02 181.94,-97.36"/>
<polygon fill="#63b8ff" stroke="#63b8ff" points="182.94,-100.33 190.96,-93.41 180.38,-93.82 182.94,-100.33"/>
</g>
<!-- Node9 -->
<g id="node9" class="node">
<title>Node9</title>
<g id="a_node9"><a target="_blank" xlink:href="http://en.cppreference.com/w/cpp/container/list/push_back.html#" xlink:title=" ">
<polygon fill="white" stroke="#666666" points="272,-56 170,-56 170,-37 272,-37 272,-56"/>
<text text-anchor="middle" x="221" y="-44" font-family="Helvetica,sans-Serif" font-size="10.00">std::list::push_back</text>
</a>
</g>
</g>
<!-- Node1&#45;&gt;Node9 -->
<g id="edge8" class="edge">
<title>Node1&#45;&gt;Node9</title>
<path fill="none" stroke="#63b8ff" d="M76.61,-147.6C93.09,-129.19 130.93,-89.37 170,-65.5 172.76,-63.81 175.7,-62.23 178.72,-60.76"/>
<polygon fill="#63b8ff" stroke="#63b8ff" points="179.76,-63.68 187.48,-56.43 176.92,-57.28 179.76,-63.68"/>
</g>
<!-- Node10 -->
<g id="node10" class="node">
<title>Node10</title>
<g id="a_node10"><a target="_blank" xlink:href="http://en.cppreference.com/w/cpp/container/list/size.html#" xlink:title=" ">
<polygon fill="white" stroke="#666666" points="257.5,-19 184.5,-19 184.5,0 257.5,0 257.5,-19"/>
<text text-anchor="middle" x="221" y="-7" font-family="Helvetica,sans-Serif" font-size="10.00">std::list::size</text>
</a>
</g>
</g>
<!-- Node1&#45;&gt;Node10 -->
<g id="edge9" class="edge">
<title>Node1&#45;&gt;Node10</title>
<path fill="none" stroke="#63b8ff" d="M73.29,-147.61C86.51,-123.8 123.25,-62.76 170,-28.5 172.05,-26.99 174.24,-25.59 176.51,-24.29"/>
<polygon fill="#63b8ff" stroke="#63b8ff" points="177.77,-27.08 185.16,-19.49 174.65,-20.81 177.77,-27.08"/>
</g>
</g>
</svg>
