<?xml version="1.0" encoding="UTF-8" standalone="no"?>
<!DOCTYPE svg PUBLIC "-//W3C//DTD SVG 1.1//EN"
 "http://www.w3.org/Graphics/SVG/1.1/DTD/svg11.dtd">
<!-- Generated by graphviz version 5.0.1 (20220820.1526)
 -->
<!-- Title: numerical_methods/composite_simpson_rule.cpp Pages: 1 -->
<svg width="450pt" height="93pt"
 viewBox="0.00 0.00 450.00 93.00" xmlns="http://www.w3.org/2000/svg" xmlns:xlink="http://www.w3.org/1999/xlink">
<g id="graph0" class="graph" transform="scale(1 1) rotate(0) translate(4 89)">
<title>numerical_methods/composite_simpson_rule.cpp</title>
<!-- Node1 -->
<g id="node1" class="node">
<title>Node1</title>
<g id="a_node1"><a xlink:title="Implementation of the Composite Simpson Rule for the approximation.">
<polygon fill="#999999" stroke="#666666" points="291,-85 142,-85 142,-55 291,-55 291,-85"/>
<text text-anchor="start" x="150" y="-73" font-family="Helvetica,sans-Serif" font-size="10.00">numerical_methods/composite</text>
<text text-anchor="middle" x="216.5" y="-62" font-family="Helvetica,sans-Serif" font-size="10.00">_simpson_rule.cpp</text>
</a>
</g>
</g>
<!-- Node2 -->
<g id="node2" class="node">
<title>Node2</title>
<g id="a_node2"><a xlink:title=" ">
<polygon fill="#e0e0e0" stroke="#999999" points="49,-19 0,-19 0,0 49,0 49,-19"/>
<text text-anchor="middle" x="24.5" y="-7" font-family="Helvetica,sans-Serif" font-size="10.00">cassert</text>
</a>
</g>
</g>
<!-- Node1&#45;&gt;Node2 -->
<g id="edge1" class="edge">
<title>Node1&#45;&gt;Node2</title>
<path fill="none" stroke="#63b8ff" d="M170.51,-54.99C136.22,-44.54 90.13,-30.5 58.97,-21"/>
<polygon fill="#63b8ff" stroke="#63b8ff" points="59.6,-17.54 49.02,-17.97 57.56,-24.23 59.6,-17.54"/>
</g>
<!-- Node3 -->
<g id="node3" class="node">
<title>Node3</title>
<g id="a_node3"><a xlink:title=" ">
<polygon fill="#e0e0e0" stroke="#999999" points="111.5,-19 67.5,-19 67.5,0 111.5,0 111.5,-19"/>
<text text-anchor="middle" x="89.5" y="-7" font-family="Helvetica,sans-Serif" font-size="10.00">cmath</text>
</a>
</g>
</g>
<!-- Node1&#45;&gt;Node3 -->
<g id="edge2" class="edge">
<title>Node1&#45;&gt;Node3</title>
<path fill="none" stroke="#63b8ff" d="M186.08,-54.99C165.27,-45.4 137.88,-32.79 117.59,-23.44"/>
<polygon fill="#63b8ff" stroke="#63b8ff" points="118.8,-20.14 108.26,-19.14 115.87,-26.5 118.8,-20.14"/>
</g>
<!-- Node4 -->
<g id="node4" class="node">
<title>Node4</title>
<g id="a_node4"><a xlink:title=" ">
<polygon fill="#e0e0e0" stroke="#999999" points="175.5,-19 129.5,-19 129.5,0 175.5,0 175.5,-19"/>
<text text-anchor="middle" x="152.5" y="-7" font-family="Helvetica,sans-Serif" font-size="10.00">cstdint</text>
</a>
</g>
</g>
<!-- Node1&#45;&gt;Node4 -->
<g id="edge3" class="edge">
<title>Node1&#45;&gt;Node4</title>
<path fill="none" stroke="#63b8ff" d="M201.01,-54.84C191.53,-46.17 179.39,-35.08 169.62,-26.15"/>
<polygon fill="#63b8ff" stroke="#63b8ff" points="171.83,-23.43 162.09,-19.27 167.11,-28.6 171.83,-23.43"/>
</g>
<!-- Node5 -->
<g id="node5" class="node">
<title>Node5</title>
<g id="a_node5"><a xlink:title=" ">
<polygon fill="#e0e0e0" stroke="#999999" points="239,-19 194,-19 194,0 239,0 239,-19"/>
<text text-anchor="middle" x="216.5" y="-7" font-family="Helvetica,sans-Serif" font-size="10.00">cstdlib</text>
</a>
</g>
</g>
<!-- Node1&#45;&gt;Node5 -->
<g id="edge4" class="edge">
<title>Node1&#45;&gt;Node5</title>
<path fill="none" stroke="#63b8ff" d="M216.5,-54.84C216.5,-47.21 216.5,-37.7 216.5,-29.45"/>
<polygon fill="#63b8ff" stroke="#63b8ff" points="220,-29.27 216.5,-19.27 213,-29.27 220,-29.27"/>
</g>
<!-- Node6 -->
<g id="node6" class="node">
<title>Node6</title>
<g id="a_node6"><a xlink:title=" ">
<polygon fill="#e0e0e0" stroke="#999999" points="316,-19 257,-19 257,0 316,0 316,-19"/>
<text text-anchor="middle" x="286.5" y="-7" font-family="Helvetica,sans-Serif" font-size="10.00">functional</text>
</a>
</g>
</g>
<!-- Node1&#45;&gt;Node6 -->
<g id="edge5" class="edge">
<title>Node1&#45;&gt;Node6</title>
<path fill="none" stroke="#63b8ff" d="M233.45,-54.84C243.92,-46.09 257.36,-34.85 268.09,-25.88"/>
<polygon fill="#63b8ff" stroke="#63b8ff" points="270.58,-28.36 276.01,-19.27 266.09,-22.99 270.58,-28.36"/>
</g>
<!-- Node7 -->
<g id="node7" class="node">
<title>Node7</title>
<g id="a_node7"><a xlink:title=" ">
<polygon fill="#e0e0e0" stroke="#999999" points="388.5,-19 334.5,-19 334.5,0 388.5,0 388.5,-19"/>
<text text-anchor="middle" x="361.5" y="-7" font-family="Helvetica,sans-Serif" font-size="10.00">iostream</text>
</a>
</g>
</g>
<!-- Node1&#45;&gt;Node7 -->
<g id="edge6" class="edge">
<title>Node1&#45;&gt;Node7</title>
<path fill="none" stroke="#63b8ff" d="M251.23,-54.99C275.42,-45.23 307.4,-32.33 330.69,-22.93"/>
<polygon fill="#63b8ff" stroke="#63b8ff" points="332.12,-26.13 340.09,-19.14 329.5,-19.63 332.12,-26.13"/>
</g>
<!-- Node8 -->
<g id="node8" class="node">
<title>Node8</title>
<g id="a_node8"><a xlink:title=" ">
<polygon fill="#e0e0e0" stroke="#999999" points="442,-19 407,-19 407,0 442,0 442,-19"/>
<text text-anchor="middle" x="424.5" y="-7" font-family="Helvetica,sans-Serif" font-size="10.00">map</text>
</a>
</g>
</g>
<!-- Node1&#45;&gt;Node8 -->
<g id="edge7" class="edge">
<title>Node1&#45;&gt;Node8</title>
<path fill="none" stroke="#63b8ff" d="M269.31,-54.94C303.22,-45.79 348.43,-33.37 397.04,-19.06"/>
<polygon fill="#63b8ff" stroke="#63b8ff" points="398.21,-22.36 406.81,-16.17 396.23,-15.65 398.21,-22.36"/>
</g>
</g>
</svg>
