<?xml version="1.0" encoding="UTF-8" standalone="no"?>
<!DOCTYPE svg PUBLIC "-//W3C//DTD SVG 1.1//EN"
 "http://www.w3.org/Graphics/SVG/1.1/DTD/svg11.dtd">
<!-- Generated by graphviz version 8.0.5 (20230430.1635)
 -->
<!-- Title: greedy_algorithms/jumpgame.cpp Pages: 1 -->
<svg width="189pt" height="83pt"
 viewBox="0.00 0.00 188.62 82.50" xmlns="http://www.w3.org/2000/svg" xmlns:xlink="http://www.w3.org/1999/xlink">
<g id="graph0" class="graph" transform="scale(1 1) rotate(0) translate(4 78.5)">
<title>greedy_algorithms/jumpgame.cpp</title>
<!-- Node1 -->
<g id="node1" class="node">
<title>Node1</title>
<g id="a_node1"><a xlink:title="Implementation of an algorithm to solve the jumping game problem.">
<polygon fill="#999999" stroke="#666666" points="168.62,-74.5 6.38,-74.5 6.38,-55.25 168.62,-55.25 168.62,-74.5"/>
<text text-anchor="middle" x="87.5" y="-61" font-family="Helvetica,sans-Serif" font-size="10.00">greedy_algorithms/jumpgame.cpp</text>
</a>
</g>
</g>
<!-- Node2 -->
<g id="node2" class="node">
<title>Node2</title>
<g id="a_node2"><a xlink:title=" ">
<polygon fill="#e0e0e0" stroke="#999999" points="43,-19.25 0,-19.25 0,0 43,0 43,-19.25"/>
<text text-anchor="middle" x="21.5" y="-5.75" font-family="Helvetica,sans-Serif" font-size="10.00">vector</text>
</a>
</g>
</g>
<!-- Node1&#45;&gt;Node2 -->
<g id="edge1" class="edge">
<title>Node1&#45;&gt;Node2</title>
<path fill="none" stroke="#63b8ff" d="M76.3,-54.84C66.67,-47.07 52.55,-35.67 41.05,-26.4"/>
<polygon fill="#63b8ff" stroke="#63b8ff" points="43.51,-23.08 33.53,-19.52 39.12,-28.53 43.51,-23.08"/>
</g>
<!-- Node3 -->
<g id="node3" class="node">
<title>Node3</title>
<g id="a_node3"><a xlink:title=" ">
<polygon fill="#e0e0e0" stroke="#999999" points="114.25,-19.25 60.75,-19.25 60.75,0 114.25,0 114.25,-19.25"/>
<text text-anchor="middle" x="87.5" y="-5.75" font-family="Helvetica,sans-Serif" font-size="10.00">iostream</text>
</a>
</g>
</g>
<!-- Node1&#45;&gt;Node3 -->
<g id="edge2" class="edge">
<title>Node1&#45;&gt;Node3</title>
<path fill="none" stroke="#63b8ff" d="M87.5,-55.08C87.5,-48.42 87.5,-38.99 87.5,-30.53"/>
<polygon fill="#63b8ff" stroke="#63b8ff" points="91,-30.61 87.5,-20.61 84,-30.61 91,-30.61"/>
</g>
<!-- Node4 -->
<g id="node4" class="node">
<title>Node4</title>
<g id="a_node4"><a xlink:title=" ">
<polygon fill="#e0e0e0" stroke="#999999" points="180.62,-19.25 132.38,-19.25 132.38,0 180.62,0 180.62,-19.25"/>
<text text-anchor="middle" x="156.5" y="-5.75" font-family="Helvetica,sans-Serif" font-size="10.00">cassert</text>
</a>
</g>
</g>
<!-- Node1&#45;&gt;Node4 -->
<g id="edge3" class="edge">
<title>Node1&#45;&gt;Node4</title>
<path fill="none" stroke="#63b8ff" d="M99.2,-54.84C109.38,-46.99 124.33,-35.45 136.42,-26.12"/>
<polygon fill="#63b8ff" stroke="#63b8ff" points="138.19,-28.41 143.97,-19.52 133.91,-22.86 138.19,-28.41"/>
</g>
</g>
</svg>
