<?xml version="1.0" encoding="UTF-8" standalone="no"?>
<!DOCTYPE svg PUBLIC "-//W3C//DTD SVG 1.1//EN"
 "http://www.w3.org/Graphics/SVG/1.1/DTD/svg11.dtd">
<!-- Generated by graphviz version 6.0.1 (20220911.1526)
 -->
<!-- Title: FCFS::addProcess Pages: 1 -->
<svg width="264pt" height="172pt"
 viewBox="0.00 0.00 264.00 171.50" xmlns="http://www.w3.org/2000/svg" xmlns:xlink="http://www.w3.org/1999/xlink">
<g id="graph0" class="graph" transform="scale(1 1) rotate(0) translate(4 167.5)">
<title>FCFS::addProcess</title>
<!-- Node1 -->
<g id="node1" class="node">
<title>Node1</title>
<g id="a_node1"><a xlink:title="Adds the process to the ready queue if it isn&#39;t already there.">
<polygon fill="#999999" stroke="#666666" points="101,-96.5 0,-96.5 0,-77.5 101,-77.5 101,-96.5"/>
<text text-anchor="middle" x="50.5" y="-84.5" font-family="Helvetica,sans-Serif" font-size="10.00">FCFS::addProcess</text>
</a>
</g>
</g>
<!-- Node2 -->
<g id="node2" class="node">
<title>Node2</title>
<g id="a_node2"><a target="_blank" xlink:href="http://en.cppreference.com/w/cpp/container/unordered_set/end.html#" xlink:title=" ">
<polygon fill="white" stroke="#666666" points="256,-163.5 137,-163.5 137,-144.5 256,-144.5 256,-163.5"/>
<text text-anchor="middle" x="196.5" y="-151.5" font-family="Helvetica,sans-Serif" font-size="10.00">std::unordered_set::end</text>
</a>
</g>
</g>
<!-- Node1&#45;&gt;Node2 -->
<g id="edge1" class="edge">
<title>Node1&#45;&gt;Node2</title>
<path fill="none" stroke="#63b8ff" d="M66.48,-96.61C83.19,-107.05 111.27,-123.73 137,-135 142.01,-137.2 147.36,-139.27 152.72,-141.19"/>
<polygon fill="#63b8ff" stroke="#63b8ff" points="151.68,-144.54 162.28,-144.47 153.95,-137.92 151.68,-144.54"/>
</g>
<!-- Node3 -->
<g id="node3" class="node">
<title>Node3</title>
<g id="a_node3"><a target="_blank" xlink:href="http://en.cppreference.com/w/cpp/container/unordered_set/find.html#" xlink:title=" ">
<polygon fill="white" stroke="#666666" points="245.5,-126 147.5,-126 147.5,-96 245.5,-96 245.5,-126"/>
<text text-anchor="start" x="155.5" y="-114" font-family="Helvetica,sans-Serif" font-size="10.00">std::unordered_set</text>
<text text-anchor="middle" x="196.5" y="-103" font-family="Helvetica,sans-Serif" font-size="10.00">::find</text>
</a>
</g>
</g>
<!-- Node1&#45;&gt;Node3 -->
<g id="edge2" class="edge">
<title>Node1&#45;&gt;Node3</title>
<path fill="none" stroke="#63b8ff" d="M101.06,-95.26C112.75,-97.21 125.32,-99.3 137.36,-101.31"/>
<polygon fill="#63b8ff" stroke="#63b8ff" points="136.87,-104.78 147.31,-102.97 138.02,-97.87 136.87,-104.78"/>
</g>
<!-- Node4 -->
<g id="node4" class="node">
<title>Node4</title>
<g id="a_node4"><a target="_blank" xlink:href="http://en.cppreference.com/w/cpp/container/unordered_set/insert.html#" xlink:title=" ">
<polygon fill="white" stroke="#666666" points="245.5,-78 147.5,-78 147.5,-48 245.5,-48 245.5,-78"/>
<text text-anchor="start" x="155.5" y="-66" font-family="Helvetica,sans-Serif" font-size="10.00">std::unordered_set</text>
<text text-anchor="middle" x="196.5" y="-55" font-family="Helvetica,sans-Serif" font-size="10.00">::insert</text>
</a>
</g>
</g>
<!-- Node1&#45;&gt;Node4 -->
<g id="edge3" class="edge">
<title>Node1&#45;&gt;Node4</title>
<path fill="none" stroke="#63b8ff" d="M101.06,-78.74C112.75,-76.79 125.32,-74.7 137.36,-72.69"/>
<polygon fill="#63b8ff" stroke="#63b8ff" points="138.02,-76.13 147.31,-71.03 136.87,-69.22 138.02,-76.13"/>
</g>
<!-- Node5 -->
<g id="node5" class="node">
<title>Node5</title>
<g id="a_node5"><a target="_blank" xlink:href="http://en.cppreference.com/w/cpp/container/priority_queue/push.html#" xlink:title=" ">
<polygon fill="white" stroke="#666666" points="245,-30 148,-30 148,0 245,0 245,-30"/>
<text text-anchor="start" x="156" y="-18" font-family="Helvetica,sans-Serif" font-size="10.00">std::priority_queue</text>
<text text-anchor="middle" x="196.5" y="-7" font-family="Helvetica,sans-Serif" font-size="10.00">::push</text>
</a>
</g>
</g>
<!-- Node1&#45;&gt;Node5 -->
<g id="edge4" class="edge">
<title>Node1&#45;&gt;Node5</title>
<path fill="none" stroke="#63b8ff" d="M67.26,-77.38C84.19,-67.24 112.02,-51.08 137,-39 140.36,-37.38 143.86,-35.76 147.4,-34.18"/>
<polygon fill="#63b8ff" stroke="#63b8ff" points="149.04,-37.28 156.81,-30.09 146.25,-30.86 149.04,-37.28"/>
</g>
</g>
</svg>
