<?xml version="1.0" encoding="UTF-8" standalone="no"?>
<!DOCTYPE svg PUBLIC "-//W3C//DTD SVG 1.1//EN"
 "http://www.w3.org/Graphics/SVG/1.1/DTD/svg11.dtd">
<!-- Generated by graphviz version 8.0.2 (20230410.1723)
 -->
<!-- Title: FCFS::addProcess Pages: 1 -->
<svg width="264pt" height="172pt"
 viewBox="0.00 0.00 264.00 171.50" xmlns="http://www.w3.org/2000/svg" xmlns:xlink="http://www.w3.org/1999/xlink">
<g id="graph0" class="graph" transform="scale(1 1) rotate(0) translate(4 167.5)">
<title>FCFS::addProcess</title>
<!-- Node1 -->
<g id="node1" class="node">
<title>Node1</title>
<g id="a_node1"><a xlink:title="Adds the process to the ready queue if it isn&#39;t already there.">
<polygon fill="#999999" stroke="#666666" points="101,-96.5 0,-96.5 0,-77.5 101,-77.5 101,-96.5"/>
<text text-anchor="middle" x="50.5" y="-84.5" font-family="Helvetica,sans-Serif" font-size="10.00">FCFS::addProcess</text>
</a>
</g>
</g>
<!-- Node2 -->
<g id="node2" class="node">
<title>Node2</title>
<g id="a_node2"><a target="_blank" xlink:href="http://en.cppreference.com/w/cpp/container/unordered_set/end.html#" xlink:title=" ">
<polygon fill="white" stroke="#666666" points="256,-163.5 137,-163.5 137,-144.5 256,-144.5 256,-163.5"/>
<text text-anchor="middle" x="196.5" y="-151.5" font-family="Helvetica,sans-Serif" font-size="10.00">std::unordered_set::end</text>
</a>
</g>
</g>
<!-- Node1&#45;&gt;Node2 -->
<g id="edge1" class="edge">
<title>Node1&#45;&gt;Node2</title>
<path fill="none" stroke="#63b8ff" d="M67.09,-96.99C83.87,-107.45 111.58,-123.87 137,-135 141.41,-136.93 146.08,-138.77 150.79,-140.49"/>
<polygon fill="#63b8ff" stroke="#63b8ff" points="149.45,-144.08 160.05,-144.06 151.75,-137.47 149.45,-144.08"/>
</g>
<!-- Node3 -->
<g id="node3" class="node">
<title>Node3</title>
<g id="a_node3"><a target="_blank" xlink:href="http://en.cppreference.com/w/cpp/container/unordered_set/find.html#" xlink:title=" ">
<polygon fill="white" stroke="#666666" points="245.5,-126 147.5,-126 147.5,-96 245.5,-96 245.5,-126"/>
<text text-anchor="start" x="155.5" y="-114" font-family="Helvetica,sans-Serif" font-size="10.00">std::unordered_set</text>
<text text-anchor="middle" x="196.5" y="-103" font-family="Helvetica,sans-Serif" font-size="10.00">::find</text>
</a>
</g>
</g>
<!-- Node1&#45;&gt;Node3 -->
<g id="edge2" class="edge">
<title>Node1&#45;&gt;Node3</title>
<path fill="none" stroke="#63b8ff" d="M101.46,-95.33C112.78,-97.21 124.9,-99.23 136.55,-101.18"/>
<polygon fill="#63b8ff" stroke="#63b8ff" points="135.65,-104.74 146.09,-102.93 136.8,-97.83 135.65,-104.74"/>
</g>
<!-- Node4 -->
<g id="node4" class="node">
<title>Node4</title>
<g id="a_node4"><a target="_blank" xlink:href="http://en.cppreference.com/w/cpp/container/unordered_set/insert.html#" xlink:title=" ">
<polygon fill="white" stroke="#666666" points="245.5,-78 147.5,-78 147.5,-48 245.5,-48 245.5,-78"/>
<text text-anchor="start" x="155.5" y="-66" font-family="Helvetica,sans-Serif" font-size="10.00">std::unordered_set</text>
<text text-anchor="middle" x="196.5" y="-55" font-family="Helvetica,sans-Serif" font-size="10.00">::insert</text>
</a>
</g>
</g>
<!-- Node1&#45;&gt;Node4 -->
<g id="edge3" class="edge">
<title>Node1&#45;&gt;Node4</title>
<path fill="none" stroke="#63b8ff" d="M101.46,-78.67C112.78,-76.79 124.9,-74.77 136.55,-72.82"/>
<polygon fill="#63b8ff" stroke="#63b8ff" points="136.8,-76.17 146.09,-71.07 135.65,-69.26 136.8,-76.17"/>
</g>
<!-- Node5 -->
<g id="node5" class="node">
<title>Node5</title>
<g id="a_node5"><a target="_blank" xlink:href="http://en.cppreference.com/w/cpp/container/priority_queue/push.html#" xlink:title=" ">
<polygon fill="white" stroke="#666666" points="245,-30 148,-30 148,0 245,0 245,-30"/>
<text text-anchor="start" x="156" y="-18" font-family="Helvetica,sans-Serif" font-size="10.00">std::priority_queue</text>
<text text-anchor="middle" x="196.5" y="-7" font-family="Helvetica,sans-Serif" font-size="10.00">::push</text>
</a>
</g>
</g>
<!-- Node1&#45;&gt;Node5 -->
<g id="edge4" class="edge">
<title>Node1&#45;&gt;Node5</title>
<path fill="none" stroke="#63b8ff" d="M67.89,-77.01C84.87,-66.84 112.33,-50.93 137,-39 139.92,-37.59 142.95,-36.18 146.01,-34.8"/>
<polygon fill="#63b8ff" stroke="#63b8ff" points="147.12,-37.7 154.88,-30.49 144.31,-31.29 147.12,-37.7"/>
</g>
</g>
</svg>
