<?xml version="1.0" encoding="UTF-8" standalone="no"?>
<!DOCTYPE svg PUBLIC "-//W3C//DTD SVG 1.1//EN"
 "http://www.w3.org/Graphics/SVG/1.1/DTD/svg11.dtd">
<!-- Generated by graphviz version 8.0.4 (20230421.1958)
 -->
<!-- Title: test_bloom_filter_string Pages: 1 -->
<svg width="297pt" height="64pt"
 viewBox="0.00 0.00 296.50 64.25" xmlns="http://www.w3.org/2000/svg" xmlns:xlink="http://www.w3.org/1999/xlink">
<g id="graph0" class="graph" transform="scale(1 1) rotate(0) translate(4 60.25)">
<title>test_bloom_filter_string</title>
<!-- Node1 -->
<g id="node1" class="node">
<title>Node1</title>
<g id="a_node1"><a xlink:title="Test for bloom filter with string as generic type.">
<polygon fill="#999999" stroke="#666666" points="117.25,-37.25 0,-37.25 0,-18 117.25,-18 117.25,-37.25"/>
<text text-anchor="middle" x="58.62" y="-23.75" font-family="Helvetica,sans-Serif" font-size="10.00">test_bloom_filter_string</text>
</a>
</g>
</g>
<!-- Node2 -->
<g id="node2" class="node">
<title>Node2</title>
<g id="a_node2"><a xlink:href="../../d5/d3c/namespacedata__structures.html#a271c753baf6dc5ac6f19fa03c5873eb4" target="_top" xlink:title="Function djb2 to get hash for the given string.">
<polygon fill="white" stroke="#666666" points="288.5,-56.25 153.25,-56.25 153.25,-37 288.5,-37 288.5,-56.25"/>
<text text-anchor="middle" x="220.88" y="-42.75" font-family="Helvetica,sans-Serif" font-size="10.00">data_structures::hashDJB2</text>
</a>
</g>
</g>
<!-- Node1&#45;&gt;Node2 -->
<g id="edge1" class="edge">
<title>Node1&#45;&gt;Node2</title>
<path fill="none" stroke="#63b8ff" d="M117.48,-34.48C125.46,-35.43 133.76,-36.41 142.02,-37.39"/>
<polygon fill="#63b8ff" stroke="#63b8ff" points="141.5,-40.98 151.84,-38.68 142.32,-34.02 141.5,-40.98"/>
</g>
<!-- Node3 -->
<g id="node3" class="node">
<title>Node3</title>
<g id="a_node3"><a xlink:href="../../d5/d3c/namespacedata__structures.html#a35eb2bc3edbb52f9c5f0b1e51046ef15" target="_top" xlink:title="Hash function, to get hash for the given string.">
<polygon fill="white" stroke="#666666" points="282.5,-19.25 159.25,-19.25 159.25,0 282.5,0 282.5,-19.25"/>
<text text-anchor="middle" x="220.88" y="-5.75" font-family="Helvetica,sans-Serif" font-size="10.00">data_structures::hashStr</text>
</a>
</g>
</g>
<!-- Node1&#45;&gt;Node3 -->
<g id="edge2" class="edge">
<title>Node1&#45;&gt;Node3</title>
<path fill="none" stroke="#63b8ff" d="M117.48,-21.13C127.46,-20.01 137.94,-18.83 148.23,-17.67"/>
<polygon fill="#63b8ff" stroke="#63b8ff" points="148.32,-21.07 157.86,-16.48 147.53,-14.12 148.32,-21.07"/>
</g>
</g>
</svg>
