<?xml version="1.0" encoding="UTF-8" standalone="no"?>
<!DOCTYPE svg PUBLIC "-//W3C//DTD SVG 1.1//EN"
 "http://www.w3.org/Graphics/SVG/1.1/DTD/svg11.dtd">
<!-- Generated by graphviz version 5.0.1 (20220820.1526)
 -->
<!-- Title: test_bloom_filter_int Pages: 1 -->
<svg width="281pt" height="64pt"
 viewBox="0.00 0.00 281.00 64.00" xmlns="http://www.w3.org/2000/svg" xmlns:xlink="http://www.w3.org/1999/xlink">
<g id="graph0" class="graph" transform="scale(1 1) rotate(0) translate(4 60)">
<title>test_bloom_filter_int</title>
<!-- Node1 -->
<g id="node1" class="node">
<title>Node1</title>
<g id="a_node1"><a xlink:title="Test for bloom filter with int as generic type.">
<polygon fill="#999999" stroke="#666666" points="104,-37 0,-37 0,-18 104,-18 104,-37"/>
<text text-anchor="middle" x="52" y="-25" font-family="Helvetica,sans-Serif" font-size="10.00">test_bloom_filter_int</text>
</a>
</g>
</g>
<!-- Node2 -->
<g id="node2" class="node">
<title>Node2</title>
<g id="a_node2"><a xlink:href="../../d5/d3c/namespacedata__structures.html#aa6deb9d4a0f63ea97aef3dce4c6c6677" target="_top" xlink:title="Hash function for test">
<polygon fill="white" stroke="#666666" points="273,-56 140,-56 140,-37 273,-37 273,-56"/>
<text text-anchor="middle" x="206.5" y="-44" font-family="Helvetica,sans-Serif" font-size="10.00">data_structures::hashInt_1</text>
</a>
</g>
</g>
<!-- Node1&#45;&gt;Node2 -->
<g id="edge1" class="edge">
<title>Node1&#45;&gt;Node2</title>
<path fill="none" stroke="#63b8ff" d="M104.2,-33.88C112.41,-34.9 121.06,-35.98 129.7,-37.06"/>
<polygon fill="#63b8ff" stroke="#63b8ff" points="129.45,-40.55 139.81,-38.32 130.32,-33.61 129.45,-40.55"/>
</g>
<!-- Node3 -->
<g id="node3" class="node">
<title>Node3</title>
<g id="a_node3"><a xlink:href="../../d5/d3c/namespacedata__structures.html#a9ed236419034917c5270c1dccd220b5c" target="_top" xlink:title="Hash function for test">
<polygon fill="white" stroke="#666666" points="273,-19 140,-19 140,0 273,0 273,-19"/>
<text text-anchor="middle" x="206.5" y="-7" font-family="Helvetica,sans-Serif" font-size="10.00">data_structures::hashInt_2</text>
</a>
</g>
</g>
<!-- Node1&#45;&gt;Node3 -->
<g id="edge2" class="edge">
<title>Node1&#45;&gt;Node3</title>
<path fill="none" stroke="#63b8ff" d="M104.2,-21.46C112.41,-20.49 121.06,-19.47 129.7,-18.45"/>
<polygon fill="#63b8ff" stroke="#63b8ff" points="130.29,-21.9 139.81,-17.25 129.46,-14.95 130.29,-21.9"/>
</g>
</g>
</svg>
