<?xml version="1.0" encoding="UTF-8" standalone="no"?>
<!DOCTYPE svg PUBLIC "-//W3C//DTD SVG 1.1//EN"
 "http://www.w3.org/Graphics/SVG/1.1/DTD/svg11.dtd">
<!-- Generated by graphviz version 7.0.0 (20221023.0053)
 -->
<!-- Title: test_bloom_filter_string Pages: 1 -->
<svg width="298pt" height="64pt"
 viewBox="0.00 0.00 298.00 64.00" xmlns="http://www.w3.org/2000/svg" xmlns:xlink="http://www.w3.org/1999/xlink">
<g id="graph0" class="graph" transform="scale(1 1) rotate(0) translate(4 60)">
<title>test_bloom_filter_string</title>
<!-- Node1 -->
<g id="node1" class="node">
<title>Node1</title>
<g id="a_node1"><a xlink:title="Test for bloom filter with string as generic type.">
<polygon fill="#999999" stroke="#666666" points="118,-37 0,-37 0,-18 118,-18 118,-37"/>
<text text-anchor="middle" x="59" y="-25" font-family="Helvetica,sans-Serif" font-size="10.00">test_bloom_filter_string</text>
</a>
</g>
</g>
<!-- Node2 -->
<g id="node2" class="node">
<title>Node2</title>
<g id="a_node2"><a xlink:href="../../d5/d3c/namespacedata__structures.html#a271c753baf6dc5ac6f19fa03c5873eb4" target="_top" xlink:title="Function djb2 to get hash for the given string.">
<polygon fill="white" stroke="#666666" points="290,-56 154,-56 154,-37 290,-37 290,-56"/>
<text text-anchor="middle" x="222" y="-44" font-family="Helvetica,sans-Serif" font-size="10.00">data_structures::hashDJB2</text>
</a>
</g>
</g>
<!-- Node1&#45;&gt;Node2 -->
<g id="edge1" class="edge">
<title>Node1&#45;&gt;Node2</title>
<path fill="none" stroke="#63b8ff" d="M118.12,-34.36C125.96,-35.28 134.1,-36.25 142.22,-37.2"/>
<polygon fill="#63b8ff" stroke="#63b8ff" points="141.81,-40.68 152.15,-38.37 142.63,-33.73 141.81,-40.68"/>
</g>
<!-- Node3 -->
<g id="node3" class="node">
<title>Node3</title>
<g id="a_node3"><a xlink:href="../../d5/d3c/namespacedata__structures.html#a35eb2bc3edbb52f9c5f0b1e51046ef15" target="_top" xlink:title="Hash function, to get hash for the given string.">
<polygon fill="white" stroke="#666666" points="284,-19 160,-19 160,0 284,0 284,-19"/>
<text text-anchor="middle" x="222" y="-7" font-family="Helvetica,sans-Serif" font-size="10.00">data_structures::hashStr</text>
</a>
</g>
</g>
<!-- Node1&#45;&gt;Node3 -->
<g id="edge2" class="edge">
<title>Node1&#45;&gt;Node3</title>
<path fill="none" stroke="#63b8ff" d="M118.12,-21C127.94,-19.9 138.24,-18.75 148.37,-17.62"/>
<polygon fill="#63b8ff" stroke="#63b8ff" points="148.65,-21.11 158.2,-16.52 147.87,-14.15 148.65,-21.11"/>
</g>
</g>
</svg>
