<?xml version="1.0" encoding="UTF-8" standalone="no"?>
<!DOCTYPE svg PUBLIC "-//W3C//DTD SVG 1.1//EN"
 "http://www.w3.org/Graphics/SVG/1.1/DTD/svg11.dtd">
<!-- Generated by graphviz version 8.0.5 (20230430.1635)
 -->
<!-- Title: exact_solution Pages: 1 -->
<svg width="174pt" height="64pt"
 viewBox="0.00 0.00 174.25 64.25" xmlns="http://www.w3.org/2000/svg" xmlns:xlink="http://www.w3.org/1999/xlink">
<g id="graph0" class="graph" transform="scale(1 1) rotate(0) translate(4 60.25)">
<title>exact_solution</title>
<!-- Node1 -->
<g id="node1" class="node">
<title>Node1</title>
<g id="a_node1"><a xlink:title="Exact solution of the problem. Used for solution comparison.">
<polygon fill="#999999" stroke="#666666" points="79,-37.25 0,-37.25 0,-18 79,-18 79,-37.25"/>
<text text-anchor="middle" x="39.5" y="-23.75" font-family="Helvetica,sans-Serif" font-size="10.00">exact_solution</text>
</a>
</g>
</g>
<!-- Node2 -->
<g id="node2" class="node">
<title>Node2</title>
<g id="a_node2"><a target="_blank" xlink:href="http://en.cppreference.com/w/cpp/numeric/math/cos.html#" xlink:title=" ">
<polygon fill="white" stroke="#666666" points="166.25,-56.25 115,-56.25 115,-37 166.25,-37 166.25,-56.25"/>
<text text-anchor="middle" x="140.62" y="-42.75" font-family="Helvetica,sans-Serif" font-size="10.00">std::cos</text>
</a>
</g>
</g>
<!-- Node1&#45;&gt;Node2 -->
<g id="edge1" class="edge">
<title>Node1&#45;&gt;Node2</title>
<path fill="none" stroke="#63b8ff" d="M79.39,-35.08C87.43,-36.62 95.86,-38.24 103.78,-39.75"/>
<polygon fill="#63b8ff" stroke="#63b8ff" points="103.07,-43.37 113.55,-41.82 104.39,-36.5 103.07,-43.37"/>
</g>
<!-- Node3 -->
<g id="node3" class="node">
<title>Node3</title>
<g id="a_node3"><a target="_blank" xlink:href="http://en.cppreference.com/w/cpp/numeric/math/sin.html#" xlink:title=" ">
<polygon fill="white" stroke="#666666" points="164.75,-19.25 116.5,-19.25 116.5,0 164.75,0 164.75,-19.25"/>
<text text-anchor="middle" x="140.62" y="-5.75" font-family="Helvetica,sans-Serif" font-size="10.00">std::sin</text>
</a>
</g>
</g>
<!-- Node1&#45;&gt;Node3 -->
<g id="edge2" class="edge">
<title>Node1&#45;&gt;Node3</title>
<path fill="none" stroke="#63b8ff" d="M79.39,-20.56C87.99,-19 97.04,-17.36 105.43,-15.83"/>
<polygon fill="#63b8ff" stroke="#63b8ff" points="105.79,-19.15 115,-13.91 104.54,-12.26 105.79,-19.15"/>
</g>
</g>
</svg>
