<?xml version="1.0" encoding="UTF-8" standalone="no"?>
<!DOCTYPE svg PUBLIC "-//W3C//DTD SVG 1.1//EN"
 "http://www.w3.org/Graphics/SVG/1.1/DTD/svg11.dtd">
<!-- Generated by graphviz version 2.44.0 (20200408.0750)
 -->
<!-- Title: MinHeap::deleteKey Pages: 1 -->
<svg width="527pt" height="104pt"
 viewBox="0.00 0.00 527.00 104.00" xmlns="http://www.w3.org/2000/svg" xmlns:xlink="http://www.w3.org/1999/xlink">
<g id="graph0" class="graph" transform="scale(1 1) rotate(0) translate(4 100)">
<title>MinHeap::deleteKey</title>
<polygon fill="white" stroke="transparent" points="-4,4 -4,-100 523,-100 523,4 -4,4"/>
<!-- Node1 -->
<g id="node1" class="node">
<title>Node1</title>
<g id="a_node1"><a xlink:title=" ">
<polygon fill="#bfbfbf" stroke="black" points="0,-57.5 0,-76.5 105,-76.5 105,-57.5 0,-57.5"/>
<text text-anchor="middle" x="52.5" y="-64.5" font-family="Helvetica,sans-Serif" font-size="10.00">MinHeap::deleteKey</text>
</a>
</g>
</g>
<!-- Node2 -->
<g id="node2" class="node">
<title>Node2</title>
<g id="a_node2"><a xlink:href="../../d2/d05/class_min_heap.html#aa7f726cc6327955d22871592227432f5" target="_top" xlink:title=" ">
<polygon fill="white" stroke="black" points="284,-76.5 284,-95.5 403,-95.5 403,-76.5 284,-76.5"/>
<text text-anchor="middle" x="343.5" y="-83.5" font-family="Helvetica,sans-Serif" font-size="10.00">MinHeap::decreaseKey</text>
</a>
</g>
</g>
<!-- Node1&#45;&gt;Node2 -->
<g id="edge1" class="edge">
<title>Node1&#45;&gt;Node2</title>
<path fill="none" stroke="midnightblue" d="M105.17,-70.4C152.2,-73.49 221.99,-78.08 273.72,-81.48"/>
<polygon fill="midnightblue" stroke="midnightblue" points="273.61,-84.98 283.82,-82.14 274.07,-77.99 273.61,-84.98"/>
</g>
<!-- Node4 -->
<g id="node4" class="node">
<title>Node4</title>
<g id="a_node4"><a xlink:href="../../d2/d05/class_min_heap.html#a4014f1edaed0bd7db0c0d2ca53228980" target="_top" xlink:title=" ">
<polygon fill="white" stroke="black" points="141,-38.5 141,-57.5 248,-57.5 248,-38.5 141,-38.5"/>
<text text-anchor="middle" x="194.5" y="-45.5" font-family="Helvetica,sans-Serif" font-size="10.00">MinHeap::extractMin</text>
</a>
</g>
</g>
<!-- Node1&#45;&gt;Node4 -->
<g id="edge3" class="edge">
<title>Node1&#45;&gt;Node4</title>
<path fill="none" stroke="midnightblue" d="M105.23,-59.98C113.43,-58.87 121.98,-57.71 130.4,-56.56"/>
<polygon fill="midnightblue" stroke="midnightblue" points="131.14,-60 140.58,-55.18 130.2,-53.06 131.14,-60"/>
</g>
<!-- Node3 -->
<g id="node3" class="node">
<title>Node3</title>
<g id="a_node3"><a target="_blank" xlink:href="http://en.cppreference.com/w/cpp/algorithm/swap.html#" xlink:title=" ">
<polygon fill="white" stroke="black" points="449.5,-76.5 449.5,-95.5 508.5,-95.5 508.5,-76.5 449.5,-76.5"/>
<text text-anchor="middle" x="479" y="-83.5" font-family="Helvetica,sans-Serif" font-size="10.00">std::swap</text>
</a>
</g>
</g>
<!-- Node2&#45;&gt;Node3 -->
<g id="edge2" class="edge">
<title>Node2&#45;&gt;Node3</title>
<path fill="none" stroke="midnightblue" d="M403.06,-86C415.16,-86 427.63,-86 438.84,-86"/>
<polygon fill="midnightblue" stroke="midnightblue" points="439.15,-89.5 449.15,-86 439.15,-82.5 439.15,-89.5"/>
</g>
<!-- Node5 -->
<g id="node5" class="node">
<title>Node5</title>
<g id="a_node5"><a xlink:href="../../d2/d05/class_min_heap.html#aaef438c1056492cb62c4a4d9035b5cad" target="_top" xlink:title=" ">
<polygon fill="white" stroke="black" points="288,-38.5 288,-57.5 399,-57.5 399,-38.5 288,-38.5"/>
<text text-anchor="middle" x="343.5" y="-45.5" font-family="Helvetica,sans-Serif" font-size="10.00">MinHeap::MinHeapify</text>
</a>
</g>
</g>
<!-- Node4&#45;&gt;Node5 -->
<g id="edge4" class="edge">
<title>Node4&#45;&gt;Node5</title>
<path fill="none" stroke="midnightblue" d="M248.16,-48C257.69,-48 267.74,-48 277.58,-48"/>
<polygon fill="midnightblue" stroke="midnightblue" points="277.73,-51.5 287.73,-48 277.73,-44.5 277.73,-51.5"/>
</g>
<!-- Node5&#45;&gt;Node3 -->
<g id="edge7" class="edge">
<title>Node5&#45;&gt;Node3</title>
<path fill="none" stroke="midnightblue" d="M378.19,-57.59C396.87,-62.91 420.17,-69.54 439.56,-75.06"/>
<polygon fill="midnightblue" stroke="midnightblue" points="438.72,-78.46 449.3,-77.83 440.64,-71.73 438.72,-78.46"/>
</g>
<!-- Node6 -->
<g id="node6" class="node">
<title>Node6</title>
<g id="a_node6"><a xlink:href="../../d2/d05/class_min_heap.html#aa8c6c141e3de664819686aa637e1afca" target="_top" xlink:title=" ">
<polygon fill="white" stroke="black" points="441.5,-38.5 441.5,-57.5 516.5,-57.5 516.5,-38.5 441.5,-38.5"/>
<text text-anchor="middle" x="479" y="-45.5" font-family="Helvetica,sans-Serif" font-size="10.00">MinHeap::left</text>
</a>
</g>
</g>
<!-- Node5&#45;&gt;Node6 -->
<g id="edge5" class="edge">
<title>Node5&#45;&gt;Node6</title>
<path fill="none" stroke="midnightblue" d="M399.18,-48C409.77,-48 420.77,-48 431.08,-48"/>
<polygon fill="midnightblue" stroke="midnightblue" points="431.12,-51.5 441.12,-48 431.12,-44.5 431.12,-51.5"/>
</g>
<!-- Node7 -->
<g id="node7" class="node">
<title>Node7</title>
<g id="a_node7"><a xlink:href="../../d2/d05/class_min_heap.html#ac760b85cf90265b8d674b942a43fb70e" target="_top" xlink:title=" ">
<polygon fill="white" stroke="black" points="439,-0.5 439,-19.5 519,-19.5 519,-0.5 439,-0.5"/>
<text text-anchor="middle" x="479" y="-7.5" font-family="Helvetica,sans-Serif" font-size="10.00">MinHeap::right</text>
</a>
</g>
</g>
<!-- Node5&#45;&gt;Node7 -->
<g id="edge6" class="edge">
<title>Node5&#45;&gt;Node7</title>
<path fill="none" stroke="midnightblue" d="M378.19,-38.41C395.26,-33.55 416.2,-27.59 434.48,-22.39"/>
<polygon fill="midnightblue" stroke="midnightblue" points="435.66,-25.69 444.32,-19.59 433.75,-18.96 435.66,-25.69"/>
</g>
</g>
</svg>
