<?xml version="1.0" encoding="UTF-8" standalone="no"?>
<!DOCTYPE svg PUBLIC "-//W3C//DTD SVG 1.1//EN"
 "http://www.w3.org/Graphics/SVG/1.1/DTD/svg11.dtd">
<!-- Generated by graphviz version 9.0.0 (20230911.1827)
 -->
<!-- Title: CycleCheck::isCyclicBFS Pages: 1 -->
<svg width="279pt" height="138pt"
 viewBox="0.00 0.00 279.25 138.25" xmlns="http://www.w3.org/2000/svg" xmlns:xlink="http://www.w3.org/1999/xlink">

<svg id="main" version="1.1" xmlns="http://www.w3.org/2000/svg" xmlns:xlink="http://www.w3.org/1999/xlink" xml:space="preserve" onload="init(evt)">
<style type="text/css"><![CDATA[
.node, .edge {opacity: 0.7;}
.node.selected, .edge.selected {opacity: 1;}
.edge:hover path { stroke: red; }
.edge:hover polygon { stroke: red; fill: red; }
]]></style>
<script type="application/ecmascript" xlink:href="../../svg.min.js"/>
<svg id="graph" class="graph">
<g id="graph0" class="graph" transform="scale(1 1) rotate(0) translate(4 134.25)">
<title>CycleCheck::isCyclicBFS</title>
<!-- Node1 -->
<g id="Node000001" class="node">
<title>Node1</title>
<g id="a_Node000001"><a xlink:title=" ">
<polygon fill="#999999" stroke="#666666" points="130.75,-74.25 0,-74.25 0,-55 130.75,-55 130.75,-74.25"/>
<text text-anchor="middle" x="65.38" y="-60.75" font-family="Helvetica,sans-Serif" font-size="10.00">CycleCheck::isCyclicBFS</text>
</a>
</g>
</g>
<!-- Node2 -->
<g id="Node000002" class="node">
<title>Node2</title>
<g id="a_Node000002"><a target="_blank" xlink:href="http://en.cppreference.com/w/cpp/container/queue/emplace.html#" xlink:title=" ">
<polygon fill="white" stroke="#666666" points="271.25,-130.25 166.75,-130.25 166.75,-111 271.25,-111 271.25,-130.25"/>
<text text-anchor="middle" x="219" y="-116.75" font-family="Helvetica,sans-Serif" font-size="10.00">std::queue::emplace</text>
</a>
</g>
</g>
<!-- Node1&#45;&gt;Node2 -->
<g id="edge1_Node000001_Node000002" class="edge">
<title>Node1&#45;&gt;Node2</title>
<g id="a_edge1_Node000001_Node000002"><a xlink:title=" ">
<path fill="none" stroke="#63b8ff" d="M92.31,-74.64C112.54,-82.4 141.37,-93.36 166.75,-102.62 170.45,-103.97 174.31,-105.36 178.17,-106.74"/>
<polygon fill="#63b8ff" stroke="#63b8ff" points="176.93,-110.02 187.53,-110.06 179.27,-103.42 176.93,-110.02"/>
</a>
</g>
</g>
<!-- Node3 -->
<g id="Node000003" class="node">
<title>Node3</title>
<g id="a_Node000003"><a target="_blank" xlink:href="http://en.cppreference.com/w/cpp/container/queue/empty.html#" xlink:title=" ">
<polygon fill="white" stroke="#666666" points="266.38,-93.25 171.62,-93.25 171.62,-74 266.38,-74 266.38,-93.25"/>
<text text-anchor="middle" x="219" y="-79.75" font-family="Helvetica,sans-Serif" font-size="10.00">std::queue::empty</text>
</a>
</g>
</g>
<!-- Node1&#45;&gt;Node3 -->
<g id="edge2_Node000001_Node000003" class="edge">
<title>Node1&#45;&gt;Node3</title>
<g id="a_edge2_Node000001_Node000003"><a xlink:title=" ">
<path fill="none" stroke="#63b8ff" d="M131.12,-72.74C140.73,-73.94 150.59,-75.18 160.05,-76.36"/>
<polygon fill="#63b8ff" stroke="#63b8ff" points="159.49,-79.82 169.85,-77.59 160.37,-72.88 159.49,-79.82"/>
</a>
</g>
</g>
<!-- Node4 -->
<g id="Node000004" class="node">
<title>Node4</title>
<g id="a_Node000004"><a target="_blank" xlink:href="http://en.cppreference.com/w/cpp/container/queue/front.html#" xlink:title=" ">
<polygon fill="white" stroke="#666666" points="262.62,-56.25 175.38,-56.25 175.38,-37 262.62,-37 262.62,-56.25"/>
<text text-anchor="middle" x="219" y="-42.75" font-family="Helvetica,sans-Serif" font-size="10.00">std::queue::front</text>
</a>
</g>
</g>
<!-- Node1&#45;&gt;Node4 -->
<g id="edge3_Node000001_Node000004" class="edge">
<title>Node1&#45;&gt;Node4</title>
<g id="a_edge3_Node000001_Node000004"><a xlink:title=" ">
<path fill="none" stroke="#63b8ff" d="M131.12,-56.94C141.99,-55.65 153.18,-54.32 163.76,-53.06"/>
<polygon fill="#63b8ff" stroke="#63b8ff" points="163.93,-56.57 173.45,-51.91 163.1,-49.62 163.93,-56.57"/>
</a>
</g>
</g>
<!-- Node5 -->
<g id="Node000005" class="node">
<title>Node5</title>
<g id="a_Node000005"><a target="_blank" xlink:href="http://en.cppreference.com/w/cpp/container/queue/pop.html#" xlink:title=" ">
<polygon fill="white" stroke="#666666" points="260.75,-19.25 177.25,-19.25 177.25,0 260.75,0 260.75,-19.25"/>
<text text-anchor="middle" x="219" y="-5.75" font-family="Helvetica,sans-Serif" font-size="10.00">std::queue::pop</text>
</a>
</g>
</g>
<!-- Node1&#45;&gt;Node5 -->
<g id="edge4_Node000001_Node000005" class="edge">
<title>Node1&#45;&gt;Node5</title>
<g id="a_edge4_Node000001_Node000005"><a xlink:title=" ">
<path fill="none" stroke="#63b8ff" d="M93.17,-54.62C113.37,-47.11 141.76,-36.62 166.75,-27.62 170.46,-26.29 174.32,-24.91 178.18,-23.54"/>
<polygon fill="#63b8ff" stroke="#63b8ff" points="179.28,-26.87 187.54,-20.24 176.95,-20.27 179.28,-26.87"/>
</a>
</g>
</g>
</g>
</svg>
</svg>

<style type='text/css'>
<![CDATA[
[data-mouse-over-selected='false'] { opacity: 0.7; }
[data-mouse-over-selected='true']  { opacity: 1.0; }
]]>
</style>
<script type="application/ecmascript"><![CDATA[
document.addEventListener('DOMContentLoaded', (event) => {
  highlightEdges();
  highlightAdjacentNodes();
});
]]></script>
</svg>
