<?xml version="1.0" encoding="UTF-8" standalone="no"?>
<!DOCTYPE svg PUBLIC "-//W3C//DTD SVG 1.1//EN"
 "http://www.w3.org/Graphics/SVG/1.1/DTD/svg11.dtd">
<!-- Generated by graphviz version 2.44.1 (20200629.0846)
 -->
<!-- Title: linear_probing::addInfo Pages: 1 -->
<svg width="600pt" height="172pt"
 viewBox="0.00 0.00 600.00 171.85" xmlns="http://www.w3.org/2000/svg" xmlns:xlink="http://www.w3.org/1999/xlink">
<g id="graph0" class="graph" transform="scale(1 1) rotate(0) translate(4 167.85)">
<title>linear_probing::addInfo</title>
<polygon fill="white" stroke="transparent" points="-4,4 -4,-167.85 596,-167.85 596,4 -4,4"/>
<!-- Node1 -->
<g id="node1" class="node">
<title>Node1</title>
<g id="a_node1"><a xlink:title=" ">
<polygon fill="#bfbfbf" stroke="black" points="0,-104.5 0,-123.5 115,-123.5 115,-104.5 0,-104.5"/>
<text text-anchor="middle" x="57.5" y="-111.5" font-family="Helvetica,sans-Serif" font-size="10.00">linear_probing::addInfo</text>
</a>
</g>
</g>
<!-- Node2 -->
<g id="node2" class="node">
<title>Node2</title>
<g id="a_node2"><a xlink:href="../../d8/d89/namespacelinear__probing.html#a16d34fd3511626a83ab00665d7bc34d1" target="_top" xlink:title=" ">
<polygon fill="white" stroke="black" points="158.5,-85.5 158.5,-104.5 256.5,-104.5 256.5,-85.5 158.5,-85.5"/>
<text text-anchor="middle" x="207.5" y="-92.5" font-family="Helvetica,sans-Serif" font-size="10.00">linear_probing::add</text>
</a>
</g>
</g>
<!-- Node1&#45;&gt;Node2 -->
<g id="edge1" class="edge">
<title>Node1&#45;&gt;Node2</title>
<path fill="none" stroke="midnightblue" d="M115.3,-106.71C126.05,-105.33 137.31,-103.88 148.1,-102.5"/>
<polygon fill="midnightblue" stroke="midnightblue" points="148.81,-105.94 158.28,-101.19 147.92,-98.99 148.81,-105.94"/>
</g>
<!-- Node4 -->
<g id="node4" class="node">
<title>Node4</title>
<g id="a_node4"><a target="_blank" xlink:href="http://en.cppreference.com/w/cpp/io/manip/endl.html#" target="_top" xlink:title=" ">
<polygon fill="white" stroke="black" points="502.5,-126.5 502.5,-145.5 556.5,-145.5 556.5,-126.5 502.5,-126.5"/>
<text text-anchor="middle" x="529.5" y="-133.5" font-family="Helvetica,sans-Serif" font-size="10.00">std::endl</text>
</a>
</g>
</g>
<!-- Node1&#45;&gt;Node4 -->
<g id="edge12" class="edge">
<title>Node1&#45;&gt;Node4</title>
<path fill="none" stroke="midnightblue" d="M75.93,-123.58C94.06,-132.95 123.58,-146.59 151,-152 274.09,-176.3 423.98,-155.36 491.91,-143.21"/>
<polygon fill="midnightblue" stroke="midnightblue" points="492.88,-146.59 502.09,-141.35 491.62,-139.71 492.88,-146.59"/>
</g>
<!-- Node5 -->
<g id="node5" class="node">
<title>Node5</title>
<g id="a_node5"><a xlink:href="../../d8/d89/namespacelinear__probing.html#a4bde7a47f98dd1ad24c84038e2608527" target="_top" xlink:title="Hash a key. Uses the STL library&#39;s std::hash() function.">
<polygon fill="white" stroke="black" points="469.5,-0.5 469.5,-19.5 589.5,-19.5 589.5,-0.5 469.5,-0.5"/>
<text text-anchor="middle" x="529.5" y="-7.5" font-family="Helvetica,sans-Serif" font-size="10.00">linear_probing::hashFxn</text>
</a>
</g>
</g>
<!-- Node1&#45;&gt;Node5 -->
<g id="edge13" class="edge">
<title>Node1&#45;&gt;Node5</title>
<path fill="none" stroke="midnightblue" d="M79.49,-104.39C98.04,-96.14 125.95,-84.29 151,-76 215.88,-54.52 232.83,-50.63 300,-38 353.13,-28.01 413.91,-20.76 459.42,-16.14"/>
<polygon fill="midnightblue" stroke="midnightblue" points="459.87,-19.62 469.48,-15.14 459.18,-12.65 459.87,-19.62"/>
</g>
<!-- Node9 -->
<g id="node9" class="node">
<title>Node9</title>
<g id="a_node9"><a xlink:href="../../d8/d89/namespacelinear__probing.html#ad87b71d810901fab69c4ad9d4d0fa635" target="_top" xlink:title=" ">
<polygon fill="white" stroke="black" points="151,-123.5 151,-142.5 264,-142.5 264,-123.5 151,-123.5"/>
<text text-anchor="middle" x="207.5" y="-130.5" font-family="Helvetica,sans-Serif" font-size="10.00">linear_probing::display</text>
</a>
</g>
</g>
<!-- Node1&#45;&gt;Node9 -->
<g id="edge10" class="edge">
<title>Node1&#45;&gt;Node9</title>
<path fill="none" stroke="midnightblue" d="M115.3,-121.29C123.53,-122.35 132.06,-123.44 140.45,-124.52"/>
<polygon fill="midnightblue" stroke="midnightblue" points="140.22,-128.02 150.59,-125.82 141.11,-121.08 140.22,-128.02"/>
</g>
<!-- Node3 -->
<g id="node3" class="node">
<title>Node3</title>
<g id="a_node3"><a xlink:href="../../d8/d89/namespacelinear__probing.html#a6322209aaa91b7bbf16f96e1cc52b746" target="_top" xlink:title=" ">
<polygon fill="white" stroke="black" points="300,-47.5 300,-66.5 431,-66.5 431,-47.5 300,-47.5"/>
<text text-anchor="middle" x="365.5" y="-54.5" font-family="Helvetica,sans-Serif" font-size="10.00">linear_probing::linearProbe</text>
</a>
</g>
</g>
<!-- Node2&#45;&gt;Node3 -->
<g id="edge2" class="edge">
<title>Node2&#45;&gt;Node3</title>
<path fill="none" stroke="midnightblue" d="M247.87,-85.41C268.45,-80.4 293.84,-74.21 315.67,-68.89"/>
<polygon fill="midnightblue" stroke="midnightblue" points="316.53,-72.29 325.42,-66.52 314.87,-65.49 316.53,-72.29"/>
</g>
<!-- Node8 -->
<g id="node8" class="node">
<title>Node8</title>
<g id="a_node8"><a xlink:href="../../d8/d89/namespacelinear__probing.html#a6a082dc1426a79f866cee6b370df37b0" target="_top" xlink:title=" ">
<polygon fill="white" stroke="black" points="309.5,-85.5 309.5,-104.5 421.5,-104.5 421.5,-85.5 309.5,-85.5"/>
<text text-anchor="middle" x="365.5" y="-92.5" font-family="Helvetica,sans-Serif" font-size="10.00">linear_probing::rehash</text>
</a>
</g>
</g>
<!-- Node2&#45;&gt;Node8 -->
<g id="edge7" class="edge">
<title>Node2&#45;&gt;Node8</title>
<path fill="none" stroke="midnightblue" d="M256.58,-88.71C270.05,-88.28 284.92,-88.15 299.21,-88.33"/>
<polygon fill="midnightblue" stroke="midnightblue" points="299.43,-91.83 309.49,-88.52 299.55,-84.84 299.43,-91.83"/>
</g>
<!-- Node3&#45;&gt;Node4 -->
<g id="edge3" class="edge">
<title>Node3&#45;&gt;Node4</title>
<path fill="none" stroke="midnightblue" d="M411.31,-66.61C418.2,-69.08 425,-72.17 431,-76 451.44,-89.05 446.65,-103.81 467,-117 474.7,-121.99 483.79,-125.73 492.58,-128.52"/>
<polygon fill="midnightblue" stroke="midnightblue" points="491.71,-131.91 502.29,-131.27 493.62,-125.17 491.71,-131.91"/>
</g>
<!-- Node3&#45;&gt;Node5 -->
<g id="edge4" class="edge">
<title>Node3&#45;&gt;Node5</title>
<path fill="none" stroke="midnightblue" d="M399.28,-47.49C424.23,-40.25 458.78,-30.23 485.87,-22.37"/>
<polygon fill="midnightblue" stroke="midnightblue" points="486.86,-25.73 495.49,-19.58 484.91,-19 486.86,-25.73"/>
</g>
<!-- Node6 -->
<g id="node6" class="node">
<title>Node6</title>
<g id="a_node6"><a xlink:href="../../d8/d89/namespacelinear__probing.html#a75d779938df7ebc68581d922b60a2541" target="_top" xlink:title=" ">
<polygon fill="white" stroke="black" points="467,-88.5 467,-107.5 592,-107.5 592,-88.5 467,-88.5"/>
<text text-anchor="middle" x="529.5" y="-95.5" font-family="Helvetica,sans-Serif" font-size="10.00">linear_probing::putProber</text>
</a>
</g>
</g>
<!-- Node3&#45;&gt;Node6 -->
<g id="edge5" class="edge">
<title>Node3&#45;&gt;Node6</title>
<path fill="none" stroke="midnightblue" d="M404.07,-66.51C426.99,-72.31 456.5,-79.78 481.03,-85.99"/>
<polygon fill="midnightblue" stroke="midnightblue" points="480.3,-89.41 490.85,-88.47 482.01,-82.62 480.3,-89.41"/>
</g>
<!-- Node7 -->
<g id="node7" class="node">
<title>Node7</title>
<g id="a_node7"><a xlink:href="../../d8/d89/namespacelinear__probing.html#a942fc8407b8001890ea26830cdcd9d77" target="_top" xlink:title=" ">
<polygon fill="white" stroke="black" points="467,-39 467,-69 592,-69 592,-39 467,-39"/>
<text text-anchor="start" x="475" y="-57" font-family="Helvetica,sans-Serif" font-size="10.00">linear_probing::searching</text>
<text text-anchor="middle" x="529.5" y="-46" font-family="Helvetica,sans-Serif" font-size="10.00">Prober</text>
</a>
</g>
</g>
<!-- Node3&#45;&gt;Node7 -->
<g id="edge6" class="edge">
<title>Node3&#45;&gt;Node7</title>
<path fill="none" stroke="midnightblue" d="M431.46,-55.8C439.78,-55.64 448.34,-55.48 456.76,-55.33"/>
<polygon fill="midnightblue" stroke="midnightblue" points="457.01,-58.82 466.95,-55.14 456.88,-51.83 457.01,-58.82"/>
</g>
<!-- Node8&#45;&gt;Node2 -->
<g id="edge8" class="edge">
<title>Node8&#45;&gt;Node2</title>
<path fill="none" stroke="midnightblue" d="M309.49,-101.48C295.6,-101.81 280.64,-101.84 266.61,-101.55"/>
<polygon fill="midnightblue" stroke="midnightblue" points="266.67,-98.05 256.58,-101.29 266.48,-105.05 266.67,-98.05"/>
</g>
<!-- Node8&#45;&gt;Node4 -->
<g id="edge9" class="edge">
<title>Node8&#45;&gt;Node4</title>
<path fill="none" stroke="midnightblue" d="M404.07,-104.51C430.64,-111.23 466.06,-120.2 492.32,-126.84"/>
<polygon fill="midnightblue" stroke="midnightblue" points="491.69,-130.3 502.25,-129.36 493.41,-123.51 491.69,-130.3"/>
</g>
<!-- Node9&#45;&gt;Node4 -->
<g id="edge11" class="edge">
<title>Node9&#45;&gt;Node4</title>
<path fill="none" stroke="midnightblue" d="M264.24,-133.52C329.68,-134.14 436.33,-135.14 492.03,-135.66"/>
<polygon fill="midnightblue" stroke="midnightblue" points="492.1,-139.16 502.13,-135.75 492.17,-132.16 492.1,-139.16"/>
</g>
</g>
</svg>
