<?xml version="1.0" encoding="UTF-8" standalone="no"?>
<!DOCTYPE svg PUBLIC "-//W3C//DTD SVG 1.1//EN"
 "http://www.w3.org/Graphics/SVG/1.1/DTD/svg11.dtd">
<!-- Generated by graphviz version 7.0.0 (20221023.0053)
 -->
<!-- Title: linear_probing::removalInfo Pages: 1 -->
<!--zoomable 163 -->
<svg id="main" version="1.1" xmlns="http://www.w3.org/2000/svg" xmlns:xlink="http://www.w3.org/1999/xlink" xml:space="preserve" onload="init(evt)">
<style type="text/css"><![CDATA[
.edge:hover path { stroke: red; }
.edge:hover polygon { stroke: red; fill: red; }
]]></style>
<script type="text/javascript"><![CDATA[
var edges = document.getElementsByTagName('g');
if (edges && edges.length) {
  for (var i=0;i<edges.length;i++) {
    if (edges[i].id.substr(0,4)=='edge') {
      edges[i].setAttribute('class','edge');
    }
  }
}
]]></script>
        <defs>
                <circle id="rim" cx="0" cy="0" r="7"/>
                <circle id="rim2" cx="0" cy="0" r="3.5"/>
                <g id="zoomPlus">
                        <use xlink:href="#rim" fill="#404040">
                                <set attributeName="fill" to="#808080" begin="zoomplus.mouseover" end="zoomplus.mouseout"/>
                        </use>
                        <path d="M-4,0h8M0,-4v8" fill="none" stroke="white" stroke-width="1.5" pointer-events="none"/>
                </g>
                <g id="zoomMin">
                        <use xlink:href="#rim" fill="#404040">
                                <set attributeName="fill" to="#808080" begin="zoomminus.mouseover" end="zoomminus.mouseout"/>
                        </use>
                        <path d="M-4,0h8" fill="none" stroke="white" stroke-width="1.5" pointer-events="none"/>
                </g>
                <g id="dirArrow">
                        <path fill="none" stroke="white" stroke-width="1.5" d="M0,-3.0v7 M-2.5,-0.5L0,-3.0L2.5,-0.5"/>
                </g>
               <g id="resetDef">
                       <use xlink:href="#rim2" fill="#404040">
                               <set attributeName="fill" to="#808080" begin="reset.mouseover" end="reset.mouseout"/>
                       </use>
               </g>
        </defs>

<script type="text/javascript">
var viewWidth = 621;
var viewHeight = 163;
var sectionId = 'dynsection-5';
</script>
<script xlink:href="../../svgpan.js"/>
<svg id="graph" class="graph">
<g id="viewport">
<title>linear_probing::removalInfo</title>
<!-- Node1 -->
<g id="node1" class="node">
<title>Node1</title>
<g id="a_node1"><a xlink:title=" ">
<polygon fill="#999999" stroke="#666666" points="134,-121 0,-121 0,-102 134,-102 134,-121"/>
<text text-anchor="middle" x="67" y="-109" font-family="Helvetica,sans-Serif" font-size="10.00">linear_probing::removalInfo</text>
</a>
</g>
</g>
<!-- Node2 -->
<g id="node2" class="node">
<title>Node2</title>
<g id="a_node2"><a xlink:href="../../d8/d89/namespacelinear__probing.html#ad87b71d810901fab69c4ad9d4d0fa635" target="_top" xlink:title=" ">
<polygon fill="white" stroke="#666666" points="443,-140 330,-140 330,-121 443,-121 443,-140"/>
<text text-anchor="middle" x="386.5" y="-128" font-family="Helvetica,sans-Serif" font-size="10.00">linear_probing::display</text>
</a>
</g>
</g>
<!-- Node1&#45;&gt;Node2 -->
<g id="edge1" class="edge">
<title>Node1&#45;&gt;Node2</title>
<path fill="none" stroke="#63b8ff" d="M134.17,-115.46C188.21,-118.69 264.25,-123.24 318.51,-126.49"/>
<polygon fill="#63b8ff" stroke="#63b8ff" points="318.04,-129.97 328.23,-127.07 318.46,-122.98 318.04,-129.97"/>
</g>
<!-- Node3 -->
<g id="node3" class="node">
<title>Node3</title>
<g id="a_node3"><a target="_blank" xlink:href="http://en.cppreference.com/w/cpp/io/manip/endl.html#" xlink:title=" ">
<polygon fill="white" stroke="#666666" points="577.5,-142 523.5,-142 523.5,-123 577.5,-123 577.5,-142"/>
<text text-anchor="middle" x="550.5" y="-130" font-family="Helvetica,sans-Serif" font-size="10.00">std::endl</text>
</a>
</g>
</g>
<!-- Node1&#45;&gt;Node3 -->
<g id="edge3" class="edge">
<title>Node1&#45;&gt;Node3</title>
<path fill="none" stroke="#63b8ff" d="M107.01,-121.48C125.93,-126.01 149.03,-131.11 170,-134.5 293.9,-154.55 326.96,-160.32 452,-149.5 471.94,-147.77 493.92,-144.1 511.96,-140.61"/>
<polygon fill="#63b8ff" stroke="#63b8ff" points="512.58,-144.05 521.69,-138.66 511.2,-137.19 512.58,-144.05"/>
</g>
<!-- Node4 -->
<g id="node4" class="node">
<title>Node4</title>
<g id="a_node4"><a xlink:href="../../d8/d89/namespacelinear__probing.html#a4bde7a47f98dd1ad24c84038e2608527" target="_top" xlink:title="Hash a key. Uses the STL library&#39;s std::hash() function.">
<polygon fill="white" stroke="#666666" points="610.5,-19 490.5,-19 490.5,0 610.5,0 610.5,-19"/>
<text text-anchor="middle" x="550.5" y="-7" font-family="Helvetica,sans-Serif" font-size="10.00">linear_probing::hashFxn</text>
</a>
</g>
</g>
<!-- Node1&#45;&gt;Node4 -->
<g id="edge4" class="edge">
<title>Node1&#45;&gt;Node4</title>
<path fill="none" stroke="#63b8ff" d="M93.34,-101.54C113.84,-93.68 143.55,-82.69 170,-74.5 236.21,-53.99 252.84,-48.12 321,-35.5 373.66,-25.75 433.87,-19.08 479.26,-14.94"/>
<polygon fill="#63b8ff" stroke="#63b8ff" points="479.3,-18.45 488.95,-14.08 478.68,-11.48 479.3,-18.45"/>
</g>
<!-- Node5 -->
<g id="node5" class="node">
<title>Node5</title>
<g id="a_node5"><a xlink:href="../../d8/d89/namespacelinear__probing.html#abcf8d033f8115f39f3c93cfb6cee0b28" target="_top" xlink:title=" ">
<polygon fill="white" stroke="#666666" points="285,-102 170,-102 170,-83 285,-83 285,-102"/>
<text text-anchor="middle" x="227.5" y="-90" font-family="Helvetica,sans-Serif" font-size="10.00">linear_probing::remove</text>
</a>
</g>
</g>
<!-- Node1&#45;&gt;Node5 -->
<g id="edge5" class="edge">
<title>Node1&#45;&gt;Node5</title>
<path fill="none" stroke="#63b8ff" d="M134.3,-103.55C142.17,-102.61 150.21,-101.65 158.1,-100.7"/>
<polygon fill="#63b8ff" stroke="#63b8ff" points="158.51,-104.18 168.02,-99.51 157.67,-97.23 158.51,-104.18"/>
</g>
<!-- Node2&#45;&gt;Node3 -->
<g id="edge2" class="edge">
<title>Node2&#45;&gt;Node3</title>
<path fill="none" stroke="#63b8ff" d="M443.25,-131.19C465.9,-131.47 491.47,-131.78 511.85,-132.04"/>
<polygon fill="#63b8ff" stroke="#63b8ff" points="511.63,-135.53 521.68,-132.16 511.72,-128.53 511.63,-135.53"/>
</g>
<!-- Node5&#45;&gt;Node3 -->
<g id="edge6" class="edge">
<title>Node5&#45;&gt;Node3</title>
<path fill="none" stroke="#63b8ff" d="M285.2,-95.8C330.5,-98.86 395.53,-104.21 452,-112.5 471.91,-115.42 493.89,-119.83 511.93,-123.76"/>
<polygon fill="#63b8ff" stroke="#63b8ff" points="511.16,-127.17 521.68,-125.93 512.68,-120.34 511.16,-127.17"/>
</g>
<!-- Node6 -->
<g id="node6" class="node">
<title>Node6</title>
<g id="a_node6"><a xlink:href="../../d8/d89/namespacelinear__probing.html#a6322209aaa91b7bbf16f96e1cc52b746" target="_top" xlink:title=" ">
<polygon fill="white" stroke="#666666" points="452,-64 321,-64 321,-45 452,-45 452,-64"/>
<text text-anchor="middle" x="386.5" y="-52" font-family="Helvetica,sans-Serif" font-size="10.00">linear_probing::linearProbe</text>
</a>
</g>
</g>
<!-- Node5&#45;&gt;Node6 -->
<g id="edge7" class="edge">
<title>Node5&#45;&gt;Node6</title>
<path fill="none" stroke="#63b8ff" d="M269.75,-82.52C289.14,-77.82 312.49,-72.17 333.12,-67.18"/>
<polygon fill="#63b8ff" stroke="#63b8ff" points="333.89,-70.59 342.78,-64.84 332.24,-63.79 333.89,-70.59"/>
</g>
<!-- Node6&#45;&gt;Node3 -->
<g id="edge8" class="edge">
<title>Node6&#45;&gt;Node3</title>
<path fill="none" stroke="#63b8ff" d="M422.61,-64.48C432.53,-68.1 443.05,-72.75 452,-78.5 471.04,-90.73 468.54,-102.96 488,-114.5 495.37,-118.87 503.87,-122.24 512.15,-124.81"/>
<polygon fill="#63b8ff" stroke="#63b8ff" points="511.16,-128.17 521.73,-127.45 513.02,-121.42 511.16,-128.17"/>
</g>
<!-- Node6&#45;&gt;Node4 -->
<g id="edge9" class="edge">
<title>Node6&#45;&gt;Node4</title>
<path fill="none" stroke="#63b8ff" d="M423.45,-44.51C446.84,-38.02 477.57,-29.48 502.83,-22.46"/>
<polygon fill="#63b8ff" stroke="#63b8ff" points="503.49,-25.91 512.19,-19.86 501.62,-19.17 503.49,-25.91"/>
</g>
<!-- Node7 -->
<g id="node7" class="node">
<title>Node7</title>
<g id="a_node7"><a xlink:href="../../d8/d89/namespacelinear__probing.html#a75d779938df7ebc68581d922b60a2541" target="_top" xlink:title=" ">
<polygon fill="white" stroke="#666666" points="613,-105 488,-105 488,-86 613,-86 613,-105"/>
<text text-anchor="middle" x="550.5" y="-93" font-family="Helvetica,sans-Serif" font-size="10.00">linear_probing::putProber</text>
</a>
</g>
</g>
<!-- Node6&#45;&gt;Node7 -->
<g id="edge10" class="edge">
<title>Node6&#45;&gt;Node7</title>
<path fill="none" stroke="#63b8ff" d="M426.72,-64.42C448.44,-69.92 475.69,-76.82 499,-82.72"/>
<polygon fill="#63b8ff" stroke="#63b8ff" points="498.06,-86.09 508.62,-85.15 499.78,-79.31 498.06,-86.09"/>
</g>
<!-- Node8 -->
<g id="node8" class="node">
<title>Node8</title>
<g id="a_node8"><a xlink:href="../../d8/d89/namespacelinear__probing.html#a942fc8407b8001890ea26830cdcd9d77" target="_top" xlink:title=" ">
<polygon fill="white" stroke="#666666" points="613,-67.5 488,-67.5 488,-37.5 613,-37.5 613,-67.5"/>
<text text-anchor="start" x="496" y="-55.5" font-family="Helvetica,sans-Serif" font-size="10.00">linear_probing::searching</text>
<text text-anchor="middle" x="550.5" y="-44.5" font-family="Helvetica,sans-Serif" font-size="10.00">Prober</text>
</a>
</g>
</g>
<!-- Node6&#45;&gt;Node8 -->
<g id="edge11" class="edge">
<title>Node6&#45;&gt;Node8</title>
<path fill="none" stroke="#63b8ff" d="M452.46,-53.7C460.27,-53.6 468.28,-53.5 476.19,-53.41"/>
<polygon fill="#63b8ff" stroke="#63b8ff" points="476.21,-56.91 486.17,-53.28 476.13,-49.91 476.21,-56.91"/>
</g>
</g>
</svg>
        <g id="navigator" transform="translate(0 0)" fill="#404254">
                <rect fill="#f2f5e9" fill-opacity="0.5" stroke="#606060" stroke-width=".5" x="0" y="0" width="60" height="60"/>
                <use id="zoomplus" xlink:href="#zoomPlus" x="17" y="9" onmousedown="handleZoom(evt,'in')"/>
                <use id="zoomminus" xlink:href="#zoomMin" x="42" y="9" onmousedown="handleZoom(evt,'out')"/>
                <use id="reset" xlink:href="#resetDef" x="30" y="36" onmousedown="handleReset()"/>
                <g id="arrowUp" xlink:href="#dirArrow" transform="translate(30 24)" onmousedown="handlePan(0,-1)">
                  <use xlink:href="#rim" fill="#404040">
                        <set attributeName="fill" to="#808080" begin="arrowUp.mouseover" end="arrowUp.mouseout"/>
                  </use>
                  <path fill="none" stroke="white" stroke-width="1.5" d="M0,-3.0v7 M-2.5,-0.5L0,-3.0L2.5,-0.5"/>
                </g>
                <g id="arrowRight" xlink:href="#dirArrow" transform="rotate(90) translate(36 -43)" onmousedown="handlePan(1,0)">
                  <use xlink:href="#rim" fill="#404040">
                        <set attributeName="fill" to="#808080" begin="arrowRight.mouseover" end="arrowRight.mouseout"/>
                  </use>
                  <path fill="none" stroke="white" stroke-width="1.5" d="M0,-3.0v7 M-2.5,-0.5L0,-3.0L2.5,-0.5"/>
                </g>
                <g id="arrowDown" xlink:href="#dirArrow" transform="rotate(180) translate(-30 -48)" onmousedown="handlePan(0,1)">
                  <use xlink:href="#rim" fill="#404040">
                        <set attributeName="fill" to="#808080" begin="arrowDown.mouseover" end="arrowDown.mouseout"/>
                  </use>
                  <path fill="none" stroke="white" stroke-width="1.5" d="M0,-3.0v7 M-2.5,-0.5L0,-3.0L2.5,-0.5"/>
                </g>
                <g id="arrowLeft" xlink:href="#dirArrow" transform="rotate(270) translate(-36 17)" onmousedown="handlePan(-1,0)">
                  <use xlink:href="#rim" fill="#404040">
                        <set attributeName="fill" to="#808080" begin="arrowLeft.mouseover" end="arrowLeft.mouseout"/>
                  </use>
                  <path fill="none" stroke="white" stroke-width="1.5" d="M0,-3.0v7 M-2.5,-0.5L0,-3.0L2.5,-0.5"/>
                </g>
        </g>
        <svg viewBox="0 0 15 15" width="100%" height="30px" preserveAspectRatio="xMaxYMin meet">
         <g id="arrow_out" transform="scale(0.3 0.3)">
          <a xlink:href="namespacelinear__probing_a75854f5aa216e61219154c62167ce8f0_cgraph_org.svg" target="_base">
           <rect id="button" ry="5" rx="5" y="6" x="6" height="38" width="38"
                fill="#f2f5e9" fill-opacity="0.5" stroke="#606060" stroke-width="1.0"/>
           <path id="arrow"
             d="M 11.500037,31.436501 C 11.940474,20.09759 22.043105,11.32322 32.158766,21.979434 L 37.068811,17.246167 C 37.068811,17.246167 37.088388,32 37.088388,32 L 22.160133,31.978069 C 22.160133,31.978069 26.997745,27.140456 26.997745,27.140456 C 18.528582,18.264221 13.291696,25.230495 11.500037,31.436501 z"
             style="fill:#404040;"/>
          </a>
         </g>
        </svg>
</svg>
