<?xml version="1.0" encoding="UTF-8" standalone="no"?>
<!DOCTYPE svg PUBLIC "-//W3C//DTD SVG 1.1//EN"
 "http://www.w3.org/Graphics/SVG/1.1/DTD/svg11.dtd">
<!-- Generated by graphviz version 9.0.0 (20230911.1827)
 -->
<!-- Title: linear_probing::add Pages: 1 -->
<svg width="433pt" height="150pt"
 viewBox="0.00 0.00 432.50 149.88" xmlns="http://www.w3.org/2000/svg" xmlns:xlink="http://www.w3.org/1999/xlink">

<svg id="main" version="1.1" xmlns="http://www.w3.org/2000/svg" xmlns:xlink="http://www.w3.org/1999/xlink" xml:space="preserve" onload="init(evt)">
<style type="text/css"><![CDATA[
.node, .edge {opacity: 0.7;}
.node.selected, .edge.selected {opacity: 1;}
.edge:hover path { stroke: red; }
.edge:hover polygon { stroke: red; fill: red; }
]]></style>
<script type="application/ecmascript" xlink:href="../../svg.min.js"/>
<svg id="graph" class="graph">
<g id="graph0" class="graph" transform="scale(1 1) rotate(0) translate(4 145.88)">
<title>linear_probing::add</title>
<!-- Node1 -->
<g id="Node000001" class="node">
<title>Node1</title>
<g id="a_Node000001"><a xlink:title=" ">
<polygon fill="#999999" stroke="#666666" points="97.75,-141.88 0,-141.88 0,-122.62 97.75,-122.62 97.75,-141.88"/>
<text text-anchor="middle" x="48.88" y="-128.38" font-family="Helvetica,sans-Serif" font-size="10.00">linear_probing::add</text>
</a>
</g>
</g>
<!-- Node2 -->
<g id="Node000002" class="node">
<title>Node2</title>
<g id="a_Node000002"><a xlink:href="../../d8/d89/namespacelinear__probing.html#a6322209aaa91b7bbf16f96e1cc52b746" target="_top" xlink:title=" ">
<polygon fill="white" stroke="#666666" points="264.5,-104.88 133.75,-104.88 133.75,-85.62 264.5,-85.62 264.5,-104.88"/>
<text text-anchor="middle" x="199.12" y="-91.38" font-family="Helvetica,sans-Serif" font-size="10.00">linear_probing::linearProbe</text>
</a>
</g>
</g>
<!-- Node1&#45;&gt;Node2 -->
<g id="edge1_Node000001_Node000002" class="edge">
<title>Node1&#45;&gt;Node2</title>
<g id="a_edge1_Node000001_Node000002"><a xlink:title=" ">
<path fill="none" stroke="#63b8ff" d="M90.38,-122.14C107.71,-117.82 128.14,-112.72 146.53,-108.13"/>
<polygon fill="#63b8ff" stroke="#63b8ff" points="147.34,-111.53 156.2,-105.71 145.65,-104.74 147.34,-111.53"/>
</a>
</g>
</g>
<!-- Node7 -->
<g id="Node000007" class="node">
<title>Node7</title>
<g id="a_Node000007"><a xlink:href="../../d8/d89/namespacelinear__probing.html#a6a082dc1426a79f866cee6b370df37b0" target="_top" xlink:title=" ">
<polygon fill="white" stroke="#666666" points="254.75,-141.88 143.5,-141.88 143.5,-122.62 254.75,-122.62 254.75,-141.88"/>
<text text-anchor="middle" x="199.12" y="-128.38" font-family="Helvetica,sans-Serif" font-size="10.00">linear_probing::rehash</text>
</a>
</g>
</g>
<!-- Node1&#45;&gt;Node7 -->
<g id="edge6_Node000001_Node000007" class="edge">
<title>Node1&#45;&gt;Node7</title>
<g id="a_edge6_Node000001_Node000007"><a xlink:title=" ">
<path fill="none" stroke="#63b8ff" d="M98.01,-125.88C108.79,-125.55 120.41,-125.44 131.78,-125.53"/>
<polygon fill="#63b8ff" stroke="#63b8ff" points="131.46,-129.03 141.52,-125.68 131.57,-122.03 131.46,-129.03"/>
</a>
</g>
</g>
<!-- Node3 -->
<g id="Node000003" class="node">
<title>Node3</title>
<g id="a_Node000003"><a target="_blank" xlink:href="http://en.cppreference.com/w/cpp/io/manip/endl.html#" xlink:title=" ">
<polygon fill="white" stroke="#666666" points="389.25,-141.88 335.75,-141.88 335.75,-122.62 389.25,-122.62 389.25,-141.88"/>
<text text-anchor="middle" x="362.5" y="-128.38" font-family="Helvetica,sans-Serif" font-size="10.00">std::endl</text>
</a>
</g>
</g>
<!-- Node2&#45;&gt;Node3 -->
<g id="edge2_Node000002_Node000003" class="edge">
<title>Node2&#45;&gt;Node3</title>
<g id="a_edge2_Node000002_Node000003"><a xlink:title=" ">
<path fill="none" stroke="#63b8ff" d="M244.22,-105.36C269.4,-111.13 300.62,-118.29 324.51,-123.77"/>
<polygon fill="#63b8ff" stroke="#63b8ff" points="323.59,-127.15 334.12,-125.97 325.15,-120.33 323.59,-127.15"/>
</a>
</g>
</g>
<!-- Node4 -->
<g id="Node000004" class="node">
<title>Node4</title>
<g id="a_Node000004"><a xlink:href="../../d8/d89/namespacelinear__probing.html#a4bde7a47f98dd1ad24c84038e2608527" target="_top" xlink:title="Hash a key. Uses the STL library&#39;s std::hash() function.">
<polygon fill="white" stroke="#666666" points="422.25,-104.88 302.75,-104.88 302.75,-85.62 422.25,-85.62 422.25,-104.88"/>
<text text-anchor="middle" x="362.5" y="-91.38" font-family="Helvetica,sans-Serif" font-size="10.00">linear_probing::hashFxn</text>
</a>
</g>
</g>
<!-- Node2&#45;&gt;Node4 -->
<g id="edge3_Node000002_Node000004" class="edge">
<title>Node2&#45;&gt;Node4</title>
<g id="a_edge3_Node000002_Node000004"><a xlink:title=" ">
<path fill="none" stroke="#63b8ff" d="M264.83,-95.25C273.43,-95.25 282.28,-95.25 290.97,-95.25"/>
<polygon fill="#63b8ff" stroke="#63b8ff" points="290.75,-98.75 300.75,-95.25 290.75,-91.75 290.75,-98.75"/>
</a>
</g>
</g>
<!-- Node5 -->
<g id="Node000005" class="node">
<title>Node5</title>
<g id="a_Node000005"><a xlink:href="../../d8/d89/namespacelinear__probing.html#a75d779938df7ebc68581d922b60a2541" target="_top" xlink:title=" ">
<polygon fill="white" stroke="#666666" points="424.5,-67.88 300.5,-67.88 300.5,-48.62 424.5,-48.62 424.5,-67.88"/>
<text text-anchor="middle" x="362.5" y="-54.38" font-family="Helvetica,sans-Serif" font-size="10.00">linear_probing::putProber</text>
</a>
</g>
</g>
<!-- Node2&#45;&gt;Node5 -->
<g id="edge4_Node000002_Node000005" class="edge">
<title>Node2&#45;&gt;Node5</title>
<g id="a_edge4_Node000002_Node000005"><a xlink:title=" ">
<path fill="none" stroke="#63b8ff" d="M244.22,-85.14C263.43,-80.73 286.16,-75.52 306.46,-70.87"/>
<polygon fill="#63b8ff" stroke="#63b8ff" points="307.02,-74.33 315.98,-68.69 305.45,-67.51 307.02,-74.33"/>
</a>
</g>
</g>
<!-- Node6 -->
<g id="Node000006" class="node">
<title>Node6</title>
<g id="a_Node000006"><a xlink:href="../../d8/d89/namespacelinear__probing.html#a942fc8407b8001890ea26830cdcd9d77" target="_top" xlink:title=" ">
<polygon fill="white" stroke="#666666" points="424.5,-30.5 300.5,-30.5 300.5,0 424.5,0 424.5,-30.5"/>
<text text-anchor="start" x="308.5" y="-17" font-family="Helvetica,sans-Serif" font-size="10.00">linear_probing::searching</text>
<text text-anchor="middle" x="362.5" y="-5.75" font-family="Helvetica,sans-Serif" font-size="10.00">Prober</text>
</a>
</g>
</g>
<!-- Node2&#45;&gt;Node6 -->
<g id="edge5_Node000002_Node000006" class="edge">
<title>Node2&#45;&gt;Node6</title>
<g id="a_edge5_Node000002_Node000006"><a xlink:title=" ">
<path fill="none" stroke="#63b8ff" d="M216.46,-85.24C236.04,-73.46 270.02,-53.67 300.5,-39.25 303.25,-37.95 306.09,-36.66 308.97,-35.39"/>
<polygon fill="#63b8ff" stroke="#63b8ff" points="310.28,-38.64 318.12,-31.5 307.54,-32.19 310.28,-38.64"/>
</a>
</g>
</g>
<!-- Node7&#45;&gt;Node1 -->
<g id="edge7_Node000007_Node000001" class="edge">
<title>Node7&#45;&gt;Node1</title>
<g id="a_edge7_Node000007_Node000001"><a xlink:title=" ">
<path fill="none" stroke="#63b8ff" d="M143.03,-138.8C132.06,-139.04 120.49,-139.06 109.38,-138.88"/>
<polygon fill="#63b8ff" stroke="#63b8ff" points="109.6,-135.39 99.52,-138.65 109.44,-142.38 109.6,-135.39"/>
</a>
</g>
</g>
<!-- Node7&#45;&gt;Node3 -->
<g id="edge8_Node000007_Node000003" class="edge">
<title>Node7&#45;&gt;Node3</title>
<g id="a_edge8_Node000007_Node000003"><a xlink:title=" ">
<path fill="none" stroke="#63b8ff" d="M255.21,-132.25C277.96,-132.25 303.73,-132.25 324.2,-132.25"/>
<polygon fill="#63b8ff" stroke="#63b8ff" points="324.06,-135.75 334.06,-132.25 324.06,-128.75 324.06,-135.75"/>
</a>
</g>
</g>
</g>
</svg>
</svg>

<style type='text/css'>
<![CDATA[
[data-mouse-over-selected='false'] { opacity: 0.7; }
[data-mouse-over-selected='true']  { opacity: 1.0; }
]]>
</style>
<script type="application/ecmascript"><![CDATA[
document.addEventListener('DOMContentLoaded', (event) => {
  highlightEdges();
  highlightAdjacentNodes();
});
]]></script>
</svg>
