<?xml version="1.0" encoding="UTF-8" standalone="no"?>
<!DOCTYPE svg PUBLIC "-//W3C//DTD SVG 1.1//EN"
 "http://www.w3.org/Graphics/SVG/1.1/DTD/svg11.dtd">
<!-- Generated by graphviz version 5.0.1 (20220820.1526)
 -->
<!-- Title: linear_probing::addInfo Pages: 1 -->
<svg width="600pt" height="168pt"
 viewBox="0.00 0.00 600.00 168.35" xmlns="http://www.w3.org/2000/svg" xmlns:xlink="http://www.w3.org/1999/xlink">
<g id="graph0" class="graph" transform="scale(1 1) rotate(0) translate(4 164.35)">
<title>linear_probing::addInfo</title>
<!-- Node1 -->
<g id="node1" class="node">
<title>Node1</title>
<g id="a_node1"><a xlink:title=" ">
<polygon fill="#999999" stroke="#666666" points="115,-120 0,-120 0,-101 115,-101 115,-120"/>
<text text-anchor="middle" x="57.5" y="-108" font-family="Helvetica,sans-Serif" font-size="10.00">linear_probing::addInfo</text>
</a>
</g>
</g>
<!-- Node2 -->
<g id="node2" class="node">
<title>Node2</title>
<g id="a_node2"><a xlink:href="../../d8/d89/namespacelinear__probing.html#a16d34fd3511626a83ab00665d7bc34d1" target="_top" xlink:title=" ">
<polygon fill="white" stroke="#666666" points="256.5,-101 158.5,-101 158.5,-82 256.5,-82 256.5,-101"/>
<text text-anchor="middle" x="207.5" y="-89" font-family="Helvetica,sans-Serif" font-size="10.00">linear_probing::add</text>
</a>
</g>
</g>
<!-- Node1&#45;&gt;Node2 -->
<g id="edge1" class="edge">
<title>Node1&#45;&gt;Node2</title>
<path fill="none" stroke="#63b8ff" d="M115.3,-103.21C126.05,-101.83 137.31,-100.38 148.1,-99"/>
<polygon fill="#63b8ff" stroke="#63b8ff" points="148.81,-102.44 158.28,-97.69 147.92,-95.49 148.81,-102.44"/>
</g>
<!-- Node4 -->
<g id="node4" class="node">
<title>Node4</title>
<g id="a_node4"><a target="_blank" xlink:href="http://en.cppreference.com/w/cpp/io/manip/endl.html#" xlink:title=" ">
<polygon fill="white" stroke="#666666" points="556.5,-142 502.5,-142 502.5,-123 556.5,-123 556.5,-142"/>
<text text-anchor="middle" x="529.5" y="-130" font-family="Helvetica,sans-Serif" font-size="10.00">std::endl</text>
</a>
</g>
</g>
<!-- Node1&#45;&gt;Node4 -->
<g id="edge12" class="edge">
<title>Node1&#45;&gt;Node4</title>
<path fill="none" stroke="#63b8ff" d="M75.93,-120.08C94.06,-129.45 123.58,-143.09 151,-148.5 274.09,-172.8 423.98,-151.86 491.91,-139.71"/>
<polygon fill="#63b8ff" stroke="#63b8ff" points="492.88,-143.09 502.09,-137.85 491.62,-136.21 492.88,-143.09"/>
</g>
<!-- Node5 -->
<g id="node5" class="node">
<title>Node5</title>
<g id="a_node5"><a xlink:href="../../d8/d89/namespacelinear__probing.html#a4bde7a47f98dd1ad24c84038e2608527" target="_top" xlink:title="Hash a key. Uses the STL library&#39;s std::hash() function.">
<polygon fill="white" stroke="#666666" points="589.5,-19 469.5,-19 469.5,0 589.5,0 589.5,-19"/>
<text text-anchor="middle" x="529.5" y="-7" font-family="Helvetica,sans-Serif" font-size="10.00">linear_probing::hashFxn</text>
</a>
</g>
</g>
<!-- Node1&#45;&gt;Node5 -->
<g id="edge13" class="edge">
<title>Node1&#45;&gt;Node5</title>
<path fill="none" stroke="#63b8ff" d="M79.48,-100.85C98.01,-92.57 125.92,-80.72 151,-72.5 215.84,-51.26 232.85,-47.6 300,-35.5 353.15,-25.92 413.93,-19.2 459.44,-15"/>
<polygon fill="#63b8ff" stroke="#63b8ff" points="459.85,-18.48 469.49,-14.09 459.21,-11.51 459.85,-18.48"/>
</g>
<!-- Node9 -->
<g id="node9" class="node">
<title>Node9</title>
<g id="a_node9"><a xlink:href="../../d8/d89/namespacelinear__probing.html#ad87b71d810901fab69c4ad9d4d0fa635" target="_top" xlink:title=" ">
<polygon fill="white" stroke="#666666" points="264,-139 151,-139 151,-120 264,-120 264,-139"/>
<text text-anchor="middle" x="207.5" y="-127" font-family="Helvetica,sans-Serif" font-size="10.00">linear_probing::display</text>
</a>
</g>
</g>
<!-- Node1&#45;&gt;Node9 -->
<g id="edge10" class="edge">
<title>Node1&#45;&gt;Node9</title>
<path fill="none" stroke="#63b8ff" d="M115.3,-117.79C123.53,-118.85 132.06,-119.94 140.45,-121.02"/>
<polygon fill="#63b8ff" stroke="#63b8ff" points="140.22,-124.52 150.59,-122.32 141.11,-117.58 140.22,-124.52"/>
</g>
<!-- Node3 -->
<g id="node3" class="node">
<title>Node3</title>
<g id="a_node3"><a xlink:href="../../d8/d89/namespacelinear__probing.html#a6322209aaa91b7bbf16f96e1cc52b746" target="_top" xlink:title=" ">
<polygon fill="white" stroke="#666666" points="431,-64 300,-64 300,-45 431,-45 431,-64"/>
<text text-anchor="middle" x="365.5" y="-52" font-family="Helvetica,sans-Serif" font-size="10.00">linear_probing::linearProbe</text>
</a>
</g>
</g>
<!-- Node2&#45;&gt;Node3 -->
<g id="edge2" class="edge">
<title>Node2&#45;&gt;Node3</title>
<path fill="none" stroke="#63b8ff" d="M248.67,-81.97C268.7,-77.22 293.12,-71.43 314.37,-66.39"/>
<polygon fill="#63b8ff" stroke="#63b8ff" points="315.27,-69.77 324.19,-64.06 313.65,-62.96 315.27,-69.77"/>
</g>
<!-- Node8 -->
<g id="node8" class="node">
<title>Node8</title>
<g id="a_node8"><a xlink:href="../../d8/d89/namespacelinear__probing.html#a6a082dc1426a79f866cee6b370df37b0" target="_top" xlink:title=" ">
<polygon fill="white" stroke="#666666" points="421.5,-101 309.5,-101 309.5,-82 421.5,-82 421.5,-101"/>
<text text-anchor="middle" x="365.5" y="-89" font-family="Helvetica,sans-Serif" font-size="10.00">linear_probing::rehash</text>
</a>
</g>
</g>
<!-- Node2&#45;&gt;Node8 -->
<g id="edge7" class="edge">
<title>Node2&#45;&gt;Node8</title>
<path fill="none" stroke="#63b8ff" d="M256.58,-85.21C270.05,-84.78 284.92,-84.65 299.21,-84.83"/>
<polygon fill="#63b8ff" stroke="#63b8ff" points="299.43,-88.33 309.49,-85.02 299.55,-81.34 299.43,-88.33"/>
</g>
<!-- Node3&#45;&gt;Node4 -->
<g id="edge3" class="edge">
<title>Node3&#45;&gt;Node4</title>
<path fill="none" stroke="#63b8ff" d="M413.37,-64.01C419.55,-66.27 425.61,-69.06 431,-72.5 451.74,-85.71 446.35,-101.16 467,-114.5 474.67,-119.46 483.75,-123.08 492.54,-125.73"/>
<polygon fill="#63b8ff" stroke="#63b8ff" points="491.69,-129.12 502.25,-128.31 493.49,-122.36 491.69,-129.12"/>
</g>
<!-- Node3&#45;&gt;Node5 -->
<g id="edge4" class="edge">
<title>Node3&#45;&gt;Node5</title>
<path fill="none" stroke="#63b8ff" d="M400.86,-44.96C425.23,-38.19 458.16,-29.04 484.47,-21.73"/>
<polygon fill="#63b8ff" stroke="#63b8ff" points="485.5,-25.08 494.19,-19.03 483.62,-18.33 485.5,-25.08"/>
</g>
<!-- Node6 -->
<g id="node6" class="node">
<title>Node6</title>
<g id="a_node6"><a xlink:href="../../d8/d89/namespacelinear__probing.html#a75d779938df7ebc68581d922b60a2541" target="_top" xlink:title=" ">
<polygon fill="white" stroke="#666666" points="592,-105 467,-105 467,-86 592,-86 592,-105"/>
<text text-anchor="middle" x="529.5" y="-93" font-family="Helvetica,sans-Serif" font-size="10.00">linear_probing::putProber</text>
</a>
</g>
</g>
<!-- Node3&#45;&gt;Node6 -->
<g id="edge5" class="edge">
<title>Node3&#45;&gt;Node6</title>
<path fill="none" stroke="#63b8ff" d="M404.07,-64.01C426.99,-69.81 456.5,-77.28 481.03,-83.49"/>
<polygon fill="#63b8ff" stroke="#63b8ff" points="480.3,-86.91 490.85,-85.97 482.01,-80.12 480.3,-86.91"/>
</g>
<!-- Node7 -->
<g id="node7" class="node">
<title>Node7</title>
<g id="a_node7"><a xlink:href="../../d8/d89/namespacelinear__probing.html#a942fc8407b8001890ea26830cdcd9d77" target="_top" xlink:title=" ">
<polygon fill="white" stroke="#666666" points="592,-67.5 467,-67.5 467,-37.5 592,-37.5 592,-67.5"/>
<text text-anchor="start" x="475" y="-55.5" font-family="Helvetica,sans-Serif" font-size="10.00">linear_probing::searching</text>
<text text-anchor="middle" x="529.5" y="-44.5" font-family="Helvetica,sans-Serif" font-size="10.00">Prober</text>
</a>
</g>
</g>
<!-- Node3&#45;&gt;Node7 -->
<g id="edge6" class="edge">
<title>Node3&#45;&gt;Node7</title>
<path fill="none" stroke="#63b8ff" d="M431.46,-53.7C439.78,-53.6 448.34,-53.49 456.76,-53.39"/>
<polygon fill="#63b8ff" stroke="#63b8ff" points="456.99,-56.88 466.95,-53.26 456.9,-49.88 456.99,-56.88"/>
</g>
<!-- Node8&#45;&gt;Node2 -->
<g id="edge8" class="edge">
<title>Node8&#45;&gt;Node2</title>
<path fill="none" stroke="#63b8ff" d="M309.49,-97.98C295.6,-98.31 280.64,-98.34 266.61,-98.05"/>
<polygon fill="#63b8ff" stroke="#63b8ff" points="266.67,-94.55 256.58,-97.79 266.48,-101.55 266.67,-94.55"/>
</g>
<!-- Node8&#45;&gt;Node4 -->
<g id="edge9" class="edge">
<title>Node8&#45;&gt;Node4</title>
<path fill="none" stroke="#63b8ff" d="M404.07,-101.01C430.64,-107.73 466.06,-116.7 492.32,-123.34"/>
<polygon fill="#63b8ff" stroke="#63b8ff" points="491.69,-126.8 502.25,-125.86 493.41,-120.01 491.69,-126.8"/>
</g>
<!-- Node9&#45;&gt;Node4 -->
<g id="edge11" class="edge">
<title>Node9&#45;&gt;Node4</title>
<path fill="none" stroke="#63b8ff" d="M264.24,-130.02C329.68,-130.64 436.33,-131.64 492.03,-132.16"/>
<polygon fill="#63b8ff" stroke="#63b8ff" points="492.1,-135.66 502.13,-132.25 492.17,-128.66 492.1,-135.66"/>
</g>
</g>
</svg>
