<?xml version="1.0" encoding="UTF-8" standalone="no"?>
<!DOCTYPE svg PUBLIC "-//W3C//DTD SVG 1.1//EN"
 "http://www.w3.org/Graphics/SVG/1.1/DTD/svg11.dtd">
<!-- Generated by graphviz version 8.0.2 (20230410.1723)
 -->
<!-- Title: linear_probing::addInfo Pages: 1 -->
<svg width="600pt" height="168pt"
 viewBox="0.00 0.00 600.00 168.35" xmlns="http://www.w3.org/2000/svg" xmlns:xlink="http://www.w3.org/1999/xlink">
<g id="graph0" class="graph" transform="scale(1 1) rotate(0) translate(4 164.35)">
<title>linear_probing::addInfo</title>
<!-- Node1 -->
<g id="node1" class="node">
<title>Node1</title>
<g id="a_node1"><a xlink:title=" ">
<polygon fill="#999999" stroke="#666666" points="115,-120 0,-120 0,-101 115,-101 115,-120"/>
<text text-anchor="middle" x="57.5" y="-108" font-family="Helvetica,sans-Serif" font-size="10.00">linear_probing::addInfo</text>
</a>
</g>
</g>
<!-- Node2 -->
<g id="node2" class="node">
<title>Node2</title>
<g id="a_node2"><a xlink:href="../../d8/d89/namespacelinear__probing.html#a16d34fd3511626a83ab00665d7bc34d1" target="_top" xlink:title=" ">
<polygon fill="white" stroke="#666666" points="256.5,-101 158.5,-101 158.5,-82 256.5,-82 256.5,-101"/>
<text text-anchor="middle" x="207.5" y="-89" font-family="Helvetica,sans-Serif" font-size="10.00">linear_probing::add</text>
</a>
</g>
</g>
<!-- Node1&#45;&gt;Node2 -->
<g id="edge1" class="edge">
<title>Node1&#45;&gt;Node2</title>
<path fill="none" stroke="#63b8ff" d="M115.3,-103.21C125.82,-101.86 136.84,-100.44 147.44,-99.08"/>
<polygon fill="#63b8ff" stroke="#63b8ff" points="147.81,-102.44 157.28,-97.69 146.92,-95.49 147.81,-102.44"/>
</g>
<!-- Node4 -->
<g id="node4" class="node">
<title>Node4</title>
<g id="a_node4"><a target="_blank" xlink:href="http://en.cppreference.com/w/cpp/io/manip/endl.html#" xlink:title=" ">
<polygon fill="white" stroke="#666666" points="556.5,-142 502.5,-142 502.5,-123 556.5,-123 556.5,-142"/>
<text text-anchor="middle" x="529.5" y="-130" font-family="Helvetica,sans-Serif" font-size="10.00">std::endl</text>
</a>
</g>
</g>
<!-- Node1&#45;&gt;Node4 -->
<g id="edge12" class="edge">
<title>Node1&#45;&gt;Node4</title>
<path fill="none" stroke="#63b8ff" d="M76.61,-120.43C94.79,-129.79 123.92,-143.15 151,-148.5 273.84,-172.75 423.36,-151.94 491.49,-139.79"/>
<polygon fill="#63b8ff" stroke="#63b8ff" points="491.88,-143.09 501.09,-137.85 490.62,-136.2 491.88,-143.09"/>
</g>
<!-- Node5 -->
<g id="node5" class="node">
<title>Node5</title>
<g id="a_node5"><a xlink:href="../../d8/d89/namespacelinear__probing.html#a4bde7a47f98dd1ad24c84038e2608527" target="_top" xlink:title="Hash a key. Uses the STL library&#39;s std::hash() function.">
<polygon fill="white" stroke="#666666" points="589.5,-19 469.5,-19 469.5,0 589.5,0 589.5,-19"/>
<text text-anchor="middle" x="529.5" y="-7" font-family="Helvetica,sans-Serif" font-size="10.00">linear_probing::hashFxn</text>
</a>
</g>
</g>
<!-- Node1&#45;&gt;Node5 -->
<g id="edge13" class="edge">
<title>Node1&#45;&gt;Node5</title>
<path fill="none" stroke="#63b8ff" d="M80.21,-100.52C98.75,-92.26 126.25,-80.61 151,-72.5 215.84,-51.26 232.85,-47.6 300,-35.5 352.63,-26.01 412.75,-19.33 458.11,-15.12"/>
<polygon fill="#63b8ff" stroke="#63b8ff" points="458.37,-18.52 468.01,-14.13 457.74,-11.55 458.37,-18.52"/>
</g>
<!-- Node9 -->
<g id="node9" class="node">
<title>Node9</title>
<g id="a_node9"><a xlink:href="../../d8/d89/namespacelinear__probing.html#ad87b71d810901fab69c4ad9d4d0fa635" target="_top" xlink:title=" ">
<polygon fill="white" stroke="#666666" points="264,-139 151,-139 151,-120 264,-120 264,-139"/>
<text text-anchor="middle" x="207.5" y="-127" font-family="Helvetica,sans-Serif" font-size="10.00">linear_probing::display</text>
</a>
</g>
</g>
<!-- Node1&#45;&gt;Node9 -->
<g id="edge10" class="edge">
<title>Node1&#45;&gt;Node9</title>
<path fill="none" stroke="#63b8ff" d="M115.3,-117.79C123.35,-118.82 131.68,-119.89 139.9,-120.95"/>
<polygon fill="#63b8ff" stroke="#63b8ff" points="139.22,-124.52 149.59,-122.32 140.11,-117.58 139.22,-124.52"/>
</g>
<!-- Node3 -->
<g id="node3" class="node">
<title>Node3</title>
<g id="a_node3"><a xlink:href="../../d8/d89/namespacelinear__probing.html#a6322209aaa91b7bbf16f96e1cc52b746" target="_top" xlink:title=" ">
<polygon fill="white" stroke="#666666" points="431,-64 300,-64 300,-45 431,-45 431,-64"/>
<text text-anchor="middle" x="365.5" y="-52" font-family="Helvetica,sans-Serif" font-size="10.00">linear_probing::linearProbe</text>
</a>
</g>
</g>
<!-- Node2&#45;&gt;Node3 -->
<g id="edge2" class="edge">
<title>Node2&#45;&gt;Node3</title>
<path fill="none" stroke="#63b8ff" d="M250.31,-81.58C269.28,-77.08 291.92,-71.71 312.02,-66.95"/>
<polygon fill="#63b8ff" stroke="#63b8ff" points="312.66,-70.16 321.58,-64.44 311.04,-63.35 312.66,-70.16"/>
</g>
<!-- Node8 -->
<g id="node8" class="node">
<title>Node8</title>
<g id="a_node8"><a xlink:href="../../d8/d89/namespacelinear__probing.html#a6a082dc1426a79f866cee6b370df37b0" target="_top" xlink:title=" ">
<polygon fill="white" stroke="#666666" points="421.5,-101 309.5,-101 309.5,-82 421.5,-82 421.5,-101"/>
<text text-anchor="middle" x="365.5" y="-89" font-family="Helvetica,sans-Serif" font-size="10.00">linear_probing::rehash</text>
</a>
</g>
</g>
<!-- Node2&#45;&gt;Node8 -->
<g id="edge7" class="edge">
<title>Node2&#45;&gt;Node8</title>
<path fill="none" stroke="#63b8ff" d="M256.58,-85.21C269.85,-84.78 284.48,-84.65 298.57,-84.82"/>
<polygon fill="#63b8ff" stroke="#63b8ff" points="298.15,-88.33 308.21,-85.01 298.27,-81.33 298.15,-88.33"/>
</g>
<!-- Node3&#45;&gt;Node4 -->
<g id="edge3" class="edge">
<title>Node3&#45;&gt;Node4</title>
<path fill="none" stroke="#63b8ff" d="M414.38,-64.39C420.21,-66.58 425.9,-69.25 431,-72.5 451.74,-85.71 446.35,-101.16 467,-114.5 474.43,-119.3 483.17,-122.85 491.69,-125.47"/>
<polygon fill="#63b8ff" stroke="#63b8ff" points="490.69,-129.09 501.25,-128.31 492.51,-122.33 490.69,-129.09"/>
</g>
<!-- Node3&#45;&gt;Node5 -->
<g id="edge4" class="edge">
<title>Node3&#45;&gt;Node5</title>
<path fill="none" stroke="#63b8ff" d="M402.45,-44.51C425.94,-37.99 456.85,-29.4 482.17,-22.37"/>
<polygon fill="#63b8ff" stroke="#63b8ff" points="482.95,-25.51 491.65,-19.46 481.08,-18.76 482.95,-25.51"/>
</g>
<!-- Node6 -->
<g id="node6" class="node">
<title>Node6</title>
<g id="a_node6"><a xlink:href="../../d8/d89/namespacelinear__probing.html#a75d779938df7ebc68581d922b60a2541" target="_top" xlink:title=" ">
<polygon fill="white" stroke="#666666" points="592,-105 467,-105 467,-86 592,-86 592,-105"/>
<text text-anchor="middle" x="529.5" y="-93" font-family="Helvetica,sans-Serif" font-size="10.00">linear_probing::putProber</text>
</a>
</g>
</g>
<!-- Node3&#45;&gt;Node6 -->
<g id="edge5" class="edge">
<title>Node3&#45;&gt;Node6</title>
<path fill="none" stroke="#63b8ff" d="M405.72,-64.42C427.64,-69.97 455.19,-76.95 478.64,-82.88"/>
<polygon fill="#63b8ff" stroke="#63b8ff" points="477.53,-86.46 488.08,-85.52 479.25,-79.68 477.53,-86.46"/>
</g>
<!-- Node7 -->
<g id="node7" class="node">
<title>Node7</title>
<g id="a_node7"><a xlink:href="../../d8/d89/namespacelinear__probing.html#a942fc8407b8001890ea26830cdcd9d77" target="_top" xlink:title=" ">
<polygon fill="white" stroke="#666666" points="592,-67.5 467,-67.5 467,-37.5 592,-37.5 592,-67.5"/>
<text text-anchor="start" x="475" y="-55.5" font-family="Helvetica,sans-Serif" font-size="10.00">linear_probing::searching</text>
<text text-anchor="middle" x="529.5" y="-44.5" font-family="Helvetica,sans-Serif" font-size="10.00">Prober</text>
</a>
</g>
</g>
<!-- Node3&#45;&gt;Node7 -->
<g id="edge6" class="edge">
<title>Node3&#45;&gt;Node7</title>
<path fill="none" stroke="#63b8ff" d="M431.46,-53.7C439.45,-53.6 447.65,-53.5 455.75,-53.4"/>
<polygon fill="#63b8ff" stroke="#63b8ff" points="455.73,-56.89 465.68,-53.26 455.64,-49.89 455.73,-56.89"/>
</g>
<!-- Node8&#45;&gt;Node2 -->
<g id="edge8" class="edge">
<title>Node8&#45;&gt;Node2</title>
<path fill="none" stroke="#63b8ff" d="M309.21,-97.99C295.65,-98.31 281.09,-98.33 267.37,-98.07"/>
<polygon fill="#63b8ff" stroke="#63b8ff" points="267.67,-94.55 257.58,-97.79 267.48,-101.54 267.67,-94.55"/>
</g>
<!-- Node8&#45;&gt;Node4 -->
<g id="edge9" class="edge">
<title>Node8&#45;&gt;Node4</title>
<path fill="none" stroke="#63b8ff" d="M405.72,-101.42C431.94,-108.06 466.2,-116.73 491.87,-123.23"/>
<polygon fill="#63b8ff" stroke="#63b8ff" points="490.74,-126.81 501.29,-125.87 492.46,-120.02 490.74,-126.81"/>
</g>
<!-- Node9&#45;&gt;Node4 -->
<g id="edge11" class="edge">
<title>Node9&#45;&gt;Node4</title>
<path fill="none" stroke="#63b8ff" d="M264.24,-130.02C329.41,-130.63 435.45,-131.63 491.33,-132.15"/>
<polygon fill="#63b8ff" stroke="#63b8ff" points="491.1,-135.66 501.13,-132.25 491.17,-128.66 491.1,-135.66"/>
</g>
</g>
</svg>
