<?xml version="1.0" encoding="UTF-8" standalone="no"?>
<!DOCTYPE svg PUBLIC "-//W3C//DTD SVG 1.1//EN"
 "http://www.w3.org/Graphics/SVG/1.1/DTD/svg11.dtd">
<!-- Generated by graphviz version 5.0.1 (20220820.1526)
 -->
<!-- Title: range_queries::prefix_sum_array::build Pages: 1 -->
<svg width="267pt" height="69pt"
 viewBox="0.00 0.00 267.00 68.50" xmlns="http://www.w3.org/2000/svg" xmlns:xlink="http://www.w3.org/1999/xlink">
<g id="graph0" class="graph" transform="scale(1 1) rotate(0) translate(4 64.5)">
<title>range_queries::prefix_sum_array::build</title>
<!-- Node1 -->
<g id="node1" class="node">
<title>Node1</title>
<g id="a_node1"><a xlink:title="function that builds the PSA">
<polygon fill="#999999" stroke="#666666" points="107,-42.5 0,-42.5 0,-12.5 107,-12.5 107,-42.5"/>
<text text-anchor="start" x="8" y="-30.5" font-family="Helvetica,sans-Serif" font-size="10.00">range_queries::prefix</text>
<text text-anchor="middle" x="53.5" y="-19.5" font-family="Helvetica,sans-Serif" font-size="10.00">_sum_array::build</text>
</a>
</g>
</g>
<!-- Node1&#45;&gt;Node1 -->
<g id="edge1" class="edge">
<title>Node1&#45;&gt;Node1</title>
<path fill="none" stroke="#63b8ff" d="M27.84,-42.78C22.13,-51.91 30.69,-60.5 53.5,-60.5 67.04,-60.5 75.56,-57.47 79.06,-53.1"/>
<polygon fill="#63b8ff" stroke="#63b8ff" points="82.56,-52.81 79.16,-42.78 75.56,-52.74 82.56,-52.81"/>
</g>
<!-- Node2 -->
<g id="node2" class="node">
<title>Node2</title>
<g id="a_node2"><a target="_blank" xlink:href="http://en.cppreference.com/w/cpp/container/vector/push_back.html#" xlink:title=" ">
<polygon fill="white" stroke="#666666" points="259,-56 143,-56 143,-37 259,-37 259,-56"/>
<text text-anchor="middle" x="201" y="-44" font-family="Helvetica,sans-Serif" font-size="10.00">std::vector::push_back</text>
</a>
</g>
</g>
<!-- Node1&#45;&gt;Node2 -->
<g id="edge2" class="edge">
<title>Node1&#45;&gt;Node2</title>
<path fill="none" stroke="#63b8ff" d="M107.03,-34.36C115.34,-35.44 124.03,-36.58 132.62,-37.7"/>
<polygon fill="#63b8ff" stroke="#63b8ff" points="132.26,-41.18 142.63,-39.01 133.16,-34.24 132.26,-41.18"/>
</g>
<!-- Node3 -->
<g id="node3" class="node">
<title>Node3</title>
<g id="a_node3"><a target="_blank" xlink:href="http://en.cppreference.com/w/cpp/container/vector/size.html#" xlink:title=" ">
<polygon fill="white" stroke="#666666" points="244.5,-19 157.5,-19 157.5,0 244.5,0 244.5,-19"/>
<text text-anchor="middle" x="201" y="-7" font-family="Helvetica,sans-Serif" font-size="10.00">std::vector::size</text>
</a>
</g>
</g>
<!-- Node1&#45;&gt;Node3 -->
<g id="edge3" class="edge">
<title>Node1&#45;&gt;Node3</title>
<path fill="none" stroke="#63b8ff" d="M107.03,-21C120,-19.4 133.91,-17.68 146.91,-16.07"/>
<polygon fill="#63b8ff" stroke="#63b8ff" points="147.61,-19.51 157.11,-14.81 146.75,-12.56 147.61,-19.51"/>
</g>
</g>
</svg>
