<?xml version="1.0" encoding="UTF-8" standalone="no"?>
<!DOCTYPE svg PUBLIC "-//W3C//DTD SVG 1.1//EN"
 "http://www.w3.org/Graphics/SVG/1.1/DTD/svg11.dtd">
<!-- Generated by graphviz version 2.49.3 (20211023.0002)
 -->
<!-- Title: range_queries::prefix_sum_array::build Pages: 1 -->
<svg width="240pt" height="57pt"
 viewBox="0.00 0.00 240.00 57.00" xmlns="http://www.w3.org/2000/svg" xmlns:xlink="http://www.w3.org/1999/xlink">
<g id="graph0" class="graph" transform="scale(1 1) rotate(0) translate(4 53)">
<title>range_queries::prefix_sum_array::build</title>
<polygon fill="white" stroke="transparent" points="-4,4 -4,-53 236,-53 236,4 -4,4"/>
<!-- Node1 -->
<g id="node1" class="node">
<title>Node1</title>
<g id="a_node1"><a xlink:title="function that builds the PSA">
<polygon fill="#bfbfbf" stroke="black" points="0,-0.5 0,-30.5 110,-30.5 110,-0.5 0,-0.5"/>
<text text-anchor="start" x="8" y="-18.5" font-family="Helvetica,sans-Serif" font-size="10.00">range_queries::prefix</text>
<text text-anchor="middle" x="55" y="-7.5" font-family="Helvetica,sans-Serif" font-size="10.00">_sum_array::build</text>
</a>
</g>
</g>
<!-- Node1&#45;&gt;Node1 -->
<g id="edge1" class="edge">
<title>Node1&#45;&gt;Node1</title>
<path fill="none" stroke="midnightblue" d="M31.65,-30.66C26.02,-40.06 33.8,-49 55,-49 67.92,-49 75.86,-45.68 78.81,-40.96"/>
<polygon fill="midnightblue" stroke="midnightblue" points="82.29,-40.49 78.35,-30.66 75.3,-40.8 82.29,-40.49"/>
</g>
<!-- Node2 -->
<g id="node2" class="node">
<title>Node2</title>
<g id="a_node2"><a target="_blank" xlink:href="http://en.cppreference.com/w/cpp/container/vector/size.html#" xlink:title=" ">
<polygon fill="white" stroke="black" points="146,-6 146,-25 232,-25 232,-6 146,-6"/>
<text text-anchor="middle" x="189" y="-13" font-family="Helvetica,sans-Serif" font-size="10.00">std::vector::size</text>
</a>
</g>
</g>
<!-- Node1&#45;&gt;Node2 -->
<g id="edge2" class="edge">
<title>Node1&#45;&gt;Node2</title>
<path fill="none" stroke="midnightblue" d="M110.07,-15.5C118.57,-15.5 127.35,-15.5 135.81,-15.5"/>
<polygon fill="midnightblue" stroke="midnightblue" points="135.93,-19 145.93,-15.5 135.93,-12 135.93,-19"/>
</g>
</g>
</svg>
