<?xml version="1.0" encoding="UTF-8" standalone="no"?>
<!DOCTYPE svg PUBLIC "-//W3C//DTD SVG 1.1//EN"
 "http://www.w3.org/Graphics/SVG/1.1/DTD/svg11.dtd">
<!-- Generated by graphviz version 8.0.4 (20230421.1958)
 -->
<!-- Title: sorting/shell_sort2.cpp Pages: 1 -->
<svg width="366pt" height="83pt"
 viewBox="0.00 0.00 365.62 82.50" xmlns="http://www.w3.org/2000/svg" xmlns:xlink="http://www.w3.org/1999/xlink">
<g id="graph0" class="graph" transform="scale(1 1) rotate(0) translate(4 78.5)">
<title>sorting/shell_sort2.cpp</title>
<!-- Node1 -->
<g id="node1" class="node">
<title>Node1</title>
<g id="a_node1"><a xlink:title="Shell sort algorithm">
<polygon fill="#999999" stroke="#666666" points="237.25,-74.5 123,-74.5 123,-55.25 237.25,-55.25 237.25,-74.5"/>
<text text-anchor="middle" x="180.12" y="-61" font-family="Helvetica,sans-Serif" font-size="10.00">sorting/shell_sort2.cpp</text>
</a>
</g>
</g>
<!-- Node2 -->
<g id="node2" class="node">
<title>Node2</title>
<g id="a_node2"><a xlink:title=" ">
<polygon fill="#e0e0e0" stroke="#999999" points="48.25,-19.25 0,-19.25 0,0 48.25,0 48.25,-19.25"/>
<text text-anchor="middle" x="24.12" y="-5.75" font-family="Helvetica,sans-Serif" font-size="10.00">cassert</text>
</a>
</g>
</g>
<!-- Node1&#45;&gt;Node2 -->
<g id="edge1" class="edge">
<title>Node1&#45;&gt;Node2</title>
<path fill="none" stroke="#63b8ff" d="M153.66,-54.84C127.61,-45.95 87.67,-32.32 59.03,-22.54"/>
<polygon fill="#63b8ff" stroke="#63b8ff" points="60.25,-18.92 49.66,-19 57.99,-25.54 60.25,-18.92"/>
</g>
<!-- Node3 -->
<g id="node3" class="node">
<title>Node3</title>
<g id="a_node3"><a xlink:title=" ">
<polygon fill="#e0e0e0" stroke="#999999" points="110.38,-19.25 65.88,-19.25 65.88,0 110.38,0 110.38,-19.25"/>
<text text-anchor="middle" x="88.12" y="-5.75" font-family="Helvetica,sans-Serif" font-size="10.00">cstdlib</text>
</a>
</g>
</g>
<!-- Node1&#45;&gt;Node3 -->
<g id="edge2" class="edge">
<title>Node1&#45;&gt;Node3</title>
<path fill="none" stroke="#63b8ff" d="M164.52,-54.84C150.51,-46.73 129.69,-34.68 113.32,-25.21"/>
<polygon fill="#63b8ff" stroke="#63b8ff" points="115.22,-21.68 104.81,-19.7 111.71,-27.74 115.22,-21.68"/>
</g>
<!-- Node4 -->
<g id="node4" class="node">
<title>Node4</title>
<g id="a_node4"><a xlink:title=" ">
<polygon fill="#e0e0e0" stroke="#999999" points="168.12,-19.25 128.12,-19.25 128.12,0 168.12,0 168.12,-19.25"/>
<text text-anchor="middle" x="148.12" y="-5.75" font-family="Helvetica,sans-Serif" font-size="10.00">ctime</text>
</a>
</g>
</g>
<!-- Node1&#45;&gt;Node4 -->
<g id="edge3" class="edge">
<title>Node1&#45;&gt;Node4</title>
<path fill="none" stroke="#63b8ff" d="M174.84,-55.08C170.56,-47.96 164.38,-37.68 159.05,-28.8"/>
<polygon fill="#63b8ff" stroke="#63b8ff" points="161.67,-27.38 153.52,-20.61 155.67,-30.98 161.67,-27.38"/>
</g>
<!-- Node5 -->
<g id="node5" class="node">
<title>Node5</title>
<g id="a_node5"><a xlink:title=" ">
<polygon fill="#e0e0e0" stroke="#999999" points="239.88,-19.25 186.38,-19.25 186.38,0 239.88,0 239.88,-19.25"/>
<text text-anchor="middle" x="213.12" y="-5.75" font-family="Helvetica,sans-Serif" font-size="10.00">iostream</text>
</a>
</g>
</g>
<!-- Node1&#45;&gt;Node5 -->
<g id="edge4" class="edge">
<title>Node1&#45;&gt;Node5</title>
<path fill="none" stroke="#63b8ff" d="M185.57,-55.08C189.99,-47.96 196.36,-37.68 201.86,-28.8"/>
<polygon fill="#63b8ff" stroke="#63b8ff" points="205.26,-30.95 207.56,-20.61 199.31,-27.27 205.26,-30.95"/>
</g>
<!-- Node6 -->
<g id="node6" class="node">
<title>Node6</title>
<g id="a_node6"><a xlink:title=" ">
<polygon fill="#e0e0e0" stroke="#999999" points="296.75,-19.25 257.5,-19.25 257.5,0 296.75,0 296.75,-19.25"/>
<text text-anchor="middle" x="277.12" y="-5.75" font-family="Helvetica,sans-Serif" font-size="10.00">utility</text>
</a>
</g>
</g>
<!-- Node1&#45;&gt;Node6 -->
<g id="edge5" class="edge">
<title>Node1&#45;&gt;Node6</title>
<path fill="none" stroke="#63b8ff" d="M196.58,-54.84C211.49,-46.66 233.72,-34.46 251.04,-24.94"/>
<polygon fill="#63b8ff" stroke="#63b8ff" points="252.51,-27.58 259.59,-19.7 249.14,-21.45 252.51,-27.58"/>
</g>
<!-- Node7 -->
<g id="node7" class="node">
<title>Node7</title>
<g id="a_node7"><a xlink:title=" ">
<polygon fill="#e0e0e0" stroke="#999999" points="357.62,-19.25 314.62,-19.25 314.62,0 357.62,0 357.62,-19.25"/>
<text text-anchor="middle" x="336.12" y="-5.75" font-family="Helvetica,sans-Serif" font-size="10.00">vector</text>
</a>
</g>
</g>
<!-- Node1&#45;&gt;Node7 -->
<g id="edge6" class="edge">
<title>Node1&#45;&gt;Node7</title>
<path fill="none" stroke="#63b8ff" d="M206.59,-54.84C233.57,-45.63 275.43,-31.34 304.23,-21.51"/>
<polygon fill="#63b8ff" stroke="#63b8ff" points="305.23,-24.53 313.56,-17.98 302.97,-17.9 305.23,-24.53"/>
</g>
</g>
</svg>
