<?xml version="1.0" encoding="UTF-8" standalone="no"?>
<!DOCTYPE svg PUBLIC "-//W3C//DTD SVG 1.1//EN"
 "http://www.w3.org/Graphics/SVG/1.1/DTD/svg11.dtd">
<!-- Generated by graphviz version 6.0.1 (20220911.1526)
 -->
<!-- Title: machine_learning/adaline_learning.cpp Pages: 1 -->
<svg width="566pt" height="93pt"
 viewBox="0.00 0.00 566.00 93.00" xmlns="http://www.w3.org/2000/svg" xmlns:xlink="http://www.w3.org/1999/xlink">
<g id="graph0" class="graph" transform="scale(1 1) rotate(0) translate(4 89)">
<title>machine_learning/adaline_learning.cpp</title>
<!-- Node1 -->
<g id="node1" class="node">
<title>Node1</title>
<g id="a_node1"><a xlink:title="Adaptive Linear Neuron (ADALINE) implementation">
<polygon fill="#999999" stroke="#666666" points="335,-85 209,-85 209,-55 335,-55 335,-85"/>
<text text-anchor="start" x="217" y="-73" font-family="Helvetica,sans-Serif" font-size="10.00">machine_learning/adaline</text>
<text text-anchor="middle" x="272" y="-62" font-family="Helvetica,sans-Serif" font-size="10.00">_learning.cpp</text>
</a>
</g>
</g>
<!-- Node2 -->
<g id="node2" class="node">
<title>Node2</title>
<g id="a_node2"><a xlink:title=" ">
<polygon fill="#e0e0e0" stroke="#999999" points="38,-19 0,-19 0,0 38,0 38,-19"/>
<text text-anchor="middle" x="19" y="-7" font-family="Helvetica,sans-Serif" font-size="10.00">array</text>
</a>
</g>
</g>
<!-- Node1&#45;&gt;Node2 -->
<g id="edge1" class="edge">
<title>Node1&#45;&gt;Node2</title>
<path fill="none" stroke="#63b8ff" d="M208.65,-56.27C165.78,-47.34 107.7,-34.65 48.18,-19.16"/>
<polygon fill="#63b8ff" stroke="#63b8ff" points="48.79,-15.7 38.22,-16.55 47.01,-22.47 48.79,-15.7"/>
</g>
<!-- Node3 -->
<g id="node3" class="node">
<title>Node3</title>
<g id="a_node3"><a xlink:title=" ">
<polygon fill="#e0e0e0" stroke="#999999" points="105.5,-19 56.5,-19 56.5,0 105.5,0 105.5,-19"/>
<text text-anchor="middle" x="81" y="-7" font-family="Helvetica,sans-Serif" font-size="10.00">cassert</text>
</a>
</g>
</g>
<!-- Node1&#45;&gt;Node3 -->
<g id="edge2" class="edge">
<title>Node1&#45;&gt;Node3</title>
<path fill="none" stroke="#63b8ff" d="M226.25,-54.99C192.24,-44.57 146.55,-30.58 115.56,-21.09"/>
<polygon fill="#63b8ff" stroke="#63b8ff" points="116.24,-17.63 105.66,-18.05 114.19,-24.33 116.24,-17.63"/>
</g>
<!-- Node4 -->
<g id="node4" class="node">
<title>Node4</title>
<g id="a_node4"><a xlink:title=" ">
<polygon fill="#e0e0e0" stroke="#999999" points="168.5,-19 123.5,-19 123.5,0 168.5,0 168.5,-19"/>
<text text-anchor="middle" x="146" y="-7" font-family="Helvetica,sans-Serif" font-size="10.00">climits</text>
</a>
</g>
</g>
<!-- Node1&#45;&gt;Node4 -->
<g id="edge3" class="edge">
<title>Node1&#45;&gt;Node4</title>
<path fill="none" stroke="#63b8ff" d="M241.82,-54.99C221.17,-45.4 194,-32.79 173.87,-23.44"/>
<polygon fill="#63b8ff" stroke="#63b8ff" points="175.15,-20.18 164.61,-19.14 172.2,-26.52 175.15,-20.18"/>
</g>
<!-- Node5 -->
<g id="node5" class="node">
<title>Node5</title>
<g id="a_node5"><a xlink:title=" ">
<polygon fill="#e0e0e0" stroke="#999999" points="231,-19 187,-19 187,0 231,0 231,-19"/>
<text text-anchor="middle" x="209" y="-7" font-family="Helvetica,sans-Serif" font-size="10.00">cmath</text>
</a>
</g>
</g>
<!-- Node1&#45;&gt;Node5 -->
<g id="edge4" class="edge">
<title>Node1&#45;&gt;Node5</title>
<path fill="none" stroke="#63b8ff" d="M256.75,-54.84C247.42,-46.17 235.47,-35.08 225.85,-26.15"/>
<polygon fill="#63b8ff" stroke="#63b8ff" points="228.15,-23.51 218.44,-19.27 223.39,-28.64 228.15,-23.51"/>
</g>
<!-- Node6 -->
<g id="node6" class="node">
<title>Node6</title>
<g id="a_node6"><a xlink:title=" ">
<polygon fill="#e0e0e0" stroke="#999999" points="294.5,-19 249.5,-19 249.5,0 294.5,0 294.5,-19"/>
<text text-anchor="middle" x="272" y="-7" font-family="Helvetica,sans-Serif" font-size="10.00">cstdlib</text>
</a>
</g>
</g>
<!-- Node1&#45;&gt;Node6 -->
<g id="edge5" class="edge">
<title>Node1&#45;&gt;Node6</title>
<path fill="none" stroke="#63b8ff" d="M272,-54.84C272,-47.21 272,-37.7 272,-29.45"/>
<polygon fill="#63b8ff" stroke="#63b8ff" points="275.5,-29.27 272,-19.27 268.5,-29.27 275.5,-29.27"/>
</g>
<!-- Node7 -->
<g id="node7" class="node">
<title>Node7</title>
<g id="a_node7"><a xlink:title=" ">
<polygon fill="#e0e0e0" stroke="#999999" points="353.5,-19 312.5,-19 312.5,0 353.5,0 353.5,-19"/>
<text text-anchor="middle" x="333" y="-7" font-family="Helvetica,sans-Serif" font-size="10.00">ctime</text>
</a>
</g>
</g>
<!-- Node1&#45;&gt;Node7 -->
<g id="edge6" class="edge">
<title>Node1&#45;&gt;Node7</title>
<path fill="none" stroke="#63b8ff" d="M286.77,-54.84C295.71,-46.26 307.14,-35.3 316.4,-26.42"/>
<polygon fill="#63b8ff" stroke="#63b8ff" points="319.06,-28.71 323.86,-19.27 314.22,-23.66 319.06,-28.71"/>
</g>
<!-- Node8 -->
<g id="node8" class="node">
<title>Node8</title>
<g id="a_node8"><a xlink:title=" ">
<polygon fill="#e0e0e0" stroke="#999999" points="426,-19 372,-19 372,0 426,0 426,-19"/>
<text text-anchor="middle" x="399" y="-7" font-family="Helvetica,sans-Serif" font-size="10.00">iostream</text>
</a>
</g>
</g>
<!-- Node1&#45;&gt;Node8 -->
<g id="edge7" class="edge">
<title>Node1&#45;&gt;Node8</title>
<path fill="none" stroke="#63b8ff" d="M302.42,-54.99C323.23,-45.4 350.62,-32.79 370.91,-23.44"/>
<polygon fill="#63b8ff" stroke="#63b8ff" points="372.63,-26.5 380.24,-19.14 369.7,-20.14 372.63,-26.5"/>
</g>
<!-- Node9 -->
<g id="node9" class="node">
<title>Node9</title>
<g id="a_node9"><a xlink:title=" ">
<polygon fill="#e0e0e0" stroke="#999999" points="495.5,-19 444.5,-19 444.5,0 495.5,0 495.5,-19"/>
<text text-anchor="middle" x="470" y="-7" font-family="Helvetica,sans-Serif" font-size="10.00">numeric</text>
</a>
</g>
</g>
<!-- Node1&#45;&gt;Node9 -->
<g id="edge8" class="edge">
<title>Node1&#45;&gt;Node9</title>
<path fill="none" stroke="#63b8ff" d="M319.43,-54.99C354.84,-44.53 402.46,-30.46 434.59,-20.96"/>
<polygon fill="#63b8ff" stroke="#63b8ff" points="435.84,-24.24 444.44,-18.05 433.86,-17.53 435.84,-24.24"/>
</g>
<!-- Node10 -->
<g id="node10" class="node">
<title>Node10</title>
<g id="a_node10"><a xlink:title=" ">
<polygon fill="#e0e0e0" stroke="#999999" points="558,-19 514,-19 514,0 558,0 558,-19"/>
<text text-anchor="middle" x="536" y="-7" font-family="Helvetica,sans-Serif" font-size="10.00">vector</text>
</a>
</g>
</g>
<!-- Node1&#45;&gt;Node10 -->
<g id="edge9" class="edge">
<title>Node1&#45;&gt;Node10</title>
<path fill="none" stroke="#63b8ff" d="M335.01,-56.48C379.63,-47.38 441.1,-34.39 503.64,-19.23"/>
<polygon fill="#63b8ff" stroke="#63b8ff" points="504.8,-22.55 513.69,-16.78 503.14,-15.75 504.8,-22.55"/>
</g>
</g>
</svg>
