<?xml version="1.0" encoding="UTF-8" standalone="no"?>
<!DOCTYPE svg PUBLIC "-//W3C//DTD SVG 1.1//EN"
 "http://www.w3.org/Graphics/SVG/1.1/DTD/svg11.dtd">
<!-- Generated by graphviz version 7.0.4 (20221203.1631)
 -->
<!-- Title: machine_learning/adaline_learning.cpp Pages: 1 -->
<svg width="566pt" height="93pt"
 viewBox="0.00 0.00 566.00 93.00" xmlns="http://www.w3.org/2000/svg" xmlns:xlink="http://www.w3.org/1999/xlink">
<g id="graph0" class="graph" transform="scale(1 1) rotate(0) translate(4 89)">
<title>machine_learning/adaline_learning.cpp</title>
<!-- Node1 -->
<g id="node1" class="node">
<title>Node1</title>
<g id="a_node1"><a xlink:title="Adaptive Linear Neuron (ADALINE) implementation">
<polygon fill="#999999" stroke="#666666" points="335,-85 209,-85 209,-55 335,-55 335,-85"/>
<text text-anchor="start" x="217" y="-73" font-family="Helvetica,sans-Serif" font-size="10.00">machine_learning/adaline</text>
<text text-anchor="middle" x="272" y="-62" font-family="Helvetica,sans-Serif" font-size="10.00">_learning.cpp</text>
</a>
</g>
</g>
<!-- Node2 -->
<g id="node2" class="node">
<title>Node2</title>
<g id="a_node2"><a xlink:title=" ">
<polygon fill="#e0e0e0" stroke="#999999" points="38,-19 0,-19 0,0 38,0 38,-19"/>
<text text-anchor="middle" x="19" y="-7" font-family="Helvetica,sans-Serif" font-size="10.00">array</text>
</a>
</g>
</g>
<!-- Node1&#45;&gt;Node2 -->
<g id="edge1" class="edge">
<title>Node1&#45;&gt;Node2</title>
<path fill="none" stroke="#63b8ff" d="M208.65,-56.27C166.05,-47.4 108.42,-34.8 49.28,-19.45"/>
<polygon fill="#63b8ff" stroke="#63b8ff" points="50.25,-16.08 39.69,-16.93 48.47,-22.85 50.25,-16.08"/>
</g>
<!-- Node3 -->
<g id="node3" class="node">
<title>Node3</title>
<g id="a_node3"><a xlink:title=" ">
<polygon fill="#e0e0e0" stroke="#999999" points="105.5,-19 56.5,-19 56.5,0 105.5,0 105.5,-19"/>
<text text-anchor="middle" x="81" y="-7" font-family="Helvetica,sans-Serif" font-size="10.00">cassert</text>
</a>
</g>
</g>
<!-- Node1&#45;&gt;Node3 -->
<g id="edge2" class="edge">
<title>Node1&#45;&gt;Node3</title>
<path fill="none" stroke="#63b8ff" d="M224.79,-54.54C191.38,-44.31 147.29,-30.8 116.77,-21.46"/>
<polygon fill="#63b8ff" stroke="#63b8ff" points="117.83,-18.12 107.24,-18.54 115.78,-24.81 117.83,-18.12"/>
</g>
<!-- Node4 -->
<g id="node4" class="node">
<title>Node4</title>
<g id="a_node4"><a xlink:title=" ">
<polygon fill="#e0e0e0" stroke="#999999" points="168.5,-19 123.5,-19 123.5,0 168.5,0 168.5,-19"/>
<text text-anchor="middle" x="146" y="-7" font-family="Helvetica,sans-Serif" font-size="10.00">climits</text>
</a>
</g>
</g>
<!-- Node1&#45;&gt;Node4 -->
<g id="edge3" class="edge">
<title>Node1&#45;&gt;Node4</title>
<path fill="none" stroke="#63b8ff" d="M240.85,-54.54C220.81,-45.23 194.92,-33.22 175.26,-24.09"/>
<polygon fill="#63b8ff" stroke="#63b8ff" points="176.97,-21.02 166.43,-19.98 174.02,-27.37 176.97,-21.02"/>
</g>
<!-- Node5 -->
<g id="node5" class="node">
<title>Node5</title>
<g id="a_node5"><a xlink:title=" ">
<polygon fill="#e0e0e0" stroke="#999999" points="231,-19 187,-19 187,0 231,0 231,-19"/>
<text text-anchor="middle" x="209" y="-7" font-family="Helvetica,sans-Serif" font-size="10.00">cmath</text>
</a>
</g>
</g>
<!-- Node1&#45;&gt;Node5 -->
<g id="edge4" class="edge">
<title>Node1&#45;&gt;Node5</title>
<path fill="none" stroke="#63b8ff" d="M256.43,-54.54C247.37,-46.13 235.93,-35.51 226.55,-26.8"/>
<polygon fill="#63b8ff" stroke="#63b8ff" points="229.16,-24.44 219.45,-20.21 224.4,-29.57 229.16,-24.44"/>
</g>
<!-- Node6 -->
<g id="node6" class="node">
<title>Node6</title>
<g id="a_node6"><a xlink:title=" ">
<polygon fill="#e0e0e0" stroke="#999999" points="294.5,-19 249.5,-19 249.5,0 294.5,0 294.5,-19"/>
<text text-anchor="middle" x="272" y="-7" font-family="Helvetica,sans-Serif" font-size="10.00">cstdlib</text>
</a>
</g>
</g>
<!-- Node1&#45;&gt;Node6 -->
<g id="edge5" class="edge">
<title>Node1&#45;&gt;Node6</title>
<path fill="none" stroke="#63b8ff" d="M272,-54.54C272,-47.34 272,-38.53 272,-30.68"/>
<polygon fill="#63b8ff" stroke="#63b8ff" points="275.5,-30.69 272,-20.69 268.5,-30.69 275.5,-30.69"/>
</g>
<!-- Node7 -->
<g id="node7" class="node">
<title>Node7</title>
<g id="a_node7"><a xlink:title=" ">
<polygon fill="#e0e0e0" stroke="#999999" points="353.5,-19 312.5,-19 312.5,0 353.5,0 353.5,-19"/>
<text text-anchor="middle" x="333" y="-7" font-family="Helvetica,sans-Serif" font-size="10.00">ctime</text>
</a>
</g>
</g>
<!-- Node1&#45;&gt;Node7 -->
<g id="edge6" class="edge">
<title>Node1&#45;&gt;Node7</title>
<path fill="none" stroke="#63b8ff" d="M287.08,-54.54C295.76,-46.22 306.7,-35.72 315.72,-27.07"/>
<polygon fill="#63b8ff" stroke="#63b8ff" points="318.07,-29.67 322.86,-20.22 313.22,-24.62 318.07,-29.67"/>
</g>
<!-- Node8 -->
<g id="node8" class="node">
<title>Node8</title>
<g id="a_node8"><a xlink:title=" ">
<polygon fill="#e0e0e0" stroke="#999999" points="426,-19 372,-19 372,0 426,0 426,-19"/>
<text text-anchor="middle" x="399" y="-7" font-family="Helvetica,sans-Serif" font-size="10.00">iostream</text>
</a>
</g>
</g>
<!-- Node1&#45;&gt;Node8 -->
<g id="edge7" class="edge">
<title>Node1&#45;&gt;Node8</title>
<path fill="none" stroke="#63b8ff" d="M303.39,-54.54C323.6,-45.23 349.69,-33.22 369.51,-24.09"/>
<polygon fill="#63b8ff" stroke="#63b8ff" points="370.8,-27.34 378.42,-19.98 367.87,-20.98 370.8,-27.34"/>
</g>
<!-- Node9 -->
<g id="node9" class="node">
<title>Node9</title>
<g id="a_node9"><a xlink:title=" ">
<polygon fill="#e0e0e0" stroke="#999999" points="495.5,-19 444.5,-19 444.5,0 495.5,0 495.5,-19"/>
<text text-anchor="middle" x="470" y="-7" font-family="Helvetica,sans-Serif" font-size="10.00">numeric</text>
</a>
</g>
</g>
<!-- Node1&#45;&gt;Node9 -->
<g id="edge8" class="edge">
<title>Node1&#45;&gt;Node9</title>
<path fill="none" stroke="#63b8ff" d="M320.94,-54.54C355.62,-44.29 401.42,-30.76 433.05,-21.42"/>
<polygon fill="#63b8ff" stroke="#63b8ff" points="433.97,-24.79 442.57,-18.6 431.99,-18.08 433.97,-24.79"/>
</g>
<!-- Node10 -->
<g id="node10" class="node">
<title>Node10</title>
<g id="a_node10"><a xlink:title=" ">
<polygon fill="#e0e0e0" stroke="#999999" points="558,-19 514,-19 514,0 558,0 558,-19"/>
<text text-anchor="middle" x="536" y="-7" font-family="Helvetica,sans-Serif" font-size="10.00">vector</text>
</a>
</g>
</g>
<!-- Node1&#45;&gt;Node10 -->
<g id="edge9" class="edge">
<title>Node1&#45;&gt;Node10</title>
<path fill="none" stroke="#63b8ff" d="M335.01,-56.48C379.45,-47.42 440.6,-34.49 502.87,-19.42"/>
<polygon fill="#63b8ff" stroke="#63b8ff" points="503.33,-22.91 512.22,-17.14 501.67,-16.11 503.33,-22.91"/>
</g>
</g>
</svg>
