<?xml version="1.0" encoding="UTF-8" standalone="no"?>
<!DOCTYPE svg PUBLIC "-//W3C//DTD SVG 1.1//EN"
 "http://www.w3.org/Graphics/SVG/1.1/DTD/svg11.dtd">
<!-- Generated by graphviz version 2.44.0 (20200408.0750)
 -->
<!-- Title: test1 Pages: 1 -->
<svg width="467pt" height="304pt"
 viewBox="0.00 0.00 467.00 304.00" xmlns="http://www.w3.org/2000/svg" xmlns:xlink="http://www.w3.org/1999/xlink">
<g id="graph0" class="graph" transform="scale(1 1) rotate(0) translate(4 300)">
<title>test1</title>
<polygon fill="white" stroke="transparent" points="-4,4 -4,-300 463,-300 463,4 -4,4"/>
<!-- Node1 -->
<g id="node1" class="node">
<title>Node1</title>
<g id="a_node1"><a xlink:title=" ">
<polygon fill="#bfbfbf" stroke="black" points="0,-152.5 0,-171.5 38,-171.5 38,-152.5 0,-152.5"/>
<text text-anchor="middle" x="19" y="-159.5" font-family="Helvetica,sans-Serif" font-size="10.00">test1</text>
</a>
</g>
</g>
<!-- Node2 -->
<g id="node2" class="node">
<title>Node2</title>
<g id="a_node2"><a xlink:href="../../d9/d49/kohonen__som__trace_8cpp.html#af5ce14f026d6d231bef29161bac2b485" target="_top" xlink:title=" ">
<polygon fill="white" stroke="black" points="247,-209.5 247,-228.5 301,-228.5 301,-209.5 247,-209.5"/>
<text text-anchor="middle" x="274" y="-216.5" font-family="Helvetica,sans-Serif" font-size="10.00">_random</text>
</a>
</g>
</g>
<!-- Node1&#45;&gt;Node2 -->
<g id="edge1" class="edge">
<title>Node1&#45;&gt;Node2</title>
<path fill="none" stroke="midnightblue" d="M25.49,-171.52C33.92,-185.06 51.46,-209.3 74,-219 127.1,-241.84 195.8,-234.82 237.02,-227.22"/>
<polygon fill="midnightblue" stroke="midnightblue" points="237.74,-230.65 246.88,-225.3 236.4,-223.78 237.74,-230.65"/>
</g>
<!-- Node3 -->
<g id="node3" class="node">
<title>Node3</title>
<g id="a_node3"><a xlink:href="../../d9/d49/kohonen__som__trace_8cpp.html#afb0326e0e585bb75d51bb95a2941f7a9" target="_top" xlink:title=" ">
<polygon fill="white" stroke="black" points="74,-152.5 74,-171.5 181,-171.5 181,-152.5 74,-152.5"/>
<text text-anchor="middle" x="127.5" y="-159.5" font-family="Helvetica,sans-Serif" font-size="10.00">kohonen_som_tracer</text>
</a>
</g>
</g>
<!-- Node1&#45;&gt;Node3 -->
<g id="edge2" class="edge">
<title>Node1&#45;&gt;Node3</title>
<path fill="none" stroke="midnightblue" d="M38.07,-162C45.39,-162 54.32,-162 63.65,-162"/>
<polygon fill="midnightblue" stroke="midnightblue" points="63.88,-165.5 73.88,-162 63.88,-158.5 63.88,-165.5"/>
</g>
<!-- Node8 -->
<g id="node8" class="node">
<title>Node8</title>
<g id="a_node8"><a target="_parent" xlink:href="http://en.cppreference.com/w/cpp/algorithm/max.html#" xlink:title=" ">
<polygon fill="white" stroke="black" points="385.5,-86.5 385.5,-105.5 440.5,-105.5 440.5,-86.5 385.5,-86.5"/>
<text text-anchor="middle" x="413" y="-93.5" font-family="Helvetica,sans-Serif" font-size="10.00">std::max</text>
</a>
</g>
</g>
<!-- Node1&#45;&gt;Node8 -->
<g id="edge10" class="edge">
<title>Node1&#45;&gt;Node8</title>
<path fill="none" stroke="midnightblue" d="M38.22,-154.56C48.56,-150.6 61.83,-145.96 74,-143 130.64,-129.25 299.86,-108.87 375.16,-100.18"/>
<polygon fill="midnightblue" stroke="midnightblue" points="375.61,-103.65 385.14,-99.03 374.81,-96.7 375.61,-103.65"/>
</g>
<!-- Node11 -->
<g id="node11" class="node">
<title>Node11</title>
<g id="a_node11"><a xlink:href="../../d9/d49/kohonen__som__trace_8cpp.html#a72699c805c19a6cc47a937a6f3378afa" target="_top" xlink:title=" ">
<polygon fill="white" stroke="black" points="89,-57.5 89,-76.5 166,-76.5 166,-57.5 89,-57.5"/>
<text text-anchor="middle" x="127.5" y="-64.5" font-family="Helvetica,sans-Serif" font-size="10.00">save_nd_data</text>
</a>
</g>
</g>
<!-- Node1&#45;&gt;Node11 -->
<g id="edge11" class="edge">
<title>Node1&#45;&gt;Node11</title>
<path fill="none" stroke="midnightblue" d="M29.73,-152.17C40.37,-141.53 58.04,-124.18 74,-110 84.35,-100.8 96.27,-90.98 106.13,-83.05"/>
<polygon fill="midnightblue" stroke="midnightblue" points="108.54,-85.61 114.17,-76.64 104.18,-80.14 108.54,-85.61"/>
</g>
<!-- Node15 -->
<g id="node15" class="node">
<title>Node15</title>
<g id="a_node15"><a xlink:href="../../d9/d49/kohonen__som__trace_8cpp.html#ab47fb569e63648bd76e7edfdacc02dbd" target="_top" xlink:title=" ">
<polygon fill="white" stroke="black" points="96.5,-190.5 96.5,-209.5 158.5,-209.5 158.5,-190.5 96.5,-190.5"/>
<text text-anchor="middle" x="127.5" y="-197.5" font-family="Helvetica,sans-Serif" font-size="10.00">test_circle</text>
</a>
</g>
</g>
<!-- Node1&#45;&gt;Node15 -->
<g id="edge15" class="edge">
<title>Node1&#45;&gt;Node15</title>
<path fill="none" stroke="midnightblue" d="M38.07,-168.45C52.16,-173.47 72.19,-180.62 89.63,-186.85"/>
<polygon fill="midnightblue" stroke="midnightblue" points="88.94,-190.31 99.54,-190.38 91.29,-183.72 88.94,-190.31"/>
</g>
<!-- Node4 -->
<g id="node4" class="node">
<title>Node4</title>
<g id="a_node4"><a xlink:href="../../d9/d49/kohonen__som__trace_8cpp.html#ab9d78dea4d81cfc29825d3454e81cd0e" target="_top" xlink:title=" ">
<polygon fill="white" stroke="black" points="231.5,-162.5 231.5,-181.5 316.5,-181.5 316.5,-162.5 231.5,-162.5"/>
<text text-anchor="middle" x="274" y="-169.5" font-family="Helvetica,sans-Serif" font-size="10.00">update_weights</text>
</a>
</g>
</g>
<!-- Node3&#45;&gt;Node4 -->
<g id="edge3" class="edge">
<title>Node3&#45;&gt;Node4</title>
<path fill="none" stroke="midnightblue" d="M181.08,-165.64C194.07,-166.54 207.97,-167.5 220.94,-168.4"/>
<polygon fill="midnightblue" stroke="midnightblue" points="220.88,-171.9 231.1,-169.1 221.36,-164.92 220.88,-171.9"/>
</g>
<!-- Node5 -->
<g id="node5" class="node">
<title>Node5</title>
<g id="a_node5"><a target="_parent" xlink:href="http://en.cppreference.com/w/cpp/iterator/begin.html#" xlink:title=" ">
<polygon fill="white" stroke="black" points="383.5,-276.5 383.5,-295.5 442.5,-295.5 442.5,-276.5 383.5,-276.5"/>
<text text-anchor="middle" x="413" y="-283.5" font-family="Helvetica,sans-Serif" font-size="10.00">std::begin</text>
</a>
</g>
</g>
<!-- Node4&#45;&gt;Node5 -->
<g id="edge4" class="edge">
<title>Node4&#45;&gt;Node5</title>
<path fill="none" stroke="midnightblue" d="M302.21,-181.56C312.13,-186.03 322.89,-192.12 331,-200 355.25,-223.55 342.01,-244.24 367,-267 369.18,-268.98 371.59,-270.77 374.13,-272.39"/>
<polygon fill="midnightblue" stroke="midnightblue" points="372.68,-275.59 383.14,-277.25 376,-269.42 372.68,-275.59"/>
</g>
<!-- Node6 -->
<g id="node6" class="node">
<title>Node6</title>
<g id="a_node6"><a target="_parent" xlink:href="http://en.cppreference.com/w/cpp/iterator/distance.html#" xlink:title=" ">
<polygon fill="white" stroke="black" points="376.5,-238.5 376.5,-257.5 449.5,-257.5 449.5,-238.5 376.5,-238.5"/>
<text text-anchor="middle" x="413" y="-245.5" font-family="Helvetica,sans-Serif" font-size="10.00">std::distance</text>
</a>
</g>
</g>
<!-- Node4&#45;&gt;Node6 -->
<g id="edge5" class="edge">
<title>Node4&#45;&gt;Node6</title>
<path fill="none" stroke="midnightblue" d="M296.87,-181.6C307.47,-186.58 320.21,-193.07 331,-200 348.29,-211.1 349.37,-218.46 367,-229 370,-230.79 373.21,-232.5 376.47,-234.11"/>
<polygon fill="midnightblue" stroke="midnightblue" points="375.15,-237.35 385.69,-238.34 378.06,-230.99 375.15,-237.35"/>
</g>
<!-- Node7 -->
<g id="node7" class="node">
<title>Node7</title>
<g id="a_node7"><a target="_parent" xlink:href="http://en.cppreference.com/w/cpp/iterator/end.html#" xlink:title=" ">
<polygon fill="white" stroke="black" points="387,-200.5 387,-219.5 439,-219.5 439,-200.5 387,-200.5"/>
<text text-anchor="middle" x="413" y="-207.5" font-family="Helvetica,sans-Serif" font-size="10.00">std::end</text>
</a>
</g>
</g>
<!-- Node4&#45;&gt;Node7 -->
<g id="edge6" class="edge">
<title>Node4&#45;&gt;Node7</title>
<path fill="none" stroke="midnightblue" d="M309.57,-181.59C330.28,-187.33 356.52,-194.61 377.26,-200.36"/>
<polygon fill="midnightblue" stroke="midnightblue" points="376.38,-203.75 386.95,-203.05 378.25,-197.01 376.38,-203.75"/>
</g>
<!-- Node4&#45;&gt;Node8 -->
<g id="edge7" class="edge">
<title>Node4&#45;&gt;Node8</title>
<path fill="none" stroke="midnightblue" d="M291.23,-162.28C302.45,-155.53 317.68,-146.3 331,-138 347.12,-127.96 350.19,-123.84 367,-115 370.53,-113.14 374.28,-111.33 378.06,-109.6"/>
<polygon fill="midnightblue" stroke="midnightblue" points="379.61,-112.74 387.36,-105.52 376.8,-106.33 379.61,-112.74"/>
</g>
<!-- Node9 -->
<g id="node9" class="node">
<title>Node9</title>
<g id="a_node9"><a target="_parent" xlink:href="http://en.cppreference.com/w/cpp/algorithm/min.html#" xlink:title=" ">
<polygon fill="white" stroke="black" points="387,-162.5 387,-181.5 439,-181.5 439,-162.5 387,-162.5"/>
<text text-anchor="middle" x="413" y="-169.5" font-family="Helvetica,sans-Serif" font-size="10.00">std::min</text>
</a>
</g>
</g>
<!-- Node4&#45;&gt;Node9 -->
<g id="edge8" class="edge">
<title>Node4&#45;&gt;Node9</title>
<path fill="none" stroke="midnightblue" d="M316.85,-172C335.93,-172 358.27,-172 376.51,-172"/>
<polygon fill="midnightblue" stroke="midnightblue" points="376.72,-175.5 386.72,-172 376.72,-168.5 376.72,-175.5"/>
</g>
<!-- Node10 -->
<g id="node10" class="node">
<title>Node10</title>
<g id="a_node10"><a target="_parent" xlink:href="http://en.cppreference.com/w/cpp/algorithm/min_element.html#" xlink:title=" ">
<polygon fill="white" stroke="black" points="367,-124.5 367,-143.5 459,-143.5 459,-124.5 367,-124.5"/>
<text text-anchor="middle" x="413" y="-131.5" font-family="Helvetica,sans-Serif" font-size="10.00">std::min_element</text>
</a>
</g>
</g>
<!-- Node4&#45;&gt;Node10 -->
<g id="edge9" class="edge">
<title>Node4&#45;&gt;Node10</title>
<path fill="none" stroke="midnightblue" d="M309.57,-162.41C327.18,-157.53 348.78,-151.54 367.6,-146.32"/>
<polygon fill="midnightblue" stroke="midnightblue" points="368.74,-149.63 377.44,-143.59 366.87,-142.89 368.74,-149.63"/>
</g>
<!-- Node12 -->
<g id="node12" class="node">
<title>Node12</title>
<g id="a_node12"><a target="_parent" xlink:href="http://en.cppreference.com/w/cpp/io/basic_ofstream/close.html#" xlink:title=" ">
<polygon fill="white" stroke="black" points="222,-76.5 222,-95.5 326,-95.5 326,-76.5 222,-76.5"/>
<text text-anchor="middle" x="274" y="-83.5" font-family="Helvetica,sans-Serif" font-size="10.00">std::ofstream::close</text>
</a>
</g>
</g>
<!-- Node11&#45;&gt;Node12 -->
<g id="edge12" class="edge">
<title>Node11&#45;&gt;Node12</title>
<path fill="none" stroke="midnightblue" d="M166.09,-71.94C180.01,-73.77 196.19,-75.9 211.68,-77.94"/>
<polygon fill="midnightblue" stroke="midnightblue" points="211.36,-81.42 221.73,-79.26 212.27,-74.48 211.36,-81.42"/>
</g>
<!-- Node13 -->
<g id="node13" class="node">
<title>Node13</title>
<g id="a_node13"><a target="_parent" xlink:href="http://en.cppreference.com/w/cpp/io/basic_ofstream/is_open.html#" xlink:title=" ">
<polygon fill="white" stroke="black" points="217,-38.5 217,-57.5 331,-57.5 331,-38.5 217,-38.5"/>
<text text-anchor="middle" x="274" y="-45.5" font-family="Helvetica,sans-Serif" font-size="10.00">std::ofstream::is_open</text>
</a>
</g>
</g>
<!-- Node11&#45;&gt;Node13 -->
<g id="edge13" class="edge">
<title>Node11&#45;&gt;Node13</title>
<path fill="none" stroke="midnightblue" d="M166.09,-62.06C178.54,-60.42 192.78,-58.55 206.73,-56.71"/>
<polygon fill="midnightblue" stroke="midnightblue" points="207.35,-60.16 216.81,-55.39 206.44,-53.22 207.35,-60.16"/>
</g>
<!-- Node14 -->
<g id="node14" class="node">
<title>Node14</title>
<g id="a_node14"><a target="_parent" xlink:href="http://en.cppreference.com/w/cpp/io/basic_ofstream/open.html#" xlink:title=" ">
<polygon fill="white" stroke="black" points="223.5,-0.5 223.5,-19.5 324.5,-19.5 324.5,-0.5 223.5,-0.5"/>
<text text-anchor="middle" x="274" y="-7.5" font-family="Helvetica,sans-Serif" font-size="10.00">std::ofstream::open</text>
</a>
</g>
</g>
<!-- Node11&#45;&gt;Node14 -->
<g id="edge14" class="edge">
<title>Node11&#45;&gt;Node14</title>
<path fill="none" stroke="midnightblue" d="M149.41,-57.47C167.22,-49.49 193.58,-37.98 217,-29 222.47,-26.9 228.27,-24.8 234,-22.79"/>
<polygon fill="midnightblue" stroke="midnightblue" points="235.17,-26.09 243.49,-19.53 232.9,-19.47 235.17,-26.09"/>
</g>
<!-- Node15&#45;&gt;Node2 -->
<g id="edge16" class="edge">
<title>Node15&#45;&gt;Node2</title>
<path fill="none" stroke="midnightblue" d="M158.79,-203.98C181.43,-206.96 212.47,-211.04 236.48,-214.2"/>
<polygon fill="midnightblue" stroke="midnightblue" points="236.26,-217.7 246.63,-215.53 237.17,-210.76 236.26,-217.7"/>
</g>
</g>
</svg>
