<?xml version="1.0" encoding="UTF-8" standalone="no"?>
<!DOCTYPE svg PUBLIC "-//W3C//DTD SVG 1.1//EN"
 "http://www.w3.org/Graphics/SVG/1.1/DTD/svg11.dtd">
<!-- Generated by graphviz version 2.44.0 (20200408.0750)
 -->
<!-- Title: test3 Pages: 1 -->
<svg width="612pt" height="319pt"
 viewBox="0.00 0.00 612.00 319.00" xmlns="http://www.w3.org/2000/svg" xmlns:xlink="http://www.w3.org/1999/xlink">
<g id="graph0" class="graph" transform="scale(1 1) rotate(0) translate(4 315)">
<title>test3</title>
<polygon fill="white" stroke="transparent" points="-4,4 -4,-315 608,-315 608,4 -4,4"/>
<!-- Node1 -->
<g id="node1" class="node">
<title>Node1</title>
<g id="a_node1"><a xlink:title=" ">
<polygon fill="#bfbfbf" stroke="black" points="0,-152.5 0,-171.5 38,-171.5 38,-152.5 0,-152.5"/>
<text text-anchor="middle" x="19" y="-159.5" font-family="Helvetica,sans-Serif" font-size="10.00">test3</text>
</a>
</g>
</g>
<!-- Node2 -->
<g id="node2" class="node">
<title>Node2</title>
<g id="a_node2"><a xlink:href="../../d9/d66/group__machine__learning.html#gaf5ce14f026d6d231bef29161bac2b485" target="_top" xlink:title=" ">
<polygon fill="white" stroke="black" points="282,-190.5 282,-209.5 336,-209.5 336,-190.5 282,-190.5"/>
<text text-anchor="middle" x="309" y="-197.5" font-family="Helvetica,sans-Serif" font-size="10.00">_random</text>
</a>
</g>
</g>
<!-- Node1&#45;&gt;Node2 -->
<g id="edge1" class="edge">
<title>Node1&#45;&gt;Node2</title>
<path fill="none" stroke="midnightblue" d="M38.16,-169.71C48.48,-173.75 61.75,-178.39 74,-181 142.79,-195.64 225.16,-199.18 271.55,-199.93"/>
<polygon fill="midnightblue" stroke="midnightblue" points="271.67,-203.43 281.71,-200.05 271.76,-196.43 271.67,-203.43"/>
</g>
<!-- Node3 -->
<g id="node3" class="node">
<title>Node3</title>
<g id="a_node3"><a xlink:href="../../d8/d77/namespacemachine__learning.html#acc6a28f40512dbda75ab1a3969248898" target="_top" xlink:title=" ">
<polygon fill="white" stroke="black" points="74,-229 74,-259 209,-259 209,-229 74,-229"/>
<text text-anchor="start" x="82" y="-247" font-family="Helvetica,sans-Serif" font-size="10.00">machine_learning::kohonen</text>
<text text-anchor="middle" x="141.5" y="-236" font-family="Helvetica,sans-Serif" font-size="10.00">_som_tracer</text>
</a>
</g>
</g>
<!-- Node1&#45;&gt;Node3 -->
<g id="edge2" class="edge">
<title>Node1&#45;&gt;Node3</title>
<path fill="none" stroke="midnightblue" d="M28.34,-171.86C38.3,-183.18 55.89,-201.74 74,-214 79.57,-217.77 85.68,-221.26 91.88,-224.44"/>
<polygon fill="midnightblue" stroke="midnightblue" points="90.45,-227.63 100.97,-228.85 93.51,-221.34 90.45,-227.63"/>
</g>
<!-- Node11 -->
<g id="node11" class="node">
<title>Node11</title>
<g id="a_node11"><a target="_blank" xlink:href="http://en.cppreference.com/w/cpp/algorithm/max.html#" xlink:title=" ">
<polygon fill="white" stroke="black" points="415,-136.5 415,-155.5 470,-155.5 470,-136.5 415,-136.5"/>
<text text-anchor="middle" x="442.5" y="-143.5" font-family="Helvetica,sans-Serif" font-size="10.00">std::max</text>
</a>
</g>
</g>
<!-- Node1&#45;&gt;Node11 -->
<g id="edge13" class="edge">
<title>Node1&#45;&gt;Node11</title>
<path fill="none" stroke="midnightblue" d="M38.08,-153.91C48.38,-149.74 61.66,-145.11 74,-143 204.99,-120.63 240.14,-140.09 373,-143 383.25,-143.22 394.35,-143.64 404.57,-144.09"/>
<polygon fill="midnightblue" stroke="midnightblue" points="404.68,-147.59 414.83,-144.56 405.01,-140.6 404.68,-147.59"/>
</g>
<!-- Node14 -->
<g id="node14" class="node">
<title>Node14</title>
<g id="a_node14"><a xlink:href="../../d9/d66/group__machine__learning.html#ga72699c805c19a6cc47a937a6f3378afa" target="_top" xlink:title=" ">
<polygon fill="white" stroke="black" points="103,-57.5 103,-76.5 180,-76.5 180,-57.5 103,-57.5"/>
<text text-anchor="middle" x="141.5" y="-64.5" font-family="Helvetica,sans-Serif" font-size="10.00">save_nd_data</text>
</a>
</g>
</g>
<!-- Node1&#45;&gt;Node14 -->
<g id="edge14" class="edge">
<title>Node1&#45;&gt;Node14</title>
<path fill="none" stroke="midnightblue" d="M29.05,-152.21C39.39,-141.3 57.07,-123.42 74,-110 86.92,-99.76 102.32,-89.68 115.05,-81.86"/>
<polygon fill="midnightblue" stroke="midnightblue" points="117.02,-84.75 123.77,-76.59 113.4,-78.76 117.02,-84.75"/>
</g>
<!-- Node18 -->
<g id="node18" class="node">
<title>Node18</title>
<g id="a_node18"><a xlink:href="../../d9/d49/kohonen__som__trace_8cpp.html#a9ab8c79ffb674a63f151f282faeb723b" target="_top" xlink:title=" ">
<polygon fill="white" stroke="black" points="97.5,-152.5 97.5,-171.5 185.5,-171.5 185.5,-152.5 97.5,-152.5"/>
<text text-anchor="middle" x="141.5" y="-159.5" font-family="Helvetica,sans-Serif" font-size="10.00">test_3d_classes</text>
</a>
</g>
</g>
<!-- Node1&#45;&gt;Node18 -->
<g id="edge18" class="edge">
<title>Node1&#45;&gt;Node18</title>
<path fill="none" stroke="midnightblue" d="M38.04,-162C51.1,-162 69.48,-162 87.08,-162"/>
<polygon fill="midnightblue" stroke="midnightblue" points="87.3,-165.5 97.3,-162 87.3,-158.5 87.3,-165.5"/>
</g>
<!-- Node4 -->
<g id="node4" class="node">
<title>Node4</title>
<g id="a_node4"><a xlink:href="../../d8/d77/namespacemachine__learning.html#ac4010fe3a52a74e8b5b1aaadfe38b46f" target="_top" xlink:title=" ">
<polygon fill="white" stroke="black" points="245,-229 245,-259 373,-259 373,-229 245,-229"/>
<text text-anchor="start" x="253" y="-247" font-family="Helvetica,sans-Serif" font-size="10.00">machine_learning::update</text>
<text text-anchor="middle" x="309" y="-236" font-family="Helvetica,sans-Serif" font-size="10.00">_weights</text>
</a>
</g>
</g>
<!-- Node3&#45;&gt;Node4 -->
<g id="edge3" class="edge">
<title>Node3&#45;&gt;Node4</title>
<path fill="none" stroke="midnightblue" d="M209.34,-244C217.69,-244 226.27,-244 234.72,-244"/>
<polygon fill="midnightblue" stroke="midnightblue" points="234.93,-247.5 244.93,-244 234.93,-240.5 234.93,-247.5"/>
</g>
<!-- Node5 -->
<g id="node5" class="node">
<title>Node5</title>
<g id="a_node5"><a target="_blank" xlink:href="http://en.cppreference.com/w/cpp/numeric/math/exp.html#" xlink:title=" ">
<polygon fill="white" stroke="black" points="416.5,-253.5 416.5,-272.5 468.5,-272.5 468.5,-253.5 416.5,-253.5"/>
<text text-anchor="middle" x="442.5" y="-260.5" font-family="Helvetica,sans-Serif" font-size="10.00">std::exp</text>
</a>
</g>
</g>
<!-- Node4&#45;&gt;Node5 -->
<g id="edge4" class="edge">
<title>Node4&#45;&gt;Node5</title>
<path fill="none" stroke="midnightblue" d="M373.05,-253.11C384.4,-254.75 395.86,-256.41 406.07,-257.88"/>
<polygon fill="midnightblue" stroke="midnightblue" points="405.8,-261.38 416.2,-259.34 406.8,-254.45 405.8,-261.38"/>
</g>
<!-- Node6 -->
<g id="node6" class="node">
<title>Node6</title>
<g id="a_node6"><a xlink:href="../../d9/d66/group__machine__learning.html#gab53c14440b2b2dd3172c66afc5c2f63f" target="_top" xlink:title=" ">
<polygon fill="white" stroke="black" points="409,-215.5 409,-234.5 476,-234.5 476,-215.5 409,-215.5"/>
<text text-anchor="middle" x="442.5" y="-222.5" font-family="Helvetica,sans-Serif" font-size="10.00">get_min_2d</text>
</a>
</g>
</g>
<!-- Node4&#45;&gt;Node6 -->
<g id="edge5" class="edge">
<title>Node4&#45;&gt;Node6</title>
<path fill="none" stroke="midnightblue" d="M373.05,-234.89C381.77,-233.63 390.54,-232.36 398.77,-231.17"/>
<polygon fill="midnightblue" stroke="midnightblue" points="399.45,-234.61 408.85,-229.72 398.45,-227.68 399.45,-234.61"/>
</g>
<!-- Node4&#45;&gt;Node11 -->
<g id="edge10" class="edge">
<title>Node4&#45;&gt;Node11</title>
<path fill="none" stroke="midnightblue" d="M357.1,-228.89C362.74,-226.06 368.19,-222.79 373,-219 394.8,-201.84 389.19,-187.43 409,-168 411.26,-165.78 413.77,-163.64 416.37,-161.63"/>
<polygon fill="midnightblue" stroke="midnightblue" points="418.63,-164.32 424.76,-155.67 414.58,-158.61 418.63,-164.32"/>
</g>
<!-- Node12 -->
<g id="node12" class="node">
<title>Node12</title>
<g id="a_node12"><a target="_blank" xlink:href="http://en.cppreference.com/w/cpp/algorithm/min.html#" xlink:title=" ">
<polygon fill="white" stroke="black" points="416.5,-177.5 416.5,-196.5 468.5,-196.5 468.5,-177.5 416.5,-177.5"/>
<text text-anchor="middle" x="442.5" y="-184.5" font-family="Helvetica,sans-Serif" font-size="10.00">std::min</text>
</a>
</g>
</g>
<!-- Node4&#45;&gt;Node12 -->
<g id="edge11" class="edge">
<title>Node4&#45;&gt;Node12</title>
<path fill="none" stroke="midnightblue" d="M349.13,-228.89C357.07,-225.71 365.33,-222.31 373,-219 386.12,-213.34 400.48,-206.7 412.64,-200.95"/>
<polygon fill="midnightblue" stroke="midnightblue" points="414.33,-204.02 421.86,-196.55 411.32,-197.7 414.33,-204.02"/>
</g>
<!-- Node13 -->
<g id="node13" class="node">
<title>Node13</title>
<g id="a_node13"><a target="_blank" xlink:href="http://en.cppreference.com/w/cpp/numeric/math/sqrt.html#" xlink:title=" ">
<polygon fill="white" stroke="black" points="416,-291.5 416,-310.5 469,-310.5 469,-291.5 416,-291.5"/>
<text text-anchor="middle" x="442.5" y="-298.5" font-family="Helvetica,sans-Serif" font-size="10.00">std::sqrt</text>
</a>
</g>
</g>
<!-- Node4&#45;&gt;Node13 -->
<g id="edge12" class="edge">
<title>Node4&#45;&gt;Node13</title>
<path fill="none" stroke="midnightblue" d="M344.89,-259.13C365.07,-267.87 390.27,-278.79 409.86,-287.29"/>
<polygon fill="midnightblue" stroke="midnightblue" points="408.7,-290.6 419.27,-291.36 411.49,-284.18 408.7,-290.6"/>
</g>
<!-- Node7 -->
<g id="node7" class="node">
<title>Node7</title>
<g id="a_node7"><a target="_blank" xlink:href="http://en.cppreference.com/w/cpp/iterator/begin.html#" xlink:title=" ">
<polygon fill="white" stroke="black" points="528.5,-272.5 528.5,-291.5 587.5,-291.5 587.5,-272.5 528.5,-272.5"/>
<text text-anchor="middle" x="558" y="-279.5" font-family="Helvetica,sans-Serif" font-size="10.00">std::begin</text>
</a>
</g>
</g>
<!-- Node6&#45;&gt;Node7 -->
<g id="edge6" class="edge">
<title>Node6&#45;&gt;Node7</title>
<path fill="none" stroke="midnightblue" d="M459.57,-234.56C473.29,-242.56 493.66,-254.07 512,-263 515.77,-264.84 519.77,-266.67 523.76,-268.44"/>
<polygon fill="midnightblue" stroke="midnightblue" points="522.4,-271.66 532.97,-272.41 525.17,-265.24 522.4,-271.66"/>
</g>
<!-- Node8 -->
<g id="node8" class="node">
<title>Node8</title>
<g id="a_node8"><a target="_blank" xlink:href="http://en.cppreference.com/w/cpp/iterator/distance.html#" xlink:title=" ">
<polygon fill="white" stroke="black" points="521.5,-234.5 521.5,-253.5 594.5,-253.5 594.5,-234.5 521.5,-234.5"/>
<text text-anchor="middle" x="558" y="-241.5" font-family="Helvetica,sans-Serif" font-size="10.00">std::distance</text>
</a>
</g>
</g>
<!-- Node6&#45;&gt;Node8 -->
<g id="edge7" class="edge">
<title>Node6&#45;&gt;Node8</title>
<path fill="none" stroke="midnightblue" d="M476.02,-230.44C486.97,-232.28 499.39,-234.36 511.16,-236.33"/>
<polygon fill="midnightblue" stroke="midnightblue" points="510.85,-239.82 521.29,-238.02 512,-232.92 510.85,-239.82"/>
</g>
<!-- Node9 -->
<g id="node9" class="node">
<title>Node9</title>
<g id="a_node9"><a target="_blank" xlink:href="http://en.cppreference.com/w/cpp/iterator/end.html#" xlink:title=" ">
<polygon fill="white" stroke="black" points="532,-196.5 532,-215.5 584,-215.5 584,-196.5 532,-196.5"/>
<text text-anchor="middle" x="558" y="-203.5" font-family="Helvetica,sans-Serif" font-size="10.00">std::end</text>
</a>
</g>
</g>
<!-- Node6&#45;&gt;Node9 -->
<g id="edge8" class="edge">
<title>Node6&#45;&gt;Node9</title>
<path fill="none" stroke="midnightblue" d="M476.02,-219.56C490.26,-217.17 506.99,-214.37 521.54,-211.94"/>
<polygon fill="midnightblue" stroke="midnightblue" points="522.4,-215.34 531.68,-210.24 521.24,-208.44 522.4,-215.34"/>
</g>
<!-- Node10 -->
<g id="node10" class="node">
<title>Node10</title>
<g id="a_node10"><a target="_blank" xlink:href="http://en.cppreference.com/w/cpp/algorithm/min_element.html#" xlink:title=" ">
<polygon fill="white" stroke="black" points="512,-158.5 512,-177.5 604,-177.5 604,-158.5 512,-158.5"/>
<text text-anchor="middle" x="558" y="-165.5" font-family="Helvetica,sans-Serif" font-size="10.00">std::min_element</text>
</a>
</g>
</g>
<!-- Node6&#45;&gt;Node10 -->
<g id="edge9" class="edge">
<title>Node6&#45;&gt;Node10</title>
<path fill="none" stroke="midnightblue" d="M459.57,-215.44C473.29,-207.44 493.66,-195.93 512,-187 515.77,-185.16 519.77,-183.33 523.76,-181.56"/>
<polygon fill="midnightblue" stroke="midnightblue" points="525.17,-184.76 532.97,-177.59 522.4,-178.34 525.17,-184.76"/>
</g>
<!-- Node15 -->
<g id="node15" class="node">
<title>Node15</title>
<g id="a_node15"><a target="_blank" xlink:href="http://en.cppreference.com/w/cpp/io/basic_ofstream/close.html#" xlink:title=" ">
<polygon fill="white" stroke="black" points="257,-38.5 257,-57.5 361,-57.5 361,-38.5 257,-38.5"/>
<text text-anchor="middle" x="309" y="-45.5" font-family="Helvetica,sans-Serif" font-size="10.00">std::ofstream::close</text>
</a>
</g>
</g>
<!-- Node14&#45;&gt;Node15 -->
<g id="edge15" class="edge">
<title>Node14&#45;&gt;Node15</title>
<path fill="none" stroke="midnightblue" d="M180.05,-62.69C199.74,-60.43 224.34,-57.6 246.7,-55.04"/>
<polygon fill="midnightblue" stroke="midnightblue" points="247.26,-58.5 256.79,-53.88 246.46,-51.54 247.26,-58.5"/>
</g>
<!-- Node16 -->
<g id="node16" class="node">
<title>Node16</title>
<g id="a_node16"><a target="_blank" xlink:href="http://en.cppreference.com/w/cpp/io/basic_ofstream/is_open.html#" xlink:title=" ">
<polygon fill="white" stroke="black" points="252,-0.5 252,-19.5 366,-19.5 366,-0.5 252,-0.5"/>
<text text-anchor="middle" x="309" y="-7.5" font-family="Helvetica,sans-Serif" font-size="10.00">std::ofstream::is_open</text>
</a>
</g>
</g>
<!-- Node14&#45;&gt;Node16 -->
<g id="edge16" class="edge">
<title>Node14&#45;&gt;Node16</title>
<path fill="none" stroke="midnightblue" d="M167.2,-57.35C187.87,-49.4 218.19,-38 245,-29 251.48,-26.83 258.36,-24.63 265.12,-22.54"/>
<polygon fill="midnightblue" stroke="midnightblue" points="266.31,-25.84 274.85,-19.58 264.27,-19.14 266.31,-25.84"/>
</g>
<!-- Node17 -->
<g id="node17" class="node">
<title>Node17</title>
<g id="a_node17"><a target="_blank" xlink:href="http://en.cppreference.com/w/cpp/io/basic_ofstream/open.html#" xlink:title=" ">
<polygon fill="white" stroke="black" points="258.5,-76.5 258.5,-95.5 359.5,-95.5 359.5,-76.5 258.5,-76.5"/>
<text text-anchor="middle" x="309" y="-83.5" font-family="Helvetica,sans-Serif" font-size="10.00">std::ofstream::open</text>
</a>
</g>
</g>
<!-- Node14&#45;&gt;Node17 -->
<g id="edge17" class="edge">
<title>Node14&#45;&gt;Node17</title>
<path fill="none" stroke="midnightblue" d="M180.05,-71.31C200.15,-73.62 225.38,-76.51 248.11,-79.12"/>
<polygon fill="midnightblue" stroke="midnightblue" points="248.02,-82.64 258.35,-80.3 248.81,-75.68 248.02,-82.64"/>
</g>
<!-- Node18&#45;&gt;Node2 -->
<g id="edge19" class="edge">
<title>Node18&#45;&gt;Node2</title>
<path fill="none" stroke="midnightblue" d="M184.26,-171.59C211.31,-177.8 246.18,-185.81 272.01,-191.74"/>
<polygon fill="midnightblue" stroke="midnightblue" points="271.25,-195.15 281.78,-193.98 272.81,-188.33 271.25,-195.15"/>
</g>
<!-- Node19 -->
<g id="node19" class="node">
<title>Node19</title>
<g id="a_node19"><a target="_blank" xlink:href="http://en.cppreference.com/w/cpp/numeric/random/rand.html#" xlink:title=" ">
<polygon fill="white" stroke="black" points="281.5,-152.5 281.5,-171.5 336.5,-171.5 336.5,-152.5 281.5,-152.5"/>
<text text-anchor="middle" x="309" y="-159.5" font-family="Helvetica,sans-Serif" font-size="10.00">std::rand</text>
</a>
</g>
</g>
<!-- Node18&#45;&gt;Node19 -->
<g id="edge20" class="edge">
<title>Node18&#45;&gt;Node19</title>
<path fill="none" stroke="midnightblue" d="M185.55,-162C212.03,-162 245.62,-162 270.92,-162"/>
<polygon fill="midnightblue" stroke="midnightblue" points="271.21,-165.5 281.21,-162 271.21,-158.5 271.21,-165.5"/>
</g>
</g>
</svg>
