<?xml version="1.0" encoding="UTF-8" standalone="no"?>
<!DOCTYPE svg PUBLIC "-//W3C//DTD SVG 1.1//EN"
 "http://www.w3.org/Graphics/SVG/1.1/DTD/svg11.dtd">
<!-- Generated by graphviz version 8.0.2 (20230410.1723)
 -->
<!-- Title: main Pages: 1 -->
<svg width="524pt" height="325pt"
 viewBox="0.00 0.00 524.00 325.00" xmlns="http://www.w3.org/2000/svg" xmlns:xlink="http://www.w3.org/1999/xlink">
<g id="graph0" class="graph" transform="scale(1 1) rotate(0) translate(4 321)">
<title>main</title>
<!-- Node1 -->
<g id="node1" class="node">
<title>Node1</title>
<g id="a_node1"><a xlink:title=" ">
<polygon fill="#999999" stroke="#666666" points="38,-206 0,-206 0,-187 38,-187 38,-206"/>
<text text-anchor="middle" x="19" y="-194" font-family="Helvetica,sans-Serif" font-size="10.00">main</text>
</a>
</g>
</g>
<!-- Node2 -->
<g id="node2" class="node">
<title>Node2</title>
<g id="a_node2"><a target="_blank" xlink:href="http://en.cppreference.com/w/cpp/chrono/c/clock.html#" xlink:title=" ">
<polygon fill="white" stroke="#666666" points="142,-317 83,-317 83,-298 142,-298 142,-317"/>
<text text-anchor="middle" x="112.5" y="-305" font-family="Helvetica,sans-Serif" font-size="10.00">std::clock</text>
</a>
</g>
</g>
<!-- Node1&#45;&gt;Node2 -->
<g id="edge1" class="edge">
<title>Node1&#45;&gt;Node2</title>
<path fill="none" stroke="#63b8ff" d="M23.5,-206.47C30.46,-225.02 47.68,-265.17 74,-289.5 74.85,-290.28 75.74,-291.04 76.66,-291.77"/>
<polygon fill="#63b8ff" stroke="#63b8ff" points="74.3,-295.06 84.59,-297.61 78.13,-289.21 74.3,-295.06"/>
</g>
<!-- Node3 -->
<g id="node3" class="node">
<title>Node3</title>
<g id="a_node3"><a xlink:href="../../d9/d49/kohonen__som__trace_8cpp.html#a2256c10b16edba377b64a44b6c656908" target="_top" xlink:title=" ">
<polygon fill="white" stroke="#666666" points="151,-280 74,-280 74,-261 151,-261 151,-280"/>
<text text-anchor="middle" x="112.5" y="-268" font-family="Helvetica,sans-Serif" font-size="10.00">get_clock_diff</text>
</a>
</g>
</g>
<!-- Node1&#45;&gt;Node3 -->
<g id="edge2" class="edge">
<title>Node1&#45;&gt;Node3</title>
<path fill="none" stroke="#63b8ff" d="M27.54,-206.24C37.27,-218.29 55.17,-238.9 74,-252.5 75.45,-253.55 76.97,-254.56 78.53,-255.53"/>
<polygon fill="#63b8ff" stroke="#63b8ff" points="76.33,-258.87 86.76,-260.69 79.74,-252.76 76.33,-258.87"/>
</g>
<!-- Node4 -->
<g id="node4" class="node">
<title>Node4</title>
<g id="a_node4"><a target="_blank" xlink:href="http://en.cppreference.com/w/cpp/numeric/random/srand.html#" xlink:title=" ">
<polygon fill="white" stroke="#666666" points="142.5,-243 82.5,-243 82.5,-224 142.5,-224 142.5,-243"/>
<text text-anchor="middle" x="112.5" y="-231" font-family="Helvetica,sans-Serif" font-size="10.00">std::srand</text>
</a>
</g>
</g>
<!-- Node1&#45;&gt;Node4 -->
<g id="edge3" class="edge">
<title>Node1&#45;&gt;Node4</title>
<path fill="none" stroke="#63b8ff" d="M38.08,-203.81C49.09,-208.26 63.53,-214.1 76.69,-219.42"/>
<polygon fill="#63b8ff" stroke="#63b8ff" points="75.3,-223.04 85.88,-223.54 77.92,-216.55 75.3,-223.04"/>
</g>
<!-- Node5 -->
<g id="node5" class="node">
<title>Node5</title>
<g id="a_node5"><a xlink:href="../../d9/d49/kohonen__som__trace_8cpp.html#a1440a7779ac56f47a3f355ce4a8c7da0" target="_top" xlink:title=" ">
<polygon fill="white" stroke="#666666" points="131.5,-169 93.5,-169 93.5,-150 131.5,-150 131.5,-169"/>
<text text-anchor="middle" x="112.5" y="-157" font-family="Helvetica,sans-Serif" font-size="10.00">test1</text>
</a>
</g>
</g>
<!-- Node1&#45;&gt;Node5 -->
<g id="edge4" class="edge">
<title>Node1&#45;&gt;Node5</title>
<path fill="none" stroke="#63b8ff" d="M38.08,-189.19C50.9,-184 68.37,-176.94 83.06,-171"/>
<polygon fill="#63b8ff" stroke="#63b8ff" points="84.19,-173.92 92.15,-166.92 81.56,-167.43 84.19,-173.92"/>
</g>
<!-- Node14 -->
<g id="node14" class="node">
<title>Node14</title>
<g id="a_node14"><a xlink:href="../../d9/d49/kohonen__som__trace_8cpp.html#a0283886819c7c140a023582b7269e2d0" target="_top" xlink:title=" ">
<polygon fill="white" stroke="#666666" points="131.5,-206 93.5,-206 93.5,-187 131.5,-187 131.5,-206"/>
<text text-anchor="middle" x="112.5" y="-194" font-family="Helvetica,sans-Serif" font-size="10.00">test2</text>
</a>
</g>
</g>
<!-- Node1&#45;&gt;Node14 -->
<g id="edge14" class="edge">
<title>Node1&#45;&gt;Node14</title>
<path fill="none" stroke="#63b8ff" d="M38.08,-196.5C50.65,-196.5 67.7,-196.5 82.2,-196.5"/>
<polygon fill="#63b8ff" stroke="#63b8ff" points="82.15,-200 92.15,-196.5 82.15,-193 82.15,-200"/>
</g>
<!-- Node16 -->
<g id="node16" class="node">
<title>Node16</title>
<g id="a_node16"><a xlink:href="../../d9/d49/kohonen__som__trace_8cpp.html#a6d0455dd5c30adda100e95f0423c786e" target="_top" xlink:title=" ">
<polygon fill="white" stroke="#666666" points="131.5,-131 93.5,-131 93.5,-112 131.5,-112 131.5,-131"/>
<text text-anchor="middle" x="112.5" y="-119" font-family="Helvetica,sans-Serif" font-size="10.00">test3</text>
</a>
</g>
</g>
<!-- Node1&#45;&gt;Node16 -->
<g id="edge20" class="edge">
<title>Node1&#45;&gt;Node16</title>
<path fill="none" stroke="#63b8ff" d="M27.59,-186.83C37.36,-174.84 55.32,-154.3 74,-140.5 77.03,-138.26 80.36,-136.16 83.74,-134.22"/>
<polygon fill="#63b8ff" stroke="#63b8ff" points="85.01,-136.98 92.24,-129.24 81.75,-130.79 85.01,-136.98"/>
</g>
<!-- Node18 -->
<g id="node18" class="node">
<title>Node18</title>
<g id="a_node18"><a target="_blank" xlink:href="http://en.cppreference.com/w/cpp/chrono/c/time.html#" xlink:title=" ">
<polygon fill="white" stroke="#666666" points="140,-94 85,-94 85,-75 140,-75 140,-94"/>
<text text-anchor="middle" x="112.5" y="-82" font-family="Helvetica,sans-Serif" font-size="10.00">std::time</text>
</a>
</g>
</g>
<!-- Node1&#45;&gt;Node18 -->
<g id="edge27" class="edge">
<title>Node1&#45;&gt;Node18</title>
<path fill="none" stroke="#63b8ff" d="M23.37,-186.71C30.21,-168.09 47.38,-127.22 74,-102.5 74.85,-101.71 75.73,-100.96 76.65,-100.22"/>
<polygon fill="#63b8ff" stroke="#63b8ff" points="78.13,-102.79 84.57,-94.38 74.29,-96.93 78.13,-102.79"/>
</g>
<!-- Node6 -->
<g id="node6" class="node">
<title>Node6</title>
<g id="a_node6"><a xlink:href="../../d9/d66/group__machine__learning.html#gaf5ce14f026d6d231bef29161bac2b485" target="_top" xlink:title=" ">
<polygon fill="white" stroke="#666666" points="395,-169 341,-169 341,-150 395,-150 395,-169"/>
<text text-anchor="middle" x="368" y="-157" font-family="Helvetica,sans-Serif" font-size="10.00">_random</text>
</a>
</g>
</g>
<!-- Node5&#45;&gt;Node6 -->
<g id="edge5" class="edge">
<title>Node5&#45;&gt;Node6</title>
<path fill="none" stroke="#63b8ff" d="M131.8,-166.67C138.17,-169.57 145.16,-173.25 151,-177.5 169.8,-191.21 165.63,-206.31 187,-215.5 222.93,-230.95 237.34,-226.06 275,-215.5 302.29,-207.85 329.52,-189.62 347.19,-176.03"/>
<polygon fill="#63b8ff" stroke="#63b8ff" points="348.85,-178.38 354.51,-169.43 344.5,-172.9 348.85,-178.38"/>
</g>
<!-- Node8 -->
<g id="node8" class="node">
<title>Node8</title>
<g id="a_node8"><a target="_blank" xlink:href="http://en.cppreference.com/w/cpp/algorithm/max.html#" xlink:title=" ">
<polygon fill="white" stroke="#666666" points="258.5,-206 203.5,-206 203.5,-187 258.5,-187 258.5,-206"/>
<text text-anchor="middle" x="231" y="-194" font-family="Helvetica,sans-Serif" font-size="10.00">std::max</text>
</a>
</g>
</g>
<!-- Node5&#45;&gt;Node8 -->
<g id="edge7" class="edge">
<title>Node5&#45;&gt;Node8</title>
<path fill="none" stroke="#63b8ff" d="M131.96,-165.36C148.35,-170.57 172.79,-178.33 193.17,-184.8"/>
<polygon fill="#63b8ff" stroke="#63b8ff" points="191.8,-188.36 202.39,-188.05 193.92,-181.69 191.8,-188.36"/>
</g>
<!-- Node9 -->
<g id="node9" class="node">
<title>Node9</title>
<g id="a_node9"><a xlink:href="../../d9/d66/group__machine__learning.html#gae0208548f8b393528e5db01717e88e67" target="_top" xlink:title=" ">
<polygon fill="white" stroke="#666666" points="269.5,-56 192.5,-56 192.5,-37 269.5,-37 269.5,-56"/>
<text text-anchor="middle" x="231" y="-44" font-family="Helvetica,sans-Serif" font-size="10.00">save_nd_data</text>
</a>
</g>
</g>
<!-- Node5&#45;&gt;Node9 -->
<g id="edge8" class="edge">
<title>Node5&#45;&gt;Node9</title>
<path fill="none" stroke="#63b8ff" d="M131.85,-152.58C138.51,-149.38 145.69,-145.04 151,-139.5 176.58,-112.81 160.2,-89.97 187,-64.5 187.85,-63.69 188.74,-62.92 189.67,-62.18"/>
<polygon fill="#63b8ff" stroke="#63b8ff" points="191.21,-64.7 197.73,-56.34 187.43,-58.81 191.21,-64.7"/>
</g>
<!-- Node13 -->
<g id="node13" class="node">
<title>Node13</title>
<g id="a_node13"><a xlink:href="../../d9/d49/kohonen__som__trace_8cpp.html#ae571600aa42a81bc14a4a602ea5ff00d" target="_top" xlink:title=" ">
<polygon fill="white" stroke="#666666" points="262,-169 200,-169 200,-150 262,-150 262,-169"/>
<text text-anchor="middle" x="231" y="-157" font-family="Helvetica,sans-Serif" font-size="10.00">test_circle</text>
</a>
</g>
</g>
<!-- Node5&#45;&gt;Node13 -->
<g id="edge12" class="edge">
<title>Node5&#45;&gt;Node13</title>
<path fill="none" stroke="#63b8ff" d="M131.96,-159.5C147.26,-159.5 169.58,-159.5 189.06,-159.5"/>
<polygon fill="#63b8ff" stroke="#63b8ff" points="188.83,-163 198.83,-159.5 188.83,-156 188.83,-163"/>
</g>
<!-- Node7 -->
<g id="node7" class="node">
<title>Node7</title>
<g id="a_node7"><a target="_blank" xlink:href="http://en.cppreference.com/w/cpp/numeric/random/rand.html#" xlink:title=" ">
<polygon fill="white" stroke="#666666" points="516,-150 461,-150 461,-131 516,-131 516,-150"/>
<text text-anchor="middle" x="488.5" y="-138" font-family="Helvetica,sans-Serif" font-size="10.00">std::rand</text>
</a>
</g>
</g>
<!-- Node6&#45;&gt;Node7 -->
<g id="edge6" class="edge">
<title>Node6&#45;&gt;Node7</title>
<path fill="none" stroke="#63b8ff" d="M395.3,-155.28C411.45,-152.69 432.39,-149.34 450.23,-146.48"/>
<polygon fill="#63b8ff" stroke="#63b8ff" points="450.55,-149.81 459.86,-144.77 449.44,-142.9 450.55,-149.81"/>
</g>
<!-- Node10 -->
<g id="node10" class="node">
<title>Node10</title>
<g id="a_node10"><a target="_blank" xlink:href="http://en.cppreference.com/w/cpp/io/basic_ofstream/close.html#" xlink:title=" ">
<polygon fill="white" stroke="#666666" points="420,-93 316,-93 316,-74 420,-74 420,-93"/>
<text text-anchor="middle" x="368" y="-81" font-family="Helvetica,sans-Serif" font-size="10.00">std::ofstream::close</text>
</a>
</g>
</g>
<!-- Node9&#45;&gt;Node10 -->
<g id="edge9" class="edge">
<title>Node9&#45;&gt;Node10</title>
<path fill="none" stroke="#63b8ff" d="M268.18,-56.42C284.22,-60.81 303.29,-66.04 320.38,-70.72"/>
<polygon fill="#63b8ff" stroke="#63b8ff" points="319.15,-74.29 329.72,-73.56 321,-67.54 319.15,-74.29"/>
</g>
<!-- Node11 -->
<g id="node11" class="node">
<title>Node11</title>
<g id="a_node11"><a target="_blank" xlink:href="http://en.cppreference.com/w/cpp/io/basic_ofstream/is_open.html#" xlink:title=" ">
<polygon fill="white" stroke="#666666" points="425,-56 311,-56 311,-37 425,-37 425,-56"/>
<text text-anchor="middle" x="368" y="-44" font-family="Helvetica,sans-Serif" font-size="10.00">std::ofstream::is_open</text>
</a>
</g>
</g>
<!-- Node9&#45;&gt;Node11 -->
<g id="edge10" class="edge">
<title>Node9&#45;&gt;Node11</title>
<path fill="none" stroke="#63b8ff" d="M269.96,-46.5C279.34,-46.5 289.67,-46.5 299.97,-46.5"/>
<polygon fill="#63b8ff" stroke="#63b8ff" points="299.67,-50 309.67,-46.5 299.67,-43 299.67,-50"/>
</g>
<!-- Node12 -->
<g id="node12" class="node">
<title>Node12</title>
<g id="a_node12"><a target="_blank" xlink:href="http://en.cppreference.com/w/cpp/io/basic_ofstream/open.html#" xlink:title=" ">
<polygon fill="white" stroke="#666666" points="418.5,-19 317.5,-19 317.5,0 418.5,0 418.5,-19"/>
<text text-anchor="middle" x="368" y="-7" font-family="Helvetica,sans-Serif" font-size="10.00">std::ofstream::open</text>
</a>
</g>
</g>
<!-- Node9&#45;&gt;Node12 -->
<g id="edge11" class="edge">
<title>Node9&#45;&gt;Node12</title>
<path fill="none" stroke="#63b8ff" d="M268.18,-36.58C284.22,-32.19 303.29,-26.96 320.38,-22.28"/>
<polygon fill="#63b8ff" stroke="#63b8ff" points="321,-25.46 329.72,-19.44 319.15,-18.71 321,-25.46"/>
</g>
<!-- Node13&#45;&gt;Node6 -->
<g id="edge13" class="edge">
<title>Node13&#45;&gt;Node6</title>
<path fill="none" stroke="#63b8ff" d="M262.3,-159.5C282.33,-159.5 308.72,-159.5 329.99,-159.5"/>
<polygon fill="#63b8ff" stroke="#63b8ff" points="329.9,-163 339.9,-159.5 329.9,-156 329.9,-163"/>
</g>
<!-- Node14&#45;&gt;Node6 -->
<g id="edge15" class="edge">
<title>Node14&#45;&gt;Node6</title>
<path fill="none" stroke="#63b8ff" d="M131.86,-202.89C138.52,-205.91 145.7,-210.06 151,-215.5 177.07,-242.28 155.42,-271.51 187,-291.5 220.05,-312.41 240.33,-309.6 275,-291.5 320.65,-267.67 348.27,-209.71 360.14,-179.13"/>
<polygon fill="#63b8ff" stroke="#63b8ff" points="363.62,-180.81 363.81,-170.22 357.06,-178.38 363.62,-180.81"/>
</g>
<!-- Node14&#45;&gt;Node8 -->
<g id="edge16" class="edge">
<title>Node14&#45;&gt;Node8</title>
<path fill="none" stroke="#63b8ff" d="M131.96,-196.5C148.2,-196.5 172.35,-196.5 192.61,-196.5"/>
<polygon fill="#63b8ff" stroke="#63b8ff" points="192.39,-200 202.39,-196.5 192.39,-193 192.39,-200"/>
</g>
<!-- Node14&#45;&gt;Node9 -->
<g id="edge17" class="edge">
<title>Node14&#45;&gt;Node9</title>
<path fill="none" stroke="#63b8ff" d="M131.87,-190.64C138.69,-187.66 145.99,-183.39 151,-177.5 185.16,-137.36 151.4,-103.37 187,-64.5 187.55,-63.9 188.13,-63.31 188.73,-62.75"/>
<polygon fill="#63b8ff" stroke="#63b8ff" points="190.41,-65.12 196.45,-56.41 186.3,-59.46 190.41,-65.12"/>
</g>
<!-- Node15 -->
<g id="node15" class="node">
<title>Node15</title>
<g id="a_node15"><a xlink:href="../../d9/d49/kohonen__som__trace_8cpp.html#a53082f2e5bacec40266499da4547309a" target="_top" xlink:title=" ">
<polygon fill="white" stroke="#666666" points="274,-282 188,-282 188,-263 274,-263 274,-282"/>
<text text-anchor="middle" x="231" y="-270" font-family="Helvetica,sans-Serif" font-size="10.00">test_lamniscate</text>
</a>
</g>
</g>
<!-- Node14&#45;&gt;Node15 -->
<g id="edge18" class="edge">
<title>Node14&#45;&gt;Node15</title>
<path fill="none" stroke="#63b8ff" d="M131.62,-204.44C137.96,-207.54 145,-211.35 151,-215.5 168.85,-227.85 169.4,-235.79 187,-248.5 191.28,-251.59 196,-254.59 200.69,-257.35"/>
<polygon fill="#63b8ff" stroke="#63b8ff" points="198.71,-260.82 209.15,-262.67 202.15,-254.72 198.71,-260.82"/>
</g>
<!-- Node15&#45;&gt;Node6 -->
<g id="edge19" class="edge">
<title>Node15&#45;&gt;Node6</title>
<path fill="none" stroke="#63b8ff" d="M252.36,-262.54C259.75,-258.57 268,-253.7 275,-248.5 304.11,-226.88 333.48,-196.66 350.96,-177.59"/>
<polygon fill="#63b8ff" stroke="#63b8ff" points="353.21,-180.22 357.32,-170.45 348.02,-175.52 353.21,-180.22"/>
</g>
<!-- Node16&#45;&gt;Node6 -->
<g id="edge21" class="edge">
<title>Node16&#45;&gt;Node6</title>
<path fill="none" stroke="#63b8ff" d="M131.98,-123.15C162.06,-125.95 223.44,-132.16 275,-140.5 293.23,-143.45 313.32,-147.5 330.07,-151.11"/>
<polygon fill="#63b8ff" stroke="#63b8ff" points="329.02,-154.68 339.54,-153.4 330.52,-147.85 329.02,-154.68"/>
</g>
<!-- Node16&#45;&gt;Node8 -->
<g id="edge22" class="edge">
<title>Node16&#45;&gt;Node8</title>
<path fill="none" stroke="#63b8ff" d="M131.75,-129.25C138.11,-132.33 145.12,-136.18 151,-140.5 169.48,-154.09 168.16,-164.4 187,-177.5 189.09,-178.95 191.31,-180.34 193.6,-181.64"/>
<polygon fill="#63b8ff" stroke="#63b8ff" points="191.72,-185.13 202.22,-186.57 194.92,-178.9 191.72,-185.13"/>
</g>
<!-- Node16&#45;&gt;Node9 -->
<g id="edge23" class="edge">
<title>Node16&#45;&gt;Node9</title>
<path fill="none" stroke="#63b8ff" d="M131.79,-113.79C138.15,-110.72 145.15,-106.86 151,-102.5 169.65,-88.59 167.86,-77.72 187,-64.5 188.7,-63.33 190.48,-62.21 192.32,-61.15"/>
<polygon fill="#63b8ff" stroke="#63b8ff" points="193.5,-63.97 200.82,-56.3 190.32,-57.73 193.5,-63.97"/>
</g>
<!-- Node17 -->
<g id="node17" class="node">
<title>Node17</title>
<g id="a_node17"><a xlink:href="../../d9/d49/kohonen__som__trace_8cpp.html#a7154fe319e6033485a8a6cd6f0d8932d" target="_top" xlink:title=" ">
<polygon fill="white" stroke="#666666" points="275,-93 187,-93 187,-74 275,-74 275,-93"/>
<text text-anchor="middle" x="231" y="-81" font-family="Helvetica,sans-Serif" font-size="10.00">test_3d_classes</text>
</a>
</g>
</g>
<!-- Node16&#45;&gt;Node17 -->
<g id="edge24" class="edge">
<title>Node16&#45;&gt;Node17</title>
<path fill="none" stroke="#63b8ff" d="M131.96,-115.48C147.23,-110.5 169.48,-103.24 188.92,-96.9"/>
<polygon fill="#63b8ff" stroke="#63b8ff" points="189.95,-99.92 198.38,-93.49 187.78,-93.26 189.95,-99.92"/>
</g>
<!-- Node17&#45;&gt;Node6 -->
<g id="edge25" class="edge">
<title>Node17&#45;&gt;Node6</title>
<path fill="none" stroke="#63b8ff" d="M251.21,-93.41C258.77,-97.52 267.44,-102.5 275,-107.5 291.9,-118.69 293.54,-125.2 311,-135.5 317.24,-139.18 324.16,-142.61 330.94,-145.66"/>
<polygon fill="#63b8ff" stroke="#63b8ff" points="329.1,-149.12 339.67,-149.85 331.87,-142.68 329.1,-149.12"/>
</g>
<!-- Node17&#45;&gt;Node7 -->
<g id="edge26" class="edge">
<title>Node17&#45;&gt;Node7</title>
<path fill="none" stroke="#63b8ff" d="M275.45,-93.45C287,-96.09 299.47,-98.91 311,-101.5 359.01,-112.27 414.41,-124.48 450.15,-132.32"/>
<polygon fill="#63b8ff" stroke="#63b8ff" points="449.06,-135.88 459.58,-134.61 450.56,-129.05 449.06,-135.88"/>
</g>
</g>
</svg>
