<?xml version="1.0" encoding="UTF-8" standalone="no"?>
<!DOCTYPE svg PUBLIC "-//W3C//DTD SVG 1.1//EN"
 "http://www.w3.org/Graphics/SVG/1.1/DTD/svg11.dtd">
<!-- Generated by graphviz version 9.0.0 (20230911.1827)
 -->
<!-- Title: test2 Pages: 1 -->
<svg width="407pt" height="159pt"
 viewBox="0.00 0.00 406.50 158.50" xmlns="http://www.w3.org/2000/svg" xmlns:xlink="http://www.w3.org/1999/xlink">
<g id="graph0" class="graph" transform="scale(1 1) rotate(0) translate(4 154.5)">
<title>test2</title>
<!-- Node1 -->
<g id="Node000001" class="node">
<title>Node1</title>
<g id="a_Node000001"><a xlink:title=" ">
<polygon fill="#999999" stroke="#666666" points="37.75,-111.25 0,-111.25 0,-92 37.75,-92 37.75,-111.25"/>
<text text-anchor="middle" x="18.88" y="-97.75" font-family="Helvetica,sans-Serif" font-size="10.00">test2</text>
</a>
</g>
</g>
<!-- Node2 -->
<g id="Node000002" class="node">
<title>Node2</title>
<g id="a_Node000002"><a xlink:href="../../d9/d66/group__machine__learning.html#gaf5ce14f026d6d231bef29161bac2b485" target="_top" xlink:title=" ">
<polygon fill="white" stroke="#666666" points="278.25,-149.25 224.75,-149.25 224.75,-130 278.25,-130 278.25,-149.25"/>
<text text-anchor="middle" x="251.5" y="-135.75" font-family="Helvetica,sans-Serif" font-size="10.00">_random</text>
</a>
</g>
</g>
<!-- Node1&#45;&gt;Node2 -->
<g id="edge1_Node000001_Node000002" class="edge">
<title>Node1&#45;&gt;Node2</title>
<g id="a_edge1_Node000001_Node000002"><a xlink:title=" ">
<path fill="none" stroke="#63b8ff" d="M29.94,-111.66C40.03,-120.96 56.51,-134.16 73.75,-139.62 120.07,-154.32 176.72,-150.83 213.19,-146.04"/>
<polygon fill="#63b8ff" stroke="#63b8ff" points="213.38,-149.55 222.79,-144.67 212.4,-142.62 213.38,-149.55"/>
</a>
</g>
</g>
<!-- Node4 -->
<g id="Node000004" class="node">
<title>Node4</title>
<g id="a_Node000004"><a target="_blank" xlink:href="http://en.cppreference.com/w/cpp/algorithm/max.html#" xlink:title=" ">
<polygon fill="white" stroke="#666666" points="143.38,-130.25 89.12,-130.25 89.12,-111 143.38,-111 143.38,-130.25"/>
<text text-anchor="middle" x="116.25" y="-116.75" font-family="Helvetica,sans-Serif" font-size="10.00">std::max</text>
</a>
</g>
</g>
<!-- Node1&#45;&gt;Node4 -->
<g id="edge3_Node000001_Node000004" class="edge">
<title>Node1&#45;&gt;Node4</title>
<g id="a_edge3_Node000001_Node000004"><a xlink:title=" ">
<path fill="none" stroke="#63b8ff" d="M37.81,-105.2C49.03,-107.43 63.9,-110.39 77.6,-113.13"/>
<polygon fill="#63b8ff" stroke="#63b8ff" points="76.76,-116.53 87.26,-115.05 78.13,-109.66 76.76,-116.53"/>
</a>
</g>
</g>
<!-- Node5 -->
<g id="Node000005" class="node">
<title>Node5</title>
<g id="a_Node000005"><a xlink:href="../../d9/d66/group__machine__learning.html#gae0208548f8b393528e5db01717e88e67" target="_top" xlink:title=" ">
<polygon fill="white" stroke="#666666" points="154.62,-56.25 77.88,-56.25 77.88,-37 154.62,-37 154.62,-56.25"/>
<text text-anchor="middle" x="116.25" y="-42.75" font-family="Helvetica,sans-Serif" font-size="10.00">save_nd_data</text>
</a>
</g>
</g>
<!-- Node1&#45;&gt;Node5 -->
<g id="edge4_Node000001_Node000005" class="edge">
<title>Node1&#45;&gt;Node5</title>
<g id="a_edge4_Node000001_Node000005"><a xlink:title=" ">
<path fill="none" stroke="#63b8ff" d="M32.71,-91.77C43.35,-83.85 59.06,-72.76 73.75,-64.62 75.66,-63.57 77.64,-62.53 79.65,-61.52"/>
<polygon fill="#63b8ff" stroke="#63b8ff" points="80.93,-64.79 88.49,-57.36 77.95,-58.45 80.93,-64.79"/>
</a>
</g>
</g>
<!-- Node9 -->
<g id="Node000009" class="node">
<title>Node9</title>
<g id="a_Node000009"><a xlink:href="../../d9/d49/kohonen__som__trace_8cpp.html#a53082f2e5bacec40266499da4547309a" target="_top" xlink:title=" ">
<polygon fill="white" stroke="#666666" points="158.75,-93.25 73.75,-93.25 73.75,-74 158.75,-74 158.75,-93.25"/>
<text text-anchor="middle" x="116.25" y="-79.75" font-family="Helvetica,sans-Serif" font-size="10.00">test_lamniscate</text>
</a>
</g>
</g>
<!-- Node1&#45;&gt;Node9 -->
<g id="edge8_Node000001_Node000009" class="edge">
<title>Node1&#45;&gt;Node9</title>
<g id="a_edge8_Node000001_Node000009"><a xlink:title=" ">
<path fill="none" stroke="#63b8ff" d="M37.81,-98.24C44.87,-96.91 53.38,-95.3 62.13,-93.65"/>
<polygon fill="#63b8ff" stroke="#63b8ff" points="62.59,-97.13 71.77,-91.83 61.29,-90.25 62.59,-97.13"/>
</a>
</g>
</g>
<!-- Node3 -->
<g id="Node000003" class="node">
<title>Node3</title>
<g id="a_Node000003"><a target="_blank" xlink:href="http://en.cppreference.com/w/cpp/numeric/random/rand.html#" xlink:title=" ">
<polygon fill="white" stroke="#666666" points="398.5,-149.25 344.25,-149.25 344.25,-130 398.5,-130 398.5,-149.25"/>
<text text-anchor="middle" x="371.38" y="-135.75" font-family="Helvetica,sans-Serif" font-size="10.00">std::rand</text>
</a>
</g>
</g>
<!-- Node2&#45;&gt;Node3 -->
<g id="edge2_Node000002_Node000003" class="edge">
<title>Node2&#45;&gt;Node3</title>
<g id="a_edge2_Node000002_Node000003"><a xlink:title=" ">
<path fill="none" stroke="#63b8ff" d="M278.66,-139.62C294.5,-139.62 314.96,-139.62 332.54,-139.62"/>
<polygon fill="#63b8ff" stroke="#63b8ff" points="332.37,-143.13 342.37,-139.63 332.37,-136.13 332.37,-143.13"/>
</a>
</g>
</g>
<!-- Node6 -->
<g id="Node000006" class="node">
<title>Node6</title>
<g id="a_Node000006"><a target="_blank" xlink:href="http://en.cppreference.com/w/cpp/io/basic_ofstream/close.html#" xlink:title=" ">
<polygon fill="white" stroke="#666666" points="303,-93.25 200,-93.25 200,-74 303,-74 303,-93.25"/>
<text text-anchor="middle" x="251.5" y="-79.75" font-family="Helvetica,sans-Serif" font-size="10.00">std::ofstream::close</text>
</a>
</g>
</g>
<!-- Node5&#45;&gt;Node6 -->
<g id="edge5_Node000005_Node000006" class="edge">
<title>Node5&#45;&gt;Node6</title>
<g id="a_edge5_Node000005_Node000006"><a xlink:title=" ">
<path fill="none" stroke="#63b8ff" d="M153.66,-56.74C168.94,-60.98 186.9,-65.97 203.18,-70.49"/>
<polygon fill="#63b8ff" stroke="#63b8ff" points="202.1,-73.82 212.67,-73.12 203.98,-67.07 202.1,-73.82"/>
</a>
</g>
</g>
<!-- Node7 -->
<g id="Node000007" class="node">
<title>Node7</title>
<g id="a_Node000007"><a target="_blank" xlink:href="http://en.cppreference.com/w/cpp/io/basic_ofstream/is_open.html#" xlink:title=" ">
<polygon fill="white" stroke="#666666" points="308.25,-56.25 194.75,-56.25 194.75,-37 308.25,-37 308.25,-56.25"/>
<text text-anchor="middle" x="251.5" y="-42.75" font-family="Helvetica,sans-Serif" font-size="10.00">std::ofstream::is_open</text>
</a>
</g>
</g>
<!-- Node5&#45;&gt;Node7 -->
<g id="edge6_Node000005_Node000007" class="edge">
<title>Node5&#45;&gt;Node7</title>
<g id="a_edge6_Node000005_Node000007"><a xlink:title=" ">
<path fill="none" stroke="#63b8ff" d="M155.08,-46.62C163.87,-46.62 173.49,-46.62 183.13,-46.62"/>
<polygon fill="#63b8ff" stroke="#63b8ff" points="182.9,-50.13 192.9,-46.63 182.9,-43.13 182.9,-50.13"/>
</a>
</g>
</g>
<!-- Node8 -->
<g id="Node000008" class="node">
<title>Node8</title>
<g id="a_Node000008"><a target="_blank" xlink:href="http://en.cppreference.com/w/cpp/io/basic_ofstream/open.html#" xlink:title=" ">
<polygon fill="white" stroke="#666666" points="301.88,-19.25 201.12,-19.25 201.12,0 301.88,0 301.88,-19.25"/>
<text text-anchor="middle" x="251.5" y="-5.75" font-family="Helvetica,sans-Serif" font-size="10.00">std::ofstream::open</text>
</a>
</g>
</g>
<!-- Node5&#45;&gt;Node8 -->
<g id="edge7_Node000005_Node000008" class="edge">
<title>Node5&#45;&gt;Node8</title>
<g id="a_edge7_Node000005_Node000008"><a xlink:title=" ">
<path fill="none" stroke="#63b8ff" d="M153.66,-36.51C168.94,-32.27 186.9,-27.28 203.18,-22.76"/>
<polygon fill="#63b8ff" stroke="#63b8ff" points="203.98,-26.18 212.67,-20.13 202.1,-19.43 203.98,-26.18"/>
</a>
</g>
</g>
<!-- Node9&#45;&gt;Node2 -->
<g id="edge9_Node000009_Node000002" class="edge">
<title>Node9&#45;&gt;Node2</title>
<g id="a_edge9_Node000009_Node000002"><a xlink:title=" ">
<path fill="none" stroke="#63b8ff" d="M141.07,-93.64C161.88,-102.38 192.35,-115.19 215.86,-125.07"/>
<polygon fill="#63b8ff" stroke="#63b8ff" points="214.46,-128.28 225.04,-128.92 217.18,-121.82 214.46,-128.28"/>
</a>
</g>
</g>
</g>
</svg>
