<?xml version="1.0" encoding="UTF-8" standalone="no"?>
<!DOCTYPE svg PUBLIC "-//W3C//DTD SVG 1.1//EN"
 "http://www.w3.org/Graphics/SVG/1.1/DTD/svg11.dtd">
<!-- Generated by graphviz version 6.0.1 (20220911.1526)
 -->
<!-- Title: numerical_methods/lu_decomposition.h Pages: 1 -->
<svg width="256pt" height="93pt"
 viewBox="0.00 0.00 256.00 93.00" xmlns="http://www.w3.org/2000/svg" xmlns:xlink="http://www.w3.org/1999/xlink">
<g id="graph0" class="graph" transform="scale(1 1) rotate(0) translate(4 89)">
<title>numerical_methods/lu_decomposition.h</title>
<!-- Node1 -->
<g id="node1" class="node">
<title>Node1</title>
<g id="a_node1"><a xlink:title="Functions associated with LU Decomposition of a square matrix.">
<polygon fill="#999999" stroke="#666666" points="187,-85 75,-85 75,-55 187,-55 187,-85"/>
<text text-anchor="start" x="83" y="-73" font-family="Helvetica,sans-Serif" font-size="10.00">numerical_methods/lu</text>
<text text-anchor="middle" x="131" y="-62" font-family="Helvetica,sans-Serif" font-size="10.00">_decomposition.h</text>
</a>
</g>
</g>
<!-- Node2 -->
<g id="node2" class="node">
<title>Node2</title>
<g id="a_node2"><a xlink:title=" ">
<polygon fill="#e0e0e0" stroke="#999999" points="54,-19 0,-19 0,0 54,0 54,-19"/>
<text text-anchor="middle" x="27" y="-7" font-family="Helvetica,sans-Serif" font-size="10.00">iostream</text>
</a>
</g>
</g>
<!-- Node1&#45;&gt;Node2 -->
<g id="edge1" class="edge">
<title>Node1&#45;&gt;Node2</title>
<path fill="none" stroke="#63b8ff" d="M106.09,-54.99C89.51,-45.66 67.84,-33.47 51.37,-24.21"/>
<polygon fill="#63b8ff" stroke="#63b8ff" points="52.79,-20.99 42.36,-19.14 49.36,-27.09 52.79,-20.99"/>
</g>
<!-- Node3 -->
<g id="node3" class="node">
<title>Node3</title>
<g id="a_node3"><a xlink:title=" ">
<polygon fill="#e0e0e0" stroke="#999999" points="123.5,-19 72.5,-19 72.5,0 123.5,0 123.5,-19"/>
<text text-anchor="middle" x="98" y="-7" font-family="Helvetica,sans-Serif" font-size="10.00">valarray</text>
</a>
</g>
</g>
<!-- Node1&#45;&gt;Node3 -->
<g id="edge2" class="edge">
<title>Node1&#45;&gt;Node3</title>
<path fill="none" stroke="#63b8ff" d="M123.01,-54.84C118.47,-46.78 112.73,-36.62 107.9,-28.06"/>
<polygon fill="#63b8ff" stroke="#63b8ff" points="110.91,-26.26 102.94,-19.27 104.81,-29.7 110.91,-26.26"/>
</g>
<!-- Node4 -->
<g id="node4" class="node">
<title>Node4</title>
<g id="a_node4"><a xlink:title=" ">
<polygon fill="#e0e0e0" stroke="#999999" points="186,-19 142,-19 142,0 186,0 186,-19"/>
<text text-anchor="middle" x="164" y="-7" font-family="Helvetica,sans-Serif" font-size="10.00">vector</text>
</a>
</g>
</g>
<!-- Node1&#45;&gt;Node4 -->
<g id="edge3" class="edge">
<title>Node1&#45;&gt;Node4</title>
<path fill="none" stroke="#63b8ff" d="M138.99,-54.84C143.53,-46.78 149.27,-36.62 154.1,-28.06"/>
<polygon fill="#63b8ff" stroke="#63b8ff" points="157.19,-29.7 159.06,-19.27 151.09,-26.26 157.19,-29.7"/>
</g>
<!-- Node5 -->
<g id="node5" class="node">
<title>Node5</title>
<g id="a_node5"><a xlink:title=" ">
<polygon fill="#e0e0e0" stroke="#999999" points="248,-19 204,-19 204,0 248,0 248,-19"/>
<text text-anchor="middle" x="226" y="-7" font-family="Helvetica,sans-Serif" font-size="10.00">omp.h</text>
</a>
</g>
</g>
<!-- Node1&#45;&gt;Node5 -->
<g id="edge4" class="edge">
<title>Node1&#45;&gt;Node5</title>
<path fill="none" stroke="#63b8ff" d="M154,-54.84C169,-45.6 188.5,-33.59 203.43,-24.4"/>
<polygon fill="#63b8ff" stroke="#63b8ff" points="205.36,-27.32 212.04,-19.09 201.69,-21.36 205.36,-27.32"/>
</g>
</g>
</svg>
