<?xml version="1.0" encoding="UTF-8" standalone="no"?>
<!DOCTYPE svg PUBLIC "-//W3C//DTD SVG 1.1//EN"
 "http://www.w3.org/Graphics/SVG/1.1/DTD/svg11.dtd">
<!-- Generated by graphviz version 7.0.6 (20230106.0513)
 -->
<!-- Title: machine_learning::neural_network::NeuralNetwork::batch_predict Pages: 1 -->
<svg width="918pt" height="172pt"
 viewBox="0.00 0.00 918.00 171.50" xmlns="http://www.w3.org/2000/svg" xmlns:xlink="http://www.w3.org/1999/xlink">
<g id="graph0" class="graph" transform="scale(1 1) rotate(0) translate(4 167.5)">
<title>machine_learning::neural_network::NeuralNetwork::batch_predict</title>
<!-- Node1 -->
<g id="node1" class="node">
<title>Node1</title>
<g id="a_node1"><a xlink:title=" ">
<polygon fill="#999999" stroke="#666666" points="128,-126 0,-126 0,-85 128,-85 128,-126"/>
<text text-anchor="start" x="8" y="-114" font-family="Helvetica,sans-Serif" font-size="10.00">machine_learning::neural</text>
<text text-anchor="start" x="8" y="-103" font-family="Helvetica,sans-Serif" font-size="10.00">_network::NeuralNetwork</text>
<text text-anchor="middle" x="64" y="-92" font-family="Helvetica,sans-Serif" font-size="10.00">::batch_predict</text>
</a>
</g>
</g>
<!-- Node2 -->
<g id="node2" class="node">
<title>Node2</title>
<g id="a_node2"><a xlink:href="../../d4/df4/classmachine__learning_1_1neural__network_1_1_neural_network.html#a3b9eac1824d365dce715fb17c33cb96f" target="_top" xlink:title=" ">
<polygon fill="white" stroke="#666666" points="292,-126 164,-126 164,-85 292,-85 292,-126"/>
<text text-anchor="start" x="172" y="-114" font-family="Helvetica,sans-Serif" font-size="10.00">machine_learning::neural</text>
<text text-anchor="start" x="172" y="-103" font-family="Helvetica,sans-Serif" font-size="10.00">_network::NeuralNetwork</text>
<text text-anchor="middle" x="228" y="-92" font-family="Helvetica,sans-Serif" font-size="10.00">::single_predict</text>
</a>
</g>
</g>
<!-- Node1&#45;&gt;Node2 -->
<g id="edge1" class="edge">
<title>Node1&#45;&gt;Node2</title>
<path fill="none" stroke="#63b8ff" d="M128.1,-105.5C136.01,-105.5 144.16,-105.5 152.23,-105.5"/>
<polygon fill="#63b8ff" stroke="#63b8ff" points="152.03,-109 162.03,-105.5 152.03,-102 152.03,-109"/>
</g>
<!-- Node3 -->
<g id="node3" class="node">
<title>Node3</title>
<g id="a_node3"><a xlink:href="../../d4/df4/classmachine__learning_1_1neural__network_1_1_neural_network.html#a361a45f3c3d8347d79103bf182d0570b" target="_top" xlink:title=" ">
<polygon fill="white" stroke="#666666" points="473,-126 328,-126 328,-85 473,-85 473,-126"/>
<text text-anchor="start" x="336" y="-114" font-family="Helvetica,sans-Serif" font-size="10.00">machine_learning::neural</text>
<text text-anchor="start" x="336" y="-103" font-family="Helvetica,sans-Serif" font-size="10.00">_network::NeuralNetwork</text>
<text text-anchor="middle" x="400.5" y="-92" font-family="Helvetica,sans-Serif" font-size="10.00">::__detailed_single_prediction</text>
</a>
</g>
</g>
<!-- Node2&#45;&gt;Node3 -->
<g id="edge2" class="edge">
<title>Node2&#45;&gt;Node3</title>
<path fill="none" stroke="#63b8ff" d="M292.49,-105.5C300.27,-105.5 308.32,-105.5 316.34,-105.5"/>
<polygon fill="#63b8ff" stroke="#63b8ff" points="316.12,-109 326.12,-105.5 316.12,-102 316.12,-109"/>
</g>
<!-- Node4 -->
<g id="node4" class="node">
<title>Node4</title>
<g id="a_node4"><a xlink:href="../../d8/d77/namespacemachine__learning.html#ad0bdc88e5f1be47c46c0f0c8ebf754bb" target="_top" xlink:title=" ">
<polygon fill="white" stroke="#666666" points="636,-163.5 514,-163.5 514,-133.5 636,-133.5 636,-163.5"/>
<text text-anchor="start" x="522" y="-151.5" font-family="Helvetica,sans-Serif" font-size="10.00">machine_learning::apply</text>
<text text-anchor="middle" x="575" y="-140.5" font-family="Helvetica,sans-Serif" font-size="10.00">_function</text>
</a>
</g>
</g>
<!-- Node3&#45;&gt;Node4 -->
<g id="edge3" class="edge">
<title>Node3&#45;&gt;Node4</title>
<path fill="none" stroke="#63b8ff" d="M473.16,-123.36C482.91,-125.79 492.92,-128.29 502.66,-130.72"/>
<polygon fill="#63b8ff" stroke="#63b8ff" points="501.51,-134.04 512.06,-133.06 503.2,-127.25 501.51,-134.04"/>
</g>
<!-- Node5 -->
<g id="node5" class="node">
<title>Node5</title>
<g id="a_node5"><a target="_blank" xlink:href="http://en.cppreference.com/w/cpp/container/vector/emplace_back.html#" xlink:title=" ">
<polygon fill="white" stroke="#666666" points="641,-115 509,-115 509,-96 641,-96 641,-115"/>
<text text-anchor="middle" x="575" y="-103" font-family="Helvetica,sans-Serif" font-size="10.00">std::vector::emplace_back</text>
</a>
</g>
</g>
<!-- Node3&#45;&gt;Node5 -->
<g id="edge4" class="edge">
<title>Node3&#45;&gt;Node5</title>
<path fill="none" stroke="#63b8ff" d="M473.16,-105.5C481.15,-105.5 489.31,-105.5 497.36,-105.5"/>
<polygon fill="#63b8ff" stroke="#63b8ff" points="497.12,-109 507.12,-105.5 497.12,-102 497.12,-109"/>
</g>
<!-- Node6 -->
<g id="node6" class="node">
<title>Node6</title>
<g id="a_node6"><a xlink:href="../../d8/d77/namespacemachine__learning.html#a5342906d42b80fc6b6b3ad17bf00fcb9" target="_top" xlink:title=" ">
<polygon fill="white" stroke="#666666" points="641,-78 509,-78 509,-59 641,-59 641,-78"/>
<text text-anchor="middle" x="575" y="-66" font-family="Helvetica,sans-Serif" font-size="10.00">machine_learning::multiply</text>
</a>
</g>
</g>
<!-- Node3&#45;&gt;Node6 -->
<g id="edge5" class="edge">
<title>Node3&#45;&gt;Node6</title>
<path fill="none" stroke="#63b8ff" d="M473.16,-90.13C487.62,-87.03 502.64,-83.81 516.54,-80.82"/>
<polygon fill="#63b8ff" stroke="#63b8ff" points="516.89,-84.33 525.94,-78.81 515.43,-77.48 516.89,-84.33"/>
</g>
<!-- Node7 -->
<g id="node7" class="node">
<title>Node7</title>
<g id="a_node7"><a target="_blank" xlink:href="http://en.cppreference.com/w/cpp/io/manip/endl.html#" xlink:title=" ">
<polygon fill="white" stroke="#666666" points="896.5,-140 842.5,-140 842.5,-121 896.5,-121 896.5,-140"/>
<text text-anchor="middle" x="869.5" y="-128" font-family="Helvetica,sans-Serif" font-size="10.00">std::endl</text>
</a>
</g>
</g>
<!-- Node6&#45;&gt;Node7 -->
<g id="edge6" class="edge">
<title>Node6&#45;&gt;Node7</title>
<path fill="none" stroke="#63b8ff" d="M618.11,-78.4C625.91,-80.91 633.85,-83.92 641,-87.5 658.89,-96.45 658.31,-107.39 677,-114.5 727.69,-133.78 791.23,-135.03 830.85,-133.37"/>
<polygon fill="#63b8ff" stroke="#63b8ff" points="830.78,-136.87 840.59,-132.87 830.42,-129.88 830.78,-136.87"/>
</g>
<!-- Node8 -->
<g id="node8" class="node">
<title>Node8</title>
<g id="a_node8"><a target="_blank" xlink:href="http://en.cppreference.com/w/cpp/utility/program/exit.html#" xlink:title=" ">
<polygon fill="white" stroke="#666666" points="895.5,-60 843.5,-60 843.5,-41 895.5,-41 895.5,-60"/>
<text text-anchor="middle" x="869.5" y="-48" font-family="Helvetica,sans-Serif" font-size="10.00">std::exit</text>
</a>
</g>
</g>
<!-- Node6&#45;&gt;Node8 -->
<g id="edge7" class="edge">
<title>Node6&#45;&gt;Node8</title>
<path fill="none" stroke="#63b8ff" d="M641.28,-64.48C699.95,-60.87 784.01,-55.7 831.72,-52.76"/>
<polygon fill="#63b8ff" stroke="#63b8ff" points="831.76,-56.27 841.52,-52.16 831.33,-49.28 831.76,-56.27"/>
</g>
<!-- Node9 -->
<g id="node9" class="node">
<title>Node9</title>
<g id="a_node9"><a xlink:href="../../d8/d77/namespacemachine__learning.html#aa4bbf61e65f8cd297255fa94b983d078" target="_top" xlink:title=" ">
<polygon fill="white" stroke="#666666" points="791,-105.5 679,-105.5 679,-75.5 791,-75.5 791,-105.5"/>
<text text-anchor="start" x="687" y="-93.5" font-family="Helvetica,sans-Serif" font-size="10.00">machine_learning::get</text>
<text text-anchor="middle" x="735" y="-82.5" font-family="Helvetica,sans-Serif" font-size="10.00">_shape</text>
</a>
</g>
</g>
<!-- Node6&#45;&gt;Node9 -->
<g id="edge8" class="edge">
<title>Node6&#45;&gt;Node9</title>
<path fill="none" stroke="#63b8ff" d="M641.18,-77.58C649.81,-78.78 658.66,-80.01 667.32,-81.22"/>
<polygon fill="#63b8ff" stroke="#63b8ff" points="666.66,-84.66 677.04,-82.57 667.62,-77.72 666.66,-84.66"/>
</g>
<!-- Node11 -->
<g id="node11" class="node">
<title>Node11</title>
<g id="a_node11"><a target="_blank" xlink:href="http://en.cppreference.com/w/cpp/container/vector/push_back.html#" xlink:title=" ">
<polygon fill="white" stroke="#666666" points="793,-19 677,-19 677,0 793,0 793,-19"/>
<text text-anchor="middle" x="735" y="-7" font-family="Helvetica,sans-Serif" font-size="10.00">std::vector::push_back</text>
</a>
</g>
</g>
<!-- Node6&#45;&gt;Node11 -->
<g id="edge12" class="edge">
<title>Node6&#45;&gt;Node11</title>
<path fill="none" stroke="#63b8ff" d="M602.45,-58.62C628.31,-48.97 667.92,-34.17 696.92,-23.35"/>
<polygon fill="#63b8ff" stroke="#63b8ff" points="697.91,-26.71 706.05,-19.94 695.46,-20.16 697.91,-26.71"/>
</g>
<!-- Node9&#45;&gt;Node7 -->
<g id="edge9" class="edge">
<title>Node9&#45;&gt;Node7</title>
<path fill="none" stroke="#63b8ff" d="M787.23,-105.97C801.91,-110.4 817.62,-115.14 831.29,-119.27"/>
<polygon fill="#63b8ff" stroke="#63b8ff" points="830.18,-122.59 840.76,-122.13 832.2,-115.89 830.18,-122.59"/>
</g>
<!-- Node9&#45;&gt;Node8 -->
<g id="edge10" class="edge">
<title>Node9&#45;&gt;Node8</title>
<path fill="none" stroke="#63b8ff" d="M787.23,-75.03C802.4,-70.46 818.68,-65.54 832.65,-61.32"/>
<polygon fill="#63b8ff" stroke="#63b8ff" points="833.29,-64.79 841.85,-58.54 831.27,-58.08 833.29,-64.79"/>
</g>
<!-- Node10 -->
<g id="node10" class="node">
<title>Node10</title>
<g id="a_node10"><a target="_blank" xlink:href="http://en.cppreference.com/w/cpp/utility/pair/make_pair.html#" xlink:title=" ">
<polygon fill="white" stroke="#666666" points="910,-100 829,-100 829,-81 910,-81 910,-100"/>
<text text-anchor="middle" x="869.5" y="-88" font-family="Helvetica,sans-Serif" font-size="10.00">std::make_pair</text>
</a>
</g>
</g>
<!-- Node9&#45;&gt;Node10 -->
<g id="edge11" class="edge">
<title>Node9&#45;&gt;Node10</title>
<path fill="none" stroke="#63b8ff" d="M791.42,-90.5C800,-90.5 808.83,-90.5 817.32,-90.5"/>
<polygon fill="#63b8ff" stroke="#63b8ff" points="817.1,-94 827.1,-90.5 817.1,-87 817.1,-94"/>
</g>
</g>
</svg>
