<?xml version="1.0" encoding="UTF-8" standalone="no"?>
<!DOCTYPE svg PUBLIC "-//W3C//DTD SVG 1.1//EN"
 "http://www.w3.org/Graphics/SVG/1.1/DTD/svg11.dtd">
<!-- Generated by graphviz version 2.49.3 (20211023.0002)
 -->
<!-- Title: machine_learning::neural_network::NeuralNetwork::__detailed_single_prediction Pages: 1 -->
<svg width="481pt" height="182pt"
 viewBox="0.00 0.00 481.00 181.50" xmlns="http://www.w3.org/2000/svg" xmlns:xlink="http://www.w3.org/1999/xlink">
<g id="graph0" class="graph" transform="scale(1 1) rotate(0) translate(4 177.5)">
<title>machine_learning::neural_network::NeuralNetwork::__detailed_single_prediction</title>
<polygon fill="white" stroke="transparent" points="-4,4 -4,-177.5 477,-177.5 477,4 -4,4"/>
<!-- Node1 -->
<g id="node1" class="node">
<title>Node1</title>
<g id="a_node1"><a xlink:title=" ">
<polygon fill="#bfbfbf" stroke="black" points="0,-93.5 0,-134.5 149,-134.5 149,-93.5 0,-93.5"/>
<text text-anchor="start" x="8" y="-122.5" font-family="Helvetica,sans-Serif" font-size="10.00">machine_learning::neural</text>
<text text-anchor="start" x="8" y="-111.5" font-family="Helvetica,sans-Serif" font-size="10.00">_network::NeuralNetwork</text>
<text text-anchor="middle" x="74.5" y="-100.5" font-family="Helvetica,sans-Serif" font-size="10.00">::__detailed_single_prediction</text>
</a>
</g>
</g>
<!-- Node2 -->
<g id="node2" class="node">
<title>Node2</title>
<g id="a_node2"><a xlink:href="../../d8/d77/namespacemachine__learning.html#ad0bdc88e5f1be47c46c0f0c8ebf754bb" target="_top" xlink:title=" ">
<polygon fill="white" stroke="black" points="190,-143 190,-173 315,-173 315,-143 190,-143"/>
<text text-anchor="start" x="198" y="-161" font-family="Helvetica,sans-Serif" font-size="10.00">machine_learning::apply</text>
<text text-anchor="middle" x="252.5" y="-150" font-family="Helvetica,sans-Serif" font-size="10.00">_function</text>
</a>
</g>
</g>
<!-- Node1&#45;&gt;Node2 -->
<g id="edge1" class="edge">
<title>Node1&#45;&gt;Node2</title>
<path fill="none" stroke="midnightblue" d="M149.12,-132.41C159.76,-135.06 170.68,-137.8 181.25,-140.44"/>
<polygon fill="midnightblue" stroke="midnightblue" points="180.7,-143.91 191.25,-142.94 182.4,-137.12 180.7,-143.91"/>
</g>
<!-- Node3 -->
<g id="node3" class="node">
<title>Node3</title>
<g id="a_node3"><a target="_blank" xlink:href="http://en.cppreference.com/w/cpp/container/vector/emplace_back.html#" xlink:title=" ">
<polygon fill="white" stroke="black" points="186,-104.5 186,-123.5 319,-123.5 319,-104.5 186,-104.5"/>
<text text-anchor="middle" x="252.5" y="-111.5" font-family="Helvetica,sans-Serif" font-size="10.00">std::vector::emplace_back</text>
</a>
</g>
</g>
<!-- Node1&#45;&gt;Node3 -->
<g id="edge2" class="edge">
<title>Node1&#45;&gt;Node3</title>
<path fill="none" stroke="midnightblue" d="M149.12,-114C157.85,-114 166.78,-114 175.55,-114"/>
<polygon fill="midnightblue" stroke="midnightblue" points="175.74,-117.5 185.74,-114 175.74,-110.5 175.74,-117.5"/>
</g>
<!-- Node4 -->
<g id="node4" class="node">
<title>Node4</title>
<g id="a_node4"><a xlink:href="../../d8/d77/namespacemachine__learning.html#a5342906d42b80fc6b6b3ad17bf00fcb9" target="_top" xlink:title=" ">
<polygon fill="white" stroke="black" points="185,-66.5 185,-85.5 320,-85.5 320,-66.5 185,-66.5"/>
<text text-anchor="middle" x="252.5" y="-73.5" font-family="Helvetica,sans-Serif" font-size="10.00">machine_learning::multiply</text>
</a>
</g>
</g>
<!-- Node1&#45;&gt;Node4 -->
<g id="edge3" class="edge">
<title>Node1&#45;&gt;Node4</title>
<path fill="none" stroke="midnightblue" d="M149.12,-98.1C165.35,-94.6 182.24,-90.95 197.52,-87.65"/>
<polygon fill="midnightblue" stroke="midnightblue" points="198.27,-91.07 207.31,-85.54 196.79,-84.23 198.27,-91.07"/>
</g>
<!-- Node5 -->
<g id="node5" class="node">
<title>Node5</title>
<g id="a_node5"><a target="_blank" xlink:href="http://en.cppreference.com/w/cpp/io/manip/endl.html#" xlink:title=" ">
<polygon fill="white" stroke="black" points="387.5,-126.5 387.5,-145.5 441.5,-145.5 441.5,-126.5 387.5,-126.5"/>
<text text-anchor="middle" x="414.5" y="-133.5" font-family="Helvetica,sans-Serif" font-size="10.00">std::endl</text>
</a>
</g>
</g>
<!-- Node4&#45;&gt;Node5 -->
<g id="edge4" class="edge">
<title>Node4&#45;&gt;Node5</title>
<path fill="none" stroke="midnightblue" d="M293.5,-85.53C302.39,-88.17 311.64,-91.33 320,-95 337.17,-102.53 338.99,-109.12 356,-117 362.82,-120.16 370.32,-123.04 377.58,-125.54"/>
<polygon fill="midnightblue" stroke="midnightblue" points="376.66,-128.92 387.25,-128.72 378.84,-122.27 376.66,-128.92"/>
</g>
<!-- Node6 -->
<g id="node6" class="node">
<title>Node6</title>
<g id="a_node6"><a target="_blank" xlink:href="http://en.cppreference.com/w/cpp/utility/program/exit.html#" xlink:title=" ">
<polygon fill="white" stroke="black" points="389,-88.5 389,-107.5 440,-107.5 440,-88.5 389,-88.5"/>
<text text-anchor="middle" x="414.5" y="-95.5" font-family="Helvetica,sans-Serif" font-size="10.00">std::exit</text>
</a>
</g>
</g>
<!-- Node4&#45;&gt;Node6 -->
<g id="edge5" class="edge">
<title>Node4&#45;&gt;Node6</title>
<path fill="none" stroke="midnightblue" d="M320.43,-85.2C340.43,-87.95 361.54,-90.86 378.6,-93.2"/>
<polygon fill="midnightblue" stroke="midnightblue" points="378.26,-96.69 388.65,-94.58 379.22,-89.75 378.26,-96.69"/>
</g>
<!-- Node7 -->
<g id="node7" class="node">
<title>Node7</title>
<g id="a_node7"><a xlink:href="../../d8/d77/namespacemachine__learning.html#aa4bbf61e65f8cd297255fa94b983d078" target="_top" xlink:title=" ">
<polygon fill="white" stroke="black" points="357,-39 357,-69 472,-69 472,-39 357,-39"/>
<text text-anchor="start" x="365" y="-57" font-family="Helvetica,sans-Serif" font-size="10.00">machine_learning::get</text>
<text text-anchor="middle" x="414.5" y="-46" font-family="Helvetica,sans-Serif" font-size="10.00">_shape</text>
</a>
</g>
</g>
<!-- Node4&#45;&gt;Node7 -->
<g id="edge6" class="edge">
<title>Node4&#45;&gt;Node7</title>
<path fill="none" stroke="midnightblue" d="M320.43,-66.8C329.17,-65.6 338.12,-64.36 346.86,-63.16"/>
<polygon fill="midnightblue" stroke="midnightblue" points="347.55,-66.6 356.98,-61.77 346.6,-59.67 347.55,-66.6"/>
</g>
<!-- Node8 -->
<g id="node8" class="node">
<title>Node8</title>
<g id="a_node8"><a target="_blank" xlink:href="http://en.cppreference.com/w/cpp/container/vector/push_back.html#" xlink:title=" ">
<polygon fill="white" stroke="black" points="356,-0.5 356,-19.5 473,-19.5 473,-0.5 356,-0.5"/>
<text text-anchor="middle" x="414.5" y="-7.5" font-family="Helvetica,sans-Serif" font-size="10.00">std::vector::push_back</text>
</a>
</g>
</g>
<!-- Node4&#45;&gt;Node8 -->
<g id="edge7" class="edge">
<title>Node4&#45;&gt;Node8</title>
<path fill="none" stroke="midnightblue" d="M273.31,-66.49C293.8,-56.8 326.82,-41.6 356,-30 361.99,-27.62 368.4,-25.23 374.68,-22.99"/>
<polygon fill="midnightblue" stroke="midnightblue" points="376.09,-26.2 384.36,-19.58 373.77,-19.6 376.09,-26.2"/>
</g>
</g>
</svg>
