<?xml version="1.0" encoding="UTF-8" standalone="no"?>
<!DOCTYPE svg PUBLIC "-//W3C//DTD SVG 1.1//EN"
 "http://www.w3.org/Graphics/SVG/1.1/DTD/svg11.dtd">
<!-- Generated by graphviz version 8.0.2 (20230410.1723)
 -->
<!-- Title: machine_learning::neural_network::NeuralNetwork::get_XY_from_csv Pages: 1 -->
<svg width="577pt" height="599pt"
 viewBox="0.00 0.00 577.00 599.00" xmlns="http://www.w3.org/2000/svg" xmlns:xlink="http://www.w3.org/1999/xlink">
<g id="graph0" class="graph" transform="scale(1 1) rotate(0) translate(4 595)">
<title>machine_learning::neural_network::NeuralNetwork::get_XY_from_csv</title>
<!-- Node1 -->
<g id="node1" class="node">
<title>Node1</title>
<g id="a_node1"><a xlink:title=" ">
<polygon fill="#999999" stroke="#666666" points="128,-309 0,-309 0,-268 128,-268 128,-309"/>
<text text-anchor="start" x="8" y="-297" font-family="Helvetica,sans-Serif" font-size="10.00">machine_learning::neural</text>
<text text-anchor="start" x="8" y="-286" font-family="Helvetica,sans-Serif" font-size="10.00">_network::NeuralNetwork</text>
<text text-anchor="middle" x="64" y="-275" font-family="Helvetica,sans-Serif" font-size="10.00">::get_XY_from_csv</text>
</a>
</g>
</g>
<!-- Node2 -->
<g id="node2" class="node">
<title>Node2</title>
<g id="a_node2"><a target="_blank" xlink:href="http://en.cppreference.com/w/cpp/container/vector/back.html#" xlink:title=" ">
<polygon fill="white" stroke="#666666" points="279,-591 189,-591 189,-572 279,-572 279,-591"/>
<text text-anchor="middle" x="234" y="-579" font-family="Helvetica,sans-Serif" font-size="10.00">std::vector::back</text>
</a>
</g>
</g>
<!-- Node1&#45;&gt;Node2 -->
<g id="edge1" class="edge">
<title>Node1&#45;&gt;Node2</title>
<path fill="none" stroke="#63b8ff" d="M66.13,-309.29C70.09,-360.51 87.57,-493.69 164,-563.5 168.28,-567.41 173.31,-570.5 178.67,-572.92"/>
<polygon fill="#63b8ff" stroke="#63b8ff" points="176.99,-576.4 187.58,-576.62 179.43,-569.85 176.99,-576.4"/>
</g>
<!-- Node3 -->
<g id="node3" class="node">
<title>Node3</title>
<g id="a_node3"><a target="_blank" xlink:href="http://en.cppreference.com/w/cpp/string/basic_string/c_str.html#" xlink:title=" ">
<polygon fill="white" stroke="#666666" points="278,-554 190,-554 190,-535 278,-535 278,-554"/>
<text text-anchor="middle" x="234" y="-542" font-family="Helvetica,sans-Serif" font-size="10.00">std::string::c_str</text>
</a>
</g>
</g>
<!-- Node1&#45;&gt;Node3 -->
<g id="edge2" class="edge">
<title>Node1&#45;&gt;Node3</title>
<path fill="none" stroke="#63b8ff" d="M67.44,-309.25C74.03,-355.54 96.47,-467.76 164,-526.5 168.5,-530.41 173.74,-533.49 179.29,-535.9"/>
<polygon fill="#63b8ff" stroke="#63b8ff" points="177.93,-539.49 188.52,-539.58 180.3,-532.91 177.93,-539.49"/>
</g>
<!-- Node4 -->
<g id="node4" class="node">
<title>Node4</title>
<g id="a_node4"><a target="_blank" xlink:href="http://en.cppreference.com/w/cpp/io/basic_ifstream/close.html#" xlink:title=" ">
<polygon fill="white" stroke="#666666" points="284.5,-517 183.5,-517 183.5,-498 284.5,-498 284.5,-517"/>
<text text-anchor="middle" x="234" y="-505" font-family="Helvetica,sans-Serif" font-size="10.00">std::ifstream::close</text>
</a>
</g>
</g>
<!-- Node1&#45;&gt;Node4 -->
<g id="edge3" class="edge">
<title>Node1&#45;&gt;Node4</title>
<path fill="none" stroke="#63b8ff" d="M70.01,-309.36C80.57,-348.94 108.81,-435.3 164,-483.5 168.36,-487.31 173.36,-490.52 178.62,-493.23"/>
<polygon fill="#63b8ff" stroke="#63b8ff" points="176.77,-496.68 187.32,-497.58 179.63,-490.29 176.77,-496.68"/>
</g>
<!-- Node5 -->
<g id="node5" class="node">
<title>Node5</title>
<g id="a_node5"><a target="_blank" xlink:href="http://en.cppreference.com/w/cpp/io/manip/endl.html#" xlink:title=" ">
<polygon fill="white" stroke="#666666" points="555.5,-454 501.5,-454 501.5,-435 555.5,-435 555.5,-454"/>
<text text-anchor="middle" x="528.5" y="-442" font-family="Helvetica,sans-Serif" font-size="10.00">std::endl</text>
</a>
</g>
</g>
<!-- Node1&#45;&gt;Node5 -->
<g id="edge4" class="edge">
<title>Node1&#45;&gt;Node5</title>
<path fill="none" stroke="#63b8ff" d="M72.12,-309.42C84.73,-342.89 114.45,-407.64 164,-436.5 269.1,-497.72 421.93,-471.31 491.09,-454.51"/>
<polygon fill="#63b8ff" stroke="#63b8ff" points="491.6,-457.74 500.45,-451.91 489.9,-450.95 491.6,-457.74"/>
</g>
<!-- Node6 -->
<g id="node6" class="node">
<title>Node6</title>
<g id="a_node6"><a target="_blank" xlink:href="http://en.cppreference.com/w/cpp/io/basic_ios/eof.html#" xlink:title=" ">
<polygon fill="white" stroke="#666666" points="279.5,-427 188.5,-427 188.5,-408 279.5,-408 279.5,-427"/>
<text text-anchor="middle" x="234" y="-415" font-family="Helvetica,sans-Serif" font-size="10.00">std::ifstream::eof</text>
</a>
</g>
</g>
<!-- Node1&#45;&gt;Node6 -->
<g id="edge5" class="edge">
<title>Node1&#45;&gt;Node6</title>
<path fill="none" stroke="#63b8ff" d="M78.13,-309.19C95.01,-334.09 126.62,-375.41 164,-398.5 168.33,-401.18 173.04,-403.48 177.9,-405.47"/>
<polygon fill="#63b8ff" stroke="#63b8ff" points="176.42,-409.01 187.01,-409.11 178.79,-402.43 176.42,-409.01"/>
</g>
<!-- Node7 -->
<g id="node7" class="node">
<title>Node7</title>
<g id="a_node7"><a target="_blank" xlink:href="http://en.cppreference.com/w/cpp/utility/program/exit.html#" xlink:title=" ">
<polygon fill="white" stroke="#666666" points="554.5,-293 502.5,-293 502.5,-274 554.5,-274 554.5,-293"/>
<text text-anchor="middle" x="528.5" y="-281" font-family="Helvetica,sans-Serif" font-size="10.00">std::exit</text>
</a>
</g>
</g>
<!-- Node1&#45;&gt;Node7 -->
<g id="edge6" class="edge">
<title>Node1&#45;&gt;Node7</title>
<path fill="none" stroke="#63b8ff" d="M89.55,-267.6C108.5,-252.91 136.13,-234.51 164,-226.5 287.02,-191.16 330.63,-185.83 452,-226.5 475.43,-234.35 497.4,-252.67 511.53,-266.43"/>
<polygon fill="#63b8ff" stroke="#63b8ff" points="508.38,-268.24 517.9,-272.9 513.37,-263.32 508.38,-268.24"/>
</g>
<!-- Node8 -->
<g id="node8" class="node">
<title>Node8</title>
<g id="a_node8"><a target="_blank" xlink:href="http://en.cppreference.com/w/cpp/string/basic_string/getline.html#" xlink:title=" ">
<polygon fill="white" stroke="#666666" points="266.5,-341 201.5,-341 201.5,-322 266.5,-322 266.5,-341"/>
<text text-anchor="middle" x="234" y="-329" font-family="Helvetica,sans-Serif" font-size="10.00">std::getline</text>
</a>
</g>
</g>
<!-- Node1&#45;&gt;Node8 -->
<g id="edge7" class="edge">
<title>Node1&#45;&gt;Node8</title>
<path fill="none" stroke="#63b8ff" d="M128.03,-304.63C148.99,-310 171.81,-315.84 190.8,-320.7"/>
<polygon fill="#63b8ff" stroke="#63b8ff" points="189.65,-324.27 200.21,-323.36 191.39,-317.49 189.65,-324.27"/>
</g>
<!-- Node9 -->
<g id="node9" class="node">
<title>Node9</title>
<g id="a_node9"><a xlink:href="../../d8/d77/namespacemachine__learning.html#a496302e3371aa7b478cb7d5917904bdd" target="_top" xlink:title=" ">
<polygon fill="white" stroke="#666666" points="295,-303.5 173,-303.5 173,-273.5 295,-273.5 295,-303.5"/>
<text text-anchor="start" x="181" y="-291.5" font-family="Helvetica,sans-Serif" font-size="10.00">machine_learning::insert</text>
<text text-anchor="middle" x="234" y="-280.5" font-family="Helvetica,sans-Serif" font-size="10.00">_element</text>
</a>
</g>
</g>
<!-- Node1&#45;&gt;Node9 -->
<g id="edge8" class="edge">
<title>Node1&#45;&gt;Node9</title>
<path fill="none" stroke="#63b8ff" d="M128.03,-288.5C139.11,-288.5 150.71,-288.5 161.99,-288.5"/>
<polygon fill="#63b8ff" stroke="#63b8ff" points="161.67,-292 171.67,-288.5 161.67,-285 161.67,-292"/>
</g>
<!-- Node10 -->
<g id="node10" class="node">
<title>Node10</title>
<g id="a_node10"><a target="_blank" xlink:href="http://en.cppreference.com/w/cpp/io/basic_ifstream/is_open.html#" xlink:title=" ">
<polygon fill="white" stroke="#666666" points="289.5,-255 178.5,-255 178.5,-236 289.5,-236 289.5,-255"/>
<text text-anchor="middle" x="234" y="-243" font-family="Helvetica,sans-Serif" font-size="10.00">std::ifstream::is_open</text>
</a>
</g>
</g>
<!-- Node1&#45;&gt;Node10 -->
<g id="edge9" class="edge">
<title>Node1&#45;&gt;Node10</title>
<path fill="none" stroke="#63b8ff" d="M128.03,-272.37C146.39,-267.67 166.16,-262.61 183.55,-258.16"/>
<polygon fill="#63b8ff" stroke="#63b8ff" points="184.21,-261.34 193.03,-255.47 182.47,-254.56 184.21,-261.34"/>
</g>
<!-- Node11 -->
<g id="node11" class="node">
<title>Node11</title>
<g id="a_node11"><a xlink:href="../../d8/d77/namespacemachine__learning.html#ac332d152078e96311e43ac5e7183ea26" target="_top" xlink:title=" ">
<polygon fill="white" stroke="#666666" points="300.5,-389.5 167.5,-389.5 167.5,-359.5 300.5,-359.5 300.5,-389.5"/>
<text text-anchor="start" x="175.5" y="-377.5" font-family="Helvetica,sans-Serif" font-size="10.00">machine_learning::minmax</text>
<text text-anchor="middle" x="234" y="-366.5" font-family="Helvetica,sans-Serif" font-size="10.00">_scaler</text>
</a>
</g>
</g>
<!-- Node1&#45;&gt;Node11 -->
<g id="edge10" class="edge">
<title>Node1&#45;&gt;Node11</title>
<path fill="none" stroke="#63b8ff" d="M94.33,-309.32C113.52,-322.31 139.5,-338.75 164,-350.5 167.3,-352.08 170.74,-353.62 174.23,-355.09"/>
<polygon fill="#63b8ff" stroke="#63b8ff" points="172.6,-358.6 183.19,-359.07 175.2,-352.1 172.6,-358.6"/>
</g>
<!-- Node17 -->
<g id="node17" class="node">
<title>Node17</title>
<g id="a_node17"><a target="_blank" xlink:href="http://en.cppreference.com/w/cpp/io/basic_ifstream/open.html#" xlink:title=" ">
<polygon fill="white" stroke="#666666" points="283,-179 185,-179 185,-160 283,-160 283,-179"/>
<text text-anchor="middle" x="234" y="-167" font-family="Helvetica,sans-Serif" font-size="10.00">std::ifstream::open</text>
</a>
</g>
</g>
<!-- Node1&#45;&gt;Node17 -->
<g id="edge20" class="edge">
<title>Node1&#45;&gt;Node17</title>
<path fill="none" stroke="#63b8ff" d="M81.93,-267.64C100.19,-246.35 131.1,-213.66 164,-193.5 170.47,-189.54 177.68,-186.11 184.94,-183.2"/>
<polygon fill="#63b8ff" stroke="#63b8ff" points="185.99,-186.17 194.15,-179.41 183.56,-179.61 185.99,-186.17"/>
</g>
<!-- Node18 -->
<g id="node18" class="node">
<title>Node18</title>
<g id="a_node18"><a xlink:href="../../d8/d77/namespacemachine__learning.html#ae10178b082f0205c326550877d998e5d" target="_top" xlink:title=" ">
<polygon fill="white" stroke="#666666" points="304,-142 164,-142 164,-123 304,-123 304,-142"/>
<text text-anchor="middle" x="234" y="-130" font-family="Helvetica,sans-Serif" font-size="10.00">machine_learning::pop_back</text>
</a>
</g>
</g>
<!-- Node1&#45;&gt;Node18 -->
<g id="edge21" class="edge">
<title>Node1&#45;&gt;Node18</title>
<path fill="none" stroke="#63b8ff" d="M74.19,-267.69C88.73,-237.19 120.01,-180.72 164,-150.5 165.76,-149.29 167.6,-148.16 169.49,-147.11"/>
<polygon fill="#63b8ff" stroke="#63b8ff" points="170.81,-149.89 178.36,-142.46 167.82,-143.56 170.81,-149.89"/>
</g>
<!-- Node19 -->
<g id="node19" class="node">
<title>Node19</title>
<g id="a_node19"><a xlink:href="../../d8/d77/namespacemachine__learning.html#a912cf68863063a38d6e63545be5eb093" target="_top" xlink:title=" ">
<polygon fill="white" stroke="#666666" points="291,-104.5 177,-104.5 177,-74.5 291,-74.5 291,-104.5"/>
<text text-anchor="start" x="185" y="-92.5" font-family="Helvetica,sans-Serif" font-size="10.00">machine_learning::pop</text>
<text text-anchor="middle" x="234" y="-81.5" font-family="Helvetica,sans-Serif" font-size="10.00">_front</text>
</a>
</g>
</g>
<!-- Node1&#45;&gt;Node19 -->
<g id="edge22" class="edge">
<title>Node1&#45;&gt;Node19</title>
<path fill="none" stroke="#63b8ff" d="M71.29,-267.79C83.37,-231.41 113.21,-155.88 164,-113.5 165.22,-112.48 166.48,-111.51 167.78,-110.58"/>
<polygon fill="#63b8ff" stroke="#63b8ff" points="169.17,-113.21 175.85,-104.98 165.5,-107.26 169.17,-113.21"/>
</g>
<!-- Node20 -->
<g id="node20" class="node">
<title>Node20</title>
<g id="a_node20"><a target="_blank" xlink:href="http://en.cppreference.com/w/cpp/container/vector/push_back.html#" xlink:title=" ">
<polygon fill="white" stroke="#666666" points="292,-56 176,-56 176,-37 292,-37 292,-56"/>
<text text-anchor="middle" x="234" y="-44" font-family="Helvetica,sans-Serif" font-size="10.00">std::vector::push_back</text>
</a>
</g>
</g>
<!-- Node1&#45;&gt;Node20 -->
<g id="edge23" class="edge">
<title>Node1&#45;&gt;Node20</title>
<path fill="none" stroke="#63b8ff" d="M68.16,-267.77C75.98,-223.7 100.44,-120.22 164,-65.5 165.62,-64.1 167.34,-62.81 169.14,-61.6"/>
<polygon fill="#63b8ff" stroke="#63b8ff" points="170.57,-64.26 177.63,-56.35 167.18,-58.13 170.57,-64.26"/>
</g>
<!-- Node21 -->
<g id="node21" class="node">
<title>Node21</title>
<g id="a_node21"><a target="_blank" xlink:href="http://en.cppreference.com/w/cpp/string/basic_string/stof.html#" xlink:title=" ">
<polygon fill="white" stroke="#666666" points="261.5,-19 206.5,-19 206.5,0 261.5,0 261.5,-19"/>
<text text-anchor="middle" x="234" y="-7" font-family="Helvetica,sans-Serif" font-size="10.00">std::stod</text>
</a>
</g>
</g>
<!-- Node1&#45;&gt;Node21 -->
<g id="edge24" class="edge">
<title>Node1&#45;&gt;Node21</title>
<path fill="none" stroke="#63b8ff" d="M66.6,-267.66C71.54,-218.22 90.98,-93.07 164,-27.5 172.73,-19.66 184.44,-15.16 195.74,-12.6"/>
<polygon fill="#63b8ff" stroke="#63b8ff" points="196.11,-15.91 205.33,-10.69 194.87,-9.02 196.11,-15.91"/>
</g>
<!-- Node11&#45;&gt;Node5 -->
<g id="edge11" class="edge">
<title>Node11&#45;&gt;Node5</title>
<path fill="none" stroke="#63b8ff" d="M282.89,-389.88C290.11,-392.76 297.36,-395.99 304,-399.5 321.45,-408.73 321.55,-418.49 340,-425.5 389.55,-444.33 451.48,-446.94 490.27,-446.31"/>
<polygon fill="#63b8ff" stroke="#63b8ff" points="490.14,-449.79 500.05,-446.05 489.97,-442.8 490.14,-449.79"/>
</g>
<!-- Node11&#45;&gt;Node7 -->
<g id="edge12" class="edge">
<title>Node11&#45;&gt;Node7</title>
<path fill="none" stroke="#63b8ff" d="M289.32,-359.16C294.5,-356.66 299.49,-353.79 304,-350.5 325.53,-334.77 316.78,-315.61 340,-302.5 387.16,-275.86 451.74,-275.73 491.48,-278.96"/>
<polygon fill="#63b8ff" stroke="#63b8ff" points="490.96,-282.52 501.24,-279.97 491.61,-275.55 490.96,-282.52"/>
</g>
<!-- Node12 -->
<g id="node12" class="node">
<title>Node12</title>
<g id="a_node12"><a xlink:href="../../d8/d77/namespacemachine__learning.html#aa4bbf61e65f8cd297255fa94b983d078" target="_top" xlink:title=" ">
<polygon fill="white" stroke="#666666" points="452,-341.5 340,-341.5 340,-311.5 452,-311.5 452,-341.5"/>
<text text-anchor="start" x="348" y="-329.5" font-family="Helvetica,sans-Serif" font-size="10.00">machine_learning::get</text>
<text text-anchor="middle" x="396" y="-318.5" font-family="Helvetica,sans-Serif" font-size="10.00">_shape</text>
</a>
</g>
</g>
<!-- Node11&#45;&gt;Node12 -->
<g id="edge13" class="edge">
<title>Node11&#45;&gt;Node12</title>
<path fill="none" stroke="#63b8ff" d="M286.51,-359.05C301.35,-354.59 317.7,-349.69 333.11,-345.07"/>
<polygon fill="#63b8ff" stroke="#63b8ff" points="334.02,-348.15 342.59,-341.92 332.01,-341.44 334.02,-348.15"/>
</g>
<!-- Node14 -->
<g id="node14" class="node">
<title>Node14</title>
<g id="a_node14"><a target="_blank" xlink:href="http://en.cppreference.com/w/cpp/algorithm/max.html#" xlink:title=" ">
<polygon fill="white" stroke="#666666" points="423.5,-255 368.5,-255 368.5,-236 423.5,-236 423.5,-255"/>
<text text-anchor="middle" x="396" y="-243" font-family="Helvetica,sans-Serif" font-size="10.00">std::max</text>
</a>
</g>
</g>
<!-- Node11&#45;&gt;Node14 -->
<g id="edge17" class="edge">
<title>Node11&#45;&gt;Node14</title>
<path fill="none" stroke="#63b8ff" d="M292.17,-359.03C296.44,-356.59 300.45,-353.76 304,-350.5 333,-323.83 312.05,-297.26 340,-269.5 345.21,-264.32 351.73,-260.17 358.44,-256.88"/>
<polygon fill="#63b8ff" stroke="#63b8ff" points="359.47,-259.82 367.27,-252.65 356.7,-253.39 359.47,-259.82"/>
</g>
<!-- Node15 -->
<g id="node15" class="node">
<title>Node15</title>
<g id="a_node15"><a target="_blank" xlink:href="http://en.cppreference.com/w/cpp/algorithm/min.html#" xlink:title=" ">
<polygon fill="white" stroke="#666666" points="422,-416 370,-416 370,-397 422,-397 422,-416"/>
<text text-anchor="middle" x="396" y="-404" font-family="Helvetica,sans-Serif" font-size="10.00">std::min</text>
</a>
</g>
</g>
<!-- Node11&#45;&gt;Node15 -->
<g id="edge18" class="edge">
<title>Node11&#45;&gt;Node15</title>
<path fill="none" stroke="#63b8ff" d="M300.54,-387.61C320.5,-391.6 341.71,-395.84 358.96,-399.29"/>
<polygon fill="#63b8ff" stroke="#63b8ff" points="358.18,-402.91 368.67,-401.43 359.55,-396.04 358.18,-402.91"/>
</g>
<!-- Node16 -->
<g id="node16" class="node">
<title>Node16</title>
<g id="a_node16"><a target="_blank" xlink:href="http://en.cppreference.com/w/cpp/container/vector/size.html#" xlink:title=" ">
<polygon fill="white" stroke="#666666" points="439.5,-379 352.5,-379 352.5,-360 439.5,-360 439.5,-379"/>
<text text-anchor="middle" x="396" y="-367" font-family="Helvetica,sans-Serif" font-size="10.00">std::vector::size</text>
</a>
</g>
</g>
<!-- Node11&#45;&gt;Node16 -->
<g id="edge19" class="edge">
<title>Node11&#45;&gt;Node16</title>
<path fill="none" stroke="#63b8ff" d="M300.54,-372.45C314.16,-372.03 328.36,-371.58 341.48,-371.17"/>
<polygon fill="#63b8ff" stroke="#63b8ff" points="341.33,-374.65 351.22,-370.84 341.12,-367.65 341.33,-374.65"/>
</g>
<!-- Node12&#45;&gt;Node5 -->
<g id="edge14" class="edge">
<title>Node12&#45;&gt;Node5</title>
<path fill="none" stroke="#63b8ff" d="M436.74,-341.86C442.11,-344.69 447.35,-347.91 452,-351.5 479.03,-372.38 502.46,-404.75 515.77,-425.27"/>
<polygon fill="#63b8ff" stroke="#63b8ff" points="513.33,-426.96 521.63,-433.55 519.25,-423.22 513.33,-426.96"/>
</g>
<!-- Node12&#45;&gt;Node7 -->
<g id="edge15" class="edge">
<title>Node12&#45;&gt;Node7</title>
<path fill="none" stroke="#63b8ff" d="M443.74,-311.1C459.63,-305.86 477.12,-300.1 491.99,-295.2"/>
<polygon fill="#63b8ff" stroke="#63b8ff" points="492.89,-298.26 501.29,-291.81 490.7,-291.61 492.89,-298.26"/>
</g>
<!-- Node13 -->
<g id="node13" class="node">
<title>Node13</title>
<g id="a_node13"><a target="_blank" xlink:href="http://en.cppreference.com/w/cpp/utility/pair/make_pair.html#" xlink:title=" ">
<polygon fill="white" stroke="#666666" points="569,-336 488,-336 488,-317 569,-317 569,-336"/>
<text text-anchor="middle" x="528.5" y="-324" font-family="Helvetica,sans-Serif" font-size="10.00">std::make_pair</text>
</a>
</g>
</g>
<!-- Node12&#45;&gt;Node13 -->
<g id="edge16" class="edge">
<title>Node12&#45;&gt;Node13</title>
<path fill="none" stroke="#63b8ff" d="M452.34,-326.5C460.37,-326.5 468.6,-326.5 476.54,-326.5"/>
<polygon fill="#63b8ff" stroke="#63b8ff" points="476.51,-330 486.51,-326.5 476.51,-323 476.51,-330"/>
</g>
</g>
</svg>
