<?xml version="1.0" encoding="UTF-8" standalone="no"?>
<!DOCTYPE svg PUBLIC "-//W3C//DTD SVG 1.1//EN"
 "http://www.w3.org/Graphics/SVG/1.1/DTD/svg11.dtd">
<!-- Generated by graphviz version 12.1.1 (20240910.0053)
 -->
<!-- Title: machine_learning::neural_network::NeuralNetwork::evaluate Pages: 1 -->
<svg width="914pt" height="452pt"
 viewBox="0.00 0.00 914.00 452.25" xmlns="http://www.w3.org/2000/svg" xmlns:xlink="http://www.w3.org/1999/xlink">
<g id="graph0" class="graph" transform="scale(1 1) rotate(0) translate(4 448.25)">
<title>machine_learning::neural_network::NeuralNetwork::evaluate</title>
<!-- Node1 -->
<g id="Node000001" class="node">
<title>Node1</title>
<g id="a_Node000001"><a xlink:title=" ">
<polygon fill="#999999" stroke="#666666" points="127,-218.5 0,-218.5 0,-176.75 127,-176.75 127,-218.5"/>
<text text-anchor="start" x="8" y="-205" font-family="Helvetica,sans-Serif" font-size="10.00">machine_learning::neural</text>
<text text-anchor="start" x="8" y="-193.75" font-family="Helvetica,sans-Serif" font-size="10.00">_network::NeuralNetwork</text>
<text text-anchor="middle" x="63.5" y="-182.5" font-family="Helvetica,sans-Serif" font-size="10.00">::evaluate</text>
</a>
</g>
</g>
<!-- Node2 -->
<g id="Node000002" class="node">
<title>Node2</title>
<g id="a_Node000002"><a xlink:href="../../d8/d77/namespacemachine__learning.html#ad0bdc88e5f1be47c46c0f0c8ebf754bb" target="_top" xlink:title=" ">
<polygon fill="white" stroke="#666666" points="632.5,-335.88 511.5,-335.88 511.5,-305.38 632.5,-305.38 632.5,-335.88"/>
<text text-anchor="start" x="519.5" y="-322.38" font-family="Helvetica,sans-Serif" font-size="10.00">machine_learning::apply</text>
<text text-anchor="middle" x="572" y="-311.12" font-family="Helvetica,sans-Serif" font-size="10.00">_function</text>
</a>
</g>
</g>
<!-- Node1&#45;&gt;Node2 -->
<g id="edge1_Node000001_Node000002" class="edge">
<title>Node1&#45;&gt;Node2</title>
<g id="a_edge1_Node000001_Node000002"><a xlink:title=" ">
<path fill="none" stroke="#63b8ff" d="M81.58,-218.81C99.48,-239.32 129.6,-269.34 163,-283.62 273.39,-330.83 415.61,-331.87 499.67,-327.1"/>
<polygon fill="#63b8ff" stroke="#63b8ff" points="499.86,-330.6 509.63,-326.49 499.43,-323.61 499.86,-330.6"/>
</a>
</g>
</g>
<!-- Node3 -->
<g id="Node000003" class="node">
<title>Node3</title>
<g id="a_Node000003"><a xlink:href="../../d8/d77/namespacemachine__learning.html#a50480fccfb39de20ca47f1bf51ecb6ec" target="_top" xlink:title=" ">
<polygon fill="white" stroke="#666666" points="637,-207.25 507,-207.25 507,-188 637,-188 637,-207.25"/>
<text text-anchor="middle" x="572" y="-193.75" font-family="Helvetica,sans-Serif" font-size="10.00">machine_learning::argmax</text>
</a>
</g>
</g>
<!-- Node1&#45;&gt;Node3 -->
<g id="edge2_Node000001_Node000003" class="edge">
<title>Node1&#45;&gt;Node3</title>
<g id="a_edge2_Node000001_Node000003"><a xlink:title=" ">
<path fill="none" stroke="#63b8ff" d="M127.37,-197.62C220.61,-197.62 395.28,-197.62 495.37,-197.62"/>
<polygon fill="#63b8ff" stroke="#63b8ff" points="495.09,-201.13 505.09,-197.63 495.09,-194.13 495.09,-201.13"/>
</a>
</g>
</g>
<!-- Node7 -->
<g id="Node000007" class="node">
<title>Node7</title>
<g id="a_Node000007"><a target="_blank" xlink:href="http://en.cppreference.com/w/cpp/io/manip/endl.html#" xlink:title=" ">
<polygon fill="white" stroke="#666666" points="892.5,-189.25 839,-189.25 839,-170 892.5,-170 892.5,-189.25"/>
<text text-anchor="middle" x="865.75" y="-175.75" font-family="Helvetica,sans-Serif" font-size="10.00">std::endl</text>
</a>
</g>
</g>
<!-- Node1&#45;&gt;Node7 -->
<g id="edge13_Node000001_Node000007" class="edge">
<title>Node1&#45;&gt;Node7</title>
<g id="a_edge13_Node000001_Node000007"><a xlink:title=" ">
<path fill="none" stroke="#63b8ff" d="M90.7,-176.45C144.6,-135.1 273.28,-47.62 397.12,-47.62 397.12,-47.62 397.12,-47.62 573,-47.62 670.77,-47.62 705.36,-36.83 789.5,-86.62 819.03,-104.1 841.78,-137.75 854.21,-159.42"/>
<polygon fill="#63b8ff" stroke="#63b8ff" points="851.14,-161.1 859.02,-168.19 857.28,-157.74 851.14,-161.1"/>
</a>
</g>
</g>
<!-- Node12 -->
<g id="Node000012" class="node">
<title>Node12</title>
<g id="a_Node000012"><a xlink:href="../../d4/df4/classmachine__learning_1_1neural__network_1_1_neural_network.html#a3b9eac1824d365dce715fb17c33cb96f" target="_top" xlink:title=" ">
<polygon fill="white" stroke="#666666" points="290,-274.5 163,-274.5 163,-232.75 290,-232.75 290,-274.5"/>
<text text-anchor="start" x="171" y="-261" font-family="Helvetica,sans-Serif" font-size="10.00">machine_learning::neural</text>
<text text-anchor="start" x="171" y="-249.75" font-family="Helvetica,sans-Serif" font-size="10.00">_network::NeuralNetwork</text>
<text text-anchor="middle" x="226.5" y="-238.5" font-family="Helvetica,sans-Serif" font-size="10.00">::single_predict</text>
</a>
</g>
</g>
<!-- Node1&#45;&gt;Node12 -->
<g id="edge14_Node000001_Node000012" class="edge">
<title>Node1&#45;&gt;Node12</title>
<g id="a_edge14_Node000001_Node000012"><a xlink:title=" ">
<path fill="none" stroke="#63b8ff" d="M125.83,-218.96C134.83,-222.09 144.18,-225.34 153.38,-228.54"/>
<polygon fill="#63b8ff" stroke="#63b8ff" points="152.05,-231.78 162.65,-231.76 154.35,-225.17 152.05,-231.78"/>
</a>
</g>
</g>
<!-- Node17 -->
<g id="Node000017" class="node">
<title>Node17</title>
<g id="a_Node000017"><a xlink:href="../../d8/d77/namespacemachine__learning.html#a6f1c98c016ad34ff3d9f39372161bd35" target="_top" xlink:title=" ">
<polygon fill="white" stroke="#666666" points="284.75,-19.25 168.25,-19.25 168.25,0 284.75,0 284.75,-19.25"/>
<text text-anchor="middle" x="226.5" y="-5.75" font-family="Helvetica,sans-Serif" font-size="10.00">machine_learning::sum</text>
</a>
</g>
</g>
<!-- Node1&#45;&gt;Node17 -->
<g id="edge23_Node000001_Node000017" class="edge">
<title>Node1&#45;&gt;Node17</title>
<g id="a_edge23_Node000001_Node000017"><a xlink:title=" ">
<path fill="none" stroke="#63b8ff" d="M71.95,-176.45C85.13,-141.92 115.68,-73.34 163,-33.62 167.18,-30.12 171.92,-27.09 176.88,-24.49"/>
<polygon fill="#63b8ff" stroke="#63b8ff" points="178.27,-27.7 185.89,-20.35 175.35,-21.34 178.27,-27.7"/>
</a>
</g>
</g>
<!-- Node4 -->
<g id="Node000004" class="node">
<title>Node4</title>
<g id="a_Node000004"><a target="_blank" xlink:href="http://en.cppreference.com/w/cpp/iterator/begin.html#" xlink:title=" ">
<polygon fill="white" stroke="#666666" points="761,-207.25 702.25,-207.25 702.25,-188 761,-188 761,-207.25"/>
<text text-anchor="middle" x="731.62" y="-193.75" font-family="Helvetica,sans-Serif" font-size="10.00">std::begin</text>
</a>
</g>
</g>
<!-- Node3&#45;&gt;Node4 -->
<g id="edge3_Node000003_Node000004" class="edge">
<title>Node3&#45;&gt;Node4</title>
<g id="a_edge3_Node000003_Node000004"><a xlink:title=" ">
<path fill="none" stroke="#63b8ff" d="M637.11,-197.62C655.22,-197.62 674.4,-197.62 690.64,-197.62"/>
<polygon fill="#63b8ff" stroke="#63b8ff" points="690.38,-201.13 700.38,-197.63 690.38,-194.13 690.38,-201.13"/>
</a>
</g>
</g>
<!-- Node5 -->
<g id="Node000005" class="node">
<title>Node5</title>
<g id="a_Node000005"><a target="_blank" xlink:href="http://en.cppreference.com/w/cpp/iterator/distance.html#" xlink:title=" ">
<polygon fill="white" stroke="#666666" points="767.75,-170.25 695.5,-170.25 695.5,-151 767.75,-151 767.75,-170.25"/>
<text text-anchor="middle" x="731.62" y="-156.75" font-family="Helvetica,sans-Serif" font-size="10.00">std::distance</text>
</a>
</g>
</g>
<!-- Node3&#45;&gt;Node5 -->
<g id="edge4_Node000003_Node000005" class="edge">
<title>Node3&#45;&gt;Node5</title>
<g id="a_edge4_Node000003_Node000005"><a xlink:title=" ">
<path fill="none" stroke="#63b8ff" d="M616.07,-187.51C637.09,-182.58 662.41,-176.64 683.89,-171.6"/>
<polygon fill="#63b8ff" stroke="#63b8ff" points="684.65,-175.01 693.58,-169.32 683.05,-168.2 684.65,-175.01"/>
</a>
</g>
</g>
<!-- Node6 -->
<g id="Node000006" class="node">
<title>Node6</title>
<g id="a_Node000006"><a target="_blank" xlink:href="http://en.cppreference.com/w/cpp/iterator/end.html#" xlink:title=" ">
<polygon fill="white" stroke="#666666" points="757.25,-133.25 706,-133.25 706,-114 757.25,-114 757.25,-133.25"/>
<text text-anchor="middle" x="731.62" y="-119.75" font-family="Helvetica,sans-Serif" font-size="10.00">std::end</text>
</a>
</g>
</g>
<!-- Node3&#45;&gt;Node6 -->
<g id="edge5_Node000003_Node000006" class="edge">
<title>Node3&#45;&gt;Node6</title>
<g id="a_edge5_Node000003_Node000006"><a xlink:title=" ">
<path fill="none" stroke="#63b8ff" d="M588.55,-187.68C607.93,-175.6 642.32,-155.17 673.75,-141.62 680.43,-138.75 687.72,-136.09 694.79,-133.76"/>
<polygon fill="#63b8ff" stroke="#63b8ff" points="695.66,-137.15 704.15,-130.82 693.56,-130.48 695.66,-137.15"/>
</a>
</g>
</g>
<!-- Node3&#45;&gt;Node7 -->
<g id="edge6_Node000003_Node000007" class="edge">
<title>Node3&#45;&gt;Node7</title>
<g id="a_edge6_Node000003_Node000007"><a xlink:title=" ">
<path fill="none" stroke="#63b8ff" d="M579.63,-187.8C593.96,-167.57 630.08,-121.7 673.75,-104.62 721.66,-85.89 741.96,-84.98 789.5,-104.62 816.56,-115.81 838.99,-141.96 852.13,-160.21"/>
<polygon fill="#63b8ff" stroke="#63b8ff" points="849.2,-162.13 857.75,-168.39 854.97,-158.17 849.2,-162.13"/>
</a>
</g>
</g>
<!-- Node8 -->
<g id="Node000008" class="node">
<title>Node8</title>
<g id="a_Node000008"><a target="_blank" xlink:href="http://en.cppreference.com/w/cpp/utility/program/exit.html#" xlink:title=" ">
<polygon fill="white" stroke="#666666" points="891.38,-368.25 840.12,-368.25 840.12,-349 891.38,-349 891.38,-368.25"/>
<text text-anchor="middle" x="865.75" y="-354.75" font-family="Helvetica,sans-Serif" font-size="10.00">std::exit</text>
</a>
</g>
</g>
<!-- Node3&#45;&gt;Node8 -->
<g id="edge7_Node000003_Node000008" class="edge">
<title>Node3&#45;&gt;Node8</title>
<g id="a_edge7_Node000003_Node000008"><a xlink:title=" ">
<path fill="none" stroke="#63b8ff" d="M617.09,-207.7C624.76,-211.09 632.08,-215.61 637.75,-221.62 675.36,-261.52 631.35,-304.85 673.75,-339.62 717.32,-375.36 786.67,-372.18 828.73,-365.9"/>
<polygon fill="#63b8ff" stroke="#63b8ff" points="829.03,-369.39 838.33,-364.32 827.9,-362.49 829.03,-369.39"/>
</a>
</g>
</g>
<!-- Node9 -->
<g id="Node000009" class="node">
<title>Node9</title>
<g id="a_Node000009"><a xlink:href="../../d8/d77/namespacemachine__learning.html#aa4bbf61e65f8cd297255fa94b983d078" target="_top" xlink:title=" ">
<polygon fill="white" stroke="#666666" points="787.25,-330.88 676,-330.88 676,-300.38 787.25,-300.38 787.25,-330.88"/>
<text text-anchor="start" x="684" y="-317.38" font-family="Helvetica,sans-Serif" font-size="10.00">machine_learning::get</text>
<text text-anchor="middle" x="731.62" y="-306.12" font-family="Helvetica,sans-Serif" font-size="10.00">_shape</text>
</a>
</g>
</g>
<!-- Node3&#45;&gt;Node9 -->
<g id="edge8_Node000003_Node000009" class="edge">
<title>Node3&#45;&gt;Node9</title>
<g id="a_edge8_Node000003_Node000009"><a xlink:title=" ">
<path fill="none" stroke="#63b8ff" d="M608.6,-207.67C618.47,-211.28 628.89,-215.9 637.75,-221.62 653.54,-231.82 687.17,-267.48 709.33,-291.83"/>
<polygon fill="#63b8ff" stroke="#63b8ff" points="706.61,-294.03 715.91,-299.09 711.8,-289.33 706.61,-294.03"/>
</a>
</g>
</g>
<!-- Node11 -->
<g id="Node000011" class="node">
<title>Node11</title>
<g id="a_Node000011"><a target="_blank" xlink:href="http://en.cppreference.com/w/cpp/algorithm/max_element.html#" xlink:title=" ">
<polygon fill="white" stroke="#666666" points="778.62,-244.25 684.62,-244.25 684.62,-225 778.62,-225 778.62,-244.25"/>
<text text-anchor="middle" x="731.62" y="-230.75" font-family="Helvetica,sans-Serif" font-size="10.00">std::max_element</text>
</a>
</g>
</g>
<!-- Node3&#45;&gt;Node11 -->
<g id="edge12_Node000003_Node000011" class="edge">
<title>Node3&#45;&gt;Node11</title>
<g id="a_edge12_Node000003_Node000011"><a xlink:title=" ">
<path fill="none" stroke="#63b8ff" d="M616.07,-207.74C634.75,-212.12 656.83,-217.3 676.59,-221.94"/>
<polygon fill="#63b8ff" stroke="#63b8ff" points="675.6,-225.3 686.13,-224.18 677.2,-218.49 675.6,-225.3"/>
</a>
</g>
</g>
<!-- Node9&#45;&gt;Node7 -->
<g id="edge9_Node000009_Node000007" class="edge">
<title>Node9&#45;&gt;Node7</title>
<g id="a_edge9_Node000009_Node000007"><a xlink:title=" ">
<path fill="none" stroke="#63b8ff" d="M769.79,-300C776.73,-296.18 783.64,-291.71 789.5,-286.62 818.39,-261.55 841.84,-223.15 854.5,-199.82"/>
<polygon fill="#63b8ff" stroke="#63b8ff" points="857.56,-201.51 859.12,-191.03 851.37,-198.25 857.56,-201.51"/>
</a>
</g>
</g>
<!-- Node9&#45;&gt;Node8 -->
<g id="edge10_Node000009_Node000008" class="edge">
<title>Node9&#45;&gt;Node8</title>
<g id="a_edge10_Node000009_Node000008"><a xlink:title=" ">
<path fill="none" stroke="#63b8ff" d="M780.7,-331.27C796.69,-336.48 814.21,-342.18 829.09,-347.02"/>
<polygon fill="#63b8ff" stroke="#63b8ff" points="827.86,-350.3 838.45,-350.07 830.02,-343.64 827.86,-350.3"/>
</a>
</g>
</g>
<!-- Node10 -->
<g id="Node000010" class="node">
<title>Node10</title>
<g id="a_Node000010"><a target="_blank" xlink:href="http://en.cppreference.com/w/cpp/utility/pair/make_pair.html#" xlink:title=" ">
<polygon fill="white" stroke="#666666" points="906,-325.25 825.5,-325.25 825.5,-306 906,-306 906,-325.25"/>
<text text-anchor="middle" x="865.75" y="-311.75" font-family="Helvetica,sans-Serif" font-size="10.00">std::make_pair</text>
</a>
</g>
</g>
<!-- Node9&#45;&gt;Node10 -->
<g id="edge11_Node000009_Node000010" class="edge">
<title>Node9&#45;&gt;Node10</title>
<g id="a_edge11_Node000009_Node000010"><a xlink:title=" ">
<path fill="none" stroke="#63b8ff" d="M787.51,-315.62C796.19,-315.62 805.13,-315.62 813.71,-315.62"/>
<polygon fill="#63b8ff" stroke="#63b8ff" points="813.62,-319.13 823.62,-315.63 813.62,-312.13 813.62,-319.13"/>
</a>
</g>
</g>
<!-- Node13 -->
<g id="Node000013" class="node">
<title>Node13</title>
<g id="a_Node000013"><a xlink:href="../../d4/df4/classmachine__learning_1_1neural__network_1_1_neural_network.html#a361a45f3c3d8347d79103bf182d0570b" target="_top" xlink:title=" ">
<polygon fill="white" stroke="#666666" points="470.25,-274.5 326,-274.5 326,-232.75 470.25,-232.75 470.25,-274.5"/>
<text text-anchor="start" x="334" y="-261" font-family="Helvetica,sans-Serif" font-size="10.00">machine_learning::neural</text>
<text text-anchor="start" x="334" y="-249.75" font-family="Helvetica,sans-Serif" font-size="10.00">_network::NeuralNetwork</text>
<text text-anchor="middle" x="398.12" y="-238.5" font-family="Helvetica,sans-Serif" font-size="10.00">::__detailed_single_prediction</text>
</a>
</g>
</g>
<!-- Node12&#45;&gt;Node13 -->
<g id="edge15_Node000012_Node000013" class="edge">
<title>Node12&#45;&gt;Node13</title>
<g id="a_edge15_Node000012_Node000013"><a xlink:title=" ">
<path fill="none" stroke="#63b8ff" d="M290.18,-253.62C298.01,-253.62 306.1,-253.62 314.18,-253.62"/>
<polygon fill="#63b8ff" stroke="#63b8ff" points="314.03,-257.13 324.03,-253.63 314.03,-250.13 314.03,-257.13"/>
</a>
</g>
</g>
<!-- Node13&#45;&gt;Node2 -->
<g id="edge16_Node000013_Node000002" class="edge">
<title>Node13&#45;&gt;Node2</title>
<g id="a_edge16_Node000013_Node000002"><a xlink:title=" ">
<path fill="none" stroke="#63b8ff" d="M451.32,-274.9C468.75,-281.92 488.3,-289.7 506.25,-296.62 509.88,-298.03 513.64,-299.46 517.42,-300.89"/>
<polygon fill="#63b8ff" stroke="#63b8ff" points="516.09,-304.13 526.68,-304.37 518.55,-297.58 516.09,-304.13"/>
</a>
</g>
</g>
<!-- Node14 -->
<g id="Node000014" class="node">
<title>Node14</title>
<g id="a_Node000014"><a target="_blank" xlink:href="http://en.cppreference.com/w/cpp/container/vector/emplace_back.html#" xlink:title=" ">
<polygon fill="white" stroke="#666666" points="637.75,-250.25 506.25,-250.25 506.25,-231 637.75,-231 637.75,-250.25"/>
<text text-anchor="middle" x="572" y="-236.75" font-family="Helvetica,sans-Serif" font-size="10.00">std::vector::emplace_back</text>
</a>
</g>
</g>
<!-- Node13&#45;&gt;Node14 -->
<g id="edge17_Node000013_Node000014" class="edge">
<title>Node13&#45;&gt;Node14</title>
<g id="a_edge17_Node000013_Node000014"><a xlink:title=" ">
<path fill="none" stroke="#63b8ff" d="M470.52,-248.22C478.48,-247.62 486.62,-247.01 494.64,-246.4"/>
<polygon fill="#63b8ff" stroke="#63b8ff" points="494.65,-249.91 504.36,-245.67 494.13,-242.93 494.65,-249.91"/>
</a>
</g>
</g>
<!-- Node15 -->
<g id="Node000015" class="node">
<title>Node15</title>
<g id="a_Node000015"><a xlink:href="../../d8/d77/namespacemachine__learning.html#a5342906d42b80fc6b6b3ad17bf00fcb9" target="_top" xlink:title=" ">
<polygon fill="white" stroke="#666666" points="637.75,-287.25 506.25,-287.25 506.25,-268 637.75,-268 637.75,-287.25"/>
<text text-anchor="middle" x="572" y="-273.75" font-family="Helvetica,sans-Serif" font-size="10.00">machine_learning::multiply</text>
</a>
</g>
</g>
<!-- Node13&#45;&gt;Node15 -->
<g id="edge18_Node000013_Node000015" class="edge">
<title>Node13&#45;&gt;Node15</title>
<g id="a_edge18_Node000013_Node000015"><a xlink:title=" ">
<path fill="none" stroke="#63b8ff" d="M470.52,-263.59C478.48,-264.71 486.62,-265.84 494.64,-266.96"/>
<polygon fill="#63b8ff" stroke="#63b8ff" points="493.98,-270.4 504.37,-268.32 494.95,-263.47 493.98,-270.4"/>
</a>
</g>
</g>
<!-- Node15&#45;&gt;Node7 -->
<g id="edge19_Node000015_Node000007" class="edge">
<title>Node15&#45;&gt;Node7</title>
<g id="a_edge19_Node000015_Node000007"><a xlink:title=" ">
<path fill="none" stroke="#63b8ff" d="M638.06,-281.31C682.71,-281.29 742.2,-276.11 789.5,-253.62 815.61,-241.21 838.12,-215.99 851.55,-198.46"/>
<polygon fill="#63b8ff" stroke="#63b8ff" points="854.03,-201 857.14,-190.87 848.4,-196.84 854.03,-201"/>
</a>
</g>
</g>
<!-- Node15&#45;&gt;Node8 -->
<g id="edge20_Node000015_Node000008" class="edge">
<title>Node15&#45;&gt;Node8</title>
<g id="a_edge20_Node000015_Node000008"><a xlink:title=" ">
<path fill="none" stroke="#63b8ff" d="M623.31,-287.64C628.53,-290.02 633.47,-292.97 637.75,-296.62 666.17,-320.9 642.17,-352.64 673.75,-372.62 721.39,-402.77 789.71,-386.84 830.42,-372.65"/>
<polygon fill="#63b8ff" stroke="#63b8ff" points="831.52,-375.97 839.71,-369.25 829.11,-369.4 831.52,-375.97"/>
</a>
</g>
</g>
<!-- Node15&#45;&gt;Node9 -->
<g id="edge21_Node000015_Node000009" class="edge">
<title>Node15&#45;&gt;Node9</title>
<g id="a_edge21_Node000015_Node000009"><a xlink:title=" ">
<path fill="none" stroke="#63b8ff" d="M614.83,-287.71C630.09,-291.39 647.75,-295.64 664.6,-299.71"/>
<polygon fill="#63b8ff" stroke="#63b8ff" points="663.51,-303.05 674.06,-301.99 665.15,-296.24 663.51,-303.05"/>
</a>
</g>
</g>
<!-- Node16 -->
<g id="Node000016" class="node">
<title>Node16</title>
<g id="a_Node000016"><a target="_blank" xlink:href="http://en.cppreference.com/w/cpp/container/vector/push_back.html#" xlink:title=" ">
<polygon fill="white" stroke="#666666" points="789.5,-444.25 673.75,-444.25 673.75,-425 789.5,-425 789.5,-444.25"/>
<text text-anchor="middle" x="731.62" y="-430.75" font-family="Helvetica,sans-Serif" font-size="10.00">std::vector::push_back</text>
</a>
</g>
</g>
<!-- Node15&#45;&gt;Node16 -->
<g id="edge22_Node000015_Node000016" class="edge">
<title>Node15&#45;&gt;Node16</title>
<g id="a_edge22_Node000015_Node000016"><a xlink:title=" ">
<path fill="none" stroke="#63b8ff" d="M625.09,-287.71C629.74,-290.09 634.07,-293.02 637.75,-296.62 675.7,-333.81 637.97,-371.34 673.75,-410.62 676.63,-413.78 679.98,-416.54 683.6,-418.94"/>
<polygon fill="#63b8ff" stroke="#63b8ff" points="681.88,-421.99 692.33,-423.78 685.28,-415.87 681.88,-421.99"/>
</a>
</g>
</g>
</g>
</svg>
