<?xml version="1.0" encoding="UTF-8" standalone="no"?>
<!DOCTYPE svg PUBLIC "-//W3C//DTD SVG 1.1//EN"
 "http://www.w3.org/Graphics/SVG/1.1/DTD/svg11.dtd">
<!-- Generated by graphviz version 5.0.0 (20220707.1540)
 -->
<!-- Title: machine_learning::neural_network::NeuralNetwork::evaluate_from_csv Pages: 1 -->
<!--zoomable 855 -->
<svg id="main" version="1.1" xmlns="http://www.w3.org/2000/svg" xmlns:xlink="http://www.w3.org/1999/xlink" xml:space="preserve" onload="init(evt)">
<style type="text/css"><![CDATA[
.edge:hover path { stroke: red; }
.edge:hover polygon { stroke: red; fill: red; }
]]></style>
<script type="text/javascript"><![CDATA[
var edges = document.getElementsByTagName('g');
if (edges && edges.length) {
  for (var i=0;i<edges.length;i++) {
    if (edges[i].id.substr(0,4)=='edge') {
      edges[i].setAttribute('class','edge');
    }
  }
}
]]></script>
        <defs>
                <circle id="rim" cx="0" cy="0" r="7"/>
                <circle id="rim2" cx="0" cy="0" r="3.5"/>
                <g id="zoomPlus">
                        <use xlink:href="#rim" fill="#404040">
                                <set attributeName="fill" to="#808080" begin="zoomplus.mouseover" end="zoomplus.mouseout"/>
                        </use>
                        <path d="M-4,0h8M0,-4v8" fill="none" stroke="white" stroke-width="1.5" pointer-events="none"/>
                </g>
                <g id="zoomMin">
                        <use xlink:href="#rim" fill="#404040">
                                <set attributeName="fill" to="#808080" begin="zoomminus.mouseover" end="zoomminus.mouseout"/>
                        </use>
                        <path d="M-4,0h8" fill="none" stroke="white" stroke-width="1.5" pointer-events="none"/>
                </g>
                <g id="dirArrow">
                        <path fill="none" stroke="white" stroke-width="1.5" d="M0,-3.0v7 M-2.5,-0.5L0,-3.0L2.5,-0.5"/>
                </g>
               <g id="resetDef">
                       <use xlink:href="#rim2" fill="#404040">
                               <set attributeName="fill" to="#808080" begin="reset.mouseover" end="reset.mouseout"/>
                       </use>
               </g>
        </defs>

<script type="text/javascript">
var viewWidth = 973;
var viewHeight = 855;
var sectionId = 'dynsection-6';
</script>
<script xlink:href="../../svgpan.js"/>
<svg id="graph" class="graph">
<g id="viewport">
<title>machine_learning::neural_network::NeuralNetwork::evaluate_from_csv</title>
<polygon fill="white" stroke="transparent" points="-4,4 -4,-851 969,-851 969,4 -4,4"/>
<!-- Node1 -->
<g id="node1" class="node">
<title>Node1</title>
<g id="a_node1"><a xlink:title=" ">
<polygon fill="#bfbfbf" stroke="black" points="0,-490.5 0,-531.5 128,-531.5 128,-490.5 0,-490.5"/>
<text text-anchor="start" x="8" y="-519.5" font-family="Helvetica,sans-Serif" font-size="10.00">machine_learning::neural</text>
<text text-anchor="start" x="8" y="-508.5" font-family="Helvetica,sans-Serif" font-size="10.00">_network::NeuralNetwork</text>
<text text-anchor="middle" x="64" y="-497.5" font-family="Helvetica,sans-Serif" font-size="10.00">::evaluate_from_csv</text>
</a>
</g>
</g>
<!-- Node2 -->
<g id="node2" class="node">
<title>Node2</title>
<g id="a_node2"><a xlink:href="../../d4/df4/classmachine__learning_1_1neural__network_1_1_neural_network.html#aec648ea4f40bd71123b5f907a681dd8e" target="_top" xlink:title=" ">
<polygon fill="white" stroke="black" points="164,-701.5 164,-742.5 292,-742.5 292,-701.5 164,-701.5"/>
<text text-anchor="start" x="172" y="-730.5" font-family="Helvetica,sans-Serif" font-size="10.00">machine_learning::neural</text>
<text text-anchor="start" x="172" y="-719.5" font-family="Helvetica,sans-Serif" font-size="10.00">_network::NeuralNetwork</text>
<text text-anchor="middle" x="228" y="-708.5" font-family="Helvetica,sans-Serif" font-size="10.00">::evaluate</text>
</a>
</g>
</g>
<!-- Node1&#45;&gt;Node2 -->
<g id="edge1" class="edge">
<title>Node1&#45;&gt;Node2</title>
<path fill="none" stroke="midnightblue" d="M80.83,-531.62C109.86,-569.43 171.7,-649.97 204.87,-693.18"/>
<polygon fill="midnightblue" stroke="midnightblue" points="202.24,-695.5 211.11,-701.3 207.79,-691.24 202.24,-695.5"/>
</g>
<!-- Node18 -->
<g id="node18" class="node">
<title>Node18</title>
<g id="a_node18"><a xlink:href="../../d4/df4/classmachine__learning_1_1neural__network_1_1_neural_network.html#a650c677fd6512665741ddd9b7983275d" target="_top" xlink:title=" ">
<polygon fill="white" stroke="black" points="500.5,-298.5 500.5,-339.5 628.5,-339.5 628.5,-298.5 500.5,-298.5"/>
<text text-anchor="start" x="508.5" y="-327.5" font-family="Helvetica,sans-Serif" font-size="10.00">machine_learning::neural</text>
<text text-anchor="start" x="508.5" y="-316.5" font-family="Helvetica,sans-Serif" font-size="10.00">_network::NeuralNetwork</text>
<text text-anchor="middle" x="564.5" y="-305.5" font-family="Helvetica,sans-Serif" font-size="10.00">::get_XY_from_csv</text>
</a>
</g>
</g>
<!-- Node1&#45;&gt;Node18 -->
<g id="edge22" class="edge">
<title>Node1&#45;&gt;Node18</title>
<path fill="none" stroke="midnightblue" d="M118.35,-490.45C211.08,-454.74 401.55,-381.38 500.58,-343.23"/>
<polygon fill="midnightblue" stroke="midnightblue" points="502.09,-346.4 510.16,-339.54 499.57,-339.87 502.09,-346.4"/>
</g>
<!-- Node3 -->
<g id="node3" class="node">
<title>Node3</title>
<g id="a_node3"><a xlink:href="../../d8/d77/namespacemachine__learning.html#ad0bdc88e5f1be47c46c0f0c8ebf754bb" target="_top" xlink:title=" ">
<polygon fill="white" stroke="black" points="682,-683 682,-713 804,-713 804,-683 682,-683"/>
<text text-anchor="start" x="690" y="-701" font-family="Helvetica,sans-Serif" font-size="10.00">machine_learning::apply</text>
<text text-anchor="middle" x="743" y="-690" font-family="Helvetica,sans-Serif" font-size="10.00">_function</text>
</a>
</g>
</g>
<!-- Node2&#45;&gt;Node3 -->
<g id="edge2" class="edge">
<title>Node2&#45;&gt;Node3</title>
<path fill="none" stroke="midnightblue" d="M292.16,-719.05C388.48,-714.54 571.44,-705.98 671.8,-701.28"/>
<polygon fill="midnightblue" stroke="midnightblue" points="672.01,-704.78 681.84,-700.81 671.69,-697.79 672.01,-704.78"/>
</g>
<!-- Node4 -->
<g id="node4" class="node">
<title>Node4</title>
<g id="a_node4"><a xlink:href="../../d8/d77/namespacemachine__learning.html#a50480fccfb39de20ca47f1bf51ecb6ec" target="_top" xlink:title=" ">
<polygon fill="white" stroke="black" points="677.5,-770.5 677.5,-789.5 808.5,-789.5 808.5,-770.5 677.5,-770.5"/>
<text text-anchor="middle" x="743" y="-777.5" font-family="Helvetica,sans-Serif" font-size="10.00">machine_learning::argmax</text>
</a>
</g>
</g>
<!-- Node2&#45;&gt;Node4 -->
<g id="edge3" class="edge">
<title>Node2&#45;&gt;Node4</title>
<path fill="none" stroke="midnightblue" d="M247.87,-742.75C266.23,-761.29 295.99,-787.13 328,-798 456.76,-841.72 621.07,-811.07 698.24,-792.03"/>
<polygon fill="midnightblue" stroke="midnightblue" points="699.26,-795.39 708.1,-789.55 697.55,-788.6 699.26,-795.39"/>
</g>
<!-- Node8 -->
<g id="node8" class="node">
<title>Node8</title>
<g id="a_node8"><a target="_blank" xlink:href="http://en.cppreference.com/w/cpp/io/manip/endl.html#" xlink:title=" ">
<polygon fill="white" stroke="black" points="880,-609.5 880,-628.5 934,-628.5 934,-609.5 880,-609.5"/>
<text text-anchor="middle" x="907" y="-616.5" font-family="Helvetica,sans-Serif" font-size="10.00">std::endl</text>
</a>
</g>
</g>
<!-- Node2&#45;&gt;Node8 -->
<g id="edge11" class="edge">
<title>Node2&#45;&gt;Node8</title>
<path fill="none" stroke="midnightblue" d="M292.26,-728.47C423.73,-740.88 721.79,-763.3 813,-722 851.75,-704.45 881.29,-662.12 895.89,-637.53"/>
<polygon fill="midnightblue" stroke="midnightblue" points="898.97,-639.19 900.9,-628.78 892.89,-635.72 898.97,-639.19"/>
</g>
<!-- Node12 -->
<g id="node12" class="node">
<title>Node12</title>
<g id="a_node12"><a xlink:href="../../d4/df4/classmachine__learning_1_1neural__network_1_1_neural_network.html#a3b9eac1824d365dce715fb17c33cb96f" target="_top" xlink:title=" ">
<polygon fill="white" stroke="black" points="328,-633.5 328,-674.5 456,-674.5 456,-633.5 328,-633.5"/>
<text text-anchor="start" x="336" y="-662.5" font-family="Helvetica,sans-Serif" font-size="10.00">machine_learning::neural</text>
<text text-anchor="start" x="336" y="-651.5" font-family="Helvetica,sans-Serif" font-size="10.00">_network::NeuralNetwork</text>
<text text-anchor="middle" x="392" y="-640.5" font-family="Helvetica,sans-Serif" font-size="10.00">::single_predict</text>
</a>
</g>
</g>
<!-- Node2&#45;&gt;Node12 -->
<g id="edge12" class="edge">
<title>Node2&#45;&gt;Node12</title>
<path fill="none" stroke="midnightblue" d="M278.04,-701.41C295.33,-694.16 314.93,-685.93 332.9,-678.39"/>
<polygon fill="midnightblue" stroke="midnightblue" points="334.26,-681.61 342.12,-674.52 331.55,-675.16 334.26,-681.61"/>
</g>
<!-- Node17 -->
<g id="node17" class="node">
<title>Node17</title>
<g id="a_node17"><a xlink:href="../../d8/d77/namespacemachine__learning.html#a6f1c98c016ad34ff3d9f39372161bd35" target="_top" xlink:title=" ">
<polygon fill="white" stroke="black" points="333.5,-769.5 333.5,-788.5 450.5,-788.5 450.5,-769.5 333.5,-769.5"/>
<text text-anchor="middle" x="392" y="-776.5" font-family="Helvetica,sans-Serif" font-size="10.00">machine_learning::sum</text>
</a>
</g>
</g>
<!-- Node2&#45;&gt;Node17 -->
<g id="edge21" class="edge">
<title>Node2&#45;&gt;Node17</title>
<path fill="none" stroke="midnightblue" d="M287.49,-742.58C309.81,-750.43 334.62,-759.16 354.36,-766.11"/>
<polygon fill="midnightblue" stroke="midnightblue" points="353.29,-769.44 363.88,-769.46 355.61,-762.84 353.29,-769.44"/>
</g>
<!-- Node5 -->
<g id="node5" class="node">
<title>Node5</title>
<g id="a_node5"><a target="_blank" xlink:href="http://en.cppreference.com/w/cpp/iterator/begin.html#" xlink:title=" ">
<polygon fill="white" stroke="black" points="877.5,-713.5 877.5,-732.5 936.5,-732.5 936.5,-713.5 877.5,-713.5"/>
<text text-anchor="middle" x="907" y="-720.5" font-family="Helvetica,sans-Serif" font-size="10.00">std::begin</text>
</a>
</g>
</g>
<!-- Node4&#45;&gt;Node5 -->
<g id="edge4" class="edge">
<title>Node4&#45;&gt;Node5</title>
<path fill="none" stroke="midnightblue" d="M772.28,-770.42C784.8,-766.12 799.67,-760.91 813,-756 829.11,-750.07 832.85,-747.83 849,-742 855.05,-739.82 861.5,-737.58 867.8,-735.45"/>
<polygon fill="midnightblue" stroke="midnightblue" points="869.12,-738.69 877.49,-732.2 866.9,-732.06 869.12,-738.69"/>
</g>
<!-- Node6 -->
<g id="node6" class="node">
<title>Node6</title>
<g id="a_node6"><a target="_blank" xlink:href="http://en.cppreference.com/w/cpp/iterator/distance.html#" xlink:title=" ">
<polygon fill="white" stroke="black" points="870.5,-827.5 870.5,-846.5 943.5,-846.5 943.5,-827.5 870.5,-827.5"/>
<text text-anchor="middle" x="907" y="-834.5" font-family="Helvetica,sans-Serif" font-size="10.00">std::distance</text>
</a>
</g>
</g>
<!-- Node4&#45;&gt;Node6 -->
<g id="edge5" class="edge">
<title>Node4&#45;&gt;Node6</title>
<path fill="none" stroke="midnightblue" d="M769.83,-789.55C791.04,-797.35 821.9,-808.58 849,-818 854.95,-820.07 861.26,-822.22 867.44,-824.29"/>
<polygon fill="midnightblue" stroke="midnightblue" points="866.36,-827.62 876.95,-827.48 868.58,-820.99 866.36,-827.62"/>
</g>
<!-- Node7 -->
<g id="node7" class="node">
<title>Node7</title>
<g id="a_node7"><a target="_blank" xlink:href="http://en.cppreference.com/w/cpp/iterator/end.html#" xlink:title=" ">
<polygon fill="white" stroke="black" points="881,-789.5 881,-808.5 933,-808.5 933,-789.5 881,-789.5"/>
<text text-anchor="middle" x="907" y="-796.5" font-family="Helvetica,sans-Serif" font-size="10.00">std::end</text>
</a>
</g>
</g>
<!-- Node4&#45;&gt;Node7 -->
<g id="edge6" class="edge">
<title>Node4&#45;&gt;Node7</title>
<path fill="none" stroke="midnightblue" d="M808.96,-787.62C830,-790.09 852.55,-792.73 870.61,-794.85"/>
<polygon fill="midnightblue" stroke="midnightblue" points="870.35,-798.34 880.68,-796.03 871.16,-791.39 870.35,-798.34"/>
</g>
<!-- Node4&#45;&gt;Node8 -->
<g id="edge7" class="edge">
<title>Node4&#45;&gt;Node8</title>
<path fill="none" stroke="midnightblue" d="M785.22,-770.46C794.95,-766.95 804.85,-762.25 813,-756 814.41,-754.92 868.87,-674.14 893.79,-637.15"/>
<polygon fill="midnightblue" stroke="midnightblue" points="896.75,-639.01 899.43,-628.76 890.95,-635.1 896.75,-639.01"/>
</g>
<!-- Node9 -->
<g id="node9" class="node">
<title>Node9</title>
<g id="a_node9"><a target="_blank" xlink:href="http://en.cppreference.com/w/cpp/utility/program/exit.html#" xlink:title=" ">
<polygon fill="white" stroke="black" points="881,-360.5 881,-379.5 933,-379.5 933,-360.5 881,-360.5"/>
<text text-anchor="middle" x="907" y="-367.5" font-family="Helvetica,sans-Serif" font-size="10.00">std::exit</text>
</a>
</g>
</g>
<!-- Node4&#45;&gt;Node9 -->
<g id="edge8" class="edge">
<title>Node4&#45;&gt;Node9</title>
<path fill="none" stroke="midnightblue" d="M761.01,-770.34C777,-760.34 800.31,-743.22 813,-722 853.09,-654.97 829.19,-625.55 849,-550 864.54,-490.75 887.77,-422.08 899.18,-389.32"/>
<polygon fill="midnightblue" stroke="midnightblue" points="902.56,-390.25 902.56,-379.66 895.95,-387.94 902.56,-390.25"/>
</g>
<!-- Node10 -->
<g id="node10" class="node">
<title>Node10</title>
<g id="a_node10"><a xlink:href="../../d8/d77/namespacemachine__learning.html#aa4bbf61e65f8cd297255fa94b983d078" target="_top" xlink:title=" ">
<polygon fill="white" stroke="black" points="851,-560 851,-590 963,-590 963,-560 851,-560"/>
<text text-anchor="start" x="859" y="-578" font-family="Helvetica,sans-Serif" font-size="10.00">machine_learning::get</text>
<text text-anchor="middle" x="907" y="-567" font-family="Helvetica,sans-Serif" font-size="10.00">_shape</text>
</a>
</g>
</g>
<!-- Node4&#45;&gt;Node10 -->
<g id="edge9" class="edge">
<title>Node4&#45;&gt;Node10</title>
<path fill="none" stroke="midnightblue" d="M760.05,-770.49C775.77,-760.37 799.29,-742.95 813,-722 843.95,-674.69 811.63,-642.42 849,-600 850.15,-598.69 851.39,-597.45 852.69,-596.26"/>
<polygon fill="midnightblue" stroke="midnightblue" points="854.9,-598.98 860.77,-590.16 850.68,-593.4 854.9,-598.98"/>
</g>
<!-- Node11 -->
<g id="node11" class="node">
<title>Node11</title>
<g id="a_node11"><a target="_blank" xlink:href="http://en.cppreference.com/w/cpp/algorithm/max_element.html#" xlink:title=" ">
<polygon fill="white" stroke="black" points="859.5,-751.5 859.5,-770.5 954.5,-770.5 954.5,-751.5 859.5,-751.5"/>
<text text-anchor="middle" x="907" y="-758.5" font-family="Helvetica,sans-Serif" font-size="10.00">std::max_element</text>
</a>
</g>
</g>
<!-- Node4&#45;&gt;Node11 -->
<g id="edge10" class="edge">
<title>Node4&#45;&gt;Node11</title>
<path fill="none" stroke="midnightblue" d="M808.96,-772.38C822.29,-770.82 836.23,-769.18 849.25,-767.66"/>
<polygon fill="midnightblue" stroke="midnightblue" points="849.94,-771.1 859.47,-766.46 849.13,-764.15 849.94,-771.1"/>
</g>
<!-- Node13 -->
<g id="node13" class="node">
<title>Node13</title>
<g id="a_node13"><a xlink:href="../../d4/df4/classmachine__learning_1_1neural__network_1_1_neural_network.html#a361a45f3c3d8347d79103bf182d0570b" target="_top" xlink:title=" ">
<polygon fill="white" stroke="black" points="492,-633.5 492,-674.5 637,-674.5 637,-633.5 492,-633.5"/>
<text text-anchor="start" x="500" y="-662.5" font-family="Helvetica,sans-Serif" font-size="10.00">machine_learning::neural</text>
<text text-anchor="start" x="500" y="-651.5" font-family="Helvetica,sans-Serif" font-size="10.00">_network::NeuralNetwork</text>
<text text-anchor="middle" x="564.5" y="-640.5" font-family="Helvetica,sans-Serif" font-size="10.00">::__detailed_single_prediction</text>
</a>
</g>
</g>
<!-- Node12&#45;&gt;Node13 -->
<g id="edge13" class="edge">
<title>Node12&#45;&gt;Node13</title>
<path fill="none" stroke="midnightblue" d="M456,-654C464.39,-654 473.09,-654 481.73,-654"/>
<polygon fill="midnightblue" stroke="midnightblue" points="481.84,-657.5 491.84,-654 481.84,-650.5 481.84,-657.5"/>
</g>
<!-- Node13&#45;&gt;Node3 -->
<g id="edge14" class="edge">
<title>Node13&#45;&gt;Node3</title>
<path fill="none" stroke="midnightblue" d="M637.03,-671.83C648.56,-674.71 660.49,-677.68 671.98,-680.55"/>
<polygon fill="midnightblue" stroke="midnightblue" points="671.4,-684.01 681.95,-683.03 673.09,-677.22 671.4,-684.01"/>
</g>
<!-- Node14 -->
<g id="node14" class="node">
<title>Node14</title>
<g id="a_node14"><a target="_blank" xlink:href="http://en.cppreference.com/w/cpp/container/vector/emplace_back.html#" xlink:title=" ">
<polygon fill="white" stroke="black" points="677,-644.5 677,-663.5 809,-663.5 809,-644.5 677,-644.5"/>
<text text-anchor="middle" x="743" y="-651.5" font-family="Helvetica,sans-Serif" font-size="10.00">std::vector::emplace_back</text>
</a>
</g>
</g>
<!-- Node13&#45;&gt;Node14 -->
<g id="edge15" class="edge">
<title>Node13&#45;&gt;Node14</title>
<path fill="none" stroke="midnightblue" d="M637.03,-654C646.82,-654 656.89,-654 666.74,-654"/>
<polygon fill="midnightblue" stroke="midnightblue" points="666.91,-657.5 676.91,-654 666.91,-650.5 666.91,-657.5"/>
</g>
<!-- Node15 -->
<g id="node15" class="node">
<title>Node15</title>
<g id="a_node15"><a xlink:href="../../d8/d77/namespacemachine__learning.html#a5342906d42b80fc6b6b3ad17bf00fcb9" target="_top" xlink:title=" ">
<polygon fill="white" stroke="black" points="677,-568.5 677,-587.5 809,-587.5 809,-568.5 677,-568.5"/>
<text text-anchor="middle" x="743" y="-575.5" font-family="Helvetica,sans-Serif" font-size="10.00">machine_learning::multiply</text>
</a>
</g>
</g>
<!-- Node13&#45;&gt;Node15 -->
<g id="edge16" class="edge">
<title>Node13&#45;&gt;Node15</title>
<path fill="none" stroke="midnightblue" d="M613.26,-633.43C644.18,-620.12 683.56,-603.17 710.57,-591.53"/>
<polygon fill="midnightblue" stroke="midnightblue" points="712.13,-594.67 719.93,-587.5 709.36,-588.24 712.13,-594.67"/>
</g>
<!-- Node15&#45;&gt;Node8 -->
<g id="edge17" class="edge">
<title>Node15&#45;&gt;Node8</title>
<path fill="none" stroke="midnightblue" d="M781.57,-587.51C808.14,-594.23 843.56,-603.2 869.82,-609.84"/>
<polygon fill="midnightblue" stroke="midnightblue" points="869.19,-613.3 879.75,-612.36 870.91,-606.51 869.19,-613.3"/>
</g>
<!-- Node15&#45;&gt;Node9 -->
<g id="edge18" class="edge">
<title>Node15&#45;&gt;Node9</title>
<path fill="none" stroke="midnightblue" d="M797.18,-568.43C802.89,-565.97 808.31,-562.88 813,-559 867.88,-513.6 893.09,-427.88 902,-389.47"/>
<polygon fill="midnightblue" stroke="midnightblue" points="905.45,-390.08 904.18,-379.56 898.62,-388.58 905.45,-390.08"/>
</g>
<!-- Node15&#45;&gt;Node10 -->
<g id="edge19" class="edge">
<title>Node15&#45;&gt;Node10</title>
<path fill="none" stroke="midnightblue" d="M809.42,-576.79C819.76,-576.6 830.46,-576.4 840.79,-576.21"/>
<polygon fill="midnightblue" stroke="midnightblue" points="841.05,-579.7 850.98,-576.02 840.92,-572.7 841.05,-579.7"/>
</g>
<!-- Node16 -->
<g id="node16" class="node">
<title>Node16</title>
<g id="a_node16"><a target="_blank" xlink:href="http://en.cppreference.com/w/cpp/container/vector/push_back.html#" xlink:title=" ">
<polygon fill="white" stroke="black" points="849,-82.5 849,-101.5 965,-101.5 965,-82.5 849,-82.5"/>
<text text-anchor="middle" x="907" y="-89.5" font-family="Helvetica,sans-Serif" font-size="10.00">std::vector::push_back</text>
</a>
</g>
</g>
<!-- Node15&#45;&gt;Node16 -->
<g id="edge20" class="edge">
<title>Node15&#45;&gt;Node16</title>
<path fill="none" stroke="midnightblue" d="M801.71,-568.43C805.97,-565.93 809.83,-562.83 813,-559 876.66,-482.04 787.4,-189.62 849,-111 849.94,-109.79 850.97,-108.66 852.06,-107.6"/>
<polygon fill="midnightblue" stroke="midnightblue" points="854.19,-110.39 860.1,-101.6 850,-104.78 854.19,-110.39"/>
</g>
<!-- Node18&#45;&gt;Node8 -->
<g id="edge26" class="edge">
<title>Node18&#45;&gt;Node8</title>
<path fill="none" stroke="midnightblue" d="M566.5,-339.69C570.28,-392.54 588.22,-532.82 673,-597 730.46,-640.5 820.16,-634.28 869.83,-626.36"/>
<polygon fill="midnightblue" stroke="midnightblue" points="870.53,-629.79 879.8,-624.66 869.35,-622.89 870.53,-629.79"/>
</g>
<!-- Node18&#45;&gt;Node9 -->
<g id="edge28" class="edge">
<title>Node18&#45;&gt;Node9</title>
<path fill="none" stroke="midnightblue" d="M582.74,-298.23C602.11,-276.68 635.75,-244.3 673,-231 731.6,-210.07 758.12,-201.69 813,-231 860.86,-256.56 888.4,-318.87 899.79,-350.66"/>
<polygon fill="midnightblue" stroke="midnightblue" points="896.49,-351.84 903.04,-360.17 903.12,-349.58 896.49,-351.84"/>
</g>
<!-- Node18&#45;&gt;Node16 -->
<g id="edge42" class="edge">
<title>Node18&#45;&gt;Node16</title>
<path fill="none" stroke="midnightblue" d="M568.89,-298.31C577.37,-254 603.99,-150.26 673,-105 726.56,-69.87 802.84,-73.17 853.34,-80.84"/>
<polygon fill="midnightblue" stroke="midnightblue" points="852.97,-84.32 863.4,-82.47 854.09,-77.41 852.97,-84.32"/>
</g>
<!-- Node19 -->
<g id="node19" class="node">
<title>Node19</title>
<g id="a_node19"><a target="_blank" xlink:href="http://en.cppreference.com/w/cpp/container/vector/back.html#" xlink:title=" ">
<polygon fill="white" stroke="black" points="698,-38.5 698,-57.5 788,-57.5 788,-38.5 698,-38.5"/>
<text text-anchor="middle" x="743" y="-45.5" font-family="Helvetica,sans-Serif" font-size="10.00">std::vector::back</text>
</a>
</g>
</g>
<!-- Node18&#45;&gt;Node19 -->
<g id="edge23" class="edge">
<title>Node18&#45;&gt;Node19</title>
<path fill="none" stroke="midnightblue" d="M568.77,-298.19C577.24,-251.15 604.23,-135.75 673,-72 677.47,-67.86 682.69,-64.42 688.23,-61.58"/>
<polygon fill="midnightblue" stroke="midnightblue" points="690.05,-64.6 697.76,-57.33 687.2,-58.21 690.05,-64.6"/>
</g>
<!-- Node20 -->
<g id="node20" class="node">
<title>Node20</title>
<g id="a_node20"><a target="_blank" xlink:href="http://en.cppreference.com/w/cpp/string/basic_string/c_str.html#" xlink:title=" ">
<polygon fill="white" stroke="black" points="699,-0.5 699,-19.5 787,-19.5 787,-0.5 699,-0.5"/>
<text text-anchor="middle" x="743" y="-7.5" font-family="Helvetica,sans-Serif" font-size="10.00">std::string::c_str</text>
</a>
</g>
</g>
<!-- Node18&#45;&gt;Node20 -->
<g id="edge24" class="edge">
<title>Node18&#45;&gt;Node20</title>
<path fill="none" stroke="midnightblue" d="M566.91,-298.3C571.65,-245.3 591.68,-103.59 673,-29 677.69,-24.7 683.26,-21.36 689.17,-18.77"/>
<polygon fill="midnightblue" stroke="midnightblue" points="690.49,-22.01 698.67,-15.28 688.08,-15.44 690.49,-22.01"/>
</g>
<!-- Node21 -->
<g id="node21" class="node">
<title>Node21</title>
<g id="a_node21"><a target="_blank" xlink:href="http://en.cppreference.com/w/cpp/io/basic_ifstream/close.html#" xlink:title=" ">
<polygon fill="white" stroke="black" points="692.5,-530.5 692.5,-549.5 793.5,-549.5 793.5,-530.5 692.5,-530.5"/>
<text text-anchor="middle" x="743" y="-537.5" font-family="Helvetica,sans-Serif" font-size="10.00">std::ifstream::close</text>
</a>
</g>
</g>
<!-- Node18&#45;&gt;Node21 -->
<g id="edge25" class="edge">
<title>Node18&#45;&gt;Node21</title>
<path fill="none" stroke="midnightblue" d="M570.6,-339.69C581.81,-380.72 612.53,-472.58 673,-521 676.13,-523.51 679.57,-525.68 683.18,-527.57"/>
<polygon fill="midnightblue" stroke="midnightblue" points="681.91,-530.84 692.47,-531.7 684.76,-524.44 681.91,-530.84"/>
</g>
<!-- Node22 -->
<g id="node22" class="node">
<title>Node22</title>
<g id="a_node22"><a target="_blank" xlink:href="http://en.cppreference.com/w/cpp/io/basic_ios/eof.html#" xlink:title=" ">
<polygon fill="white" stroke="black" points="697.5,-492.5 697.5,-511.5 788.5,-511.5 788.5,-492.5 697.5,-492.5"/>
<text text-anchor="middle" x="743" y="-499.5" font-family="Helvetica,sans-Serif" font-size="10.00">std::ifstream::eof</text>
</a>
</g>
</g>
<!-- Node18&#45;&gt;Node22 -->
<g id="edge27" class="edge">
<title>Node18&#45;&gt;Node22</title>
<path fill="none" stroke="midnightblue" d="M573.28,-339.59C587.54,-374.53 621.27,-445.31 673,-483 677.46,-486.25 682.44,-488.94 687.64,-491.17"/>
<polygon fill="midnightblue" stroke="midnightblue" points="686.56,-494.5 697.15,-494.71 689,-487.94 686.56,-494.5"/>
</g>
<!-- Node23 -->
<g id="node23" class="node">
<title>Node23</title>
<g id="a_node23"><a target="_blank" xlink:href="http://en.cppreference.com/w/cpp/string/basic_string/getline.html#" xlink:title=" ">
<polygon fill="white" stroke="black" points="710.5,-454.5 710.5,-473.5 775.5,-473.5 775.5,-454.5 710.5,-454.5"/>
<text text-anchor="middle" x="743" y="-461.5" font-family="Helvetica,sans-Serif" font-size="10.00">std::getline</text>
</a>
</g>
</g>
<!-- Node18&#45;&gt;Node23 -->
<g id="edge29" class="edge">
<title>Node18&#45;&gt;Node23</title>
<path fill="none" stroke="midnightblue" d="M577.72,-339.54C595.31,-367.34 630.38,-416.6 673,-444 681.33,-449.36 691.13,-453.31 700.69,-456.22"/>
<polygon fill="midnightblue" stroke="midnightblue" points="699.93,-459.64 710.49,-458.9 701.77,-452.89 699.93,-459.64"/>
</g>
<!-- Node24 -->
<g id="node24" class="node">
<title>Node24</title>
<g id="a_node24"><a xlink:href="../../d8/d77/namespacemachine__learning.html#a496302e3371aa7b478cb7d5917904bdd" target="_top" xlink:title=" ">
<polygon fill="white" stroke="black" points="682,-405 682,-435 804,-435 804,-405 682,-405"/>
<text text-anchor="start" x="690" y="-423" font-family="Helvetica,sans-Serif" font-size="10.00">machine_learning::insert</text>
<text text-anchor="middle" x="743" y="-412" font-family="Helvetica,sans-Serif" font-size="10.00">_element</text>
</a>
</g>
</g>
<!-- Node18&#45;&gt;Node24 -->
<g id="edge30" class="edge">
<title>Node18&#45;&gt;Node24</title>
<path fill="none" stroke="midnightblue" d="M590.75,-339.8C611.77,-356.38 643.02,-379.33 673,-395 677.05,-397.11 681.31,-399.13 685.66,-401.03"/>
<polygon fill="midnightblue" stroke="midnightblue" points="684.67,-404.4 695.24,-404.99 687.34,-397.93 684.67,-404.4"/>
</g>
<!-- Node25 -->
<g id="node25" class="node">
<title>Node25</title>
<g id="a_node25"><a target="_blank" xlink:href="http://en.cppreference.com/w/cpp/io/basic_ifstream/is_open.html#" xlink:title=" ">
<polygon fill="white" stroke="black" points="687.5,-366.5 687.5,-385.5 798.5,-385.5 798.5,-366.5 687.5,-366.5"/>
<text text-anchor="middle" x="743" y="-373.5" font-family="Helvetica,sans-Serif" font-size="10.00">std::ifstream::is_open</text>
</a>
</g>
</g>
<!-- Node18&#45;&gt;Node25 -->
<g id="edge31" class="edge">
<title>Node18&#45;&gt;Node25</title>
<path fill="none" stroke="midnightblue" d="M621.32,-339.58C637.87,-345.45 656.1,-351.69 673,-357 680.25,-359.28 687.98,-361.55 695.54,-363.69"/>
<polygon fill="midnightblue" stroke="midnightblue" points="694.76,-367.11 705.33,-366.42 696.64,-360.37 694.76,-367.11"/>
</g>
<!-- Node26 -->
<g id="node26" class="node">
<title>Node26</title>
<g id="a_node26"><a xlink:href="../../d8/d77/namespacemachine__learning.html#ac332d152078e96311e43ac5e7183ea26" target="_top" xlink:title=" ">
<polygon fill="white" stroke="black" points="676.5,-115 676.5,-145 809.5,-145 809.5,-115 676.5,-115"/>
<text text-anchor="start" x="684.5" y="-133" font-family="Helvetica,sans-Serif" font-size="10.00">machine_learning::minmax</text>
<text text-anchor="middle" x="743" y="-122" font-family="Helvetica,sans-Serif" font-size="10.00">_scaler</text>
</a>
</g>
</g>
<!-- Node18&#45;&gt;Node26 -->
<g id="edge32" class="edge">
<title>Node18&#45;&gt;Node26</title>
<path fill="none" stroke="midnightblue" d="M573.84,-298.29C588.72,-263.79 623.06,-194.49 673,-155 675.3,-153.18 677.73,-151.49 680.27,-149.92"/>
<polygon fill="midnightblue" stroke="midnightblue" points="682.14,-152.89 689.22,-145.01 678.77,-146.75 682.14,-152.89"/>
</g>
<!-- Node30 -->
<g id="node30" class="node">
<title>Node30</title>
<g id="a_node30"><a target="_blank" xlink:href="http://en.cppreference.com/w/cpp/io/basic_ifstream/open.html#" xlink:title=" ">
<polygon fill="white" stroke="black" points="694,-328.5 694,-347.5 792,-347.5 792,-328.5 694,-328.5"/>
<text text-anchor="middle" x="743" y="-335.5" font-family="Helvetica,sans-Serif" font-size="10.00">std::ifstream::open</text>
</a>
</g>
</g>
<!-- Node18&#45;&gt;Node30 -->
<g id="edge39" class="edge">
<title>Node18&#45;&gt;Node30</title>
<path fill="none" stroke="midnightblue" d="M628.72,-325.81C646.67,-327.74 666.11,-329.83 683.75,-331.73"/>
<polygon fill="midnightblue" stroke="midnightblue" points="683.58,-335.23 693.9,-332.82 684.33,-328.27 683.58,-335.23"/>
</g>
<!-- Node31 -->
<g id="node31" class="node">
<title>Node31</title>
<g id="a_node31"><a xlink:href="../../d8/d77/namespacemachine__learning.html#ae10178b082f0205c326550877d998e5d" target="_top" xlink:title=" ">
<polygon fill="white" stroke="black" points="673,-290.5 673,-309.5 813,-309.5 813,-290.5 673,-290.5"/>
<text text-anchor="middle" x="743" y="-297.5" font-family="Helvetica,sans-Serif" font-size="10.00">machine_learning::pop_back</text>
</a>
</g>
</g>
<!-- Node18&#45;&gt;Node31 -->
<g id="edge40" class="edge">
<title>Node18&#45;&gt;Node31</title>
<path fill="none" stroke="midnightblue" d="M628.72,-312.19C639.82,-311 651.48,-309.74 662.94,-308.51"/>
<polygon fill="midnightblue" stroke="midnightblue" points="663.37,-311.98 672.94,-307.43 662.62,-305.02 663.37,-311.98"/>
</g>
<!-- Node32 -->
<g id="node32" class="node">
<title>Node32</title>
<g id="a_node32"><a xlink:href="../../d8/d77/namespacemachine__learning.html#a912cf68863063a38d6e63545be5eb093" target="_top" xlink:title=" ">
<polygon fill="white" stroke="black" points="686,-241 686,-271 800,-271 800,-241 686,-241"/>
<text text-anchor="start" x="694" y="-259" font-family="Helvetica,sans-Serif" font-size="10.00">machine_learning::pop</text>
<text text-anchor="middle" x="743" y="-248" font-family="Helvetica,sans-Serif" font-size="10.00">_front</text>
</a>
</g>
</g>
<!-- Node18&#45;&gt;Node32 -->
<g id="edge41" class="edge">
<title>Node18&#45;&gt;Node32</title>
<path fill="none" stroke="midnightblue" d="M623.29,-298.37C644.82,-290.69 669.1,-282.02 690.06,-274.54"/>
<polygon fill="midnightblue" stroke="midnightblue" points="691.51,-277.74 699.75,-271.08 689.16,-271.15 691.51,-277.74"/>
</g>
<!-- Node33 -->
<g id="node33" class="node">
<title>Node33</title>
<g id="a_node33"><a target="_blank" xlink:href="http://en.cppreference.com/w/cpp/string/basic_string/stof.html#" xlink:title=" ">
<polygon fill="white" stroke="black" points="715.5,-164.5 715.5,-183.5 770.5,-183.5 770.5,-164.5 715.5,-164.5"/>
<text text-anchor="middle" x="743" y="-171.5" font-family="Helvetica,sans-Serif" font-size="10.00">std::stod</text>
</a>
</g>
</g>
<!-- Node18&#45;&gt;Node33 -->
<g id="edge43" class="edge">
<title>Node18&#45;&gt;Node33</title>
<path fill="none" stroke="midnightblue" d="M579.01,-298.08C597.3,-271.31 632.36,-225.19 673,-198 682.77,-191.47 694.5,-186.52 705.5,-182.87"/>
<polygon fill="midnightblue" stroke="midnightblue" points="706.77,-186.14 715.31,-179.86 704.73,-179.44 706.77,-186.14"/>
</g>
<!-- Node26&#45;&gt;Node8 -->
<g id="edge33" class="edge">
<title>Node26&#45;&gt;Node8</title>
<path fill="none" stroke="midnightblue" d="M802.5,-145.14C806.48,-147.89 810.06,-151.15 813,-155 873.07,-233.68 788.53,-520.62 849,-599 854.3,-605.86 862.11,-610.38 870.27,-613.35"/>
<polygon fill="midnightblue" stroke="midnightblue" points="869.3,-616.71 879.88,-616.17 871.27,-609.99 869.3,-616.71"/>
</g>
<!-- Node26&#45;&gt;Node9 -->
<g id="edge34" class="edge">
<title>Node26&#45;&gt;Node9</title>
<path fill="none" stroke="midnightblue" d="M799.19,-145.13C804.2,-147.9 808.92,-151.16 813,-155 871.6,-210.15 895.17,-308.48 902.86,-350.3"/>
<polygon fill="midnightblue" stroke="midnightblue" points="899.43,-351.04 904.58,-360.3 906.33,-349.85 899.43,-351.04"/>
</g>
<!-- Node26&#45;&gt;Node10 -->
<g id="edge35" class="edge">
<title>Node26&#45;&gt;Node10</title>
<path fill="none" stroke="midnightblue" d="M801.88,-145.16C806.05,-147.91 809.84,-151.16 813,-155 879.81,-236.29 825.52,-286.43 849,-389 862.44,-447.73 884.83,-514.93 897.17,-550.27"/>
<polygon fill="midnightblue" stroke="midnightblue" points="893.89,-551.5 900.51,-559.77 900.49,-549.18 893.89,-551.5"/>
</g>
<!-- Node27 -->
<g id="node27" class="node">
<title>Node27</title>
<g id="a_node27"><a target="_blank" xlink:href="http://en.cppreference.com/w/cpp/algorithm/max.html#" xlink:title=" ">
<polygon fill="white" stroke="black" points="879.5,-158.5 879.5,-177.5 934.5,-177.5 934.5,-158.5 879.5,-158.5"/>
<text text-anchor="middle" x="907" y="-165.5" font-family="Helvetica,sans-Serif" font-size="10.00">std::max</text>
</a>
</g>
</g>
<!-- Node26&#45;&gt;Node27 -->
<g id="edge36" class="edge">
<title>Node26&#45;&gt;Node27</title>
<path fill="none" stroke="midnightblue" d="M808.03,-145.02C828.82,-149.9 851.18,-155.14 869.29,-159.39"/>
<polygon fill="midnightblue" stroke="midnightblue" points="868.6,-162.82 879.14,-161.7 870.2,-156.01 868.6,-162.82"/>
</g>
<!-- Node28 -->
<g id="node28" class="node">
<title>Node28</title>
<g id="a_node28"><a target="_blank" xlink:href="http://en.cppreference.com/w/cpp/algorithm/min.html#" xlink:title=" ">
<polygon fill="white" stroke="black" points="881,-120.5 881,-139.5 933,-139.5 933,-120.5 881,-120.5"/>
<text text-anchor="middle" x="907" y="-127.5" font-family="Helvetica,sans-Serif" font-size="10.00">std::min</text>
</a>
</g>
</g>
<!-- Node26&#45;&gt;Node28 -->
<g id="edge37" class="edge">
<title>Node26&#45;&gt;Node28</title>
<path fill="none" stroke="midnightblue" d="M809.89,-130C830.74,-130 852.97,-130 870.79,-130"/>
<polygon fill="midnightblue" stroke="midnightblue" points="871,-133.5 881,-130 871,-126.5 871,-133.5"/>
</g>
<!-- Node29 -->
<g id="node29" class="node">
<title>Node29</title>
<g id="a_node29"><a target="_blank" xlink:href="http://en.cppreference.com/w/cpp/container/vector/size.html#" xlink:title=" ">
<polygon fill="white" stroke="black" points="863.5,-44.5 863.5,-63.5 950.5,-63.5 950.5,-44.5 863.5,-44.5"/>
<text text-anchor="middle" x="907" y="-51.5" font-family="Helvetica,sans-Serif" font-size="10.00">std::vector::size</text>
</a>
</g>
</g>
<!-- Node26&#45;&gt;Node29 -->
<g id="edge38" class="edge">
<title>Node26&#45;&gt;Node29</title>
<path fill="none" stroke="midnightblue" d="M768.84,-114.9C789.73,-102.6 820.65,-85.31 849,-73 853.84,-70.9 858.99,-68.89 864.14,-67.01"/>
<polygon fill="midnightblue" stroke="midnightblue" points="865.68,-70.18 873.97,-63.58 863.38,-63.57 865.68,-70.18"/>
</g>
</g>
</svg>
        <g id="navigator" transform="translate(0 0)" fill="#404254">
                <rect fill="#f2f5e9" fill-opacity="0.5" stroke="#606060" stroke-width=".5" x="0" y="0" width="60" height="60"/>
                <use id="zoomplus" xlink:href="#zoomPlus" x="17" y="9" onmousedown="handleZoom(evt,'in')"/>
                <use id="zoomminus" xlink:href="#zoomMin" x="42" y="9" onmousedown="handleZoom(evt,'out')"/>
                <use id="reset" xlink:href="#resetDef" x="30" y="36" onmousedown="handleReset()"/>
                <g id="arrowUp" xlink:href="#dirArrow" transform="translate(30 24)" onmousedown="handlePan(0,-1)">
                  <use xlink:href="#rim" fill="#404040">
                        <set attributeName="fill" to="#808080" begin="arrowUp.mouseover" end="arrowUp.mouseout"/>
                  </use>
                  <path fill="none" stroke="white" stroke-width="1.5" d="M0,-3.0v7 M-2.5,-0.5L0,-3.0L2.5,-0.5"/>
                </g>
                <g id="arrowRight" xlink:href="#dirArrow" transform="rotate(90) translate(36 -43)" onmousedown="handlePan(1,0)">
                  <use xlink:href="#rim" fill="#404040">
                        <set attributeName="fill" to="#808080" begin="arrowRight.mouseover" end="arrowRight.mouseout"/>
                  </use>
                  <path fill="none" stroke="white" stroke-width="1.5" d="M0,-3.0v7 M-2.5,-0.5L0,-3.0L2.5,-0.5"/>
                </g>
                <g id="arrowDown" xlink:href="#dirArrow" transform="rotate(180) translate(-30 -48)" onmousedown="handlePan(0,1)">
                  <use xlink:href="#rim" fill="#404040">
                        <set attributeName="fill" to="#808080" begin="arrowDown.mouseover" end="arrowDown.mouseout"/>
                  </use>
                  <path fill="none" stroke="white" stroke-width="1.5" d="M0,-3.0v7 M-2.5,-0.5L0,-3.0L2.5,-0.5"/>
                </g>
                <g id="arrowLeft" xlink:href="#dirArrow" transform="rotate(270) translate(-36 17)" onmousedown="handlePan(-1,0)">
                  <use xlink:href="#rim" fill="#404040">
                        <set attributeName="fill" to="#808080" begin="arrowLeft.mouseover" end="arrowLeft.mouseout"/>
                  </use>
                  <path fill="none" stroke="white" stroke-width="1.5" d="M0,-3.0v7 M-2.5,-0.5L0,-3.0L2.5,-0.5"/>
                </g>
        </g>
        <svg viewBox="0 0 15 15" width="100%" height="30px" preserveAspectRatio="xMaxYMin meet">
         <g id="arrow_out" transform="scale(0.3 0.3)">
          <a xlink:href="classmachine__learning_1_1neural__network_1_1_neural_network_a36494e26ff36d6e15c1022bb9a1ee848_cgraph_org.svg" target="_base">
           <rect id="button" ry="5" rx="5" y="6" x="6" height="38" width="38"
                fill="#f2f5e9" fill-opacity="0.5" stroke="#606060" stroke-width="1.0"/>
           <path id="arrow"
             d="M 11.500037,31.436501 C 11.940474,20.09759 22.043105,11.32322 32.158766,21.979434 L 37.068811,17.246167 C 37.068811,17.246167 37.088388,32 37.088388,32 L 22.160133,31.978069 C 22.160133,31.978069 26.997745,27.140456 26.997745,27.140456 C 18.528582,18.264221 13.291696,25.230495 11.500037,31.436501 z"
             style="fill:#404040;"/>
          </a>
         </g>
        </svg>
</svg>
