<?xml version="1.0" encoding="UTF-8" standalone="no"?>
<!DOCTYPE svg PUBLIC "-//W3C//DTD SVG 1.1//EN"
 "http://www.w3.org/Graphics/SVG/1.1/DTD/svg11.dtd">
<!-- Generated by graphviz version 8.0.5 (20230430.1635)
 -->
<!-- Title: machine_learning::neural_network::NeuralNetwork::get_XY_from_csv Pages: 1 -->
<svg width="575pt" height="599pt"
 viewBox="0.00 0.00 574.50 599.25" xmlns="http://www.w3.org/2000/svg" xmlns:xlink="http://www.w3.org/1999/xlink">
<g id="graph0" class="graph" transform="scale(1 1) rotate(0) translate(4 595.25)">
<title>machine_learning::neural_network::NeuralNetwork::get_XY_from_csv</title>
<!-- Node1 -->
<g id="node1" class="node">
<title>Node1</title>
<g id="a_node1"><a xlink:title=" ">
<polygon fill="#999999" stroke="#666666" points="127,-309.5 0,-309.5 0,-267.75 127,-267.75 127,-309.5"/>
<text text-anchor="start" x="8" y="-296" font-family="Helvetica,sans-Serif" font-size="10.00">machine_learning::neural</text>
<text text-anchor="start" x="8" y="-284.75" font-family="Helvetica,sans-Serif" font-size="10.00">_network::NeuralNetwork</text>
<text text-anchor="middle" x="63.5" y="-273.5" font-family="Helvetica,sans-Serif" font-size="10.00">::get_XY_from_csv</text>
</a>
</g>
</g>
<!-- Node2 -->
<g id="node2" class="node">
<title>Node2</title>
<g id="a_node2"><a target="_blank" xlink:href="http://en.cppreference.com/w/cpp/container/vector/back.html#" xlink:title=" ">
<polygon fill="white" stroke="#666666" points="277.62,-591.25 188.12,-591.25 188.12,-572 277.62,-572 277.62,-591.25"/>
<text text-anchor="middle" x="232.88" y="-577.75" font-family="Helvetica,sans-Serif" font-size="10.00">std::vector::back</text>
</a>
</g>
</g>
<!-- Node1&#45;&gt;Node2 -->
<g id="edge1" class="edge">
<title>Node1&#45;&gt;Node2</title>
<path fill="none" stroke="#63b8ff" d="M65.62,-309.79C69.53,-361.27 86.88,-493.94 163,-563.62 167.33,-567.59 172.42,-570.7 177.85,-573.14"/>
<polygon fill="#63b8ff" stroke="#63b8ff" points="176.29,-576.67 186.88,-576.85 178.72,-570.1 176.29,-576.67"/>
</g>
<!-- Node3 -->
<g id="node3" class="node">
<title>Node3</title>
<g id="a_node3"><a target="_blank" xlink:href="http://en.cppreference.com/w/cpp/string/basic_string/c_str.html#" xlink:title=" ">
<polygon fill="white" stroke="#666666" points="276.5,-554.25 189.25,-554.25 189.25,-535 276.5,-535 276.5,-554.25"/>
<text text-anchor="middle" x="232.88" y="-540.75" font-family="Helvetica,sans-Serif" font-size="10.00">std::string::c_str</text>
</a>
</g>
</g>
<!-- Node1&#45;&gt;Node3 -->
<g id="edge2" class="edge">
<title>Node1&#45;&gt;Node3</title>
<path fill="none" stroke="#63b8ff" d="M66.95,-309.72C73.5,-356.21 95.75,-468 163,-526.62 167.54,-530.58 172.85,-533.69 178.47,-536.12"/>
<polygon fill="#63b8ff" stroke="#63b8ff" points="177.23,-539.75 187.82,-539.81 179.58,-533.15 177.23,-539.75"/>
</g>
<!-- Node4 -->
<g id="node4" class="node">
<title>Node4</title>
<g id="a_node4"><a target="_blank" xlink:href="http://en.cppreference.com/w/cpp/io/basic_ifstream/close.html#" xlink:title=" ">
<polygon fill="white" stroke="#666666" points="282.88,-517.25 182.88,-517.25 182.88,-498 282.88,-498 282.88,-517.25"/>
<text text-anchor="middle" x="232.88" y="-503.75" font-family="Helvetica,sans-Serif" font-size="10.00">std::ifstream::close</text>
</a>
</g>
</g>
<!-- Node1&#45;&gt;Node4 -->
<g id="edge3" class="edge">
<title>Node1&#45;&gt;Node4</title>
<path fill="none" stroke="#63b8ff" d="M69.54,-309.79C80.05,-349.5 108.07,-435.53 163,-483.62 167.18,-487.28 171.95,-490.4 176.99,-493.04"/>
<polygon fill="#63b8ff" stroke="#63b8ff" points="175.36,-496.6 185.91,-497.56 178.26,-490.23 175.36,-496.6"/>
</g>
<!-- Node5 -->
<g id="node5" class="node">
<title>Node5</title>
<g id="a_node5"><a target="_blank" xlink:href="http://en.cppreference.com/w/cpp/io/manip/endl.html#" xlink:title=" ">
<polygon fill="white" stroke="#666666" points="553,-454.25 499.5,-454.25 499.5,-435 553,-435 553,-454.25"/>
<text text-anchor="middle" x="526.25" y="-440.75" font-family="Helvetica,sans-Serif" font-size="10.00">std::endl</text>
</a>
</g>
</g>
<!-- Node1&#45;&gt;Node5 -->
<g id="edge4" class="edge">
<title>Node1&#45;&gt;Node5</title>
<path fill="none" stroke="#63b8ff" d="M71.65,-309.82C84.21,-343.36 113.7,-407.82 163,-436.62 267.66,-497.77 420,-471.4 488.95,-454.62"/>
<polygon fill="#63b8ff" stroke="#63b8ff" points="489.43,-457.85 498.28,-452.02 487.73,-451.06 489.43,-457.85"/>
</g>
<!-- Node6 -->
<g id="node6" class="node">
<title>Node6</title>
<g id="a_node6"><a target="_blank" xlink:href="http://en.cppreference.com/w/cpp/io/basic_ios/eof.html#" xlink:title=" ">
<polygon fill="white" stroke="#666666" points="278,-427.25 187.75,-427.25 187.75,-408 278,-408 278,-427.25"/>
<text text-anchor="middle" x="232.88" y="-413.75" font-family="Helvetica,sans-Serif" font-size="10.00">std::ifstream::eof</text>
</a>
</g>
</g>
<!-- Node1&#45;&gt;Node6 -->
<g id="edge5" class="edge">
<title>Node1&#45;&gt;Node6</title>
<path fill="none" stroke="#63b8ff" d="M77.84,-309.75C94.68,-334.69 125.96,-375.67 163,-398.62 167.38,-401.34 172.16,-403.68 177.08,-405.68"/>
<polygon fill="#63b8ff" stroke="#63b8ff" points="175.73,-409.27 186.32,-409.35 178.09,-402.68 175.73,-409.27"/>
</g>
<!-- Node7 -->
<g id="node7" class="node">
<title>Node7</title>
<g id="a_node7"><a target="_blank" xlink:href="http://en.cppreference.com/w/cpp/utility/program/exit.html#" xlink:title=" ">
<polygon fill="white" stroke="#666666" points="551.88,-293.25 500.62,-293.25 500.62,-274 551.88,-274 551.88,-293.25"/>
<text text-anchor="middle" x="526.25" y="-279.75" font-family="Helvetica,sans-Serif" font-size="10.00">std::exit</text>
</a>
</g>
</g>
<!-- Node1&#45;&gt;Node7 -->
<g id="edge6" class="edge">
<title>Node1&#45;&gt;Node7</title>
<path fill="none" stroke="#63b8ff" d="M89.3,-267.42C108.14,-252.79 135.43,-234.58 163,-226.62 285.56,-191.26 329.09,-186 450,-226.62 473.12,-234.39 494.78,-252.39 508.88,-266.1"/>
<polygon fill="#63b8ff" stroke="#63b8ff" points="505.73,-267.91 515.25,-272.56 510.71,-262.99 505.73,-267.91"/>
</g>
<!-- Node8 -->
<g id="node8" class="node">
<title>Node8</title>
<g id="a_node8"><a target="_blank" xlink:href="http://en.cppreference.com/w/cpp/string/basic_string/getline.html#" xlink:title=" ">
<polygon fill="white" stroke="#666666" points="264.88,-341.25 200.88,-341.25 200.88,-322 264.88,-322 264.88,-341.25"/>
<text text-anchor="middle" x="232.88" y="-327.75" font-family="Helvetica,sans-Serif" font-size="10.00">std::getline</text>
</a>
</g>
</g>
<!-- Node1&#45;&gt;Node8 -->
<g id="edge7" class="edge">
<title>Node1&#45;&gt;Node8</title>
<path fill="none" stroke="#63b8ff" d="M127.3,-304.76C148.33,-310.16 171.25,-316.05 190.25,-320.93"/>
<polygon fill="#63b8ff" stroke="#63b8ff" points="189.1,-324.51 199.66,-323.61 190.84,-317.73 189.1,-324.51"/>
</g>
<!-- Node9 -->
<g id="node9" class="node">
<title>Node9</title>
<g id="a_node9"><a xlink:href="../../d8/d77/namespacemachine__learning.html#a496302e3371aa7b478cb7d5917904bdd" target="_top" xlink:title=" ">
<polygon fill="white" stroke="#666666" points="293.75,-303.88 172,-303.88 172,-273.38 293.75,-273.38 293.75,-303.88"/>
<text text-anchor="start" x="180" y="-290.38" font-family="Helvetica,sans-Serif" font-size="10.00">machine_learning::insert</text>
<text text-anchor="middle" x="232.88" y="-279.12" font-family="Helvetica,sans-Serif" font-size="10.00">_element</text>
</a>
</g>
</g>
<!-- Node1&#45;&gt;Node9 -->
<g id="edge8" class="edge">
<title>Node1&#45;&gt;Node9</title>
<path fill="none" stroke="#63b8ff" d="M127.3,-288.62C138.22,-288.62 149.65,-288.62 160.78,-288.62"/>
<polygon fill="#63b8ff" stroke="#63b8ff" points="160.77,-292.13 170.77,-288.62 160.77,-285.13 160.77,-292.13"/>
</g>
<!-- Node10 -->
<g id="node10" class="node">
<title>Node10</title>
<g id="a_node10"><a target="_blank" xlink:href="http://en.cppreference.com/w/cpp/io/basic_ifstream/is_open.html#" xlink:title=" ">
<polygon fill="white" stroke="#666666" points="288.12,-255.25 177.62,-255.25 177.62,-236 288.12,-236 288.12,-255.25"/>
<text text-anchor="middle" x="232.88" y="-241.75" font-family="Helvetica,sans-Serif" font-size="10.00">std::ifstream::is_open</text>
</a>
</g>
</g>
<!-- Node1&#45;&gt;Node10 -->
<g id="edge9" class="edge">
<title>Node1&#45;&gt;Node10</title>
<path fill="none" stroke="#63b8ff" d="M127.3,-272.49C145.43,-267.83 164.96,-262.82 182.17,-258.39"/>
<polygon fill="#63b8ff" stroke="#63b8ff" points="182.74,-261.6 191.56,-255.73 181,-254.82 182.74,-261.6"/>
</g>
<!-- Node11 -->
<g id="node11" class="node">
<title>Node11</title>
<g id="a_node11"><a xlink:href="../../d8/d77/namespacemachine__learning.html#ac332d152078e96311e43ac5e7183ea26" target="_top" xlink:title=" ">
<polygon fill="white" stroke="#666666" points="299,-389.88 166.75,-389.88 166.75,-359.38 299,-359.38 299,-389.88"/>
<text text-anchor="start" x="174.75" y="-376.38" font-family="Helvetica,sans-Serif" font-size="10.00">machine_learning::minmax</text>
<text text-anchor="middle" x="232.88" y="-365.12" font-family="Helvetica,sans-Serif" font-size="10.00">_scaler</text>
</a>
</g>
</g>
<!-- Node1&#45;&gt;Node11 -->
<g id="edge10" class="edge">
<title>Node1&#45;&gt;Node11</title>
<path fill="none" stroke="#63b8ff" d="M94.09,-309.74C113.14,-322.69 138.78,-338.97 163,-350.62 165.98,-352.06 169.08,-353.45 172.23,-354.8"/>
<polygon fill="#63b8ff" stroke="#63b8ff" points="170.83,-358.41 181.41,-358.92 173.45,-351.92 170.83,-358.41"/>
</g>
<!-- Node17 -->
<g id="node17" class="node">
<title>Node17</title>
<g id="a_node17"><a target="_blank" xlink:href="http://en.cppreference.com/w/cpp/io/basic_ifstream/open.html#" xlink:title=" ">
<polygon fill="white" stroke="#666666" points="281.75,-179.25 184,-179.25 184,-160 281.75,-160 281.75,-179.25"/>
<text text-anchor="middle" x="232.88" y="-165.75" font-family="Helvetica,sans-Serif" font-size="10.00">std::ifstream::open</text>
</a>
</g>
</g>
<!-- Node1&#45;&gt;Node17 -->
<g id="edge20" class="edge">
<title>Node1&#45;&gt;Node17</title>
<path fill="none" stroke="#63b8ff" d="M81.66,-267.36C99.86,-246.07 130.42,-213.66 163,-193.62 169.45,-189.66 176.65,-186.23 183.89,-183.32"/>
<polygon fill="#63b8ff" stroke="#63b8ff" points="184.58,-186.42 192.73,-179.65 182.13,-179.86 184.58,-186.42"/>
</g>
<!-- Node18 -->
<g id="node18" class="node">
<title>Node18</title>
<g id="a_node18"><a xlink:href="../../d8/d77/namespacemachine__learning.html#ae10178b082f0205c326550877d998e5d" target="_top" xlink:title=" ">
<polygon fill="white" stroke="#666666" points="302.75,-142.25 163,-142.25 163,-123 302.75,-123 302.75,-142.25"/>
<text text-anchor="middle" x="232.88" y="-128.75" font-family="Helvetica,sans-Serif" font-size="10.00">machine_learning::pop_back</text>
</a>
</g>
</g>
<!-- Node1&#45;&gt;Node18 -->
<g id="edge21" class="edge">
<title>Node1&#45;&gt;Node18</title>
<path fill="none" stroke="#63b8ff" d="M73.85,-267.31C88.4,-236.7 119.37,-180.68 163,-150.62 164.72,-149.44 166.51,-148.34 168.35,-147.3"/>
<polygon fill="#63b8ff" stroke="#63b8ff" points="169.45,-150.18 176.97,-142.72 166.44,-143.86 169.45,-150.18"/>
</g>
<!-- Node19 -->
<g id="node19" class="node">
<title>Node19</title>
<g id="a_node19"><a xlink:href="../../d8/d77/namespacemachine__learning.html#a912cf68863063a38d6e63545be5eb093" target="_top" xlink:title=" ">
<polygon fill="white" stroke="#666666" points="289.62,-104.88 176.12,-104.88 176.12,-74.38 289.62,-74.38 289.62,-104.88"/>
<text text-anchor="start" x="184.12" y="-91.38" font-family="Helvetica,sans-Serif" font-size="10.00">machine_learning::pop</text>
<text text-anchor="middle" x="232.88" y="-80.12" font-family="Helvetica,sans-Serif" font-size="10.00">_front</text>
</a>
</g>
</g>
<!-- Node1&#45;&gt;Node19 -->
<g id="edge22" class="edge">
<title>Node1&#45;&gt;Node19</title>
<path fill="none" stroke="#63b8ff" d="M70.92,-267.34C83.02,-230.75 112.6,-155.8 163,-113.62 164.21,-112.61 165.47,-111.64 166.77,-110.7"/>
<polygon fill="#63b8ff" stroke="#63b8ff" points="168.15,-113.35 174.82,-105.11 164.47,-107.39 168.15,-113.35"/>
</g>
<!-- Node20 -->
<g id="node20" class="node">
<title>Node20</title>
<g id="a_node20"><a target="_blank" xlink:href="http://en.cppreference.com/w/cpp/container/vector/push_back.html#" xlink:title=" ">
<polygon fill="white" stroke="#666666" points="290.75,-56.25 175,-56.25 175,-37 290.75,-37 290.75,-56.25"/>
<text text-anchor="middle" x="232.88" y="-42.75" font-family="Helvetica,sans-Serif" font-size="10.00">std::vector::push_back</text>
</a>
</g>
</g>
<!-- Node1&#45;&gt;Node20 -->
<g id="edge23" class="edge">
<title>Node1&#45;&gt;Node20</title>
<path fill="none" stroke="#63b8ff" d="M67.67,-267.57C75.45,-223.31 99.72,-120.24 163,-65.62 164.58,-64.26 166.26,-62.99 168.01,-61.81"/>
<polygon fill="#63b8ff" stroke="#63b8ff" points="169.23,-64.57 176.25,-56.64 165.81,-58.47 169.23,-64.57"/>
</g>
<!-- Node21 -->
<g id="node21" class="node">
<title>Node21</title>
<g id="a_node21"><a target="_blank" xlink:href="http://en.cppreference.com/w/cpp/string/basic_string/stof.html#" xlink:title=" ">
<polygon fill="white" stroke="#666666" points="260,-19.25 205.75,-19.25 205.75,0 260,0 260,-19.25"/>
<text text-anchor="middle" x="232.88" y="-5.75" font-family="Helvetica,sans-Serif" font-size="10.00">std::stod</text>
</a>
</g>
</g>
<!-- Node1&#45;&gt;Node21 -->
<g id="edge24" class="edge">
<title>Node1&#45;&gt;Node21</title>
<path fill="none" stroke="#63b8ff" d="M66.09,-267.42C70.99,-217.74 90.28,-93.07 163,-27.62 171.77,-19.73 183.58,-15.22 194.94,-12.67"/>
<polygon fill="#63b8ff" stroke="#63b8ff" points="195.35,-15.97 204.59,-10.78 194.13,-9.08 195.35,-15.97"/>
</g>
<!-- Node11&#45;&gt;Node5 -->
<g id="edge11" class="edge">
<title>Node11&#45;&gt;Node5</title>
<path fill="none" stroke="#63b8ff" d="M284.67,-390.31C290.89,-392.81 297.05,-395.59 302.75,-398.62 320.4,-408.03 320.12,-418.35 338.75,-425.62 388,-444.87 449.85,-447.34 488.47,-446.58"/>
<polygon fill="#63b8ff" stroke="#63b8ff" points="488.3,-450.05 498.2,-446.27 488.1,-443.06 488.3,-450.05"/>
</g>
<!-- Node11&#45;&gt;Node7 -->
<g id="edge12" class="edge">
<title>Node11&#45;&gt;Node7</title>
<path fill="none" stroke="#63b8ff" d="M288.8,-358.93C293.72,-356.52 298.46,-353.76 302.75,-350.62 324.28,-334.89 315.53,-315.75 338.75,-302.62 385.68,-276.1 449.97,-275.95 489.49,-279.14"/>
<polygon fill="#63b8ff" stroke="#63b8ff" points="489.15,-282.72 499.44,-280.16 489.8,-275.75 489.15,-282.72"/>
</g>
<!-- Node12 -->
<g id="node12" class="node">
<title>Node12</title>
<g id="a_node12"><a xlink:href="../../d8/d77/namespacemachine__learning.html#aa4bbf61e65f8cd297255fa94b983d078" target="_top" xlink:title=" ">
<polygon fill="white" stroke="#666666" points="450,-341.88 338.75,-341.88 338.75,-311.38 450,-311.38 450,-341.88"/>
<text text-anchor="start" x="346.75" y="-328.38" font-family="Helvetica,sans-Serif" font-size="10.00">machine_learning::get</text>
<text text-anchor="middle" x="394.38" y="-317.12" font-family="Helvetica,sans-Serif" font-size="10.00">_shape</text>
</a>
</g>
</g>
<!-- Node11&#45;&gt;Node12 -->
<g id="edge13" class="edge">
<title>Node11&#45;&gt;Node12</title>
<path fill="none" stroke="#63b8ff" d="M286.1,-358.91C300.5,-354.58 316.25,-349.83 331.15,-345.35"/>
<polygon fill="#63b8ff" stroke="#63b8ff" points="331.74,-348.53 340.3,-342.3 329.72,-341.83 331.74,-348.53"/>
</g>
<!-- Node14 -->
<g id="node14" class="node">
<title>Node14</title>
<g id="a_node14"><a target="_blank" xlink:href="http://en.cppreference.com/w/cpp/algorithm/max.html#" xlink:title=" ">
<polygon fill="white" stroke="#666666" points="421.5,-255.25 367.25,-255.25 367.25,-236 421.5,-236 421.5,-255.25"/>
<text text-anchor="middle" x="394.38" y="-241.75" font-family="Helvetica,sans-Serif" font-size="10.00">std::max</text>
</a>
</g>
</g>
<!-- Node11&#45;&gt;Node14 -->
<g id="edge17" class="edge">
<title>Node11&#45;&gt;Node14</title>
<path fill="none" stroke="#63b8ff" d="M291.28,-358.95C295.41,-356.55 299.3,-353.8 302.75,-350.62 331.74,-323.95 310.83,-297.42 338.75,-269.62 343.93,-264.47 350.4,-260.33 357.06,-257.04"/>
<polygon fill="#63b8ff" stroke="#63b8ff" points="358.04,-260 365.82,-252.81 355.26,-253.58 358.04,-260"/>
</g>
<!-- Node15 -->
<g id="node15" class="node">
<title>Node15</title>
<g id="a_node15"><a target="_blank" xlink:href="http://en.cppreference.com/w/cpp/algorithm/min.html#" xlink:title=" ">
<polygon fill="white" stroke="#666666" points="420,-416.25 368.75,-416.25 368.75,-397 420,-397 420,-416.25"/>
<text text-anchor="middle" x="394.38" y="-402.75" font-family="Helvetica,sans-Serif" font-size="10.00">std::min</text>
</a>
</g>
</g>
<!-- Node11&#45;&gt;Node15 -->
<g id="edge18" class="edge">
<title>Node11&#45;&gt;Node15</title>
<path fill="none" stroke="#63b8ff" d="M299.21,-387.73C319.25,-391.75 340.55,-396.03 357.81,-399.49"/>
<polygon fill="#63b8ff" stroke="#63b8ff" points="357.03,-403.1 367.52,-401.64 358.41,-396.24 357.03,-403.1"/>
</g>
<!-- Node16 -->
<g id="node16" class="node">
<title>Node16</title>
<g id="a_node16"><a target="_blank" xlink:href="http://en.cppreference.com/w/cpp/container/vector/size.html#" xlink:title=" ">
<polygon fill="white" stroke="#666666" points="437.62,-379.25 351.12,-379.25 351.12,-360 437.62,-360 437.62,-379.25"/>
<text text-anchor="middle" x="394.38" y="-365.75" font-family="Helvetica,sans-Serif" font-size="10.00">std::vector::size</text>
</a>
</g>
</g>
<!-- Node11&#45;&gt;Node16 -->
<g id="edge19" class="edge">
<title>Node11&#45;&gt;Node16</title>
<path fill="none" stroke="#63b8ff" d="M299.21,-372.58C312.79,-372.15 326.94,-371.71 340.02,-371.3"/>
<polygon fill="#63b8ff" stroke="#63b8ff" points="339.84,-374.77 349.73,-370.96 339.62,-367.78 339.84,-374.77"/>
</g>
<!-- Node12&#45;&gt;Node5 -->
<g id="edge14" class="edge">
<title>Node12&#45;&gt;Node5</title>
<path fill="none" stroke="#63b8ff" d="M436.87,-342.26C441.49,-344.75 445.97,-347.53 450,-350.62 477.36,-371.63 500.71,-404.61 513.86,-425.4"/>
<polygon fill="#63b8ff" stroke="#63b8ff" points="511.24,-426.83 519.46,-433.52 517.21,-423.17 511.24,-426.83"/>
</g>
<!-- Node12&#45;&gt;Node7 -->
<g id="edge15" class="edge">
<title>Node12&#45;&gt;Node7</title>
<path fill="none" stroke="#63b8ff" d="M442.63,-310.98C458.39,-305.76 475.65,-300.05 490.3,-295.2"/>
<polygon fill="#63b8ff" stroke="#63b8ff" points="491.06,-298.3 499.45,-291.84 488.86,-291.66 491.06,-298.3"/>
</g>
<!-- Node13 -->
<g id="node13" class="node">
<title>Node13</title>
<g id="a_node13"><a target="_blank" xlink:href="http://en.cppreference.com/w/cpp/utility/pair/make_pair.html#" xlink:title=" ">
<polygon fill="white" stroke="#666666" points="566.5,-336.25 486,-336.25 486,-317 566.5,-317 566.5,-336.25"/>
<text text-anchor="middle" x="526.25" y="-322.75" font-family="Helvetica,sans-Serif" font-size="10.00">std::make_pair</text>
</a>
</g>
</g>
<!-- Node12&#45;&gt;Node13 -->
<g id="edge16" class="edge">
<title>Node12&#45;&gt;Node13</title>
<path fill="none" stroke="#63b8ff" d="M450.45,-326.62C458.63,-326.62 467.02,-326.62 475.09,-326.62"/>
<polygon fill="#63b8ff" stroke="#63b8ff" points="474.84,-330.13 484.84,-326.62 474.84,-323.13 474.84,-330.13"/>
</g>
</g>
</svg>
