<?xml version="1.0" encoding="UTF-8" standalone="no"?>
<!DOCTYPE svg PUBLIC "-//W3C//DTD SVG 1.1//EN"
 "http://www.w3.org/Graphics/SVG/1.1/DTD/svg11.dtd">
<!-- Generated by graphviz version 8.1.0 (20230707.0739)
 -->
<!-- Title: machine_learning::neural_network::NeuralNetwork::evaluate Pages: 1 -->
<svg width="914pt" height="452pt"
 viewBox="0.00 0.00 914.00 452.25" xmlns="http://www.w3.org/2000/svg" xmlns:xlink="http://www.w3.org/1999/xlink">
<g id="graph0" class="graph" transform="scale(1 1) rotate(0) translate(4 448.25)">
<title>machine_learning::neural_network::NeuralNetwork::evaluate</title>
<!-- Node1 -->
<g id="Node000001" class="node">
<title>Node1</title>
<g id="a_Node000001"><a xlink:title=" ">
<polygon fill="#999999" stroke="#666666" points="127,-218.5 0,-218.5 0,-176.75 127,-176.75 127,-218.5"/>
<text text-anchor="start" x="8" y="-205" font-family="Helvetica,sans-Serif" font-size="10.00">machine_learning::neural</text>
<text text-anchor="start" x="8" y="-193.75" font-family="Helvetica,sans-Serif" font-size="10.00">_network::NeuralNetwork</text>
<text text-anchor="middle" x="63.5" y="-182.5" font-family="Helvetica,sans-Serif" font-size="10.00">::evaluate</text>
</a>
</g>
</g>
<!-- Node2 -->
<g id="Node000002" class="node">
<title>Node2</title>
<g id="a_Node000002"><a xlink:href="../../d8/d77/namespacemachine__learning.html#ad0bdc88e5f1be47c46c0f0c8ebf754bb" target="_top" xlink:title=" ">
<polygon fill="white" stroke="#666666" points="632.5,-349.88 511.5,-349.88 511.5,-319.38 632.5,-319.38 632.5,-349.88"/>
<text text-anchor="start" x="519.5" y="-336.38" font-family="Helvetica,sans-Serif" font-size="10.00">machine_learning::apply</text>
<text text-anchor="middle" x="572" y="-325.12" font-family="Helvetica,sans-Serif" font-size="10.00">_function</text>
</a>
</g>
</g>
<!-- Node1&#45;&gt;Node2 -->
<g id="edge1_Node000001_Node000002" class="edge">
<title>Node1&#45;&gt;Node2</title>
<g id="a_edge1_Node000001_Node000002"><a xlink:title=" ">
<path fill="none" stroke="#63b8ff" d="M79.51,-218.84C96.81,-241.42 127.45,-276.11 163,-292.62 272.5,-343.5 415.95,-345.41 500.33,-340.89"/>
<polygon fill="#63b8ff" stroke="#63b8ff" points="500.29,-344.34 510.07,-340.27 499.89,-337.36 500.29,-344.34"/>
</a>
</g>
</g>
<!-- Node3 -->
<g id="Node000003" class="node">
<title>Node3</title>
<g id="a_Node000003"><a xlink:href="../../d8/d77/namespacemachine__learning.html#a50480fccfb39de20ca47f1bf51ecb6ec" target="_top" xlink:title=" ">
<polygon fill="white" stroke="#666666" points="637,-207.25 507,-207.25 507,-188 637,-188 637,-207.25"/>
<text text-anchor="middle" x="572" y="-193.75" font-family="Helvetica,sans-Serif" font-size="10.00">machine_learning::argmax</text>
</a>
</g>
</g>
<!-- Node1&#45;&gt;Node3 -->
<g id="edge2_Node000001_Node000003" class="edge">
<title>Node1&#45;&gt;Node3</title>
<g id="a_edge2_Node000001_Node000003"><a xlink:title=" ">
<path fill="none" stroke="#63b8ff" d="M127.37,-197.62C220.7,-197.62 395.63,-197.62 495.68,-197.62"/>
<polygon fill="#63b8ff" stroke="#63b8ff" points="495.61,-201.13 505.61,-197.62 495.61,-194.13 495.61,-201.13"/>
</a>
</g>
</g>
<!-- Node7 -->
<g id="Node000007" class="node">
<title>Node7</title>
<g id="a_Node000007"><a target="_blank" xlink:href="http://en.cppreference.com/w/cpp/io/manip/endl.html#" xlink:title=" ">
<polygon fill="white" stroke="#666666" points="892.5,-189.25 839,-189.25 839,-170 892.5,-170 892.5,-189.25"/>
<text text-anchor="middle" x="865.75" y="-175.75" font-family="Helvetica,sans-Serif" font-size="10.00">std::endl</text>
</a>
</g>
</g>
<!-- Node1&#45;&gt;Node7 -->
<g id="edge13_Node000001_Node000007" class="edge">
<title>Node1&#45;&gt;Node7</title>
<g id="a_edge13_Node000001_Node000007"><a xlink:title=" ">
<path fill="none" stroke="#63b8ff" d="M90.7,-176.45C144.6,-135.1 273.28,-47.62 397.12,-47.62 397.12,-47.62 397.12,-47.62 573,-47.62 670.77,-47.62 705.36,-36.83 789.5,-86.62 819.3,-104.26 842.2,-138.37 854.55,-160.02"/>
<polygon fill="#63b8ff" stroke="#63b8ff" points="851.88,-161.42 859.75,-168.51 858.02,-158.06 851.88,-161.42"/>
</a>
</g>
</g>
<!-- Node12 -->
<g id="Node000012" class="node">
<title>Node12</title>
<g id="a_Node000012"><a xlink:href="../../d4/df4/classmachine__learning_1_1neural__network_1_1_neural_network.html#a3b9eac1824d365dce715fb17c33cb96f" target="_top" xlink:title=" ">
<polygon fill="white" stroke="#666666" points="290,-283.5 163,-283.5 163,-241.75 290,-241.75 290,-283.5"/>
<text text-anchor="start" x="171" y="-270" font-family="Helvetica,sans-Serif" font-size="10.00">machine_learning::neural</text>
<text text-anchor="start" x="171" y="-258.75" font-family="Helvetica,sans-Serif" font-size="10.00">_network::NeuralNetwork</text>
<text text-anchor="middle" x="226.5" y="-247.5" font-family="Helvetica,sans-Serif" font-size="10.00">::single_predict</text>
</a>
</g>
</g>
<!-- Node1&#45;&gt;Node12 -->
<g id="edge14_Node000001_Node000012" class="edge">
<title>Node1&#45;&gt;Node12</title>
<g id="a_edge14_Node000001_Node000012"><a xlink:title=" ">
<path fill="none" stroke="#63b8ff" d="M117.22,-218.91C131.81,-224.8 147.79,-231.25 162.89,-237.35"/>
<polygon fill="#63b8ff" stroke="#63b8ff" points="161.08,-240.8 171.66,-241.29 163.7,-234.3 161.08,-240.8"/>
</a>
</g>
</g>
<!-- Node17 -->
<g id="Node000017" class="node">
<title>Node17</title>
<g id="a_Node000017"><a xlink:href="../../d8/d77/namespacemachine__learning.html#a6f1c98c016ad34ff3d9f39372161bd35" target="_top" xlink:title=" ">
<polygon fill="white" stroke="#666666" points="284.75,-19.25 168.25,-19.25 168.25,0 284.75,0 284.75,-19.25"/>
<text text-anchor="middle" x="226.5" y="-5.75" font-family="Helvetica,sans-Serif" font-size="10.00">machine_learning::sum</text>
</a>
</g>
</g>
<!-- Node1&#45;&gt;Node17 -->
<g id="edge23_Node000001_Node000017" class="edge">
<title>Node1&#45;&gt;Node17</title>
<g id="a_edge23_Node000001_Node000017"><a xlink:title=" ">
<path fill="none" stroke="#63b8ff" d="M71.95,-176.45C85.13,-141.92 115.68,-73.34 163,-33.62 167.29,-30.03 172.17,-26.93 177.28,-24.28"/>
<polygon fill="#63b8ff" stroke="#63b8ff" points="178.63,-27.06 186.27,-19.71 175.72,-20.69 178.63,-27.06"/>
</a>
</g>
</g>
<!-- Node4 -->
<g id="Node000004" class="node">
<title>Node4</title>
<g id="a_Node000004"><a target="_blank" xlink:href="http://en.cppreference.com/w/cpp/iterator/begin.html#" xlink:title=" ">
<polygon fill="white" stroke="#666666" points="761,-207.25 702.25,-207.25 702.25,-188 761,-188 761,-207.25"/>
<text text-anchor="middle" x="731.62" y="-193.75" font-family="Helvetica,sans-Serif" font-size="10.00">std::begin</text>
</a>
</g>
</g>
<!-- Node3&#45;&gt;Node4 -->
<g id="edge3_Node000003_Node000004" class="edge">
<title>Node3&#45;&gt;Node4</title>
<g id="a_edge3_Node000003_Node000004"><a xlink:title=" ">
<path fill="none" stroke="#63b8ff" d="M637.11,-197.62C655.39,-197.62 674.77,-197.62 691.12,-197.62"/>
<polygon fill="#63b8ff" stroke="#63b8ff" points="690.9,-201.13 700.9,-197.62 690.9,-194.13 690.9,-201.13"/>
</a>
</g>
</g>
<!-- Node5 -->
<g id="Node000005" class="node">
<title>Node5</title>
<g id="a_Node000005"><a target="_blank" xlink:href="http://en.cppreference.com/w/cpp/iterator/distance.html#" xlink:title=" ">
<polygon fill="white" stroke="#666666" points="767.75,-170.25 695.5,-170.25 695.5,-151 767.75,-151 767.75,-170.25"/>
<text text-anchor="middle" x="731.62" y="-156.75" font-family="Helvetica,sans-Serif" font-size="10.00">std::distance</text>
</a>
</g>
</g>
<!-- Node3&#45;&gt;Node5 -->
<g id="edge4_Node000003_Node000005" class="edge">
<title>Node3&#45;&gt;Node5</title>
<g id="a_edge4_Node000003_Node000005"><a xlink:title=" ">
<path fill="none" stroke="#63b8ff" d="M616.07,-187.51C637.28,-182.54 662.87,-176.53 684.48,-171.46"/>
<polygon fill="#63b8ff" stroke="#63b8ff" points="685.12,-174.67 694.05,-168.97 683.52,-167.85 685.12,-174.67"/>
</a>
</g>
</g>
<!-- Node6 -->
<g id="Node000006" class="node">
<title>Node6</title>
<g id="a_Node000006"><a target="_blank" xlink:href="http://en.cppreference.com/w/cpp/iterator/end.html#" xlink:title=" ">
<polygon fill="white" stroke="#666666" points="757.25,-133.25 706,-133.25 706,-114 757.25,-114 757.25,-133.25"/>
<text text-anchor="middle" x="731.62" y="-119.75" font-family="Helvetica,sans-Serif" font-size="10.00">std::end</text>
</a>
</g>
</g>
<!-- Node3&#45;&gt;Node6 -->
<g id="edge5_Node000003_Node000006" class="edge">
<title>Node3&#45;&gt;Node6</title>
<g id="a_edge5_Node000003_Node000006"><a xlink:title=" ">
<path fill="none" stroke="#63b8ff" d="M588.55,-187.68C607.93,-175.6 642.32,-155.17 673.75,-141.62 680.59,-138.68 688.07,-135.97 695.3,-133.59"/>
<polygon fill="#63b8ff" stroke="#63b8ff" points="696.1,-136.69 704.59,-130.36 694.01,-130.01 696.1,-136.69"/>
</a>
</g>
</g>
<!-- Node3&#45;&gt;Node7 -->
<g id="edge6_Node000003_Node000007" class="edge">
<title>Node3&#45;&gt;Node7</title>
<g id="a_edge6_Node000003_Node000007"><a xlink:title=" ">
<path fill="none" stroke="#63b8ff" d="M579.63,-187.8C593.96,-167.57 630.08,-121.7 673.75,-104.62 721.66,-85.89 741.96,-84.98 789.5,-104.62 816.81,-115.91 839.41,-142.44 852.5,-160.72"/>
<polygon fill="#63b8ff" stroke="#63b8ff" points="850.07,-162.37 858.61,-168.64 855.84,-158.41 850.07,-162.37"/>
</a>
</g>
</g>
<!-- Node8 -->
<g id="Node000008" class="node">
<title>Node8</title>
<g id="a_Node000008"><a target="_blank" xlink:href="http://en.cppreference.com/w/cpp/utility/program/exit.html#" xlink:title=" ">
<polygon fill="white" stroke="#666666" points="891.38,-368.25 840.12,-368.25 840.12,-349 891.38,-349 891.38,-368.25"/>
<text text-anchor="middle" x="865.75" y="-354.75" font-family="Helvetica,sans-Serif" font-size="10.00">std::exit</text>
</a>
</g>
</g>
<!-- Node3&#45;&gt;Node8 -->
<g id="edge7_Node000003_Node000008" class="edge">
<title>Node3&#45;&gt;Node8</title>
<g id="a_edge7_Node000003_Node000008"><a xlink:title=" ">
<path fill="none" stroke="#63b8ff" d="M599.04,-207.7C612.24,-213.97 627.59,-223.23 637.75,-235.62 668.76,-273.45 635.36,-309.31 673.75,-339.62 717.95,-374.52 787.03,-371.63 828.88,-365.62"/>
<polygon fill="#63b8ff" stroke="#63b8ff" points="829.34,-368.94 838.67,-363.92 828.24,-362.02 829.34,-368.94"/>
</a>
</g>
</g>
<!-- Node9 -->
<g id="Node000009" class="node">
<title>Node9</title>
<g id="a_Node000009"><a xlink:href="../../d8/d77/namespacemachine__learning.html#aa4bbf61e65f8cd297255fa94b983d078" target="_top" xlink:title=" ">
<polygon fill="white" stroke="#666666" points="787.25,-330.88 676,-330.88 676,-300.38 787.25,-300.38 787.25,-330.88"/>
<text text-anchor="start" x="684" y="-317.38" font-family="Helvetica,sans-Serif" font-size="10.00">machine_learning::get</text>
<text text-anchor="middle" x="731.62" y="-306.12" font-family="Helvetica,sans-Serif" font-size="10.00">_shape</text>
</a>
</g>
</g>
<!-- Node3&#45;&gt;Node9 -->
<g id="edge8_Node000003_Node000009" class="edge">
<title>Node3&#45;&gt;Node9</title>
<g id="a_edge8_Node000003_Node000009"><a xlink:title=" ">
<path fill="none" stroke="#63b8ff" d="M592.26,-207.73C605.45,-214.94 623.12,-225.16 637.75,-235.62 662.37,-253.23 688.3,-275.97 706.48,-292.7"/>
<polygon fill="#63b8ff" stroke="#63b8ff" points="703.55,-294.68 713.26,-298.92 708.32,-289.55 703.55,-294.68"/>
</a>
</g>
</g>
<!-- Node11 -->
<g id="Node000011" class="node">
<title>Node11</title>
<g id="a_Node000011"><a target="_blank" xlink:href="http://en.cppreference.com/w/cpp/algorithm/max_element.html#" xlink:title=" ">
<polygon fill="white" stroke="#666666" points="778.62,-244.25 684.62,-244.25 684.62,-225 778.62,-225 778.62,-244.25"/>
<text text-anchor="middle" x="731.62" y="-230.75" font-family="Helvetica,sans-Serif" font-size="10.00">std::max_element</text>
</a>
</g>
</g>
<!-- Node3&#45;&gt;Node11 -->
<g id="edge12_Node000003_Node000011" class="edge">
<title>Node3&#45;&gt;Node11</title>
<g id="a_edge12_Node000003_Node000011"><a xlink:title=" ">
<path fill="none" stroke="#63b8ff" d="M616.07,-207.74C634.92,-212.16 657.24,-217.4 677.14,-222.07"/>
<polygon fill="#63b8ff" stroke="#63b8ff" points="676.07,-225.65 686.61,-224.53 677.67,-218.83 676.07,-225.65"/>
</a>
</g>
</g>
<!-- Node9&#45;&gt;Node7 -->
<g id="edge9_Node000009_Node000007" class="edge">
<title>Node9&#45;&gt;Node7</title>
<g id="a_edge9_Node000009_Node000007"><a xlink:title=" ">
<path fill="none" stroke="#63b8ff" d="M769.79,-300C776.73,-296.18 783.64,-291.71 789.5,-286.62 818.65,-261.33 842.27,-222.45 854.84,-199.18"/>
<polygon fill="#63b8ff" stroke="#63b8ff" points="858.28,-201.18 859.83,-190.7 852.08,-197.92 858.28,-201.18"/>
</a>
</g>
</g>
<!-- Node9&#45;&gt;Node8 -->
<g id="edge10_Node000009_Node000008" class="edge">
<title>Node9&#45;&gt;Node8</title>
<g id="a_edge10_Node000009_Node000008"><a xlink:title=" ">
<path fill="none" stroke="#63b8ff" d="M780.7,-331.27C796.85,-336.53 814.55,-342.29 829.53,-347.16"/>
<polygon fill="#63b8ff" stroke="#63b8ff" points="828.3,-350.77 838.89,-350.53 830.46,-344.11 828.3,-350.77"/>
</a>
</g>
</g>
<!-- Node10 -->
<g id="Node000010" class="node">
<title>Node10</title>
<g id="a_Node000010"><a target="_blank" xlink:href="http://en.cppreference.com/w/cpp/utility/pair/make_pair.html#" xlink:title=" ">
<polygon fill="white" stroke="#666666" points="906,-325.25 825.5,-325.25 825.5,-306 906,-306 906,-325.25"/>
<text text-anchor="middle" x="865.75" y="-311.75" font-family="Helvetica,sans-Serif" font-size="10.00">std::make_pair</text>
</a>
</g>
</g>
<!-- Node9&#45;&gt;Node10 -->
<g id="edge11_Node000009_Node000010" class="edge">
<title>Node9&#45;&gt;Node10</title>
<g id="a_edge11_Node000009_Node000010"><a xlink:title=" ">
<path fill="none" stroke="#63b8ff" d="M787.51,-315.62C796.38,-315.62 805.53,-315.62 814.3,-315.62"/>
<polygon fill="#63b8ff" stroke="#63b8ff" points="814.14,-319.13 824.14,-315.62 814.14,-312.13 814.14,-319.13"/>
</a>
</g>
</g>
<!-- Node13 -->
<g id="Node000013" class="node">
<title>Node13</title>
<g id="a_Node000013"><a xlink:href="../../d4/df4/classmachine__learning_1_1neural__network_1_1_neural_network.html#a361a45f3c3d8347d79103bf182d0570b" target="_top" xlink:title=" ">
<polygon fill="white" stroke="#666666" points="470.25,-283.5 326,-283.5 326,-241.75 470.25,-241.75 470.25,-283.5"/>
<text text-anchor="start" x="334" y="-270" font-family="Helvetica,sans-Serif" font-size="10.00">machine_learning::neural</text>
<text text-anchor="start" x="334" y="-258.75" font-family="Helvetica,sans-Serif" font-size="10.00">_network::NeuralNetwork</text>
<text text-anchor="middle" x="398.12" y="-247.5" font-family="Helvetica,sans-Serif" font-size="10.00">::__detailed_single_prediction</text>
</a>
</g>
</g>
<!-- Node12&#45;&gt;Node13 -->
<g id="edge15_Node000012_Node000013" class="edge">
<title>Node12&#45;&gt;Node13</title>
<g id="a_edge15_Node000012_Node000013"><a xlink:title=" ">
<path fill="none" stroke="#63b8ff" d="M290.18,-262.62C298.19,-262.62 306.47,-262.62 314.73,-262.62"/>
<polygon fill="#63b8ff" stroke="#63b8ff" points="314.54,-266.13 324.54,-262.62 314.54,-259.13 314.54,-266.13"/>
</a>
</g>
</g>
<!-- Node13&#45;&gt;Node2 -->
<g id="edge16_Node000013_Node000002" class="edge">
<title>Node13&#45;&gt;Node2</title>
<g id="a_edge16_Node000013_Node000002"><a xlink:title=" ">
<path fill="none" stroke="#63b8ff" d="M444.97,-283.97C463.83,-292.54 485.97,-302.33 506.25,-310.62 509.85,-312.1 513.57,-313.58 517.33,-315.05"/>
<polygon fill="#63b8ff" stroke="#63b8ff" points="515.72,-318.56 526.31,-318.88 518.23,-312.03 515.72,-318.56"/>
</a>
</g>
</g>
<!-- Node14 -->
<g id="Node000014" class="node">
<title>Node14</title>
<g id="a_Node000014"><a target="_blank" xlink:href="http://en.cppreference.com/w/cpp/container/vector/emplace_back.html#" xlink:title=" ">
<polygon fill="white" stroke="#666666" points="637.75,-264.25 506.25,-264.25 506.25,-245 637.75,-245 637.75,-264.25"/>
<text text-anchor="middle" x="572" y="-250.75" font-family="Helvetica,sans-Serif" font-size="10.00">std::vector::emplace_back</text>
</a>
</g>
</g>
<!-- Node13&#45;&gt;Node14 -->
<g id="edge17_Node000013_Node000014" class="edge">
<title>Node13&#45;&gt;Node14</title>
<g id="a_edge17_Node000013_Node000014"><a xlink:title=" ">
<path fill="none" stroke="#63b8ff" d="M470.52,-259.3C478.58,-258.93 486.8,-258.54 494.91,-258.17"/>
<polygon fill="#63b8ff" stroke="#63b8ff" points="495.04,-261.62 504.87,-257.66 494.72,-254.63 495.04,-261.62"/>
</a>
</g>
</g>
<!-- Node15 -->
<g id="Node000015" class="node">
<title>Node15</title>
<g id="a_Node000015"><a xlink:href="../../d8/d77/namespacemachine__learning.html#a5342906d42b80fc6b6b3ad17bf00fcb9" target="_top" xlink:title=" ">
<polygon fill="white" stroke="#666666" points="637.75,-301.25 506.25,-301.25 506.25,-282 637.75,-282 637.75,-301.25"/>
<text text-anchor="middle" x="572" y="-287.75" font-family="Helvetica,sans-Serif" font-size="10.00">machine_learning::multiply</text>
</a>
</g>
</g>
<!-- Node13&#45;&gt;Node15 -->
<g id="edge18_Node000013_Node000015" class="edge">
<title>Node13&#45;&gt;Node15</title>
<g id="a_edge18_Node000013_Node000015"><a xlink:title=" ">
<path fill="none" stroke="#63b8ff" d="M470.52,-274.67C480.41,-276.34 490.56,-278.05 500.44,-279.72"/>
<polygon fill="#63b8ff" stroke="#63b8ff" points="499.57,-283.29 510.02,-281.5 500.74,-276.39 499.57,-283.29"/>
</a>
</g>
</g>
<!-- Node15&#45;&gt;Node7 -->
<g id="edge19_Node000015_Node000007" class="edge">
<title>Node15&#45;&gt;Node7</title>
<g id="a_edge19_Node000015_Node000007"><a xlink:title=" ">
<path fill="none" stroke="#63b8ff" d="M637.78,-290.28C682.56,-287.02 742.34,-277.9 789.5,-253.62 815.07,-240.46 837.57,-215.63 851.15,-198.38"/>
<polygon fill="#63b8ff" stroke="#63b8ff" points="854.48,-200.78 857.74,-190.7 848.91,-196.55 854.48,-200.78"/>
</a>
</g>
</g>
<!-- Node15&#45;&gt;Node8 -->
<g id="edge20_Node000015_Node000008" class="edge">
<title>Node15&#45;&gt;Node8</title>
<g id="a_edge20_Node000015_Node000008"><a xlink:title=" ">
<path fill="none" stroke="#63b8ff" d="M622.35,-301.71C627.86,-304.08 633.14,-307.01 637.75,-310.62 662.82,-330.29 646.14,-356.73 673.75,-372.62 722.29,-400.57 789.65,-385.68 830.04,-372.22"/>
<polygon fill="#63b8ff" stroke="#63b8ff" points="830.9,-375.28 839.19,-368.68 828.6,-368.67 830.9,-375.28"/>
</a>
</g>
</g>
<!-- Node15&#45;&gt;Node9 -->
<g id="edge21_Node000015_Node000009" class="edge">
<title>Node15&#45;&gt;Node9</title>
<g id="a_edge21_Node000015_Node000009"><a xlink:title=" ">
<path fill="none" stroke="#63b8ff" d="M638.02,-301.53C646.95,-302.88 656.11,-304.28 665.04,-305.64"/>
<polygon fill="#63b8ff" stroke="#63b8ff" points="664.38,-309.23 674.79,-307.28 665.43,-302.31 664.38,-309.23"/>
</a>
</g>
</g>
<!-- Node16 -->
<g id="Node000016" class="node">
<title>Node16</title>
<g id="a_Node000016"><a target="_blank" xlink:href="http://en.cppreference.com/w/cpp/container/vector/push_back.html#" xlink:title=" ">
<polygon fill="white" stroke="#666666" points="789.5,-444.25 673.75,-444.25 673.75,-425 789.5,-425 789.5,-444.25"/>
<text text-anchor="middle" x="731.62" y="-430.75" font-family="Helvetica,sans-Serif" font-size="10.00">std::vector::push_back</text>
</a>
</g>
</g>
<!-- Node15&#45;&gt;Node16 -->
<g id="edge22_Node000015_Node000016" class="edge">
<title>Node15&#45;&gt;Node16</title>
<g id="a_edge22_Node000015_Node000016"><a xlink:title=" ">
<path fill="none" stroke="#63b8ff" d="M624.63,-301.7C629.42,-304.08 633.91,-307.01 637.75,-310.62 672.14,-343.01 641.26,-376.34 673.75,-410.62 677.03,-414.09 680.89,-417.07 685.03,-419.64"/>
<polygon fill="#63b8ff" stroke="#63b8ff" points="682.94,-423.02 693.42,-424.62 686.22,-416.84 682.94,-423.02"/>
</a>
</g>
</g>
</g>
</svg>
