<?xml version="1.0" encoding="UTF-8" standalone="no"?>
<!DOCTYPE svg PUBLIC "-//W3C//DTD SVG 1.1//EN"
 "http://www.w3.org/Graphics/SVG/1.1/DTD/svg11.dtd">
<!-- Generated by graphviz version 7.0.6 (20230106.0513)
 -->
<!-- Title: math/vector_cross_product.cpp Pages: 1 -->
<svg width="248pt" height="82pt"
 viewBox="0.00 0.00 247.50 82.00" xmlns="http://www.w3.org/2000/svg" xmlns:xlink="http://www.w3.org/1999/xlink">
<g id="graph0" class="graph" transform="scale(1 1) rotate(0) translate(4 78)">
<title>math/vector_cross_product.cpp</title>
<!-- Node1 -->
<g id="node1" class="node">
<title>Node1</title>
<g id="a_node1"><a xlink:title="Calculates the Cross Product and the magnitude of two mathematical 3D vectors.">
<polygon fill="#999999" stroke="#666666" points="197,-74 43,-74 43,-55 197,-55 197,-74"/>
<text text-anchor="middle" x="120" y="-62" font-family="Helvetica,sans-Serif" font-size="10.00">math/vector_cross_product.cpp</text>
</a>
</g>
</g>
<!-- Node2 -->
<g id="node2" class="node">
<title>Node2</title>
<g id="a_node2"><a xlink:title=" ">
<polygon fill="#e0e0e0" stroke="#999999" points="54,-19 0,-19 0,0 54,0 54,-19"/>
<text text-anchor="middle" x="27" y="-7" font-family="Helvetica,sans-Serif" font-size="10.00">iostream</text>
</a>
</g>
</g>
<!-- Node1&#45;&gt;Node2 -->
<g id="edge1" class="edge">
<title>Node1&#45;&gt;Node2</title>
<path fill="none" stroke="#63b8ff" d="M104.22,-54.51C89.98,-46.39 68.76,-34.3 52.17,-24.85"/>
<polygon fill="#63b8ff" stroke="#63b8ff" points="54.28,-22.02 43.86,-20.11 50.81,-28.1 54.28,-22.02"/>
</g>
<!-- Node3 -->
<g id="node3" class="node">
<title>Node3</title>
<g id="a_node3"><a xlink:title=" ">
<polygon fill="#e0e0e0" stroke="#999999" points="110,-19 72,-19 72,0 110,0 110,-19"/>
<text text-anchor="middle" x="91" y="-7" font-family="Helvetica,sans-Serif" font-size="10.00">array</text>
</a>
</g>
</g>
<!-- Node1&#45;&gt;Node3 -->
<g id="edge2" class="edge">
<title>Node1&#45;&gt;Node3</title>
<path fill="none" stroke="#63b8ff" d="M115.21,-54.75C111.46,-47.88 106.09,-38.08 101.37,-29.45"/>
<polygon fill="#63b8ff" stroke="#63b8ff" points="104.49,-27.86 96.62,-20.77 98.35,-31.22 104.49,-27.86"/>
</g>
<!-- Node4 -->
<g id="node4" class="node">
<title>Node4</title>
<g id="a_node4"><a xlink:title=" ">
<polygon fill="#e0e0e0" stroke="#999999" points="172,-19 128,-19 128,0 172,0 172,-19"/>
<text text-anchor="middle" x="150" y="-7" font-family="Helvetica,sans-Serif" font-size="10.00">cmath</text>
</a>
</g>
</g>
<!-- Node1&#45;&gt;Node4 -->
<g id="edge3" class="edge">
<title>Node1&#45;&gt;Node4</title>
<path fill="none" stroke="#63b8ff" d="M124.95,-54.75C128.84,-47.88 134.39,-38.08 139.28,-29.45"/>
<polygon fill="#63b8ff" stroke="#63b8ff" points="142.31,-31.19 144.19,-20.76 136.22,-27.74 142.31,-31.19"/>
</g>
<!-- Node5 -->
<g id="node5" class="node">
<title>Node5</title>
<g id="a_node5"><a xlink:title=" ">
<polygon fill="#e0e0e0" stroke="#999999" points="239.5,-19 190.5,-19 190.5,0 239.5,0 239.5,-19"/>
<text text-anchor="middle" x="215" y="-7" font-family="Helvetica,sans-Serif" font-size="10.00">cassert</text>
</a>
</g>
</g>
<!-- Node1&#45;&gt;Node5 -->
<g id="edge4" class="edge">
<title>Node1&#45;&gt;Node5</title>
<path fill="none" stroke="#63b8ff" d="M136.12,-54.51C150.67,-46.39 172.34,-34.3 189.29,-24.85"/>
<polygon fill="#63b8ff" stroke="#63b8ff" points="190.77,-28.02 197.8,-20.1 187.36,-21.91 190.77,-28.02"/>
</g>
</g>
</svg>
