<?xml version="1.0" encoding="UTF-8" standalone="no"?>
<!DOCTYPE svg PUBLIC "-//W3C//DTD SVG 1.1//EN"
 "http://www.w3.org/Graphics/SVG/1.1/DTD/svg11.dtd">
<!-- Generated by graphviz version 9.0.0 (20230911.1827)
 -->
<!-- Title: math/vector_cross_product.cpp Pages: 1 -->
<svg width="245pt" height="83pt"
 viewBox="0.00 0.00 244.88 82.50" xmlns="http://www.w3.org/2000/svg" xmlns:xlink="http://www.w3.org/1999/xlink">
<g id="graph0" class="graph" transform="scale(1 1) rotate(0) translate(4 78.5)">
<title>math/vector_cross_product.cpp</title>
<!-- Node1 -->
<g id="Node000001" class="node">
<title>Node1</title>
<g id="a_Node000001"><a xlink:title="Calculates the Cross Product and the magnitude of two mathematical 3D vectors.">
<polygon fill="#999999" stroke="#666666" points="196.38,-74.5 43.12,-74.5 43.12,-55.25 196.38,-55.25 196.38,-74.5"/>
<text text-anchor="middle" x="119.75" y="-61" font-family="Helvetica,sans-Serif" font-size="10.00">math/vector_cross_product.cpp</text>
</a>
</g>
</g>
<!-- Node2 -->
<g id="Node000002" class="node">
<title>Node2</title>
<g id="a_Node000002"><a xlink:title=" ">
<polygon fill="#e0e0e0" stroke="#999999" points="53.5,-19.25 0,-19.25 0,0 53.5,0 53.5,-19.25"/>
<text text-anchor="middle" x="26.75" y="-5.75" font-family="Helvetica,sans-Serif" font-size="10.00">iostream</text>
</a>
</g>
</g>
<!-- Node1&#45;&gt;Node2 -->
<g id="edge1_Node000001_Node000002" class="edge">
<title>Node1&#45;&gt;Node2</title>
<g id="a_edge1_Node000001_Node000002"><a xlink:title=" ">
<path fill="none" stroke="#63b8ff" d="M103.97,-54.84C89.81,-46.73 68.77,-34.68 52.22,-25.21"/>
<polygon fill="#63b8ff" stroke="#63b8ff" points="54.33,-22.39 43.92,-20.45 50.86,-28.46 54.33,-22.39"/>
</a>
</g>
</g>
<!-- Node3 -->
<g id="Node000003" class="node">
<title>Node3</title>
<g id="a_Node000003"><a xlink:title=" ">
<polygon fill="#e0e0e0" stroke="#999999" points="109.62,-19.25 71.88,-19.25 71.88,0 109.62,0 109.62,-19.25"/>
<text text-anchor="middle" x="90.75" y="-5.75" font-family="Helvetica,sans-Serif" font-size="10.00">array</text>
</a>
</g>
</g>
<!-- Node1&#45;&gt;Node3 -->
<g id="edge2_Node000001_Node000003" class="edge">
<title>Node1&#45;&gt;Node3</title>
<g id="a_edge2_Node000001_Node000003"><a xlink:title=" ">
<path fill="none" stroke="#63b8ff" d="M114.96,-55.08C111.21,-48.19 105.84,-38.34 101.12,-29.66"/>
<polygon fill="#63b8ff" stroke="#63b8ff" points="104.22,-28.05 96.37,-20.94 98.08,-31.39 104.22,-28.05"/>
</a>
</g>
</g>
<!-- Node4 -->
<g id="Node000004" class="node">
<title>Node4</title>
<g id="a_Node000004"><a xlink:title=" ">
<polygon fill="#e0e0e0" stroke="#999999" points="170.25,-19.25 127.25,-19.25 127.25,0 170.25,0 170.25,-19.25"/>
<text text-anchor="middle" x="148.75" y="-5.75" font-family="Helvetica,sans-Serif" font-size="10.00">cmath</text>
</a>
</g>
</g>
<!-- Node1&#45;&gt;Node4 -->
<g id="edge3_Node000001_Node000004" class="edge">
<title>Node1&#45;&gt;Node4</title>
<g id="a_edge3_Node000001_Node000004"><a xlink:title=" ">
<path fill="none" stroke="#63b8ff" d="M124.54,-55.08C128.29,-48.19 133.66,-38.34 138.38,-29.66"/>
<polygon fill="#63b8ff" stroke="#63b8ff" points="141.42,-31.39 143.13,-20.94 135.28,-28.05 141.42,-31.39"/>
</a>
</g>
</g>
<!-- Node5 -->
<g id="Node000005" class="node">
<title>Node5</title>
<g id="a_Node000005"><a xlink:title=" ">
<polygon fill="#e0e0e0" stroke="#999999" points="236.88,-19.25 188.62,-19.25 188.62,0 236.88,0 236.88,-19.25"/>
<text text-anchor="middle" x="212.75" y="-5.75" font-family="Helvetica,sans-Serif" font-size="10.00">cassert</text>
</a>
</g>
</g>
<!-- Node1&#45;&gt;Node5 -->
<g id="edge4_Node000001_Node000005" class="edge">
<title>Node1&#45;&gt;Node5</title>
<g id="a_edge4_Node000001_Node000005"><a xlink:title=" ">
<path fill="none" stroke="#63b8ff" d="M135.53,-54.84C149.69,-46.73 170.73,-34.68 187.28,-25.21"/>
<polygon fill="#63b8ff" stroke="#63b8ff" points="188.64,-28.46 195.58,-20.45 185.17,-22.39 188.64,-28.46"/>
</a>
</g>
</g>
</g>
</svg>
