<?xml version="1.0" encoding="UTF-8" standalone="no"?>
<!DOCTYPE svg PUBLIC "-//W3C//DTD SVG 1.1//EN"
 "http://www.w3.org/Graphics/SVG/1.1/DTD/svg11.dtd">
<!-- Generated by graphviz version 9.0.0 (20230911.1827)
 -->
<!-- Title: dynamic_programming::abbreviation::abbreviation_recursion Pages: 1 -->
<svg width="261pt" height="75pt"
 viewBox="0.00 0.00 260.50 74.50" xmlns="http://www.w3.org/2000/svg" xmlns:xlink="http://www.w3.org/1999/xlink">
<g id="graph0" class="graph" transform="scale(1 1) rotate(0) translate(4 70.5)">
<title>dynamic_programming::abbreviation::abbreviation_recursion</title>
<!-- Node1 -->
<g id="Node000001" class="node">
<title>Node1</title>
<g id="a_Node000001"><a xlink:title="Recursive Dynamic Programming function.">
<polygon fill="#999999" stroke="#666666" points="133,-48.5 0,-48.5 0,-6.75 133,-6.75 133,-48.5"/>
<text text-anchor="start" x="8" y="-35" font-family="Helvetica,sans-Serif" font-size="10.00">dynamic_programming</text>
<text text-anchor="start" x="8" y="-23.75" font-family="Helvetica,sans-Serif" font-size="10.00">::abbreviation::abbreviation</text>
<text text-anchor="middle" x="66.5" y="-12.5" font-family="Helvetica,sans-Serif" font-size="10.00">_recursion</text>
</a>
</g>
</g>
<!-- Node1&#45;&gt;Node1 -->
<g id="edge1_Node000001_Node000001" class="edge">
<title>Node1&#45;&gt;Node1</title>
<g id="a_edge1_Node000001_Node000001"><a xlink:title=" ">
<path fill="none" stroke="#63b8ff" d="M39.88,-48.82C37.34,-58.3 46.21,-66.5 66.5,-66.5 78.23,-66.5 86.14,-63.76 90.24,-59.61"/>
<polygon fill="#63b8ff" stroke="#63b8ff" points="93.54,-60.85 92.73,-50.28 86.77,-59.04 93.54,-60.85"/>
</a>
</g>
</g>
<!-- Node2 -->
<g id="Node000002" class="node">
<title>Node2</title>
<g id="a_Node000002"><a target="_blank" xlink:href="http://en.cppreference.com/w/cpp/container/vector/at.html#" xlink:title=" ">
<polygon fill="white" stroke="#666666" points="249.12,-56.25 172.38,-56.25 172.38,-37 249.12,-37 249.12,-56.25"/>
<text text-anchor="middle" x="210.75" y="-42.75" font-family="Helvetica,sans-Serif" font-size="10.00">std::vector::at</text>
</a>
</g>
</g>
<!-- Node1&#45;&gt;Node2 -->
<g id="edge2_Node000001_Node000002" class="edge">
<title>Node1&#45;&gt;Node2</title>
<g id="a_edge2_Node000001_Node000002"><a xlink:title=" ">
<path fill="none" stroke="#63b8ff" d="M133.21,-36.4C142.53,-37.65 151.96,-38.91 160.88,-40.1"/>
<polygon fill="#63b8ff" stroke="#63b8ff" points="160.38,-43.56 170.75,-41.42 161.3,-36.62 160.38,-43.56"/>
</a>
</g>
</g>
<!-- Node3 -->
<g id="Node000003" class="node">
<title>Node3</title>
<g id="a_Node000003"><a target="_blank" xlink:href="http://en.cppreference.com/w/cpp/string/basic_string/size.html#" xlink:title=" ">
<polygon fill="white" stroke="#666666" points="252.5,-19.25 169,-19.25 169,0 252.5,0 252.5,-19.25"/>
<text text-anchor="middle" x="210.75" y="-5.75" font-family="Helvetica,sans-Serif" font-size="10.00">std::string::size</text>
</a>
</g>
</g>
<!-- Node1&#45;&gt;Node3 -->
<g id="edge3_Node000001_Node000003" class="edge">
<title>Node1&#45;&gt;Node3</title>
<g id="a_edge3_Node000001_Node000003"><a xlink:title=" ">
<path fill="none" stroke="#63b8ff" d="M133.21,-19.31C141.33,-18.28 149.54,-17.24 157.43,-16.25"/>
<polygon fill="#63b8ff" stroke="#63b8ff" points="157.7,-19.74 167.19,-15.01 156.83,-12.79 157.7,-19.74"/>
</a>
</g>
</g>
</g>
</svg>
