<?xml version="1.0" encoding="UTF-8" standalone="no"?>
<!DOCTYPE svg PUBLIC "-//W3C//DTD SVG 1.1//EN"
 "http://www.w3.org/Graphics/SVG/1.1/DTD/svg11.dtd">
<!-- Generated by graphviz version 8.0.5 (20230430.1635)
 -->
<!-- Title: main Pages: 1 -->
<svg width="668pt" height="208pt"
 viewBox="0.00 0.00 668.00 207.62" xmlns="http://www.w3.org/2000/svg" xmlns:xlink="http://www.w3.org/1999/xlink">
<g id="graph0" class="graph" transform="scale(1 1) rotate(0) translate(4 203.62)">
<title>main</title>
<!-- Node1 -->
<g id="node1" class="node">
<title>Node1</title>
<g id="a_node1"><a xlink:title="Main function.">
<polygon fill="#999999" stroke="#666666" points="37,-142.25 0,-142.25 0,-123 37,-123 37,-142.25"/>
<text text-anchor="middle" x="18.5" y="-128.75" font-family="Helvetica,sans-Serif" font-size="10.00">main</text>
</a>
</g>
</g>
<!-- Node2 -->
<g id="node2" class="node">
<title>Node2</title>
<g id="a_node2"><a target="_blank" xlink:href="http://en.cppreference.com/w/cpp/io/manip/endl.html#" xlink:title=" ">
<polygon fill="white" stroke="#666666" points="660,-114.25 606.5,-114.25 606.5,-95 660,-95 660,-114.25"/>
<text text-anchor="middle" x="633.25" y="-100.75" font-family="Helvetica,sans-Serif" font-size="10.00">std::endl</text>
</a>
</g>
</g>
<!-- Node1&#45;&gt;Node2 -->
<g id="edge1" class="edge">
<title>Node1&#45;&gt;Node2</title>
<path fill="none" stroke="#63b8ff" d="M37.46,-141.94C74.67,-160.35 163.35,-199.62 242.62,-199.62 242.62,-199.62 242.62,-199.62 393.75,-199.62 475.27,-199.62 497.29,-186.47 570.5,-150.62 586.19,-142.94 601.95,-131.12 613.63,-121.38"/>
<polygon fill="#63b8ff" stroke="#63b8ff" points="615.39,-123.62 620.69,-114.44 610.82,-118.31 615.39,-123.62"/>
</g>
<!-- Node3 -->
<g id="node3" class="node">
<title>Node3</title>
<g id="a_node3"><a target="_blank" xlink:href="http://en.cppreference.com/w/cpp/container/array/size.html#" xlink:title=" ">
<polygon fill="white" stroke="#666666" points="154.25,-105.25 73,-105.25 73,-86 154.25,-86 154.25,-105.25"/>
<text text-anchor="middle" x="113.62" y="-91.75" font-family="Helvetica,sans-Serif" font-size="10.00">std::array::size</text>
</a>
</g>
</g>
<!-- Node1&#45;&gt;Node3 -->
<g id="edge2" class="edge">
<title>Node1&#45;&gt;Node3</title>
<path fill="none" stroke="#63b8ff" d="M37.46,-125.49C48.74,-121.01 63.69,-115.07 77.29,-109.67"/>
<polygon fill="#63b8ff" stroke="#63b8ff" points="78.33,-112.62 86.33,-105.67 75.75,-106.11 78.33,-112.62"/>
</g>
<!-- Node4 -->
<g id="node4" class="node">
<title>Node4</title>
<g id="a_node4"><a xlink:href="../../d1/daa/random__pivot__quick__sort_8cpp.html#aa8dca7b867074164d5f45b0f3851269d" target="_top" xlink:title="Self&#45;test implementations.">
<polygon fill="white" stroke="#666666" points="129.88,-142.25 97.38,-142.25 97.38,-123 129.88,-123 129.88,-142.25"/>
<text text-anchor="middle" x="113.62" y="-128.75" font-family="Helvetica,sans-Serif" font-size="10.00">test</text>
</a>
</g>
</g>
<!-- Node1&#45;&gt;Node4 -->
<g id="edge3" class="edge">
<title>Node1&#45;&gt;Node4</title>
<path fill="none" stroke="#63b8ff" d="M37.46,-132.62C51.32,-132.62 70.71,-132.62 86.32,-132.62"/>
<polygon fill="#63b8ff" stroke="#63b8ff" points="85.89,-136.13 95.89,-132.62 85.89,-129.13 85.89,-136.13"/>
</g>
<!-- Node5 -->
<g id="node5" class="node">
<title>Node5</title>
<g id="a_node5"><a xlink:href="../../d5/d58/class_test_cases.html#aeabea90c02f9159e4a784bbf736e1e23" target="_top" xlink:title="Executes test cases.">
<polygon fill="white" stroke="#666666" points="297,-114.25 190.25,-114.25 190.25,-95 297,-95 297,-114.25"/>
<text text-anchor="middle" x="243.62" y="-100.75" font-family="Helvetica,sans-Serif" font-size="10.00">TestCases::runTests</text>
</a>
</g>
</g>
<!-- Node4&#45;&gt;Node5 -->
<g id="edge4" class="edge">
<title>Node4&#45;&gt;Node5</title>
<path fill="none" stroke="#63b8ff" d="M130.32,-129.19C144.3,-126.13 165.65,-121.46 185.98,-117.02"/>
<polygon fill="#63b8ff" stroke="#63b8ff" points="186.46,-120.27 195.48,-114.72 184.96,-113.44 186.46,-120.27"/>
</g>
<!-- Node5&#45;&gt;Node2 -->
<g id="edge5" class="edge">
<title>Node5&#45;&gt;Node2</title>
<path fill="none" stroke="#63b8ff" d="M262.57,-114.64C279.96,-123.73 307.4,-136.48 333,-141.62 436.69,-162.46 467.63,-151.18 570.5,-126.62 579.47,-124.48 588.95,-121.49 597.72,-118.41"/>
<polygon fill="#63b8ff" stroke="#63b8ff" points="598.79,-121.37 606.98,-114.64 596.38,-114.8 598.79,-121.37"/>
</g>
<!-- Node6 -->
<g id="node6" class="node">
<title>Node6</title>
<g id="a_node6"><a xlink:href="../../d5/d58/class_test_cases.html#aa3aa3d5bf666f327ee8e2d11d397b06e" target="_top" xlink:title="A function to print given message on console.">
<polygon fill="white" stroke="#666666" points="570.5,-57.25 488.5,-57.25 488.5,-38 570.5,-38 570.5,-57.25"/>
<text text-anchor="middle" x="529.5" y="-43.75" font-family="Helvetica,sans-Serif" font-size="10.00">TestCases::log</text>
</a>
</g>
</g>
<!-- Node5&#45;&gt;Node6 -->
<g id="edge6" class="edge">
<title>Node5&#45;&gt;Node6</title>
<path fill="none" stroke="#63b8ff" d="M263.33,-94.56C280.82,-85.64 307.93,-73.07 333,-66.62 381,-54.29 437.51,-49.84 477.4,-48.29"/>
<polygon fill="#63b8ff" stroke="#63b8ff" points="477.31,-51.76 487.19,-47.93 477.07,-44.77 477.31,-51.76"/>
</g>
<!-- Node7 -->
<g id="node7" class="node">
<title>Node7</title>
<g id="a_node7"><a xlink:href="../../d5/d58/class_test_cases.html#ac2636e8b5b9e053374c45bfcf0603008" target="_top" xlink:title="A test case contains edge case, printing inorder successor of last node.">
<polygon fill="white" stroke="#666666" points="452.5,-132.25 333,-132.25 333,-113 452.5,-113 452.5,-132.25"/>
<text text-anchor="middle" x="392.75" y="-118.75" font-family="Helvetica,sans-Serif" font-size="10.00">TestCases::testCase_1</text>
</a>
</g>
</g>
<!-- Node5&#45;&gt;Node7 -->
<g id="edge8" class="edge">
<title>Node5&#45;&gt;Node7</title>
<path fill="none" stroke="#63b8ff" d="M297.32,-111.07C305.29,-112.05 313.62,-113.07 321.88,-114.08"/>
<polygon fill="#63b8ff" stroke="#63b8ff" points="321.32,-117.66 331.67,-115.4 322.17,-110.71 321.32,-117.66"/>
</g>
<!-- Node8 -->
<g id="node8" class="node">
<title>Node8</title>
<g id="a_node8"><a xlink:href="../../d5/d58/class_test_cases.html#abae0148985f159b582a385cf399254e3" target="_top" xlink:title="A test case which contains main list of 100 elements and sublist of 20.">
<polygon fill="white" stroke="#666666" points="452.5,-95.25 333,-95.25 333,-76 452.5,-76 452.5,-95.25"/>
<text text-anchor="middle" x="392.75" y="-81.75" font-family="Helvetica,sans-Serif" font-size="10.00">TestCases::testCase_2</text>
</a>
</g>
</g>
<!-- Node5&#45;&gt;Node8 -->
<g id="edge11" class="edge">
<title>Node5&#45;&gt;Node8</title>
<path fill="none" stroke="#63b8ff" d="M297.32,-97.82C305.29,-96.79 313.62,-95.71 321.88,-94.65"/>
<polygon fill="#63b8ff" stroke="#63b8ff" points="322.2,-98.01 331.67,-93.25 321.31,-91.06 322.2,-98.01"/>
</g>
<!-- Node9 -->
<g id="node9" class="node">
<title>Node9</title>
<g id="a_node9"><a xlink:href="../../d5/d58/class_test_cases.html#ad9f95c09931625b41e3be1f88d1e28c5" target="_top" xlink:title="A test case which contains main list of 50 elements and sublist of 20.">
<polygon fill="white" stroke="#666666" points="452.5,-19.25 333,-19.25 333,0 452.5,0 452.5,-19.25"/>
<text text-anchor="middle" x="392.75" y="-5.75" font-family="Helvetica,sans-Serif" font-size="10.00">TestCases::testCase_3</text>
</a>
</g>
</g>
<!-- Node5&#45;&gt;Node9 -->
<g id="edge14" class="edge">
<title>Node5&#45;&gt;Node9</title>
<path fill="none" stroke="#63b8ff" d="M255.03,-94.57C270.84,-79.71 302.31,-51.7 333,-33.62 338.98,-30.1 345.58,-26.86 352.12,-23.97"/>
<polygon fill="#63b8ff" stroke="#63b8ff" points="353.39,-26.82 361.27,-19.74 350.69,-20.36 353.39,-26.82"/>
</g>
<!-- Node6&#45;&gt;Node2 -->
<g id="edge7" class="edge">
<title>Node6&#45;&gt;Node2</title>
<path fill="none" stroke="#63b8ff" d="M548.22,-57.55C563.88,-66.33 586.97,-79.26 604.98,-89.35"/>
<polygon fill="#63b8ff" stroke="#63b8ff" points="602.95,-92.79 613.39,-94.62 606.37,-86.68 602.95,-92.79"/>
</g>
<!-- Node7&#45;&gt;Node2 -->
<g id="edge9" class="edge">
<title>Node7&#45;&gt;Node2</title>
<path fill="none" stroke="#63b8ff" d="M452.71,-118.18C497.4,-114.8 557.43,-110.27 595.49,-107.4"/>
<polygon fill="#63b8ff" stroke="#63b8ff" points="595.37,-110.84 605.08,-106.6 594.84,-103.86 595.37,-110.84"/>
</g>
<!-- Node7&#45;&gt;Node6 -->
<g id="edge10" class="edge">
<title>Node7&#45;&gt;Node6</title>
<path fill="none" stroke="#63b8ff" d="M433.36,-112.55C439.91,-110.31 446.51,-107.67 452.5,-104.62 473.68,-93.85 495.1,-77.15 509.77,-64.6"/>
<polygon fill="#63b8ff" stroke="#63b8ff" points="511.76,-66.64 516.98,-57.42 507.15,-61.37 511.76,-66.64"/>
</g>
<!-- Node8&#45;&gt;Node2 -->
<g id="edge12" class="edge">
<title>Node8&#45;&gt;Node2</title>
<path fill="none" stroke="#63b8ff" d="M452.71,-90.32C497.4,-93.88 557.43,-98.66 595.49,-101.7"/>
<polygon fill="#63b8ff" stroke="#63b8ff" points="594.83,-105.23 605.08,-102.54 595.39,-98.26 594.83,-105.23"/>
</g>
<!-- Node8&#45;&gt;Node6 -->
<g id="edge13" class="edge">
<title>Node8&#45;&gt;Node6</title>
<path fill="none" stroke="#63b8ff" d="M429.51,-75.54C445.78,-70.95 465.23,-65.47 482.57,-60.58"/>
<polygon fill="#63b8ff" stroke="#63b8ff" points="483.37,-63.71 492.04,-57.62 481.47,-56.97 483.37,-63.71"/>
</g>
<!-- Node9&#45;&gt;Node2 -->
<g id="edge15" class="edge">
<title>Node9&#45;&gt;Node2</title>
<path fill="none" stroke="#63b8ff" d="M452.79,-4.99C488.83,-4.73 534.71,-9.17 570.5,-28.62 593.98,-41.38 611.9,-67.12 622.24,-85.09"/>
<polygon fill="#63b8ff" stroke="#63b8ff" points="619.58,-86.51 627.44,-93.62 625.72,-83.16 619.58,-86.51"/>
</g>
<!-- Node9&#45;&gt;Node6 -->
<g id="edge16" class="edge">
<title>Node9&#45;&gt;Node6</title>
<path fill="none" stroke="#63b8ff" d="M429.51,-19.71C445.78,-24.3 465.23,-29.78 482.57,-34.67"/>
<polygon fill="#63b8ff" stroke="#63b8ff" points="481.47,-38.28 492.04,-37.63 483.37,-31.54 481.47,-38.28"/>
</g>
</g>
</svg>
