<?xml version="1.0" encoding="UTF-8" standalone="no"?>
<!DOCTYPE svg PUBLIC "-//W3C//DTD SVG 1.1//EN"
 "http://www.w3.org/Graphics/SVG/1.1/DTD/svg11.dtd">
<!-- Generated by graphviz version 2.49.3 (20211023.0002)
 -->
<!-- Title: main Pages: 1 -->
<svg width="670pt" height="208pt"
 viewBox="0.00 0.00 670.00 208.00" xmlns="http://www.w3.org/2000/svg" xmlns:xlink="http://www.w3.org/1999/xlink">
<g id="graph0" class="graph" transform="scale(1 1) rotate(0) translate(4 204)">
<title>main</title>
<polygon fill="white" stroke="transparent" points="-4,4 -4,-204 666,-204 666,4 -4,4"/>
<!-- Node1 -->
<g id="node1" class="node">
<title>Node1</title>
<g id="a_node1"><a xlink:title="Main function.">
<polygon fill="#bfbfbf" stroke="black" points="0,-143.5 0,-162.5 38,-162.5 38,-143.5 0,-143.5"/>
<text text-anchor="middle" x="19" y="-150.5" font-family="Helvetica,sans-Serif" font-size="10.00">main</text>
</a>
</g>
</g>
<!-- Node2 -->
<g id="node2" class="node">
<title>Node2</title>
<g id="a_node2"><a target="_blank" xlink:href="http://en.cppreference.com/w/cpp/io/manip/endl.html#" xlink:title=" ">
<polygon fill="white" stroke="black" points="608,-152.5 608,-171.5 662,-171.5 662,-152.5 608,-152.5"/>
<text text-anchor="middle" x="635" y="-159.5" font-family="Helvetica,sans-Serif" font-size="10.00">std::endl</text>
</a>
</g>
</g>
<!-- Node1&#45;&gt;Node2 -->
<g id="edge1" class="edge">
<title>Node1&#45;&gt;Node2</title>
<path fill="none" stroke="midnightblue" d="M38.25,-160.32C48.6,-164.24 61.87,-168.9 74,-172 148.4,-191.04 167.71,-200 244.5,-200 244.5,-200 244.5,-200 395.5,-200 468,-200 551.38,-182.66 597.86,-171.41"/>
<polygon fill="midnightblue" stroke="midnightblue" points="598.88,-174.76 607.75,-168.97 597.2,-167.97 598.88,-174.76"/>
</g>
<!-- Node3 -->
<g id="node3" class="node">
<title>Node3</title>
<g id="a_node3"><a target="_blank" xlink:href="http://en.cppreference.com/w/cpp/container/array/size.html#" xlink:title=" ">
<polygon fill="white" stroke="black" points="74,-143.5 74,-162.5 156,-162.5 156,-143.5 74,-143.5"/>
<text text-anchor="middle" x="115" y="-150.5" font-family="Helvetica,sans-Serif" font-size="10.00">std::array::size</text>
</a>
</g>
</g>
<!-- Node1&#45;&gt;Node3 -->
<g id="edge2" class="edge">
<title>Node1&#45;&gt;Node3</title>
<path fill="none" stroke="midnightblue" d="M38.12,-153C45.49,-153 54.4,-153 63.48,-153"/>
<polygon fill="midnightblue" stroke="midnightblue" points="63.74,-156.5 73.74,-153 63.74,-149.5 63.74,-156.5"/>
</g>
<!-- Node4 -->
<g id="node4" class="node">
<title>Node4</title>
<g id="a_node4"><a xlink:href="../../d1/daa/random__pivot__quick__sort_8cpp.html#aa8dca7b867074164d5f45b0f3851269d" target="_top" xlink:title="Self&#45;test implementations.">
<polygon fill="white" stroke="black" points="98.5,-86.5 98.5,-105.5 131.5,-105.5 131.5,-86.5 98.5,-86.5"/>
<text text-anchor="middle" x="115" y="-93.5" font-family="Helvetica,sans-Serif" font-size="10.00">test</text>
</a>
</g>
</g>
<!-- Node1&#45;&gt;Node4 -->
<g id="edge3" class="edge">
<title>Node1&#45;&gt;Node4</title>
<path fill="none" stroke="midnightblue" d="M35.95,-143.33C50.62,-134.43 72.6,-121.1 89.5,-110.86"/>
<polygon fill="midnightblue" stroke="midnightblue" points="91.55,-113.7 98.29,-105.53 87.92,-107.72 91.55,-113.7"/>
</g>
<!-- Node5 -->
<g id="node5" class="node">
<title>Node5</title>
<g id="a_node5"><a xlink:href="../../d5/d58/class_test_cases.html#aeabea90c02f9159e4a784bbf736e1e23" target="_top" xlink:title="Executes test cases.">
<polygon fill="white" stroke="black" points="192,-81.5 192,-100.5 299,-100.5 299,-81.5 192,-81.5"/>
<text text-anchor="middle" x="245.5" y="-88.5" font-family="Helvetica,sans-Serif" font-size="10.00">TestCases::runTests</text>
</a>
</g>
</g>
<!-- Node4&#45;&gt;Node5 -->
<g id="edge4" class="edge">
<title>Node4&#45;&gt;Node5</title>
<path fill="none" stroke="midnightblue" d="M131.5,-95.4C144.23,-94.9 163.16,-94.17 181.9,-93.44"/>
<polygon fill="midnightblue" stroke="midnightblue" points="182.09,-96.93 191.95,-93.04 181.82,-89.94 182.09,-96.93"/>
</g>
<!-- Node5&#45;&gt;Node2 -->
<g id="edge5" class="edge">
<title>Node5&#45;&gt;Node2</title>
<path fill="none" stroke="midnightblue" d="M270.55,-100.54C288.15,-107.18 312.74,-115.75 335,-121 428.18,-142.97 540.67,-154.47 597.44,-159.25"/>
<polygon fill="midnightblue" stroke="midnightblue" points="597.44,-162.76 607.7,-160.09 598.02,-155.78 597.44,-162.76"/>
</g>
<!-- Node6 -->
<g id="node6" class="node">
<title>Node6</title>
<g id="a_node6"><a xlink:href="../../d5/d58/class_test_cases.html#aa3aa3d5bf666f327ee8e2d11d397b06e" target="_top" xlink:title="A function to print given message on console.">
<polygon fill="white" stroke="black" points="490,-76.5 490,-95.5 572,-95.5 572,-76.5 490,-76.5"/>
<text text-anchor="middle" x="531" y="-83.5" font-family="Helvetica,sans-Serif" font-size="10.00">TestCases::log</text>
</a>
</g>
</g>
<!-- Node5&#45;&gt;Node6 -->
<g id="edge6" class="edge">
<title>Node5&#45;&gt;Node6</title>
<path fill="none" stroke="midnightblue" d="M297.82,-100.51C309.96,-102.38 322.9,-104.05 335,-105 387.73,-109.14 401.51,-111.46 454,-105 465.69,-103.56 478.17,-100.92 489.57,-98.06"/>
<polygon fill="midnightblue" stroke="midnightblue" points="490.48,-101.44 499.26,-95.51 488.7,-94.67 490.48,-101.44"/>
</g>
<!-- Node7 -->
<g id="node7" class="node">
<title>Node7</title>
<g id="a_node7"><a xlink:href="../../d5/d58/class_test_cases.html#ac2636e8b5b9e053374c45bfcf0603008" target="_top" xlink:title="A test case contains edge case, printing inorder successor of last node.">
<polygon fill="white" stroke="black" points="335,-76.5 335,-95.5 454,-95.5 454,-76.5 335,-76.5"/>
<text text-anchor="middle" x="394.5" y="-83.5" font-family="Helvetica,sans-Serif" font-size="10.00">TestCases::testCase_1</text>
</a>
</g>
</g>
<!-- Node5&#45;&gt;Node7 -->
<g id="edge8" class="edge">
<title>Node5&#45;&gt;Node7</title>
<path fill="none" stroke="midnightblue" d="M299.16,-89.21C307.5,-88.93 316.24,-88.63 324.89,-88.33"/>
<polygon fill="midnightblue" stroke="midnightblue" points="325.1,-91.83 334.98,-87.99 324.86,-84.83 325.1,-91.83"/>
</g>
<!-- Node8 -->
<g id="node8" class="node">
<title>Node8</title>
<g id="a_node8"><a xlink:href="../../d5/d58/class_test_cases.html#abae0148985f159b582a385cf399254e3" target="_top" xlink:title="A test case which contains main list of 100 elements and sublist of 20.">
<polygon fill="white" stroke="black" points="335,-38.5 335,-57.5 454,-57.5 454,-38.5 335,-38.5"/>
<text text-anchor="middle" x="394.5" y="-45.5" font-family="Helvetica,sans-Serif" font-size="10.00">TestCases::testCase_2</text>
</a>
</g>
</g>
<!-- Node5&#45;&gt;Node8 -->
<g id="edge10" class="edge">
<title>Node5&#45;&gt;Node8</title>
<path fill="none" stroke="midnightblue" d="M279.12,-81.46C300.34,-75.25 328.23,-67.09 351.15,-60.39"/>
<polygon fill="midnightblue" stroke="midnightblue" points="352.35,-63.68 360.97,-57.52 350.39,-56.96 352.35,-63.68"/>
</g>
<!-- Node9 -->
<g id="node9" class="node">
<title>Node9</title>
<g id="a_node9"><a xlink:href="../../d5/d58/class_test_cases.html#ad9f95c09931625b41e3be1f88d1e28c5" target="_top" xlink:title="A test case which contains main list of 50 elements and sublist of 20.">
<polygon fill="white" stroke="black" points="335,-0.5 335,-19.5 454,-19.5 454,-0.5 335,-0.5"/>
<text text-anchor="middle" x="394.5" y="-7.5" font-family="Helvetica,sans-Serif" font-size="10.00">TestCases::testCase_3</text>
</a>
</g>
</g>
<!-- Node5&#45;&gt;Node9 -->
<g id="edge12" class="edge">
<title>Node5&#45;&gt;Node9</title>
<path fill="none" stroke="midnightblue" d="M257.82,-81.39C274,-68.06 305.12,-43.9 335,-29 339.31,-26.85 343.92,-24.87 348.59,-23.06"/>
<polygon fill="midnightblue" stroke="midnightblue" points="349.96,-26.29 358.18,-19.6 347.58,-19.7 349.96,-26.29"/>
</g>
<!-- Node6&#45;&gt;Node2 -->
<g id="edge7" class="edge">
<title>Node6&#45;&gt;Node2</title>
<path fill="none" stroke="midnightblue" d="M544.92,-95.63C562.09,-108.42 592.63,-131.17 613.1,-146.43"/>
<polygon fill="midnightblue" stroke="midnightblue" points="611.08,-149.28 621.19,-152.45 615.26,-143.67 611.08,-149.28"/>
</g>
<!-- Node7&#45;&gt;Node6 -->
<g id="edge9" class="edge">
<title>Node7&#45;&gt;Node6</title>
<path fill="none" stroke="midnightblue" d="M454.1,-86C462.56,-86 471.21,-86 479.5,-86"/>
<polygon fill="midnightblue" stroke="midnightblue" points="479.76,-89.5 489.76,-86 479.76,-82.5 479.76,-89.5"/>
</g>
<!-- Node8&#45;&gt;Node6 -->
<g id="edge11" class="edge">
<title>Node8&#45;&gt;Node6</title>
<path fill="none" stroke="midnightblue" d="M429.44,-57.59C446.72,-62.47 467.93,-68.46 486.41,-73.68"/>
<polygon fill="midnightblue" stroke="midnightblue" points="485.5,-77.06 496.07,-76.41 487.4,-70.33 485.5,-77.06"/>
</g>
<!-- Node9&#45;&gt;Node6 -->
<g id="edge13" class="edge">
<title>Node9&#45;&gt;Node6</title>
<path fill="none" stroke="midnightblue" d="M431.22,-19.53C438.93,-22.15 446.89,-25.31 454,-29 475.29,-40.05 496.92,-56.95 511.64,-69.48"/>
<polygon fill="midnightblue" stroke="midnightblue" points="509.6,-72.35 519.44,-76.27 514.2,-67.07 509.6,-72.35"/>
</g>
</g>
</svg>
