<?xml version="1.0" encoding="UTF-8" standalone="no"?>
<!DOCTYPE svg PUBLIC "-//W3C//DTD SVG 1.1//EN"
 "http://www.w3.org/Graphics/SVG/1.1/DTD/svg11.dtd">
<!-- Generated by graphviz version 8.0.4 (20230421.1958)
 -->
<!-- Title: sorting::random_pivot_quick_sort::quickSortRP Pages: 1 -->
<svg width="318pt" height="168pt"
 viewBox="0.00 0.00 318.25 167.88" xmlns="http://www.w3.org/2000/svg" xmlns:xlink="http://www.w3.org/1999/xlink">
<g id="graph0" class="graph" transform="scale(1 1) rotate(0) translate(4 163.88)">
<title>sorting::random_pivot_quick_sort::quickSortRP</title>
<!-- Node1 -->
<g id="node1" class="node">
<title>Node1</title>
<g id="a_node1"><a xlink:title="Random pivot quick sort function. This function is the starting point of the algorithm.">
<polygon fill="#999999" stroke="#666666" points="127.75,-79.88 0,-79.88 0,-49.38 127.75,-49.38 127.75,-79.88"/>
<text text-anchor="start" x="8" y="-66.38" font-family="Helvetica,sans-Serif" font-size="10.00">sorting::random_pivot</text>
<text text-anchor="middle" x="63.88" y="-55.12" font-family="Helvetica,sans-Serif" font-size="10.00">_quick_sort::quickSortRP</text>
</a>
</g>
</g>
<!-- Node1&#45;&gt;Node1 -->
<g id="edge3" class="edge">
<title>Node1&#45;&gt;Node1</title>
<path fill="none" stroke="#63b8ff" d="M33.2,-80.36C26.94,-89.43 37.16,-97.88 63.88,-97.88 78.9,-97.88 88.71,-95.2 93.3,-91.25"/>
<polygon fill="#63b8ff" stroke="#63b8ff" points="96.89,-91.69 94.55,-81.36 89.94,-90.9 96.89,-91.69"/>
</g>
<!-- Node2 -->
<g id="node2" class="node">
<title>Node2</title>
<g id="a_node2"><a xlink:href="../../d1/daa/random__pivot__quick__sort_8cpp.html#aac5657b4fe2251cd21073f44233f6ea5" target="_top" xlink:title="Takes the start and end indices of an array and returns a random int64_teger between the range of tho...">
<polygon fill="white" stroke="#666666" points="310.25,-141.88 163.75,-141.88 163.75,-111.38 310.25,-111.38 310.25,-141.88"/>
<text text-anchor="start" x="171.75" y="-128.38" font-family="Helvetica,sans-Serif" font-size="10.00">sorting::random_pivot</text>
<text text-anchor="middle" x="237" y="-117.12" font-family="Helvetica,sans-Serif" font-size="10.00">_quick_sort::getRandomIndex</text>
</a>
</g>
</g>
<!-- Node1&#45;&gt;Node2 -->
<g id="edge1" class="edge">
<title>Node1&#45;&gt;Node2</title>
<path fill="none" stroke="#63b8ff" d="M104.17,-80.21C122.25,-87.25 144.01,-95.56 163.75,-102.62 168.21,-104.22 172.84,-105.84 177.5,-107.45"/>
<polygon fill="#63b8ff" stroke="#63b8ff" points="176.11,-111.01 186.7,-110.93 178.37,-104.39 176.11,-111.01"/>
</g>
<!-- Node3 -->
<g id="node3" class="node">
<title>Node3</title>
<g id="a_node3"><a target="_blank" xlink:href="http://en.cppreference.com/w/cpp/container/array/size.html#" xlink:title=" ">
<polygon fill="white" stroke="#666666" points="277.62,-93.25 196.38,-93.25 196.38,-74 277.62,-74 277.62,-93.25"/>
<text text-anchor="middle" x="237" y="-79.75" font-family="Helvetica,sans-Serif" font-size="10.00">std::array::size</text>
</a>
</g>
</g>
<!-- Node1&#45;&gt;Node3 -->
<g id="edge4" class="edge">
<title>Node1&#45;&gt;Node3</title>
<path fill="none" stroke="#63b8ff" d="M128.11,-71.65C146.95,-73.74 167.35,-76 185.29,-77.99"/>
<polygon fill="#63b8ff" stroke="#63b8ff" points="184.77,-81.57 195.1,-79.19 185.54,-74.61 184.77,-81.57"/>
</g>
<!-- Node4 -->
<g id="node4" class="node">
<title>Node4</title>
<g id="a_node4"><a target="_blank" xlink:href="http://en.cppreference.com/w/cpp/algorithm/swap.html#" xlink:title=" ">
<polygon fill="white" stroke="#666666" points="266.38,-56.25 207.62,-56.25 207.62,-37 266.38,-37 266.38,-56.25"/>
<text text-anchor="middle" x="237" y="-42.75" font-family="Helvetica,sans-Serif" font-size="10.00">std::swap</text>
</a>
</g>
</g>
<!-- Node1&#45;&gt;Node4 -->
<g id="edge5" class="edge">
<title>Node1&#45;&gt;Node4</title>
<path fill="none" stroke="#63b8ff" d="M128.11,-57.97C151.08,-55.56 176.37,-52.9 196.68,-50.76"/>
<polygon fill="#63b8ff" stroke="#63b8ff" points="196.83,-54.16 206.41,-49.63 196.1,-47.2 196.83,-54.16"/>
</g>
<!-- Node5 -->
<g id="node5" class="node">
<title>Node5</title>
<g id="a_node5"><a target="_blank" xlink:href="http://en.cppreference.com/w/cpp/utility/tuple/tie.html#" xlink:title=" ">
<polygon fill="white" stroke="#666666" points="260,-19.25 214,-19.25 214,0 260,0 260,-19.25"/>
<text text-anchor="middle" x="237" y="-5.75" font-family="Helvetica,sans-Serif" font-size="10.00">std::tie</text>
</a>
</g>
</g>
<!-- Node1&#45;&gt;Node5 -->
<g id="edge6" class="edge">
<title>Node1&#45;&gt;Node5</title>
<path fill="none" stroke="#63b8ff" d="M103.5,-49.01C121.62,-41.98 143.62,-33.88 163.75,-27.62 176.54,-23.65 190.82,-19.95 203.28,-16.94"/>
<polygon fill="#63b8ff" stroke="#63b8ff" points="203.75,-20.19 212.68,-14.49 202.15,-13.38 203.75,-20.19"/>
</g>
<!-- Node2&#45;&gt;Node2 -->
<g id="edge2" class="edge">
<title>Node2&#45;&gt;Node2</title>
<path fill="none" stroke="#63b8ff" d="M206.32,-142.36C200.06,-151.43 210.29,-159.88 237,-159.88 252.03,-159.88 261.84,-157.2 266.43,-153.25"/>
<polygon fill="#63b8ff" stroke="#63b8ff" points="270.01,-153.69 267.68,-143.36 263.06,-152.9 270.01,-153.69"/>
</g>
</g>
</svg>
