<?xml version="1.0" encoding="UTF-8" standalone="no"?>
<!DOCTYPE svg PUBLIC "-//W3C//DTD SVG 1.1//EN"
 "http://www.w3.org/Graphics/SVG/1.1/DTD/svg11.dtd">
<!-- Generated by graphviz version 2.49.3 (20211023.0002)
 -->
<!-- Title: test Pages: 1 -->
<svg width="547pt" height="142pt"
 viewBox="0.00 0.00 547.00 142.00" xmlns="http://www.w3.org/2000/svg" xmlns:xlink="http://www.w3.org/1999/xlink">
<g id="graph0" class="graph" transform="scale(1 1) rotate(0) translate(4 138)">
<title>test</title>
<polygon fill="white" stroke="transparent" points="-4,4 -4,-138 543,-138 543,4 -4,4"/>
<!-- Node1 -->
<g id="node1" class="node">
<title>Node1</title>
<g id="a_node1"><a xlink:title="Self&#45;test implementations.">
<polygon fill="#bfbfbf" stroke="black" points="0,-76.5 0,-95.5 33,-95.5 33,-76.5 0,-76.5"/>
<text text-anchor="middle" x="16.5" y="-83.5" font-family="Helvetica,sans-Serif" font-size="10.00">test</text>
</a>
</g>
</g>
<!-- Node2 -->
<g id="node2" class="node">
<title>Node2</title>
<g id="a_node2"><a xlink:href="../../d5/d58/class_test_cases.html#aeabea90c02f9159e4a784bbf736e1e23" target="_top" xlink:title="Executes test cases.">
<polygon fill="white" stroke="black" points="69,-76.5 69,-95.5 176,-95.5 176,-76.5 69,-76.5"/>
<text text-anchor="middle" x="122.5" y="-83.5" font-family="Helvetica,sans-Serif" font-size="10.00">TestCases::runTests</text>
</a>
</g>
</g>
<!-- Node1&#45;&gt;Node2 -->
<g id="edge1" class="edge">
<title>Node1&#45;&gt;Node2</title>
<path fill="none" stroke="midnightblue" d="M33.3,-86C40.46,-86 49.46,-86 58.94,-86"/>
<polygon fill="midnightblue" stroke="midnightblue" points="58.94,-89.5 68.94,-86 58.94,-82.5 58.94,-89.5"/>
</g>
<!-- Node3 -->
<g id="node3" class="node">
<title>Node3</title>
<g id="a_node3"><a target="_blank" xlink:href="http://en.cppreference.com/w/cpp/io/manip/endl.html#" xlink:title=" ">
<polygon fill="white" stroke="black" points="485,-114.5 485,-133.5 539,-133.5 539,-114.5 485,-114.5"/>
<text text-anchor="middle" x="512" y="-121.5" font-family="Helvetica,sans-Serif" font-size="10.00">std::endl</text>
</a>
</g>
</g>
<!-- Node2&#45;&gt;Node3 -->
<g id="edge2" class="edge">
<title>Node2&#45;&gt;Node3</title>
<path fill="none" stroke="midnightblue" d="M141.88,-95.58C159.37,-104.13 186.71,-116.05 212,-121 305.09,-139.22 417.62,-132.96 474.41,-127.88"/>
<polygon fill="midnightblue" stroke="midnightblue" points="475.05,-131.34 484.68,-126.92 474.4,-124.37 475.05,-131.34"/>
</g>
<!-- Node4 -->
<g id="node4" class="node">
<title>Node4</title>
<g id="a_node4"><a xlink:href="../../d5/d58/class_test_cases.html#aa3aa3d5bf666f327ee8e2d11d397b06e" target="_top" xlink:title="A function to print given message on console.">
<polygon fill="white" stroke="black" points="367,-76.5 367,-95.5 449,-95.5 449,-76.5 367,-76.5"/>
<text text-anchor="middle" x="408" y="-83.5" font-family="Helvetica,sans-Serif" font-size="10.00">TestCases::log</text>
</a>
</g>
</g>
<!-- Node2&#45;&gt;Node4 -->
<g id="edge3" class="edge">
<title>Node2&#45;&gt;Node4</title>
<path fill="none" stroke="midnightblue" d="M159.39,-95.51C175.37,-99.27 194.5,-103.14 212,-105 264.59,-110.58 278.51,-111.46 331,-105 342.69,-103.56 355.17,-100.92 366.57,-98.06"/>
<polygon fill="midnightblue" stroke="midnightblue" points="367.48,-101.44 376.26,-95.51 365.7,-94.67 367.48,-101.44"/>
</g>
<!-- Node5 -->
<g id="node5" class="node">
<title>Node5</title>
<g id="a_node5"><a xlink:href="../../d5/d58/class_test_cases.html#ac2636e8b5b9e053374c45bfcf0603008" target="_top" xlink:title="A test case contains edge case, printing inorder successor of last node.">
<polygon fill="white" stroke="black" points="212,-76.5 212,-95.5 331,-95.5 331,-76.5 212,-76.5"/>
<text text-anchor="middle" x="271.5" y="-83.5" font-family="Helvetica,sans-Serif" font-size="10.00">TestCases::testCase_1</text>
</a>
</g>
</g>
<!-- Node2&#45;&gt;Node5 -->
<g id="edge5" class="edge">
<title>Node2&#45;&gt;Node5</title>
<path fill="none" stroke="midnightblue" d="M176.16,-86C184.5,-86 193.24,-86 201.89,-86"/>
<polygon fill="midnightblue" stroke="midnightblue" points="201.98,-89.5 211.98,-86 201.98,-82.5 201.98,-89.5"/>
</g>
<!-- Node6 -->
<g id="node6" class="node">
<title>Node6</title>
<g id="a_node6"><a xlink:href="../../d5/d58/class_test_cases.html#abae0148985f159b582a385cf399254e3" target="_top" xlink:title="A test case which contains main list of 100 elements and sublist of 20.">
<polygon fill="white" stroke="black" points="212,-38.5 212,-57.5 331,-57.5 331,-38.5 212,-38.5"/>
<text text-anchor="middle" x="271.5" y="-45.5" font-family="Helvetica,sans-Serif" font-size="10.00">TestCases::testCase_2</text>
</a>
</g>
</g>
<!-- Node2&#45;&gt;Node6 -->
<g id="edge7" class="edge">
<title>Node2&#45;&gt;Node6</title>
<path fill="none" stroke="midnightblue" d="M160.59,-76.41C179.82,-71.44 203.49,-65.32 223.93,-60.04"/>
<polygon fill="midnightblue" stroke="midnightblue" points="224.87,-63.41 233.67,-57.52 223.11,-56.63 224.87,-63.41"/>
</g>
<!-- Node7 -->
<g id="node7" class="node">
<title>Node7</title>
<g id="a_node7"><a xlink:href="../../d5/d58/class_test_cases.html#ad9f95c09931625b41e3be1f88d1e28c5" target="_top" xlink:title="A test case which contains main list of 50 elements and sublist of 20.">
<polygon fill="white" stroke="black" points="212,-0.5 212,-19.5 331,-19.5 331,-0.5 212,-0.5"/>
<text text-anchor="middle" x="271.5" y="-7.5" font-family="Helvetica,sans-Serif" font-size="10.00">TestCases::testCase_3</text>
</a>
</g>
</g>
<!-- Node2&#45;&gt;Node7 -->
<g id="edge9" class="edge">
<title>Node2&#45;&gt;Node7</title>
<path fill="none" stroke="midnightblue" d="M136.08,-76.4C152.71,-64.07 183.27,-42.63 212,-29 216.64,-26.8 221.61,-24.75 226.61,-22.88"/>
<polygon fill="midnightblue" stroke="midnightblue" points="227.93,-26.12 236.2,-19.5 225.61,-19.52 227.93,-26.12"/>
</g>
<!-- Node4&#45;&gt;Node3 -->
<g id="edge4" class="edge">
<title>Node4&#45;&gt;Node3</title>
<path fill="none" stroke="midnightblue" d="M434.74,-95.59C447.18,-100.22 462.31,-105.86 475.8,-110.89"/>
<polygon fill="midnightblue" stroke="midnightblue" points="474.68,-114.2 485.27,-114.41 477.12,-107.64 474.68,-114.2"/>
</g>
<!-- Node5&#45;&gt;Node4 -->
<g id="edge6" class="edge">
<title>Node5&#45;&gt;Node4</title>
<path fill="none" stroke="midnightblue" d="M331.1,-86C339.56,-86 348.21,-86 356.5,-86"/>
<polygon fill="midnightblue" stroke="midnightblue" points="356.76,-89.5 366.76,-86 356.76,-82.5 356.76,-89.5"/>
</g>
<!-- Node6&#45;&gt;Node4 -->
<g id="edge8" class="edge">
<title>Node6&#45;&gt;Node4</title>
<path fill="none" stroke="midnightblue" d="M306.44,-57.59C323.72,-62.47 344.93,-68.46 363.41,-73.68"/>
<polygon fill="midnightblue" stroke="midnightblue" points="362.5,-77.06 373.07,-76.41 364.4,-70.33 362.5,-77.06"/>
</g>
<!-- Node7&#45;&gt;Node4 -->
<g id="edge10" class="edge">
<title>Node7&#45;&gt;Node4</title>
<path fill="none" stroke="midnightblue" d="M308.22,-19.53C315.93,-22.15 323.89,-25.31 331,-29 352.29,-40.05 373.92,-56.95 388.64,-69.48"/>
<polygon fill="midnightblue" stroke="midnightblue" points="386.6,-72.35 396.44,-76.27 391.2,-67.07 386.6,-72.35"/>
</g>
</g>
</svg>
