<?xml version="1.0" encoding="UTF-8" standalone="no"?>
<!DOCTYPE svg PUBLIC "-//W3C//DTD SVG 1.1//EN"
 "http://www.w3.org/Graphics/SVG/1.1/DTD/svg11.dtd">
<!-- Generated by graphviz version 9.0.0 (20230911.1827)
 -->
<!-- Title: main Pages: 1 -->
<svg width="425pt" height="125pt"
 viewBox="0.00 0.00 425.25 124.88" xmlns="http://www.w3.org/2000/svg" xmlns:xlink="http://www.w3.org/1999/xlink">
<g id="graph0" class="graph" transform="scale(1 1) rotate(0) translate(4 120.88)">
<title>main</title>
<!-- Node1 -->
<g id="Node000001" class="node">
<title>Node1</title>
<g id="a_Node000001"><a xlink:title="Entry point of the program.">
<polygon fill="#999999" stroke="#666666" points="37,-54.88 0,-54.88 0,-35.62 37,-35.62 37,-54.88"/>
<text text-anchor="middle" x="18.5" y="-41.38" font-family="Helvetica,sans-Serif" font-size="10.00">main</text>
</a>
</g>
</g>
<!-- Node2 -->
<g id="Node000002" class="node">
<title>Node2</title>
<g id="a_Node000002"><a xlink:href="../../df/d47/fcfs__scheduling_8cpp.html#aa8dca7b867074164d5f45b0f3851269d" target="_top" xlink:title="Self&#45;test implementations.">
<polygon fill="white" stroke="#666666" points="105.5,-54.88 73,-54.88 73,-35.62 105.5,-35.62 105.5,-54.88"/>
<text text-anchor="middle" x="89.25" y="-41.38" font-family="Helvetica,sans-Serif" font-size="10.00">test</text>
</a>
</g>
</g>
<!-- Node1&#45;&gt;Node2 -->
<g id="edge1_Node000001_Node000002" class="edge">
<title>Node1&#45;&gt;Node2</title>
<g id="a_edge1_Node000001_Node000002"><a xlink:title=" ">
<path fill="none" stroke="#63b8ff" d="M37.2,-45.25C44.58,-45.25 53.31,-45.25 61.45,-45.25"/>
<polygon fill="#63b8ff" stroke="#63b8ff" points="61.2,-48.75 71.2,-45.25 61.2,-41.75 61.2,-48.75"/>
</a>
</g>
</g>
<!-- Node3 -->
<g id="Node000003" class="node">
<title>Node3</title>
<g id="a_Node000003"><a xlink:href="../../dd/dca/class_f_c_f_s.html#a8fbfe4d85f7576b4a7aade07d29fbd69" target="_top" xlink:title="Adds the process to the ready queue if it isn&#39;t already there.">
<polygon fill="white" stroke="#666666" points="252,-73.88 152,-73.88 152,-54.62 252,-54.62 252,-73.88"/>
<text text-anchor="middle" x="202" y="-60.38" font-family="Helvetica,sans-Serif" font-size="10.00">FCFS::addProcess</text>
</a>
</g>
</g>
<!-- Node2&#45;&gt;Node3 -->
<g id="edge2_Node000002_Node000003" class="edge">
<title>Node2&#45;&gt;Node3</title>
<g id="a_edge2_Node000002_Node000003"><a xlink:title=" ">
<path fill="none" stroke="#63b8ff" d="M105.65,-47.89C115.03,-49.5 127.69,-51.67 140.71,-53.91"/>
<polygon fill="#63b8ff" stroke="#63b8ff" points="139.73,-57.29 150.18,-55.53 140.91,-50.39 139.73,-57.29"/>
</a>
</g>
</g>
<!-- Node7 -->
<g id="Node000007" class="node">
<title>Node7</title>
<g id="a_Node000007"><a xlink:href="../../dd/dca/class_f_c_f_s.html#aa25dbe30ba9930b5a7c1a6d11758bd91" target="_top" xlink:title="Algorithm for scheduling CPU processes according to the First Come First Serve(FCFS) scheduling algor...">
<polygon fill="white" stroke="#666666" points="262.5,-36.88 141.5,-36.88 141.5,-17.62 262.5,-17.62 262.5,-36.88"/>
<text text-anchor="middle" x="202" y="-23.38" font-family="Helvetica,sans-Serif" font-size="10.00">FCFS::scheduleForFcfs</text>
</a>
</g>
</g>
<!-- Node2&#45;&gt;Node7 -->
<g id="edge6_Node000002_Node000007" class="edge">
<title>Node2&#45;&gt;Node7</title>
<g id="a_edge6_Node000002_Node000007"><a xlink:title=" ">
<path fill="none" stroke="#63b8ff" d="M105.65,-42.75C112.41,-41.65 120.87,-40.27 129.95,-38.8"/>
<polygon fill="#63b8ff" stroke="#63b8ff" points="130.45,-42.26 139.75,-37.2 129.32,-35.35 130.45,-42.26"/>
</a>
</g>
</g>
<!-- Node4 -->
<g id="Node000004" class="node">
<title>Node4</title>
<g id="a_Node000004"><a target="_blank" xlink:href="http://en.cppreference.com/w/cpp/container/unordered_set/end.html#" xlink:title=" ">
<polygon fill="white" stroke="#666666" points="417.25,-116.88 298.5,-116.88 298.5,-97.62 417.25,-97.62 417.25,-116.88"/>
<text text-anchor="middle" x="357.88" y="-103.38" font-family="Helvetica,sans-Serif" font-size="10.00">std::unordered_set::end</text>
</a>
</g>
</g>
<!-- Node3&#45;&gt;Node4 -->
<g id="edge3_Node000003_Node000004" class="edge">
<title>Node3&#45;&gt;Node4</title>
<g id="a_edge3_Node000003_Node000004"><a xlink:title=" ">
<path fill="none" stroke="#63b8ff" d="M239.08,-74.33C260.22,-80.24 287.17,-87.77 309.95,-94.14"/>
<polygon fill="#63b8ff" stroke="#63b8ff" points="308.73,-97.43 319.3,-96.75 310.61,-90.69 308.73,-97.43"/>
</a>
</g>
</g>
<!-- Node5 -->
<g id="Node000005" class="node">
<title>Node5</title>
<g id="a_Node000005"><a target="_blank" xlink:href="http://en.cppreference.com/w/cpp/container/unordered_set/find.html#" xlink:title=" ">
<polygon fill="white" stroke="#666666" points="406.38,-79.5 309.38,-79.5 309.38,-49 406.38,-49 406.38,-79.5"/>
<text text-anchor="start" x="317.38" y="-66" font-family="Helvetica,sans-Serif" font-size="10.00">std::unordered_set</text>
<text text-anchor="middle" x="357.88" y="-54.75" font-family="Helvetica,sans-Serif" font-size="10.00">::find</text>
</a>
</g>
</g>
<!-- Node3&#45;&gt;Node5 -->
<g id="edge4_Node000003_Node000005" class="edge">
<title>Node3&#45;&gt;Node5</title>
<g id="a_edge4_Node000003_Node000005"><a xlink:title=" ">
<path fill="none" stroke="#63b8ff" d="M252.11,-64.25C266.62,-64.25 282.65,-64.25 297.72,-64.25"/>
<polygon fill="#63b8ff" stroke="#63b8ff" points="297.51,-67.75 307.51,-64.25 297.51,-60.75 297.51,-67.75"/>
</a>
</g>
</g>
<!-- Node6 -->
<g id="Node000006" class="node">
<title>Node6</title>
<g id="a_Node000006"><a target="_blank" xlink:href="http://en.cppreference.com/w/cpp/container/unordered_set/insert.html#" xlink:title=" ">
<polygon fill="white" stroke="#666666" points="406.38,-30.5 309.38,-30.5 309.38,0 406.38,0 406.38,-30.5"/>
<text text-anchor="start" x="317.38" y="-17" font-family="Helvetica,sans-Serif" font-size="10.00">std::unordered_set</text>
<text text-anchor="middle" x="357.88" y="-5.75" font-family="Helvetica,sans-Serif" font-size="10.00">::insert</text>
</a>
</g>
</g>
<!-- Node3&#45;&gt;Node6 -->
<g id="edge5_Node000003_Node000006" class="edge">
<title>Node3&#45;&gt;Node6</title>
<g id="a_edge5_Node000003_Node000006"><a xlink:title=" ">
<path fill="none" stroke="#63b8ff" d="M236.71,-54.2C245.15,-51.65 254.16,-48.88 262.5,-46.25 274.34,-42.52 286.98,-38.43 299.03,-34.49"/>
<polygon fill="#63b8ff" stroke="#63b8ff" points="300.05,-37.84 308.46,-31.39 297.87,-31.19 300.05,-37.84"/>
</a>
</g>
</g>
</g>
</svg>
