<?xml version="1.0" encoding="UTF-8" standalone="no"?>
<!DOCTYPE svg PUBLIC "-//W3C//DTD SVG 1.1//EN"
 "http://www.w3.org/Graphics/SVG/1.1/DTD/svg11.dtd">
<!-- Generated by graphviz version 6.0.1 (20220911.1526)
 -->
<!-- Title: main Pages: 1 -->
<svg width="139pt" height="82pt"
 viewBox="0.00 0.00 139.00 82.00" xmlns="http://www.w3.org/2000/svg" xmlns:xlink="http://www.w3.org/1999/xlink">
<g id="graph0" class="graph" transform="scale(1 1) rotate(0) translate(4 78)">
<title>main</title>
<!-- Node1 -->
<g id="node1" class="node">
<title>Node1</title>
<g id="a_node1"><a xlink:title=" ">
<polygon fill="#999999" stroke="#666666" points="38,-46 0,-46 0,-27 38,-27 38,-46"/>
<text text-anchor="middle" x="19" y="-34" font-family="Helvetica,sans-Serif" font-size="10.00">main</text>
</a>
</g>
</g>
<!-- Node2 -->
<g id="node2" class="node">
<title>Node2</title>
<g id="a_node2"><a target="_blank" xlink:href="http://en.cppreference.com/w/cpp/io/manip/fixed.html#" xlink:title=" ">
<polygon fill="white" stroke="#666666" points="131,-74 74,-74 74,-55 131,-55 131,-74"/>
<text text-anchor="middle" x="102.5" y="-62" font-family="Helvetica,sans-Serif" font-size="10.00">std::fixed</text>
</a>
</g>
</g>
<!-- Node1&#45;&gt;Node2 -->
<g id="edge1" class="edge">
<title>Node1&#45;&gt;Node2</title>
<path fill="none" stroke="#63b8ff" d="M38.09,-42.71C45.8,-45.36 55.1,-48.56 64.18,-51.68"/>
<polygon fill="#63b8ff" stroke="#63b8ff" points="63.26,-55.06 73.85,-55 65.53,-48.44 63.26,-55.06"/>
</g>
<!-- Node3 -->
<g id="node3" class="node">
<title>Node3</title>
<g id="a_node3"><a xlink:href="../../da/d24/sqrt__double_8cpp.html#ae662282ad0740d2063ac404ca3bd74fc" target="_top" xlink:title=" ">
<polygon fill="white" stroke="#666666" points="120,-19 85,-19 85,0 120,0 120,-19"/>
<text text-anchor="middle" x="102.5" y="-7" font-family="Helvetica,sans-Serif" font-size="10.00">Sqrt</text>
</a>
</g>
</g>
<!-- Node1&#45;&gt;Node3 -->
<g id="edge2" class="edge">
<title>Node1&#45;&gt;Node3</title>
<path fill="none" stroke="#63b8ff" d="M38.09,-30.51C49.01,-26.89 63.11,-22.22 75.24,-18.2"/>
<polygon fill="#63b8ff" stroke="#63b8ff" points="76.46,-21.48 84.85,-15.02 74.26,-14.84 76.46,-21.48"/>
</g>
<!-- Node3&#45;&gt;Node3 -->
<g id="edge3" class="edge">
<title>Node3&#45;&gt;Node3</title>
<path fill="none" stroke="#63b8ff" d="M89.63,-19.08C83.37,-27.73 87.66,-37 102.5,-37 111.54,-37 116.67,-33.56 117.88,-28.91"/>
<polygon fill="#63b8ff" stroke="#63b8ff" points="121.23,-27.91 115.37,-19.08 114.45,-29.64 121.23,-27.91"/>
</g>
</g>
</svg>
