<?xml version="1.0" encoding="UTF-8" standalone="no"?>
<!DOCTYPE svg PUBLIC "-//W3C//DTD SVG 1.1//EN"
 "http://www.w3.org/Graphics/SVG/1.1/DTD/svg11.dtd">
<!-- Generated by graphviz version 12.1.2 (20240928.0832)
 -->
<!-- Title: test Pages: 1 -->
<svg width="582pt" height="211pt"
 viewBox="0.00 0.00 582.00 210.50" xmlns="http://www.w3.org/2000/svg" xmlns:xlink="http://www.w3.org/1999/xlink">
<g id="graph0" class="graph" transform="scale(1 1) rotate(0) translate(4 206.5)">
<title>test</title>
<!-- Node1 -->
<g id="Node000001" class="node">
<title>Node1</title>
<g id="a_Node000001"><a xlink:title="self test implementation">
<polygon fill="#999999" stroke="#666666" points="32.5,-104.88 0,-104.88 0,-85.62 32.5,-85.62 32.5,-104.88"/>
<text text-anchor="middle" x="16.25" y="-91.38" font-family="Helvetica,sans-Serif" font-size="10.00">test</text>
</a>
</g>
</g>
<!-- Node2 -->
<g id="Node000002" class="node">
<title>Node2</title>
<g id="a_Node000002"><a xlink:href="../../df/d8f/classothers_1_1_cache_1_1_l_f_u_cache.html#ac27c9076377cbed2a2acc45a189fed2c" target="_top" xlink:title="Returns the total capacity of the cache.">
<polygon fill="white" stroke="#666666" points="209,-202.5 78.25,-202.5 78.25,-172 209,-172 209,-202.5"/>
<text text-anchor="start" x="86.25" y="-189" font-family="Helvetica,sans-Serif" font-size="10.00">others::Cache::LFUCache</text>
<text text-anchor="middle" x="143.62" y="-177.75" font-family="Helvetica,sans-Serif" font-size="10.00">::capacity</text>
</a>
</g>
</g>
<!-- Node1&#45;&gt;Node2 -->
<g id="edge1_Node000001_Node000002" class="edge">
<title>Node1&#45;&gt;Node2</title>
<g id="a_edge1_Node000001_Node000002"><a xlink:title=" ">
<path fill="none" stroke="#63b8ff" d="M22.19,-104.92C30.07,-119.41 46.83,-146.73 68.5,-162.25 70.44,-163.64 72.46,-164.96 74.55,-166.2"/>
<polygon fill="#63b8ff" stroke="#63b8ff" points="72.87,-169.28 83.35,-170.84 76.14,-163.08 72.87,-169.28"/>
</a>
</g>
</g>
<!-- Node3 -->
<g id="Node000003" class="node">
<title>Node3</title>
<g id="a_Node000003"><a xlink:href="../../df/d8f/classothers_1_1_cache_1_1_l_f_u_cache.html#a68e1be0a3e0a6478aa35f04000e0e9b0" target="_top" xlink:title="returns true if the cache is empty, false otherwise.">
<polygon fill="white" stroke="#666666" points="209,-153.5 78.25,-153.5 78.25,-123 209,-123 209,-153.5"/>
<text text-anchor="start" x="86.25" y="-140" font-family="Helvetica,sans-Serif" font-size="10.00">others::Cache::LFUCache</text>
<text text-anchor="middle" x="143.62" y="-128.75" font-family="Helvetica,sans-Serif" font-size="10.00">::empty</text>
</a>
</g>
</g>
<!-- Node1&#45;&gt;Node3 -->
<g id="edge2_Node000001_Node000003" class="edge">
<title>Node1&#45;&gt;Node3</title>
<g id="a_edge2_Node000001_Node000003"><a xlink:title=" ">
<path fill="none" stroke="#63b8ff" d="M32.89,-101.24C43.01,-105.07 56.49,-110.08 68.5,-114.25 72.96,-115.8 77.57,-117.37 82.23,-118.93"/>
<polygon fill="#63b8ff" stroke="#63b8ff" points="81.06,-122.23 91.65,-122.05 83.26,-115.58 81.06,-122.23"/>
</a>
</g>
</g>
<!-- Node4 -->
<g id="Node000004" class="node">
<title>Node4</title>
<g id="a_Node000004"><a xlink:href="../../df/d8f/classothers_1_1_cache_1_1_l_f_u_cache.html#a58e37d3713f28d36abbb8cdf6c432781" target="_top" xlink:title="get the value of the key&#45;value pair if exists">
<polygon fill="white" stroke="#666666" points="218.75,-104.88 68.5,-104.88 68.5,-85.62 218.75,-85.62 218.75,-104.88"/>
<text text-anchor="middle" x="143.62" y="-91.38" font-family="Helvetica,sans-Serif" font-size="10.00">others::Cache::LFUCache::get</text>
</a>
</g>
</g>
<!-- Node1&#45;&gt;Node4 -->
<g id="edge3_Node000001_Node000004" class="edge">
<title>Node1&#45;&gt;Node4</title>
<g id="a_edge3_Node000001_Node000004"><a xlink:title=" ">
<path fill="none" stroke="#63b8ff" d="M32.88,-95.25C39.5,-95.25 47.78,-95.25 56.81,-95.25"/>
<polygon fill="#63b8ff" stroke="#63b8ff" points="56.61,-98.75 66.61,-95.25 56.61,-91.75 56.61,-98.75"/>
</a>
</g>
</g>
<!-- Node7 -->
<g id="Node000007" class="node">
<title>Node7</title>
<g id="a_Node000007"><a xlink:href="../../df/d8f/classothers_1_1_cache_1_1_l_f_u_cache.html#af6f8e5a66a45436b490dfe015ff8866e" target="_top" xlink:title="upsert a key&#45;value pair">
<polygon fill="white" stroke="#666666" points="218.75,-67.88 68.5,-67.88 68.5,-48.62 218.75,-48.62 218.75,-67.88"/>
<text text-anchor="middle" x="143.62" y="-54.38" font-family="Helvetica,sans-Serif" font-size="10.00">others::Cache::LFUCache::put</text>
</a>
</g>
</g>
<!-- Node1&#45;&gt;Node7 -->
<g id="edge6_Node000001_Node000007" class="edge">
<title>Node1&#45;&gt;Node7</title>
<g id="a_edge6_Node000001_Node000007"><a xlink:title=" ">
<path fill="none" stroke="#63b8ff" d="M32.79,-88.95C42.87,-85 56.34,-79.97 68.5,-76.25 74.28,-74.48 80.35,-72.78 86.43,-71.16"/>
<polygon fill="#63b8ff" stroke="#63b8ff" points="87.04,-74.62 95.85,-68.74 85.3,-67.84 87.04,-74.62"/>
</a>
</g>
</g>
<!-- Node9 -->
<g id="Node000009" class="node">
<title>Node9</title>
<g id="a_Node000009"><a xlink:href="../../df/d8f/classothers_1_1_cache_1_1_l_f_u_cache.html#adbfb2ef7358423fdf1f49d410f55f195" target="_top" xlink:title="Returns the number of items present in the cache.">
<polygon fill="white" stroke="#666666" points="209,-30.5 78.25,-30.5 78.25,0 209,0 209,-30.5"/>
<text text-anchor="start" x="86.25" y="-17" font-family="Helvetica,sans-Serif" font-size="10.00">others::Cache::LFUCache</text>
<text text-anchor="middle" x="143.62" y="-5.75" font-family="Helvetica,sans-Serif" font-size="10.00">::size</text>
</a>
</g>
</g>
<!-- Node1&#45;&gt;Node9 -->
<g id="edge10_Node000001_Node000009" class="edge">
<title>Node1&#45;&gt;Node9</title>
<g id="a_edge10_Node000001_Node000009"><a xlink:title=" ">
<path fill="none" stroke="#63b8ff" d="M23.72,-85.51C32.47,-73.07 49.21,-51.65 68.5,-39.25 70.33,-38.07 72.23,-36.94 74.18,-35.87"/>
<polygon fill="#63b8ff" stroke="#63b8ff" points="75.45,-39.14 82.87,-31.58 72.36,-32.86 75.45,-39.14"/>
</a>
</g>
</g>
<!-- Node5 -->
<g id="Node000005" class="node">
<title>Node5</title>
<g id="a_Node000005"><a xlink:href="../../df/d8f/classothers_1_1_cache_1_1_l_f_u_cache.html#a16a25c102554c5653721a5112ef676c9" target="_top" xlink:title="increase the frequency of node and push it in the respective list.">
<polygon fill="white" stroke="#666666" points="396.38,-113.5 265.62,-113.5 265.62,-83 396.38,-83 396.38,-113.5"/>
<text text-anchor="start" x="273.62" y="-100" font-family="Helvetica,sans-Serif" font-size="10.00">others::Cache::LFUCache</text>
<text text-anchor="middle" x="331" y="-88.75" font-family="Helvetica,sans-Serif" font-size="10.00">::increase_frequency</text>
</a>
</g>
</g>
<!-- Node4&#45;&gt;Node5 -->
<g id="edge4_Node000004_Node000005" class="edge">
<title>Node4&#45;&gt;Node5</title>
<g id="a_edge4_Node000004_Node000005"><a xlink:title=" ">
<path fill="none" stroke="#63b8ff" d="M219.22,-96.46C230.69,-96.64 242.55,-96.83 254.04,-97.02"/>
<polygon fill="#63b8ff" stroke="#63b8ff" points="253.83,-100.52 263.88,-97.18 253.94,-93.52 253.83,-100.52"/>
</a>
</g>
</g>
<!-- Node6 -->
<g id="Node000006" class="node">
<title>Node6</title>
<g id="a_Node000006"><a xlink:href="../../df/d8f/classothers_1_1_cache_1_1_l_f_u_cache.html#adad4ab43141fb8ba43facd3a71e07047" target="_top" xlink:title="push the node at first position in the linked list of given frequency">
<polygon fill="white" stroke="#666666" points="574,-91.5 443.25,-91.5 443.25,-61 574,-61 574,-91.5"/>
<text text-anchor="start" x="451.25" y="-78" font-family="Helvetica,sans-Serif" font-size="10.00">others::Cache::LFUCache</text>
<text text-anchor="middle" x="508.62" y="-66.75" font-family="Helvetica,sans-Serif" font-size="10.00">::push</text>
</a>
</g>
</g>
<!-- Node5&#45;&gt;Node6 -->
<g id="edge5_Node000005_Node000006" class="edge">
<title>Node5&#45;&gt;Node6</title>
<g id="a_edge5_Node000005_Node000006"><a xlink:title=" ">
<path fill="none" stroke="#63b8ff" d="M396.4,-90.18C407.9,-88.74 419.98,-87.23 431.76,-85.75"/>
<polygon fill="#63b8ff" stroke="#63b8ff" points="431.95,-89.26 441.44,-84.54 431.08,-82.31 431.95,-89.26"/>
</a>
</g>
</g>
<!-- Node7&#45;&gt;Node5 -->
<g id="edge7_Node000007_Node000005" class="edge">
<title>Node7&#45;&gt;Node5</title>
<g id="a_edge7_Node000007_Node000005"><a xlink:title=" ">
<path fill="none" stroke="#63b8ff" d="M191.4,-68.34C210.49,-72.46 233.06,-77.33 254.38,-81.93"/>
<polygon fill="#63b8ff" stroke="#63b8ff" points="253.39,-85.3 263.9,-83.99 254.87,-78.46 253.39,-85.3"/>
</a>
</g>
</g>
<!-- Node7&#45;&gt;Node6 -->
<g id="edge9_Node000007_Node000006" class="edge">
<title>Node7&#45;&gt;Node6</title>
<g id="a_edge9_Node000007_Node000006"><a xlink:title=" ">
<path fill="none" stroke="#63b8ff" d="M218.96,-61.94C280.96,-65.01 368.95,-69.37 431.45,-72.47"/>
<polygon fill="#63b8ff" stroke="#63b8ff" points="431.14,-75.96 441.3,-72.96 431.49,-68.97 431.14,-75.96"/>
</a>
</g>
</g>
<!-- Node8 -->
<g id="Node000008" class="node">
<title>Node8</title>
<g id="a_Node000008"><a xlink:href="../../df/d8f/classothers_1_1_cache_1_1_l_f_u_cache.html#ab3561ab204754295199f9566924f7e69" target="_top" xlink:title="pop the last node in the least frequently used linked list">
<polygon fill="white" stroke="#666666" points="407.25,-26.88 254.75,-26.88 254.75,-7.62 407.25,-7.62 407.25,-26.88"/>
<text text-anchor="middle" x="331" y="-13.38" font-family="Helvetica,sans-Serif" font-size="10.00">others::Cache::LFUCache::pop</text>
</a>
</g>
</g>
<!-- Node7&#45;&gt;Node8 -->
<g id="edge8_Node000007_Node000008" class="edge">
<title>Node7&#45;&gt;Node8</title>
<g id="a_edge8_Node000007_Node000008"><a xlink:title=" ">
<path fill="none" stroke="#63b8ff" d="M189.97,-48.22C215.11,-42.66 246.59,-35.7 273.34,-29.78"/>
<polygon fill="#63b8ff" stroke="#63b8ff" points="273.99,-33.22 283,-27.65 272.48,-26.39 273.99,-33.22"/>
</a>
</g>
</g>
</g>
</svg>
