<?xml version="1.0" encoding="UTF-8" standalone="no"?>
<!DOCTYPE svg PUBLIC "-//W3C//DTD SVG 1.1//EN"
 "http://www.w3.org/Graphics/SVG/1.1/DTD/svg11.dtd">
<!-- Generated by graphviz version 8.0.2 (20230410.1723)
 -->
<!-- Title: graph::disjoint_union::union_sets Pages: 1 -->
<svg width="256pt" height="94pt"
 viewBox="0.00 0.00 256.00 93.50" xmlns="http://www.w3.org/2000/svg" xmlns:xlink="http://www.w3.org/1999/xlink">
<g id="graph0" class="graph" transform="scale(1 1) rotate(0) translate(4 89.5)">
<title>graph::disjoint_union::union_sets</title>
<!-- Node1 -->
<g id="node1" class="node">
<title>Node1</title>
<g id="a_node1"><a xlink:title="Merge 2 components to become one.">
<polygon fill="#999999" stroke="#666666" points="106,-45.5 0,-45.5 0,-15.5 106,-15.5 106,-45.5"/>
<text text-anchor="start" x="8" y="-33.5" font-family="Helvetica,sans-Serif" font-size="10.00">graph::disjoint_union</text>
<text text-anchor="middle" x="53" y="-22.5" font-family="Helvetica,sans-Serif" font-size="10.00">::union_sets</text>
</a>
</g>
</g>
<!-- Node1&#45;&gt;Node1 -->
<g id="edge4" class="edge">
<title>Node1&#45;&gt;Node1</title>
<path fill="none" stroke="#63b8ff" d="M28.04,-45.78C22.49,-54.91 30.81,-63.5 53,-63.5 65.83,-63.5 74.02,-60.63 77.58,-56.44"/>
<polygon fill="#63b8ff" stroke="#63b8ff" points="81.1,-56.89 77.96,-46.78 74.1,-56.64 81.1,-56.89"/>
</g>
<!-- Node2 -->
<g id="node2" class="node">
<title>Node2</title>
<g id="a_node2"><a xlink:href="../../d8/d99/connected__components__with__dsu_8cpp.html#a469384d8a4197a9b24482ce7c321a85e" target="_top" xlink:title="Find the component where following node belongs to.">
<polygon fill="white" stroke="#666666" points="248,-67.5 142,-67.5 142,-37.5 248,-37.5 248,-67.5"/>
<text text-anchor="start" x="150" y="-55.5" font-family="Helvetica,sans-Serif" font-size="10.00">graph::disjoint_union</text>
<text text-anchor="middle" x="195" y="-44.5" font-family="Helvetica,sans-Serif" font-size="10.00">::find_set</text>
</a>
</g>
</g>
<!-- Node1&#45;&gt;Node2 -->
<g id="edge1" class="edge">
<title>Node1&#45;&gt;Node2</title>
<path fill="none" stroke="#63b8ff" d="M106.13,-38.69C114.24,-39.97 122.69,-41.29 131.01,-42.6"/>
<polygon fill="#63b8ff" stroke="#63b8ff" points="130.4,-46.21 140.83,-44.3 131.49,-39.29 130.4,-46.21"/>
</g>
<!-- Node3 -->
<g id="node3" class="node">
<title>Node3</title>
<g id="a_node3"><a target="_blank" xlink:href="http://en.cppreference.com/w/cpp/algorithm/swap.html#" xlink:title=" ">
<polygon fill="white" stroke="#666666" points="224.5,-19 165.5,-19 165.5,0 224.5,0 224.5,-19"/>
<text text-anchor="middle" x="195" y="-7" font-family="Helvetica,sans-Serif" font-size="10.00">std::swap</text>
</a>
</g>
</g>
<!-- Node1&#45;&gt;Node3 -->
<g id="edge3" class="edge">
<title>Node1&#45;&gt;Node3</title>
<path fill="none" stroke="#63b8ff" d="M106.13,-22.68C122.27,-20.26 139.77,-17.63 154.87,-15.37"/>
<polygon fill="#63b8ff" stroke="#63b8ff" points="155.02,-18.74 164.39,-13.79 153.98,-11.81 155.02,-18.74"/>
</g>
<!-- Node2&#45;&gt;Node2 -->
<g id="edge2" class="edge">
<title>Node2&#45;&gt;Node2</title>
<path fill="none" stroke="#63b8ff" d="M170.04,-67.78C164.49,-76.91 172.81,-85.5 195,-85.5 207.83,-85.5 216.02,-82.63 219.58,-78.44"/>
<polygon fill="#63b8ff" stroke="#63b8ff" points="223.1,-78.89 219.96,-68.78 216.1,-78.64 223.1,-78.89"/>
</g>
</g>
</svg>
