<?xml version="1.0" encoding="UTF-8" standalone="no"?>
<!DOCTYPE svg PUBLIC "-//W3C//DTD SVG 1.1//EN"
 "http://www.w3.org/Graphics/SVG/1.1/DTD/svg11.dtd">
<!-- Generated by graphviz version 2.49.3 (20211023.0002)
 -->
<!-- Title: test Pages: 1 -->
<svg width="397pt" height="100pt"
 viewBox="0.00 0.00 397.00 99.50" xmlns="http://www.w3.org/2000/svg" xmlns:xlink="http://www.w3.org/1999/xlink">
<g id="graph0" class="graph" transform="scale(1 1) rotate(0) translate(4 95.5)">
<title>test</title>
<polygon fill="white" stroke="transparent" points="-4,4 -4,-95.5 393,-95.5 393,4 -4,4"/>
<!-- Node1 -->
<g id="node1" class="node">
<title>Node1</title>
<g id="a_node1"><a xlink:title=" ">
<polygon fill="#bfbfbf" stroke="black" points="0,-22.5 0,-41.5 33,-41.5 33,-22.5 0,-22.5"/>
<text text-anchor="middle" x="16.5" y="-29.5" font-family="Helvetica,sans-Serif" font-size="10.00">test</text>
</a>
</g>
</g>
<!-- Node2 -->
<g id="node2" class="node">
<title>Node2</title>
<g id="a_node2"><a xlink:href="../../d4/dde/classgeometry_1_1jarvis_1_1_convexhull.html#aeec46e86786ddd461464b07a77c4d5f1" target="_top" xlink:title=" ">
<polygon fill="white" stroke="black" points="69,-39 69,-69 211,-69 211,-39 69,-39"/>
<text text-anchor="start" x="77" y="-57" font-family="Helvetica,sans-Serif" font-size="10.00">geometry::jarvis::Convexhull</text>
<text text-anchor="middle" x="140" y="-46" font-family="Helvetica,sans-Serif" font-size="10.00">::getConvexHull</text>
</a>
</g>
</g>
<!-- Node1&#45;&gt;Node2 -->
<g id="edge1" class="edge">
<title>Node1&#45;&gt;Node2</title>
<path fill="none" stroke="midnightblue" d="M33.38,-34.88C40.48,-36.16 49.41,-37.78 59.07,-39.53"/>
<polygon fill="midnightblue" stroke="midnightblue" points="58.46,-42.97 68.92,-41.31 59.7,-36.08 58.46,-42.97"/>
</g>
<!-- Node5 -->
<g id="node5" class="node">
<title>Node5</title>
<g id="a_node5"><a target="_blank" xlink:href="http://en.cppreference.com/w/cpp/container/vector/size.html#" xlink:title=" ">
<polygon fill="white" stroke="black" points="97,-0.5 97,-19.5 183,-19.5 183,-0.5 97,-0.5"/>
<text text-anchor="middle" x="140" y="-7.5" font-family="Helvetica,sans-Serif" font-size="10.00">std::vector::size</text>
</a>
</g>
</g>
<!-- Node1&#45;&gt;Node5 -->
<g id="edge4" class="edge">
<title>Node1&#45;&gt;Node5</title>
<path fill="none" stroke="midnightblue" d="M33.38,-29.12C47.08,-26.64 67.64,-22.92 87,-19.42"/>
<polygon fill="midnightblue" stroke="midnightblue" points="87.75,-22.84 96.97,-17.61 86.5,-15.95 87.75,-22.84"/>
</g>
<!-- Node3 -->
<g id="node3" class="node">
<title>Node3</title>
<g id="a_node3"><a xlink:href="../../d4/dde/classgeometry_1_1jarvis_1_1_convexhull.html#a54df5f9a8f37170bd97c91127664655c" target="_top" xlink:title=" ">
<polygon fill="white" stroke="black" points="247,-61 247,-91 389,-91 389,-61 247,-61"/>
<text text-anchor="start" x="255" y="-79" font-family="Helvetica,sans-Serif" font-size="10.00">geometry::jarvis::Convexhull</text>
<text text-anchor="middle" x="318" y="-68" font-family="Helvetica,sans-Serif" font-size="10.00">::orientation</text>
</a>
</g>
</g>
<!-- Node2&#45;&gt;Node3 -->
<g id="edge2" class="edge">
<title>Node2&#45;&gt;Node3</title>
<path fill="none" stroke="midnightblue" d="M211.07,-62.76C219.54,-63.82 228.25,-64.91 236.85,-65.98"/>
<polygon fill="midnightblue" stroke="midnightblue" points="236.53,-69.47 246.89,-67.24 237.4,-62.52 236.53,-69.47"/>
</g>
<!-- Node4 -->
<g id="node4" class="node">
<title>Node4</title>
<g id="a_node4"><a target="_blank" xlink:href="http://en.cppreference.com/w/cpp/container/vector/push_back.html#" xlink:title=" ">
<polygon fill="white" stroke="black" points="259.5,-22.5 259.5,-41.5 376.5,-41.5 376.5,-22.5 259.5,-22.5"/>
<text text-anchor="middle" x="318" y="-29.5" font-family="Helvetica,sans-Serif" font-size="10.00">std::vector::push_back</text>
</a>
</g>
</g>
<!-- Node2&#45;&gt;Node4 -->
<g id="edge3" class="edge">
<title>Node2&#45;&gt;Node4</title>
<path fill="none" stroke="midnightblue" d="M211.07,-45.24C223.7,-43.66 236.84,-42.02 249.4,-40.45"/>
<polygon fill="midnightblue" stroke="midnightblue" points="249.84,-43.92 259.33,-39.21 248.97,-36.98 249.84,-43.92"/>
</g>
</g>
</svg>
