<?xml version="1.0" encoding="UTF-8" standalone="no"?>
<!DOCTYPE svg PUBLIC "-//W3C//DTD SVG 1.1//EN"
 "http://www.w3.org/Graphics/SVG/1.1/DTD/svg11.dtd">
<!-- Generated by graphviz version 7.1.0 (20230121.1956)
 -->
<!-- Title: main Pages: 1 -->
<svg width="426pt" height="86pt"
 viewBox="0.00 0.00 426.00 86.00" xmlns="http://www.w3.org/2000/svg" xmlns:xlink="http://www.w3.org/1999/xlink">
<g id="graph0" class="graph" transform="scale(1 1) rotate(0) translate(4 82)">
<title>main</title>
<!-- Node1 -->
<g id="node1" class="node">
<title>Node1</title>
<g id="a_node1"><a xlink:title=" ">
<polygon fill="#999999" stroke="#666666" points="38,-48.5 0,-48.5 0,-29.5 38,-29.5 38,-48.5"/>
<text text-anchor="middle" x="19" y="-36.5" font-family="Helvetica,sans-Serif" font-size="10.00">main</text>
</a>
</g>
</g>
<!-- Node2 -->
<g id="node2" class="node">
<title>Node2</title>
<g id="a_node2"><a xlink:href="../../d6/dd8/is__graph__bipartite_8cpp.html#aa8dca7b867074164d5f45b0f3851269d" target="_top" xlink:title=" ">
<polygon fill="white" stroke="#666666" points="107,-48.5 74,-48.5 74,-29.5 107,-29.5 107,-48.5"/>
<text text-anchor="middle" x="90.5" y="-36.5" font-family="Helvetica,sans-Serif" font-size="10.00">test</text>
</a>
</g>
</g>
<!-- Node1&#45;&gt;Node2 -->
<g id="edge1" class="edge">
<title>Node1&#45;&gt;Node2</title>
<path fill="none" stroke="#63b8ff" d="M38.26,-39C45.72,-39 54.5,-39 62.66,-39"/>
<polygon fill="#63b8ff" stroke="#63b8ff" points="62.44,-42.5 72.44,-39 62.44,-35.5 62.44,-42.5"/>
</g>
<!-- Node3 -->
<g id="node3" class="node">
<title>Node3</title>
<g id="a_node3"><a xlink:href="../../de/d00/classgraph_1_1is__graph__bipartite_1_1_graph.html#ad8c10df34357b2cd865c81e0c4f0bd8c" target="_top" xlink:title="Function that add an edge between two nodes or vertices of graph.">
<polygon fill="white" stroke="#666666" points="266,-78 143,-78 143,-48 266,-48 266,-78"/>
<text text-anchor="start" x="151" y="-66" font-family="Helvetica,sans-Serif" font-size="10.00">graph::is_graph_bipartite</text>
<text text-anchor="middle" x="204.5" y="-55" font-family="Helvetica,sans-Serif" font-size="10.00">::Graph::addEdge</text>
</a>
</g>
</g>
<!-- Node2&#45;&gt;Node3 -->
<g id="edge2" class="edge">
<title>Node2&#45;&gt;Node3</title>
<path fill="none" stroke="#63b8ff" d="M107.07,-42.34C113.9,-43.8 122.44,-45.63 131.6,-47.59"/>
<polygon fill="#63b8ff" stroke="#63b8ff" points="130.58,-50.95 141.09,-49.63 132.05,-44.11 130.58,-50.95"/>
</g>
<!-- Node5 -->
<g id="node5" class="node">
<title>Node5</title>
<g id="a_node5"><a xlink:href="../../de/d00/classgraph_1_1is__graph__bipartite_1_1_graph.html#a9b0c6400693a5cfff971f768dd5ca5ca" target="_top" xlink:title="function to add edges to our graph">
<polygon fill="white" stroke="#666666" points="266,-30 143,-30 143,0 266,0 266,-30"/>
<text text-anchor="start" x="151" y="-18" font-family="Helvetica,sans-Serif" font-size="10.00">graph::is_graph_bipartite</text>
<text text-anchor="middle" x="204.5" y="-7" font-family="Helvetica,sans-Serif" font-size="10.00">::Graph::is_bipartite</text>
</a>
</g>
</g>
<!-- Node2&#45;&gt;Node5 -->
<g id="edge4" class="edge">
<title>Node2&#45;&gt;Node5</title>
<path fill="none" stroke="#63b8ff" d="M107.07,-35.66C113.9,-34.2 122.44,-32.37 131.6,-30.41"/>
<polygon fill="#63b8ff" stroke="#63b8ff" points="132.05,-33.89 141.09,-28.37 130.58,-27.05 132.05,-33.89"/>
</g>
<!-- Node4 -->
<g id="node4" class="node">
<title>Node4</title>
<g id="a_node4"><a target="_blank" xlink:href="http://en.cppreference.com/w/cpp/container/vector/push_back.html#" xlink:title=" ">
<polygon fill="white" stroke="#666666" points="418,-72.5 302,-72.5 302,-53.5 418,-53.5 418,-72.5"/>
<text text-anchor="middle" x="360" y="-60.5" font-family="Helvetica,sans-Serif" font-size="10.00">std::vector::push_back</text>
</a>
</g>
</g>
<!-- Node3&#45;&gt;Node4 -->
<g id="edge3" class="edge">
<title>Node3&#45;&gt;Node4</title>
<path fill="none" stroke="#63b8ff" d="M266.17,-63C274.14,-63 282.36,-63 290.45,-63"/>
<polygon fill="#63b8ff" stroke="#63b8ff" points="290.26,-66.5 300.26,-63 290.26,-59.5 290.26,-66.5"/>
</g>
</g>
</svg>
