<?xml version="1.0" encoding="UTF-8" standalone="no"?>
<!DOCTYPE svg PUBLIC "-//W3C//DTD SVG 1.1//EN"
 "http://www.w3.org/Graphics/SVG/1.1/DTD/svg11.dtd">
<!-- Generated by graphviz version 13.0.1 (20250615.1724)
 -->
<!-- Title: others/decimal_to_roman_numeral.cpp Pages: 1 -->
<svg width="246pt" height="94pt"
 viewBox="0.00 0.00 246.00 94.00" xmlns="http://www.w3.org/2000/svg" xmlns:xlink="http://www.w3.org/1999/xlink">

<svg id="main" version="1.1" xmlns="http://www.w3.org/2000/svg" xmlns:xlink="http://www.w3.org/1999/xlink" xml:space="preserve">

<style type="text/css"><![CDATA[
.node, .edge {opacity: 0.7;}
.node.selected, .edge.selected {opacity: 1;}
.edge:hover path { stroke: red; }
.edge:hover polygon { stroke: red; fill: red; }
]]></style>
<script type="application/ecmascript" xlink:href="../../svg.min.js"/>
<svg id="graph" class="graph">
<g id="graph0" class="graph" transform="scale(1 1) rotate(0) translate(4 89.75)">
<title>others/decimal_to_roman_numeral.cpp</title>
<!-- Node1 -->
<g id="Node000001" class="node">
<title>Node1</title>
<g id="a_Node000001"><a xlink:title="This Programme Converts a given decimal number in the range [0,4000) to both Lower case and Upper cas...">
<polygon fill="#999999" stroke="#666666" points="176.25,-85.75 50.75,-85.75 50.75,-55.25 176.25,-55.25 176.25,-85.75"/>
<text xml:space="preserve" text-anchor="start" x="58.75" y="-72.25" font-family="Helvetica,sans-Serif" font-size="10.00">others/decimal_to_roman</text>
<text xml:space="preserve" text-anchor="middle" x="113.5" y="-61" font-family="Helvetica,sans-Serif" font-size="10.00">_numeral.cpp</text>
</a>
</g>
</g>
<!-- Node2 -->
<g id="Node000002" class="node">
<title>Node2</title>
<g id="a_Node000002"><a xlink:title=" ">
<polygon fill="#e0e0e0" stroke="#999999" points="43,-19.25 0,-19.25 0,0 43,0 43,-19.25"/>
<text xml:space="preserve" text-anchor="middle" x="21.5" y="-5.75" font-family="Helvetica,sans-Serif" font-size="10.00">cmath</text>
</a>
</g>
</g>
<!-- Node1&#45;&gt;Node2 -->
<g id="edge1_Node000001_Node000002" class="edge">
<title>Node1&#45;&gt;Node2</title>
<g id="a_edge1_Node000001_Node000002"><a xlink:title=" ">
<path fill="none" stroke="#63b8ff" d="M90.76,-54.95C76.89,-46.07 59.18,-34.74 45.15,-25.76"/>
<polygon fill="#63b8ff" stroke="#63b8ff" points="47.27,-22.96 36.96,-20.52 43.49,-28.86 47.27,-22.96"/>
</a>
</g>
</g>
<!-- Node3 -->
<g id="Node000003" class="node">
<title>Node3</title>
<g id="a_Node000003"><a xlink:title=" ">
<polygon fill="#e0e0e0" stroke="#999999" points="103.62,-19.25 61.38,-19.25 61.38,0 103.62,0 103.62,-19.25"/>
<text xml:space="preserve" text-anchor="middle" x="82.5" y="-5.75" font-family="Helvetica,sans-Serif" font-size="10.00">cstdio</text>
</a>
</g>
</g>
<!-- Node1&#45;&gt;Node3 -->
<g id="edge2_Node000001_Node000003" class="edge">
<title>Node1&#45;&gt;Node3</title>
<g id="a_edge2_Node000001_Node000003"><a xlink:title=" ">
<path fill="none" stroke="#63b8ff" d="M105.84,-54.95C101.84,-47.36 96.91,-37.99 92.61,-29.82"/>
<polygon fill="#63b8ff" stroke="#63b8ff" points="95.74,-28.26 87.98,-21.04 89.55,-31.52 95.74,-28.26"/>
</a>
</g>
</g>
<!-- Node4 -->
<g id="Node000004" class="node">
<title>Node4</title>
<g id="a_Node000004"><a xlink:title=" ">
<polygon fill="#e0e0e0" stroke="#999999" points="167.12,-19.25 121.88,-19.25 121.88,0 167.12,0 167.12,-19.25"/>
<text xml:space="preserve" text-anchor="middle" x="144.5" y="-5.75" font-family="Helvetica,sans-Serif" font-size="10.00">cstring</text>
</a>
</g>
</g>
<!-- Node1&#45;&gt;Node4 -->
<g id="edge3_Node000001_Node000004" class="edge">
<title>Node1&#45;&gt;Node4</title>
<g id="a_edge3_Node000001_Node000004"><a xlink:title=" ">
<path fill="none" stroke="#63b8ff" d="M121.16,-54.95C125.16,-47.36 130.09,-37.99 134.39,-29.82"/>
<polygon fill="#63b8ff" stroke="#63b8ff" points="137.45,-31.52 139.02,-21.04 131.26,-28.26 137.45,-31.52"/>
</a>
</g>
</g>
<!-- Node5 -->
<g id="Node000005" class="node">
<title>Node5</title>
<g id="a_Node000005"><a xlink:title=" ">
<polygon fill="#e0e0e0" stroke="#999999" points="238.25,-19.25 184.75,-19.25 184.75,0 238.25,0 238.25,-19.25"/>
<text xml:space="preserve" text-anchor="middle" x="211.5" y="-5.75" font-family="Helvetica,sans-Serif" font-size="10.00">iostream</text>
</a>
</g>
</g>
<!-- Node1&#45;&gt;Node5 -->
<g id="edge4_Node000001_Node000005" class="edge">
<title>Node1&#45;&gt;Node5</title>
<g id="a_edge4_Node000001_Node000005"><a xlink:title=" ">
<path fill="none" stroke="#63b8ff" d="M137.98,-54.8C152.9,-45.83 171.92,-34.41 186.87,-25.42"/>
<polygon fill="#63b8ff" stroke="#63b8ff" points="188.4,-28.58 195.17,-20.43 184.8,-22.58 188.4,-28.58"/>
</a>
</g>
</g>
</g>
</svg>
</svg>

<style type='text/css'>
<![CDATA[
[data-mouse-over-selected='false'] { opacity: 0.7; }
[data-mouse-over-selected='true']  { opacity: 1.0; }
]]>
</style>
<script type="application/ecmascript"><![CDATA[
document.addEventListener('DOMContentLoaded', (event) => {
  highlightEdges();
  highlightAdjacentNodes();
});
]]></script>
</svg>
