<?xml version="1.0" encoding="UTF-8" standalone="no"?>
<!DOCTYPE svg PUBLIC "-//W3C//DTD SVG 1.1//EN"
 "http://www.w3.org/Graphics/SVG/1.1/DTD/svg11.dtd">
<!-- Generated by graphviz version 9.0.0 (20230911.1827)
 -->
<!-- Title: main Pages: 1 -->
<svg width="457pt" height="281pt"
 viewBox="0.00 0.00 456.75 281.25" xmlns="http://www.w3.org/2000/svg" xmlns:xlink="http://www.w3.org/1999/xlink">

<svg id="main" version="1.1" xmlns="http://www.w3.org/2000/svg" xmlns:xlink="http://www.w3.org/1999/xlink" xml:space="preserve" onload="init(evt)">
<style type="text/css"><![CDATA[
.node, .edge {opacity: 0.7;}
.node.selected, .edge.selected {opacity: 1;}
.edge:hover path { stroke: red; }
.edge:hover polygon { stroke: red; fill: red; }
]]></style>
<script type="application/ecmascript" xlink:href="../../svg.min.js"/>
<svg id="graph" class="graph">
<g id="graph0" class="graph" transform="scale(1 1) rotate(0) translate(4 277.25)">
<title>main</title>
<!-- Node1 -->
<g id="Node000001" class="node">
<title>Node1</title>
<g id="a_Node000001"><a xlink:title=" ">
<polygon fill="#999999" stroke="#666666" points="37,-94.25 0,-94.25 0,-75 37,-75 37,-94.25"/>
<text text-anchor="middle" x="18.5" y="-80.75" font-family="Helvetica,sans-Serif" font-size="10.00">main</text>
</a>
</g>
</g>
<!-- Node2 -->
<g id="Node000002" class="node">
<title>Node2</title>
<g id="a_Node000002"><a xlink:href="../../d4/d90/classdata__structures_1_1_skip_list.html#a812611f80b8079268dbb19cc4e9bee5c" target="_top" xlink:title=" ">
<polygon fill="white" stroke="#666666" points="197.75,-262.88 73,-262.88 73,-232.38 197.75,-232.38 197.75,-262.88"/>
<text text-anchor="start" x="81" y="-249.38" font-family="Helvetica,sans-Serif" font-size="10.00">data_structures::SkipList</text>
<text text-anchor="middle" x="135.38" y="-238.12" font-family="Helvetica,sans-Serif" font-size="10.00">::displayList</text>
</a>
</g>
</g>
<!-- Node1&#45;&gt;Node2 -->
<g id="edge1_Node000001_Node000002" class="edge">
<title>Node1&#45;&gt;Node2</title>
<g id="a_edge1_Node000001_Node000002"><a xlink:title=" ">
<path fill="none" stroke="#63b8ff" d="M21.74,-94.6C27.19,-116.99 42.93,-172.06 73,-207.62 78.77,-214.45 86,-220.55 93.46,-225.8"/>
<polygon fill="#63b8ff" stroke="#63b8ff" points="91.37,-228.62 101.66,-231.16 95.2,-222.76 91.37,-228.62"/>
</a>
</g>
</g>
<!-- Node4 -->
<g id="Node000004" class="node">
<title>Node4</title>
<g id="a_Node000004"><a xlink:href="../../d4/d90/classdata__structures_1_1_skip_list.html#a40a4042bdf0b6683b5f21ae7854de8a9" target="_top" xlink:title=" ">
<polygon fill="white" stroke="#666666" points="197.75,-198.88 73,-198.88 73,-168.38 197.75,-168.38 197.75,-198.88"/>
<text text-anchor="start" x="81" y="-185.38" font-family="Helvetica,sans-Serif" font-size="10.00">data_structures::SkipList</text>
<text text-anchor="middle" x="135.38" y="-174.12" font-family="Helvetica,sans-Serif" font-size="10.00">::insertElement</text>
</a>
</g>
</g>
<!-- Node1&#45;&gt;Node4 -->
<g id="edge3_Node000001_Node000004" class="edge">
<title>Node1&#45;&gt;Node4</title>
<g id="a_edge3_Node000001_Node000004"><a xlink:title=" ">
<path fill="none" stroke="#63b8ff" d="M30.93,-94.48C48.73,-109.81 83.51,-139.79 107.81,-160.73"/>
<polygon fill="#63b8ff" stroke="#63b8ff" points="105.23,-163.13 115.09,-167 109.8,-157.83 105.23,-163.13"/>
</a>
</g>
</g>
<!-- Node7 -->
<g id="Node000007" class="node">
<title>Node7</title>
<g id="a_Node000007"><a target="_blank" xlink:href="http://en.cppreference.com/w/cpp/numeric/random/rand.html#" xlink:title=" ">
<polygon fill="white" stroke="#666666" points="448.75,-143.25 394.5,-143.25 394.5,-124 448.75,-124 448.75,-143.25"/>
<text text-anchor="middle" x="421.62" y="-129.75" font-family="Helvetica,sans-Serif" font-size="10.00">std::rand</text>
</a>
</g>
</g>
<!-- Node1&#45;&gt;Node7 -->
<g id="edge10_Node000001_Node000007" class="edge">
<title>Node1&#45;&gt;Node7</title>
<g id="a_edge10_Node000001_Node000007"><a xlink:title=" ">
<path fill="none" stroke="#63b8ff" d="M37.16,-83.22C88.03,-79.67 238.94,-72.72 358.5,-103.62 370.85,-106.82 383.68,-112.55 394.45,-118.15"/>
<polygon fill="#63b8ff" stroke="#63b8ff" points="392.65,-121.16 403.11,-122.88 396.01,-115.01 392.65,-121.16"/>
</a>
</g>
</g>
<!-- Node9 -->
<g id="Node000009" class="node">
<title>Node9</title>
<g id="a_Node000009"><a target="_blank" xlink:href="http://en.cppreference.com/w/cpp/numeric/random/srand.html#" xlink:title=" ">
<polygon fill="white" stroke="#666666" points="165.12,-56.25 105.62,-56.25 105.62,-37 165.12,-37 165.12,-56.25"/>
<text text-anchor="middle" x="135.38" y="-42.75" font-family="Helvetica,sans-Serif" font-size="10.00">std::srand</text>
</a>
</g>
</g>
<!-- Node1&#45;&gt;Node9 -->
<g id="edge11_Node000001_Node000009" class="edge">
<title>Node1&#45;&gt;Node9</title>
<g id="a_edge11_Node000001_Node000009"><a xlink:title=" ">
<path fill="none" stroke="#63b8ff" d="M37.45,-78.69C52.71,-73.64 75.19,-66.2 94.65,-59.77"/>
<polygon fill="#63b8ff" stroke="#63b8ff" points="95.56,-63.15 103.95,-56.69 93.36,-56.51 95.56,-63.15"/>
</a>
</g>
</g>
<!-- Node10 -->
<g id="Node000010" class="node">
<title>Node10</title>
<g id="a_Node000010"><a target="_blank" xlink:href="http://en.cppreference.com/w/cpp/chrono/c/time.html#" xlink:title=" ">
<polygon fill="white" stroke="#666666" points="162.5,-19.25 108.25,-19.25 108.25,0 162.5,0 162.5,-19.25"/>
<text text-anchor="middle" x="135.38" y="-5.75" font-family="Helvetica,sans-Serif" font-size="10.00">std::time</text>
</a>
</g>
</g>
<!-- Node1&#45;&gt;Node10 -->
<g id="edge12_Node000001_Node000010" class="edge">
<title>Node1&#45;&gt;Node10</title>
<g id="a_edge12_Node000001_Node000010"><a xlink:title=" ">
<path fill="none" stroke="#63b8ff" d="M26.26,-74.63C35.4,-61.88 52.88,-39.99 73,-27.62 80.28,-23.15 88.74,-19.73 97,-17.15"/>
<polygon fill="#63b8ff" stroke="#63b8ff" points="97.85,-20.55 106.56,-14.52 95.99,-13.8 97.85,-20.55"/>
</a>
</g>
</g>
<!-- Node3 -->
<g id="Node000003" class="node">
<title>Node3</title>
<g id="a_Node000003"><a target="_blank" xlink:href="http://en.cppreference.com/w/cpp/io/manip/endl.html#" xlink:title=" ">
<polygon fill="white" stroke="#666666" points="322.88,-273.25 269.38,-273.25 269.38,-254 322.88,-254 322.88,-273.25"/>
<text text-anchor="middle" x="296.12" y="-259.75" font-family="Helvetica,sans-Serif" font-size="10.00">std::endl</text>
</a>
</g>
</g>
<!-- Node2&#45;&gt;Node3 -->
<g id="edge2_Node000002_Node000003" class="edge">
<title>Node2&#45;&gt;Node3</title>
<g id="a_edge2_Node000002_Node000003"><a xlink:title=" ">
<path fill="none" stroke="#63b8ff" d="M198.21,-253.86C218.25,-255.88 239.86,-258.06 257.58,-259.84"/>
<polygon fill="#63b8ff" stroke="#63b8ff" points="257.08,-263.31 267.38,-260.83 257.78,-256.34 257.08,-263.31"/>
</a>
</g>
</g>
<!-- Node4&#45;&gt;Node3 -->
<g id="edge4_Node000004_Node000003" class="edge">
<title>Node4&#45;&gt;Node3</title>
<g id="a_edge4_Node000004_Node000003"><a xlink:title=" ">
<path fill="none" stroke="#63b8ff" d="M160.27,-199.33C186.54,-216.53 226.09,-242.15 233.75,-245.62 241.47,-249.13 250.04,-252.14 258.26,-254.65"/>
<polygon fill="#63b8ff" stroke="#63b8ff" points="257.13,-257.96 267.71,-257.33 259.04,-251.23 257.13,-257.96"/>
</a>
</g>
</g>
<!-- Node5 -->
<g id="Node000005" class="node">
<title>Node5</title>
<g id="a_Node000005"><a target="_blank" xlink:href="http://en.cppreference.com/w/cpp/container/array/fill.html#" xlink:title=" ">
<polygon fill="white" stroke="#666666" points="332.62,-236.25 259.62,-236.25 259.62,-217 332.62,-217 332.62,-236.25"/>
<text text-anchor="middle" x="296.12" y="-222.75" font-family="Helvetica,sans-Serif" font-size="10.00">std::array::fill</text>
</a>
</g>
</g>
<!-- Node4&#45;&gt;Node5 -->
<g id="edge5_Node000004_Node000005" class="edge">
<title>Node4&#45;&gt;Node5</title>
<g id="a_edge5_Node000004_Node000005"><a xlink:title=" ">
<path fill="none" stroke="#63b8ff" d="M194.14,-199.27C212.03,-204.12 231.5,-209.39 248.53,-214.01"/>
<polygon fill="#63b8ff" stroke="#63b8ff" points="247.3,-217.3 257.87,-216.53 249.13,-210.54 247.3,-217.3"/>
</a>
</g>
</g>
<!-- Node6 -->
<g id="Node000006" class="node">
<title>Node6</title>
<g id="a_Node000006"><a xlink:href="../../d4/d90/classdata__structures_1_1_skip_list.html#aa3f3813e9896792fc86b296547689ba4" target="_top" xlink:title=" ">
<polygon fill="white" stroke="#666666" points="358.5,-198.88 233.75,-198.88 233.75,-168.38 358.5,-168.38 358.5,-198.88"/>
<text text-anchor="start" x="241.75" y="-185.38" font-family="Helvetica,sans-Serif" font-size="10.00">data_structures::SkipList</text>
<text text-anchor="middle" x="296.12" y="-174.12" font-family="Helvetica,sans-Serif" font-size="10.00">::randomLevel</text>
</a>
</g>
</g>
<!-- Node4&#45;&gt;Node6 -->
<g id="edge6_Node000004_Node000006" class="edge">
<title>Node4&#45;&gt;Node6</title>
<g id="a_edge6_Node000004_Node000006"><a xlink:title=" ">
<path fill="none" stroke="#63b8ff" d="M198.21,-183.62C206.08,-183.62 214.19,-183.62 222.21,-183.62"/>
<polygon fill="#63b8ff" stroke="#63b8ff" points="221.95,-187.13 231.95,-183.63 221.95,-180.13 221.95,-187.13"/>
</a>
</g>
</g>
<!-- Node8 -->
<g id="Node000008" class="node">
<title>Node8</title>
<g id="a_Node000008"><a xlink:href="../../d2/d45/segtree_8cpp.html#abd3e818681fb2e29cf08f4f60f82c8e0" target="_top" xlink:title="Updates a range of the segment tree.">
<polygon fill="white" stroke="#666666" points="318.75,-132.25 273.5,-132.25 273.5,-113 318.75,-113 318.75,-132.25"/>
<text text-anchor="middle" x="296.12" y="-118.75" font-family="Helvetica,sans-Serif" font-size="10.00">update</text>
</a>
</g>
</g>
<!-- Node4&#45;&gt;Node8 -->
<g id="edge8_Node000004_Node000008" class="edge">
<title>Node4&#45;&gt;Node8</title>
<g id="a_edge8_Node000004_Node000008"><a xlink:title=" ">
<path fill="none" stroke="#63b8ff" d="M177.26,-167.92C203.87,-157.69 238.09,-144.54 262.8,-135.05"/>
<polygon fill="#63b8ff" stroke="#63b8ff" points="263.93,-138.36 272.01,-131.51 261.42,-131.83 263.93,-138.36"/>
</a>
</g>
</g>
<!-- Node6&#45;&gt;Node7 -->
<g id="edge7_Node000006_Node000007" class="edge">
<title>Node6&#45;&gt;Node7</title>
<g id="a_edge7_Node000006_Node000007"><a xlink:title=" ">
<path fill="none" stroke="#63b8ff" d="M337.79,-167.88C344.71,-165.16 351.82,-162.33 358.5,-159.62 367.59,-155.95 377.4,-151.89 386.47,-148.09"/>
<polygon fill="#63b8ff" stroke="#63b8ff" points="387.82,-151.32 395.68,-144.22 385.11,-144.87 387.82,-151.32"/>
</a>
</g>
</g>
<!-- Node8&#45;&gt;Node8 -->
<g id="edge9_Node000008_Node000008" class="edge">
<title>Node8&#45;&gt;Node8</title>
<g id="a_edge9_Node000008_Node000008"><a xlink:title=" ">
<path fill="none" stroke="#63b8ff" d="M276.48,-132.54C267.52,-141.15 274.06,-150.25 296.12,-150.25 308.19,-150.25 315.61,-147.53 318.4,-143.65"/>
<polygon fill="#63b8ff" stroke="#63b8ff" points="321.83,-142.94 316.12,-134.01 315.02,-144.55 321.83,-142.94"/>
</a>
</g>
</g>
</g>
</svg>
</svg>

<style type='text/css'>
<![CDATA[
[data-mouse-over-selected='false'] { opacity: 0.7; }
[data-mouse-over-selected='true']  { opacity: 1.0; }
]]>
</style>
<script type="application/ecmascript"><![CDATA[
document.addEventListener('DOMContentLoaded', (event) => {
  highlightEdges();
  highlightAdjacentNodes();
});
]]></script>
</svg>
