<?xml version="1.0" encoding="UTF-8" standalone="no"?>
<!DOCTYPE svg PUBLIC "-//W3C//DTD SVG 1.1//EN"
 "http://www.w3.org/Graphics/SVG/1.1/DTD/svg11.dtd">
<!-- Generated by graphviz version 7.0.4 (20221203.1631)
 -->
<!-- Title: node&lt; Kind &gt; Pages: 1 -->
<svg width="129pt" height="195pt"
 viewBox="0.00 0.00 129.00 195.00" xmlns="http://www.w3.org/2000/svg" xmlns:xlink="http://www.w3.org/1999/xlink">
<g id="graph0" class="graph" transform="scale(1 1) rotate(0) translate(4 191)">
<title>node&lt; Kind &gt;</title>
<!-- Node1 -->
<g id="node1" class="node">
<title>Node1</title>
<g id="a_node1"><a xlink:title=" ">
<polygon fill="#999999" stroke="#666666" points="75,-19 0,-19 0,0 75,0 75,-19"/>
<text text-anchor="middle" x="37.5" y="-7" font-family="Helvetica,sans-Serif" font-size="10.00">node&lt; Kind &gt;</text>
</a>
</g>
</g>
<!-- Node2 -->
<g id="node2" class="node">
<title>Node2</title>
<g id="a_node2"><a xlink:href="../../d5/da1/structnode.html" target="_top" xlink:title=" ">
<polygon fill="white" stroke="#666666" points="75,-163.5 0,-163.5 0,-144.5 75,-144.5 75,-163.5"/>
<text text-anchor="middle" x="37.5" y="-151.5" font-family="Helvetica,sans-Serif" font-size="10.00">node&lt; Kind &gt;</text>
</a>
</g>
</g>
<!-- Node2&#45;&gt;Node1 -->
<g id="edge1" class="edge">
<title>Node2&#45;&gt;Node1</title>
<path fill="none" stroke="#9a32cd" stroke-dasharray="5,2" d="M37.5,-132.85C37.5,-101.4 37.5,-41.9 37.5,-19.41"/>
<polygon fill="#9a32cd" stroke="#9a32cd" points="34,-132.57 37.5,-142.57 41,-132.57 34,-132.57"/>
<text text-anchor="middle" x="51.5" y="-95" font-family="Helvetica,sans-Serif" font-size="10.00"> left</text>
<text text-anchor="middle" x="51.5" y="-84" font-family="Helvetica,sans-Serif" font-size="10.00">link</text>
<text text-anchor="middle" x="51.5" y="-73" font-family="Helvetica,sans-Serif" font-size="10.00">next</text>
<text text-anchor="middle" x="51.5" y="-62" font-family="Helvetica,sans-Serif" font-size="10.00">parent</text>
<text text-anchor="middle" x="51.5" y="-51" font-family="Helvetica,sans-Serif" font-size="10.00">prev</text>
<text text-anchor="middle" x="51.5" y="-40" font-family="Helvetica,sans-Serif" font-size="10.00">right</text>
</g>
<!-- Node2&#45;&gt;Node2 -->
<g id="edge2" class="edge">
<title>Node2&#45;&gt;Node2</title>
<path fill="none" stroke="#9a32cd" stroke-dasharray="5,2" d="M60.6,-168.14C76.88,-172.57 93,-167.86 93,-154 93,-137.1 69.04,-133.8 50.04,-144.1"/>
<polygon fill="#9a32cd" stroke="#9a32cd" points="62.03,-164.94 51.45,-164.46 59.43,-171.44 62.03,-164.94"/>
<text text-anchor="middle" x="107" y="-179" font-family="Helvetica,sans-Serif" font-size="10.00"> left</text>
<text text-anchor="middle" x="107" y="-168" font-family="Helvetica,sans-Serif" font-size="10.00">link</text>
<text text-anchor="middle" x="107" y="-157" font-family="Helvetica,sans-Serif" font-size="10.00">next</text>
<text text-anchor="middle" x="107" y="-146" font-family="Helvetica,sans-Serif" font-size="10.00">parent</text>
<text text-anchor="middle" x="107" y="-135" font-family="Helvetica,sans-Serif" font-size="10.00">prev</text>
<text text-anchor="middle" x="107" y="-124" font-family="Helvetica,sans-Serif" font-size="10.00">right</text>
</g>
</g>
</svg>
