<?xml version="1.0" encoding="UTF-8" standalone="no"?>
<!DOCTYPE svg PUBLIC "-//W3C//DTD SVG 1.1//EN"
 "http://www.w3.org/Graphics/SVG/1.1/DTD/svg11.dtd">
<!-- Generated by graphviz version 5.0.1 (20220820.1526)
 -->
<!-- Title: data_structures::BloomFilter::add Pages: 1 -->
<svg width="473pt" height="76pt"
 viewBox="0.00 0.00 473.00 75.50" xmlns="http://www.w3.org/2000/svg" xmlns:xlink="http://www.w3.org/1999/xlink">
<g id="graph0" class="graph" transform="scale(1 1) rotate(0) translate(4 71.5)">
<title>data_structures::BloomFilter::add</title>
<!-- Node1 -->
<g id="node1" class="node">
<title>Node1</title>
<g id="a_node1"><a xlink:title="Add function for Bloom filter.">
<polygon fill="#999999" stroke="#666666" points="161,-45.5 0,-45.5 0,-26.5 161,-26.5 161,-45.5"/>
<text text-anchor="middle" x="80.5" y="-33.5" font-family="Helvetica,sans-Serif" font-size="10.00">data_structures::BloomFilter::add</text>
</a>
</g>
</g>
<!-- Node2 -->
<g id="node2" class="node">
<title>Node2</title>
<g id="a_node2"><a xlink:href="../../d9/dae/classdata__structures_1_1_bitset.html#a17dbe1b1d559302312e8091f82f7499c" target="_top" xlink:title="Turn bit on position x to 1s.">
<polygon fill="white" stroke="#666666" points="334,-67.5 197,-67.5 197,-48.5 334,-48.5 334,-67.5"/>
<text text-anchor="middle" x="265.5" y="-55.5" font-family="Helvetica,sans-Serif" font-size="10.00">data_structures::Bitset::add</text>
</a>
</g>
</g>
<!-- Node1&#45;&gt;Node2 -->
<g id="edge1" class="edge">
<title>Node1&#45;&gt;Node2</title>
<path fill="none" stroke="#63b8ff" d="M160.7,-45.52C169.38,-46.56 178.21,-47.63 186.87,-48.67"/>
<polygon fill="#63b8ff" stroke="#63b8ff" points="186.59,-52.16 196.94,-49.88 187.43,-45.21 186.59,-52.16"/>
</g>
<!-- Node5 -->
<g id="node5" class="node">
<title>Node5</title>
<g id="a_node5"><a xlink:href="../../d9/dae/classdata__structures_1_1_bitset.html#a2f1f44d6a12b0de4aaf242872b1c7b54" target="_top" xlink:title="Utility function to return the size of the inner array.">
<polygon fill="white" stroke="#666666" points="323.5,-30 207.5,-30 207.5,0 323.5,0 323.5,-30"/>
<text text-anchor="start" x="215.5" y="-18" font-family="Helvetica,sans-Serif" font-size="10.00">data_structures::Bitset</text>
<text text-anchor="middle" x="265.5" y="-7" font-family="Helvetica,sans-Serif" font-size="10.00">::size</text>
</a>
</g>
</g>
<!-- Node1&#45;&gt;Node5 -->
<g id="edge4" class="edge">
<title>Node1&#45;&gt;Node5</title>
<path fill="none" stroke="#63b8ff" d="M161.23,-26.85C173.23,-25.47 185.5,-24.07 197.2,-22.72"/>
<polygon fill="#63b8ff" stroke="#63b8ff" points="197.77,-26.18 207.31,-21.56 196.98,-19.23 197.77,-26.18"/>
</g>
<!-- Node3 -->
<g id="node3" class="node">
<title>Node3</title>
<g id="a_node3"><a target="_blank" xlink:href="http://en.cppreference.com/w/cpp/container/vector/resize.html#" xlink:title=" ">
<polygon fill="white" stroke="#666666" points="465,-67.5 370,-67.5 370,-48.5 465,-48.5 465,-67.5"/>
<text text-anchor="middle" x="417.5" y="-55.5" font-family="Helvetica,sans-Serif" font-size="10.00">std::vector::resize</text>
</a>
</g>
</g>
<!-- Node2&#45;&gt;Node3 -->
<g id="edge2" class="edge">
<title>Node2&#45;&gt;Node3</title>
<path fill="none" stroke="#63b8ff" d="M334.04,-58C342.66,-58 351.42,-58 359.85,-58"/>
<polygon fill="#63b8ff" stroke="#63b8ff" points="359.94,-61.5 369.94,-58 359.93,-54.5 359.94,-61.5"/>
</g>
<!-- Node4 -->
<g id="node4" class="node">
<title>Node4</title>
<g id="a_node4"><a target="_blank" xlink:href="http://en.cppreference.com/w/cpp/container/vector/size.html#" xlink:title=" ">
<polygon fill="white" stroke="#666666" points="461,-27.5 374,-27.5 374,-8.5 461,-8.5 461,-27.5"/>
<text text-anchor="middle" x="417.5" y="-15.5" font-family="Helvetica,sans-Serif" font-size="10.00">std::vector::size</text>
</a>
</g>
</g>
<!-- Node2&#45;&gt;Node4 -->
<g id="edge3" class="edge">
<title>Node2&#45;&gt;Node4</title>
<path fill="none" stroke="#63b8ff" d="M302.43,-48.42C323.02,-42.93 349.07,-35.98 371.07,-30.11"/>
<polygon fill="#63b8ff" stroke="#63b8ff" points="372.1,-33.46 380.86,-27.5 370.3,-26.7 372.1,-33.46"/>
</g>
<!-- Node5&#45;&gt;Node4 -->
<g id="edge5" class="edge">
<title>Node5&#45;&gt;Node4</title>
<path fill="none" stroke="#63b8ff" d="M323.64,-16.14C336.83,-16.41 350.81,-16.69 363.81,-16.95"/>
<polygon fill="#63b8ff" stroke="#63b8ff" points="363.92,-20.45 373.99,-17.15 364.06,-13.45 363.92,-20.45"/>
</g>
</g>
</svg>
