<?xml version="1.0" encoding="UTF-8" standalone="no"?>
<!DOCTYPE svg PUBLIC "-//W3C//DTD SVG 1.1//EN"
 "http://www.w3.org/Graphics/SVG/1.1/DTD/svg11.dtd">
<!-- Generated by graphviz version 7.0.6 (20230106.0513)
 -->
<!-- Title: data_structures::BloomFilter::contains Pages: 1 -->
<svg width="423pt" height="86pt"
 viewBox="0.00 0.00 423.00 86.00" xmlns="http://www.w3.org/2000/svg" xmlns:xlink="http://www.w3.org/1999/xlink">
<g id="graph0" class="graph" transform="scale(1 1) rotate(0) translate(4 82)">
<title>data_structures::BloomFilter::contains</title>
<!-- Node1 -->
<g id="node1" class="node">
<title>Node1</title>
<g id="a_node1"><a xlink:title="Check element function for Bloom filter.">
<polygon fill="#999999" stroke="#666666" points="140,-54 0,-54 0,-24 140,-24 140,-54"/>
<text text-anchor="start" x="8" y="-42" font-family="Helvetica,sans-Serif" font-size="10.00">data_structures::BloomFilter</text>
<text text-anchor="middle" x="70" y="-31" font-family="Helvetica,sans-Serif" font-size="10.00">::contains</text>
</a>
</g>
</g>
<!-- Node2 -->
<g id="node2" class="node">
<title>Node2</title>
<g id="a_node2"><a xlink:href="../../d9/dae/classdata__structures_1_1_bitset.html#a9ef54c7c3f6494b36ead3ae2e5cf43ac" target="_top" xlink:title="Doest bitset contains element x.">
<polygon fill="white" stroke="#666666" points="292,-78 176,-78 176,-48 292,-48 292,-78"/>
<text text-anchor="start" x="184" y="-66" font-family="Helvetica,sans-Serif" font-size="10.00">data_structures::Bitset</text>
<text text-anchor="middle" x="234" y="-55" font-family="Helvetica,sans-Serif" font-size="10.00">::contains</text>
</a>
</g>
</g>
<!-- Node1&#45;&gt;Node2 -->
<g id="edge1" class="edge">
<title>Node1&#45;&gt;Node2</title>
<path fill="none" stroke="#63b8ff" d="M140.17,-49.25C148.18,-50.43 156.35,-51.64 164.35,-52.83"/>
<polygon fill="#63b8ff" stroke="#63b8ff" points="163.61,-56.26 174.02,-54.26 164.64,-49.33 163.61,-56.26"/>
</g>
<!-- Node4 -->
<g id="node4" class="node">
<title>Node4</title>
<g id="a_node4"><a xlink:href="../../d9/dae/classdata__structures_1_1_bitset.html#a2f1f44d6a12b0de4aaf242872b1c7b54" target="_top" xlink:title="Utility function to return the size of the inner array.">
<polygon fill="white" stroke="#666666" points="292,-30 176,-30 176,0 292,0 292,-30"/>
<text text-anchor="start" x="184" y="-18" font-family="Helvetica,sans-Serif" font-size="10.00">data_structures::Bitset</text>
<text text-anchor="middle" x="234" y="-7" font-family="Helvetica,sans-Serif" font-size="10.00">::size</text>
</a>
</g>
</g>
<!-- Node1&#45;&gt;Node4 -->
<g id="edge3" class="edge">
<title>Node1&#45;&gt;Node4</title>
<path fill="none" stroke="#63b8ff" d="M140.17,-28.75C148.18,-27.57 156.35,-26.36 164.35,-25.17"/>
<polygon fill="#63b8ff" stroke="#63b8ff" points="164.64,-28.67 174.02,-23.74 163.61,-21.74 164.64,-28.67"/>
</g>
<!-- Node3 -->
<g id="node3" class="node">
<title>Node3</title>
<g id="a_node3"><a target="_blank" xlink:href="http://en.cppreference.com/w/cpp/container/vector/size.html#" xlink:title=" ">
<polygon fill="white" stroke="#666666" points="415,-48.5 328,-48.5 328,-29.5 415,-29.5 415,-48.5"/>
<text text-anchor="middle" x="371.5" y="-36.5" font-family="Helvetica,sans-Serif" font-size="10.00">std::vector::size</text>
</a>
</g>
</g>
<!-- Node2&#45;&gt;Node3 -->
<g id="edge2" class="edge">
<title>Node2&#45;&gt;Node3</title>
<path fill="none" stroke="#63b8ff" d="M292.46,-52.82C300.41,-51.41 308.55,-49.97 316.44,-48.58"/>
<polygon fill="#63b8ff" stroke="#63b8ff" points="317.02,-52.03 326.26,-46.84 315.8,-45.13 317.02,-52.03"/>
</g>
<!-- Node4&#45;&gt;Node3 -->
<g id="edge4" class="edge">
<title>Node4&#45;&gt;Node3</title>
<path fill="none" stroke="#63b8ff" d="M292.46,-25.18C300.41,-26.59 308.55,-28.03 316.44,-29.42"/>
<polygon fill="#63b8ff" stroke="#63b8ff" points="315.8,-32.87 326.26,-31.16 317.02,-25.97 315.8,-32.87"/>
</g>
</g>
</svg>
