<?xml version="1.0" encoding="UTF-8" standalone="no"?>
<!DOCTYPE svg PUBLIC "-//W3C//DTD SVG 1.1//EN"
 "http://www.w3.org/Graphics/SVG/1.1/DTD/svg11.dtd">
<!-- Generated by graphviz version 7.0.0 (20221023.0053)
 -->
<!-- Title: main Pages: 1 -->
<svg width="529pt" height="355pt"
 viewBox="0.00 0.00 529.00 355.00" xmlns="http://www.w3.org/2000/svg" xmlns:xlink="http://www.w3.org/1999/xlink">
<g id="graph0" class="graph" transform="scale(1 1) rotate(0) translate(4 351)">
<title>main</title>
<!-- Node1 -->
<g id="node1" class="node">
<title>Node1</title>
<g id="a_node1"><a xlink:title=" ">
<polygon fill="#999999" stroke="#666666" points="38,-232 0,-232 0,-213 38,-213 38,-232"/>
<text text-anchor="middle" x="19" y="-220" font-family="Helvetica,sans-Serif" font-size="10.00">main</text>
</a>
</g>
</g>
<!-- Node2 -->
<g id="node2" class="node">
<title>Node2</title>
<g id="a_node2"><a target="_blank" xlink:href="http://en.cppreference.com/w/cpp/chrono/c/clock.html#" xlink:title=" ">
<polygon fill="white" stroke="#666666" points="142,-343 83,-343 83,-324 142,-324 142,-343"/>
<text text-anchor="middle" x="112.5" y="-331" font-family="Helvetica,sans-Serif" font-size="10.00">std::clock</text>
</a>
</g>
</g>
<!-- Node1&#45;&gt;Node2 -->
<g id="edge1" class="edge">
<title>Node1&#45;&gt;Node2</title>
<path fill="none" stroke="#63b8ff" d="M23.5,-232.47C30.46,-251.02 47.68,-291.17 74,-315.5 74.74,-316.19 75.52,-316.85 76.31,-317.5"/>
<polygon fill="#63b8ff" stroke="#63b8ff" points="74.05,-320.19 84.32,-322.77 77.9,-314.35 74.05,-320.19"/>
</g>
<!-- Node3 -->
<g id="node3" class="node">
<title>Node3</title>
<g id="a_node3"><a xlink:href="../../d4/def/kohonen__som__topology_8cpp.html#a2256c10b16edba377b64a44b6c656908" target="_top" xlink:title=" ">
<polygon fill="white" stroke="#666666" points="151,-306 74,-306 74,-287 151,-287 151,-306"/>
<text text-anchor="middle" x="112.5" y="-294" font-family="Helvetica,sans-Serif" font-size="10.00">get_clock_diff</text>
</a>
</g>
</g>
<!-- Node1&#45;&gt;Node3 -->
<g id="edge2" class="edge">
<title>Node1&#45;&gt;Node3</title>
<path fill="none" stroke="#63b8ff" d="M27.54,-232.24C37.27,-244.29 55.17,-264.9 74,-278.5 75.32,-279.45 76.69,-280.37 78.11,-281.27"/>
<polygon fill="#63b8ff" stroke="#63b8ff" points="76.01,-284.1 86.44,-285.95 79.44,-278 76.01,-284.1"/>
</g>
<!-- Node4 -->
<g id="node4" class="node">
<title>Node4</title>
<g id="a_node4"><a target="_blank" xlink:href="http://en.cppreference.com/w/cpp/numeric/random/srand.html#" xlink:title=" ">
<polygon fill="white" stroke="#666666" points="142.5,-269 82.5,-269 82.5,-250 142.5,-250 142.5,-269"/>
<text text-anchor="middle" x="112.5" y="-257" font-family="Helvetica,sans-Serif" font-size="10.00">std::srand</text>
</a>
</g>
</g>
<!-- Node1&#45;&gt;Node4 -->
<g id="edge3" class="edge">
<title>Node1&#45;&gt;Node4</title>
<path fill="none" stroke="#63b8ff" d="M38.08,-229.81C48.98,-234.22 63.25,-239.99 76.3,-245.27"/>
<polygon fill="#63b8ff" stroke="#63b8ff" points="74.89,-248.47 85.47,-248.98 77.52,-241.98 74.89,-248.47"/>
</g>
<!-- Node5 -->
<g id="node5" class="node">
<title>Node5</title>
<g id="a_node5"><a xlink:href="../../d4/def/kohonen__som__topology_8cpp.html#a1440a7779ac56f47a3f355ce4a8c7da0" target="_top" xlink:title=" ">
<polygon fill="white" stroke="#666666" points="131.5,-232 93.5,-232 93.5,-213 131.5,-213 131.5,-232"/>
<text text-anchor="middle" x="112.5" y="-220" font-family="Helvetica,sans-Serif" font-size="10.00">test1</text>
</a>
</g>
</g>
<!-- Node1&#45;&gt;Node5 -->
<g id="edge4" class="edge">
<title>Node1&#45;&gt;Node5</title>
<path fill="none" stroke="#63b8ff" d="M38.08,-222.5C50.53,-222.5 67.36,-222.5 81.77,-222.5"/>
<polygon fill="#63b8ff" stroke="#63b8ff" points="81.63,-226 91.63,-222.5 81.63,-219 81.63,-226"/>
</g>
<!-- Node15 -->
<g id="node15" class="node">
<title>Node15</title>
<g id="a_node15"><a xlink:href="../../d4/def/kohonen__som__topology_8cpp.html#a0283886819c7c140a023582b7269e2d0" target="_top" xlink:title=" ">
<polygon fill="white" stroke="#666666" points="131.5,-195 93.5,-195 93.5,-176 131.5,-176 131.5,-195"/>
<text text-anchor="middle" x="112.5" y="-183" font-family="Helvetica,sans-Serif" font-size="10.00">test2</text>
</a>
</g>
</g>
<!-- Node1&#45;&gt;Node15 -->
<g id="edge16" class="edge">
<title>Node1&#45;&gt;Node15</title>
<path fill="none" stroke="#63b8ff" d="M38.08,-215.19C50.78,-210.05 68.03,-203.08 82.63,-197.18"/>
<polygon fill="#63b8ff" stroke="#63b8ff" points="83.79,-200.48 91.74,-193.49 81.16,-193.99 83.79,-200.48"/>
</g>
<!-- Node17 -->
<g id="node17" class="node">
<title>Node17</title>
<g id="a_node17"><a xlink:href="../../d4/def/kohonen__som__topology_8cpp.html#a6d0455dd5c30adda100e95f0423c786e" target="_top" xlink:title=" ">
<polygon fill="white" stroke="#666666" points="131.5,-158 93.5,-158 93.5,-139 131.5,-139 131.5,-158"/>
<text text-anchor="middle" x="112.5" y="-146" font-family="Helvetica,sans-Serif" font-size="10.00">test3</text>
</a>
</g>
</g>
<!-- Node1&#45;&gt;Node17 -->
<g id="edge23" class="edge">
<title>Node1&#45;&gt;Node17</title>
<path fill="none" stroke="#63b8ff" d="M27.97,-212.6C37.85,-200.78 55.64,-180.93 74,-167.5 76.85,-165.41 79.97,-163.43 83.15,-161.6"/>
<polygon fill="#63b8ff" stroke="#63b8ff" points="84.71,-164.73 91.92,-156.97 81.44,-158.54 84.71,-164.73"/>
</g>
<!-- Node19 -->
<g id="node19" class="node">
<title>Node19</title>
<g id="a_node19"><a target="_blank" xlink:href="http://en.cppreference.com/w/cpp/chrono/c/time.html#" xlink:title=" ">
<polygon fill="white" stroke="#666666" points="140,-121 85,-121 85,-102 140,-102 140,-121"/>
<text text-anchor="middle" x="112.5" y="-109" font-family="Helvetica,sans-Serif" font-size="10.00">std::time</text>
</a>
</g>
</g>
<!-- Node1&#45;&gt;Node19 -->
<g id="edge30" class="edge">
<title>Node1&#45;&gt;Node19</title>
<path fill="none" stroke="#63b8ff" d="M23.58,-212.69C30.67,-194.43 48.09,-154.86 74,-130.5 75.05,-129.52 76.15,-128.57 77.31,-127.66"/>
<polygon fill="#63b8ff" stroke="#63b8ff" points="79.05,-130.7 85.51,-122.3 75.22,-124.85 79.05,-130.7"/>
</g>
<!-- Node6 -->
<g id="node6" class="node">
<title>Node6</title>
<g id="a_node6"><a xlink:href="../../d9/d66/group__machine__learning.html#gaf5ce14f026d6d231bef29161bac2b485" target="_top" xlink:title=" ">
<polygon fill="white" stroke="#666666" points="400,-271 346,-271 346,-252 400,-252 400,-271"/>
<text text-anchor="middle" x="373" y="-259" font-family="Helvetica,sans-Serif" font-size="10.00">_random</text>
</a>
</g>
</g>
<!-- Node5&#45;&gt;Node6 -->
<g id="edge5" class="edge">
<title>Node5&#45;&gt;Node6</title>
<path fill="none" stroke="#63b8ff" d="M131.65,-230.39C138,-233.48 145.03,-237.3 151,-241.5 169,-254.16 166.55,-267.37 187,-275.5 235.49,-294.78 296.7,-284.05 335.11,-273.57"/>
<polygon fill="#63b8ff" stroke="#63b8ff" points="335.68,-277.05 344.33,-270.92 333.75,-270.32 335.68,-277.05"/>
</g>
<!-- Node8 -->
<g id="node8" class="node">
<title>Node8</title>
<g id="a_node8"><a target="_blank" xlink:href="http://en.cppreference.com/w/cpp/algorithm/max.html#" xlink:title=" ">
<polygon fill="white" stroke="#666666" points="261,-196 206,-196 206,-177 261,-177 261,-196"/>
<text text-anchor="middle" x="233.5" y="-184" font-family="Helvetica,sans-Serif" font-size="10.00">std::max</text>
</a>
</g>
</g>
<!-- Node5&#45;&gt;Node8 -->
<g id="edge7" class="edge">
<title>Node5&#45;&gt;Node8</title>
<path fill="none" stroke="#63b8ff" d="M131.83,-216.95C148.52,-211.9 173.69,-204.29 194.68,-197.94"/>
<polygon fill="#63b8ff" stroke="#63b8ff" points="195.52,-201.34 204.08,-195.1 193.49,-194.64 195.52,-201.34"/>
</g>
<!-- Node9 -->
<g id="node9" class="node">
<title>Node9</title>
<g id="a_node9"><a xlink:href="../../d9/d66/group__machine__learning.html#gabc90175770bf0d5853c466e14993a08c" target="_top" xlink:title=" ">
<polygon fill="white" stroke="#666666" points="272,-83 195,-83 195,-64 272,-64 272,-83"/>
<text text-anchor="middle" x="233.5" y="-71" font-family="Helvetica,sans-Serif" font-size="10.00">save_2d_data</text>
</a>
</g>
</g>
<!-- Node5&#45;&gt;Node9 -->
<g id="edge8" class="edge">
<title>Node5&#45;&gt;Node9</title>
<path fill="none" stroke="#63b8ff" d="M131.85,-217.14C138.67,-214.35 145.97,-210.27 151,-204.5 185.36,-165.09 151.62,-131 187,-92.5 187.84,-91.59 188.73,-90.71 189.66,-89.88"/>
<polygon fill="#63b8ff" stroke="#63b8ff" points="191.49,-92.88 197.73,-84.31 187.51,-87.12 191.49,-92.88"/>
</g>
<!-- Node14 -->
<g id="node14" class="node">
<title>Node14</title>
<g id="a_node14"><a xlink:href="../../d4/def/kohonen__som__topology_8cpp.html#a48efb079040c7aaa3a4917a0e486cba9" target="_top" xlink:title=" ">
<polygon fill="white" stroke="#666666" points="277.5,-347 189.5,-347 189.5,-328 277.5,-328 277.5,-347"/>
<text text-anchor="middle" x="233.5" y="-335" font-family="Helvetica,sans-Serif" font-size="10.00">test_2d_classes</text>
</a>
</g>
</g>
<!-- Node5&#45;&gt;Node14 -->
<g id="edge13" class="edge">
<title>Node5&#45;&gt;Node14</title>
<path fill="none" stroke="#63b8ff" d="M131.8,-228.95C138.45,-231.97 145.65,-236.12 151,-241.5 176.23,-266.87 161.98,-287.93 187,-313.5 189.99,-316.55 193.44,-319.3 197.09,-321.75"/>
<polygon fill="#63b8ff" stroke="#63b8ff" points="195.3,-324.76 205.7,-326.8 198.84,-318.72 195.3,-324.76"/>
</g>
<!-- Node7 -->
<g id="node7" class="node">
<title>Node7</title>
<g id="a_node7"><a target="_blank" xlink:href="http://en.cppreference.com/w/cpp/numeric/random/rand.html#" xlink:title=" ">
<polygon fill="white" stroke="#666666" points="521,-252 466,-252 466,-233 521,-233 521,-252"/>
<text text-anchor="middle" x="493.5" y="-240" font-family="Helvetica,sans-Serif" font-size="10.00">std::rand</text>
</a>
</g>
</g>
<!-- Node6&#45;&gt;Node7 -->
<g id="edge6" class="edge">
<title>Node6&#45;&gt;Node7</title>
<path fill="none" stroke="#63b8ff" d="M400.3,-257.28C416.3,-254.72 436.99,-251.4 454.72,-248.56"/>
<polygon fill="#63b8ff" stroke="#63b8ff" points="455.05,-252.05 464.37,-247.01 453.94,-245.14 455.05,-252.05"/>
</g>
<!-- Node10 -->
<g id="node10" class="node">
<title>Node10</title>
<g id="a_node10"><a target="_blank" xlink:href="http://en.cppreference.com/w/cpp/io/basic_ofstream/close.html#" xlink:title=" ">
<polygon fill="white" stroke="#666666" points="425,-130 321,-130 321,-111 425,-111 425,-130"/>
<text text-anchor="middle" x="373" y="-118" font-family="Helvetica,sans-Serif" font-size="10.00">std::ofstream::close</text>
</a>
</g>
</g>
<!-- Node9&#45;&gt;Node10 -->
<g id="edge9" class="edge">
<title>Node9&#45;&gt;Node10</title>
<path fill="none" stroke="#63b8ff" d="M261.59,-83.38C277.42,-89.09 297.79,-96.34 316,-102.5 320.46,-104.01 325.13,-105.56 329.79,-107.09"/>
<polygon fill="#63b8ff" stroke="#63b8ff" points="328.52,-110.35 339.11,-110.11 330.68,-103.69 328.52,-110.35"/>
</g>
<!-- Node11 -->
<g id="node11" class="node">
<title>Node11</title>
<g id="a_node11"><a target="_blank" xlink:href="http://en.cppreference.com/w/cpp/io/basic_ofstream/is_open.html#" xlink:title=" ">
<polygon fill="white" stroke="#666666" points="430,-93 316,-93 316,-74 430,-74 430,-93"/>
<text text-anchor="middle" x="373" y="-81" font-family="Helvetica,sans-Serif" font-size="10.00">std::ofstream::is_open</text>
</a>
</g>
</g>
<!-- Node9&#45;&gt;Node11 -->
<g id="edge10" class="edge">
<title>Node9&#45;&gt;Node11</title>
<path fill="none" stroke="#63b8ff" d="M272.44,-76.26C282.35,-76.98 293.34,-77.78 304.29,-78.58"/>
<polygon fill="#63b8ff" stroke="#63b8ff" points="303.91,-82.06 314.14,-79.29 304.42,-75.08 303.91,-82.06"/>
</g>
<!-- Node12 -->
<g id="node12" class="node">
<title>Node12</title>
<g id="a_node12"><a target="_blank" xlink:href="http://en.cppreference.com/w/cpp/io/basic_ofstream/open.html#" xlink:title=" ">
<polygon fill="white" stroke="#666666" points="423.5,-56 322.5,-56 322.5,-37 423.5,-37 423.5,-56"/>
<text text-anchor="middle" x="373" y="-44" font-family="Helvetica,sans-Serif" font-size="10.00">std::ofstream::open</text>
</a>
</g>
</g>
<!-- Node9&#45;&gt;Node12 -->
<g id="edge11" class="edge">
<title>Node9&#45;&gt;Node12</title>
<path fill="none" stroke="#63b8ff" d="M272.44,-66.05C284.42,-63.7 297.98,-61.03 311.15,-58.45"/>
<polygon fill="#63b8ff" stroke="#63b8ff" points="311.46,-61.96 320.59,-56.59 310.11,-55.09 311.46,-61.96"/>
</g>
<!-- Node13 -->
<g id="node13" class="node">
<title>Node13</title>
<g id="a_node13"><a target="_blank" xlink:href="http://en.cppreference.com/w/cpp/string/byte/strerror.html#" xlink:title=" ">
<polygon fill="white" stroke="#666666" points="406.5,-19 339.5,-19 339.5,0 406.5,0 406.5,-19"/>
<text text-anchor="middle" x="373" y="-7" font-family="Helvetica,sans-Serif" font-size="10.00">std::strerror</text>
</a>
</g>
</g>
<!-- Node9&#45;&gt;Node13 -->
<g id="edge12" class="edge">
<title>Node9&#45;&gt;Node13</title>
<path fill="none" stroke="#63b8ff" d="M249.94,-63.53C265.98,-53.48 292.03,-37.99 316,-27.5 319.99,-25.75 324.21,-24.09 328.46,-22.53"/>
<polygon fill="#63b8ff" stroke="#63b8ff" points="329.28,-25.95 337.58,-19.37 326.99,-19.34 329.28,-25.95"/>
</g>
<!-- Node14&#45;&gt;Node6 -->
<g id="edge14" class="edge">
<title>Node14&#45;&gt;Node6</title>
<path fill="none" stroke="#63b8ff" d="M253.6,-327.58C261.77,-323.3 271.38,-318.21 280,-313.5 301.94,-301.52 326.59,-287.56 344.85,-277.12"/>
<polygon fill="#63b8ff" stroke="#63b8ff" points="346.54,-280.19 353.47,-272.18 343.06,-274.11 346.54,-280.19"/>
</g>
<!-- Node14&#45;&gt;Node7 -->
<g id="edge15" class="edge">
<title>Node14&#45;&gt;Node7</title>
<path fill="none" stroke="#63b8ff" d="M277.97,-328.29C318.37,-318.93 379.69,-302.67 430,-280.5 443.66,-274.48 457.96,-265.98 469.42,-258.54"/>
<polygon fill="#63b8ff" stroke="#63b8ff" points="471.04,-261.66 477.42,-253.21 467.16,-255.84 471.04,-261.66"/>
</g>
<!-- Node15&#45;&gt;Node6 -->
<g id="edge17" class="edge">
<title>Node15&#45;&gt;Node6</title>
<path fill="none" stroke="#63b8ff" d="M131.79,-193.21C138.15,-196.28 145.15,-200.14 151,-204.5 169.65,-218.41 166.13,-232.23 187,-242.5 233.86,-265.56 295.37,-267.07 334.3,-265.05"/>
<polygon fill="#63b8ff" stroke="#63b8ff" points="334.35,-268.55 344.11,-264.42 333.91,-261.57 334.35,-268.55"/>
</g>
<!-- Node15&#45;&gt;Node8 -->
<g id="edge18" class="edge">
<title>Node15&#45;&gt;Node8</title>
<path fill="none" stroke="#63b8ff" d="M131.83,-185.65C148.37,-185.79 173.23,-186 194.1,-186.18"/>
<polygon fill="#63b8ff" stroke="#63b8ff" points="193.98,-189.68 204.01,-186.26 194.04,-182.68 193.98,-189.68"/>
</g>
<!-- Node15&#45;&gt;Node9 -->
<g id="edge19" class="edge">
<title>Node15&#45;&gt;Node9</title>
<path fill="none" stroke="#63b8ff" d="M131.84,-179.62C138.5,-176.78 145.69,-172.81 151,-167.5 177.14,-141.36 160.18,-117.96 187,-92.5 188.2,-91.36 189.48,-90.28 190.83,-89.26"/>
<polygon fill="#63b8ff" stroke="#63b8ff" points="192.38,-92.42 199.06,-84.19 188.71,-86.46 192.38,-92.42"/>
</g>
<!-- Node16 -->
<g id="node16" class="node">
<title>Node16</title>
<g id="a_node16"><a xlink:href="../../d4/def/kohonen__som__topology_8cpp.html#a1302662a56ebf67a21249270b017297e" target="_top" xlink:title=" ">
<polygon fill="white" stroke="#666666" points="280,-233 187,-233 187,-214 280,-214 280,-233"/>
<text text-anchor="middle" x="233.5" y="-221" font-family="Helvetica,sans-Serif" font-size="10.00">test_3d_classes1</text>
</a>
</g>
</g>
<!-- Node15&#45;&gt;Node16 -->
<g id="edge20" class="edge">
<title>Node15&#45;&gt;Node16</title>
<path fill="none" stroke="#63b8ff" d="M131.83,-191.35C147.46,-196.34 170.51,-203.7 190.61,-210.12"/>
<polygon fill="#63b8ff" stroke="#63b8ff" points="189.37,-213.4 199.96,-213.11 191.5,-206.73 189.37,-213.4"/>
</g>
<!-- Node16&#45;&gt;Node6 -->
<g id="edge21" class="edge">
<title>Node16&#45;&gt;Node6</title>
<path fill="none" stroke="#63b8ff" d="M270.63,-233.48C290.41,-238.95 314.88,-245.71 334.82,-251.22"/>
<polygon fill="#63b8ff" stroke="#63b8ff" points="333.64,-254.53 344.21,-253.82 335.51,-247.78 333.64,-254.53"/>
</g>
<!-- Node16&#45;&gt;Node7 -->
<g id="edge22" class="edge">
<title>Node16&#45;&gt;Node7</title>
<path fill="none" stroke="#63b8ff" d="M280.33,-226.87C329.88,-230.52 407.98,-236.28 454.32,-239.69"/>
<polygon fill="#63b8ff" stroke="#63b8ff" points="453.93,-243.17 464.16,-240.41 454.44,-236.19 453.93,-243.17"/>
</g>
<!-- Node17&#45;&gt;Node6 -->
<g id="edge24" class="edge">
<title>Node17&#45;&gt;Node6</title>
<path fill="none" stroke="#63b8ff" d="M131.84,-146.91C163.73,-144.93 230.71,-144.37 280,-168.5 314.52,-185.39 343.6,-220.58 359.35,-242.5"/>
<polygon fill="#63b8ff" stroke="#63b8ff" points="356.36,-244.33 364.93,-250.55 362.11,-240.34 356.36,-244.33"/>
</g>
<!-- Node17&#45;&gt;Node8 -->
<g id="edge25" class="edge">
<title>Node17&#45;&gt;Node8</title>
<path fill="none" stroke="#63b8ff" d="M131.83,-154.35C148.52,-159.68 173.69,-167.72 194.68,-174.42"/>
<polygon fill="#63b8ff" stroke="#63b8ff" points="193.49,-177.72 204.08,-177.43 195.62,-171.05 193.49,-177.72"/>
</g>
<!-- Node17&#45;&gt;Node9 -->
<g id="edge26" class="edge">
<title>Node17&#45;&gt;Node9</title>
<path fill="none" stroke="#63b8ff" d="M131.8,-141.33C138.17,-138.43 145.16,-134.75 151,-130.5 169.8,-116.79 167.85,-105.71 187,-92.5 189.06,-91.08 191.24,-89.73 193.5,-88.47"/>
<polygon fill="#63b8ff" stroke="#63b8ff" points="194.89,-91.68 202.28,-84.09 191.77,-85.42 194.89,-91.68"/>
</g>
<!-- Node18 -->
<g id="node18" class="node">
<title>Node18</title>
<g id="a_node18"><a xlink:href="../../d4/def/kohonen__som__topology_8cpp.html#a4b7ab643f6a5002f991837de46f70653" target="_top" xlink:title=" ">
<polygon fill="white" stroke="#666666" points="280,-120 187,-120 187,-101 280,-101 280,-120"/>
<text text-anchor="middle" x="233.5" y="-108" font-family="Helvetica,sans-Serif" font-size="10.00">test_3d_classes2</text>
</a>
</g>
</g>
<!-- Node17&#45;&gt;Node18 -->
<g id="edge27" class="edge">
<title>Node17&#45;&gt;Node18</title>
<path fill="none" stroke="#63b8ff" d="M131.83,-142.65C147.46,-137.66 170.51,-130.3 190.61,-123.88"/>
<polygon fill="#63b8ff" stroke="#63b8ff" points="191.5,-127.27 199.96,-120.89 189.37,-120.6 191.5,-127.27"/>
</g>
<!-- Node18&#45;&gt;Node6 -->
<g id="edge28" class="edge">
<title>Node18&#45;&gt;Node6</title>
<path fill="none" stroke="#63b8ff" d="M258.67,-120.35C266.04,-124.08 273.81,-128.82 280,-134.5 301.8,-154.5 298.82,-166.41 316,-190.5 329.04,-208.78 344.98,-228.79 356.52,-242.89"/>
<polygon fill="#63b8ff" stroke="#63b8ff" points="353.69,-244.96 362.75,-250.45 359.09,-240.51 353.69,-244.96"/>
</g>
<!-- Node18&#45;&gt;Node7 -->
<g id="edge29" class="edge">
<title>Node18&#45;&gt;Node7</title>
<path fill="none" stroke="#63b8ff" d="M253.89,-120.42C298.73,-143.36 409.82,-200.2 463.09,-227.45"/>
<polygon fill="#63b8ff" stroke="#63b8ff" points="461.39,-230.52 471.89,-231.95 464.58,-224.28 461.39,-230.52"/>
</g>
</g>
</svg>
