<?xml version="1.0" encoding="UTF-8" standalone="no"?>
<!DOCTYPE svg PUBLIC "-//W3C//DTD SVG 1.1//EN"
 "http://www.w3.org/Graphics/SVG/1.1/DTD/svg11.dtd">
<!-- Generated by graphviz version 8.0.4 (20230421.1958)
 -->
<!-- Title: main Pages: 1 -->
<!--zoomable 355 -->
<svg id="main" version="1.1" xmlns="http://www.w3.org/2000/svg" xmlns:xlink="http://www.w3.org/1999/xlink" xml:space="preserve" onload="init(evt)">
<style type="text/css"><![CDATA[
.edge:hover path { stroke: red; }
.edge:hover polygon { stroke: red; fill: red; }
]]></style>
<script type="text/javascript"><![CDATA[
var edges = document.getElementsByTagName('g');
if (edges && edges.length) {
  for (var i=0;i<edges.length;i++) {
    if (edges[i].id.substr(0,4)=='edge') {
      edges[i].setAttribute('class','edge');
    }
  }
}
]]></script>
        <defs>
                <circle id="rim" cx="0" cy="0" r="7"/>
                <circle id="rim2" cx="0" cy="0" r="3.5"/>
                <g id="zoomPlus">
                        <use xlink:href="#rim" fill="#404040">
                                <set attributeName="fill" to="#808080" begin="zoomplus.mouseover" end="zoomplus.mouseout"/>
                        </use>
                        <path d="M-4,0h8M0,-4v8" fill="none" stroke="white" stroke-width="1.5" pointer-events="none"/>
                </g>
                <g id="zoomMin">
                        <use xlink:href="#rim" fill="#404040">
                                <set attributeName="fill" to="#808080" begin="zoomminus.mouseover" end="zoomminus.mouseout"/>
                        </use>
                        <path d="M-4,0h8" fill="none" stroke="white" stroke-width="1.5" pointer-events="none"/>
                </g>
                <g id="dirArrow">
                        <path fill="none" stroke="white" stroke-width="1.5" d="M0,-3.0v7 M-2.5,-0.5L0,-3.0L2.5,-0.5"/>
                </g>
               <g id="resetDef">
                       <use xlink:href="#rim2" fill="#404040">
                               <set attributeName="fill" to="#808080" begin="reset.mouseover" end="reset.mouseout"/>
                       </use>
               </g>
        </defs>

<script type="text/javascript">
var viewWidth = 526;
var viewHeight = 355;
var sectionId = 'dynsection-1';
</script>
<script xlink:href="../../svgpan.js"/>
<svg id="graph" class="graph">
<g id="viewport">
<title>main</title>
<!-- Node1 -->
<g id="node1" class="node">
<title>Node1</title>
<g id="a_node1"><a xlink:title=" ">
<polygon fill="#999999" stroke="#666666" points="37,-232.25 0,-232.25 0,-213 37,-213 37,-232.25"/>
<text text-anchor="middle" x="18.5" y="-218.75" font-family="Helvetica,sans-Serif" font-size="10.00">main</text>
</a>
</g>
</g>
<!-- Node2 -->
<g id="node2" class="node">
<title>Node2</title>
<g id="a_node2"><a target="_blank" xlink:href="http://en.cppreference.com/w/cpp/chrono/c/clock.html#" xlink:title=" ">
<polygon fill="white" stroke="#666666" points="140.75,-343.25 82,-343.25 82,-324 140.75,-324 140.75,-343.25"/>
<text text-anchor="middle" x="111.38" y="-329.75" font-family="Helvetica,sans-Serif" font-size="10.00">std::clock</text>
</a>
</g>
</g>
<!-- Node1&#45;&gt;Node2 -->
<g id="edge1" class="edge">
<title>Node1&#45;&gt;Node2</title>
<path fill="none" stroke="#63b8ff" d="M22.95,-232.59C29.81,-251.14 46.8,-291.28 73,-315.62 73.72,-316.29 74.46,-316.93 75.23,-317.56"/>
<polygon fill="#63b8ff" stroke="#63b8ff" points="72.89,-320.88 83.15,-323.52 76.78,-315.05 72.89,-320.88"/>
</g>
<!-- Node3 -->
<g id="node3" class="node">
<title>Node3</title>
<g id="a_node3"><a xlink:href="../../d4/def/kohonen__som__topology_8cpp.html#a2256c10b16edba377b64a44b6c656908" target="_top" xlink:title=" ">
<polygon fill="white" stroke="#666666" points="149.75,-306.25 73,-306.25 73,-287 149.75,-287 149.75,-306.25"/>
<text text-anchor="middle" x="111.38" y="-292.75" font-family="Helvetica,sans-Serif" font-size="10.00">get_clock_diff</text>
</a>
</g>
</g>
<!-- Node1&#45;&gt;Node3 -->
<g id="edge2" class="edge">
<title>Node1&#45;&gt;Node3</title>
<path fill="none" stroke="#63b8ff" d="M26.96,-232.36C36.57,-244.42 54.29,-265.03 73,-278.62 74.27,-279.55 75.6,-280.45 76.97,-281.32"/>
<polygon fill="#63b8ff" stroke="#63b8ff" points="74.89,-284.73 85.31,-286.62 78.34,-278.64 74.89,-284.73"/>
</g>
<!-- Node4 -->
<g id="node4" class="node">
<title>Node4</title>
<g id="a_node4"><a target="_blank" xlink:href="http://en.cppreference.com/w/cpp/numeric/random/srand.html#" xlink:title=" ">
<polygon fill="white" stroke="#666666" points="141.12,-269.25 81.62,-269.25 81.62,-250 141.12,-250 141.12,-269.25"/>
<text text-anchor="middle" x="111.38" y="-255.75" font-family="Helvetica,sans-Serif" font-size="10.00">std::srand</text>
</a>
</g>
</g>
<!-- Node1&#45;&gt;Node4 -->
<g id="edge3" class="edge">
<title>Node1&#45;&gt;Node4</title>
<path fill="none" stroke="#63b8ff" d="M37.45,-229.94C48.31,-234.36 62.52,-240.14 75.51,-245.43"/>
<polygon fill="#63b8ff" stroke="#63b8ff" points="74,-249 84.58,-249.53 76.64,-242.52 74,-249"/>
</g>
<!-- Node5 -->
<g id="node5" class="node">
<title>Node5</title>
<g id="a_node5"><a xlink:href="../../d4/def/kohonen__som__topology_8cpp.html#a1440a7779ac56f47a3f355ce4a8c7da0" target="_top" xlink:title=" ">
<polygon fill="white" stroke="#666666" points="130.25,-232.25 92.5,-232.25 92.5,-213 130.25,-213 130.25,-232.25"/>
<text text-anchor="middle" x="111.38" y="-218.75" font-family="Helvetica,sans-Serif" font-size="10.00">test1</text>
</a>
</g>
</g>
<!-- Node1&#45;&gt;Node5 -->
<g id="edge4" class="edge">
<title>Node1&#45;&gt;Node5</title>
<path fill="none" stroke="#63b8ff" d="M37.45,-222.62C49.94,-222.62 66.87,-222.62 81.27,-222.62"/>
<polygon fill="#63b8ff" stroke="#63b8ff" points="81.15,-226.13 91.15,-222.62 81.15,-219.13 81.15,-226.13"/>
</g>
<!-- Node15 -->
<g id="node15" class="node">
<title>Node15</title>
<g id="a_node15"><a xlink:href="../../d4/def/kohonen__som__topology_8cpp.html#a0283886819c7c140a023582b7269e2d0" target="_top" xlink:title=" ">
<polygon fill="white" stroke="#666666" points="130.25,-195.25 92.5,-195.25 92.5,-176 130.25,-176 130.25,-195.25"/>
<text text-anchor="middle" x="111.38" y="-181.75" font-family="Helvetica,sans-Serif" font-size="10.00">test2</text>
</a>
</g>
</g>
<!-- Node1&#45;&gt;Node15 -->
<g id="edge16" class="edge">
<title>Node1&#45;&gt;Node15</title>
<path fill="none" stroke="#63b8ff" d="M37.45,-215.31C50.19,-210.13 67.54,-203.06 82.12,-197.13"/>
<polygon fill="#63b8ff" stroke="#63b8ff" points="83.21,-200.06 91.15,-193.05 80.57,-193.58 83.21,-200.06"/>
</g>
<!-- Node17 -->
<g id="node17" class="node">
<title>Node17</title>
<g id="a_node17"><a xlink:href="../../d4/def/kohonen__som__topology_8cpp.html#a6d0455dd5c30adda100e95f0423c786e" target="_top" xlink:title=" ">
<polygon fill="white" stroke="#666666" points="130.25,-158.25 92.5,-158.25 92.5,-139 130.25,-139 130.25,-158.25"/>
<text text-anchor="middle" x="111.38" y="-144.75" font-family="Helvetica,sans-Serif" font-size="10.00">test3</text>
</a>
</g>
</g>
<!-- Node1&#45;&gt;Node17 -->
<g id="edge23" class="edge">
<title>Node1&#45;&gt;Node17</title>
<path fill="none" stroke="#63b8ff" d="M26.96,-212.89C36.57,-200.83 54.29,-180.22 73,-166.62 75.91,-164.51 79.11,-162.53 82.38,-160.72"/>
<polygon fill="#63b8ff" stroke="#63b8ff" points="83.78,-163.43 91.14,-155.81 80.64,-157.18 83.78,-163.43"/>
</g>
<!-- Node19 -->
<g id="node19" class="node">
<title>Node19</title>
<g id="a_node19"><a target="_blank" xlink:href="http://en.cppreference.com/w/cpp/chrono/c/time.html#" xlink:title=" ">
<polygon fill="white" stroke="#666666" points="138.5,-121.25 84.25,-121.25 84.25,-102 138.5,-102 138.5,-121.25"/>
<text text-anchor="middle" x="111.38" y="-107.75" font-family="Helvetica,sans-Serif" font-size="10.00">std::time</text>
</a>
</g>
</g>
<!-- Node1&#45;&gt;Node19 -->
<g id="edge30" class="edge">
<title>Node1&#45;&gt;Node19</title>
<path fill="none" stroke="#63b8ff" d="M22.95,-212.66C29.81,-194.11 46.8,-153.97 73,-129.62 73.72,-128.96 74.46,-128.32 75.23,-127.69"/>
<polygon fill="#63b8ff" stroke="#63b8ff" points="76.78,-130.2 83.15,-121.73 72.89,-124.37 76.78,-130.2"/>
</g>
<!-- Node6 -->
<g id="node6" class="node">
<title>Node6</title>
<g id="a_node6"><a xlink:href="../../d9/d66/group__machine__learning.html#gaf5ce14f026d6d231bef29161bac2b485" target="_top" xlink:title=" ">
<polygon fill="white" stroke="#666666" points="397.75,-271.25 344.25,-271.25 344.25,-252 397.75,-252 397.75,-271.25"/>
<text text-anchor="middle" x="371" y="-257.75" font-family="Helvetica,sans-Serif" font-size="10.00">_random</text>
</a>
</g>
</g>
<!-- Node5&#45;&gt;Node6 -->
<g id="edge5" class="edge">
<title>Node5&#45;&gt;Node6</title>
<path fill="none" stroke="#63b8ff" d="M130.52,-229.93C136.85,-232.85 143.85,-236.5 149.75,-240.62 168.04,-253.41 165.07,-267.23 185.75,-275.62 234.11,-295.26 295.42,-284.28 333.69,-273.67"/>
<polygon fill="#63b8ff" stroke="#63b8ff" points="334.22,-276.87 342.84,-270.71 332.26,-270.15 334.22,-276.87"/>
</g>
<!-- Node8 -->
<g id="node8" class="node">
<title>Node8</title>
<g id="a_node8"><a target="_blank" xlink:href="http://en.cppreference.com/w/cpp/algorithm/max.html#" xlink:title=" ">
<polygon fill="white" stroke="#666666" points="259.12,-196.25 204.88,-196.25 204.88,-177 259.12,-177 259.12,-196.25"/>
<text text-anchor="middle" x="232" y="-182.75" font-family="Helvetica,sans-Serif" font-size="10.00">std::max</text>
</a>
</g>
</g>
<!-- Node5&#45;&gt;Node8 -->
<g id="edge7" class="edge">
<title>Node5&#45;&gt;Node8</title>
<path fill="none" stroke="#63b8ff" d="M130.65,-217.08C147.55,-211.95 173.17,-204.17 194.3,-197.76"/>
<polygon fill="#63b8ff" stroke="#63b8ff" points="195,-200.9 203.55,-194.65 192.97,-194.21 195,-200.9"/>
</g>
<!-- Node9 -->
<g id="node9" class="node">
<title>Node9</title>
<g id="a_node9"><a xlink:href="../../d9/d66/group__machine__learning.html#gabc90175770bf0d5853c466e14993a08c" target="_top" xlink:title=" ">
<polygon fill="white" stroke="#666666" points="270.38,-83.25 193.62,-83.25 193.62,-64 270.38,-64 270.38,-83.25"/>
<text text-anchor="middle" x="232" y="-69.75" font-family="Helvetica,sans-Serif" font-size="10.00">save_2d_data</text>
</a>
</g>
</g>
<!-- Node5&#45;&gt;Node9 -->
<g id="edge8" class="edge">
<title>Node5&#45;&gt;Node9</title>
<path fill="none" stroke="#63b8ff" d="M130.68,-217.26C137.48,-214.47 144.74,-210.39 149.75,-204.62 184.31,-164.83 149.81,-130.18 185.75,-91.62 186.31,-91.02 186.9,-90.44 187.5,-89.87"/>
<polygon fill="#63b8ff" stroke="#63b8ff" points="189.21,-92.24 195.3,-83.57 185.14,-86.55 189.21,-92.24"/>
</g>
<!-- Node14 -->
<g id="node14" class="node">
<title>Node14</title>
<g id="a_node14"><a xlink:href="../../d4/def/kohonen__som__topology_8cpp.html#a48efb079040c7aaa3a4917a0e486cba9" target="_top" xlink:title=" ">
<polygon fill="white" stroke="#666666" points="275.62,-347.25 188.38,-347.25 188.38,-328 275.62,-328 275.62,-347.25"/>
<text text-anchor="middle" x="232" y="-333.75" font-family="Helvetica,sans-Serif" font-size="10.00">test_2d_classes</text>
</a>
</g>
</g>
<!-- Node5&#45;&gt;Node14 -->
<g id="edge13" class="edge">
<title>Node5&#45;&gt;Node14</title>
<path fill="none" stroke="#63b8ff" d="M130.63,-228.55C137.26,-231.39 144.43,-235.35 149.75,-240.62 175.45,-266.09 160.55,-287.67 185.75,-313.62 188.89,-316.85 192.55,-319.75 196.41,-322.31"/>
<polygon fill="#63b8ff" stroke="#63b8ff" points="194.23,-325.67 204.63,-327.68 197.75,-319.62 194.23,-325.67"/>
</g>
<!-- Node7 -->
<g id="node7" class="node">
<title>Node7</title>
<g id="a_node7"><a target="_blank" xlink:href="http://en.cppreference.com/w/cpp/numeric/random/rand.html#" xlink:title=" ">
<polygon fill="white" stroke="#666666" points="518,-252.25 463.75,-252.25 463.75,-233 518,-233 518,-252.25"/>
<text text-anchor="middle" x="490.88" y="-238.75" font-family="Helvetica,sans-Serif" font-size="10.00">std::rand</text>
</a>
</g>
</g>
<!-- Node6&#45;&gt;Node7 -->
<g id="edge6" class="edge">
<title>Node6&#45;&gt;Node7</title>
<path fill="none" stroke="#63b8ff" d="M398.16,-257.41C414.15,-254.83 434.86,-251.49 452.55,-248.64"/>
<polygon fill="#63b8ff" stroke="#63b8ff" points="453.06,-251.94 462.38,-246.9 451.95,-245.03 453.06,-251.94"/>
</g>
<!-- Node10 -->
<g id="node10" class="node">
<title>Node10</title>
<g id="a_node10"><a target="_blank" xlink:href="http://en.cppreference.com/w/cpp/io/basic_ofstream/close.html#" xlink:title=" ">
<polygon fill="white" stroke="#666666" points="422.5,-130.25 319.5,-130.25 319.5,-111 422.5,-111 422.5,-130.25"/>
<text text-anchor="middle" x="371" y="-116.75" font-family="Helvetica,sans-Serif" font-size="10.00">std::ofstream::close</text>
</a>
</g>
</g>
<!-- Node9&#45;&gt;Node10 -->
<g id="edge9" class="edge">
<title>Node9&#45;&gt;Node10</title>
<path fill="none" stroke="#63b8ff" d="M260.38,-83.63C276.1,-89.32 296.24,-96.51 314.25,-102.62 318.7,-104.14 323.37,-105.69 328.02,-107.22"/>
<polygon fill="#63b8ff" stroke="#63b8ff" points="326.51,-110.74 337.1,-110.51 328.68,-104.08 326.51,-110.74"/>
</g>
<!-- Node11 -->
<g id="node11" class="node">
<title>Node11</title>
<g id="a_node11"><a target="_blank" xlink:href="http://en.cppreference.com/w/cpp/io/basic_ofstream/is_open.html#" xlink:title=" ">
<polygon fill="white" stroke="#666666" points="427.75,-93.25 314.25,-93.25 314.25,-74 427.75,-74 427.75,-93.25"/>
<text text-anchor="middle" x="371" y="-79.75" font-family="Helvetica,sans-Serif" font-size="10.00">std::ofstream::is_open</text>
</a>
</g>
</g>
<!-- Node9&#45;&gt;Node11 -->
<g id="edge10" class="edge">
<title>Node9&#45;&gt;Node11</title>
<path fill="none" stroke="#63b8ff" d="M270.8,-76.38C280.78,-77.11 291.85,-77.92 302.88,-78.73"/>
<polygon fill="#63b8ff" stroke="#63b8ff" points="302.62,-82.29 312.85,-79.53 303.13,-75.31 302.62,-82.29"/>
</g>
<!-- Node12 -->
<g id="node12" class="node">
<title>Node12</title>
<g id="a_node12"><a target="_blank" xlink:href="http://en.cppreference.com/w/cpp/io/basic_ofstream/open.html#" xlink:title=" ">
<polygon fill="white" stroke="#666666" points="421.38,-56.25 320.62,-56.25 320.62,-37 421.38,-37 421.38,-56.25"/>
<text text-anchor="middle" x="371" y="-42.75" font-family="Helvetica,sans-Serif" font-size="10.00">std::ofstream::open</text>
</a>
</g>
</g>
<!-- Node9&#45;&gt;Node12 -->
<g id="edge11" class="edge">
<title>Node9&#45;&gt;Node12</title>
<path fill="none" stroke="#63b8ff" d="M270.8,-66.18C282.86,-63.8 296.52,-61.11 309.77,-58.5"/>
<polygon fill="#63b8ff" stroke="#63b8ff" points="310.13,-61.8 319.26,-56.43 308.77,-54.93 310.13,-61.8"/>
</g>
<!-- Node13 -->
<g id="node13" class="node">
<title>Node13</title>
<g id="a_node13"><a target="_blank" xlink:href="http://en.cppreference.com/w/cpp/string/byte/strerror.html#" xlink:title=" ">
<polygon fill="white" stroke="#666666" points="404.12,-19.25 337.88,-19.25 337.88,0 404.12,0 404.12,-19.25"/>
<text text-anchor="middle" x="371" y="-5.75" font-family="Helvetica,sans-Serif" font-size="10.00">std::strerror</text>
</a>
</g>
</g>
<!-- Node9&#45;&gt;Node13 -->
<g id="edge12" class="edge">
<title>Node9&#45;&gt;Node13</title>
<path fill="none" stroke="#63b8ff" d="M248.39,-63.66C264.38,-53.61 290.35,-38.12 314.25,-27.62 318.39,-25.81 322.77,-24.08 327.19,-22.46"/>
<polygon fill="#63b8ff" stroke="#63b8ff" points="328.15,-25.49 336.45,-18.91 325.86,-18.87 328.15,-25.49"/>
</g>
<!-- Node14&#45;&gt;Node6 -->
<g id="edge14" class="edge">
<title>Node14&#45;&gt;Node6</title>
<path fill="none" stroke="#63b8ff" d="M252,-327.7C260.11,-323.42 269.67,-318.33 278.25,-313.62 300.19,-301.59 324.86,-287.58 343.09,-277.14"/>
<polygon fill="#63b8ff" stroke="#63b8ff" points="344.56,-279.75 351.49,-271.74 341.08,-273.68 344.56,-279.75"/>
</g>
<!-- Node14&#45;&gt;Node7 -->
<g id="edge15" class="edge">
<title>Node14&#45;&gt;Node7</title>
<path fill="none" stroke="#63b8ff" d="M275.93,-328.51C316.17,-319.17 377.5,-302.88 427.75,-280.62 441.48,-274.55 455.84,-265.93 467.29,-258.44"/>
<polygon fill="#63b8ff" stroke="#63b8ff" points="468.8,-260.97 475.15,-252.49 464.89,-255.16 468.8,-260.97"/>
</g>
<!-- Node15&#45;&gt;Node6 -->
<g id="edge17" class="edge">
<title>Node15&#45;&gt;Node6</title>
<path fill="none" stroke="#63b8ff" d="M130.65,-192.76C136.99,-195.66 143.96,-199.34 149.75,-203.62 168.71,-217.66 164.66,-232.07 185.75,-242.62 232.6,-266.07 294.44,-267.37 333.22,-265.22"/>
<polygon fill="#63b8ff" stroke="#63b8ff" points="333.25,-268.66 342.99,-264.49 332.78,-261.67 333.25,-268.66"/>
</g>
<!-- Node15&#45;&gt;Node8 -->
<g id="edge18" class="edge">
<title>Node15&#45;&gt;Node8</title>
<path fill="none" stroke="#63b8ff" d="M130.65,-185.78C147.4,-185.92 172.71,-186.13 193.72,-186.31"/>
<polygon fill="#63b8ff" stroke="#63b8ff" points="193.52,-189.82 203.55,-186.4 193.58,-182.82 193.52,-189.82"/>
</g>
<!-- Node15&#45;&gt;Node9 -->
<g id="edge19" class="edge">
<title>Node15&#45;&gt;Node9</title>
<path fill="none" stroke="#63b8ff" d="M130.67,-179.74C137.31,-176.91 144.47,-172.94 149.75,-167.62 176.09,-141.11 158.49,-117.2 185.75,-91.62 186.48,-90.94 187.24,-90.28 188.02,-89.65"/>
<polygon fill="#63b8ff" stroke="#63b8ff" points="189.67,-92.1 196.16,-83.73 185.86,-86.23 189.67,-92.1"/>
</g>
<!-- Node16 -->
<g id="node16" class="node">
<title>Node16</title>
<g id="a_node16"><a xlink:href="../../d4/def/kohonen__som__topology_8cpp.html#a1302662a56ebf67a21249270b017297e" target="_top" xlink:title=" ">
<polygon fill="white" stroke="#666666" points="278.25,-233.25 185.75,-233.25 185.75,-214 278.25,-214 278.25,-233.25"/>
<text text-anchor="middle" x="232" y="-219.75" font-family="Helvetica,sans-Serif" font-size="10.00">test_3d_classes1</text>
</a>
</g>
</g>
<!-- Node15&#45;&gt;Node16 -->
<g id="edge20" class="edge">
<title>Node15&#45;&gt;Node16</title>
<path fill="none" stroke="#63b8ff" d="M130.65,-191.48C146.19,-196.46 169.09,-203.79 189.09,-210.2"/>
<polygon fill="#63b8ff" stroke="#63b8ff" points="187.95,-213.83 198.54,-213.55 190.08,-207.16 187.95,-213.83"/>
</g>
<!-- Node16&#45;&gt;Node6 -->
<g id="edge21" class="edge">
<title>Node16&#45;&gt;Node6</title>
<path fill="none" stroke="#63b8ff" d="M269.35,-233.71C289.15,-239.2 313.58,-245.98 333.42,-251.48"/>
<polygon fill="#63b8ff" stroke="#63b8ff" points="332.33,-255.09 342.9,-254.39 334.2,-248.34 332.33,-255.09"/>
</g>
<!-- Node16&#45;&gt;Node7 -->
<g id="edge22" class="edge">
<title>Node16&#45;&gt;Node7</title>
<path fill="none" stroke="#63b8ff" d="M278.63,-227C328.31,-230.67 406.8,-236.48 452.82,-239.88"/>
<polygon fill="#63b8ff" stroke="#63b8ff" points="452.28,-243.43 462.51,-240.67 452.8,-236.45 452.28,-243.43"/>
</g>
<!-- Node17&#45;&gt;Node6 -->
<g id="edge24" class="edge">
<title>Node17&#45;&gt;Node6</title>
<path fill="none" stroke="#63b8ff" d="M130.41,-146.89C162.09,-144.65 229.06,-143.51 278.25,-167.62 313.21,-184.76 342.35,-220.85 357.88,-242.99"/>
<polygon fill="#63b8ff" stroke="#63b8ff" points="355.34,-244.49 363.86,-250.8 361.14,-240.56 355.34,-244.49"/>
</g>
<!-- Node17&#45;&gt;Node8 -->
<g id="edge25" class="edge">
<title>Node17&#45;&gt;Node8</title>
<path fill="none" stroke="#63b8ff" d="M130.65,-154.48C147.55,-159.89 173.17,-168.1 194.3,-174.87"/>
<polygon fill="#63b8ff" stroke="#63b8ff" points="192.96,-178.44 203.55,-178.15 195.1,-171.77 192.96,-178.44"/>
</g>
<!-- Node17&#45;&gt;Node9 -->
<g id="edge26" class="edge">
<title>Node17&#45;&gt;Node9</title>
<path fill="none" stroke="#63b8ff" d="M130.65,-141.49C136.99,-138.59 143.96,-134.91 149.75,-130.62 168.71,-116.59 166.31,-104.98 185.75,-91.62 187.28,-90.57 188.89,-89.57 190.54,-88.61"/>
<polygon fill="#63b8ff" stroke="#63b8ff" points="192.01,-91.28 199.35,-83.64 188.84,-85.04 192.01,-91.28"/>
</g>
<!-- Node18 -->
<g id="node18" class="node">
<title>Node18</title>
<g id="a_node18"><a xlink:href="../../d4/def/kohonen__som__topology_8cpp.html#a4b7ab643f6a5002f991837de46f70653" target="_top" xlink:title=" ">
<polygon fill="white" stroke="#666666" points="278.25,-120.25 185.75,-120.25 185.75,-101 278.25,-101 278.25,-120.25"/>
<text text-anchor="middle" x="232" y="-106.75" font-family="Helvetica,sans-Serif" font-size="10.00">test_3d_classes2</text>
</a>
</g>
</g>
<!-- Node17&#45;&gt;Node18 -->
<g id="edge27" class="edge">
<title>Node17&#45;&gt;Node18</title>
<path fill="none" stroke="#63b8ff" d="M130.65,-142.77C146.19,-137.79 169.09,-130.46 189.09,-124.05"/>
<polygon fill="#63b8ff" stroke="#63b8ff" points="190.08,-127.09 198.54,-120.7 187.95,-120.42 190.08,-127.09"/>
</g>
<!-- Node18&#45;&gt;Node6 -->
<g id="edge28" class="edge">
<title>Node18&#45;&gt;Node6</title>
<path fill="none" stroke="#63b8ff" d="M257.5,-120.74C264.69,-124.43 272.23,-129.09 278.25,-134.62 300.03,-154.65 297.09,-166.52 314.25,-190.62 327.37,-209.06 343.42,-229.28 354.93,-243.42"/>
<polygon fill="#63b8ff" stroke="#63b8ff" points="352.71,-245.23 361.76,-250.74 358.12,-240.79 352.71,-245.23"/>
</g>
<!-- Node18&#45;&gt;Node7 -->
<g id="edge29" class="edge">
<title>Node18&#45;&gt;Node7</title>
<path fill="none" stroke="#63b8ff" d="M252.31,-120.55C297.03,-143.53 407.93,-200.52 460.87,-227.72"/>
<polygon fill="#63b8ff" stroke="#63b8ff" points="458.85,-231.13 469.34,-232.59 462.05,-224.9 458.85,-231.13"/>
</g>
</g>
</svg>
        <g id="navigator" transform="translate(0 0)" fill="#404254">
                <rect fill="#f2f5e9" fill-opacity="0.5" stroke="#606060" stroke-width=".5" x="0" y="0" width="60" height="60"/>
                <use id="zoomplus" xlink:href="#zoomPlus" x="17" y="9" onmousedown="handleZoom(evt,'in')"/>
                <use id="zoomminus" xlink:href="#zoomMin" x="42" y="9" onmousedown="handleZoom(evt,'out')"/>
                <use id="reset" xlink:href="#resetDef" x="30" y="36" onmousedown="handleReset()"/>
                <g id="arrowUp" xlink:href="#dirArrow" transform="translate(30 24)" onmousedown="handlePan(0,-1)">
                  <use xlink:href="#rim" fill="#404040">
                        <set attributeName="fill" to="#808080" begin="arrowUp.mouseover" end="arrowUp.mouseout"/>
                  </use>
                  <path fill="none" stroke="white" stroke-width="1.5" d="M0,-3.0v7 M-2.5,-0.5L0,-3.0L2.5,-0.5"/>
                </g>
                <g id="arrowRight" xlink:href="#dirArrow" transform="rotate(90) translate(36 -43)" onmousedown="handlePan(1,0)">
                  <use xlink:href="#rim" fill="#404040">
                        <set attributeName="fill" to="#808080" begin="arrowRight.mouseover" end="arrowRight.mouseout"/>
                  </use>
                  <path fill="none" stroke="white" stroke-width="1.5" d="M0,-3.0v7 M-2.5,-0.5L0,-3.0L2.5,-0.5"/>
                </g>
                <g id="arrowDown" xlink:href="#dirArrow" transform="rotate(180) translate(-30 -48)" onmousedown="handlePan(0,1)">
                  <use xlink:href="#rim" fill="#404040">
                        <set attributeName="fill" to="#808080" begin="arrowDown.mouseover" end="arrowDown.mouseout"/>
                  </use>
                  <path fill="none" stroke="white" stroke-width="1.5" d="M0,-3.0v7 M-2.5,-0.5L0,-3.0L2.5,-0.5"/>
                </g>
                <g id="arrowLeft" xlink:href="#dirArrow" transform="rotate(270) translate(-36 17)" onmousedown="handlePan(-1,0)">
                  <use xlink:href="#rim" fill="#404040">
                        <set attributeName="fill" to="#808080" begin="arrowLeft.mouseover" end="arrowLeft.mouseout"/>
                  </use>
                  <path fill="none" stroke="white" stroke-width="1.5" d="M0,-3.0v7 M-2.5,-0.5L0,-3.0L2.5,-0.5"/>
                </g>
        </g>
        <svg viewBox="0 0 15 15" width="100%" height="30px" preserveAspectRatio="xMaxYMin meet">
         <g id="arrow_out" transform="scale(0.3 0.3)">
          <a xlink:href="kohonen__som__topology_8cpp_a3c04138a5bfe5d72780bb7e82a18e627_cgraph_org.svg" target="_base">
           <rect id="button" ry="5" rx="5" y="6" x="6" height="38" width="38"
                fill="#f2f5e9" fill-opacity="0.5" stroke="#606060" stroke-width="1.0"/>
           <path id="arrow"
             d="M 11.500037,31.436501 C 11.940474,20.09759 22.043105,11.32322 32.158766,21.979434 L 37.068811,17.246167 C 37.068811,17.246167 37.088388,32 37.088388,32 L 22.160133,31.978069 C 22.160133,31.978069 26.997745,27.140456 26.997745,27.140456 C 18.528582,18.264221 13.291696,25.230495 11.500037,31.436501 z"
             style="fill:#404040;"/>
          </a>
         </g>
        </svg>
</svg>
