<?xml version="1.0" encoding="UTF-8" standalone="no"?>
<!DOCTYPE svg PUBLIC "-//W3C//DTD SVG 1.1//EN"
 "http://www.w3.org/Graphics/SVG/1.1/DTD/svg11.dtd">
<!-- Generated by graphviz version 2.44.0 (20200408.0750)
 -->
<!-- Title: test_3d_classes2 Pages: 1 -->
<svg width="192pt" height="66pt"
 viewBox="0.00 0.00 192.00 66.00" xmlns="http://www.w3.org/2000/svg" xmlns:xlink="http://www.w3.org/1999/xlink">
<g id="graph0" class="graph" transform="scale(1 1) rotate(0) translate(4 62)">
<title>test_3d_classes2</title>
<polygon fill="white" stroke="transparent" points="-4,4 -4,-62 188,-62 188,4 -4,4"/>
<!-- Node1 -->
<g id="node1" class="node">
<title>Node1</title>
<g id="a_node1"><a xlink:title=" ">
<polygon fill="#bfbfbf" stroke="black" points="0,-19.5 0,-38.5 93,-38.5 93,-19.5 0,-19.5"/>
<text text-anchor="middle" x="46.5" y="-26.5" font-family="Helvetica,sans-Serif" font-size="10.00">test_3d_classes2</text>
</a>
</g>
</g>
<!-- Node2 -->
<g id="node2" class="node">
<title>Node2</title>
<g id="a_node2"><a xlink:href="../../d9/d66/group__machine__learning.html#gaf5ce14f026d6d231bef29161bac2b485" target="_top" xlink:title=" ">
<polygon fill="white" stroke="black" points="129.5,-38.5 129.5,-57.5 183.5,-57.5 183.5,-38.5 129.5,-38.5"/>
<text text-anchor="middle" x="156.5" y="-45.5" font-family="Helvetica,sans-Serif" font-size="10.00">_random</text>
</a>
</g>
</g>
<!-- Node1&#45;&gt;Node2 -->
<g id="edge1" class="edge">
<title>Node1&#45;&gt;Node2</title>
<path fill="none" stroke="midnightblue" d="M93.3,-37.06C101.95,-38.58 110.89,-40.15 119.2,-41.61"/>
<polygon fill="midnightblue" stroke="midnightblue" points="118.86,-45.11 129.32,-43.39 120.08,-38.21 118.86,-45.11"/>
</g>
<!-- Node3 -->
<g id="node3" class="node">
<title>Node3</title>
<g id="a_node3"><a target="_blank" xlink:href="http://en.cppreference.com/w/cpp/numeric/random/rand.html#" xlink:title=" ">
<polygon fill="white" stroke="black" points="129,-0.5 129,-19.5 184,-19.5 184,-0.5 129,-0.5"/>
<text text-anchor="middle" x="156.5" y="-7.5" font-family="Helvetica,sans-Serif" font-size="10.00">std::rand</text>
</a>
</g>
</g>
<!-- Node1&#45;&gt;Node3 -->
<g id="edge2" class="edge">
<title>Node1&#45;&gt;Node3</title>
<path fill="none" stroke="midnightblue" d="M93.3,-20.94C101.79,-19.45 110.56,-17.91 118.73,-16.47"/>
<polygon fill="midnightblue" stroke="midnightblue" points="119.47,-19.89 128.71,-14.71 118.25,-13 119.47,-19.89"/>
</g>
</g>
</svg>
