<?xml version="1.0" encoding="UTF-8" standalone="no"?>
<!DOCTYPE svg PUBLIC "-//W3C//DTD SVG 1.1//EN"
 "http://www.w3.org/Graphics/SVG/1.1/DTD/svg11.dtd">
<!-- Generated by graphviz version 2.49.3 (20211023.0002)
 -->
<!-- Title: test1 Pages: 1 -->
<!--zoomable 475 -->
<svg id="main" version="1.1" xmlns="http://www.w3.org/2000/svg" xmlns:xlink="http://www.w3.org/1999/xlink" xml:space="preserve" onload="init(evt)">
<style type="text/css"><![CDATA[
.edge:hover path { stroke: red; }
.edge:hover polygon { stroke: red; fill: red; }
]]></style>
<script type="text/javascript"><![CDATA[
var edges = document.getElementsByTagName('g');
if (edges && edges.length) {
  for (var i=0;i<edges.length;i++) {
    if (edges[i].id.substr(0,4)=='edge') {
      edges[i].setAttribute('class','edge');
    }
  }
}
]]></script>
        <defs>
                <circle id="rim" cx="0" cy="0" r="7"/>
                <circle id="rim2" cx="0" cy="0" r="3.5"/>
                <g id="zoomPlus">
                        <use xlink:href="#rim" fill="#404040">
                                <set attributeName="fill" to="#808080" begin="zoomplus.mouseover" end="zoomplus.mouseout"/>
                        </use>
                        <path d="M-4,0h8M0,-4v8" fill="none" stroke="white" stroke-width="1.5" pointer-events="none"/>
                </g>
                <g id="zoomMin">
                        <use xlink:href="#rim" fill="#404040">
                                <set attributeName="fill" to="#808080" begin="zoomminus.mouseover" end="zoomminus.mouseout"/>
                        </use>
                        <path d="M-4,0h8" fill="none" stroke="white" stroke-width="1.5" pointer-events="none"/>
                </g>
                <g id="dirArrow">
                        <path fill="none" stroke="white" stroke-width="1.5" d="M0,-3.0v7 M-2.5,-0.5L0,-3.0L2.5,-0.5"/>
                </g>
               <g id="resetDef">
                       <use xlink:href="#rim2" fill="#404040">
                               <set attributeName="fill" to="#808080" begin="reset.mouseover" end="reset.mouseout"/>
                       </use>
               </g>
        </defs>

<script type="text/javascript">
var viewWidth = 699;
var viewHeight = 475;
var sectionId = 'dynsection-2';
</script>
<script xlink:href="../../svgpan.js"/>
<svg id="graph" class="graph">
<g id="viewport">
<title>test1</title>
<polygon fill="white" stroke="transparent" points="-4,4 -4,-471.07 695,-471.07 695,4 -4,4"/>
<!-- Node1 -->
<g id="node1" class="node">
<title>Node1</title>
<g id="a_node1"><a xlink:title=" ">
<polygon fill="#bfbfbf" stroke="black" points="0,-140.57 0,-159.57 38,-159.57 38,-140.57 0,-140.57"/>
<text text-anchor="middle" x="19" y="-147.57" font-family="Helvetica,sans-Serif" font-size="10.00">test1</text>
</a>
</g>
</g>
<!-- Node2 -->
<g id="node2" class="node">
<title>Node2</title>
<g id="a_node2"><a xlink:href="../../d9/d66/group__machine__learning.html#gaf5ce14f026d6d231bef29161bac2b485" target="_top" xlink:title=" ">
<polygon fill="white" stroke="black" points="312,-7.57 312,-26.57 368,-26.57 368,-7.57 312,-7.57"/>
<text text-anchor="middle" x="340" y="-14.57" font-family="Helvetica,sans-Serif" font-size="10.00">_random</text>
</a>
</g>
</g>
<!-- Node1&#45;&gt;Node2 -->
<g id="edge1" class="edge">
<title>Node1&#45;&gt;Node2</title>
<path fill="none" stroke="midnightblue" d="M21.32,-140.33C24.98,-117.59 37.49,-61.05 74,-36.07 142.85,11.03 246.67,1.07 301.69,-8.84"/>
<polygon fill="midnightblue" stroke="midnightblue" points="301.22,-12.32 311.7,-10.74 302.53,-5.44 301.22,-12.32"/>
</g>
<!-- Node4 -->
<g id="node4" class="node">
<title>Node4</title>
<g id="a_node4"><a xlink:href="../../d8/d77/namespacemachine__learning.html#ac43d294e21a0c4fa33c53757df054576" target="_top" xlink:title=" ">
<polygon fill="white" stroke="black" points="74,-314.57 74,-333.57 238,-333.57 238,-314.57 74,-314.57"/>
<text text-anchor="middle" x="156" y="-321.57" font-family="Helvetica,sans-Serif" font-size="10.00">machine_learning::kohonen_som</text>
</a>
</g>
</g>
<!-- Node1&#45;&gt;Node4 -->
<g id="edge3" class="edge">
<title>Node1&#45;&gt;Node4</title>
<path fill="none" stroke="midnightblue" d="M20.74,-159.86C23.23,-185.96 33.61,-257.88 74,-297.07 79.69,-302.59 86.53,-306.98 93.79,-310.47"/>
<polygon fill="midnightblue" stroke="midnightblue" points="92.6,-313.76 103.17,-314.43 95.32,-307.31 92.6,-313.76"/>
</g>
<!-- Node12 -->
<g id="node12" class="node">
<title>Node12</title>
<g id="a_node12"><a target="_blank" xlink:href="http://en.cppreference.com/w/cpp/algorithm/max.html#" xlink:title=" ">
<polygon fill="white" stroke="black" points="475,-257.57 475,-276.57 529,-276.57 529,-257.57 475,-257.57"/>
<text text-anchor="middle" x="502" y="-264.57" font-family="Helvetica,sans-Serif" font-size="10.00">std::max</text>
</a>
</g>
</g>
<!-- Node1&#45;&gt;Node12 -->
<g id="edge15" class="edge">
<title>Node1&#45;&gt;Node12</title>
<path fill="none" stroke="midnightblue" d="M30.5,-159.58C40.93,-168.63 57.68,-182.16 74,-191.07 157.06,-236.41 180.93,-246.98 274,-264.07 340.39,-276.26 419.55,-273.48 464.68,-270.31"/>
<polygon fill="midnightblue" stroke="midnightblue" points="465.14,-273.78 474.85,-269.55 464.62,-266.8 465.14,-273.78"/>
</g>
<!-- Node16 -->
<g id="node16" class="node">
<title>Node16</title>
<g id="a_node16"><a xlink:href="../../d9/d66/group__machine__learning.html#gabc90175770bf0d5853c466e14993a08c" target="_top" xlink:title=" ">
<polygon fill="white" stroke="black" points="116.5,-162.57 116.5,-181.57 195.5,-181.57 195.5,-162.57 116.5,-162.57"/>
<text text-anchor="middle" x="156" y="-169.57" font-family="Helvetica,sans-Serif" font-size="10.00">save_2d_data</text>
</a>
</g>
</g>
<!-- Node1&#45;&gt;Node16 -->
<g id="edge16" class="edge">
<title>Node1&#45;&gt;Node16</title>
<path fill="none" stroke="midnightblue" d="M38.21,-153.04C55.65,-155.88 82.75,-160.3 106.46,-164.16"/>
<polygon fill="midnightblue" stroke="midnightblue" points="105.94,-167.62 116.37,-165.78 107.07,-160.71 105.94,-167.62"/>
</g>
<!-- Node21 -->
<g id="node21" class="node">
<title>Node21</title>
<g id="a_node21"><a xlink:href="../../d8/d77/namespacemachine__learning.html#aa72a53c88203fde278f1fe6c3afe5b07" target="_top" xlink:title=" ">
<polygon fill="white" stroke="black" points="95,-113.07 95,-143.07 217,-143.07 217,-113.07 95,-113.07"/>
<text text-anchor="start" x="103" y="-131.07" font-family="Helvetica,sans-Serif" font-size="10.00">machine_learning::save</text>
<text text-anchor="middle" x="156" y="-120.07" font-family="Helvetica,sans-Serif" font-size="10.00">_u_matrix</text>
</a>
</g>
</g>
<!-- Node1&#45;&gt;Node21 -->
<g id="edge21" class="edge">
<title>Node1&#45;&gt;Node21</title>
<path fill="none" stroke="midnightblue" d="M38.21,-147.1C50.48,-145.1 67.53,-142.32 84.82,-139.51"/>
<polygon fill="midnightblue" stroke="midnightblue" points="85.69,-142.91 94.99,-137.85 84.56,-136 85.69,-142.91"/>
</g>
<!-- Node23 -->
<g id="node23" class="node">
<title>Node23</title>
<g id="a_node23"><a xlink:href="../../d4/def/kohonen__som__topology_8cpp.html#a48efb079040c7aaa3a4917a0e486cba9" target="_top" xlink:title=" ">
<polygon fill="white" stroke="black" points="112,-45.57 112,-64.57 200,-64.57 200,-45.57 112,-45.57"/>
<text text-anchor="middle" x="156" y="-52.57" font-family="Helvetica,sans-Serif" font-size="10.00">test_2d_classes</text>
</a>
</g>
</g>
<!-- Node1&#45;&gt;Node23 -->
<g id="edge24" class="edge">
<title>Node1&#45;&gt;Node23</title>
<path fill="none" stroke="midnightblue" d="M30.34,-140.38C40.92,-130.68 58.02,-115.6 74,-104.07 91.5,-91.45 112.34,-78.89 128.5,-69.65"/>
<polygon fill="midnightblue" stroke="midnightblue" points="130.43,-72.58 137.42,-64.62 126.99,-66.49 130.43,-72.58"/>
</g>
<!-- Node3 -->
<g id="node3" class="node">
<title>Node3</title>
<g id="a_node3"><a target="_blank" xlink:href="http://en.cppreference.com/w/cpp/numeric/random/rand.html#" xlink:title=" ">
<polygon fill="white" stroke="black" points="474.5,-26.57 474.5,-45.57 529.5,-45.57 529.5,-26.57 474.5,-26.57"/>
<text text-anchor="middle" x="502" y="-33.57" font-family="Helvetica,sans-Serif" font-size="10.00">std::rand</text>
</a>
</g>
</g>
<!-- Node2&#45;&gt;Node3 -->
<g id="edge2" class="edge">
<title>Node2&#45;&gt;Node3</title>
<path fill="none" stroke="midnightblue" d="M368.14,-20.29C394.5,-23.42 434.73,-28.2 464.01,-31.68"/>
<polygon fill="midnightblue" stroke="midnightblue" points="463.92,-35.19 474.26,-32.9 464.74,-28.24 463.92,-35.19"/>
</g>
<!-- Node5 -->
<g id="node5" class="node">
<title>Node5</title>
<g id="a_node5"><a xlink:href="../../d8/d77/namespacemachine__learning.html#ae868ad43698a1d69ba46ea3827d7d2c3" target="_top" xlink:title=" ">
<polygon fill="white" stroke="black" points="274,-328.07 274,-358.07 406,-358.07 406,-328.07 274,-328.07"/>
<text text-anchor="start" x="282" y="-346.07" font-family="Helvetica,sans-Serif" font-size="10.00">machine_learning::update</text>
<text text-anchor="middle" x="340" y="-335.07" font-family="Helvetica,sans-Serif" font-size="10.00">_weights</text>
</a>
</g>
</g>
<!-- Node4&#45;&gt;Node5 -->
<g id="edge4" class="edge">
<title>Node4&#45;&gt;Node5</title>
<path fill="none" stroke="midnightblue" d="M238.15,-332.54C246.64,-333.43 255.25,-334.33 263.67,-335.21"/>
<polygon fill="midnightblue" stroke="midnightblue" points="263.53,-338.71 273.83,-336.27 264.25,-331.75 263.53,-338.71"/>
</g>
<!-- Node6 -->
<g id="node6" class="node">
<title>Node6</title>
<g id="a_node6"><a target="_blank" xlink:href="http://en.cppreference.com/w/cpp/numeric/math/exp.html#" xlink:title=" ">
<polygon fill="white" stroke="black" points="476,-371.57 476,-390.57 528,-390.57 528,-371.57 476,-371.57"/>
<text text-anchor="middle" x="502" y="-378.57" font-family="Helvetica,sans-Serif" font-size="10.00">std::exp</text>
</a>
</g>
</g>
<!-- Node5&#45;&gt;Node6 -->
<g id="edge5" class="edge">
<title>Node5&#45;&gt;Node6</title>
<path fill="none" stroke="midnightblue" d="M404.24,-358.09C425.22,-363.07 447.81,-368.44 465.88,-372.73"/>
<polygon fill="midnightblue" stroke="midnightblue" points="465.15,-376.15 475.69,-375.06 466.77,-369.34 465.15,-376.15"/>
</g>
<!-- Node7 -->
<g id="node7" class="node">
<title>Node7</title>
<g id="a_node7"><a xlink:href="../../d9/d66/group__machine__learning.html#ga60f9186ccb682724a8792a2bf81e9b9e" target="_top" xlink:title=" ">
<polygon fill="white" stroke="black" points="467.5,-333.57 467.5,-352.57 536.5,-352.57 536.5,-333.57 467.5,-333.57"/>
<text text-anchor="middle" x="502" y="-340.57" font-family="Helvetica,sans-Serif" font-size="10.00">get_min_2d</text>
</a>
</g>
</g>
<!-- Node5&#45;&gt;Node7 -->
<g id="edge6" class="edge">
<title>Node5&#45;&gt;Node7</title>
<path fill="none" stroke="midnightblue" d="M406.08,-343.07C423.09,-343.07 441.03,-343.07 456.69,-343.07"/>
<polygon fill="midnightblue" stroke="midnightblue" points="457.12,-346.57 467.12,-343.07 457.12,-339.57 457.12,-346.57"/>
</g>
<!-- Node5&#45;&gt;Node12 -->
<g id="edge11" class="edge">
<title>Node5&#45;&gt;Node12</title>
<path fill="none" stroke="midnightblue" d="M364.78,-327.83C384.81,-315.44 414.52,-298.1 442,-286.07 449.35,-282.85 457.42,-279.9 465.17,-277.33"/>
<polygon fill="midnightblue" stroke="midnightblue" points="466.26,-280.65 474.73,-274.28 464.14,-273.98 466.26,-280.65"/>
</g>
<!-- Node13 -->
<g id="node13" class="node">
<title>Node13</title>
<g id="a_node13"><a target="_blank" xlink:href="http://en.cppreference.com/w/cpp/algorithm/min.html#" xlink:title=" ">
<polygon fill="white" stroke="black" points="476,-295.57 476,-314.57 528,-314.57 528,-295.57 476,-295.57"/>
<text text-anchor="middle" x="502" y="-302.57" font-family="Helvetica,sans-Serif" font-size="10.00">std::min</text>
</a>
</g>
</g>
<!-- Node5&#45;&gt;Node13 -->
<g id="edge12" class="edge">
<title>Node5&#45;&gt;Node13</title>
<path fill="none" stroke="midnightblue" d="M404.24,-328.05C425.22,-323.07 447.81,-317.7 465.88,-313.41"/>
<polygon fill="midnightblue" stroke="midnightblue" points="466.77,-316.8 475.69,-311.08 465.15,-309.99 466.77,-316.8"/>
</g>
<!-- Node14 -->
<g id="node14" class="node">
<title>Node14</title>
<g id="a_node14"><a target="_blank" xlink:href="http://en.cppreference.com/w/cpp/numeric/math/sqrt.html#" xlink:title=" ">
<polygon fill="white" stroke="black" points="476,-447.57 476,-466.57 528,-466.57 528,-447.57 476,-447.57"/>
<text text-anchor="middle" x="502" y="-454.57" font-family="Helvetica,sans-Serif" font-size="10.00">std::sqrt</text>
</a>
</g>
</g>
<!-- Node5&#45;&gt;Node14 -->
<g id="edge13" class="edge">
<title>Node5&#45;&gt;Node14</title>
<path fill="none" stroke="midnightblue" d="M353.14,-358.09C370.68,-378.87 405.1,-416.29 442,-438.07 449.38,-442.43 457.88,-445.91 466.08,-448.64"/>
<polygon fill="midnightblue" stroke="midnightblue" points="465.26,-452.05 475.85,-451.61 467.3,-445.36 465.26,-452.05"/>
</g>
<!-- Node15 -->
<g id="node15" class="node">
<title>Node15</title>
<g id="a_node15"><a xlink:href="../../d8/d77/namespacemachine__learning.html#a6f1c98c016ad34ff3d9f39372161bd35" target="_top" xlink:title=" ">
<polygon fill="white" stroke="black" points="442,-409.57 442,-428.57 562,-428.57 562,-409.57 442,-409.57"/>
<text text-anchor="middle" x="502" y="-416.57" font-family="Helvetica,sans-Serif" font-size="10.00">machine_learning::sum</text>
</a>
</g>
</g>
<!-- Node5&#45;&gt;Node15 -->
<g id="edge14" class="edge">
<title>Node5&#45;&gt;Node15</title>
<path fill="none" stroke="midnightblue" d="M364.78,-358.31C384.81,-370.7 414.52,-388.04 442,-400.07 446.99,-402.26 452.31,-404.32 457.64,-406.22"/>
<polygon fill="midnightblue" stroke="midnightblue" points="456.58,-409.56 467.18,-409.47 458.84,-402.93 456.58,-409.56"/>
</g>
<!-- Node8 -->
<g id="node8" class="node">
<title>Node8</title>
<g id="a_node8"><a target="_blank" xlink:href="http://en.cppreference.com/w/cpp/iterator/begin.html#" xlink:title=" ">
<polygon fill="white" stroke="black" points="614.5,-390.57 614.5,-409.57 674.5,-409.57 674.5,-390.57 614.5,-390.57"/>
<text text-anchor="middle" x="644.5" y="-397.57" font-family="Helvetica,sans-Serif" font-size="10.00">std::begin</text>
</a>
</g>
</g>
<!-- Node7&#45;&gt;Node8 -->
<g id="edge7" class="edge">
<title>Node7&#45;&gt;Node8</title>
<path fill="none" stroke="midnightblue" d="M536.14,-352.62C544.67,-355.39 553.77,-358.6 562,-362.07 578.67,-369.09 581.64,-373.35 598,-381.07 601.83,-382.88 605.88,-384.7 609.93,-386.45"/>
<polygon fill="midnightblue" stroke="midnightblue" points="608.66,-389.72 619.24,-390.41 611.4,-383.28 608.66,-389.72"/>
</g>
<!-- Node9 -->
<g id="node9" class="node">
<title>Node9</title>
<g id="a_node9"><a target="_blank" xlink:href="http://en.cppreference.com/w/cpp/iterator/distance.html#" xlink:title=" ">
<polygon fill="white" stroke="black" points="608,-352.57 608,-371.57 681,-371.57 681,-352.57 608,-352.57"/>
<text text-anchor="middle" x="644.5" y="-359.57" font-family="Helvetica,sans-Serif" font-size="10.00">std::distance</text>
</a>
</g>
</g>
<!-- Node7&#45;&gt;Node9 -->
<g id="edge8" class="edge">
<title>Node7&#45;&gt;Node9</title>
<path fill="none" stroke="midnightblue" d="M536.65,-347.62C554.9,-350.09 577.73,-353.18 597.59,-355.86"/>
<polygon fill="midnightblue" stroke="midnightblue" points="597.29,-359.35 607.67,-357.22 598.22,-352.42 597.29,-359.35"/>
</g>
<!-- Node10 -->
<g id="node10" class="node">
<title>Node10</title>
<g id="a_node10"><a target="_blank" xlink:href="http://en.cppreference.com/w/cpp/iterator/end.html#" xlink:title=" ">
<polygon fill="white" stroke="black" points="618.5,-314.57 618.5,-333.57 670.5,-333.57 670.5,-314.57 618.5,-314.57"/>
<text text-anchor="middle" x="644.5" y="-321.57" font-family="Helvetica,sans-Serif" font-size="10.00">std::end</text>
</a>
</g>
</g>
<!-- Node7&#45;&gt;Node10 -->
<g id="edge9" class="edge">
<title>Node7&#45;&gt;Node10</title>
<path fill="none" stroke="midnightblue" d="M536.65,-338.52C558.38,-335.58 586.58,-331.77 608.56,-328.8"/>
<polygon fill="midnightblue" stroke="midnightblue" points="609.04,-332.26 618.48,-327.45 608.1,-325.33 609.04,-332.26"/>
</g>
<!-- Node11 -->
<g id="node11" class="node">
<title>Node11</title>
<g id="a_node11"><a target="_blank" xlink:href="http://en.cppreference.com/w/cpp/algorithm/min_element.html#" xlink:title=" ">
<polygon fill="white" stroke="black" points="598,-276.57 598,-295.57 691,-295.57 691,-276.57 598,-276.57"/>
<text text-anchor="middle" x="644.5" y="-283.57" font-family="Helvetica,sans-Serif" font-size="10.00">std::min_element</text>
</a>
</g>
</g>
<!-- Node7&#45;&gt;Node11 -->
<g id="edge10" class="edge">
<title>Node7&#45;&gt;Node11</title>
<path fill="none" stroke="midnightblue" d="M536.14,-333.52C544.67,-330.75 553.77,-327.54 562,-324.07 578.67,-317.05 581.64,-312.79 598,-305.07 601.83,-303.26 605.88,-301.44 609.93,-299.69"/>
<polygon fill="midnightblue" stroke="midnightblue" points="611.4,-302.86 619.24,-295.73 608.66,-296.42 611.4,-302.86"/>
</g>
<!-- Node17 -->
<g id="node17" class="node">
<title>Node17</title>
<g id="a_node17"><a target="_blank" xlink:href="http://en.cppreference.com/w/cpp/io/basic_ofstream/close.html#" xlink:title=" ">
<polygon fill="white" stroke="black" points="288.5,-235.57 288.5,-254.57 391.5,-254.57 391.5,-235.57 288.5,-235.57"/>
<text text-anchor="middle" x="340" y="-242.57" font-family="Helvetica,sans-Serif" font-size="10.00">std::ofstream::close</text>
</a>
</g>
</g>
<!-- Node16&#45;&gt;Node17 -->
<g id="edge17" class="edge">
<title>Node16&#45;&gt;Node17</title>
<path fill="none" stroke="midnightblue" d="M175.68,-181.74C198.48,-193.29 238.38,-212.73 274,-226.07 280.07,-228.34 286.54,-230.52 292.95,-232.53"/>
<polygon fill="midnightblue" stroke="midnightblue" points="292.34,-236 302.93,-235.56 294.37,-229.31 292.34,-236"/>
</g>
<!-- Node18 -->
<g id="node18" class="node">
<title>Node18</title>
<g id="a_node18"><a target="_blank" xlink:href="http://en.cppreference.com/w/cpp/io/basic_ofstream/is_open.html#" xlink:title=" ">
<polygon fill="white" stroke="black" points="282.5,-197.57 282.5,-216.57 397.5,-216.57 397.5,-197.57 282.5,-197.57"/>
<text text-anchor="middle" x="340" y="-204.57" font-family="Helvetica,sans-Serif" font-size="10.00">std::ofstream::is_open</text>
</a>
</g>
</g>
<!-- Node16&#45;&gt;Node18 -->
<g id="edge18" class="edge">
<title>Node16&#45;&gt;Node18</title>
<path fill="none" stroke="midnightblue" d="M195.6,-179.49C219.95,-184.18 251.89,-190.32 279.44,-195.62"/>
<polygon fill="midnightblue" stroke="midnightblue" points="278.89,-199.08 289.37,-197.53 280.21,-192.2 278.89,-199.08"/>
</g>
<!-- Node19 -->
<g id="node19" class="node">
<title>Node19</title>
<g id="a_node19"><a target="_blank" xlink:href="http://en.cppreference.com/w/cpp/io/basic_ofstream/open.html#" xlink:title=" ">
<polygon fill="white" stroke="black" points="289,-159.57 289,-178.57 391,-178.57 391,-159.57 289,-159.57"/>
<text text-anchor="middle" x="340" y="-166.57" font-family="Helvetica,sans-Serif" font-size="10.00">std::ofstream::open</text>
</a>
</g>
</g>
<!-- Node16&#45;&gt;Node19 -->
<g id="edge19" class="edge">
<title>Node16&#45;&gt;Node19</title>
<path fill="none" stroke="midnightblue" d="M195.6,-171.43C219.65,-171.04 251.12,-170.52 278.45,-170.07"/>
<polygon fill="midnightblue" stroke="midnightblue" points="278.75,-173.56 288.7,-169.9 278.64,-166.57 278.75,-173.56"/>
</g>
<!-- Node20 -->
<g id="node20" class="node">
<title>Node20</title>
<g id="a_node20"><a target="_blank" xlink:href="http://en.cppreference.com/w/cpp/string/byte/strerror.html#" xlink:title=" ">
<polygon fill="white" stroke="black" points="306,-121.57 306,-140.57 374,-140.57 374,-121.57 306,-121.57"/>
<text text-anchor="middle" x="340" y="-128.57" font-family="Helvetica,sans-Serif" font-size="10.00">std::strerror</text>
</a>
</g>
</g>
<!-- Node16&#45;&gt;Node20 -->
<g id="edge20" class="edge">
<title>Node16&#45;&gt;Node20</title>
<path fill="none" stroke="midnightblue" d="M195.6,-163.38C225.03,-156.74 265.57,-147.61 296.03,-140.75"/>
<polygon fill="midnightblue" stroke="midnightblue" points="296.96,-144.13 305.95,-138.52 295.42,-137.3 296.96,-144.13"/>
</g>
<!-- Node21&#45;&gt;Node20 -->
<g id="edge23" class="edge">
<title>Node21&#45;&gt;Node20</title>
<path fill="none" stroke="midnightblue" d="M217.1,-129.06C242.8,-129.48 272.24,-129.97 295.75,-130.36"/>
<polygon fill="midnightblue" stroke="midnightblue" points="295.71,-133.86 305.76,-130.52 295.82,-126.86 295.71,-133.86"/>
</g>
<!-- Node22 -->
<g id="node22" class="node">
<title>Node22</title>
<g id="a_node22"><a target="_blank" xlink:href="http://en.cppreference.com/w/cpp/io/manip/endl.html#" xlink:title=" ">
<polygon fill="white" stroke="black" points="313,-83.57 313,-102.57 367,-102.57 367,-83.57 313,-83.57"/>
<text text-anchor="middle" x="340" y="-90.57" font-family="Helvetica,sans-Serif" font-size="10.00">std::endl</text>
</a>
</g>
</g>
<!-- Node21&#45;&gt;Node22 -->
<g id="edge22" class="edge">
<title>Node21&#45;&gt;Node22</title>
<path fill="none" stroke="midnightblue" d="M217.1,-116.51C245.55,-111.04 278.57,-104.69 303.06,-99.98"/>
<polygon fill="midnightblue" stroke="midnightblue" points="303.84,-103.4 312.99,-98.07 302.51,-96.52 303.84,-103.4"/>
</g>
<!-- Node23&#45;&gt;Node2 -->
<g id="edge25" class="edge">
<title>Node23&#45;&gt;Node2</title>
<path fill="none" stroke="midnightblue" d="M200.13,-46.07C231.16,-39.59 272.57,-30.94 302.08,-24.78"/>
<polygon fill="midnightblue" stroke="midnightblue" points="302.91,-28.18 311.98,-22.71 301.48,-21.33 302.91,-28.18"/>
</g>
<!-- Node23&#45;&gt;Node3 -->
<g id="edge26" class="edge">
<title>Node23&#45;&gt;Node3</title>
<path fill="none" stroke="midnightblue" d="M200.22,-52.68C268.59,-48.91 400.5,-41.62 464.45,-38.09"/>
<polygon fill="midnightblue" stroke="midnightblue" points="464.69,-41.58 474.48,-37.54 464.3,-34.59 464.69,-41.58"/>
</g>
</g>
</svg>
        <g id="navigator" transform="translate(0 0)" fill="#404254">
                <rect fill="#f2f5e9" fill-opacity="0.5" stroke="#606060" stroke-width=".5" x="0" y="0" width="60" height="60"/>
                <use id="zoomplus" xlink:href="#zoomPlus" x="17" y="9" onmousedown="handleZoom(evt,'in')"/>
                <use id="zoomminus" xlink:href="#zoomMin" x="42" y="9" onmousedown="handleZoom(evt,'out')"/>
                <use id="reset" xlink:href="#resetDef" x="30" y="36" onmousedown="handleReset()"/>
                <g id="arrowUp" xlink:href="#dirArrow" transform="translate(30 24)" onmousedown="handlePan(0,-1)">
                  <use xlink:href="#rim" fill="#404040">
                        <set attributeName="fill" to="#808080" begin="arrowUp.mouseover" end="arrowUp.mouseout"/>
                  </use>
                  <path fill="none" stroke="white" stroke-width="1.5" d="M0,-3.0v7 M-2.5,-0.5L0,-3.0L2.5,-0.5"/>
                </g>
                <g id="arrowRight" xlink:href="#dirArrow" transform="rotate(90) translate(36 -43)" onmousedown="handlePan(1,0)">
                  <use xlink:href="#rim" fill="#404040">
                        <set attributeName="fill" to="#808080" begin="arrowRight.mouseover" end="arrowRight.mouseout"/>
                  </use>
                  <path fill="none" stroke="white" stroke-width="1.5" d="M0,-3.0v7 M-2.5,-0.5L0,-3.0L2.5,-0.5"/>
                </g>
                <g id="arrowDown" xlink:href="#dirArrow" transform="rotate(180) translate(-30 -48)" onmousedown="handlePan(0,1)">
                  <use xlink:href="#rim" fill="#404040">
                        <set attributeName="fill" to="#808080" begin="arrowDown.mouseover" end="arrowDown.mouseout"/>
                  </use>
                  <path fill="none" stroke="white" stroke-width="1.5" d="M0,-3.0v7 M-2.5,-0.5L0,-3.0L2.5,-0.5"/>
                </g>
                <g id="arrowLeft" xlink:href="#dirArrow" transform="rotate(270) translate(-36 17)" onmousedown="handlePan(-1,0)">
                  <use xlink:href="#rim" fill="#404040">
                        <set attributeName="fill" to="#808080" begin="arrowLeft.mouseover" end="arrowLeft.mouseout"/>
                  </use>
                  <path fill="none" stroke="white" stroke-width="1.5" d="M0,-3.0v7 M-2.5,-0.5L0,-3.0L2.5,-0.5"/>
                </g>
        </g>
        <svg viewBox="0 0 15 15" width="100%" height="30px" preserveAspectRatio="xMaxYMin meet">
         <g id="arrow_out" transform="scale(0.3 0.3)">
          <a xlink:href="kohonen__som__topology_8cpp_a1440a7779ac56f47a3f355ce4a8c7da0_cgraph_org.svg" target="_base">
           <rect id="button" ry="5" rx="5" y="6" x="6" height="38" width="38"
                fill="#f2f5e9" fill-opacity="0.5" stroke="#606060" stroke-width="1.0"/>
           <path id="arrow"
             d="M 11.500037,31.436501 C 11.940474,20.09759 22.043105,11.32322 32.158766,21.979434 L 37.068811,17.246167 C 37.068811,17.246167 37.088388,32 37.088388,32 L 22.160133,31.978069 C 22.160133,31.978069 26.997745,27.140456 26.997745,27.140456 C 18.528582,18.264221 13.291696,25.230495 11.500037,31.436501 z"
             style="fill:#404040;"/>
          </a>
         </g>
        </svg>
</svg>
