<?xml version="1.0" encoding="UTF-8" standalone="no"?>
<!DOCTYPE svg PUBLIC "-//W3C//DTD SVG 1.1//EN"
 "http://www.w3.org/Graphics/SVG/1.1/DTD/svg11.dtd">
<!-- Generated by graphviz version 9.0.0 (20230911.1827)
 -->
<!-- Title: main Pages: 1 -->
<svg width="526pt" height="355pt"
 viewBox="0.00 0.00 526.00 355.25" xmlns="http://www.w3.org/2000/svg" xmlns:xlink="http://www.w3.org/1999/xlink">
<g id="graph0" class="graph" transform="scale(1 1) rotate(0) translate(4 351.25)">
<title>main</title>
<!-- Node1 -->
<g id="Node000001" class="node">
<title>Node1</title>
<g id="a_Node000001"><a xlink:title=" ">
<polygon fill="#999999" stroke="#666666" points="37,-232.25 0,-232.25 0,-213 37,-213 37,-232.25"/>
<text text-anchor="middle" x="18.5" y="-218.75" font-family="Helvetica,sans-Serif" font-size="10.00">main</text>
</a>
</g>
</g>
<!-- Node2 -->
<g id="Node000002" class="node">
<title>Node2</title>
<g id="a_Node000002"><a target="_blank" xlink:href="http://en.cppreference.com/w/cpp/chrono/c/clock.html#" xlink:title=" ">
<polygon fill="white" stroke="#666666" points="140.75,-343.25 82,-343.25 82,-324 140.75,-324 140.75,-343.25"/>
<text text-anchor="middle" x="111.38" y="-329.75" font-family="Helvetica,sans-Serif" font-size="10.00">std::clock</text>
</a>
</g>
</g>
<!-- Node1&#45;&gt;Node2 -->
<g id="edge1_Node000001_Node000002" class="edge">
<title>Node1&#45;&gt;Node2</title>
<g id="a_edge1_Node000001_Node000002"><a xlink:title=" ">
<path fill="none" stroke="#63b8ff" d="M22.95,-232.59C29.81,-251.14 46.8,-291.28 73,-315.62 73.61,-316.19 74.25,-316.75 74.9,-317.29"/>
<polygon fill="#63b8ff" stroke="#63b8ff" points="72.64,-319.99 82.89,-322.67 76.55,-314.18 72.64,-319.99"/>
</a>
</g>
</g>
<!-- Node3 -->
<g id="Node000003" class="node">
<title>Node3</title>
<g id="a_Node000003"><a xlink:href="../../d4/def/kohonen__som__topology_8cpp.html#a2256c10b16edba377b64a44b6c656908" target="_top" xlink:title=" ">
<polygon fill="white" stroke="#666666" points="149.75,-306.25 73,-306.25 73,-287 149.75,-287 149.75,-306.25"/>
<text text-anchor="middle" x="111.38" y="-292.75" font-family="Helvetica,sans-Serif" font-size="10.00">get_clock_diff</text>
</a>
</g>
</g>
<!-- Node1&#45;&gt;Node3 -->
<g id="edge2_Node000001_Node000003" class="edge">
<title>Node1&#45;&gt;Node3</title>
<g id="a_edge2_Node000001_Node000003"><a xlink:title=" ">
<path fill="none" stroke="#63b8ff" d="M26.96,-232.36C36.57,-244.42 54.29,-265.03 73,-278.62 74.15,-279.46 75.34,-280.27 76.56,-281.06"/>
<polygon fill="#63b8ff" stroke="#63b8ff" points="74.58,-283.96 85,-285.87 78.05,-277.88 74.58,-283.96"/>
</a>
</g>
</g>
<!-- Node4 -->
<g id="Node000004" class="node">
<title>Node4</title>
<g id="a_Node000004"><a target="_blank" xlink:href="http://en.cppreference.com/w/cpp/numeric/random/srand.html#" xlink:title=" ">
<polygon fill="white" stroke="#666666" points="141.12,-269.25 81.62,-269.25 81.62,-250 141.12,-250 141.12,-269.25"/>
<text text-anchor="middle" x="111.38" y="-255.75" font-family="Helvetica,sans-Serif" font-size="10.00">std::srand</text>
</a>
</g>
</g>
<!-- Node1&#45;&gt;Node4 -->
<g id="edge3_Node000001_Node000004" class="edge">
<title>Node1&#45;&gt;Node4</title>
<g id="a_edge3_Node000001_Node000004"><a xlink:title=" ">
<path fill="none" stroke="#63b8ff" d="M37.45,-229.94C48.2,-234.31 62.24,-240.03 75.12,-245.27"/>
<polygon fill="#63b8ff" stroke="#63b8ff" points="73.6,-248.43 84.18,-248.96 76.23,-241.95 73.6,-248.43"/>
</a>
</g>
</g>
<!-- Node5 -->
<g id="Node000005" class="node">
<title>Node5</title>
<g id="a_Node000005"><a xlink:href="../../d4/def/kohonen__som__topology_8cpp.html#a1440a7779ac56f47a3f355ce4a8c7da0" target="_top" xlink:title=" ">
<polygon fill="white" stroke="#666666" points="130.25,-232.25 92.5,-232.25 92.5,-213 130.25,-213 130.25,-232.25"/>
<text text-anchor="middle" x="111.38" y="-218.75" font-family="Helvetica,sans-Serif" font-size="10.00">test1</text>
</a>
</g>
</g>
<!-- Node1&#45;&gt;Node5 -->
<g id="edge4_Node000001_Node000005" class="edge">
<title>Node1&#45;&gt;Node5</title>
<g id="a_edge4_Node000001_Node000005"><a xlink:title=" ">
<path fill="none" stroke="#63b8ff" d="M37.45,-222.62C49.82,-222.62 66.54,-222.62 80.84,-222.62"/>
<polygon fill="#63b8ff" stroke="#63b8ff" points="80.63,-226.13 90.63,-222.63 80.63,-219.13 80.63,-226.13"/>
</a>
</g>
</g>
<!-- Node15 -->
<g id="Node000015" class="node">
<title>Node15</title>
<g id="a_Node000015"><a xlink:href="../../d4/def/kohonen__som__topology_8cpp.html#a0283886819c7c140a023582b7269e2d0" target="_top" xlink:title=" ">
<polygon fill="white" stroke="#666666" points="130.25,-195.25 92.5,-195.25 92.5,-176 130.25,-176 130.25,-195.25"/>
<text text-anchor="middle" x="111.38" y="-181.75" font-family="Helvetica,sans-Serif" font-size="10.00">test2</text>
</a>
</g>
</g>
<!-- Node1&#45;&gt;Node15 -->
<g id="edge16_Node000001_Node000015" class="edge">
<title>Node1&#45;&gt;Node15</title>
<g id="a_edge16_Node000001_Node000015"><a xlink:title=" ">
<path fill="none" stroke="#63b8ff" d="M37.45,-215.31C50.07,-210.18 67.21,-203.2 81.7,-197.3"/>
<polygon fill="#63b8ff" stroke="#63b8ff" points="82.8,-200.63 90.75,-193.62 80.16,-194.15 82.8,-200.63"/>
</a>
</g>
</g>
<!-- Node17 -->
<g id="Node000017" class="node">
<title>Node17</title>
<g id="a_Node000017"><a xlink:href="../../d4/def/kohonen__som__topology_8cpp.html#a6d0455dd5c30adda100e95f0423c786e" target="_top" xlink:title=" ">
<polygon fill="white" stroke="#666666" points="130.25,-158.25 92.5,-158.25 92.5,-139 130.25,-139 130.25,-158.25"/>
<text text-anchor="middle" x="111.38" y="-144.75" font-family="Helvetica,sans-Serif" font-size="10.00">test3</text>
</a>
</g>
</g>
<!-- Node1&#45;&gt;Node17 -->
<g id="edge23_Node000001_Node000017" class="edge">
<title>Node1&#45;&gt;Node17</title>
<g id="a_edge23_Node000001_Node000017"><a xlink:title=" ">
<path fill="none" stroke="#63b8ff" d="M26.96,-212.89C36.57,-200.83 54.29,-180.22 73,-166.62 75.82,-164.57 78.91,-162.65 82.07,-160.89"/>
<polygon fill="#63b8ff" stroke="#63b8ff" points="83.44,-164.12 90.79,-156.5 80.29,-157.87 83.44,-164.12"/>
</a>
</g>
</g>
<!-- Node19 -->
<g id="Node000019" class="node">
<title>Node19</title>
<g id="a_Node000019"><a target="_blank" xlink:href="http://en.cppreference.com/w/cpp/chrono/c/time.html#" xlink:title=" ">
<polygon fill="white" stroke="#666666" points="138.5,-121.25 84.25,-121.25 84.25,-102 138.5,-102 138.5,-121.25"/>
<text text-anchor="middle" x="111.38" y="-107.75" font-family="Helvetica,sans-Serif" font-size="10.00">std::time</text>
</a>
</g>
</g>
<!-- Node1&#45;&gt;Node19 -->
<g id="edge30_Node000001_Node000019" class="edge">
<title>Node1&#45;&gt;Node19</title>
<g id="a_edge30_Node000001_Node000019"><a xlink:title=" ">
<path fill="none" stroke="#63b8ff" d="M22.95,-212.66C29.81,-194.11 46.8,-153.97 73,-129.62 73.61,-129.06 74.25,-128.5 74.9,-127.96"/>
<polygon fill="#63b8ff" stroke="#63b8ff" points="76.55,-131.07 82.89,-122.58 72.64,-125.26 76.55,-131.07"/>
</a>
</g>
</g>
<!-- Node6 -->
<g id="Node000006" class="node">
<title>Node6</title>
<g id="a_Node000006"><a xlink:href="../../d9/d66/group__machine__learning.html#gaf5ce14f026d6d231bef29161bac2b485" target="_top" xlink:title=" ">
<polygon fill="white" stroke="#666666" points="397.75,-271.25 344.25,-271.25 344.25,-252 397.75,-252 397.75,-271.25"/>
<text text-anchor="middle" x="371" y="-257.75" font-family="Helvetica,sans-Serif" font-size="10.00">_random</text>
</a>
</g>
</g>
<!-- Node5&#45;&gt;Node6 -->
<g id="edge5_Node000005_Node000006" class="edge">
<title>Node5&#45;&gt;Node6</title>
<g id="a_edge5_Node000005_Node000006"><a xlink:title=" ">
<path fill="none" stroke="#63b8ff" d="M130.52,-229.93C136.85,-232.85 143.85,-236.5 149.75,-240.62 168.04,-253.41 165.07,-267.23 185.75,-275.62 233.9,-295.18 294.9,-284.37 333.2,-273.81"/>
<polygon fill="#63b8ff" stroke="#63b8ff" points="333.76,-277.29 342.39,-271.14 331.81,-270.57 333.76,-277.29"/>
</a>
</g>
</g>
<!-- Node8 -->
<g id="Node000008" class="node">
<title>Node8</title>
<g id="a_Node000008"><a target="_blank" xlink:href="http://en.cppreference.com/w/cpp/algorithm/max.html#" xlink:title=" ">
<polygon fill="white" stroke="#666666" points="259.12,-196.25 204.88,-196.25 204.88,-177 259.12,-177 259.12,-196.25"/>
<text text-anchor="middle" x="232" y="-182.75" font-family="Helvetica,sans-Serif" font-size="10.00">std::max</text>
</a>
</g>
</g>
<!-- Node5&#45;&gt;Node8 -->
<g id="edge7_Node000005_Node000008" class="edge">
<title>Node5&#45;&gt;Node8</title>
<g id="a_edge7_Node000005_Node000008"><a xlink:title=" ">
<path fill="none" stroke="#63b8ff" d="M130.65,-217.08C147.4,-212 172.71,-204.32 193.72,-197.94"/>
<polygon fill="#63b8ff" stroke="#63b8ff" points="194.55,-201.34 203.11,-195.09 192.52,-194.65 194.55,-201.34"/>
</a>
</g>
</g>
<!-- Node9 -->
<g id="Node000009" class="node">
<title>Node9</title>
<g id="a_Node000009"><a xlink:href="../../d9/d66/group__machine__learning.html#gabc90175770bf0d5853c466e14993a08c" target="_top" xlink:title=" ">
<polygon fill="white" stroke="#666666" points="270.38,-83.25 193.62,-83.25 193.62,-64 270.38,-64 270.38,-83.25"/>
<text text-anchor="middle" x="232" y="-69.75" font-family="Helvetica,sans-Serif" font-size="10.00">save_2d_data</text>
</a>
</g>
</g>
<!-- Node5&#45;&gt;Node9 -->
<g id="edge8_Node000005_Node000009" class="edge">
<title>Node5&#45;&gt;Node9</title>
<g id="a_edge8_Node000005_Node000009"><a xlink:title=" ">
<path fill="none" stroke="#63b8ff" d="M130.68,-217.26C137.48,-214.47 144.74,-210.39 149.75,-204.62 184.31,-164.83 149.81,-130.18 185.75,-91.62 186.22,-91.12 186.7,-90.63 187.2,-90.16"/>
<polygon fill="#63b8ff" stroke="#63b8ff" points="189.03,-93.16 195.08,-84.46 184.92,-87.49 189.03,-93.16"/>
</a>
</g>
</g>
<!-- Node14 -->
<g id="Node000014" class="node">
<title>Node14</title>
<g id="a_Node000014"><a xlink:href="../../d4/def/kohonen__som__topology_8cpp.html#a48efb079040c7aaa3a4917a0e486cba9" target="_top" xlink:title=" ">
<polygon fill="white" stroke="#666666" points="275.62,-347.25 188.38,-347.25 188.38,-328 275.62,-328 275.62,-347.25"/>
<text text-anchor="middle" x="232" y="-333.75" font-family="Helvetica,sans-Serif" font-size="10.00">test_2d_classes</text>
</a>
</g>
</g>
<!-- Node5&#45;&gt;Node14 -->
<g id="edge13_Node000005_Node000014" class="edge">
<title>Node5&#45;&gt;Node14</title>
<g id="a_edge13_Node000005_Node000014"><a xlink:title=" ">
<path fill="none" stroke="#63b8ff" d="M130.63,-228.55C137.26,-231.39 144.43,-235.35 149.75,-240.62 175.45,-266.09 160.55,-287.67 185.75,-313.62 188.71,-316.68 192.15,-319.42 195.77,-321.88"/>
<polygon fill="#63b8ff" stroke="#63b8ff" points="193.93,-324.85 204.32,-326.91 197.48,-318.82 193.93,-324.85"/>
</a>
</g>
</g>
<!-- Node7 -->
<g id="Node000007" class="node">
<title>Node7</title>
<g id="a_Node000007"><a target="_blank" xlink:href="http://en.cppreference.com/w/cpp/numeric/random/rand.html#" xlink:title=" ">
<polygon fill="white" stroke="#666666" points="518,-252.25 463.75,-252.25 463.75,-233 518,-233 518,-252.25"/>
<text text-anchor="middle" x="490.88" y="-238.75" font-family="Helvetica,sans-Serif" font-size="10.00">std::rand</text>
</a>
</g>
</g>
<!-- Node6&#45;&gt;Node7 -->
<g id="edge6_Node000006_Node000007" class="edge">
<title>Node6&#45;&gt;Node7</title>
<g id="a_edge6_Node000006_Node000007"><a xlink:title=" ">
<path fill="none" stroke="#63b8ff" d="M398.16,-257.41C414,-254.86 434.46,-251.56 452.04,-248.72"/>
<polygon fill="#63b8ff" stroke="#63b8ff" points="452.57,-252.18 461.89,-247.14 451.46,-245.27 452.57,-252.18"/>
</a>
</g>
</g>
<!-- Node10 -->
<g id="Node000010" class="node">
<title>Node10</title>
<g id="a_Node000010"><a target="_blank" xlink:href="http://en.cppreference.com/w/cpp/io/basic_ofstream/close.html#" xlink:title=" ">
<polygon fill="white" stroke="#666666" points="422.5,-130.25 319.5,-130.25 319.5,-111 422.5,-111 422.5,-130.25"/>
<text text-anchor="middle" x="371" y="-116.75" font-family="Helvetica,sans-Serif" font-size="10.00">std::ofstream::close</text>
</a>
</g>
</g>
<!-- Node9&#45;&gt;Node10 -->
<g id="edge9_Node000009_Node000010" class="edge">
<title>Node9&#45;&gt;Node10</title>
<g id="a_edge9_Node000009_Node000010"><a xlink:title=" ">
<path fill="none" stroke="#63b8ff" d="M260.38,-83.63C276.1,-89.32 296.24,-96.51 314.25,-102.62 318.46,-104.06 322.86,-105.52 327.27,-106.97"/>
<polygon fill="#63b8ff" stroke="#63b8ff" points="326.07,-110.27 336.67,-110.04 328.24,-103.61 326.07,-110.27"/>
</a>
</g>
</g>
<!-- Node11 -->
<g id="Node000011" class="node">
<title>Node11</title>
<g id="a_Node000011"><a target="_blank" xlink:href="http://en.cppreference.com/w/cpp/io/basic_ofstream/is_open.html#" xlink:title=" ">
<polygon fill="white" stroke="#666666" points="427.75,-93.25 314.25,-93.25 314.25,-74 427.75,-74 427.75,-93.25"/>
<text text-anchor="middle" x="371" y="-79.75" font-family="Helvetica,sans-Serif" font-size="10.00">std::ofstream::is_open</text>
</a>
</g>
</g>
<!-- Node9&#45;&gt;Node11 -->
<g id="edge10_Node000009_Node000011" class="edge">
<title>Node9&#45;&gt;Node11</title>
<g id="a_edge10_Node000009_Node000011"><a xlink:title=" ">
<path fill="none" stroke="#63b8ff" d="M270.8,-76.38C280.67,-77.1 291.62,-77.9 302.54,-78.7"/>
<polygon fill="#63b8ff" stroke="#63b8ff" points="302.11,-82.18 312.34,-79.42 302.62,-75.2 302.11,-82.18"/>
</a>
</g>
</g>
<!-- Node12 -->
<g id="Node000012" class="node">
<title>Node12</title>
<g id="a_Node000012"><a target="_blank" xlink:href="http://en.cppreference.com/w/cpp/io/basic_ofstream/open.html#" xlink:title=" ">
<polygon fill="white" stroke="#666666" points="421.38,-56.25 320.62,-56.25 320.62,-37 421.38,-37 421.38,-56.25"/>
<text text-anchor="middle" x="371" y="-42.75" font-family="Helvetica,sans-Serif" font-size="10.00">std::ofstream::open</text>
</a>
</g>
</g>
<!-- Node9&#45;&gt;Node12 -->
<g id="edge11_Node000009_Node000012" class="edge">
<title>Node9&#45;&gt;Node12</title>
<g id="a_edge11_Node000009_Node000012"><a xlink:title=" ">
<path fill="none" stroke="#63b8ff" d="M270.8,-66.18C282.62,-63.85 295.98,-61.21 308.98,-58.65"/>
<polygon fill="#63b8ff" stroke="#63b8ff" points="309.64,-62.09 318.78,-56.72 308.29,-55.22 309.64,-62.09"/>
</a>
</g>
</g>
<!-- Node13 -->
<g id="Node000013" class="node">
<title>Node13</title>
<g id="a_Node000013"><a target="_blank" xlink:href="http://en.cppreference.com/w/cpp/string/byte/strerror.html#" xlink:title=" ">
<polygon fill="white" stroke="#666666" points="404.12,-19.25 337.88,-19.25 337.88,0 404.12,0 404.12,-19.25"/>
<text text-anchor="middle" x="371" y="-5.75" font-family="Helvetica,sans-Serif" font-size="10.00">std::strerror</text>
</a>
</g>
</g>
<!-- Node9&#45;&gt;Node13 -->
<g id="edge12_Node000009_Node000013" class="edge">
<title>Node9&#45;&gt;Node13</title>
<g id="a_edge12_Node000009_Node000013"><a xlink:title=" ">
<path fill="none" stroke="#63b8ff" d="M248.39,-63.66C264.38,-53.61 290.35,-38.12 314.25,-27.62 318.27,-25.86 322.53,-24.18 326.82,-22.6"/>
<polygon fill="#63b8ff" stroke="#63b8ff" points="327.72,-25.99 336.02,-19.4 325.43,-19.38 327.72,-25.99"/>
</a>
</g>
</g>
<!-- Node14&#45;&gt;Node6 -->
<g id="edge14_Node000014_Node000006" class="edge">
<title>Node14&#45;&gt;Node6</title>
<g id="a_edge14_Node000014_Node000006"><a xlink:title=" ">
<path fill="none" stroke="#63b8ff" d="M252,-327.7C260.11,-323.42 269.67,-318.33 278.25,-313.62 299.99,-301.7 324.4,-287.84 342.58,-277.43"/>
<polygon fill="#63b8ff" stroke="#63b8ff" points="344.25,-280.51 351.18,-272.49 340.76,-274.44 344.25,-280.51"/>
</a>
</g>
</g>
<!-- Node14&#45;&gt;Node7 -->
<g id="edge15_Node000014_Node000007" class="edge">
<title>Node14&#45;&gt;Node7</title>
<g id="a_edge15_Node000014_Node000007"><a xlink:title=" ">
<path fill="none" stroke="#63b8ff" d="M275.93,-328.51C316.17,-319.17 377.5,-302.88 427.75,-280.62 441.2,-274.67 455.26,-266.27 466.6,-258.89"/>
<polygon fill="#63b8ff" stroke="#63b8ff" points="468.53,-261.81 474.89,-253.33 464.63,-255.99 468.53,-261.81"/>
</a>
</g>
</g>
<!-- Node15&#45;&gt;Node6 -->
<g id="edge17_Node000015_Node000006" class="edge">
<title>Node15&#45;&gt;Node6</title>
<g id="a_edge17_Node000015_Node000006"><a xlink:title=" ">
<path fill="none" stroke="#63b8ff" d="M130.65,-192.76C136.99,-195.66 143.96,-199.34 149.75,-203.62 168.71,-217.66 164.66,-232.07 185.75,-242.62 232.4,-265.97 293.91,-267.36 332.72,-265.24"/>
<polygon fill="#63b8ff" stroke="#63b8ff" points="332.73,-268.75 342.48,-264.6 332.27,-261.77 332.73,-268.75"/>
</a>
</g>
</g>
<!-- Node15&#45;&gt;Node8 -->
<g id="edge18_Node000015_Node000008" class="edge">
<title>Node15&#45;&gt;Node8</title>
<g id="a_edge18_Node000015_Node000008"><a xlink:title=" ">
<path fill="none" stroke="#63b8ff" d="M130.65,-185.78C147.24,-185.92 172.24,-186.13 193.13,-186.31"/>
<polygon fill="#63b8ff" stroke="#63b8ff" points="193.01,-189.8 203.04,-186.39 193.07,-182.81 193.01,-189.8"/>
</a>
</g>
</g>
<!-- Node15&#45;&gt;Node9 -->
<g id="edge19_Node000015_Node000009" class="edge">
<title>Node15&#45;&gt;Node9</title>
<g id="a_edge19_Node000015_Node000009"><a xlink:title=" ">
<path fill="none" stroke="#63b8ff" d="M130.67,-179.74C137.31,-176.91 144.47,-172.94 149.75,-167.62 176.09,-141.11 158.49,-117.2 185.75,-91.62 186.37,-91.04 187.02,-90.47 187.68,-89.92"/>
<polygon fill="#63b8ff" stroke="#63b8ff" points="189.44,-92.96 195.89,-84.55 185.61,-87.1 189.44,-92.96"/>
</a>
</g>
</g>
<!-- Node16 -->
<g id="Node000016" class="node">
<title>Node16</title>
<g id="a_Node000016"><a xlink:href="../../d4/def/kohonen__som__topology_8cpp.html#a1302662a56ebf67a21249270b017297e" target="_top" xlink:title=" ">
<polygon fill="white" stroke="#666666" points="278.25,-233.25 185.75,-233.25 185.75,-214 278.25,-214 278.25,-233.25"/>
<text text-anchor="middle" x="232" y="-219.75" font-family="Helvetica,sans-Serif" font-size="10.00">test_3d_classes1</text>
</a>
</g>
</g>
<!-- Node15&#45;&gt;Node16 -->
<g id="edge20_Node000015_Node000016" class="edge">
<title>Node15&#45;&gt;Node16</title>
<g id="a_edge20_Node000015_Node000016"><a xlink:title=" ">
<path fill="none" stroke="#63b8ff" d="M130.65,-191.48C146.11,-196.43 168.88,-203.72 188.82,-210.11"/>
<polygon fill="#63b8ff" stroke="#63b8ff" points="187.51,-213.37 198.1,-213.08 189.64,-206.7 187.51,-213.37"/>
</a>
</g>
</g>
<!-- Node16&#45;&gt;Node6 -->
<g id="edge21_Node000016_Node000006" class="edge">
<title>Node16&#45;&gt;Node6</title>
<g id="a_edge21_Node000016_Node000006"><a xlink:title=" ">
<path fill="none" stroke="#63b8ff" d="M269.35,-233.71C288.97,-239.15 313.13,-245.85 332.86,-251.32"/>
<polygon fill="#63b8ff" stroke="#63b8ff" points="331.87,-254.68 342.45,-253.98 333.74,-247.94 331.87,-254.68"/>
</a>
</g>
</g>
<!-- Node16&#45;&gt;Node7 -->
<g id="edge22_Node000016_Node000007" class="edge">
<title>Node16&#45;&gt;Node7</title>
<g id="a_edge22_Node000016_Node000007"><a xlink:title=" ">
<path fill="none" stroke="#63b8ff" d="M278.63,-227C328.1,-230.66 406.14,-236.43 452.24,-239.84"/>
<polygon fill="#63b8ff" stroke="#63b8ff" points="451.77,-243.32 462,-240.56 452.29,-236.34 451.77,-243.32"/>
</a>
</g>
</g>
<!-- Node17&#45;&gt;Node6 -->
<g id="edge24_Node000017_Node000006" class="edge">
<title>Node17&#45;&gt;Node6</title>
<g id="a_edge24_Node000017_Node000006"><a xlink:title=" ">
<path fill="none" stroke="#63b8ff" d="M130.41,-146.89C162.09,-144.65 229.06,-143.51 278.25,-167.62 312.9,-184.61 341.83,-220.21 357.46,-242.39"/>
<polygon fill="#63b8ff" stroke="#63b8ff" points="354.49,-244.25 363.01,-250.55 360.27,-240.31 354.49,-244.25"/>
</a>
</g>
</g>
<!-- Node17&#45;&gt;Node8 -->
<g id="edge25_Node000017_Node000008" class="edge">
<title>Node17&#45;&gt;Node8</title>
<g id="a_edge25_Node000017_Node000008"><a xlink:title=" ">
<path fill="none" stroke="#63b8ff" d="M130.65,-154.48C147.4,-159.84 172.71,-167.95 193.72,-174.68"/>
<polygon fill="#63b8ff" stroke="#63b8ff" points="192.52,-177.97 203.11,-177.69 194.66,-171.31 192.52,-177.97"/>
</a>
</g>
</g>
<!-- Node17&#45;&gt;Node9 -->
<g id="edge26_Node000017_Node000009" class="edge">
<title>Node17&#45;&gt;Node9</title>
<g id="a_edge26_Node000017_Node000009"><a xlink:title=" ">
<path fill="none" stroke="#63b8ff" d="M130.65,-141.49C136.99,-138.59 143.96,-134.91 149.75,-130.62 168.71,-116.59 166.31,-104.98 185.75,-91.62 187.28,-90.57 188.89,-89.57 190.54,-88.61"/>
<polygon fill="#63b8ff" stroke="#63b8ff" points="191.66,-91.97 199,-84.33 188.49,-85.72 191.66,-91.97"/>
</a>
</g>
</g>
<!-- Node18 -->
<g id="Node000018" class="node">
<title>Node18</title>
<g id="a_Node000018"><a xlink:href="../../d4/def/kohonen__som__topology_8cpp.html#a4b7ab643f6a5002f991837de46f70653" target="_top" xlink:title=" ">
<polygon fill="white" stroke="#666666" points="278.25,-120.25 185.75,-120.25 185.75,-101 278.25,-101 278.25,-120.25"/>
<text text-anchor="middle" x="232" y="-106.75" font-family="Helvetica,sans-Serif" font-size="10.00">test_3d_classes2</text>
</a>
</g>
</g>
<!-- Node17&#45;&gt;Node18 -->
<g id="edge27_Node000017_Node000018" class="edge">
<title>Node17&#45;&gt;Node18</title>
<g id="a_edge27_Node000017_Node000018"><a xlink:title=" ">
<path fill="none" stroke="#63b8ff" d="M130.65,-142.77C146.11,-137.82 168.88,-130.53 188.82,-124.14"/>
<polygon fill="#63b8ff" stroke="#63b8ff" points="189.64,-127.55 198.1,-121.17 187.51,-120.88 189.64,-127.55"/>
</a>
</g>
</g>
<!-- Node18&#45;&gt;Node6 -->
<g id="edge28_Node000018_Node000006" class="edge">
<title>Node18&#45;&gt;Node6</title>
<g id="a_edge28_Node000018_Node000006"><a xlink:title=" ">
<path fill="none" stroke="#63b8ff" d="M257.5,-120.74C264.69,-124.43 272.23,-129.09 278.25,-134.62 300.03,-154.65 297.09,-166.52 314.25,-190.62 327.24,-208.88 343.12,-228.9 354.6,-243.01"/>
<polygon fill="#63b8ff" stroke="#63b8ff" points="351.75,-245.06 360.8,-250.57 357.16,-240.62 351.75,-245.06"/>
</a>
</g>
</g>
<!-- Node18&#45;&gt;Node7 -->
<g id="edge29_Node000018_Node000007" class="edge">
<title>Node18&#45;&gt;Node7</title>
<g id="a_edge29_Node000018_Node000007"><a xlink:title=" ">
<path fill="none" stroke="#63b8ff" d="M252.31,-120.55C296.84,-143.43 407.01,-200.04 460.2,-227.38"/>
<polygon fill="#63b8ff" stroke="#63b8ff" points="458.5,-230.44 469,-231.9 461.7,-224.21 458.5,-230.44"/>
</a>
</g>
</g>
</g>
</svg>
