<?xml version="1.0" encoding="UTF-8" standalone="no"?>
<!DOCTYPE svg PUBLIC "-//W3C//DTD SVG 1.1//EN"
 "http://www.w3.org/Graphics/SVG/1.1/DTD/svg11.dtd">
<!-- Generated by graphviz version 5.0.0 (20220707.1540)
 -->
<!-- Title: backtracking/graph_coloring.cpp Pages: 1 -->
<svg width="180pt" height="95pt"
 viewBox="0.00 0.00 180.00 95.00" xmlns="http://www.w3.org/2000/svg" xmlns:xlink="http://www.w3.org/1999/xlink">
<g id="graph0" class="graph" transform="scale(1 1) rotate(0) translate(4 91)">
<title>backtracking/graph_coloring.cpp</title>
<polygon fill="white" stroke="transparent" points="-4,4 -4,-91 176,-91 176,4 -4,4"/>
<!-- Node1 -->
<g id="node1" class="node">
<title>Node1</title>
<g id="a_node1"><a xlink:title="prints the assigned colors using Graph Coloring algorithm">
<polygon fill="#bfbfbf" stroke="black" points="33.5,-56.5 33.5,-86.5 132.5,-86.5 132.5,-56.5 33.5,-56.5"/>
<text text-anchor="start" x="41.5" y="-74.5" font-family="Helvetica,sans-Serif" font-size="10.00">backtracking/graph</text>
<text text-anchor="middle" x="83" y="-63.5" font-family="Helvetica,sans-Serif" font-size="10.00">_coloring.cpp</text>
</a>
</g>
</g>
<!-- Node2 -->
<g id="node2" class="node">
<title>Node2</title>
<g id="a_node2"><a xlink:title=" ">
<polygon fill="white" stroke="#bfbfbf" points="0,-0.5 0,-19.5 38,-19.5 38,-0.5 0,-0.5"/>
<text text-anchor="middle" x="19" y="-7.5" font-family="Helvetica,sans-Serif" font-size="10.00">array</text>
</a>
</g>
</g>
<!-- Node1&#45;&gt;Node2 -->
<g id="edge1" class="edge">
<title>Node1&#45;&gt;Node2</title>
<path fill="none" stroke="midnightblue" d="M67.83,-56.4C58.25,-47.49 45.84,-35.95 35.93,-26.74"/>
<polygon fill="midnightblue" stroke="midnightblue" points="38.02,-23.9 28.31,-19.66 33.25,-29.03 38.02,-23.9"/>
</g>
<!-- Node3 -->
<g id="node3" class="node">
<title>Node3</title>
<g id="a_node3"><a xlink:title=" ">
<polygon fill="white" stroke="#bfbfbf" points="56,-0.5 56,-19.5 110,-19.5 110,-0.5 56,-0.5"/>
<text text-anchor="middle" x="83" y="-7.5" font-family="Helvetica,sans-Serif" font-size="10.00">iostream</text>
</a>
</g>
</g>
<!-- Node1&#45;&gt;Node3 -->
<g id="edge2" class="edge">
<title>Node1&#45;&gt;Node3</title>
<path fill="none" stroke="midnightblue" d="M83,-56.4C83,-48.47 83,-38.46 83,-29.86"/>
<polygon fill="midnightblue" stroke="midnightblue" points="86.5,-29.66 83,-19.66 79.5,-29.66 86.5,-29.66"/>
</g>
<!-- Node4 -->
<g id="node4" class="node">
<title>Node4</title>
<g id="a_node4"><a xlink:title=" ">
<polygon fill="white" stroke="#bfbfbf" points="128,-0.5 128,-19.5 172,-19.5 172,-0.5 128,-0.5"/>
<text text-anchor="middle" x="150" y="-7.5" font-family="Helvetica,sans-Serif" font-size="10.00">vector</text>
</a>
</g>
</g>
<!-- Node1&#45;&gt;Node4 -->
<g id="edge3" class="edge">
<title>Node1&#45;&gt;Node4</title>
<path fill="none" stroke="midnightblue" d="M98.88,-56.4C109.02,-47.4 122.16,-35.72 132.59,-26.47"/>
<polygon fill="midnightblue" stroke="midnightblue" points="135.1,-28.92 140.25,-19.66 130.45,-23.68 135.1,-28.92"/>
</g>
</g>
</svg>
