<?xml version="1.0" encoding="UTF-8" standalone="no"?>
<!DOCTYPE svg PUBLIC "-//W3C//DTD SVG 1.1//EN"
 "http://www.w3.org/Graphics/SVG/1.1/DTD/svg11.dtd">
<!-- Generated by graphviz version 5.0.1 (20220820.1526)
 -->
<!-- Title: operations_on_datastructures::inorder_traversal_of_bst::Insert Pages: 1 -->
<svg width="334pt" height="67pt"
 viewBox="0.00 0.00 334.00 67.00" xmlns="http://www.w3.org/2000/svg" xmlns:xlink="http://www.w3.org/1999/xlink">
<g id="graph0" class="graph" transform="scale(1 1) rotate(0) translate(4 63)">
<title>operations_on_datastructures::inorder_traversal_of_bst::Insert</title>
<!-- Node1 -->
<g id="node1" class="node">
<title>Node1</title>
<g id="a_node1"><a xlink:title="Inserts the given data in BST while maintaining the properties of BST.">
<polygon fill="#999999" stroke="#666666" points="145,-41 0,-41 0,0 145,0 145,-41"/>
<text text-anchor="start" x="8" y="-29" font-family="Helvetica,sans-Serif" font-size="10.00">operations_on_datastructures</text>
<text text-anchor="start" x="8" y="-18" font-family="Helvetica,sans-Serif" font-size="10.00">::inorder_traversal_of_bst</text>
<text text-anchor="middle" x="72.5" y="-7" font-family="Helvetica,sans-Serif" font-size="10.00">::Insert</text>
</a>
</g>
</g>
<!-- Node2 -->
<g id="node2" class="node">
<title>Node2</title>
<g id="a_node2"><a xlink:href="../../d4/d32/inorder__successor__of__bst_8cpp.html#a7f6f73a33beec448c27cc1d70b220702" target="_top" xlink:title="Allocates a new node in heap for given data and returns it&#39;s pointer.">
<polygon fill="white" stroke="#666666" points="326,-41 181,-41 181,0 326,0 326,-41"/>
<text text-anchor="start" x="189" y="-29" font-family="Helvetica,sans-Serif" font-size="10.00">operations_on_datastructures</text>
<text text-anchor="start" x="189" y="-18" font-family="Helvetica,sans-Serif" font-size="10.00">::inorder_traversal_of_bst</text>
<text text-anchor="middle" x="253.5" y="-7" font-family="Helvetica,sans-Serif" font-size="10.00">::makeNode</text>
</a>
</g>
</g>
<!-- Node1&#45;&gt;Node2 -->
<g id="edge1" class="edge">
<title>Node1&#45;&gt;Node2</title>
<path fill="none" stroke="#63b8ff" d="M145.02,-20.5C153.49,-20.5 162.18,-20.5 170.78,-20.5"/>
<polygon fill="#63b8ff" stroke="#63b8ff" points="170.8,-24 180.8,-20.5 170.8,-17 170.8,-24"/>
</g>
<!-- Node2&#45;&gt;Node2 -->
<g id="edge2" class="edge">
<title>Node2&#45;&gt;Node2</title>
<path fill="none" stroke="#63b8ff" d="M220.42,-41.1C216.81,-50.65 227.84,-59 253.5,-59 269.54,-59 279.86,-55.74 284.47,-50.96"/>
<polygon fill="#63b8ff" stroke="#63b8ff" points="287.91,-51.61 286.58,-41.1 281.06,-50.14 287.91,-51.61"/>
</g>
</g>
</svg>
