<?xml version="1.0" encoding="UTF-8" standalone="no"?>
<!DOCTYPE svg PUBLIC "-//W3C//DTD SVG 1.1//EN"
 "http://www.w3.org/Graphics/SVG/1.1/DTD/svg11.dtd">
<!-- Generated by graphviz version 5.0.1 (20220820.1526)
 -->
<!-- Title: user_input_test Pages: 1 -->
<svg width="232pt" height="64pt"
 viewBox="0.00 0.00 232.00 64.00" xmlns="http://www.w3.org/2000/svg" xmlns:xlink="http://www.w3.org/1999/xlink">
<g id="graph0" class="graph" transform="scale(1 1) rotate(0) translate(4 60)">
<title>user_input_test</title>
<!-- Node1 -->
<g id="node1" class="node">
<title>Node1</title>
<g id="a_node1"><a xlink:title="Take user input in the test cases (optional; currently commented)">
<polygon fill="#999999" stroke="#666666" points="83,-37 0,-37 0,-18 83,-18 83,-37"/>
<text text-anchor="middle" x="41.5" y="-25" font-family="Helvetica,sans-Serif" font-size="10.00">user_input_test</text>
</a>
</g>
</g>
<!-- Node2 -->
<g id="node2" class="node">
<title>Node2</title>
<g id="a_node2"><a target="_blank" xlink:href="http://en.cppreference.com/w/cpp/io/manip/endl.html#" xlink:title=" ">
<polygon fill="white" stroke="#666666" points="198.5,-56 144.5,-56 144.5,-37 198.5,-37 198.5,-56"/>
<text text-anchor="middle" x="171.5" y="-44" font-family="Helvetica,sans-Serif" font-size="10.00">std::endl</text>
</a>
</g>
</g>
<!-- Node1&#45;&gt;Node2 -->
<g id="edge1" class="edge">
<title>Node1&#45;&gt;Node2</title>
<path fill="none" stroke="#63b8ff" d="M83.35,-33.56C99.68,-35.99 118.32,-38.76 134.17,-41.11"/>
<polygon fill="#63b8ff" stroke="#63b8ff" points="133.72,-44.58 144.12,-42.58 134.75,-37.65 133.72,-44.58"/>
</g>
<!-- Node3 -->
<g id="node3" class="node">
<title>Node3</title>
<g id="a_node3"><a xlink:href="../../dd/d47/namespacemath.html#a8a48be4d7f14e34c5c92925bc1cbf3bb" target="_top" xlink:title="This function finds whether a number is power of 2 or not.">
<polygon fill="white" stroke="#666666" points="224,-19 119,-19 119,0 224,0 224,-19"/>
<text text-anchor="middle" x="171.5" y="-7" font-family="Helvetica,sans-Serif" font-size="10.00">math::power_of_two</text>
</a>
</g>
</g>
<!-- Node1&#45;&gt;Node3 -->
<g id="edge2" class="edge">
<title>Node1&#45;&gt;Node3</title>
<path fill="none" stroke="#63b8ff" d="M83.35,-21.76C91.45,-20.62 100.12,-19.4 108.74,-18.19"/>
<polygon fill="#63b8ff" stroke="#63b8ff" points="109.37,-21.63 118.79,-16.77 108.4,-14.7 109.37,-21.63"/>
</g>
</g>
</svg>
