<?xml version="1.0" encoding="UTF-8" standalone="no"?>
<!DOCTYPE svg PUBLIC "-//W3C//DTD SVG 1.1//EN"
 "http://www.w3.org/Graphics/SVG/1.1/DTD/svg11.dtd">
<!-- Generated by graphviz version 9.0.0 (20230911.1827)
 -->
<!-- Title: main Pages: 1 -->
<svg width="244pt" height="64pt"
 viewBox="0.00 0.00 243.50 64.25" xmlns="http://www.w3.org/2000/svg" xmlns:xlink="http://www.w3.org/1999/xlink">
<g id="graph0" class="graph" transform="scale(1 1) rotate(0) translate(4 60.25)">
<title>main</title>
<!-- Node1 -->
<g id="Node000001" class="node">
<title>Node1</title>
<g id="a_Node000001"><a xlink:title="Main function.">
<polygon fill="#999999" stroke="#666666" points="37,-37.25 0,-37.25 0,-18 37,-18 37,-37.25"/>
<text text-anchor="middle" x="18.5" y="-23.75" font-family="Helvetica,sans-Serif" font-size="10.00">main</text>
</a>
</g>
</g>
<!-- Node2 -->
<g id="Node000002" class="node">
<title>Node2</title>
<g id="a_Node000002"><a xlink:href="../../d1/dbb/n__choose__r_8cpp.html#aa8dca7b867074164d5f45b0f3851269d" target="_top" xlink:title="Test implementations.">
<polygon fill="white" stroke="#666666" points="105.5,-37.25 73,-37.25 73,-18 105.5,-18 105.5,-37.25"/>
<text text-anchor="middle" x="89.25" y="-23.75" font-family="Helvetica,sans-Serif" font-size="10.00">test</text>
</a>
</g>
</g>
<!-- Node1&#45;&gt;Node2 -->
<g id="edge1_Node000001_Node000002" class="edge">
<title>Node1&#45;&gt;Node2</title>
<g id="a_edge1_Node000001_Node000002"><a xlink:title=" ">
<path fill="none" stroke="#63b8ff" d="M37.2,-27.62C44.58,-27.62 53.31,-27.62 61.45,-27.62"/>
<polygon fill="#63b8ff" stroke="#63b8ff" points="61.2,-31.13 71.2,-27.63 61.2,-24.13 61.2,-31.13"/>
</a>
</g>
</g>
<!-- Node3 -->
<g id="Node000003" class="node">
<title>Node3</title>
<g id="a_Node000003"><a target="_blank" xlink:href="http://en.cppreference.com/w/cpp/io/manip/endl.html#" xlink:title=" ">
<polygon fill="white" stroke="#666666" points="215.25,-56.25 161.75,-56.25 161.75,-37 215.25,-37 215.25,-56.25"/>
<text text-anchor="middle" x="188.5" y="-42.75" font-family="Helvetica,sans-Serif" font-size="10.00">std::endl</text>
</a>
</g>
</g>
<!-- Node2&#45;&gt;Node3 -->
<g id="edge2_Node000002_Node000003" class="edge">
<title>Node2&#45;&gt;Node3</title>
<g id="a_edge2_Node000002_Node000003"><a xlink:title=" ">
<path fill="none" stroke="#63b8ff" d="M105.87,-30.68C117.89,-33.02 134.98,-36.36 150.43,-39.38"/>
<polygon fill="#63b8ff" stroke="#63b8ff" points="149.32,-42.73 159.8,-41.21 150.66,-35.86 149.32,-42.73"/>
</a>
</g>
</g>
<!-- Node4 -->
<g id="Node000004" class="node">
<title>Node4</title>
<g id="a_Node000004"><a xlink:href="../../dd/d47/namespacemath.html#a6e2dff75c5de70455b90c799d6ad6967" target="_top" xlink:title="This is the function implementation of .">
<polygon fill="white" stroke="#666666" points="235.5,-19.25 141.5,-19.25 141.5,0 235.5,0 235.5,-19.25"/>
<text text-anchor="middle" x="188.5" y="-5.75" font-family="Helvetica,sans-Serif" font-size="10.00">math::n_choose_r</text>
</a>
</g>
</g>
<!-- Node2&#45;&gt;Node4 -->
<g id="edge3_Node000002_Node000004" class="edge">
<title>Node2&#45;&gt;Node4</title>
<g id="a_edge3_Node000002_Node000004"><a xlink:title=" ">
<path fill="none" stroke="#63b8ff" d="M105.87,-24.73C112.67,-23.48 121.09,-21.92 129.93,-20.28"/>
<polygon fill="#63b8ff" stroke="#63b8ff" points="130.55,-23.72 139.75,-18.46 129.28,-16.84 130.55,-23.72"/>
</a>
</g>
</g>
</g>
</svg>
