<?xml version="1.0" encoding="UTF-8" standalone="no"?>
<!DOCTYPE svg PUBLIC "-//W3C//DTD SVG 1.1//EN"
 "http://www.w3.org/Graphics/SVG/1.1/DTD/svg11.dtd">
<!-- Generated by graphviz version 9.0.0 (20230911.1827)
 -->
<!-- Title: range_queries::perSegTree Pages: 1 -->
<svg width="549pt" height="150pt"
 viewBox="0.00 0.00 548.75 149.50" xmlns="http://www.w3.org/2000/svg" xmlns:xlink="http://www.w3.org/1999/xlink">
<g id="graph0" class="graph" transform="scale(1 1) rotate(0) translate(4 145.5)">
<title>range_queries::perSegTree</title>
<!-- Node1 -->
<g id="Node000001" class="node">
<title>Node1</title>
<g id="a_Node000001"><a xlink:title="Range query here is range sum, but the code can be modified to make different queries like range max ...">
<polygon fill="#999999" stroke="#666666" points="540.75,-75.25 407.75,-75.25 407.75,-56 540.75,-56 540.75,-75.25"/>
<text text-anchor="middle" x="474.25" y="-61.75" font-family="Helvetica,sans-Serif" font-size="10.00">range_queries::perSegTree</text>
</a>
</g>
</g>
<!-- Node2 -->
<g id="Node000002" class="node">
<title>Node2</title>
<g id="a_Node000002"><a target="_blank" xlink:href="http://en.cppreference.com/w/cpp/container/vector.html" xlink:title=" ">
<polygon fill="white" stroke="#666666" points="352.25,-141.5 193.75,-141.5 193.75,-99.75 352.25,-99.75 352.25,-141.5"/>
<text text-anchor="start" x="201.75" y="-128" font-family="Helvetica,sans-Serif" font-size="10.00">std::vector&lt; std::shared</text>
<text text-anchor="start" x="201.75" y="-116.75" font-family="Helvetica,sans-Serif" font-size="10.00">_ptr&lt; range_queries::perSegTree</text>
<text text-anchor="middle" x="273" y="-105.5" font-family="Helvetica,sans-Serif" font-size="10.00">::Node &gt; &gt;</text>
</a>
</g>
</g>
<!-- Node2&#45;&gt;Node1 -->
<g id="edge1_Node000001_Node000002" class="edge">
<title>Node2&#45;&gt;Node1</title>
<g id="a_edge1_Node000001_Node000002"><a xlink:title=" ">
<path fill="none" stroke="#9a32cd" stroke-dasharray="5,2" d="M362.11,-96.3C388.41,-89.04 415.8,-81.48 436.81,-75.68"/>
<polygon fill="#9a32cd" stroke="#9a32cd" points="361.49,-92.84 352.78,-98.88 363.35,-99.59 361.49,-92.84"/>
</a>
</g>
<text text-anchor="middle" x="380" y="-94.38" font-family="Helvetica,sans-Serif" font-size="10.00" fill="grey"> ptrs</text>
</g>
<!-- Node3 -->
<g id="Node000003" class="node">
<title>Node3</title>
<g id="a_Node000003"><a target="_blank" xlink:href="http://en.cppreference.com/w/cpp/memory/shared_ptr.html" xlink:title=" ">
<polygon fill="white" stroke="#666666" points="115,-98.5 0,-98.5 0,-56.75 115,-56.75 115,-98.5"/>
<text text-anchor="start" x="8" y="-85" font-family="Helvetica,sans-Serif" font-size="10.00">std::shared_ptr&lt; range</text>
<text text-anchor="start" x="8" y="-73.75" font-family="Helvetica,sans-Serif" font-size="10.00">_queries::perSegTree::</text>
<text text-anchor="middle" x="57.5" y="-62.5" font-family="Helvetica,sans-Serif" font-size="10.00">Node &gt;</text>
</a>
</g>
</g>
<!-- Node3&#45;&gt;Node2 -->
<g id="edge2_Node000002_Node000003" class="edge">
<title>Node3&#45;&gt;Node2</title>
<g id="a_edge2_Node000002_Node000003"><a xlink:title=" ">
<path fill="none" stroke="#9a32cd" stroke-dasharray="5,2" d="M126.13,-98.03C128.44,-98.59 130.74,-99.12 133,-99.62 152.42,-103.94 173.56,-107.63 193.36,-110.67"/>
<polygon fill="#9a32cd" stroke="#9a32cd" points="127.26,-94.7 116.7,-95.63 125.53,-101.49 127.26,-94.7"/>
</a>
</g>
<text text-anchor="middle" x="154.38" y="-109.38" font-family="Helvetica,sans-Serif" font-size="10.00" fill="grey"> elements</text>
</g>
<!-- Node4 -->
<g id="Node000004" class="node">
<title>Node4</title>
<g id="a_Node000004"><a xlink:href="../../d5/d66/classrange__queries_1_1per_seg_tree_1_1_node.html" target="_top" xlink:title=" ">
<polygon fill="white" stroke="#bfbfbf" points="339.5,-79.88 206.5,-79.88 206.5,-49.38 339.5,-49.38 339.5,-79.88"/>
<text text-anchor="start" x="214.5" y="-66.38" font-family="Helvetica,sans-Serif" font-size="10.00">range_queries::perSegTree</text>
<text text-anchor="middle" x="273" y="-55.12" font-family="Helvetica,sans-Serif" font-size="10.00">::Node</text>
</a>
</g>
</g>
<!-- Node3&#45;&gt;Node4 -->
<g id="edge4_Node000004_Node000003" class="edge">
<title>Node3&#45;&gt;Node4</title>
<g id="a_edge4_Node000004_Node000003"><a xlink:title=" ">
<path fill="none" stroke="#9a32cd" stroke-dasharray="5,2" d="M126.84,-73.46C152.24,-71.92 180.98,-70.17 206.15,-68.63"/>
<polygon fill="#9a32cd" stroke="#9a32cd" points="126.71,-69.96 116.94,-74.07 127.14,-76.95 126.71,-69.96"/>
</a>
</g>
<text text-anchor="middle" x="154.38" y="-85.62" font-family="Helvetica,sans-Serif" font-size="10.00" fill="grey"> left</text>
<text text-anchor="middle" x="154.38" y="-74.38" font-family="Helvetica,sans-Serif" font-size="10.00" fill="grey">right</text>
</g>
<!-- Node4&#45;&gt;Node3 -->
<g id="edge3_Node000003_Node000004" class="edge">
<title>Node4&#45;&gt;Node3</title>
<g id="a_edge3_Node000003_Node000004"><a xlink:title=" ">
<path fill="none" stroke="#9a32cd" stroke-dasharray="5,2" d="M211.55,-46.52C187.04,-41.59 158.54,-38.93 133,-44.38 121.23,-46.88 109.06,-51.39 98.05,-56.3"/>
<polygon fill="#9a32cd" stroke="#9a32cd" points="210.51,-49.87 221.03,-48.6 212.01,-43.04 210.51,-49.87"/>
</a>
</g>
<text text-anchor="middle" x="154.38" y="-45.38" font-family="Helvetica,sans-Serif" font-size="10.00" fill="grey"> ptr</text>
</g>
<!-- Node5 -->
<g id="Node000005" class="node">
<title>Node5</title>
<g id="a_Node000005"><a target="_blank" xlink:href="http://en.cppreference.com/w/cpp/container/vector.html" xlink:title=" ">
<polygon fill="white" stroke="#666666" points="327.88,-27.25 218.12,-27.25 218.12,-8 327.88,-8 327.88,-27.25"/>
<text text-anchor="middle" x="273" y="-13.75" font-family="Helvetica,sans-Serif" font-size="10.00">std::vector&lt; int64_t &gt;</text>
</a>
</g>
</g>
<!-- Node5&#45;&gt;Node1 -->
<g id="edge5_Node000001_Node000005" class="edge">
<title>Node5&#45;&gt;Node1</title>
<g id="a_edge5_Node000001_Node000005"><a xlink:title=" ">
<path fill="none" stroke="#9a32cd" stroke-dasharray="5,2" d="M326.96,-30.38C359.7,-38.27 401.13,-48.25 431.54,-55.58"/>
<polygon fill="#9a32cd" stroke="#9a32cd" points="327.78,-26.98 317.24,-28.04 326.14,-33.79 327.78,-26.98"/>
</a>
</g>
<text text-anchor="middle" x="380" y="-45.38" font-family="Helvetica,sans-Serif" font-size="10.00" fill="grey"> vec</text>
</g>
<!-- Node6 -->
<g id="Node000006" class="node">
<title>Node6</title>
<g id="a_Node000006"><a target="_blank" xlink:href="http://en.cppreference.com/w/cpp/types/integer.html" xlink:title=" ">
<polygon fill="white" stroke="#bfbfbf" points="89.88,-19.25 25.12,-19.25 25.12,0 89.88,0 89.88,-19.25"/>
<text text-anchor="middle" x="57.5" y="-5.75" font-family="Helvetica,sans-Serif" font-size="10.00">std::int64_t</text>
</a>
</g>
</g>
<!-- Node6&#45;&gt;Node5 -->
<g id="edge6_Node000005_Node000006" class="edge">
<title>Node6&#45;&gt;Node5</title>
<g id="a_edge6_Node000005_Node000006"><a xlink:title=" ">
<path fill="none" stroke="#9a32cd" stroke-dasharray="5,2" d="M101.75,-9.19C123.89,-9.15 151.27,-9.38 175.75,-10.38 189.4,-10.93 204.11,-11.87 217.83,-12.89"/>
<polygon fill="#9a32cd" stroke="#9a32cd" points="101.86,-5.69 91.88,-9.23 101.89,-12.69 101.86,-5.69"/>
</a>
</g>
<text text-anchor="middle" x="154.38" y="-12.38" font-family="Helvetica,sans-Serif" font-size="10.00" fill="grey"> elements</text>
</g>
</g>
</svg>
