<?xml version="1.0" encoding="UTF-8" standalone="no"?>
<!DOCTYPE svg PUBLIC "-//W3C//DTD SVG 1.1//EN"
 "http://www.w3.org/Graphics/SVG/1.1/DTD/svg11.dtd">
<!-- Generated by graphviz version 8.0.5 (20230430.1635)
 -->
<!-- Title: test Pages: 1 -->
<svg width="294pt" height="249pt"
 viewBox="0.00 0.00 293.75 249.25" xmlns="http://www.w3.org/2000/svg" xmlns:xlink="http://www.w3.org/1999/xlink">
<g id="graph0" class="graph" transform="scale(1 1) rotate(0) translate(4 245.25)">
<title>test</title>
<!-- Node1 -->
<g id="node1" class="node">
<title>Node1</title>
<g id="a_node1"><a xlink:title="Function to test the correctness of get_intersection() function.">
<polygon fill="#999999" stroke="#666666" points="32.5,-148.25 0,-148.25 0,-129 32.5,-129 32.5,-148.25"/>
<text text-anchor="middle" x="16.25" y="-134.75" font-family="Helvetica,sans-Serif" font-size="10.00">test</text>
</a>
</g>
</g>
<!-- Node2 -->
<g id="node2" class="node">
<title>Node2</title>
<g id="a_node2"><a xlink:href="../../d9/df4/namespacetests.html#a167c24bd817469ae47358d12e034f2d5" target="_top" xlink:title="A Test to check an simple case.">
<polygon fill="white" stroke="#666666" points="134,-241.25 68.5,-241.25 68.5,-222 134,-222 134,-241.25"/>
<text text-anchor="middle" x="101.25" y="-227.75" font-family="Helvetica,sans-Serif" font-size="10.00">tests::test1</text>
</a>
</g>
</g>
<!-- Node1&#45;&gt;Node2 -->
<g id="edge1" class="edge">
<title>Node1&#45;&gt;Node2</title>
<path fill="none" stroke="#63b8ff" d="M22.19,-148.68C30.2,-164.16 47.26,-194.09 68.5,-213.62 69.21,-214.28 69.96,-214.92 70.72,-215.55"/>
<polygon fill="#63b8ff" stroke="#63b8ff" points="68.29,-218.82 78.49,-221.68 72.3,-213.08 68.29,-218.82"/>
</g>
<!-- Node3 -->
<g id="node3" class="node">
<title>Node3</title>
<g id="a_node3"><a xlink:href="../../d9/df4/namespacetests.html#abdd77344d4af8fd56d14a5cabbf2f669" target="_top" xlink:title="A Test to check an empty vector.">
<polygon fill="white" stroke="#666666" points="134,-204.25 68.5,-204.25 68.5,-185 134,-185 134,-204.25"/>
<text text-anchor="middle" x="101.25" y="-190.75" font-family="Helvetica,sans-Serif" font-size="10.00">tests::test2</text>
</a>
</g>
</g>
<!-- Node1&#45;&gt;Node3 -->
<g id="edge2" class="edge">
<title>Node1&#45;&gt;Node3</title>
<path fill="none" stroke="#63b8ff" d="M29.58,-148.43C39.78,-156.38 54.76,-167.68 68.5,-176.62 69.79,-177.47 71.13,-178.31 72.49,-179.15"/>
<polygon fill="#63b8ff" stroke="#63b8ff" points="70.17,-182.44 80.55,-184.53 73.74,-176.42 70.17,-182.44"/>
</g>
<!-- Node4 -->
<g id="node4" class="node">
<title>Node4</title>
<g id="a_node4"><a xlink:href="../../d9/df4/namespacetests.html#aa515639572647508b94986489aab6d76" target="_top" xlink:title="A Test to check an invalid shift value.">
<polygon fill="white" stroke="#666666" points="134,-167.25 68.5,-167.25 68.5,-148 134,-148 134,-167.25"/>
<text text-anchor="middle" x="101.25" y="-153.75" font-family="Helvetica,sans-Serif" font-size="10.00">tests::test3</text>
</a>
</g>
</g>
<!-- Node1&#45;&gt;Node4 -->
<g id="edge3" class="edge">
<title>Node1&#45;&gt;Node4</title>
<path fill="none" stroke="#63b8ff" d="M32.86,-142.2C39.94,-143.82 48.69,-145.82 57.51,-147.84"/>
<polygon fill="#63b8ff" stroke="#63b8ff" points="56.68,-151.47 67.21,-150.29 58.24,-144.65 56.68,-151.47"/>
</g>
<!-- Node5 -->
<g id="node5" class="node">
<title>Node5</title>
<g id="a_node5"><a xlink:href="../../d9/df4/namespacetests.html#a2b9769e44683dcb67fe1083ad91e134d" target="_top" xlink:title="A Test to check a very large input.">
<polygon fill="white" stroke="#666666" points="134,-130.25 68.5,-130.25 68.5,-111 134,-111 134,-130.25"/>
<text text-anchor="middle" x="101.25" y="-116.75" font-family="Helvetica,sans-Serif" font-size="10.00">tests::test4</text>
</a>
</g>
</g>
<!-- Node1&#45;&gt;Node5 -->
<g id="edge4" class="edge">
<title>Node1&#45;&gt;Node5</title>
<path fill="none" stroke="#63b8ff" d="M32.86,-135.24C39.94,-133.7 48.69,-131.81 57.51,-129.89"/>
<polygon fill="#63b8ff" stroke="#63b8ff" points="58.18,-133.11 67.21,-127.57 56.69,-126.27 58.18,-133.11"/>
</g>
<!-- Node7 -->
<g id="node7" class="node">
<title>Node7</title>
<g id="a_node7"><a xlink:href="../../d9/df4/namespacetests.html#af7b81d7a1534216af6a36a80135beb86" target="_top" xlink:title="A Test to check a shift of zero.">
<polygon fill="white" stroke="#666666" points="134,-93.25 68.5,-93.25 68.5,-74 134,-74 134,-93.25"/>
<text text-anchor="middle" x="101.25" y="-79.75" font-family="Helvetica,sans-Serif" font-size="10.00">tests::test5</text>
</a>
</g>
</g>
<!-- Node1&#45;&gt;Node7 -->
<g id="edge6" class="edge">
<title>Node1&#45;&gt;Node7</title>
<path fill="none" stroke="#63b8ff" d="M30.04,-128.79C40.24,-121.1 55.02,-110.28 68.5,-101.62 69.83,-100.77 71.21,-99.91 72.61,-99.05"/>
<polygon fill="#63b8ff" stroke="#63b8ff" points="74.08,-101.66 80.91,-93.57 70.52,-95.63 74.08,-101.66"/>
</g>
<!-- Node8 -->
<g id="node8" class="node">
<title>Node8</title>
<g id="a_node8"><a xlink:href="../../d9/df4/namespacetests.html#aacafde185abd8670abee51157f273dc2" target="_top" xlink:title="A Test to check correct functionality with an array sorted using std::sort.">
<polygon fill="white" stroke="#666666" points="134,-56.25 68.5,-56.25 68.5,-37 134,-37 134,-56.25"/>
<text text-anchor="middle" x="101.25" y="-42.75" font-family="Helvetica,sans-Serif" font-size="10.00">tests::test6</text>
</a>
</g>
</g>
<!-- Node1&#45;&gt;Node8 -->
<g id="edge7" class="edge">
<title>Node1&#45;&gt;Node8</title>
<path fill="none" stroke="#63b8ff" d="M22.23,-128.71C30.27,-113.44 47.39,-83.92 68.5,-64.62 69.22,-63.97 69.96,-63.33 70.73,-62.7"/>
<polygon fill="#63b8ff" stroke="#63b8ff" points="72.3,-65.17 78.51,-56.58 68.3,-59.43 72.3,-65.17"/>
</g>
<!-- Node6 -->
<g id="node6" class="node">
<title>Node6</title>
<g id="a_node6"><a target="_blank" xlink:href="http://en.cppreference.com/w/cpp/container/vector/push_back.html#" xlink:title=" ">
<polygon fill="white" stroke="#666666" points="285.75,-130.25 170,-130.25 170,-111 285.75,-111 285.75,-130.25"/>
<text text-anchor="middle" x="227.88" y="-116.75" font-family="Helvetica,sans-Serif" font-size="10.00">std::vector::push_back</text>
</a>
</g>
</g>
<!-- Node5&#45;&gt;Node6 -->
<g id="edge5" class="edge">
<title>Node5&#45;&gt;Node6</title>
<path fill="none" stroke="#63b8ff" d="M134.34,-120.62C141.95,-120.62 150.35,-120.62 158.89,-120.62"/>
<polygon fill="#63b8ff" stroke="#63b8ff" points="158.74,-124.13 168.74,-120.62 158.74,-117.13 158.74,-124.13"/>
</g>
<!-- Node9 -->
<g id="node9" class="node">
<title>Node9</title>
<g id="a_node9"><a target="_blank" xlink:href="http://en.cppreference.com/w/cpp/container/vector/begin.html#" xlink:title=" ">
<polygon fill="white" stroke="#666666" points="273.75,-93.25 182,-93.25 182,-74 273.75,-74 273.75,-93.25"/>
<text text-anchor="middle" x="227.88" y="-79.75" font-family="Helvetica,sans-Serif" font-size="10.00">std::vector::begin</text>
</a>
</g>
</g>
<!-- Node8&#45;&gt;Node9 -->
<g id="edge8" class="edge">
<title>Node8&#45;&gt;Node9</title>
<path fill="none" stroke="#63b8ff" d="M134.34,-56.15C149.13,-60.54 166.92,-65.83 182.93,-70.58"/>
<polygon fill="#63b8ff" stroke="#63b8ff" points="181.56,-74.12 192.15,-73.61 183.56,-67.41 181.56,-74.12"/>
</g>
<!-- Node10 -->
<g id="node10" class="node">
<title>Node10</title>
<g id="a_node10"><a target="_blank" xlink:href="http://en.cppreference.com/w/cpp/container/vector/end.html#" xlink:title=" ">
<polygon fill="white" stroke="#666666" points="270,-56.25 185.75,-56.25 185.75,-37 270,-37 270,-56.25"/>
<text text-anchor="middle" x="227.88" y="-42.75" font-family="Helvetica,sans-Serif" font-size="10.00">std::vector::end</text>
</a>
</g>
</g>
<!-- Node8&#45;&gt;Node10 -->
<g id="edge9" class="edge">
<title>Node8&#45;&gt;Node10</title>
<path fill="none" stroke="#63b8ff" d="M134.34,-46.62C146.64,-46.62 161,-46.62 174.69,-46.62"/>
<polygon fill="#63b8ff" stroke="#63b8ff" points="174.47,-50.13 184.47,-46.62 174.47,-43.13 174.47,-50.13"/>
</g>
<!-- Node11 -->
<g id="node11" class="node">
<title>Node11</title>
<g id="a_node11"><a target="_blank" xlink:href="http://en.cppreference.com/w/cpp/algorithm/sort.html#" xlink:title=" ">
<polygon fill="white" stroke="#666666" points="253.88,-19.25 201.88,-19.25 201.88,0 253.88,0 253.88,-19.25"/>
<text text-anchor="middle" x="227.88" y="-5.75" font-family="Helvetica,sans-Serif" font-size="10.00">std::sort</text>
</a>
</g>
</g>
<!-- Node8&#45;&gt;Node11 -->
<g id="edge10" class="edge">
<title>Node8&#45;&gt;Node11</title>
<path fill="none" stroke="#63b8ff" d="M134.34,-37.1C151.75,-31.93 173.3,-25.53 191.22,-20.21"/>
<polygon fill="#63b8ff" stroke="#63b8ff" points="191.98,-23.34 200.57,-17.14 189.99,-16.63 191.98,-23.34"/>
</g>
</g>
</svg>
