<?xml version="1.0" encoding="UTF-8" standalone="no"?>
<!DOCTYPE svg PUBLIC "-//W3C//DTD SVG 1.1//EN"
 "http://www.w3.org/Graphics/SVG/1.1/DTD/svg11.dtd">
<!-- Generated by graphviz version 8.0.5 (20230430.1635)
 -->
<!-- Title: main Pages: 1 -->
<svg width="367pt" height="249pt"
 viewBox="0.00 0.00 366.75 249.25" xmlns="http://www.w3.org/2000/svg" xmlns:xlink="http://www.w3.org/1999/xlink">
<g id="graph0" class="graph" transform="scale(1 1) rotate(0) translate(4 245.25)">
<title>main</title>
<!-- Node1 -->
<g id="node1" class="node">
<title>Node1</title>
<g id="a_node1"><a xlink:title="main function">
<polygon fill="#999999" stroke="#666666" points="37,-148.25 0,-148.25 0,-129 37,-129 37,-148.25"/>
<text text-anchor="middle" x="18.5" y="-134.75" font-family="Helvetica,sans-Serif" font-size="10.00">main</text>
</a>
</g>
</g>
<!-- Node2 -->
<g id="node2" class="node">
<title>Node2</title>
<g id="a_node2"><a xlink:href="../../de/dc5/intersection__of__two__arrays_8cpp.html#aa8dca7b867074164d5f45b0f3851269d" target="_top" xlink:title="Function to test the correctness of get_intersection() function.">
<polygon fill="white" stroke="#666666" points="105.5,-148.25 73,-148.25 73,-129 105.5,-129 105.5,-148.25"/>
<text text-anchor="middle" x="89.25" y="-134.75" font-family="Helvetica,sans-Serif" font-size="10.00">test</text>
</a>
</g>
</g>
<!-- Node1&#45;&gt;Node2 -->
<g id="edge1" class="edge">
<title>Node1&#45;&gt;Node2</title>
<path fill="none" stroke="#63b8ff" d="M37.2,-138.62C44.67,-138.62 53.52,-138.62 61.73,-138.62"/>
<polygon fill="#63b8ff" stroke="#63b8ff" points="61.71,-142.13 71.71,-138.62 61.71,-135.13 61.71,-142.13"/>
</g>
<!-- Node3 -->
<g id="node3" class="node">
<title>Node3</title>
<g id="a_node3"><a xlink:href="../../d9/df4/namespacetests.html#a167c24bd817469ae47358d12e034f2d5" target="_top" xlink:title="A Test to check an simple case.">
<polygon fill="white" stroke="#666666" points="207,-241.25 141.5,-241.25 141.5,-222 207,-222 207,-241.25"/>
<text text-anchor="middle" x="174.25" y="-227.75" font-family="Helvetica,sans-Serif" font-size="10.00">tests::test1</text>
</a>
</g>
</g>
<!-- Node2&#45;&gt;Node3 -->
<g id="edge2" class="edge">
<title>Node2&#45;&gt;Node3</title>
<path fill="none" stroke="#63b8ff" d="M95.19,-148.68C103.2,-164.16 120.26,-194.09 141.5,-213.62 142.21,-214.28 142.96,-214.92 143.72,-215.55"/>
<polygon fill="#63b8ff" stroke="#63b8ff" points="141.29,-218.82 151.49,-221.68 145.3,-213.08 141.29,-218.82"/>
</g>
<!-- Node4 -->
<g id="node4" class="node">
<title>Node4</title>
<g id="a_node4"><a xlink:href="../../d9/df4/namespacetests.html#abdd77344d4af8fd56d14a5cabbf2f669" target="_top" xlink:title="A Test to check an empty vector.">
<polygon fill="white" stroke="#666666" points="207,-204.25 141.5,-204.25 141.5,-185 207,-185 207,-204.25"/>
<text text-anchor="middle" x="174.25" y="-190.75" font-family="Helvetica,sans-Serif" font-size="10.00">tests::test2</text>
</a>
</g>
</g>
<!-- Node2&#45;&gt;Node4 -->
<g id="edge3" class="edge">
<title>Node2&#45;&gt;Node4</title>
<path fill="none" stroke="#63b8ff" d="M102.58,-148.43C112.78,-156.38 127.76,-167.68 141.5,-176.62 142.79,-177.47 144.13,-178.31 145.49,-179.15"/>
<polygon fill="#63b8ff" stroke="#63b8ff" points="143.17,-182.44 153.55,-184.53 146.74,-176.42 143.17,-182.44"/>
</g>
<!-- Node5 -->
<g id="node5" class="node">
<title>Node5</title>
<g id="a_node5"><a xlink:href="../../d9/df4/namespacetests.html#aa515639572647508b94986489aab6d76" target="_top" xlink:title="A Test to check an invalid shift value.">
<polygon fill="white" stroke="#666666" points="207,-167.25 141.5,-167.25 141.5,-148 207,-148 207,-167.25"/>
<text text-anchor="middle" x="174.25" y="-153.75" font-family="Helvetica,sans-Serif" font-size="10.00">tests::test3</text>
</a>
</g>
</g>
<!-- Node2&#45;&gt;Node5 -->
<g id="edge4" class="edge">
<title>Node2&#45;&gt;Node5</title>
<path fill="none" stroke="#63b8ff" d="M105.86,-142.2C112.94,-143.82 121.69,-145.82 130.51,-147.84"/>
<polygon fill="#63b8ff" stroke="#63b8ff" points="129.68,-151.47 140.21,-150.29 131.24,-144.65 129.68,-151.47"/>
</g>
<!-- Node6 -->
<g id="node6" class="node">
<title>Node6</title>
<g id="a_node6"><a xlink:href="../../d9/df4/namespacetests.html#a2b9769e44683dcb67fe1083ad91e134d" target="_top" xlink:title="A Test to check a very large input.">
<polygon fill="white" stroke="#666666" points="207,-130.25 141.5,-130.25 141.5,-111 207,-111 207,-130.25"/>
<text text-anchor="middle" x="174.25" y="-116.75" font-family="Helvetica,sans-Serif" font-size="10.00">tests::test4</text>
</a>
</g>
</g>
<!-- Node2&#45;&gt;Node6 -->
<g id="edge5" class="edge">
<title>Node2&#45;&gt;Node6</title>
<path fill="none" stroke="#63b8ff" d="M105.86,-135.24C112.94,-133.7 121.69,-131.81 130.51,-129.89"/>
<polygon fill="#63b8ff" stroke="#63b8ff" points="131.18,-133.11 140.21,-127.57 129.69,-126.27 131.18,-133.11"/>
</g>
<!-- Node8 -->
<g id="node8" class="node">
<title>Node8</title>
<g id="a_node8"><a xlink:href="../../d9/df4/namespacetests.html#af7b81d7a1534216af6a36a80135beb86" target="_top" xlink:title="A Test to check a shift of zero.">
<polygon fill="white" stroke="#666666" points="207,-93.25 141.5,-93.25 141.5,-74 207,-74 207,-93.25"/>
<text text-anchor="middle" x="174.25" y="-79.75" font-family="Helvetica,sans-Serif" font-size="10.00">tests::test5</text>
</a>
</g>
</g>
<!-- Node2&#45;&gt;Node8 -->
<g id="edge7" class="edge">
<title>Node2&#45;&gt;Node8</title>
<path fill="none" stroke="#63b8ff" d="M103.04,-128.79C113.24,-121.1 128.02,-110.28 141.5,-101.62 142.83,-100.77 144.21,-99.91 145.61,-99.05"/>
<polygon fill="#63b8ff" stroke="#63b8ff" points="147.08,-101.66 153.91,-93.57 143.52,-95.63 147.08,-101.66"/>
</g>
<!-- Node9 -->
<g id="node9" class="node">
<title>Node9</title>
<g id="a_node9"><a xlink:href="../../d9/df4/namespacetests.html#aacafde185abd8670abee51157f273dc2" target="_top" xlink:title="A Test to check correct functionality with an array sorted using std::sort.">
<polygon fill="white" stroke="#666666" points="207,-56.25 141.5,-56.25 141.5,-37 207,-37 207,-56.25"/>
<text text-anchor="middle" x="174.25" y="-42.75" font-family="Helvetica,sans-Serif" font-size="10.00">tests::test6</text>
</a>
</g>
</g>
<!-- Node2&#45;&gt;Node9 -->
<g id="edge8" class="edge">
<title>Node2&#45;&gt;Node9</title>
<path fill="none" stroke="#63b8ff" d="M95.23,-128.71C103.27,-113.44 120.39,-83.92 141.5,-64.62 142.22,-63.97 142.96,-63.33 143.73,-62.7"/>
<polygon fill="#63b8ff" stroke="#63b8ff" points="145.3,-65.17 151.51,-56.58 141.3,-59.43 145.3,-65.17"/>
</g>
<!-- Node7 -->
<g id="node7" class="node">
<title>Node7</title>
<g id="a_node7"><a target="_blank" xlink:href="http://en.cppreference.com/w/cpp/container/vector/push_back.html#" xlink:title=" ">
<polygon fill="white" stroke="#666666" points="358.75,-130.25 243,-130.25 243,-111 358.75,-111 358.75,-130.25"/>
<text text-anchor="middle" x="300.88" y="-116.75" font-family="Helvetica,sans-Serif" font-size="10.00">std::vector::push_back</text>
</a>
</g>
</g>
<!-- Node6&#45;&gt;Node7 -->
<g id="edge6" class="edge">
<title>Node6&#45;&gt;Node7</title>
<path fill="none" stroke="#63b8ff" d="M207.34,-120.62C214.95,-120.62 223.35,-120.62 231.89,-120.62"/>
<polygon fill="#63b8ff" stroke="#63b8ff" points="231.74,-124.13 241.74,-120.62 231.74,-117.13 231.74,-124.13"/>
</g>
<!-- Node10 -->
<g id="node10" class="node">
<title>Node10</title>
<g id="a_node10"><a target="_blank" xlink:href="http://en.cppreference.com/w/cpp/container/vector/begin.html#" xlink:title=" ">
<polygon fill="white" stroke="#666666" points="346.75,-93.25 255,-93.25 255,-74 346.75,-74 346.75,-93.25"/>
<text text-anchor="middle" x="300.88" y="-79.75" font-family="Helvetica,sans-Serif" font-size="10.00">std::vector::begin</text>
</a>
</g>
</g>
<!-- Node9&#45;&gt;Node10 -->
<g id="edge9" class="edge">
<title>Node9&#45;&gt;Node10</title>
<path fill="none" stroke="#63b8ff" d="M207.34,-56.15C222.13,-60.54 239.92,-65.83 255.93,-70.58"/>
<polygon fill="#63b8ff" stroke="#63b8ff" points="254.56,-74.12 265.15,-73.61 256.56,-67.41 254.56,-74.12"/>
</g>
<!-- Node11 -->
<g id="node11" class="node">
<title>Node11</title>
<g id="a_node11"><a target="_blank" xlink:href="http://en.cppreference.com/w/cpp/container/vector/end.html#" xlink:title=" ">
<polygon fill="white" stroke="#666666" points="343,-56.25 258.75,-56.25 258.75,-37 343,-37 343,-56.25"/>
<text text-anchor="middle" x="300.88" y="-42.75" font-family="Helvetica,sans-Serif" font-size="10.00">std::vector::end</text>
</a>
</g>
</g>
<!-- Node9&#45;&gt;Node11 -->
<g id="edge10" class="edge">
<title>Node9&#45;&gt;Node11</title>
<path fill="none" stroke="#63b8ff" d="M207.34,-46.62C219.64,-46.62 234,-46.62 247.69,-46.62"/>
<polygon fill="#63b8ff" stroke="#63b8ff" points="247.47,-50.13 257.47,-46.62 247.47,-43.13 247.47,-50.13"/>
</g>
<!-- Node12 -->
<g id="node12" class="node">
<title>Node12</title>
<g id="a_node12"><a target="_blank" xlink:href="http://en.cppreference.com/w/cpp/algorithm/sort.html#" xlink:title=" ">
<polygon fill="white" stroke="#666666" points="326.88,-19.25 274.88,-19.25 274.88,0 326.88,0 326.88,-19.25"/>
<text text-anchor="middle" x="300.88" y="-5.75" font-family="Helvetica,sans-Serif" font-size="10.00">std::sort</text>
</a>
</g>
</g>
<!-- Node9&#45;&gt;Node12 -->
<g id="edge11" class="edge">
<title>Node9&#45;&gt;Node12</title>
<path fill="none" stroke="#63b8ff" d="M207.34,-37.1C224.75,-31.93 246.3,-25.53 264.22,-20.21"/>
<polygon fill="#63b8ff" stroke="#63b8ff" points="264.98,-23.34 273.57,-17.14 262.99,-16.63 264.98,-23.34"/>
</g>
</g>
</svg>
