<?xml version="1.0" encoding="UTF-8" standalone="no"?>
<!DOCTYPE svg PUBLIC "-//W3C//DTD SVG 1.1//EN"
 "http://www.w3.org/Graphics/SVG/1.1/DTD/svg11.dtd">
<!-- Generated by graphviz version 12.2.1 (20241206.2353)
 -->
<!-- Title: Graph Pages: 1 -->
<svg width="413pt" height="261pt"
 viewBox="0.00 0.00 413.00 260.88" xmlns="http://www.w3.org/2000/svg" xmlns:xlink="http://www.w3.org/1999/xlink">

<svg id="main" version="1.1" xmlns="http://www.w3.org/2000/svg" xmlns:xlink="http://www.w3.org/1999/xlink" xml:space="preserve">

<style type="text/css"><![CDATA[
.node, .edge {opacity: 0.7;}
.node.selected, .edge.selected {opacity: 1;}
.edge:hover path { stroke: red; }
.edge:hover polygon { stroke: red; fill: red; }
]]></style>
<script type="application/ecmascript" xlink:href="../../svg.min.js"/>
<svg id="graph" class="graph">
<g id="graph0" class="graph" transform="scale(1 1) rotate(0) translate(4 256.88)">
<title>Graph</title>
<!-- Node1 -->
<g id="Node000001" class="node">
<title>Node1</title>
<g id="a_Node000001"><a xlink:title=" ">
<polygon fill="#999999" stroke="#666666" points="405,-126.25 362.75,-126.25 362.75,-107 405,-107 405,-126.25"/>
<text text-anchor="middle" x="383.88" y="-112.75" font-family="Helvetica,sans-Serif" font-size="10.00">Graph</text>
</a>
</g>
</g>
<!-- Node2 -->
<g id="Node000002" class="node">
<title>Node2</title>
<g id="a_Node000002"><a xlink:title=" ">
<polygon fill="white" stroke="#666666" points="233.75,-251.25 130.75,-251.25 130.75,-232 233.75,-232 233.75,-251.25"/>
<text text-anchor="middle" x="182.25" y="-237.75" font-family="Helvetica,sans-Serif" font-size="10.00">std::vector&lt; Edge &gt;</text>
</a>
</g>
</g>
<!-- Node2&#45;&gt;Node1 -->
<g id="edge1_Node000001_Node000002" class="edge">
<title>Node2&#45;&gt;Node1</title>
<g id="a_edge1_Node000001_Node000002"><a xlink:title=" ">
<path fill="none" stroke="#9a32cd" stroke-dasharray="5,2" d="M245.5,-237.12C278.19,-231.9 317.08,-220.86 344.75,-197.62 367.25,-178.74 377.31,-143.59 381.03,-126.48"/>
<polygon fill="#9a32cd" stroke="#9a32cd" points="245.13,-233.64 235.73,-238.52 246.12,-240.57 245.13,-233.64"/>
</a>
</g>
<text text-anchor="middle" x="305" y="-234.57" font-family="Helvetica,sans-Serif" font-size="10.00" fill="grey"> edges</text>
</g>
<!-- Node3 -->
<g id="Node000003" class="node">
<title>Node3</title>
<g id="a_Node000003"><a xlink:href="../../d7/d77/class_edge.html" target="_top" xlink:title=" ">
<polygon fill="white" stroke="#666666" points="38.5,-251.25 0,-251.25 0,-232 38.5,-232 38.5,-251.25"/>
<text text-anchor="middle" x="19.25" y="-237.75" font-family="Helvetica,sans-Serif" font-size="10.00">Edge</text>
</a>
</g>
</g>
<!-- Node3&#45;&gt;Node2 -->
<g id="edge2_Node000002_Node000003" class="edge">
<title>Node3&#45;&gt;Node2</title>
<g id="a_edge2_Node000002_Node000003"><a xlink:title=" ">
<path fill="none" stroke="#9a32cd" stroke-dasharray="5,2" d="M50.22,-241.62C72.71,-241.62 104.04,-241.62 130.42,-241.62"/>
<polygon fill="#9a32cd" stroke="#9a32cd" points="50.23,-238.13 40.23,-241.63 50.23,-245.13 50.23,-238.13"/>
</a>
</g>
<text text-anchor="middle" x="77.88" y="-243.38" font-family="Helvetica,sans-Serif" font-size="10.00" fill="grey"> elements</text>
</g>
<!-- Node4 -->
<g id="Node000004" class="node">
<title>Node4</title>
<g id="a_Node000004"><a xlink:title=" ">
<polygon fill="white" stroke="#666666" points="247.25,-213.5 117.25,-213.5 117.25,-171.75 247.25,-171.75 247.25,-213.5"/>
<text text-anchor="start" x="125.25" y="-200" font-family="Helvetica,sans-Serif" font-size="10.00">std::map&lt; unsigned</text>
<text text-anchor="start" x="125.25" y="-188.75" font-family="Helvetica,sans-Serif" font-size="10.00"> int, std::vector&lt; unsigned</text>
<text text-anchor="middle" x="182.25" y="-177.5" font-family="Helvetica,sans-Serif" font-size="10.00"> int &gt; &gt;</text>
</a>
</g>
</g>
<!-- Node4&#45;&gt;Node1 -->
<g id="edge3_Node000001_Node000004" class="edge">
<title>Node4&#45;&gt;Node1</title>
<g id="a_edge3_Node000001_Node000004"><a xlink:title=" ">
<path fill="none" stroke="#9a32cd" stroke-dasharray="5,2" d="M258.71,-184.48C287.01,-179.13 318.61,-170.28 344.75,-155.62 357.63,-148.4 368.97,-135.5 375.87,-126.52"/>
<polygon fill="#9a32cd" stroke="#9a32cd" points="258.37,-180.99 249.12,-186.17 259.58,-187.88 258.37,-180.99"/>
</a>
</g>
<text text-anchor="middle" x="305" y="-184.24" font-family="Helvetica,sans-Serif" font-size="10.00" fill="grey"> m_adjList</text>
</g>
<!-- Node5 -->
<g id="Node000005" class="node">
<title>Node5</title>
<g id="a_Node000005"><a xlink:title=" ">
<polygon fill="white" stroke="#666666" points="241.25,-153.88 123.25,-153.88 123.25,-123.38 241.25,-123.38 241.25,-153.88"/>
<text text-anchor="start" x="131.25" y="-140.38" font-family="Helvetica,sans-Serif" font-size="10.00">std::vector&lt; std::vector</text>
<text text-anchor="middle" x="182.25" y="-129.12" font-family="Helvetica,sans-Serif" font-size="10.00">&lt; int &gt; &gt;</text>
</a>
</g>
</g>
<!-- Node5&#45;&gt;Node1 -->
<g id="edge4_Node000001_Node000005" class="edge">
<title>Node5&#45;&gt;Node1</title>
<g id="a_edge4_Node000001_Node000005"><a xlink:title=" ">
<path fill="none" stroke="#9a32cd" stroke-dasharray="5,2" d="M252.75,-130.97C291.41,-126.7 336.77,-121.71 362.44,-118.88"/>
<polygon fill="#9a32cd" stroke="#9a32cd" points="252.59,-127.46 243.03,-132.04 253.35,-134.42 252.59,-127.46"/>
</a>
</g>
<text text-anchor="middle" x="305" y="-141.94" font-family="Helvetica,sans-Serif" font-size="10.00" fill="grey"> capacity</text>
<text text-anchor="middle" x="305" y="-130.69" font-family="Helvetica,sans-Serif" font-size="10.00" fill="grey">residual_capacity</text>
</g>
<!-- Node6 -->
<g id="Node000006" class="node">
<title>Node6</title>
<g id="a_Node000006"><a xlink:title=" ">
<polygon fill="white" stroke="#666666" points="227.75,-105.25 136.75,-105.25 136.75,-86 227.75,-86 227.75,-105.25"/>
<text text-anchor="middle" x="182.25" y="-91.75" font-family="Helvetica,sans-Serif" font-size="10.00">std::vector&lt; int &gt;</text>
</a>
</g>
</g>
<!-- Node6&#45;&gt;Node1 -->
<g id="edge5_Node000001_Node000006" class="edge">
<title>Node6&#45;&gt;Node1</title>
<g id="a_edge5_Node000001_Node000006"><a xlink:title=" ">
<path fill="none" stroke="#9a32cd" stroke-dasharray="5,2" d="M239.24,-95.89C270.49,-96.82 310.01,-99.28 344.75,-105.38 350.6,-106.4 356.82,-108.01 362.5,-109.69"/>
<polygon fill="#9a32cd" stroke="#9a32cd" points="239.72,-92.4 229.64,-95.66 239.55,-99.4 239.72,-92.4"/>
</a>
</g>
<text text-anchor="middle" x="305" y="-107.12" font-family="Helvetica,sans-Serif" font-size="10.00" fill="grey"> parent</text>
</g>
<!-- Node7 -->
<g id="Node000007" class="node">
<title>Node7</title>
<g id="a_Node000007"><a xlink:title=" ">
<polygon fill="white" stroke="#666666" points="238.25,-67.88 126.25,-67.88 126.25,-37.38 238.25,-37.38 238.25,-67.88"/>
<text text-anchor="start" x="134.25" y="-54.38" font-family="Helvetica,sans-Serif" font-size="10.00">std::vector&lt; std::tuple</text>
<text text-anchor="middle" x="182.25" y="-43.12" font-family="Helvetica,sans-Serif" font-size="10.00">&lt; int, int, int &gt; &gt;</text>
</a>
</g>
</g>
<!-- Node7&#45;&gt;Node1 -->
<g id="edge6_Node000001_Node000007" class="edge">
<title>Node7&#45;&gt;Node1</title>
<g id="a_edge6_Node000001_Node000007"><a xlink:title=" ">
<path fill="none" stroke="#9a32cd" stroke-dasharray="5,2" d="M249.7,-55.93C279.96,-59.54 315.46,-66.82 344.75,-81.38 356.86,-87.39 367.87,-98.46 374.91,-106.59"/>
<polygon fill="#9a32cd" stroke="#9a32cd" points="250.21,-52.47 239.89,-54.89 249.46,-59.43 250.21,-52.47"/>
</a>
</g>
<text text-anchor="middle" x="305" y="-83.12" font-family="Helvetica,sans-Serif" font-size="10.00" fill="grey"> edge_participated</text>
</g>
<!-- Node8 -->
<g id="Node000008" class="node">
<title>Node8</title>
<g id="a_Node000008"><a xlink:title=" ">
<polygon fill="white" stroke="#666666" points="235.62,-19.25 128.88,-19.25 128.88,0 235.62,0 235.62,-19.25"/>
<text text-anchor="middle" x="182.25" y="-5.75" font-family="Helvetica,sans-Serif" font-size="10.00">std::bitset&lt; MAXN &gt;</text>
</a>
</g>
</g>
<!-- Node8&#45;&gt;Node1 -->
<g id="edge7_Node000001_Node000008" class="edge">
<title>Node8&#45;&gt;Node1</title>
<g id="a_edge7_Node000001_Node000008"><a xlink:title=" ">
<path fill="none" stroke="#9a32cd" stroke-dasharray="5,2" d="M247.05,-10.37C279.13,-13.66 316.98,-22.33 344.75,-43.38 365.89,-59.39 376.39,-90.51 380.58,-106.54"/>
<polygon fill="#9a32cd" stroke="#9a32cd" points="247.74,-6.91 237.48,-9.54 247.14,-13.89 247.74,-6.91"/>
</a>
</g>
<text text-anchor="middle" x="305" y="-45.12" font-family="Helvetica,sans-Serif" font-size="10.00" fill="grey"> visited</text>
</g>
</g>
</svg>
</svg>

<style type='text/css'>
<![CDATA[
[data-mouse-over-selected='false'] { opacity: 0.7; }
[data-mouse-over-selected='true']  { opacity: 1.0; }
]]>
</style>
<script type="application/ecmascript"><![CDATA[
document.addEventListener('DOMContentLoaded', (event) => {
  highlightEdges();
  highlightAdjacentNodes();
});
]]></script>
</svg>
