<?xml version="1.0" encoding="UTF-8" standalone="no"?>
<!DOCTYPE svg PUBLIC "-//W3C//DTD SVG 1.1//EN"
 "http://www.w3.org/Graphics/SVG/1.1/DTD/svg11.dtd">
<!-- Generated by graphviz version 5.0.1 (20220820.1526)
 -->
<!-- Title: main Pages: 1 -->
<svg width="602pt" height="359pt"
 viewBox="0.00 0.00 602.00 358.61" xmlns="http://www.w3.org/2000/svg" xmlns:xlink="http://www.w3.org/1999/xlink">
<g id="graph0" class="graph" transform="scale(1 1) rotate(0) translate(4 354.61)">
<title>main</title>
<!-- Node1 -->
<g id="node1" class="node">
<title>Node1</title>
<g id="a_node1"><a xlink:title=" ">
<polygon fill="#999999" stroke="#666666" points="38,-214.5 0,-214.5 0,-195.5 38,-195.5 38,-214.5"/>
<text text-anchor="middle" x="19" y="-202.5" font-family="Helvetica,sans-Serif" font-size="10.00">main</text>
</a>
</g>
</g>
<!-- Node2 -->
<g id="node2" class="node">
<title>Node2</title>
<g id="a_node2"><a xlink:href="../../d4/dd2/namespacequadratic__probing.html#a312143ed316d48978084c025ff8d9768" target="_top" xlink:title=" ">
<polygon fill="white" stroke="#666666" points="173,-196 74,-196 74,-166 173,-166 173,-196"/>
<text text-anchor="start" x="82" y="-184" font-family="Helvetica,sans-Serif" font-size="10.00">quadratic_probing::</text>
<text text-anchor="middle" x="123.5" y="-173" font-family="Helvetica,sans-Serif" font-size="10.00">addInfo</text>
</a>
</g>
</g>
<!-- Node1&#45;&gt;Node2 -->
<g id="edge1" class="edge">
<title>Node1&#45;&gt;Node2</title>
<path fill="none" stroke="#63b8ff" d="M38.32,-200.71C45.76,-198.97 54.8,-196.85 64.16,-194.66"/>
<polygon fill="#63b8ff" stroke="#63b8ff" points="65.04,-198.05 73.98,-192.36 63.45,-191.23 65.04,-198.05"/>
</g>
<!-- Node4 -->
<g id="node4" class="node">
<title>Node4</title>
<g id="a_node4"><a xlink:href="../../d4/dd2/namespacequadratic__probing.html#ab431981b54c0bae1b2956f716aee1dcf" target="_top" xlink:title=" ">
<polygon fill="white" stroke="#666666" points="459,-118 360,-118 360,-88 459,-88 459,-118"/>
<text text-anchor="start" x="368" y="-106" font-family="Helvetica,sans-Serif" font-size="10.00">quadratic_probing::</text>
<text text-anchor="middle" x="409.5" y="-95" font-family="Helvetica,sans-Serif" font-size="10.00">quadraticProbe</text>
</a>
</g>
</g>
<!-- Node1&#45;&gt;Node4 -->
<g id="edge20" class="edge">
<title>Node1&#45;&gt;Node4</title>
<path fill="none" stroke="#63b8ff" d="M27.67,-195.49C37.25,-184.32 54.74,-166.16 74,-157 163.56,-114.39 280.23,-104.48 349.47,-102.68"/>
<polygon fill="#63b8ff" stroke="#63b8ff" points="349.82,-106.18 359.74,-102.47 349.67,-99.18 349.82,-106.18"/>
</g>
<!-- Node5 -->
<g id="node5" class="node">
<title>Node5</title>
<g id="a_node5"><a target="_blank" xlink:href="http://en.cppreference.com/w/cpp/io/manip/endl.html#" xlink:title=" ">
<polygon fill="white" stroke="#666666" points="571.5,-241.5 517.5,-241.5 517.5,-222.5 571.5,-222.5 571.5,-241.5"/>
<text text-anchor="middle" x="544.5" y="-229.5" font-family="Helvetica,sans-Serif" font-size="10.00">std::endl</text>
</a>
</g>
</g>
<!-- Node1&#45;&gt;Node5 -->
<g id="edge18" class="edge">
<title>Node1&#45;&gt;Node5</title>
<path fill="none" stroke="#63b8ff" d="M24.02,-214.65C31.48,-231.44 49,-266.11 74,-286 124.19,-325.93 145.9,-325.48 209,-337 318.99,-357.08 359.41,-359.81 459,-309 487.72,-294.35 514.01,-267.29 529.39,-249.47"/>
<polygon fill="#63b8ff" stroke="#63b8ff" points="532.29,-251.47 536.03,-241.56 526.92,-246.97 532.29,-251.47"/>
</g>
<!-- Node6 -->
<g id="node6" class="node">
<title>Node6</title>
<g id="a_node6"><a xlink:href="../../d4/dd2/namespacequadratic__probing.html#a2093d91dd3d377cf0a5c939e45dcefc7" target="_top" xlink:title=" ">
<polygon fill="white" stroke="#666666" points="594,-30 495,-30 495,0 594,0 594,-30"/>
<text text-anchor="start" x="503" y="-18" font-family="Helvetica,sans-Serif" font-size="10.00">quadratic_probing::</text>
<text text-anchor="middle" x="544.5" y="-7" font-family="Helvetica,sans-Serif" font-size="10.00">hashFxn</text>
</a>
</g>
</g>
<!-- Node1&#45;&gt;Node6 -->
<g id="edge19" class="edge">
<title>Node1&#45;&gt;Node6</title>
<path fill="none" stroke="#63b8ff" d="M23.93,-195.32C31.35,-178.09 48.98,-141.85 74,-120 123.74,-76.58 146.72,-79.93 209,-58 274.28,-35.02 291.44,-29.44 360,-20 401.38,-14.3 448.48,-13.13 484.61,-13.34"/>
<polygon fill="#63b8ff" stroke="#63b8ff" points="484.94,-16.84 494.97,-13.44 485,-9.84 484.94,-16.84"/>
</g>
<!-- Node12 -->
<g id="node12" class="node">
<title>Node12</title>
<g id="a_node12"><a xlink:href="../../d4/dd2/namespacequadratic__probing.html#a40d617ebf4d6ba21bcda8d8d1faa2357" target="_top" xlink:title=" ">
<polygon fill="white" stroke="#666666" points="316,-328 217,-328 217,-298 316,-298 316,-328"/>
<text text-anchor="start" x="225" y="-316" font-family="Helvetica,sans-Serif" font-size="10.00">quadratic_probing::</text>
<text text-anchor="middle" x="266.5" y="-305" font-family="Helvetica,sans-Serif" font-size="10.00">display</text>
</a>
</g>
</g>
<!-- Node1&#45;&gt;Node12 -->
<g id="edge17" class="edge">
<title>Node1&#45;&gt;Node12</title>
<path fill="none" stroke="#63b8ff" d="M28.61,-214.82C38.55,-225.6 55.88,-242.74 74,-253 115.56,-276.53 167.51,-292.06 206.82,-301.42"/>
<polygon fill="#63b8ff" stroke="#63b8ff" points="206.25,-304.88 216.78,-303.72 207.82,-298.06 206.25,-304.88"/>
</g>
<!-- Node13 -->
<g id="node13" class="node">
<title>Node13</title>
<g id="a_node13"><a xlink:href="../../d4/dd2/namespacequadratic__probing.html#a69fe1f7c36fe004ba83eef2ca82e7e30" target="_top" xlink:title=" ">
<polygon fill="white" stroke="#666666" points="173,-244 74,-244 74,-214 173,-214 173,-244"/>
<text text-anchor="start" x="82" y="-232" font-family="Helvetica,sans-Serif" font-size="10.00">quadratic_probing::</text>
<text text-anchor="middle" x="123.5" y="-221" font-family="Helvetica,sans-Serif" font-size="10.00">removalInfo</text>
</a>
</g>
</g>
<!-- Node1&#45;&gt;Node13 -->
<g id="edge21" class="edge">
<title>Node1&#45;&gt;Node13</title>
<path fill="none" stroke="#63b8ff" d="M38.32,-209.29C45.76,-211.03 54.8,-213.15 64.16,-215.34"/>
<polygon fill="#63b8ff" stroke="#63b8ff" points="63.45,-218.77 73.98,-217.64 65.04,-211.95 63.45,-218.77"/>
</g>
<!-- Node3 -->
<g id="node3" class="node">
<title>Node3</title>
<g id="a_node3"><a xlink:href="../../d4/dd2/namespacequadratic__probing.html#a00ebcc6d39653eccc26f8432efbfc8d9" target="_top" xlink:title=" ">
<polygon fill="white" stroke="#666666" points="324,-193.5 209,-193.5 209,-174.5 324,-174.5 324,-193.5"/>
<text text-anchor="middle" x="266.5" y="-181.5" font-family="Helvetica,sans-Serif" font-size="10.00">quadratic_probing::add</text>
</a>
</g>
</g>
<!-- Node2&#45;&gt;Node3 -->
<g id="edge2" class="edge">
<title>Node2&#45;&gt;Node3</title>
<path fill="none" stroke="#63b8ff" d="M173.02,-182.03C181.27,-182.21 189.96,-182.39 198.58,-182.58"/>
<polygon fill="#63b8ff" stroke="#63b8ff" points="198.56,-186.08 208.63,-182.79 198.71,-179.08 198.56,-186.08"/>
</g>
<!-- Node2&#45;&gt;Node5 -->
<g id="edge15" class="edge">
<title>Node2&#45;&gt;Node5</title>
<path fill="none" stroke="#63b8ff" d="M168.9,-165.98C235.65,-146.14 364.14,-118.78 459,-165 482.34,-176.37 474.45,-195.13 495,-211 498.92,-214.03 503.35,-216.72 507.9,-219.07"/>
<polygon fill="#63b8ff" stroke="#63b8ff" points="506.72,-222.38 517.26,-223.44 509.68,-216.04 506.72,-222.38"/>
</g>
<!-- Node2&#45;&gt;Node6 -->
<g id="edge16" class="edge">
<title>Node2&#45;&gt;Node6</title>
<path fill="none" stroke="#63b8ff" d="M145.02,-165.85C184.47,-137.51 274.59,-76.59 360,-46 400.31,-31.56 448.07,-23.76 484.76,-19.6"/>
<polygon fill="#63b8ff" stroke="#63b8ff" points="485.23,-23.07 494.8,-18.52 484.48,-16.11 485.23,-23.07"/>
</g>
<!-- Node2&#45;&gt;Node12 -->
<g id="edge13" class="edge">
<title>Node2&#45;&gt;Node12</title>
<path fill="none" stroke="#63b8ff" d="M159.83,-196.12C164.47,-198.77 168.99,-201.74 173,-205 193.14,-221.39 192.25,-231.17 209,-251 220.3,-264.38 233.45,-278.87 244.22,-290.47"/>
<polygon fill="#63b8ff" stroke="#63b8ff" points="241.86,-293.07 251.24,-298 246.98,-288.3 241.86,-293.07"/>
</g>
<!-- Node3&#45;&gt;Node4 -->
<g id="edge3" class="edge">
<title>Node3&#45;&gt;Node4</title>
<path fill="none" stroke="#63b8ff" d="M292.74,-174.49C302.68,-170.43 314.07,-165.39 324,-160 343.42,-149.45 364,-135.63 379.99,-124.24"/>
<polygon fill="#63b8ff" stroke="#63b8ff" points="382.3,-126.89 388.36,-118.2 378.2,-121.21 382.3,-126.89"/>
</g>
<!-- Node11 -->
<g id="node11" class="node">
<title>Node11</title>
<g id="a_node11"><a xlink:href="../../d4/dd2/namespacequadratic__probing.html#ada6f1f44f7e83b0094fbcbe170788486" target="_top" xlink:title=" ">
<polygon fill="white" stroke="#666666" points="459,-204 360,-204 360,-174 459,-174 459,-204"/>
<text text-anchor="start" x="368" y="-192" font-family="Helvetica,sans-Serif" font-size="10.00">quadratic_probing::</text>
<text text-anchor="middle" x="409.5" y="-181" font-family="Helvetica,sans-Serif" font-size="10.00">rehash</text>
</a>
</g>
</g>
<!-- Node3&#45;&gt;Node11 -->
<g id="edge10" class="edge">
<title>Node3&#45;&gt;Node11</title>
<path fill="none" stroke="#63b8ff" d="M324.04,-179.37C332.43,-179.53 341.09,-179.82 349.53,-180.24"/>
<polygon fill="#63b8ff" stroke="#63b8ff" points="349.49,-183.74 359.67,-180.81 349.88,-176.75 349.49,-183.74"/>
</g>
<!-- Node4&#45;&gt;Node5 -->
<g id="edge4" class="edge">
<title>Node4&#45;&gt;Node5</title>
<path fill="none" stroke="#63b8ff" d="M442.1,-118.09C448.23,-122.01 454.23,-126.66 459,-132 484.72,-160.76 467.46,-183.98 495,-211 498.79,-214.72 503.35,-217.83 508.13,-220.42"/>
<polygon fill="#63b8ff" stroke="#63b8ff" points="506.92,-223.72 517.46,-224.77 509.88,-217.37 506.92,-223.72"/>
</g>
<!-- Node4&#45;&gt;Node6 -->
<g id="edge5" class="edge">
<title>Node4&#45;&gt;Node6</title>
<path fill="none" stroke="#63b8ff" d="M438.16,-87.97C445.17,-83.75 452.54,-78.96 459,-74 476.7,-60.4 476.78,-51.88 495,-39 496.84,-37.7 498.76,-36.43 500.73,-35.2"/>
<polygon fill="#63b8ff" stroke="#63b8ff" points="502.68,-38.12 509.58,-30.08 499.17,-32.06 502.68,-38.12"/>
</g>
<!-- Node7 -->
<g id="node7" class="node">
<title>Node7</title>
<g id="a_node7"><a target="_blank" xlink:href="http://en.cppreference.com/w/cpp/numeric/math/pow.html#" xlink:title=" ">
<polygon fill="white" stroke="#666666" points="571.5,-201.5 517.5,-201.5 517.5,-182.5 571.5,-182.5 571.5,-201.5"/>
<text text-anchor="middle" x="544.5" y="-189.5" font-family="Helvetica,sans-Serif" font-size="10.00">std::pow</text>
</a>
</g>
</g>
<!-- Node4&#45;&gt;Node7 -->
<g id="edge6" class="edge">
<title>Node4&#45;&gt;Node7</title>
<path fill="none" stroke="#63b8ff" d="M439.2,-118.15C445.97,-122.26 452.97,-126.98 459,-132 477.63,-147.52 475.15,-159.07 495,-173 499,-175.81 503.47,-178.27 508.04,-180.42"/>
<polygon fill="#63b8ff" stroke="#63b8ff" points="506.85,-183.72 517.42,-184.39 509.57,-177.27 506.85,-183.72"/>
</g>
<!-- Node8 -->
<g id="node8" class="node">
<title>Node8</title>
<g id="a_node8"><a xlink:href="../../d4/dd2/namespacequadratic__probing.html#adccc63a7e57cc6dba75bd62f40feb88b" target="_top" xlink:title=" ">
<polygon fill="white" stroke="#666666" points="594,-164 495,-164 495,-134 594,-134 594,-164"/>
<text text-anchor="start" x="503" y="-152" font-family="Helvetica,sans-Serif" font-size="10.00">quadratic_probing::</text>
<text text-anchor="middle" x="544.5" y="-141" font-family="Helvetica,sans-Serif" font-size="10.00">putProber</text>
</a>
</g>
</g>
<!-- Node4&#45;&gt;Node8 -->
<g id="edge7" class="edge">
<title>Node4&#45;&gt;Node8</title>
<path fill="none" stroke="#63b8ff" d="M454.05,-118.06C465.65,-122.07 478.3,-126.45 490.35,-130.62"/>
<polygon fill="#63b8ff" stroke="#63b8ff" points="489.26,-133.94 499.85,-133.9 491.55,-127.33 489.26,-133.94"/>
</g>
<!-- Node9 -->
<g id="node9" class="node">
<title>Node9</title>
<g id="a_node9"><a target="_blank" xlink:href="http://en.cppreference.com/w/cpp/numeric/math/round.html#" xlink:title=" ">
<polygon fill="white" stroke="#666666" points="574.5,-115.5 514.5,-115.5 514.5,-96.5 574.5,-96.5 574.5,-115.5"/>
<text text-anchor="middle" x="544.5" y="-103.5" font-family="Helvetica,sans-Serif" font-size="10.00">std::round</text>
</a>
</g>
</g>
<!-- Node4&#45;&gt;Node9 -->
<g id="edge8" class="edge">
<title>Node4&#45;&gt;Node9</title>
<path fill="none" stroke="#63b8ff" d="M459.27,-104.1C474.04,-104.43 490.07,-104.79 504.14,-105.11"/>
<polygon fill="#63b8ff" stroke="#63b8ff" points="504.39,-108.62 514.46,-105.35 504.55,-101.62 504.39,-108.62"/>
</g>
<!-- Node10 -->
<g id="node10" class="node">
<title>Node10</title>
<g id="a_node10"><a xlink:href="../../d4/dd2/namespacequadratic__probing.html#aeb6bca8db4768226f8ea8291ea4f83f6" target="_top" xlink:title=" ">
<polygon fill="white" stroke="#666666" points="594,-78 495,-78 495,-48 594,-48 594,-78"/>
<text text-anchor="start" x="503" y="-66" font-family="Helvetica,sans-Serif" font-size="10.00">quadratic_probing::</text>
<text text-anchor="middle" x="544.5" y="-55" font-family="Helvetica,sans-Serif" font-size="10.00">searchingProber</text>
</a>
</g>
</g>
<!-- Node4&#45;&gt;Node10 -->
<g id="edge9" class="edge">
<title>Node4&#45;&gt;Node10</title>
<path fill="none" stroke="#63b8ff" d="M459.27,-88.33C467.67,-85.81 476.48,-83.16 485.11,-80.56"/>
<polygon fill="#63b8ff" stroke="#63b8ff" points="486.17,-83.9 494.74,-77.67 484.15,-77.19 486.17,-83.9"/>
</g>
<!-- Node11&#45;&gt;Node3 -->
<g id="edge11" class="edge">
<title>Node11&#45;&gt;Node3</title>
<path fill="none" stroke="#63b8ff" d="M359.67,-193.73C351.41,-193.66 342.71,-193.45 334.09,-193.1"/>
<polygon fill="#63b8ff" stroke="#63b8ff" points="334.19,-189.6 324.04,-192.64 333.86,-196.6 334.19,-189.6"/>
</g>
<!-- Node11&#45;&gt;Node5 -->
<g id="edge12" class="edge">
<title>Node11&#45;&gt;Node5</title>
<path fill="none" stroke="#63b8ff" d="M457.02,-204.04C473.61,-209.4 492.03,-215.36 507.59,-220.39"/>
<polygon fill="#63b8ff" stroke="#63b8ff" points="506.77,-223.8 517.36,-223.55 508.92,-217.14 506.77,-223.8"/>
</g>
<!-- Node12&#45;&gt;Node5 -->
<g id="edge14" class="edge">
<title>Node12&#45;&gt;Node5</title>
<path fill="none" stroke="#63b8ff" d="M316.04,-311.01C355.57,-308.13 412.27,-301.11 459,-284 482.61,-275.36 506.77,-259.66 523.17,-247.77"/>
<polygon fill="#63b8ff" stroke="#63b8ff" points="525.5,-250.4 531.44,-241.62 521.32,-244.78 525.5,-250.4"/>
</g>
<!-- Node13&#45;&gt;Node5 -->
<g id="edge23" class="edge">
<title>Node13&#45;&gt;Node5</title>
<path fill="none" stroke="#63b8ff" d="M173.24,-243.94C184.85,-246.87 197.27,-249.5 209,-251 316.99,-264.83 445.88,-248.28 507.38,-238.38"/>
<polygon fill="#63b8ff" stroke="#63b8ff" points="508.06,-241.82 517.36,-236.74 506.93,-234.91 508.06,-241.82"/>
</g>
<!-- Node13&#45;&gt;Node6 -->
<g id="edge24" class="edge">
<title>Node13&#45;&gt;Node6</title>
<path fill="none" stroke="#63b8ff" d="M158.83,-214C163.76,-211.28 168.64,-208.26 173,-205 191.89,-190.87 190.27,-180.33 209,-166 254.78,-130.97 275.22,-136.73 324,-106 340.92,-95.34 342.28,-88.28 360,-79 401.08,-57.47 415.22,-61.32 459,-46 470.29,-42.05 482.39,-37.69 493.8,-33.51"/>
<polygon fill="#63b8ff" stroke="#63b8ff" points="495,-36.8 503.19,-30.07 492.59,-30.23 495,-36.8"/>
</g>
<!-- Node13&#45;&gt;Node12 -->
<g id="edge22" class="edge">
<title>Node13&#45;&gt;Node12</title>
<path fill="none" stroke="#63b8ff" d="M146.35,-244.11C163.19,-255.53 187.2,-271.35 209,-284 214.25,-287.05 219.86,-290.13 225.43,-293.08"/>
<polygon fill="#63b8ff" stroke="#63b8ff" points="224.21,-296.39 234.7,-297.91 227.45,-290.19 224.21,-296.39"/>
</g>
<!-- Node14 -->
<g id="node14" class="node">
<title>Node14</title>
<g id="a_node14"><a xlink:href="../../d4/dd2/namespacequadratic__probing.html#a07a0467b24102260fbb6b554c453c20a" target="_top" xlink:title=" ">
<polygon fill="white" stroke="#666666" points="316,-242 217,-242 217,-212 316,-212 316,-242"/>
<text text-anchor="start" x="225" y="-230" font-family="Helvetica,sans-Serif" font-size="10.00">quadratic_probing::</text>
<text text-anchor="middle" x="266.5" y="-219" font-family="Helvetica,sans-Serif" font-size="10.00">remove</text>
</a>
</g>
</g>
<!-- Node13&#45;&gt;Node14 -->
<g id="edge25" class="edge">
<title>Node13&#45;&gt;Node14</title>
<path fill="none" stroke="#63b8ff" d="M173.02,-228.31C183.88,-228.16 195.51,-227.99 206.73,-227.83"/>
<polygon fill="#63b8ff" stroke="#63b8ff" points="206.94,-231.33 216.89,-227.69 206.84,-224.33 206.94,-231.33"/>
</g>
<!-- Node14&#45;&gt;Node4 -->
<g id="edge27" class="edge">
<title>Node14&#45;&gt;Node4</title>
<path fill="none" stroke="#63b8ff" d="M309.16,-211.98C314.37,-209.35 319.45,-206.35 324,-203 339.37,-191.67 370.96,-152.14 390.86,-126.3"/>
<polygon fill="#63b8ff" stroke="#63b8ff" points="393.82,-128.2 397.12,-118.13 388.26,-123.94 393.82,-128.2"/>
</g>
<!-- Node14&#45;&gt;Node5 -->
<g id="edge26" class="edge">
<title>Node14&#45;&gt;Node5</title>
<path fill="none" stroke="#63b8ff" d="M316.21,-227.88C370.85,-228.87 458.22,-230.46 507.2,-231.34"/>
<polygon fill="#63b8ff" stroke="#63b8ff" points="507.27,-234.84 517.33,-231.53 507.39,-227.85 507.27,-234.84"/>
</g>
</g>
</svg>
