<?xml version="1.0" encoding="UTF-8" standalone="no"?>
<!DOCTYPE svg PUBLIC "-//W3C//DTD SVG 1.1//EN"
 "http://www.w3.org/Graphics/SVG/1.1/DTD/svg11.dtd">
<!-- Generated by graphviz version 9.0.0 (20230911.1827)
 -->
<!-- Title: main Pages: 1 -->
<!--zoomable 360 -->

<svg id="main" version="1.1" xmlns="http://www.w3.org/2000/svg" xmlns:xlink="http://www.w3.org/1999/xlink" xml:space="preserve" onload="init(evt)">
<style type="text/css"><![CDATA[
.node, .edge {opacity: 0.7;}
.node.selected, .edge.selected {opacity: 1;}
.edge:hover path { stroke: red; }
.edge:hover polygon { stroke: red; fill: red; }
]]></style>

<defs>
  <circle id="rim" cx="0" cy="0" r="7"/>
  <circle id="rim2" cx="0" cy="0" r="3.5"/>
  <g id="zoomPlus">
    <use xlink:href="#rim" fill="#404040"><set attributeName="fill" to="#808080" begin="zoomplus.mouseover" end="zoomplus.mouseout"/></use>
    <path d="M-4,0h8M0,-4v8" fill="none" stroke="white" stroke-width="1.5" pointer-events="none"/>
  </g>
  <g id="zoomMin">
    <use xlink:href="#rim" fill="#404040"><set attributeName="fill" to="#808080" begin="zoomminus.mouseover" end="zoomminus.mouseout"/></use>
    <path d="M-4,0h8" fill="none" stroke="white" stroke-width="1.5" pointer-events="none"/>
  </g>
  <g id="arrowUp" transform="translate(30 24)">
    <use xlink:href="#rim"/>
    <path pointer-events="none" fill="none" stroke="white" stroke-width="1.5" d="M0,-3.0v7 M-2.5,-0.5L0,-3.0L2.5,-0.5"/>
  </g>
  <g id="arrowRight" transform="rotate(90) translate(36 -43)">
    <use xlink:href="#rim"/>
    <path pointer-events="none" fill="none" stroke="white" stroke-width="1.5" d="M0,-3.0v7 M-2.5,-0.5L0,-3.0L2.5,-0.5"/>
  </g>
  <g id="arrowDown" transform="rotate(180) translate(-30 -48)">
    <use xlink:href="#rim"/>
    <path pointer-events="none" fill="none" stroke="white" stroke-width="1.5" d="M0,-3.0v7 M-2.5,-0.5L0,-3.0L2.5,-0.5"/>
  </g>
  <g id="arrowLeft" transform="rotate(270) translate(-36 17)">
    <use xlink:href="#rim"/>
    <path pointer-events="none" fill="none" stroke="white" stroke-width="1.5" d="M0,-3.0v7 M-2.5,-0.5L0,-3.0L2.5,-0.5"/>
  </g>
  <g id="resetDef">
    <use xlink:href="#rim2" fill="#404040"><set attributeName="fill" to="#808080" begin="reset.mouseover" end="reset.mouseout"/></use>
  </g>
</defs>
<script type="application/ecmascript">
var viewWidth = 599;
var viewHeight = 360;
var sectionId = 'dynsection-1';
</script>
<script type="application/ecmascript" xlink:href="../../svg.min.js"/>
<svg id="graph" class="graph">
<g id="viewport">
<title>main</title>
<!-- Node1 -->
<g id="Node000001" class="node">
<title>Node1</title>
<g id="a_Node000001"><a xlink:title=" ">
<polygon fill="#999999" stroke="#666666" points="37,-215.88 0,-215.88 0,-196.62 37,-196.62 37,-215.88"/>
<text text-anchor="middle" x="18.5" y="-202.38" font-family="Helvetica,sans-Serif" font-size="10.00">main</text>
</a>
</g>
</g>
<!-- Node2 -->
<g id="Node000002" class="node">
<title>Node2</title>
<g id="a_Node000002"><a xlink:href="../../d4/dd2/namespacequadratic__probing.html#a312143ed316d48978084c025ff8d9768" target="_top" xlink:title=" ">
<polygon fill="white" stroke="#666666" points="171.5,-197.5 73,-197.5 73,-167 171.5,-167 171.5,-197.5"/>
<text text-anchor="start" x="81" y="-184" font-family="Helvetica,sans-Serif" font-size="10.00">quadratic_probing::</text>
<text text-anchor="middle" x="122.25" y="-172.75" font-family="Helvetica,sans-Serif" font-size="10.00">addInfo</text>
</a>
</g>
</g>
<!-- Node1&#45;&gt;Node2 -->
<g id="edge1_Node000001_Node000002" class="edge">
<title>Node1&#45;&gt;Node2</title>
<g id="a_edge1_Node000001_Node000002"><a xlink:title=" ">
<path fill="none" stroke="#63b8ff" d="M37.22,-202.07C44.27,-200.41 52.81,-198.39 61.72,-196.29"/>
<polygon fill="#63b8ff" stroke="#63b8ff" points="62.29,-199.75 71.22,-194.05 60.68,-192.94 62.29,-199.75"/>
</a>
</g>
</g>
<!-- Node4 -->
<g id="Node000004" class="node">
<title>Node4</title>
<g id="a_Node000004"><a xlink:href="../../d4/dd2/namespacequadratic__probing.html#ab431981b54c0bae1b2956f716aee1dcf" target="_top" xlink:title=" ">
<polygon fill="white" stroke="#666666" points="456.25,-119.5 357.75,-119.5 357.75,-89 456.25,-89 456.25,-119.5"/>
<text text-anchor="start" x="365.75" y="-106" font-family="Helvetica,sans-Serif" font-size="10.00">quadratic_probing::</text>
<text text-anchor="middle" x="407" y="-94.75" font-family="Helvetica,sans-Serif" font-size="10.00">quadraticProbe</text>
</a>
</g>
</g>
<!-- Node1&#45;&gt;Node4 -->
<g id="edge20_Node000001_Node000004" class="edge">
<title>Node1&#45;&gt;Node4</title>
<g id="a_edge20_Node000001_Node000004"><a xlink:title=" ">
<path fill="none" stroke="#63b8ff" d="M27.42,-196.34C36.96,-185.15 54.09,-167.31 73,-158.25 161.69,-115.77 277.29,-105.78 346.34,-103.94"/>
<polygon fill="#63b8ff" stroke="#63b8ff" points="346,-107.45 355.92,-103.74 345.85,-100.45 346,-107.45"/>
</a>
</g>
</g>
<!-- Node5 -->
<g id="Node000005" class="node">
<title>Node5</title>
<g id="a_Node000005"><a target="_blank" xlink:href="http://en.cppreference.com/w/cpp/io/manip/endl.html#" xlink:title=" ">
<polygon fill="white" stroke="#666666" points="568.25,-242.88 514.75,-242.88 514.75,-223.62 568.25,-223.62 568.25,-242.88"/>
<text text-anchor="middle" x="541.5" y="-229.38" font-family="Helvetica,sans-Serif" font-size="10.00">std::endl</text>
</a>
</g>
</g>
<!-- Node1&#45;&gt;Node5 -->
<g id="edge18_Node000001_Node000005" class="edge">
<title>Node1&#45;&gt;Node5</title>
<g id="a_edge18_Node000001_Node000005"><a xlink:title=" ">
<path fill="none" stroke="#63b8ff" d="M23.54,-216.31C30.89,-233.43 48.04,-268.3 73,-288.25 122.82,-328.07 144.73,-326.96 207.5,-338.25 317,-357.94 357.2,-360.92 456.25,-310.25 484.34,-295.88 510.08,-269.59 525.53,-251.78"/>
<polygon fill="#63b8ff" stroke="#63b8ff" points="527.89,-254.4 531.65,-244.5 522.54,-249.9 527.89,-254.4"/>
</a>
</g>
</g>
<!-- Node6 -->
<g id="Node000006" class="node">
<title>Node6</title>
<g id="a_Node000006"><a xlink:href="../../d4/dd2/namespacequadratic__probing.html#a2093d91dd3d377cf0a5c939e45dcefc7" target="_top" xlink:title=" ">
<polygon fill="white" stroke="#666666" points="590.75,-30.5 492.25,-30.5 492.25,0 590.75,0 590.75,-30.5"/>
<text text-anchor="start" x="500.25" y="-17" font-family="Helvetica,sans-Serif" font-size="10.00">quadratic_probing::</text>
<text text-anchor="middle" x="541.5" y="-5.75" font-family="Helvetica,sans-Serif" font-size="10.00">hashFxn</text>
</a>
</g>
</g>
<!-- Node1&#45;&gt;Node6 -->
<g id="edge19_Node000001_Node000006" class="edge">
<title>Node1&#45;&gt;Node6</title>
<g id="a_edge19_Node000001_Node000006"><a xlink:title=" ">
<path fill="none" stroke="#63b8ff" d="M23.49,-196.3C30.88,-178.96 48.23,-142.99 73,-121.25 122.47,-77.82 145.51,-81.38 207.5,-59.25 272.47,-36.05 289.44,-29.92 357.75,-20.25 398.44,-14.49 444.72,-13.28 480.53,-13.48"/>
<polygon fill="#63b8ff" stroke="#63b8ff" points="480.22,-16.98 490.25,-13.58 480.29,-9.98 480.22,-16.98"/>
</a>
</g>
</g>
<!-- Node12 -->
<g id="Node000012" class="node">
<title>Node12</title>
<g id="a_Node000012"><a xlink:href="../../d4/dd2/namespacequadratic__probing.html#a40d617ebf4d6ba21bcda8d8d1faa2357" target="_top" xlink:title=" ">
<polygon fill="white" stroke="#666666" points="313.88,-329.5 215.38,-329.5 215.38,-299 313.88,-299 313.88,-329.5"/>
<text text-anchor="start" x="223.38" y="-316" font-family="Helvetica,sans-Serif" font-size="10.00">quadratic_probing::</text>
<text text-anchor="middle" x="264.62" y="-304.75" font-family="Helvetica,sans-Serif" font-size="10.00">display</text>
</a>
</g>
</g>
<!-- Node1&#45;&gt;Node12 -->
<g id="edge17_Node000001_Node000012" class="edge">
<title>Node1&#45;&gt;Node12</title>
<g id="a_edge17_Node000001_Node000012"><a xlink:title=" ">
<path fill="none" stroke="#63b8ff" d="M27.96,-216.3C37.75,-227.33 54.86,-244.85 73,-255.25 113.75,-278.63 164.82,-293.79 203.84,-302.89"/>
<polygon fill="#63b8ff" stroke="#63b8ff" points="203.02,-306.29 213.55,-305.07 204.56,-299.46 203.02,-306.29"/>
</a>
</g>
</g>
<!-- Node13 -->
<g id="Node000013" class="node">
<title>Node13</title>
<g id="a_Node000013"><a xlink:href="../../d4/dd2/namespacequadratic__probing.html#a69fe1f7c36fe004ba83eef2ca82e7e30" target="_top" xlink:title=" ">
<polygon fill="white" stroke="#666666" points="171.5,-246.5 73,-246.5 73,-216 171.5,-216 171.5,-246.5"/>
<text text-anchor="start" x="81" y="-233" font-family="Helvetica,sans-Serif" font-size="10.00">quadratic_probing::</text>
<text text-anchor="middle" x="122.25" y="-221.75" font-family="Helvetica,sans-Serif" font-size="10.00">removalInfo</text>
</a>
</g>
</g>
<!-- Node1&#45;&gt;Node13 -->
<g id="edge21_Node000001_Node000013" class="edge">
<title>Node1&#45;&gt;Node13</title>
<g id="a_edge21_Node000001_Node000013"><a xlink:title=" ">
<path fill="none" stroke="#63b8ff" d="M37.22,-210.6C44.27,-212.34 52.81,-214.43 61.72,-216.62"/>
<polygon fill="#63b8ff" stroke="#63b8ff" points="60.68,-219.97 71.22,-218.96 62.35,-213.17 60.68,-219.97"/>
</a>
</g>
</g>
<!-- Node3 -->
<g id="Node000003" class="node">
<title>Node3</title>
<g id="a_Node000003"><a xlink:href="../../d4/dd2/namespacequadratic__probing.html#a00ebcc6d39653eccc26f8432efbfc8d9" target="_top" xlink:title=" ">
<polygon fill="white" stroke="#666666" points="321.75,-194.88 207.5,-194.88 207.5,-175.62 321.75,-175.62 321.75,-194.88"/>
<text text-anchor="middle" x="264.62" y="-181.38" font-family="Helvetica,sans-Serif" font-size="10.00">quadratic_probing::add</text>
</a>
</g>
</g>
<!-- Node2&#45;&gt;Node3 -->
<g id="edge2_Node000002_Node000003" class="edge">
<title>Node2&#45;&gt;Node3</title>
<g id="a_edge2_Node000002_Node000003"><a xlink:title=" ">
<path fill="none" stroke="#63b8ff" d="M171.95,-183.29C179.7,-183.46 187.84,-183.63 195.93,-183.8"/>
<polygon fill="#63b8ff" stroke="#63b8ff" points="195.71,-187.3 205.79,-184.01 195.86,-180.3 195.71,-187.3"/>
</a>
</g>
</g>
<!-- Node2&#45;&gt;Node5 -->
<g id="edge15_Node000002_Node000005" class="edge">
<title>Node2&#45;&gt;Node5</title>
<g id="a_edge15_Node000002_Node000005"><a xlink:title=" ">
<path fill="none" stroke="#63b8ff" d="M169.95,-166.54C237.07,-146.85 362.98,-120.81 456.25,-166.25 479.59,-177.62 471.72,-196.36 492.25,-212.25 495.99,-215.14 500.19,-217.73 504.51,-220"/>
<polygon fill="#63b8ff" stroke="#63b8ff" points="502.74,-223.04 513.28,-224.13 505.72,-216.7 502.74,-223.04"/>
</a>
</g>
</g>
<!-- Node2&#45;&gt;Node6 -->
<g id="edge16_Node000002_Node000006" class="edge">
<title>Node2&#45;&gt;Node6</title>
<g id="a_edge16_Node000002_Node000006"><a xlink:title=" ">
<path fill="none" stroke="#63b8ff" d="M144.3,-166.7C183.91,-138.24 273.18,-77.92 357.75,-47.25 397.37,-32.88 444.23,-24.84 480.58,-20.42"/>
<polygon fill="#63b8ff" stroke="#63b8ff" points="480.95,-23.9 490.48,-19.28 480.15,-16.94 480.95,-23.9"/>
</a>
</g>
</g>
<!-- Node2&#45;&gt;Node12 -->
<g id="edge13_Node000002_Node000012" class="edge">
<title>Node2&#45;&gt;Node12</title>
<g id="a_edge13_Node000002_Node000012"><a xlink:title=" ">
<path fill="none" stroke="#63b8ff" d="M157.85,-197.9C162.64,-200.71 167.34,-203.84 171.5,-207.25 191.3,-223.5 190.9,-232.75 207.5,-252.25 218.45,-265.11 231.04,-279.09 241.52,-290.51"/>
<polygon fill="#63b8ff" stroke="#63b8ff" points="238.68,-292.59 248.03,-297.57 243.82,-287.85 238.68,-292.59"/>
</a>
</g>
</g>
<!-- Node3&#45;&gt;Node4 -->
<g id="edge3_Node000003_Node000004" class="edge">
<title>Node3&#45;&gt;Node4</title>
<g id="a_edge3_Node000003_Node000004"><a xlink:title=" ">
<path fill="none" stroke="#63b8ff" d="M292.1,-175.15C301.64,-171.19 312.35,-166.38 321.75,-161.25 340.49,-151.02 360.32,-137.74 376.04,-126.57"/>
<polygon fill="#63b8ff" stroke="#63b8ff" points="377.95,-129.51 384.01,-120.82 373.85,-123.83 377.95,-129.51"/>
</a>
</g>
</g>
<!-- Node11 -->
<g id="Node000011" class="node">
<title>Node11</title>
<g id="a_Node000011"><a xlink:href="../../d4/dd2/namespacequadratic__probing.html#ada6f1f44f7e83b0094fbcbe170788486" target="_top" xlink:title=" ">
<polygon fill="white" stroke="#666666" points="456.25,-205.5 357.75,-205.5 357.75,-175 456.25,-175 456.25,-205.5"/>
<text text-anchor="start" x="365.75" y="-192" font-family="Helvetica,sans-Serif" font-size="10.00">quadratic_probing::</text>
<text text-anchor="middle" x="407" y="-180.75" font-family="Helvetica,sans-Serif" font-size="10.00">rehash</text>
</a>
</g>
</g>
<!-- Node3&#45;&gt;Node11 -->
<g id="edge10_Node000003_Node000011" class="edge">
<title>Node3&#45;&gt;Node11</title>
<g id="a_edge10_Node000003_Node000011"><a xlink:title=" ">
<path fill="none" stroke="#63b8ff" d="M321.91,-180.62C329.8,-180.77 337.94,-181.04 345.9,-181.42"/>
<polygon fill="#63b8ff" stroke="#63b8ff" points="345.7,-184.92 355.88,-181.98 346.09,-177.93 345.7,-184.92"/>
</a>
</g>
</g>
<!-- Node4&#45;&gt;Node5 -->
<g id="edge4_Node000004_Node000005" class="edge">
<title>Node4&#45;&gt;Node5</title>
<g id="a_edge4_Node000004_Node000005"><a xlink:title=" ">
<path fill="none" stroke="#63b8ff" d="M440.19,-119.85C446.02,-123.66 451.69,-128.15 456.25,-133.25 481.94,-162.04 464.73,-185.2 492.25,-212.25 495.69,-215.64 499.77,-218.52 504.08,-220.96"/>
<polygon fill="#63b8ff" stroke="#63b8ff" points="502.45,-224.06 512.98,-225.24 505.48,-217.75 502.45,-224.06"/>
</a>
</g>
</g>
<!-- Node4&#45;&gt;Node6 -->
<g id="edge5_Node000004_Node000006" class="edge">
<title>Node4&#45;&gt;Node6</title>
<g id="a_edge5_Node000004_Node000006"><a xlink:title=" ">
<path fill="none" stroke="#63b8ff" d="M436.53,-88.59C443.2,-84.53 450.13,-79.96 456.25,-75.25 473.93,-61.63 474.15,-53.3 492.25,-40.25 493.97,-39.01 495.76,-37.79 497.6,-36.61"/>
<polygon fill="#63b8ff" stroke="#63b8ff" points="498.96,-39.87 505.74,-31.73 495.36,-33.87 498.96,-39.87"/>
</a>
</g>
</g>
<!-- Node7 -->
<g id="Node000007" class="node">
<title>Node7</title>
<g id="a_Node000007"><a target="_blank" xlink:href="http://en.cppreference.com/w/cpp/numeric/math/pow.html#" xlink:title=" ">
<polygon fill="white" stroke="#666666" points="568.25,-202.88 514.75,-202.88 514.75,-183.62 568.25,-183.62 568.25,-202.88"/>
<text text-anchor="middle" x="541.5" y="-189.38" font-family="Helvetica,sans-Serif" font-size="10.00">std::pow</text>
</a>
</g>
</g>
<!-- Node4&#45;&gt;Node7 -->
<g id="edge6_Node000004_Node000007" class="edge">
<title>Node4&#45;&gt;Node7</title>
<g id="a_edge6_Node000004_Node000007"><a xlink:title=" ">
<path fill="none" stroke="#63b8ff" d="M437.31,-119.88C443.81,-123.88 450.47,-128.43 456.25,-133.25 474.86,-148.79 472.41,-160.3 492.25,-174.25 495.88,-176.8 499.89,-179.07 504.01,-181.07"/>
<polygon fill="#63b8ff" stroke="#63b8ff" points="502.35,-184.17 512.92,-184.92 505.13,-177.74 502.35,-184.17"/>
</a>
</g>
</g>
<!-- Node8 -->
<g id="Node000008" class="node">
<title>Node8</title>
<g id="a_Node000008"><a xlink:href="../../d4/dd2/namespacequadratic__probing.html#adccc63a7e57cc6dba75bd62f40feb88b" target="_top" xlink:title=" ">
<polygon fill="white" stroke="#666666" points="590.75,-165.5 492.25,-165.5 492.25,-135 590.75,-135 590.75,-165.5"/>
<text text-anchor="start" x="500.25" y="-152" font-family="Helvetica,sans-Serif" font-size="10.00">quadratic_probing::</text>
<text text-anchor="middle" x="541.5" y="-140.75" font-family="Helvetica,sans-Serif" font-size="10.00">putProber</text>
</a>
</g>
</g>
<!-- Node4&#45;&gt;Node8 -->
<g id="edge7_Node000004_Node000008" class="edge">
<title>Node4&#45;&gt;Node8</title>
<g id="a_edge7_Node000004_Node000008"><a xlink:title=" ">
<path fill="none" stroke="#63b8ff" d="M453.23,-119.95C463.36,-123.47 474.21,-127.24 484.71,-130.88"/>
<polygon fill="#63b8ff" stroke="#63b8ff" points="483.45,-134.15 494.05,-134.12 485.75,-127.54 483.45,-134.15"/>
</a>
</g>
</g>
<!-- Node9 -->
<g id="Node000009" class="node">
<title>Node9</title>
<g id="a_Node000009"><a target="_blank" xlink:href="http://en.cppreference.com/w/cpp/numeric/math/round.html#" xlink:title=" ">
<polygon fill="white" stroke="#666666" points="571.25,-116.88 511.75,-116.88 511.75,-97.62 571.25,-97.62 571.25,-116.88"/>
<text text-anchor="middle" x="541.5" y="-103.38" font-family="Helvetica,sans-Serif" font-size="10.00">std::round</text>
</a>
</g>
</g>
<!-- Node4&#45;&gt;Node9 -->
<g id="edge8_Node000004_Node000009" class="edge">
<title>Node4&#45;&gt;Node9</title>
<g id="a_edge8_Node000004_Node000009"><a xlink:title=" ">
<path fill="none" stroke="#63b8ff" d="M456.59,-105.35C471.01,-105.68 486.64,-106.03 500.46,-106.34"/>
<polygon fill="#63b8ff" stroke="#63b8ff" points="499.98,-109.83 510.06,-106.56 500.14,-102.84 499.98,-109.83"/>
</a>
</g>
</g>
<!-- Node10 -->
<g id="Node000010" class="node">
<title>Node10</title>
<g id="a_Node000010"><a xlink:href="../../d4/dd2/namespacequadratic__probing.html#aeb6bca8db4768226f8ea8291ea4f83f6" target="_top" xlink:title=" ">
<polygon fill="white" stroke="#666666" points="590.75,-79.5 492.25,-79.5 492.25,-49 590.75,-49 590.75,-79.5"/>
<text text-anchor="start" x="500.25" y="-66" font-family="Helvetica,sans-Serif" font-size="10.00">quadratic_probing::</text>
<text text-anchor="middle" x="541.5" y="-54.75" font-family="Helvetica,sans-Serif" font-size="10.00">searchingProber</text>
</a>
</g>
</g>
<!-- Node4&#45;&gt;Node10 -->
<g id="edge9_Node000004_Node000010" class="edge">
<title>Node4&#45;&gt;Node10</title>
<g id="a_edge9_Node000004_Node000010"><a xlink:title=" ">
<path fill="none" stroke="#63b8ff" d="M456.59,-89.58C464.51,-87.19 472.79,-84.69 480.94,-82.23"/>
<polygon fill="#63b8ff" stroke="#63b8ff" points="481.91,-85.59 490.47,-79.35 479.89,-78.89 481.91,-85.59"/>
</a>
</g>
</g>
<!-- Node11&#45;&gt;Node3 -->
<g id="edge11_Node000011_Node000003" class="edge">
<title>Node11&#45;&gt;Node3</title>
<g id="a_edge11_Node000011_Node000003"><a xlink:title=" ">
<path fill="none" stroke="#63b8ff" d="M357.39,-194.98C349.61,-194.92 341.44,-194.72 333.32,-194.41"/>
<polygon fill="#63b8ff" stroke="#63b8ff" points="333.57,-190.92 323.42,-193.95 333.25,-197.91 333.57,-190.92"/>
</a>
</g>
</g>
<!-- Node11&#45;&gt;Node5 -->
<g id="edge12_Node000011_Node000005" class="edge">
<title>Node11&#45;&gt;Node5</title>
<g id="a_edge12_Node000011_Node000005"><a xlink:title=" ">
<path fill="none" stroke="#63b8ff" d="M456.21,-205.9C471.89,-210.99 489.04,-216.55 503.75,-221.32"/>
<polygon fill="#63b8ff" stroke="#63b8ff" points="502.42,-224.57 513.01,-224.33 504.58,-217.91 502.42,-224.57"/>
</a>
</g>
</g>
<!-- Node12&#45;&gt;Node5 -->
<g id="edge14_Node000012_Node000005" class="edge">
<title>Node12&#45;&gt;Node5</title>
<g id="a_edge14_Node000012_Node000005"><a xlink:title=" ">
<path fill="none" stroke="#63b8ff" d="M314.35,-312.21C353.68,-309.31 409.9,-302.27 456.25,-285.25 479.1,-276.86 502.45,-261.84 518.75,-250.09"/>
<polygon fill="#63b8ff" stroke="#63b8ff" points="520.76,-252.96 526.71,-244.19 516.6,-247.34 520.76,-252.96"/>
</a>
</g>
</g>
<!-- Node13&#45;&gt;Node5 -->
<g id="edge23_Node000013_Node000005" class="edge">
<title>Node13&#45;&gt;Node5</title>
<g id="a_edge23_Node000013_Node000005"><a xlink:title=" ">
<path fill="none" stroke="#63b8ff" d="M171.88,-245.51C183.45,-248.31 195.83,-250.82 207.5,-252.25 314.41,-265.37 441.77,-249.39 503.41,-239.68"/>
<polygon fill="#63b8ff" stroke="#63b8ff" points="503.68,-243.18 513,-238.13 502.57,-236.27 503.68,-243.18"/>
</a>
</g>
</g>
<!-- Node13&#45;&gt;Node6 -->
<g id="edge24_Node000013_Node000006" class="edge">
<title>Node13&#45;&gt;Node6</title>
<g id="a_edge24_Node000013_Node000006"><a xlink:title=" ">
<path fill="none" stroke="#63b8ff" d="M157.42,-215.52C162.33,-212.71 167.17,-209.6 171.5,-206.25 190.42,-191.62 188.57,-180.86 207.5,-166.25 252.74,-131.33 273.33,-137.61 321.75,-107.25 338.69,-96.62 340.04,-89.55 357.75,-80.25 398.63,-58.79 412.77,-62.78 456.25,-47.25 467.08,-43.38 478.64,-39.1 489.61,-34.95"/>
<polygon fill="#63b8ff" stroke="#63b8ff" points="490.82,-38.24 498.92,-31.41 488.33,-31.69 490.82,-38.24"/>
</a>
</g>
</g>
<!-- Node13&#45;&gt;Node12 -->
<g id="edge22_Node000013_Node000012" class="edge">
<title>Node13&#45;&gt;Node12</title>
<g id="a_edge22_Node000013_Node000012"><a xlink:title=" ">
<path fill="none" stroke="#63b8ff" d="M146.49,-246.98C163.21,-258.08 186.43,-273.09 207.5,-285.25 212.12,-287.92 217.02,-290.62 221.92,-293.25"/>
<polygon fill="#63b8ff" stroke="#63b8ff" points="220.06,-296.23 230.54,-297.8 223.33,-290.04 220.06,-296.23"/>
</a>
</g>
</g>
<!-- Node14 -->
<g id="Node000014" class="node">
<title>Node14</title>
<g id="a_Node000014"><a xlink:href="../../d4/dd2/namespacequadratic__probing.html#a07a0467b24102260fbb6b554c453c20a" target="_top" xlink:title=" ">
<polygon fill="white" stroke="#666666" points="313.88,-243.5 215.38,-243.5 215.38,-213 313.88,-213 313.88,-243.5"/>
<text text-anchor="start" x="223.38" y="-230" font-family="Helvetica,sans-Serif" font-size="10.00">quadratic_probing::</text>
<text text-anchor="middle" x="264.62" y="-218.75" font-family="Helvetica,sans-Serif" font-size="10.00">remove</text>
</a>
</g>
</g>
<!-- Node13&#45;&gt;Node14 -->
<g id="edge25_Node000013_Node000014" class="edge">
<title>Node13&#45;&gt;Node14</title>
<g id="a_edge25_Node000013_Node000014"><a xlink:title=" ">
<path fill="none" stroke="#63b8ff" d="M171.95,-230.21C182.19,-229.99 193.1,-229.76 203.69,-229.53"/>
<polygon fill="#63b8ff" stroke="#63b8ff" points="203.57,-233.03 213.5,-229.32 203.42,-226.04 203.57,-233.03"/>
</a>
</g>
</g>
<!-- Node14&#45;&gt;Node4 -->
<g id="edge27_Node000014_Node000004" class="edge">
<title>Node14&#45;&gt;Node4</title>
<g id="a_edge27_Node000014_Node000004"><a xlink:title=" ">
<path fill="none" stroke="#63b8ff" d="M308.18,-212.61C312.94,-210.13 317.58,-207.34 321.75,-204.25 336.86,-193.06 367.69,-154.48 387.57,-128.64"/>
<polygon fill="#63b8ff" stroke="#63b8ff" points="390.14,-131.05 393.43,-120.98 384.58,-126.79 390.14,-131.05"/>
</a>
</g>
</g>
<!-- Node14&#45;&gt;Node5 -->
<g id="edge26_Node000014_Node000005" class="edge">
<title>Node14&#45;&gt;Node5</title>
<g id="a_edge26_Node000014_Node000005"><a xlink:title=" ">
<path fill="none" stroke="#63b8ff" d="M314.13,-229.13C368.1,-230.11 454.12,-231.68 503.11,-232.57"/>
<polygon fill="#63b8ff" stroke="#63b8ff" points="502.86,-236.07 512.92,-232.75 502.99,-229.07 502.86,-236.07"/>
</a>
</g>
</g>
</g>
</svg>

<g id="navigator" transform="translate(0 0)" fill="#404254">
  <rect fill="#f2f5e9" fill-opacity="0.5" stroke="#606060" stroke-width=".5" x="0" y="0" width="60" height="60"/>
  <use id="zoomplus" xlink:href="#zoomPlus" x="17" y="9" onmousedown="handleZoom(evt,'in')"/>
  <use id="zoomminus" xlink:href="#zoomMin" x="42" y="9" onmousedown="handleZoom(evt,'out')"/>
  <use id="reset" xlink:href="#resetDef" x="30" y="36" onmousedown="handleReset()"/>
   <use id="arrowup" xlink:href="#arrowUp" x="0" y="0" onmousedown="handlePan(0,-1)"/>
  <use id="arrowright" xlink:href="#arrowRight" x="0" y="0" onmousedown="handlePan(1,0)"/>
  <use id="arrowdown" xlink:href="#arrowDown" x="0" y="0" onmousedown="handlePan(0,1)"/>
  <use id="arrowleft" xlink:href="#arrowLeft" x="0" y="0" onmousedown="handlePan(-1,0)"/>
</g>
<svg viewBox="0 0 15 15" width="100%" height="30px" preserveAspectRatio="xMaxYMin meet">
 <g id="arrow_out" transform="scale(0.3 0.3)">
  <a xlink:href="quadratic__probing__hash__table_8cpp_ae66f6b31b5ad750f1fe042a706a4e3d4_cgraph_org.svg" target="_base">
   <rect id="button" ry="5" rx="5" y="6" x="6" height="38" width="38"
        fill="#f2f5e9" fill-opacity="0.5" stroke="#606060" stroke-width="1.0"/>
   <path id="arrow"
     d="M 11.500037,31.436501 C 11.940474,20.09759 22.043105,11.32322 32.158766,21.979434 L 37.068811,17.246167 C 37.068811,17.246167 37.088388,32 37.088388,32 L 22.160133,31.978069 C 22.160133,31.978069 26.997745,27.140456 26.997745,27.140456 C 18.528582,18.264221 13.291696,25.230495 11.500037,31.436501 z"
     style="fill:#404040;"/>
  </a>
 </g>
</svg>

<style type='text/css'>
<![CDATA[
[data-mouse-over-selected='false'] { opacity: 0.7; }
[data-mouse-over-selected='true']  { opacity: 1.0; }
]]>
</style>
<script type="application/ecmascript"><![CDATA[
document.addEventListener('DOMContentLoaded', (event) => {
  highlightEdges();
  highlightAdjacentNodes();
});
]]></script>
</svg>
