<?xml version="1.0" encoding="UTF-8" standalone="no"?>
<!DOCTYPE svg PUBLIC "-//W3C//DTD SVG 1.1//EN"
 "http://www.w3.org/Graphics/SVG/1.1/DTD/svg11.dtd">
<!-- Generated by graphviz version 8.0.2 (20230410.1723)
 -->
<!-- Title: dsu::get Pages: 1 -->
<svg width="277pt" height="101pt"
 viewBox="0.00 0.00 277.00 101.00" xmlns="http://www.w3.org/2000/svg" xmlns:xlink="http://www.w3.org/1999/xlink">
<g id="graph0" class="graph" transform="scale(1 1) rotate(0) translate(4 97)">
<title>dsu::get</title>
<!-- Node1 -->
<g id="node1" class="node">
<title>Node1</title>
<g id="a_node1"><a xlink:title="prints the minimum, maximum and size of the set to which i belongs to">
<polygon fill="#999999" stroke="#666666" points="52,-56 0,-56 0,-37 52,-37 52,-56"/>
<text text-anchor="middle" x="26" y="-44" font-family="Helvetica,sans-Serif" font-size="10.00">dsu::get</text>
</a>
</g>
</g>
<!-- Node2 -->
<g id="node2" class="node">
<title>Node2</title>
<g id="a_node2"><a xlink:href="../../dd/d1f/classdsu.html#a696141b8b092466767f4bfe1c5e46cde" target="_top" xlink:title="A utility function that returns the max element of the set to which i belongs to.">
<polygon fill="white" stroke="#666666" points="164,-93 88,-93 88,-74 164,-74 164,-93"/>
<text text-anchor="middle" x="126" y="-81" font-family="Helvetica,sans-Serif" font-size="10.00">dsu::get_max</text>
</a>
</g>
</g>
<!-- Node1&#45;&gt;Node2 -->
<g id="edge1" class="edge">
<title>Node1&#45;&gt;Node2</title>
<path fill="none" stroke="#63b8ff" d="M52.49,-56.12C63.46,-60.26 76.48,-65.18 88.45,-69.7"/>
<polygon fill="#63b8ff" stroke="#63b8ff" points="87.02,-73.28 97.61,-73.54 89.49,-66.73 87.02,-73.28"/>
</g>
<!-- Node4 -->
<g id="node4" class="node">
<title>Node4</title>
<g id="a_node4"><a xlink:href="../../dd/d1f/classdsu.html#ac713a5b496d0405c82e2808a85e58415" target="_top" xlink:title="A utility function that returns the min element of the set to which i belongs to.">
<polygon fill="white" stroke="#666666" points="162.5,-56 89.5,-56 89.5,-37 162.5,-37 162.5,-56"/>
<text text-anchor="middle" x="126" y="-44" font-family="Helvetica,sans-Serif" font-size="10.00">dsu::get_min</text>
</a>
</g>
</g>
<!-- Node1&#45;&gt;Node4 -->
<g id="edge4" class="edge">
<title>Node1&#45;&gt;Node4</title>
<path fill="none" stroke="#63b8ff" d="M52.49,-46.5C60.48,-46.5 69.55,-46.5 78.51,-46.5"/>
<polygon fill="#63b8ff" stroke="#63b8ff" points="78.31,-50 88.31,-46.5 78.31,-43 78.31,-50"/>
</g>
<!-- Node5 -->
<g id="node5" class="node">
<title>Node5</title>
<g id="a_node5"><a xlink:href="../../dd/d1f/classdsu.html#a1c24228b0f2f49220133fb8c3566a55c" target="_top" xlink:title="A utility function that returns the size of the set to which i belongs to.">
<polygon fill="white" stroke="#666666" points="154,-19 98,-19 98,0 154,0 154,-19"/>
<text text-anchor="middle" x="126" y="-7" font-family="Helvetica,sans-Serif" font-size="10.00">dsu::size</text>
</a>
</g>
</g>
<!-- Node1&#45;&gt;Node5 -->
<g id="edge6" class="edge">
<title>Node1&#45;&gt;Node5</title>
<path fill="none" stroke="#63b8ff" d="M52.49,-36.88C63.46,-32.74 76.48,-27.82 88.45,-23.3"/>
<polygon fill="#63b8ff" stroke="#63b8ff" points="89.49,-26.27 97.61,-19.46 87.02,-19.72 89.49,-26.27"/>
</g>
<!-- Node3 -->
<g id="node3" class="node">
<title>Node3</title>
<g id="a_node3"><a xlink:href="../../dd/d1f/classdsu.html#a16851f78fe390fc1430905c83d6a2f1c" target="_top" xlink:title="Method to find the representative of the set to which i belongs to, T(n) = O(1)">
<polygon fill="white" stroke="#666666" points="269,-56 200,-56 200,-37 269,-37 269,-56"/>
<text text-anchor="middle" x="234.5" y="-44" font-family="Helvetica,sans-Serif" font-size="10.00">dsu::findSet</text>
</a>
</g>
</g>
<!-- Node2&#45;&gt;Node3 -->
<g id="edge2" class="edge">
<title>Node2&#45;&gt;Node3</title>
<path fill="none" stroke="#63b8ff" d="M155.54,-73.58C167.6,-69.4 181.83,-64.45 194.81,-59.94"/>
<polygon fill="#63b8ff" stroke="#63b8ff" points="195.58,-63.03 203.88,-56.44 193.29,-56.42 195.58,-63.03"/>
</g>
<!-- Node3&#45;&gt;Node3 -->
<g id="edge3" class="edge">
<title>Node3&#45;&gt;Node3</title>
<path fill="none" stroke="#63b8ff" d="M217.51,-56.37C209.77,-64.94 215.43,-74 234.5,-74 245.53,-74 252.07,-70.97 254.13,-66.76"/>
<polygon fill="#63b8ff" stroke="#63b8ff" points="257.35,-66.2 251.49,-57.37 250.56,-67.92 257.35,-66.2"/>
</g>
<!-- Node4&#45;&gt;Node3 -->
<g id="edge5" class="edge">
<title>Node4&#45;&gt;Node3</title>
<path fill="none" stroke="#63b8ff" d="M162.76,-46.5C171.17,-46.5 180.24,-46.5 188.98,-46.5"/>
<polygon fill="#63b8ff" stroke="#63b8ff" points="188.82,-50 198.82,-46.5 188.82,-43 188.82,-50"/>
</g>
<!-- Node5&#45;&gt;Node3 -->
<g id="edge7" class="edge">
<title>Node5&#45;&gt;Node3</title>
<path fill="none" stroke="#63b8ff" d="M154.43,-19.03C166.68,-23.29 181.34,-28.38 194.7,-33.02"/>
<polygon fill="#63b8ff" stroke="#63b8ff" points="193.46,-36.64 204.05,-36.62 195.75,-30.03 193.46,-36.64"/>
</g>
</g>
</svg>
