<?xml version="1.0" encoding="UTF-8" standalone="no"?>
<!DOCTYPE svg PUBLIC "-//W3C//DTD SVG 1.1//EN"
 "http://www.w3.org/Graphics/SVG/1.1/DTD/svg11.dtd">
<!-- Generated by graphviz version 8.1.0 (20230707.0739)
 -->
<!-- Title: data_structures::SegmentTree::update Pages: 1 -->
<svg width="466pt" height="88pt"
 viewBox="0.00 0.00 465.50 87.50" xmlns="http://www.w3.org/2000/svg" xmlns:xlink="http://www.w3.org/1999/xlink">
<g id="graph0" class="graph" transform="scale(1 1) rotate(0) translate(4 83.5)">
<title>data_structures::SegmentTree::update</title>
<!-- Node1 -->
<g id="Node000001" class="node">
<title>Node1</title>
<g id="a_Node000001"><a xlink:title="Updates a value at a certain position.">
<polygon fill="#999999" stroke="#666666" points="128.5,-54.5 0,-54.5 0,-24 128.5,-24 128.5,-54.5"/>
<text text-anchor="start" x="8" y="-41" font-family="Helvetica,sans-Serif" font-size="10.00">data_structures::Segment</text>
<text text-anchor="middle" x="64.25" y="-29.75" font-family="Helvetica,sans-Serif" font-size="10.00">Tree::update</text>
</a>
</g>
</g>
<!-- Node2 -->
<g id="Node000002" class="node">
<title>Node2</title>
<g id="a_Node000002"><a xlink:href="../../dd/d95/classdata__structures_1_1_segment_tree.html#a2a04f1832c5ce86def50c3021b2ab6b1" target="_top" xlink:title="Helper method for update method below.">
<polygon fill="white" stroke="#666666" points="293,-54.5 164.5,-54.5 164.5,-24 293,-24 293,-54.5"/>
<text text-anchor="start" x="172.5" y="-41" font-family="Helvetica,sans-Serif" font-size="10.00">data_structures::Segment</text>
<text text-anchor="middle" x="228.75" y="-29.75" font-family="Helvetica,sans-Serif" font-size="10.00">Tree::update</text>
</a>
</g>
</g>
<!-- Node1&#45;&gt;Node2 -->
<g id="edge1_Node000001_Node000002" class="edge">
<title>Node1&#45;&gt;Node2</title>
<g id="a_edge1_Node000001_Node000002"><a xlink:title=" ">
<path fill="none" stroke="#63b8ff" d="M128.54,-39.25C136.66,-39.25 145.03,-39.25 153.3,-39.25"/>
<polygon fill="#63b8ff" stroke="#63b8ff" points="153.1,-42.75 163.1,-39.25 153.1,-35.75 153.1,-42.75"/>
</a>
</g>
</g>
<!-- Node2&#45;&gt;Node2 -->
<g id="edge4_Node000002_Node000002" class="edge">
<title>Node2&#45;&gt;Node2</title>
<g id="a_edge4_Node000002_Node000002"><a xlink:title=" ">
<path fill="none" stroke="#63b8ff" d="M199.6,-54.99C193.65,-64.06 203.37,-72.5 228.75,-72.5 243.03,-72.5 252.35,-69.83 256.71,-65.88"/>
<polygon fill="#63b8ff" stroke="#63b8ff" points="260.29,-66.31 257.9,-55.99 253.34,-65.55 260.29,-66.31"/>
</a>
</g>
</g>
<!-- Node3 -->
<g id="Node000003" class="node">
<title>Node3</title>
<g id="a_Node000003"><a xlink:href="../../dd/d95/classdata__structures_1_1_segment_tree.html#a8d22286b7be3dcbb701ac5c7d9c79841" target="_top" xlink:title="Any associative function that combines x and y.">
<polygon fill="white" stroke="#666666" points="457.5,-79.5 329,-79.5 329,-49 457.5,-49 457.5,-79.5"/>
<text text-anchor="start" x="337" y="-66" font-family="Helvetica,sans-Serif" font-size="10.00">data_structures::Segment</text>
<text text-anchor="middle" x="393.25" y="-54.75" font-family="Helvetica,sans-Serif" font-size="10.00">Tree::comb</text>
</a>
</g>
</g>
<!-- Node2&#45;&gt;Node3 -->
<g id="edge2_Node000002_Node000003" class="edge">
<title>Node2&#45;&gt;Node3</title>
<g id="a_edge2_Node000002_Node000003"><a xlink:title=" ">
<path fill="none" stroke="#63b8ff" d="M293.04,-48.99C301.16,-50.24 309.53,-51.52 317.8,-52.8"/>
<polygon fill="#63b8ff" stroke="#63b8ff" points="317.18,-56.4 327.6,-54.46 318.24,-49.48 317.18,-56.4"/>
</a>
</g>
</g>
<!-- Node4 -->
<g id="Node000004" class="node">
<title>Node4</title>
<g id="a_Node000004"><a xlink:href="../../dd/d95/classdata__structures_1_1_segment_tree.html#a6d3beccc936af2377c8eeb17067fd141" target="_top" xlink:title="Gives the midpoint between two integers.">
<polygon fill="white" stroke="#666666" points="457.5,-30.5 329,-30.5 329,0 457.5,0 457.5,-30.5"/>
<text text-anchor="start" x="337" y="-17" font-family="Helvetica,sans-Serif" font-size="10.00">data_structures::Segment</text>
<text text-anchor="middle" x="393.25" y="-5.75" font-family="Helvetica,sans-Serif" font-size="10.00">Tree::mid</text>
</a>
</g>
</g>
<!-- Node2&#45;&gt;Node4 -->
<g id="edge3_Node000002_Node000004" class="edge">
<title>Node2&#45;&gt;Node4</title>
<g id="a_edge3_Node000002_Node000004"><a xlink:title=" ">
<path fill="none" stroke="#63b8ff" d="M293.04,-29.9C301.16,-28.7 309.53,-27.47 317.8,-26.25"/>
<polygon fill="#63b8ff" stroke="#63b8ff" points="318.21,-29.57 327.6,-24.65 317.19,-22.65 318.21,-29.57"/>
</a>
</g>
</g>
</g>
</svg>
