<?xml version="1.0" encoding="UTF-8" standalone="no"?>
<!DOCTYPE svg PUBLIC "-//W3C//DTD SVG 1.1//EN"
 "http://www.w3.org/Graphics/SVG/1.1/DTD/svg11.dtd">
<!-- Generated by graphviz version 9.0.0 (20230911.1827)
 -->
<!-- Title: main Pages: 1 -->
<svg width="252pt" height="175pt"
 viewBox="0.00 0.00 251.75 175.25" xmlns="http://www.w3.org/2000/svg" xmlns:xlink="http://www.w3.org/1999/xlink">
<g id="graph0" class="graph" transform="scale(1 1) rotate(0) translate(4 171.25)">
<title>main</title>
<!-- Node1 -->
<g id="Node000001" class="node">
<title>Node1</title>
<g id="a_Node000001"><a xlink:title="Main function.">
<polygon fill="#999999" stroke="#666666" points="37,-93.25 0,-93.25 0,-74 37,-74 37,-93.25"/>
<text text-anchor="middle" x="18.5" y="-79.75" font-family="Helvetica,sans-Serif" font-size="10.00">main</text>
</a>
</g>
</g>
<!-- Node2 -->
<g id="Node000002" class="node">
<title>Node2</title>
<g id="a_Node000002"><a target="_blank" xlink:href="http://en.cppreference.com/w/cpp/numeric/random/srand.html#" xlink:title=" ">
<polygon fill="white" stroke="#666666" points="132.5,-130.25 73,-130.25 73,-111 132.5,-111 132.5,-130.25"/>
<text text-anchor="middle" x="102.75" y="-116.75" font-family="Helvetica,sans-Serif" font-size="10.00">std::srand</text>
</a>
</g>
</g>
<!-- Node1&#45;&gt;Node2 -->
<g id="edge1_Node000001_Node000002" class="edge">
<title>Node1&#45;&gt;Node2</title>
<g id="a_edge1_Node000001_Node000002"><a xlink:title=" ">
<path fill="none" stroke="#63b8ff" d="M37.35,-91.65C46.63,-95.83 58.28,-101.07 69.1,-105.94"/>
<polygon fill="#63b8ff" stroke="#63b8ff" points="67.6,-109.1 78.15,-110.01 70.47,-102.72 67.6,-109.1"/>
</a>
</g>
</g>
<!-- Node3 -->
<g id="Node000003" class="node">
<title>Node3</title>
<g id="a_Node000003"><a xlink:href="../../d1/d21/quick__sort_8cpp.html#a483bb8ccf42aaf7375a83e91490eda1e" target="_top" xlink:title="Self&#45;test implementations.">
<polygon fill="white" stroke="#666666" points="121.62,-93.25 83.88,-93.25 83.88,-74 121.62,-74 121.62,-93.25"/>
<text text-anchor="middle" x="102.75" y="-79.75" font-family="Helvetica,sans-Serif" font-size="10.00">tests</text>
</a>
</g>
</g>
<!-- Node1&#45;&gt;Node3 -->
<g id="edge2_Node000001_Node000003" class="edge">
<title>Node1&#45;&gt;Node3</title>
<g id="a_edge2_Node000001_Node000003"><a xlink:title=" ">
<path fill="none" stroke="#63b8ff" d="M37.35,-83.62C47.52,-83.62 60.52,-83.62 72.17,-83.62"/>
<polygon fill="#63b8ff" stroke="#63b8ff" points="72.14,-87.13 82.14,-83.63 72.14,-80.13 72.14,-87.13"/>
</a>
</g>
</g>
<!-- Node9 -->
<g id="Node000009" class="node">
<title>Node9</title>
<g id="a_Node000009"><a target="_blank" xlink:href="http://en.cppreference.com/w/cpp/chrono/c/time.html#" xlink:title=" ">
<polygon fill="white" stroke="#666666" points="129.88,-56.25 75.62,-56.25 75.62,-37 129.88,-37 129.88,-56.25"/>
<text text-anchor="middle" x="102.75" y="-42.75" font-family="Helvetica,sans-Serif" font-size="10.00">std::time</text>
</a>
</g>
</g>
<!-- Node1&#45;&gt;Node9 -->
<g id="edge8_Node000001_Node000009" class="edge">
<title>Node1&#45;&gt;Node9</title>
<g id="a_edge8_Node000001_Node000009"><a xlink:title=" ">
<path fill="none" stroke="#63b8ff" d="M37.35,-75.6C46.63,-71.42 58.28,-66.18 69.1,-61.31"/>
<polygon fill="#63b8ff" stroke="#63b8ff" points="70.47,-64.53 78.15,-57.24 67.6,-58.15 70.47,-64.53"/>
</a>
</g>
</g>
<!-- Node4 -->
<g id="Node000004" class="node">
<title>Node4</title>
<g id="a_Node000004"><a target="_blank" xlink:href="http://en.cppreference.com/w/cpp/iterator/begin.html#" xlink:title=" ">
<polygon fill="white" stroke="#666666" points="235.5,-167.25 176.75,-167.25 176.75,-148 235.5,-148 235.5,-167.25"/>
<text text-anchor="middle" x="206.12" y="-153.75" font-family="Helvetica,sans-Serif" font-size="10.00">std::begin</text>
</a>
</g>
</g>
<!-- Node3&#45;&gt;Node4 -->
<g id="edge3_Node000003_Node000004" class="edge">
<title>Node3&#45;&gt;Node4</title>
<g id="a_edge3_Node000003_Node000004"><a xlink:title=" ">
<path fill="none" stroke="#63b8ff" d="M121.27,-93.6C125.1,-96.05 129.04,-98.79 132.5,-101.62 150.5,-116.36 149.77,-125.83 168.5,-139.62 169.62,-140.45 170.79,-141.26 171.99,-142.04"/>
<polygon fill="#63b8ff" stroke="#63b8ff" points="169.83,-144.83 180.23,-146.82 173.34,-138.78 169.83,-144.83"/>
</a>
</g>
</g>
<!-- Node5 -->
<g id="Node000005" class="node">
<title>Node5</title>
<g id="a_Node000005"><a target="_blank" xlink:href="http://en.cppreference.com/w/cpp/iterator/end.html#" xlink:title=" ">
<polygon fill="white" stroke="#666666" points="231.75,-130.25 180.5,-130.25 180.5,-111 231.75,-111 231.75,-130.25"/>
<text text-anchor="middle" x="206.12" y="-116.75" font-family="Helvetica,sans-Serif" font-size="10.00">std::end</text>
</a>
</g>
</g>
<!-- Node3&#45;&gt;Node5 -->
<g id="edge4_Node000003_Node000005" class="edge">
<title>Node3&#45;&gt;Node5</title>
<g id="a_edge4_Node000003_Node000005"><a xlink:title=" ">
<path fill="none" stroke="#63b8ff" d="M121.87,-90.24C135.11,-95.07 153.48,-101.77 169.6,-107.66"/>
<polygon fill="#63b8ff" stroke="#63b8ff" points="168.29,-110.91 178.88,-111.05 170.69,-104.33 168.29,-110.91"/>
</a>
</g>
</g>
<!-- Node6 -->
<g id="Node000006" class="node">
<title>Node6</title>
<g id="a_Node000006"><a target="_blank" xlink:href="http://en.cppreference.com/w/cpp/io/manip/endl.html#" xlink:title=" ">
<polygon fill="white" stroke="#666666" points="232.88,-93.25 179.38,-93.25 179.38,-74 232.88,-74 232.88,-93.25"/>
<text text-anchor="middle" x="206.12" y="-79.75" font-family="Helvetica,sans-Serif" font-size="10.00">std::endl</text>
</a>
</g>
</g>
<!-- Node3&#45;&gt;Node6 -->
<g id="edge5_Node000003_Node000006" class="edge">
<title>Node3&#45;&gt;Node6</title>
<g id="a_edge5_Node000003_Node000006"><a xlink:title=" ">
<path fill="none" stroke="#63b8ff" d="M121.87,-83.62C134.58,-83.62 152.02,-83.62 167.66,-83.62"/>
<polygon fill="#63b8ff" stroke="#63b8ff" points="167.64,-87.13 177.64,-83.63 167.64,-80.13 167.64,-87.13"/>
</a>
</g>
</g>
<!-- Node7 -->
<g id="Node000007" class="node">
<title>Node7</title>
<g id="a_Node000007"><a target="_blank" xlink:href="http://en.cppreference.com/w/cpp/algorithm/is_sorted.html#" xlink:title=" ">
<polygon fill="white" stroke="#666666" points="243.75,-56.25 168.5,-56.25 168.5,-37 243.75,-37 243.75,-56.25"/>
<text text-anchor="middle" x="206.12" y="-42.75" font-family="Helvetica,sans-Serif" font-size="10.00">std::is_sorted</text>
</a>
</g>
</g>
<!-- Node3&#45;&gt;Node7 -->
<g id="edge6_Node000003_Node000007" class="edge">
<title>Node3&#45;&gt;Node7</title>
<g id="a_edge6_Node000003_Node000007"><a xlink:title=" ">
<path fill="none" stroke="#63b8ff" d="M121.87,-77.01C134.46,-72.42 151.69,-66.13 167.21,-60.46"/>
<polygon fill="#63b8ff" stroke="#63b8ff" points="167.99,-63.9 176.19,-57.19 165.59,-57.33 167.99,-63.9"/>
</a>
</g>
</g>
<!-- Node8 -->
<g id="Node000008" class="node">
<title>Node8</title>
<g id="a_Node000008"><a target="_blank" xlink:href="http://en.cppreference.com/w/cpp/numeric/random/rand.html#" xlink:title=" ">
<polygon fill="white" stroke="#666666" points="233.25,-19.25 179,-19.25 179,0 233.25,0 233.25,-19.25"/>
<text text-anchor="middle" x="206.12" y="-5.75" font-family="Helvetica,sans-Serif" font-size="10.00">std::rand</text>
</a>
</g>
</g>
<!-- Node3&#45;&gt;Node8 -->
<g id="edge7_Node000003_Node000008" class="edge">
<title>Node3&#45;&gt;Node8</title>
<g id="a_edge7_Node000003_Node000008"><a xlink:title=" ">
<path fill="none" stroke="#63b8ff" d="M121.27,-73.65C125.1,-71.2 129.04,-68.46 132.5,-65.62 150.5,-50.89 149.77,-41.42 168.5,-27.62 169.62,-26.8 170.79,-25.99 171.99,-25.21"/>
<polygon fill="#63b8ff" stroke="#63b8ff" points="173.34,-28.47 180.23,-20.43 169.83,-22.42 173.34,-28.47"/>
</a>
</g>
</g>
</g>
</svg>
