<?xml version="1.0" encoding="UTF-8" standalone="no"?>
<!DOCTYPE svg PUBLIC "-//W3C//DTD SVG 1.1//EN"
 "http://www.w3.org/Graphics/SVG/1.1/DTD/svg11.dtd">
<!-- Generated by graphviz version 12.1.2 (20240928.0832)
 -->
<!-- Title: others::Cache::LRUCache&lt; K, V &gt; Pages: 1 -->
<!--zoomable 129 -->

<svg id="main" version="1.1" xmlns="http://www.w3.org/2000/svg" xmlns:xlink="http://www.w3.org/1999/xlink" xml:space="preserve" onload="init(evt)">

<style type="text/css"><![CDATA[
.node, .edge {opacity: 0.7;}
.node.selected, .edge.selected {opacity: 1;}
.edge:hover path { stroke: red; }
.edge:hover polygon { stroke: red; fill: red; }
]]></style>

<defs>
  <circle id="rim" cx="0" cy="0" r="7"/>
  <circle id="rim2" cx="0" cy="0" r="3.5"/>
  <g id="zoomPlus">
    <use xlink:href="#rim" fill="#404040"><set attributeName="fill" to="#808080" begin="zoomplus.mouseover" end="zoomplus.mouseout"/></use>
    <path d="M-4,0h8M0,-4v8" fill="none" stroke="white" stroke-width="1.5" pointer-events="none"/>
  </g>
  <g id="zoomMin">
    <use xlink:href="#rim" fill="#404040"><set attributeName="fill" to="#808080" begin="zoomminus.mouseover" end="zoomminus.mouseout"/></use>
    <path d="M-4,0h8" fill="none" stroke="white" stroke-width="1.5" pointer-events="none"/>
  </g>
  <g id="arrowUp" transform="translate(30 24)">
    <use xlink:href="#rim"/>
    <path pointer-events="none" fill="none" stroke="white" stroke-width="1.5" d="M0,-3.0v7 M-2.5,-0.5L0,-3.0L2.5,-0.5"/>
  </g>
  <g id="arrowRight" transform="rotate(90) translate(36 -43)">
    <use xlink:href="#rim"/>
    <path pointer-events="none" fill="none" stroke="white" stroke-width="1.5" d="M0,-3.0v7 M-2.5,-0.5L0,-3.0L2.5,-0.5"/>
  </g>
  <g id="arrowDown" transform="rotate(180) translate(-30 -48)">
    <use xlink:href="#rim"/>
    <path pointer-events="none" fill="none" stroke="white" stroke-width="1.5" d="M0,-3.0v7 M-2.5,-0.5L0,-3.0L2.5,-0.5"/>
  </g>
  <g id="arrowLeft" transform="rotate(270) translate(-36 17)">
    <use xlink:href="#rim"/>
    <path pointer-events="none" fill="none" stroke="white" stroke-width="1.5" d="M0,-3.0v7 M-2.5,-0.5L0,-3.0L2.5,-0.5"/>
  </g>
  <g id="resetDef">
    <use xlink:href="#rim2" fill="#404040"><set attributeName="fill" to="#808080" begin="reset.mouseover" end="reset.mouseout"/></use>
  </g>
</defs>
<script type="application/ecmascript">
var viewWidth = 614;
var viewHeight = 129;
var sectionId = 'dynsection-0';
</script>
<script type="application/ecmascript" xlink:href="../../svg.min.js"/>
<svg id="graph" class="graph">
<g id="viewport">
<title>others::Cache::LRUCache&lt; K, V &gt;</title>
<!-- Node1 -->
<g id="Node000001" class="node">
<title>Node1</title>
<g id="a_Node000001"><a xlink:title="LRUCache.">
<polygon fill="#999999" stroke="#666666" points="606.3,-73.88 474.05,-73.88 474.05,-43.38 606.3,-43.38 606.3,-73.88"/>
<text text-anchor="start" x="482.05" y="-60.38" font-family="Helvetica,sans-Serif" font-size="10.00">others::Cache::LRUCache</text>
<text text-anchor="middle" x="540.17" y="-49.12" font-family="Helvetica,sans-Serif" font-size="10.00">&lt; K, V &gt;</text>
</a>
</g>
</g>
<!-- Node2 -->
<g id="Node000002" class="node">
<title>Node2</title>
<g id="a_Node000002"><a xlink:href="../../de/d21/classothers_1_1_cache_1_1_d___node.html" target="_top" xlink:title=" ">
<polygon fill="white" stroke="#666666" points="206.05,-116.88 86.55,-116.88 86.55,-86.38 206.05,-86.38 206.05,-116.88"/>
<text text-anchor="start" x="94.55" y="-103.38" font-family="Helvetica,sans-Serif" font-size="10.00">others::Cache::D_Node</text>
<text text-anchor="middle" x="146.3" y="-92.12" font-family="Helvetica,sans-Serif" font-size="10.00">&lt; K, V &gt;</text>
</a>
</g>
</g>
<!-- Node2&#45;&gt;Node1 -->
<g id="edge1_Node000001_Node000002" class="edge">
<title>Node2&#45;&gt;Node1</title>
<g id="a_edge1_Node000001_Node000002"><a xlink:title=" ">
<path fill="none" stroke="#9a32cd" stroke-dasharray="5,2" d="M217.35,-101.3C233.59,-100.99 250.81,-100.47 266.8,-99.62 321.72,-96.72 335.62,-96.5 390.05,-88.62 417.62,-84.63 447.8,-78.84 473.74,-73.4"/>
<polygon fill="#9a32cd" stroke="#9a32cd" points="217.74,-97.79 207.8,-101.46 217.86,-104.79 217.74,-97.79"/>
</a>
</g>
<text text-anchor="middle" x="337.42" y="-111.66" font-family="Helvetica,sans-Serif" font-size="10.00" fill="grey"> head</text>
<text text-anchor="middle" x="337.42" y="-100.41" font-family="Helvetica,sans-Serif" font-size="10.00" fill="grey">tail</text>
</g>
<!-- Node5 -->
<g id="Node000005" class="node">
<title>Node5</title>
<g id="a_Node000005"><a target="_blank" xlink:href="http://en.cppreference.com/w/cpp/container/unordered_map.html" xlink:title=" ">
<polygon fill="white" stroke="#666666" points="390.05,-79.5 284.8,-79.5 284.8,-37.75 390.05,-37.75 390.05,-79.5"/>
<text text-anchor="start" x="292.8" y="-66" font-family="Helvetica,sans-Serif" font-size="10.00">std::unordered_map</text>
<text text-anchor="start" x="292.8" y="-54.75" font-family="Helvetica,sans-Serif" font-size="10.00">&lt; K, others::Cache::</text>
<text text-anchor="middle" x="337.42" y="-43.5" font-family="Helvetica,sans-Serif" font-size="10.00">D_Node&lt; K, V &gt; * &gt;</text>
</a>
</g>
</g>
<!-- Node2&#45;&gt;Node5 -->
<g id="edge6_Node000005_Node000002" class="edge">
<title>Node2&#45;&gt;Node5</title>
<g id="a_edge6_Node000005_Node000002"><a xlink:title=" ">
<path fill="none" stroke="#9a32cd" stroke-dasharray="5,2" d="M217.44,-85.68C239.66,-80.63 263.82,-75.13 284.52,-70.43"/>
<polygon fill="#9a32cd" stroke="#9a32cd" points="216.81,-82.23 207.84,-87.86 218.37,-89.06 216.81,-82.23"/>
</a>
</g>
<text text-anchor="middle" x="245.42" y="-85.73" font-family="Helvetica,sans-Serif" font-size="10.00" fill="grey"> elements</text>
</g>
<!-- Node3 -->
<g id="Node000003" class="node">
<title>Node3</title>
<g id="a_Node000003"><a xlink:title=" ">
<polygon fill="white" stroke="#bfbfbf" points="28.8,-82.25 0,-82.25 0,-63 28.8,-63 28.8,-82.25"/>
<text text-anchor="middle" x="14.4" y="-68.75" font-family="Helvetica,sans-Serif" font-size="10.00">K</text>
</a>
</g>
</g>
<!-- Node3&#45;&gt;Node2 -->
<g id="edge2_Node000002_Node000003" class="edge">
<title>Node3&#45;&gt;Node2</title>
<g id="a_edge2_Node000002_Node000003"><a xlink:title=" ">
<path fill="none" stroke="#9a32cd" stroke-dasharray="5,2" d="M39.77,-78.07C52.98,-81.01 69.92,-84.8 86.34,-88.46"/>
<polygon fill="#9a32cd" stroke="#9a32cd" points="40.81,-74.71 30.29,-75.95 39.29,-81.54 40.81,-74.71"/>
</a>
</g>
<text text-anchor="middle" x="57.67" y="-85.42" font-family="Helvetica,sans-Serif" font-size="10.00" fill="grey"> data</text>
</g>
<!-- Node3&#45;&gt;Node5 -->
<g id="edge5_Node000005_Node000003" class="edge">
<title>Node3&#45;&gt;Node5</title>
<g id="a_edge5_Node000005_Node000003"><a xlink:title=" ">
<path fill="none" stroke="#9a32cd" stroke-dasharray="5,2" d="M40.64,-70.06C54.23,-68.76 71.29,-67.28 86.55,-66.38 155,-62.31 234.14,-60.31 284.7,-59.38"/>
<polygon fill="#9a32cd" stroke="#9a32cd" points="40.41,-66.56 30.8,-71.02 41.09,-73.53 40.41,-66.56"/>
</a>
</g>
<text text-anchor="middle" x="146.3" y="-68.12" font-family="Helvetica,sans-Serif" font-size="10.00" fill="grey"> keys</text>
</g>
<!-- Node4 -->
<g id="Node000004" class="node">
<title>Node4</title>
<g id="a_Node000004"><a target="_blank" xlink:href="http://en.cppreference.com/w/cpp/types/integer.html" xlink:title=" ">
<polygon fill="white" stroke="#bfbfbf" points="372.42,-19.25 302.42,-19.25 302.42,0 372.42,0 372.42,-19.25"/>
<text text-anchor="middle" x="337.42" y="-5.75" font-family="Helvetica,sans-Serif" font-size="10.00">std::uint32_t</text>
</a>
</g>
</g>
<!-- Node4&#45;&gt;Node1 -->
<g id="edge3_Node000001_Node000004" class="edge">
<title>Node4&#45;&gt;Node1</title>
<g id="a_edge3_Node000001_Node000004"><a xlink:title=" ">
<path fill="none" stroke="#9a32cd" stroke-dasharray="5,2" d="M383.51,-20.63C410.45,-27.2 445.1,-35.66 474.87,-42.93"/>
<polygon fill="#9a32cd" stroke="#9a32cd" points="384.49,-17.27 373.95,-18.3 382.83,-24.07 384.49,-17.27"/>
</a>
</g>
<text text-anchor="middle" x="432.05" y="-38.81" font-family="Helvetica,sans-Serif" font-size="10.00" fill="grey"> _capacity</text>
</g>
<!-- Node5&#45;&gt;Node1 -->
<g id="edge4_Node000001_Node000005" class="edge">
<title>Node5&#45;&gt;Node1</title>
<g id="a_edge4_Node000001_Node000005"><a xlink:title=" ">
<path fill="none" stroke="#9a32cd" stroke-dasharray="5,2" d="M401.73,-58.62C424.68,-58.62 450.63,-58.62 473.76,-58.62"/>
<polygon fill="#9a32cd" stroke="#9a32cd" points="401.9,-55.13 391.9,-58.63 401.9,-62.13 401.9,-55.13"/>
</a>
</g>
<text text-anchor="middle" x="432.05" y="-60.38" font-family="Helvetica,sans-Serif" font-size="10.00" fill="grey"> node_map</text>
</g>
</g>
</svg>

<g id="navigator" transform="translate(0 0)" fill="#404254">
  <rect fill="#f2f5e9" fill-opacity="0.5" stroke="#606060" stroke-width=".5" x="0" y="0" width="60" height="60"/>
  <use id="zoomplus" xlink:href="#zoomPlus" x="17" y="9" onmousedown="handleZoom(evt,'in')"/>
  <use id="zoomminus" xlink:href="#zoomMin" x="42" y="9" onmousedown="handleZoom(evt,'out')"/>
  <use id="reset" xlink:href="#resetDef" x="30" y="36" onmousedown="handleReset()"/>
   <use id="arrowup" xlink:href="#arrowUp" x="0" y="0" onmousedown="handlePan(0,-1)"/>
  <use id="arrowright" xlink:href="#arrowRight" x="0" y="0" onmousedown="handlePan(1,0)"/>
  <use id="arrowdown" xlink:href="#arrowDown" x="0" y="0" onmousedown="handlePan(0,1)"/>
  <use id="arrowleft" xlink:href="#arrowLeft" x="0" y="0" onmousedown="handlePan(-1,0)"/>
</g>
<svg viewBox="0 0 15 15" width="100%" height="30px" preserveAspectRatio="xMaxYMin meet">
 <g id="arrow_out" transform="scale(0.3 0.3)">
  <a xlink:href="classothers_1_1_cache_1_1_l_r_u_cache__coll__graph_org.svg" target="_base">
   <rect id="button" ry="5" rx="5" y="6" x="6" height="38" width="38"
        fill="#f2f5e9" fill-opacity="0.5" stroke="#606060" stroke-width="1.0"/>
   <path id="arrow"
     d="M 11.500037,31.436501 C 11.940474,20.09759 22.043105,11.32322 32.158766,21.979434 L 37.068811,17.246167 C 37.068811,17.246167 37.088388,32 37.088388,32 L 22.160133,31.978069 C 22.160133,31.978069 26.997745,27.140456 26.997745,27.140456 C 18.528582,18.264221 13.291696,25.230495 11.500037,31.436501 z"
     style="fill:#404040;"/>
  </a>
 </g>
</svg>

<style type='text/css'>
<![CDATA[
[data-mouse-over-selected='false'] { opacity: 0.7; }
[data-mouse-over-selected='true']  { opacity: 1.0; }
]]>
</style>
<script type="application/ecmascript"><![CDATA[
document.addEventListener('DOMContentLoaded', (event) => {
  highlightEdges();
  highlightAdjacentNodes();
});
]]></script>
</svg>
