<?xml version="1.0" encoding="UTF-8" standalone="no"?>
<!DOCTYPE svg PUBLIC "-//W3C//DTD SVG 1.1//EN"
 "http://www.w3.org/Graphics/SVG/1.1/DTD/svg11.dtd">
<!-- Generated by graphviz version 12.1.2 (20240928.0832)
 -->
<!-- Title: others::Cache::LRUCache&lt; K, V &gt; Pages: 1 -->
<svg width="614pt" height="129pt"
 viewBox="0.00 0.00 614.30 129.16" xmlns="http://www.w3.org/2000/svg" xmlns:xlink="http://www.w3.org/1999/xlink">
<g id="graph0" class="graph" transform="scale(1 1) rotate(0) translate(4 125.16)">
<title>others::Cache::LRUCache&lt; K, V &gt;</title>
<!-- Node1 -->
<g id="Node000001" class="node">
<title>Node1</title>
<g id="a_Node000001"><a xlink:title="LRUCache.">
<polygon fill="#999999" stroke="#666666" points="606.3,-73.88 474.05,-73.88 474.05,-43.38 606.3,-43.38 606.3,-73.88"/>
<text text-anchor="start" x="482.05" y="-60.38" font-family="Helvetica,sans-Serif" font-size="10.00">others::Cache::LRUCache</text>
<text text-anchor="middle" x="540.17" y="-49.12" font-family="Helvetica,sans-Serif" font-size="10.00">&lt; K, V &gt;</text>
</a>
</g>
</g>
<!-- Node2 -->
<g id="Node000002" class="node">
<title>Node2</title>
<g id="a_Node000002"><a xlink:href="../../de/d21/classothers_1_1_cache_1_1_d___node.html" target="_top" xlink:title=" ">
<polygon fill="white" stroke="#666666" points="206.05,-116.88 86.55,-116.88 86.55,-86.38 206.05,-86.38 206.05,-116.88"/>
<text text-anchor="start" x="94.55" y="-103.38" font-family="Helvetica,sans-Serif" font-size="10.00">others::Cache::D_Node</text>
<text text-anchor="middle" x="146.3" y="-92.12" font-family="Helvetica,sans-Serif" font-size="10.00">&lt; K, V &gt;</text>
</a>
</g>
</g>
<!-- Node2&#45;&gt;Node1 -->
<g id="edge1_Node000001_Node000002" class="edge">
<title>Node2&#45;&gt;Node1</title>
<g id="a_edge1_Node000001_Node000002"><a xlink:title=" ">
<path fill="none" stroke="#9a32cd" stroke-dasharray="5,2" d="M217.35,-101.3C233.59,-100.99 250.81,-100.47 266.8,-99.62 321.72,-96.72 335.62,-96.5 390.05,-88.62 417.62,-84.63 447.8,-78.84 473.74,-73.4"/>
<polygon fill="#9a32cd" stroke="#9a32cd" points="217.74,-97.79 207.8,-101.46 217.86,-104.79 217.74,-97.79"/>
</a>
</g>
<text text-anchor="middle" x="337.42" y="-111.66" font-family="Helvetica,sans-Serif" font-size="10.00" fill="grey"> head</text>
<text text-anchor="middle" x="337.42" y="-100.41" font-family="Helvetica,sans-Serif" font-size="10.00" fill="grey">tail</text>
</g>
<!-- Node5 -->
<g id="Node000005" class="node">
<title>Node5</title>
<g id="a_Node000005"><a target="_blank" xlink:href="http://en.cppreference.com/w/cpp/container/unordered_map.html" xlink:title=" ">
<polygon fill="white" stroke="#666666" points="390.05,-79.5 284.8,-79.5 284.8,-37.75 390.05,-37.75 390.05,-79.5"/>
<text text-anchor="start" x="292.8" y="-66" font-family="Helvetica,sans-Serif" font-size="10.00">std::unordered_map</text>
<text text-anchor="start" x="292.8" y="-54.75" font-family="Helvetica,sans-Serif" font-size="10.00">&lt; K, others::Cache::</text>
<text text-anchor="middle" x="337.42" y="-43.5" font-family="Helvetica,sans-Serif" font-size="10.00">D_Node&lt; K, V &gt; * &gt;</text>
</a>
</g>
</g>
<!-- Node2&#45;&gt;Node5 -->
<g id="edge6_Node000005_Node000002" class="edge">
<title>Node2&#45;&gt;Node5</title>
<g id="a_edge6_Node000005_Node000002"><a xlink:title=" ">
<path fill="none" stroke="#9a32cd" stroke-dasharray="5,2" d="M217.44,-85.68C239.66,-80.63 263.82,-75.13 284.52,-70.43"/>
<polygon fill="#9a32cd" stroke="#9a32cd" points="216.81,-82.23 207.84,-87.86 218.37,-89.06 216.81,-82.23"/>
</a>
</g>
<text text-anchor="middle" x="245.42" y="-85.73" font-family="Helvetica,sans-Serif" font-size="10.00" fill="grey"> elements</text>
</g>
<!-- Node3 -->
<g id="Node000003" class="node">
<title>Node3</title>
<g id="a_Node000003"><a xlink:title=" ">
<polygon fill="white" stroke="#bfbfbf" points="28.8,-82.25 0,-82.25 0,-63 28.8,-63 28.8,-82.25"/>
<text text-anchor="middle" x="14.4" y="-68.75" font-family="Helvetica,sans-Serif" font-size="10.00">K</text>
</a>
</g>
</g>
<!-- Node3&#45;&gt;Node2 -->
<g id="edge2_Node000002_Node000003" class="edge">
<title>Node3&#45;&gt;Node2</title>
<g id="a_edge2_Node000002_Node000003"><a xlink:title=" ">
<path fill="none" stroke="#9a32cd" stroke-dasharray="5,2" d="M39.77,-78.07C52.98,-81.01 69.92,-84.8 86.34,-88.46"/>
<polygon fill="#9a32cd" stroke="#9a32cd" points="40.81,-74.71 30.29,-75.95 39.29,-81.54 40.81,-74.71"/>
</a>
</g>
<text text-anchor="middle" x="57.67" y="-85.42" font-family="Helvetica,sans-Serif" font-size="10.00" fill="grey"> data</text>
</g>
<!-- Node3&#45;&gt;Node5 -->
<g id="edge5_Node000005_Node000003" class="edge">
<title>Node3&#45;&gt;Node5</title>
<g id="a_edge5_Node000005_Node000003"><a xlink:title=" ">
<path fill="none" stroke="#9a32cd" stroke-dasharray="5,2" d="M40.64,-70.06C54.23,-68.76 71.29,-67.28 86.55,-66.38 155,-62.31 234.14,-60.31 284.7,-59.38"/>
<polygon fill="#9a32cd" stroke="#9a32cd" points="40.41,-66.56 30.8,-71.02 41.09,-73.53 40.41,-66.56"/>
</a>
</g>
<text text-anchor="middle" x="146.3" y="-68.12" font-family="Helvetica,sans-Serif" font-size="10.00" fill="grey"> keys</text>
</g>
<!-- Node4 -->
<g id="Node000004" class="node">
<title>Node4</title>
<g id="a_Node000004"><a target="_blank" xlink:href="http://en.cppreference.com/w/cpp/types/integer.html" xlink:title=" ">
<polygon fill="white" stroke="#bfbfbf" points="372.42,-19.25 302.42,-19.25 302.42,0 372.42,0 372.42,-19.25"/>
<text text-anchor="middle" x="337.42" y="-5.75" font-family="Helvetica,sans-Serif" font-size="10.00">std::uint32_t</text>
</a>
</g>
</g>
<!-- Node4&#45;&gt;Node1 -->
<g id="edge3_Node000001_Node000004" class="edge">
<title>Node4&#45;&gt;Node1</title>
<g id="a_edge3_Node000001_Node000004"><a xlink:title=" ">
<path fill="none" stroke="#9a32cd" stroke-dasharray="5,2" d="M383.51,-20.63C410.45,-27.2 445.1,-35.66 474.87,-42.93"/>
<polygon fill="#9a32cd" stroke="#9a32cd" points="384.49,-17.27 373.95,-18.3 382.83,-24.07 384.49,-17.27"/>
</a>
</g>
<text text-anchor="middle" x="432.05" y="-38.81" font-family="Helvetica,sans-Serif" font-size="10.00" fill="grey"> _capacity</text>
</g>
<!-- Node5&#45;&gt;Node1 -->
<g id="edge4_Node000001_Node000005" class="edge">
<title>Node5&#45;&gt;Node1</title>
<g id="a_edge4_Node000001_Node000005"><a xlink:title=" ">
<path fill="none" stroke="#9a32cd" stroke-dasharray="5,2" d="M401.73,-58.62C424.68,-58.62 450.63,-58.62 473.76,-58.62"/>
<polygon fill="#9a32cd" stroke="#9a32cd" points="401.9,-55.13 391.9,-58.63 401.9,-62.13 401.9,-55.13"/>
</a>
</g>
<text text-anchor="middle" x="432.05" y="-60.38" font-family="Helvetica,sans-Serif" font-size="10.00" fill="grey"> node_map</text>
</g>
</g>
</svg>
