<?xml version="1.0" encoding="UTF-8" standalone="no"?>
<!DOCTYPE svg PUBLIC "-//W3C//DTD SVG 1.1//EN"
 "http://www.w3.org/Graphics/SVG/1.1/DTD/svg11.dtd">
<!-- Generated by graphviz version 9.0.0 (20230911.1827)
 -->
<!-- Title: main Pages: 1 -->
<svg width="561pt" height="426pt"
 viewBox="0.00 0.00 561.25 425.50" xmlns="http://www.w3.org/2000/svg" xmlns:xlink="http://www.w3.org/1999/xlink">
<g id="graph0" class="graph" transform="scale(1 1) rotate(0) translate(4 421.5)">
<title>main</title>
<!-- Node1 -->
<g id="Node000001" class="node">
<title>Node1</title>
<g id="a_Node000001"><a xlink:title="Main function.">
<polygon fill="#999999" stroke="#666666" points="37,-188.5 0,-188.5 0,-169.25 37,-169.25 37,-188.5"/>
<text text-anchor="middle" x="18.5" y="-175" font-family="Helvetica,sans-Serif" font-size="10.00">main</text>
</a>
</g>
</g>
<!-- Node2 -->
<g id="Node000002" class="node">
<title>Node2</title>
<g id="a_Node000002"><a xlink:href="../../d5/d8a/trie__using__hashmap_8cpp.html#aa8dca7b867074164d5f45b0f3851269d" target="_top" xlink:title="Self&#45;test implementations.">
<polygon fill="white" stroke="#666666" points="105.5,-188.5 73,-188.5 73,-169.25 105.5,-169.25 105.5,-188.5"/>
<text text-anchor="middle" x="89.25" y="-175" font-family="Helvetica,sans-Serif" font-size="10.00">test</text>
</a>
</g>
</g>
<!-- Node1&#45;&gt;Node2 -->
<g id="edge1_Node000001_Node000002" class="edge">
<title>Node1&#45;&gt;Node2</title>
<g id="a_edge1_Node000001_Node000002"><a xlink:title=" ">
<path fill="none" stroke="#63b8ff" d="M37.2,-178.88C44.58,-178.88 53.31,-178.88 61.45,-178.88"/>
<polygon fill="#63b8ff" stroke="#63b8ff" points="61.2,-182.38 71.2,-178.88 61.2,-175.38 61.2,-182.38"/>
</a>
</g>
</g>
<!-- Node3 -->
<g id="Node000003" class="node">
<title>Node3</title>
<g id="a_Node000003"><a xlink:href="../../d3/d26/classdata__structures_1_1trie__using__hashmap_1_1_trie.html#ac0bf3d6791cba144b3f539835d835e75" target="_top" xlink:title="delete a word/string from a trie">
<polygon fill="white" stroke="#666666" points="253.5,-357.75 141.5,-357.75 141.5,-316 253.5,-316 253.5,-357.75"/>
<text text-anchor="start" x="149.5" y="-344.25" font-family="Helvetica,sans-Serif" font-size="10.00">data_structures::trie</text>
<text text-anchor="start" x="149.5" y="-333" font-family="Helvetica,sans-Serif" font-size="10.00">_using_hashmap::Trie</text>
<text text-anchor="middle" x="197.5" y="-321.75" font-family="Helvetica,sans-Serif" font-size="10.00">::delete_word</text>
</a>
</g>
</g>
<!-- Node2&#45;&gt;Node3 -->
<g id="edge2_Node000002_Node000003" class="edge">
<title>Node2&#45;&gt;Node3</title>
<g id="a_edge2_Node000002_Node000003"><a xlink:title=" ">
<path fill="none" stroke="#63b8ff" d="M91.84,-188.73C96.05,-211.93 109.39,-270.72 141.5,-306.88 141.85,-307.27 142.21,-307.66 142.58,-308.05"/>
<polygon fill="#63b8ff" stroke="#63b8ff" points="140.09,-310.53 149.88,-314.58 144.76,-305.31 140.09,-310.53"/>
</a>
</g>
</g>
<!-- Node9 -->
<g id="Node000009" class="node">
<title>Node9</title>
<g id="a_Node000009"><a target="_blank" xlink:href="http://en.cppreference.com/w/cpp/io/manip/endl.html#" xlink:title=" ">
<polygon fill="white" stroke="#666666" points="224.25,-297.5 170.75,-297.5 170.75,-278.25 224.25,-278.25 224.25,-297.5"/>
<text text-anchor="middle" x="197.5" y="-284" font-family="Helvetica,sans-Serif" font-size="10.00">std::endl</text>
</a>
</g>
</g>
<!-- Node2&#45;&gt;Node9 -->
<g id="edge8_Node000002_Node000009" class="edge">
<title>Node2&#45;&gt;Node9</title>
<g id="a_edge8_Node000002_Node000009"><a xlink:title=" ">
<path fill="none" stroke="#63b8ff" d="M93.28,-188.8C99.39,-207.22 114.94,-246.82 141.5,-268.88 146.78,-273.26 153.13,-276.65 159.6,-279.27"/>
<polygon fill="#63b8ff" stroke="#63b8ff" points="158.44,-282.57 169.03,-282.5 160.71,-275.95 158.44,-282.57"/>
</a>
</g>
</g>
<!-- Node10 -->
<g id="Node000010" class="node">
<title>Node10</title>
<g id="a_Node000010"><a xlink:href="../../d3/d26/classdata__structures_1_1trie__using__hashmap_1_1_trie.html#abcae0a4456e7f583ce716e3ef466dfd2" target="_top" xlink:title="insert the string into the trie">
<polygon fill="white" stroke="#666666" points="253.5,-259.75 141.5,-259.75 141.5,-218 253.5,-218 253.5,-259.75"/>
<text text-anchor="start" x="149.5" y="-246.25" font-family="Helvetica,sans-Serif" font-size="10.00">data_structures::trie</text>
<text text-anchor="start" x="149.5" y="-235" font-family="Helvetica,sans-Serif" font-size="10.00">_using_hashmap::Trie</text>
<text text-anchor="middle" x="197.5" y="-223.75" font-family="Helvetica,sans-Serif" font-size="10.00">::insert</text>
</a>
</g>
</g>
<!-- Node2&#45;&gt;Node10 -->
<g id="edge9_Node000002_Node000010" class="edge">
<title>Node2&#45;&gt;Node10</title>
<g id="a_edge9_Node000002_Node000010"><a xlink:title=" ">
<path fill="none" stroke="#63b8ff" d="M105.88,-188.19C116,-194.18 129.47,-202.08 141.5,-208.88 143.38,-209.94 145.3,-211.02 147.25,-212.1"/>
<polygon fill="#63b8ff" stroke="#63b8ff" points="145.3,-215.03 155.74,-216.82 148.69,-208.9 145.3,-215.03"/>
</a>
</g>
</g>
<!-- Node11 -->
<g id="Node000011" class="node">
<title>Node11</title>
<g id="a_Node000011"><a xlink:href="../../d3/d26/classdata__structures_1_1trie__using__hashmap_1_1_trie.html#ae15fdc7f2b5023992d87a711d78566c4" target="_top" xlink:title="predict/recommend a word that starts with a given prefix">
<polygon fill="white" stroke="#666666" points="253.5,-199.75 141.5,-199.75 141.5,-158 253.5,-158 253.5,-199.75"/>
<text text-anchor="start" x="149.5" y="-186.25" font-family="Helvetica,sans-Serif" font-size="10.00">data_structures::trie</text>
<text text-anchor="start" x="149.5" y="-175" font-family="Helvetica,sans-Serif" font-size="10.00">_using_hashmap::Trie</text>
<text text-anchor="middle" x="197.5" y="-163.75" font-family="Helvetica,sans-Serif" font-size="10.00">::predict_words</text>
</a>
</g>
</g>
<!-- Node2&#45;&gt;Node11 -->
<g id="edge10_Node000002_Node000011" class="edge">
<title>Node2&#45;&gt;Node11</title>
<g id="a_edge10_Node000002_Node000011"><a xlink:title=" ">
<path fill="none" stroke="#63b8ff" d="M105.93,-178.88C112.67,-178.88 121.04,-178.88 129.95,-178.88"/>
<polygon fill="#63b8ff" stroke="#63b8ff" points="129.93,-182.38 139.93,-178.88 129.93,-175.38 129.93,-182.38"/>
</a>
</g>
</g>
<!-- Node14 -->
<g id="Node000014" class="node">
<title>Node14</title>
<g id="a_Node000014"><a xlink:href="../../d3/d26/classdata__structures_1_1trie__using__hashmap_1_1_trie.html#ad71eb24207c28b546631802dba97310f" target="_top" xlink:title="search a word/string inside the trie">
<polygon fill="white" stroke="#666666" points="253.5,-139.75 141.5,-139.75 141.5,-98 253.5,-98 253.5,-139.75"/>
<text text-anchor="start" x="149.5" y="-126.25" font-family="Helvetica,sans-Serif" font-size="10.00">data_structures::trie</text>
<text text-anchor="start" x="149.5" y="-115" font-family="Helvetica,sans-Serif" font-size="10.00">_using_hashmap::Trie</text>
<text text-anchor="middle" x="197.5" y="-103.75" font-family="Helvetica,sans-Serif" font-size="10.00">::search</text>
</a>
</g>
</g>
<!-- Node2&#45;&gt;Node14 -->
<g id="edge15_Node000002_Node000014" class="edge">
<title>Node2&#45;&gt;Node14</title>
<g id="a_edge15_Node000002_Node000014"><a xlink:title=" ">
<path fill="none" stroke="#63b8ff" d="M105.88,-169.56C116,-163.57 129.47,-155.67 141.5,-148.88 143.38,-147.81 145.3,-146.73 147.25,-145.65"/>
<polygon fill="#63b8ff" stroke="#63b8ff" points="148.69,-148.85 155.74,-140.93 145.3,-142.72 148.69,-148.85"/>
</a>
</g>
</g>
<!-- Node15 -->
<g id="Node000015" class="node">
<title>Node15</title>
<g id="a_Node000015"><a target="_blank" xlink:href="http://en.cppreference.com/w/cpp/container/vector/size.html#" xlink:title=" ">
<polygon fill="white" stroke="#666666" points="240.75,-79.5 154.25,-79.5 154.25,-60.25 240.75,-60.25 240.75,-79.5"/>
<text text-anchor="middle" x="197.5" y="-66" font-family="Helvetica,sans-Serif" font-size="10.00">std::vector::size</text>
</a>
</g>
</g>
<!-- Node2&#45;&gt;Node15 -->
<g id="edge16_Node000002_Node000015" class="edge">
<title>Node2&#45;&gt;Node15</title>
<g id="a_edge16_Node000002_Node000015"><a xlink:title=" ">
<path fill="none" stroke="#63b8ff" d="M93.28,-168.95C99.39,-150.53 114.94,-110.93 141.5,-88.88 143,-87.63 144.58,-86.47 146.23,-85.38"/>
<polygon fill="#63b8ff" stroke="#63b8ff" points="147.79,-88.52 154.89,-80.65 144.43,-82.37 147.79,-88.52"/>
</a>
</g>
</g>
<!-- Node16 -->
<g id="Node000016" class="node">
<title>Node16</title>
<g id="a_Node000016"><a xlink:href="../../d3/d26/classdata__structures_1_1trie__using__hashmap_1_1_trie.html#af3aee573fbabd2c1510c0f74f842dd17" target="_top" xlink:title="search a word/string that starts with a given prefix">
<polygon fill="white" stroke="#666666" points="253.5,-41.75 141.5,-41.75 141.5,0 253.5,0 253.5,-41.75"/>
<text text-anchor="start" x="149.5" y="-28.25" font-family="Helvetica,sans-Serif" font-size="10.00">data_structures::trie</text>
<text text-anchor="start" x="149.5" y="-17" font-family="Helvetica,sans-Serif" font-size="10.00">_using_hashmap::Trie</text>
<text text-anchor="middle" x="197.5" y="-5.75" font-family="Helvetica,sans-Serif" font-size="10.00">::startwith</text>
</a>
</g>
</g>
<!-- Node2&#45;&gt;Node16 -->
<g id="edge17_Node000002_Node000016" class="edge">
<title>Node2&#45;&gt;Node16</title>
<g id="a_edge17_Node000002_Node000016"><a xlink:title=" ">
<path fill="none" stroke="#63b8ff" d="M91.84,-169.02C96.05,-145.82 109.39,-87.03 141.5,-50.88 141.85,-50.48 142.21,-50.09 142.58,-49.7"/>
<polygon fill="#63b8ff" stroke="#63b8ff" points="144.76,-52.44 149.88,-43.17 140.09,-47.22 144.76,-52.44"/>
</a>
</g>
</g>
<!-- Node4 -->
<g id="Node000004" class="node">
<title>Node4</title>
<g id="a_Node000004"><a target="_blank" xlink:href="http://en.cppreference.com/w/cpp/string/basic_string/back.html#" xlink:title=" ">
<polygon fill="white" stroke="#666666" points="388.75,-417.5 302.25,-417.5 302.25,-398.25 388.75,-398.25 388.75,-417.5"/>
<text text-anchor="middle" x="345.5" y="-404" font-family="Helvetica,sans-Serif" font-size="10.00">std::string::back</text>
</a>
</g>
</g>
<!-- Node3&#45;&gt;Node4 -->
<g id="edge3_Node000003_Node000004" class="edge">
<title>Node3&#45;&gt;Node4</title>
<g id="a_edge3_Node000003_Node000004"><a xlink:title=" ">
<path fill="none" stroke="#63b8ff" d="M230.89,-357.99C247.88,-368.48 269.32,-380.82 289.5,-389.88 292.65,-391.29 295.95,-392.65 299.3,-393.94"/>
<polygon fill="#63b8ff" stroke="#63b8ff" points="298.02,-397.2 308.62,-397.32 300.41,-390.62 298.02,-397.2"/>
</a>
</g>
</g>
<!-- Node5 -->
<g id="Node000005" class="node">
<title>Node5</title>
<g id="a_Node000005"><a target="_blank" xlink:href="http://en.cppreference.com/w/cpp/container/stack/pop.html#" xlink:title=" ">
<polygon fill="white" stroke="#666666" points="386.12,-380.5 304.88,-380.5 304.88,-361.25 386.12,-361.25 386.12,-380.5"/>
<text text-anchor="middle" x="345.5" y="-367" font-family="Helvetica,sans-Serif" font-size="10.00">std::stack::pop</text>
</a>
</g>
</g>
<!-- Node3&#45;&gt;Node5 -->
<g id="edge4_Node000003_Node000005" class="edge">
<title>Node3&#45;&gt;Node5</title>
<g id="a_edge4_Node000003_Node000005"><a xlink:title=" ">
<path fill="none" stroke="#63b8ff" d="M253.7,-349.73C266.81,-352.78 280.74,-356.03 293.66,-359.03"/>
<polygon fill="#63b8ff" stroke="#63b8ff" points="292.68,-362.4 303.22,-361.26 294.27,-355.58 292.68,-362.4"/>
</a>
</g>
</g>
<!-- Node6 -->
<g id="Node000006" class="node">
<title>Node6</title>
<g id="a_Node000006"><a target="_blank" xlink:href="http://en.cppreference.com/w/cpp/string/basic_string/pop_back.html#" xlink:title=" ">
<polygon fill="white" stroke="#666666" points="549.12,-285.5 441.62,-285.5 441.62,-266.25 549.12,-266.25 549.12,-285.5"/>
<text text-anchor="middle" x="495.38" y="-272" font-family="Helvetica,sans-Serif" font-size="10.00">std::string::pop_back</text>
</a>
</g>
</g>
<!-- Node3&#45;&gt;Node6 -->
<g id="edge5_Node000003_Node000006" class="edge">
<title>Node3&#45;&gt;Node6</title>
<g id="a_edge5_Node000003_Node000006"><a xlink:title=" ">
<path fill="none" stroke="#63b8ff" d="M253.95,-334.71C295.18,-332.12 352.54,-326.41 401.5,-313.88 423.02,-308.37 446.15,-298.91 463.94,-290.82"/>
<polygon fill="#63b8ff" stroke="#63b8ff" points="465.32,-294.04 472.9,-286.64 462.36,-287.7 465.32,-294.04"/>
</a>
</g>
</g>
<!-- Node7 -->
<g id="Node000007" class="node">
<title>Node7</title>
<g id="a_Node000007"><a target="_blank" xlink:href="http://en.cppreference.com/w/cpp/container/stack/push.html#" xlink:title=" ">
<polygon fill="white" stroke="#666666" points="388.75,-304.5 302.25,-304.5 302.25,-285.25 388.75,-285.25 388.75,-304.5"/>
<text text-anchor="middle" x="345.5" y="-291" font-family="Helvetica,sans-Serif" font-size="10.00">std::stack::push</text>
</a>
</g>
</g>
<!-- Node3&#45;&gt;Node7 -->
<g id="edge6_Node000003_Node000007" class="edge">
<title>Node3&#45;&gt;Node7</title>
<g id="a_edge6_Node000003_Node000007"><a xlink:title=" ">
<path fill="none" stroke="#63b8ff" d="M253.7,-321C268.48,-316.74 284.3,-312.19 298.52,-308.1"/>
<polygon fill="#63b8ff" stroke="#63b8ff" points="299.44,-311.48 308.09,-305.35 297.51,-304.75 299.44,-311.48"/>
</a>
</g>
</g>
<!-- Node8 -->
<g id="Node000008" class="node">
<title>Node8</title>
<g id="a_Node000008"><a target="_blank" xlink:href="http://en.cppreference.com/w/cpp/container/stack/top.html#" xlink:title=" ">
<polygon fill="white" stroke="#666666" points="385,-267.5 306,-267.5 306,-248.25 385,-248.25 385,-267.5"/>
<text text-anchor="middle" x="345.5" y="-254" font-family="Helvetica,sans-Serif" font-size="10.00">std::stack::top</text>
</a>
</g>
</g>
<!-- Node3&#45;&gt;Node8 -->
<g id="edge7_Node000003_Node000008" class="edge">
<title>Node3&#45;&gt;Node8</title>
<g id="a_edge7_Node000003_Node000008"><a xlink:title=" ">
<path fill="none" stroke="#63b8ff" d="M239.92,-315.53C244.59,-312.76 249.21,-309.84 253.5,-306.88 270.87,-294.86 271.11,-286.25 289.5,-275.88 291.7,-274.63 294.01,-273.46 296.37,-272.35"/>
<polygon fill="#63b8ff" stroke="#63b8ff" points="297.68,-275.6 305.57,-268.53 294.99,-269.14 297.68,-275.6"/>
</a>
</g>
</g>
<!-- Node12 -->
<g id="Node000012" class="node">
<title>Node12</title>
<g id="a_Node000012"><a xlink:href="../../d3/d26/classdata__structures_1_1trie__using__hashmap_1_1_trie.html#a7bbe538c8015e8ce158e7ed43f605ebd" target="_top" xlink:title="helper function to predict/recommend words that starts with a given prefix from the end of prefix&#39;s n...">
<polygon fill="white" stroke="#666666" points="401.5,-207.75 289.5,-207.75 289.5,-166 401.5,-166 401.5,-207.75"/>
<text text-anchor="start" x="297.5" y="-194.25" font-family="Helvetica,sans-Serif" font-size="10.00">data_structures::trie</text>
<text text-anchor="start" x="297.5" y="-183" font-family="Helvetica,sans-Serif" font-size="10.00">_using_hashmap::Trie</text>
<text text-anchor="middle" x="345.5" y="-171.75" font-family="Helvetica,sans-Serif" font-size="10.00">::get_all_words</text>
</a>
</g>
</g>
<!-- Node11&#45;&gt;Node12 -->
<g id="edge11_Node000011_Node000012" class="edge">
<title>Node11&#45;&gt;Node12</title>
<g id="a_edge11_Node000011_Node000012"><a xlink:title=" ">
<path fill="none" stroke="#63b8ff" d="M253.7,-181.9C261.6,-182.33 269.8,-182.78 277.89,-183.23"/>
<polygon fill="#63b8ff" stroke="#63b8ff" points="277.54,-186.71 287.71,-183.76 277.92,-179.72 277.54,-186.71"/>
</a>
</g>
</g>
<!-- Node12&#45;&gt;Node6 -->
<g id="edge13_Node000012_Node000006" class="edge">
<title>Node12&#45;&gt;Node6</title>
<g id="a_edge13_Node000012_Node000006"><a xlink:title=" ">
<path fill="none" stroke="#63b8ff" d="M381.92,-208.19C408.42,-224.14 444.07,-245.6 468.07,-260.04"/>
<polygon fill="#63b8ff" stroke="#63b8ff" points="466.22,-263.01 476.59,-265.17 469.83,-257.02 466.22,-263.01"/>
</a>
</g>
</g>
<!-- Node12&#45;&gt;Node12 -->
<g id="edge12_Node000012_Node000012" class="edge">
<title>Node12&#45;&gt;Node12</title>
<g id="a_edge12_Node000012_Node000012"><a xlink:title=" ">
<path fill="none" stroke="#63b8ff" d="M318.18,-208.07C315.58,-217.55 324.69,-225.75 345.5,-225.75 357.53,-225.75 365.65,-223.01 369.86,-218.86"/>
<polygon fill="#63b8ff" stroke="#63b8ff" points="373.15,-220.1 372.42,-209.53 366.4,-218.25 373.15,-220.1"/>
</a>
</g>
</g>
<!-- Node13 -->
<g id="Node000013" class="node">
<title>Node13</title>
<g id="a_Node000013"><a target="_blank" xlink:href="http://en.cppreference.com/w/cpp/container/vector/push_back.html#" xlink:title=" ">
<polygon fill="white" stroke="#666666" points="553.25,-196.5 437.5,-196.5 437.5,-177.25 553.25,-177.25 553.25,-196.5"/>
<text text-anchor="middle" x="495.38" y="-183" font-family="Helvetica,sans-Serif" font-size="10.00">std::vector::push_back</text>
</a>
</g>
</g>
<!-- Node12&#45;&gt;Node13 -->
<g id="edge14_Node000012_Node000013" class="edge">
<title>Node12&#45;&gt;Node13</title>
<g id="a_edge14_Node000012_Node000013"><a xlink:title=" ">
<path fill="none" stroke="#63b8ff" d="M401.98,-186.88C409.69,-186.88 417.69,-186.88 425.6,-186.88"/>
<polygon fill="#63b8ff" stroke="#63b8ff" points="425.59,-190.38 435.59,-186.88 425.59,-183.38 425.59,-190.38"/>
</a>
</g>
</g>
</g>
</svg>
