<?xml version="1.0" encoding="UTF-8" standalone="no"?>
<!DOCTYPE svg PUBLIC "-//W3C//DTD SVG 1.1//EN"
 "http://www.w3.org/Graphics/SVG/1.1/DTD/svg11.dtd">
<!-- Generated by graphviz version 9.0.0 (20230911.1827)
 -->
<!-- Title: machine_learning::aystar_search::EightPuzzle::generate_possible_moves Pages: 1 -->
<svg width="351pt" height="162pt"
 viewBox="0.00 0.00 351.25 162.25" xmlns="http://www.w3.org/2000/svg" xmlns:xlink="http://www.w3.org/1999/xlink">
<g id="graph0" class="graph" transform="scale(1 1) rotate(0) translate(4 158.25)">
<title>machine_learning::aystar_search::EightPuzzle::generate_possible_moves</title>
<!-- Node1 -->
<g id="Node000001" class="node">
<title>Node1</title>
<g id="a_Node000001"><a xlink:title="Find all possible states after processing all possible moves, given the current state of the puzzle.">
<polygon fill="#999999" stroke="#666666" points="152.5,-97.5 0,-97.5 0,-55.75 152.5,-55.75 152.5,-97.5"/>
<text text-anchor="start" x="8" y="-84" font-family="Helvetica,sans-Serif" font-size="10.00">machine_learning::aystar</text>
<text text-anchor="start" x="8" y="-72.75" font-family="Helvetica,sans-Serif" font-size="10.00">_search::EightPuzzle::generate</text>
<text text-anchor="middle" x="76.25" y="-61.5" font-family="Helvetica,sans-Serif" font-size="10.00">_possible_moves</text>
</a>
</g>
</g>
<!-- Node2 -->
<g id="Node000002" class="node">
<title>Node2</title>
<g id="a_Node000002"><a target="_blank" xlink:href="http://en.cppreference.com/w/cpp/container/vector/emplace_back.html#" xlink:title=" ">
<polygon fill="white" stroke="#666666" points="331.62,-154.25 200.12,-154.25 200.12,-135 331.62,-135 331.62,-154.25"/>
<text text-anchor="middle" x="265.88" y="-140.75" font-family="Helvetica,sans-Serif" font-size="10.00">std::vector::emplace_back</text>
</a>
</g>
</g>
<!-- Node1&#45;&gt;Node2 -->
<g id="edge1_Node000001_Node000002" class="edge">
<title>Node1&#45;&gt;Node2</title>
<g id="a_edge1_Node000001_Node000002"><a xlink:title=" ">
<path fill="none" stroke="#63b8ff" d="M120.95,-97.95C141.18,-107.28 165.73,-117.84 188.5,-125.62 194.71,-127.75 201.28,-129.74 207.86,-131.58"/>
<polygon fill="#63b8ff" stroke="#63b8ff" points="206.84,-134.94 217.41,-134.14 208.65,-128.17 206.84,-134.94"/>
</a>
</g>
</g>
<!-- Node3 -->
<g id="Node000003" class="node">
<title>Node3</title>
<g id="a_Node000003"><a xlink:href="../../dd/d9c/classmachine__learning_1_1aystar__search_1_1_eight_puzzle.html#a94f794bf44f424b1b0ca6ef9f4f6ebd3" target="_top" xlink:title="A helper array to evaluate the next state from current state;.">
<polygon fill="white" stroke="#666666" points="343.25,-116.88 188.5,-116.88 188.5,-86.38 343.25,-86.38 343.25,-116.88"/>
<text text-anchor="start" x="196.5" y="-103.38" font-family="Helvetica,sans-Serif" font-size="10.00">machine_learning::aystar</text>
<text text-anchor="middle" x="265.88" y="-92.12" font-family="Helvetica,sans-Serif" font-size="10.00">_search::EightPuzzle::find_zero</text>
</a>
</g>
</g>
<!-- Node1&#45;&gt;Node3 -->
<g id="edge2_Node000001_Node000003" class="edge">
<title>Node1&#45;&gt;Node3</title>
<g id="a_edge2_Node000001_Node000003"><a xlink:title=" ">
<path fill="none" stroke="#63b8ff" d="M152.75,-86.69C160.71,-87.75 168.85,-88.83 176.94,-89.91"/>
<polygon fill="#63b8ff" stroke="#63b8ff" points="176.43,-93.37 186.8,-91.22 177.35,-86.43 176.43,-93.37"/>
</a>
</g>
</g>
<!-- Node4 -->
<g id="Node000004" class="node">
<title>Node4</title>
<g id="a_Node000004"><a xlink:href="../../dd/d9c/classmachine__learning_1_1aystar__search_1_1_eight_puzzle.html#a48d054230468b79037964f474d842b6e" target="_top" xlink:title="check whether the index value is bounded within the puzzle area">
<polygon fill="white" stroke="#666666" points="341.75,-67.88 190,-67.88 190,-37.38 341.75,-37.38 341.75,-67.88"/>
<text text-anchor="start" x="198" y="-54.38" font-family="Helvetica,sans-Serif" font-size="10.00">machine_learning::aystar</text>
<text text-anchor="middle" x="265.88" y="-43.12" font-family="Helvetica,sans-Serif" font-size="10.00">_search::EightPuzzle::in_range</text>
</a>
</g>
</g>
<!-- Node1&#45;&gt;Node4 -->
<g id="edge3_Node000001_Node000004" class="edge">
<title>Node1&#45;&gt;Node4</title>
<g id="a_edge3_Node000001_Node000004"><a xlink:title=" ">
<path fill="none" stroke="#63b8ff" d="M152.75,-66.97C161.18,-65.89 169.81,-64.79 178.36,-63.69"/>
<polygon fill="#63b8ff" stroke="#63b8ff" points="178.55,-67.2 188.03,-62.46 177.66,-60.25 178.55,-67.2"/>
</a>
</g>
</g>
<!-- Node5 -->
<g id="Node000005" class="node">
<title>Node5</title>
<g id="a_Node000005"><a target="_blank" xlink:href="http://en.cppreference.com/w/cpp/algorithm/swap.html#" xlink:title=" ">
<polygon fill="white" stroke="#666666" points="295.25,-19.25 236.5,-19.25 236.5,0 295.25,0 295.25,-19.25"/>
<text text-anchor="middle" x="265.88" y="-5.75" font-family="Helvetica,sans-Serif" font-size="10.00">std::swap</text>
</a>
</g>
</g>
<!-- Node1&#45;&gt;Node5 -->
<g id="edge4_Node000001_Node000005" class="edge">
<title>Node1&#45;&gt;Node5</title>
<g id="a_edge4_Node000001_Node000005"><a xlink:title=" ">
<path fill="none" stroke="#63b8ff" d="M122.06,-55.3C142.09,-46.29 166.18,-36.16 188.5,-28.62 200.27,-24.65 213.32,-21.1 225.25,-18.18"/>
<polygon fill="#63b8ff" stroke="#63b8ff" points="225.87,-21.63 234.79,-15.92 224.26,-14.82 225.87,-21.63"/>
</a>
</g>
</g>
</g>
</svg>
