<?xml version="1.0" encoding="UTF-8" standalone="no"?>
<!DOCTYPE svg PUBLIC "-//W3C//DTD SVG 1.1//EN"
 "http://www.w3.org/Graphics/SVG/1.1/DTD/svg11.dtd">
<!-- Generated by graphviz version 2.47.3 (20210619.1520)
 -->
<!-- Title: machine_learning::aystar_search::AyStarSearch::a_star_search Pages: 1 -->
<svg width="462pt" height="354pt"
 viewBox="0.00 0.00 462.00 354.00" xmlns="http://www.w3.org/2000/svg" xmlns:xlink="http://www.w3.org/1999/xlink">
<g id="graph0" class="graph" transform="scale(1 1) rotate(0) translate(4 350)">
<title>machine_learning::aystar_search::AyStarSearch::a_star_search</title>
<polygon fill="white" stroke="transparent" points="-4,4 -4,-350 458,-350 458,4 -4,4"/>
<!-- Node1 -->
<g id="node1" class="node">
<title>Node1</title>
<g id="a_node1"><a xlink:title=" ">
<polygon fill="#bfbfbf" stroke="black" points="0,-163.5 0,-204.5 125,-204.5 125,-163.5 0,-163.5"/>
<text text-anchor="start" x="8" y="-192.5" font-family="Helvetica,sans-Serif" font-size="10.00">machine_learning::aystar</text>
<text text-anchor="start" x="8" y="-181.5" font-family="Helvetica,sans-Serif" font-size="10.00">_search::AyStarSearch::</text>
<text text-anchor="middle" x="62.5" y="-170.5" font-family="Helvetica,sans-Serif" font-size="10.00">a_star_search</text>
</a>
</g>
</g>
<!-- Node2 -->
<g id="node2" class="node">
<title>Node2</title>
<g id="a_node2"><a target="_blank" xlink:href="http://en.cppreference.com/w/cpp/container/set/begin.html#" xlink:title=" ">
<polygon fill="white" stroke="black" points="184,-326.5 184,-345.5 263,-345.5 263,-326.5 184,-326.5"/>
<text text-anchor="middle" x="223.5" y="-333.5" font-family="Helvetica,sans-Serif" font-size="10.00">std::set::begin</text>
</a>
</g>
</g>
<!-- Node1&#45;&gt;Node2 -->
<g id="edge1" class="edge">
<title>Node1&#45;&gt;Node2</title>
<path fill="none" stroke="midnightblue" d="M73.33,-204.79C88.22,-234.09 119.26,-287.27 161,-317 165.16,-319.96 169.79,-322.47 174.6,-324.6"/>
<polygon fill="midnightblue" stroke="midnightblue" points="173.39,-327.88 183.98,-328.23 175.92,-321.36 173.39,-327.88"/>
</g>
<!-- Node3 -->
<g id="node3" class="node">
<title>Node3</title>
<g id="a_node3"><a target="_blank" xlink:href="http://en.cppreference.com/w/cpp/container/set/emplace.html#" xlink:title=" ">
<polygon fill="white" stroke="black" points="177.5,-288.5 177.5,-307.5 269.5,-307.5 269.5,-288.5 177.5,-288.5"/>
<text text-anchor="middle" x="223.5" y="-295.5" font-family="Helvetica,sans-Serif" font-size="10.00">std::set::emplace</text>
</a>
</g>
</g>
<!-- Node1&#45;&gt;Node3 -->
<g id="edge2" class="edge">
<title>Node1&#45;&gt;Node3</title>
<path fill="none" stroke="midnightblue" d="M79.64,-204.71C97.41,-226.19 127.88,-259.33 161,-279 164.62,-281.15 168.51,-283.08 172.51,-284.81"/>
<polygon fill="midnightblue" stroke="midnightblue" points="171.37,-288.12 181.96,-288.48 173.9,-281.59 171.37,-288.12"/>
</g>
<!-- Node4 -->
<g id="node4" class="node">
<title>Node4</title>
<g id="a_node4"><a target="_blank" xlink:href="http://en.cppreference.com/w/cpp/container/set/empty.html#" xlink:title=" ">
<polygon fill="white" stroke="black" points="182,-250.5 182,-269.5 265,-269.5 265,-250.5 182,-250.5"/>
<text text-anchor="middle" x="223.5" y="-257.5" font-family="Helvetica,sans-Serif" font-size="10.00">std::set::empty</text>
</a>
</g>
</g>
<!-- Node1&#45;&gt;Node4 -->
<g id="edge3" class="edge">
<title>Node1&#45;&gt;Node4</title>
<path fill="none" stroke="midnightblue" d="M94.58,-204.65C113.27,-216.42 137.85,-230.82 161,-241 166.05,-243.22 171.44,-245.29 176.85,-247.19"/>
<polygon fill="midnightblue" stroke="midnightblue" points="175.95,-250.58 186.54,-250.41 178.16,-243.93 175.95,-250.58"/>
</g>
<!-- Node5 -->
<g id="node5" class="node">
<title>Node5</title>
<g id="a_node5"><a target="_blank" xlink:href="http://en.cppreference.com/w/cpp/container/map/end.html#" xlink:title=" ">
<polygon fill="white" stroke="black" points="185,-212.5 185,-231.5 262,-231.5 262,-212.5 185,-212.5"/>
<text text-anchor="middle" x="223.5" y="-219.5" font-family="Helvetica,sans-Serif" font-size="10.00">std::map::end</text>
</a>
</g>
</g>
<!-- Node1&#45;&gt;Node5 -->
<g id="edge4" class="edge">
<title>Node1&#45;&gt;Node5</title>
<path fill="none" stroke="midnightblue" d="M125.43,-198.8C141.88,-202.73 159.39,-206.92 174.94,-210.63"/>
<polygon fill="midnightblue" stroke="midnightblue" points="174.31,-214.08 184.85,-213 175.94,-207.27 174.31,-214.08"/>
</g>
<!-- Node6 -->
<g id="node6" class="node">
<title>Node6</title>
<g id="a_node6"><a target="_blank" xlink:href="http://en.cppreference.com/w/cpp/container/set/end.html#" xlink:title=" ">
<polygon fill="white" stroke="black" points="188,-174.5 188,-193.5 259,-193.5 259,-174.5 188,-174.5"/>
<text text-anchor="middle" x="223.5" y="-181.5" font-family="Helvetica,sans-Serif" font-size="10.00">std::set::end</text>
</a>
</g>
</g>
<!-- Node1&#45;&gt;Node6 -->
<g id="edge5" class="edge">
<title>Node1&#45;&gt;Node6</title>
<path fill="none" stroke="midnightblue" d="M125.43,-184C142.74,-184 161.22,-184 177.36,-184"/>
<polygon fill="midnightblue" stroke="midnightblue" points="177.59,-187.5 187.59,-184 177.59,-180.5 177.59,-187.5"/>
</g>
<!-- Node7 -->
<g id="node7" class="node">
<title>Node7</title>
<g id="a_node7"><a target="_blank" xlink:href="http://en.cppreference.com/w/cpp/container/set/erase.html#" xlink:title=" ">
<polygon fill="white" stroke="black" points="183.5,-136.5 183.5,-155.5 263.5,-155.5 263.5,-136.5 183.5,-136.5"/>
<text text-anchor="middle" x="223.5" y="-143.5" font-family="Helvetica,sans-Serif" font-size="10.00">std::set::erase</text>
</a>
</g>
</g>
<!-- Node1&#45;&gt;Node7 -->
<g id="edge6" class="edge">
<title>Node1&#45;&gt;Node7</title>
<path fill="none" stroke="midnightblue" d="M125.43,-169.2C141.45,-165.37 158.48,-161.3 173.72,-157.66"/>
<polygon fill="midnightblue" stroke="midnightblue" points="174.54,-161.06 183.45,-155.33 172.91,-154.25 174.54,-161.06"/>
</g>
<!-- Node8 -->
<g id="node8" class="node">
<title>Node8</title>
<g id="a_node8"><a target="_blank" xlink:href="http://en.cppreference.com/w/cpp/container/map/find.html#" xlink:title=" ">
<polygon fill="white" stroke="black" points="349.5,-73.5 349.5,-92.5 426.5,-92.5 426.5,-73.5 349.5,-73.5"/>
<text text-anchor="middle" x="388" y="-80.5" font-family="Helvetica,sans-Serif" font-size="10.00">std::map::find</text>
</a>
</g>
</g>
<!-- Node1&#45;&gt;Node8 -->
<g id="edge7" class="edge">
<title>Node1&#45;&gt;Node8</title>
<path fill="none" stroke="midnightblue" d="M92.92,-163.26C111.62,-151 136.78,-136.13 161,-127 220.11,-104.71 292.37,-93.17 339.02,-87.6"/>
<polygon fill="midnightblue" stroke="midnightblue" points="339.61,-91.06 349.15,-86.44 338.81,-84.1 339.61,-91.06"/>
</g>
<!-- Node9 -->
<g id="node9" class="node">
<title>Node9</title>
<g id="a_node9"><a target="_blank" xlink:href="http://en.cppreference.com/w/cpp/container/set/find.html#" xlink:title=" ">
<polygon fill="white" stroke="black" points="188,-60.5 188,-79.5 259,-79.5 259,-60.5 188,-60.5"/>
<text text-anchor="middle" x="223.5" y="-67.5" font-family="Helvetica,sans-Serif" font-size="10.00">std::set::find</text>
</a>
</g>
</g>
<!-- Node1&#45;&gt;Node9 -->
<g id="edge8" class="edge">
<title>Node1&#45;&gt;Node9</title>
<path fill="none" stroke="midnightblue" d="M81.51,-163.39C99.85,-143.43 129.94,-113.42 161,-94 167.41,-89.99 174.61,-86.45 181.75,-83.41"/>
<polygon fill="midnightblue" stroke="midnightblue" points="183.4,-86.52 191.39,-79.57 180.81,-80.02 183.4,-86.52"/>
</g>
<!-- Node10 -->
<g id="node10" class="node">
<title>Node10</title>
<g id="a_node10"><a xlink:href="../../da/d02/classmachine__learning_1_1aystar__search_1_1_ay_star_search.html#a8687882bdb604ab367da6e8fe42a35c9" target="_top" xlink:title="A helper solution: launches when a solution for AyStarSearch is found.">
<polygon fill="white" stroke="black" points="161,-0.5 161,-41.5 286,-41.5 286,-0.5 161,-0.5"/>
<text text-anchor="start" x="169" y="-29.5" font-family="Helvetica,sans-Serif" font-size="10.00">machine_learning::aystar</text>
<text text-anchor="start" x="169" y="-18.5" font-family="Helvetica,sans-Serif" font-size="10.00">_search::AyStarSearch::</text>
<text text-anchor="middle" x="223.5" y="-7.5" font-family="Helvetica,sans-Serif" font-size="10.00">Solution</text>
</a>
</g>
</g>
<!-- Node1&#45;&gt;Node10 -->
<g id="edge9" class="edge">
<title>Node1&#45;&gt;Node10</title>
<path fill="none" stroke="midnightblue" d="M74.51,-163.1C90.39,-134.63 122.11,-83.49 161,-51 162.54,-49.71 164.14,-48.47 165.79,-47.26"/>
<polygon fill="midnightblue" stroke="midnightblue" points="167.99,-50 174.39,-41.56 164.12,-44.17 167.99,-50"/>
</g>
<!-- Node10&#45;&gt;Node8 -->
<g id="edge11" class="edge">
<title>Node10&#45;&gt;Node8</title>
<path fill="none" stroke="midnightblue" d="M278.61,-41.65C302.95,-50.93 330.96,-61.62 352.41,-69.8"/>
<polygon fill="midnightblue" stroke="midnightblue" points="351.17,-73.08 361.77,-73.37 353.67,-66.54 351.17,-73.08"/>
</g>
<!-- Node11 -->
<g id="node11" class="node">
<title>Node11</title>
<g id="a_node11"><a target="_blank" xlink:href="http://en.cppreference.com/w/cpp/container/vector/emplace_back.html#" xlink:title=" ">
<polygon fill="white" stroke="black" points="322,-11.5 322,-30.5 454,-30.5 454,-11.5 322,-11.5"/>
<text text-anchor="middle" x="388" y="-18.5" font-family="Helvetica,sans-Serif" font-size="10.00">std::vector::emplace_back</text>
</a>
</g>
</g>
<!-- Node10&#45;&gt;Node11 -->
<g id="edge10" class="edge">
<title>Node10&#45;&gt;Node11</title>
<path fill="none" stroke="midnightblue" d="M286.4,-21C294.62,-21 303.13,-21 311.55,-21"/>
<polygon fill="midnightblue" stroke="midnightblue" points="311.76,-24.5 321.76,-21 311.76,-17.5 311.76,-24.5"/>
</g>
</g>
</svg>
