<?xml version="1.0" encoding="UTF-8" standalone="no"?>
<!DOCTYPE svg PUBLIC "-//W3C//DTD SVG 1.1//EN"
 "http://www.w3.org/Graphics/SVG/1.1/DTD/svg11.dtd">
<!-- Generated by graphviz version 2.40.1 (20161225.0304)
 -->
<!-- Title: large_number::operator*= Pages: 1 -->
<svg width="601pt" height="66pt"
 viewBox="0.00 0.00 601.00 66.00" xmlns="http://www.w3.org/2000/svg" xmlns:xlink="http://www.w3.org/1999/xlink">
<g id="graph0" class="graph" transform="scale(1 1) rotate(0) translate(4 62)">
<title>large_number::operator*=</title>
<polygon fill="#ffffff" stroke="transparent" points="-4,4 -4,-62 597,-62 597,4 -4,4"/>
<!-- Node21 -->
<g id="node1" class="node">
<title>Node21</title>
<polygon fill="#bfbfbf" stroke="#000000" points="0,-19.5 0,-38.5 126,-38.5 126,-19.5 0,-19.5"/>
<text text-anchor="middle" x="63" y="-26.5" font-family="Helvetica,sans-Serif" font-size="10.00" fill="#000000">large_number::operator*=</text>
</g>
<!-- Node22 -->
<g id="node2" class="node">
<title>Node22</title>
<g id="a_node2"><a xlink:href="../../db/d82/classlarge__number.html#a2f5571e66305cf68bb8283e4aeda58bc" target="_top" xlink:title="large_number::multiply">
<polygon fill="#ffffff" stroke="#000000" points="162,-19.5 162,-38.5 277,-38.5 277,-19.5 162,-19.5"/>
<text text-anchor="middle" x="219.5" y="-26.5" font-family="Helvetica,sans-Serif" font-size="10.00" fill="#000000">large_number::multiply</text>
</a>
</g>
</g>
<!-- Node21&#45;&gt;Node22 -->
<g id="edge1" class="edge">
<title>Node21&#45;&gt;Node22</title>
<path fill="none" stroke="#191970" d="M126.2034,-29C134.5867,-29 143.2093,-29 151.6667,-29"/>
<polygon fill="#191970" stroke="#191970" points="151.8737,-32.5001 161.8737,-29 151.8737,-25.5001 151.8737,-32.5001"/>
</g>
<!-- Node23 -->
<g id="node3" class="node">
<title>Node23</title>
<g id="a_node3"><a xlink:href="../../db/d82/classlarge__number.html#a2305a82e7b372617419337b2d2119c7d" target="_top" xlink:title="large_number::num_digits">
<polygon fill="#ffffff" stroke="#000000" points="313,-38.5 313,-57.5 441,-57.5 441,-38.5 313,-38.5"/>
<text text-anchor="middle" x="377" y="-45.5" font-family="Helvetica,sans-Serif" font-size="10.00" fill="#000000">large_number::num_digits</text>
</a>
</g>
</g>
<!-- Node22&#45;&gt;Node23 -->
<g id="edge2" class="edge">
<title>Node22&#45;&gt;Node23</title>
<path fill="none" stroke="#191970" d="M277.2529,-35.967C285.5823,-36.9718 294.2498,-38.0174 302.8441,-39.0542"/>
<polygon fill="#191970" stroke="#191970" points="302.5276,-42.5413 312.8748,-40.2643 303.366,-35.5917 302.5276,-42.5413"/>
</g>
<!-- Node25 -->
<g id="node5" class="node">
<title>Node25</title>
<g id="a_node5"><a xlink:href="../../db/d82/classlarge__number.html#a60c436d1a1c5e3795d6177d3815ad615" target="_top" xlink:title="large_number::add_digit">
<polygon fill="#ffffff" stroke="#000000" points="317,-.5 317,-19.5 437,-19.5 437,-.5 317,-.5"/>
<text text-anchor="middle" x="377" y="-7.5" font-family="Helvetica,sans-Serif" font-size="10.00" fill="#000000">large_number::add_digit</text>
</a>
</g>
</g>
<!-- Node22&#45;&gt;Node25 -->
<g id="edge4" class="edge">
<title>Node22&#45;&gt;Node25</title>
<path fill="none" stroke="#191970" d="M277.2529,-22.033C286.8313,-20.8775 296.8568,-19.6681 306.704,-18.4802"/>
<polygon fill="#191970" stroke="#191970" points="307.3662,-21.9257 316.875,-17.2532 306.5277,-14.9761 307.3662,-21.9257"/>
</g>
<!-- Node24 -->
<g id="node4" class="node">
<title>Node24</title>
<g id="a_node4"><a doxygen="/home/runner/work/C-Plus-Plus/C-Plus-Plus/doc/cppreference-doxygen-web.tag.xml:http://en.cppreference.com/w/" xlink:href="http://en.cppreference.com/w/cpp/container/vector/size.html#" target="_top" xlink:title="std::vector::size">
<polygon fill="#ffffff" stroke="#000000" points="491.5,-38.5 491.5,-57.5 578.5,-57.5 578.5,-38.5 491.5,-38.5"/>
<text text-anchor="middle" x="535" y="-45.5" font-family="Helvetica,sans-Serif" font-size="10.00" fill="#000000">std::vector::size</text>
</a>
</g>
</g>
<!-- Node23&#45;&gt;Node24 -->
<g id="edge3" class="edge">
<title>Node23&#45;&gt;Node24</title>
<path fill="none" stroke="#191970" d="M441.2646,-48C454.4778,-48 468.2612,-48 481.0647,-48"/>
<polygon fill="#191970" stroke="#191970" points="481.0932,-51.5001 491.0931,-48 481.0931,-44.5001 481.0932,-51.5001"/>
</g>
<!-- Node26 -->
<g id="node6" class="node">
<title>Node26</title>
<g id="a_node6"><a doxygen="/home/runner/work/C-Plus-Plus/C-Plus-Plus/doc/cppreference-doxygen-web.tag.xml:http://en.cppreference.com/w/" xlink:href="http://en.cppreference.com/w/cpp/container/vector/push_back.html#" target="_top" xlink:title="std::vector::push_back">
<polygon fill="#ffffff" stroke="#000000" points="477,-.5 477,-19.5 593,-19.5 593,-.5 477,-.5"/>
<text text-anchor="middle" x="535" y="-7.5" font-family="Helvetica,sans-Serif" font-size="10.00" fill="#000000">std::vector::push_back</text>
</a>
</g>
</g>
<!-- Node25&#45;&gt;Node26 -->
<g id="edge5" class="edge">
<title>Node25&#45;&gt;Node26</title>
<path fill="none" stroke="#191970" d="M437.1838,-10C446.8278,-10 456.869,-10 466.686,-10"/>
<polygon fill="#191970" stroke="#191970" points="466.8091,-13.5001 476.8091,-10 466.8091,-6.5001 466.8091,-13.5001"/>
</g>
</g>
</svg>
