<?xml version="1.0" encoding="UTF-8" standalone="no"?>
<!DOCTYPE svg PUBLIC "-//W3C//DTD SVG 1.1//EN"
 "http://www.w3.org/Graphics/SVG/1.1/DTD/svg11.dtd">
<!-- Generated by graphviz version 2.40.1 (20161225.0304)
 -->
<!-- Title: large_number::digit_char Pages: 1 -->
<svg width="418pt" height="28pt"
 viewBox="0.00 0.00 418.00 28.00" xmlns="http://www.w3.org/2000/svg" xmlns:xlink="http://www.w3.org/1999/xlink">
<g id="graph0" class="graph" transform="scale(1 1) rotate(0) translate(4 24)">
<title>large_number::digit_char</title>
<polygon fill="#ffffff" stroke="transparent" points="-4,4 -4,-24 414,-24 414,4 -4,4"/>
<!-- Node11 -->
<g id="node1" class="node">
<title>Node11</title>
<polygon fill="#bfbfbf" stroke="#000000" points="0,-.5 0,-19.5 123,-19.5 123,-.5 0,-.5"/>
<text text-anchor="middle" x="61.5" y="-7.5" font-family="Helvetica,sans-Serif" font-size="10.00" fill="#000000">large_number::digit_char</text>
</g>
<!-- Node12 -->
<g id="node2" class="node">
<title>Node12</title>
<g id="a_node2"><a xlink:href="../../db/d82/classlarge__number.html#a2305a82e7b372617419337b2d2119c7d" target="_top" xlink:title="large_number::num_digits">
<polygon fill="#ffffff" stroke="#000000" points="159,-.5 159,-19.5 287,-19.5 287,-.5 159,-.5"/>
<text text-anchor="middle" x="223" y="-7.5" font-family="Helvetica,sans-Serif" font-size="10.00" fill="#000000">large_number::num_digits</text>
</a>
</g>
</g>
<!-- Node11&#45;&gt;Node12 -->
<g id="edge1" class="edge">
<title>Node11&#45;&gt;Node12</title>
<path fill="none" stroke="#191970" d="M123.0169,-10C131.4741,-10 140.2302,-10 148.8839,-10"/>
<polygon fill="#191970" stroke="#191970" points="148.9716,-13.5001 158.9716,-10 148.9716,-6.5001 148.9716,-13.5001"/>
</g>
<!-- Node13 -->
<g id="node3" class="node">
<title>Node13</title>
<g id="a_node3"><a doxygen="/home/runner/work/C-Plus-Plus/C-Plus-Plus/doc/cppreference-doxygen-web.tag.xml:http://en.cppreference.com/w/" xlink:href="http://en.cppreference.com/w/cpp/container/vector/size.html#" target="_top" xlink:title="std::vector::size">
<polygon fill="#ffffff" stroke="#000000" points="323,-.5 323,-19.5 410,-19.5 410,-.5 323,-.5"/>
<text text-anchor="middle" x="366.5" y="-7.5" font-family="Helvetica,sans-Serif" font-size="10.00" fill="#000000">std::vector::size</text>
</a>
</g>
</g>
<!-- Node12&#45;&gt;Node13 -->
<g id="edge2" class="edge">
<title>Node12&#45;&gt;Node13</title>
<path fill="none" stroke="#191970" d="M287.1951,-10C295.7897,-10 304.5305,-10 312.9169,-10"/>
<polygon fill="#191970" stroke="#191970" points="312.9371,-13.5001 322.937,-10 312.937,-6.5001 312.9371,-13.5001"/>
</g>
</g>
</svg>
