<?xml version="1.0" encoding="UTF-8" standalone="no"?>
<!DOCTYPE svg PUBLIC "-//W3C//DTD SVG 1.1//EN"
 "http://www.w3.org/Graphics/SVG/1.1/DTD/svg11.dtd">
<!-- Generated by graphviz version 2.40.1 (20161225.0304)
 -->
<!-- Title: large_number::operator+= Pages: 1 -->
<svg width="452pt" height="154pt"
 viewBox="0.00 0.00 452.00 153.50" xmlns="http://www.w3.org/2000/svg" xmlns:xlink="http://www.w3.org/1999/xlink">
<g id="graph0" class="graph" transform="scale(1 1) rotate(0) translate(4 149.5)">
<title>large_number::operator+=</title>
<polygon fill="#ffffff" stroke="transparent" points="-4,4 -4,-149.5 448,-149.5 448,4 -4,4"/>
<!-- Node29 -->
<g id="node1" class="node">
<title>Node29</title>
<polygon fill="#bfbfbf" stroke="#000000" points="0,-69 0,-88 128,-88 128,-69 0,-69"/>
<text text-anchor="middle" x="64" y="-76" font-family="Helvetica,sans-Serif" font-size="10.00" fill="#000000">large_number::operator+=</text>
</g>
<!-- Node30 -->
<g id="node2" class="node">
<title>Node30</title>
<g id="a_node2"><a doxygen="/home/runner/work/C-Plus-Plus/C-Plus-Plus/doc/cppreference-doxygen-web.tag.xml:http://en.cppreference.com/w/" xlink:href="http://en.cppreference.com/w/cpp/algorithm/max.html#" target="_top" xlink:title="std::max">
<polygon fill="#ffffff" stroke="#000000" points="200.5,-126 200.5,-145 255.5,-145 255.5,-126 200.5,-126"/>
<text text-anchor="middle" x="228" y="-133" font-family="Helvetica,sans-Serif" font-size="10.00" fill="#000000">std::max</text>
</a>
</g>
</g>
<!-- Node29&#45;&gt;Node30 -->
<g id="edge1" class="edge">
<title>Node29&#45;&gt;Node30</title>
<path fill="none" stroke="#191970" d="M87.6616,-88.0627C107.8115,-96.0682 137.6076,-107.5816 164,-116.5 172.6162,-119.4115 181.9634,-122.3233 190.7839,-124.9616"/>
<polygon fill="#191970" stroke="#191970" points="189.8703,-128.3411 200.4518,-127.8096 191.8484,-121.6264 189.8703,-128.3411"/>
</g>
<!-- Node31 -->
<g id="node3" class="node">
<title>Node31</title>
<g id="a_node3"><a xlink:href="../../db/d82/classlarge__number.html#a2305a82e7b372617419337b2d2119c7d" target="_top" xlink:title="large_number::num_digits">
<polygon fill="#ffffff" stroke="#000000" points="164,-88 164,-107 292,-107 292,-88 164,-88"/>
<text text-anchor="middle" x="228" y="-95" font-family="Helvetica,sans-Serif" font-size="10.00" fill="#000000">large_number::num_digits</text>
</a>
</g>
</g>
<!-- Node29&#45;&gt;Node31 -->
<g id="edge2" class="edge">
<title>Node29&#45;&gt;Node31</title>
<path fill="none" stroke="#191970" d="M128.3464,-85.9548C136.7313,-86.9262 145.3746,-87.9275 153.9029,-88.9156"/>
<polygon fill="#191970" stroke="#191970" points="153.5027,-92.3925 163.8391,-90.0667 154.3084,-85.4391 153.5027,-92.3925"/>
</g>
<!-- Node33 -->
<g id="node5" class="node">
<title>Node33</title>
<g id="a_node5"><a xlink:href="../../db/d82/classlarge__number.html#a60c436d1a1c5e3795d6177d3815ad615" target="_top" xlink:title="large_number::add_digit">
<polygon fill="#ffffff" stroke="#000000" points="168,-50 168,-69 288,-69 288,-50 168,-50"/>
<text text-anchor="middle" x="228" y="-57" font-family="Helvetica,sans-Serif" font-size="10.00" fill="#000000">large_number::add_digit</text>
</a>
</g>
</g>
<!-- Node29&#45;&gt;Node33 -->
<g id="edge4" class="edge">
<title>Node29&#45;&gt;Node33</title>
<path fill="none" stroke="#191970" d="M128.3464,-71.0452C138.0037,-69.9264 148.004,-68.7678 157.7763,-67.6357"/>
<polygon fill="#191970" stroke="#191970" points="158.323,-71.0958 167.8537,-66.4682 157.5173,-64.1423 158.323,-71.0958"/>
</g>
<!-- Node35 -->
<g id="node7" class="node">
<title>Node35</title>
<g id="a_node7"><a xlink:href="../../db/d82/classlarge__number.html#a10119a83839e65962621b73df46a5337" target="_top" xlink:title="large_number::large\l_number">
<polygon fill="#ffffff" stroke="#000000" points="177,-.5 177,-30.5 279,-30.5 279,-.5 177,-.5"/>
<text text-anchor="start" x="185" y="-18.5" font-family="Helvetica,sans-Serif" font-size="10.00" fill="#000000">large_number::large</text>
<text text-anchor="middle" x="228" y="-7.5" font-family="Helvetica,sans-Serif" font-size="10.00" fill="#000000">_number</text>
</a>
</g>
</g>
<!-- Node29&#45;&gt;Node35 -->
<g id="edge6" class="edge">
<title>Node29&#45;&gt;Node35</title>
<path fill="none" stroke="#191970" d="M88.9081,-68.9317C112.8414,-59.7378 149.6563,-45.5954 179.3998,-34.1696"/>
<polygon fill="#191970" stroke="#191970" points="180.7032,-37.4183 188.7831,-30.565 178.193,-30.8839 180.7032,-37.4183"/>
</g>
<!-- Node32 -->
<g id="node4" class="node">
<title>Node32</title>
<g id="a_node4"><a doxygen="/home/runner/work/C-Plus-Plus/C-Plus-Plus/doc/cppreference-doxygen-web.tag.xml:http://en.cppreference.com/w/" xlink:href="http://en.cppreference.com/w/cpp/container/vector/size.html#" target="_top" xlink:title="std::vector::size">
<polygon fill="#ffffff" stroke="#000000" points="342.5,-88 342.5,-107 429.5,-107 429.5,-88 342.5,-88"/>
<text text-anchor="middle" x="386" y="-95" font-family="Helvetica,sans-Serif" font-size="10.00" fill="#000000">std::vector::size</text>
</a>
</g>
</g>
<!-- Node31&#45;&gt;Node32 -->
<g id="edge3" class="edge">
<title>Node31&#45;&gt;Node32</title>
<path fill="none" stroke="#191970" d="M292.2646,-97.5C305.4778,-97.5 319.2612,-97.5 332.0647,-97.5"/>
<polygon fill="#191970" stroke="#191970" points="332.0932,-101.0001 342.0931,-97.5 332.0931,-94.0001 332.0932,-101.0001"/>
</g>
<!-- Node34 -->
<g id="node6" class="node">
<title>Node34</title>
<g id="a_node6"><a doxygen="/home/runner/work/C-Plus-Plus/C-Plus-Plus/doc/cppreference-doxygen-web.tag.xml:http://en.cppreference.com/w/" xlink:href="http://en.cppreference.com/w/cpp/container/vector/push_back.html#" target="_top" xlink:title="std::vector::push_back">
<polygon fill="#ffffff" stroke="#000000" points="328,-28 328,-47 444,-47 444,-28 328,-28"/>
<text text-anchor="middle" x="386" y="-35" font-family="Helvetica,sans-Serif" font-size="10.00" fill="#000000">std::vector::push_back</text>
</a>
</g>
</g>
<!-- Node33&#45;&gt;Node34 -->
<g id="edge5" class="edge">
<title>Node33&#45;&gt;Node34</title>
<path fill="none" stroke="#191970" d="M288.1838,-51.12C297.8278,-49.7771 307.869,-48.379 317.686,-47.0121"/>
<polygon fill="#191970" stroke="#191970" points="318.3874,-50.4483 327.8091,-45.6025 317.4219,-43.5152 318.3874,-50.4483"/>
</g>
<!-- Node35&#45;&gt;Node34 -->
<g id="edge7" class="edge">
<title>Node35&#45;&gt;Node34</title>
<path fill="none" stroke="#191970" d="M279.2981,-22.6428C291.5273,-24.3456 304.7707,-26.1896 317.6312,-27.9803"/>
<polygon fill="#191970" stroke="#191970" points="317.4491,-31.4886 327.8362,-29.4012 318.4145,-24.5555 317.4491,-31.4886"/>
</g>
</g>
</svg>
