<?xml version="1.0" encoding="UTF-8" standalone="no"?>
<!DOCTYPE svg PUBLIC "-//W3C//DTD SVG 1.1//EN"
 "http://www.w3.org/Graphics/SVG/1.1/DTD/svg11.dtd">
<!-- Generated by graphviz version 8.0.4 (20230421.1958)
 -->
<!-- Title: math/quadratic_equations_complex_numbers.cpp Pages: 1 -->
<svg width="460pt" height="94pt"
 viewBox="0.00 0.00 459.62 93.75" xmlns="http://www.w3.org/2000/svg" xmlns:xlink="http://www.w3.org/1999/xlink">
<g id="graph0" class="graph" transform="scale(1 1) rotate(0) translate(4 89.75)">
<title>math/quadratic_equations_complex_numbers.cpp</title>
<!-- Node1 -->
<g id="node1" class="node">
<title>Node1</title>
<g id="a_node1"><a xlink:title="Calculate quadratic equation with complex roots, i.e. b^2 &#45; 4ac &lt; 0.">
<polygon fill="#999999" stroke="#666666" points="273.75,-85.75 146,-85.75 146,-55.25 273.75,-55.25 273.75,-85.75"/>
<text text-anchor="start" x="154" y="-72.25" font-family="Helvetica,sans-Serif" font-size="10.00">math/quadratic_equations</text>
<text text-anchor="middle" x="209.88" y="-61" font-family="Helvetica,sans-Serif" font-size="10.00">_complex_numbers.cpp</text>
</a>
</g>
</g>
<!-- Node2 -->
<g id="node2" class="node">
<title>Node2</title>
<g id="a_node2"><a xlink:title=" ">
<polygon fill="#e0e0e0" stroke="#999999" points="37.75,-19.25 0,-19.25 0,0 37.75,0 37.75,-19.25"/>
<text text-anchor="middle" x="18.88" y="-5.75" font-family="Helvetica,sans-Serif" font-size="10.00">array</text>
</a>
</g>
</g>
<!-- Node1&#45;&gt;Node2 -->
<g id="edge1" class="edge">
<title>Node1&#45;&gt;Node2</title>
<path fill="none" stroke="#63b8ff" d="M162.17,-54.8C126.35,-43.75 78.44,-28.99 48.11,-19.64"/>
<polygon fill="#63b8ff" stroke="#63b8ff" points="49.38,-16.06 38.79,-16.46 47.32,-22.75 49.38,-16.06"/>
</g>
<!-- Node3 -->
<g id="node3" class="node">
<title>Node3</title>
<g id="a_node3"><a xlink:title=" ">
<polygon fill="#e0e0e0" stroke="#999999" points="104,-19.25 55.75,-19.25 55.75,0 104,0 104,-19.25"/>
<text text-anchor="middle" x="79.88" y="-5.75" font-family="Helvetica,sans-Serif" font-size="10.00">cassert</text>
</a>
</g>
</g>
<!-- Node1&#45;&gt;Node3 -->
<g id="edge2" class="edge">
<title>Node1&#45;&gt;Node3</title>
<path fill="none" stroke="#63b8ff" d="M177.41,-54.8C156.66,-45.4 129.95,-33.3 109.73,-24.14"/>
<polygon fill="#63b8ff" stroke="#63b8ff" points="111.36,-20.59 100.81,-19.65 108.48,-26.97 111.36,-20.59"/>
</g>
<!-- Node4 -->
<g id="node4" class="node">
<title>Node4</title>
<g id="a_node4"><a xlink:title=" ">
<polygon fill="#e0e0e0" stroke="#999999" points="165.38,-19.25 122.38,-19.25 122.38,0 165.38,0 165.38,-19.25"/>
<text text-anchor="middle" x="143.88" y="-5.75" font-family="Helvetica,sans-Serif" font-size="10.00">cmath</text>
</a>
</g>
</g>
<!-- Node1&#45;&gt;Node4 -->
<g id="edge3" class="edge">
<title>Node1&#45;&gt;Node4</title>
<path fill="none" stroke="#63b8ff" d="M193.56,-54.95C183.99,-46.41 171.89,-35.62 162.02,-26.81"/>
<polygon fill="#63b8ff" stroke="#63b8ff" points="164.84,-24.75 155.05,-20.7 160.18,-29.97 164.84,-24.75"/>
</g>
<!-- Node5 -->
<g id="node5" class="node">
<title>Node5</title>
<g id="a_node5"><a xlink:title=" ">
<polygon fill="#e0e0e0" stroke="#999999" points="236.25,-19.25 183.5,-19.25 183.5,0 236.25,0 236.25,-19.25"/>
<text text-anchor="middle" x="209.88" y="-5.75" font-family="Helvetica,sans-Serif" font-size="10.00">complex</text>
</a>
</g>
</g>
<!-- Node1&#45;&gt;Node5 -->
<g id="edge4" class="edge">
<title>Node1&#45;&gt;Node5</title>
<path fill="none" stroke="#63b8ff" d="M209.88,-54.95C209.88,-47.62 209.88,-38.62 209.88,-30.66"/>
<polygon fill="#63b8ff" stroke="#63b8ff" points="213.38,-30.7 209.88,-20.7 206.38,-30.7 213.38,-30.7"/>
</g>
<!-- Node6 -->
<g id="node6" class="node">
<title>Node6</title>
<g id="a_node6"><a xlink:title=" ">
<polygon fill="#e0e0e0" stroke="#999999" points="311.88,-19.25 253.88,-19.25 253.88,0 311.88,0 311.88,-19.25"/>
<text text-anchor="middle" x="282.88" y="-5.75" font-family="Helvetica,sans-Serif" font-size="10.00">exception</text>
</a>
</g>
</g>
<!-- Node1&#45;&gt;Node6 -->
<g id="edge5" class="edge">
<title>Node1&#45;&gt;Node6</title>
<path fill="none" stroke="#63b8ff" d="M227.92,-54.95C238.61,-46.33 252.16,-35.4 263.13,-26.55"/>
<polygon fill="#63b8ff" stroke="#63b8ff" points="265.03,-28.7 270.62,-19.7 260.64,-23.25 265.03,-28.7"/>
</g>
<!-- Node7 -->
<g id="node7" class="node">
<title>Node7</title>
<g id="a_node7"><a xlink:title=" ">
<polygon fill="#e0e0e0" stroke="#999999" points="379.75,-19.25 330,-19.25 330,0 379.75,0 379.75,-19.25"/>
<text text-anchor="middle" x="354.88" y="-5.75" font-family="Helvetica,sans-Serif" font-size="10.00">iomanip</text>
</a>
</g>
</g>
<!-- Node1&#45;&gt;Node7 -->
<g id="edge6" class="edge">
<title>Node1&#45;&gt;Node7</title>
<path fill="none" stroke="#63b8ff" d="M246.09,-54.8C269.55,-45.27 299.85,-32.97 322.5,-23.77"/>
<polygon fill="#63b8ff" stroke="#63b8ff" points="323.69,-26.66 331.64,-19.65 321.06,-20.17 323.69,-26.66"/>
</g>
<!-- Node8 -->
<g id="node8" class="node">
<title>Node8</title>
<g id="a_node8"><a xlink:title=" ">
<polygon fill="#e0e0e0" stroke="#999999" points="451.62,-19.25 398.12,-19.25 398.12,0 451.62,0 451.62,-19.25"/>
<text text-anchor="middle" x="424.88" y="-5.75" font-family="Helvetica,sans-Serif" font-size="10.00">iostream</text>
</a>
</g>
</g>
<!-- Node1&#45;&gt;Node8 -->
<g id="edge7" class="edge">
<title>Node1&#45;&gt;Node8</title>
<path fill="none" stroke="#63b8ff" d="M263.57,-54.8C302.07,-44.25 352.97,-30.32 387.2,-20.94"/>
<polygon fill="#63b8ff" stroke="#63b8ff" points="387.98,-24.08 396.7,-18.07 386.13,-17.33 387.98,-24.08"/>
</g>
</g>
</svg>
