<?xml version="1.0" encoding="UTF-8" standalone="no"?>
<!DOCTYPE svg PUBLIC "-//W3C//DTD SVG 1.1//EN"
 "http://www.w3.org/Graphics/SVG/1.1/DTD/svg11.dtd">
<!-- Generated by graphviz version 2.44.1 (20200629.0846)
 -->
<!-- Title: data_structure::SkipList Pages: 1 -->
<svg width="347pt" height="184pt"
 viewBox="0.00 0.00 347.00 184.00" xmlns="http://www.w3.org/2000/svg" xmlns:xlink="http://www.w3.org/1999/xlink">
<g id="graph0" class="graph" transform="scale(1 1) rotate(0) translate(4 180)">
<title>data_structure::SkipList</title>
<polygon fill="white" stroke="transparent" points="-4,4 -4,-180 343,-180 343,4 -4,4"/>
<!-- Node1 -->
<g id="node1" class="node">
<title>Node1</title>
<g id="a_node1"><a xlink:title=" ">
<polygon fill="#bfbfbf" stroke="black" points="0,-73 0,-92 120,-92 120,-73 0,-73"/>
<text text-anchor="middle" x="60" y="-80" font-family="Helvetica,sans-Serif" font-size="10.00">data_structure::SkipList</text>
</a>
</g>
</g>
<!-- Node2 -->
<g id="node2" class="node">
<title>Node2</title>
<g id="a_node2"><a target="_blank" xlink:href="http://en.cppreference.com/w/cpp/memory/shared_ptr.html" target="_top" xlink:title=" ">
<polygon fill="white" stroke="black" points="159,-145.5 159,-175.5 269,-175.5 269,-145.5 159,-145.5"/>
<text text-anchor="start" x="167" y="-163.5" font-family="Helvetica,sans-Serif" font-size="10.00">std::shared_ptr&lt; data</text>
<text text-anchor="middle" x="214" y="-152.5" font-family="Helvetica,sans-Serif" font-size="10.00">_structure::Node &gt;</text>
</a>
</g>
</g>
<!-- Node2&#45;&gt;Node1 -->
<g id="edge1" class="edge">
<title>Node2&#45;&gt;Node1</title>
<path fill="none" stroke="#9a32cd" stroke-dasharray="5,2" d="M176.04,-140.77C144.56,-125.23 101.25,-103.86 77.44,-92.11"/>
<polygon fill="#9a32cd" stroke="#9a32cd" points="174.88,-144.1 185.39,-145.38 177.98,-137.82 174.88,-144.1"/>
<text text-anchor="middle" x="163.5" y="-119" font-family="Helvetica,sans-Serif" font-size="10.00"> header</text>
</g>
<!-- Node4 -->
<g id="node4" class="node">
<title>Node4</title>
<g id="a_node4"><a target="_blank" xlink:href="http://en.cppreference.com/w/cpp/container/vector.html" target="_top" xlink:title=" ">
<polygon fill="white" stroke="black" points="138,-67.5 138,-97.5 290,-97.5 290,-67.5 138,-67.5"/>
<text text-anchor="start" x="146" y="-85.5" font-family="Helvetica,sans-Serif" font-size="10.00">std::vector&lt; std::shared</text>
<text text-anchor="middle" x="214" y="-74.5" font-family="Helvetica,sans-Serif" font-size="10.00">_ptr&lt; data_structure::Node &gt; &gt;</text>
</a>
</g>
</g>
<!-- Node2&#45;&gt;Node4 -->
<g id="edge4" class="edge">
<title>Node2&#45;&gt;Node4</title>
<path fill="none" stroke="#9a32cd" stroke-dasharray="5,2" d="M214,-135.09C214,-122.76 214,-108.22 214,-97.73"/>
<polygon fill="#9a32cd" stroke="#9a32cd" points="210.5,-135.2 214,-145.2 217.5,-135.21 210.5,-135.2"/>
<text text-anchor="middle" x="235.5" y="-119" font-family="Helvetica,sans-Serif" font-size="10.00"> elements</text>
</g>
<!-- Node3 -->
<g id="node3" class="node">
<title>Node3</title>
<g id="a_node3"><a xlink:href="../../d3/d6f/structdata__structure_1_1_node.html" target="_top" xlink:title=" ">
<polygon fill="white" stroke="black" points="231,-0.5 231,-19.5 339,-19.5 339,-0.5 231,-0.5"/>
<text text-anchor="middle" x="285" y="-7.5" font-family="Helvetica,sans-Serif" font-size="10.00">data_structure::Node</text>
</a>
</g>
</g>
<!-- Node3&#45;&gt;Node2 -->
<g id="edge2" class="edge">
<title>Node3&#45;&gt;Node2</title>
<path fill="none" stroke="#9a32cd" stroke-dasharray="5,2" d="M293.83,-28.85C301.54,-47.12 309.94,-75.89 299,-98 288.34,-119.55 266.07,-135.23 247,-145.36"/>
<polygon fill="#9a32cd" stroke="#9a32cd" points="296.97,-27.3 289.63,-19.66 290.6,-30.21 296.97,-27.3"/>
<text text-anchor="middle" x="312.5" y="-80" font-family="Helvetica,sans-Serif" font-size="10.00"> ptr</text>
</g>
<!-- Node4&#45;&gt;Node3 -->
<g id="edge3" class="edge">
<title>Node4&#45;&gt;Node3</title>
<path fill="none" stroke="#9a32cd" stroke-dasharray="5,2" d="M235.51,-60.14C249.09,-46.65 265.92,-29.94 276.04,-19.89"/>
<polygon fill="#9a32cd" stroke="#9a32cd" points="233,-57.7 228.37,-67.23 237.93,-62.67 233,-57.7"/>
<text text-anchor="middle" x="274" y="-41" font-family="Helvetica,sans-Serif" font-size="10.00"> forward</text>
</g>
</g>
</svg>
