<?xml version="1.0" encoding="UTF-8" standalone="no"?>
<!DOCTYPE svg PUBLIC "-//W3C//DTD SVG 1.1//EN"
 "http://www.w3.org/Graphics/SVG/1.1/DTD/svg11.dtd">
<!-- Generated by graphviz version 8.0.5 (20230430.1635)
 -->
<!-- Title: math/large_factorial.cpp Pages: 1 -->
<svg width="479pt" height="138pt"
 viewBox="0.00 0.00 478.50 137.75" xmlns="http://www.w3.org/2000/svg" xmlns:xlink="http://www.w3.org/1999/xlink">
<g id="graph0" class="graph" transform="scale(1 1) rotate(0) translate(4 133.75)">
<title>math/large_factorial.cpp</title>
<!-- Node1 -->
<g id="node1" class="node">
<title>Node1</title>
<g id="a_node1"><a xlink:title="Compute factorial of any arbitratily large number/.">
<polygon fill="#999999" stroke="#666666" points="185.75,-129.75 65.5,-129.75 65.5,-110.5 185.75,-110.5 185.75,-129.75"/>
<text text-anchor="middle" x="125.62" y="-116.25" font-family="Helvetica,sans-Serif" font-size="10.00">math/large_factorial.cpp</text>
</a>
</g>
</g>
<!-- Node2 -->
<g id="node2" class="node">
<title>Node2</title>
<g id="a_node2"><a xlink:title=" ">
<polygon fill="#e0e0e0" stroke="#999999" points="45.25,-19.25 0,-19.25 0,0 45.25,0 45.25,-19.25"/>
<text text-anchor="middle" x="22.62" y="-5.75" font-family="Helvetica,sans-Serif" font-size="10.00">cstring</text>
</a>
</g>
</g>
<!-- Node1&#45;&gt;Node2 -->
<g id="edge1" class="edge">
<title>Node1&#45;&gt;Node2</title>
<path fill="none" stroke="#63b8ff" d="M117.2,-110.25C99.99,-92.13 60.61,-50.63 38.47,-27.32"/>
<polygon fill="#63b8ff" stroke="#63b8ff" points="41.59,-25.47 32.17,-20.63 36.52,-30.29 41.59,-25.47"/>
</g>
<!-- Node3 -->
<g id="node3" class="node">
<title>Node3</title>
<g id="a_node3"><a xlink:title=" ">
<polygon fill="#e0e0e0" stroke="#999999" points="263.62,-74.5 223.62,-74.5 223.62,-55.25 263.62,-55.25 263.62,-74.5"/>
<text text-anchor="middle" x="243.62" y="-61" font-family="Helvetica,sans-Serif" font-size="10.00">ctime</text>
</a>
</g>
</g>
<!-- Node1&#45;&gt;Node3 -->
<g id="edge2" class="edge">
<title>Node1&#45;&gt;Node3</title>
<path fill="none" stroke="#63b8ff" d="M145.64,-110.09C164.29,-101.68 192.34,-89.02 213.66,-79.4"/>
<polygon fill="#63b8ff" stroke="#63b8ff" points="214.83,-82.26 222.51,-74.95 211.96,-75.88 214.83,-82.26"/>
</g>
<!-- Node4 -->
<g id="node4" class="node">
<title>Node4</title>
<g id="a_node4"><a xlink:title=" ">
<polygon fill="#e0e0e0" stroke="#999999" points="116.38,-19.25 62.88,-19.25 62.88,0 116.38,0 116.38,-19.25"/>
<text text-anchor="middle" x="89.62" y="-5.75" font-family="Helvetica,sans-Serif" font-size="10.00">iostream</text>
</a>
</g>
</g>
<!-- Node1&#45;&gt;Node4 -->
<g id="edge3" class="edge">
<title>Node1&#45;&gt;Node4</title>
<path fill="none" stroke="#63b8ff" d="M122.04,-110.31C118.46,-101.35 112.88,-87.06 108.62,-74.5 103.57,-59.57 98.51,-42.43 94.89,-29.67"/>
<polygon fill="#63b8ff" stroke="#63b8ff" points="98.07,-29.05 92,-20.37 91.33,-30.94 98.07,-29.05"/>
</g>
<!-- Node5 -->
<g id="node5" class="node">
<title>Node5</title>
<g id="a_node5"><a xlink:href="../../d4/d86/large__number_8h.html" target="_top" xlink:title="Library to perform arithmatic operations on arbitrarily large numbers.">
<polygon fill="white" stroke="#666666" points="205.62,-74.5 117.62,-74.5 117.62,-55.25 205.62,-55.25 205.62,-74.5"/>
<text text-anchor="middle" x="161.62" y="-61" font-family="Helvetica,sans-Serif" font-size="10.00">./large_number.h</text>
</a>
</g>
</g>
<!-- Node1&#45;&gt;Node5 -->
<g id="edge4" class="edge">
<title>Node1&#45;&gt;Node5</title>
<path fill="none" stroke="#63b8ff" d="M131.57,-110.33C136.44,-103.13 143.49,-92.71 149.53,-83.76"/>
<polygon fill="#63b8ff" stroke="#63b8ff" points="152.85,-86.1 155.55,-75.86 147.05,-82.18 152.85,-86.1"/>
</g>
<!-- Node5&#45;&gt;Node2 -->
<g id="edge8" class="edge">
<title>Node5&#45;&gt;Node2</title>
<path fill="none" stroke="#63b8ff" d="M138.05,-54.84C115.41,-46.17 81.01,-32.99 55.65,-23.28"/>
<polygon fill="#63b8ff" stroke="#63b8ff" points="56.99,-19.66 46.4,-19.35 54.48,-26.19 56.99,-19.66"/>
</g>
<!-- Node5&#45;&gt;Node4 -->
<g id="edge9" class="edge">
<title>Node5&#45;&gt;Node4</title>
<path fill="none" stroke="#63b8ff" d="M149.41,-54.84C138.69,-46.91 122.88,-35.22 110.21,-25.85"/>
<polygon fill="#63b8ff" stroke="#63b8ff" points="112.78,-22.66 102.66,-19.52 108.62,-28.29 112.78,-22.66"/>
</g>
<!-- Node6 -->
<g id="node6" class="node">
<title>Node6</title>
<g id="a_node6"><a xlink:title=" ">
<polygon fill="#e0e0e0" stroke="#999999" points="470.5,-19.25 414.75,-19.25 414.75,0 470.5,0 470.5,-19.25"/>
<text text-anchor="middle" x="442.62" y="-5.75" font-family="Helvetica,sans-Serif" font-size="10.00">algorithm</text>
</a>
</g>
</g>
<!-- Node5&#45;&gt;Node6 -->
<g id="edge5" class="edge">
<title>Node5&#45;&gt;Node6</title>
<path fill="none" stroke="#63b8ff" d="M206.03,-56.54C253.01,-48.62 329.55,-35.23 403.89,-19.75"/>
<polygon fill="#63b8ff" stroke="#63b8ff" points="404.29,-23.03 413.36,-17.55 402.85,-16.18 404.29,-23.03"/>
</g>
<!-- Node7 -->
<g id="node7" class="node">
<title>Node7</title>
<g id="a_node7"><a xlink:title=" ">
<polygon fill="#e0e0e0" stroke="#999999" points="182.75,-19.25 134.5,-19.25 134.5,0 182.75,0 182.75,-19.25"/>
<text text-anchor="middle" x="158.62" y="-5.75" font-family="Helvetica,sans-Serif" font-size="10.00">cassert</text>
</a>
</g>
</g>
<!-- Node5&#45;&gt;Node7 -->
<g id="edge6" class="edge">
<title>Node5&#45;&gt;Node7</title>
<path fill="none" stroke="#63b8ff" d="M161.13,-55.08C160.75,-48.42 160.22,-38.99 159.75,-30.53"/>
<polygon fill="#63b8ff" stroke="#63b8ff" points="163.19,-30.4 159.13,-20.61 156.2,-30.79 163.19,-30.4"/>
</g>
<!-- Node8 -->
<g id="node8" class="node">
<title>Node8</title>
<g id="a_node8"><a xlink:title=" ">
<polygon fill="#e0e0e0" stroke="#999999" points="256.5,-19.25 200.75,-19.25 200.75,0 256.5,0 256.5,-19.25"/>
<text text-anchor="middle" x="228.62" y="-5.75" font-family="Helvetica,sans-Serif" font-size="10.00">cinttypes</text>
</a>
</g>
</g>
<!-- Node5&#45;&gt;Node8 -->
<g id="edge7" class="edge">
<title>Node5&#45;&gt;Node8</title>
<path fill="none" stroke="#63b8ff" d="M172.99,-54.84C182.87,-46.99 197.39,-35.45 209.12,-26.12"/>
<polygon fill="#63b8ff" stroke="#63b8ff" points="210.78,-28.49 216.43,-19.52 206.42,-23.01 210.78,-28.49"/>
</g>
<!-- Node9 -->
<g id="node9" class="node">
<title>Node9</title>
<g id="a_node9"><a xlink:title=" ">
<polygon fill="#e0e0e0" stroke="#999999" points="336.5,-19.25 274.75,-19.25 274.75,0 336.5,0 336.5,-19.25"/>
<text text-anchor="middle" x="305.62" y="-5.75" font-family="Helvetica,sans-Serif" font-size="10.00">type_traits</text>
</a>
</g>
</g>
<!-- Node5&#45;&gt;Node9 -->
<g id="edge10" class="edge">
<title>Node5&#45;&gt;Node9</title>
<path fill="none" stroke="#63b8ff" d="M186.05,-54.84C209.33,-46.24 244.6,-33.19 270.81,-23.5"/>
<polygon fill="#63b8ff" stroke="#63b8ff" points="271.91,-26.45 280.08,-19.7 269.48,-19.89 271.91,-26.45"/>
</g>
<!-- Node10 -->
<g id="node10" class="node">
<title>Node10</title>
<g id="a_node10"><a xlink:title=" ">
<polygon fill="#e0e0e0" stroke="#999999" points="397.12,-19.25 354.12,-19.25 354.12,0 397.12,0 397.12,-19.25"/>
<text text-anchor="middle" x="375.62" y="-5.75" font-family="Helvetica,sans-Serif" font-size="10.00">vector</text>
</a>
</g>
</g>
<!-- Node5&#45;&gt;Node10 -->
<g id="edge11" class="edge">
<title>Node5&#45;&gt;Node10</title>
<path fill="none" stroke="#63b8ff" d="M201.23,-54.78C236.31,-46.61 289.17,-34.02 343.24,-19.81"/>
<polygon fill="#63b8ff" stroke="#63b8ff" points="343.93,-22.98 352.7,-17.04 342.14,-16.22 343.93,-22.98"/>
</g>
</g>
</svg>
