<?xml version="1.0" encoding="UTF-8" standalone="no"?>
<!DOCTYPE svg PUBLIC "-//W3C//DTD SVG 1.1//EN"
 "http://www.w3.org/Graphics/SVG/1.1/DTD/svg11.dtd">
<!-- Generated by graphviz version 2.49.3 (20211023.0002)
 -->
<!-- Title: math/large_factorial.cpp Pages: 1 -->
<svg width="489pt" height="140pt"
 viewBox="0.00 0.00 489.00 140.00" xmlns="http://www.w3.org/2000/svg" xmlns:xlink="http://www.w3.org/1999/xlink">
<g id="graph0" class="graph" transform="scale(1 1) rotate(0) translate(4 136)">
<title>math/large_factorial.cpp</title>
<polygon fill="white" stroke="transparent" points="-4,4 -4,-136 485,-136 485,4 -4,4"/>
<!-- Node1 -->
<g id="node1" class="node">
<title>Node1</title>
<g id="a_node1"><a xlink:title="Compute factorial of any arbitratily large number/.">
<polygon fill="#bfbfbf" stroke="black" points="67.5,-112.5 67.5,-131.5 190.5,-131.5 190.5,-112.5 67.5,-112.5"/>
<text text-anchor="middle" x="129" y="-119.5" font-family="Helvetica,sans-Serif" font-size="10.00">math/large_factorial.cpp</text>
</a>
</g>
</g>
<!-- Node2 -->
<g id="node2" class="node">
<title>Node2</title>
<g id="a_node2"><a xlink:title=" ">
<polygon fill="white" stroke="#bfbfbf" points="0,-0.5 0,-19.5 46,-19.5 46,-0.5 0,-0.5"/>
<text text-anchor="middle" x="23" y="-7.5" font-family="Helvetica,sans-Serif" font-size="10.00">cstring</text>
</a>
</g>
</g>
<!-- Node1&#45;&gt;Node2 -->
<g id="edge1" class="edge">
<title>Node1&#45;&gt;Node2</title>
<path fill="none" stroke="midnightblue" d="M120.68,-112.37C102.96,-93.97 61.23,-50.67 38.47,-27.05"/>
<polygon fill="midnightblue" stroke="midnightblue" points="40.74,-24.36 31.28,-19.59 35.7,-29.22 40.74,-24.36"/>
</g>
<!-- Node3 -->
<g id="node3" class="node">
<title>Node3</title>
<g id="a_node3"><a xlink:title=" ">
<polygon fill="white" stroke="#bfbfbf" points="230,-56.5 230,-75.5 270,-75.5 270,-56.5 230,-56.5"/>
<text text-anchor="middle" x="250" y="-63.5" font-family="Helvetica,sans-Serif" font-size="10.00">ctime</text>
</a>
</g>
</g>
<!-- Node1&#45;&gt;Node3 -->
<g id="edge2" class="edge">
<title>Node1&#45;&gt;Node3</title>
<path fill="none" stroke="midnightblue" d="M148.17,-112.44C167.91,-103.64 198.89,-89.81 221.49,-79.72"/>
<polygon fill="midnightblue" stroke="midnightblue" points="223.21,-82.79 230.92,-75.52 220.36,-76.4 223.21,-82.79"/>
</g>
<!-- Node4 -->
<g id="node4" class="node">
<title>Node4</title>
<g id="a_node4"><a xlink:title=" ">
<polygon fill="white" stroke="#bfbfbf" points="64.5,-0.5 64.5,-19.5 119.5,-19.5 119.5,-0.5 64.5,-0.5"/>
<text text-anchor="middle" x="92" y="-7.5" font-family="Helvetica,sans-Serif" font-size="10.00">iostream</text>
</a>
</g>
</g>
<!-- Node1&#45;&gt;Node4 -->
<g id="edge3" class="edge">
<title>Node1&#45;&gt;Node4</title>
<path fill="none" stroke="midnightblue" d="M125.3,-112.47C121.48,-103.48 115.45,-88.88 111,-76 105.66,-60.55 100.52,-42.7 96.93,-29.62"/>
<polygon fill="midnightblue" stroke="midnightblue" points="100.3,-28.66 94.31,-19.92 93.54,-30.48 100.3,-28.66"/>
</g>
<!-- Node5 -->
<g id="node5" class="node">
<title>Node5</title>
<g id="a_node5"><a xlink:href="../../d4/d86/large__number_8h.html" target="_top" xlink:title="Library to perform arithmatic operations on arbitrarily large numbers.">
<polygon fill="white" stroke="black" points="120,-56.5 120,-75.5 212,-75.5 212,-56.5 120,-56.5"/>
<text text-anchor="middle" x="166" y="-63.5" font-family="Helvetica,sans-Serif" font-size="10.00">./large_number.h</text>
</a>
</g>
</g>
<!-- Node1&#45;&gt;Node5 -->
<g id="edge4" class="edge">
<title>Node1&#45;&gt;Node5</title>
<path fill="none" stroke="midnightblue" d="M135.11,-112.08C140.28,-104.53 147.85,-93.49 154.19,-84.23"/>
<polygon fill="midnightblue" stroke="midnightblue" points="157.24,-85.98 160,-75.75 151.46,-82.02 157.24,-85.98"/>
</g>
<!-- Node5&#45;&gt;Node2 -->
<g id="edge8" class="edge">
<title>Node5&#45;&gt;Node2</title>
<path fill="none" stroke="midnightblue" d="M143.34,-56.44C119.6,-47.48 82.09,-33.31 55.26,-23.18"/>
<polygon fill="midnightblue" stroke="midnightblue" points="56.14,-19.77 45.55,-19.52 53.67,-26.32 56.14,-19.77"/>
</g>
<!-- Node5&#45;&gt;Node4 -->
<g id="edge9" class="edge">
<title>Node5&#45;&gt;Node4</title>
<path fill="none" stroke="midnightblue" d="M154.11,-56.32C142.85,-48.11 125.71,-35.6 112.29,-25.81"/>
<polygon fill="midnightblue" stroke="midnightblue" points="114.25,-22.9 104.11,-19.83 110.12,-28.56 114.25,-22.9"/>
</g>
<!-- Node6 -->
<g id="node6" class="node">
<title>Node6</title>
<g id="a_node6"><a xlink:title=" ">
<polygon fill="white" stroke="#bfbfbf" points="423,-0.5 423,-19.5 481,-19.5 481,-0.5 423,-0.5"/>
<text text-anchor="middle" x="452" y="-7.5" font-family="Helvetica,sans-Serif" font-size="10.00">algorithm</text>
</a>
</g>
</g>
<!-- Node5&#45;&gt;Node6 -->
<g id="edge5" class="edge">
<title>Node5&#45;&gt;Node6</title>
<path fill="none" stroke="midnightblue" d="M212.31,-57.35C260.09,-49.29 337,-35.85 412.79,-20.16"/>
<polygon fill="midnightblue" stroke="midnightblue" points="413.91,-23.51 422.99,-18.04 412.49,-16.65 413.91,-23.51"/>
</g>
<!-- Node7 -->
<g id="node7" class="node">
<title>Node7</title>
<g id="a_node7"><a xlink:title=" ">
<polygon fill="white" stroke="#bfbfbf" points="137.5,-0.5 137.5,-19.5 186.5,-19.5 186.5,-0.5 137.5,-0.5"/>
<text text-anchor="middle" x="162" y="-7.5" font-family="Helvetica,sans-Serif" font-size="10.00">cassert</text>
</a>
</g>
</g>
<!-- Node5&#45;&gt;Node7 -->
<g id="edge6" class="edge">
<title>Node5&#45;&gt;Node7</title>
<path fill="none" stroke="midnightblue" d="M165.34,-56.08C164.82,-49.01 164.06,-38.86 163.41,-29.99"/>
<polygon fill="midnightblue" stroke="midnightblue" points="166.88,-29.47 162.65,-19.75 159.9,-29.98 166.88,-29.47"/>
</g>
<!-- Node8 -->
<g id="node8" class="node">
<title>Node8</title>
<g id="a_node8"><a xlink:title=" ">
<polygon fill="white" stroke="#bfbfbf" points="205,-0.5 205,-19.5 261,-19.5 261,-0.5 205,-0.5"/>
<text text-anchor="middle" x="233" y="-7.5" font-family="Helvetica,sans-Serif" font-size="10.00">cinttypes</text>
</a>
</g>
</g>
<!-- Node5&#45;&gt;Node8 -->
<g id="edge7" class="edge">
<title>Node5&#45;&gt;Node8</title>
<path fill="none" stroke="midnightblue" d="M176.76,-56.32C186.77,-48.26 201.89,-36.08 213.93,-26.37"/>
<polygon fill="midnightblue" stroke="midnightblue" points="216.45,-28.83 222.04,-19.83 212.06,-23.38 216.45,-28.83"/>
</g>
<!-- Node9 -->
<g id="node9" class="node">
<title>Node9</title>
<g id="a_node9"><a xlink:title=" ">
<polygon fill="white" stroke="#bfbfbf" points="279.5,-0.5 279.5,-19.5 342.5,-19.5 342.5,-0.5 279.5,-0.5"/>
<text text-anchor="middle" x="311" y="-7.5" font-family="Helvetica,sans-Serif" font-size="10.00">type_traits</text>
</a>
</g>
</g>
<!-- Node5&#45;&gt;Node9 -->
<g id="edge10" class="edge">
<title>Node5&#45;&gt;Node9</title>
<path fill="none" stroke="midnightblue" d="M188.98,-56.44C213.16,-47.44 251.42,-33.19 278.65,-23.05"/>
<polygon fill="midnightblue" stroke="midnightblue" points="279.98,-26.29 288.13,-19.52 277.54,-19.73 279.98,-26.29"/>
</g>
<!-- Node10 -->
<g id="node10" class="node">
<title>Node10</title>
<g id="a_node10"><a xlink:title=" ">
<polygon fill="white" stroke="#bfbfbf" points="361,-0.5 361,-19.5 405,-19.5 405,-0.5 361,-0.5"/>
<text text-anchor="middle" x="383" y="-7.5" font-family="Helvetica,sans-Serif" font-size="10.00">vector</text>
</a>
</g>
</g>
<!-- Node5&#45;&gt;Node10 -->
<g id="edge11" class="edge">
<title>Node5&#45;&gt;Node10</title>
<path fill="none" stroke="midnightblue" d="M203.53,-56.44C239.13,-48.21 294.34,-35.15 350.86,-20.22"/>
<polygon fill="midnightblue" stroke="midnightblue" points="351.92,-23.56 360.68,-17.61 350.12,-16.8 351.92,-23.56"/>
</g>
</g>
</svg>
