<?xml version="1.0" encoding="UTF-8" standalone="no"?>
<!DOCTYPE svg PUBLIC "-//W3C//DTD SVG 1.1//EN"
 "http://www.w3.org/Graphics/SVG/1.1/DTD/svg11.dtd">
<!-- Generated by graphviz version 5.0.0 (20220707.1540)
 -->
<!-- Title: sorting::inversion::mergeSort Pages: 1 -->
<svg width="310pt" height="84pt"
 viewBox="0.00 0.00 310.00 84.00" xmlns="http://www.w3.org/2000/svg" xmlns:xlink="http://www.w3.org/1999/xlink">
<g id="graph0" class="graph" transform="scale(1 1) rotate(0) translate(4 80)">
<title>sorting::inversion::mergeSort</title>
<polygon fill="white" stroke="transparent" points="-4,4 -4,-80 306,-80 306,4 -4,4"/>
<!-- Node1 -->
<g id="node1" class="node">
<title>Node1</title>
<g id="a_node1"><a xlink:title="Implement merge Sort and count inverions while merging.">
<polygon fill="#bfbfbf" stroke="black" points="0,-23 0,-53 91,-53 91,-23 0,-23"/>
<text text-anchor="start" x="8" y="-41" font-family="Helvetica,sans-Serif" font-size="10.00">sorting::inversion</text>
<text text-anchor="middle" x="45.5" y="-30" font-family="Helvetica,sans-Serif" font-size="10.00">::mergeSort</text>
</a>
</g>
</g>
<!-- Node2 -->
<g id="node2" class="node">
<title>Node2</title>
<g id="a_node2"><a xlink:href="../../d5/d91/namespacesorting.html#aa26de383227859210f14dcf12201a079" target="_top" xlink:title="merges 2 sorted adjacent segments into a larger sorted segment">
<polygon fill="white" stroke="black" points="127,-56.5 127,-75.5 206,-75.5 206,-56.5 127,-56.5"/>
<text text-anchor="middle" x="166.5" y="-63.5" font-family="Helvetica,sans-Serif" font-size="10.00">sorting::merge</text>
</a>
</g>
</g>
<!-- Node1&#45;&gt;Node2 -->
<g id="edge1" class="edge">
<title>Node1&#45;&gt;Node2</title>
<path fill="none" stroke="midnightblue" d="M91.15,-48.51C99.59,-50.49 108.45,-52.58 117,-54.59"/>
<polygon fill="midnightblue" stroke="midnightblue" points="116.31,-58.02 126.85,-56.91 117.91,-51.21 116.31,-58.02"/>
</g>
<!-- Node4 -->
<g id="node4" class="node">
<title>Node4</title>
<g id="a_node4"><a xlink:href="../../d5/d4c/group__sorting.html#gab6b14fea48d9841e29b9fc26be6e05d7" target="_top" xlink:title=" ">
<polygon fill="white" stroke="black" points="135.5,-0.5 135.5,-19.5 197.5,-19.5 197.5,-0.5 135.5,-0.5"/>
<text text-anchor="middle" x="166.5" y="-7.5" font-family="Helvetica,sans-Serif" font-size="10.00">mergeSort</text>
</a>
</g>
</g>
<!-- Node1&#45;&gt;Node4 -->
<g id="edge3" class="edge">
<title>Node1&#45;&gt;Node4</title>
<path fill="none" stroke="midnightblue" d="M91.15,-27.49C102.46,-24.83 114.54,-21.99 125.59,-19.39"/>
<polygon fill="midnightblue" stroke="midnightblue" points="126.48,-22.78 135.41,-17.08 124.88,-15.96 126.48,-22.78"/>
</g>
<!-- Node3 -->
<g id="node3" class="node">
<title>Node3</title>
<g id="a_node3"><a target="_blank" xlink:href="http://en.cppreference.com/w/cpp/utility/move.html#" xlink:title=" ">
<polygon fill="white" stroke="black" points="242,-56.5 242,-75.5 302,-75.5 302,-56.5 242,-56.5"/>
<text text-anchor="middle" x="272" y="-63.5" font-family="Helvetica,sans-Serif" font-size="10.00">std::move</text>
</a>
</g>
</g>
<!-- Node2&#45;&gt;Node3 -->
<g id="edge2" class="edge">
<title>Node2&#45;&gt;Node3</title>
<path fill="none" stroke="midnightblue" d="M206.04,-66C214.36,-66 223.18,-66 231.54,-66"/>
<polygon fill="midnightblue" stroke="midnightblue" points="231.81,-69.5 241.81,-66 231.81,-62.5 231.81,-69.5"/>
</g>
<!-- Node4&#45;&gt;Node4 -->
<g id="edge5" class="edge">
<title>Node4&#45;&gt;Node4</title>
<path fill="none" stroke="midnightblue" d="M150.47,-19.76C142.67,-28.57 148.02,-38 166.5,-38 178.05,-38 184.47,-34.31 185.76,-29.4"/>
<polygon fill="midnightblue" stroke="midnightblue" points="189.02,-28.13 182.53,-19.76 182.39,-30.35 189.02,-28.13"/>
</g>
<!-- Node5 -->
<g id="node5" class="node">
<title>Node5</title>
<g id="a_node5"><a xlink:href="../../d5/d4c/group__sorting.html#ga460c61cd948203b4816bef2accb3fc73" target="_top" xlink:title=" ">
<polygon fill="white" stroke="black" points="250,-0.5 250,-19.5 294,-19.5 294,-0.5 250,-0.5"/>
<text text-anchor="middle" x="272" y="-7.5" font-family="Helvetica,sans-Serif" font-size="10.00">merge</text>
</a>
</g>
</g>
<!-- Node4&#45;&gt;Node5 -->
<g id="edge4" class="edge">
<title>Node4&#45;&gt;Node5</title>
<path fill="none" stroke="midnightblue" d="M197.71,-10C210.9,-10 226.35,-10 239.66,-10"/>
<polygon fill="midnightblue" stroke="midnightblue" points="239.79,-13.5 249.79,-10 239.79,-6.5 239.79,-13.5"/>
</g>
</g>
</svg>
