<?xml version="1.0" encoding="UTF-8" standalone="no"?>
<!DOCTYPE svg PUBLIC "-//W3C//DTD SVG 1.1//EN"
 "http://www.w3.org/Graphics/SVG/1.1/DTD/svg11.dtd">
<!-- Generated by graphviz version 5.0.0 (20220707.1540)
 -->
<!-- Title: backtracking::n_queens_optimized::PrintSol Pages: 1 -->
<svg width="218pt" height="57pt"
 viewBox="0.00 0.00 218.00 57.00" xmlns="http://www.w3.org/2000/svg" xmlns:xlink="http://www.w3.org/1999/xlink">
<g id="graph0" class="graph" transform="scale(1 1) rotate(0) translate(4 53)">
<title>backtracking::n_queens_optimized::PrintSol</title>
<polygon fill="white" stroke="transparent" points="-4,4 -4,-53 214,-53 214,4 -4,4"/>
<!-- Node1 -->
<g id="node1" class="node">
<title>Node1</title>
<g id="a_node1"><a xlink:title=" ">
<polygon fill="#bfbfbf" stroke="black" points="0,-0.5 0,-30.5 120,-30.5 120,-0.5 0,-0.5"/>
<text text-anchor="start" x="8" y="-18.5" font-family="Helvetica,sans-Serif" font-size="10.00">backtracking::n_queens</text>
<text text-anchor="middle" x="60" y="-7.5" font-family="Helvetica,sans-Serif" font-size="10.00">_optimized::PrintSol</text>
</a>
</g>
</g>
<!-- Node1&#45;&gt;Node1 -->
<g id="edge2" class="edge">
<title>Node1&#45;&gt;Node1</title>
<path fill="none" stroke="midnightblue" d="M38.74,-30.66C33.61,-40.06 40.7,-49 60,-49 71.76,-49 78.99,-45.68 81.68,-40.96"/>
<polygon fill="midnightblue" stroke="midnightblue" points="85.16,-40.51 81.26,-30.66 78.17,-40.79 85.16,-40.51"/>
</g>
<!-- Node2 -->
<g id="node2" class="node">
<title>Node2</title>
<g id="a_node2"><a target="_blank" xlink:href="http://en.cppreference.com/w/cpp/io/manip/endl.html#" xlink:title=" ">
<polygon fill="white" stroke="black" points="156,-6 156,-25 210,-25 210,-6 156,-6"/>
<text text-anchor="middle" x="183" y="-13" font-family="Helvetica,sans-Serif" font-size="10.00">std::endl</text>
</a>
</g>
</g>
<!-- Node1&#45;&gt;Node2 -->
<g id="edge1" class="edge">
<title>Node1&#45;&gt;Node2</title>
<path fill="none" stroke="midnightblue" d="M120.08,-15.5C128.84,-15.5 137.64,-15.5 145.74,-15.5"/>
<polygon fill="midnightblue" stroke="midnightblue" points="145.94,-19 155.94,-15.5 145.94,-12 145.94,-19"/>
</g>
</g>
</svg>
