<?xml version="1.0" encoding="UTF-8" standalone="no"?>
<!DOCTYPE svg PUBLIC "-//W3C//DTD SVG 1.1//EN"
 "http://www.w3.org/Graphics/SVG/1.1/DTD/svg11.dtd">
<!-- Generated by graphviz version 5.0.0 (20220707.1540)
 -->
<!-- Title: qr_algorithm::operator&lt;&lt; Pages: 1 -->
<svg width="283pt" height="142pt"
 viewBox="0.00 0.00 283.00 142.00" xmlns="http://www.w3.org/2000/svg" xmlns:xlink="http://www.w3.org/1999/xlink">
<g id="graph0" class="graph" transform="scale(1 1) rotate(0) translate(4 138)">
<title>qr_algorithm::operator&lt;&lt;</title>
<polygon fill="white" stroke="transparent" points="-4,4 -4,-138 279,-138 279,4 -4,4"/>
<!-- Node1 -->
<g id="node1" class="node">
<title>Node1</title>
<g id="a_node1"><a xlink:title=" ">
<polygon fill="#bfbfbf" stroke="black" points="0,-57.5 0,-76.5 123,-76.5 123,-57.5 0,-57.5"/>
<text text-anchor="middle" x="61.5" y="-64.5" font-family="Helvetica,sans-Serif" font-size="10.00">qr_algorithm::operator&lt;&lt;</text>
</a>
</g>
</g>
<!-- Node2 -->
<g id="node2" class="node">
<title>Node2</title>
<g id="a_node2"><a target="_blank" xlink:href="http://en.cppreference.com/w/cpp/io/ios_base/precision.html#" xlink:title=" ">
<polygon fill="white" stroke="black" points="159,-114.5 159,-133.5 275,-133.5 275,-114.5 159,-114.5"/>
<text text-anchor="middle" x="217" y="-121.5" font-family="Helvetica,sans-Serif" font-size="10.00">std::ostream::precision</text>
</a>
</g>
</g>
<!-- Node1&#45;&gt;Node2 -->
<g id="edge1" class="edge">
<title>Node1&#45;&gt;Node2</title>
<path fill="none" stroke="midnightblue" d="M85.77,-76.57C105.23,-84.47 133.78,-95.84 159,-105 164.65,-107.05 170.65,-109.15 176.55,-111.16"/>
<polygon fill="midnightblue" stroke="midnightblue" points="175.72,-114.57 186.31,-114.44 177.95,-107.93 175.72,-114.57"/>
</g>
<!-- Node3 -->
<g id="node3" class="node">
<title>Node3</title>
<g id="a_node3"><a target="_blank" xlink:href="http://en.cppreference.com/w/cpp/io/manip/left.html#" xlink:title=" ">
<polygon fill="white" stroke="black" points="189.5,-76.5 189.5,-95.5 244.5,-95.5 244.5,-76.5 189.5,-76.5"/>
<text text-anchor="middle" x="217" y="-83.5" font-family="Helvetica,sans-Serif" font-size="10.00">std::right</text>
</a>
</g>
</g>
<!-- Node1&#45;&gt;Node3 -->
<g id="edge2" class="edge">
<title>Node1&#45;&gt;Node3</title>
<path fill="none" stroke="midnightblue" d="M123.17,-74.51C142.18,-76.86 162.58,-79.39 179.39,-81.47"/>
<polygon fill="midnightblue" stroke="midnightblue" points="179,-84.95 189.36,-82.7 179.86,-78 179,-84.95"/>
</g>
<!-- Node4 -->
<g id="node4" class="node">
<title>Node4</title>
<g id="a_node4"><a target="_blank" xlink:href="http://en.cppreference.com/w/cpp/io/manip/setfill.html#" xlink:title=" ">
<polygon fill="white" stroke="black" points="187.5,-38.5 187.5,-57.5 246.5,-57.5 246.5,-38.5 187.5,-38.5"/>
<text text-anchor="middle" x="217" y="-45.5" font-family="Helvetica,sans-Serif" font-size="10.00">std::setfill</text>
</a>
</g>
</g>
<!-- Node1&#45;&gt;Node4 -->
<g id="edge3" class="edge">
<title>Node1&#45;&gt;Node4</title>
<path fill="none" stroke="midnightblue" d="M123.17,-59.49C141.32,-57.24 160.72,-54.84 177.07,-52.82"/>
<polygon fill="midnightblue" stroke="midnightblue" points="177.84,-56.25 187.33,-51.55 176.98,-49.3 177.84,-56.25"/>
</g>
<!-- Node5 -->
<g id="node5" class="node">
<title>Node5</title>
<g id="a_node5"><a target="_blank" xlink:href="http://en.cppreference.com/w/cpp/io/manip/setw.html#" xlink:title=" ">
<polygon fill="white" stroke="black" points="188.5,-0.5 188.5,-19.5 245.5,-19.5 245.5,-0.5 188.5,-0.5"/>
<text text-anchor="middle" x="217" y="-7.5" font-family="Helvetica,sans-Serif" font-size="10.00">std::setw</text>
</a>
</g>
</g>
<!-- Node1&#45;&gt;Node5 -->
<g id="edge4" class="edge">
<title>Node1&#45;&gt;Node5</title>
<path fill="none" stroke="midnightblue" d="M85.77,-57.43C105.23,-49.53 133.78,-38.16 159,-29 165.39,-26.68 172.22,-24.31 178.85,-22.06"/>
<polygon fill="midnightblue" stroke="midnightblue" points="179.98,-25.38 188.35,-18.89 177.76,-18.74 179.98,-25.38"/>
</g>
</g>
</svg>
