<?xml version="1.0" encoding="UTF-8" standalone="no"?>
<!DOCTYPE svg PUBLIC "-//W3C//DTD SVG 1.1//EN"
 "http://www.w3.org/Graphics/SVG/1.1/DTD/svg11.dtd">
<!-- Generated by graphviz version 2.44.1 (20200629.0846)
 -->
<!-- Title: qr_algorithm::operator&lt;&lt; Pages: 1 -->
<svg width="283pt" height="180pt"
 viewBox="0.00 0.00 283.00 180.00" xmlns="http://www.w3.org/2000/svg" xmlns:xlink="http://www.w3.org/1999/xlink">
<g id="graph0" class="graph" transform="scale(1 1) rotate(0) translate(4 176)">
<title>qr_algorithm::operator&lt;&lt;</title>
<polygon fill="white" stroke="transparent" points="-4,4 -4,-176 279,-176 279,4 -4,4"/>
<!-- Node1 -->
<g id="node1" class="node">
<title>Node1</title>
<g id="a_node1"><a xlink:title=" ">
<polygon fill="#bfbfbf" stroke="black" points="0,-76.5 0,-95.5 123,-95.5 123,-76.5 0,-76.5"/>
<text text-anchor="middle" x="61.5" y="-83.5" font-family="Helvetica,sans-Serif" font-size="10.00">qr_algorithm::operator&lt;&lt;</text>
</a>
</g>
</g>
<!-- Node2 -->
<g id="node2" class="node">
<title>Node2</title>
<g id="a_node2"><a target="_blank" xlink:href="http://en.cppreference.com/w/cpp/io/manip/endl.html#" target="_top" xlink:title=" ">
<polygon fill="white" stroke="black" points="190,-152.5 190,-171.5 244,-171.5 244,-152.5 190,-152.5"/>
<text text-anchor="middle" x="217" y="-159.5" font-family="Helvetica,sans-Serif" font-size="10.00">std::endl</text>
</a>
</g>
</g>
<!-- Node1&#45;&gt;Node2 -->
<g id="edge1" class="edge">
<title>Node1&#45;&gt;Node2</title>
<path fill="none" stroke="midnightblue" d="M76.69,-95.69C95.07,-107.92 128.37,-129.04 159,-143 165.72,-146.06 173.09,-148.89 180.22,-151.37"/>
<polygon fill="midnightblue" stroke="midnightblue" points="179.14,-154.69 189.73,-154.53 181.35,-148.05 179.14,-154.69"/>
</g>
<!-- Node3 -->
<g id="node3" class="node">
<title>Node3</title>
<g id="a_node3"><a target="_blank" xlink:href="http://en.cppreference.com/w/cpp/io/ios_base/precision.html#" target="_top" xlink:title=" ">
<polygon fill="white" stroke="black" points="159,-114.5 159,-133.5 275,-133.5 275,-114.5 159,-114.5"/>
<text text-anchor="middle" x="217" y="-121.5" font-family="Helvetica,sans-Serif" font-size="10.00">std::ostream::precision</text>
</a>
</g>
</g>
<!-- Node1&#45;&gt;Node3 -->
<g id="edge2" class="edge">
<title>Node1&#45;&gt;Node3</title>
<path fill="none" stroke="midnightblue" d="M101.23,-95.59C121.4,-100.58 146.25,-106.73 167.66,-112.03"/>
<polygon fill="midnightblue" stroke="midnightblue" points="167,-115.47 177.54,-114.48 168.68,-108.68 167,-115.47"/>
</g>
<!-- Node4 -->
<g id="node4" class="node">
<title>Node4</title>
<g id="a_node4"><a target="_blank" xlink:href="http://en.cppreference.com/w/cpp/io/manip/left.html#" target="_top" xlink:title=" ">
<polygon fill="white" stroke="black" points="189.5,-76.5 189.5,-95.5 244.5,-95.5 244.5,-76.5 189.5,-76.5"/>
<text text-anchor="middle" x="217" y="-83.5" font-family="Helvetica,sans-Serif" font-size="10.00">std::right</text>
</a>
</g>
</g>
<!-- Node1&#45;&gt;Node4 -->
<g id="edge3" class="edge">
<title>Node1&#45;&gt;Node4</title>
<path fill="none" stroke="midnightblue" d="M123.17,-86C142,-86 162.19,-86 178.92,-86"/>
<polygon fill="midnightblue" stroke="midnightblue" points="179.36,-89.5 189.36,-86 179.36,-82.5 179.36,-89.5"/>
</g>
<!-- Node5 -->
<g id="node5" class="node">
<title>Node5</title>
<g id="a_node5"><a target="_blank" xlink:href="http://en.cppreference.com/w/cpp/io/manip/setfill.html#" target="_top" xlink:title=" ">
<polygon fill="white" stroke="black" points="187.5,-38.5 187.5,-57.5 246.5,-57.5 246.5,-38.5 187.5,-38.5"/>
<text text-anchor="middle" x="217" y="-45.5" font-family="Helvetica,sans-Serif" font-size="10.00">std::setfill</text>
</a>
</g>
</g>
<!-- Node1&#45;&gt;Node5 -->
<g id="edge4" class="edge">
<title>Node1&#45;&gt;Node5</title>
<path fill="none" stroke="midnightblue" d="M101.23,-76.41C124.6,-70.63 154.25,-63.29 177.56,-57.52"/>
<polygon fill="midnightblue" stroke="midnightblue" points="178.59,-60.87 187.45,-55.07 176.91,-54.07 178.59,-60.87"/>
</g>
<!-- Node6 -->
<g id="node6" class="node">
<title>Node6</title>
<g id="a_node6"><a target="_blank" xlink:href="http://en.cppreference.com/w/cpp/io/manip/setw.html#" target="_top" xlink:title=" ">
<polygon fill="white" stroke="black" points="188.5,-0.5 188.5,-19.5 245.5,-19.5 245.5,-0.5 188.5,-0.5"/>
<text text-anchor="middle" x="217" y="-7.5" font-family="Helvetica,sans-Serif" font-size="10.00">std::setw</text>
</a>
</g>
</g>
<!-- Node1&#45;&gt;Node6 -->
<g id="edge5" class="edge">
<title>Node1&#45;&gt;Node6</title>
<path fill="none" stroke="midnightblue" d="M76.69,-76.31C95.07,-64.08 128.37,-42.96 159,-29 165.25,-26.15 172.06,-23.51 178.72,-21.16"/>
<polygon fill="midnightblue" stroke="midnightblue" points="179.94,-24.44 188.29,-17.93 177.7,-17.81 179.94,-24.44"/>
</g>
</g>
</svg>
