<?xml version="1.0" encoding="UTF-8" standalone="no"?>
<!DOCTYPE svg PUBLIC "-//W3C//DTD SVG 1.1//EN"
 "http://www.w3.org/Graphics/SVG/1.1/DTD/svg11.dtd">
<!-- Generated by graphviz version 2.44.1 (20200629.0846)
 -->
<!-- Title: qr_algorithm::operator&lt;&lt; Pages: 1 -->
<svg width="226pt" height="104pt"
 viewBox="0.00 0.00 226.00 104.00" xmlns="http://www.w3.org/2000/svg" xmlns:xlink="http://www.w3.org/1999/xlink">
<g id="graph0" class="graph" transform="scale(1 1) rotate(0) translate(4 100)">
<title>qr_algorithm::operator&lt;&lt;</title>
<polygon fill="white" stroke="transparent" points="-4,4 -4,-100 222,-100 222,4 -4,4"/>
<!-- Node1 -->
<g id="node1" class="node">
<title>Node1</title>
<g id="a_node1"><a xlink:title=" ">
<polygon fill="#bfbfbf" stroke="black" points="0,-38.5 0,-57.5 123,-57.5 123,-38.5 0,-38.5"/>
<text text-anchor="middle" x="61.5" y="-45.5" font-family="Helvetica,sans-Serif" font-size="10.00">qr_algorithm::operator&lt;&lt;</text>
</a>
</g>
</g>
<!-- Node2 -->
<g id="node2" class="node">
<title>Node2</title>
<g id="a_node2"><a target="_blank" xlink:href="http://en.cppreference.com/w/cpp/io/manip/left.html#" xlink:title=" ">
<polygon fill="white" stroke="black" points="161,-76.5 161,-95.5 216,-95.5 216,-76.5 161,-76.5"/>
<text text-anchor="middle" x="188.5" y="-83.5" font-family="Helvetica,sans-Serif" font-size="10.00">std::right</text>
</a>
</g>
</g>
<!-- Node1&#45;&gt;Node2 -->
<g id="edge1" class="edge">
<title>Node1&#45;&gt;Node2</title>
<path fill="none" stroke="midnightblue" d="M94.04,-57.59C111.37,-62.86 132.95,-69.42 151.01,-74.91"/>
<polygon fill="midnightblue" stroke="midnightblue" points="150.04,-78.27 160.63,-77.83 152.08,-71.57 150.04,-78.27"/>
</g>
<!-- Node3 -->
<g id="node3" class="node">
<title>Node3</title>
<g id="a_node3"><a target="_blank" xlink:href="http://en.cppreference.com/w/cpp/io/manip/setfill.html#" xlink:title=" ">
<polygon fill="white" stroke="black" points="159,-38.5 159,-57.5 218,-57.5 218,-38.5 159,-38.5"/>
<text text-anchor="middle" x="188.5" y="-45.5" font-family="Helvetica,sans-Serif" font-size="10.00">std::setfill</text>
</a>
</g>
</g>
<!-- Node1&#45;&gt;Node3 -->
<g id="edge2" class="edge">
<title>Node1&#45;&gt;Node3</title>
<path fill="none" stroke="midnightblue" d="M123.17,-48C131.82,-48 140.52,-48 148.6,-48"/>
<polygon fill="midnightblue" stroke="midnightblue" points="148.81,-51.5 158.81,-48 148.81,-44.5 148.81,-51.5"/>
</g>
<!-- Node4 -->
<g id="node4" class="node">
<title>Node4</title>
<g id="a_node4"><a target="_blank" xlink:href="http://en.cppreference.com/w/cpp/io/manip/setw.html#" xlink:title=" ">
<polygon fill="white" stroke="black" points="160,-0.5 160,-19.5 217,-19.5 217,-0.5 160,-0.5"/>
<text text-anchor="middle" x="188.5" y="-7.5" font-family="Helvetica,sans-Serif" font-size="10.00">std::setw</text>
</a>
</g>
</g>
<!-- Node1&#45;&gt;Node4 -->
<g id="edge3" class="edge">
<title>Node1&#45;&gt;Node4</title>
<path fill="none" stroke="midnightblue" d="M94.04,-38.41C110.97,-33.26 131.95,-26.89 149.75,-21.48"/>
<polygon fill="midnightblue" stroke="midnightblue" points="151.25,-24.68 159.8,-18.42 149.21,-17.98 151.25,-24.68"/>
</g>
</g>
</svg>
