<?xml version="1.0" encoding="UTF-8" standalone="no"?>
<!DOCTYPE svg PUBLIC "-//W3C//DTD SVG 1.1//EN"
 "http://www.w3.org/Graphics/SVG/1.1/DTD/svg11.dtd">
<!-- Generated by graphviz version 7.0.0 (20221023.0053)
 -->
<!-- Title: data_structures::Bitset::add Pages: 1 -->
<svg width="276pt" height="64pt"
 viewBox="0.00 0.00 276.00 64.00" xmlns="http://www.w3.org/2000/svg" xmlns:xlink="http://www.w3.org/1999/xlink">
<g id="graph0" class="graph" transform="scale(1 1) rotate(0) translate(4 60)">
<title>data_structures::Bitset::add</title>
<!-- Node1 -->
<g id="node1" class="node">
<title>Node1</title>
<g id="a_node1"><a xlink:title="Turn bit on position x to 1s.">
<polygon fill="#999999" stroke="#666666" points="137,-37 0,-37 0,-18 137,-18 137,-37"/>
<text text-anchor="middle" x="68.5" y="-25" font-family="Helvetica,sans-Serif" font-size="10.00">data_structures::Bitset::add</text>
</a>
</g>
</g>
<!-- Node2 -->
<g id="node2" class="node">
<title>Node2</title>
<g id="a_node2"><a target="_blank" xlink:href="http://en.cppreference.com/w/cpp/container/vector/resize.html#" xlink:title=" ">
<polygon fill="white" stroke="#666666" points="268,-56 173,-56 173,-37 268,-37 268,-56"/>
<text text-anchor="middle" x="220.5" y="-44" font-family="Helvetica,sans-Serif" font-size="10.00">std::vector::resize</text>
</a>
</g>
</g>
<!-- Node1&#45;&gt;Node2 -->
<g id="edge1" class="edge">
<title>Node1&#45;&gt;Node2</title>
<path fill="none" stroke="#63b8ff" d="M137.48,-36.11C145.5,-37.13 153.63,-38.16 161.49,-39.15"/>
<polygon fill="#63b8ff" stroke="#63b8ff" points="160.92,-42.61 171.28,-40.39 161.8,-35.66 160.92,-42.61"/>
</g>
<!-- Node3 -->
<g id="node3" class="node">
<title>Node3</title>
<g id="a_node3"><a target="_blank" xlink:href="http://en.cppreference.com/w/cpp/container/vector/size.html#" xlink:title=" ">
<polygon fill="white" stroke="#666666" points="264,-19 177,-19 177,0 264,0 264,-19"/>
<text text-anchor="middle" x="220.5" y="-7" font-family="Helvetica,sans-Serif" font-size="10.00">std::vector::size</text>
</a>
</g>
</g>
<!-- Node1&#45;&gt;Node3 -->
<g id="edge2" class="edge">
<title>Node1&#45;&gt;Node3</title>
<path fill="none" stroke="#63b8ff" d="M137.48,-19.34C146.85,-18.22 156.37,-17.08 165.45,-15.99"/>
<polygon fill="#63b8ff" stroke="#63b8ff" points="165.65,-19.49 175.16,-14.82 164.82,-12.54 165.65,-19.49"/>
</g>
</g>
</svg>
