<?xml version="1.0" encoding="UTF-8" standalone="no"?>
<!DOCTYPE svg PUBLIC "-//W3C//DTD SVG 1.1//EN"
 "http://www.w3.org/Graphics/SVG/1.1/DTD/svg11.dtd">
<!-- Generated by graphviz version 7.0.6 (20230106.0513)
 -->
<!-- Title: physics::ground_to_ground_projectile_motion::time_of_flight Pages: 1 -->
<svg width="304pt" height="104pt"
 viewBox="0.00 0.00 304.00 104.00" xmlns="http://www.w3.org/2000/svg" xmlns:xlink="http://www.w3.org/1999/xlink">
<g id="graph0" class="graph" transform="scale(1 1) rotate(0) translate(4 100)">
<title>physics::ground_to_ground_projectile_motion::time_of_flight</title>
<!-- Node1 -->
<g id="node1" class="node">
<title>Node1</title>
<g id="a_node1"><a xlink:title="Calculate the time of flight.">
<polygon fill="#999999" stroke="#666666" points="130,-54 0,-54 0,-13 130,-13 130,-54"/>
<text text-anchor="start" x="8" y="-42" font-family="Helvetica,sans-Serif" font-size="10.00">physics::ground_to</text>
<text text-anchor="start" x="8" y="-31" font-family="Helvetica,sans-Serif" font-size="10.00">_ground_projectile_motion</text>
<text text-anchor="middle" x="65" y="-20" font-family="Helvetica,sans-Serif" font-size="10.00">::time_of_flight</text>
</a>
</g>
</g>
<!-- Node1&#45;&gt;Node1 -->
<g id="edge4" class="edge">
<title>Node1&#45;&gt;Node1</title>
<path fill="none" stroke="#63b8ff" d="M34.36,-54.49C31.44,-63.88 41.66,-72 65,-72 78.5,-72 87.6,-69.29 92.32,-65.18"/>
<polygon fill="#63b8ff" stroke="#63b8ff" points="95.57,-66.52 95.19,-55.93 88.88,-64.45 95.57,-66.52"/>
</g>
<!-- Node2 -->
<g id="node2" class="node">
<title>Node2</title>
<g id="a_node2"><a xlink:href="../../d9/d29/ground__to__ground__projectile__motion_8cpp.html#aba1d26faf6a5379c28cae458956241de" target="_top" xlink:title="Convert radians to degrees.">
<polygon fill="white" stroke="#666666" points="296,-78 166,-78 166,-37 296,-37 296,-78"/>
<text text-anchor="start" x="174" y="-66" font-family="Helvetica,sans-Serif" font-size="10.00">physics::ground_to</text>
<text text-anchor="start" x="174" y="-55" font-family="Helvetica,sans-Serif" font-size="10.00">_ground_projectile_motion</text>
<text text-anchor="middle" x="231" y="-44" font-family="Helvetica,sans-Serif" font-size="10.00">::degrees_to_radians</text>
</a>
</g>
</g>
<!-- Node1&#45;&gt;Node2 -->
<g id="edge1" class="edge">
<title>Node1&#45;&gt;Node2</title>
<path fill="none" stroke="#63b8ff" d="M130.35,-42.92C138.21,-44.07 146.31,-45.25 154.33,-46.43"/>
<polygon fill="#63b8ff" stroke="#63b8ff" points="153.67,-49.87 164.07,-47.85 154.68,-42.94 153.67,-49.87"/>
</g>
<!-- Node3 -->
<g id="node3" class="node">
<title>Node3</title>
<g id="a_node3"><a target="_blank" xlink:href="http://en.cppreference.com/w/cpp/numeric/math/sin.html#" xlink:title=" ">
<polygon fill="white" stroke="#666666" points="255.5,-19 206.5,-19 206.5,0 255.5,0 255.5,-19"/>
<text text-anchor="middle" x="231" y="-7" font-family="Helvetica,sans-Serif" font-size="10.00">std::sin</text>
</a>
</g>
</g>
<!-- Node1&#45;&gt;Node3 -->
<g id="edge3" class="edge">
<title>Node1&#45;&gt;Node3</title>
<path fill="none" stroke="#63b8ff" d="M130.35,-24.08C152.39,-20.86 176.21,-17.37 195.04,-14.62"/>
<polygon fill="#63b8ff" stroke="#63b8ff" points="195.46,-18.09 204.84,-13.18 194.44,-11.17 195.46,-18.09"/>
</g>
<!-- Node2&#45;&gt;Node2 -->
<g id="edge2" class="edge">
<title>Node2&#45;&gt;Node2</title>
<path fill="none" stroke="#63b8ff" d="M200.36,-78.49C197.44,-87.88 207.66,-96 231,-96 244.5,-96 253.6,-93.29 258.32,-89.18"/>
<polygon fill="#63b8ff" stroke="#63b8ff" points="261.57,-90.52 261.19,-79.93 254.88,-88.45 261.57,-90.52"/>
</g>
</g>
</svg>
