<?xml version="1.0" encoding="UTF-8" standalone="no"?>
<!DOCTYPE svg PUBLIC "-//W3C//DTD SVG 1.1//EN"
 "http://www.w3.org/Graphics/SVG/1.1/DTD/svg11.dtd">
<!-- Generated by graphviz version 13.0.1 (20250615.1724)
 -->
<!-- Title: probability::windowed_median::WindowedMedian Pages: 1 -->
<svg width="210pt" height="126pt"
 viewBox="0.00 0.00 210.00 126.00" xmlns="http://www.w3.org/2000/svg" xmlns:xlink="http://www.w3.org/1999/xlink">
<g id="graph0" class="graph" transform="scale(1 1) rotate(0) translate(4 122.25)">
<title>probability::windowed_median::WindowedMedian</title>
<!-- Node1 -->
<g id="Node000001" class="node">
<title>Node1</title>
<g id="a_Node000001"><a xlink:title="A class to calculate the median of a leading sliding window at the back of a stream of integer values...">
<polygon fill="#999999" stroke="#666666" points="159.38,-30.5 23.38,-30.5 23.38,0 159.38,0 159.38,-30.5"/>
<text xml:space="preserve" text-anchor="start" x="31.38" y="-17" font-family="Helvetica,sans-Serif" font-size="10.00">probability::windowed</text>
<text xml:space="preserve" text-anchor="middle" x="91.38" y="-5.75" font-family="Helvetica,sans-Serif" font-size="10.00">_median::WindowedMedian</text>
</a>
</g>
</g>
<!-- Node2 -->
<g id="Node000002" class="node">
<title>Node2</title>
<g id="a_Node000002"><a xlink:title=" ">
<polygon fill="white" stroke="#666666" points="76.75,-118.25 0,-118.25 0,-99 76.75,-99 76.75,-118.25"/>
<text xml:space="preserve" text-anchor="middle" x="38.38" y="-104.75" font-family="Helvetica,sans-Serif" font-size="10.00">std::list&lt; int &gt;</text>
</a>
</g>
</g>
<!-- Node2&#45;&gt;Node1 -->
<g id="edge1_Node000001_Node000002" class="edge">
<title>Node2&#45;&gt;Node1</title>
<g id="a_edge1_Node000001_Node000002"><a xlink:title=" ">
<path fill="none" stroke="#9a32cd" stroke-dasharray="5,2" d="M49.19,-88.98C59.19,-71.73 73.87,-46.44 83.01,-30.68"/>
<polygon fill="#9a32cd" stroke="#9a32cd" points="46.4,-86.81 44.41,-97.22 52.45,-90.33 46.4,-86.81"/>
</a>
</g>
<text xml:space="preserve" text-anchor="start" x="74.18" y="-60.88" font-family="Helvetica,sans-Serif" font-size="10.00" fill="grey">_window</text>
</g>
<!-- Node3 -->
<g id="Node000003" class="node">
<title>Node3</title>
<g id="a_Node000003"><a xlink:title=" ">
<polygon fill="white" stroke="#666666" points="193.62,-118.25 95.12,-118.25 95.12,-99 193.62,-99 193.62,-118.25"/>
<text xml:space="preserve" text-anchor="middle" x="144.38" y="-104.75" font-family="Helvetica,sans-Serif" font-size="10.00">std::multiset&lt; int &gt;</text>
</a>
</g>
</g>
<!-- Node3&#45;&gt;Node1 -->
<g id="edge2_Node000001_Node000003" class="edge">
<title>Node3&#45;&gt;Node1</title>
<g id="a_edge2_Node000001_Node000003"><a xlink:title=" ">
<path fill="none" stroke="#9a32cd" stroke-dasharray="5,2" d="M137.94,-88.23C133.56,-76.31 127.16,-60.98 119.38,-48.5 115.53,-42.33 110.53,-36.16 105.81,-30.89"/>
<polygon fill="#9a32cd" stroke="#9a32cd" points="134.52,-89.07 141.12,-97.36 141.13,-86.76 134.52,-89.07"/>
</a>
</g>
<text xml:space="preserve" text-anchor="start" x="137.7" y="-68.5" font-family="Helvetica,sans-Serif" font-size="10.00" fill="grey">_itMedian</text>
<text xml:space="preserve" text-anchor="start" x="137.7" y="-53.25" font-family="Helvetica,sans-Serif" font-size="10.00" fill="grey">_sortedValues</text>
</g>
</g>
</svg>
