<?xml version="1.0" encoding="UTF-8" standalone="no"?>
<!DOCTYPE svg PUBLIC "-//W3C//DTD SVG 1.1//EN"
 "http://www.w3.org/Graphics/SVG/1.1/DTD/svg11.dtd">
<!-- Generated by graphviz version 13.0.1 (20250615.1724)
 -->
<!-- Title: RBtree Pages: 1 -->
<svg width="101pt" height="189pt"
 viewBox="0.00 0.00 101.00 189.00" xmlns="http://www.w3.org/2000/svg" xmlns:xlink="http://www.w3.org/1999/xlink">
<g id="graph0" class="graph" transform="scale(1 1) rotate(0) translate(4 185.25)">
<title>RBtree</title>
<!-- Node1 -->
<g id="Node000001" class="node">
<title>Node1</title>
<g id="a_Node000001"><a xlink:title=" ">
<polygon fill="#999999" stroke="#666666" points="46.75,-19.25 0,-19.25 0,0 46.75,0 46.75,-19.25"/>
<text xml:space="preserve" text-anchor="middle" x="23.38" y="-5.75" font-family="Helvetica,sans-Serif" font-size="10.00">RBtree</text>
</a>
</g>
</g>
<!-- Node2 -->
<g id="Node000002" class="node">
<title>Node2</title>
<g id="a_Node000002"><a xlink:href="../../d5/da1/structnode.html" target="_top" xlink:title=" ">
<polygon fill="white" stroke="#bfbfbf" points="41.88,-144.12 4.88,-144.12 4.88,-124.88 41.88,-124.88 41.88,-144.12"/>
<text xml:space="preserve" text-anchor="middle" x="23.38" y="-130.62" font-family="Helvetica,sans-Serif" font-size="10.00">node</text>
</a>
</g>
</g>
<!-- Node2&#45;&gt;Node1 -->
<g id="edge1_Node000001_Node000002" class="edge">
<title>Node2&#45;&gt;Node1</title>
<g id="a_edge1_Node000001_Node000002"><a xlink:title=" ">
<path fill="none" stroke="#9a32cd" stroke-dasharray="5,2" d="M23.38,-113.16C23.38,-86.08 23.38,-39.34 23.38,-19.71"/>
<polygon fill="#9a32cd" stroke="#9a32cd" points="19.88,-113.15 23.38,-123.15 26.88,-113.15 19.88,-113.15"/>
</a>
</g>
<text xml:space="preserve" text-anchor="start" x="26.38" y="-57.25" font-family="Helvetica,sans-Serif" font-size="10.00" fill="grey">q</text>
<text xml:space="preserve" text-anchor="start" x="26.38" y="-42" font-family="Helvetica,sans-Serif" font-size="10.00" fill="grey">root</text>
</g>
<!-- Node2&#45;&gt;Node2 -->
<g id="edge2_Node000002_Node000002" class="edge">
<title>Node2&#45;&gt;Node2</title>
<g id="a_edge2_Node000002_Node000002"><a xlink:title=" ">
<path fill="none" stroke="#9a32cd" stroke-dasharray="5,2" d="M42.76,-149.36C51.88,-151.06 59.88,-146.11 59.88,-134.5 59.88,-118.52 44.72,-115.15 32.36,-124.39"/>
<polygon fill="#9a32cd" stroke="#9a32cd" points="44.28,-146.21 33.73,-145.24 41.38,-152.58 44.28,-146.21"/>
</a>
</g>
<text xml:space="preserve" text-anchor="start" x="62.88" y="-168.75" font-family="Helvetica,sans-Serif" font-size="10.00" fill="grey">left</text>
<text xml:space="preserve" text-anchor="start" x="62.88" y="-153.5" font-family="Helvetica,sans-Serif" font-size="10.00" fill="grey">link</text>
<text xml:space="preserve" text-anchor="start" x="62.88" y="-138.25" font-family="Helvetica,sans-Serif" font-size="10.00" fill="grey">next</text>
<text xml:space="preserve" text-anchor="start" x="62.88" y="-123" font-family="Helvetica,sans-Serif" font-size="10.00" fill="grey">parent</text>
<text xml:space="preserve" text-anchor="start" x="62.88" y="-107.75" font-family="Helvetica,sans-Serif" font-size="10.00" fill="grey">prev</text>
<text xml:space="preserve" text-anchor="start" x="62.88" y="-92.5" font-family="Helvetica,sans-Serif" font-size="10.00" fill="grey">right</text>
</g>
</g>
</svg>
