<?xml version="1.0" encoding="UTF-8" standalone="no"?>
<!DOCTYPE svg PUBLIC "-//W3C//DTD SVG 1.1//EN"
 "http://www.w3.org/Graphics/SVG/1.1/DTD/svg11.dtd">
<!-- Generated by graphviz version 12.2.1 (20241206.2353)
 -->
<!-- Title: divide_and_conquer/karatsuba_algorithm_for_fast_multiplication.cpp Pages: 1 -->
<svg width="191pt" height="105pt"
 viewBox="0.00 0.00 190.88 105.00" xmlns="http://www.w3.org/2000/svg" xmlns:xlink="http://www.w3.org/1999/xlink">
<g id="graph0" class="graph" transform="scale(1 1) rotate(0) translate(4 101)">
<title>divide_and_conquer/karatsuba_algorithm_for_fast_multiplication.cpp</title>
<!-- Node1 -->
<g id="Node000001" class="node">
<title>Node1</title>
<g id="a_Node000001"><a xlink:title="Implementation of the Karatsuba algorithm for fast multiplication">
<polygon fill="#999999" stroke="#666666" points="156.75,-97 21.5,-97 21.5,-55.25 156.75,-55.25 156.75,-97"/>
<text text-anchor="start" x="29.5" y="-83.5" font-family="Helvetica,sans-Serif" font-size="10.00">divide_and_conquer</text>
<text text-anchor="start" x="29.5" y="-72.25" font-family="Helvetica,sans-Serif" font-size="10.00">/karatsuba_algorithm</text>
<text text-anchor="middle" x="89.12" y="-61" font-family="Helvetica,sans-Serif" font-size="10.00">_for_fast_multiplication.cpp</text>
</a>
</g>
</g>
<!-- Node2 -->
<g id="Node000002" class="node">
<title>Node2</title>
<g id="a_Node000002"><a xlink:title=" ">
<polygon fill="#e0e0e0" stroke="#999999" points="48.25,-19.25 0,-19.25 0,0 48.25,0 48.25,-19.25"/>
<text text-anchor="middle" x="24.12" y="-5.75" font-family="Helvetica,sans-Serif" font-size="10.00">cassert</text>
</a>
</g>
</g>
<!-- Node1&#45;&gt;Node2 -->
<g id="edge1_Node000001_Node000002" class="edge">
<title>Node1&#45;&gt;Node2</title>
<g id="a_edge1_Node000001_Node000002"><a xlink:title=" ">
<path fill="none" stroke="#63b8ff" d="M68.91,-55.07C60.06,-46.29 49.79,-36.09 41.31,-27.68"/>
<polygon fill="#63b8ff" stroke="#63b8ff" points="43.9,-25.32 34.34,-20.76 38.97,-30.29 43.9,-25.32"/>
</a>
</g>
</g>
<!-- Node3 -->
<g id="Node000003" class="node">
<title>Node3</title>
<g id="a_Node000003"><a xlink:title=" ">
<polygon fill="#e0e0e0" stroke="#999999" points="111.75,-19.25 66.5,-19.25 66.5,0 111.75,0 111.75,-19.25"/>
<text text-anchor="middle" x="89.12" y="-5.75" font-family="Helvetica,sans-Serif" font-size="10.00">cstring</text>
</a>
</g>
</g>
<!-- Node1&#45;&gt;Node3 -->
<g id="edge2_Node000001_Node000003" class="edge">
<title>Node1&#45;&gt;Node3</title>
<g id="a_edge2_Node000001_Node000003"><a xlink:title=" ">
<path fill="none" stroke="#63b8ff" d="M89.12,-55.07C89.12,-47.4 89.12,-38.64 89.12,-30.95"/>
<polygon fill="#63b8ff" stroke="#63b8ff" points="92.63,-31.21 89.13,-21.21 85.63,-31.21 92.63,-31.21"/>
</a>
</g>
</g>
<!-- Node4 -->
<g id="Node000004" class="node">
<title>Node4</title>
<g id="a_Node000004"><a xlink:title=" ">
<polygon fill="#e0e0e0" stroke="#999999" points="182.88,-19.25 129.38,-19.25 129.38,0 182.88,0 182.88,-19.25"/>
<text text-anchor="middle" x="156.12" y="-5.75" font-family="Helvetica,sans-Serif" font-size="10.00">iostream</text>
</a>
</g>
</g>
<!-- Node1&#45;&gt;Node4 -->
<g id="edge3_Node000001_Node000004" class="edge">
<title>Node1&#45;&gt;Node4</title>
<g id="a_edge3_Node000001_Node000004"><a xlink:title=" ">
<path fill="none" stroke="#63b8ff" d="M109.96,-55.07C119.08,-46.29 129.67,-36.09 138.41,-27.68"/>
<polygon fill="#63b8ff" stroke="#63b8ff" points="140.84,-30.2 145.61,-20.75 135.98,-25.16 140.84,-30.2"/>
</a>
</g>
</g>
</g>
</svg>
