<?xml version="1.0" encoding="UTF-8" standalone="no"?>
<!DOCTYPE svg PUBLIC "-//W3C//DTD SVG 1.1//EN"
 "http://www.w3.org/Graphics/SVG/1.1/DTD/svg11.dtd">
<!-- Generated by graphviz version 2.49.3 (20211023.0002)
 -->
<!-- Title: dynamic_programming::word_break::check Pages: 1 -->
<svg width="438pt" height="96pt"
 viewBox="0.00 0.00 438.00 95.50" xmlns="http://www.w3.org/2000/svg" xmlns:xlink="http://www.w3.org/1999/xlink">
<g id="graph0" class="graph" transform="scale(1 1) rotate(0) translate(4 91.5)">
<title>dynamic_programming::word_break::check</title>
<polygon fill="white" stroke="transparent" points="-4,4 -4,-91.5 434,-91.5 434,4 -4,4"/>
<!-- Node1 -->
<g id="node1" class="node">
<title>Node1</title>
<g id="a_node1"><a xlink:title="Function that checks if the string passed in param can be segmented from position &#39;pos&#39;,...">
<polygon fill="#bfbfbf" stroke="black" points="0,-17 0,-47 118,-47 118,-17 0,-17"/>
<text text-anchor="start" x="8" y="-35" font-family="Helvetica,sans-Serif" font-size="10.00">dynamic_programming</text>
<text text-anchor="middle" x="59" y="-24" font-family="Helvetica,sans-Serif" font-size="10.00">::word_break::check</text>
</a>
</g>
</g>
<!-- Node1&#45;&gt;Node1 -->
<g id="edge1" class="edge">
<title>Node1&#45;&gt;Node1</title>
<path fill="none" stroke="midnightblue" d="M32.16,-47.16C25.69,-56.56 34.64,-65.5 59,-65.5 73.85,-65.5 82.97,-62.18 86.36,-57.46"/>
<polygon fill="midnightblue" stroke="midnightblue" points="89.84,-56.97 85.84,-47.16 82.85,-57.32 89.84,-56.97"/>
</g>
<!-- Node2 -->
<g id="node2" class="node">
<title>Node2</title>
<g id="a_node2"><a xlink:href="../../d3/d84/word__break_8cpp.html#a1cc9dd6e6190d10a010fdcdfe7a21a81" target="_top" xlink:title="Function that checks if the string passed in param is present in the the unordered_set passed.">
<polygon fill="white" stroke="black" points="154,-39 154,-69 272,-69 272,-39 154,-39"/>
<text text-anchor="start" x="162" y="-57" font-family="Helvetica,sans-Serif" font-size="10.00">dynamic_programming</text>
<text text-anchor="middle" x="213" y="-46" font-family="Helvetica,sans-Serif" font-size="10.00">::word_break::exists</text>
</a>
</g>
</g>
<!-- Node1&#45;&gt;Node2 -->
<g id="edge2" class="edge">
<title>Node1&#45;&gt;Node2</title>
<path fill="none" stroke="midnightblue" d="M118.33,-40.44C126.7,-41.65 135.36,-42.91 143.9,-44.14"/>
<polygon fill="midnightblue" stroke="midnightblue" points="143.43,-47.61 153.82,-45.58 144.43,-40.68 143.43,-47.61"/>
</g>
<!-- Node5 -->
<g id="node5" class="node">
<title>Node5</title>
<g id="a_node5"><a target="_blank" xlink:href="http://en.cppreference.com/w/cpp/string/basic_string/size.html#" xlink:title=" ">
<polygon fill="white" stroke="black" points="166.5,-0.5 166.5,-19.5 259.5,-19.5 259.5,-0.5 166.5,-0.5"/>
<text text-anchor="middle" x="213" y="-7.5" font-family="Helvetica,sans-Serif" font-size="10.00">std::string::length</text>
</a>
</g>
</g>
<!-- Node1&#45;&gt;Node5 -->
<g id="edge6" class="edge">
<title>Node1&#45;&gt;Node5</title>
<path fill="none" stroke="midnightblue" d="M118.33,-23.56C130.76,-21.76 143.85,-19.86 156.18,-18.08"/>
<polygon fill="midnightblue" stroke="midnightblue" points="156.94,-21.51 166.33,-16.61 155.93,-14.58 156.94,-21.51"/>
</g>
<!-- Node2&#45;&gt;Node2 -->
<g id="edge4" class="edge">
<title>Node2&#45;&gt;Node2</title>
<path fill="none" stroke="midnightblue" d="M186.16,-69.16C179.69,-78.56 188.64,-87.5 213,-87.5 227.85,-87.5 236.97,-84.18 240.36,-79.46"/>
<polygon fill="midnightblue" stroke="midnightblue" points="243.84,-78.97 239.84,-69.16 236.85,-79.32 243.84,-78.97"/>
</g>
<!-- Node3 -->
<g id="node3" class="node">
<title>Node3</title>
<g id="a_node3"><a target="_blank" xlink:href="http://en.cppreference.com/w/cpp/container/unordered_set/end.html#" xlink:title=" ">
<polygon fill="white" stroke="black" points="308,-66.5 308,-85.5 430,-85.5 430,-66.5 308,-66.5"/>
<text text-anchor="middle" x="369" y="-73.5" font-family="Helvetica,sans-Serif" font-size="10.00">std::unordered_set::end</text>
</a>
</g>
</g>
<!-- Node2&#45;&gt;Node3 -->
<g id="edge3" class="edge">
<title>Node2&#45;&gt;Node3</title>
<path fill="none" stroke="midnightblue" d="M272.22,-62.32C280.61,-63.52 289.31,-64.76 297.9,-65.99"/>
<polygon fill="midnightblue" stroke="midnightblue" points="297.51,-69.47 307.9,-67.41 298.5,-62.54 297.51,-69.47"/>
</g>
<!-- Node4 -->
<g id="node4" class="node">
<title>Node4</title>
<g id="a_node4"><a target="_blank" xlink:href="http://en.cppreference.com/w/cpp/container/unordered_set/find.html#" xlink:title=" ">
<polygon fill="white" stroke="black" points="319,-17 319,-47 419,-47 419,-17 319,-17"/>
<text text-anchor="start" x="327" y="-35" font-family="Helvetica,sans-Serif" font-size="10.00">std::unordered_set</text>
<text text-anchor="middle" x="369" y="-24" font-family="Helvetica,sans-Serif" font-size="10.00">::find</text>
</a>
</g>
</g>
<!-- Node2&#45;&gt;Node4 -->
<g id="edge5" class="edge">
<title>Node2&#45;&gt;Node4</title>
<path fill="none" stroke="midnightblue" d="M272.22,-45.68C284.2,-43.97 296.82,-42.17 308.83,-40.45"/>
<polygon fill="midnightblue" stroke="midnightblue" points="309.35,-43.91 318.75,-39.04 308.36,-36.99 309.35,-43.91"/>
</g>
</g>
</svg>
