<?xml version="1.0" encoding="UTF-8" standalone="no"?>
<!DOCTYPE svg PUBLIC "-//W3C//DTD SVG 1.1//EN"
 "http://www.w3.org/Graphics/SVG/1.1/DTD/svg11.dtd">
<!-- Generated by graphviz version 5.0.1 (20220820.1526)
 -->
<!-- Title: dynamic_programming::word_break::exists Pages: 1 -->
<svg width="278pt" height="77pt"
 viewBox="0.00 0.00 278.00 77.00" xmlns="http://www.w3.org/2000/svg" xmlns:xlink="http://www.w3.org/1999/xlink">
<g id="graph0" class="graph" transform="scale(1 1) rotate(0) translate(4 73)">
<title>dynamic_programming::word_break::exists</title>
<!-- Node1 -->
<g id="node1" class="node">
<title>Node1</title>
<g id="a_node1"><a xlink:title="Function that checks if the string passed in param is present in the the unordered_set passed.">
<polygon fill="#999999" stroke="#666666" points="115,-51 0,-51 0,-21 115,-21 115,-51"/>
<text text-anchor="start" x="8" y="-39" font-family="Helvetica,sans-Serif" font-size="10.00">dynamic_programming</text>
<text text-anchor="middle" x="57.5" y="-28" font-family="Helvetica,sans-Serif" font-size="10.00">::word_break::exists</text>
</a>
</g>
</g>
<!-- Node1&#45;&gt;Node1 -->
<g id="edge2" class="edge">
<title>Node1&#45;&gt;Node1</title>
<path fill="none" stroke="#63b8ff" d="M30.78,-51.28C24.84,-60.41 33.75,-69 57.5,-69 71.6,-69 80.47,-65.97 84.11,-61.6"/>
<polygon fill="#63b8ff" stroke="#63b8ff" points="87.61,-61.31 84.22,-51.28 80.61,-61.24 87.61,-61.31"/>
</g>
<!-- Node2 -->
<g id="node2" class="node">
<title>Node2</title>
<g id="a_node2"><a target="_blank" xlink:href="http://en.cppreference.com/w/cpp/container/unordered_set/end.html#" xlink:title=" ">
<polygon fill="white" stroke="#666666" points="270,-67.5 151,-67.5 151,-48.5 270,-48.5 270,-67.5"/>
<text text-anchor="middle" x="210.5" y="-55.5" font-family="Helvetica,sans-Serif" font-size="10.00">std::unordered_set::end</text>
</a>
</g>
</g>
<!-- Node1&#45;&gt;Node2 -->
<g id="edge1" class="edge">
<title>Node1&#45;&gt;Node2</title>
<path fill="none" stroke="#63b8ff" d="M115.16,-44.25C123.52,-45.47 132.21,-46.74 140.78,-47.99"/>
<polygon fill="#63b8ff" stroke="#63b8ff" points="140.36,-51.46 150.76,-49.44 141.37,-44.54 140.36,-51.46"/>
</g>
<!-- Node3 -->
<g id="node3" class="node">
<title>Node3</title>
<g id="a_node3"><a target="_blank" xlink:href="http://en.cppreference.com/w/cpp/container/unordered_set/find.html#" xlink:title=" ">
<polygon fill="white" stroke="#666666" points="259.5,-30 161.5,-30 161.5,0 259.5,0 259.5,-30"/>
<text text-anchor="start" x="169.5" y="-18" font-family="Helvetica,sans-Serif" font-size="10.00">std::unordered_set</text>
<text text-anchor="middle" x="210.5" y="-7" font-family="Helvetica,sans-Serif" font-size="10.00">::find</text>
</a>
</g>
</g>
<!-- Node1&#45;&gt;Node3 -->
<g id="edge3" class="edge">
<title>Node1&#45;&gt;Node3</title>
<path fill="none" stroke="#63b8ff" d="M115.16,-28.12C126.94,-26.48 139.37,-24.75 151.21,-23.11"/>
<polygon fill="#63b8ff" stroke="#63b8ff" points="152,-26.53 161.43,-21.69 151.04,-19.6 152,-26.53"/>
</g>
</g>
</svg>
