<?xml version="1.0" encoding="UTF-8" standalone="no"?>
<!DOCTYPE svg PUBLIC "-//W3C//DTD SVG 1.1//EN"
 "http://www.w3.org/Graphics/SVG/1.1/DTD/svg11.dtd">
<!-- Generated by graphviz version 7.0.0 (20221023.0053)
 -->
<!-- Title: ols_test Pages: 1 -->
<svg width="458pt" height="195pt"
 viewBox="0.00 0.00 458.00 195.00" xmlns="http://www.w3.org/2000/svg" xmlns:xlink="http://www.w3.org/1999/xlink">
<g id="graph0" class="graph" transform="scale(1 1) rotate(0) translate(4 191)">
<title>ols_test</title>
<!-- Node1 -->
<g id="node1" class="node">
<title>Node1</title>
<g id="a_node1"><a xlink:title=" ">
<polygon fill="#999999" stroke="#666666" points="51,-76 0,-76 0,-57 51,-57 51,-76"/>
<text text-anchor="middle" x="25.5" y="-64" font-family="Helvetica,sans-Serif" font-size="10.00">ols_test</text>
</a>
</g>
</g>
<!-- Node2 -->
<g id="node2" class="node">
<title>Node2</title>
<g id="a_node2"><a target="_blank" xlink:href="http://en.cppreference.com/w/cpp/io/manip/endl.html#" xlink:title=" ">
<polygon fill="white" stroke="#666666" points="447.5,-187 393.5,-187 393.5,-168 447.5,-168 447.5,-187"/>
<text text-anchor="middle" x="420.5" y="-175" font-family="Helvetica,sans-Serif" font-size="10.00">std::endl</text>
</a>
</g>
</g>
<!-- Node1&#45;&gt;Node2 -->
<g id="edge1" class="edge">
<title>Node1&#45;&gt;Node2</title>
<path fill="none" stroke="#63b8ff" d="M40.43,-76.45C52.38,-84.7 70.28,-96.34 87,-104.5 151.56,-136.01 168.94,-143.59 239,-159.5 287.63,-170.54 345.17,-174.81 381.98,-176.46"/>
<polygon fill="#63b8ff" stroke="#63b8ff" points="381.52,-179.95 391.66,-176.85 381.8,-172.95 381.52,-179.95"/>
</g>
<!-- Node3 -->
<g id="node3" class="node">
<title>Node3</title>
<g id="a_node3"><a xlink:href="../../dc/d38/ordinary__least__squares__regressor_8cpp.html#aaddc683af581b51351e1023d2a01ef3b" target="_top" xlink:title=" ">
<polygon fill="white" stroke="#666666" points="192.5,-95 97.5,-95 97.5,-76 192.5,-76 192.5,-95"/>
<text text-anchor="middle" x="145" y="-83" font-family="Helvetica,sans-Serif" font-size="10.00">fit_OLS_regressor</text>
</a>
</g>
</g>
<!-- Node1&#45;&gt;Node3 -->
<g id="edge2" class="edge">
<title>Node1&#45;&gt;Node3</title>
<path fill="none" stroke="#63b8ff" d="M51.42,-70.53C61.63,-72.18 73.91,-74.17 86.14,-76.14"/>
<polygon fill="#63b8ff" stroke="#63b8ff" points="85.37,-79.57 95.8,-77.71 86.49,-72.65 85.37,-79.57"/>
</g>
<!-- Node8 -->
<g id="node8" class="node">
<title>Node8</title>
<g id="a_node8"><a target="_blank" xlink:href="http://en.cppreference.com/w/cpp/container/vector/size.html#" xlink:title=" ">
<polygon fill="white" stroke="#666666" points="340.5,-39 253.5,-39 253.5,-20 340.5,-20 340.5,-39"/>
<text text-anchor="middle" x="297" y="-27" font-family="Helvetica,sans-Serif" font-size="10.00">std::vector::size</text>
</a>
</g>
</g>
<!-- Node1&#45;&gt;Node8 -->
<g id="edge10" class="edge">
<title>Node1&#45;&gt;Node8</title>
<path fill="none" stroke="#63b8ff" d="M51.37,-63.09C94.49,-57.16 184.07,-44.87 242.04,-36.91"/>
<polygon fill="#63b8ff" stroke="#63b8ff" points="242.25,-40.41 251.69,-35.58 241.3,-33.48 242.25,-40.41"/>
</g>
<!-- Node9 -->
<g id="node9" class="node">
<title>Node9</title>
<g id="a_node9"><a xlink:href="../../dc/d38/ordinary__least__squares__regressor_8cpp.html#ade6e463f37878fe2a219f927c65b5493" target="_top" xlink:title=" ">
<polygon fill="white" stroke="#666666" points="203,-19 87,-19 87,0 203,0 203,-19"/>
<text text-anchor="middle" x="145" y="-7" font-family="Helvetica,sans-Serif" font-size="10.00">predict_OLS_regressor</text>
</a>
</g>
</g>
<!-- Node1&#45;&gt;Node9 -->
<g id="edge9" class="edge">
<title>Node1&#45;&gt;Node9</title>
<path fill="none" stroke="#63b8ff" d="M43.47,-56.64C55.47,-49.83 72.02,-40.72 87,-33.5 93.81,-30.22 101.18,-26.93 108.3,-23.88"/>
<polygon fill="#63b8ff" stroke="#63b8ff" points="109.53,-27.16 117.39,-20.06 106.82,-20.71 109.53,-27.16"/>
</g>
<!-- Node4 -->
<g id="node4" class="node">
<title>Node4</title>
<g id="a_node4"><a xlink:href="../../dc/d38/ordinary__least__squares__regressor_8cpp.html#af7243bdc6ae3c7169f01b85bb226e66a" target="_top" xlink:title=" ">
<polygon fill="white" stroke="#666666" points="330.5,-150 263.5,-150 263.5,-131 330.5,-131 330.5,-150"/>
<text text-anchor="middle" x="297" y="-138" font-family="Helvetica,sans-Serif" font-size="10.00">get_inverse</text>
</a>
</g>
</g>
<!-- Node3&#45;&gt;Node4 -->
<g id="edge3" class="edge">
<title>Node3&#45;&gt;Node4</title>
<path fill="none" stroke="#63b8ff" d="M169.52,-95.41C188.21,-103.15 215.1,-113.99 239,-122.5 243.22,-124 247.64,-125.51 252.08,-126.98"/>
<polygon fill="#63b8ff" stroke="#63b8ff" points="250.98,-130.31 261.57,-130.06 253.14,-123.65 250.98,-130.31"/>
</g>
<!-- Node6 -->
<g id="node6" class="node">
<title>Node6</title>
<g id="a_node6"><a xlink:href="../../dc/d38/ordinary__least__squares__regressor_8cpp.html#a21c80569aaffb7bf1657e54fa4b97deb" target="_top" xlink:title=" ">
<polygon fill="white" stroke="#666666" points="336,-113 258,-113 258,-94 336,-94 336,-113"/>
<text text-anchor="middle" x="297" y="-101" font-family="Helvetica,sans-Serif" font-size="10.00">get_transpose</text>
</a>
</g>
</g>
<!-- Node3&#45;&gt;Node6 -->
<g id="edge6" class="edge">
<title>Node3&#45;&gt;Node6</title>
<path fill="none" stroke="#63b8ff" d="M192.64,-91.1C209.85,-93.16 229.4,-95.51 246.83,-97.6"/>
<polygon fill="#63b8ff" stroke="#63b8ff" points="246.09,-101.04 256.43,-98.75 246.92,-94.09 246.09,-101.04"/>
</g>
<!-- Node7 -->
<g id="node7" class="node">
<title>Node7</title>
<g id="a_node7"><a target="_blank" xlink:href="http://en.cppreference.com/w/cpp/container/vector/push_back.html#" xlink:title=" ">
<polygon fill="white" stroke="#666666" points="355,-76 239,-76 239,-57 355,-57 355,-76"/>
<text text-anchor="middle" x="297" y="-64" font-family="Helvetica,sans-Serif" font-size="10.00">std::vector::push_back</text>
</a>
</g>
</g>
<!-- Node3&#45;&gt;Node7 -->
<g id="edge7" class="edge">
<title>Node3&#45;&gt;Node7</title>
<path fill="none" stroke="#63b8ff" d="M192.64,-79.59C203.65,-78.2 215.62,-76.68 227.38,-75.19"/>
<polygon fill="#63b8ff" stroke="#63b8ff" points="227.57,-78.7 237.06,-73.97 226.7,-71.75 227.57,-78.7"/>
</g>
<!-- Node3&#45;&gt;Node8 -->
<g id="edge8" class="edge">
<title>Node3&#45;&gt;Node8</title>
<path fill="none" stroke="#63b8ff" d="M169.46,-75.66C192.42,-66.07 225.8,-52.27 239,-47.5 243.22,-45.98 247.63,-44.45 252.06,-42.98"/>
<polygon fill="#63b8ff" stroke="#63b8ff" points="253.13,-46.31 261.55,-39.89 250.96,-39.65 253.13,-46.31"/>
</g>
<!-- Node4&#45;&gt;Node2 -->
<g id="edge4" class="edge">
<title>Node4&#45;&gt;Node2</title>
<path fill="none" stroke="#63b8ff" d="M330.56,-150.42C346.55,-155.29 365.89,-161.17 382.45,-166.22"/>
<polygon fill="#63b8ff" stroke="#63b8ff" points="381.35,-169.54 391.94,-169.11 383.39,-162.85 381.35,-169.54"/>
</g>
<!-- Node5 -->
<g id="node5" class="node">
<title>Node5</title>
<g id="a_node5"><a xlink:href="../../dc/d38/ordinary__least__squares__regressor_8cpp.html#a8fa731952b0ee3bc7ec51c51ed21911e" target="_top" xlink:title=" ">
<polygon fill="white" stroke="#666666" points="450,-150 391,-150 391,-131 450,-131 450,-150"/>
<text text-anchor="middle" x="420.5" y="-138" font-family="Helvetica,sans-Serif" font-size="10.00">is_square</text>
</a>
</g>
</g>
<!-- Node4&#45;&gt;Node5 -->
<g id="edge5" class="edge">
<title>Node4&#45;&gt;Node5</title>
<path fill="none" stroke="#63b8ff" d="M330.88,-140.5C345.92,-140.5 363.88,-140.5 379.68,-140.5"/>
<polygon fill="#63b8ff" stroke="#63b8ff" points="379.22,-144 389.22,-140.5 379.22,-137 379.22,-144"/>
</g>
</g>
</svg>
