<?xml version="1.0" encoding="UTF-8" standalone="no"?>
<!DOCTYPE svg PUBLIC "-//W3C//DTD SVG 1.1//EN"
 "http://www.w3.org/Graphics/SVG/1.1/DTD/svg11.dtd">
<!-- Generated by graphviz version 2.40.1 (20161225.0304)
 -->
<!-- Title: fit_OLS_regressor Pages: 1 -->
<svg width="312pt" height="66pt"
 viewBox="0.00 0.00 312.00 66.00" xmlns="http://www.w3.org/2000/svg" xmlns:xlink="http://www.w3.org/1999/xlink">
<g id="graph0" class="graph" transform="scale(1 1) rotate(0) translate(4 62)">
<title>fit_OLS_regressor</title>
<polygon fill="#ffffff" stroke="transparent" points="-4,4 -4,-62 308,-62 308,4 -4,4"/>
<!-- Node0 -->
<g id="node1" class="node">
<title>Node0</title>
<polygon fill="#bfbfbf" stroke="#000000" points="0,-19.5 0,-38.5 95,-38.5 95,-19.5 0,-19.5"/>
<text text-anchor="middle" x="47.5" y="-26.5" font-family="Helvetica,sans-Serif" font-size="10.00" fill="#000000">fit_OLS_regressor</text>
</g>
<!-- Node1 -->
<g id="node2" class="node">
<title>Node1</title>
<g id="a_node2"><a xlink:href="../../dc/d38/ordinary__least__squares__regressor_8cpp.html#a889f9de199fa793497c864d8e493af05" target="_top" xlink:title="get_transpose">
<polygon fill="#ffffff" stroke="#000000" points="131,-38.5 131,-57.5 209,-57.5 209,-38.5 131,-38.5"/>
<text text-anchor="middle" x="170" y="-45.5" font-family="Helvetica,sans-Serif" font-size="10.00" fill="#000000">get_transpose</text>
</a>
</g>
</g>
<!-- Node0&#45;&gt;Node1 -->
<g id="edge1" class="edge">
<title>Node0&#45;&gt;Node1</title>
<path fill="none" stroke="#191970" d="M95.2125,-36.4003C103.6183,-37.7041 112.3822,-39.0634 120.8272,-40.3732"/>
<polygon fill="#191970" stroke="#191970" points="120.5062,-43.8652 130.9245,-41.9393 121.5791,-36.9479 120.5062,-43.8652"/>
</g>
<!-- Node2 -->
<g id="node3" class="node">
<title>Node2</title>
<g id="a_node3"><a xlink:href="../../dc/d38/ordinary__least__squares__regressor_8cpp.html#a98ab8f75d981088369b89b8be2182483" target="_top" xlink:title="get_inverse">
<polygon fill="#ffffff" stroke="#000000" points="136.5,-.5 136.5,-19.5 203.5,-19.5 203.5,-.5 136.5,-.5"/>
<text text-anchor="middle" x="170" y="-7.5" font-family="Helvetica,sans-Serif" font-size="10.00" fill="#000000">get_inverse</text>
</a>
</g>
</g>
<!-- Node0&#45;&gt;Node2 -->
<g id="edge2" class="edge">
<title>Node0&#45;&gt;Node2</title>
<path fill="none" stroke="#191970" d="M95.2125,-21.5997C105.3839,-20.0221 116.0796,-18.3632 126.1001,-16.809"/>
<polygon fill="#191970" stroke="#191970" points="126.9023,-20.2265 136.2477,-15.235 125.8294,-13.3092 126.9023,-20.2265"/>
</g>
<!-- Node3 -->
<g id="node4" class="node">
<title>Node3</title>
<g id="a_node4"><a xlink:href="../../dc/d38/ordinary__least__squares__regressor_8cpp.html#a4921874435266592b222e3f2eda0e01f" target="_top" xlink:title="is_square">
<polygon fill="#ffffff" stroke="#000000" points="245,-.5 245,-19.5 304,-19.5 304,-.5 245,-.5"/>
<text text-anchor="middle" x="274.5" y="-7.5" font-family="Helvetica,sans-Serif" font-size="10.00" fill="#000000">is_square</text>
</a>
</g>
</g>
<!-- Node2&#45;&gt;Node3 -->
<g id="edge3" class="edge">
<title>Node2&#45;&gt;Node3</title>
<path fill="none" stroke="#191970" d="M203.6397,-10C213.4705,-10 224.3123,-10 234.4964,-10"/>
<polygon fill="#191970" stroke="#191970" points="234.8013,-13.5001 244.8013,-10 234.8013,-6.5001 234.8013,-13.5001"/>
</g>
</g>
</svg>
