<?xml version="1.0" encoding="UTF-8" standalone="no"?>
<!DOCTYPE svg PUBLIC "-//W3C//DTD SVG 1.1//EN"
 "http://www.w3.org/Graphics/SVG/1.1/DTD/svg11.dtd">
<!-- Generated by graphviz version 2.40.1 (20161225.0304)
 -->
<!-- Title: operator&lt;&lt; Pages: 1 -->
<svg width="167pt" height="142pt"
 viewBox="0.00 0.00 167.00 142.00" xmlns="http://www.w3.org/2000/svg" xmlns:xlink="http://www.w3.org/1999/xlink">
<g id="graph0" class="graph" transform="scale(1 1) rotate(0) translate(4 138)">
<title>operator&lt;&lt;</title>
<polygon fill="#ffffff" stroke="transparent" points="-4,4 -4,-138 163,-138 163,4 -4,4"/>
<!-- Node35 -->
<g id="node1" class="node">
<title>Node35</title>
<polygon fill="#bfbfbf" stroke="#000000" points="0,-57.5 0,-76.5 64,-76.5 64,-57.5 0,-57.5"/>
<text text-anchor="middle" x="32" y="-64.5" font-family="Helvetica,sans-Serif" font-size="10.00" fill="#000000">operator&lt;&lt;</text>
</g>
<!-- Node36 -->
<g id="node2" class="node">
<title>Node36</title>
<g id="a_node2"><a doxygen="/home/runner/work/C-Plus-Plus/C-Plus-Plus/doc/cppreference-doxygen-web.tag.xml:http://en.cppreference.com/w/" xlink:href="http://en.cppreference.com/w/cpp/io/manip/left.html#" target="_top" xlink:title="std::left">
<polygon fill="#ffffff" stroke="#000000" points="104.5,-114.5 104.5,-133.5 154.5,-133.5 154.5,-114.5 104.5,-114.5"/>
<text text-anchor="middle" x="129.5" y="-121.5" font-family="Helvetica,sans-Serif" font-size="10.00" fill="#000000">std::left</text>
</a>
</g>
</g>
<!-- Node35&#45;&gt;Node36 -->
<g id="edge1" class="edge">
<title>Node35&#45;&gt;Node36</title>
<path fill="none" stroke="#191970" d="M48.5395,-76.6693C63.7589,-85.5667 86.5593,-98.8962 104.0895,-109.1446"/>
<polygon fill="#191970" stroke="#191970" points="102.8053,-112.4481 113.2047,-114.4735 106.3382,-106.405 102.8053,-112.4481"/>
</g>
<!-- Node37 -->
<g id="node3" class="node">
<title>Node37</title>
<g id="a_node3"><a doxygen="/home/runner/work/C-Plus-Plus/C-Plus-Plus/doc/cppreference-doxygen-web.tag.xml:http://en.cppreference.com/w/" xlink:href="http://en.cppreference.com/w/cpp/io/manip/setw.html#" target="_top" xlink:title="std::setw">
<polygon fill="#ffffff" stroke="#000000" points="101,-76.5 101,-95.5 158,-95.5 158,-76.5 101,-76.5"/>
<text text-anchor="middle" x="129.5" y="-83.5" font-family="Helvetica,sans-Serif" font-size="10.00" fill="#000000">std::setw</text>
</a>
</g>
</g>
<!-- Node35&#45;&gt;Node37 -->
<g id="edge2" class="edge">
<title>Node35&#45;&gt;Node37</title>
<path fill="none" stroke="#191970" d="M64.1954,-73.274C72.727,-74.9365 82.0263,-76.7487 90.862,-78.4705"/>
<polygon fill="#191970" stroke="#191970" points="90.4628,-81.9585 100.9476,-80.436 91.8018,-75.0878 90.4628,-81.9585"/>
</g>
<!-- Node38 -->
<g id="node4" class="node">
<title>Node38</title>
<g id="a_node4"><a doxygen="/home/runner/work/C-Plus-Plus/C-Plus-Plus/doc/cppreference-doxygen-web.tag.xml:http://en.cppreference.com/w/" xlink:href="http://en.cppreference.com/w/cpp/io/manip/setfill.html#" target="_top" xlink:title="std::setfill">
<polygon fill="#ffffff" stroke="#000000" points="100,-38.5 100,-57.5 159,-57.5 159,-38.5 100,-38.5"/>
<text text-anchor="middle" x="129.5" y="-45.5" font-family="Helvetica,sans-Serif" font-size="10.00" fill="#000000">std::setfill</text>
</a>
</g>
</g>
<!-- Node35&#45;&gt;Node38 -->
<g id="edge3" class="edge">
<title>Node35&#45;&gt;Node38</title>
<path fill="none" stroke="#191970" d="M64.1954,-60.726C72.4878,-59.1101 81.5054,-57.3528 90.1177,-55.6745"/>
<polygon fill="#191970" stroke="#191970" points="90.828,-59.102 99.9739,-53.7538 89.4891,-52.2312 90.828,-59.102"/>
</g>
<!-- Node39 -->
<g id="node5" class="node">
<title>Node39</title>
<g id="a_node5"><a doxygen="/home/runner/work/C-Plus-Plus/C-Plus-Plus/doc/cppreference-doxygen-web.tag.xml:http://en.cppreference.com/w/" xlink:href="http://en.cppreference.com/w/cpp/io/manip/endl.html#" target="_top" xlink:title="std::endl">
<polygon fill="#ffffff" stroke="#000000" points="102.5,-.5 102.5,-19.5 156.5,-19.5 156.5,-.5 102.5,-.5"/>
<text text-anchor="middle" x="129.5" y="-7.5" font-family="Helvetica,sans-Serif" font-size="10.00" fill="#000000">std::endl</text>
</a>
</g>
</g>
<!-- Node35&#45;&gt;Node39 -->
<g id="edge4" class="edge">
<title>Node35&#45;&gt;Node39</title>
<path fill="none" stroke="#191970" d="M48.5395,-57.3307C63.7589,-48.4333 86.5593,-35.1038 104.0895,-24.8554"/>
<polygon fill="#191970" stroke="#191970" points="106.3382,-27.595 113.2047,-19.5265 102.8053,-21.5519 106.3382,-27.595"/>
</g>
</g>
</svg>
