<?xml version="1.0" encoding="UTF-8" standalone="no"?>
<!DOCTYPE svg PUBLIC "-//W3C//DTD SVG 1.1//EN"
 "http://www.w3.org/Graphics/SVG/1.1/DTD/svg11.dtd">
<!-- Generated by graphviz version 5.0.1 (20220820.1526)
 -->
<!-- Title: operator&#45; Pages: 1 -->
<svg width="186pt" height="64pt"
 viewBox="0.00 0.00 186.00 64.00" xmlns="http://www.w3.org/2000/svg" xmlns:xlink="http://www.w3.org/1999/xlink">
<g id="graph0" class="graph" transform="scale(1 1) rotate(0) translate(4 60)">
<title>operator&#45;</title>
<!-- Node1 -->
<g id="node1" class="node">
<title>Node1</title>
<g id="a_node1"><a xlink:title=" ">
<polygon fill="#999999" stroke="#666666" points="55,-37 0,-37 0,-18 55,-18 55,-37"/>
<text text-anchor="middle" x="27.5" y="-25" font-family="Helvetica,sans-Serif" font-size="10.00">operator&#45;</text>
</a>
</g>
</g>
<!-- Node2 -->
<g id="node2" class="node">
<title>Node2</title>
<g id="a_node2"><a target="_blank" xlink:href="http://en.cppreference.com/w/cpp/io/manip/endl.html#" xlink:title=" ">
<polygon fill="white" stroke="#666666" points="161.5,-56 107.5,-56 107.5,-37 161.5,-37 161.5,-56"/>
<text text-anchor="middle" x="134.5" y="-44" font-family="Helvetica,sans-Serif" font-size="10.00">std::endl</text>
</a>
</g>
</g>
<!-- Node1&#45;&gt;Node2 -->
<g id="edge1" class="edge">
<title>Node1&#45;&gt;Node2</title>
<path fill="none" stroke="#63b8ff" d="M55.27,-32.34C67.95,-34.64 83.3,-37.42 97.03,-39.9"/>
<polygon fill="#63b8ff" stroke="#63b8ff" points="96.68,-43.39 107.14,-41.73 97.93,-36.51 96.68,-43.39"/>
</g>
<!-- Node3 -->
<g id="node3" class="node">
<title>Node3</title>
<g id="a_node3"><a target="_blank" xlink:href="http://en.cppreference.com/w/cpp/container/vector/size.html#" xlink:title=" ">
<polygon fill="white" stroke="#666666" points="178,-19 91,-19 91,0 178,0 178,-19"/>
<text text-anchor="middle" x="134.5" y="-7" font-family="Helvetica,sans-Serif" font-size="10.00">std::vector::size</text>
</a>
</g>
</g>
<!-- Node1&#45;&gt;Node3 -->
<g id="edge2" class="edge">
<title>Node1&#45;&gt;Node3</title>
<path fill="none" stroke="#63b8ff" d="M55.27,-22.91C63.13,-21.56 72.01,-20.04 80.89,-18.52"/>
<polygon fill="#63b8ff" stroke="#63b8ff" points="81.6,-21.95 90.87,-16.81 80.42,-15.05 81.6,-21.95"/>
</g>
</g>
</svg>
