<?xml version="1.0" encoding="UTF-8" standalone="no"?>
<!DOCTYPE svg PUBLIC "-//W3C//DTD SVG 1.1//EN"
 "http://www.w3.org/Graphics/SVG/1.1/DTD/svg11.dtd">
<!-- Generated by graphviz version 7.0.6 (20230106.0513)
 -->
<!-- Title: fit_OLS_regressor Pages: 1 -->
<svg width="350pt" height="156pt"
 viewBox="0.00 0.00 350.00 156.00" xmlns="http://www.w3.org/2000/svg" xmlns:xlink="http://www.w3.org/1999/xlink">
<g id="graph0" class="graph" transform="scale(1 1) rotate(0) translate(4 152)">
<title>fit_OLS_regressor</title>
<!-- Node1 -->
<g id="node1" class="node">
<title>Node1</title>
<g id="a_node1"><a xlink:title=" ">
<polygon fill="#999999" stroke="#666666" points="95,-74 0,-74 0,-55 95,-55 95,-74"/>
<text text-anchor="middle" x="47.5" y="-62" font-family="Helvetica,sans-Serif" font-size="10.00">fit_OLS_regressor</text>
</a>
</g>
</g>
<!-- Node2 -->
<g id="node2" class="node">
<title>Node2</title>
<g id="a_node2"><a xlink:href="../../dc/d38/ordinary__least__squares__regressor_8cpp.html#af7243bdc6ae3c7169f01b85bb226e66a" target="_top" xlink:title=" ">
<polygon fill="white" stroke="#666666" points="222.5,-130 155.5,-130 155.5,-111 222.5,-111 222.5,-130"/>
<text text-anchor="middle" x="189" y="-118" font-family="Helvetica,sans-Serif" font-size="10.00">get_inverse</text>
</a>
</g>
</g>
<!-- Node1&#45;&gt;Node2 -->
<g id="edge1" class="edge">
<title>Node1&#45;&gt;Node2</title>
<path fill="none" stroke="#63b8ff" d="M68.2,-74.43C84.73,-82.55 109.08,-94.03 131,-102.5 135.36,-104.18 139.94,-105.83 144.54,-107.4"/>
<polygon fill="#63b8ff" stroke="#63b8ff" points="143.17,-110.64 153.76,-110.44 145.36,-103.99 143.17,-110.64"/>
</g>
<!-- Node5 -->
<g id="node5" class="node">
<title>Node5</title>
<g id="a_node5"><a xlink:href="../../dc/d38/ordinary__least__squares__regressor_8cpp.html#a21c80569aaffb7bf1657e54fa4b97deb" target="_top" xlink:title=" ">
<polygon fill="white" stroke="#666666" points="228,-93 150,-93 150,-74 228,-74 228,-93"/>
<text text-anchor="middle" x="189" y="-81" font-family="Helvetica,sans-Serif" font-size="10.00">get_transpose</text>
</a>
</g>
</g>
<!-- Node1&#45;&gt;Node5 -->
<g id="edge4" class="edge">
<title>Node1&#45;&gt;Node5</title>
<path fill="none" stroke="#63b8ff" d="M95.34,-70.88C109.33,-72.79 124.7,-74.88 138.84,-76.8"/>
<polygon fill="#63b8ff" stroke="#63b8ff" points="137.98,-80.22 148.36,-78.1 138.92,-73.28 137.98,-80.22"/>
</g>
<!-- Node6 -->
<g id="node6" class="node">
<title>Node6</title>
<g id="a_node6"><a target="_blank" xlink:href="http://en.cppreference.com/w/cpp/container/vector/push_back.html#" xlink:title=" ">
<polygon fill="white" stroke="#666666" points="247,-56 131,-56 131,-37 247,-37 247,-56"/>
<text text-anchor="middle" x="189" y="-44" font-family="Helvetica,sans-Serif" font-size="10.00">std::vector::push_back</text>
</a>
</g>
</g>
<!-- Node1&#45;&gt;Node6 -->
<g id="edge5" class="edge">
<title>Node1&#45;&gt;Node6</title>
<path fill="none" stroke="#63b8ff" d="M95.34,-58.46C103.18,-57.45 111.45,-56.38 119.69,-55.31"/>
<polygon fill="#63b8ff" stroke="#63b8ff" points="119.9,-58.82 129.37,-54.07 119,-51.87 119.9,-58.82"/>
</g>
<!-- Node7 -->
<g id="node7" class="node">
<title>Node7</title>
<g id="a_node7"><a target="_blank" xlink:href="http://en.cppreference.com/w/cpp/container/vector/size.html#" xlink:title=" ">
<polygon fill="white" stroke="#666666" points="232.5,-19 145.5,-19 145.5,0 232.5,0 232.5,-19"/>
<text text-anchor="middle" x="189" y="-7" font-family="Helvetica,sans-Serif" font-size="10.00">std::vector::size</text>
</a>
</g>
</g>
<!-- Node1&#45;&gt;Node7 -->
<g id="edge6" class="edge">
<title>Node1&#45;&gt;Node7</title>
<path fill="none" stroke="#63b8ff" d="M69.65,-54.65C86.19,-47.09 109.85,-36.62 131,-28.5 135.73,-26.68 140.72,-24.87 145.69,-23.13"/>
<polygon fill="#63b8ff" stroke="#63b8ff" points="146.7,-26.49 155.03,-19.94 144.43,-19.86 146.7,-26.49"/>
</g>
<!-- Node3 -->
<g id="node3" class="node">
<title>Node3</title>
<g id="a_node3"><a target="_blank" xlink:href="http://en.cppreference.com/w/cpp/io/manip/endl.html#" xlink:title=" ">
<polygon fill="white" stroke="#666666" points="339.5,-148 285.5,-148 285.5,-129 339.5,-129 339.5,-148"/>
<text text-anchor="middle" x="312.5" y="-136" font-family="Helvetica,sans-Serif" font-size="10.00">std::endl</text>
</a>
</g>
</g>
<!-- Node2&#45;&gt;Node3 -->
<g id="edge2" class="edge">
<title>Node2&#45;&gt;Node3</title>
<path fill="none" stroke="#63b8ff" d="M222.88,-125.37C238.6,-127.7 257.5,-130.5 273.8,-132.92"/>
<polygon fill="#63b8ff" stroke="#63b8ff" points="273.23,-136.37 283.63,-134.37 274.25,-129.44 273.23,-136.37"/>
</g>
<!-- Node4 -->
<g id="node4" class="node">
<title>Node4</title>
<g id="a_node4"><a xlink:href="../../dc/d38/ordinary__least__squares__regressor_8cpp.html#a8fa731952b0ee3bc7ec51c51ed21911e" target="_top" xlink:title=" ">
<polygon fill="white" stroke="#666666" points="342,-111 283,-111 283,-92 342,-92 342,-111"/>
<text text-anchor="middle" x="312.5" y="-99" font-family="Helvetica,sans-Serif" font-size="10.00">is_square</text>
</a>
</g>
</g>
<!-- Node2&#45;&gt;Node4 -->
<g id="edge3" class="edge">
<title>Node2&#45;&gt;Node4</title>
<path fill="none" stroke="#63b8ff" d="M222.88,-115.36C237.92,-113.01 255.88,-110.2 271.68,-107.73"/>
<polygon fill="#63b8ff" stroke="#63b8ff" points="271.9,-111.24 281.24,-106.23 270.82,-104.32 271.9,-111.24"/>
</g>
</g>
</svg>
