<?xml version="1.0" encoding="UTF-8" standalone="no"?>
<!DOCTYPE svg PUBLIC "-//W3C//DTD SVG 1.1//EN"
 "http://www.w3.org/Graphics/SVG/1.1/DTD/svg11.dtd">
<!-- Generated by graphviz version 2.44.1 (20200629.0846)
 -->
<!-- Title: ols_test Pages: 1 -->
<svg width="458pt" height="199pt"
 viewBox="0.00 0.00 458.00 199.00" xmlns="http://www.w3.org/2000/svg" xmlns:xlink="http://www.w3.org/1999/xlink">
<g id="graph0" class="graph" transform="scale(1 1) rotate(0) translate(4 195)">
<title>ols_test</title>
<polygon fill="white" stroke="transparent" points="-4,4 -4,-195 454,-195 454,4 -4,4"/>
<!-- Node1 -->
<g id="node1" class="node">
<title>Node1</title>
<g id="a_node1"><a xlink:title=" ">
<polygon fill="#bfbfbf" stroke="black" points="0,-57.5 0,-76.5 51,-76.5 51,-57.5 0,-57.5"/>
<text text-anchor="middle" x="25.5" y="-64.5" font-family="Helvetica,sans-Serif" font-size="10.00">ols_test</text>
</a>
</g>
</g>
<!-- Node2 -->
<g id="node2" class="node">
<title>Node2</title>
<g id="a_node2"><a target="_blank" xlink:href="http://en.cppreference.com/w/cpp/io/manip/endl.html#" target="_top" xlink:title=" ">
<polygon fill="white" stroke="black" points="393.5,-171.5 393.5,-190.5 447.5,-190.5 447.5,-171.5 393.5,-171.5"/>
<text text-anchor="middle" x="420.5" y="-178.5" font-family="Helvetica,sans-Serif" font-size="10.00">std::endl</text>
</a>
</g>
</g>
<!-- Node1&#45;&gt;Node2 -->
<g id="edge1" class="edge">
<title>Node1&#45;&gt;Node2</title>
<path fill="none" stroke="midnightblue" d="M39.98,-76.58C51.94,-84.81 70.1,-96.63 87,-105 151.66,-137.02 168.78,-145.42 239,-162 288.12,-173.6 346.44,-178.12 383.22,-179.88"/>
<polygon fill="midnightblue" stroke="midnightblue" points="383.31,-183.39 393.45,-180.33 383.61,-176.39 383.31,-183.39"/>
</g>
<!-- Node3 -->
<g id="node3" class="node">
<title>Node3</title>
<g id="a_node3"><a xlink:href="../../dc/d38/ordinary__least__squares__regressor_8cpp.html#a38ff1d954e9b7de93eb20e2dd101a045" target="_top" xlink:title=" ">
<polygon fill="white" stroke="black" points="97.5,-76.5 97.5,-95.5 192.5,-95.5 192.5,-76.5 97.5,-76.5"/>
<text text-anchor="middle" x="145" y="-83.5" font-family="Helvetica,sans-Serif" font-size="10.00">fit_OLS_regressor</text>
</a>
</g>
</g>
<!-- Node1&#45;&gt;Node3 -->
<g id="edge2" class="edge">
<title>Node1&#45;&gt;Node3</title>
<path fill="none" stroke="midnightblue" d="M51.13,-70.98C61.65,-72.68 74.39,-74.74 87.03,-76.79"/>
<polygon fill="midnightblue" stroke="midnightblue" points="86.66,-80.27 97.09,-78.41 87.78,-73.36 86.66,-80.27"/>
</g>
<!-- Node8 -->
<g id="node8" class="node">
<title>Node8</title>
<g id="a_node8"><a target="_blank" xlink:href="http://en.cppreference.com/w/cpp/container/vector/size.html#" target="_top" xlink:title=" ">
<polygon fill="white" stroke="black" points="253.5,-19.5 253.5,-38.5 340.5,-38.5 340.5,-19.5 253.5,-19.5"/>
<text text-anchor="middle" x="297" y="-26.5" font-family="Helvetica,sans-Serif" font-size="10.00">std::vector::size</text>
</a>
</g>
</g>
<!-- Node1&#45;&gt;Node8 -->
<g id="edge10" class="edge">
<title>Node1&#45;&gt;Node8</title>
<path fill="none" stroke="midnightblue" d="M51.37,-63.49C94.76,-57.37 185.19,-44.62 243.12,-36.46"/>
<polygon fill="midnightblue" stroke="midnightblue" points="243.77,-39.9 253.19,-35.04 242.79,-32.97 243.77,-39.9"/>
</g>
<!-- Node9 -->
<g id="node9" class="node">
<title>Node9</title>
<g id="a_node9"><a xlink:href="../../dc/d38/ordinary__least__squares__regressor_8cpp.html#a4bcaaf41c66da4d3a471dacef133def7" target="_top" xlink:title=" ">
<polygon fill="white" stroke="black" points="87,-0.5 87,-19.5 203,-19.5 203,-0.5 87,-0.5"/>
<text text-anchor="middle" x="145" y="-7.5" font-family="Helvetica,sans-Serif" font-size="10.00">predict_OLS_regressor</text>
</a>
</g>
</g>
<!-- Node1&#45;&gt;Node9 -->
<g id="edge9" class="edge">
<title>Node1&#45;&gt;Node9</title>
<path fill="none" stroke="midnightblue" d="M42.96,-57.44C54.99,-50.59 71.8,-41.32 87,-34 94.56,-30.36 102.83,-26.7 110.65,-23.38"/>
<polygon fill="midnightblue" stroke="midnightblue" points="112.03,-26.59 119.91,-19.51 109.33,-20.13 112.03,-26.59"/>
</g>
<!-- Node4 -->
<g id="node4" class="node">
<title>Node4</title>
<g id="a_node4"><a xlink:href="../../dc/d38/ordinary__least__squares__regressor_8cpp.html#a98ab8f75d981088369b89b8be2182483" target="_top" xlink:title=" ">
<polygon fill="white" stroke="black" points="263.5,-133.5 263.5,-152.5 330.5,-152.5 330.5,-133.5 263.5,-133.5"/>
<text text-anchor="middle" x="297" y="-140.5" font-family="Helvetica,sans-Serif" font-size="10.00">get_inverse</text>
</a>
</g>
</g>
<!-- Node3&#45;&gt;Node4 -->
<g id="edge3" class="edge">
<title>Node3&#45;&gt;Node4</title>
<path fill="none" stroke="midnightblue" d="M168.39,-95.63C187.12,-103.58 214.63,-114.97 239,-124 244.58,-126.07 250.5,-128.15 256.33,-130.15"/>
<polygon fill="midnightblue" stroke="midnightblue" points="255.4,-133.53 265.99,-133.41 257.63,-126.9 255.4,-133.53"/>
</g>
<!-- Node6 -->
<g id="node6" class="node">
<title>Node6</title>
<g id="a_node6"><a xlink:href="../../dc/d38/ordinary__least__squares__regressor_8cpp.html#a889f9de199fa793497c864d8e493af05" target="_top" xlink:title=" ">
<polygon fill="white" stroke="black" points="258,-95.5 258,-114.5 336,-114.5 336,-95.5 258,-95.5"/>
<text text-anchor="middle" x="297" y="-102.5" font-family="Helvetica,sans-Serif" font-size="10.00">get_transpose</text>
</a>
</g>
</g>
<!-- Node3&#45;&gt;Node6 -->
<g id="edge6" class="edge">
<title>Node3&#45;&gt;Node6</title>
<path fill="none" stroke="midnightblue" d="M192.64,-91.91C210.18,-94.13 230.15,-96.66 247.83,-98.9"/>
<polygon fill="midnightblue" stroke="midnightblue" points="247.58,-102.39 257.94,-100.18 248.46,-95.45 247.58,-102.39"/>
</g>
<!-- Node7 -->
<g id="node7" class="node">
<title>Node7</title>
<g id="a_node7"><a target="_blank" xlink:href="http://en.cppreference.com/w/cpp/container/vector/push_back.html#" target="_top" xlink:title=" ">
<polygon fill="white" stroke="black" points="239,-57.5 239,-76.5 355,-76.5 355,-57.5 239,-57.5"/>
<text text-anchor="middle" x="297" y="-64.5" font-family="Helvetica,sans-Serif" font-size="10.00">std::vector::push_back</text>
</a>
</g>
</g>
<!-- Node3&#45;&gt;Node7 -->
<g id="edge7" class="edge">
<title>Node3&#45;&gt;Node7</title>
<path fill="none" stroke="midnightblue" d="M192.64,-80.09C204.06,-78.65 216.51,-77.07 228.69,-75.53"/>
<polygon fill="midnightblue" stroke="midnightblue" points="229.35,-78.97 238.83,-74.24 228.47,-72.03 229.35,-78.97"/>
</g>
<!-- Node3&#45;&gt;Node8 -->
<g id="edge8" class="edge">
<title>Node3&#45;&gt;Node8</title>
<path fill="none" stroke="midnightblue" d="M168.39,-76.37C187.12,-68.42 214.63,-57.03 239,-48 244.58,-45.93 250.5,-43.85 256.33,-41.85"/>
<polygon fill="midnightblue" stroke="midnightblue" points="257.63,-45.1 265.99,-38.59 255.4,-38.47 257.63,-45.1"/>
</g>
<!-- Node4&#45;&gt;Node2 -->
<g id="edge4" class="edge">
<title>Node4&#45;&gt;Node2</title>
<path fill="none" stroke="midnightblue" d="M328.66,-152.59C345.35,-157.81 366.09,-164.3 383.54,-169.75"/>
<polygon fill="midnightblue" stroke="midnightblue" points="382.79,-173.19 393.38,-172.83 384.88,-166.51 382.79,-173.19"/>
</g>
<!-- Node5 -->
<g id="node5" class="node">
<title>Node5</title>
<g id="a_node5"><a xlink:href="../../dc/d38/ordinary__least__squares__regressor_8cpp.html#a4921874435266592b222e3f2eda0e01f" target="_top" xlink:title=" ">
<polygon fill="white" stroke="black" points="391,-133.5 391,-152.5 450,-152.5 450,-133.5 391,-133.5"/>
<text text-anchor="middle" x="420.5" y="-140.5" font-family="Helvetica,sans-Serif" font-size="10.00">is_square</text>
</a>
</g>
</g>
<!-- Node4&#45;&gt;Node5 -->
<g id="edge5" class="edge">
<title>Node4&#45;&gt;Node5</title>
<path fill="none" stroke="midnightblue" d="M330.56,-143C346.01,-143 364.59,-143 380.77,-143"/>
<polygon fill="midnightblue" stroke="midnightblue" points="380.99,-146.5 390.99,-143 380.99,-139.5 380.99,-146.5"/>
</g>
</g>
</svg>
