<?xml version="1.0" encoding="UTF-8" standalone="no"?>
<!DOCTYPE svg PUBLIC "-//W3C//DTD SVG 1.1//EN"
 "http://www.w3.org/Graphics/SVG/1.1/DTD/svg11.dtd">
<!-- Generated by graphviz version 12.1.2 (20240928.0832)
 -->
<!-- Title: hashing::sha256::sha256 Pages: 1 -->
<svg width="635pt" height="335pt"
 viewBox="0.00 0.00 634.50 334.88" xmlns="http://www.w3.org/2000/svg" xmlns:xlink="http://www.w3.org/1999/xlink">
<g id="graph0" class="graph" transform="scale(1 1) rotate(0) translate(4 330.88)">
<title>hashing::sha256::sha256</title>
<!-- Node1 -->
<g id="Node000001" class="node">
<title>Node1</title>
<g id="a_Node000001"><a xlink:title="Computes the final hash value.">
<polygon fill="#999999" stroke="#666666" points="124.75,-171.25 0,-171.25 0,-152 124.75,-152 124.75,-171.25"/>
<text text-anchor="middle" x="62.38" y="-157.75" font-family="Helvetica,sans-Serif" font-size="10.00">hashing::sha256::sha256</text>
</a>
</g>
</g>
<!-- Node1&#45;&gt;Node1 -->
<g id="edge13_Node000001_Node000001" class="edge">
<title>Node1&#45;&gt;Node1</title>
<g id="a_edge13_Node000001_Node000001"><a xlink:title=" ">
<path fill="none" stroke="#63b8ff" d="M36.62,-171.54C24.87,-180.15 33.46,-189.25 62.38,-189.25 78.64,-189.25 88.47,-186.37 91.87,-182.32"/>
<polygon fill="#63b8ff" stroke="#63b8ff" points="95.21,-181.27 88.62,-172.97 88.6,-183.56 95.21,-181.27"/>
</a>
</g>
</g>
<!-- Node2 -->
<g id="Node000002" class="node">
<title>Node2</title>
<g id="a_Node000002"><a xlink:href="../../d4/d08/sha256_8cpp.html#a28c1c6724dc6bcf91a39818699bbec27" target="_top" xlink:title="Computes size of the padded input.">
<polygon fill="white" stroke="#666666" points="626.5,-308.88 495.75,-308.88 495.75,-278.38 626.5,-278.38 626.5,-308.88"/>
<text text-anchor="start" x="503.75" y="-295.38" font-family="Helvetica,sans-Serif" font-size="10.00">hashing::sha256::compute</text>
<text text-anchor="middle" x="561.12" y="-284.12" font-family="Helvetica,sans-Serif" font-size="10.00">_padded_size</text>
</a>
</g>
</g>
<!-- Node1&#45;&gt;Node2 -->
<g id="edge1_Node000001_Node000002" class="edge">
<title>Node1&#45;&gt;Node2</title>
<g id="a_edge1_Node000001_Node000002"><a xlink:title=" ">
<path fill="none" stroke="#63b8ff" d="M72.33,-171.72C88.4,-189.27 123.93,-225.57 160.75,-246.62 278.11,-313.74 324.69,-308.67 459.75,-302.62 467.59,-302.27 475.77,-301.77 483.92,-301.18"/>
<polygon fill="#63b8ff" stroke="#63b8ff" points="484.18,-304.67 493.88,-300.4 483.64,-297.69 484.18,-304.67"/>
</a>
</g>
</g>
<!-- Node3 -->
<g id="Node000003" class="node">
<title>Node3</title>
<g id="a_Node000003"><a xlink:href="../../d4/d08/sha256_8cpp.html#a525531b3939ed44fbf01674e21931b3a" target="_top" xlink:title="Creates the message schedule array.">
<polygon fill="white" stroke="#666666" points="293,-219.88 160.75,-219.88 160.75,-189.38 293,-189.38 293,-219.88"/>
<text text-anchor="start" x="168.75" y="-206.38" font-family="Helvetica,sans-Serif" font-size="10.00">hashing::sha256::create</text>
<text text-anchor="middle" x="226.88" y="-195.12" font-family="Helvetica,sans-Serif" font-size="10.00">_message_schedule_array</text>
</a>
</g>
</g>
<!-- Node1&#45;&gt;Node3 -->
<g id="edge3_Node000001_Node000003" class="edge">
<title>Node1&#45;&gt;Node3</title>
<g id="a_edge3_Node000001_Node000003"><a xlink:title=" ">
<path fill="none" stroke="#63b8ff" d="M101.47,-171.71C117.55,-175.96 136.81,-181.06 155.31,-185.95"/>
<polygon fill="#63b8ff" stroke="#63b8ff" points="154.37,-189.32 164.93,-188.5 156.16,-182.56 154.37,-189.32"/>
</a>
</g>
</g>
<!-- Node5 -->
<g id="Node000005" class="node">
<title>Node5</title>
<g id="a_Node000005"><a target="_blank" xlink:href="http://en.cppreference.com/w/cpp/string/basic_string/size.html#" xlink:title=" ">
<polygon fill="white" stroke="#666666" points="607,-230.25 515.25,-230.25 515.25,-211 607,-211 607,-230.25"/>
<text text-anchor="middle" x="561.12" y="-216.75" font-family="Helvetica,sans-Serif" font-size="10.00">std::string::length</text>
</a>
</g>
</g>
<!-- Node1&#45;&gt;Node5 -->
<g id="edge12_Node000001_Node000005" class="edge">
<title>Node1&#45;&gt;Node5</title>
<g id="a_edge12_Node000001_Node000005"><a xlink:title=" ">
<path fill="none" stroke="#63b8ff" d="M124.96,-158.34C203.61,-155.57 343.44,-155.4 459.75,-180.62 484.38,-185.97 510.81,-196.72 530.37,-205.74"/>
<polygon fill="#63b8ff" stroke="#63b8ff" points="528.84,-208.88 539.37,-210 531.83,-202.56 528.84,-208.88"/>
</a>
</g>
</g>
<!-- Node7 -->
<g id="Node000007" class="node">
<title>Node7</title>
<g id="a_Node000007"><a xlink:href="../../d1/df3/hash__search_8cpp.html#a566eaf0ffafd50bc61e644561fd27001" target="_top" xlink:title=" ">
<polygon fill="white" stroke="#666666" points="241.28,-133.25 212.47,-133.25 212.47,-114 241.28,-114 241.28,-133.25"/>
<text text-anchor="middle" x="226.88" y="-119.75" font-family="Helvetica,sans-Serif" font-size="10.00">h</text>
</a>
</g>
</g>
<!-- Node1&#45;&gt;Node7 -->
<g id="edge11_Node000001_Node000007" class="edge">
<title>Node1&#45;&gt;Node7</title>
<g id="a_edge11_Node000001_Node000007"><a xlink:title=" ">
<path fill="none" stroke="#63b8ff" d="M106.5,-151.54C136.72,-144.47 176.04,-135.28 201.13,-129.41"/>
<polygon fill="#63b8ff" stroke="#63b8ff" points="201.78,-132.85 210.72,-127.17 200.19,-126.04 201.78,-132.85"/>
</a>
</g>
</g>
<!-- Node8 -->
<g id="Node000008" class="node">
<title>Node8</title>
<g id="a_Node000008"><a xlink:href="../../d6/d84/classhashing_1_1sha256_1_1_hash.html#a4581f503a263d8e928e5716d54477e08" target="_top" xlink:title="Convert the hash to a hexadecimal string.">
<polygon fill="white" stroke="#666666" points="285.12,-95.88 168.62,-95.88 168.62,-65.38 285.12,-65.38 285.12,-95.88"/>
<text text-anchor="start" x="176.62" y="-82.38" font-family="Helvetica,sans-Serif" font-size="10.00">hashing::sha256::Hash</text>
<text text-anchor="middle" x="226.88" y="-71.12" font-family="Helvetica,sans-Serif" font-size="10.00">::to_string</text>
</a>
</g>
</g>
<!-- Node1&#45;&gt;Node8 -->
<g id="edge14_Node000001_Node000008" class="edge">
<title>Node1&#45;&gt;Node8</title>
<g id="a_edge14_Node000001_Node000008"><a xlink:title=" ">
<path fill="none" stroke="#63b8ff" d="M78.43,-151.68C97.19,-139.56 130.46,-118.93 160.75,-104.62 163.66,-103.25 166.67,-101.9 169.74,-100.59"/>
<polygon fill="#63b8ff" stroke="#63b8ff" points="170.93,-103.88 178.86,-96.84 168.28,-97.4 170.93,-103.88"/>
</a>
</g>
</g>
<!-- Node2&#45;&gt;Node2 -->
<g id="edge2_Node000002_Node000002" class="edge">
<title>Node2&#45;&gt;Node2</title>
<g id="a_edge2_Node000002_Node000002"><a xlink:title=" ">
<path fill="none" stroke="#63b8ff" d="M531.58,-309.36C525.55,-318.43 535.4,-326.88 561.12,-326.88 575.2,-326.88 584.52,-324.35 589.09,-320.58"/>
<polygon fill="#63b8ff" stroke="#63b8ff" points="592.53,-321.25 590.46,-310.86 585.6,-320.27 592.53,-321.25"/>
</a>
</g>
</g>
<!-- Node3&#45;&gt;Node3 -->
<g id="edge4_Node000003_Node000003" class="edge">
<title>Node3&#45;&gt;Node3</title>
<g id="a_edge4_Node000003_Node000003"><a xlink:title=" ">
<path fill="none" stroke="#63b8ff" d="M197.73,-220.36C191.78,-229.43 201.49,-237.88 226.88,-237.88 240.76,-237.88 249.95,-235.35 254.46,-231.58"/>
<polygon fill="#63b8ff" stroke="#63b8ff" points="257.9,-232.25 255.82,-221.86 250.97,-231.28 257.9,-232.25"/>
</a>
</g>
</g>
<!-- Node4 -->
<g id="Node000004" class="node">
<title>Node4</title>
<g id="a_Node000004"><a xlink:href="../../d4/d08/sha256_8cpp.html#a9e98c180d32b04aab6f767cb0c13e1da" target="_top" xlink:title="Returns the character at pos after the input is padded.">
<polygon fill="white" stroke="#666666" points="459.75,-275.25 329,-275.25 329,-256 459.75,-256 459.75,-275.25"/>
<text text-anchor="middle" x="394.38" y="-261.75" font-family="Helvetica,sans-Serif" font-size="10.00">hashing::sha256::get_char</text>
</a>
</g>
</g>
<!-- Node3&#45;&gt;Node4 -->
<g id="edge5_Node000003_Node000004" class="edge">
<title>Node3&#45;&gt;Node4</title>
<g id="a_edge5_Node000003_Node000004"><a xlink:title=" ">
<path fill="none" stroke="#63b8ff" d="M263.08,-220.33C282.36,-228.66 306.78,-238.76 329,-246.62 334.42,-248.54 340.15,-250.43 345.85,-252.22"/>
<polygon fill="#63b8ff" stroke="#63b8ff" points="344.7,-255.53 355.28,-255.1 346.74,-248.84 344.7,-255.53"/>
</a>
</g>
</g>
<!-- Node6 -->
<g id="Node000006" class="node">
<title>Node6</title>
<g id="a_Node000006"><a xlink:href="../../d4/d08/sha256_8cpp.html#adbcd504103c342a4da718f8fce6ff06c" target="_top" xlink:title="Rotates the bits of a 32&#45;bit unsigned integer.">
<polygon fill="white" stroke="#666666" points="450.38,-219.88 338.38,-219.88 338.38,-189.38 450.38,-189.38 450.38,-219.88"/>
<text text-anchor="start" x="346.38" y="-206.38" font-family="Helvetica,sans-Serif" font-size="10.00">hashing::sha256::right</text>
<text text-anchor="middle" x="394.38" y="-195.12" font-family="Helvetica,sans-Serif" font-size="10.00">_rotate</text>
</a>
</g>
</g>
<!-- Node3&#45;&gt;Node6 -->
<g id="edge9_Node000003_Node000006" class="edge">
<title>Node3&#45;&gt;Node6</title>
<g id="a_edge9_Node000003_Node000006"><a xlink:title=" ">
<path fill="none" stroke="#63b8ff" d="M293.28,-204.62C304.28,-204.62 315.71,-204.62 326.74,-204.62"/>
<polygon fill="#63b8ff" stroke="#63b8ff" points="326.54,-208.13 336.54,-204.63 326.54,-201.13 326.54,-208.13"/>
</a>
</g>
</g>
<!-- Node4&#45;&gt;Node2 -->
<g id="edge6_Node000004_Node000002" class="edge">
<title>Node4&#45;&gt;Node2</title>
<g id="a_edge6_Node000004_Node000002"><a xlink:title=" ">
<path fill="none" stroke="#63b8ff" d="M454.85,-275.73C464.43,-277.36 474.45,-279.06 484.35,-280.75"/>
<polygon fill="#63b8ff" stroke="#63b8ff" points="483.5,-284.15 493.95,-282.38 484.68,-277.25 483.5,-284.15"/>
</a>
</g>
</g>
<!-- Node4&#45;&gt;Node4 -->
<g id="edge7_Node000004_Node000004" class="edge">
<title>Node4&#45;&gt;Node4</title>
<g id="a_edge7_Node000004_Node000004"><a xlink:title=" ">
<path fill="none" stroke="#63b8ff" d="M368.27,-275.54C356.36,-284.15 365.06,-293.25 394.38,-293.25 410.86,-293.25 420.83,-290.37 424.28,-286.32"/>
<polygon fill="#63b8ff" stroke="#63b8ff" points="427.61,-285.24 420.98,-276.97 421,-287.56 427.61,-285.24"/>
</a>
</g>
</g>
<!-- Node4&#45;&gt;Node5 -->
<g id="edge8_Node000004_Node000005" class="edge">
<title>Node4&#45;&gt;Node5</title>
<g id="a_edge8_Node000004_Node000005"><a xlink:title=" ">
<path fill="none" stroke="#63b8ff" d="M432.35,-255.53C455.98,-249.07 486.87,-240.63 512.36,-233.67"/>
<polygon fill="#63b8ff" stroke="#63b8ff" points="513.09,-237.1 521.82,-231.09 511.25,-230.35 513.09,-237.1"/>
</a>
</g>
</g>
<!-- Node6&#45;&gt;Node6 -->
<g id="edge10_Node000006_Node000006" class="edge">
<title>Node6&#45;&gt;Node6</title>
<g id="a_edge10_Node000006_Node000006"><a xlink:title=" ">
<path fill="none" stroke="#63b8ff" d="M364.83,-220.36C358.8,-229.43 368.65,-237.88 394.38,-237.88 408.45,-237.88 417.77,-235.35 422.34,-231.58"/>
<polygon fill="#63b8ff" stroke="#63b8ff" points="425.78,-232.25 423.71,-221.86 418.85,-231.27 425.78,-232.25"/>
</a>
</g>
</g>
<!-- Node9 -->
<g id="Node000009" class="node">
<title>Node9</title>
<g id="a_Node000009"><a target="_blank" xlink:href="http://en.cppreference.com/w/cpp/io/manip/hex.html#" xlink:title=" ">
<polygon fill="white" stroke="#666666" points="420,-130.25 368.75,-130.25 368.75,-111 420,-111 420,-130.25"/>
<text text-anchor="middle" x="394.38" y="-116.75" font-family="Helvetica,sans-Serif" font-size="10.00">std::hex</text>
</a>
</g>
</g>
<!-- Node8&#45;&gt;Node9 -->
<g id="edge15_Node000008_Node000009" class="edge">
<title>Node8&#45;&gt;Node9</title>
<g id="a_edge15_Node000008_Node000009"><a xlink:title=" ">
<path fill="none" stroke="#63b8ff" d="M285.29,-94.5C309.24,-100.29 336.32,-106.84 357.38,-111.93"/>
<polygon fill="#63b8ff" stroke="#63b8ff" points="356.39,-115.29 366.94,-114.23 358.04,-108.48 356.39,-115.29"/>
</a>
</g>
</g>
<!-- Node10 -->
<g id="Node000010" class="node">
<title>Node10</title>
<g id="a_Node000010"><a target="_blank" xlink:href="http://en.cppreference.com/w/cpp/io/manip/setfill.html#" xlink:title=" ">
<polygon fill="white" stroke="#666666" points="423.75,-93.25 365,-93.25 365,-74 423.75,-74 423.75,-93.25"/>
<text text-anchor="middle" x="394.38" y="-79.75" font-family="Helvetica,sans-Serif" font-size="10.00">std::setfill</text>
</a>
</g>
</g>
<!-- Node8&#45;&gt;Node10 -->
<g id="edge16_Node000008_Node000010" class="edge">
<title>Node8&#45;&gt;Node10</title>
<g id="a_edge16_Node000008_Node000010"><a xlink:title=" ">
<path fill="none" stroke="#63b8ff" d="M285.29,-81.67C307.77,-82.07 333.01,-82.53 353.44,-82.9"/>
<polygon fill="#63b8ff" stroke="#63b8ff" points="353.28,-86.4 363.34,-83.08 353.41,-79.4 353.28,-86.4"/>
</a>
</g>
</g>
<!-- Node11 -->
<g id="Node000011" class="node">
<title>Node11</title>
<g id="a_Node000011"><a target="_blank" xlink:href="http://en.cppreference.com/w/cpp/io/manip/setw.html#" xlink:title=" ">
<polygon fill="white" stroke="#666666" points="422.62,-56.25 366.12,-56.25 366.12,-37 422.62,-37 422.62,-56.25"/>
<text text-anchor="middle" x="394.38" y="-42.75" font-family="Helvetica,sans-Serif" font-size="10.00">std::setw</text>
</a>
</g>
</g>
<!-- Node8&#45;&gt;Node11 -->
<g id="edge17_Node000008_Node000011" class="edge">
<title>Node8&#45;&gt;Node11</title>
<g id="a_edge17_Node000008_Node000011"><a xlink:title=" ">
<path fill="none" stroke="#63b8ff" d="M285.29,-68.83C308.19,-64.13 333.95,-58.83 354.57,-54.6"/>
<polygon fill="#63b8ff" stroke="#63b8ff" points="355.18,-58.04 364.28,-52.6 353.78,-51.19 355.18,-58.04"/>
</a>
</g>
</g>
<!-- Node12 -->
<g id="Node000012" class="node">
<title>Node12</title>
<g id="a_Node000012"><a target="_blank" xlink:href="http://en.cppreference.com/w/cpp/io/basic_stringstream/str.html#" xlink:title=" ">
<polygon fill="white" stroke="#666666" points="447.75,-19.25 341,-19.25 341,0 447.75,0 447.75,-19.25"/>
<text text-anchor="middle" x="394.38" y="-5.75" font-family="Helvetica,sans-Serif" font-size="10.00">std::stringstream::str</text>
</a>
</g>
</g>
<!-- Node8&#45;&gt;Node12 -->
<g id="edge18_Node000008_Node000012" class="edge">
<title>Node8&#45;&gt;Node12</title>
<g id="a_edge18_Node000008_Node000012"><a xlink:title=" ">
<path fill="none" stroke="#63b8ff" d="M253.77,-65.11C273.79,-53.6 302.47,-38.15 329,-27.62 333.07,-26.01 337.34,-24.48 341.66,-23.05"/>
<polygon fill="#63b8ff" stroke="#63b8ff" points="342.48,-26.46 350.98,-20.13 340.39,-19.78 342.48,-26.46"/>
</a>
</g>
</g>
</g>
</svg>
