<?xml version="1.0" encoding="UTF-8" standalone="no"?>
<!DOCTYPE svg PUBLIC "-//W3C//DTD SVG 1.1//EN"
 "http://www.w3.org/Graphics/SVG/1.1/DTD/svg11.dtd">
<!-- Generated by graphviz version 9.0.0 (20230911.1827)
 -->
<!-- Title: numerical_methods/durand_kerner_roots.cpp Pages: 1 -->
<svg width="590pt" height="94pt"
 viewBox="0.00 0.00 590.12 93.75" xmlns="http://www.w3.org/2000/svg" xmlns:xlink="http://www.w3.org/1999/xlink">
<g id="graph0" class="graph" transform="scale(1 1) rotate(0) translate(4 89.75)">
<title>numerical_methods/durand_kerner_roots.cpp</title>
<!-- Node1 -->
<g id="Node000001" class="node">
<title>Node1</title>
<g id="a_Node000001"><a xlink:title="Compute all possible approximate roots of any given polynomial using Durand Kerner algorithm">
<polygon fill="#999999" stroke="#666666" points="361.38,-85.75 228.38,-85.75 228.38,-55.25 361.38,-55.25 361.38,-85.75"/>
<text text-anchor="start" x="236.38" y="-72.25" font-family="Helvetica,sans-Serif" font-size="10.00">numerical_methods/durand</text>
<text text-anchor="middle" x="294.88" y="-61" font-family="Helvetica,sans-Serif" font-size="10.00">_kerner_roots.cpp</text>
</a>
</g>
</g>
<!-- Node2 -->
<g id="Node000002" class="node">
<title>Node2</title>
<g id="a_Node000002"><a xlink:title=" ">
<polygon fill="#e0e0e0" stroke="#999999" points="55.75,-19.25 0,-19.25 0,0 55.75,0 55.75,-19.25"/>
<text text-anchor="middle" x="27.88" y="-5.75" font-family="Helvetica,sans-Serif" font-size="10.00">algorithm</text>
</a>
</g>
</g>
<!-- Node1&#45;&gt;Node2 -->
<g id="edge1_Node000001_Node000002" class="edge">
<title>Node1&#45;&gt;Node2</title>
<g id="a_edge1_Node000001_Node000002"><a xlink:title=" ">
<path fill="none" stroke="#63b8ff" d="M227.89,-55.12C184.67,-45.79 126.94,-33.21 67.3,-19.78"/>
<polygon fill="#63b8ff" stroke="#63b8ff" points="68.15,-16.38 57.62,-17.59 66.61,-23.21 68.15,-16.38"/>
</a>
</g>
</g>
<!-- Node3 -->
<g id="Node000003" class="node">
<title>Node3</title>
<g id="a_Node000003"><a xlink:title=" ">
<polygon fill="#e0e0e0" stroke="#999999" points="122,-19.25 73.75,-19.25 73.75,0 122,0 122,-19.25"/>
<text text-anchor="middle" x="97.88" y="-5.75" font-family="Helvetica,sans-Serif" font-size="10.00">cassert</text>
</a>
</g>
</g>
<!-- Node1&#45;&gt;Node3 -->
<g id="edge2_Node000001_Node000003" class="edge">
<title>Node1&#45;&gt;Node3</title>
<g id="a_edge2_Node000001_Node000003"><a xlink:title=" ">
<path fill="none" stroke="#63b8ff" d="M245.67,-54.8C210.65,-44.33 164.44,-30.52 133.07,-21.14"/>
<polygon fill="#63b8ff" stroke="#63b8ff" points="134.27,-17.85 123.69,-18.34 132.27,-24.56 134.27,-17.85"/>
</a>
</g>
</g>
<!-- Node4 -->
<g id="Node000004" class="node">
<title>Node4</title>
<g id="a_Node000004"><a xlink:title=" ">
<polygon fill="#e0e0e0" stroke="#999999" points="183.38,-19.25 140.38,-19.25 140.38,0 183.38,0 183.38,-19.25"/>
<text text-anchor="middle" x="161.88" y="-5.75" font-family="Helvetica,sans-Serif" font-size="10.00">cmath</text>
</a>
</g>
</g>
<!-- Node1&#45;&gt;Node4 -->
<g id="edge3_Node000001_Node000004" class="edge">
<title>Node1&#45;&gt;Node4</title>
<g id="a_edge3_Node000001_Node000004"><a xlink:title=" ">
<path fill="none" stroke="#63b8ff" d="M261.66,-54.8C240.53,-45.44 213.35,-33.41 192.7,-24.27"/>
<polygon fill="#63b8ff" stroke="#63b8ff" points="194.22,-21.11 183.66,-20.27 191.38,-27.51 194.22,-21.11"/>
</a>
</g>
</g>
<!-- Node5 -->
<g id="Node000005" class="node">
<title>Node5</title>
<g id="a_Node000005"><a xlink:title=" ">
<polygon fill="#e0e0e0" stroke="#999999" points="254.25,-19.25 201.5,-19.25 201.5,0 254.25,0 254.25,-19.25"/>
<text text-anchor="middle" x="227.88" y="-5.75" font-family="Helvetica,sans-Serif" font-size="10.00">complex</text>
</a>
</g>
</g>
<!-- Node1&#45;&gt;Node5 -->
<g id="edge4_Node000001_Node000005" class="edge">
<title>Node1&#45;&gt;Node5</title>
<g id="a_edge4_Node000001_Node000005"><a xlink:title=" ">
<path fill="none" stroke="#63b8ff" d="M278.31,-54.95C268.7,-46.5 256.56,-35.83 246.6,-27.08"/>
<polygon fill="#63b8ff" stroke="#63b8ff" points="249.16,-24.67 239.34,-20.7 244.54,-29.93 249.16,-24.67"/>
</a>
</g>
</g>
<!-- Node6 -->
<g id="Node000006" class="node">
<title>Node6</title>
<g id="a_Node000006"><a xlink:title=" ">
<polygon fill="#e0e0e0" stroke="#999999" points="317.12,-19.25 272.62,-19.25 272.62,0 317.12,0 317.12,-19.25"/>
<text text-anchor="middle" x="294.88" y="-5.75" font-family="Helvetica,sans-Serif" font-size="10.00">cstdlib</text>
</a>
</g>
</g>
<!-- Node1&#45;&gt;Node6 -->
<g id="edge5_Node000001_Node000006" class="edge">
<title>Node1&#45;&gt;Node6</title>
<g id="a_edge5_Node000001_Node000006"><a xlink:title=" ">
<path fill="none" stroke="#63b8ff" d="M294.88,-54.95C294.88,-47.71 294.88,-38.84 294.88,-30.94"/>
<polygon fill="#63b8ff" stroke="#63b8ff" points="298.38,-31.21 294.88,-21.21 291.38,-31.21 298.38,-31.21"/>
</a>
</g>
</g>
<!-- Node7 -->
<g id="Node000007" class="node">
<title>Node7</title>
<g id="a_Node000007"><a xlink:title=" ">
<polygon fill="#e0e0e0" stroke="#999999" points="374.88,-19.25 334.88,-19.25 334.88,0 374.88,0 374.88,-19.25"/>
<text text-anchor="middle" x="354.88" y="-5.75" font-family="Helvetica,sans-Serif" font-size="10.00">ctime</text>
</a>
</g>
</g>
<!-- Node1&#45;&gt;Node7 -->
<g id="edge6_Node000001_Node000007" class="edge">
<title>Node1&#45;&gt;Node7</title>
<g id="a_edge6_Node000001_Node000007"><a xlink:title=" ">
<path fill="none" stroke="#63b8ff" d="M309.71,-54.95C318.14,-46.67 328.74,-36.27 337.56,-27.62"/>
<polygon fill="#63b8ff" stroke="#63b8ff" points="339.86,-30.26 344.55,-20.76 334.96,-25.27 339.86,-30.26"/>
</a>
</g>
</g>
<!-- Node8 -->
<g id="Node000008" class="node">
<title>Node8</title>
<g id="a_Node000008"><a xlink:title=" ">
<polygon fill="#e0e0e0" stroke="#999999" points="442.38,-19.25 393.38,-19.25 393.38,0 442.38,0 442.38,-19.25"/>
<text text-anchor="middle" x="417.88" y="-5.75" font-family="Helvetica,sans-Serif" font-size="10.00">fstream</text>
</a>
</g>
</g>
<!-- Node1&#45;&gt;Node8 -->
<g id="edge7_Node000001_Node000008" class="edge">
<title>Node1&#45;&gt;Node8</title>
<g id="a_edge7_Node000001_Node000008"><a xlink:title=" ">
<path fill="none" stroke="#63b8ff" d="M325.6,-54.8C344.96,-45.53 369.8,-33.63 388.84,-24.52"/>
<polygon fill="#63b8ff" stroke="#63b8ff" points="390.14,-27.78 397.65,-20.31 387.12,-21.47 390.14,-27.78"/>
</a>
</g>
</g>
<!-- Node9 -->
<g id="Node000009" class="node">
<title>Node9</title>
<g id="a_Node000009"><a xlink:title=" ">
<polygon fill="#e0e0e0" stroke="#999999" points="513.62,-19.25 460.12,-19.25 460.12,0 513.62,0 513.62,-19.25"/>
<text text-anchor="middle" x="486.88" y="-5.75" font-family="Helvetica,sans-Serif" font-size="10.00">iostream</text>
</a>
</g>
</g>
<!-- Node1&#45;&gt;Node9 -->
<g id="edge8_Node000001_Node000009" class="edge">
<title>Node1&#45;&gt;Node9</title>
<g id="a_edge8_Node000001_Node000009"><a xlink:title=" ">
<path fill="none" stroke="#63b8ff" d="M342.83,-54.8C375.53,-44.77 418.25,-31.67 448.65,-22.35"/>
<polygon fill="#63b8ff" stroke="#63b8ff" points="449.67,-25.69 458.21,-19.42 447.62,-19 449.67,-25.69"/>
</a>
</g>
</g>
<!-- Node10 -->
<g id="Node000010" class="node">
<title>Node10</title>
<g id="a_Node000010"><a xlink:title=" ">
<polygon fill="#e0e0e0" stroke="#999999" points="582.12,-19.25 531.62,-19.25 531.62,0 582.12,0 582.12,-19.25"/>
<text text-anchor="middle" x="556.88" y="-5.75" font-family="Helvetica,sans-Serif" font-size="10.00">valarray</text>
</a>
</g>
</g>
<!-- Node1&#45;&gt;Node10 -->
<g id="edge9_Node000001_Node000010" class="edge">
<title>Node1&#45;&gt;Node10</title>
<g id="a_edge9_Node000001_Node000010"><a xlink:title=" ">
<path fill="none" stroke="#63b8ff" d="M361.84,-55.32C404.68,-46.12 461.69,-33.62 520.31,-19.81"/>
<polygon fill="#63b8ff" stroke="#63b8ff" points="520.88,-23.27 529.8,-17.56 519.27,-16.46 520.88,-23.27"/>
</a>
</g>
</g>
</g>
</svg>
