<?xml version="1.0" encoding="UTF-8" standalone="no"?>
<!DOCTYPE svg PUBLIC "-//W3C//DTD SVG 1.1//EN"
 "http://www.w3.org/Graphics/SVG/1.1/DTD/svg11.dtd">
<!-- Generated by graphviz version 2.49.3 (20211023.0002)
 -->
<!-- Title: numerical_methods/durand_kerner_roots.cpp Pages: 1 -->
<svg width="602pt" height="95pt"
 viewBox="0.00 0.00 602.00 95.00" xmlns="http://www.w3.org/2000/svg" xmlns:xlink="http://www.w3.org/1999/xlink">
<g id="graph0" class="graph" transform="scale(1 1) rotate(0) translate(4 91)">
<title>numerical_methods/durand_kerner_roots.cpp</title>
<polygon fill="white" stroke="transparent" points="-4,4 -4,-91 598,-91 598,4 -4,4"/>
<!-- Node1 -->
<g id="node1" class="node">
<title>Node1</title>
<g id="a_node1"><a xlink:title="Compute all possible approximate roots of any given polynomial using Durand Kerner algorithm">
<polygon fill="#bfbfbf" stroke="black" points="232,-56.5 232,-86.5 370,-86.5 370,-56.5 232,-56.5"/>
<text text-anchor="start" x="240" y="-74.5" font-family="Helvetica,sans-Serif" font-size="10.00">numerical_methods/durand</text>
<text text-anchor="middle" x="301" y="-63.5" font-family="Helvetica,sans-Serif" font-size="10.00">_kerner_roots.cpp</text>
</a>
</g>
</g>
<!-- Node2 -->
<g id="node2" class="node">
<title>Node2</title>
<g id="a_node2"><a xlink:title=" ">
<polygon fill="white" stroke="#bfbfbf" points="0,-0.5 0,-19.5 58,-19.5 58,-0.5 0,-0.5"/>
<text text-anchor="middle" x="29" y="-7.5" font-family="Helvetica,sans-Serif" font-size="10.00">algorithm</text>
</a>
</g>
</g>
<!-- Node1&#45;&gt;Node2 -->
<g id="edge1" class="edge">
<title>Node1&#45;&gt;Node2</title>
<path fill="none" stroke="midnightblue" d="M234.35,-56.49C189.87,-47.05 129.81,-34.14 67.97,-20.19"/>
<polygon fill="midnightblue" stroke="midnightblue" points="68.56,-16.73 58.03,-17.94 67.01,-23.56 68.56,-16.73"/>
</g>
<!-- Node3 -->
<g id="node3" class="node">
<title>Node3</title>
<g id="a_node3"><a xlink:title=" ">
<polygon fill="white" stroke="#bfbfbf" points="76.5,-0.5 76.5,-19.5 125.5,-19.5 125.5,-0.5 76.5,-0.5"/>
<text text-anchor="middle" x="101" y="-7.5" font-family="Helvetica,sans-Serif" font-size="10.00">cassert</text>
</a>
</g>
</g>
<!-- Node1&#45;&gt;Node3 -->
<g id="edge2" class="edge">
<title>Node1&#45;&gt;Node3</title>
<path fill="none" stroke="midnightblue" d="M253.86,-56.47C217.59,-45.69 168.31,-31.03 135.62,-21.3"/>
<polygon fill="midnightblue" stroke="midnightblue" points="136.21,-17.82 125.63,-18.33 134.22,-24.53 136.21,-17.82"/>
</g>
<!-- Node4 -->
<g id="node4" class="node">
<title>Node4</title>
<g id="a_node4"><a xlink:title=" ">
<polygon fill="white" stroke="#bfbfbf" points="144,-0.5 144,-19.5 188,-19.5 188,-0.5 144,-0.5"/>
<text text-anchor="middle" x="166" y="-7.5" font-family="Helvetica,sans-Serif" font-size="10.00">cmath</text>
</a>
</g>
</g>
<!-- Node1&#45;&gt;Node4 -->
<g id="edge3" class="edge">
<title>Node1&#45;&gt;Node4</title>
<path fill="none" stroke="midnightblue" d="M269.01,-56.4C246.56,-46.51 216.79,-33.38 195.02,-23.79"/>
<polygon fill="midnightblue" stroke="midnightblue" points="196.21,-20.49 185.64,-19.66 193.38,-26.89 196.21,-20.49"/>
</g>
<!-- Node5 -->
<g id="node5" class="node">
<title>Node5</title>
<g id="a_node5"><a xlink:title=" ">
<polygon fill="white" stroke="#bfbfbf" points="206,-0.5 206,-19.5 260,-19.5 260,-0.5 206,-0.5"/>
<text text-anchor="middle" x="233" y="-7.5" font-family="Helvetica,sans-Serif" font-size="10.00">complex</text>
</a>
</g>
</g>
<!-- Node1&#45;&gt;Node5 -->
<g id="edge4" class="edge">
<title>Node1&#45;&gt;Node5</title>
<path fill="none" stroke="midnightblue" d="M284.88,-56.4C274.6,-47.4 261.25,-35.72 250.67,-26.47"/>
<polygon fill="midnightblue" stroke="midnightblue" points="252.73,-23.61 242.89,-19.66 248.12,-28.88 252.73,-23.61"/>
</g>
<!-- Node6 -->
<g id="node6" class="node">
<title>Node6</title>
<g id="a_node6"><a xlink:title=" ">
<polygon fill="white" stroke="#bfbfbf" points="278.5,-0.5 278.5,-19.5 323.5,-19.5 323.5,-0.5 278.5,-0.5"/>
<text text-anchor="middle" x="301" y="-7.5" font-family="Helvetica,sans-Serif" font-size="10.00">cstdlib</text>
</a>
</g>
</g>
<!-- Node1&#45;&gt;Node6 -->
<g id="edge5" class="edge">
<title>Node1&#45;&gt;Node6</title>
<path fill="none" stroke="midnightblue" d="M301,-56.4C301,-48.47 301,-38.46 301,-29.86"/>
<polygon fill="midnightblue" stroke="midnightblue" points="304.5,-29.66 301,-19.66 297.5,-29.66 304.5,-29.66"/>
</g>
<!-- Node7 -->
<g id="node7" class="node">
<title>Node7</title>
<g id="a_node7"><a xlink:title=" ">
<polygon fill="white" stroke="#bfbfbf" points="342,-0.5 342,-19.5 382,-19.5 382,-0.5 342,-0.5"/>
<text text-anchor="middle" x="362" y="-7.5" font-family="Helvetica,sans-Serif" font-size="10.00">ctime</text>
</a>
</g>
</g>
<!-- Node1&#45;&gt;Node7 -->
<g id="edge6" class="edge">
<title>Node1&#45;&gt;Node7</title>
<path fill="none" stroke="midnightblue" d="M315.46,-56.4C324.59,-47.49 336.42,-35.95 345.86,-26.74"/>
<polygon fill="midnightblue" stroke="midnightblue" points="348.41,-29.15 353.12,-19.66 343.52,-24.13 348.41,-29.15"/>
</g>
<!-- Node8 -->
<g id="node8" class="node">
<title>Node8</title>
<g id="a_node8"><a xlink:title=" ">
<polygon fill="white" stroke="#bfbfbf" points="400,-0.5 400,-19.5 450,-19.5 450,-0.5 400,-0.5"/>
<text text-anchor="middle" x="425" y="-7.5" font-family="Helvetica,sans-Serif" font-size="10.00">fstream</text>
</a>
</g>
</g>
<!-- Node1&#45;&gt;Node8 -->
<g id="edge7" class="edge">
<title>Node1&#45;&gt;Node8</title>
<path fill="none" stroke="midnightblue" d="M330.39,-56.4C350.82,-46.59 377.86,-33.62 397.8,-24.05"/>
<polygon fill="midnightblue" stroke="midnightblue" points="399.46,-27.14 406.96,-19.66 396.43,-20.83 399.46,-27.14"/>
</g>
<!-- Node9 -->
<g id="node9" class="node">
<title>Node9</title>
<g id="a_node9"><a xlink:title=" ">
<polygon fill="white" stroke="#bfbfbf" points="468.5,-0.5 468.5,-19.5 523.5,-19.5 523.5,-0.5 468.5,-0.5"/>
<text text-anchor="middle" x="496" y="-7.5" font-family="Helvetica,sans-Serif" font-size="10.00">iostream</text>
</a>
</g>
</g>
<!-- Node1&#45;&gt;Node9 -->
<g id="edge8" class="edge">
<title>Node1&#45;&gt;Node9</title>
<path fill="none" stroke="midnightblue" d="M347.21,-56.4C381.26,-46.01 426.97,-32.06 458.7,-22.38"/>
<polygon fill="midnightblue" stroke="midnightblue" points="459.93,-25.66 468.48,-19.4 457.89,-18.97 459.93,-25.66"/>
</g>
<!-- Node10 -->
<g id="node10" class="node">
<title>Node10</title>
<g id="a_node10"><a xlink:title=" ">
<polygon fill="white" stroke="#bfbfbf" points="542,-0.5 542,-19.5 594,-19.5 594,-0.5 542,-0.5"/>
<text text-anchor="middle" x="568" y="-7.5" font-family="Helvetica,sans-Serif" font-size="10.00">valarray</text>
</a>
</g>
</g>
<!-- Node1&#45;&gt;Node10 -->
<g id="edge9" class="edge">
<title>Node1&#45;&gt;Node10</title>
<path fill="none" stroke="midnightblue" d="M368.66,-56.47C412.57,-47.2 471.27,-34.51 531.57,-20.28"/>
<polygon fill="midnightblue" stroke="midnightblue" points="532.73,-23.6 541.65,-17.89 531.12,-16.79 532.73,-23.6"/>
</g>
</g>
</svg>
