<?xml version="1.0" encoding="UTF-8" standalone="no"?>
<!DOCTYPE svg PUBLIC "-//W3C//DTD SVG 1.1//EN"
 "http://www.w3.org/Graphics/SVG/1.1/DTD/svg11.dtd">
<!-- Generated by graphviz version 13.0.1 (20250615.1724)
 -->
<!-- Title: sorting/quick_sort_iterative.cpp Pages: 1 -->
<svg width="321pt" height="94pt"
 viewBox="0.00 0.00 321.00 94.00" xmlns="http://www.w3.org/2000/svg" xmlns:xlink="http://www.w3.org/1999/xlink">
<g id="graph0" class="graph" transform="scale(1 1) rotate(0) translate(4 89.75)">
<title>sorting/quick_sort_iterative.cpp</title>
<!-- Node1 -->
<g id="Node000001" class="node">
<title>Node1</title>
<g id="a_Node000001"><a xlink:title="Quick Sort without recursion. This method uses the stack instead. Both recursive and iterative implem...">
<polygon fill="#999999" stroke="#666666" points="199.38,-85.75 106.12,-85.75 106.12,-55.25 199.38,-55.25 199.38,-85.75"/>
<text xml:space="preserve" text-anchor="start" x="114.12" y="-72.25" font-family="Helvetica,sans-Serif" font-size="10.00">sorting/quick_sort</text>
<text xml:space="preserve" text-anchor="middle" x="152.75" y="-61" font-family="Helvetica,sans-Serif" font-size="10.00">_iterative.cpp</text>
</a>
</g>
</g>
<!-- Node2 -->
<g id="Node000002" class="node">
<title>Node2</title>
<g id="a_Node000002"><a xlink:title=" ">
<polygon fill="#e0e0e0" stroke="#999999" points="53.5,-19.25 0,-19.25 0,0 53.5,0 53.5,-19.25"/>
<text xml:space="preserve" text-anchor="middle" x="26.75" y="-5.75" font-family="Helvetica,sans-Serif" font-size="10.00">iostream</text>
</a>
</g>
</g>
<!-- Node1&#45;&gt;Node2 -->
<g id="edge1_Node000001_Node000002" class="edge">
<title>Node1&#45;&gt;Node2</title>
<g id="a_edge1_Node000001_Node000002"><a xlink:title=" ">
<path fill="none" stroke="#63b8ff" d="M121.28,-54.8C101.45,-45.53 75.99,-33.63 56.5,-24.52"/>
<polygon fill="#63b8ff" stroke="#63b8ff" points="57.99,-21.36 47.44,-20.29 55.02,-27.7 57.99,-21.36"/>
</a>
</g>
</g>
<!-- Node3 -->
<g id="Node000003" class="node">
<title>Node3</title>
<g id="a_Node000003"><a xlink:title=" ">
<polygon fill="#e0e0e0" stroke="#999999" points="114.25,-19.25 71.25,-19.25 71.25,0 114.25,0 114.25,-19.25"/>
<text xml:space="preserve" text-anchor="middle" x="92.75" y="-5.75" font-family="Helvetica,sans-Serif" font-size="10.00">vector</text>
</a>
</g>
</g>
<!-- Node1&#45;&gt;Node3 -->
<g id="edge2_Node000001_Node000003" class="edge">
<title>Node1&#45;&gt;Node3</title>
<g id="a_edge2_Node000001_Node000003"><a xlink:title=" ">
<path fill="none" stroke="#63b8ff" d="M137.92,-54.95C129.49,-46.67 118.88,-36.27 110.07,-27.62"/>
<polygon fill="#63b8ff" stroke="#63b8ff" points="112.67,-25.27 103.08,-20.76 107.77,-30.26 112.67,-25.27"/>
</a>
</g>
</g>
<!-- Node4 -->
<g id="Node000004" class="node">
<title>Node4</title>
<g id="a_Node000004"><a xlink:title=" ">
<polygon fill="#e0e0e0" stroke="#999999" points="172.75,-19.25 132.75,-19.25 132.75,0 172.75,0 172.75,-19.25"/>
<text xml:space="preserve" text-anchor="middle" x="152.75" y="-5.75" font-family="Helvetica,sans-Serif" font-size="10.00">stack</text>
</a>
</g>
</g>
<!-- Node1&#45;&gt;Node4 -->
<g id="edge3_Node000001_Node000004" class="edge">
<title>Node1&#45;&gt;Node4</title>
<g id="a_edge3_Node000001_Node000004"><a xlink:title=" ">
<path fill="none" stroke="#63b8ff" d="M152.75,-54.95C152.75,-47.71 152.75,-38.84 152.75,-30.94"/>
<polygon fill="#63b8ff" stroke="#63b8ff" points="156.25,-31.21 152.75,-21.21 149.25,-31.21 156.25,-31.21"/>
</a>
</g>
</g>
<!-- Node5 -->
<g id="Node000005" class="node">
<title>Node5</title>
<g id="a_Node000005"><a xlink:title=" ">
<polygon fill="#e0e0e0" stroke="#999999" points="246.62,-19.25 190.88,-19.25 190.88,0 246.62,0 246.62,-19.25"/>
<text xml:space="preserve" text-anchor="middle" x="218.75" y="-5.75" font-family="Helvetica,sans-Serif" font-size="10.00">algorithm</text>
</a>
</g>
</g>
<!-- Node1&#45;&gt;Node5 -->
<g id="edge4_Node000001_Node000005" class="edge">
<title>Node1&#45;&gt;Node5</title>
<g id="a_edge4_Node000001_Node000005"><a xlink:title=" ">
<path fill="none" stroke="#63b8ff" d="M169.06,-54.95C178.44,-46.59 190.25,-36.05 200,-27.35"/>
<polygon fill="#63b8ff" stroke="#63b8ff" points="202.31,-29.98 207.45,-20.71 197.65,-24.75 202.31,-29.98"/>
</a>
</g>
</g>
<!-- Node6 -->
<g id="Node000006" class="node">
<title>Node6</title>
<g id="a_Node000006"><a xlink:title=" ">
<polygon fill="#e0e0e0" stroke="#999999" points="312.88,-19.25 264.62,-19.25 264.62,0 312.88,0 312.88,-19.25"/>
<text xml:space="preserve" text-anchor="middle" x="288.75" y="-5.75" font-family="Helvetica,sans-Serif" font-size="10.00">cassert</text>
</a>
</g>
</g>
<!-- Node1&#45;&gt;Node6 -->
<g id="edge5_Node000001_Node000006" class="edge">
<title>Node1&#45;&gt;Node6</title>
<g id="a_edge5_Node000001_Node000006"><a xlink:title=" ">
<path fill="none" stroke="#63b8ff" d="M186.72,-54.8C208.42,-45.4 236.37,-33.3 257.52,-24.14"/>
<polygon fill="#63b8ff" stroke="#63b8ff" points="258.72,-27.44 266.5,-20.26 255.94,-21.02 258.72,-27.44"/>
</a>
</g>
</g>
</g>
</svg>
