<?xml version="1.0" encoding="UTF-8" standalone="no"?>
<!DOCTYPE svg PUBLIC "-//W3C//DTD SVG 1.1//EN"
 "http://www.w3.org/Graphics/SVG/1.1/DTD/svg11.dtd">
<!-- Generated by graphviz version 8.0.2 (20230410.1723)
 -->
<!-- Title: dynamic_programming::maxCircularSum Pages: 1 -->
<svg width="246pt" height="101pt"
 viewBox="0.00 0.00 246.00 101.00" xmlns="http://www.w3.org/2000/svg" xmlns:xlink="http://www.w3.org/1999/xlink">
<g id="graph0" class="graph" transform="scale(1 1) rotate(0) translate(4 97)">
<title>dynamic_programming::maxCircularSum</title>
<!-- Node1 -->
<g id="node1" class="node">
<title>Node1</title>
<g id="a_node1"><a xlink:title="returns the maximum contiguous circular sum of an array">
<polygon fill="#999999" stroke="#666666" points="115,-61.5 0,-61.5 0,-31.5 115,-31.5 115,-61.5"/>
<text text-anchor="start" x="8" y="-49.5" font-family="Helvetica,sans-Serif" font-size="10.00">dynamic_programming</text>
<text text-anchor="middle" x="57.5" y="-38.5" font-family="Helvetica,sans-Serif" font-size="10.00">::maxCircularSum</text>
</a>
</g>
</g>
<!-- Node2 -->
<g id="node2" class="node">
<title>Node2</title>
<g id="a_node2"><a target="_blank" xlink:href="http://en.cppreference.com/w/cpp/algorithm/max.html#" xlink:title=" ">
<polygon fill="white" stroke="#666666" points="222,-93 167,-93 167,-74 222,-74 222,-93"/>
<text text-anchor="middle" x="194.5" y="-81" font-family="Helvetica,sans-Serif" font-size="10.00">std::max</text>
</a>
</g>
</g>
<!-- Node1&#45;&gt;Node2 -->
<g id="edge1" class="edge">
<title>Node1&#45;&gt;Node2</title>
<path fill="none" stroke="#63b8ff" d="M114.97,-61.98C128.97,-65.81 143.62,-69.83 156.42,-73.34"/>
<polygon fill="#63b8ff" stroke="#63b8ff" points="155.12,-76.88 165.69,-76.15 156.97,-70.13 155.12,-76.88"/>
</g>
<!-- Node3 -->
<g id="node3" class="node">
<title>Node3</title>
<g id="a_node3"><a target="_blank" xlink:href="http://en.cppreference.com/w/cpp/algorithm/min.html#" xlink:title=" ">
<polygon fill="white" stroke="#666666" points="220.5,-56 168.5,-56 168.5,-37 220.5,-37 220.5,-56"/>
<text text-anchor="middle" x="194.5" y="-44" font-family="Helvetica,sans-Serif" font-size="10.00">std::min</text>
</a>
</g>
</g>
<!-- Node1&#45;&gt;Node3 -->
<g id="edge2" class="edge">
<title>Node1&#45;&gt;Node3</title>
<path fill="none" stroke="#63b8ff" d="M115.36,-46.5C129.63,-46.5 144.55,-46.5 157.48,-46.5"/>
<polygon fill="#63b8ff" stroke="#63b8ff" points="157.27,-50 167.27,-46.5 157.27,-43 157.27,-50"/>
</g>
<!-- Node4 -->
<g id="node4" class="node">
<title>Node4</title>
<g id="a_node4"><a target="_blank" xlink:href="http://en.cppreference.com/w/cpp/container/vector/size.html#" xlink:title=" ">
<polygon fill="white" stroke="#666666" points="238,-19 151,-19 151,0 238,0 238,-19"/>
<text text-anchor="middle" x="194.5" y="-7" font-family="Helvetica,sans-Serif" font-size="10.00">std::vector::size</text>
</a>
</g>
</g>
<!-- Node1&#45;&gt;Node4 -->
<g id="edge3" class="edge">
<title>Node1&#45;&gt;Node4</title>
<path fill="none" stroke="#63b8ff" d="M114.97,-31.02C125.59,-28.11 136.58,-25.1 146.86,-22.28"/>
<polygon fill="#63b8ff" stroke="#63b8ff" points="147.54,-25.45 156.26,-19.43 145.69,-18.7 147.54,-25.45"/>
</g>
</g>
</svg>
