<?xml version="1.0" encoding="UTF-8" standalone="no"?>
<!DOCTYPE svg PUBLIC "-//W3C//DTD SVG 1.1//EN"
 "http://www.w3.org/Graphics/SVG/1.1/DTD/svg11.dtd">
<!-- Generated by graphviz version 7.0.6 (20230106.0513)
 -->
<!-- Title: tests Pages: 1 -->
<svg width="204pt" height="64pt"
 viewBox="0.00 0.00 204.00 64.00" xmlns="http://www.w3.org/2000/svg" xmlns:xlink="http://www.w3.org/1999/xlink">
<g id="graph0" class="graph" transform="scale(1 1) rotate(0) translate(4 60)">
<title>tests</title>
<!-- Node1 -->
<g id="node1" class="node">
<title>Node1</title>
<g id="a_node1"><a xlink:title=" ">
<polygon fill="#999999" stroke="#666666" points="38,-37 0,-37 0,-18 38,-18 38,-37"/>
<text text-anchor="middle" x="19" y="-25" font-family="Helvetica,sans-Serif" font-size="10.00">tests</text>
</a>
</g>
</g>
<!-- Node2 -->
<g id="node2" class="node">
<title>Node2</title>
<g id="a_node2"><a target="_blank" xlink:href="http://en.cppreference.com/w/cpp/io/manip/endl.html#" xlink:title=" ">
<polygon fill="white" stroke="#666666" points="128,-56 74,-56 74,-37 128,-37 128,-56"/>
<text text-anchor="middle" x="101" y="-44" font-family="Helvetica,sans-Serif" font-size="10.00">std::endl</text>
</a>
</g>
</g>
<!-- Node1&#45;&gt;Node2 -->
<g id="edge1" class="edge">
<title>Node1&#45;&gt;Node2</title>
<path fill="none" stroke="#63b8ff" d="M38.15,-31.81C45.46,-33.55 54.17,-35.62 62.72,-37.65"/>
<polygon fill="#63b8ff" stroke="#63b8ff" points="61.71,-41 72.25,-39.91 63.33,-34.19 61.71,-41"/>
</g>
<!-- Node3 -->
<g id="node3" class="node">
<title>Node3</title>
<g id="a_node3"><a xlink:href="../../d4/d21/least__common__multiple_8cpp.html#aa8d0e241db517813725e721a152e3a25" target="_top" xlink:title=" ">
<polygon fill="white" stroke="#666666" points="117,-19 85,-19 85,0 117,0 117,-19"/>
<text text-anchor="middle" x="101" y="-7" font-family="Helvetica,sans-Serif" font-size="10.00">lcm</text>
</a>
</g>
</g>
<!-- Node1&#45;&gt;Node3 -->
<g id="edge2" class="edge">
<title>Node1&#45;&gt;Node3</title>
<path fill="none" stroke="#63b8ff" d="M38.15,-23.42C48.66,-21.05 62.08,-18.03 73.73,-15.41"/>
<polygon fill="#63b8ff" stroke="#63b8ff" points="74.15,-18.9 83.13,-13.29 72.61,-12.08 74.15,-18.9"/>
</g>
<!-- Node4 -->
<g id="node4" class="node">
<title>Node4</title>
<g id="a_node4"><a xlink:href="../../d4/d21/least__common__multiple_8cpp.html#a8ba1fc66e4134ab25b2602b323150563" target="_top" xlink:title=" ">
<polygon fill="white" stroke="#666666" points="196,-19 164,-19 164,0 196,0 196,-19"/>
<text text-anchor="middle" x="180" y="-7" font-family="Helvetica,sans-Serif" font-size="10.00">gcd</text>
</a>
</g>
</g>
<!-- Node3&#45;&gt;Node4 -->
<g id="edge3" class="edge">
<title>Node3&#45;&gt;Node4</title>
<path fill="none" stroke="#63b8ff" d="M117.21,-9.5C127.17,-9.5 140.45,-9.5 152.14,-9.5"/>
<polygon fill="#63b8ff" stroke="#63b8ff" points="152.04,-13 162.04,-9.5 152.04,-6 152.04,-13"/>
</g>
<!-- Node4&#45;&gt;Node4 -->
<g id="edge4" class="edge">
<title>Node4&#45;&gt;Node4</title>
<path fill="none" stroke="#63b8ff" d="M167.63,-19.37C161.99,-27.94 166.11,-37 180,-37 187.38,-37 192,-34.44 193.86,-30.76"/>
<polygon fill="#63b8ff" stroke="#63b8ff" points="197.34,-30.33 192.57,-20.87 190.4,-31.24 197.34,-30.33"/>
</g>
</g>
</svg>
