<?xml version="1.0" encoding="UTF-8" standalone="no"?>
<!DOCTYPE svg PUBLIC "-//W3C//DTD SVG 1.1//EN"
 "http://www.w3.org/Graphics/SVG/1.1/DTD/svg11.dtd">
<!-- Generated by graphviz version 5.0.1 (20220820.1526)
 -->
<!-- Title: hashing/linear_probing_hash_table.cpp Pages: 1 -->
<svg width="125pt" height="93pt"
 viewBox="0.00 0.00 124.50 93.00" xmlns="http://www.w3.org/2000/svg" xmlns:xlink="http://www.w3.org/1999/xlink">
<g id="graph0" class="graph" transform="scale(1 1) rotate(0) translate(4 89)">
<title>hashing/linear_probing_hash_table.cpp</title>
<!-- Node1 -->
<g id="node1" class="node">
<title>Node1</title>
<g id="a_node1"><a xlink:title="Storage mechanism using linear probing hash keys.">
<polygon fill="#999999" stroke="#666666" points="116.5,-85 3.5,-85 3.5,-55 116.5,-55 116.5,-85"/>
<text text-anchor="start" x="11.5" y="-73" font-family="Helvetica,sans-Serif" font-size="10.00">hashing/linear_probing</text>
<text text-anchor="middle" x="60" y="-62" font-family="Helvetica,sans-Serif" font-size="10.00">_hash_table.cpp</text>
</a>
</g>
</g>
<!-- Node2 -->
<g id="node2" class="node">
<title>Node2</title>
<g id="a_node2"><a xlink:title=" ">
<polygon fill="#e0e0e0" stroke="#999999" points="54,-19 0,-19 0,0 54,0 54,-19"/>
<text text-anchor="middle" x="27" y="-7" font-family="Helvetica,sans-Serif" font-size="10.00">iostream</text>
</a>
</g>
</g>
<!-- Node1&#45;&gt;Node2 -->
<g id="edge1" class="edge">
<title>Node1&#45;&gt;Node2</title>
<path fill="none" stroke="#63b8ff" d="M52.01,-54.84C47.47,-46.78 41.73,-36.62 36.9,-28.06"/>
<polygon fill="#63b8ff" stroke="#63b8ff" points="39.91,-26.26 31.94,-19.27 33.81,-29.7 39.91,-26.26"/>
</g>
<!-- Node3 -->
<g id="node3" class="node">
<title>Node3</title>
<g id="a_node3"><a xlink:title=" ">
<polygon fill="#e0e0e0" stroke="#999999" points="116,-19 72,-19 72,0 116,0 116,-19"/>
<text text-anchor="middle" x="94" y="-7" font-family="Helvetica,sans-Serif" font-size="10.00">vector</text>
</a>
</g>
</g>
<!-- Node1&#45;&gt;Node3 -->
<g id="edge2" class="edge">
<title>Node1&#45;&gt;Node3</title>
<path fill="none" stroke="#63b8ff" d="M68.23,-54.84C72.91,-46.78 78.82,-36.62 83.8,-28.06"/>
<polygon fill="#63b8ff" stroke="#63b8ff" points="86.91,-29.67 88.91,-19.27 80.85,-26.15 86.91,-29.67"/>
</g>
</g>
</svg>
