<?xml version="1.0" encoding="UTF-8" standalone="no"?>
<!DOCTYPE svg PUBLIC "-//W3C//DTD SVG 1.1//EN"
 "http://www.w3.org/Graphics/SVG/1.1/DTD/svg11.dtd">
<!-- Generated by graphviz version 8.1.0 (20230707.0739)
 -->
<!-- Title: main Pages: 1 -->
<svg width="393pt" height="236pt"
 viewBox="0.00 0.00 393.00 235.88" xmlns="http://www.w3.org/2000/svg" xmlns:xlink="http://www.w3.org/1999/xlink">
<g id="graph0" class="graph" transform="scale(1 1) rotate(0) translate(4 231.88)">
<title>main</title>
<!-- Node1 -->
<g id="Node000001" class="node">
<title>Node1</title>
<g id="a_Node000001"><a xlink:title="Main function.">
<polygon fill="#999999" stroke="#666666" points="37,-120.25 0,-120.25 0,-101 37,-101 37,-120.25"/>
<text text-anchor="middle" x="18.5" y="-106.75" font-family="Helvetica,sans-Serif" font-size="10.00">main</text>
</a>
</g>
</g>
<!-- Node2 -->
<g id="Node000002" class="node">
<title>Node2</title>
<g id="a_Node000002"><a xlink:href="../../d7/d1e/graph_2dijkstra_8cpp.html#a88ec9ad42717780d6caaff9d3d6977f9" target="_top" xlink:title=" ">
<polygon fill="white" stroke="#666666" points="110.75,-120.25 73,-120.25 73,-101 110.75,-101 110.75,-120.25"/>
<text text-anchor="middle" x="91.88" y="-106.75" font-family="Helvetica,sans-Serif" font-size="10.00">tests</text>
</a>
</g>
</g>
<!-- Node1&#45;&gt;Node2 -->
<g id="edge1_Node000001_Node000002" class="edge">
<title>Node1&#45;&gt;Node2</title>
<g id="a_edge1_Node000001_Node000002"><a xlink:title=" ">
<path fill="none" stroke="#63b8ff" d="M37.14,-110.62C44.64,-110.62 53.57,-110.62 61.98,-110.62"/>
<polygon fill="#63b8ff" stroke="#63b8ff" points="61.94,-114.13 71.94,-110.62 61.94,-107.13 61.94,-114.13"/>
</a>
</g>
</g>
<!-- Node3 -->
<g id="Node000003" class="node">
<title>Node3</title>
<g id="a_Node000003"><a xlink:href="../../df/dce/namespacegraph.html#a9125ceb66bfbec3093bba64c2c1e99e2" target="_top" xlink:title="Function that add edge between two nodes or vertices of graph.">
<polygon fill="white" stroke="#666666" points="231,-157.25 146.75,-157.25 146.75,-138 231,-138 231,-157.25"/>
<text text-anchor="middle" x="188.88" y="-143.75" font-family="Helvetica,sans-Serif" font-size="10.00">graph::addEdge</text>
</a>
</g>
</g>
<!-- Node2&#45;&gt;Node3 -->
<g id="edge2_Node000002_Node000003" class="edge">
<title>Node2&#45;&gt;Node3</title>
<g id="a_edge2_Node000002_Node000003"><a xlink:title=" ">
<path fill="none" stroke="#63b8ff" d="M111.19,-117.76C122.71,-122.24 137.96,-128.18 151.82,-133.58"/>
<polygon fill="#63b8ff" stroke="#63b8ff" points="150.48,-137.21 161.07,-137.58 153.02,-130.69 150.48,-137.21"/>
</a>
</g>
</g>
<!-- Node4 -->
<g id="Node000004" class="node">
<title>Node4</title>
<g id="a_Node000004"><a xlink:href="../../df/dce/namespacegraph.html#adc68cbc8ba09eb1142265935c0d45b84" target="_top" xlink:title="Function runs the dijkstra algorithm for some source vertex and target vertex in the graph and return...">
<polygon fill="white" stroke="#666666" points="227.62,-120.25 150.12,-120.25 150.12,-101 227.62,-101 227.62,-120.25"/>
<text text-anchor="middle" x="188.88" y="-106.75" font-family="Helvetica,sans-Serif" font-size="10.00">graph::dijkstra</text>
</a>
</g>
</g>
<!-- Node2&#45;&gt;Node4 -->
<g id="edge3_Node000002_Node000004" class="edge">
<title>Node2&#45;&gt;Node4</title>
<g id="a_edge3_Node000002_Node000004"><a xlink:title=" ">
<path fill="none" stroke="#63b8ff" d="M111.19,-110.62C119.27,-110.62 129.19,-110.62 139.17,-110.62"/>
<polygon fill="#63b8ff" stroke="#63b8ff" points="138.95,-114.13 148.95,-110.62 138.95,-107.13 138.95,-114.13"/>
</a>
</g>
</g>
<!-- Node11 -->
<g id="Node000011" class="node">
<title>Node11</title>
<g id="a_Node000011"><a target="_blank" xlink:href="http://en.cppreference.com/w/cpp/io/manip/endl.html#" xlink:title=" ">
<polygon fill="white" stroke="#666666" points="215.62,-83.25 162.12,-83.25 162.12,-64 215.62,-64 215.62,-83.25"/>
<text text-anchor="middle" x="188.88" y="-69.75" font-family="Helvetica,sans-Serif" font-size="10.00">std::endl</text>
</a>
</g>
</g>
<!-- Node2&#45;&gt;Node11 -->
<g id="edge10_Node000002_Node000011" class="edge">
<title>Node2&#45;&gt;Node11</title>
<g id="a_edge10_Node000002_Node000011"><a xlink:title=" ">
<path fill="none" stroke="#63b8ff" d="M111.19,-103.49C122.71,-99.01 137.96,-93.07 151.82,-87.67"/>
<polygon fill="#63b8ff" stroke="#63b8ff" points="153.02,-90.56 161.07,-83.67 150.48,-84.04 153.02,-90.56"/>
</a>
</g>
</g>
<!-- Node5 -->
<g id="Node000005" class="node">
<title>Node5</title>
<g id="a_Node000005"><a target="_blank" xlink:href="http://en.cppreference.com/w/cpp/container/priority_queue/empty.html#" xlink:title=" ">
<polygon fill="white" stroke="#666666" points="374.12,-227.88 277.88,-227.88 277.88,-197.38 374.12,-197.38 374.12,-227.88"/>
<text text-anchor="start" x="285.88" y="-214.38" font-family="Helvetica,sans-Serif" font-size="10.00">std::priority_queue</text>
<text text-anchor="middle" x="326" y="-203.12" font-family="Helvetica,sans-Serif" font-size="10.00">::empty</text>
</a>
</g>
</g>
<!-- Node4&#45;&gt;Node5 -->
<g id="edge4_Node000004_Node000005" class="edge">
<title>Node4&#45;&gt;Node5</title>
<g id="a_edge4_Node000004_Node000005"><a xlink:title=" ">
<path fill="none" stroke="#63b8ff" d="M219.11,-120.69C223.36,-122.91 227.49,-125.54 231,-128.62 254.35,-149.17 243.44,-168.32 267,-188.62 268.02,-189.51 269.08,-190.36 270.17,-191.18"/>
<polygon fill="#63b8ff" stroke="#63b8ff" points="267.73,-194.42 278.02,-196.95 271.56,-188.56 267.73,-194.42"/>
</a>
</g>
</g>
<!-- Node6 -->
<g id="Node000006" class="node">
<title>Node6</title>
<g id="a_Node000006"><a target="_blank" xlink:href="http://en.cppreference.com/w/cpp/utility/pair/make_pair.html#" xlink:title=" ">
<polygon fill="white" stroke="#666666" points="366.25,-179.25 285.75,-179.25 285.75,-160 366.25,-160 366.25,-179.25"/>
<text text-anchor="middle" x="326" y="-165.75" font-family="Helvetica,sans-Serif" font-size="10.00">std::make_pair</text>
</a>
</g>
</g>
<!-- Node4&#45;&gt;Node6 -->
<g id="edge5_Node000004_Node000006" class="edge">
<title>Node4&#45;&gt;Node6</title>
<g id="a_edge5_Node000004_Node000006"><a xlink:title=" ">
<path fill="none" stroke="#63b8ff" d="M214.53,-120.67C220.03,-123.11 225.78,-125.83 231,-128.62 247.75,-137.57 249.78,-143.63 267,-151.62 270.2,-153.11 273.56,-154.52 276.98,-155.84"/>
<polygon fill="#63b8ff" stroke="#63b8ff" points="275.72,-159.47 286.32,-159.54 278.08,-152.88 275.72,-159.47"/>
</a>
</g>
</g>
<!-- Node7 -->
<g id="Node000007" class="node">
<title>Node7</title>
<g id="a_Node000007"><a target="_blank" xlink:href="http://en.cppreference.com/w/cpp/container/priority_queue/pop.html#" xlink:title=" ">
<polygon fill="white" stroke="#666666" points="385,-142.25 267,-142.25 267,-123 385,-123 385,-142.25"/>
<text text-anchor="middle" x="326" y="-128.75" font-family="Helvetica,sans-Serif" font-size="10.00">std::priority_queue::pop</text>
</a>
</g>
</g>
<!-- Node4&#45;&gt;Node7 -->
<g id="edge6_Node000004_Node000007" class="edge">
<title>Node4&#45;&gt;Node7</title>
<g id="a_edge6_Node000004_Node000007"><a xlink:title=" ">
<path fill="none" stroke="#63b8ff" d="M227.87,-116.81C236.61,-118.23 246.16,-119.79 255.76,-121.35"/>
<polygon fill="#63b8ff" stroke="#63b8ff" points="255.15,-124.96 265.58,-123.11 256.27,-118.05 255.15,-124.96"/>
</a>
</g>
</g>
<!-- Node8 -->
<g id="Node000008" class="node">
<title>Node8</title>
<g id="a_Node000008"><a target="_blank" xlink:href="http://en.cppreference.com/w/cpp/container/priority_queue/push.html#" xlink:title=" ">
<polygon fill="white" stroke="#666666" points="374.12,-104.88 277.88,-104.88 277.88,-74.38 374.12,-74.38 374.12,-104.88"/>
<text text-anchor="start" x="285.88" y="-91.38" font-family="Helvetica,sans-Serif" font-size="10.00">std::priority_queue</text>
<text text-anchor="middle" x="326" y="-80.12" font-family="Helvetica,sans-Serif" font-size="10.00">::push</text>
</a>
</g>
</g>
<!-- Node4&#45;&gt;Node8 -->
<g id="edge7_Node000004_Node000008" class="edge">
<title>Node4&#45;&gt;Node8</title>
<g id="a_edge7_Node000004_Node000008"><a xlink:title=" ">
<path fill="none" stroke="#63b8ff" d="M227.87,-104.72C240.07,-102.82 253.87,-100.68 267.15,-98.62"/>
<polygon fill="#63b8ff" stroke="#63b8ff" points="267.31,-101.98 276.66,-96.98 266.24,-95.06 267.31,-101.98"/>
</a>
</g>
</g>
<!-- Node9 -->
<g id="Node000009" class="node">
<title>Node9</title>
<g id="a_Node000009"><a target="_blank" xlink:href="http://en.cppreference.com/w/cpp/container/vector/size.html#" xlink:title=" ">
<polygon fill="white" stroke="#666666" points="369.25,-56.25 282.75,-56.25 282.75,-37 369.25,-37 369.25,-56.25"/>
<text text-anchor="middle" x="326" y="-42.75" font-family="Helvetica,sans-Serif" font-size="10.00">std::vector::size</text>
</a>
</g>
</g>
<!-- Node4&#45;&gt;Node9 -->
<g id="edge8_Node000004_Node000009" class="edge">
<title>Node4&#45;&gt;Node9</title>
<g id="a_edge8_Node000004_Node000009"><a xlink:title=" ">
<path fill="none" stroke="#63b8ff" d="M215.12,-100.67C220.48,-98.26 226.02,-95.53 231,-92.62 248.28,-82.55 249.26,-74.86 267,-65.62 270.5,-63.81 274.2,-62.11 277.98,-60.55"/>
<polygon fill="#63b8ff" stroke="#63b8ff" points="278.95,-63.54 287.06,-56.72 276.47,-57 278.95,-63.54"/>
</a>
</g>
</g>
<!-- Node10 -->
<g id="Node000010" class="node">
<title>Node10</title>
<g id="a_Node000010"><a target="_blank" xlink:href="http://en.cppreference.com/w/cpp/container/priority_queue/top.html#" xlink:title=" ">
<polygon fill="white" stroke="#666666" points="383.88,-19.25 268.12,-19.25 268.12,0 383.88,0 383.88,-19.25"/>
<text text-anchor="middle" x="326" y="-5.75" font-family="Helvetica,sans-Serif" font-size="10.00">std::priority_queue::top</text>
</a>
</g>
</g>
<!-- Node4&#45;&gt;Node10 -->
<g id="edge9_Node000004_Node000010" class="edge">
<title>Node4&#45;&gt;Node10</title>
<g id="a_edge9_Node000004_Node000010"><a xlink:title=" ">
<path fill="none" stroke="#63b8ff" d="M219.2,-100.67C223.45,-98.44 227.54,-95.77 231,-92.62 255.41,-70.39 241.38,-48.47 267,-27.62 268.23,-26.63 269.51,-25.68 270.84,-24.79"/>
<polygon fill="#63b8ff" stroke="#63b8ff" points="272.08,-27.55 279.13,-19.64 268.68,-21.43 272.08,-27.55"/>
</a>
</g>
</g>
</g>
</svg>
