<?xml version="1.0" encoding="UTF-8" standalone="no"?>
<!DOCTYPE svg PUBLIC "-//W3C//DTD SVG 1.1//EN"
 "http://www.w3.org/Graphics/SVG/1.1/DTD/svg11.dtd">
<!-- Generated by graphviz version 12.1.2 (20240928.0832)
 -->
<!-- Title: main Pages: 1 -->
<!--zoomable 187 -->

<svg id="main" version="1.1" xmlns="http://www.w3.org/2000/svg" xmlns:xlink="http://www.w3.org/1999/xlink" xml:space="preserve" onload="init(evt)">

<style type="text/css"><![CDATA[
.node, .edge {opacity: 0.7;}
.node.selected, .edge.selected {opacity: 1;}
.edge:hover path { stroke: red; }
.edge:hover polygon { stroke: red; fill: red; }
]]></style>

<defs>
  <circle id="rim" cx="0" cy="0" r="7"/>
  <circle id="rim2" cx="0" cy="0" r="3.5"/>
  <g id="zoomPlus">
    <use xlink:href="#rim" fill="#404040"><set attributeName="fill" to="#808080" begin="zoomplus.mouseover" end="zoomplus.mouseout"/></use>
    <path d="M-4,0h8M0,-4v8" fill="none" stroke="white" stroke-width="1.5" pointer-events="none"/>
  </g>
  <g id="zoomMin">
    <use xlink:href="#rim" fill="#404040"><set attributeName="fill" to="#808080" begin="zoomminus.mouseover" end="zoomminus.mouseout"/></use>
    <path d="M-4,0h8" fill="none" stroke="white" stroke-width="1.5" pointer-events="none"/>
  </g>
  <g id="arrowUp" transform="translate(30 24)">
    <use xlink:href="#rim"/>
    <path pointer-events="none" fill="none" stroke="white" stroke-width="1.5" d="M0,-3.0v7 M-2.5,-0.5L0,-3.0L2.5,-0.5"/>
  </g>
  <g id="arrowRight" transform="rotate(90) translate(36 -43)">
    <use xlink:href="#rim"/>
    <path pointer-events="none" fill="none" stroke="white" stroke-width="1.5" d="M0,-3.0v7 M-2.5,-0.5L0,-3.0L2.5,-0.5"/>
  </g>
  <g id="arrowDown" transform="rotate(180) translate(-30 -48)">
    <use xlink:href="#rim"/>
    <path pointer-events="none" fill="none" stroke="white" stroke-width="1.5" d="M0,-3.0v7 M-2.5,-0.5L0,-3.0L2.5,-0.5"/>
  </g>
  <g id="arrowLeft" transform="rotate(270) translate(-36 17)">
    <use xlink:href="#rim"/>
    <path pointer-events="none" fill="none" stroke="white" stroke-width="1.5" d="M0,-3.0v7 M-2.5,-0.5L0,-3.0L2.5,-0.5"/>
  </g>
  <g id="resetDef">
    <use xlink:href="#rim2" fill="#404040"><set attributeName="fill" to="#808080" begin="reset.mouseover" end="reset.mouseout"/></use>
  </g>
</defs>
<script type="application/ecmascript">
var viewWidth = 585;
var viewHeight = 187;
var sectionId = 'dynsection-1';
</script>
<script type="application/ecmascript" xlink:href="../../svg.min.js"/>
<svg id="graph" class="graph">
<g id="viewport">
<title>main</title>
<!-- Node1 -->
<g id="Node000001" class="node">
<title>Node1</title>
<g id="a_Node000001"><a xlink:title="main function">
<polygon fill="#999999" stroke="#666666" points="37,-74.25 0,-74.25 0,-55 37,-55 37,-74.25"/>
<text text-anchor="middle" x="18.5" y="-60.75" font-family="Helvetica,sans-Serif" font-size="10.00">main</text>
</a>
</g>
</g>
<!-- Node2 -->
<g id="Node000002" class="node">
<title>Node2</title>
<g id="a_Node000002"><a xlink:href="../../d9/d1f/binary__addition_8cpp.html#a483bb8ccf42aaf7375a83e91490eda1e" target="_top" xlink:title="run self test implementation.">
<polygon fill="white" stroke="#666666" points="110.75,-74.25 73,-74.25 73,-55 110.75,-55 110.75,-74.25"/>
<text text-anchor="middle" x="91.88" y="-60.75" font-family="Helvetica,sans-Serif" font-size="10.00">tests</text>
</a>
</g>
</g>
<!-- Node1&#45;&gt;Node2 -->
<g id="edge1_Node000001_Node000002" class="edge">
<title>Node1&#45;&gt;Node2</title>
<g id="a_edge1_Node000001_Node000002"><a xlink:title=" ">
<path fill="none" stroke="#63b8ff" d="M37.14,-64.62C44.55,-64.62 53.37,-64.62 61.69,-64.62"/>
<polygon fill="#63b8ff" stroke="#63b8ff" points="61.43,-68.13 71.43,-64.63 61.43,-61.13 61.43,-68.13"/>
</a>
</g>
</g>
<!-- Node3 -->
<g id="Node000003" class="node">
<title>Node3</title>
<g id="a_Node000003"><a xlink:href="../../de/df6/classgreedy__algorithms_1_1_binary_addition.html#a801fd1ec5cda76b0bb82cbf23ed4d527" target="_top" xlink:title="Adds two binary strings and returns the result as a binary string.">
<polygon fill="white" stroke="#666666" points="275.25,-79.88 146.75,-79.88 146.75,-49.38 275.25,-49.38 275.25,-79.88"/>
<text text-anchor="start" x="154.75" y="-66.38" font-family="Helvetica,sans-Serif" font-size="10.00">greedy_algorithms::</text>
<text text-anchor="middle" x="211" y="-55.12" font-family="Helvetica,sans-Serif" font-size="10.00">BinaryAddition::addBinary</text>
</a>
</g>
</g>
<!-- Node2&#45;&gt;Node3 -->
<g id="edge2_Node000002_Node000003" class="edge">
<title>Node2&#45;&gt;Node3</title>
<g id="a_edge2_Node000002_Node000003"><a xlink:title=" ">
<path fill="none" stroke="#63b8ff" d="M111.18,-64.62C118.01,-64.62 126.25,-64.62 135.04,-64.62"/>
<polygon fill="#63b8ff" stroke="#63b8ff" points="134.87,-68.13 144.87,-64.63 134.87,-61.13 134.87,-68.13"/>
</a>
</g>
</g>
<!-- Node4 -->
<g id="Node000004" class="node">
<title>Node4</title>
<g id="a_Node000004"><a xlink:href="../../de/df6/classgreedy__algorithms_1_1_binary_addition.html#a4cfb595ba80795a9efae0e3f6f5c34d2" target="_top" xlink:title="Validates whether a string contains only binary characters (0 or 1).">
<polygon fill="white" stroke="#666666" points="452.5,-153.5 311.25,-153.5 311.25,-111.75 452.5,-111.75 452.5,-153.5"/>
<text text-anchor="start" x="319.25" y="-140" font-family="Helvetica,sans-Serif" font-size="10.00">greedy_algorithms::</text>
<text text-anchor="start" x="319.25" y="-128.75" font-family="Helvetica,sans-Serif" font-size="10.00">BinaryAddition::isValidBinary</text>
<text text-anchor="middle" x="381.88" y="-117.5" font-family="Helvetica,sans-Serif" font-size="10.00">String</text>
</a>
</g>
</g>
<!-- Node3&#45;&gt;Node4 -->
<g id="edge3_Node000003_Node000004" class="edge">
<title>Node3&#45;&gt;Node4</title>
<g id="a_edge3_Node000003_Node000004"><a xlink:title=" ">
<path fill="none" stroke="#63b8ff" d="M250.74,-80.23C270.5,-88.18 295.03,-98.06 317.45,-107.09"/>
<polygon fill="#63b8ff" stroke="#63b8ff" points="315.93,-110.25 326.51,-110.73 318.54,-103.75 315.93,-110.25"/>
</a>
</g>
</g>
<!-- Node8 -->
<g id="Node000008" class="node">
<title>Node8</title>
<g id="a_Node000008"><a target="_blank" xlink:href="http://en.cppreference.com/w/cpp/algorithm/max.html#" xlink:title=" ">
<polygon fill="white" stroke="#666666" points="409,-93.25 354.75,-93.25 354.75,-74 409,-74 409,-93.25"/>
<text text-anchor="middle" x="381.88" y="-79.75" font-family="Helvetica,sans-Serif" font-size="10.00">std::max</text>
</a>
</g>
</g>
<!-- Node3&#45;&gt;Node8 -->
<g id="edge7_Node000003_Node000008" class="edge">
<title>Node3&#45;&gt;Node8</title>
<g id="a_edge7_Node000003_Node000008"><a xlink:title=" ">
<path fill="none" stroke="#63b8ff" d="M275.36,-71.75C298.1,-74.31 323.02,-77.12 342.93,-79.36"/>
<polygon fill="#63b8ff" stroke="#63b8ff" points="342.48,-82.83 352.81,-80.47 343.26,-75.87 342.48,-82.83"/>
</a>
</g>
</g>
<!-- Node9 -->
<g id="Node000009" class="node">
<title>Node9</title>
<g id="a_Node000009"><a target="_blank" xlink:href="http://en.cppreference.com/w/cpp/algorithm/reverse.html#" xlink:title=" ">
<polygon fill="white" stroke="#666666" points="415.75,-56.25 348,-56.25 348,-37 415.75,-37 415.75,-56.25"/>
<text text-anchor="middle" x="381.88" y="-42.75" font-family="Helvetica,sans-Serif" font-size="10.00">std::reverse</text>
</a>
</g>
</g>
<!-- Node3&#45;&gt;Node9 -->
<g id="edge8_Node000003_Node000009" class="edge">
<title>Node3&#45;&gt;Node9</title>
<g id="a_edge8_Node000003_Node000009"><a xlink:title=" ">
<path fill="none" stroke="#63b8ff" d="M275.36,-57.87C295.57,-55.72 317.51,-53.38 336.11,-51.4"/>
<polygon fill="#63b8ff" stroke="#63b8ff" points="336.43,-54.88 346.01,-50.34 335.69,-47.92 336.43,-54.88"/>
</a>
</g>
</g>
<!-- Node10 -->
<g id="Node000010" class="node">
<title>Node10</title>
<g id="a_Node000010"><a target="_blank" xlink:href="http://en.cppreference.com/w/cpp/string/basic_string/size.html#" xlink:title=" ">
<polygon fill="white" stroke="#666666" points="423.62,-19.25 340.12,-19.25 340.12,0 423.62,0 423.62,-19.25"/>
<text text-anchor="middle" x="381.88" y="-5.75" font-family="Helvetica,sans-Serif" font-size="10.00">std::string::size</text>
</a>
</g>
</g>
<!-- Node3&#45;&gt;Node10 -->
<g id="edge9_Node000003_Node000010" class="edge">
<title>Node3&#45;&gt;Node10</title>
<g id="a_edge9_Node000003_Node000010"><a xlink:title=" ">
<path fill="none" stroke="#63b8ff" d="M251.28,-48.91C269.38,-41.94 291.25,-33.92 311.25,-27.62 316.98,-25.82 323.02,-24.06 329.04,-22.39"/>
<polygon fill="#63b8ff" stroke="#63b8ff" points="329.6,-25.86 338.35,-19.88 327.78,-19.1 329.6,-25.86"/>
</a>
</g>
</g>
<!-- Node5 -->
<g id="Node000005" class="node">
<title>Node5</title>
<g id="a_Node000005"><a target="_blank" xlink:href="http://en.cppreference.com/w/cpp/algorithm/all_any_none_of.html#" xlink:title=" ">
<polygon fill="white" stroke="#666666" points="562.25,-179.25 503.5,-179.25 503.5,-160 562.25,-160 562.25,-179.25"/>
<text text-anchor="middle" x="532.88" y="-165.75" font-family="Helvetica,sans-Serif" font-size="10.00">std::all_of</text>
</a>
</g>
</g>
<!-- Node4&#45;&gt;Node5 -->
<g id="edge4_Node000004_Node000005" class="edge">
<title>Node4&#45;&gt;Node5</title>
<g id="a_edge4_Node000004_Node000005"><a xlink:title=" ">
<path fill="none" stroke="#63b8ff" d="M452.58,-149.93C466.12,-153.3 479.88,-156.71 492.05,-159.74"/>
<polygon fill="#63b8ff" stroke="#63b8ff" points="491.15,-163.12 501.7,-162.13 492.84,-156.33 491.15,-163.12"/>
</a>
</g>
</g>
<!-- Node6 -->
<g id="Node000006" class="node">
<title>Node6</title>
<g id="a_Node000006"><a target="_blank" xlink:href="http://en.cppreference.com/w/cpp/string/basic_string/begin.html#" xlink:title=" ">
<polygon fill="white" stroke="#666666" points="577.25,-142.25 488.5,-142.25 488.5,-123 577.25,-123 577.25,-142.25"/>
<text text-anchor="middle" x="532.88" y="-128.75" font-family="Helvetica,sans-Serif" font-size="10.00">std::string::begin</text>
</a>
</g>
</g>
<!-- Node4&#45;&gt;Node6 -->
<g id="edge5_Node000004_Node000006" class="edge">
<title>Node4&#45;&gt;Node6</title>
<g id="a_edge5_Node000004_Node000006"><a xlink:title=" ">
<path fill="none" stroke="#63b8ff" d="M452.58,-132.62C460.72,-132.62 468.94,-132.62 476.84,-132.62"/>
<polygon fill="#63b8ff" stroke="#63b8ff" points="476.64,-136.13 486.64,-132.63 476.64,-129.13 476.64,-136.13"/>
</a>
</g>
</g>
<!-- Node7 -->
<g id="Node000007" class="node">
<title>Node7</title>
<g id="a_Node000007"><a target="_blank" xlink:href="http://en.cppreference.com/w/cpp/string/basic_string/end.html#" xlink:title=" ">
<polygon fill="white" stroke="#666666" points="573.5,-105.25 492.25,-105.25 492.25,-86 573.5,-86 573.5,-105.25"/>
<text text-anchor="middle" x="532.88" y="-91.75" font-family="Helvetica,sans-Serif" font-size="10.00">std::string::end</text>
</a>
</g>
</g>
<!-- Node4&#45;&gt;Node7 -->
<g id="edge6_Node000004_Node000007" class="edge">
<title>Node4&#45;&gt;Node7</title>
<g id="a_edge6_Node000004_Node000007"><a xlink:title=" ">
<path fill="none" stroke="#63b8ff" d="M452.58,-115.32C462.06,-112.96 471.64,-110.58 480.71,-108.33"/>
<polygon fill="#63b8ff" stroke="#63b8ff" points="481.55,-111.73 490.41,-105.92 479.86,-104.94 481.55,-111.73"/>
</a>
</g>
</g>
</g>
</svg>

<g id="navigator" transform="translate(0 0)" fill="#404254">
  <rect fill="#f2f5e9" fill-opacity="0.5" stroke="#606060" stroke-width=".5" x="0" y="0" width="60" height="60"/>
  <use id="zoomplus" xlink:href="#zoomPlus" x="17" y="9" onmousedown="handleZoom(evt,'in')"/>
  <use id="zoomminus" xlink:href="#zoomMin" x="42" y="9" onmousedown="handleZoom(evt,'out')"/>
  <use id="reset" xlink:href="#resetDef" x="30" y="36" onmousedown="handleReset()"/>
   <use id="arrowup" xlink:href="#arrowUp" x="0" y="0" onmousedown="handlePan(0,-1)"/>
  <use id="arrowright" xlink:href="#arrowRight" x="0" y="0" onmousedown="handlePan(1,0)"/>
  <use id="arrowdown" xlink:href="#arrowDown" x="0" y="0" onmousedown="handlePan(0,1)"/>
  <use id="arrowleft" xlink:href="#arrowLeft" x="0" y="0" onmousedown="handlePan(-1,0)"/>
</g>
<svg viewBox="0 0 15 15" width="100%" height="30px" preserveAspectRatio="xMaxYMin meet">
 <g id="arrow_out" transform="scale(0.3 0.3)">
  <a xlink:href="binary__addition_8cpp_ae66f6b31b5ad750f1fe042a706a4e3d4_cgraph_org.svg" target="_base">
   <rect id="button" ry="5" rx="5" y="6" x="6" height="38" width="38"
        fill="#f2f5e9" fill-opacity="0.5" stroke="#606060" stroke-width="1.0"/>
   <path id="arrow"
     d="M 11.500037,31.436501 C 11.940474,20.09759 22.043105,11.32322 32.158766,21.979434 L 37.068811,17.246167 C 37.068811,17.246167 37.088388,32 37.088388,32 L 22.160133,31.978069 C 22.160133,31.978069 26.997745,27.140456 26.997745,27.140456 C 18.528582,18.264221 13.291696,25.230495 11.500037,31.436501 z"
     style="fill:#404040;"/>
  </a>
 </g>
</svg>

<style type='text/css'>
<![CDATA[
[data-mouse-over-selected='false'] { opacity: 0.7; }
[data-mouse-over-selected='true']  { opacity: 1.0; }
]]>
</style>
<script type="application/ecmascript"><![CDATA[
document.addEventListener('DOMContentLoaded', (event) => {
  highlightEdges();
  highlightAdjacentNodes();
});
]]></script>
</svg>
