<?xml version="1.0" encoding="UTF-8" standalone="no"?>
<!DOCTYPE svg PUBLIC "-//W3C//DTD SVG 1.1//EN"
 "http://www.w3.org/Graphics/SVG/1.1/DTD/svg11.dtd">
<!-- Generated by graphviz version 7.0.6 (20230106.0513)
 -->
<!-- Title: operations_on_datastructures::get_intersection Pages: 1 -->
<svg width="305pt" height="101pt"
 viewBox="0.00 0.00 305.00 101.00" xmlns="http://www.w3.org/2000/svg" xmlns:xlink="http://www.w3.org/1999/xlink">
<g id="graph0" class="graph" transform="scale(1 1) rotate(0) translate(4 97)">
<title>operations_on_datastructures::get_intersection</title>
<!-- Node1 -->
<g id="node1" class="node">
<title>Node1</title>
<g id="a_node1"><a xlink:title="Gets the intersection of two sorted arrays, and returns them in a vector.">
<polygon fill="#999999" stroke="#666666" points="145,-61.5 0,-61.5 0,-31.5 145,-31.5 145,-61.5"/>
<text text-anchor="start" x="8" y="-49.5" font-family="Helvetica,sans-Serif" font-size="10.00">operations_on_datastructures</text>
<text text-anchor="middle" x="72.5" y="-38.5" font-family="Helvetica,sans-Serif" font-size="10.00">::get_intersection</text>
</a>
</g>
</g>
<!-- Node1&#45;&gt;Node1 -->
<g id="edge2" class="edge">
<title>Node1&#45;&gt;Node1</title>
<path fill="none" stroke="#63b8ff" d="M43.23,-61.78C36.73,-70.91 46.48,-79.5 72.5,-79.5 86.73,-79.5 96.09,-76.93 100.59,-73.11"/>
<polygon fill="#63b8ff" stroke="#63b8ff" points="104.06,-73.59 101.61,-63.28 97.1,-72.87 104.06,-73.59"/>
</g>
<!-- Node2 -->
<g id="node2" class="node">
<title>Node2</title>
<g id="a_node2"><a target="_blank" xlink:href="http://en.cppreference.com/w/cpp/container/vector/back.html#" xlink:title=" ">
<polygon fill="white" stroke="#666666" points="284,-93 194,-93 194,-74 284,-74 284,-93"/>
<text text-anchor="middle" x="239" y="-81" font-family="Helvetica,sans-Serif" font-size="10.00">std::vector::back</text>
</a>
</g>
</g>
<!-- Node1&#45;&gt;Node2 -->
<g id="edge1" class="edge">
<title>Node1&#45;&gt;Node2</title>
<path fill="none" stroke="#63b8ff" d="M142.31,-61.98C155.79,-65.01 169.77,-68.15 182.74,-71.07"/>
<polygon fill="#63b8ff" stroke="#63b8ff" points="181.84,-74.46 192.37,-73.24 183.38,-67.63 181.84,-74.46"/>
</g>
<!-- Node3 -->
<g id="node3" class="node">
<title>Node3</title>
<g id="a_node3"><a target="_blank" xlink:href="http://en.cppreference.com/w/cpp/container/vector/push_back.html#" xlink:title=" ">
<polygon fill="white" stroke="#666666" points="297,-56 181,-56 181,-37 297,-37 297,-56"/>
<text text-anchor="middle" x="239" y="-44" font-family="Helvetica,sans-Serif" font-size="10.00">std::vector::push_back</text>
</a>
</g>
</g>
<!-- Node1&#45;&gt;Node3 -->
<g id="edge3" class="edge">
<title>Node1&#45;&gt;Node3</title>
<path fill="none" stroke="#63b8ff" d="M145.17,-46.5C153.14,-46.5 161.25,-46.5 169.18,-46.5"/>
<polygon fill="#63b8ff" stroke="#63b8ff" points="169.13,-50 179.13,-46.5 169.13,-43 169.13,-50"/>
</g>
<!-- Node4 -->
<g id="node4" class="node">
<title>Node4</title>
<g id="a_node4"><a target="_blank" xlink:href="http://en.cppreference.com/w/cpp/container/vector/size.html#" xlink:title=" ">
<polygon fill="white" stroke="#666666" points="282.5,-19 195.5,-19 195.5,0 282.5,0 282.5,-19"/>
<text text-anchor="middle" x="239" y="-7" font-family="Helvetica,sans-Serif" font-size="10.00">std::vector::size</text>
</a>
</g>
</g>
<!-- Node1&#45;&gt;Node4 -->
<g id="edge4" class="edge">
<title>Node1&#45;&gt;Node4</title>
<path fill="none" stroke="#63b8ff" d="M142.31,-31.02C156.34,-27.87 170.91,-24.59 184.32,-21.57"/>
<polygon fill="#63b8ff" stroke="#63b8ff" points="184.81,-25.05 193.8,-19.44 183.27,-18.22 184.81,-25.05"/>
</g>
</g>
</svg>
