<?xml version="1.0" encoding="UTF-8" standalone="no"?>
<!DOCTYPE svg PUBLIC "-//W3C//DTD SVG 1.1//EN"
 "http://www.w3.org/Graphics/SVG/1.1/DTD/svg11.dtd">
<!-- Generated by graphviz version 8.0.2 (20230410.1723)
 -->
<!-- Title: operations_on_datastructures::shift_left Pages: 1 -->
<svg width="276pt" height="56pt"
 viewBox="0.00 0.00 276.00 56.00" xmlns="http://www.w3.org/2000/svg" xmlns:xlink="http://www.w3.org/1999/xlink">
<g id="graph0" class="graph" transform="scale(1 1) rotate(0) translate(4 52)">
<title>operations_on_datastructures::shift_left</title>
<!-- Node1 -->
<g id="node1" class="node">
<title>Node1</title>
<g id="a_node1"><a xlink:title="Shifts the given vector to the left by the shift amount and returns a new vector with the result....">
<polygon fill="#999999" stroke="#666666" points="145,-30 0,-30 0,0 145,0 145,-30"/>
<text text-anchor="start" x="8" y="-18" font-family="Helvetica,sans-Serif" font-size="10.00">operations_on_datastructures</text>
<text text-anchor="middle" x="72.5" y="-7" font-family="Helvetica,sans-Serif" font-size="10.00">::shift_left</text>
</a>
</g>
</g>
<!-- Node1&#45;&gt;Node1 -->
<g id="edge1" class="edge">
<title>Node1&#45;&gt;Node1</title>
<path fill="none" stroke="#63b8ff" d="M45.78,-30.28C39.84,-39.41 48.75,-48 72.5,-48 86.23,-48 95,-45.13 98.81,-40.94"/>
<polygon fill="#63b8ff" stroke="#63b8ff" points="102.33,-41.4 99.22,-31.28 95.34,-41.13 102.33,-41.4"/>
</g>
<!-- Node2 -->
<g id="node2" class="node">
<title>Node2</title>
<g id="a_node2"><a target="_blank" xlink:href="http://en.cppreference.com/w/cpp/container/vector/size.html#" xlink:title=" ">
<polygon fill="white" stroke="#666666" points="268,-24.5 181,-24.5 181,-5.5 268,-5.5 268,-24.5"/>
<text text-anchor="middle" x="224.5" y="-12.5" font-family="Helvetica,sans-Serif" font-size="10.00">std::vector::size</text>
</a>
</g>
</g>
<!-- Node1&#45;&gt;Node2 -->
<g id="edge2" class="edge">
<title>Node1&#45;&gt;Node2</title>
<path fill="none" stroke="#63b8ff" d="M145.42,-15C153.6,-15 161.83,-15 169.71,-15"/>
<polygon fill="#63b8ff" stroke="#63b8ff" points="169.59,-18.5 179.59,-15 169.59,-11.5 169.59,-18.5"/>
</g>
</g>
</svg>
