<?xml version="1.0" encoding="UTF-8" standalone="no"?>
<!DOCTYPE svg PUBLIC "-//W3C//DTD SVG 1.1//EN"
 "http://www.w3.org/Graphics/SVG/1.1/DTD/svg11.dtd">
<!-- Generated by graphviz version 8.1.0 (20230707.0739)
 -->
<!-- Title: main Pages: 1 -->
<svg width="347pt" height="69pt"
 viewBox="0.00 0.00 346.50 68.87" xmlns="http://www.w3.org/2000/svg" xmlns:xlink="http://www.w3.org/1999/xlink">

<svg id="main" version="1.1" xmlns="http://www.w3.org/2000/svg" xmlns:xlink="http://www.w3.org/1999/xlink" xml:space="preserve" onload="init(evt)">
<style type="text/css"><![CDATA[
.node, .edge {opacity: 0.7;}
.node.selected, .edge.selected {opacity: 1;}
.edge:hover path { stroke: red; }
.edge:hover polygon { stroke: red; fill: red; }
]]></style>
<script type="application/ecmascript" xlink:href="../../svg.min.js"/>
<svg id="graph" class="graph">
<g id="graph0" class="graph" transform="scale(1 1) rotate(0) translate(4 64.87)">
<title>main</title>
<!-- Node1 -->
<g id="Node000001" class="node">
<title>Node1</title>
<g id="a_Node000001"><a xlink:title="Main function.">
<polygon fill="#999999" stroke="#666666" points="37,-40.07 0,-40.07 0,-20.82 37,-20.82 37,-40.07"/>
<text text-anchor="middle" x="18.5" y="-26.57" font-family="Helvetica,sans-Serif" font-size="10.00">main</text>
</a>
</g>
</g>
<!-- Node2 -->
<g id="Node000002" class="node">
<title>Node2</title>
<g id="a_Node000002"><a xlink:href="../../dc/d9c/babylonian__method_8cpp.html#aa8dca7b867074164d5f45b0f3851269d" target="_top" xlink:title="Self&#45;test implementations.">
<polygon fill="white" stroke="#666666" points="105.5,-40.07 73,-40.07 73,-20.82 105.5,-20.82 105.5,-40.07"/>
<text text-anchor="middle" x="89.25" y="-26.57" font-family="Helvetica,sans-Serif" font-size="10.00">test</text>
</a>
</g>
</g>
<!-- Node1&#45;&gt;Node2 -->
<g id="edge1_Node000001_Node000002" class="edge">
<title>Node1&#45;&gt;Node2</title>
<g id="a_edge1_Node000001_Node000002"><a xlink:title=" ">
<path fill="none" stroke="#63b8ff" d="M37.2,-30.44C44.67,-30.44 53.52,-30.44 61.73,-30.44"/>
<polygon fill="#63b8ff" stroke="#63b8ff" points="61.71,-33.94 71.71,-30.44 61.71,-26.94 61.71,-33.94"/>
</a>
</g>
</g>
<!-- Node3 -->
<g id="Node000003" class="node">
<title>Node3</title>
<g id="a_Node000003"><a xlink:href="../../d1/de0/namespacenumerical__methods.html#a28e67885f8606564cc8335f483f63309" target="_top" xlink:title="Babylonian methods is an iterative function which returns square root of radicand.">
<polygon fill="white" stroke="#666666" points="248.25,-45.69 141.5,-45.69 141.5,-15.19 248.25,-15.19 248.25,-45.69"/>
<text text-anchor="start" x="149.5" y="-32.19" font-family="Helvetica,sans-Serif" font-size="10.00">numerical_methods::</text>
<text text-anchor="middle" x="194.88" y="-20.94" font-family="Helvetica,sans-Serif" font-size="10.00">babylonian_method</text>
</a>
</g>
</g>
<!-- Node2&#45;&gt;Node3 -->
<g id="edge2_Node000002_Node000003" class="edge">
<title>Node2&#45;&gt;Node3</title>
<g id="a_edge2_Node000002_Node000003"><a xlink:title=" ">
<path fill="none" stroke="#63b8ff" d="M105.99,-30.44C112.83,-30.44 121.33,-30.44 130.32,-30.44"/>
<polygon fill="#63b8ff" stroke="#63b8ff" points="130.05,-33.94 140.05,-30.44 130.05,-26.94 130.05,-33.94"/>
</a>
</g>
</g>
<!-- Node4 -->
<g id="Node000004" class="node">
<title>Node4</title>
<g id="a_Node000004"><a target="_blank" xlink:href="http://en.cppreference.com/w/cpp/algorithm/max.html#" xlink:title=" ">
<polygon fill="white" stroke="#666666" points="338.5,-60.07 284.25,-60.07 284.25,-40.82 338.5,-40.82 338.5,-60.07"/>
<text text-anchor="middle" x="311.38" y="-46.57" font-family="Helvetica,sans-Serif" font-size="10.00">std::max</text>
</a>
</g>
</g>
<!-- Node2&#45;&gt;Node4 -->
<g id="edge5_Node000002_Node000004" class="edge">
<title>Node2&#45;&gt;Node4</title>
<g id="a_edge5_Node000002_Node000004"><a xlink:title=" ">
<path fill="none" stroke="#63b8ff" d="M105.76,-39.9C115.61,-45.33 128.84,-51.63 141.5,-54.44 186.06,-64.36 238.86,-60.74 273.41,-56.38"/>
<polygon fill="#63b8ff" stroke="#63b8ff" points="273.52,-59.76 282.96,-54.95 272.58,-52.82 273.52,-59.76"/>
</a>
</g>
</g>
<!-- Node5 -->
<g id="Node000005" class="node">
<title>Node5</title>
<g id="a_Node000005"><a target="_blank" xlink:href="http://en.cppreference.com/w/cpp/algorithm/min.html#" xlink:title=" ">
<polygon fill="white" stroke="#666666" points="337,-20.07 285.75,-20.07 285.75,-0.82 337,-0.82 337,-20.07"/>
<text text-anchor="middle" x="311.38" y="-6.57" font-family="Helvetica,sans-Serif" font-size="10.00">std::min</text>
</a>
</g>
</g>
<!-- Node2&#45;&gt;Node5 -->
<g id="edge6_Node000002_Node000005" class="edge">
<title>Node2&#45;&gt;Node5</title>
<g id="a_edge6_Node000002_Node000005"><a xlink:title=" ">
<path fill="none" stroke="#63b8ff" d="M105.76,-20.99C115.61,-15.55 128.84,-9.26 141.5,-6.44 186.7,3.62 240.4,-0.26 274.9,-4.7"/>
<polygon fill="#63b8ff" stroke="#63b8ff" points="274.02,-8.25 284.4,-6.15 274.97,-1.31 274.02,-8.25"/>
</a>
</g>
</g>
<!-- Node3&#45;&gt;Node4 -->
<g id="edge3_Node000003_Node000004" class="edge">
<title>Node3&#45;&gt;Node4</title>
<g id="a_edge3_Node000003_Node000004"><a xlink:title=" ">
<path fill="none" stroke="#63b8ff" d="M248.43,-39.62C256.82,-41.09 265.35,-42.58 273.29,-43.97"/>
<polygon fill="#63b8ff" stroke="#63b8ff" points="272.58,-47.57 283.03,-45.84 273.78,-40.67 272.58,-47.57"/>
</a>
</g>
</g>
<!-- Node3&#45;&gt;Node5 -->
<g id="edge4_Node000003_Node000005" class="edge">
<title>Node3&#45;&gt;Node5</title>
<g id="a_edge4_Node000003_Node000005"><a xlink:title=" ">
<path fill="none" stroke="#63b8ff" d="M248.43,-21.26C257.33,-19.71 266.37,-18.13 274.7,-16.68"/>
<polygon fill="#63b8ff" stroke="#63b8ff" points="275.29,-19.95 284.53,-14.78 274.08,-13.06 275.29,-19.95"/>
</a>
</g>
</g>
</g>
</svg>
</svg>

<style type='text/css'>
<![CDATA[
[data-mouse-over-selected='false'] { opacity: 0.7; }
[data-mouse-over-selected='true']  { opacity: 1.0; }
]]>
</style>
<script type="application/ecmascript"><![CDATA[
document.addEventListener('DOMContentLoaded', (event) => {
  highlightEdges();
  highlightAdjacentNodes();
});
]]></script>
</svg>
