<?xml version="1.0" encoding="UTF-8" standalone="no"?>
<!DOCTYPE svg PUBLIC "-//W3C//DTD SVG 1.1//EN"
 "http://www.w3.org/Graphics/SVG/1.1/DTD/svg11.dtd">
<!-- Generated by graphviz version 8.0.2 (20230410.1723)
 -->
<!-- Title: test Pages: 1 -->
<svg width="275pt" height="69pt"
 viewBox="0.00 0.00 275.00 68.86" xmlns="http://www.w3.org/2000/svg" xmlns:xlink="http://www.w3.org/1999/xlink">
<g id="graph0" class="graph" transform="scale(1 1) rotate(0) translate(4 64.86)">
<title>test</title>
<!-- Node1 -->
<g id="node1" class="node">
<title>Node1</title>
<g id="a_node1"><a xlink:title="Self&#45;test implementations.">
<polygon fill="#999999" stroke="#666666" points="33,-39.94 0,-39.94 0,-20.94 33,-20.94 33,-39.94"/>
<text text-anchor="middle" x="16.5" y="-27.94" font-family="Helvetica,sans-Serif" font-size="10.00">test</text>
</a>
</g>
</g>
<!-- Node2 -->
<g id="node2" class="node">
<title>Node2</title>
<g id="a_node2"><a xlink:href="../../d1/de0/namespacenumerical__methods.html#a28e67885f8606564cc8335f483f63309" target="_top" xlink:title="Babylonian methods is an iterative function which returns square root of radicand.">
<polygon fill="white" stroke="#666666" points="176,-45.44 69,-45.44 69,-15.44 176,-15.44 176,-45.44"/>
<text text-anchor="start" x="77" y="-33.44" font-family="Helvetica,sans-Serif" font-size="10.00">numerical_methods::</text>
<text text-anchor="middle" x="122.5" y="-22.44" font-family="Helvetica,sans-Serif" font-size="10.00">babylonian_method</text>
</a>
</g>
</g>
<!-- Node1&#45;&gt;Node2 -->
<g id="edge1" class="edge">
<title>Node1&#45;&gt;Node2</title>
<path fill="none" stroke="#63b8ff" d="M33.3,-30.44C40.24,-30.44 48.89,-30.44 58.04,-30.44"/>
<polygon fill="#63b8ff" stroke="#63b8ff" points="57.94,-33.94 67.94,-30.44 57.94,-26.94 57.94,-33.94"/>
</g>
<!-- Node3 -->
<g id="node3" class="node">
<title>Node3</title>
<g id="a_node3"><a target="_blank" xlink:href="http://en.cppreference.com/w/cpp/algorithm/max.html#" xlink:title=" ">
<polygon fill="white" stroke="#666666" points="267,-59.94 212,-59.94 212,-40.94 267,-40.94 267,-59.94"/>
<text text-anchor="middle" x="239.5" y="-47.94" font-family="Helvetica,sans-Serif" font-size="10.00">std::max</text>
</a>
</g>
</g>
<!-- Node1&#45;&gt;Node3 -->
<g id="edge4" class="edge">
<title>Node1&#45;&gt;Node3</title>
<path fill="none" stroke="#63b8ff" d="M33.1,-39.89C42.99,-45.33 56.29,-51.62 69,-54.44 113.6,-64.32 166.42,-60.75 201.1,-56.41"/>
<polygon fill="#63b8ff" stroke="#63b8ff" points="201.25,-59.78 210.69,-54.98 200.32,-52.85 201.25,-59.78"/>
</g>
<!-- Node4 -->
<g id="node4" class="node">
<title>Node4</title>
<g id="a_node4"><a target="_blank" xlink:href="http://en.cppreference.com/w/cpp/algorithm/min.html#" xlink:title=" ">
<polygon fill="white" stroke="#666666" points="265.5,-19.94 213.5,-19.94 213.5,-0.94 265.5,-0.94 265.5,-19.94"/>
<text text-anchor="middle" x="239.5" y="-7.94" font-family="Helvetica,sans-Serif" font-size="10.00">std::min</text>
</a>
</g>
</g>
<!-- Node1&#45;&gt;Node4 -->
<g id="edge5" class="edge">
<title>Node1&#45;&gt;Node4</title>
<path fill="none" stroke="#63b8ff" d="M33.1,-20.98C42.99,-15.55 56.29,-9.25 69,-6.44 114.25,3.59 167.96,-0.23 202.61,-4.66"/>
<polygon fill="#63b8ff" stroke="#63b8ff" points="201.77,-8.21 212.15,-6.1 202.72,-1.28 201.77,-8.21"/>
</g>
<!-- Node2&#45;&gt;Node3 -->
<g id="edge2" class="edge">
<title>Node2&#45;&gt;Node3</title>
<path fill="none" stroke="#63b8ff" d="M176.29,-39.62C184.64,-41.07 193.12,-42.54 201.02,-43.92"/>
<polygon fill="#63b8ff" stroke="#63b8ff" points="200.29,-47.52 210.74,-45.78 201.48,-40.62 200.29,-47.52"/>
</g>
<!-- Node2&#45;&gt;Node4 -->
<g id="edge3" class="edge">
<title>Node2&#45;&gt;Node4</title>
<path fill="none" stroke="#63b8ff" d="M176.29,-21.26C185.14,-19.72 194.14,-18.15 202.44,-16.71"/>
<polygon fill="#63b8ff" stroke="#63b8ff" points="203,-19.99 212.25,-14.83 201.8,-13.09 203,-19.99"/>
</g>
</g>
</svg>
