<?xml version="1.0" encoding="UTF-8" standalone="no"?>
<!DOCTYPE svg PUBLIC "-//W3C//DTD SVG 1.1//EN"
 "http://www.w3.org/Graphics/SVG/1.1/DTD/svg11.dtd">
<!-- Generated by graphviz version 7.1.0 (20230121.1956)
 -->
<!-- Title: operations_on_datastructures::reverse_binary_tree::BinaryTree::print Pages: 1 -->
<svg width="522pt" height="138pt"
 viewBox="0.00 0.00 522.00 138.00" xmlns="http://www.w3.org/2000/svg" xmlns:xlink="http://www.w3.org/1999/xlink">
<g id="graph0" class="graph" transform="scale(1 1) rotate(0) translate(4 134)">
<title>operations_on_datastructures::reverse_binary_tree::BinaryTree::print</title>
<!-- Node1 -->
<g id="node1" class="node">
<title>Node1</title>
<g id="a_node1"><a xlink:title="Prints all of the elements in the tree to stdout level&#45;by&#45;level, using the get_level_order() function...">
<polygon fill="#999999" stroke="#666666" points="186,-79.5 0,-79.5 0,-49.5 186,-49.5 186,-79.5"/>
<text text-anchor="start" x="8" y="-67.5" font-family="Helvetica,sans-Serif" font-size="10.00">operations_on_datastructures</text>
<text text-anchor="middle" x="93" y="-56.5" font-family="Helvetica,sans-Serif" font-size="10.00">::reverse_binary_tree::BinaryTree::print</text>
</a>
</g>
</g>
<!-- Node2 -->
<g id="node2" class="node">
<title>Node2</title>
<g id="a_node2"><a xlink:href="../../de/dcf/classoperations__on__datastructures_1_1reverse__binary__tree_1_1_binary_tree.html#a2e683b271d8d5cd63e0d09cf8aaa325c" target="_top" xlink:title="Level order traversal of a tree consists of visiting its elements, top to bottom, left to right....">
<polygon fill="white" stroke="#666666" points="383,-85 222,-85 222,-44 383,-44 383,-85"/>
<text text-anchor="start" x="230" y="-73" font-family="Helvetica,sans-Serif" font-size="10.00">operations_on_datastructures</text>
<text text-anchor="start" x="230" y="-62" font-family="Helvetica,sans-Serif" font-size="10.00">::reverse_binary_tree::BinaryTree</text>
<text text-anchor="middle" x="302.5" y="-51" font-family="Helvetica,sans-Serif" font-size="10.00">::get_level_order</text>
</a>
</g>
</g>
<!-- Node1&#45;&gt;Node2 -->
<g id="edge1" class="edge">
<title>Node1&#45;&gt;Node2</title>
<path fill="none" stroke="#63b8ff" d="M186.22,-64.5C194.15,-64.5 202.17,-64.5 210.09,-64.5"/>
<polygon fill="#63b8ff" stroke="#63b8ff" points="210.09,-68 220.09,-64.5 210.08,-61 210.09,-68"/>
</g>
<!-- Node3 -->
<g id="node3" class="node">
<title>Node3</title>
<g id="a_node3"><a target="_blank" xlink:href="http://en.cppreference.com/w/cpp/container/queue/empty.html#" xlink:title=" ">
<polygon fill="white" stroke="#666666" points="514,-130 419,-130 419,-111 514,-111 514,-130"/>
<text text-anchor="middle" x="466.5" y="-118" font-family="Helvetica,sans-Serif" font-size="10.00">std::queue::empty</text>
</a>
</g>
</g>
<!-- Node2&#45;&gt;Node3 -->
<g id="edge2" class="edge">
<title>Node2&#45;&gt;Node3</title>
<path fill="none" stroke="#63b8ff" d="M363.82,-85.35C384.63,-92.55 407.39,-100.41 426.09,-106.88"/>
<polygon fill="#63b8ff" stroke="#63b8ff" points="424.84,-110.15 435.44,-110.11 427.13,-103.53 424.84,-110.15"/>
</g>
<!-- Node4 -->
<g id="node4" class="node">
<title>Node4</title>
<g id="a_node4"><a target="_blank" xlink:href="http://en.cppreference.com/w/cpp/container/queue/front.html#" xlink:title=" ">
<polygon fill="white" stroke="#666666" points="510.5,-93 422.5,-93 422.5,-74 510.5,-74 510.5,-93"/>
<text text-anchor="middle" x="466.5" y="-81" font-family="Helvetica,sans-Serif" font-size="10.00">std::queue::front</text>
</a>
</g>
</g>
<!-- Node2&#45;&gt;Node4 -->
<g id="edge3" class="edge">
<title>Node2&#45;&gt;Node4</title>
<path fill="none" stroke="#63b8ff" d="M383.08,-73.83C392.42,-74.93 401.8,-76.03 410.7,-77.07"/>
<polygon fill="#63b8ff" stroke="#63b8ff" points="410.24,-80.54 420.58,-78.23 411.05,-73.59 410.24,-80.54"/>
</g>
<!-- Node5 -->
<g id="node5" class="node">
<title>Node5</title>
<g id="a_node5"><a target="_blank" xlink:href="http://en.cppreference.com/w/cpp/container/queue/pop.html#" xlink:title=" ">
<polygon fill="white" stroke="#666666" points="508.5,-56 424.5,-56 424.5,-37 508.5,-37 508.5,-56"/>
<text text-anchor="middle" x="466.5" y="-44" font-family="Helvetica,sans-Serif" font-size="10.00">std::queue::pop</text>
</a>
</g>
</g>
<!-- Node2&#45;&gt;Node5 -->
<g id="edge4" class="edge">
<title>Node2&#45;&gt;Node5</title>
<path fill="none" stroke="#63b8ff" d="M383.08,-55.66C393.2,-54.53 403.36,-53.4 412.91,-52.34"/>
<polygon fill="#63b8ff" stroke="#63b8ff" points="413.16,-55.84 422.72,-51.25 412.39,-48.88 413.16,-55.84"/>
</g>
<!-- Node6 -->
<g id="node6" class="node">
<title>Node6</title>
<g id="a_node6"><a target="_blank" xlink:href="http://en.cppreference.com/w/cpp/container/queue/push.html#" xlink:title=" ">
<polygon fill="white" stroke="#666666" points="511,-19 422,-19 422,0 511,0 511,-19"/>
<text text-anchor="middle" x="466.5" y="-7" font-family="Helvetica,sans-Serif" font-size="10.00">std::queue::push</text>
</a>
</g>
</g>
<!-- Node2&#45;&gt;Node6 -->
<g id="edge5" class="edge">
<title>Node2&#45;&gt;Node6</title>
<path fill="none" stroke="#63b8ff" d="M365.21,-43.55C385.35,-36.71 407.18,-29.3 425.31,-23.14"/>
<polygon fill="#63b8ff" stroke="#63b8ff" points="426.3,-26.5 434.65,-19.97 424.05,-19.88 426.3,-26.5"/>
</g>
</g>
</svg>
