<?xml version="1.0" encoding="UTF-8" standalone="no"?>
<!DOCTYPE svg PUBLIC "-//W3C//DTD SVG 1.1//EN"
 "http://www.w3.org/Graphics/SVG/1.1/DTD/svg11.dtd">
<!-- Generated by graphviz version 2.49.3 (20211023.0002)
 -->
<!-- Title: operations_on_datastructures::reverse_binary_tree::BinaryTree::print Pages: 1 -->
<svg width="531pt" height="142pt"
 viewBox="0.00 0.00 531.00 142.00" xmlns="http://www.w3.org/2000/svg" xmlns:xlink="http://www.w3.org/1999/xlink">
<g id="graph0" class="graph" transform="scale(1 1) rotate(0) translate(4 138)">
<title>operations_on_datastructures::reverse_binary_tree::BinaryTree::print</title>
<polygon fill="white" stroke="transparent" points="-4,4 -4,-138 527,-138 527,4 -4,4"/>
<!-- Node1 -->
<g id="node1" class="node">
<title>Node1</title>
<g id="a_node1"><a xlink:title="Prints all of the elements in the tree to stdout level&#45;by&#45;level, using the get_level_order() function...">
<polygon fill="#bfbfbf" stroke="black" points="0,-52 0,-82 190,-82 190,-52 0,-52"/>
<text text-anchor="start" x="8" y="-70" font-family="Helvetica,sans-Serif" font-size="10.00">operations_on_datastructures</text>
<text text-anchor="middle" x="95" y="-59" font-family="Helvetica,sans-Serif" font-size="10.00">::reverse_binary_tree::BinaryTree::print</text>
</a>
</g>
</g>
<!-- Node2 -->
<g id="node2" class="node">
<title>Node2</title>
<g id="a_node2"><a xlink:href="../../de/dcf/classoperations__on__datastructures_1_1reverse__binary__tree_1_1_binary_tree.html#a2e683b271d8d5cd63e0d09cf8aaa325c" target="_top" xlink:title="Level order traversal of a tree consists of visiting its elements, top to bottom, left to right....">
<polygon fill="white" stroke="black" points="226,-46.5 226,-87.5 391,-87.5 391,-46.5 226,-46.5"/>
<text text-anchor="start" x="234" y="-75.5" font-family="Helvetica,sans-Serif" font-size="10.00">operations_on_datastructures</text>
<text text-anchor="start" x="234" y="-64.5" font-family="Helvetica,sans-Serif" font-size="10.00">::reverse_binary_tree::BinaryTree</text>
<text text-anchor="middle" x="308.5" y="-53.5" font-family="Helvetica,sans-Serif" font-size="10.00">::get_level_order</text>
</a>
</g>
</g>
<!-- Node1&#45;&gt;Node2 -->
<g id="edge1" class="edge">
<title>Node1&#45;&gt;Node2</title>
<path fill="none" stroke="midnightblue" d="M190.31,-67C198.76,-67 207.32,-67 215.76,-67"/>
<polygon fill="midnightblue" stroke="midnightblue" points="215.97,-70.5 225.97,-67 215.97,-63.5 215.97,-70.5"/>
</g>
<!-- Node3 -->
<g id="node3" class="node">
<title>Node3</title>
<g id="a_node3"><a target="_blank" xlink:href="http://en.cppreference.com/w/cpp/container/queue/empty.html#" xlink:title=" ">
<polygon fill="white" stroke="black" points="427,-114.5 427,-133.5 523,-133.5 523,-114.5 427,-114.5"/>
<text text-anchor="middle" x="475" y="-121.5" font-family="Helvetica,sans-Serif" font-size="10.00">std::queue::empty</text>
</a>
</g>
</g>
<!-- Node2&#45;&gt;Node3 -->
<g id="edge2" class="edge">
<title>Node2&#45;&gt;Node3</title>
<path fill="none" stroke="midnightblue" d="M368.89,-87.58C391.56,-95.43 416.75,-104.16 436.79,-111.11"/>
<polygon fill="midnightblue" stroke="midnightblue" points="435.87,-114.49 446.47,-114.46 438.16,-107.88 435.87,-114.49"/>
</g>
<!-- Node4 -->
<g id="node4" class="node">
<title>Node4</title>
<g id="a_node4"><a target="_blank" xlink:href="http://en.cppreference.com/w/cpp/container/queue/front.html#" xlink:title=" ">
<polygon fill="white" stroke="black" points="430.5,-76.5 430.5,-95.5 519.5,-95.5 519.5,-76.5 430.5,-76.5"/>
<text text-anchor="middle" x="475" y="-83.5" font-family="Helvetica,sans-Serif" font-size="10.00">std::queue::front</text>
</a>
</g>
</g>
<!-- Node2&#45;&gt;Node4 -->
<g id="edge3" class="edge">
<title>Node2&#45;&gt;Node4</title>
<path fill="none" stroke="midnightblue" d="M391.27,-76.44C401.11,-77.58 410.96,-78.72 420.26,-79.79"/>
<polygon fill="midnightblue" stroke="midnightblue" points="420.15,-83.3 430.49,-80.97 420.96,-76.35 420.15,-83.3"/>
</g>
<!-- Node5 -->
<g id="node5" class="node">
<title>Node5</title>
<g id="a_node5"><a target="_blank" xlink:href="http://en.cppreference.com/w/cpp/container/queue/pop.html#" xlink:title=" ">
<polygon fill="white" stroke="black" points="432.5,-38.5 432.5,-57.5 517.5,-57.5 517.5,-38.5 432.5,-38.5"/>
<text text-anchor="middle" x="475" y="-45.5" font-family="Helvetica,sans-Serif" font-size="10.00">std::queue::pop</text>
</a>
</g>
</g>
<!-- Node2&#45;&gt;Node5 -->
<g id="edge4" class="edge">
<title>Node2&#45;&gt;Node5</title>
<path fill="none" stroke="midnightblue" d="M391.27,-57.56C401.8,-56.34 412.34,-55.12 422.21,-53.98"/>
<polygon fill="midnightblue" stroke="midnightblue" points="422.68,-57.45 432.21,-52.83 421.87,-50.5 422.68,-57.45"/>
</g>
<!-- Node6 -->
<g id="node6" class="node">
<title>Node6</title>
<g id="a_node6"><a target="_blank" xlink:href="http://en.cppreference.com/w/cpp/container/queue/push.html#" xlink:title=" ">
<polygon fill="white" stroke="black" points="430,-0.5 430,-19.5 520,-19.5 520,-0.5 430,-0.5"/>
<text text-anchor="middle" x="475" y="-7.5" font-family="Helvetica,sans-Serif" font-size="10.00">std::queue::push</text>
</a>
</g>
</g>
<!-- Node2&#45;&gt;Node6 -->
<g id="edge5" class="edge">
<title>Node2&#45;&gt;Node6</title>
<path fill="none" stroke="midnightblue" d="M368.89,-46.42C391.56,-38.57 416.75,-29.84 436.79,-22.89"/>
<polygon fill="midnightblue" stroke="midnightblue" points="438.16,-26.12 446.47,-19.54 435.87,-19.51 438.16,-26.12"/>
</g>
</g>
</svg>
