<?xml version="1.0" encoding="UTF-8" standalone="no"?>
<!DOCTYPE svg PUBLIC "-//W3C//DTD SVG 1.1//EN"
 "http://www.w3.org/Graphics/SVG/1.1/DTD/svg11.dtd">
<!-- Generated by graphviz version 5.0.0 (20220707.1540)
 -->
<!-- Title: data_structures::tree_234::Node::InsertItem Pages: 1 -->
<svg width="314pt" height="137pt"
 viewBox="0.00 0.00 314.00 137.00" xmlns="http://www.w3.org/2000/svg" xmlns:xlink="http://www.w3.org/1999/xlink">
<g id="graph0" class="graph" transform="scale(1 1) rotate(0) translate(4 133)">
<title>data_structures::tree_234::Node::InsertItem</title>
<polygon fill="white" stroke="transparent" points="-4,4 -4,-133 310,-133 310,4 -4,4"/>
<!-- Node1 -->
<g id="node1" class="node">
<title>Node1</title>
<g id="a_node1"><a xlink:title="Insert item to the proper position of the node and return the position index.">
<polygon fill="#bfbfbf" stroke="black" points="0,-49.5 0,-79.5 117,-79.5 117,-49.5 0,-49.5"/>
<text text-anchor="start" x="8" y="-67.5" font-family="Helvetica,sans-Serif" font-size="10.00">data_structures::tree</text>
<text text-anchor="middle" x="58.5" y="-56.5" font-family="Helvetica,sans-Serif" font-size="10.00">_234::Node::InsertItem</text>
</a>
</g>
</g>
<!-- Node2 -->
<g id="node2" class="node">
<title>Node2</title>
<g id="a_node2"><a xlink:href="../../dd/d40/classdata__structures_1_1tree__234_1_1_node.html#a22fd25c6c811c64b6b27b0850d8c532f" target="_top" xlink:title="Check if item is in the node.">
<polygon fill="white" stroke="black" points="173.5,-98.5 173.5,-128.5 285.5,-128.5 285.5,-98.5 173.5,-98.5"/>
<text text-anchor="start" x="181.5" y="-116.5" font-family="Helvetica,sans-Serif" font-size="10.00">data_structures::tree</text>
<text text-anchor="middle" x="229.5" y="-105.5" font-family="Helvetica,sans-Serif" font-size="10.00">_234::Node::Contains</text>
</a>
</g>
</g>
<!-- Node1&#45;&gt;Node2 -->
<g id="edge1" class="edge">
<title>Node1&#45;&gt;Node2</title>
<path fill="none" stroke="midnightblue" d="M111.58,-79.6C129.1,-84.68 148.79,-90.39 166.96,-95.66"/>
<polygon fill="midnightblue" stroke="midnightblue" points="166.01,-99.03 176.59,-98.45 167.96,-92.3 166.01,-99.03"/>
</g>
<!-- Node3 -->
<g id="node3" class="node">
<title>Node3</title>
<g id="a_node3"><a xlink:href="../../dd/d40/classdata__structures_1_1tree__234_1_1_node.html#a306a30931f54c84098b38d6bc8f4a956" target="_top" xlink:title="Insert a value to the index position.">
<polygon fill="white" stroke="black" points="153,-49.5 153,-79.5 306,-79.5 306,-49.5 153,-49.5"/>
<text text-anchor="start" x="161" y="-67.5" font-family="Helvetica,sans-Serif" font-size="10.00">data_structures::tree</text>
<text text-anchor="middle" x="229.5" y="-56.5" font-family="Helvetica,sans-Serif" font-size="10.00">_234::Node::InsertItemByIndex</text>
</a>
</g>
</g>
<!-- Node1&#45;&gt;Node3 -->
<g id="edge2" class="edge">
<title>Node1&#45;&gt;Node3</title>
<path fill="none" stroke="midnightblue" d="M117.19,-64.5C125.43,-64.5 134.06,-64.5 142.71,-64.5"/>
<polygon fill="midnightblue" stroke="midnightblue" points="142.84,-68 152.84,-64.5 142.84,-61 142.84,-68"/>
</g>
<!-- Node4 -->
<g id="node4" class="node">
<title>Node4</title>
<g id="a_node4"><a xlink:href="../../dd/d40/classdata__structures_1_1tree__234_1_1_node.html#a4a37381c0ef93d5ae2118b2e554974dd" target="_top" xlink:title="Check if node is a full (4&#45;node)">
<polygon fill="white" stroke="black" points="176,-0.5 176,-30.5 283,-30.5 283,-0.5 176,-0.5"/>
<text text-anchor="start" x="184" y="-18.5" font-family="Helvetica,sans-Serif" font-size="10.00">data_structures::tree</text>
<text text-anchor="middle" x="229.5" y="-7.5" font-family="Helvetica,sans-Serif" font-size="10.00">_234::Node::IsFull</text>
</a>
</g>
</g>
<!-- Node1&#45;&gt;Node4 -->
<g id="edge3" class="edge">
<title>Node1&#45;&gt;Node4</title>
<path fill="none" stroke="midnightblue" d="M111.58,-49.4C129.1,-44.32 148.79,-38.61 166.96,-33.34"/>
<polygon fill="midnightblue" stroke="midnightblue" points="167.96,-36.7 176.59,-30.55 166.01,-29.97 167.96,-36.7"/>
</g>
</g>
</svg>
