<?xml version="1.0" encoding="UTF-8" standalone="no"?>
<!DOCTYPE svg PUBLIC "-//W3C//DTD SVG 1.1//EN"
 "http://www.w3.org/Graphics/SVG/1.1/DTD/svg11.dtd">
<!-- Generated by graphviz version 6.0.1 (20220911.1526)
 -->
<!-- Title: data_structures::trie_using_hashmap::Trie Pages: 1 -->
<svg width="553pt" height="148pt"
 viewBox="0.00 0.00 553.00 148.00" xmlns="http://www.w3.org/2000/svg" xmlns:xlink="http://www.w3.org/1999/xlink">
<g id="graph0" class="graph" transform="scale(1 1) rotate(0) translate(4 144)">
<title>data_structures::trie_using_hashmap::Trie</title>
<!-- Node1 -->
<g id="node1" class="node">
<title>Node1</title>
<g id="a_node1"><a xlink:title="Trie class, implementation of trie using hashmap in each trie node for all the characters of char16_t...">
<polygon fill="#999999" stroke="#666666" points="323.5,-140 210.5,-140 210.5,-110 323.5,-110 323.5,-140"/>
<text text-anchor="start" x="218.5" y="-128" font-family="Helvetica,sans-Serif" font-size="10.00">data_structures::trie</text>
<text text-anchor="middle" x="267" y="-117" font-family="Helvetica,sans-Serif" font-size="10.00">_using_hashmap::Trie</text>
</a>
</g>
</g>
<!-- Node2 -->
<g id="node2" class="node">
<title>Node2</title>
<g id="a_node2"><a target="_blank" xlink:href="http://en.cppreference.com/w/cpp/memory/shared_ptr.html" xlink:title=" ">
<polygon fill="white" stroke="#666666" points="122,-80.5 0,-80.5 0,-39.5 122,-39.5 122,-80.5"/>
<text text-anchor="start" x="8" y="-68.5" font-family="Helvetica,sans-Serif" font-size="10.00">std::shared_ptr&lt; data</text>
<text text-anchor="start" x="8" y="-57.5" font-family="Helvetica,sans-Serif" font-size="10.00">_structures::trie_using</text>
<text text-anchor="middle" x="61" y="-46.5" font-family="Helvetica,sans-Serif" font-size="10.00">_hashmap::Trie::Node &gt;</text>
</a>
</g>
</g>
<!-- Node2&#45;&gt;Node1 -->
<g id="edge1" class="edge">
<title>Node2&#45;&gt;Node1</title>
<path fill="none" stroke="#9a32cd" stroke-dasharray="5,2" d="M131.66,-82.2C160.32,-91.33 192.77,-101.67 218.61,-109.9"/>
<polygon fill="#9a32cd" stroke="#9a32cd" points="132.69,-78.85 122.1,-79.15 130.57,-85.52 132.69,-78.85"/>
<text text-anchor="middle" x="163" y="-101" font-family="Helvetica,sans-Serif" font-size="10.00"> root_node</text>
</g>
<!-- Node4 -->
<g id="node4" class="node">
<title>Node4</title>
<g id="a_node4"><a target="_blank" xlink:href="http://en.cppreference.com/w/cpp/container/unordered_map.html" xlink:title=" ">
<polygon fill="white" stroke="#666666" points="330,-91.5 204,-91.5 204,-28.5 330,-28.5 330,-91.5"/>
<text text-anchor="start" x="212" y="-79.5" font-family="Helvetica,sans-Serif" font-size="10.00">std::unordered_map</text>
<text text-anchor="start" x="212" y="-68.5" font-family="Helvetica,sans-Serif" font-size="10.00">&lt; char16_t, std::shared</text>
<text text-anchor="start" x="212" y="-57.5" font-family="Helvetica,sans-Serif" font-size="10.00">_ptr&lt; data_structures::</text>
<text text-anchor="start" x="212" y="-46.5" font-family="Helvetica,sans-Serif" font-size="10.00">trie_using_hashmap::Trie</text>
<text text-anchor="middle" x="267" y="-35.5" font-family="Helvetica,sans-Serif" font-size="10.00">::Node &gt; &gt;</text>
</a>
</g>
</g>
<!-- Node2&#45;&gt;Node4 -->
<g id="edge4" class="edge">
<title>Node2&#45;&gt;Node4</title>
<path fill="none" stroke="#9a32cd" stroke-dasharray="5,2" d="M132.25,-60C155.52,-60 181.24,-60 203.85,-60"/>
<polygon fill="#9a32cd" stroke="#9a32cd" points="132.1,-56.5 122.1,-60 132.1,-63.5 132.1,-56.5"/>
<text text-anchor="middle" x="163" y="-63" font-family="Helvetica,sans-Serif" font-size="10.00"> elements</text>
</g>
<!-- Node3 -->
<g id="node3" class="node">
<title>Node3</title>
<g id="a_node3"><a xlink:href="../../d5/d12/structdata__structures_1_1trie__using__hashmap_1_1_trie_1_1_node.html" target="_top" xlink:title="struct representing a trie node.">
<polygon fill="white" stroke="#666666" points="545,-30 403,-30 403,0 545,0 545,-30"/>
<text text-anchor="start" x="411" y="-18" font-family="Helvetica,sans-Serif" font-size="10.00">data_structures::trie</text>
<text text-anchor="middle" x="474" y="-7" font-family="Helvetica,sans-Serif" font-size="10.00">_using_hashmap::Trie::Node</text>
</a>
</g>
</g>
<!-- Node3&#45;&gt;Node2 -->
<g id="edge2" class="edge">
<title>Node3&#45;&gt;Node2</title>
<path fill="none" stroke="#9a32cd" stroke-dasharray="5,2" d="M392.59,-4.54C338.8,0.42 266.66,3.11 204,-8 169.88,-14.05 133.19,-27.69 105.66,-39.48"/>
<polygon fill="#9a32cd" stroke="#9a32cd" points="392.47,-8.04 402.76,-5.52 393.14,-1.08 392.47,-8.04"/>
<text text-anchor="middle" x="267" y="-11" font-family="Helvetica,sans-Serif" font-size="10.00"> ptr</text>
</g>
<!-- Node4&#45;&gt;Node3 -->
<g id="edge3" class="edge">
<title>Node4&#45;&gt;Node3</title>
<path fill="none" stroke="#9a32cd" stroke-dasharray="5,2" d="M339.85,-44.23C360.79,-39.63 383.61,-34.62 404.35,-30.07"/>
<polygon fill="#9a32cd" stroke="#9a32cd" points="339.08,-40.81 330.06,-46.38 340.58,-47.65 339.08,-40.81"/>
<text text-anchor="middle" x="366.5" y="-44" font-family="Helvetica,sans-Serif" font-size="10.00"> children</text>
</g>
</g>
</svg>
