<?xml version="1.0" encoding="UTF-8" standalone="no"?>
<!DOCTYPE svg PUBLIC "-//W3C//DTD SVG 1.1//EN"
 "http://www.w3.org/Graphics/SVG/1.1/DTD/svg11.dtd">
<!-- Generated by graphviz version 8.1.0 (20230707.0739)
 -->
<!-- Title: data_structures::trie_using_hashmap::Trie Pages: 1 -->
<!--zoomable 149 -->

<svg id="main" version="1.1" xmlns="http://www.w3.org/2000/svg" xmlns:xlink="http://www.w3.org/1999/xlink" xml:space="preserve" onload="init(evt)">
<style type="text/css"><![CDATA[
.node, .edge {opacity: 0.7;}
.node.selected, .edge.selected {opacity: 1;}
.edge:hover path { stroke: red; }
.edge:hover polygon { stroke: red; fill: red; }
]]></style>

<defs>
  <circle id="rim" cx="0" cy="0" r="7"/>
  <circle id="rim2" cx="0" cy="0" r="3.5"/>
  <g id="zoomPlus">
    <use xlink:href="#rim" fill="#404040"><set attributeName="fill" to="#808080" begin="zoomplus.mouseover" end="zoomplus.mouseout"/></use>
    <path d="M-4,0h8M0,-4v8" fill="none" stroke="white" stroke-width="1.5" pointer-events="none"/>
  </g>
  <g id="zoomMin">
    <use xlink:href="#rim" fill="#404040"><set attributeName="fill" to="#808080" begin="zoomminus.mouseover" end="zoomminus.mouseout"/></use>
    <path d="M-4,0h8" fill="none" stroke="white" stroke-width="1.5" pointer-events="none"/>
  </g>
  <g id="arrowUp" transform="translate(30 24)">
    <use xlink:href="#rim"/>
    <path pointer-events="none" fill="none" stroke="white" stroke-width="1.5" d="M0,-3.0v7 M-2.5,-0.5L0,-3.0L2.5,-0.5"/>
  </g>
  <g id="arrowRight" transform="rotate(90) translate(36 -43)">
    <use xlink:href="#rim"/>
    <path pointer-events="none" fill="none" stroke="white" stroke-width="1.5" d="M0,-3.0v7 M-2.5,-0.5L0,-3.0L2.5,-0.5"/>
  </g>
  <g id="arrowDown" transform="rotate(180) translate(-30 -48)">
    <use xlink:href="#rim"/>
    <path pointer-events="none" fill="none" stroke="white" stroke-width="1.5" d="M0,-3.0v7 M-2.5,-0.5L0,-3.0L2.5,-0.5"/>
  </g>
  <g id="arrowLeft" transform="rotate(270) translate(-36 17)">
    <use xlink:href="#rim"/>
    <path pointer-events="none" fill="none" stroke="white" stroke-width="1.5" d="M0,-3.0v7 M-2.5,-0.5L0,-3.0L2.5,-0.5"/>
  </g>
  <g id="resetDef">
    <use xlink:href="#rim2" fill="#404040"><set attributeName="fill" to="#808080" begin="reset.mouseover" end="reset.mouseout"/></use>
  </g>
</defs>
<script type="application/ecmascript">
var viewWidth = 551;
var viewHeight = 149;
var sectionId = 'dynsection-0';
</script>
<script type="application/ecmascript" xlink:href="../../svg.min.js"/>
<svg id="graph" class="graph">
<g id="viewport">
<title>data_structures::trie_using_hashmap::Trie</title>
<!-- Node1 -->
<g id="Node000001" class="node">
<title>Node1</title>
<g id="a_Node000001"><a xlink:title="Trie class, implementation of trie using hashmap in each trie node for all the characters of char16_t...">
<polygon fill="#999999" stroke="#666666" points="322.25,-140.5 210.25,-140.5 210.25,-110 322.25,-110 322.25,-140.5"/>
<text text-anchor="start" x="218.25" y="-127" font-family="Helvetica,sans-Serif" font-size="10.00">data_structures::trie</text>
<text text-anchor="middle" x="266.25" y="-115.75" font-family="Helvetica,sans-Serif" font-size="10.00">_using_hashmap::Trie</text>
</a>
</g>
</g>
<!-- Node2 -->
<g id="Node000002" class="node">
<title>Node2</title>
<g id="a_Node000002"><a target="_blank" xlink:href="http://en.cppreference.com/w/cpp/memory/shared_ptr.html" xlink:title=" ">
<polygon fill="white" stroke="#666666" points="121.75,-81.12 0,-81.12 0,-39.38 121.75,-39.38 121.75,-81.12"/>
<text text-anchor="start" x="8" y="-67.62" font-family="Helvetica,sans-Serif" font-size="10.00">std::shared_ptr&lt; data</text>
<text text-anchor="start" x="8" y="-56.38" font-family="Helvetica,sans-Serif" font-size="10.00">_structures::trie_using</text>
<text text-anchor="middle" x="60.88" y="-45.12" font-family="Helvetica,sans-Serif" font-size="10.00">_hashmap::Trie::Node &gt;</text>
</a>
</g>
</g>
<!-- Node2&#45;&gt;Node1 -->
<g id="edge1_Node000001_Node000002" class="edge">
<title>Node2&#45;&gt;Node1</title>
<g id="a_edge1_Node000001_Node000002"><a xlink:title=" ">
<path fill="none" stroke="#9a32cd" stroke-dasharray="5,2" d="M132.46,-82.81C160.07,-91.63 191.05,-101.54 216.15,-109.56"/>
<polygon fill="#9a32cd" stroke="#9a32cd" points="133.66,-79.2 123.07,-79.49 131.53,-85.87 133.66,-79.2"/>
</a>
</g>
<text text-anchor="middle" x="162.62" y="-100" font-family="Helvetica,sans-Serif" font-size="10.00" fill="grey"> root_node</text>
</g>
<!-- Node4 -->
<g id="Node000004" class="node">
<title>Node4</title>
<g id="a_Node000004"><a target="_blank" xlink:href="http://en.cppreference.com/w/cpp/container/unordered_map.html" xlink:title=" ">
<polygon fill="white" stroke="#666666" points="329,-92.38 203.5,-92.38 203.5,-28.12 329,-28.12 329,-92.38"/>
<text text-anchor="start" x="211.5" y="-78.88" font-family="Helvetica,sans-Serif" font-size="10.00">std::unordered_map</text>
<text text-anchor="start" x="211.5" y="-67.62" font-family="Helvetica,sans-Serif" font-size="10.00">&lt; char16_t, std::shared</text>
<text text-anchor="start" x="211.5" y="-56.38" font-family="Helvetica,sans-Serif" font-size="10.00">_ptr&lt; data_structures::</text>
<text text-anchor="start" x="211.5" y="-45.12" font-family="Helvetica,sans-Serif" font-size="10.00">trie_using_hashmap::Trie</text>
<text text-anchor="middle" x="266.25" y="-33.88" font-family="Helvetica,sans-Serif" font-size="10.00">::Node &gt; &gt;</text>
</a>
</g>
</g>
<!-- Node2&#45;&gt;Node4 -->
<g id="edge4_Node000004_Node000002" class="edge">
<title>Node2&#45;&gt;Node4</title>
<g id="a_edge4_Node000004_Node000002"><a xlink:title=" ">
<path fill="none" stroke="#9a32cd" stroke-dasharray="5,2" d="M133.07,-60.25C155.89,-60.25 180.97,-60.25 203.09,-60.25"/>
<polygon fill="#9a32cd" stroke="#9a32cd" points="133.07,-56.75 123.07,-60.25 133.07,-63.75 133.07,-56.75"/>
</a>
</g>
<text text-anchor="middle" x="162.62" y="-62" font-family="Helvetica,sans-Serif" font-size="10.00" fill="grey"> elements</text>
</g>
<!-- Node3 -->
<g id="Node000003" class="node">
<title>Node3</title>
<g id="a_Node000003"><a xlink:href="../../d5/d12/structdata__structures_1_1trie__using__hashmap_1_1_trie_1_1_node.html" target="_top" xlink:title="struct representing a trie node.">
<polygon fill="white" stroke="#666666" points="543,-30.5 401.75,-30.5 401.75,0 543,0 543,-30.5"/>
<text text-anchor="start" x="409.75" y="-17" font-family="Helvetica,sans-Serif" font-size="10.00">data_structures::trie</text>
<text text-anchor="middle" x="472.38" y="-5.75" font-family="Helvetica,sans-Serif" font-size="10.00">_using_hashmap::Trie::Node</text>
</a>
</g>
</g>
<!-- Node3&#45;&gt;Node2 -->
<g id="edge2_Node000002_Node000003" class="edge">
<title>Node3&#45;&gt;Node2</title>
<g id="a_edge2_Node000002_Node000003"><a xlink:title=" ">
<path fill="none" stroke="#9a32cd" stroke-dasharray="5,2" d="M390.63,-4.59C337.13,0.4 265.63,3.09 203.5,-8 170.09,-13.97 134.24,-27.27 106.97,-38.95"/>
<polygon fill="#9a32cd" stroke="#9a32cd" points="390.12,-8.16 400.42,-5.65 390.81,-1.19 390.12,-8.16"/>
</a>
</g>
<text text-anchor="middle" x="266.25" y="-9" font-family="Helvetica,sans-Serif" font-size="10.00" fill="grey"> ptr</text>
</g>
<!-- Node4&#45;&gt;Node3 -->
<g id="edge3_Node000003_Node000004" class="edge">
<title>Node4&#45;&gt;Node3</title>
<g id="a_edge3_Node000003_Node000004"><a xlink:title=" ">
<path fill="none" stroke="#9a32cd" stroke-dasharray="5,2" d="M339.92,-44.23C359.92,-39.82 381.55,-35.05 401.39,-30.68"/>
<polygon fill="#9a32cd" stroke="#9a32cd" points="339.34,-40.99 330.33,-46.57 340.84,-47.83 339.34,-40.99"/>
</a>
</g>
<text text-anchor="middle" x="365.38" y="-43" font-family="Helvetica,sans-Serif" font-size="10.00" fill="grey"> children</text>
</g>
</g>
</svg>

<g id="navigator" transform="translate(0 0)" fill="#404254">
  <rect fill="#f2f5e9" fill-opacity="0.5" stroke="#606060" stroke-width=".5" x="0" y="0" width="60" height="60"/>
  <use id="zoomplus" xlink:href="#zoomPlus" x="17" y="9" onmousedown="handleZoom(evt,'in')"/>
  <use id="zoomminus" xlink:href="#zoomMin" x="42" y="9" onmousedown="handleZoom(evt,'out')"/>
  <use id="reset" xlink:href="#resetDef" x="30" y="36" onmousedown="handleReset()"/>
   <use id="arrowup" xlink:href="#arrowUp" x="0" y="0" onmousedown="handlePan(0,-1)"/>
  <use id="arrowright" xlink:href="#arrowRight" x="0" y="0" onmousedown="handlePan(1,0)"/>
  <use id="arrowdown" xlink:href="#arrowDown" x="0" y="0" onmousedown="handlePan(0,1)"/>
  <use id="arrowleft" xlink:href="#arrowLeft" x="0" y="0" onmousedown="handlePan(-1,0)"/>
</g>
<svg viewBox="0 0 15 15" width="100%" height="30px" preserveAspectRatio="xMaxYMin meet">
 <g id="arrow_out" transform="scale(0.3 0.3)">
  <a xlink:href="classdata__structures_1_1trie__using__hashmap_1_1_trie__coll__graph_org.svg" target="_base">
   <rect id="button" ry="5" rx="5" y="6" x="6" height="38" width="38"
        fill="#f2f5e9" fill-opacity="0.5" stroke="#606060" stroke-width="1.0"/>
   <path id="arrow"
     d="M 11.500037,31.436501 C 11.940474,20.09759 22.043105,11.32322 32.158766,21.979434 L 37.068811,17.246167 C 37.068811,17.246167 37.088388,32 37.088388,32 L 22.160133,31.978069 C 22.160133,31.978069 26.997745,27.140456 26.997745,27.140456 C 18.528582,18.264221 13.291696,25.230495 11.500037,31.436501 z"
     style="fill:#404040;"/>
  </a>
 </g>
</svg>

<style type='text/css'>
<![CDATA[
[data-mouse-over-selected='false'] { opacity: 0.7; }
[data-mouse-over-selected='true']  { opacity: 1.0; }
]]>
</style>
<script type="application/ecmascript"><![CDATA[
document.addEventListener('DOMContentLoaded', (event) => {
  highlightEdges();
  highlightAdjacentNodes();
});
]]></script>
</svg>
