<?xml version="1.0" encoding="UTF-8" standalone="no"?>
<!DOCTYPE svg PUBLIC "-//W3C//DTD SVG 1.1//EN"
 "http://www.w3.org/Graphics/SVG/1.1/DTD/svg11.dtd">
<!-- Generated by graphviz version 2.40.1 (20161225.0304)
 -->
<!-- Title: main Pages: 1 -->
<svg width="136pt" height="66pt"
 viewBox="0.00 0.00 136.00 66.00" xmlns="http://www.w3.org/2000/svg" xmlns:xlink="http://www.w3.org/1999/xlink">
<g id="graph0" class="graph" transform="scale(1 1) rotate(0) translate(4 62)">
<title>main</title>
<polygon fill="#ffffff" stroke="transparent" points="-4,4 -4,-62 132,-62 132,4 -4,4"/>
<!-- Node1 -->
<g id="node1" class="node">
<title>Node1</title>
<polygon fill="#bfbfbf" stroke="#000000" points="0,-19.5 0,-38.5 38,-38.5 38,-19.5 0,-19.5"/>
<text text-anchor="middle" x="19" y="-26.5" font-family="Helvetica,sans-Serif" font-size="10.00" fill="#000000">main</text>
</g>
<!-- Node2 -->
<g id="node2" class="node">
<title>Node2</title>
<g id="a_node2"><a xlink:href="../../d4/da0/gcd__iterative__euclidean_8cpp.html#ae48807fa2b7000afae599e67f327545e" target="_top" xlink:title="gcd">
<polygon fill="#ffffff" stroke="#000000" points="85,-38.5 85,-57.5 117,-57.5 117,-38.5 85,-38.5"/>
<text text-anchor="middle" x="101" y="-45.5" font-family="Helvetica,sans-Serif" font-size="10.00" fill="#000000">gcd</text>
</a>
</g>
</g>
<!-- Node1&#45;&gt;Node2 -->
<g id="edge1" class="edge">
<title>Node1&#45;&gt;Node2</title>
<path fill="none" stroke="#191970" d="M38.0186,-33.4067C48.9964,-35.9504 62.9592,-39.1857 74.9469,-41.9633"/>
<polygon fill="#191970" stroke="#191970" points="74.3164,-45.4099 84.8484,-44.2576 75.8965,-38.5905 74.3164,-45.4099"/>
</g>
<!-- Node3 -->
<g id="node3" class="node">
<title>Node3</title>
<g id="a_node3"><a doxygen="/home/runner/work/C-Plus-Plus/C-Plus-Plus/doc/cppreference-doxygen-web.tag.xml:http://en.cppreference.com/w/" xlink:href="http://en.cppreference.com/w/cpp/io/manip/endl.html#" target="_top" xlink:title="std::endl">
<polygon fill="#ffffff" stroke="#000000" points="74,-.5 74,-19.5 128,-19.5 128,-.5 74,-.5"/>
<text text-anchor="middle" x="101" y="-7.5" font-family="Helvetica,sans-Serif" font-size="10.00" fill="#000000">std::endl</text>
</a>
</g>
</g>
<!-- Node1&#45;&gt;Node3 -->
<g id="edge2" class="edge">
<title>Node1&#45;&gt;Node3</title>
<path fill="none" stroke="#191970" d="M38.0186,-24.5933C45.7185,-22.8091 54.8871,-20.6847 63.8126,-18.6166"/>
<polygon fill="#191970" stroke="#191970" points="64.7434,-21.9937 73.6952,-16.3267 63.1632,-15.1744 64.7434,-21.9937"/>
</g>
</g>
</svg>
