<?xml version="1.0" encoding="UTF-8" standalone="no"?>
<!DOCTYPE svg PUBLIC "-//W3C//DTD SVG 1.1//EN"
 "http://www.w3.org/Graphics/SVG/1.1/DTD/svg11.dtd">
<!-- Generated by graphviz version 2.49.3 (20211023.0002)
 -->
<!-- Title: operations_on_datastructures::trie_operations::Tnode::DeleteFrom Pages: 1 -->
<svg width="276pt" height="68pt"
 viewBox="0.00 0.00 276.00 68.00" xmlns="http://www.w3.org/2000/svg" xmlns:xlink="http://www.w3.org/1999/xlink">
<g id="graph0" class="graph" transform="scale(1 1) rotate(0) translate(4 64)">
<title>operations_on_datastructures::trie_operations::Tnode::DeleteFrom</title>
<polygon fill="white" stroke="transparent" points="-4,4 -4,-64 272,-64 272,4 -4,4"/>
<!-- Node1 -->
<g id="node1" class="node">
<title>Node1</title>
<g id="a_node1"><a xlink:title="Function recursively deletes the substring character by character iterating through the string to be ...">
<polygon fill="#bfbfbf" stroke="black" points="0,-0.5 0,-41.5 149,-41.5 149,-0.5 0,-0.5"/>
<text text-anchor="start" x="8" y="-29.5" font-family="Helvetica,sans-Serif" font-size="10.00">operations_on_datastructures</text>
<text text-anchor="start" x="8" y="-18.5" font-family="Helvetica,sans-Serif" font-size="10.00">::trie_operations::Tnode</text>
<text text-anchor="middle" x="74.5" y="-7.5" font-family="Helvetica,sans-Serif" font-size="10.00">::DeleteFrom</text>
</a>
</g>
</g>
<!-- Node1&#45;&gt;Node1 -->
<g id="edge1" class="edge">
<title>Node1&#45;&gt;Node1</title>
<path fill="none" stroke="midnightblue" d="M46.56,-41.86C43.52,-51.54 52.83,-60 74.5,-60 88.04,-60 96.76,-56.7 100.65,-51.86"/>
<polygon fill="midnightblue" stroke="midnightblue" points="104.12,-52.32 102.44,-41.86 97.23,-51.09 104.12,-52.32"/>
</g>
<!-- Node2 -->
<g id="node2" class="node">
<title>Node2</title>
<g id="a_node2"><a target="_blank" xlink:href="http://en.cppreference.com/w/cpp/string/basic_string/size.html#" xlink:title=" ">
<polygon fill="white" stroke="black" points="185,-11.5 185,-30.5 268,-30.5 268,-11.5 185,-11.5"/>
<text text-anchor="middle" x="226.5" y="-18.5" font-family="Helvetica,sans-Serif" font-size="10.00">std::string::size</text>
</a>
</g>
</g>
<!-- Node1&#45;&gt;Node2 -->
<g id="edge2" class="edge">
<title>Node1&#45;&gt;Node2</title>
<path fill="none" stroke="midnightblue" d="M149.18,-21C157.83,-21 166.5,-21 174.73,-21"/>
<polygon fill="midnightblue" stroke="midnightblue" points="174.9,-24.5 184.9,-21 174.9,-17.5 174.9,-24.5"/>
</g>
</g>
</svg>
