<?xml version="1.0" encoding="UTF-8" standalone="no"?>
<!DOCTYPE svg PUBLIC "-//W3C//DTD SVG 1.1//EN"
 "http://www.w3.org/Graphics/SVG/1.1/DTD/svg11.dtd">
<!-- Generated by graphviz version 2.49.3 (20211023.0002)
 -->
<!-- Title: operations_on_datastructures::trie_operations::Tnode::numberOfChildren Pages: 1 -->
<svg width="253pt" height="50pt"
 viewBox="0.00 0.00 253.00 50.00" xmlns="http://www.w3.org/2000/svg" xmlns:xlink="http://www.w3.org/1999/xlink">
<g id="graph0" class="graph" transform="scale(1 1) rotate(0) translate(4 46)">
<title>operations_on_datastructures::trie_operations::Tnode::numberOfChildren</title>
<polygon fill="white" stroke="transparent" points="-4,4 -4,-46 249,-46 249,4 -4,4"/>
<!-- Node1 -->
<g id="node1" class="node">
<title>Node1</title>
<g id="a_node1"><a xlink:title="Function to count the number of children a node in the trie has.">
<polygon fill="#bfbfbf" stroke="black" points="0,-0.5 0,-41.5 149,-41.5 149,-0.5 0,-0.5"/>
<text text-anchor="start" x="8" y="-29.5" font-family="Helvetica,sans-Serif" font-size="10.00">operations_on_datastructures</text>
<text text-anchor="start" x="8" y="-18.5" font-family="Helvetica,sans-Serif" font-size="10.00">::trie_operations::Tnode</text>
<text text-anchor="middle" x="74.5" y="-7.5" font-family="Helvetica,sans-Serif" font-size="10.00">::numberOfChildren</text>
</a>
</g>
</g>
<!-- Node2 -->
<g id="node2" class="node">
<title>Node2</title>
<g id="a_node2"><a target="_blank" xlink:href="http://en.cppreference.com/w/cpp/algorithm/count.html#" xlink:title=" ">
<polygon fill="white" stroke="black" points="185,-11.5 185,-30.5 245,-30.5 245,-11.5 185,-11.5"/>
<text text-anchor="middle" x="215" y="-18.5" font-family="Helvetica,sans-Serif" font-size="10.00">std::count</text>
</a>
</g>
</g>
<!-- Node1&#45;&gt;Node2 -->
<g id="edge1" class="edge">
<title>Node1&#45;&gt;Node2</title>
<path fill="none" stroke="midnightblue" d="M149.21,-21C158.01,-21 166.72,-21 174.76,-21"/>
<polygon fill="midnightblue" stroke="midnightblue" points="174.89,-24.5 184.89,-21 174.89,-17.5 174.89,-24.5"/>
</g>
</g>
</svg>
