<?xml version="1.0" encoding="UTF-8" standalone="no"?>
<!DOCTYPE svg PUBLIC "-//W3C//DTD SVG 1.1//EN"
 "http://www.w3.org/Graphics/SVG/1.1/DTD/svg11.dtd">
<!-- Generated by graphviz version 7.0.4 (20221203.1631)
 -->
<!-- Title: operations_on_datastructures::trie_operations::Tnode::SearchFreqSuggestions Pages: 1 -->
<svg width="451pt" height="140pt"
 viewBox="0.00 0.00 451.00 140.16" xmlns="http://www.w3.org/2000/svg" xmlns:xlink="http://www.w3.org/1999/xlink">
<g id="graph0" class="graph" transform="scale(1 1) rotate(0) translate(4 136.16)">
<title>operations_on_datastructures::trie_operations::Tnode::SearchFreqSuggestions</title>
<!-- Node1 -->
<g id="node1" class="node">
<title>Node1</title>
<g id="a_node1"><a xlink:title="Lists out the most frequent words in trie with the longest prefix of the search key that is present i...">
<polygon fill="#999999" stroke="#666666" points="145,-118 0,-118 0,-77 145,-77 145,-118"/>
<text text-anchor="start" x="8" y="-106" font-family="Helvetica,sans-Serif" font-size="10.00">operations_on_datastructures</text>
<text text-anchor="start" x="8" y="-95" font-family="Helvetica,sans-Serif" font-size="10.00">::trie_operations::Tnode</text>
<text text-anchor="middle" x="72.5" y="-84" font-family="Helvetica,sans-Serif" font-size="10.00">::SearchFreqSuggestions</text>
</a>
</g>
</g>
<!-- Node2 -->
<g id="node2" class="node">
<title>Node2</title>
<g id="a_node2"><a target="_blank" xlink:href="http://en.cppreference.com/w/cpp/io/manip/endl.html#" xlink:title=" ">
<polygon fill="white" stroke="#666666" points="429.5,-131 375.5,-131 375.5,-112 429.5,-112 429.5,-131"/>
<text text-anchor="middle" x="402.5" y="-119" font-family="Helvetica,sans-Serif" font-size="10.00">std::endl</text>
</a>
</g>
</g>
<!-- Node1&#45;&gt;Node2 -->
<g id="edge1" class="edge">
<title>Node1&#45;&gt;Node2</title>
<path fill="none" stroke="#63b8ff" d="M137.71,-118.48C151.82,-122.23 166.79,-125.55 181,-127.5 244.85,-136.24 261.61,-130.05 326,-127.5 338.45,-127.01 352.02,-126.06 364.18,-125.06"/>
<polygon fill="#63b8ff" stroke="#63b8ff" points="364.15,-128.57 373.82,-124.22 363.55,-121.6 364.15,-128.57"/>
</g>
<!-- Node3 -->
<g id="node3" class="node">
<title>Node3</title>
<g id="a_node3"><a xlink:href="../../d0/d5f/classoperations__on__datastructures_1_1trie__operations_1_1_tnode.html#aacafb8c9f3ebac7ac6c01d9645bb67b6" target="_top" xlink:title="Function to display the 3 suggestions with highest frequency of search hits.">
<polygon fill="white" stroke="#666666" points="326,-118 181,-118 181,-77 326,-77 326,-118"/>
<text text-anchor="start" x="189" y="-106" font-family="Helvetica,sans-Serif" font-size="10.00">operations_on_datastructures</text>
<text text-anchor="start" x="189" y="-95" font-family="Helvetica,sans-Serif" font-size="10.00">::trie_operations::Tnode</text>
<text text-anchor="middle" x="253.5" y="-84" font-family="Helvetica,sans-Serif" font-size="10.00">::SelectionTop_3</text>
</a>
</g>
</g>
<!-- Node1&#45;&gt;Node3 -->
<g id="edge2" class="edge">
<title>Node1&#45;&gt;Node3</title>
<path fill="none" stroke="#63b8ff" d="M145.27,-97.5C153.21,-97.5 161.33,-97.5 169.39,-97.5"/>
<polygon fill="#63b8ff" stroke="#63b8ff" points="169.2,-101 179.2,-97.5 169.2,-94 169.2,-101"/>
</g>
<!-- Node4 -->
<g id="node4" class="node">
<title>Node4</title>
<g id="a_node4"><a xlink:href="../../d0/d5f/classoperations__on__datastructures_1_1trie__operations_1_1_tnode.html#a9e556f52c837190ecf4265b1f05cfe9c" target="_top" xlink:title="Recursive function to suggest most frequently searched entries of trie which have a given common pref...">
<polygon fill="white" stroke="#666666" points="326,-41 181,-41 181,0 326,0 326,-41"/>
<text text-anchor="start" x="189" y="-29" font-family="Helvetica,sans-Serif" font-size="10.00">operations_on_datastructures</text>
<text text-anchor="start" x="189" y="-18" font-family="Helvetica,sans-Serif" font-size="10.00">::trie_operations::Tnode</text>
<text text-anchor="middle" x="253.5" y="-7" font-family="Helvetica,sans-Serif" font-size="10.00">::SuggestFreqAutocomplete</text>
</a>
</g>
</g>
<!-- Node1&#45;&gt;Node4 -->
<g id="edge4" class="edge">
<title>Node1&#45;&gt;Node4</title>
<path fill="none" stroke="#63b8ff" d="M121.94,-76.66C143.94,-67.2 170.16,-55.92 193.31,-45.96"/>
<polygon fill="#63b8ff" stroke="#63b8ff" points="194.52,-49.25 202.32,-42.09 191.75,-42.82 194.52,-49.25"/>
</g>
<!-- Node3&#45;&gt;Node2 -->
<g id="edge3" class="edge">
<title>Node3&#45;&gt;Node2</title>
<path fill="none" stroke="#63b8ff" d="M326.28,-109.22C339.26,-111.34 352.31,-113.47 363.82,-115.35"/>
<polygon fill="#63b8ff" stroke="#63b8ff" points="363.25,-118.8 373.68,-116.96 364.38,-111.89 363.25,-118.8"/>
</g>
<!-- Node4&#45;&gt;Node4 -->
<g id="edge6" class="edge">
<title>Node4&#45;&gt;Node4</title>
<path fill="none" stroke="#63b8ff" d="M226,-41.49C223.38,-50.88 232.55,-59 253.5,-59 265.61,-59 273.79,-56.29 278.02,-52.18"/>
<polygon fill="#63b8ff" stroke="#63b8ff" points="281.28,-53.52 280.59,-42.95 274.54,-51.64 281.28,-53.52"/>
</g>
<!-- Node5 -->
<g id="node5" class="node">
<title>Node5</title>
<g id="a_node5"><a target="_blank" xlink:href="http://en.cppreference.com/w/cpp/utility/pair/make_pair.html#" xlink:title=" ">
<polygon fill="white" stroke="#666666" points="443,-30 362,-30 362,-11 443,-11 443,-30"/>
<text text-anchor="middle" x="402.5" y="-18" font-family="Helvetica,sans-Serif" font-size="10.00">std::make_pair</text>
</a>
</g>
</g>
<!-- Node4&#45;&gt;Node5 -->
<g id="edge5" class="edge">
<title>Node4&#45;&gt;Node5</title>
<path fill="none" stroke="#63b8ff" d="M326.28,-20.5C334.41,-20.5 342.57,-20.5 350.36,-20.5"/>
<polygon fill="#63b8ff" stroke="#63b8ff" points="350.33,-24 360.33,-20.5 350.33,-17 350.33,-24"/>
</g>
</g>
</svg>
