<?xml version="1.0" encoding="UTF-8" standalone="no"?>
<!DOCTYPE svg PUBLIC "-//W3C//DTD SVG 1.1//EN"
 "http://www.w3.org/Graphics/SVG/1.1/DTD/svg11.dtd">
<!-- Generated by graphviz version 7.0.6 (20230106.0513)
 -->
<!-- Title: operations_on_datastructures::trie_operations::Tnode::Delete Pages: 1 -->
<svg width="454pt" height="202pt"
 viewBox="0.00 0.00 454.00 202.00" xmlns="http://www.w3.org/2000/svg" xmlns:xlink="http://www.w3.org/1999/xlink">
<g id="graph0" class="graph" transform="scale(1 1) rotate(0) translate(4 198)">
<title>operations_on_datastructures::trie_operations::Tnode::Delete</title>
<!-- Node1 -->
<g id="node1" class="node">
<title>Node1</title>
<g id="a_node1"><a xlink:title="Function to verify presence and hence delete an entry from the trie.">
<polygon fill="#999999" stroke="#666666" points="145,-108 0,-108 0,-67 145,-67 145,-108"/>
<text text-anchor="start" x="8" y="-96" font-family="Helvetica,sans-Serif" font-size="10.00">operations_on_datastructures</text>
<text text-anchor="start" x="8" y="-85" font-family="Helvetica,sans-Serif" font-size="10.00">::trie_operations::Tnode</text>
<text text-anchor="middle" x="72.5" y="-74" font-family="Helvetica,sans-Serif" font-size="10.00">::Delete</text>
</a>
</g>
</g>
<!-- Node2 -->
<g id="node2" class="node">
<title>Node2</title>
<g id="a_node2"><a xlink:href="../../d0/d5f/classoperations__on__datastructures_1_1trie__operations_1_1_tnode.html#adef6940391f981ab86767775176b7169" target="_top" xlink:title="Function recursively deletes the substring character by character iterating through the string to be ...">
<polygon fill="white" stroke="#666666" points="326,-176 181,-176 181,-135 326,-135 326,-176"/>
<text text-anchor="start" x="189" y="-164" font-family="Helvetica,sans-Serif" font-size="10.00">operations_on_datastructures</text>
<text text-anchor="start" x="189" y="-153" font-family="Helvetica,sans-Serif" font-size="10.00">::trie_operations::Tnode</text>
<text text-anchor="middle" x="253.5" y="-142" font-family="Helvetica,sans-Serif" font-size="10.00">::DeleteFrom</text>
</a>
</g>
</g>
<!-- Node1&#45;&gt;Node2 -->
<g id="edge1" class="edge">
<title>Node1&#45;&gt;Node2</title>
<path fill="none" stroke="#63b8ff" d="M128.67,-108.46C147.04,-115.44 167.69,-123.28 186.79,-130.54"/>
<polygon fill="#63b8ff" stroke="#63b8ff" points="185.51,-133.8 196.1,-134.07 188,-127.25 185.51,-133.8"/>
</g>
<!-- Node3 -->
<g id="node3" class="node">
<title>Node3</title>
<g id="a_node3"><a target="_blank" xlink:href="http://en.cppreference.com/w/cpp/string/basic_string/size.html#" xlink:title=" ">
<polygon fill="white" stroke="#666666" points="446,-140 362,-140 362,-121 446,-121 446,-140"/>
<text text-anchor="middle" x="404" y="-128" font-family="Helvetica,sans-Serif" font-size="10.00">std::string::size</text>
</a>
</g>
</g>
<!-- Node1&#45;&gt;Node3 -->
<g id="edge7" class="edge">
<title>Node1&#45;&gt;Node3</title>
<path fill="none" stroke="#63b8ff" d="M145.4,-96.88C207.28,-104.96 295.09,-116.42 350.54,-123.65"/>
<polygon fill="#63b8ff" stroke="#63b8ff" points="349.99,-127.11 360.36,-124.94 350.89,-120.17 349.99,-127.11"/>
</g>
<!-- Node4 -->
<g id="node4" class="node">
<title>Node4</title>
<g id="a_node4"><a target="_blank" xlink:href="http://en.cppreference.com/w/cpp/io/manip/endl.html#" xlink:title=" ">
<polygon fill="white" stroke="#666666" points="280.5,-78 226.5,-78 226.5,-59 280.5,-59 280.5,-78"/>
<text text-anchor="middle" x="253.5" y="-66" font-family="Helvetica,sans-Serif" font-size="10.00">std::endl</text>
</a>
</g>
</g>
<!-- Node1&#45;&gt;Node4 -->
<g id="edge4" class="edge">
<title>Node1&#45;&gt;Node4</title>
<path fill="none" stroke="#63b8ff" d="M145.27,-79.88C169.18,-77.34 194.84,-74.62 215.06,-72.47"/>
<polygon fill="#63b8ff" stroke="#63b8ff" points="215.21,-75.98 224.78,-71.44 214.47,-69.02 215.21,-75.98"/>
</g>
<!-- Node5 -->
<g id="node5" class="node">
<title>Node5</title>
<g id="a_node5"><a xlink:href="../../d0/d5f/classoperations__on__datastructures_1_1trie__operations_1_1_tnode.html#afca808362c13273ca8c8ae7d58e8eee0" target="_top" xlink:title="Function to count the number of children a node in the trie has.">
<polygon fill="white" stroke="#666666" points="326,-41 181,-41 181,0 326,0 326,-41"/>
<text text-anchor="start" x="189" y="-29" font-family="Helvetica,sans-Serif" font-size="10.00">operations_on_datastructures</text>
<text text-anchor="start" x="189" y="-18" font-family="Helvetica,sans-Serif" font-size="10.00">::trie_operations::Tnode</text>
<text text-anchor="middle" x="253.5" y="-7" font-family="Helvetica,sans-Serif" font-size="10.00">::numberOfChildren</text>
</a>
</g>
</g>
<!-- Node1&#45;&gt;Node5 -->
<g id="edge5" class="edge">
<title>Node1&#45;&gt;Node5</title>
<path fill="none" stroke="#63b8ff" d="M129.16,-66.67C147.17,-59.93 167.33,-52.38 186.05,-45.37"/>
<polygon fill="#63b8ff" stroke="#63b8ff" points="187.01,-48.75 195.15,-41.96 184.56,-42.19 187.01,-48.75"/>
</g>
<!-- Node2&#45;&gt;Node2 -->
<g id="edge2" class="edge">
<title>Node2&#45;&gt;Node2</title>
<path fill="none" stroke="#63b8ff" d="M225.72,-176.49C223.08,-185.88 232.34,-194 253.5,-194 265.74,-194 273.99,-191.29 278.27,-187.18"/>
<polygon fill="#63b8ff" stroke="#63b8ff" points="281.53,-188.52 280.87,-177.95 274.79,-186.62 281.53,-188.52"/>
</g>
<!-- Node2&#45;&gt;Node3 -->
<g id="edge3" class="edge">
<title>Node2&#45;&gt;Node3</title>
<path fill="none" stroke="#63b8ff" d="M326.14,-143.44C334.31,-142.06 342.53,-140.68 350.39,-139.36"/>
<polygon fill="#63b8ff" stroke="#63b8ff" points="350.83,-142.83 360.11,-137.72 349.67,-135.93 350.83,-142.83"/>
</g>
<!-- Node6 -->
<g id="node6" class="node">
<title>Node6</title>
<g id="a_node6"><a target="_blank" xlink:href="http://en.cppreference.com/w/cpp/algorithm/count.html#" xlink:title=" ">
<polygon fill="white" stroke="#666666" points="434,-30 374,-30 374,-11 434,-11 434,-30"/>
<text text-anchor="middle" x="404" y="-18" font-family="Helvetica,sans-Serif" font-size="10.00">std::count</text>
</a>
</g>
</g>
<!-- Node5&#45;&gt;Node6 -->
<g id="edge6" class="edge">
<title>Node5&#45;&gt;Node6</title>
<path fill="none" stroke="#63b8ff" d="M326.14,-20.5C338.58,-20.5 351.12,-20.5 362.36,-20.5"/>
<polygon fill="#63b8ff" stroke="#63b8ff" points="362.02,-24 372.02,-20.5 362.02,-17 362.02,-24"/>
</g>
</g>
</svg>
