<?xml version="1.0" encoding="UTF-8" standalone="no"?>
<!DOCTYPE svg PUBLIC "-//W3C//DTD SVG 1.1//EN"
 "http://www.w3.org/Graphics/SVG/1.1/DTD/svg11.dtd">
<!-- Generated by graphviz version 5.0.0 (20220707.1540)
 -->
<!-- Title: tests Pages: 1 -->
<svg width="136pt" height="142pt"
 viewBox="0.00 0.00 136.00 142.00" xmlns="http://www.w3.org/2000/svg" xmlns:xlink="http://www.w3.org/1999/xlink">
<g id="graph0" class="graph" transform="scale(1 1) rotate(0) translate(4 138)">
<title>tests</title>
<polygon fill="white" stroke="transparent" points="-4,4 -4,-138 132,-138 132,4 -4,4"/>
<!-- Node1 -->
<g id="node1" class="node">
<title>Node1</title>
<g id="a_node1"><a xlink:title="Self&#45;test implementations.">
<polygon fill="#bfbfbf" stroke="black" points="0,-57.5 0,-76.5 38,-76.5 38,-57.5 0,-57.5"/>
<text text-anchor="middle" x="19" y="-64.5" font-family="Helvetica,sans-Serif" font-size="10.00">tests</text>
</a>
</g>
</g>
<!-- Node2 -->
<g id="node2" class="node">
<title>Node2</title>
<g id="a_node2"><a target="_blank" xlink:href="http://en.cppreference.com/w/cpp/io/manip/endl.html#" xlink:title=" ">
<polygon fill="white" stroke="black" points="74,-114.5 74,-133.5 128,-133.5 128,-114.5 74,-114.5"/>
<text text-anchor="middle" x="101" y="-121.5" font-family="Helvetica,sans-Serif" font-size="10.00">std::endl</text>
</a>
</g>
</g>
<!-- Node1&#45;&gt;Node2 -->
<g id="edge1" class="edge">
<title>Node1&#45;&gt;Node2</title>
<path fill="none" stroke="midnightblue" d="M33.57,-76.67C45.83,-85.4 64.08,-98.4 78.35,-108.57"/>
<polygon fill="midnightblue" stroke="midnightblue" points="76.45,-111.52 86.63,-114.47 80.52,-105.82 76.45,-111.52"/>
</g>
<!-- Node3 -->
<g id="node3" class="node">
<title>Node3</title>
<g id="a_node3"><a xlink:href="../../dc/de1/recursive__tree__traversal_8cpp.html#a1440a7779ac56f47a3f355ce4a8c7da0" target="_top" xlink:title="1st test&#45;case">
<polygon fill="white" stroke="black" points="82,-76.5 82,-95.5 120,-95.5 120,-76.5 82,-76.5"/>
<text text-anchor="middle" x="101" y="-83.5" font-family="Helvetica,sans-Serif" font-size="10.00">test1</text>
</a>
</g>
</g>
<!-- Node1&#45;&gt;Node3 -->
<g id="edge2" class="edge">
<title>Node1&#45;&gt;Node3</title>
<path fill="none" stroke="midnightblue" d="M38.15,-71.31C48.18,-73.69 60.84,-76.7 72.1,-79.37"/>
<polygon fill="midnightblue" stroke="midnightblue" points="71.38,-82.8 81.92,-81.71 73,-75.99 71.38,-82.8"/>
</g>
<!-- Node4 -->
<g id="node4" class="node">
<title>Node4</title>
<g id="a_node4"><a xlink:href="../../dc/de1/recursive__tree__traversal_8cpp.html#a0283886819c7c140a023582b7269e2d0" target="_top" xlink:title="2nd test&#45;case">
<polygon fill="white" stroke="black" points="82,-38.5 82,-57.5 120,-57.5 120,-38.5 82,-38.5"/>
<text text-anchor="middle" x="101" y="-45.5" font-family="Helvetica,sans-Serif" font-size="10.00">test2</text>
</a>
</g>
</g>
<!-- Node1&#45;&gt;Node4 -->
<g id="edge3" class="edge">
<title>Node1&#45;&gt;Node4</title>
<path fill="none" stroke="midnightblue" d="M38.15,-62.69C48.18,-60.31 60.84,-57.3 72.1,-54.63"/>
<polygon fill="midnightblue" stroke="midnightblue" points="73,-58.01 81.92,-52.29 71.38,-51.2 73,-58.01"/>
</g>
<!-- Node5 -->
<g id="node5" class="node">
<title>Node5</title>
<g id="a_node5"><a xlink:href="../../dc/de1/recursive__tree__traversal_8cpp.html#a6d0455dd5c30adda100e95f0423c786e" target="_top" xlink:title="3rd test&#45;case">
<polygon fill="white" stroke="black" points="82,-0.5 82,-19.5 120,-19.5 120,-0.5 82,-0.5"/>
<text text-anchor="middle" x="101" y="-7.5" font-family="Helvetica,sans-Serif" font-size="10.00">test3</text>
</a>
</g>
</g>
<!-- Node1&#45;&gt;Node5 -->
<g id="edge4" class="edge">
<title>Node1&#45;&gt;Node5</title>
<path fill="none" stroke="midnightblue" d="M33.57,-57.33C45.83,-48.6 64.08,-35.6 78.35,-25.43"/>
<polygon fill="midnightblue" stroke="midnightblue" points="80.52,-28.18 86.63,-19.53 76.45,-22.48 80.52,-28.18"/>
</g>
</g>
</svg>
