<?xml version="1.0" encoding="UTF-8" standalone="no"?>
<!DOCTYPE svg PUBLIC "-//W3C//DTD SVG 1.1//EN"
 "http://www.w3.org/Graphics/SVG/1.1/DTD/svg11.dtd">
<!-- Generated by graphviz version 5.0.1 (20220820.1526)
 -->
<!-- Title: graph/hopcroft_karp.cpp Pages: 1 -->
<svg width="435pt" height="82pt"
 viewBox="0.00 0.00 434.50 82.00" xmlns="http://www.w3.org/2000/svg" xmlns:xlink="http://www.w3.org/1999/xlink">
<g id="graph0" class="graph" transform="scale(1 1) rotate(0) translate(4 78)">
<title>graph/hopcroft_karp.cpp</title>
<!-- Node1 -->
<g id="node1" class="node">
<title>Node1</title>
<g id="a_node1"><a xlink:title="Implementation of Hopcroft–Karp algorithm.">
<polygon fill="#999999" stroke="#666666" points="272,-74 150,-74 150,-55 272,-55 272,-74"/>
<text text-anchor="middle" x="211" y="-62" font-family="Helvetica,sans-Serif" font-size="10.00">graph/hopcroft_karp.cpp</text>
</a>
</g>
</g>
<!-- Node2 -->
<g id="node2" class="node">
<title>Node2</title>
<g id="a_node2"><a xlink:title=" ">
<polygon fill="#e0e0e0" stroke="#999999" points="54,-19 0,-19 0,0 54,0 54,-19"/>
<text text-anchor="middle" x="27" y="-7" font-family="Helvetica,sans-Serif" font-size="10.00">iostream</text>
</a>
</g>
</g>
<!-- Node1&#45;&gt;Node2 -->
<g id="edge1" class="edge">
<title>Node1&#45;&gt;Node2</title>
<path fill="none" stroke="#63b8ff" d="M181.44,-54.98C149.45,-45.77 98.38,-31.06 63.81,-21.1"/>
<polygon fill="#63b8ff" stroke="#63b8ff" points="64.67,-17.71 54.09,-18.3 62.73,-24.43 64.67,-17.71"/>
</g>
<!-- Node3 -->
<g id="node3" class="node">
<title>Node3</title>
<g id="a_node3"><a xlink:title=" ">
<polygon fill="#e0e0e0" stroke="#999999" points="117.5,-19 72.5,-19 72.5,0 117.5,0 117.5,-19"/>
<text text-anchor="middle" x="95" y="-7" font-family="Helvetica,sans-Serif" font-size="10.00">cstdlib</text>
</a>
</g>
</g>
<!-- Node1&#45;&gt;Node3 -->
<g id="edge2" class="edge">
<title>Node1&#45;&gt;Node3</title>
<path fill="none" stroke="#63b8ff" d="M192.36,-54.98C173.7,-46.46 144.75,-33.23 123.26,-23.41"/>
<polygon fill="#63b8ff" stroke="#63b8ff" points="124.53,-20.14 113.98,-19.17 121.62,-26.51 124.53,-20.14"/>
</g>
<!-- Node4 -->
<g id="node4" class="node">
<title>Node4</title>
<g id="a_node4"><a xlink:title=" ">
<polygon fill="#e0e0e0" stroke="#999999" points="178.5,-19 135.5,-19 135.5,0 178.5,0 178.5,-19"/>
<text text-anchor="middle" x="157" y="-7" font-family="Helvetica,sans-Serif" font-size="10.00">queue</text>
</a>
</g>
</g>
<!-- Node1&#45;&gt;Node4 -->
<g id="edge3" class="edge">
<title>Node1&#45;&gt;Node4</title>
<path fill="none" stroke="#63b8ff" d="M202.08,-54.75C194.22,-47.03 182.57,-35.6 173.08,-26.28"/>
<polygon fill="#63b8ff" stroke="#63b8ff" points="175.34,-23.6 165.75,-19.09 170.44,-28.59 175.34,-23.6"/>
</g>
<!-- Node5 -->
<g id="node5" class="node">
<title>Node5</title>
<g id="a_node5"><a xlink:title=" ">
<polygon fill="#e0e0e0" stroke="#999999" points="225.5,-19 196.5,-19 196.5,0 225.5,0 225.5,-19"/>
<text text-anchor="middle" x="211" y="-7" font-family="Helvetica,sans-Serif" font-size="10.00">list</text>
</a>
</g>
</g>
<!-- Node1&#45;&gt;Node5 -->
<g id="edge4" class="edge">
<title>Node1&#45;&gt;Node5</title>
<path fill="none" stroke="#63b8ff" d="M211,-54.75C211,-47.8 211,-37.85 211,-29.13"/>
<polygon fill="#63b8ff" stroke="#63b8ff" points="214.5,-29.09 211,-19.09 207.5,-29.09 214.5,-29.09"/>
</g>
<!-- Node6 -->
<g id="node6" class="node">
<title>Node6</title>
<g id="a_node6"><a xlink:title=" ">
<polygon fill="#e0e0e0" stroke="#999999" points="288.5,-19 243.5,-19 243.5,0 288.5,0 288.5,-19"/>
<text text-anchor="middle" x="266" y="-7" font-family="Helvetica,sans-Serif" font-size="10.00">climits</text>
</a>
</g>
</g>
<!-- Node1&#45;&gt;Node6 -->
<g id="edge5" class="edge">
<title>Node1&#45;&gt;Node6</title>
<path fill="none" stroke="#63b8ff" d="M220.08,-54.75C228.09,-47.03 239.96,-35.6 249.62,-26.28"/>
<polygon fill="#63b8ff" stroke="#63b8ff" points="252.31,-28.55 257.09,-19.09 247.46,-23.51 252.31,-28.55"/>
</g>
<!-- Node7 -->
<g id="node7" class="node">
<title>Node7</title>
<g id="a_node7"><a xlink:title=" ">
<polygon fill="#e0e0e0" stroke="#999999" points="359,-19 307,-19 307,0 359,0 359,-19"/>
<text text-anchor="middle" x="333" y="-7" font-family="Helvetica,sans-Serif" font-size="10.00">memory</text>
</a>
</g>
</g>
<!-- Node1&#45;&gt;Node7 -->
<g id="edge6" class="edge">
<title>Node1&#45;&gt;Node7</title>
<path fill="none" stroke="#63b8ff" d="M230.6,-54.98C250.32,-46.42 280.95,-33.11 303.58,-23.28"/>
<polygon fill="#63b8ff" stroke="#63b8ff" points="305.26,-26.37 313.04,-19.17 302.48,-19.94 305.26,-26.37"/>
</g>
<!-- Node8 -->
<g id="node8" class="node">
<title>Node8</title>
<g id="a_node8"><a xlink:title=" ">
<polygon fill="#e0e0e0" stroke="#999999" points="426.5,-19 377.5,-19 377.5,0 426.5,0 426.5,-19"/>
<text text-anchor="middle" x="402" y="-7" font-family="Helvetica,sans-Serif" font-size="10.00">cassert</text>
</a>
</g>
</g>
<!-- Node1&#45;&gt;Node8 -->
<g id="edge7" class="edge">
<title>Node1&#45;&gt;Node8</title>
<path fill="none" stroke="#63b8ff" d="M241.69,-54.98C276.05,-45.45 331.6,-30.03 367.46,-20.09"/>
<polygon fill="#63b8ff" stroke="#63b8ff" points="368.76,-23.36 377.46,-17.31 366.89,-16.61 368.76,-23.36"/>
</g>
</g>
</svg>
