<?xml version="1.0" encoding="UTF-8" standalone="no"?>
<!DOCTYPE svg PUBLIC "-//W3C//DTD SVG 1.1//EN"
 "http://www.w3.org/Graphics/SVG/1.1/DTD/svg11.dtd">
<!-- Generated by graphviz version 8.1.0 (20230707.0739)
 -->
<!-- Title: get_min_2d Pages: 1 -->
<svg width="201pt" height="138pt"
 viewBox="0.00 0.00 201.25 138.25" xmlns="http://www.w3.org/2000/svg" xmlns:xlink="http://www.w3.org/1999/xlink">

<svg id="main" version="1.1" xmlns="http://www.w3.org/2000/svg" xmlns:xlink="http://www.w3.org/1999/xlink" xml:space="preserve" onload="init(evt)">
<style type="text/css"><![CDATA[
.node, .edge {opacity: 0.7;}
.node.selected, .edge.selected {opacity: 1;}
.edge:hover path { stroke: red; }
.edge:hover polygon { stroke: red; fill: red; }
]]></style>
<script type="application/ecmascript" xlink:href="../../svg.min.js"/>
<svg id="graph" class="graph">
<g id="graph0" class="graph" transform="scale(1 1) rotate(0) translate(4 134.25)">
<title>get_min_2d</title>
<!-- Node1 -->
<g id="Node000001" class="node">
<title>Node1</title>
<g id="a_Node000001"><a xlink:title=" ">
<polygon fill="#999999" stroke="#666666" points="66.25,-74.25 0,-74.25 0,-55 66.25,-55 66.25,-74.25"/>
<text text-anchor="middle" x="33.12" y="-60.75" font-family="Helvetica,sans-Serif" font-size="10.00">get_min_2d</text>
</a>
</g>
</g>
<!-- Node2 -->
<g id="Node000002" class="node">
<title>Node2</title>
<g id="a_Node000002"><a target="_blank" xlink:href="http://en.cppreference.com/w/cpp/iterator/begin.html#" xlink:title=" ">
<polygon fill="white" stroke="#666666" points="177.12,-130.25 118.38,-130.25 118.38,-111 177.12,-111 177.12,-130.25"/>
<text text-anchor="middle" x="147.75" y="-116.75" font-family="Helvetica,sans-Serif" font-size="10.00">std::begin</text>
</a>
</g>
</g>
<!-- Node1&#45;&gt;Node2 -->
<g id="edge1_Node000001_Node000002" class="edge">
<title>Node1&#45;&gt;Node2</title>
<g id="a_edge1_Node000001_Node000002"><a xlink:title=" ">
<path fill="none" stroke="#63b8ff" d="M50.89,-74.75C64.5,-82.77 84.29,-94.03 102.25,-102.62 105,-103.94 107.87,-105.25 110.77,-106.52"/>
<polygon fill="#63b8ff" stroke="#63b8ff" points="109.06,-110.02 119.63,-110.69 111.78,-103.57 109.06,-110.02"/>
</a>
</g>
</g>
<!-- Node3 -->
<g id="Node000003" class="node">
<title>Node3</title>
<g id="a_Node000003"><a target="_blank" xlink:href="http://en.cppreference.com/w/cpp/iterator/distance.html#" xlink:title=" ">
<polygon fill="white" stroke="#666666" points="183.88,-93.25 111.62,-93.25 111.62,-74 183.88,-74 183.88,-93.25"/>
<text text-anchor="middle" x="147.75" y="-79.75" font-family="Helvetica,sans-Serif" font-size="10.00">std::distance</text>
</a>
</g>
</g>
<!-- Node1&#45;&gt;Node3 -->
<g id="edge2_Node000001_Node000003" class="edge">
<title>Node1&#45;&gt;Node3</title>
<g id="a_edge2_Node000001_Node000003"><a xlink:title=" ">
<path fill="none" stroke="#63b8ff" d="M66.7,-70.12C77.33,-71.91 89.35,-73.94 100.78,-75.87"/>
<polygon fill="#63b8ff" stroke="#63b8ff" points="100.05,-79.46 110.49,-77.68 101.21,-72.56 100.05,-79.46"/>
</a>
</g>
</g>
<!-- Node4 -->
<g id="Node000004" class="node">
<title>Node4</title>
<g id="a_Node000004"><a target="_blank" xlink:href="http://en.cppreference.com/w/cpp/iterator/end.html#" xlink:title=" ">
<polygon fill="white" stroke="#666666" points="173.38,-56.25 122.12,-56.25 122.12,-37 173.38,-37 173.38,-56.25"/>
<text text-anchor="middle" x="147.75" y="-42.75" font-family="Helvetica,sans-Serif" font-size="10.00">std::end</text>
</a>
</g>
</g>
<!-- Node1&#45;&gt;Node4 -->
<g id="edge3_Node000001_Node000004" class="edge">
<title>Node1&#45;&gt;Node4</title>
<g id="a_edge3_Node000001_Node000004"><a xlink:title=" ">
<path fill="none" stroke="#63b8ff" d="M66.7,-59.42C80.54,-57.21 96.72,-54.62 110.9,-52.35"/>
<polygon fill="#63b8ff" stroke="#63b8ff" points="111.44,-55.65 120.76,-50.62 110.33,-48.74 111.44,-55.65"/>
</a>
</g>
</g>
<!-- Node5 -->
<g id="Node000005" class="node">
<title>Node5</title>
<g id="a_Node000005"><a target="_blank" xlink:href="http://en.cppreference.com/w/cpp/algorithm/min_element.html#" xlink:title=" ">
<polygon fill="white" stroke="#666666" points="193.25,-19.25 102.25,-19.25 102.25,0 193.25,0 193.25,-19.25"/>
<text text-anchor="middle" x="147.75" y="-5.75" font-family="Helvetica,sans-Serif" font-size="10.00">std::min_element</text>
</a>
</g>
</g>
<!-- Node1&#45;&gt;Node5 -->
<g id="edge4_Node000001_Node000005" class="edge">
<title>Node1&#45;&gt;Node5</title>
<g id="a_edge4_Node000001_Node000005"><a xlink:title=" ">
<path fill="none" stroke="#63b8ff" d="M51.21,-54.65C64.82,-46.87 84.48,-36.01 102.25,-27.62 105.01,-26.32 107.88,-25.03 110.79,-23.76"/>
<polygon fill="#63b8ff" stroke="#63b8ff" points="111.8,-26.71 119.65,-19.61 109.08,-20.26 111.8,-26.71"/>
</a>
</g>
</g>
</g>
</svg>
</svg>

<style type='text/css'>
<![CDATA[
[data-mouse-over-selected='false'] { opacity: 0.7; }
[data-mouse-over-selected='true']  { opacity: 1.0; }
]]>
</style>
<script type="application/ecmascript"><![CDATA[
document.addEventListener('DOMContentLoaded', (event) => {
  highlightEdges();
  highlightAdjacentNodes();
});
]]></script>
</svg>
