<?xml version="1.0" encoding="UTF-8" standalone="no"?>
<!DOCTYPE svg PUBLIC "-//W3C//DTD SVG 1.1//EN"
 "http://www.w3.org/Graphics/SVG/1.1/DTD/svg11.dtd">
<!-- Generated by graphviz version 5.0.0 (20220707.1540)
 -->
<!-- Title: main Pages: 1 -->
<!--zoomable 244 -->
<svg id="main" version="1.1" xmlns="http://www.w3.org/2000/svg" xmlns:xlink="http://www.w3.org/1999/xlink" xml:space="preserve" onload="init(evt)">
<style type="text/css"><![CDATA[
.edge:hover path { stroke: red; }
.edge:hover polygon { stroke: red; fill: red; }
]]></style>
<script type="text/javascript"><![CDATA[
var edges = document.getElementsByTagName('g');
if (edges && edges.length) {
  for (var i=0;i<edges.length;i++) {
    if (edges[i].id.substr(0,4)=='edge') {
      edges[i].setAttribute('class','edge');
    }
  }
}
]]></script>
        <defs>
                <circle id="rim" cx="0" cy="0" r="7"/>
                <circle id="rim2" cx="0" cy="0" r="3.5"/>
                <g id="zoomPlus">
                        <use xlink:href="#rim" fill="#404040">
                                <set attributeName="fill" to="#808080" begin="zoomplus.mouseover" end="zoomplus.mouseout"/>
                        </use>
                        <path d="M-4,0h8M0,-4v8" fill="none" stroke="white" stroke-width="1.5" pointer-events="none"/>
                </g>
                <g id="zoomMin">
                        <use xlink:href="#rim" fill="#404040">
                                <set attributeName="fill" to="#808080" begin="zoomminus.mouseover" end="zoomminus.mouseout"/>
                        </use>
                        <path d="M-4,0h8" fill="none" stroke="white" stroke-width="1.5" pointer-events="none"/>
                </g>
                <g id="dirArrow">
                        <path fill="none" stroke="white" stroke-width="1.5" d="M0,-3.0v7 M-2.5,-0.5L0,-3.0L2.5,-0.5"/>
                </g>
               <g id="resetDef">
                       <use xlink:href="#rim2" fill="#404040">
                               <set attributeName="fill" to="#808080" begin="reset.mouseover" end="reset.mouseout"/>
                       </use>
               </g>
        </defs>

<script type="text/javascript">
var viewWidth = 593;
var viewHeight = 244;
var sectionId = 'dynsection-3';
</script>
<script xlink:href="../../svgpan.js"/>
<svg id="graph" class="graph">
<g id="viewport">
<title>main</title>
<polygon fill="white" stroke="transparent" points="-4,4 -4,-240.28 589,-240.28 589,4 -4,4"/>
<!-- Node1 -->
<g id="node1" class="node">
<title>Node1</title>
<g id="a_node1"><a xlink:title=" ">
<polygon fill="#bfbfbf" stroke="black" points="0,-152.5 0,-171.5 38,-171.5 38,-152.5 0,-152.5"/>
<text text-anchor="middle" x="19" y="-159.5" font-family="Helvetica,sans-Serif" font-size="10.00">main</text>
</a>
</g>
</g>
<!-- Node2 -->
<g id="node2" class="node">
<title>Node2</title>
<g id="a_node2"><a target="_blank" xlink:href="http://en.cppreference.com/w/cpp/io/manip/endl.html#" xlink:title=" ">
<polygon fill="white" stroke="black" points="309.5,-133.5 309.5,-152.5 363.5,-152.5 363.5,-133.5 309.5,-133.5"/>
<text text-anchor="middle" x="336.5" y="-140.5" font-family="Helvetica,sans-Serif" font-size="10.00">std::endl</text>
</a>
</g>
</g>
<!-- Node1&#45;&gt;Node2 -->
<g id="edge1" class="edge">
<title>Node1&#45;&gt;Node2</title>
<path fill="none" stroke="midnightblue" d="M31.23,-171.82C41.65,-180.44 57.92,-192.71 74,-200 151.24,-235.04 186.03,-251.39 264,-218 290.76,-206.54 312.25,-179.61 324.45,-161.34"/>
<polygon fill="midnightblue" stroke="midnightblue" points="327.53,-163.01 329.96,-152.7 321.63,-159.25 327.53,-163.01"/>
</g>
<!-- Node3 -->
<g id="node3" class="node">
<title>Node3</title>
<g id="a_node3"><a xlink:href="../../d0/d01/smallest__circle_8cpp.html#ae1a3968e7947464bee7714f6d43b7002" target="_top" xlink:title=" ">
<polygon fill="white" stroke="black" points="76.5,-133.5 76.5,-152.5 109.5,-152.5 109.5,-133.5 76.5,-133.5"/>
<text text-anchor="middle" x="93" y="-140.5" font-family="Helvetica,sans-Serif" font-size="10.00">test</text>
</a>
</g>
</g>
<!-- Node1&#45;&gt;Node3 -->
<g id="edge2" class="edge">
<title>Node1&#45;&gt;Node3</title>
<path fill="none" stroke="midnightblue" d="M38.17,-157.21C46.64,-154.97 56.88,-152.27 66.15,-149.82"/>
<polygon fill="midnightblue" stroke="midnightblue" points="67.27,-153.15 76.04,-147.21 65.48,-146.38 67.27,-153.15"/>
</g>
<!-- Node11 -->
<g id="node11" class="node">
<title>Node11</title>
<g id="a_node11"><a xlink:href="../../d0/d01/smallest__circle_8cpp.html#a0283886819c7c140a023582b7269e2d0" target="_top" xlink:title=" ">
<polygon fill="white" stroke="black" points="74,-95.5 74,-114.5 112,-114.5 112,-95.5 74,-95.5"/>
<text text-anchor="middle" x="93" y="-102.5" font-family="Helvetica,sans-Serif" font-size="10.00">test2</text>
</a>
</g>
</g>
<!-- Node1&#45;&gt;Node11 -->
<g id="edge16" class="edge">
<title>Node1&#45;&gt;Node11</title>
<path fill="none" stroke="midnightblue" d="M32.21,-152.33C43.04,-143.76 59.05,-131.09 71.78,-121.01"/>
<polygon fill="midnightblue" stroke="midnightblue" points="74.3,-123.48 79.97,-114.53 69.95,-117.99 74.3,-123.48"/>
</g>
<!-- Node12 -->
<g id="node12" class="node">
<title>Node12</title>
<g id="a_node12"><a xlink:href="../../d0/d01/smallest__circle_8cpp.html#a6d0455dd5c30adda100e95f0423c786e" target="_top" xlink:title=" ">
<polygon fill="white" stroke="black" points="74,-171.5 74,-190.5 112,-190.5 112,-171.5 74,-171.5"/>
<text text-anchor="middle" x="93" y="-178.5" font-family="Helvetica,sans-Serif" font-size="10.00">test3</text>
</a>
</g>
</g>
<!-- Node1&#45;&gt;Node12 -->
<g id="edge20" class="edge">
<title>Node1&#45;&gt;Node12</title>
<path fill="none" stroke="midnightblue" d="M38.17,-166.79C45.95,-168.85 55.23,-171.3 63.87,-173.58"/>
<polygon fill="midnightblue" stroke="midnightblue" points="63.02,-176.97 73.59,-176.14 64.81,-170.21 63.02,-176.97"/>
</g>
<!-- Node3&#45;&gt;Node2 -->
<g id="edge14" class="edge">
<title>Node3&#45;&gt;Node2</title>
<path fill="none" stroke="midnightblue" d="M109.85,-143C148.02,-143 245.85,-143 299.3,-143"/>
<polygon fill="midnightblue" stroke="midnightblue" points="299.37,-146.5 309.37,-143 299.37,-139.5 299.37,-146.5"/>
</g>
<!-- Node4 -->
<g id="node4" class="node">
<title>Node4</title>
<g id="a_node4"><a xlink:href="../../d0/d01/smallest__circle_8cpp.html#a0b0676df8e4da7a08c7ccaecea344903" target="_top" xlink:title=" ">
<polygon fill="white" stroke="black" points="186,-57.5 186,-76.5 226,-76.5 226,-57.5 186,-57.5"/>
<text text-anchor="middle" x="206" y="-64.5" font-family="Helvetica,sans-Serif" font-size="10.00">circle</text>
</a>
</g>
</g>
<!-- Node3&#45;&gt;Node4 -->
<g id="edge3" class="edge">
<title>Node3&#45;&gt;Node4</title>
<path fill="none" stroke="midnightblue" d="M108.06,-133.37C126.82,-120.53 160.28,-97.62 182.55,-82.37"/>
<polygon fill="midnightblue" stroke="midnightblue" points="184.78,-85.08 191.06,-76.55 180.83,-79.31 184.78,-85.08"/>
</g>
<!-- Node10 -->
<g id="node10" class="node">
<title>Node10</title>
<g id="a_node10"><a target="_blank" xlink:href="http://en.cppreference.com/w/cpp/container/vector/push_back.html#" xlink:title=" ">
<polygon fill="white" stroke="black" points="148,-171.5 148,-190.5 264,-190.5 264,-171.5 148,-171.5"/>
<text text-anchor="middle" x="206" y="-178.5" font-family="Helvetica,sans-Serif" font-size="10.00">std::vector::push_back</text>
</a>
</g>
</g>
<!-- Node3&#45;&gt;Node10 -->
<g id="edge15" class="edge">
<title>Node3&#45;&gt;Node10</title>
<path fill="none" stroke="midnightblue" d="M109.9,-148.44C124.88,-153.57 147.88,-161.44 167.51,-168.16"/>
<polygon fill="midnightblue" stroke="midnightblue" points="166.52,-171.52 177.11,-171.45 168.78,-164.9 166.52,-171.52"/>
</g>
<!-- Node4&#45;&gt;Node2 -->
<g id="edge4" class="edge">
<title>Node4&#45;&gt;Node2</title>
<path fill="none" stroke="midnightblue" d="M226.03,-73.15C237.51,-77.3 252.16,-83.41 264,-91 282.27,-102.72 282.29,-111.45 300,-124 302.1,-125.49 304.32,-126.94 306.6,-128.33"/>
<polygon fill="midnightblue" stroke="midnightblue" points="305.03,-131.47 315.45,-133.39 308.5,-125.39 305.03,-131.47"/>
</g>
<!-- Node5 -->
<g id="node5" class="node">
<title>Node5</title>
<g id="a_node5"><a xlink:href="../../d0/d01/smallest__circle_8cpp.html#a3cbebd6f4d2cdf227663c67fe41ba12a" target="_top" xlink:title=" ">
<polygon fill="white" stroke="black" points="420.5,-57.5 420.5,-76.5 484.5,-76.5 484.5,-57.5 420.5,-57.5"/>
<text text-anchor="middle" x="452.5" y="-64.5" font-family="Helvetica,sans-Serif" font-size="10.00">LenghtLine</text>
</a>
</g>
</g>
<!-- Node4&#45;&gt;Node5 -->
<g id="edge5" class="edge">
<title>Node4&#45;&gt;Node5</title>
<path fill="none" stroke="midnightblue" d="M226.19,-67C265.66,-67 356.73,-67 410.22,-67"/>
<polygon fill="midnightblue" stroke="midnightblue" points="410.39,-70.5 420.39,-67 410.39,-63.5 410.39,-70.5"/>
</g>
<!-- Node7 -->
<g id="node7" class="node">
<title>Node7</title>
<g id="a_node7"><a xlink:href="../../d0/d01/smallest__circle_8cpp.html#aee6d48762c1dfb9f14627927f0c16fad" target="_top" xlink:title=" ">
<polygon fill="white" stroke="black" points="300,-19.5 300,-38.5 373,-38.5 373,-19.5 300,-19.5"/>
<text text-anchor="middle" x="336.5" y="-26.5" font-family="Helvetica,sans-Serif" font-size="10.00">PointInCircle</text>
</a>
</g>
</g>
<!-- Node4&#45;&gt;Node7 -->
<g id="edge7" class="edge">
<title>Node4&#45;&gt;Node7</title>
<path fill="none" stroke="midnightblue" d="M226.24,-61.31C243.92,-56.08 270.76,-48.15 293.4,-41.45"/>
<polygon fill="midnightblue" stroke="midnightblue" points="294.54,-44.76 303.14,-38.57 292.56,-38.05 294.54,-44.76"/>
</g>
<!-- Node8 -->
<g id="node8" class="node">
<title>Node8</title>
<g id="a_node8"><a target="_blank" xlink:href="http://en.cppreference.com/w/cpp/container/vector/size.html#" xlink:title=" ">
<polygon fill="white" stroke="black" points="409,-0.5 409,-19.5 496,-19.5 496,-0.5 409,-0.5"/>
<text text-anchor="middle" x="452.5" y="-7.5" font-family="Helvetica,sans-Serif" font-size="10.00">std::vector::size</text>
</a>
</g>
</g>
<!-- Node4&#45;&gt;Node8 -->
<g id="edge10" class="edge">
<title>Node4&#45;&gt;Node8</title>
<path fill="none" stroke="midnightblue" d="M218.05,-57.36C234.54,-43.67 267.19,-19.25 300,-10 331.93,-0.99 369.17,-0.86 398.74,-3.05"/>
<polygon fill="midnightblue" stroke="midnightblue" points="398.6,-6.55 408.86,-3.9 399.19,0.43 398.6,-6.55"/>
</g>
<!-- Node9 -->
<g id="node9" class="node">
<title>Node9</title>
<g id="a_node9"><a xlink:href="../../d0/d01/smallest__circle_8cpp.html#a94682a4a70d5906857ca09de5b9fb2cc" target="_top" xlink:title=" ">
<polygon fill="white" stroke="black" points="301,-95.5 301,-114.5 372,-114.5 372,-95.5 301,-95.5"/>
<text text-anchor="middle" x="336.5" y="-102.5" font-family="Helvetica,sans-Serif" font-size="10.00">TriangleArea</text>
</a>
</g>
</g>
<!-- Node4&#45;&gt;Node9 -->
<g id="edge11" class="edge">
<title>Node4&#45;&gt;Node9</title>
<path fill="none" stroke="midnightblue" d="M226.24,-72.69C243.92,-77.92 270.76,-85.85 293.4,-92.55"/>
<polygon fill="midnightblue" stroke="midnightblue" points="292.56,-95.95 303.14,-95.43 294.54,-89.24 292.56,-95.95"/>
</g>
<!-- Node6 -->
<g id="node6" class="node">
<title>Node6</title>
<g id="a_node6"><a target="_blank" xlink:href="http://en.cppreference.com/w/cpp/numeric/math/sqrt.html#" xlink:title=" ">
<polygon fill="white" stroke="black" points="532,-76.5 532,-95.5 585,-95.5 585,-76.5 532,-76.5"/>
<text text-anchor="middle" x="558.5" y="-83.5" font-family="Helvetica,sans-Serif" font-size="10.00">std::sqrt</text>
</a>
</g>
</g>
<!-- Node5&#45;&gt;Node6 -->
<g id="edge6" class="edge">
<title>Node5&#45;&gt;Node6</title>
<path fill="none" stroke="midnightblue" d="M484.7,-72.7C496.37,-74.83 509.7,-77.27 521.74,-79.47"/>
<polygon fill="midnightblue" stroke="midnightblue" points="521.45,-82.97 531.91,-81.33 522.7,-76.09 521.45,-82.97"/>
</g>
<!-- Node7&#45;&gt;Node5 -->
<g id="edge8" class="edge">
<title>Node7&#45;&gt;Node5</title>
<path fill="none" stroke="midnightblue" d="M366.27,-38.59C380.44,-43.31 397.74,-49.08 413.03,-54.18"/>
<polygon fill="midnightblue" stroke="midnightblue" points="412.15,-57.57 422.74,-57.41 414.36,-50.93 412.15,-57.57"/>
</g>
<!-- Node7&#45;&gt;Node8 -->
<g id="edge9" class="edge">
<title>Node7&#45;&gt;Node8</title>
<path fill="none" stroke="midnightblue" d="M373.26,-23.04C381.33,-21.7 390.07,-20.24 398.67,-18.8"/>
<polygon fill="midnightblue" stroke="midnightblue" points="399.38,-22.23 408.67,-17.14 398.23,-15.33 399.38,-22.23"/>
</g>
<!-- Node9&#45;&gt;Node5 -->
<g id="edge12" class="edge">
<title>Node9&#45;&gt;Node5</title>
<path fill="none" stroke="midnightblue" d="M366.27,-95.41C380.44,-90.69 397.74,-84.92 413.03,-79.82"/>
<polygon fill="midnightblue" stroke="midnightblue" points="414.36,-83.07 422.74,-76.59 412.15,-76.43 414.36,-83.07"/>
</g>
<!-- Node9&#45;&gt;Node6 -->
<g id="edge13" class="edge">
<title>Node9&#45;&gt;Node6</title>
<path fill="none" stroke="midnightblue" d="M372.36,-101.99C413.15,-98.47 480.36,-92.66 521.6,-89.1"/>
<polygon fill="midnightblue" stroke="midnightblue" points="522.08,-92.57 531.74,-88.22 521.48,-85.6 522.08,-92.57"/>
</g>
<!-- Node11&#45;&gt;Node2 -->
<g id="edge18" class="edge">
<title>Node11&#45;&gt;Node2</title>
<path fill="none" stroke="midnightblue" d="M112.15,-107.86C151.85,-114.1 247,-129.08 299.39,-137.32"/>
<polygon fill="midnightblue" stroke="midnightblue" points="298.85,-140.78 309.27,-138.87 299.94,-133.86 298.85,-140.78"/>
</g>
<!-- Node11&#45;&gt;Node4 -->
<g id="edge17" class="edge">
<title>Node11&#45;&gt;Node4</title>
<path fill="none" stroke="midnightblue" d="M112.33,-98.73C129.71,-92.77 156.1,-83.74 176.28,-76.83"/>
<polygon fill="midnightblue" stroke="midnightblue" points="177.57,-80.09 185.9,-73.54 175.3,-73.47 177.57,-80.09"/>
</g>
<!-- Node11&#45;&gt;Node10 -->
<g id="edge19" class="edge">
<title>Node11&#45;&gt;Node10</title>
<path fill="none" stroke="midnightblue" d="M108.06,-114.63C126.82,-127.47 160.28,-150.38 182.55,-165.63"/>
<polygon fill="midnightblue" stroke="midnightblue" points="180.83,-168.69 191.06,-171.45 184.78,-162.92 180.83,-168.69"/>
</g>
<!-- Node12&#45;&gt;Node2 -->
<g id="edge22" class="edge">
<title>Node12&#45;&gt;Node2</title>
<path fill="none" stroke="midnightblue" d="M112.08,-189.09C122.38,-193.26 135.66,-197.89 148,-200 198.82,-208.68 215.34,-217.02 264,-200 286.55,-192.11 307.29,-173.81 320.56,-160.05"/>
<polygon fill="midnightblue" stroke="midnightblue" points="323.24,-162.31 327.47,-152.59 318.11,-157.55 323.24,-162.31"/>
</g>
<!-- Node12&#45;&gt;Node4 -->
<g id="edge21" class="edge">
<title>Node12&#45;&gt;Node4</title>
<path fill="none" stroke="midnightblue" d="M103.46,-171.28C122.3,-151.93 164.72,-108.37 188.33,-84.12"/>
<polygon fill="midnightblue" stroke="midnightblue" points="191.09,-86.3 195.56,-76.69 186.08,-81.42 191.09,-86.3"/>
</g>
<!-- Node12&#45;&gt;Node10 -->
<g id="edge23" class="edge">
<title>Node12&#45;&gt;Node10</title>
<path fill="none" stroke="midnightblue" d="M112.33,-181C119.56,-181 128.36,-181 137.62,-181"/>
<polygon fill="midnightblue" stroke="midnightblue" points="137.79,-184.5 147.79,-181 137.79,-177.5 137.79,-184.5"/>
</g>
</g>
</svg>
        <g id="navigator" transform="translate(0 0)" fill="#404254">
                <rect fill="#f2f5e9" fill-opacity="0.5" stroke="#606060" stroke-width=".5" x="0" y="0" width="60" height="60"/>
                <use id="zoomplus" xlink:href="#zoomPlus" x="17" y="9" onmousedown="handleZoom(evt,'in')"/>
                <use id="zoomminus" xlink:href="#zoomMin" x="42" y="9" onmousedown="handleZoom(evt,'out')"/>
                <use id="reset" xlink:href="#resetDef" x="30" y="36" onmousedown="handleReset()"/>
                <g id="arrowUp" xlink:href="#dirArrow" transform="translate(30 24)" onmousedown="handlePan(0,-1)">
                  <use xlink:href="#rim" fill="#404040">
                        <set attributeName="fill" to="#808080" begin="arrowUp.mouseover" end="arrowUp.mouseout"/>
                  </use>
                  <path fill="none" stroke="white" stroke-width="1.5" d="M0,-3.0v7 M-2.5,-0.5L0,-3.0L2.5,-0.5"/>
                </g>
                <g id="arrowRight" xlink:href="#dirArrow" transform="rotate(90) translate(36 -43)" onmousedown="handlePan(1,0)">
                  <use xlink:href="#rim" fill="#404040">
                        <set attributeName="fill" to="#808080" begin="arrowRight.mouseover" end="arrowRight.mouseout"/>
                  </use>
                  <path fill="none" stroke="white" stroke-width="1.5" d="M0,-3.0v7 M-2.5,-0.5L0,-3.0L2.5,-0.5"/>
                </g>
                <g id="arrowDown" xlink:href="#dirArrow" transform="rotate(180) translate(-30 -48)" onmousedown="handlePan(0,1)">
                  <use xlink:href="#rim" fill="#404040">
                        <set attributeName="fill" to="#808080" begin="arrowDown.mouseover" end="arrowDown.mouseout"/>
                  </use>
                  <path fill="none" stroke="white" stroke-width="1.5" d="M0,-3.0v7 M-2.5,-0.5L0,-3.0L2.5,-0.5"/>
                </g>
                <g id="arrowLeft" xlink:href="#dirArrow" transform="rotate(270) translate(-36 17)" onmousedown="handlePan(-1,0)">
                  <use xlink:href="#rim" fill="#404040">
                        <set attributeName="fill" to="#808080" begin="arrowLeft.mouseover" end="arrowLeft.mouseout"/>
                  </use>
                  <path fill="none" stroke="white" stroke-width="1.5" d="M0,-3.0v7 M-2.5,-0.5L0,-3.0L2.5,-0.5"/>
                </g>
        </g>
        <svg viewBox="0 0 15 15" width="100%" height="30px" preserveAspectRatio="xMaxYMin meet">
         <g id="arrow_out" transform="scale(0.3 0.3)">
          <a xlink:href="smallest__circle_8cpp_ae66f6b31b5ad750f1fe042a706a4e3d4_cgraph_org.svg" target="_base">
           <rect id="button" ry="5" rx="5" y="6" x="6" height="38" width="38"
                fill="#f2f5e9" fill-opacity="0.5" stroke="#606060" stroke-width="1.0"/>
           <path id="arrow"
             d="M 11.500037,31.436501 C 11.940474,20.09759 22.043105,11.32322 32.158766,21.979434 L 37.068811,17.246167 C 37.068811,17.246167 37.088388,32 37.088388,32 L 22.160133,31.978069 C 22.160133,31.978069 26.997745,27.140456 26.997745,27.140456 C 18.528582,18.264221 13.291696,25.230495 11.500037,31.436501 z"
             style="fill:#404040;"/>
          </a>
         </g>
        </svg>
</svg>
