<?xml version="1.0" encoding="UTF-8" standalone="no"?>
<!DOCTYPE svg PUBLIC "-//W3C//DTD SVG 1.1//EN"
 "http://www.w3.org/Graphics/SVG/1.1/DTD/svg11.dtd">
<!-- Generated by graphviz version 5.0.0 (20220707.1540)
 -->
<!-- Title: circle Pages: 1 -->
<svg width="369pt" height="163pt"
 viewBox="0.00 0.00 369.00 163.33" xmlns="http://www.w3.org/2000/svg" xmlns:xlink="http://www.w3.org/1999/xlink">
<g id="graph0" class="graph" transform="scale(1 1) rotate(0) translate(4 159.33)">
<title>circle</title>
<polygon fill="white" stroke="transparent" points="-4,4 -4,-159.33 365,-159.33 365,4 -4,4"/>
<!-- Node1 -->
<g id="node1" class="node">
<title>Node1</title>
<g id="a_node1"><a xlink:title=" ">
<polygon fill="#bfbfbf" stroke="black" points="0,-59.83 0,-78.83 40,-78.83 40,-59.83 0,-59.83"/>
<text text-anchor="middle" x="20" y="-66.83" font-family="Helvetica,sans-Serif" font-size="10.00">circle</text>
</a>
</g>
</g>
<!-- Node2 -->
<g id="node2" class="node">
<title>Node2</title>
<g id="a_node2"><a target="_blank" xlink:href="http://en.cppreference.com/w/cpp/io/manip/endl.html#" xlink:title=" ">
<polygon fill="white" stroke="black" points="85.5,-135.83 85.5,-154.83 139.5,-154.83 139.5,-135.83 85.5,-135.83"/>
<text text-anchor="middle" x="112.5" y="-142.83" font-family="Helvetica,sans-Serif" font-size="10.00">std::endl</text>
</a>
</g>
</g>
<!-- Node1&#45;&gt;Node2 -->
<g id="edge1" class="edge">
<title>Node1&#45;&gt;Node2</title>
<path fill="none" stroke="midnightblue" d="M28.78,-79.11C38.79,-91.24 57.13,-112.07 76,-126.33 77.86,-127.74 79.83,-129.1 81.86,-130.4"/>
<polygon fill="midnightblue" stroke="midnightblue" points="80.53,-133.68 90.93,-135.73 84.08,-127.65 80.53,-133.68"/>
</g>
<!-- Node3 -->
<g id="node3" class="node">
<title>Node3</title>
<g id="a_node3"><a xlink:href="../../d0/d01/smallest__circle_8cpp.html#a3cbebd6f4d2cdf227663c67fe41ba12a" target="_top" xlink:title=" ">
<polygon fill="white" stroke="black" points="196.5,-59.83 196.5,-78.83 260.5,-78.83 260.5,-59.83 196.5,-59.83"/>
<text text-anchor="middle" x="228.5" y="-66.83" font-family="Helvetica,sans-Serif" font-size="10.00">LenghtLine</text>
</a>
</g>
</g>
<!-- Node1&#45;&gt;Node3 -->
<g id="edge2" class="edge">
<title>Node1&#45;&gt;Node3</title>
<path fill="none" stroke="midnightblue" d="M40.06,-69.33C73.06,-69.33 141.56,-69.33 185.98,-69.33"/>
<polygon fill="midnightblue" stroke="midnightblue" points="186.17,-72.83 196.17,-69.33 186.17,-65.83 186.17,-72.83"/>
</g>
<!-- Node5 -->
<g id="node5" class="node">
<title>Node5</title>
<g id="a_node5"><a xlink:href="../../d0/d01/smallest__circle_8cpp.html#aee6d48762c1dfb9f14627927f0c16fad" target="_top" xlink:title=" ">
<polygon fill="white" stroke="black" points="76,-21.83 76,-40.83 149,-40.83 149,-21.83 76,-21.83"/>
<text text-anchor="middle" x="112.5" y="-28.83" font-family="Helvetica,sans-Serif" font-size="10.00">PointInCircle</text>
</a>
</g>
</g>
<!-- Node1&#45;&gt;Node5 -->
<g id="edge4" class="edge">
<title>Node1&#45;&gt;Node5</title>
<path fill="none" stroke="midnightblue" d="M40.19,-61.28C51.52,-56.52 66.16,-50.37 79.22,-44.89"/>
<polygon fill="midnightblue" stroke="midnightblue" points="80.95,-47.96 88.82,-40.86 78.24,-41.5 80.95,-47.96"/>
</g>
<!-- Node6 -->
<g id="node6" class="node">
<title>Node6</title>
<g id="a_node6"><a target="_blank" xlink:href="http://en.cppreference.com/w/cpp/container/vector/size.html#" xlink:title=" ">
<polygon fill="white" stroke="black" points="185,-2.83 185,-21.83 272,-21.83 272,-2.83 185,-2.83"/>
<text text-anchor="middle" x="228.5" y="-9.83" font-family="Helvetica,sans-Serif" font-size="10.00">std::vector::size</text>
</a>
</g>
</g>
<!-- Node1&#45;&gt;Node6 -->
<g id="edge7" class="edge">
<title>Node1&#45;&gt;Node6</title>
<path fill="none" stroke="midnightblue" d="M26.64,-59.8C35.28,-46.26 53.22,-22.01 76,-12.33 106.86,0.77 144.55,0.83 174.62,-2.42"/>
<polygon fill="midnightblue" stroke="midnightblue" points="174.56,-5.94 184.91,-3.69 175.41,1 174.56,-5.94"/>
</g>
<!-- Node7 -->
<g id="node7" class="node">
<title>Node7</title>
<g id="a_node7"><a xlink:href="../../d0/d01/smallest__circle_8cpp.html#a94682a4a70d5906857ca09de5b9fb2cc" target="_top" xlink:title=" ">
<polygon fill="white" stroke="black" points="77,-97.83 77,-116.83 148,-116.83 148,-97.83 77,-97.83"/>
<text text-anchor="middle" x="112.5" y="-104.83" font-family="Helvetica,sans-Serif" font-size="10.00">TriangleArea</text>
</a>
</g>
</g>
<!-- Node1&#45;&gt;Node7 -->
<g id="edge8" class="edge">
<title>Node1&#45;&gt;Node7</title>
<path fill="none" stroke="midnightblue" d="M40.19,-77.39C51.52,-82.15 66.16,-88.3 79.22,-93.78"/>
<polygon fill="midnightblue" stroke="midnightblue" points="78.24,-97.17 88.82,-97.81 80.95,-90.71 78.24,-97.17"/>
</g>
<!-- Node4 -->
<g id="node4" class="node">
<title>Node4</title>
<g id="a_node4"><a target="_blank" xlink:href="http://en.cppreference.com/w/cpp/numeric/math/sqrt.html#" xlink:title=" ">
<polygon fill="white" stroke="black" points="308,-78.83 308,-97.83 361,-97.83 361,-78.83 308,-78.83"/>
<text text-anchor="middle" x="334.5" y="-85.83" font-family="Helvetica,sans-Serif" font-size="10.00">std::sqrt</text>
</a>
</g>
</g>
<!-- Node3&#45;&gt;Node4 -->
<g id="edge3" class="edge">
<title>Node3&#45;&gt;Node4</title>
<path fill="none" stroke="midnightblue" d="M260.7,-75.04C272.37,-77.17 285.7,-79.6 297.74,-81.8"/>
<polygon fill="midnightblue" stroke="midnightblue" points="297.45,-85.31 307.91,-83.66 298.7,-78.42 297.45,-85.31"/>
</g>
<!-- Node5&#45;&gt;Node3 -->
<g id="edge5" class="edge">
<title>Node5&#45;&gt;Node3</title>
<path fill="none" stroke="midnightblue" d="M142.27,-40.92C156.44,-45.65 173.74,-51.41 189.03,-56.51"/>
<polygon fill="midnightblue" stroke="midnightblue" points="188.15,-59.91 198.74,-59.75 190.36,-53.27 188.15,-59.91"/>
</g>
<!-- Node5&#45;&gt;Node6 -->
<g id="edge6" class="edge">
<title>Node5&#45;&gt;Node6</title>
<path fill="none" stroke="midnightblue" d="M149.26,-25.38C157.33,-24.03 166.07,-22.57 174.67,-21.14"/>
<polygon fill="midnightblue" stroke="midnightblue" points="175.38,-24.57 184.67,-19.47 174.23,-17.66 175.38,-24.57"/>
</g>
<!-- Node7&#45;&gt;Node3 -->
<g id="edge9" class="edge">
<title>Node7&#45;&gt;Node3</title>
<path fill="none" stroke="midnightblue" d="M142.27,-97.75C156.44,-93.02 173.74,-87.26 189.03,-82.16"/>
<polygon fill="midnightblue" stroke="midnightblue" points="190.36,-85.4 198.74,-78.92 188.15,-78.76 190.36,-85.4"/>
</g>
<!-- Node7&#45;&gt;Node4 -->
<g id="edge10" class="edge">
<title>Node7&#45;&gt;Node4</title>
<path fill="none" stroke="midnightblue" d="M148.36,-104.32C189.15,-100.8 256.36,-95 297.6,-91.44"/>
<polygon fill="midnightblue" stroke="midnightblue" points="298.08,-94.91 307.74,-90.56 297.48,-87.93 298.08,-94.91"/>
</g>
</g>
</svg>
