<?xml version="1.0" encoding="UTF-8" standalone="no"?>
<!DOCTYPE svg PUBLIC "-//W3C//DTD SVG 1.1//EN"
 "http://www.w3.org/Graphics/SVG/1.1/DTD/svg11.dtd">
<!-- Generated by graphviz version 2.49.3 (20211023.0002)
 -->
<!-- Title: main Pages: 1 -->
<!--zoomable 244 -->
<svg id="main" version="1.1" xmlns="http://www.w3.org/2000/svg" xmlns:xlink="http://www.w3.org/1999/xlink" xml:space="preserve" onload="init(evt)">
<style type="text/css"><![CDATA[
.edge:hover path { stroke: red; }
.edge:hover polygon { stroke: red; fill: red; }
]]></style>
<script type="text/javascript"><![CDATA[
var edges = document.getElementsByTagName('g');
if (edges && edges.length) {
  for (var i=0;i<edges.length;i++) {
    if (edges[i].id.substr(0,4)=='edge') {
      edges[i].setAttribute('class','edge');
    }
  }
}
]]></script>
        <defs>
                <circle id="rim" cx="0" cy="0" r="7"/>
                <circle id="rim2" cx="0" cy="0" r="3.5"/>
                <g id="zoomPlus">
                        <use xlink:href="#rim" fill="#404040">
                                <set attributeName="fill" to="#808080" begin="zoomplus.mouseover" end="zoomplus.mouseout"/>
                        </use>
                        <path d="M-4,0h8M0,-4v8" fill="none" stroke="white" stroke-width="1.5" pointer-events="none"/>
                </g>
                <g id="zoomMin">
                        <use xlink:href="#rim" fill="#404040">
                                <set attributeName="fill" to="#808080" begin="zoomminus.mouseover" end="zoomminus.mouseout"/>
                        </use>
                        <path d="M-4,0h8" fill="none" stroke="white" stroke-width="1.5" pointer-events="none"/>
                </g>
                <g id="dirArrow">
                        <path fill="none" stroke="white" stroke-width="1.5" d="M0,-3.0v7 M-2.5,-0.5L0,-3.0L2.5,-0.5"/>
                </g>
               <g id="resetDef">
                       <use xlink:href="#rim2" fill="#404040">
                               <set attributeName="fill" to="#808080" begin="reset.mouseover" end="reset.mouseout"/>
                       </use>
               </g>
        </defs>

<script type="text/javascript">
var viewWidth = 592;
var viewHeight = 244;
var sectionId = 'dynsection-3';
</script>
<script xlink:href="../../svgpan.js"/>
<svg id="graph" class="graph">
<g id="viewport">
<title>main</title>
<polygon fill="white" stroke="transparent" points="-4,4 -4,-240.41 588,-240.41 588,4 -4,4"/>
<!-- Node1 -->
<g id="node1" class="node">
<title>Node1</title>
<g id="a_node1"><a xlink:title=" ">
<polygon fill="#bfbfbf" stroke="black" points="0,-152.5 0,-171.5 38,-171.5 38,-152.5 0,-152.5"/>
<text text-anchor="middle" x="19" y="-159.5" font-family="Helvetica,sans-Serif" font-size="10.00">main</text>
</a>
</g>
</g>
<!-- Node2 -->
<g id="node2" class="node">
<title>Node2</title>
<g id="a_node2"><a target="_blank" xlink:href="http://en.cppreference.com/w/cpp/io/manip/endl.html#" xlink:title=" ">
<polygon fill="white" stroke="black" points="310.5,-133.5 310.5,-152.5 364.5,-152.5 364.5,-133.5 310.5,-133.5"/>
<text text-anchor="middle" x="337.5" y="-140.5" font-family="Helvetica,sans-Serif" font-size="10.00">std::endl</text>
</a>
</g>
</g>
<!-- Node1&#45;&gt;Node2 -->
<g id="edge1" class="edge">
<title>Node1&#45;&gt;Node2</title>
<path fill="none" stroke="midnightblue" d="M31.23,-171.82C41.65,-180.44 57.92,-192.71 74,-200 151.65,-235.23 186.62,-251.57 265,-218 291.76,-206.54 313.25,-179.61 325.45,-161.34"/>
<polygon fill="midnightblue" stroke="midnightblue" points="328.53,-163.01 330.96,-152.7 322.63,-159.25 328.53,-163.01"/>
</g>
<!-- Node3 -->
<g id="node3" class="node">
<title>Node3</title>
<g id="a_node3"><a xlink:href="../../d0/d01/smallest__circle_8cpp.html#ae1a3968e7947464bee7714f6d43b7002" target="_top" xlink:title=" ">
<polygon fill="white" stroke="black" points="76.5,-133.5 76.5,-152.5 109.5,-152.5 109.5,-133.5 76.5,-133.5"/>
<text text-anchor="middle" x="93" y="-140.5" font-family="Helvetica,sans-Serif" font-size="10.00">test</text>
</a>
</g>
</g>
<!-- Node1&#45;&gt;Node3 -->
<g id="edge2" class="edge">
<title>Node1&#45;&gt;Node3</title>
<path fill="none" stroke="midnightblue" d="M38.17,-157.21C46.64,-154.97 56.88,-152.27 66.15,-149.82"/>
<polygon fill="midnightblue" stroke="midnightblue" points="67.27,-153.15 76.04,-147.21 65.48,-146.38 67.27,-153.15"/>
</g>
<!-- Node11 -->
<g id="node11" class="node">
<title>Node11</title>
<g id="a_node11"><a xlink:href="../../d0/d01/smallest__circle_8cpp.html#a0283886819c7c140a023582b7269e2d0" target="_top" xlink:title=" ">
<polygon fill="white" stroke="black" points="74,-95.5 74,-114.5 112,-114.5 112,-95.5 74,-95.5"/>
<text text-anchor="middle" x="93" y="-102.5" font-family="Helvetica,sans-Serif" font-size="10.00">test2</text>
</a>
</g>
</g>
<!-- Node1&#45;&gt;Node11 -->
<g id="edge16" class="edge">
<title>Node1&#45;&gt;Node11</title>
<path fill="none" stroke="midnightblue" d="M32.21,-152.33C43.04,-143.76 59.05,-131.09 71.78,-121.01"/>
<polygon fill="midnightblue" stroke="midnightblue" points="74.3,-123.48 79.97,-114.53 69.95,-117.99 74.3,-123.48"/>
</g>
<!-- Node12 -->
<g id="node12" class="node">
<title>Node12</title>
<g id="a_node12"><a xlink:href="../../d0/d01/smallest__circle_8cpp.html#a6d0455dd5c30adda100e95f0423c786e" target="_top" xlink:title=" ">
<polygon fill="white" stroke="black" points="74,-171.5 74,-190.5 112,-190.5 112,-171.5 74,-171.5"/>
<text text-anchor="middle" x="93" y="-178.5" font-family="Helvetica,sans-Serif" font-size="10.00">test3</text>
</a>
</g>
</g>
<!-- Node1&#45;&gt;Node12 -->
<g id="edge20" class="edge">
<title>Node1&#45;&gt;Node12</title>
<path fill="none" stroke="midnightblue" d="M38.17,-166.79C45.95,-168.85 55.23,-171.3 63.87,-173.58"/>
<polygon fill="midnightblue" stroke="midnightblue" points="63.02,-176.97 73.59,-176.14 64.81,-170.21 63.02,-176.97"/>
</g>
<!-- Node3&#45;&gt;Node2 -->
<g id="edge14" class="edge">
<title>Node3&#45;&gt;Node2</title>
<path fill="none" stroke="midnightblue" d="M109.54,-143C147.56,-143 246.11,-143 300,-143"/>
<polygon fill="midnightblue" stroke="midnightblue" points="300.15,-146.5 310.15,-143 300.15,-139.5 300.15,-146.5"/>
</g>
<!-- Node4 -->
<g id="node4" class="node">
<title>Node4</title>
<g id="a_node4"><a xlink:href="../../d0/d01/smallest__circle_8cpp.html#a0b0676df8e4da7a08c7ccaecea344903" target="_top" xlink:title=" ">
<polygon fill="white" stroke="black" points="186.5,-57.5 186.5,-76.5 226.5,-76.5 226.5,-57.5 186.5,-57.5"/>
<text text-anchor="middle" x="206.5" y="-64.5" font-family="Helvetica,sans-Serif" font-size="10.00">circle</text>
</a>
</g>
</g>
<!-- Node3&#45;&gt;Node4 -->
<g id="edge3" class="edge">
<title>Node3&#45;&gt;Node4</title>
<path fill="none" stroke="midnightblue" d="M108.12,-133.37C126.97,-120.53 160.57,-97.62 182.95,-82.37"/>
<polygon fill="midnightblue" stroke="midnightblue" points="185.2,-85.07 191.49,-76.55 181.26,-79.29 185.2,-85.07"/>
</g>
<!-- Node10 -->
<g id="node10" class="node">
<title>Node10</title>
<g id="a_node10"><a target="_blank" xlink:href="http://en.cppreference.com/w/cpp/container/vector/push_back.html#" xlink:title=" ">
<polygon fill="white" stroke="black" points="148,-171.5 148,-190.5 265,-190.5 265,-171.5 148,-171.5"/>
<text text-anchor="middle" x="206.5" y="-178.5" font-family="Helvetica,sans-Serif" font-size="10.00">std::vector::push_back</text>
</a>
</g>
</g>
<!-- Node3&#45;&gt;Node10 -->
<g id="edge15" class="edge">
<title>Node3&#45;&gt;Node10</title>
<path fill="none" stroke="midnightblue" d="M109.5,-148.28C124.45,-153.38 147.66,-161.29 167.52,-168.06"/>
<polygon fill="midnightblue" stroke="midnightblue" points="166.64,-171.45 177.24,-171.37 168.9,-164.83 166.64,-171.45"/>
</g>
<!-- Node4&#45;&gt;Node2 -->
<g id="edge4" class="edge">
<title>Node4&#45;&gt;Node2</title>
<path fill="none" stroke="midnightblue" d="M226.7,-73.12C238.28,-77.26 253.06,-83.37 265,-91 283.29,-102.69 283.29,-111.45 301,-124 303.1,-125.49 305.32,-126.94 307.6,-128.33"/>
<polygon fill="midnightblue" stroke="midnightblue" points="306.03,-131.47 316.45,-133.39 309.5,-125.39 306.03,-131.47"/>
</g>
<!-- Node5 -->
<g id="node5" class="node">
<title>Node5</title>
<g id="a_node5"><a xlink:href="../../d0/d01/smallest__circle_8cpp.html#a3cbebd6f4d2cdf227663c67fe41ba12a" target="_top" xlink:title=" ">
<polygon fill="white" stroke="black" points="420,-57.5 420,-76.5 486,-76.5 486,-57.5 420,-57.5"/>
<text text-anchor="middle" x="453" y="-64.5" font-family="Helvetica,sans-Serif" font-size="10.00">LenghtLine</text>
</a>
</g>
</g>
<!-- Node4&#45;&gt;Node5 -->
<g id="edge5" class="edge">
<title>Node4&#45;&gt;Node5</title>
<path fill="none" stroke="midnightblue" d="M226.69,-67C265.84,-67 355.78,-67 409.43,-67"/>
<polygon fill="midnightblue" stroke="midnightblue" points="409.65,-70.5 419.65,-67 409.65,-63.5 409.65,-70.5"/>
</g>
<!-- Node7 -->
<g id="node7" class="node">
<title>Node7</title>
<g id="a_node7"><a xlink:href="../../d0/d01/smallest__circle_8cpp.html#aee6d48762c1dfb9f14627927f0c16fad" target="_top" xlink:title=" ">
<polygon fill="white" stroke="black" points="301,-19.5 301,-38.5 374,-38.5 374,-19.5 301,-19.5"/>
<text text-anchor="middle" x="337.5" y="-26.5" font-family="Helvetica,sans-Serif" font-size="10.00">PointInCircle</text>
</a>
</g>
</g>
<!-- Node4&#45;&gt;Node7 -->
<g id="edge7" class="edge">
<title>Node4&#45;&gt;Node7</title>
<path fill="none" stroke="midnightblue" d="M226.53,-61.39C244.3,-56.16 271.43,-48.17 294.3,-41.43"/>
<polygon fill="midnightblue" stroke="midnightblue" points="295.52,-44.72 304.12,-38.54 293.54,-38.01 295.52,-44.72"/>
</g>
<!-- Node8 -->
<g id="node8" class="node">
<title>Node8</title>
<g id="a_node8"><a target="_blank" xlink:href="http://en.cppreference.com/w/cpp/container/vector/size.html#" xlink:title=" ">
<polygon fill="white" stroke="black" points="410,-0.5 410,-19.5 496,-19.5 496,-0.5 410,-0.5"/>
<text text-anchor="middle" x="453" y="-7.5" font-family="Helvetica,sans-Serif" font-size="10.00">std::vector::size</text>
</a>
</g>
</g>
<!-- Node4&#45;&gt;Node8 -->
<g id="edge10" class="edge">
<title>Node4&#45;&gt;Node8</title>
<path fill="none" stroke="midnightblue" d="M218.62,-57.36C235.21,-43.67 268.05,-19.25 301,-10 332.95,-1.03 370.22,-0.93 399.74,-3.12"/>
<polygon fill="midnightblue" stroke="midnightblue" points="399.57,-6.62 409.83,-3.98 400.17,0.35 399.57,-6.62"/>
</g>
<!-- Node9 -->
<g id="node9" class="node">
<title>Node9</title>
<g id="a_node9"><a xlink:href="../../d0/d01/smallest__circle_8cpp.html#a94682a4a70d5906857ca09de5b9fb2cc" target="_top" xlink:title=" ">
<polygon fill="white" stroke="black" points="301,-95.5 301,-114.5 374,-114.5 374,-95.5 301,-95.5"/>
<text text-anchor="middle" x="337.5" y="-102.5" font-family="Helvetica,sans-Serif" font-size="10.00">TriangleArea</text>
</a>
</g>
</g>
<!-- Node4&#45;&gt;Node9 -->
<g id="edge11" class="edge">
<title>Node4&#45;&gt;Node9</title>
<path fill="none" stroke="midnightblue" d="M226.53,-72.61C244.3,-77.84 271.43,-85.83 294.3,-92.57"/>
<polygon fill="midnightblue" stroke="midnightblue" points="293.54,-95.99 304.12,-95.46 295.52,-89.28 293.54,-95.99"/>
</g>
<!-- Node6 -->
<g id="node6" class="node">
<title>Node6</title>
<g id="a_node6"><a target="_blank" xlink:href="http://en.cppreference.com/w/cpp/numeric/math/sqrt.html#" xlink:title=" ">
<polygon fill="white" stroke="black" points="532,-76.5 532,-95.5 584,-95.5 584,-76.5 532,-76.5"/>
<text text-anchor="middle" x="558" y="-83.5" font-family="Helvetica,sans-Serif" font-size="10.00">std::sqrt</text>
</a>
</g>
</g>
<!-- Node5&#45;&gt;Node6 -->
<g id="edge6" class="edge">
<title>Node5&#45;&gt;Node6</title>
<path fill="none" stroke="midnightblue" d="M486.03,-72.91C497.44,-75.01 510.36,-77.4 522.02,-79.55"/>
<polygon fill="midnightblue" stroke="midnightblue" points="521.39,-82.99 531.86,-81.36 522.66,-76.11 521.39,-82.99"/>
</g>
<!-- Node7&#45;&gt;Node5 -->
<g id="edge8" class="edge">
<title>Node7&#45;&gt;Node5</title>
<path fill="none" stroke="midnightblue" d="M367.14,-38.59C381.25,-43.31 398.47,-49.08 413.7,-54.18"/>
<polygon fill="midnightblue" stroke="midnightblue" points="412.77,-57.56 423.37,-57.41 415,-50.92 412.77,-57.56"/>
</g>
<!-- Node7&#45;&gt;Node8 -->
<g id="edge9" class="edge">
<title>Node7&#45;&gt;Node8</title>
<path fill="none" stroke="midnightblue" d="M374.1,-23.04C382.23,-21.68 391.04,-20.21 399.7,-18.75"/>
<polygon fill="midnightblue" stroke="midnightblue" points="400.48,-22.17 409.77,-17.07 399.33,-15.27 400.48,-22.17"/>
</g>
<!-- Node9&#45;&gt;Node5 -->
<g id="edge12" class="edge">
<title>Node9&#45;&gt;Node5</title>
<path fill="none" stroke="midnightblue" d="M367.14,-95.41C381.25,-90.69 398.47,-84.92 413.7,-79.82"/>
<polygon fill="midnightblue" stroke="midnightblue" points="415,-83.08 423.37,-76.59 412.77,-76.44 415,-83.08"/>
</g>
<!-- Node9&#45;&gt;Node6 -->
<g id="edge13" class="edge">
<title>Node9&#45;&gt;Node6</title>
<path fill="none" stroke="midnightblue" d="M374.09,-101.91C414.92,-98.35 481.43,-92.57 522.01,-89.04"/>
<polygon fill="midnightblue" stroke="midnightblue" points="522.32,-92.53 531.98,-88.18 521.71,-85.56 522.32,-92.53"/>
</g>
<!-- Node11&#45;&gt;Node2 -->
<g id="edge18" class="edge">
<title>Node11&#45;&gt;Node2</title>
<path fill="none" stroke="midnightblue" d="M112.23,-107.86C152.09,-114.1 247.64,-129.08 300.24,-137.32"/>
<polygon fill="midnightblue" stroke="midnightblue" points="299.74,-140.78 310.16,-138.87 300.83,-133.87 299.74,-140.78"/>
</g>
<!-- Node11&#45;&gt;Node4 -->
<g id="edge17" class="edge">
<title>Node11&#45;&gt;Node4</title>
<path fill="none" stroke="midnightblue" d="M112.41,-98.73C129.87,-92.77 156.38,-83.74 176.65,-76.83"/>
<polygon fill="midnightblue" stroke="midnightblue" points="177.98,-80.08 186.31,-73.54 175.72,-73.45 177.98,-80.08"/>
</g>
<!-- Node11&#45;&gt;Node10 -->
<g id="edge19" class="edge">
<title>Node11&#45;&gt;Node10</title>
<path fill="none" stroke="midnightblue" d="M108.12,-114.63C126.97,-127.47 160.57,-150.38 182.95,-165.63"/>
<polygon fill="midnightblue" stroke="midnightblue" points="181.26,-168.71 191.49,-171.45 185.2,-162.93 181.26,-168.71"/>
</g>
<!-- Node12&#45;&gt;Node2 -->
<g id="edge22" class="edge">
<title>Node12&#45;&gt;Node2</title>
<path fill="none" stroke="midnightblue" d="M112.08,-189.09C122.38,-193.26 135.66,-197.89 148,-200 199.26,-208.75 215.92,-217.17 265,-200 287.55,-192.11 308.29,-173.81 321.56,-160.05"/>
<polygon fill="midnightblue" stroke="midnightblue" points="324.24,-162.31 328.47,-152.59 319.11,-157.55 324.24,-162.31"/>
</g>
<!-- Node12&#45;&gt;Node4 -->
<g id="edge21" class="edge">
<title>Node12&#45;&gt;Node4</title>
<path fill="none" stroke="midnightblue" d="M103.51,-171.28C122.43,-151.93 165.04,-108.37 188.76,-84.12"/>
<polygon fill="midnightblue" stroke="midnightblue" points="191.53,-86.29 196.02,-76.69 186.52,-81.4 191.53,-86.29"/>
</g>
<!-- Node12&#45;&gt;Node10 -->
<g id="edge23" class="edge">
<title>Node12&#45;&gt;Node10</title>
<path fill="none" stroke="midnightblue" d="M112.41,-181C119.59,-181 128.29,-181 137.47,-181"/>
<polygon fill="midnightblue" stroke="midnightblue" points="137.55,-184.5 147.55,-181 137.55,-177.5 137.55,-184.5"/>
</g>
</g>
</svg>
        <g id="navigator" transform="translate(0 0)" fill="#404254">
                <rect fill="#f2f5e9" fill-opacity="0.5" stroke="#606060" stroke-width=".5" x="0" y="0" width="60" height="60"/>
                <use id="zoomplus" xlink:href="#zoomPlus" x="17" y="9" onmousedown="handleZoom(evt,'in')"/>
                <use id="zoomminus" xlink:href="#zoomMin" x="42" y="9" onmousedown="handleZoom(evt,'out')"/>
                <use id="reset" xlink:href="#resetDef" x="30" y="36" onmousedown="handleReset()"/>
                <g id="arrowUp" xlink:href="#dirArrow" transform="translate(30 24)" onmousedown="handlePan(0,-1)">
                  <use xlink:href="#rim" fill="#404040">
                        <set attributeName="fill" to="#808080" begin="arrowUp.mouseover" end="arrowUp.mouseout"/>
                  </use>
                  <path fill="none" stroke="white" stroke-width="1.5" d="M0,-3.0v7 M-2.5,-0.5L0,-3.0L2.5,-0.5"/>
                </g>
                <g id="arrowRight" xlink:href="#dirArrow" transform="rotate(90) translate(36 -43)" onmousedown="handlePan(1,0)">
                  <use xlink:href="#rim" fill="#404040">
                        <set attributeName="fill" to="#808080" begin="arrowRight.mouseover" end="arrowRight.mouseout"/>
                  </use>
                  <path fill="none" stroke="white" stroke-width="1.5" d="M0,-3.0v7 M-2.5,-0.5L0,-3.0L2.5,-0.5"/>
                </g>
                <g id="arrowDown" xlink:href="#dirArrow" transform="rotate(180) translate(-30 -48)" onmousedown="handlePan(0,1)">
                  <use xlink:href="#rim" fill="#404040">
                        <set attributeName="fill" to="#808080" begin="arrowDown.mouseover" end="arrowDown.mouseout"/>
                  </use>
                  <path fill="none" stroke="white" stroke-width="1.5" d="M0,-3.0v7 M-2.5,-0.5L0,-3.0L2.5,-0.5"/>
                </g>
                <g id="arrowLeft" xlink:href="#dirArrow" transform="rotate(270) translate(-36 17)" onmousedown="handlePan(-1,0)">
                  <use xlink:href="#rim" fill="#404040">
                        <set attributeName="fill" to="#808080" begin="arrowLeft.mouseover" end="arrowLeft.mouseout"/>
                  </use>
                  <path fill="none" stroke="white" stroke-width="1.5" d="M0,-3.0v7 M-2.5,-0.5L0,-3.0L2.5,-0.5"/>
                </g>
        </g>
        <svg viewBox="0 0 15 15" width="100%" height="30px" preserveAspectRatio="xMaxYMin meet">
         <g id="arrow_out" transform="scale(0.3 0.3)">
          <a xlink:href="smallest__circle_8cpp_ae66f6b31b5ad750f1fe042a706a4e3d4_cgraph_org.svg" target="_base">
           <rect id="button" ry="5" rx="5" y="6" x="6" height="38" width="38"
                fill="#f2f5e9" fill-opacity="0.5" stroke="#606060" stroke-width="1.0"/>
           <path id="arrow"
             d="M 11.500037,31.436501 C 11.940474,20.09759 22.043105,11.32322 32.158766,21.979434 L 37.068811,17.246167 C 37.068811,17.246167 37.088388,32 37.088388,32 L 22.160133,31.978069 C 22.160133,31.978069 26.997745,27.140456 26.997745,27.140456 C 18.528582,18.264221 13.291696,25.230495 11.500037,31.436501 z"
             style="fill:#404040;"/>
          </a>
         </g>
        </svg>
</svg>
