<?xml version="1.0" encoding="UTF-8" standalone="no"?>
<!DOCTYPE svg PUBLIC "-//W3C//DTD SVG 1.1//EN"
 "http://www.w3.org/Graphics/SVG/1.1/DTD/svg11.dtd">
<!-- Generated by graphviz version 5.0.0 (20220707.1540)
 -->
<!-- Title: PointInCircle Pages: 1 -->
<svg width="293pt" height="66pt"
 viewBox="0.00 0.00 293.00 66.00" xmlns="http://www.w3.org/2000/svg" xmlns:xlink="http://www.w3.org/1999/xlink">
<g id="graph0" class="graph" transform="scale(1 1) rotate(0) translate(4 62)">
<title>PointInCircle</title>
<polygon fill="white" stroke="transparent" points="-4,4 -4,-62 289,-62 289,4 -4,4"/>
<!-- Node1 -->
<g id="node1" class="node">
<title>Node1</title>
<g id="a_node1"><a xlink:title=" ">
<polygon fill="#bfbfbf" stroke="black" points="0,-19.5 0,-38.5 73,-38.5 73,-19.5 0,-19.5"/>
<text text-anchor="middle" x="36.5" y="-26.5" font-family="Helvetica,sans-Serif" font-size="10.00">PointInCircle</text>
</a>
</g>
</g>
<!-- Node2 -->
<g id="node2" class="node">
<title>Node2</title>
<g id="a_node2"><a xlink:href="../../d0/d01/smallest__circle_8cpp.html#a3cbebd6f4d2cdf227663c67fe41ba12a" target="_top" xlink:title=" ">
<polygon fill="white" stroke="black" points="120.5,-38.5 120.5,-57.5 184.5,-57.5 184.5,-38.5 120.5,-38.5"/>
<text text-anchor="middle" x="152.5" y="-45.5" font-family="Helvetica,sans-Serif" font-size="10.00">LenghtLine</text>
</a>
</g>
</g>
<!-- Node1&#45;&gt;Node2 -->
<g id="edge1" class="edge">
<title>Node1&#45;&gt;Node2</title>
<path fill="none" stroke="midnightblue" d="M73.26,-34.96C85.09,-36.93 98.35,-39.14 110.55,-41.17"/>
<polygon fill="midnightblue" stroke="midnightblue" points="110.05,-44.64 120.49,-42.83 111.2,-37.73 110.05,-44.64"/>
</g>
<!-- Node4 -->
<g id="node4" class="node">
<title>Node4</title>
<g id="a_node4"><a target="_blank" xlink:href="http://en.cppreference.com/w/cpp/container/vector/size.html#" xlink:title=" ">
<polygon fill="white" stroke="black" points="109,-0.5 109,-19.5 196,-19.5 196,-0.5 109,-0.5"/>
<text text-anchor="middle" x="152.5" y="-7.5" font-family="Helvetica,sans-Serif" font-size="10.00">std::vector::size</text>
</a>
</g>
</g>
<!-- Node1&#45;&gt;Node4 -->
<g id="edge3" class="edge">
<title>Node1&#45;&gt;Node4</title>
<path fill="none" stroke="midnightblue" d="M73.26,-23.04C81.33,-21.7 90.07,-20.24 98.67,-18.8"/>
<polygon fill="midnightblue" stroke="midnightblue" points="99.38,-22.23 108.67,-17.14 98.23,-15.33 99.38,-22.23"/>
</g>
<!-- Node3 -->
<g id="node3" class="node">
<title>Node3</title>
<g id="a_node3"><a target="_blank" xlink:href="http://en.cppreference.com/w/cpp/numeric/math/sqrt.html#" xlink:title=" ">
<polygon fill="white" stroke="black" points="232,-38.5 232,-57.5 285,-57.5 285,-38.5 232,-38.5"/>
<text text-anchor="middle" x="258.5" y="-45.5" font-family="Helvetica,sans-Serif" font-size="10.00">std::sqrt</text>
</a>
</g>
</g>
<!-- Node2&#45;&gt;Node3 -->
<g id="edge2" class="edge">
<title>Node2&#45;&gt;Node3</title>
<path fill="none" stroke="midnightblue" d="M184.7,-48C196.37,-48 209.7,-48 221.74,-48"/>
<polygon fill="midnightblue" stroke="midnightblue" points="221.91,-51.5 231.91,-48 221.91,-44.5 221.91,-51.5"/>
</g>
</g>
</svg>
