<?xml version="1.0" encoding="UTF-8" standalone="no"?>
<!DOCTYPE svg PUBLIC "-//W3C//DTD SVG 1.1//EN"
 "http://www.w3.org/Graphics/SVG/1.1/DTD/svg11.dtd">
<!-- Generated by graphviz version 9.0.0 (20230911.1827)
 -->
<!-- Title: test3 Pages: 1 -->
<svg width="516pt" height="164pt"
 viewBox="0.00 0.00 516.25 163.64" xmlns="http://www.w3.org/2000/svg" xmlns:xlink="http://www.w3.org/1999/xlink">
<g id="graph0" class="graph" transform="scale(1 1) rotate(0) translate(4 159.64)">
<title>test3</title>
<!-- Node1 -->
<g id="Node000001" class="node">
<title>Node1</title>
<g id="a_Node000001"><a xlink:title=" ">
<polygon fill="#999999" stroke="#666666" points="37.75,-89.64 0,-89.64 0,-70.39 37.75,-70.39 37.75,-89.64"/>
<text text-anchor="middle" x="18.88" y="-76.14" font-family="Helvetica,sans-Serif" font-size="10.00">test3</text>
</a>
</g>
</g>
<!-- Node2 -->
<g id="Node000002" class="node">
<title>Node2</title>
<g id="a_Node000002"><a xlink:href="../../d0/d01/smallest__circle_8cpp.html#a0b0676df8e4da7a08c7ccaecea344903" target="_top" xlink:title=" ">
<polygon fill="white" stroke="#666666" points="151.25,-89.64 112,-89.64 112,-70.39 151.25,-70.39 151.25,-89.64"/>
<text text-anchor="middle" x="131.62" y="-76.14" font-family="Helvetica,sans-Serif" font-size="10.00">circle</text>
</a>
</g>
</g>
<!-- Node1&#45;&gt;Node2 -->
<g id="edge1_Node000001_Node000002" class="edge">
<title>Node1&#45;&gt;Node2</title>
<g id="a_edge1_Node000001_Node000002"><a xlink:title=" ">
<path fill="none" stroke="#63b8ff" d="M38.16,-80.01C55.03,-80.01 80.4,-80.01 100.3,-80.01"/>
<polygon fill="#63b8ff" stroke="#63b8ff" points="100.05,-83.51 110.05,-80.01 100.05,-76.51 100.05,-83.51"/>
</a>
</g>
</g>
<!-- Node3 -->
<g id="Node000003" class="node">
<title>Node3</title>
<g id="a_Node000003"><a target="_blank" xlink:href="http://en.cppreference.com/w/cpp/io/manip/endl.html#" xlink:title=" ">
<polygon fill="white" stroke="#666666" points="288.38,-155.64 234.88,-155.64 234.88,-136.39 288.38,-136.39 288.38,-155.64"/>
<text text-anchor="middle" x="261.62" y="-142.14" font-family="Helvetica,sans-Serif" font-size="10.00">std::endl</text>
</a>
</g>
</g>
<!-- Node1&#45;&gt;Node3 -->
<g id="edge12_Node000001_Node000003" class="edge">
<title>Node1&#45;&gt;Node3</title>
<g id="a_edge12_Node000001_Node000003"><a xlink:title=" ">
<path fill="none" stroke="#63b8ff" d="M38.19,-86.95C48.55,-90.75 61.79,-95.41 73.75,-99.01 125.13,-114.5 185.49,-129.03 223.41,-137.72"/>
<polygon fill="#63b8ff" stroke="#63b8ff" points="222.41,-141.09 232.94,-139.89 223.97,-134.26 222.41,-141.09"/>
</a>
</g>
</g>
<!-- Node9 -->
<g id="Node000009" class="node">
<title>Node9</title>
<g id="a_Node000009"><a target="_blank" xlink:href="http://en.cppreference.com/w/cpp/container/vector/push_back.html#" xlink:title=" ">
<polygon fill="white" stroke="#666666" points="189.5,-52.64 73.75,-52.64 73.75,-33.39 189.5,-33.39 189.5,-52.64"/>
<text text-anchor="middle" x="131.62" y="-39.14" font-family="Helvetica,sans-Serif" font-size="10.00">std::vector::push_back</text>
</a>
</g>
</g>
<!-- Node1&#45;&gt;Node9 -->
<g id="edge13_Node000001_Node000009" class="edge">
<title>Node1&#45;&gt;Node9</title>
<g id="a_edge13_Node000001_Node000009"><a xlink:title=" ">
<path fill="none" stroke="#63b8ff" d="M37.78,-73.53C48.24,-69.79 61.71,-65.04 73.75,-61.01 78.17,-59.53 82.79,-58.02 87.41,-56.53"/>
<polygon fill="#63b8ff" stroke="#63b8ff" points="88.18,-59.95 96.64,-53.57 86.05,-53.29 88.18,-59.95"/>
</a>
</g>
</g>
<!-- Node2&#45;&gt;Node3 -->
<g id="edge2_Node000002_Node000003" class="edge">
<title>Node2&#45;&gt;Node3</title>
<g id="a_edge2_Node000002_Node000003"><a xlink:title=" ">
<path fill="none" stroke="#63b8ff" d="M151.47,-89.78C170.23,-99.49 199.84,-114.81 225.5,-128.01 227.22,-128.9 228.98,-129.8 230.76,-130.72"/>
<polygon fill="#63b8ff" stroke="#63b8ff" points="229.09,-133.79 239.58,-135.24 232.28,-127.56 229.09,-133.79"/>
</a>
</g>
</g>
<!-- Node4 -->
<g id="Node000004" class="node">
<title>Node4</title>
<g id="a_Node000004"><a xlink:href="../../d0/d01/smallest__circle_8cpp.html#a3cbebd6f4d2cdf227663c67fe41ba12a" target="_top" xlink:title=" ">
<polygon fill="white" stroke="#666666" points="408.62,-80.64 345.38,-80.64 345.38,-61.39 408.62,-61.39 408.62,-80.64"/>
<text text-anchor="middle" x="377" y="-67.14" font-family="Helvetica,sans-Serif" font-size="10.00">LenghtLine</text>
</a>
</g>
</g>
<!-- Node2&#45;&gt;Node4 -->
<g id="edge3_Node000002_Node000004" class="edge">
<title>Node2&#45;&gt;Node4</title>
<g id="a_edge3_Node000002_Node000004"><a xlink:title=" ">
<path fill="none" stroke="#63b8ff" d="M151.72,-79.31C190.68,-77.87 280.16,-74.56 333.57,-72.58"/>
<polygon fill="#63b8ff" stroke="#63b8ff" points="333.66,-76.08 343.52,-72.21 333.4,-69.09 333.66,-76.08"/>
</a>
</g>
</g>
<!-- Node6 -->
<g id="Node000006" class="node">
<title>Node6</title>
<g id="a_Node000006"><a xlink:href="../../d0/d01/smallest__circle_8cpp.html#aee6d48762c1dfb9f14627927f0c16fad" target="_top" xlink:title=" ">
<polygon fill="white" stroke="#666666" points="297.75,-42.64 225.5,-42.64 225.5,-23.39 297.75,-23.39 297.75,-42.64"/>
<text text-anchor="middle" x="261.62" y="-29.14" font-family="Helvetica,sans-Serif" font-size="10.00">PointInCircle</text>
</a>
</g>
</g>
<!-- Node2&#45;&gt;Node6 -->
<g id="edge5_Node000002_Node000006" class="edge">
<title>Node2&#45;&gt;Node6</title>
<g id="a_edge5_Node000002_Node000006"><a xlink:title=" ">
<path fill="none" stroke="#63b8ff" d="M151.71,-74.39C162.81,-71.02 177.03,-66.52 189.5,-62.01 201.89,-57.54 215.3,-52.2 227.11,-47.33"/>
<polygon fill="#63b8ff" stroke="#63b8ff" points="228.14,-50.69 236.03,-43.61 225.45,-44.23 228.14,-50.69"/>
</a>
</g>
</g>
<!-- Node7 -->
<g id="Node000007" class="node">
<title>Node7</title>
<g id="a_Node000007"><a target="_blank" xlink:href="http://en.cppreference.com/w/cpp/container/vector/size.html#" xlink:title=" ">
<polygon fill="white" stroke="#666666" points="420.25,-23.64 333.75,-23.64 333.75,-4.39 420.25,-4.39 420.25,-23.64"/>
<text text-anchor="middle" x="377" y="-10.14" font-family="Helvetica,sans-Serif" font-size="10.00">std::vector::size</text>
</a>
</g>
</g>
<!-- Node2&#45;&gt;Node7 -->
<g id="edge8_Node000002_Node000007" class="edge">
<title>Node2&#45;&gt;Node7</title>
<g id="a_edge8_Node000002_Node000007"><a xlink:title=" ">
<path fill="none" stroke="#63b8ff" d="M151.62,-77.06C163.35,-74.53 178.26,-69.98 189.5,-62.01 211.25,-46.59 201.65,-25.94 225.5,-14.01 255.13,0.8 292.33,0.94 322.34,-2.69"/>
<polygon fill="#63b8ff" stroke="#63b8ff" points="321.56,-6.12 331.95,-4.04 322.53,0.82 321.56,-6.12"/>
</a>
</g>
</g>
<!-- Node8 -->
<g id="Node000008" class="node">
<title>Node8</title>
<g id="a_Node000008"><a xlink:href="../../d0/d01/smallest__circle_8cpp.html#a94682a4a70d5906857ca09de5b9fb2cc" target="_top" xlink:title=" ">
<polygon fill="white" stroke="#666666" points="297,-118.64 226.25,-118.64 226.25,-99.39 297,-99.39 297,-118.64"/>
<text text-anchor="middle" x="261.62" y="-105.14" font-family="Helvetica,sans-Serif" font-size="10.00">TriangleArea</text>
</a>
</g>
</g>
<!-- Node2&#45;&gt;Node8 -->
<g id="edge9_Node000002_Node000008" class="edge">
<title>Node2&#45;&gt;Node8</title>
<g id="a_edge9_Node000002_Node000008"><a xlink:title=" ">
<path fill="none" stroke="#63b8ff" d="M151.51,-84.29C168.15,-88.06 193.07,-93.71 214.9,-98.65"/>
<polygon fill="#63b8ff" stroke="#63b8ff" points="213.97,-102.03 224.49,-100.83 215.51,-95.2 213.97,-102.03"/>
</a>
</g>
</g>
<!-- Node5 -->
<g id="Node000005" class="node">
<title>Node5</title>
<g id="a_Node000005"><a target="_blank" xlink:href="http://en.cppreference.com/w/cpp/numeric/math/sqrt.html#" xlink:title=" ">
<polygon fill="white" stroke="#666666" points="508.25,-99.64 456.25,-99.64 456.25,-80.39 508.25,-80.39 508.25,-99.64"/>
<text text-anchor="middle" x="482.25" y="-86.14" font-family="Helvetica,sans-Serif" font-size="10.00">std::sqrt</text>
</a>
</g>
</g>
<!-- Node4&#45;&gt;Node5 -->
<g id="edge4_Node000004_Node000005" class="edge">
<title>Node4&#45;&gt;Node5</title>
<g id="a_edge4_Node000004_Node000005"><a xlink:title=" ">
<path fill="none" stroke="#63b8ff" d="M408.98,-76.71C420.21,-78.78 432.99,-81.13 444.66,-83.28"/>
<polygon fill="#63b8ff" stroke="#63b8ff" points="443.89,-86.7 454.36,-85.06 445.16,-79.81 443.89,-86.7"/>
</a>
</g>
</g>
<!-- Node6&#45;&gt;Node4 -->
<g id="edge6_Node000006_Node000004" class="edge">
<title>Node6&#45;&gt;Node4</title>
<g id="a_edge6_Node000006_Node000004"><a xlink:title=" ">
<path fill="none" stroke="#63b8ff" d="M292.71,-43.1C305.75,-47.47 321.23,-52.65 335.28,-57.36"/>
<polygon fill="#63b8ff" stroke="#63b8ff" points="334.14,-60.67 344.73,-60.53 336.36,-54.04 334.14,-60.67"/>
</a>
</g>
</g>
<!-- Node6&#45;&gt;Node7 -->
<g id="edge7_Node000006_Node000007" class="edge">
<title>Node6&#45;&gt;Node7</title>
<g id="a_edge7_Node000006_Node000007"><a xlink:title=" ">
<path fill="none" stroke="#63b8ff" d="M298.19,-27.05C305.78,-25.78 313.96,-24.41 322.07,-23.05"/>
<polygon fill="#63b8ff" stroke="#63b8ff" points="322.63,-26.51 331.92,-21.4 321.47,-19.6 322.63,-26.51"/>
</a>
</g>
</g>
<!-- Node8&#45;&gt;Node4 -->
<g id="edge10_Node000008_Node000004" class="edge">
<title>Node8&#45;&gt;Node4</title>
<g id="a_edge10_Node000008_Node000004"><a xlink:title=" ">
<path fill="none" stroke="#63b8ff" d="M292.71,-98.93C305.75,-94.56 321.23,-89.37 335.28,-84.66"/>
<polygon fill="#63b8ff" stroke="#63b8ff" points="336.36,-87.99 344.73,-81.49 334.14,-81.35 336.36,-87.99"/>
</a>
</g>
</g>
<!-- Node8&#45;&gt;Node5 -->
<g id="edge11_Node000008_Node000005" class="edge">
<title>Node8&#45;&gt;Node5</title>
<g id="a_edge11_Node000008_Node000005"><a xlink:title=" ">
<path fill="none" stroke="#63b8ff" d="M297.27,-106C337.48,-102.51 403.53,-96.77 444.59,-93.2"/>
<polygon fill="#63b8ff" stroke="#63b8ff" points="444.8,-96.69 454.46,-92.34 444.2,-89.72 444.8,-96.69"/>
</a>
</g>
</g>
</g>
</svg>
