<?xml version="1.0" encoding="UTF-8" standalone="no"?>
<!DOCTYPE svg PUBLIC "-//W3C//DTD SVG 1.1//EN"
 "http://www.w3.org/Graphics/SVG/1.1/DTD/svg11.dtd">
<!-- Generated by graphviz version 9.0.0 (20230911.1827)
 -->
<!-- Title: insert Pages: 1 -->
<svg width="319pt" height="138pt"
 viewBox="0.00 0.00 318.75 138.25" xmlns="http://www.w3.org/2000/svg" xmlns:xlink="http://www.w3.org/1999/xlink">

<svg id="main" version="1.1" xmlns="http://www.w3.org/2000/svg" xmlns:xlink="http://www.w3.org/1999/xlink" xml:space="preserve" onload="init(evt)">
<style type="text/css"><![CDATA[
.node, .edge {opacity: 0.7;}
.node.selected, .edge.selected {opacity: 1;}
.edge:hover path { stroke: red; }
.edge:hover polygon { stroke: red; fill: red; }
]]></style>
<script type="application/ecmascript" xlink:href="../../svg.min.js"/>
<svg id="graph" class="graph">
<g id="graph0" class="graph" transform="scale(1 1) rotate(0) translate(4 134.25)">
<title>insert</title>
<!-- Node1 -->
<g id="Node000001" class="node">
<title>Node1</title>
<g id="a_Node000001"><a xlink:title="inserts a new element into AVL tree">
<polygon fill="#999999" stroke="#666666" points="40,-74.25 0,-74.25 0,-55 40,-55 40,-74.25"/>
<text text-anchor="middle" x="20" y="-60.75" font-family="Helvetica,sans-Serif" font-size="10.00">insert</text>
</a>
</g>
</g>
<!-- Node1&#45;&gt;Node1 -->
<g id="edge6_Node000001_Node000001" class="edge">
<title>Node1&#45;&gt;Node1</title>
<g id="a_edge6_Node000001_Node000001"><a xlink:title=" ">
<path fill="none" stroke="#63b8ff" d="M6.05,-74.54C-0.32,-83.15 4.33,-92.25 20,-92.25 28.57,-92.25 33.84,-89.53 35.82,-85.65"/>
<polygon fill="#63b8ff" stroke="#63b8ff" points="39.31,-85.31 34.2,-76.03 32.41,-86.47 39.31,-85.31"/>
</a>
</g>
</g>
<!-- Node2 -->
<g id="Node000002" class="node">
<title>Node2</title>
<g id="a_Node000002"><a xlink:href="../../d8/dee/avltree_8cpp.html#a48d897353aeb6a721dbc6b6c57e035e6" target="_top" xlink:title="creates and returns a new node">
<polygon fill="white" stroke="#666666" points="142.25,-130.25 76,-130.25 76,-111 142.25,-111 142.25,-130.25"/>
<text text-anchor="middle" x="109.12" y="-116.75" font-family="Helvetica,sans-Serif" font-size="10.00">createNode</text>
</a>
</g>
</g>
<!-- Node1&#45;&gt;Node2 -->
<g id="edge1_Node000001_Node000002" class="edge">
<title>Node1&#45;&gt;Node2</title>
<g id="a_edge1_Node000001_Node000002"><a xlink:title=" ">
<path fill="none" stroke="#63b8ff" d="M34.77,-74.68C45.76,-82.56 61.62,-93.66 76,-102.62 77.22,-103.39 78.47,-104.15 79.75,-104.92"/>
<polygon fill="#63b8ff" stroke="#63b8ff" points="77.89,-107.89 88.3,-109.88 81.4,-101.83 77.89,-107.89"/>
</a>
</g>
</g>
<!-- Node3 -->
<g id="Node000003" class="node">
<title>Node3</title>
<g id="a_Node000003"><a xlink:href="../../d8/dee/avltree_8cpp.html#aaa457ffec24c9643f2768e7a65e96546" target="_top" xlink:title=" ">
<polygon fill="white" stroke="#666666" points="141.5,-93.25 76.75,-93.25 76.75,-74 141.5,-74 141.5,-93.25"/>
<text text-anchor="middle" x="109.12" y="-79.75" font-family="Helvetica,sans-Serif" font-size="10.00">getBalance</text>
</a>
</g>
</g>
<!-- Node1&#45;&gt;Node3 -->
<g id="edge2_Node000001_Node000003" class="edge">
<title>Node1&#45;&gt;Node3</title>
<g id="a_edge2_Node000001_Node000003"><a xlink:title=" ">
<path fill="none" stroke="#63b8ff" d="M40.34,-68.84C47.81,-70.47 56.68,-72.41 65.49,-74.33"/>
<polygon fill="#63b8ff" stroke="#63b8ff" points="64.53,-77.7 75.05,-76.41 66.02,-70.86 64.53,-77.7"/>
</a>
</g>
</g>
<!-- Node6 -->
<g id="Node000006" class="node">
<title>Node6</title>
<g id="a_Node000006"><a xlink:href="../../d8/dee/avltree_8cpp.html#a473eee1803e4e44a54d685e4b0eef5a6" target="_top" xlink:title=" ">
<polygon fill="white" stroke="#666666" points="138.5,-56.25 79.75,-56.25 79.75,-37 138.5,-37 138.5,-56.25"/>
<text text-anchor="middle" x="109.12" y="-42.75" font-family="Helvetica,sans-Serif" font-size="10.00">leftRotate</text>
</a>
</g>
</g>
<!-- Node1&#45;&gt;Node6 -->
<g id="edge7_Node000001_Node000006" class="edge">
<title>Node1&#45;&gt;Node6</title>
<g id="a_edge7_Node000001_Node000006"><a xlink:title=" ">
<path fill="none" stroke="#63b8ff" d="M40.34,-60.63C48.62,-58.92 58.63,-56.85 68.37,-54.84"/>
<polygon fill="#63b8ff" stroke="#63b8ff" points="69.01,-58.28 78.1,-52.83 67.59,-51.42 69.01,-58.28"/>
</a>
</g>
</g>
<!-- Node7 -->
<g id="Node000007" class="node">
<title>Node7</title>
<g id="a_Node000007"><a xlink:href="../../d8/dee/avltree_8cpp.html#adfc1d482a564c041756719667b955b8c" target="_top" xlink:title=" ">
<polygon fill="white" stroke="#666666" points="141.12,-19.25 77.12,-19.25 77.12,0 141.12,0 141.12,-19.25"/>
<text text-anchor="middle" x="109.12" y="-5.75" font-family="Helvetica,sans-Serif" font-size="10.00">rightRotate</text>
</a>
</g>
</g>
<!-- Node1&#45;&gt;Node7 -->
<g id="edge8_Node000001_Node000007" class="edge">
<title>Node1&#45;&gt;Node7</title>
<g id="a_edge8_Node000001_Node000007"><a xlink:title=" ">
<path fill="none" stroke="#63b8ff" d="M35.27,-54.56C46.25,-46.93 61.88,-36.31 76,-27.62 77.23,-26.87 78.48,-26.11 79.76,-25.35"/>
<polygon fill="#63b8ff" stroke="#63b8ff" points="81.41,-28.44 88.32,-20.41 77.91,-22.38 81.41,-28.44"/>
</a>
</g>
</g>
<!-- Node4 -->
<g id="Node000004" class="node">
<title>Node4</title>
<g id="a_Node000004"><a xlink:href="../../d8/dee/avltree_8cpp.html#ae4a66d8b0c2b0d626aea45977e358c83" target="_top" xlink:title=" ">
<polygon fill="white" stroke="#666666" points="220.5,-93.25 178.25,-93.25 178.25,-74 220.5,-74 220.5,-93.25"/>
<text text-anchor="middle" x="199.38" y="-79.75" font-family="Helvetica,sans-Serif" font-size="10.00">height</text>
</a>
</g>
</g>
<!-- Node3&#45;&gt;Node4 -->
<g id="edge3_Node000003_Node000004" class="edge">
<title>Node3&#45;&gt;Node4</title>
<g id="a_edge3_Node000003_Node000004"><a xlink:title=" ">
<path fill="none" stroke="#63b8ff" d="M141.99,-83.62C149.92,-83.62 158.43,-83.62 166.37,-83.62"/>
<polygon fill="#63b8ff" stroke="#63b8ff" points="166.32,-87.13 176.32,-83.63 166.32,-80.13 166.32,-87.13"/>
</a>
</g>
</g>
<!-- Node4&#45;&gt;Node4 -->
<g id="edge4_Node000004_Node000004" class="edge">
<title>Node4&#45;&gt;Node4</title>
<g id="a_edge4_Node000004_Node000004"><a xlink:title=" ">
<path fill="none" stroke="#63b8ff" d="M186.19,-93.54C180.17,-102.15 184.57,-111.25 199.38,-111.25 207.47,-111.25 212.46,-108.53 214.33,-104.65"/>
<polygon fill="#63b8ff" stroke="#63b8ff" points="217.83,-104.36 212.8,-95.03 210.91,-105.46 217.83,-104.36"/>
</a>
</g>
</g>
<!-- Node5 -->
<g id="Node000005" class="node">
<title>Node5</title>
<g id="a_Node000005"><a target="_blank" xlink:href="http://en.cppreference.com/w/cpp/algorithm/max.html#" xlink:title=" ">
<polygon fill="white" stroke="#666666" points="310.75,-93.25 256.5,-93.25 256.5,-74 310.75,-74 310.75,-93.25"/>
<text text-anchor="middle" x="283.62" y="-79.75" font-family="Helvetica,sans-Serif" font-size="10.00">std::max</text>
</a>
</g>
</g>
<!-- Node4&#45;&gt;Node5 -->
<g id="edge5_Node000004_Node000005" class="edge">
<title>Node4&#45;&gt;Node5</title>
<g id="a_edge5_Node000004_Node000005"><a xlink:title=" ">
<path fill="none" stroke="#63b8ff" d="M220.71,-83.62C227.95,-83.62 236.36,-83.62 244.6,-83.62"/>
<polygon fill="#63b8ff" stroke="#63b8ff" points="244.49,-87.13 254.49,-83.63 244.49,-80.13 244.49,-87.13"/>
</a>
</g>
</g>
</g>
</svg>
</svg>

<style type='text/css'>
<![CDATA[
[data-mouse-over-selected='false'] { opacity: 0.7; }
[data-mouse-over-selected='true']  { opacity: 1.0; }
]]>
</style>
<script type="application/ecmascript"><![CDATA[
document.addEventListener('DOMContentLoaded', (event) => {
  highlightEdges();
  highlightAdjacentNodes();
});
]]></script>
</svg>
