<?xml version="1.0" encoding="UTF-8" standalone="no"?>
<!DOCTYPE svg PUBLIC "-//W3C//DTD SVG 1.1//EN"
 "http://www.w3.org/Graphics/SVG/1.1/DTD/svg11.dtd">
<!-- Generated by graphviz version 12.1.2 (20240928.0832)
 -->
<!-- Title: main Pages: 1 -->
<svg width="434pt" height="229pt"
 viewBox="0.00 0.00 433.75 229.25" xmlns="http://www.w3.org/2000/svg" xmlns:xlink="http://www.w3.org/1999/xlink">
<g id="graph0" class="graph" transform="scale(1 1) rotate(0) translate(4 225.25)">
<title>main</title>
<!-- Node1 -->
<g id="Node000001" class="node">
<title>Node1</title>
<g id="a_Node000001"><a xlink:title="Main function.">
<polygon fill="#999999" stroke="#666666" points="37,-120.25 0,-120.25 0,-101 37,-101 37,-120.25"/>
<text text-anchor="middle" x="18.5" y="-106.75" font-family="Helvetica,sans-Serif" font-size="10.00">main</text>
</a>
</g>
</g>
<!-- Node2 -->
<g id="Node000002" class="node">
<title>Node2</title>
<g id="a_Node000002"><a xlink:href="../../d8/dee/avltree_8cpp.html#a82659e9e223e520cf91d7e55c4a3f88c" target="_top" xlink:title="calls delete on every node">
<polygon fill="white" stroke="#666666" points="155,-203.25 73,-203.25 73,-184 155,-184 155,-203.25"/>
<text text-anchor="middle" x="114" y="-189.75" font-family="Helvetica,sans-Serif" font-size="10.00">deleteAllNodes</text>
</a>
</g>
</g>
<!-- Node1&#45;&gt;Node2 -->
<g id="edge1_Node000001_Node000002" class="edge">
<title>Node1&#45;&gt;Node2</title>
<g id="a_edge1_Node000001_Node000002"><a xlink:title=" ">
<path fill="none" stroke="#63b8ff" d="M25.62,-120.65C34.54,-134.57 52.33,-159.83 73,-175.62 74.12,-176.48 75.29,-177.31 76.5,-178.11"/>
<polygon fill="#63b8ff" stroke="#63b8ff" points="74.47,-180.98 84.89,-182.89 77.93,-174.9 74.47,-180.98"/>
</a>
</g>
</g>
<!-- Node3 -->
<g id="Node000003" class="node">
<title>Node3</title>
<g id="a_Node000003"><a xlink:href="../../d8/dee/avltree_8cpp.html#aa29a7fdc2db1784f5a6e25025ff7cbf5" target="_top" xlink:title="removes a given element from AVL tree">
<polygon fill="white" stroke="#666666" points="146.75,-148.25 81.25,-148.25 81.25,-129 146.75,-129 146.75,-148.25"/>
<text text-anchor="middle" x="114" y="-134.75" font-family="Helvetica,sans-Serif" font-size="10.00">deleteNode</text>
</a>
</g>
</g>
<!-- Node1&#45;&gt;Node3 -->
<g id="edge3_Node000001_Node000003" class="edge">
<title>Node1&#45;&gt;Node3</title>
<g id="a_edge3_Node000001_Node000003"><a xlink:title=" ">
<path fill="none" stroke="#63b8ff" d="M37.09,-115.89C46.47,-118.7 58.46,-122.29 70.12,-125.78"/>
<polygon fill="#63b8ff" stroke="#63b8ff" points="69.08,-129.13 79.66,-128.64 71.09,-122.42 69.08,-129.13"/>
</a>
</g>
</g>
<!-- Node5 -->
<g id="Node000005" class="node">
<title>Node5</title>
<g id="a_Node000005"><a xlink:href="../../d8/dee/avltree_8cpp.html#a2473fe7416332495b2678ebe89652e4b" target="_top" xlink:title="inserts a new element into AVL tree">
<polygon fill="white" stroke="#666666" points="134,-93.25 94,-93.25 94,-74 134,-74 134,-93.25"/>
<text text-anchor="middle" x="114" y="-79.75" font-family="Helvetica,sans-Serif" font-size="10.00">insert</text>
</a>
</g>
</g>
<!-- Node1&#45;&gt;Node5 -->
<g id="edge7_Node000001_Node000005" class="edge">
<title>Node1&#45;&gt;Node5</title>
<g id="a_edge7_Node000001_Node000005"><a xlink:title=" ">
<path fill="none" stroke="#63b8ff" d="M37.09,-105.55C49.9,-101.85 67.58,-96.74 82.66,-92.39"/>
<polygon fill="#63b8ff" stroke="#63b8ff" points="83.47,-95.8 92.1,-89.66 81.52,-89.07 83.47,-95.8"/>
</a>
</g>
</g>
<!-- Node12 -->
<g id="Node000012" class="node">
<title>Node12</title>
<g id="a_Node000012"><a xlink:href="../../d8/dee/avltree_8cpp.html#ae197eb50188fb761346952b9b5f6be59" target="_top" xlink:title="prints given tree in the LevelOrder">
<polygon fill="white" stroke="#666666" points="144.12,-56.25 83.88,-56.25 83.88,-37 144.12,-37 144.12,-56.25"/>
<text text-anchor="middle" x="114" y="-42.75" font-family="Helvetica,sans-Serif" font-size="10.00">levelOrder</text>
</a>
</g>
</g>
<!-- Node1&#45;&gt;Node12 -->
<g id="edge16_Node000001_Node000012" class="edge">
<title>Node1&#45;&gt;Node12</title>
<g id="a_edge16_Node000001_Node000012"><a xlink:title=" ">
<path fill="none" stroke="#63b8ff" d="M29.45,-100.51C39.7,-90.48 56.46,-75.14 73,-64.62 74.59,-63.61 76.25,-62.63 77.94,-61.68"/>
<polygon fill="#63b8ff" stroke="#63b8ff" points="79.22,-64.95 86.53,-57.28 76.04,-58.72 79.22,-64.95"/>
</a>
</g>
</g>
<!-- Node2&#45;&gt;Node2 -->
<g id="edge2_Node000002_Node000002" class="edge">
<title>Node2&#45;&gt;Node2</title>
<g id="a_edge2_Node000002_Node000002"><a xlink:title=" ">
<path fill="none" stroke="#63b8ff" d="M99.05,-203.54C92.23,-212.15 97.21,-221.25 114,-221.25 123.18,-221.25 128.83,-218.53 130.95,-214.65"/>
<polygon fill="#63b8ff" stroke="#63b8ff" points="134.44,-214.25 129.22,-205.03 127.55,-215.49 134.44,-214.25"/>
</a>
</g>
</g>
<!-- Node3&#45;&gt;Node3 -->
<g id="edge4_Node000003_Node000003" class="edge">
<title>Node3&#45;&gt;Node3</title>
<g id="a_edge4_Node000003_Node000003"><a xlink:title=" ">
<path fill="none" stroke="#63b8ff" d="M99.05,-148.54C92.23,-157.15 97.21,-166.25 114,-166.25 123.18,-166.25 128.83,-163.53 130.95,-159.65"/>
<polygon fill="#63b8ff" stroke="#63b8ff" points="134.44,-159.25 129.22,-150.03 127.55,-160.49 134.44,-159.25"/>
</a>
</g>
</g>
<!-- Node4 -->
<g id="Node000004" class="node">
<title>Node4</title>
<g id="a_Node000004"><a xlink:href="../../d8/dee/avltree_8cpp.html#a5fa160a678a34dd51c0aea1c0c00ed5e" target="_top" xlink:title=" ">
<polygon fill="white" stroke="#666666" points="252,-167.25 196.25,-167.25 196.25,-148 252,-148 252,-167.25"/>
<text text-anchor="middle" x="224.12" y="-153.75" font-family="Helvetica,sans-Serif" font-size="10.00">minValue</text>
</a>
</g>
</g>
<!-- Node3&#45;&gt;Node4 -->
<g id="edge5_Node000003_Node000004" class="edge">
<title>Node3&#45;&gt;Node4</title>
<g id="a_edge5_Node000003_Node000004"><a xlink:title=" ">
<path fill="none" stroke="#63b8ff" d="M147.15,-144.27C158.94,-146.35 172.41,-148.71 184.7,-150.87"/>
<polygon fill="#63b8ff" stroke="#63b8ff" points="184.08,-154.32 194.54,-152.6 185.29,-147.42 184.08,-154.32"/>
</a>
</g>
</g>
<!-- Node4&#45;&gt;Node4 -->
<g id="edge6_Node000004_Node000004" class="edge">
<title>Node4&#45;&gt;Node4</title>
<g id="a_edge6_Node000004_Node000004"><a xlink:title=" ">
<path fill="none" stroke="#63b8ff" d="M210,-167.54C203.55,-176.15 208.26,-185.25 224.12,-185.25 232.8,-185.25 238.14,-182.53 240.14,-178.65"/>
<polygon fill="#63b8ff" stroke="#63b8ff" points="243.64,-178.3 238.51,-169.03 236.73,-179.48 243.64,-178.3"/>
</a>
</g>
</g>
<!-- Node5&#45;&gt;Node5 -->
<g id="edge13_Node000005_Node000005" class="edge">
<title>Node5&#45;&gt;Node5</title>
<g id="a_edge13_Node000005_Node000005"><a xlink:title=" ">
<path fill="none" stroke="#63b8ff" d="M99.05,-93.54C92.23,-102.15 97.21,-111.25 114,-111.25 123.18,-111.25 128.83,-108.53 130.95,-104.65"/>
<polygon fill="#63b8ff" stroke="#63b8ff" points="134.44,-104.25 129.22,-95.03 127.55,-105.49 134.44,-104.25"/>
</a>
</g>
</g>
<!-- Node6 -->
<g id="Node000006" class="node">
<title>Node6</title>
<g id="a_Node000006"><a xlink:href="../../d8/dee/avltree_8cpp.html#a48d897353aeb6a721dbc6b6c57e035e6" target="_top" xlink:title="creates and returns a new node">
<polygon fill="white" stroke="#666666" points="257.25,-130.25 191,-130.25 191,-111 257.25,-111 257.25,-130.25"/>
<text text-anchor="middle" x="224.12" y="-116.75" font-family="Helvetica,sans-Serif" font-size="10.00">createNode</text>
</a>
</g>
</g>
<!-- Node5&#45;&gt;Node6 -->
<g id="edge8_Node000005_Node000006" class="edge">
<title>Node5&#45;&gt;Node6</title>
<g id="a_edge8_Node000005_Node000006"><a xlink:title=" ">
<path fill="none" stroke="#63b8ff" d="M134.33,-90.24C147.88,-94.88 166.49,-101.24 183.17,-106.95"/>
<polygon fill="#63b8ff" stroke="#63b8ff" points="181.75,-110.17 192.34,-110.09 184.02,-103.54 181.75,-110.17"/>
</a>
</g>
</g>
<!-- Node7 -->
<g id="Node000007" class="node">
<title>Node7</title>
<g id="a_Node000007"><a xlink:href="../../d8/dee/avltree_8cpp.html#aaa457ffec24c9643f2768e7a65e96546" target="_top" xlink:title=" ">
<polygon fill="white" stroke="#666666" points="256.5,-93.25 191.75,-93.25 191.75,-74 256.5,-74 256.5,-93.25"/>
<text text-anchor="middle" x="224.12" y="-79.75" font-family="Helvetica,sans-Serif" font-size="10.00">getBalance</text>
</a>
</g>
</g>
<!-- Node5&#45;&gt;Node7 -->
<g id="edge9_Node000005_Node000007" class="edge">
<title>Node5&#45;&gt;Node7</title>
<g id="a_edge9_Node000005_Node000007"><a xlink:title=" ">
<path fill="none" stroke="#63b8ff" d="M134.33,-83.62C147.14,-83.62 164.45,-83.62 180.39,-83.62"/>
<polygon fill="#63b8ff" stroke="#63b8ff" points="180.16,-87.13 190.16,-83.63 180.16,-80.13 180.16,-87.13"/>
</a>
</g>
</g>
<!-- Node10 -->
<g id="Node000010" class="node">
<title>Node10</title>
<g id="a_Node000010"><a xlink:href="../../d8/dee/avltree_8cpp.html#a473eee1803e4e44a54d685e4b0eef5a6" target="_top" xlink:title=" ">
<polygon fill="white" stroke="#666666" points="253.5,-56.25 194.75,-56.25 194.75,-37 253.5,-37 253.5,-56.25"/>
<text text-anchor="middle" x="224.12" y="-42.75" font-family="Helvetica,sans-Serif" font-size="10.00">leftRotate</text>
</a>
</g>
</g>
<!-- Node5&#45;&gt;Node10 -->
<g id="edge14_Node000005_Node000010" class="edge">
<title>Node5&#45;&gt;Node10</title>
<g id="a_edge14_Node000005_Node000010"><a xlink:title=" ">
<path fill="none" stroke="#63b8ff" d="M134.33,-77.01C148.08,-72.3 167.04,-65.82 183.9,-60.05"/>
<polygon fill="#63b8ff" stroke="#63b8ff" points="184.85,-63.42 193.17,-56.87 182.58,-56.8 184.85,-63.42"/>
</a>
</g>
</g>
<!-- Node11 -->
<g id="Node000011" class="node">
<title>Node11</title>
<g id="a_Node000011"><a xlink:href="../../d8/dee/avltree_8cpp.html#adfc1d482a564c041756719667b955b8c" target="_top" xlink:title=" ">
<polygon fill="white" stroke="#666666" points="256.12,-19.25 192.12,-19.25 192.12,0 256.12,0 256.12,-19.25"/>
<text text-anchor="middle" x="224.12" y="-5.75" font-family="Helvetica,sans-Serif" font-size="10.00">rightRotate</text>
</a>
</g>
</g>
<!-- Node5&#45;&gt;Node11 -->
<g id="edge15_Node000005_Node000011" class="edge">
<title>Node5&#45;&gt;Node11</title>
<g id="a_edge15_Node000005_Node000011"><a xlink:title=" ">
<path fill="none" stroke="#63b8ff" d="M134.14,-76.8C141.03,-73.89 148.67,-70.12 155,-65.62 173.97,-52.15 172.64,-41.92 191,-27.62 191.82,-26.99 192.66,-26.36 193.52,-25.74"/>
<polygon fill="#63b8ff" stroke="#63b8ff" points="195.35,-28.73 201.89,-20.39 191.58,-22.83 195.35,-28.73"/>
</a>
</g>
</g>
<!-- Node8 -->
<g id="Node000008" class="node">
<title>Node8</title>
<g id="a_Node000008"><a xlink:href="../../d8/dee/avltree_8cpp.html#ae4a66d8b0c2b0d626aea45977e358c83" target="_top" xlink:title=" ">
<polygon fill="white" stroke="#666666" points="335.5,-93.25 293.25,-93.25 293.25,-74 335.5,-74 335.5,-93.25"/>
<text text-anchor="middle" x="314.38" y="-79.75" font-family="Helvetica,sans-Serif" font-size="10.00">height</text>
</a>
</g>
</g>
<!-- Node7&#45;&gt;Node8 -->
<g id="edge10_Node000007_Node000008" class="edge">
<title>Node7&#45;&gt;Node8</title>
<g id="a_edge10_Node000007_Node000008"><a xlink:title=" ">
<path fill="none" stroke="#63b8ff" d="M256.99,-83.62C264.92,-83.62 273.43,-83.62 281.37,-83.62"/>
<polygon fill="#63b8ff" stroke="#63b8ff" points="281.32,-87.13 291.32,-83.63 281.32,-80.13 281.32,-87.13"/>
</a>
</g>
</g>
<!-- Node8&#45;&gt;Node8 -->
<g id="edge11_Node000008_Node000008" class="edge">
<title>Node8&#45;&gt;Node8</title>
<g id="a_edge11_Node000008_Node000008"><a xlink:title=" ">
<path fill="none" stroke="#63b8ff" d="M301.19,-93.54C295.17,-102.15 299.57,-111.25 314.38,-111.25 322.47,-111.25 327.46,-108.53 329.33,-104.65"/>
<polygon fill="#63b8ff" stroke="#63b8ff" points="332.83,-104.36 327.8,-95.03 325.91,-105.46 332.83,-104.36"/>
</a>
</g>
</g>
<!-- Node9 -->
<g id="Node000009" class="node">
<title>Node9</title>
<g id="a_Node000009"><a target="_blank" xlink:href="http://en.cppreference.com/w/cpp/algorithm/max.html#" xlink:title=" ">
<polygon fill="white" stroke="#666666" points="425.75,-93.25 371.5,-93.25 371.5,-74 425.75,-74 425.75,-93.25"/>
<text text-anchor="middle" x="398.62" y="-79.75" font-family="Helvetica,sans-Serif" font-size="10.00">std::max</text>
</a>
</g>
</g>
<!-- Node8&#45;&gt;Node9 -->
<g id="edge12_Node000008_Node000009" class="edge">
<title>Node8&#45;&gt;Node9</title>
<g id="a_edge12_Node000008_Node000009"><a xlink:title=" ">
<path fill="none" stroke="#63b8ff" d="M335.71,-83.62C342.95,-83.62 351.36,-83.62 359.6,-83.62"/>
<polygon fill="#63b8ff" stroke="#63b8ff" points="359.49,-87.13 369.49,-83.63 359.49,-80.13 359.49,-87.13"/>
</a>
</g>
</g>
</g>
</svg>
