<?xml version="1.0" encoding="UTF-8" standalone="no"?>
<!DOCTYPE svg PUBLIC "-//W3C//DTD SVG 1.1//EN"
 "http://www.w3.org/Graphics/SVG/1.1/DTD/svg11.dtd">
<!-- Generated by graphviz version 8.0.4 (20230421.1958)
 -->
<!-- Title: power Pages: 1 -->
<svg width="136pt" height="45pt"
 viewBox="0.00 0.00 136.00 45.25" xmlns="http://www.w3.org/2000/svg" xmlns:xlink="http://www.w3.org/1999/xlink">
<g id="graph0" class="graph" transform="scale(1 1) rotate(0) translate(4 41.25)">
<title>power</title>
<!-- Node1 -->
<g id="node1" class="node">
<title>Node1</title>
<g id="a_node1"><a xlink:title=" ">
<polygon fill="#999999" stroke="#666666" points="42.25,-19.25 0,-19.25 0,0 42.25,0 42.25,-19.25"/>
<text text-anchor="middle" x="21.12" y="-5.75" font-family="Helvetica,sans-Serif" font-size="10.00">power</text>
</a>
</g>
</g>
<!-- Node1&#45;&gt;Node1 -->
<g id="edge2" class="edge">
<title>Node1&#45;&gt;Node1</title>
<path fill="none" stroke="#63b8ff" d="M8.29,-19.54C2.43,-28.15 6.71,-37.25 21.12,-37.25 29.23,-37.25 34.13,-34.37 35.83,-30.32"/>
<polygon fill="#63b8ff" stroke="#63b8ff" points="39.12,-29.79 33.96,-20.54 32.22,-30.99 39.12,-29.79"/>
</g>
<!-- Node2 -->
<g id="node2" class="node">
<title>Node2</title>
<g id="a_node2"><a xlink:href="../../d7/d35/matrix__exponentiation_8cpp.html#a357cfbebfdc47a237a2862fe146af252" target="_top" xlink:title=" ">
<polygon fill="white" stroke="#666666" points="128,-19.25 78.25,-19.25 78.25,0 128,0 128,-19.25"/>
<text text-anchor="middle" x="103.12" y="-5.75" font-family="Helvetica,sans-Serif" font-size="10.00">multiply</text>
</a>
</g>
</g>
<!-- Node1&#45;&gt;Node2 -->
<g id="edge1" class="edge">
<title>Node1&#45;&gt;Node2</title>
<path fill="none" stroke="#63b8ff" d="M42.73,-9.62C50.11,-9.62 58.66,-9.62 66.93,-9.62"/>
<polygon fill="#63b8ff" stroke="#63b8ff" points="66.9,-13.13 76.9,-9.62 66.9,-6.13 66.9,-13.13"/>
</g>
</g>
</svg>
