<?xml version="1.0" encoding="UTF-8" standalone="no"?>
<!DOCTYPE svg PUBLIC "-//W3C//DTD SVG 1.1//EN"
 "http://www.w3.org/Graphics/SVG/1.1/DTD/svg11.dtd">
<!-- Generated by graphviz version 6.0.1 (20220911.1526)
 -->
<!-- Title: uint256_t::operator% Pages: 1 -->
<svg width="471pt" height="27pt"
 viewBox="0.00 0.00 471.00 27.00" xmlns="http://www.w3.org/2000/svg" xmlns:xlink="http://www.w3.org/1999/xlink">
<g id="graph0" class="graph" transform="scale(1 1) rotate(0) translate(4 23)">
<title>uint256_t::operator%</title>
<!-- Node1 -->
<g id="node1" class="node">
<title>Node1</title>
<g id="a_node1"><a xlink:title="operator % for uint256_t">
<polygon fill="#999999" stroke="#666666" points="107,-19 0,-19 0,0 107,0 107,-19"/>
<text text-anchor="middle" x="53.5" y="-7" font-family="Helvetica,sans-Serif" font-size="10.00">uint256_t::operator%</text>
</a>
</g>
</g>
<!-- Node2 -->
<g id="node2" class="node">
<title>Node2</title>
<g id="a_node2"><a xlink:href="../../d1/d83/classuint256__t.html#a8161d52d369e525f4e61129376adfcf1" target="_top" xlink:title="divide function for uint256_t and other integer types.">
<polygon fill="white" stroke="#666666" points="231,-19 143,-19 143,0 231,0 231,-19"/>
<text text-anchor="middle" x="187" y="-7" font-family="Helvetica,sans-Serif" font-size="10.00">uint256_t::divide</text>
</a>
</g>
</g>
<!-- Node1&#45;&gt;Node2 -->
<g id="edge1" class="edge">
<title>Node1&#45;&gt;Node2</title>
<path fill="none" stroke="#63b8ff" d="M107.23,-9.5C115.66,-9.5 124.39,-9.5 132.83,-9.5"/>
<polygon fill="#63b8ff" stroke="#63b8ff" points="132.95,-13 142.95,-9.5 132.95,-6 132.95,-13"/>
</g>
<!-- Node3 -->
<g id="node3" class="node">
<title>Node3</title>
<g id="a_node3"><a xlink:href="../../d1/d83/classuint256__t.html#a033d66c965e8d1fbc5bafb59ad60e163" target="_top" xlink:title="Leading zeroes in binary.">
<polygon fill="white" stroke="#666666" points="347,-19 267,-19 267,0 347,0 347,-19"/>
<text text-anchor="middle" x="307" y="-7" font-family="Helvetica,sans-Serif" font-size="10.00">uint256_t::_lez</text>
</a>
</g>
</g>
<!-- Node2&#45;&gt;Node3 -->
<g id="edge2" class="edge">
<title>Node2&#45;&gt;Node3</title>
<path fill="none" stroke="#63b8ff" d="M231.27,-9.5C239.5,-9.5 248.17,-9.5 256.57,-9.5"/>
<polygon fill="#63b8ff" stroke="#63b8ff" points="256.65,-13 266.65,-9.5 256.65,-6 256.65,-13"/>
</g>
<!-- Node4 -->
<g id="node4" class="node">
<title>Node4</title>
<g id="a_node4"><a xlink:href="../../db/d9a/classuint128__t.html#af139bb6e630f1a61919f180978611cd2" target="_top" xlink:title="Leading zeroes in binary.">
<polygon fill="white" stroke="#666666" points="463,-19 383,-19 383,0 463,0 463,-19"/>
<text text-anchor="middle" x="423" y="-7" font-family="Helvetica,sans-Serif" font-size="10.00">uint128_t::_lez</text>
</a>
</g>
</g>
<!-- Node3&#45;&gt;Node4 -->
<g id="edge3" class="edge">
<title>Node3&#45;&gt;Node4</title>
<path fill="none" stroke="#63b8ff" d="M347.23,-9.5C355.38,-9.5 364.07,-9.5 372.54,-9.5"/>
<polygon fill="#63b8ff" stroke="#63b8ff" points="372.7,-13 382.7,-9.5 372.7,-6 372.7,-13"/>
</g>
</g>
</svg>
