<?xml version="1.0" encoding="UTF-8" standalone="no"?>
<!DOCTYPE svg PUBLIC "-//W3C//DTD SVG 1.1//EN"
 "http://www.w3.org/Graphics/SVG/1.1/DTD/svg11.dtd">
<!-- Generated by graphviz version 8.0.2 (20230410.1723)
 -->
<!-- Title: uint256_t::uint256_t Pages: 1 -->
<svg width="387pt" height="38pt"
 viewBox="0.00 0.00 387.00 38.00" xmlns="http://www.w3.org/2000/svg" xmlns:xlink="http://www.w3.org/1999/xlink">
<g id="graph0" class="graph" transform="scale(1 1) rotate(0) translate(4 34)">
<title>uint256_t::uint256_t</title>
<!-- Node1 -->
<g id="node1" class="node">
<title>Node1</title>
<g id="a_node1"><a xlink:title="Parameterized constructor.">
<polygon fill="#999999" stroke="#666666" points="102,-24.5 0,-24.5 0,-5.5 102,-5.5 102,-24.5"/>
<text text-anchor="middle" x="51" y="-12.5" font-family="Helvetica,sans-Serif" font-size="10.00">uint256_t::uint256_t</text>
</a>
</g>
</g>
<!-- Node2 -->
<g id="node2" class="node">
<title>Node2</title>
<g id="a_node2"><a xlink:href="../../d1/d83/classuint256__t.html#afee82fa5052e9d8c946b9205b943cec4" target="_top" xlink:title="First and second half of 256 bit number.">
<polygon fill="white" stroke="#666666" points="259,-30 138,-30 138,0 259,0 259,-30"/>
<text text-anchor="start" x="146" y="-18" font-family="Helvetica,sans-Serif" font-size="10.00">uint256_t::__get_integer</text>
<text text-anchor="middle" x="198.5" y="-7" font-family="Helvetica,sans-Serif" font-size="10.00">_from_string</text>
</a>
</g>
</g>
<!-- Node1&#45;&gt;Node2 -->
<g id="edge1" class="edge">
<title>Node1&#45;&gt;Node2</title>
<path fill="none" stroke="#63b8ff" d="M102.48,-15C110.36,-15 118.62,-15 126.84,-15"/>
<polygon fill="#63b8ff" stroke="#63b8ff" points="126.6,-18.5 136.6,-15 126.6,-11.5 126.6,-18.5"/>
</g>
<!-- Node3 -->
<g id="node3" class="node">
<title>Node3</title>
<g id="a_node3"><a target="_blank" xlink:href="http://en.cppreference.com/w/cpp/string/basic_string/size.html#" xlink:title=" ">
<polygon fill="white" stroke="#666666" points="379,-24.5 295,-24.5 295,-5.5 379,-5.5 379,-24.5"/>
<text text-anchor="middle" x="337" y="-12.5" font-family="Helvetica,sans-Serif" font-size="10.00">std::string::size</text>
</a>
</g>
</g>
<!-- Node2&#45;&gt;Node3 -->
<g id="edge2" class="edge">
<title>Node2&#45;&gt;Node3</title>
<path fill="none" stroke="#63b8ff" d="M259.37,-15C267.45,-15 275.69,-15 283.63,-15"/>
<polygon fill="#63b8ff" stroke="#63b8ff" points="283.6,-18.5 293.6,-15 283.6,-11.5 283.6,-18.5"/>
</g>
</g>
</svg>
