<?xml version="1.0" encoding="UTF-8" standalone="no"?>
<!DOCTYPE svg PUBLIC "-//W3C//DTD SVG 1.1//EN"
 "http://www.w3.org/Graphics/SVG/1.1/DTD/svg11.dtd">
<!-- Generated by graphviz version 8.0.4 (20230421.1958)
 -->
<!-- Title: uint256_t::operator%= Pages: 1 -->
<svg width="475pt" height="27pt"
 viewBox="0.00 0.00 474.75 27.25" xmlns="http://www.w3.org/2000/svg" xmlns:xlink="http://www.w3.org/1999/xlink">
<g id="graph0" class="graph" transform="scale(1 1) rotate(0) translate(4 23.25)">
<title>uint256_t::operator%=</title>
<!-- Node1 -->
<g id="node1" class="node">
<title>Node1</title>
<g id="a_node1"><a xlink:title="operator %= for uint256_t">
<polygon fill="#999999" stroke="#666666" points="112,-19.25 0,-19.25 0,0 112,0 112,-19.25"/>
<text text-anchor="middle" x="56" y="-5.75" font-family="Helvetica,sans-Serif" font-size="10.00">uint256_t::operator%=</text>
</a>
</g>
</g>
<!-- Node2 -->
<g id="node2" class="node">
<title>Node2</title>
<g id="a_node2"><a xlink:href="../../d1/d83/classuint256__t.html#a8161d52d369e525f4e61129376adfcf1" target="_top" xlink:title="divide function for uint256_t and other integer types.">
<polygon fill="white" stroke="#666666" points="235.25,-19.25 148,-19.25 148,0 235.25,0 235.25,-19.25"/>
<text text-anchor="middle" x="191.62" y="-5.75" font-family="Helvetica,sans-Serif" font-size="10.00">uint256_t::divide</text>
</a>
</g>
</g>
<!-- Node1&#45;&gt;Node2 -->
<g id="edge1" class="edge">
<title>Node1&#45;&gt;Node2</title>
<path fill="none" stroke="#63b8ff" d="M112.12,-9.62C120.33,-9.62 128.77,-9.62 136.95,-9.62"/>
<polygon fill="#63b8ff" stroke="#63b8ff" points="136.88,-13.13 146.88,-9.62 136.88,-6.13 136.88,-13.13"/>
</g>
<!-- Node3 -->
<g id="node3" class="node">
<title>Node3</title>
<g id="a_node3"><a xlink:href="../../d1/d83/classuint256__t.html#a033d66c965e8d1fbc5bafb59ad60e163" target="_top" xlink:title="Leading zeroes in binary.">
<polygon fill="white" stroke="#666666" points="351,-19.25 271.25,-19.25 271.25,0 351,0 351,-19.25"/>
<text text-anchor="middle" x="311.12" y="-5.75" font-family="Helvetica,sans-Serif" font-size="10.00">uint256_t::_lez</text>
</a>
</g>
</g>
<!-- Node2&#45;&gt;Node3 -->
<g id="edge2" class="edge">
<title>Node2&#45;&gt;Node3</title>
<path fill="none" stroke="#63b8ff" d="M235.71,-9.62C243.64,-9.62 251.97,-9.62 260.08,-9.62"/>
<polygon fill="#63b8ff" stroke="#63b8ff" points="259.94,-13.13 269.94,-9.62 259.94,-6.13 259.94,-13.13"/>
</g>
<!-- Node4 -->
<g id="node4" class="node">
<title>Node4</title>
<g id="a_node4"><a xlink:href="../../db/d9a/classuint128__t.html#af139bb6e630f1a61919f180978611cd2" target="_top" xlink:title="Leading zeroes in binary.">
<polygon fill="white" stroke="#666666" points="466.75,-19.25 387,-19.25 387,0 466.75,0 466.75,-19.25"/>
<text text-anchor="middle" x="426.88" y="-5.75" font-family="Helvetica,sans-Serif" font-size="10.00">uint128_t::_lez</text>
</a>
</g>
</g>
<!-- Node3&#45;&gt;Node4 -->
<g id="edge3" class="edge">
<title>Node3&#45;&gt;Node4</title>
<path fill="none" stroke="#63b8ff" d="M351.27,-9.62C359.14,-9.62 367.5,-9.62 375.68,-9.62"/>
<polygon fill="#63b8ff" stroke="#63b8ff" points="375.66,-13.13 385.66,-9.62 375.66,-6.13 375.66,-13.13"/>
</g>
</g>
</svg>
