<?xml version="1.0" encoding="UTF-8" standalone="no"?>
<!DOCTYPE svg PUBLIC "-//W3C//DTD SVG 1.1//EN"
 "http://www.w3.org/Graphics/SVG/1.1/DTD/svg11.dtd">
<!-- Generated by graphviz version 8.0.4 (20230421.1958)
 -->
<!-- Title: uint256_t::operator*= Pages: 1 -->
<svg width="237pt" height="64pt"
 viewBox="0.00 0.00 236.50 64.25" xmlns="http://www.w3.org/2000/svg" xmlns:xlink="http://www.w3.org/1999/xlink">
<g id="graph0" class="graph" transform="scale(1 1) rotate(0) translate(4 60.25)">
<title>uint256_t::operator*=</title>
<!-- Node1 -->
<g id="node1" class="node">
<title>Node1</title>
<g id="a_node1"><a xlink:title="operator *= for uint256_t and other integer types.">
<polygon fill="#999999" stroke="#666666" points="106.75,-37.25 0,-37.25 0,-18 106.75,-18 106.75,-37.25"/>
<text text-anchor="middle" x="53.38" y="-23.75" font-family="Helvetica,sans-Serif" font-size="10.00">uint256_t::operator*=</text>
</a>
</g>
</g>
<!-- Node2 -->
<g id="node2" class="node">
<title>Node2</title>
<g id="a_node2"><a xlink:href="../../db/d9a/classuint128__t.html#aa69e1064c0b0b1df1c61acd2ea04fabd" target="_top" xlink:title="returns lower 64&#45;bit integer part">
<polygon fill="white" stroke="#666666" points="228.12,-56.25 143.12,-56.25 143.12,-37 228.12,-37 228.12,-56.25"/>
<text text-anchor="middle" x="185.62" y="-42.75" font-family="Helvetica,sans-Serif" font-size="10.00">uint128_t::lower</text>
</a>
</g>
</g>
<!-- Node1&#45;&gt;Node2 -->
<g id="edge1" class="edge">
<title>Node1&#45;&gt;Node2</title>
<path fill="none" stroke="#63b8ff" d="M106.98,-35.3C115.22,-36.5 123.75,-37.75 132,-38.95"/>
<polygon fill="#63b8ff" stroke="#63b8ff" points="131.23,-42.52 141.63,-40.5 132.24,-35.59 131.23,-42.52"/>
</g>
<!-- Node3 -->
<g id="node3" class="node">
<title>Node3</title>
<g id="a_node3"><a xlink:href="../../db/d9a/classuint128__t.html#a1ee2f1ffbd9984faad34883eb45e9705" target="_top" xlink:title="returns upper 64&#45;bit integer part">
<polygon fill="white" stroke="#666666" points="228.5,-19.25 142.75,-19.25 142.75,0 228.5,0 228.5,-19.25"/>
<text text-anchor="middle" x="185.62" y="-5.75" font-family="Helvetica,sans-Serif" font-size="10.00">uint128_t::upper</text>
</a>
</g>
</g>
<!-- Node1&#45;&gt;Node3 -->
<g id="edge2" class="edge">
<title>Node1&#45;&gt;Node3</title>
<path fill="none" stroke="#63b8ff" d="M106.98,-20.36C115.22,-19.22 123.75,-18.04 132,-16.9"/>
<polygon fill="#63b8ff" stroke="#63b8ff" points="132.21,-20.26 141.63,-15.43 131.25,-13.33 132.21,-20.26"/>
</g>
</g>
</svg>
