<?xml version="1.0" encoding="UTF-8" standalone="no"?>
<!DOCTYPE svg PUBLIC "-//W3C//DTD SVG 1.1//EN"
 "http://www.w3.org/Graphics/SVG/1.1/DTD/svg11.dtd">
<!-- Generated by graphviz version 2.49.3 (20211023.0002)
 -->
<!-- Title: uint256_t::operator*= Pages: 1 -->
<svg width="243pt" height="66pt"
 viewBox="0.00 0.00 243.00 66.00" xmlns="http://www.w3.org/2000/svg" xmlns:xlink="http://www.w3.org/1999/xlink">
<g id="graph0" class="graph" transform="scale(1 1) rotate(0) translate(4 62)">
<title>uint256_t::operator*=</title>
<polygon fill="white" stroke="transparent" points="-4,4 -4,-62 239,-62 239,4 -4,4"/>
<!-- Node1 -->
<g id="node1" class="node">
<title>Node1</title>
<g id="a_node1"><a xlink:title="operator *= for uint256_t and other integer types.">
<polygon fill="#bfbfbf" stroke="black" points="0,-19.5 0,-38.5 110,-38.5 110,-19.5 0,-19.5"/>
<text text-anchor="middle" x="55" y="-26.5" font-family="Helvetica,sans-Serif" font-size="10.00">uint256_t::operator*=</text>
</a>
</g>
</g>
<!-- Node2 -->
<g id="node2" class="node">
<title>Node2</title>
<g id="a_node2"><a xlink:href="../../db/d9a/classuint128__t.html#aa69e1064c0b0b1df1c61acd2ea04fabd" target="_top" xlink:title="returns lower 64&#45;bit integer part">
<polygon fill="white" stroke="black" points="147,-38.5 147,-57.5 234,-57.5 234,-38.5 147,-38.5"/>
<text text-anchor="middle" x="190.5" y="-45.5" font-family="Helvetica,sans-Serif" font-size="10.00">uint128_t::lower</text>
</a>
</g>
</g>
<!-- Node1&#45;&gt;Node2 -->
<g id="edge1" class="edge">
<title>Node1&#45;&gt;Node2</title>
<path fill="none" stroke="midnightblue" d="M110.3,-36.73C119.02,-37.97 128.03,-39.25 136.71,-40.49"/>
<polygon fill="midnightblue" stroke="midnightblue" points="136.32,-43.97 146.71,-41.91 137.3,-37.04 136.32,-43.97"/>
</g>
<!-- Node3 -->
<g id="node3" class="node">
<title>Node3</title>
<g id="a_node3"><a xlink:href="../../db/d9a/classuint128__t.html#a1ee2f1ffbd9984faad34883eb45e9705" target="_top" xlink:title="returns upper 64&#45;bit integer part">
<polygon fill="white" stroke="black" points="146,-0.5 146,-19.5 235,-19.5 235,-0.5 146,-0.5"/>
<text text-anchor="middle" x="190.5" y="-7.5" font-family="Helvetica,sans-Serif" font-size="10.00">uint128_t::upper</text>
</a>
</g>
</g>
<!-- Node1&#45;&gt;Node3 -->
<g id="edge2" class="edge">
<title>Node1&#45;&gt;Node3</title>
<path fill="none" stroke="midnightblue" d="M110.3,-21.27C118.72,-20.07 127.41,-18.84 135.81,-17.64"/>
<polygon fill="midnightblue" stroke="midnightblue" points="136.47,-21.08 145.88,-16.21 135.49,-14.15 136.47,-21.08"/>
</g>
</g>
</svg>
