<?xml version="1.0" encoding="UTF-8" standalone="no"?>
<!DOCTYPE svg PUBLIC "-//W3C//DTD SVG 1.1//EN"
 "http://www.w3.org/Graphics/SVG/1.1/DTD/svg11.dtd">
<!-- Generated by graphviz version 7.1.0 (20230121.1956)
 -->
<!-- Title: FenwickTree::sum_range Pages: 1 -->
<svg width="409pt" height="27pt"
 viewBox="0.00 0.00 409.00 27.00" xmlns="http://www.w3.org/2000/svg" xmlns:xlink="http://www.w3.org/1999/xlink">
<g id="graph0" class="graph" transform="scale(1 1) rotate(0) translate(4 23)">
<title>FenwickTree::sum_range</title>
<!-- Node1 -->
<g id="node1" class="node">
<title>Node1</title>
<g id="a_node1"><a xlink:title=" ">
<polygon fill="#999999" stroke="#666666" points="127,-19 0,-19 0,0 127,0 127,-19"/>
<text text-anchor="middle" x="63.5" y="-7" font-family="Helvetica,sans-Serif" font-size="10.00">FenwickTree::sum_range</text>
</a>
</g>
</g>
<!-- Node2 -->
<g id="node2" class="node">
<title>Node2</title>
<g id="a_node2"><a xlink:href="../../dd/d91/class_fenwick_tree.html#ade1d6a3d49af9d9df33e2fb26cab1699" target="_top" xlink:title=" ">
<polygon fill="white" stroke="#666666" points="261,-19 163,-19 163,0 261,0 261,-19"/>
<text text-anchor="middle" x="212" y="-7" font-family="Helvetica,sans-Serif" font-size="10.00">FenwickTree::sum</text>
</a>
</g>
</g>
<!-- Node1&#45;&gt;Node2 -->
<g id="edge1" class="edge">
<title>Node1&#45;&gt;Node2</title>
<path fill="none" stroke="#63b8ff" d="M127.48,-9.5C135.4,-9.5 143.48,-9.5 151.35,-9.5"/>
<polygon fill="#63b8ff" stroke="#63b8ff" points="151.16,-13 161.16,-9.5 151.16,-6 151.16,-13"/>
</g>
<!-- Node3 -->
<g id="node3" class="node">
<title>Node3</title>
<g id="a_node3"><a xlink:href="../../dd/d91/class_fenwick_tree.html#aaae15ea71455315e257baa11017cec10" target="_top" xlink:title=" ">
<polygon fill="white" stroke="#666666" points="401,-19 297,-19 297,0 401,0 401,-19"/>
<text text-anchor="middle" x="349" y="-7" font-family="Helvetica,sans-Serif" font-size="10.00">FenwickTree::offset</text>
</a>
</g>
</g>
<!-- Node2&#45;&gt;Node3 -->
<g id="edge2" class="edge">
<title>Node2&#45;&gt;Node3</title>
<path fill="none" stroke="#63b8ff" d="M261.36,-9.5C269.17,-9.5 277.36,-9.5 285.46,-9.5"/>
<polygon fill="#63b8ff" stroke="#63b8ff" points="285.27,-13 295.27,-9.5 285.27,-6 285.27,-13"/>
</g>
</g>
</svg>
