<?xml version="1.0" encoding="UTF-8" standalone="no"?>
<!DOCTYPE svg PUBLIC "-//W3C//DTD SVG 1.1//EN"
 "http://www.w3.org/Graphics/SVG/1.1/DTD/svg11.dtd">
<!-- Generated by graphviz version 5.0.0 (20220707.1540)
 -->
<!-- Title: main Pages: 1 -->
<svg width="671pt" height="442pt"
 viewBox="0.00 0.00 671.00 442.00" xmlns="http://www.w3.org/2000/svg" xmlns:xlink="http://www.w3.org/1999/xlink">
<g id="graph0" class="graph" transform="scale(1 1) rotate(0) translate(4 438)">
<title>main</title>
<polygon fill="white" stroke="transparent" points="-4,4 -4,-438 667,-438 667,4 -4,4"/>
<!-- Node1 -->
<g id="node1" class="node">
<title>Node1</title>
<g id="a_node1"><a xlink:title=" ">
<polygon fill="#bfbfbf" stroke="black" points="0,-239.5 0,-258.5 38,-258.5 38,-239.5 0,-239.5"/>
<text text-anchor="middle" x="19" y="-246.5" font-family="Helvetica,sans-Serif" font-size="10.00">main</text>
</a>
</g>
</g>
<!-- Node2 -->
<g id="node2" class="node">
<title>Node2</title>
<g id="a_node2"><a target="_blank" xlink:href="http://en.cppreference.com/w/cpp/numeric/random/srand.html#" xlink:title=" ">
<polygon fill="white" stroke="black" points="74,-414.5 74,-433.5 134,-433.5 134,-414.5 74,-414.5"/>
<text text-anchor="middle" x="104" y="-421.5" font-family="Helvetica,sans-Serif" font-size="10.00">std::srand</text>
</a>
</g>
</g>
<!-- Node1&#45;&gt;Node2 -->
<g id="edge1" class="edge">
<title>Node1&#45;&gt;Node2</title>
<path fill="none" stroke="midnightblue" d="M21.61,-258.66C26.17,-283.88 41.08,-353.04 74,-400 75.91,-402.73 78.22,-405.32 80.68,-407.73"/>
<polygon fill="midnightblue" stroke="midnightblue" points="78.44,-410.43 88.3,-414.32 83.02,-405.13 78.44,-410.43"/>
</g>
<!-- Node3 -->
<g id="node3" class="node">
<title>Node3</title>
<g id="a_node3"><a target="_blank" xlink:href="http://en.cppreference.com/w/cpp/string/byte/strlen.html#" xlink:title=" ">
<polygon fill="white" stroke="black" points="589.5,-264.5 589.5,-283.5 649.5,-283.5 649.5,-264.5 589.5,-264.5"/>
<text text-anchor="middle" x="619.5" y="-271.5" font-family="Helvetica,sans-Serif" font-size="10.00">std::strlen</text>
</a>
</g>
</g>
<!-- Node1&#45;&gt;Node3 -->
<g id="edge2" class="edge">
<title>Node1&#45;&gt;Node3</title>
<path fill="none" stroke="midnightblue" d="M27.16,-258.85C50.89,-290.27 130.63,-386 221,-386 221,-386 221,-386 359.5,-386 443.63,-386 464.56,-366.24 540,-329 561.58,-318.35 583.83,-302.18 599.11,-290.13"/>
<polygon fill="midnightblue" stroke="midnightblue" points="601.64,-292.58 607.24,-283.58 597.25,-287.12 601.64,-292.58"/>
</g>
<!-- Node4 -->
<g id="node4" class="node">
<title>Node4</title>
<g id="a_node4"><a xlink:href="../../d7/db9/hill__cipher_8cpp.html#a3147ad576f8a94a2a6b66948672b452b" target="_top" xlink:title="Self test 1 &#45; using 3x3 randomly generated key.">
<polygon fill="white" stroke="black" points="85,-239.5 85,-258.5 123,-258.5 123,-239.5 85,-239.5"/>
<text text-anchor="middle" x="104" y="-246.5" font-family="Helvetica,sans-Serif" font-size="10.00">test1</text>
</a>
</g>
</g>
<!-- Node1&#45;&gt;Node4 -->
<g id="edge3" class="edge">
<title>Node1&#45;&gt;Node4</title>
<path fill="none" stroke="midnightblue" d="M38.01,-249C48.7,-249 62.5,-249 74.63,-249"/>
<polygon fill="midnightblue" stroke="midnightblue" points="74.74,-252.5 84.74,-249 74.74,-245.5 74.74,-252.5"/>
</g>
<!-- Node15 -->
<g id="node15" class="node">
<title>Node15</title>
<g id="a_node15"><a xlink:href="../../d7/db9/hill__cipher_8cpp.html#a04391124480d2a49f2dec900237b0712" target="_top" xlink:title="Self test 2 &#45; using 8x8 randomly generated key.">
<polygon fill="white" stroke="black" points="85,-196.5 85,-215.5 123,-215.5 123,-196.5 85,-196.5"/>
<text text-anchor="middle" x="104" y="-203.5" font-family="Helvetica,sans-Serif" font-size="10.00">test2</text>
</a>
</g>
</g>
<!-- Node1&#45;&gt;Node15 -->
<g id="edge19" class="edge">
<title>Node1&#45;&gt;Node15</title>
<path fill="none" stroke="midnightblue" d="M38.01,-239.67C49.03,-233.96 63.34,-226.55 75.73,-220.13"/>
<polygon fill="midnightblue" stroke="midnightblue" points="77.47,-223.17 84.74,-215.46 74.25,-216.95 77.47,-223.17"/>
</g>
<!-- Node17 -->
<g id="node17" class="node">
<title>Node17</title>
<g id="a_node17"><a target="_blank" xlink:href="http://en.cppreference.com/w/cpp/chrono/c/time.html#" xlink:title=" ">
<polygon fill="white" stroke="black" points="76.5,-158.5 76.5,-177.5 131.5,-177.5 131.5,-158.5 76.5,-158.5"/>
<text text-anchor="middle" x="104" y="-165.5" font-family="Helvetica,sans-Serif" font-size="10.00">std::time</text>
</a>
</g>
</g>
<!-- Node1&#45;&gt;Node17 -->
<g id="edge28" class="edge">
<title>Node1&#45;&gt;Node17</title>
<path fill="none" stroke="midnightblue" d="M26.98,-239.46C36.64,-226.62 55.07,-203.51 74,-187 75.34,-185.83 76.76,-184.68 78.22,-183.55"/>
<polygon fill="midnightblue" stroke="midnightblue" points="80.63,-186.13 86.78,-177.51 76.59,-180.42 80.63,-186.13"/>
</g>
<!-- Node5 -->
<g id="node5" class="node">
<title>Node5</title>
<g id="a_node5"><a target="_blank" xlink:href="http://en.cppreference.com/w/cpp/io/basic_ofstream/close.html#" xlink:title=" ">
<polygon fill="white" stroke="black" points="170,-300.5 170,-319.5 274,-319.5 274,-300.5 170,-300.5"/>
<text text-anchor="middle" x="222" y="-307.5" font-family="Helvetica,sans-Serif" font-size="10.00">std::ofstream::close</text>
</a>
</g>
</g>
<!-- Node4&#45;&gt;Node5 -->
<g id="edge4" class="edge">
<title>Node4&#45;&gt;Node5</title>
<path fill="none" stroke="midnightblue" d="M117.94,-258.57C130.71,-267.71 151.03,-281.48 170,-291 174,-293.01 178.27,-294.93 182.57,-296.72"/>
<polygon fill="midnightblue" stroke="midnightblue" points="181.36,-300 191.94,-300.42 183.93,-293.49 181.36,-300"/>
</g>
<!-- Node6 -->
<g id="node6" class="node">
<title>Node6</title>
<g id="a_node6"><a xlink:href="../../d6/d26/classciphers_1_1_hill_cipher.html#a427acfac1dbff3f48a2b071d449d965b" target="_top" xlink:title="Decrypt a given text using a given key.">
<polygon fill="white" stroke="black" points="173.5,-213 173.5,-243 270.5,-243 270.5,-213 173.5,-213"/>
<text text-anchor="start" x="181.5" y="-231" font-family="Helvetica,sans-Serif" font-size="10.00">ciphers::HillCipher</text>
<text text-anchor="middle" x="222" y="-220" font-family="Helvetica,sans-Serif" font-size="10.00">::decrypt_text</text>
</a>
</g>
</g>
<!-- Node4&#45;&gt;Node6 -->
<g id="edge5" class="edge">
<title>Node4&#45;&gt;Node6</title>
<path fill="none" stroke="midnightblue" d="M123.12,-245.72C134.1,-243.73 148.77,-241.08 163.4,-238.43"/>
<polygon fill="midnightblue" stroke="midnightblue" points="164.27,-241.83 173.48,-236.6 163.02,-234.94 164.27,-241.83"/>
</g>
<!-- Node11 -->
<g id="node11" class="node">
<title>Node11</title>
<g id="a_node11"><a target="_blank" xlink:href="http://en.cppreference.com/w/cpp/container/vector/size.html#" xlink:title=" ">
<polygon fill="white" stroke="black" points="576,-193.5 576,-212.5 663,-212.5 663,-193.5 576,-193.5"/>
<text text-anchor="middle" x="619.5" y="-200.5" font-family="Helvetica,sans-Serif" font-size="10.00">std::vector::size</text>
</a>
</g>
</g>
<!-- Node4&#45;&gt;Node11 -->
<g id="edge18" class="edge">
<title>Node4&#45;&gt;Node11</title>
<path fill="none" stroke="midnightblue" d="M109.34,-258.73C117.93,-276.62 138.98,-314.23 170,-329 211.74,-348.87 227.85,-331.59 274,-329 392.78,-322.32 435.53,-355.92 540,-299 540.14,-298.93 581.46,-248.35 604.09,-220.64"/>
<polygon fill="midnightblue" stroke="midnightblue" points="607.09,-222.51 610.7,-212.55 601.67,-218.08 607.09,-222.51"/>
</g>
<!-- Node12 -->
<g id="node12" class="node">
<title>Node12</title>
<g id="a_node12"><a xlink:href="../../d6/d26/classciphers_1_1_hill_cipher.html#aa8bbb6e4a5749f6008b06602d5103917" target="_top" xlink:title="Encrypt a given text using a given key.">
<polygon fill="white" stroke="black" points="173.5,-164 173.5,-194 270.5,-194 270.5,-164 173.5,-164"/>
<text text-anchor="start" x="181.5" y="-182" font-family="Helvetica,sans-Serif" font-size="10.00">ciphers::HillCipher</text>
<text text-anchor="middle" x="222" y="-171" font-family="Helvetica,sans-Serif" font-size="10.00">::encrypt_text</text>
</a>
</g>
</g>
<!-- Node4&#45;&gt;Node12 -->
<g id="edge14" class="edge">
<title>Node4&#45;&gt;Node12</title>
<path fill="none" stroke="midnightblue" d="M117.58,-239.45C130.4,-229.91 151.06,-215.11 170,-204 173.03,-202.22 176.2,-200.46 179.41,-198.74"/>
<polygon fill="midnightblue" stroke="midnightblue" points="181.24,-201.73 188.51,-194.02 178.02,-195.51 181.24,-201.73"/>
</g>
<!-- Node13 -->
<g id="node13" class="node">
<title>Node13</title>
<g id="a_node13"><a target="_blank" xlink:href="http://en.cppreference.com/w/cpp/io/manip/endl.html#" xlink:title=" ">
<polygon fill="white" stroke="black" points="195,-262.5 195,-281.5 249,-281.5 249,-262.5 195,-262.5"/>
<text text-anchor="middle" x="222" y="-269.5" font-family="Helvetica,sans-Serif" font-size="10.00">std::endl</text>
</a>
</g>
</g>
<!-- Node4&#45;&gt;Node13 -->
<g id="edge16" class="edge">
<title>Node4&#45;&gt;Node13</title>
<path fill="none" stroke="midnightblue" d="M123.12,-252.59C139.59,-255.86 164.36,-260.77 184.86,-264.83"/>
<polygon fill="midnightblue" stroke="midnightblue" points="184.33,-268.3 194.82,-266.81 185.69,-261.43 184.33,-268.3"/>
</g>
<!-- Node14 -->
<g id="node14" class="node">
<title>Node14</title>
<g id="a_node14"><a xlink:href="../../d6/d26/classciphers_1_1_hill_cipher.html#a405b0a28d66a61239d3565d5256f9cb5" target="_top" xlink:title="Generate encryption and decryption key pair.">
<polygon fill="white" stroke="black" points="173.5,-115 173.5,-145 270.5,-145 270.5,-115 173.5,-115"/>
<text text-anchor="start" x="181.5" y="-133" font-family="Helvetica,sans-Serif" font-size="10.00">ciphers::HillCipher</text>
<text text-anchor="middle" x="222" y="-122" font-family="Helvetica,sans-Serif" font-size="10.00">::generate_keys</text>
</a>
</g>
</g>
<!-- Node4&#45;&gt;Node14 -->
<g id="edge17" class="edge">
<title>Node4&#45;&gt;Node14</title>
<path fill="none" stroke="midnightblue" d="M118.73,-239.5C123.94,-235.44 129.66,-230.4 134,-225 155.92,-197.74 145.03,-179.5 170,-155 171.45,-153.58 173,-152.22 174.62,-150.93"/>
<polygon fill="midnightblue" stroke="midnightblue" points="176.96,-153.57 183.21,-145.01 172.99,-147.8 176.96,-153.57"/>
</g>
<!-- Node7 -->
<g id="node7" class="node">
<title>Node7</title>
<g id="a_node7"><a xlink:href="../../d6/d26/classciphers_1_1_hill_cipher.html#ad667fa0860977f6d6d443fa1dbcd80aa" target="_top" xlink:title="Convenience function to perform block cipher operations. The operations are identical for both encryp...">
<polygon fill="white" stroke="black" points="310,-188 310,-218 407,-218 407,-188 310,-188"/>
<text text-anchor="start" x="318" y="-206" font-family="Helvetica,sans-Serif" font-size="10.00">ciphers::HillCipher</text>
<text text-anchor="middle" x="358.5" y="-195" font-family="Helvetica,sans-Serif" font-size="10.00">::codec</text>
</a>
</g>
</g>
<!-- Node6&#45;&gt;Node7 -->
<g id="edge6" class="edge">
<title>Node6&#45;&gt;Node7</title>
<path fill="none" stroke="midnightblue" d="M270.8,-219.12C280.21,-217.37 290.18,-215.51 299.88,-213.71"/>
<polygon fill="midnightblue" stroke="midnightblue" points="300.66,-217.12 309.86,-211.86 299.38,-210.24 300.66,-217.12"/>
</g>
<!-- Node8 -->
<g id="node8" class="node">
<title>Node8</title>
<g id="a_node8"><a xlink:href="../../d6/d26/classciphers_1_1_hill_cipher.html#ae77cad522fa44b8c985779a7188d2f41" target="_top" xlink:title="Get the index of a character in the STRKEY.">
<polygon fill="white" stroke="black" points="443,-259 443,-289 540,-289 540,-259 443,-259"/>
<text text-anchor="start" x="451" y="-277" font-family="Helvetica,sans-Serif" font-size="10.00">ciphers::HillCipher</text>
<text text-anchor="middle" x="491.5" y="-266" font-family="Helvetica,sans-Serif" font-size="10.00">::get_char_idx</text>
</a>
</g>
</g>
<!-- Node7&#45;&gt;Node8 -->
<g id="edge7" class="edge">
<title>Node7&#45;&gt;Node8</title>
<path fill="none" stroke="midnightblue" d="M385.66,-218.12C402.03,-227.49 423.63,-239.66 443,-250 445.68,-251.43 448.46,-252.89 451.27,-254.35"/>
<polygon fill="midnightblue" stroke="midnightblue" points="449.75,-257.51 460.24,-258.97 452.95,-251.28 449.75,-257.51"/>
</g>
<!-- Node9 -->
<g id="node9" class="node">
<title>Node9</title>
<g id="a_node9"><a target="_blank" xlink:href="http://en.cppreference.com/w/cpp/string/basic_string/size.html#" xlink:title=" ">
<polygon fill="white" stroke="black" points="445.5,-128.5 445.5,-147.5 537.5,-147.5 537.5,-128.5 445.5,-128.5"/>
<text text-anchor="middle" x="491.5" y="-135.5" font-family="Helvetica,sans-Serif" font-size="10.00">std::string::length</text>
</a>
</g>
</g>
<!-- Node7&#45;&gt;Node9 -->
<g id="edge9" class="edge">
<title>Node7&#45;&gt;Node9</title>
<path fill="none" stroke="midnightblue" d="M389.88,-187.92C411.64,-177.13 440.75,-162.69 462.05,-152.11"/>
<polygon fill="midnightblue" stroke="midnightblue" points="463.84,-155.14 471.24,-147.56 460.73,-148.87 463.84,-155.14"/>
</g>
<!-- Node10 -->
<g id="node10" class="node">
<title>Node10</title>
<g id="a_node10"><a xlink:href="../../d6/d26/classciphers_1_1_hill_cipher.html#ad36cbcc7a458b3f3a2af0c4aa1126590" target="_top" xlink:title="helper function to perform vector multiplication with encryption or decryption matrix">
<polygon fill="white" stroke="black" points="443,-210 443,-240 540,-240 540,-210 443,-210"/>
<text text-anchor="start" x="451" y="-228" font-family="Helvetica,sans-Serif" font-size="10.00">ciphers::HillCipher</text>
<text text-anchor="middle" x="491.5" y="-217" font-family="Helvetica,sans-Serif" font-size="10.00">::mat_mul</text>
</a>
</g>
</g>
<!-- Node7&#45;&gt;Node10 -->
<g id="edge10" class="edge">
<title>Node7&#45;&gt;Node10</title>
<path fill="none" stroke="midnightblue" d="M407.16,-211C415.47,-212.4 424.19,-213.86 432.74,-215.3"/>
<polygon fill="midnightblue" stroke="midnightblue" points="432.21,-218.76 442.65,-216.96 433.37,-211.86 432.21,-218.76"/>
</g>
<!-- Node7&#45;&gt;Node11 -->
<g id="edge13" class="edge">
<title>Node7&#45;&gt;Node11</title>
<path fill="none" stroke="midnightblue" d="M407.19,-201.66C418.9,-201.39 431.4,-201.14 443,-201 486.11,-200.48 496.89,-200.45 540,-201 548.24,-201.1 556.96,-201.27 565.48,-201.47"/>
<polygon fill="midnightblue" stroke="midnightblue" points="565.64,-204.97 575.73,-201.71 565.81,-197.97 565.64,-204.97"/>
</g>
<!-- Node8&#45;&gt;Node3 -->
<g id="edge8" class="edge">
<title>Node8&#45;&gt;Node3</title>
<path fill="none" stroke="midnightblue" d="M540.14,-274C553.09,-274 566.97,-274 579.4,-274"/>
<polygon fill="midnightblue" stroke="midnightblue" points="579.44,-277.5 589.44,-274 579.44,-270.5 579.44,-277.5"/>
</g>
<!-- Node10&#45;&gt;Node3 -->
<g id="edge12" class="edge">
<title>Node10&#45;&gt;Node3</title>
<path fill="none" stroke="midnightblue" d="M531.33,-240.1C548.22,-246.67 567.84,-254.3 584.18,-260.65"/>
<polygon fill="midnightblue" stroke="midnightblue" points="583.29,-264.06 593.88,-264.42 585.83,-257.54 583.29,-264.06"/>
</g>
<!-- Node10&#45;&gt;Node11 -->
<g id="edge11" class="edge">
<title>Node10&#45;&gt;Node11</title>
<path fill="none" stroke="midnightblue" d="M540.14,-216.68C548.55,-215.21 557.35,-213.68 565.9,-212.18"/>
<polygon fill="midnightblue" stroke="midnightblue" points="566.52,-215.63 575.77,-210.46 565.31,-208.73 566.52,-215.63"/>
</g>
<!-- Node12&#45;&gt;Node7 -->
<g id="edge15" class="edge">
<title>Node12&#45;&gt;Node7</title>
<path fill="none" stroke="midnightblue" d="M270.8,-187.53C280.21,-189.21 290.18,-190.99 299.88,-192.72"/>
<polygon fill="midnightblue" stroke="midnightblue" points="299.4,-196.19 309.86,-194.5 300.63,-189.3 299.4,-196.19"/>
</g>
<!-- Node15&#45;&gt;Node5 -->
<g id="edge20" class="edge">
<title>Node15&#45;&gt;Node5</title>
<path fill="none" stroke="midnightblue" d="M118.57,-215.64C123.76,-219.71 129.5,-224.73 134,-230 154.43,-253.95 145.86,-270.79 170,-291 172,-292.67 174.15,-294.2 176.42,-295.61"/>
<polygon fill="midnightblue" stroke="midnightblue" points="175.05,-298.84 185.53,-300.4 178.31,-292.65 175.05,-298.84"/>
</g>
<!-- Node15&#45;&gt;Node6 -->
<g id="edge22" class="edge">
<title>Node15&#45;&gt;Node6</title>
<path fill="none" stroke="midnightblue" d="M123.12,-209.44C134.1,-211.52 148.77,-214.3 163.4,-217.08"/>
<polygon fill="midnightblue" stroke="midnightblue" points="163.01,-220.56 173.48,-218.99 164.31,-213.69 163.01,-220.56"/>
</g>
<!-- Node15&#45;&gt;Node9 -->
<g id="edge27" class="edge">
<title>Node15&#45;&gt;Node9</title>
<path fill="none" stroke="midnightblue" d="M123.15,-196.4C127.08,-193.74 130.96,-190.58 134,-187 159.51,-156.98 136.97,-127.47 170,-106 262.38,-45.96 402.41,-97.3 462.02,-124.13"/>
<polygon fill="midnightblue" stroke="midnightblue" points="460.66,-127.36 471.21,-128.36 463.59,-121 460.66,-127.36"/>
</g>
<!-- Node15&#45;&gt;Node11 -->
<g id="edge26" class="edge">
<title>Node15&#45;&gt;Node11</title>
<path fill="none" stroke="midnightblue" d="M123.14,-196.84C127.16,-194.12 131.08,-190.83 134,-187 165.68,-145.4 127.75,-105.8 170,-75 177.13,-69.8 386.7,-73.72 407,-77 468.19,-86.9 487.56,-85.94 540,-119 567.71,-136.47 592.16,-166.07 606.14,-185.06"/>
<polygon fill="midnightblue" stroke="midnightblue" points="603.46,-187.34 612.12,-193.44 609.15,-183.27 603.46,-187.34"/>
</g>
<!-- Node15&#45;&gt;Node12 -->
<g id="edge23" class="edge">
<title>Node15&#45;&gt;Node12</title>
<path fill="none" stroke="midnightblue" d="M123.12,-201.78C134.1,-199.23 148.77,-195.81 163.4,-192.41"/>
<polygon fill="midnightblue" stroke="midnightblue" points="164.54,-195.74 173.48,-190.06 162.95,-188.92 164.54,-195.74"/>
</g>
<!-- Node15&#45;&gt;Node13 -->
<g id="edge24" class="edge">
<title>Node15&#45;&gt;Node13</title>
<path fill="none" stroke="midnightblue" d="M116.35,-215.67C128.85,-225.97 149.86,-242.22 170,-253 174.89,-255.62 180.23,-258.04 185.54,-260.21"/>
<polygon fill="midnightblue" stroke="midnightblue" points="184.4,-263.52 194.99,-263.84 186.91,-256.98 184.4,-263.52"/>
</g>
<!-- Node15&#45;&gt;Node14 -->
<g id="edge25" class="edge">
<title>Node15&#45;&gt;Node14</title>
<path fill="none" stroke="midnightblue" d="M120.64,-196.35C125.05,-193.47 129.79,-190.22 134,-187 151,-173.99 152.23,-166.93 170,-155 172.58,-153.27 175.29,-151.59 178.07,-149.97"/>
<polygon fill="midnightblue" stroke="midnightblue" points="180,-152.9 187.08,-145.02 176.63,-146.76 180,-152.9"/>
</g>
<!-- Node16 -->
<g id="node16" class="node">
<title>Node16</title>
<g id="a_node16"><a target="_blank" xlink:href="http://en.cppreference.com/w/cpp/string/basic_string/compare.html#" xlink:title=" ">
<polygon fill="white" stroke="black" points="170,-0.5 170,-19.5 274,-19.5 274,-0.5 170,-0.5"/>
<text text-anchor="middle" x="222" y="-7.5" font-family="Helvetica,sans-Serif" font-size="10.00">std::string::compare</text>
</a>
</g>
</g>
<!-- Node15&#45;&gt;Node16 -->
<g id="edge21" class="edge">
<title>Node15&#45;&gt;Node16</title>
<path fill="none" stroke="midnightblue" d="M123.06,-197.2C127.18,-194.45 131.17,-191.04 134,-187 174.07,-129.78 126.02,-88.27 170,-34 172.92,-30.4 176.51,-27.3 180.42,-24.66"/>
<polygon fill="midnightblue" stroke="midnightblue" points="182.4,-27.55 189.35,-19.55 178.93,-21.48 182.4,-27.55"/>
</g>
</g>
</svg>
