<?xml version="1.0" encoding="UTF-8" standalone="no"?>
<!DOCTYPE svg PUBLIC "-//W3C//DTD SVG 1.1//EN"
 "http://www.w3.org/Graphics/SVG/1.1/DTD/svg11.dtd">
<!-- Generated by graphviz version 8.0.4 (20230421.1958)
 -->
<!-- Title: test1 Pages: 1 -->
<svg width="243pt" height="64pt"
 viewBox="0.00 0.00 242.75 64.25" xmlns="http://www.w3.org/2000/svg" xmlns:xlink="http://www.w3.org/1999/xlink">
<g id="graph0" class="graph" transform="scale(1 1) rotate(0) translate(4 60.25)">
<title>test1</title>
<!-- Node1 -->
<g id="node1" class="node">
<title>Node1</title>
<g id="a_node1"><a xlink:title="Test function to find root for the function &#160;in the interval &#160;&#160;&#160;Expected result = 2.">
<polygon fill="#999999" stroke="#666666" points="37.75,-37.25 0,-37.25 0,-18 37.75,-18 37.75,-37.25"/>
<text text-anchor="middle" x="18.88" y="-23.75" font-family="Helvetica,sans-Serif" font-size="10.00">test1</text>
</a>
</g>
</g>
<!-- Node2 -->
<g id="node2" class="node">
<title>Node2</title>
<g id="a_node2"><a xlink:href="../../db/d01/brent__method__extrema_8cpp.html#a1aa76a6d5fd4d333f9072beff1dc486b" target="_top" xlink:title="Get the real root of a function in the given interval.">
<polygon fill="white" stroke="#666666" points="140,-37.25 73.75,-37.25 73.75,-18 140,-18 140,-37.25"/>
<text text-anchor="middle" x="106.88" y="-23.75" font-family="Helvetica,sans-Serif" font-size="10.00">get_minima</text>
</a>
</g>
</g>
<!-- Node1&#45;&gt;Node2 -->
<g id="edge1" class="edge">
<title>Node1&#45;&gt;Node2</title>
<path fill="none" stroke="#63b8ff" d="M38.11,-27.62C45.32,-27.62 53.94,-27.62 62.58,-27.62"/>
<polygon fill="#63b8ff" stroke="#63b8ff" points="62.42,-31.13 72.42,-27.62 62.42,-24.13 62.42,-31.13"/>
</g>
<!-- Node3 -->
<g id="node3" class="node">
<title>Node3</title>
<g id="a_node3"><a target="_blank" xlink:href="http://en.cppreference.com/w/cpp/numeric/math/sqrt.html#" xlink:title=" ">
<polygon fill="white" stroke="#666666" points="231.38,-56.25 179.38,-56.25 179.38,-37 231.38,-37 231.38,-56.25"/>
<text text-anchor="middle" x="205.38" y="-42.75" font-family="Helvetica,sans-Serif" font-size="10.00">std::sqrt</text>
</a>
</g>
</g>
<!-- Node2&#45;&gt;Node3 -->
<g id="edge2" class="edge">
<title>Node2&#45;&gt;Node3</title>
<path fill="none" stroke="#63b8ff" d="M140.28,-34C149.23,-35.77 159,-37.69 168.16,-39.49"/>
<polygon fill="#63b8ff" stroke="#63b8ff" points="167.43,-43.12 177.92,-41.61 168.79,-36.25 167.43,-43.12"/>
</g>
<!-- Node4 -->
<g id="node4" class="node">
<title>Node4</title>
<g id="a_node4"><a target="_blank" xlink:href="http://en.cppreference.com/w/cpp/algorithm/swap.html#" xlink:title=" ">
<polygon fill="white" stroke="#666666" points="234.75,-19.25 176,-19.25 176,0 234.75,0 234.75,-19.25"/>
<text text-anchor="middle" x="205.38" y="-5.75" font-family="Helvetica,sans-Serif" font-size="10.00">std::swap</text>
</a>
</g>
</g>
<!-- Node2&#45;&gt;Node4 -->
<g id="edge3" class="edge">
<title>Node2&#45;&gt;Node4</title>
<path fill="none" stroke="#63b8ff" d="M140.28,-21.58C148.27,-20.09 156.92,-18.48 165.2,-16.93"/>
<polygon fill="#63b8ff" stroke="#63b8ff" points="165.59,-20.23 174.78,-14.96 164.31,-13.35 165.59,-20.23"/>
</g>
</g>
</svg>
