<?xml version="1.0" encoding="UTF-8" standalone="no"?>
<!DOCTYPE svg PUBLIC "-//W3C//DTD SVG 1.1//EN"
 "http://www.w3.org/Graphics/SVG/1.1/DTD/svg11.dtd">
<!-- Generated by graphviz version 8.0.2 (20230410.1723)
 -->
<!-- Title: main Pages: 1 -->
<svg width="318pt" height="101pt"
 viewBox="0.00 0.00 318.00 101.00" xmlns="http://www.w3.org/2000/svg" xmlns:xlink="http://www.w3.org/1999/xlink">
<g id="graph0" class="graph" transform="scale(1 1) rotate(0) translate(4 97)">
<title>main</title>
<!-- Node1 -->
<g id="node1" class="node">
<title>Node1</title>
<g id="a_node1"><a xlink:title=" ">
<polygon fill="#999999" stroke="#666666" points="38,-56 0,-56 0,-37 38,-37 38,-56"/>
<text text-anchor="middle" x="19" y="-44" font-family="Helvetica,sans-Serif" font-size="10.00">main</text>
</a>
</g>
</g>
<!-- Node2 -->
<g id="node2" class="node">
<title>Node2</title>
<g id="a_node2"><a xlink:href="../../db/d01/brent__method__extrema_8cpp.html#a1440a7779ac56f47a3f355ce4a8c7da0" target="_top" xlink:title="Test function to find root for the function &#160;in the interval &#160;&#160;&#160;Expected result = 2.">
<polygon fill="white" stroke="#666666" points="112,-56 74,-56 74,-37 112,-37 112,-56"/>
<text text-anchor="middle" x="93" y="-44" font-family="Helvetica,sans-Serif" font-size="10.00">test1</text>
</a>
</g>
</g>
<!-- Node1&#45;&gt;Node2 -->
<g id="edge1" class="edge">
<title>Node1&#45;&gt;Node2</title>
<path fill="none" stroke="#63b8ff" d="M38.17,-46.5C45.62,-46.5 54.42,-46.5 62.74,-46.5"/>
<polygon fill="#63b8ff" stroke="#63b8ff" points="62.59,-50 72.59,-46.5 62.59,-43 62.59,-50"/>
</g>
<!-- Node6 -->
<g id="node6" class="node">
<title>Node6</title>
<g id="a_node6"><a xlink:href="../../db/d01/brent__method__extrema_8cpp.html#a0283886819c7c140a023582b7269e2d0" target="_top" xlink:title="Test function to find root for the function &#160;in the interval &#160;&#160;&#160;Expected result: .">
<polygon fill="white" stroke="#666666" points="112,-93 74,-93 74,-74 112,-74 112,-93"/>
<text text-anchor="middle" x="93" y="-81" font-family="Helvetica,sans-Serif" font-size="10.00">test2</text>
</a>
</g>
</g>
<!-- Node1&#45;&gt;Node6 -->
<g id="edge5" class="edge">
<title>Node1&#45;&gt;Node6</title>
<path fill="none" stroke="#63b8ff" d="M38.17,-55.84C45.95,-59.84 55.23,-64.6 63.87,-69.04"/>
<polygon fill="#63b8ff" stroke="#63b8ff" points="62.09,-72.58 72.59,-74.04 65.29,-66.35 62.09,-72.58"/>
</g>
<!-- Node8 -->
<g id="node8" class="node">
<title>Node8</title>
<g id="a_node8"><a xlink:href="../../db/d01/brent__method__extrema_8cpp.html#a6d0455dd5c30adda100e95f0423c786e" target="_top" xlink:title="Test function to find maxima for the function &#160;in the interval &#160;&#160;&#160;Expected result: .">
<polygon fill="white" stroke="#666666" points="112,-19 74,-19 74,0 112,0 112,-19"/>
<text text-anchor="middle" x="93" y="-7" font-family="Helvetica,sans-Serif" font-size="10.00">test3</text>
</a>
</g>
</g>
<!-- Node1&#45;&gt;Node8 -->
<g id="edge8" class="edge">
<title>Node1&#45;&gt;Node8</title>
<path fill="none" stroke="#63b8ff" d="M38.17,-37.16C45.95,-33.16 55.23,-28.4 63.87,-23.96"/>
<polygon fill="#63b8ff" stroke="#63b8ff" points="65.29,-26.65 72.59,-18.96 62.09,-20.42 65.29,-26.65"/>
</g>
<!-- Node3 -->
<g id="node3" class="node">
<title>Node3</title>
<g id="a_node3"><a xlink:href="../../db/d01/brent__method__extrema_8cpp.html#a1aa76a6d5fd4d333f9072beff1dc486b" target="_top" xlink:title="Get the real root of a function in the given interval.">
<polygon fill="white" stroke="#666666" points="215,-56 148,-56 148,-37 215,-37 215,-56"/>
<text text-anchor="middle" x="181.5" y="-44" font-family="Helvetica,sans-Serif" font-size="10.00">get_minima</text>
</a>
</g>
</g>
<!-- Node2&#45;&gt;Node3 -->
<g id="edge2" class="edge">
<title>Node2&#45;&gt;Node3</title>
<path fill="none" stroke="#63b8ff" d="M112.34,-46.5C119.53,-46.5 128.1,-46.5 136.7,-46.5"/>
<polygon fill="#63b8ff" stroke="#63b8ff" points="136.51,-50 146.51,-46.5 136.51,-43 136.51,-50"/>
</g>
<!-- Node4 -->
<g id="node4" class="node">
<title>Node4</title>
<g id="a_node4"><a target="_blank" xlink:href="http://en.cppreference.com/w/cpp/numeric/math/sqrt.html#" xlink:title=" ">
<polygon fill="white" stroke="#666666" points="307,-74 254,-74 254,-55 307,-55 307,-74"/>
<text text-anchor="middle" x="280.5" y="-62" font-family="Helvetica,sans-Serif" font-size="10.00">std::sqrt</text>
</a>
</g>
</g>
<!-- Node3&#45;&gt;Node4 -->
<g id="edge3" class="edge">
<title>Node3&#45;&gt;Node4</title>
<path fill="none" stroke="#63b8ff" d="M215.34,-52.59C224.25,-54.25 233.95,-56.05 243.04,-57.73"/>
<polygon fill="#63b8ff" stroke="#63b8ff" points="242.27,-61.34 252.74,-59.72 243.55,-54.45 242.27,-61.34"/>
</g>
<!-- Node5 -->
<g id="node5" class="node">
<title>Node5</title>
<g id="a_node5"><a target="_blank" xlink:href="http://en.cppreference.com/w/cpp/algorithm/swap.html#" xlink:title=" ">
<polygon fill="white" stroke="#666666" points="310,-37 251,-37 251,-18 310,-18 310,-37"/>
<text text-anchor="middle" x="280.5" y="-25" font-family="Helvetica,sans-Serif" font-size="10.00">std::swap</text>
</a>
</g>
</g>
<!-- Node3&#45;&gt;Node5 -->
<g id="edge4" class="edge">
<title>Node3&#45;&gt;Node5</title>
<path fill="none" stroke="#63b8ff" d="M215.34,-40.07C223.2,-38.53 231.67,-36.87 239.81,-35.28"/>
<polygon fill="#63b8ff" stroke="#63b8ff" points="240.45,-38.52 249.59,-33.16 239.11,-31.65 240.45,-38.52"/>
</g>
<!-- Node6&#45;&gt;Node3 -->
<g id="edge6" class="edge">
<title>Node6&#45;&gt;Node3</title>
<path fill="none" stroke="#63b8ff" d="M112.34,-75.65C122.47,-71.32 135.36,-65.81 147.2,-60.74"/>
<polygon fill="#63b8ff" stroke="#63b8ff" points="148.42,-63.6 156.23,-56.45 145.66,-57.17 148.42,-63.6"/>
</g>
<!-- Node7 -->
<g id="node7" class="node">
<title>Node7</title>
<g id="a_node7"><a target="_blank" xlink:href="http://en.cppreference.com/w/cpp/numeric/math/pow.html#" xlink:title=" ">
<polygon fill="white" stroke="#666666" points="208.5,-93 154.5,-93 154.5,-74 208.5,-74 208.5,-93"/>
<text text-anchor="middle" x="181.5" y="-81" font-family="Helvetica,sans-Serif" font-size="10.00">std::pow</text>
</a>
</g>
</g>
<!-- Node6&#45;&gt;Node7 -->
<g id="edge7" class="edge">
<title>Node6&#45;&gt;Node7</title>
<path fill="none" stroke="#63b8ff" d="M112.34,-83.5C121.4,-83.5 132.66,-83.5 143.41,-83.5"/>
<polygon fill="#63b8ff" stroke="#63b8ff" points="143.31,-87 153.31,-83.5 143.31,-80 143.31,-87"/>
</g>
<!-- Node8&#45;&gt;Node3 -->
<g id="edge10" class="edge">
<title>Node8&#45;&gt;Node3</title>
<path fill="none" stroke="#63b8ff" d="M112.34,-17.35C122.47,-21.68 135.36,-27.19 147.2,-32.26"/>
<polygon fill="#63b8ff" stroke="#63b8ff" points="145.66,-35.83 156.23,-36.55 148.42,-29.4 145.66,-35.83"/>
</g>
<!-- Node9 -->
<g id="node9" class="node">
<title>Node9</title>
<g id="a_node9"><a target="_blank" xlink:href="http://en.cppreference.com/w/cpp/numeric/math/cos.html#" xlink:title=" ">
<polygon fill="white" stroke="#666666" points="207.5,-19 155.5,-19 155.5,0 207.5,0 207.5,-19"/>
<text text-anchor="middle" x="181.5" y="-7" font-family="Helvetica,sans-Serif" font-size="10.00">std::cos</text>
</a>
</g>
</g>
<!-- Node8&#45;&gt;Node9 -->
<g id="edge9" class="edge">
<title>Node8&#45;&gt;Node9</title>
<path fill="none" stroke="#63b8ff" d="M112.34,-9.5C121.72,-9.5 133.46,-9.5 144.54,-9.5"/>
<polygon fill="#63b8ff" stroke="#63b8ff" points="144.29,-13 154.29,-9.5 144.29,-6 144.29,-13"/>
</g>
</g>
</svg>
