<?xml version="1.0" encoding="UTF-8" standalone="no"?>
<!DOCTYPE svg PUBLIC "-//W3C//DTD SVG 1.1//EN"
 "http://www.w3.org/Graphics/SVG/1.1/DTD/svg11.dtd">
<!-- Generated by graphviz version 5.0.1 (20220820.1526)
 -->
<!-- Title: ciphers::elliptic_curve_key_exchange::addition Pages: 1 -->
<svg width="445pt" height="38pt"
 viewBox="0.00 0.00 445.00 38.00" xmlns="http://www.w3.org/2000/svg" xmlns:xlink="http://www.w3.org/1999/xlink">
<g id="graph0" class="graph" transform="scale(1 1) rotate(0) translate(4 34)">
<title>ciphers::elliptic_curve_key_exchange::addition</title>
<!-- Node1 -->
<g id="node1" class="node">
<title>Node1</title>
<g id="a_node1"><a xlink:title="Addition of points.">
<polygon fill="#999999" stroke="#666666" points="125,-30 0,-30 0,0 125,0 125,-30"/>
<text text-anchor="start" x="8" y="-18" font-family="Helvetica,sans-Serif" font-size="10.00">ciphers::elliptic_curve</text>
<text text-anchor="middle" x="62.5" y="-7" font-family="Helvetica,sans-Serif" font-size="10.00">_key_exchange::addition</text>
</a>
</g>
</g>
<!-- Node2 -->
<g id="node2" class="node">
<title>Node2</title>
<g id="a_node2"><a xlink:href="../../df/d6b/namespaceciphers_1_1elliptic__curve__key__exchange.html#ac00616a4e40d3cd5cfb4da87d9ff9af0" target="_top" xlink:title="This function calculates number raised to exponent power under modulo mod using Modular Exponentiatio...">
<polygon fill="white" stroke="#666666" points="272,-30 161,-30 161,0 272,0 272,-30"/>
<text text-anchor="start" x="169" y="-18" font-family="Helvetica,sans-Serif" font-size="10.00">ciphers::elliptic_curve</text>
<text text-anchor="middle" x="216.5" y="-7" font-family="Helvetica,sans-Serif" font-size="10.00">_key_exchange::exp</text>
</a>
</g>
</g>
<!-- Node1&#45;&gt;Node2 -->
<g id="edge1" class="edge">
<title>Node1&#45;&gt;Node2</title>
<path fill="none" stroke="#63b8ff" d="M125.32,-15C133.62,-15 142.15,-15 150.5,-15"/>
<polygon fill="#63b8ff" stroke="#63b8ff" points="150.57,-18.5 160.57,-15 150.57,-11.5 150.57,-18.5"/>
</g>
<!-- Node3 -->
<g id="node3" class="node">
<title>Node3</title>
<g id="a_node3"><a xlink:href="../../df/def/power__for__huge__numbers_8cpp.html#ae249a2af508aa94266023ce8aa81426f" target="_top" xlink:title=" ">
<polygon fill="white" stroke="#666666" points="351,-24.5 308,-24.5 308,-5.5 351,-5.5 351,-24.5"/>
<text text-anchor="middle" x="329.5" y="-12.5" font-family="Helvetica,sans-Serif" font-size="10.00">power</text>
</a>
</g>
</g>
<!-- Node2&#45;&gt;Node3 -->
<g id="edge2" class="edge">
<title>Node2&#45;&gt;Node3</title>
<path fill="none" stroke="#63b8ff" d="M272.02,-15C280.94,-15 289.9,-15 297.96,-15"/>
<polygon fill="#63b8ff" stroke="#63b8ff" points="297.98,-18.5 307.98,-15 297.98,-11.5 297.98,-18.5"/>
</g>
<!-- Node4 -->
<g id="node4" class="node">
<title>Node4</title>
<g id="a_node4"><a xlink:href="../../df/def/power__for__huge__numbers_8cpp.html#aa141a7904f0c4668bac112d652a3acf9" target="_top" xlink:title=" ">
<polygon fill="white" stroke="#666666" points="437,-24.5 387,-24.5 387,-5.5 437,-5.5 437,-24.5"/>
<text text-anchor="middle" x="412" y="-12.5" font-family="Helvetica,sans-Serif" font-size="10.00">multiply</text>
</a>
</g>
</g>
<!-- Node3&#45;&gt;Node4 -->
<g id="edge3" class="edge">
<title>Node3&#45;&gt;Node4</title>
<path fill="none" stroke="#63b8ff" d="M351.23,-15C358.98,-15 368,-15 376.66,-15"/>
<polygon fill="#63b8ff" stroke="#63b8ff" points="376.91,-18.5 386.91,-15 376.91,-11.5 376.91,-18.5"/>
</g>
</g>
</svg>
