<?xml version="1.0" encoding="UTF-8" standalone="no"?>
<!DOCTYPE svg PUBLIC "-//W3C//DTD SVG 1.1//EN"
 "http://www.w3.org/Graphics/SVG/1.1/DTD/svg11.dtd">
<!-- Generated by graphviz version 8.0.5 (20230430.1635)
 -->
<!-- Title: ciphers::elliptic_curve_key_exchange::addition Pages: 1 -->
<svg width="443pt" height="39pt"
 viewBox="0.00 0.00 442.50 38.50" xmlns="http://www.w3.org/2000/svg" xmlns:xlink="http://www.w3.org/1999/xlink">
<g id="graph0" class="graph" transform="scale(1 1) rotate(0) translate(4 34.5)">
<title>ciphers::elliptic_curve_key_exchange::addition</title>
<!-- Node1 -->
<g id="node1" class="node">
<title>Node1</title>
<g id="a_node1"><a xlink:title="Addition of points.">
<polygon fill="#999999" stroke="#666666" points="124,-30.5 0,-30.5 0,0 124,0 124,-30.5"/>
<text text-anchor="start" x="8" y="-17" font-family="Helvetica,sans-Serif" font-size="10.00">ciphers::elliptic_curve</text>
<text text-anchor="middle" x="62" y="-5.75" font-family="Helvetica,sans-Serif" font-size="10.00">_key_exchange::addition</text>
</a>
</g>
</g>
<!-- Node2 -->
<g id="node2" class="node">
<title>Node2</title>
<g id="a_node2"><a xlink:href="../../df/d6b/namespaceciphers_1_1elliptic__curve__key__exchange.html#ac00616a4e40d3cd5cfb4da87d9ff9af0" target="_top" xlink:title="This function calculates number raised to exponent power under modulo mod using Modular Exponentiatio...">
<polygon fill="white" stroke="#666666" points="270.5,-30.5 160,-30.5 160,0 270.5,0 270.5,-30.5"/>
<text text-anchor="start" x="168" y="-17" font-family="Helvetica,sans-Serif" font-size="10.00">ciphers::elliptic_curve</text>
<text text-anchor="middle" x="215.25" y="-5.75" font-family="Helvetica,sans-Serif" font-size="10.00">_key_exchange::exp</text>
</a>
</g>
</g>
<!-- Node1&#45;&gt;Node2 -->
<g id="edge1" class="edge">
<title>Node1&#45;&gt;Node2</title>
<path fill="none" stroke="#63b8ff" d="M124.08,-15.25C132.29,-15.25 140.74,-15.25 149.02,-15.25"/>
<polygon fill="#63b8ff" stroke="#63b8ff" points="148.77,-18.75 158.77,-15.25 148.77,-11.75 148.77,-18.75"/>
</g>
<!-- Node3 -->
<g id="node3" class="node">
<title>Node3</title>
<g id="a_node3"><a xlink:href="../../df/def/power__for__huge__numbers_8cpp.html#ae249a2af508aa94266023ce8aa81426f" target="_top" xlink:title=" ">
<polygon fill="white" stroke="#666666" points="348.75,-24.88 306.5,-24.88 306.5,-5.63 348.75,-5.63 348.75,-24.88"/>
<text text-anchor="middle" x="327.62" y="-11.38" font-family="Helvetica,sans-Serif" font-size="10.00">power</text>
</a>
</g>
</g>
<!-- Node2&#45;&gt;Node3 -->
<g id="edge2" class="edge">
<title>Node2&#45;&gt;Node3</title>
<path fill="none" stroke="#63b8ff" d="M270.79,-15.25C279.16,-15.25 287.55,-15.25 295.18,-15.25"/>
<polygon fill="#63b8ff" stroke="#63b8ff" points="295.1,-18.75 305.1,-15.25 295.1,-11.75 295.1,-18.75"/>
</g>
<!-- Node4 -->
<g id="node4" class="node">
<title>Node4</title>
<g id="a_node4"><a xlink:href="../../df/def/power__for__huge__numbers_8cpp.html#aa141a7904f0c4668bac112d652a3acf9" target="_top" xlink:title=" ">
<polygon fill="white" stroke="#666666" points="434.5,-24.88 384.75,-24.88 384.75,-5.63 434.5,-5.63 434.5,-24.88"/>
<text text-anchor="middle" x="409.62" y="-11.38" font-family="Helvetica,sans-Serif" font-size="10.00">multiply</text>
</a>
</g>
</g>
<!-- Node3&#45;&gt;Node4 -->
<g id="edge3" class="edge">
<title>Node3&#45;&gt;Node4</title>
<path fill="none" stroke="#63b8ff" d="M349.23,-15.25C356.61,-15.25 365.16,-15.25 373.43,-15.25"/>
<polygon fill="#63b8ff" stroke="#63b8ff" points="373.4,-18.75 383.4,-15.25 373.4,-11.75 373.4,-18.75"/>
</g>
</g>
</svg>
