<?xml version="1.0" encoding="UTF-8" standalone="no"?>
<!DOCTYPE svg PUBLIC "-//W3C//DTD SVG 1.1//EN"
 "http://www.w3.org/Graphics/SVG/1.1/DTD/svg11.dtd">
<!-- Generated by graphviz version 9.0.0 (20230911.1827)
 -->
<!-- Title: main Pages: 1 -->
<svg width="608pt" height="616pt"
 viewBox="0.00 0.00 607.75 615.50" xmlns="http://www.w3.org/2000/svg" xmlns:xlink="http://www.w3.org/1999/xlink">
<g id="graph0" class="graph" transform="scale(1 1) rotate(0) translate(4 611.5)">
<title>main</title>
<!-- Node1 -->
<g id="Node000001" class="node">
<title>Node1</title>
<g id="a_Node000001"><a xlink:title="Main function.">
<polygon fill="#999999" stroke="#666666" points="37,-434.25 0,-434.25 0,-415 37,-415 37,-434.25"/>
<text text-anchor="middle" x="18.5" y="-420.75" font-family="Helvetica,sans-Serif" font-size="10.00">main</text>
</a>
</g>
</g>
<!-- Node2 -->
<g id="Node000002" class="node">
<title>Node2</title>
<g id="a_Node000002"><a xlink:href="../../d9/d12/classothers_1_1iterative__tree__traversals_1_1_binary_tree.html#a3078a5ccf45d6a7031dcf46e43de65b6" target="_top" xlink:title="function that will create new node for insertion.">
<polygon fill="white" stroke="#666666" points="190.25,-607.5 73,-607.5 73,-565.75 190.25,-565.75 190.25,-607.5"/>
<text text-anchor="start" x="81" y="-594" font-family="Helvetica,sans-Serif" font-size="10.00">others::iterative_tree</text>
<text text-anchor="start" x="81" y="-582.75" font-family="Helvetica,sans-Serif" font-size="10.00">_traversals::BinaryTree</text>
<text text-anchor="middle" x="131.62" y="-571.5" font-family="Helvetica,sans-Serif" font-size="10.00">::createNewNode</text>
</a>
</g>
</g>
<!-- Node1&#45;&gt;Node2 -->
<g id="edge1_Node000001_Node000002" class="edge">
<title>Node1&#45;&gt;Node2</title>
<g id="a_edge1_Node000001_Node000002"><a xlink:title=" ">
<path fill="none" stroke="#63b8ff" d="M21.09,-434.48C25.38,-458.25 39.23,-519.49 73,-556.62 73.36,-557.02 73.73,-557.41 74.1,-557.8"/>
<polygon fill="#63b8ff" stroke="#63b8ff" points="71.73,-560.38 81.56,-564.32 76.33,-555.1 71.73,-560.38"/>
</a>
</g>
</g>
<!-- Node3 -->
<g id="Node000003" class="node">
<title>Node3</title>
<g id="a_Node000003"><a target="_blank" xlink:href="http://en.cppreference.com/w/cpp/container/vector/data.html#" xlink:title=" ">
<polygon fill="white" stroke="#666666" points="175.25,-547.25 88,-547.25 88,-528 175.25,-528 175.25,-547.25"/>
<text text-anchor="middle" x="131.62" y="-533.75" font-family="Helvetica,sans-Serif" font-size="10.00">std::vector::data</text>
</a>
</g>
</g>
<!-- Node1&#45;&gt;Node3 -->
<g id="edge2_Node000001_Node000003" class="edge">
<title>Node1&#45;&gt;Node3</title>
<g id="a_edge2_Node000001_Node000003"><a xlink:title=" ">
<path fill="none" stroke="#63b8ff" d="M22.37,-434.58C28.45,-453.88 44.45,-496.53 73,-519.62 74.48,-520.83 76.05,-521.95 77.68,-522.99"/>
<polygon fill="#63b8ff" stroke="#63b8ff" points="75.72,-525.92 86.2,-527.5 78.99,-519.73 75.72,-525.92"/>
</a>
</g>
</g>
<!-- Node4 -->
<g id="Node000004" class="node">
<title>Node4</title>
<g id="a_Node000004"><a target="_blank" xlink:href="http://en.cppreference.com/w/cpp/io/manip/endl.html#" xlink:title=" ">
<polygon fill="white" stroke="#666666" points="311.62,-495.25 258.12,-495.25 258.12,-476 311.62,-476 311.62,-495.25"/>
<text text-anchor="middle" x="284.88" y="-481.75" font-family="Helvetica,sans-Serif" font-size="10.00">std::endl</text>
</a>
</g>
</g>
<!-- Node1&#45;&gt;Node4 -->
<g id="edge3_Node000001_Node000004" class="edge">
<title>Node1&#45;&gt;Node4</title>
<g id="a_edge3_Node000001_Node000004"><a xlink:title=" ">
<path fill="none" stroke="#63b8ff" d="M37.13,-431.61C47.46,-435.52 60.84,-440.27 73,-443.62 133.03,-460.17 204.37,-472.99 246.79,-479.91"/>
<polygon fill="#63b8ff" stroke="#63b8ff" points="246.03,-483.33 256.46,-481.46 247.14,-476.42 246.03,-483.33"/>
</a>
</g>
</g>
<!-- Node5 -->
<g id="Node000005" class="node">
<title>Node5</title>
<g id="a_Node000005"><a xlink:href="../../d3/dae/dsu__path__compression_8cpp.html#ae7880ce913f3058a35ff106d5be9e243" target="_top" xlink:title="Self&#45;test implementations, 1st test.">
<polygon fill="white" stroke="#666666" points="150.5,-300.25 112.75,-300.25 112.75,-281 150.5,-281 150.5,-300.25"/>
<text text-anchor="middle" x="131.62" y="-286.75" font-family="Helvetica,sans-Serif" font-size="10.00">test1</text>
</a>
</g>
</g>
<!-- Node1&#45;&gt;Node5 -->
<g id="edge4_Node000001_Node000005" class="edge">
<title>Node1&#45;&gt;Node5</title>
<g id="a_edge4_Node000001_Node000005"><a xlink:title=" ">
<path fill="none" stroke="#63b8ff" d="M21.28,-414.6C25.77,-392.23 39.67,-337.9 73,-308.62 80.87,-301.71 91.37,-297.46 101.25,-294.83"/>
<polygon fill="#63b8ff" stroke="#63b8ff" points="101.86,-298.28 110.9,-292.76 100.38,-291.44 101.86,-298.28"/>
</a>
</g>
</g>
<!-- Node17 -->
<g id="Node000017" class="node">
<title>Node17</title>
<g id="a_Node000017"><a xlink:href="../../d3/dae/dsu__path__compression_8cpp.html#a45d94ead4cf4e1ff9f87c38bc99f59ae" target="_top" xlink:title="Self&#45;implementations, 2nd test.">
<polygon fill="white" stroke="#666666" points="150.5,-337.25 112.75,-337.25 112.75,-318 150.5,-318 150.5,-337.25"/>
<text text-anchor="middle" x="131.62" y="-323.75" font-family="Helvetica,sans-Serif" font-size="10.00">test2</text>
</a>
</g>
</g>
<!-- Node1&#45;&gt;Node17 -->
<g id="edge21_Node000001_Node000017" class="edge">
<title>Node1&#45;&gt;Node17</title>
<g id="a_edge21_Node000001_Node000017"><a xlink:title=" ">
<path fill="none" stroke="#63b8ff" d="M28.06,-414.56C38.22,-402.9 55.92,-383.41 73,-368.62 83.13,-359.86 95.1,-351.11 105.49,-343.97"/>
<polygon fill="#63b8ff" stroke="#63b8ff" points="107.27,-346.99 113.61,-338.5 103.36,-341.19 107.27,-346.99"/>
</a>
</g>
</g>
<!-- Node18 -->
<g id="Node000018" class="node">
<title>Node18</title>
<g id="a_Node000018"><a xlink:href="../../dd/d0c/hamiltons__cycle_8cpp.html#a0cc94918b6831f308d4fe4fa27f08299" target="_top" xlink:title=" ">
<polygon fill="white" stroke="#666666" points="150.5,-160.25 112.75,-160.25 112.75,-141 150.5,-141 150.5,-160.25"/>
<text text-anchor="middle" x="131.62" y="-146.75" font-family="Helvetica,sans-Serif" font-size="10.00">test3</text>
</a>
</g>
</g>
<!-- Node1&#45;&gt;Node18 -->
<g id="edge25_Node000001_Node000018" class="edge">
<title>Node1&#45;&gt;Node18</title>
<g id="a_edge25_Node000001_Node000018"><a xlink:title=" ">
<path fill="none" stroke="#63b8ff" d="M22.52,-414.82C30.15,-390.35 51.15,-324.71 73,-271.62 87.92,-235.38 108.15,-194.45 120.25,-170.69"/>
<polygon fill="#63b8ff" stroke="#63b8ff" points="123.33,-172.34 124.78,-161.85 117.1,-169.15 123.33,-172.34"/>
</a>
</g>
</g>
<!-- Node22 -->
<g id="Node000022" class="node">
<title>Node22</title>
<g id="a_Node000022"><a xlink:href="../../d8/d90/iterative__tree__traversals_8cpp.html#a038b236fe900f7bb7e57164f5bed66c2" target="_top" xlink:title="Test the computed preorder with the actual preorder on negative value.">
<polygon fill="white" stroke="#666666" points="150.5,-510.25 112.75,-510.25 112.75,-491 150.5,-491 150.5,-510.25"/>
<text text-anchor="middle" x="131.62" y="-496.75" font-family="Helvetica,sans-Serif" font-size="10.00">test4</text>
</a>
</g>
</g>
<!-- Node1&#45;&gt;Node22 -->
<g id="edge31_Node000001_Node000022" class="edge">
<title>Node1&#45;&gt;Node22</title>
<g id="a_edge31_Node000001_Node000022"><a xlink:title=" ">
<path fill="none" stroke="#63b8ff" d="M27.68,-434.59C37.47,-446 54.83,-464.65 73,-476.62 81.78,-482.41 92.18,-487.26 101.72,-491.05"/>
<polygon fill="#63b8ff" stroke="#63b8ff" points="100.35,-494.28 110.94,-494.48 102.79,-487.71 100.35,-494.28"/>
</a>
</g>
</g>
<!-- Node27 -->
<g id="Node000027" class="node">
<title>Node27</title>
<g id="a_Node000027"><a xlink:href="../../d8/d90/iterative__tree__traversals_8cpp.html#aa9ef334cd7eb607f4eb8732566ea00b8" target="_top" xlink:title="Test the computed postorder with the actual postorder on negative value.">
<polygon fill="white" stroke="#666666" points="150.5,-434.25 112.75,-434.25 112.75,-415 150.5,-415 150.5,-434.25"/>
<text text-anchor="middle" x="131.62" y="-420.75" font-family="Helvetica,sans-Serif" font-size="10.00">test5</text>
</a>
</g>
</g>
<!-- Node1&#45;&gt;Node27 -->
<g id="edge37_Node000001_Node000027" class="edge">
<title>Node1&#45;&gt;Node27</title>
<g id="a_edge37_Node000001_Node000027"><a xlink:title=" ">
<path fill="none" stroke="#63b8ff" d="M37.35,-424.62C54.51,-424.62 80.73,-424.62 101.01,-424.62"/>
<polygon fill="#63b8ff" stroke="#63b8ff" points="100.93,-428.13 110.93,-424.63 100.93,-421.13 100.93,-428.13"/>
</a>
</g>
</g>
<!-- Node29 -->
<g id="Node000029" class="node">
<title>Node29</title>
<g id="a_Node000029"><a xlink:href="../../d8/d90/iterative__tree__traversals_8cpp.html#af727f920064f2b8f484b589b60d49b89" target="_top" xlink:title="Test the computed inorder with the actual inorder on negative value.">
<polygon fill="white" stroke="#666666" points="150.5,-397.25 112.75,-397.25 112.75,-378 150.5,-378 150.5,-397.25"/>
<text text-anchor="middle" x="131.62" y="-383.75" font-family="Helvetica,sans-Serif" font-size="10.00">test6</text>
</a>
</g>
</g>
<!-- Node1&#45;&gt;Node29 -->
<g id="edge43_Node000001_Node000029" class="edge">
<title>Node1&#45;&gt;Node29</title>
<g id="a_edge43_Node000001_Node000029"><a xlink:title=" ">
<path fill="none" stroke="#63b8ff" d="M37.27,-418.12C47.66,-414.37 61.03,-409.62 73,-405.62 82.23,-402.55 92.34,-399.33 101.48,-396.49"/>
<polygon fill="#63b8ff" stroke="#63b8ff" points="102.43,-399.86 110.95,-393.57 100.37,-393.17 102.43,-399.86"/>
</a>
</g>
</g>
<!-- Node6 -->
<g id="Node000006" class="node">
<title>Node6</title>
<g id="a_Node000006"><a target="_blank" xlink:href="http://en.cppreference.com/w/cpp/container/vector/at.html#" xlink:title=" ">
<polygon fill="white" stroke="#666666" points="323.25,-337.25 246.5,-337.25 246.5,-318 323.25,-318 323.25,-337.25"/>
<text text-anchor="middle" x="284.88" y="-323.75" font-family="Helvetica,sans-Serif" font-size="10.00">std::vector::at</text>
</a>
</g>
</g>
<!-- Node5&#45;&gt;Node6 -->
<g id="edge5_Node000005_Node000006" class="edge">
<title>Node5&#45;&gt;Node6</title>
<g id="a_edge5_Node000005_Node000006"><a xlink:title=" ">
<path fill="none" stroke="#63b8ff" d="M150.87,-295.09C171.61,-300.16 206.32,-308.65 235.08,-315.69"/>
<polygon fill="#63b8ff" stroke="#63b8ff" points="234.15,-319.06 244.7,-318.04 235.82,-312.27 234.15,-319.06"/>
</a>
</g>
</g>
<!-- Node7 -->
<g id="Node000007" class="node">
<title>Node7</title>
<g id="a_Node000007"><a xlink:href="../../dd/d1f/classdsu.html#a0ce2672c570f4235eafddb0c9a58115a" target="_top" xlink:title="prints the minimum, maximum and size of the set to which i belongs to">
<polygon fill="white" stroke="#666666" points="310.5,-300.25 259.25,-300.25 259.25,-281 310.5,-281 310.5,-300.25"/>
<text text-anchor="middle" x="284.88" y="-286.75" font-family="Helvetica,sans-Serif" font-size="10.00">dsu::get</text>
</a>
</g>
</g>
<!-- Node5&#45;&gt;Node7 -->
<g id="edge6_Node000005_Node000007" class="edge">
<title>Node5&#45;&gt;Node7</title>
<g id="a_edge6_Node000005_Node000007"><a xlink:title=" ">
<path fill="none" stroke="#63b8ff" d="M150.87,-290.62C174.66,-290.62 216.83,-290.62 247.32,-290.62"/>
<polygon fill="#63b8ff" stroke="#63b8ff" points="247.26,-294.13 257.26,-290.63 247.26,-287.13 247.26,-294.13"/>
</a>
</g>
</g>
<!-- Node12 -->
<g id="Node000012" class="node">
<title>Node12</title>
<g id="a_Node000012"><a xlink:href="../../dd/d1f/classdsu.html#a6ac30c07abca2aaa3b291504c25c3559" target="_top" xlink:title="Method that combines two disjoint sets to which i and j belongs to and make a single set having a com...">
<polygon fill="white" stroke="#666666" points="324,-226.25 245.75,-226.25 245.75,-207 324,-207 324,-226.25"/>
<text text-anchor="middle" x="284.88" y="-212.75" font-family="Helvetica,sans-Serif" font-size="10.00">dsu::UnionSet</text>
</a>
</g>
</g>
<!-- Node5&#45;&gt;Node12 -->
<g id="edge14_Node000005_Node000012" class="edge">
<title>Node5&#45;&gt;Node12</title>
<g id="a_edge14_Node000005_Node000012"><a xlink:title=" ">
<path fill="none" stroke="#63b8ff" d="M150.87,-281.7C176.31,-269.25 222.77,-246.52 253.49,-231.49"/>
<polygon fill="#63b8ff" stroke="#63b8ff" points="254.84,-234.73 262.28,-227.19 251.76,-228.44 254.84,-234.73"/>
</a>
</g>
</g>
<!-- Node8 -->
<g id="Node000008" class="node">
<title>Node8</title>
<g id="a_Node000008"><a xlink:href="../../dd/d1f/classdsu.html#a696141b8b092466767f4bfe1c5e46cde" target="_top" xlink:title="A utility function that returns the max element of the set to which i belongs to.">
<polygon fill="white" stroke="#666666" points="475,-374.25 399.75,-374.25 399.75,-355 475,-355 475,-374.25"/>
<text text-anchor="middle" x="437.38" y="-360.75" font-family="Helvetica,sans-Serif" font-size="10.00">dsu::get_max</text>
</a>
</g>
</g>
<!-- Node7&#45;&gt;Node8 -->
<g id="edge7_Node000007_Node000008" class="edge">
<title>Node7&#45;&gt;Node8</title>
<g id="a_edge7_Node000007_Node000008"><a xlink:title=" ">
<path fill="none" stroke="#63b8ff" d="M310.89,-295.48C321.48,-298.27 333.63,-302.47 343.5,-308.62 363.24,-320.94 359.78,-334.28 379.5,-346.62 382.43,-348.46 385.57,-350.13 388.81,-351.63"/>
<polygon fill="#63b8ff" stroke="#63b8ff" points="387.38,-354.83 397.96,-355.35 390.01,-348.34 387.38,-354.83"/>
</a>
</g>
</g>
<!-- Node10 -->
<g id="Node000010" class="node">
<title>Node10</title>
<g id="a_Node000010"><a xlink:href="../../dd/d1f/classdsu.html#ac713a5b496d0405c82e2808a85e58415" target="_top" xlink:title="A utility function that returns the min element of the set to which i belongs to.">
<polygon fill="white" stroke="#666666" points="473.5,-337.25 401.25,-337.25 401.25,-318 473.5,-318 473.5,-337.25"/>
<text text-anchor="middle" x="437.38" y="-323.75" font-family="Helvetica,sans-Serif" font-size="10.00">dsu::get_min</text>
</a>
</g>
</g>
<!-- Node7&#45;&gt;Node10 -->
<g id="edge10_Node000007_Node000010" class="edge">
<title>Node7&#45;&gt;Node10</title>
<g id="a_edge10_Node000007_Node000010"><a xlink:title=" ">
<path fill="none" stroke="#63b8ff" d="M310.73,-296.73C332.11,-301.99 363.54,-309.72 389.61,-316.13"/>
<polygon fill="#63b8ff" stroke="#63b8ff" points="388.77,-319.53 399.32,-318.51 390.44,-312.73 388.77,-319.53"/>
</a>
</g>
</g>
<!-- Node11 -->
<g id="Node000011" class="node">
<title>Node11</title>
<g id="a_Node000011"><a xlink:href="../../dd/d1f/classdsu.html#a1c24228b0f2f49220133fb8c3566a55c" target="_top" xlink:title="A utility function that returns the size of the set to which i belongs to.">
<polygon fill="white" stroke="#666666" points="465.25,-300.25 409.5,-300.25 409.5,-281 465.25,-281 465.25,-300.25"/>
<text text-anchor="middle" x="437.38" y="-286.75" font-family="Helvetica,sans-Serif" font-size="10.00">dsu::size</text>
</a>
</g>
</g>
<!-- Node7&#45;&gt;Node11 -->
<g id="edge12_Node000007_Node000011" class="edge">
<title>Node7&#45;&gt;Node11</title>
<g id="a_edge12_Node000007_Node000011"><a xlink:title=" ">
<path fill="none" stroke="#63b8ff" d="M310.73,-290.62C334.47,-290.62 370.6,-290.62 398.03,-290.62"/>
<polygon fill="#63b8ff" stroke="#63b8ff" points="397.68,-294.13 407.68,-290.63 397.68,-287.13 397.68,-294.13"/>
</a>
</g>
</g>
<!-- Node9 -->
<g id="Node000009" class="node">
<title>Node9</title>
<g id="a_Node000009"><a xlink:href="../../dd/d1f/classdsu.html#a16851f78fe390fc1430905c83d6a2f1c" target="_top" xlink:title="Method to find the representative of the set to which i belongs to, T(n) = O(1)">
<polygon fill="white" stroke="#666666" points="599.75,-300.25 531.25,-300.25 531.25,-281 599.75,-281 599.75,-300.25"/>
<text text-anchor="middle" x="565.5" y="-286.75" font-family="Helvetica,sans-Serif" font-size="10.00">dsu::findSet</text>
</a>
</g>
</g>
<!-- Node8&#45;&gt;Node9 -->
<g id="edge8_Node000008_Node000009" class="edge">
<title>Node8&#45;&gt;Node9</title>
<g id="a_edge8_Node000008_Node000009"><a xlink:title=" ">
<path fill="none" stroke="#63b8ff" d="M475.31,-355.16C482.13,-352.79 489.05,-349.96 495.25,-346.62 514.28,-336.39 533.17,-320.64 546.4,-308.45"/>
<polygon fill="#63b8ff" stroke="#63b8ff" points="548.64,-311.15 553.49,-301.73 543.83,-306.07 548.64,-311.15"/>
</a>
</g>
</g>
<!-- Node9&#45;&gt;Node9 -->
<g id="edge9_Node000009_Node000009" class="edge">
<title>Node9&#45;&gt;Node9</title>
<g id="a_edge9_Node000009_Node000009"><a xlink:title=" ">
<path fill="none" stroke="#63b8ff" d="M545.44,-300.54C536.29,-309.15 542.98,-318.25 565.5,-318.25 577.82,-318.25 585.4,-315.53 588.24,-311.65"/>
<polygon fill="#63b8ff" stroke="#63b8ff" points="591.66,-310.91 585.91,-302.01 584.86,-312.55 591.66,-310.91"/>
</a>
</g>
</g>
<!-- Node10&#45;&gt;Node9 -->
<g id="edge11_Node000010_Node000009" class="edge">
<title>Node10&#45;&gt;Node9</title>
<g id="a_edge11_Node000010_Node000009"><a xlink:title=" ">
<path fill="none" stroke="#63b8ff" d="M472.84,-317.51C487.39,-313.24 504.53,-308.22 520.02,-303.67"/>
<polygon fill="#63b8ff" stroke="#63b8ff" points="520.89,-307.07 529.5,-300.89 518.92,-300.35 520.89,-307.07"/>
</a>
</g>
</g>
<!-- Node11&#45;&gt;Node9 -->
<g id="edge13_Node000011_Node000009" class="edge">
<title>Node11&#45;&gt;Node9</title>
<g id="a_edge13_Node000011_Node000009"><a xlink:title=" ">
<path fill="none" stroke="#63b8ff" d="M465.74,-290.62C481.43,-290.62 501.52,-290.62 519.47,-290.62"/>
<polygon fill="#63b8ff" stroke="#63b8ff" points="519.38,-294.13 529.38,-290.63 519.38,-287.13 519.38,-294.13"/>
</a>
</g>
</g>
<!-- Node12&#45;&gt;Node9 -->
<g id="edge15_Node000012_Node000009" class="edge">
<title>Node12&#45;&gt;Node9</title>
<g id="a_edge15_Node000012_Node000009"><a xlink:title=" ">
<path fill="none" stroke="#63b8ff" d="M310.01,-206.55C350.65,-191.25 434.25,-167 495.25,-197.62 525.28,-212.7 545.59,-247.65 556.09,-270.15"/>
<polygon fill="#63b8ff" stroke="#63b8ff" points="552.85,-271.48 560.07,-279.23 559.25,-268.66 552.85,-271.48"/>
</a>
</g>
</g>
<!-- Node13 -->
<g id="Node000013" class="node">
<title>Node13</title>
<g id="a_Node000013"><a xlink:href="../../dd/d1f/classdsu.html#a64d25c5986742f7c234ed449b2ff7303" target="_top" xlink:title="A utility function which check whether i and j belongs to same set or not.">
<polygon fill="white" stroke="#666666" points="472.75,-150.25 402,-150.25 402,-131 472.75,-131 472.75,-150.25"/>
<text text-anchor="middle" x="437.38" y="-136.75" font-family="Helvetica,sans-Serif" font-size="10.00">dsu::isSame</text>
</a>
</g>
</g>
<!-- Node12&#45;&gt;Node13 -->
<g id="edge16_Node000012_Node000013" class="edge">
<title>Node12&#45;&gt;Node13</title>
<g id="a_edge16_Node000012_Node000013"><a xlink:title=" ">
<path fill="none" stroke="#63b8ff" d="M302.5,-206.68C321,-195.78 351.92,-178.06 379.5,-164.62 386.3,-161.31 393.67,-158.01 400.78,-154.95"/>
<polygon fill="#63b8ff" stroke="#63b8ff" points="401.66,-158.38 409.52,-151.27 398.95,-151.92 401.66,-158.38"/>
</a>
</g>
</g>
<!-- Node14 -->
<g id="Node000014" class="node">
<title>Node14</title>
<g id="a_Node000014"><a target="_blank" xlink:href="http://en.cppreference.com/w/cpp/algorithm/max.html#" xlink:title=" ">
<polygon fill="white" stroke="#666666" points="592.62,-84.25 538.38,-84.25 538.38,-65 592.62,-65 592.62,-84.25"/>
<text text-anchor="middle" x="565.5" y="-70.75" font-family="Helvetica,sans-Serif" font-size="10.00">std::max</text>
</a>
</g>
</g>
<!-- Node12&#45;&gt;Node14 -->
<g id="edge18_Node000012_Node000014" class="edge">
<title>Node12&#45;&gt;Node14</title>
<g id="a_edge18_Node000012_Node000014"><a xlink:title=" ">
<path fill="none" stroke="#63b8ff" d="M292.83,-206.54C306.86,-187.01 340.53,-143.98 379.5,-121.62 404.41,-107.34 480.38,-90.85 526.86,-81.7"/>
<polygon fill="#63b8ff" stroke="#63b8ff" points="527.36,-85.16 536.51,-79.82 526.03,-78.29 527.36,-85.16"/>
</a>
</g>
</g>
<!-- Node15 -->
<g id="Node000015" class="node">
<title>Node15</title>
<g id="a_Node000015"><a target="_blank" xlink:href="http://en.cppreference.com/w/cpp/algorithm/min.html#" xlink:title=" ">
<polygon fill="white" stroke="#666666" points="463,-263.25 411.75,-263.25 411.75,-244 463,-244 463,-263.25"/>
<text text-anchor="middle" x="437.38" y="-249.75" font-family="Helvetica,sans-Serif" font-size="10.00">std::min</text>
</a>
</g>
</g>
<!-- Node12&#45;&gt;Node15 -->
<g id="edge19_Node000012_Node000015" class="edge">
<title>Node12&#45;&gt;Node15</title>
<g id="a_edge19_Node000012_Node000015"><a xlink:title=" ">
<path fill="none" stroke="#63b8ff" d="M324.24,-226.06C347.64,-231.81 377.35,-239.11 400.31,-244.76"/>
<polygon fill="#63b8ff" stroke="#63b8ff" points="399.29,-248.11 409.84,-247.1 400.96,-241.31 399.29,-248.11"/>
</a>
</g>
</g>
<!-- Node16 -->
<g id="Node000016" class="node">
<title>Node16</title>
<g id="a_Node000016"><a target="_blank" xlink:href="http://en.cppreference.com/w/cpp/algorithm/swap.html#" xlink:title=" ">
<polygon fill="white" stroke="#666666" points="466.75,-226.25 408,-226.25 408,-207 466.75,-207 466.75,-226.25"/>
<text text-anchor="middle" x="437.38" y="-212.75" font-family="Helvetica,sans-Serif" font-size="10.00">std::swap</text>
</a>
</g>
</g>
<!-- Node12&#45;&gt;Node16 -->
<g id="edge20_Node000012_Node000016" class="edge">
<title>Node12&#45;&gt;Node16</title>
<g id="a_edge20_Node000012_Node000016"><a xlink:title=" ">
<path fill="none" stroke="#63b8ff" d="M324.24,-216.62C346.24,-216.62 373.83,-216.62 396.13,-216.62"/>
<polygon fill="#63b8ff" stroke="#63b8ff" points="396.07,-220.13 406.07,-216.63 396.07,-213.13 396.07,-220.13"/>
</a>
</g>
</g>
<!-- Node13&#45;&gt;Node9 -->
<g id="edge17_Node000013_Node000009" class="edge">
<title>Node13&#45;&gt;Node9</title>
<g id="a_edge17_Node000013_Node000009"><a xlink:title=" ">
<path fill="none" stroke="#63b8ff" d="M472.44,-150.66C480.54,-154.16 488.72,-158.74 495.25,-164.62 527.87,-194.04 548.36,-242.55 557.99,-270"/>
<polygon fill="#63b8ff" stroke="#63b8ff" points="554.59,-270.87 561.08,-279.24 561.23,-268.65 554.59,-270.87"/>
</a>
</g>
</g>
<!-- Node17&#45;&gt;Node6 -->
<g id="edge22_Node000017_Node000006" class="edge">
<title>Node17&#45;&gt;Node6</title>
<g id="a_edge22_Node000017_Node000006"><a xlink:title=" ">
<path fill="none" stroke="#63b8ff" d="M150.87,-327.62C171.52,-327.62 206.01,-327.62 234.69,-327.62"/>
<polygon fill="#63b8ff" stroke="#63b8ff" points="234.65,-331.13 244.65,-327.63 234.65,-324.13 234.65,-331.13"/>
</a>
</g>
</g>
<!-- Node17&#45;&gt;Node7 -->
<g id="edge23_Node000017_Node000007" class="edge">
<title>Node17&#45;&gt;Node7</title>
<g id="a_edge23_Node000017_Node000007"><a xlink:title=" ">
<path fill="none" stroke="#63b8ff" d="M150.87,-323.16C174.77,-317.32 217.21,-306.93 247.73,-299.47"/>
<polygon fill="#63b8ff" stroke="#63b8ff" points="248.42,-302.9 257.31,-297.12 246.76,-296.1 248.42,-302.9"/>
</a>
</g>
</g>
<!-- Node17&#45;&gt;Node12 -->
<g id="edge24_Node000017_Node000012" class="edge">
<title>Node17&#45;&gt;Node12</title>
<g id="a_edge24_Node000017_Node000012"><a xlink:title=" ">
<path fill="none" stroke="#63b8ff" d="M150.77,-324.44C162.65,-321.78 178.15,-317.17 190.25,-309.62 209.99,-297.31 209.83,-288.11 226.25,-271.62 238.88,-258.95 253.47,-245.03 264.8,-234.37"/>
<polygon fill="#63b8ff" stroke="#63b8ff" points="267.09,-237.03 271.99,-227.64 262.3,-231.92 267.09,-237.03"/>
</a>
</g>
</g>
<!-- Node19 -->
<g id="Node000019" class="node">
<title>Node19</title>
<g id="a_Node000019"><a xlink:href="../../dd/d0c/hamiltons__cycle_8cpp.html#abcf824e347eecfeeb69ea0280f34f3e4" target="_top" xlink:title=" ">
<polygon fill="white" stroke="#666666" points="325.5,-56.25 244.25,-56.25 244.25,-37 325.5,-37 325.5,-56.25"/>
<text text-anchor="middle" x="284.88" y="-42.75" font-family="Helvetica,sans-Serif" font-size="10.00">hamilton_cycle</text>
</a>
</g>
</g>
<!-- Node18&#45;&gt;Node19 -->
<g id="edge26_Node000018_Node000019" class="edge">
<title>Node18&#45;&gt;Node19</title>
<g id="a_edge26_Node000018_Node000019"><a xlink:title=" ">
<path fill="none" stroke="#63b8ff" d="M147.13,-140.65C173.15,-122.76 228,-85.04 259.76,-63.21"/>
<polygon fill="#63b8ff" stroke="#63b8ff" points="261.69,-66.13 267.95,-57.58 257.72,-60.36 261.69,-66.13"/>
</a>
</g>
</g>
<!-- Node20 -->
<g id="Node000020" class="node">
<title>Node20</title>
<g id="a_Node000020"><a xlink:href="../../d8/dee/avltree_8cpp.html#ae4a66d8b0c2b0d626aea45977e358c83" target="_top" xlink:title=" ">
<polygon fill="white" stroke="#666666" points="458.5,-56.25 416.25,-56.25 416.25,-37 458.5,-37 458.5,-56.25"/>
<text text-anchor="middle" x="437.38" y="-42.75" font-family="Helvetica,sans-Serif" font-size="10.00">height</text>
</a>
</g>
</g>
<!-- Node19&#45;&gt;Node20 -->
<g id="edge27_Node000019_Node000020" class="edge">
<title>Node19&#45;&gt;Node20</title>
<g id="a_edge27_Node000019_Node000020"><a xlink:title=" ">
<path fill="none" stroke="#63b8ff" d="M325.81,-46.62C350.47,-46.62 381.66,-46.62 404.63,-46.62"/>
<polygon fill="#63b8ff" stroke="#63b8ff" points="404.61,-50.13 414.61,-46.63 404.61,-43.13 404.61,-50.13"/>
</a>
</g>
</g>
<!-- Node21 -->
<g id="Node000021" class="node">
<title>Node21</title>
<g id="a_Node000021"><a target="_blank" xlink:href="http://en.cppreference.com/w/cpp/container/vector/push_back.html#" xlink:title=" ">
<polygon fill="white" stroke="#666666" points="495.25,-19.25 379.5,-19.25 379.5,0 495.25,0 495.25,-19.25"/>
<text text-anchor="middle" x="437.38" y="-5.75" font-family="Helvetica,sans-Serif" font-size="10.00">std::vector::push_back</text>
</a>
</g>
</g>
<!-- Node19&#45;&gt;Node21 -->
<g id="edge30_Node000019_Node000021" class="edge">
<title>Node19&#45;&gt;Node21</title>
<g id="a_edge30_Node000019_Node000021"><a xlink:title=" ">
<path fill="none" stroke="#63b8ff" d="M325.81,-36.81C343.72,-32.4 365.08,-27.15 384.23,-22.45"/>
<polygon fill="#63b8ff" stroke="#63b8ff" points="384.86,-25.89 393.73,-20.11 383.19,-19.1 384.86,-25.89"/>
</a>
</g>
</g>
<!-- Node20&#45;&gt;Node14 -->
<g id="edge29_Node000020_Node000014" class="edge">
<title>Node20&#45;&gt;Node14</title>
<g id="a_edge29_Node000020_Node000014"><a xlink:title=" ">
<path fill="none" stroke="#63b8ff" d="M458.92,-51.19C477.35,-55.28 504.84,-61.38 527.15,-66.33"/>
<polygon fill="#63b8ff" stroke="#63b8ff" points="526.27,-69.72 536.79,-68.47 527.79,-62.89 526.27,-69.72"/>
</a>
</g>
</g>
<!-- Node20&#45;&gt;Node20 -->
<g id="edge28_Node000020_Node000020" class="edge">
<title>Node20&#45;&gt;Node20</title>
<g id="a_edge28_Node000020_Node000020"><a xlink:title=" ">
<path fill="none" stroke="#63b8ff" d="M417.32,-56.54C408.17,-65.15 414.85,-74.25 437.38,-74.25 449.69,-74.25 457.27,-71.53 460.12,-67.65"/>
<polygon fill="#63b8ff" stroke="#63b8ff" points="463.54,-66.91 457.79,-58.01 456.73,-68.55 463.54,-66.91"/>
</a>
</g>
</g>
<!-- Node22&#45;&gt;Node4 -->
<g id="edge32_Node000022_Node000004" class="edge">
<title>Node22&#45;&gt;Node4</title>
<g id="a_edge32_Node000022_Node000004"><a xlink:title=" ">
<path fill="none" stroke="#63b8ff" d="M150.87,-498.82C174.38,-496.48 215.85,-492.37 246.25,-489.36"/>
<polygon fill="#63b8ff" stroke="#63b8ff" points="246.59,-492.84 256.2,-488.37 245.9,-485.87 246.59,-492.84"/>
</a>
</g>
</g>
<!-- Node23 -->
<g id="Node000023" class="node">
<title>Node23</title>
<g id="a_Node000023"><a xlink:href="../../d9/d12/classothers_1_1iterative__tree__traversals_1_1_binary_tree.html#ad4c6a8e67fb8267a65439b035666b5ae" target="_top" xlink:title="preOrderIterative() function that will perform the preorder traversal iteratively,...">
<polygon fill="white" stroke="#666666" points="343.5,-555.5 226.25,-555.5 226.25,-513.75 343.5,-513.75 343.5,-555.5"/>
<text text-anchor="start" x="234.25" y="-542" font-family="Helvetica,sans-Serif" font-size="10.00">others::iterative_tree</text>
<text text-anchor="start" x="234.25" y="-530.75" font-family="Helvetica,sans-Serif" font-size="10.00">_traversals::BinaryTree</text>
<text text-anchor="middle" x="284.88" y="-519.5" font-family="Helvetica,sans-Serif" font-size="10.00">::preOrderIterative</text>
</a>
</g>
</g>
<!-- Node22&#45;&gt;Node23 -->
<g id="edge33_Node000022_Node000023" class="edge">
<title>Node22&#45;&gt;Node23</title>
<g id="a_edge33_Node000022_Node000023"><a xlink:title=" ">
<path fill="none" stroke="#63b8ff" d="M150.87,-504.73C166.88,-508.32 191.2,-513.79 214.7,-519.07"/>
<polygon fill="#63b8ff" stroke="#63b8ff" points="213.76,-522.45 224.28,-521.23 215.29,-515.62 213.76,-522.45"/>
</a>
</g>
</g>
<!-- Node24 -->
<g id="Node000024" class="node">
<title>Node24</title>
<g id="a_Node000024"><a xlink:href="../../d1/dc2/classstack.html#a3647fb4418890f19e0dc414b8092b8b0" target="_top" xlink:title=" ">
<polygon fill="white" stroke="#666666" points="468.25,-485.25 406.5,-485.25 406.5,-466 468.25,-466 468.25,-485.25"/>
<text text-anchor="middle" x="437.38" y="-471.75" font-family="Helvetica,sans-Serif" font-size="10.00">stack::pop</text>
</a>
</g>
</g>
<!-- Node23&#45;&gt;Node24 -->
<g id="edge34_Node000023_Node000024" class="edge">
<title>Node23&#45;&gt;Node24</title>
<g id="a_edge34_Node000023_Node000024"><a xlink:title=" ">
<path fill="none" stroke="#63b8ff" d="M340.21,-513.32C360.15,-505.51 382.22,-496.85 400.18,-489.81"/>
<polygon fill="#63b8ff" stroke="#63b8ff" points="401.34,-493.12 409.37,-486.21 398.78,-486.6 401.34,-493.12"/>
</a>
</g>
</g>
<!-- Node25 -->
<g id="Node000025" class="node">
<title>Node25</title>
<g id="a_Node000025"><a xlink:href="../../d1/dc2/classstack.html#a90df277532c23519aa7ac3c08ed90a1d" target="_top" xlink:title=" ">
<polygon fill="white" stroke="#666666" points="470.88,-448.25 403.88,-448.25 403.88,-429 470.88,-429 470.88,-448.25"/>
<text text-anchor="middle" x="437.38" y="-434.75" font-family="Helvetica,sans-Serif" font-size="10.00">stack::push</text>
</a>
</g>
</g>
<!-- Node23&#45;&gt;Node25 -->
<g id="edge35_Node000023_Node000025" class="edge">
<title>Node23&#45;&gt;Node25</title>
<g id="a_edge35_Node000023_Node000025"><a xlink:title=" ">
<path fill="none" stroke="#63b8ff" d="M331.49,-513.4C335.72,-510.69 339.8,-507.76 343.5,-504.62 363.83,-487.37 357.75,-472.05 379.5,-456.62 383.6,-453.72 388.2,-451.26 392.94,-449.2"/>
<polygon fill="#63b8ff" stroke="#63b8ff" points="393.9,-452.58 402.04,-445.8 391.45,-446.02 393.9,-452.58"/>
</a>
</g>
</g>
<!-- Node26 -->
<g id="Node000026" class="node">
<title>Node26</title>
<g id="a_Node000026"><a xlink:href="../../d1/dc2/classstack.html#ae09630c4384903d187801921b2ddc709" target="_top" xlink:title=" ">
<polygon fill="white" stroke="#666666" points="467.12,-411.25 407.62,-411.25 407.62,-392 467.12,-392 467.12,-411.25"/>
<text text-anchor="middle" x="437.38" y="-397.75" font-family="Helvetica,sans-Serif" font-size="10.00">stack::top</text>
</a>
</g>
</g>
<!-- Node23&#45;&gt;Node26 -->
<g id="edge36_Node000023_Node000026" class="edge">
<title>Node23&#45;&gt;Node26</title>
<g id="a_edge36_Node000023_Node000026"><a xlink:title=" ">
<path fill="none" stroke="#63b8ff" d="M333.74,-513.26C337.28,-510.65 340.59,-507.77 343.5,-504.62 371.34,-474.49 349.16,-447.24 379.5,-419.62 384.41,-415.16 390.42,-411.8 396.68,-409.28"/>
<polygon fill="#63b8ff" stroke="#63b8ff" points="397.46,-412.71 405.85,-406.24 395.26,-406.06 397.46,-412.71"/>
</a>
</g>
</g>
<!-- Node27&#45;&gt;Node4 -->
<g id="edge38_Node000027_Node000004" class="edge">
<title>Node27&#45;&gt;Node4</title>
<g id="a_edge38_Node000027_Node000004"><a xlink:title=" ">
<path fill="none" stroke="#63b8ff" d="M150.93,-431.87C162.33,-436.48 177.24,-442.67 190.25,-448.62 206.52,-456.07 209.71,-459.81 226.25,-466.62 232.9,-469.37 240.1,-472 247.08,-474.38"/>
<polygon fill="#63b8ff" stroke="#63b8ff" points="245.74,-477.62 256.33,-477.43 247.93,-470.97 245.74,-477.62"/>
</a>
</g>
</g>
<!-- Node28 -->
<g id="Node000028" class="node">
<title>Node28</title>
<g id="a_Node000028"><a xlink:href="../../d9/d12/classothers_1_1iterative__tree__traversals_1_1_binary_tree.html#a636a07c90b7f312bb86d2ec104efca25" target="_top" xlink:title="postOrderIterative() function that will perform the postorder traversal iteratively,...">
<polygon fill="white" stroke="#666666" points="343.5,-457.5 226.25,-457.5 226.25,-415.75 343.5,-415.75 343.5,-457.5"/>
<text text-anchor="start" x="234.25" y="-444" font-family="Helvetica,sans-Serif" font-size="10.00">others::iterative_tree</text>
<text text-anchor="start" x="234.25" y="-432.75" font-family="Helvetica,sans-Serif" font-size="10.00">_traversals::BinaryTree</text>
<text text-anchor="middle" x="284.88" y="-421.5" font-family="Helvetica,sans-Serif" font-size="10.00">::postOrderIterative</text>
</a>
</g>
</g>
<!-- Node27&#45;&gt;Node28 -->
<g id="edge39_Node000027_Node000028" class="edge">
<title>Node27&#45;&gt;Node28</title>
<g id="a_edge39_Node000027_Node000028"><a xlink:title=" ">
<path fill="none" stroke="#63b8ff" d="M150.87,-426.07C166.8,-427.34 190.98,-429.26 214.38,-431.11"/>
<polygon fill="#63b8ff" stroke="#63b8ff" points="214.01,-434.59 224.25,-431.89 214.56,-427.61 214.01,-434.59"/>
</a>
</g>
</g>
<!-- Node28&#45;&gt;Node24 -->
<g id="edge40_Node000028_Node000024" class="edge">
<title>Node28&#45;&gt;Node24</title>
<g id="a_edge40_Node000028_Node000024"><a xlink:title=" ">
<path fill="none" stroke="#63b8ff" d="M343.63,-451.59C360.84,-456.05 379.34,-460.85 395.26,-464.97"/>
<polygon fill="#63b8ff" stroke="#63b8ff" points="394.31,-468.34 404.87,-467.46 396.07,-461.56 394.31,-468.34"/>
</a>
</g>
</g>
<!-- Node28&#45;&gt;Node25 -->
<g id="edge41_Node000028_Node000025" class="edge">
<title>Node28&#45;&gt;Node25</title>
<g id="a_edge41_Node000028_Node000025"><a xlink:title=" ">
<path fill="none" stroke="#63b8ff" d="M343.63,-437.39C359.88,-437.61 377.28,-437.84 392.57,-438.04"/>
<polygon fill="#63b8ff" stroke="#63b8ff" points="392.24,-441.54 402.29,-438.17 392.33,-434.54 392.24,-441.54"/>
</a>
</g>
</g>
<!-- Node28&#45;&gt;Node26 -->
<g id="edge42_Node000028_Node000026" class="edge">
<title>Node28&#45;&gt;Node26</title>
<g id="a_edge42_Node000028_Node000026"><a xlink:title=" ">
<path fill="none" stroke="#63b8ff" d="M343.63,-423.19C361.11,-419.13 379.92,-414.75 396,-411.01"/>
<polygon fill="#63b8ff" stroke="#63b8ff" points="396.75,-414.43 405.69,-408.76 395.16,-407.62 396.75,-414.43"/>
</a>
</g>
</g>
<!-- Node29&#45;&gt;Node4 -->
<g id="edge44_Node000029_Node000004" class="edge">
<title>Node29&#45;&gt;Node4</title>
<g id="a_edge44_Node000029_Node000004"><a xlink:title=" ">
<path fill="none" stroke="#63b8ff" d="M150.84,-389.85C163.06,-392.11 178.91,-396.64 190.25,-405.62 214.92,-425.18 201.73,-446.88 226.25,-466.62 232.31,-471.51 239.68,-475.16 247.09,-477.87"/>
<polygon fill="#63b8ff" stroke="#63b8ff" points="245.8,-481.14 256.39,-480.78 247.88,-474.46 245.8,-481.14"/>
</a>
</g>
</g>
<!-- Node30 -->
<g id="Node000030" class="node">
<title>Node30</title>
<g id="a_Node000030"><a xlink:href="../../d9/d12/classothers_1_1iterative__tree__traversals_1_1_binary_tree.html#a0c33f2c1a3a3deb486a1c33ee5239499" target="_top" xlink:title="inOrderIterative() function that will perform the inorder traversal iteratively, and return the resul...">
<polygon fill="white" stroke="#666666" points="343.5,-397.5 226.25,-397.5 226.25,-355.75 343.5,-355.75 343.5,-397.5"/>
<text text-anchor="start" x="234.25" y="-384" font-family="Helvetica,sans-Serif" font-size="10.00">others::iterative_tree</text>
<text text-anchor="start" x="234.25" y="-372.75" font-family="Helvetica,sans-Serif" font-size="10.00">_traversals::BinaryTree</text>
<text text-anchor="middle" x="284.88" y="-361.5" font-family="Helvetica,sans-Serif" font-size="10.00">::inOrderIterative</text>
</a>
</g>
</g>
<!-- Node29&#45;&gt;Node30 -->
<g id="edge45_Node000029_Node000030" class="edge">
<title>Node29&#45;&gt;Node30</title>
<g id="a_edge45_Node000029_Node000030"><a xlink:title=" ">
<path fill="none" stroke="#63b8ff" d="M150.87,-386.3C166.8,-385.14 190.98,-383.38 214.38,-381.68"/>
<polygon fill="#63b8ff" stroke="#63b8ff" points="214.53,-385.18 224.25,-380.96 214.02,-378.2 214.53,-385.18"/>
</a>
</g>
</g>
<!-- Node30&#45;&gt;Node24 -->
<g id="edge46_Node000030_Node000024" class="edge">
<title>Node30&#45;&gt;Node24</title>
<g id="a_edge46_Node000030_Node000024"><a xlink:title=" ">
<path fill="none" stroke="#63b8ff" d="M331.88,-397.93C335.98,-400.61 339.93,-403.51 343.5,-406.62 364.39,-424.88 357.1,-441.25 379.5,-457.62 384.24,-461.09 389.67,-463.9 395.25,-466.18"/>
<polygon fill="#63b8ff" stroke="#63b8ff" points="394,-469.45 404.59,-469.44 396.3,-462.84 394,-469.45"/>
</a>
</g>
</g>
<!-- Node30&#45;&gt;Node25 -->
<g id="edge47_Node000030_Node000025" class="edge">
<title>Node30&#45;&gt;Node25</title>
<g id="a_edge47_Node000030_Node000025"><a xlink:title=" ">
<path fill="none" stroke="#63b8ff" d="M328.23,-397.99C344.11,-405.61 362.44,-413.95 379.5,-420.62 383.84,-422.32 388.41,-423.98 393,-425.56"/>
<polygon fill="#63b8ff" stroke="#63b8ff" points="391.6,-428.78 402.2,-428.6 393.8,-422.14 391.6,-428.78"/>
</a>
</g>
</g>
<!-- Node30&#45;&gt;Node26 -->
<g id="edge48_Node000030_Node000026" class="edge">
<title>Node30&#45;&gt;Node26</title>
<g id="a_edge48_Node000030_Node000026"><a xlink:title=" ">
<path fill="none" stroke="#63b8ff" d="M343.63,-386.22C361.11,-389.12 379.92,-392.25 396,-394.92"/>
<polygon fill="#63b8ff" stroke="#63b8ff" points="395.24,-398.34 405.67,-396.53 396.38,-391.43 395.24,-398.34"/>
</a>
</g>
</g>
</g>
</svg>
