<?xml version="1.0" encoding="UTF-8" standalone="no"?>
<!DOCTYPE svg PUBLIC "-//W3C//DTD SVG 1.1//EN"
 "http://www.w3.org/Graphics/SVG/1.1/DTD/svg11.dtd">
<!-- Generated by graphviz version 8.0.2 (20230410.1723)
 -->
<!-- Title: main Pages: 1 -->
<svg width="611pt" height="556pt"
 viewBox="0.00 0.00 611.00 556.00" xmlns="http://www.w3.org/2000/svg" xmlns:xlink="http://www.w3.org/1999/xlink">
<g id="graph0" class="graph" transform="scale(1 1) rotate(0) translate(4 552)">
<title>main</title>
<!-- Node1 -->
<g id="node1" class="node">
<title>Node1</title>
<g id="a_node1"><a xlink:title="Main function.">
<polygon fill="#999999" stroke="#666666" points="38,-376 0,-376 0,-357 38,-357 38,-376"/>
<text text-anchor="middle" x="19" y="-364" font-family="Helvetica,sans-Serif" font-size="10.00">main</text>
</a>
</g>
</g>
<!-- Node2 -->
<g id="node2" class="node">
<title>Node2</title>
<g id="a_node2"><a xlink:href="../../d9/d12/classothers_1_1iterative__tree__traversals_1_1_binary_tree.html#a3078a5ccf45d6a7031dcf46e43de65b6" target="_top" xlink:title="function that will create new node for insertion.">
<polygon fill="white" stroke="#666666" points="192,-548 74,-548 74,-507 192,-507 192,-548"/>
<text text-anchor="start" x="82" y="-536" font-family="Helvetica,sans-Serif" font-size="10.00">others::iterative_tree</text>
<text text-anchor="start" x="82" y="-525" font-family="Helvetica,sans-Serif" font-size="10.00">_traversals::BinaryTree</text>
<text text-anchor="middle" x="133" y="-514" font-family="Helvetica,sans-Serif" font-size="10.00">::createNewNode</text>
</a>
</g>
</g>
<!-- Node1&#45;&gt;Node2 -->
<g id="edge1" class="edge">
<title>Node1&#45;&gt;Node2</title>
<path fill="none" stroke="#63b8ff" d="M21.59,-376.39C25.89,-400.24 39.82,-461.65 74,-498.5 74.34,-498.87 74.69,-499.24 75.05,-499.6"/>
<polygon fill="#63b8ff" stroke="#63b8ff" points="72.36,-502.77 82.22,-506.64 76.93,-497.46 72.36,-502.77"/>
</g>
<!-- Node3 -->
<g id="node3" class="node">
<title>Node3</title>
<g id="a_node3"><a target="_blank" xlink:href="http://en.cppreference.com/w/cpp/container/vector/data.html#" xlink:title=" ">
<polygon fill="white" stroke="#666666" points="177,-489 89,-489 89,-470 177,-470 177,-489"/>
<text text-anchor="middle" x="133" y="-477" font-family="Helvetica,sans-Serif" font-size="10.00">std::vector::data</text>
</a>
</g>
</g>
<!-- Node1&#45;&gt;Node3 -->
<g id="edge2" class="edge">
<title>Node1&#45;&gt;Node3</title>
<path fill="none" stroke="#63b8ff" d="M22.92,-376.46C29.1,-395.77 45.32,-438.43 74,-461.5 75.63,-462.81 77.36,-464.03 79.16,-465.16"/>
<polygon fill="#63b8ff" stroke="#63b8ff" points="77.16,-468.58 87.64,-470.1 80.39,-462.38 77.16,-468.58"/>
</g>
<!-- Node4 -->
<g id="node4" class="node">
<title>Node4</title>
<g id="a_node4"><a target="_blank" xlink:href="http://en.cppreference.com/w/cpp/io/manip/endl.html#" xlink:title=" ">
<polygon fill="white" stroke="#666666" points="314,-435 260,-435 260,-416 314,-416 314,-435"/>
<text text-anchor="middle" x="287" y="-423" font-family="Helvetica,sans-Serif" font-size="10.00">std::endl</text>
</a>
</g>
</g>
<!-- Node1&#45;&gt;Node4 -->
<g id="edge3" class="edge">
<title>Node1&#45;&gt;Node4</title>
<path fill="none" stroke="#63b8ff" d="M38.28,-373.71C48.64,-377.6 61.91,-382.25 74,-385.5 134.43,-401.73 206.28,-413.81 248.9,-420.25"/>
<polygon fill="#63b8ff" stroke="#63b8ff" points="248.2,-423.83 258.6,-421.84 249.22,-416.91 248.2,-423.83"/>
</g>
<!-- Node5 -->
<g id="node5" class="node">
<title>Node5</title>
<g id="a_node5"><a xlink:href="../../d3/dae/dsu__path__compression_8cpp.html#ae7880ce913f3058a35ff106d5be9e243" target="_top" xlink:title="Self&#45;test implementations, 1st test.">
<polygon fill="white" stroke="#666666" points="152,-243 114,-243 114,-224 152,-224 152,-243"/>
<text text-anchor="middle" x="133" y="-231" font-family="Helvetica,sans-Serif" font-size="10.00">test1</text>
</a>
</g>
</g>
<!-- Node1&#45;&gt;Node5 -->
<g id="edge4" class="edge">
<title>Node1&#45;&gt;Node5</title>
<path fill="none" stroke="#63b8ff" d="M21.9,-356.68C26.67,-334.75 41.14,-281.46 74,-252.5 82.11,-245.35 92.98,-240.88 103.11,-238.09"/>
<polygon fill="#63b8ff" stroke="#63b8ff" points="103.69,-241.32 112.65,-235.68 102.12,-234.5 103.69,-241.32"/>
</g>
<!-- Node17 -->
<g id="node17" class="node">
<title>Node17</title>
<g id="a_node17"><a xlink:href="../../d3/dae/dsu__path__compression_8cpp.html#a45d94ead4cf4e1ff9f87c38bc99f59ae" target="_top" xlink:title="Self&#45;implementations, 2nd test.">
<polygon fill="white" stroke="#666666" points="152,-280 114,-280 114,-261 152,-261 152,-280"/>
<text text-anchor="middle" x="133" y="-268" font-family="Helvetica,sans-Serif" font-size="10.00">test2</text>
</a>
</g>
</g>
<!-- Node1&#45;&gt;Node17 -->
<g id="edge21" class="edge">
<title>Node1&#45;&gt;Node17</title>
<path fill="none" stroke="#63b8ff" d="M28.69,-356.64C38.97,-345.2 56.88,-326.07 74,-311.5 84.61,-302.48 97.14,-293.44 107.84,-286.15"/>
<polygon fill="#63b8ff" stroke="#63b8ff" points="109.31,-288.71 115.67,-280.24 105.41,-282.89 109.31,-288.71"/>
</g>
<!-- Node18 -->
<g id="node18" class="node">
<title>Node18</title>
<g id="a_node18"><a xlink:href="../../dd/d0c/hamiltons__cycle_8cpp.html#a0cc94918b6831f308d4fe4fa27f08299" target="_top" xlink:title=" ">
<polygon fill="white" stroke="#666666" points="152,-168 114,-168 114,-149 152,-149 152,-168"/>
<text text-anchor="middle" x="133" y="-156" font-family="Helvetica,sans-Serif" font-size="10.00">test3</text>
</a>
</g>
</g>
<!-- Node1&#45;&gt;Node18 -->
<g id="edge25" class="edge">
<title>Node1&#45;&gt;Node18</title>
<path fill="none" stroke="#63b8ff" d="M21.92,-356.63C27.12,-331.49 43.26,-263.59 74,-215.5 83.91,-199.99 98.77,-185.5 110.96,-175.01"/>
<polygon fill="#63b8ff" stroke="#63b8ff" points="112.81,-177.2 118.27,-168.12 108.34,-171.81 112.81,-177.2"/>
</g>
<!-- Node21 -->
<g id="node21" class="node">
<title>Node21</title>
<g id="a_node21"><a xlink:href="../../d8/d90/iterative__tree__traversals_8cpp.html#a038b236fe900f7bb7e57164f5bed66c2" target="_top" xlink:title="Test the computed preorder with the actual preorder on negative value.">
<polygon fill="white" stroke="#666666" points="152,-452 114,-452 114,-433 152,-433 152,-452"/>
<text text-anchor="middle" x="133" y="-440" font-family="Helvetica,sans-Serif" font-size="10.00">test4</text>
</a>
</g>
</g>
<!-- Node1&#45;&gt;Node21 -->
<g id="edge28" class="edge">
<title>Node1&#45;&gt;Node21</title>
<path fill="none" stroke="#63b8ff" d="M28.27,-376.47C38.17,-387.87 55.7,-406.53 74,-418.5 83.04,-424.42 93.78,-429.35 103.54,-433.17"/>
<polygon fill="#63b8ff" stroke="#63b8ff" points="102.03,-436.72 112.63,-436.88 104.45,-430.15 102.03,-436.72"/>
</g>
<!-- Node26 -->
<g id="node26" class="node">
<title>Node26</title>
<g id="a_node26"><a xlink:href="../../d8/d90/iterative__tree__traversals_8cpp.html#aa9ef334cd7eb607f4eb8732566ea00b8" target="_top" xlink:title="Test the computed postorder with the actual postorder on negative value.">
<polygon fill="white" stroke="#666666" points="152,-376 114,-376 114,-357 152,-357 152,-376"/>
<text text-anchor="middle" x="133" y="-364" font-family="Helvetica,sans-Serif" font-size="10.00">test5</text>
</a>
</g>
</g>
<!-- Node1&#45;&gt;Node26 -->
<g id="edge34" class="edge">
<title>Node1&#45;&gt;Node26</title>
<path fill="none" stroke="#63b8ff" d="M38.49,-366.5C56.03,-366.5 82.64,-366.5 102.99,-366.5"/>
<polygon fill="#63b8ff" stroke="#63b8ff" points="102.85,-370 112.85,-366.5 102.85,-363 102.85,-370"/>
</g>
<!-- Node28 -->
<g id="node28" class="node">
<title>Node28</title>
<g id="a_node28"><a xlink:href="../../d8/d90/iterative__tree__traversals_8cpp.html#af727f920064f2b8f484b589b60d49b89" target="_top" xlink:title="Test the computed inorder with the actual inorder on negative value.">
<polygon fill="white" stroke="#666666" points="152,-339 114,-339 114,-320 152,-320 152,-339"/>
<text text-anchor="middle" x="133" y="-327" font-family="Helvetica,sans-Serif" font-size="10.00">test6</text>
</a>
</g>
</g>
<!-- Node1&#45;&gt;Node28 -->
<g id="edge40" class="edge">
<title>Node1&#45;&gt;Node28</title>
<path fill="none" stroke="#63b8ff" d="M38.49,-360.31C48.91,-356.83 62.18,-352.41 74,-348.5 83.55,-345.35 93.98,-341.92 103.34,-338.86"/>
<polygon fill="#63b8ff" stroke="#63b8ff" points="104.29,-341.9 112.71,-335.47 102.11,-335.25 104.29,-341.9"/>
</g>
<!-- Node6 -->
<g id="node6" class="node">
<title>Node6</title>
<g id="a_node6"><a target="_blank" xlink:href="http://en.cppreference.com/w/cpp/container/vector/at.html#" xlink:title=" ">
<polygon fill="white" stroke="#666666" points="325.5,-280 248.5,-280 248.5,-261 325.5,-261 325.5,-280"/>
<text text-anchor="middle" x="287" y="-268" font-family="Helvetica,sans-Serif" font-size="10.00">std::vector::at</text>
</a>
</g>
</g>
<!-- Node5&#45;&gt;Node6 -->
<g id="edge5" class="edge">
<title>Node5&#45;&gt;Node6</title>
<path fill="none" stroke="#63b8ff" d="M152.33,-237.96C173.36,-243.08 208.67,-251.68 237.72,-258.75"/>
<polygon fill="#63b8ff" stroke="#63b8ff" points="236.56,-262.31 247.11,-261.28 238.22,-255.51 236.56,-262.31"/>
</g>
<!-- Node7 -->
<g id="node7" class="node">
<title>Node7</title>
<g id="a_node7"><a xlink:href="../../dd/d1f/classdsu.html#a0ce2672c570f4235eafddb0c9a58115a" target="_top" xlink:title="prints the minimum, maximum and size of the set to which i belongs to">
<polygon fill="white" stroke="#666666" points="313,-243 261,-243 261,-224 313,-224 313,-243"/>
<text text-anchor="middle" x="287" y="-231" font-family="Helvetica,sans-Serif" font-size="10.00">dsu::get</text>
</a>
</g>
</g>
<!-- Node5&#45;&gt;Node7 -->
<g id="edge6" class="edge">
<title>Node5&#45;&gt;Node7</title>
<path fill="none" stroke="#63b8ff" d="M152.33,-233.5C176.39,-233.5 219.13,-233.5 249.81,-233.5"/>
<polygon fill="#63b8ff" stroke="#63b8ff" points="249.51,-237 259.51,-233.5 249.51,-230 249.51,-237"/>
</g>
<!-- Node12 -->
<g id="node12" class="node">
<title>Node12</title>
<g id="a_node12"><a xlink:href="../../dd/d1f/classdsu.html#a6ac30c07abca2aaa3b291504c25c3559" target="_top" xlink:title="Method that combines two disjoint sets to which i and j belongs to and make a single set having a com...">
<polygon fill="white" stroke="#666666" points="326.5,-167 247.5,-167 247.5,-148 326.5,-148 326.5,-167"/>
<text text-anchor="middle" x="287" y="-155" font-family="Helvetica,sans-Serif" font-size="10.00">dsu::UnionSet</text>
</a>
</g>
</g>
<!-- Node5&#45;&gt;Node12 -->
<g id="edge14" class="edge">
<title>Node5&#45;&gt;Node12</title>
<path fill="none" stroke="#63b8ff" d="M152.33,-224.33C178.16,-211.42 225.52,-187.74 256.38,-172.31"/>
<polygon fill="#63b8ff" stroke="#63b8ff" points="257.78,-175.02 265.16,-167.42 254.65,-168.76 257.78,-175.02"/>
</g>
<!-- Node8 -->
<g id="node8" class="node">
<title>Node8</title>
<g id="a_node8"><a xlink:href="../../dd/d1f/classdsu.html#a696141b8b092466767f4bfe1c5e46cde" target="_top" xlink:title="A utility function that returns the max element of the set to which i belongs to.">
<polygon fill="white" stroke="#666666" points="478,-317 402,-317 402,-298 478,-298 478,-317"/>
<text text-anchor="middle" x="440" y="-305" font-family="Helvetica,sans-Serif" font-size="10.00">dsu::get_max</text>
</a>
</g>
</g>
<!-- Node7&#45;&gt;Node8 -->
<g id="edge7" class="edge">
<title>Node7&#45;&gt;Node8</title>
<path fill="none" stroke="#63b8ff" d="M313.43,-238.97C324.01,-241.95 336.11,-246.33 346,-252.5 365.47,-264.65 362.47,-277.46 382,-289.5 385,-291.35 388.21,-293.03 391.53,-294.55"/>
<polygon fill="#63b8ff" stroke="#63b8ff" points="390.06,-298.13 400.65,-298.63 392.68,-291.64 390.06,-298.13"/>
</g>
<!-- Node10 -->
<g id="node10" class="node">
<title>Node10</title>
<g id="a_node10"><a xlink:href="../../dd/d1f/classdsu.html#ac713a5b496d0405c82e2808a85e58415" target="_top" xlink:title="A utility function that returns the min element of the set to which i belongs to.">
<polygon fill="white" stroke="#666666" points="476.5,-280 403.5,-280 403.5,-261 476.5,-261 476.5,-280"/>
<text text-anchor="middle" x="440" y="-268" font-family="Helvetica,sans-Serif" font-size="10.00">dsu::get_min</text>
</a>
</g>
</g>
<!-- Node7&#45;&gt;Node10 -->
<g id="edge10" class="edge">
<title>Node7&#45;&gt;Node10</title>
<path fill="none" stroke="#63b8ff" d="M313.27,-239.69C334.89,-244.99 366.57,-252.75 392.72,-259.16"/>
<polygon fill="#63b8ff" stroke="#63b8ff" points="391.63,-262.74 402.17,-261.72 393.29,-255.94 391.63,-262.74"/>
</g>
<!-- Node11 -->
<g id="node11" class="node">
<title>Node11</title>
<g id="a_node11"><a xlink:href="../../dd/d1f/classdsu.html#a1c24228b0f2f49220133fb8c3566a55c" target="_top" xlink:title="A utility function that returns the size of the set to which i belongs to.">
<polygon fill="white" stroke="#666666" points="468,-243 412,-243 412,-224 468,-224 468,-243"/>
<text text-anchor="middle" x="440" y="-231" font-family="Helvetica,sans-Serif" font-size="10.00">dsu::size</text>
</a>
</g>
</g>
<!-- Node7&#45;&gt;Node11 -->
<g id="edge12" class="edge">
<title>Node7&#45;&gt;Node11</title>
<path fill="none" stroke="#63b8ff" d="M313.27,-233.5C337.18,-233.5 373.39,-233.5 400.82,-233.5"/>
<polygon fill="#63b8ff" stroke="#63b8ff" points="400.6,-237 410.6,-233.5 400.6,-230 400.6,-237"/>
</g>
<!-- Node9 -->
<g id="node9" class="node">
<title>Node9</title>
<g id="a_node9"><a xlink:href="../../dd/d1f/classdsu.html#a16851f78fe390fc1430905c83d6a2f1c" target="_top" xlink:title="Method to find the representative of the set to which i belongs to, T(n) = O(1)">
<polygon fill="white" stroke="#666666" points="603,-243 534,-243 534,-224 603,-224 603,-243"/>
<text text-anchor="middle" x="568.5" y="-231" font-family="Helvetica,sans-Serif" font-size="10.00">dsu::findSet</text>
</a>
</g>
</g>
<!-- Node8&#45;&gt;Node9 -->
<g id="edge8" class="edge">
<title>Node8&#45;&gt;Node9</title>
<path fill="none" stroke="#63b8ff" d="M478.31,-297.92C485.05,-295.58 491.87,-292.78 498,-289.5 517.49,-279.05 536.85,-262.85 550.17,-250.55"/>
<polygon fill="#63b8ff" stroke="#63b8ff" points="552.14,-253.56 556.99,-244.14 547.33,-248.48 552.14,-253.56"/>
</g>
<!-- Node9&#45;&gt;Node9 -->
<g id="edge9" class="edge">
<title>Node9&#45;&gt;Node9</title>
<path fill="none" stroke="#63b8ff" d="M548.38,-243.37C539.21,-251.94 545.91,-261 568.5,-261 581.56,-261 589.31,-257.97 591.75,-253.76"/>
<polygon fill="#63b8ff" stroke="#63b8ff" points="594.86,-252.93 588.62,-244.37 588.15,-254.95 594.86,-252.93"/>
</g>
<!-- Node10&#45;&gt;Node9 -->
<g id="edge11" class="edge">
<title>Node10&#45;&gt;Node9</title>
<path fill="none" stroke="#63b8ff" d="M474.9,-260.58C489.79,-256.23 507.46,-251.06 523.36,-246.41"/>
<polygon fill="#63b8ff" stroke="#63b8ff" points="523.89,-249.61 532.51,-243.44 521.93,-242.89 523.89,-249.61"/>
</g>
<!-- Node11&#45;&gt;Node9 -->
<g id="edge13" class="edge">
<title>Node11&#45;&gt;Node9</title>
<path fill="none" stroke="#63b8ff" d="M468.45,-233.5C484.34,-233.5 504.71,-233.5 522.85,-233.5"/>
<polygon fill="#63b8ff" stroke="#63b8ff" points="522.8,-237 532.8,-233.5 522.8,-230 522.8,-237"/>
</g>
<!-- Node12&#45;&gt;Node9 -->
<g id="edge15" class="edge">
<title>Node12&#45;&gt;Node9</title>
<path fill="none" stroke="#63b8ff" d="M324.54,-167.44C375.59,-181.32 468.16,-206.49 523.11,-221.43"/>
<polygon fill="#63b8ff" stroke="#63b8ff" points="522.01,-225.03 532.58,-224.28 523.85,-218.27 522.01,-225.03"/>
</g>
<!-- Node13 -->
<g id="node13" class="node">
<title>Node13</title>
<g id="a_node13"><a xlink:href="../../dd/d1f/classdsu.html#a64d25c5986742f7c234ed449b2ff7303" target="_top" xlink:title="A utility function which check whether i and j belongs to same set or not.">
<polygon fill="white" stroke="#666666" points="475.5,-167 404.5,-167 404.5,-148 475.5,-148 475.5,-167"/>
<text text-anchor="middle" x="440" y="-155" font-family="Helvetica,sans-Serif" font-size="10.00">dsu::isSame</text>
</a>
</g>
</g>
<!-- Node12&#45;&gt;Node13 -->
<g id="edge16" class="edge">
<title>Node12&#45;&gt;Node13</title>
<path fill="none" stroke="#63b8ff" d="M326.89,-157.5C347.2,-157.5 372.18,-157.5 393.4,-157.5"/>
<polygon fill="#63b8ff" stroke="#63b8ff" points="393.11,-161 403.11,-157.5 393.11,-154 393.11,-161"/>
</g>
<!-- Node14 -->
<g id="node14" class="node">
<title>Node14</title>
<g id="a_node14"><a target="_blank" xlink:href="http://en.cppreference.com/w/cpp/algorithm/max.html#" xlink:title=" ">
<polygon fill="white" stroke="#666666" points="467.5,-56 412.5,-56 412.5,-37 467.5,-37 467.5,-56"/>
<text text-anchor="middle" x="440" y="-44" font-family="Helvetica,sans-Serif" font-size="10.00">std::max</text>
</a>
</g>
</g>
<!-- Node12&#45;&gt;Node14 -->
<g id="edge18" class="edge">
<title>Node12&#45;&gt;Node14</title>
<path fill="none" stroke="#63b8ff" d="M295.38,-147.53C309.9,-128.63 344.07,-87.39 382,-64.5 388.01,-60.88 394.81,-57.91 401.58,-55.51"/>
<polygon fill="#63b8ff" stroke="#63b8ff" points="402.59,-58.54 411.06,-52.19 400.47,-51.87 402.59,-58.54"/>
</g>
<!-- Node15 -->
<g id="node15" class="node">
<title>Node15</title>
<g id="a_node15"><a target="_blank" xlink:href="http://en.cppreference.com/w/cpp/algorithm/min.html#" xlink:title=" ">
<polygon fill="white" stroke="#666666" points="466,-130 414,-130 414,-111 466,-111 466,-130"/>
<text text-anchor="middle" x="440" y="-118" font-family="Helvetica,sans-Serif" font-size="10.00">std::min</text>
</a>
</g>
</g>
<!-- Node12&#45;&gt;Node15 -->
<g id="edge19" class="edge">
<title>Node12&#45;&gt;Node15</title>
<path fill="none" stroke="#63b8ff" d="M326.89,-147.97C350.32,-142.23 379.95,-134.97 402.87,-129.35"/>
<polygon fill="#63b8ff" stroke="#63b8ff" points="403.64,-132.52 412.52,-126.74 401.98,-125.72 403.64,-132.52"/>
</g>
<!-- Node16 -->
<g id="node16" class="node">
<title>Node16</title>
<g id="a_node16"><a target="_blank" xlink:href="http://en.cppreference.com/w/cpp/algorithm/swap.html#" xlink:title=" ">
<polygon fill="white" stroke="#666666" points="469.5,-93 410.5,-93 410.5,-74 469.5,-74 469.5,-93"/>
<text text-anchor="middle" x="440" y="-81" font-family="Helvetica,sans-Serif" font-size="10.00">std::swap</text>
</a>
</g>
</g>
<!-- Node12&#45;&gt;Node16 -->
<g id="edge20" class="edge">
<title>Node12&#45;&gt;Node16</title>
<path fill="none" stroke="#63b8ff" d="M302.09,-147.69C320,-135.55 352.19,-114.87 382,-101.5 387.7,-98.94 393.88,-96.59 399.98,-94.49"/>
<polygon fill="#63b8ff" stroke="#63b8ff" points="400.67,-97.62 409.1,-91.21 398.51,-90.97 400.67,-97.62"/>
</g>
<!-- Node13&#45;&gt;Node9 -->
<g id="edge17" class="edge">
<title>Node13&#45;&gt;Node9</title>
<path fill="none" stroke="#63b8ff" d="M468.32,-167.43C477.95,-171.33 488.68,-176.16 498,-181.5 515.85,-191.73 534.42,-205.83 547.87,-216.77"/>
<polygon fill="#63b8ff" stroke="#63b8ff" points="545.36,-220.07 555.3,-223.75 549.83,-214.68 545.36,-220.07"/>
</g>
<!-- Node17&#45;&gt;Node6 -->
<g id="edge22" class="edge">
<title>Node17&#45;&gt;Node6</title>
<path fill="none" stroke="#63b8ff" d="M152.33,-270.5C173.27,-270.5 208.36,-270.5 237.34,-270.5"/>
<polygon fill="#63b8ff" stroke="#63b8ff" points="237.11,-274 247.11,-270.5 237.11,-267 237.11,-274"/>
</g>
<!-- Node17&#45;&gt;Node7 -->
<g id="edge23" class="edge">
<title>Node17&#45;&gt;Node7</title>
<path fill="none" stroke="#63b8ff" d="M152.33,-266.04C176.49,-260.16 219.5,-249.69 250.21,-242.21"/>
<polygon fill="#63b8ff" stroke="#63b8ff" points="250.62,-245.47 259.51,-239.71 248.96,-238.67 250.62,-245.47"/>
</g>
<!-- Node17&#45;&gt;Node12 -->
<g id="edge24" class="edge">
<title>Node17&#45;&gt;Node12</title>
<path fill="none" stroke="#63b8ff" d="M152.49,-267.22C164.4,-264.54 179.87,-259.94 192,-252.5 211.56,-240.51 211.89,-231.83 228,-215.5 241.52,-201.79 256.93,-186.39 268.47,-174.9"/>
<polygon fill="#63b8ff" stroke="#63b8ff" points="270.48,-177.84 275.11,-168.31 265.55,-172.88 270.48,-177.84"/>
</g>
<!-- Node19 -->
<g id="node19" class="node">
<title>Node19</title>
<g id="a_node19"><a xlink:href="../../dd/d0c/hamiltons__cycle_8cpp.html#abcf824e347eecfeeb69ea0280f34f3e4" target="_top" xlink:title=" ">
<polygon fill="white" stroke="#666666" points="328,-75 246,-75 246,-56 328,-56 328,-75"/>
<text text-anchor="middle" x="287" y="-63" font-family="Helvetica,sans-Serif" font-size="10.00">hamilton_cycle</text>
</a>
</g>
</g>
<!-- Node18&#45;&gt;Node19 -->
<g id="edge26" class="edge">
<title>Node18&#45;&gt;Node19</title>
<path fill="none" stroke="#63b8ff" d="M150.27,-148.55C176.78,-132.33 229.49,-100.07 260.86,-80.88"/>
<polygon fill="#63b8ff" stroke="#63b8ff" points="262.15,-83.59 268.85,-75.38 258.49,-77.61 262.15,-83.59"/>
</g>
<!-- Node20 -->
<g id="node20" class="node">
<title>Node20</title>
<g id="a_node20"><a target="_blank" xlink:href="http://en.cppreference.com/w/cpp/container/vector/push_back.html#" xlink:title=" ">
<polygon fill="white" stroke="#666666" points="498,-19 382,-19 382,0 498,0 498,-19"/>
<text text-anchor="middle" x="440" y="-7" font-family="Helvetica,sans-Serif" font-size="10.00">std::vector::push_back</text>
</a>
</g>
</g>
<!-- Node19&#45;&gt;Node20 -->
<g id="edge27" class="edge">
<title>Node19&#45;&gt;Node20</title>
<path fill="none" stroke="#63b8ff" d="M310.98,-55.62C329.9,-47.64 357.48,-36.31 382,-27.5 386.46,-25.9 391.14,-24.29 395.83,-22.74"/>
<polygon fill="#63b8ff" stroke="#63b8ff" points="396.57,-25.85 405,-19.44 394.41,-19.2 396.57,-25.85"/>
</g>
<!-- Node21&#45;&gt;Node4 -->
<g id="edge29" class="edge">
<title>Node21&#45;&gt;Node4</title>
<path fill="none" stroke="#63b8ff" d="M152.33,-440.45C176.17,-437.78 218.38,-433.06 249,-429.64"/>
<polygon fill="#63b8ff" stroke="#63b8ff" points="249.15,-433.03 258.7,-428.44 248.37,-426.07 249.15,-433.03"/>
</g>
<!-- Node22 -->
<g id="node22" class="node">
<title>Node22</title>
<g id="a_node22"><a xlink:href="../../d9/d12/classothers_1_1iterative__tree__traversals_1_1_binary_tree.html#ad4c6a8e67fb8267a65439b035666b5ae" target="_top" xlink:title="preOrderIterative() function that will perform the preorder traversal iteratively,...">
<polygon fill="white" stroke="#666666" points="346,-494 228,-494 228,-453 346,-453 346,-494"/>
<text text-anchor="start" x="236" y="-482" font-family="Helvetica,sans-Serif" font-size="10.00">others::iterative_tree</text>
<text text-anchor="start" x="236" y="-471" font-family="Helvetica,sans-Serif" font-size="10.00">_traversals::BinaryTree</text>
<text text-anchor="middle" x="287" y="-460" font-family="Helvetica,sans-Serif" font-size="10.00">::preOrderIterative</text>
</a>
</g>
</g>
<!-- Node21&#45;&gt;Node22 -->
<g id="edge30" class="edge">
<title>Node21&#45;&gt;Node22</title>
<path fill="none" stroke="#63b8ff" d="M152.33,-446.24C168.57,-449.55 193.31,-454.6 217.12,-459.45"/>
<polygon fill="#63b8ff" stroke="#63b8ff" points="216.1,-463.02 226.6,-461.59 217.5,-456.16 216.1,-463.02"/>
</g>
<!-- Node23 -->
<g id="node23" class="node">
<title>Node23</title>
<g id="a_node23"><a xlink:href="../../d1/dc2/classstack.html#a3647fb4418890f19e0dc414b8092b8b0" target="_top" xlink:title=" ">
<polygon fill="white" stroke="#666666" points="471,-428 409,-428 409,-409 471,-409 471,-428"/>
<text text-anchor="middle" x="440" y="-416" font-family="Helvetica,sans-Serif" font-size="10.00">stack::pop</text>
</a>
</g>
</g>
<!-- Node22&#45;&gt;Node23 -->
<g id="edge31" class="edge">
<title>Node22&#45;&gt;Node23</title>
<path fill="none" stroke="#63b8ff" d="M345.52,-452.55C364.29,-445.71 384.64,-438.3 401.54,-432.14"/>
<polygon fill="#63b8ff" stroke="#63b8ff" points="402.38,-435.2 410.58,-428.49 399.98,-428.62 402.38,-435.2"/>
</g>
<!-- Node24 -->
<g id="node24" class="node">
<title>Node24</title>
<g id="a_node24"><a xlink:href="../../d1/dc2/classstack.html#a90df277532c23519aa7ac3c08ed90a1d" target="_top" xlink:title=" ">
<polygon fill="white" stroke="#666666" points="474,-391 406,-391 406,-372 474,-372 474,-391"/>
<text text-anchor="middle" x="440" y="-379" font-family="Helvetica,sans-Serif" font-size="10.00">stack::push</text>
</a>
</g>
</g>
<!-- Node22&#45;&gt;Node24 -->
<g id="edge32" class="edge">
<title>Node22&#45;&gt;Node24</title>
<path fill="none" stroke="#63b8ff" d="M334.38,-452.59C338.46,-450.08 342.39,-447.38 346,-444.5 365.74,-428.72 361.2,-414.84 382,-400.5 386.18,-397.62 390.83,-395.15 395.63,-393.03"/>
<polygon fill="#63b8ff" stroke="#63b8ff" points="396.5,-396.06 404.56,-389.17 393.97,-389.53 396.5,-396.06"/>
</g>
<!-- Node25 -->
<g id="node25" class="node">
<title>Node25</title>
<g id="a_node25"><a xlink:href="../../d1/dc2/classstack.html#ae09630c4384903d187801921b2ddc709" target="_top" xlink:title=" ">
<polygon fill="white" stroke="#666666" points="470,-354 410,-354 410,-335 470,-335 470,-354"/>
<text text-anchor="middle" x="440" y="-342" font-family="Helvetica,sans-Serif" font-size="10.00">stack::top</text>
</a>
</g>
</g>
<!-- Node22&#45;&gt;Node25 -->
<g id="edge33" class="edge">
<title>Node22&#45;&gt;Node25</title>
<path fill="none" stroke="#63b8ff" d="M336.68,-452.55C340.04,-450.11 343.2,-447.43 346,-444.5 373.22,-416.02 352.83,-389.98 382,-363.5 387.02,-358.94 393.16,-355.48 399.53,-352.84"/>
<polygon fill="#63b8ff" stroke="#63b8ff" points="400.31,-355.93 408.61,-349.34 398.01,-349.32 400.31,-355.93"/>
</g>
<!-- Node26&#45;&gt;Node4 -->
<g id="edge35" class="edge">
<title>Node26&#45;&gt;Node4</title>
<path fill="none" stroke="#63b8ff" d="M152.38,-373.84C163.84,-378.48 178.85,-384.68 192,-390.5 208.18,-397.66 211.51,-401.08 228,-407.5 234.79,-410.14 242.13,-412.67 249.24,-414.95"/>
<polygon fill="#63b8ff" stroke="#63b8ff" points="248.16,-418.59 258.75,-418.2 250.23,-411.9 248.16,-418.59"/>
</g>
<!-- Node27 -->
<g id="node27" class="node">
<title>Node27</title>
<g id="a_node27"><a xlink:href="../../d9/d12/classothers_1_1iterative__tree__traversals_1_1_binary_tree.html#a636a07c90b7f312bb86d2ec104efca25" target="_top" xlink:title="postOrderIterative() function that will perform the postorder traversal iteratively,...">
<polygon fill="white" stroke="#666666" points="346,-398 228,-398 228,-357 346,-357 346,-398"/>
<text text-anchor="start" x="236" y="-386" font-family="Helvetica,sans-Serif" font-size="10.00">others::iterative_tree</text>
<text text-anchor="start" x="236" y="-375" font-family="Helvetica,sans-Serif" font-size="10.00">_traversals::BinaryTree</text>
<text text-anchor="middle" x="287" y="-364" font-family="Helvetica,sans-Serif" font-size="10.00">::postOrderIterative</text>
</a>
</g>
</g>
<!-- Node26&#45;&gt;Node27 -->
<g id="edge36" class="edge">
<title>Node26&#45;&gt;Node27</title>
<path fill="none" stroke="#63b8ff" d="M152.33,-367.83C168.49,-369 193.09,-370.78 216.8,-372.49"/>
<polygon fill="#63b8ff" stroke="#63b8ff" points="216.37,-376.04 226.6,-373.27 216.88,-369.06 216.37,-376.04"/>
</g>
<!-- Node27&#45;&gt;Node23 -->
<g id="edge37" class="edge">
<title>Node27&#45;&gt;Node23</title>
<path fill="none" stroke="#63b8ff" d="M346.38,-393.35C363.64,-398.04 382.17,-403.07 398.08,-407.39"/>
<polygon fill="#63b8ff" stroke="#63b8ff" points="397.06,-411.01 407.62,-410.25 398.89,-404.25 397.06,-411.01"/>
</g>
<!-- Node27&#45;&gt;Node24 -->
<g id="edge38" class="edge">
<title>Node27&#45;&gt;Node24</title>
<path fill="none" stroke="#63b8ff" d="M346.38,-379.05C362.54,-379.47 379.81,-379.93 395,-380.33"/>
<polygon fill="#63b8ff" stroke="#63b8ff" points="394.56,-383.85 404.65,-380.62 394.75,-376.85 394.56,-383.85"/>
</g>
<!-- Node27&#45;&gt;Node25 -->
<g id="edge39" class="edge">
<title>Node27&#45;&gt;Node25</title>
<path fill="none" stroke="#63b8ff" d="M346.38,-364.74C364.05,-360.88 383.03,-356.73 399.19,-353.2"/>
<polygon fill="#63b8ff" stroke="#63b8ff" points="399.85,-356.42 408.87,-350.87 398.35,-349.58 399.85,-356.42"/>
</g>
<!-- Node28&#45;&gt;Node4 -->
<g id="edge41" class="edge">
<title>Node28&#45;&gt;Node4</title>
<path fill="none" stroke="#63b8ff" d="M152.3,-332.1C164.58,-334.61 180.54,-339.42 192,-348.5 216.08,-367.57 203.77,-388.62 228,-407.5 234.16,-412.3 241.61,-415.83 249.09,-418.42"/>
<polygon fill="#63b8ff" stroke="#63b8ff" points="247.98,-422.04 258.56,-421.5 249.95,-415.32 247.98,-422.04"/>
</g>
<!-- Node29 -->
<g id="node29" class="node">
<title>Node29</title>
<g id="a_node29"><a xlink:href="../../d9/d12/classothers_1_1iterative__tree__traversals_1_1_binary_tree.html#a0c33f2c1a3a3deb486a1c33ee5239499" target="_top" xlink:title="inOrderIterative() function that will perform the inorder traversal iteratively, and return the resul...">
<polygon fill="white" stroke="#666666" points="346,-339 228,-339 228,-298 346,-298 346,-339"/>
<text text-anchor="start" x="236" y="-327" font-family="Helvetica,sans-Serif" font-size="10.00">others::iterative_tree</text>
<text text-anchor="start" x="236" y="-316" font-family="Helvetica,sans-Serif" font-size="10.00">_traversals::BinaryTree</text>
<text text-anchor="middle" x="287" y="-305" font-family="Helvetica,sans-Serif" font-size="10.00">::inOrderIterative</text>
</a>
</g>
</g>
<!-- Node28&#45;&gt;Node29 -->
<g id="edge42" class="edge">
<title>Node28&#45;&gt;Node29</title>
<path fill="none" stroke="#63b8ff" d="M152.33,-328.17C168.49,-327 193.09,-325.22 216.8,-323.51"/>
<polygon fill="#63b8ff" stroke="#63b8ff" points="216.88,-326.94 226.6,-322.73 216.37,-319.96 216.88,-326.94"/>
</g>
<!-- Node29&#45;&gt;Node23 -->
<g id="edge43" class="edge">
<title>Node29&#45;&gt;Node23</title>
<path fill="none" stroke="#63b8ff" d="M333.74,-339.37C338.08,-342.16 342.25,-345.21 346,-348.5 367.11,-367.06 359.38,-383.81 382,-400.5 386.85,-404.08 392.44,-406.96 398.18,-409.28"/>
<polygon fill="#63b8ff" stroke="#63b8ff" points="396.95,-412.91 407.55,-412.87 399.24,-406.29 396.95,-412.91"/>
</g>
<!-- Node29&#45;&gt;Node24 -->
<g id="edge44" class="edge">
<title>Node29&#45;&gt;Node24</title>
<path fill="none" stroke="#63b8ff" d="M328.63,-339.49C344.98,-347.53 364.16,-356.45 382,-363.5 386.23,-365.17 390.69,-366.8 395.17,-368.35"/>
<polygon fill="#63b8ff" stroke="#63b8ff" points="393.98,-371.97 404.57,-371.81 396.18,-365.33 393.98,-371.97"/>
</g>
<!-- Node29&#45;&gt;Node25 -->
<g id="edge45" class="edge">
<title>Node29&#45;&gt;Node25</title>
<path fill="none" stroke="#63b8ff" d="M346.38,-328.55C364.05,-331.59 383.03,-334.86 399.19,-337.65"/>
<polygon fill="#63b8ff" stroke="#63b8ff" points="398.42,-341.24 408.87,-339.48 399.61,-334.34 398.42,-341.24"/>
</g>
</g>
</svg>
