<?xml version="1.0" encoding="UTF-8" standalone="no"?>
<!DOCTYPE svg PUBLIC "-//W3C//DTD SVG 1.1//EN"
 "http://www.w3.org/Graphics/SVG/1.1/DTD/svg11.dtd">
<!-- Generated by graphviz version 8.1.0 (20230707.0739)
 -->
<!-- Title: strings::boyer_moore::search Pages: 1 -->
<svg width="267pt" height="101pt"
 viewBox="0.00 0.00 267.25 101.25" xmlns="http://www.w3.org/2000/svg" xmlns:xlink="http://www.w3.org/1999/xlink">
<g id="graph0" class="graph" transform="scale(1 1) rotate(0) translate(4 97.25)">
<title>strings::boyer_moore::search</title>
<!-- Node1 -->
<g id="Node000001" class="node">
<title>Node1</title>
<g id="a_Node000001"><a xlink:title="A function that implements Boyer&#45;Moore&#39;s algorithm.">
<polygon fill="#999999" stroke="#666666" points="107.5,-79.88 0,-79.88 0,-49.38 107.5,-49.38 107.5,-79.88"/>
<text text-anchor="start" x="8" y="-66.38" font-family="Helvetica,sans-Serif" font-size="10.00">strings::boyer_moore</text>
<text text-anchor="middle" x="53.75" y="-55.12" font-family="Helvetica,sans-Serif" font-size="10.00">::search</text>
</a>
</g>
</g>
<!-- Node2 -->
<g id="Node000002" class="node">
<title>Node2</title>
<g id="a_Node000002"><a target="_blank" xlink:href="http://en.cppreference.com/w/cpp/string/basic_string/size.html#" xlink:title=" ">
<polygon fill="white" stroke="#666666" points="247.25,-93.25 155.5,-93.25 155.5,-74 247.25,-74 247.25,-93.25"/>
<text text-anchor="middle" x="201.38" y="-79.75" font-family="Helvetica,sans-Serif" font-size="10.00">std::string::length</text>
</a>
</g>
</g>
<!-- Node1&#45;&gt;Node2 -->
<g id="edge1_Node000001_Node000002" class="edge">
<title>Node1&#45;&gt;Node2</title>
<g id="a_edge1_Node000001_Node000002"><a xlink:title=" ">
<path fill="none" stroke="#63b8ff" d="M107.74,-65.02C123.7,-66.72 141.05,-69.08 156.36,-71.63"/>
<polygon fill="#63b8ff" stroke="#63b8ff" points="155.66,-75.23 166.11,-73.51 156.87,-68.34 155.66,-75.23"/>
</a>
</g>
</g>
<!-- Node1&#45;&gt;Node2 -->
<g id="edge4_Node000001_Node000002" class="edge">
<title>Node1&#45;&gt;Node2</title>
<g id="a_edge4_Node000001_Node000002"><a xlink:title=" ">
<path fill="none" stroke="#63b8ff" d="M107.74,-78.06C119.69,-79.9 132.42,-81.58 144.49,-82.92"/>
<polygon fill="#63b8ff" stroke="#63b8ff" points="144.04,-86.49 154.35,-84.04 144.76,-79.53 144.04,-86.49"/>
</a>
</g>
</g>
<!-- Node3 -->
<g id="Node000003" class="node">
<title>Node3</title>
<g id="a_Node000003"><a target="_blank" xlink:href="http://en.cppreference.com/w/cpp/algorithm/max.html#" xlink:title=" ">
<polygon fill="white" stroke="#666666" points="228.5,-56.25 174.25,-56.25 174.25,-37 228.5,-37 228.5,-56.25"/>
<text text-anchor="middle" x="201.38" y="-42.75" font-family="Helvetica,sans-Serif" font-size="10.00">std::max</text>
</a>
</g>
</g>
<!-- Node1&#45;&gt;Node3 -->
<g id="edge2_Node000001_Node000003" class="edge">
<title>Node1&#45;&gt;Node3</title>
<g id="a_edge2_Node000001_Node000003"><a xlink:title=" ">
<path fill="none" stroke="#63b8ff" d="M107.74,-58.08C126.15,-55.8 146.39,-53.3 163.25,-51.21"/>
<polygon fill="#63b8ff" stroke="#63b8ff" points="163.28,-54.61 172.78,-49.91 162.43,-47.67 163.28,-54.61"/>
</a>
</g>
</g>
<!-- Node4 -->
<g id="Node000004" class="node">
<title>Node4</title>
<g id="a_Node000004"><a target="_blank" xlink:href="http://en.cppreference.com/w/cpp/container/vector/push_back.html#" xlink:title=" ">
<polygon fill="white" stroke="#666666" points="259.25,-19.25 143.5,-19.25 143.5,0 259.25,0 259.25,-19.25"/>
<text text-anchor="middle" x="201.38" y="-5.75" font-family="Helvetica,sans-Serif" font-size="10.00">std::vector::push_back</text>
</a>
</g>
</g>
<!-- Node1&#45;&gt;Node4 -->
<g id="edge3_Node000001_Node000004" class="edge">
<title>Node1&#45;&gt;Node4</title>
<g id="a_edge3_Node000001_Node000004"><a xlink:title=" ">
<path fill="none" stroke="#63b8ff" d="M90.31,-48.96C106.42,-42.08 125.78,-34.11 143.5,-27.62 147.71,-26.08 152.13,-24.55 156.56,-23.06"/>
<polygon fill="#63b8ff" stroke="#63b8ff" points="157.41,-26.14 165.83,-19.7 155.23,-19.49 157.41,-26.14"/>
</a>
</g>
</g>
</g>
</svg>
