<?xml version="1.0" encoding="UTF-8" standalone="no"?>
<!DOCTYPE svg PUBLIC "-//W3C//DTD SVG 1.1//EN"
 "http://www.w3.org/Graphics/SVG/1.1/DTD/svg11.dtd">
<!-- Generated by graphviz version 12.1.2 (20240928.0832)
 -->
<!-- Title: main Pages: 1 -->
<!--zoomable 253 -->

<svg id="main" version="1.1" xmlns="http://www.w3.org/2000/svg" xmlns:xlink="http://www.w3.org/1999/xlink" xml:space="preserve" onload="init(evt)">

<style type="text/css"><![CDATA[
.node, .edge {opacity: 0.7;}
.node.selected, .edge.selected {opacity: 1;}
.edge:hover path { stroke: red; }
.edge:hover polygon { stroke: red; fill: red; }
]]></style>

<defs>
  <circle id="rim" cx="0" cy="0" r="7"/>
  <circle id="rim2" cx="0" cy="0" r="3.5"/>
  <g id="zoomPlus">
    <use xlink:href="#rim" fill="#404040"><set attributeName="fill" to="#808080" begin="zoomplus.mouseover" end="zoomplus.mouseout"/></use>
    <path d="M-4,0h8M0,-4v8" fill="none" stroke="white" stroke-width="1.5" pointer-events="none"/>
  </g>
  <g id="zoomMin">
    <use xlink:href="#rim" fill="#404040"><set attributeName="fill" to="#808080" begin="zoomminus.mouseover" end="zoomminus.mouseout"/></use>
    <path d="M-4,0h8" fill="none" stroke="white" stroke-width="1.5" pointer-events="none"/>
  </g>
  <g id="arrowUp" transform="translate(30 24)">
    <use xlink:href="#rim"/>
    <path pointer-events="none" fill="none" stroke="white" stroke-width="1.5" d="M0,-3.0v7 M-2.5,-0.5L0,-3.0L2.5,-0.5"/>
  </g>
  <g id="arrowRight" transform="rotate(90) translate(36 -43)">
    <use xlink:href="#rim"/>
    <path pointer-events="none" fill="none" stroke="white" stroke-width="1.5" d="M0,-3.0v7 M-2.5,-0.5L0,-3.0L2.5,-0.5"/>
  </g>
  <g id="arrowDown" transform="rotate(180) translate(-30 -48)">
    <use xlink:href="#rim"/>
    <path pointer-events="none" fill="none" stroke="white" stroke-width="1.5" d="M0,-3.0v7 M-2.5,-0.5L0,-3.0L2.5,-0.5"/>
  </g>
  <g id="arrowLeft" transform="rotate(270) translate(-36 17)">
    <use xlink:href="#rim"/>
    <path pointer-events="none" fill="none" stroke="white" stroke-width="1.5" d="M0,-3.0v7 M-2.5,-0.5L0,-3.0L2.5,-0.5"/>
  </g>
  <g id="resetDef">
    <use xlink:href="#rim2" fill="#404040"><set attributeName="fill" to="#808080" begin="reset.mouseover" end="reset.mouseout"/></use>
  </g>
</defs>
<script type="application/ecmascript">
var viewWidth = 634;
var viewHeight = 253;
var sectionId = 'dynsection-2';
</script>
<script type="application/ecmascript" xlink:href="../../svg.min.js"/>
<svg id="graph" class="graph">
<g id="viewport">
<title>main</title>
<!-- Node1 -->
<g id="Node000001" class="node">
<title>Node1</title>
<g id="a_Node000001"><a xlink:title="Main function.">
<polygon fill="#999999" stroke="#666666" points="37,-174.25 0,-174.25 0,-155 37,-155 37,-174.25"/>
<text text-anchor="middle" x="18.5" y="-160.75" font-family="Helvetica,sans-Serif" font-size="10.00">main</text>
</a>
</g>
</g>
<!-- Node2 -->
<g id="Node000002" class="node">
<title>Node2</title>
<g id="a_Node000002"><a xlink:href="../../d3/db2/boyer__moore_8cpp.html#a483bb8ccf42aaf7375a83e91490eda1e" target="_top" xlink:title="Self&#45;test implementations.">
<polygon fill="white" stroke="#666666" points="110.75,-174.25 73,-174.25 73,-155 110.75,-155 110.75,-174.25"/>
<text text-anchor="middle" x="91.88" y="-160.75" font-family="Helvetica,sans-Serif" font-size="10.00">tests</text>
</a>
</g>
</g>
<!-- Node1&#45;&gt;Node2 -->
<g id="edge1_Node000001_Node000002" class="edge">
<title>Node1&#45;&gt;Node2</title>
<g id="a_edge1_Node000001_Node000002"><a xlink:title=" ">
<path fill="none" stroke="#63b8ff" d="M37.14,-164.62C44.55,-164.62 53.37,-164.62 61.69,-164.62"/>
<polygon fill="#63b8ff" stroke="#63b8ff" points="61.43,-168.13 71.43,-164.63 61.43,-161.13 61.43,-168.13"/>
</a>
</g>
</g>
<!-- Node3 -->
<g id="Node000003" class="node">
<title>Node3</title>
<g id="a_Node000003"><a xlink:href="../../d3/db2/boyer__moore_8cpp.html#acb8f69e7901ee7459d98bd4b9dda79d9" target="_top" xlink:title="A test case in which we search for every appearance of the word &#39;and&#39;.">
<polygon fill="white" stroke="#666666" points="200.25,-193.25 146.75,-193.25 146.75,-174 200.25,-174 200.25,-193.25"/>
<text text-anchor="middle" x="173.5" y="-179.75" font-family="Helvetica,sans-Serif" font-size="10.00">and_test</text>
</a>
</g>
</g>
<!-- Node2&#45;&gt;Node3 -->
<g id="edge2_Node000002_Node000003" class="edge">
<title>Node2&#45;&gt;Node3</title>
<g id="a_edge2_Node000002_Node000003"><a xlink:title=" ">
<path fill="none" stroke="#63b8ff" d="M110.94,-168.94C118.22,-170.67 126.89,-172.74 135.39,-174.77"/>
<polygon fill="#63b8ff" stroke="#63b8ff" points="134.34,-178.12 144.88,-177.03 135.96,-171.31 134.34,-178.12"/>
</a>
</g>
</g>
<!-- Node14 -->
<g id="Node000014" class="node">
<title>Node14</title>
<g id="a_Node000014"><a xlink:href="../../d3/db2/boyer__moore_8cpp.html#ac8fac0dd4b19973da103a434143a16d2" target="_top" xlink:title="A test case in which we search for every appearance of the word &#39;pat&#39;.">
<polygon fill="white" stroke="#666666" points="199.12,-156.25 147.88,-156.25 147.88,-137 199.12,-137 199.12,-156.25"/>
<text text-anchor="middle" x="173.5" y="-142.75" font-family="Helvetica,sans-Serif" font-size="10.00">pat_test</text>
</a>
</g>
</g>
<!-- Node2&#45;&gt;Node14 -->
<g id="edge18_Node000002_Node000014" class="edge">
<title>Node2&#45;&gt;Node14</title>
<g id="a_edge18_Node000002_Node000014"><a xlink:title=" ">
<path fill="none" stroke="#63b8ff" d="M110.94,-160.54C118.56,-158.82 127.7,-156.75 136.58,-154.74"/>
<polygon fill="#63b8ff" stroke="#63b8ff" points="137.1,-158.22 146.09,-152.6 135.56,-151.39 137.1,-158.22"/>
</a>
</g>
</g>
<!-- Node4 -->
<g id="Node000004" class="node">
<title>Node4</title>
<g id="a_Node000004"><a xlink:href="../../d0/dbc/namespacestrings_1_1boyer__moore.html#a0b165af1dc341289fd705be4c67728f8" target="_top" xlink:title="A function that initializes pattern.">
<polygon fill="white" stroke="#666666" points="343.75,-158.88 236.25,-158.88 236.25,-128.38 343.75,-128.38 343.75,-158.88"/>
<text text-anchor="start" x="244.25" y="-145.38" font-family="Helvetica,sans-Serif" font-size="10.00">strings::boyer_moore</text>
<text text-anchor="middle" x="290" y="-134.12" font-family="Helvetica,sans-Serif" font-size="10.00">::init_pattern</text>
</a>
</g>
</g>
<!-- Node3&#45;&gt;Node4 -->
<g id="edge3_Node000003_Node000004" class="edge">
<title>Node3&#45;&gt;Node4</title>
<g id="a_edge3_Node000003_Node000004"><a xlink:title=" ">
<path fill="none" stroke="#63b8ff" d="M200.48,-174.55C210.38,-171.09 222.08,-167 233.68,-162.95"/>
<polygon fill="#63b8ff" stroke="#63b8ff" points="234.53,-166.36 242.82,-159.76 232.22,-159.75 234.53,-166.36"/>
</a>
</g>
</g>
<!-- Node9 -->
<g id="Node000009" class="node">
<title>Node9</title>
<g id="a_Node000009"><a xlink:href="../../d0/dbc/namespacestrings_1_1boyer__moore.html#a056122c8fe8fb0f5fca6428d3f7b5c3a" target="_top" xlink:title="Check if pat is prefix of str.">
<polygon fill="white" stroke="#666666" points="343.75,-244.88 236.25,-244.88 236.25,-214.38 343.75,-214.38 343.75,-244.88"/>
<text text-anchor="start" x="244.25" y="-231.38" font-family="Helvetica,sans-Serif" font-size="10.00">strings::boyer_moore</text>
<text text-anchor="middle" x="290" y="-220.12" font-family="Helvetica,sans-Serif" font-size="10.00">::is_prefix</text>
</a>
</g>
</g>
<!-- Node3&#45;&gt;Node9 -->
<g id="edge11_Node000003_Node000009" class="edge">
<title>Node3&#45;&gt;Node9</title>
<g id="a_edge11_Node000003_Node000009"><a xlink:title=" ">
<path fill="none" stroke="#63b8ff" d="M199.63,-193.72C211.38,-198.44 225.8,-204.23 239.6,-209.78"/>
<polygon fill="#63b8ff" stroke="#63b8ff" points="237.99,-212.9 248.57,-213.38 240.6,-206.41 237.99,-212.9"/>
</a>
</g>
</g>
<!-- Node10 -->
<g id="Node000010" class="node">
<title>Node10</title>
<g id="a_Node000010"><a xlink:href="../../d0/dbc/namespacestrings_1_1boyer__moore.html#a15703b553faed0d28202c10808cf9738" target="_top" xlink:title="A function that implements Boyer&#45;Moore&#39;s algorithm.">
<polygon fill="white" stroke="#666666" points="343.75,-108.88 236.25,-108.88 236.25,-78.38 343.75,-78.38 343.75,-108.88"/>
<text text-anchor="start" x="244.25" y="-95.38" font-family="Helvetica,sans-Serif" font-size="10.00">strings::boyer_moore</text>
<text text-anchor="middle" x="290" y="-84.12" font-family="Helvetica,sans-Serif" font-size="10.00">::search</text>
</a>
</g>
</g>
<!-- Node3&#45;&gt;Node10 -->
<g id="edge12_Node000003_Node000010" class="edge">
<title>Node3&#45;&gt;Node10</title>
<g id="a_edge12_Node000003_Node000010"><a xlink:title=" ">
<path fill="none" stroke="#63b8ff" d="M190.33,-173.67C193.75,-171.22 197.24,-168.48 200.25,-165.62 219.1,-147.77 216.1,-136 236.25,-119.62 238.15,-118.08 240.16,-116.6 242.23,-115.18"/>
<polygon fill="#63b8ff" stroke="#63b8ff" points="243.7,-118.39 250.38,-110.16 240.03,-112.43 243.7,-118.39"/>
</a>
</g>
</g>
<!-- Node13 -->
<g id="Node000013" class="node">
<title>Node13</title>
<g id="a_Node000013"><a target="_blank" xlink:href="http://en.cppreference.com/w/cpp/container/vector/size.html#" xlink:title=" ">
<polygon fill="white" stroke="#666666" points="333.25,-196.25 246.75,-196.25 246.75,-177 333.25,-177 333.25,-196.25"/>
<text text-anchor="middle" x="290" y="-182.75" font-family="Helvetica,sans-Serif" font-size="10.00">std::vector::size</text>
</a>
</g>
</g>
<!-- Node3&#45;&gt;Node13 -->
<g id="edge17_Node000003_Node000013" class="edge">
<title>Node3&#45;&gt;Node13</title>
<g id="a_edge17_Node000003_Node000013"><a xlink:title=" ">
<path fill="none" stroke="#63b8ff" d="M200.48,-184.31C210.78,-184.58 223.03,-184.9 235.08,-185.21"/>
<polygon fill="#63b8ff" stroke="#63b8ff" points="234.9,-188.71 244.99,-185.47 235.09,-181.71 234.9,-188.71"/>
</a>
</g>
</g>
<!-- Node5 -->
<g id="Node000005" class="node">
<title>Node5</title>
<g id="a_Node000005"><a xlink:href="../../d0/dbc/namespacestrings_1_1boyer__moore.html#a2f6688c9bb3e692297a3aa09cebc1c00" target="_top" xlink:title="A function that preprocess the bad char table.">
<polygon fill="white" stroke="#666666" points="491.38,-209.88 383.88,-209.88 383.88,-179.38 491.38,-179.38 491.38,-209.88"/>
<text text-anchor="start" x="391.88" y="-196.38" font-family="Helvetica,sans-Serif" font-size="10.00">strings::boyer_moore</text>
<text text-anchor="middle" x="437.62" y="-185.12" font-family="Helvetica,sans-Serif" font-size="10.00">::init_bad_char</text>
</a>
</g>
</g>
<!-- Node4&#45;&gt;Node5 -->
<g id="edge4_Node000004_Node000005" class="edge">
<title>Node4&#45;&gt;Node5</title>
<g id="a_edge4_Node000004_Node000005"><a xlink:title=" ">
<path fill="none" stroke="#63b8ff" d="M335.88,-159.34C350.2,-164.36 366.23,-169.97 381.21,-175.22"/>
<polygon fill="#63b8ff" stroke="#63b8ff" points="379.87,-178.46 390.46,-178.46 382.18,-171.85 379.87,-178.46"/>
</a>
</g>
</g>
<!-- Node8 -->
<g id="Node000008" class="node">
<title>Node8</title>
<g id="a_Node000008"><a xlink:href="../../d0/dbc/namespacestrings_1_1boyer__moore.html#aa709cf7fca02b7d3e1888423d5f739a1" target="_top" xlink:title="A function that preprocess the good suffix thable.">
<polygon fill="white" stroke="#666666" points="491.38,-160.88 383.88,-160.88 383.88,-130.38 491.38,-130.38 491.38,-160.88"/>
<text text-anchor="start" x="391.88" y="-147.38" font-family="Helvetica,sans-Serif" font-size="10.00">strings::boyer_moore</text>
<text text-anchor="middle" x="437.62" y="-136.12" font-family="Helvetica,sans-Serif" font-size="10.00">::init_good_suffix</text>
</a>
</g>
</g>
<!-- Node4&#45;&gt;Node8 -->
<g id="edge7_Node000004_Node000008" class="edge">
<title>Node4&#45;&gt;Node8</title>
<g id="a_edge7_Node000004_Node000008"><a xlink:title=" ">
<path fill="none" stroke="#63b8ff" d="M343.99,-144.35C353.12,-144.48 362.71,-144.61 372.11,-144.74"/>
<polygon fill="#63b8ff" stroke="#63b8ff" points="371.87,-148.24 381.92,-144.87 371.97,-141.24 371.87,-148.24"/>
</a>
</g>
</g>
<!-- Node6 -->
<g id="Node000006" class="node">
<title>Node6</title>
<g id="a_Node000006"><a target="_blank" xlink:href="http://en.cppreference.com/w/cpp/string/basic_string/size.html#" xlink:title=" ">
<polygon fill="white" stroke="#666666" points="624.75,-155.25 533,-155.25 533,-136 624.75,-136 624.75,-155.25"/>
<text text-anchor="middle" x="578.88" y="-141.75" font-family="Helvetica,sans-Serif" font-size="10.00">std::string::length</text>
</a>
</g>
</g>
<!-- Node5&#45;&gt;Node6 -->
<g id="edge5_Node000005_Node000006" class="edge">
<title>Node5&#45;&gt;Node6</title>
<g id="a_edge5_Node000005_Node000006"><a xlink:title=" ">
<path fill="none" stroke="#63b8ff" d="M483.07,-178.99C500.83,-172.74 521.11,-165.6 538.35,-159.53"/>
<polygon fill="#63b8ff" stroke="#63b8ff" points="539.48,-162.85 547.75,-156.22 537.16,-156.24 539.48,-162.85"/>
</a>
</g>
</g>
<!-- Node7 -->
<g id="Node000007" class="node">
<title>Node7</title>
<g id="a_Node000007"><a target="_blank" xlink:href="http://en.cppreference.com/w/cpp/container/vector/resize.html#" xlink:title=" ">
<polygon fill="white" stroke="#666666" points="626.25,-198.25 531.5,-198.25 531.5,-179 626.25,-179 626.25,-198.25"/>
<text text-anchor="middle" x="578.88" y="-184.75" font-family="Helvetica,sans-Serif" font-size="10.00">std::vector::resize</text>
</a>
</g>
</g>
<!-- Node5&#45;&gt;Node7 -->
<g id="edge6_Node000005_Node000007" class="edge">
<title>Node5&#45;&gt;Node7</title>
<g id="a_edge6_Node000005_Node000007"><a xlink:title=" ">
<path fill="none" stroke="#63b8ff" d="M491.67,-192.34C500.96,-191.94 510.66,-191.52 520.07,-191.12"/>
<polygon fill="#63b8ff" stroke="#63b8ff" points="520,-194.62 529.84,-190.69 519.7,-187.63 520,-194.62"/>
</a>
</g>
</g>
<!-- Node8&#45;&gt;Node6 -->
<g id="edge8_Node000008_Node000006" class="edge">
<title>Node8&#45;&gt;Node6</title>
<g id="a_edge8_Node000008_Node000006"><a xlink:title=" ">
<path fill="none" stroke="#63b8ff" d="M491.67,-139.05C501.39,-138.84 511.57,-138.82 521.39,-138.98"/>
<polygon fill="#63b8ff" stroke="#63b8ff" points="521.1,-142.48 531.19,-139.22 521.28,-135.48 521.1,-142.48"/>
</a>
</g>
</g>
<!-- Node8&#45;&gt;Node6 -->
<g id="edge10_Node000008_Node000006" class="edge">
<title>Node8&#45;&gt;Node6</title>
<g id="a_edge10_Node000008_Node000006"><a xlink:title=" ">
<path fill="none" stroke="#63b8ff" d="M491.67,-152.2C501.39,-152.41 511.57,-152.43 521.39,-152.27"/>
<polygon fill="#63b8ff" stroke="#63b8ff" points="521.28,-155.77 531.19,-152.03 521.1,-148.77 521.28,-155.77"/>
</a>
</g>
</g>
<!-- Node8&#45;&gt;Node7 -->
<g id="edge9_Node000008_Node000007" class="edge">
<title>Node8&#45;&gt;Node7</title>
<g id="a_edge9_Node000008_Node000007"><a xlink:title=" ">
<path fill="none" stroke="#63b8ff" d="M489.29,-161.27C504.16,-165.86 520.29,-170.84 534.65,-175.28"/>
<polygon fill="#63b8ff" stroke="#63b8ff" points="533.2,-178.49 543.79,-178.1 535.27,-171.81 533.2,-178.49"/>
</a>
</g>
</g>
<!-- Node10&#45;&gt;Node6 -->
<g id="edge13_Node000010_Node000006" class="edge">
<title>Node10&#45;&gt;Node6</title>
<g id="a_edge13_Node000010_Node000006"><a xlink:title=" ">
<path fill="none" stroke="#63b8ff" d="M343.91,-91.36C385.42,-94.21 444.5,-101.77 495.5,-112.62 516.33,-117.06 539.6,-124.03 556.07,-130.89"/>
<polygon fill="#63b8ff" stroke="#63b8ff" points="554.36,-133.95 564.91,-134.95 557.28,-127.59 554.36,-133.95"/>
</a>
</g>
</g>
<!-- Node10&#45;&gt;Node6 -->
<g id="edge16_Node000010_Node000006" class="edge">
<title>Node10&#45;&gt;Node6</title>
<g id="a_edge16_Node000010_Node000006"><a xlink:title=" ">
<path fill="none" stroke="#63b8ff" d="M343.91,-106.05C385.42,-112.21 444.5,-119.77 495.5,-130.62 504.1,-132.46 513.12,-134.72 521.91,-137.01"/>
<polygon fill="#63b8ff" stroke="#63b8ff" points="520.84,-140.35 531.4,-139.51 522.62,-133.58 520.84,-140.35"/>
</a>
</g>
</g>
<!-- Node11 -->
<g id="Node000011" class="node">
<title>Node11</title>
<g id="a_Node000011"><a target="_blank" xlink:href="http://en.cppreference.com/w/cpp/algorithm/max.html#" xlink:title=" ">
<polygon fill="white" stroke="#666666" points="464.75,-56.25 410.5,-56.25 410.5,-37 464.75,-37 464.75,-56.25"/>
<text text-anchor="middle" x="437.62" y="-42.75" font-family="Helvetica,sans-Serif" font-size="10.00">std::max</text>
</a>
</g>
</g>
<!-- Node10&#45;&gt;Node11 -->
<g id="edge14_Node000010_Node000011" class="edge">
<title>Node10&#45;&gt;Node11</title>
<g id="a_edge14_Node000010_Node000011"><a xlink:title=" ">
<path fill="none" stroke="#63b8ff" d="M339.49,-77.97C359.09,-71.65 381.34,-64.47 399.6,-58.58"/>
<polygon fill="#63b8ff" stroke="#63b8ff" points="400.51,-61.96 408.95,-55.56 398.36,-55.3 400.51,-61.96"/>
</a>
</g>
</g>
<!-- Node12 -->
<g id="Node000012" class="node">
<title>Node12</title>
<g id="a_Node000012"><a target="_blank" xlink:href="http://en.cppreference.com/w/cpp/container/vector/push_back.html#" xlink:title=" ">
<polygon fill="white" stroke="#666666" points="495.5,-19.25 379.75,-19.25 379.75,0 495.5,0 495.5,-19.25"/>
<text text-anchor="middle" x="437.62" y="-5.75" font-family="Helvetica,sans-Serif" font-size="10.00">std::vector::push_back</text>
</a>
</g>
</g>
<!-- Node10&#45;&gt;Node12 -->
<g id="edge15_Node000010_Node000012" class="edge">
<title>Node10&#45;&gt;Node12</title>
<g id="a_edge15_Node000010_Node000012"><a xlink:title=" ">
<path fill="none" stroke="#63b8ff" d="M308.19,-78.09C325.27,-63.35 352.74,-41.45 379.75,-27.62 382.42,-26.26 385.22,-24.97 388.08,-23.76"/>
<polygon fill="#63b8ff" stroke="#63b8ff" points="389.1,-27.11 397.18,-20.26 386.59,-20.58 389.1,-27.11"/>
</a>
</g>
</g>
<!-- Node14&#45;&gt;Node4 -->
<g id="edge19_Node000014_Node000004" class="edge">
<title>Node14&#45;&gt;Node4</title>
<g id="a_edge19_Node000014_Node000004"><a xlink:title=" ">
<path fill="none" stroke="#63b8ff" d="M199.34,-145.97C206.93,-145.78 215.64,-145.55 224.6,-145.31"/>
<polygon fill="#63b8ff" stroke="#63b8ff" points="224.58,-148.81 234.48,-145.05 224.4,-141.82 224.58,-148.81"/>
</a>
</g>
</g>
<!-- Node14&#45;&gt;Node9 -->
<g id="edge20_Node000014_Node000009" class="edge">
<title>Node14&#45;&gt;Node9</title>
<g id="a_edge20_Node000014_Node000009"><a xlink:title=" ">
<path fill="none" stroke="#63b8ff" d="M190.21,-156.71C193.64,-159.15 197.16,-161.86 200.25,-164.62 218.32,-180.8 216.78,-191.17 236.25,-205.62 237.41,-206.49 238.6,-207.32 239.83,-208.14"/>
<polygon fill="#63b8ff" stroke="#63b8ff" points="237.94,-211.09 248.32,-213.21 241.53,-205.08 237.94,-211.09"/>
</a>
</g>
</g>
<!-- Node14&#45;&gt;Node10 -->
<g id="edge21_Node000014_Node000010" class="edge">
<title>Node14&#45;&gt;Node10</title>
<g id="a_edge21_Node000014_Node000010"><a xlink:title=" ">
<path fill="none" stroke="#63b8ff" d="M196.31,-136.53C210.06,-130.16 228.32,-121.71 244.99,-114"/>
<polygon fill="#63b8ff" stroke="#63b8ff" points="246.13,-117.32 253.74,-109.95 243.19,-110.97 246.13,-117.32"/>
</a>
</g>
</g>
<!-- Node14&#45;&gt;Node13 -->
<g id="edge22_Node000014_Node000013" class="edge">
<title>Node14&#45;&gt;Node13</title>
<g id="a_edge22_Node000014_Node000013"><a xlink:title=" ">
<path fill="none" stroke="#63b8ff" d="M199.34,-155.3C214.02,-160.43 232.93,-167.04 249.6,-172.86"/>
<polygon fill="#63b8ff" stroke="#63b8ff" points="248.14,-176.06 258.73,-176.05 250.45,-169.45 248.14,-176.06"/>
</a>
</g>
</g>
</g>
</svg>

<g id="navigator" transform="translate(0 0)" fill="#404254">
  <rect fill="#f2f5e9" fill-opacity="0.5" stroke="#606060" stroke-width=".5" x="0" y="0" width="60" height="60"/>
  <use id="zoomplus" xlink:href="#zoomPlus" x="17" y="9" onmousedown="handleZoom(evt,'in')"/>
  <use id="zoomminus" xlink:href="#zoomMin" x="42" y="9" onmousedown="handleZoom(evt,'out')"/>
  <use id="reset" xlink:href="#resetDef" x="30" y="36" onmousedown="handleReset()"/>
   <use id="arrowup" xlink:href="#arrowUp" x="0" y="0" onmousedown="handlePan(0,-1)"/>
  <use id="arrowright" xlink:href="#arrowRight" x="0" y="0" onmousedown="handlePan(1,0)"/>
  <use id="arrowdown" xlink:href="#arrowDown" x="0" y="0" onmousedown="handlePan(0,1)"/>
  <use id="arrowleft" xlink:href="#arrowLeft" x="0" y="0" onmousedown="handlePan(-1,0)"/>
</g>
<svg viewBox="0 0 15 15" width="100%" height="30px" preserveAspectRatio="xMaxYMin meet">
 <g id="arrow_out" transform="scale(0.3 0.3)">
  <a xlink:href="boyer__moore_8cpp_ae66f6b31b5ad750f1fe042a706a4e3d4_cgraph_org.svg" target="_base">
   <rect id="button" ry="5" rx="5" y="6" x="6" height="38" width="38"
        fill="#f2f5e9" fill-opacity="0.5" stroke="#606060" stroke-width="1.0"/>
   <path id="arrow"
     d="M 11.500037,31.436501 C 11.940474,20.09759 22.043105,11.32322 32.158766,21.979434 L 37.068811,17.246167 C 37.068811,17.246167 37.088388,32 37.088388,32 L 22.160133,31.978069 C 22.160133,31.978069 26.997745,27.140456 26.997745,27.140456 C 18.528582,18.264221 13.291696,25.230495 11.500037,31.436501 z"
     style="fill:#404040;"/>
  </a>
 </g>
</svg>

<style type='text/css'>
<![CDATA[
[data-mouse-over-selected='false'] { opacity: 0.7; }
[data-mouse-over-selected='true']  { opacity: 1.0; }
]]>
</style>
<script type="application/ecmascript"><![CDATA[
document.addEventListener('DOMContentLoaded', (event) => {
  highlightEdges();
  highlightAdjacentNodes();
});
]]></script>
</svg>
