<?xml version="1.0" encoding="UTF-8" standalone="no"?>
<!DOCTYPE svg PUBLIC "-//W3C//DTD SVG 1.1//EN"
 "http://www.w3.org/Graphics/SVG/1.1/DTD/svg11.dtd">
<!-- Generated by graphviz version 8.0.5 (20230430.1635)
 -->
<!-- Title: ciphers/a1z26_cipher.cpp Pages: 1 -->
<svg width="506pt" height="83pt"
 viewBox="0.00 0.00 506.38 82.50" xmlns="http://www.w3.org/2000/svg" xmlns:xlink="http://www.w3.org/1999/xlink">
<g id="graph0" class="graph" transform="scale(1 1) rotate(0) translate(4 78.5)">
<title>ciphers/a1z26_cipher.cpp</title>
<!-- Node1 -->
<g id="node1" class="node">
<title>Node1</title>
<g id="a_node1"><a xlink:title="Implementation of the A1Z26 cipher">
<polygon fill="#999999" stroke="#666666" points="324,-74.5 197.75,-74.5 197.75,-55.25 324,-55.25 324,-74.5"/>
<text text-anchor="middle" x="260.88" y="-61" font-family="Helvetica,sans-Serif" font-size="10.00">ciphers/a1z26_cipher.cpp</text>
</a>
</g>
</g>
<!-- Node2 -->
<g id="node2" class="node">
<title>Node2</title>
<g id="a_node2"><a xlink:title=" ">
<polygon fill="#e0e0e0" stroke="#999999" points="55.75,-19.25 0,-19.25 0,0 55.75,0 55.75,-19.25"/>
<text text-anchor="middle" x="27.88" y="-5.75" font-family="Helvetica,sans-Serif" font-size="10.00">algorithm</text>
</a>
</g>
</g>
<!-- Node1&#45;&gt;Node2 -->
<g id="edge1" class="edge">
<title>Node1&#45;&gt;Node2</title>
<path fill="none" stroke="#63b8ff" d="M220.7,-54.79C183.31,-46.32 125.76,-33.25 66.79,-19.68"/>
<polygon fill="#63b8ff" stroke="#63b8ff" points="67.68,-16.07 57.15,-17.23 66.11,-22.89 67.68,-16.07"/>
</g>
<!-- Node3 -->
<g id="node3" class="node">
<title>Node3</title>
<g id="a_node3"><a xlink:title=" ">
<polygon fill="#e0e0e0" stroke="#999999" points="122,-19.25 73.75,-19.25 73.75,0 122,0 122,-19.25"/>
<text text-anchor="middle" x="97.88" y="-5.75" font-family="Helvetica,sans-Serif" font-size="10.00">cassert</text>
</a>
</g>
</g>
<!-- Node1&#45;&gt;Node3 -->
<g id="edge2" class="edge">
<title>Node1&#45;&gt;Node3</title>
<path fill="none" stroke="#63b8ff" d="M233.22,-54.84C205.56,-45.8 162.91,-31.87 132.89,-22.06"/>
<polygon fill="#63b8ff" stroke="#63b8ff" points="134.05,-18.43 123.46,-18.66 131.88,-25.09 134.05,-18.43"/>
</g>
<!-- Node4 -->
<g id="node4" class="node">
<title>Node4</title>
<g id="a_node4"><a xlink:title=" ">
<polygon fill="#e0e0e0" stroke="#999999" points="185.5,-19.25 140.25,-19.25 140.25,0 185.5,0 185.5,-19.25"/>
<text text-anchor="middle" x="162.88" y="-5.75" font-family="Helvetica,sans-Serif" font-size="10.00">cstdint</text>
</a>
</g>
</g>
<!-- Node1&#45;&gt;Node4 -->
<g id="edge3" class="edge">
<title>Node1&#45;&gt;Node4</title>
<path fill="none" stroke="#63b8ff" d="M244.25,-54.84C229.19,-46.66 206.73,-34.46 189.22,-24.94"/>
<polygon fill="#63b8ff" stroke="#63b8ff" points="191.04,-21.4 180.58,-19.7 187.7,-27.55 191.04,-21.4"/>
</g>
<!-- Node5 -->
<g id="node5" class="node">
<title>Node5</title>
<g id="a_node5"><a xlink:title=" ">
<polygon fill="#e0e0e0" stroke="#999999" points="256.62,-19.25 203.12,-19.25 203.12,0 256.62,0 256.62,-19.25"/>
<text text-anchor="middle" x="229.88" y="-5.75" font-family="Helvetica,sans-Serif" font-size="10.00">iostream</text>
</a>
</g>
</g>
<!-- Node1&#45;&gt;Node5 -->
<g id="edge4" class="edge">
<title>Node1&#45;&gt;Node5</title>
<path fill="none" stroke="#63b8ff" d="M255.76,-55.08C251.65,-48.03 245.75,-37.9 240.62,-29.08"/>
<polygon fill="#63b8ff" stroke="#63b8ff" points="243.16,-27.49 235.11,-20.61 237.11,-31.01 243.16,-27.49"/>
</g>
<!-- Node6 -->
<g id="node6" class="node">
<title>Node6</title>
<g id="a_node6"><a xlink:title=" ">
<polygon fill="#e0e0e0" stroke="#999999" points="309.25,-19.25 274.5,-19.25 274.5,0 309.25,0 309.25,-19.25"/>
<text text-anchor="middle" x="291.88" y="-5.75" font-family="Helvetica,sans-Serif" font-size="10.00">map</text>
</a>
</g>
</g>
<!-- Node1&#45;&gt;Node6 -->
<g id="edge5" class="edge">
<title>Node1&#45;&gt;Node6</title>
<path fill="none" stroke="#63b8ff" d="M265.99,-55.08C270.1,-48.03 276,-37.9 281.13,-29.08"/>
<polygon fill="#63b8ff" stroke="#63b8ff" points="284.64,-31.01 286.64,-20.61 278.59,-27.49 284.64,-31.01"/>
</g>
<!-- Node7 -->
<g id="node7" class="node">
<title>Node7</title>
<g id="a_node7"><a xlink:title=" ">
<polygon fill="#e0e0e0" stroke="#999999" points="378.5,-19.25 327.25,-19.25 327.25,0 378.5,0 378.5,-19.25"/>
<text text-anchor="middle" x="352.88" y="-5.75" font-family="Helvetica,sans-Serif" font-size="10.00">sstream</text>
</a>
</g>
</g>
<!-- Node1&#45;&gt;Node7 -->
<g id="edge6" class="edge">
<title>Node1&#45;&gt;Node7</title>
<path fill="none" stroke="#63b8ff" d="M276.48,-54.84C290.49,-46.73 311.31,-34.68 327.68,-25.21"/>
<polygon fill="#63b8ff" stroke="#63b8ff" points="329.29,-27.74 336.19,-19.7 325.78,-21.68 329.29,-27.74"/>
</g>
<!-- Node8 -->
<g id="node8" class="node">
<title>Node8</title>
<g id="a_node8"><a xlink:title=" ">
<polygon fill="#e0e0e0" stroke="#999999" points="436.88,-19.25 396.88,-19.25 396.88,0 436.88,0 436.88,-19.25"/>
<text text-anchor="middle" x="416.88" y="-5.75" font-family="Helvetica,sans-Serif" font-size="10.00">string</text>
</a>
</g>
</g>
<!-- Node1&#45;&gt;Node8 -->
<g id="edge7" class="edge">
<title>Node1&#45;&gt;Node8</title>
<path fill="none" stroke="#63b8ff" d="M287.34,-54.84C314.78,-45.48 357.62,-30.85 386.45,-21.01"/>
<polygon fill="#63b8ff" stroke="#63b8ff" points="387.41,-24.04 395.75,-17.5 385.15,-17.41 387.41,-24.04"/>
</g>
<!-- Node9 -->
<g id="node9" class="node">
<title>Node9</title>
<g id="a_node9"><a xlink:title=" ">
<polygon fill="#e0e0e0" stroke="#999999" points="498.38,-19.25 455.38,-19.25 455.38,0 498.38,0 498.38,-19.25"/>
<text text-anchor="middle" x="476.88" y="-5.75" font-family="Helvetica,sans-Serif" font-size="10.00">vector</text>
</a>
</g>
</g>
<!-- Node1&#45;&gt;Node9 -->
<g id="edge8" class="edge">
<title>Node1&#45;&gt;Node9</title>
<path fill="none" stroke="#63b8ff" d="M300.31,-54.78C335.63,-46.54 389.1,-33.84 444.52,-19.53"/>
<polygon fill="#63b8ff" stroke="#63b8ff" points="445.08,-22.74 453.88,-16.84 443.33,-15.97 445.08,-22.74"/>
</g>
</g>
</svg>
