<?xml version="1.0" encoding="UTF-8" standalone="no"?>
<!DOCTYPE svg PUBLIC "-//W3C//DTD SVG 1.1//EN"
 "http://www.w3.org/Graphics/SVG/1.1/DTD/svg11.dtd">
<!-- Generated by graphviz version 8.0.2 (20230410.1723)
 -->
<!-- Title: ciphers/a1z26_cipher.cpp Pages: 1 -->
<svg width="514pt" height="82pt"
 viewBox="0.00 0.00 514.00 82.00" xmlns="http://www.w3.org/2000/svg" xmlns:xlink="http://www.w3.org/1999/xlink">
<g id="graph0" class="graph" transform="scale(1 1) rotate(0) translate(4 78)">
<title>ciphers/a1z26_cipher.cpp</title>
<!-- Node1 -->
<g id="node1" class="node">
<title>Node1</title>
<g id="a_node1"><a xlink:title="Implementation of the A1Z26 cipher">
<polygon fill="#999999" stroke="#666666" points="327.5,-74 200.5,-74 200.5,-55 327.5,-55 327.5,-74"/>
<text text-anchor="middle" x="264" y="-62" font-family="Helvetica,sans-Serif" font-size="10.00">ciphers/a1z26_cipher.cpp</text>
</a>
</g>
</g>
<!-- Node2 -->
<g id="node2" class="node">
<title>Node2</title>
<g id="a_node2"><a xlink:title=" ">
<polygon fill="#e0e0e0" stroke="#999999" points="56,-19 0,-19 0,0 56,0 56,-19"/>
<text text-anchor="middle" x="28" y="-7" font-family="Helvetica,sans-Serif" font-size="10.00">algorithm</text>
</a>
</g>
</g>
<!-- Node1&#45;&gt;Node2 -->
<g id="edge1" class="edge">
<title>Node1&#45;&gt;Node2</title>
<path fill="none" stroke="#63b8ff" d="M223.58,-54.53C185.57,-46.08 126.77,-32.98 66.71,-19.38"/>
<polygon fill="#63b8ff" stroke="#63b8ff" points="67.8,-15.81 57.28,-17.01 66.26,-22.64 67.8,-15.81"/>
</g>
<!-- Node3 -->
<g id="node3" class="node">
<title>Node3</title>
<g id="a_node3"><a xlink:title=" ">
<polygon fill="#e0e0e0" stroke="#999999" points="123.5,-19 74.5,-19 74.5,0 123.5,0 123.5,-19"/>
<text text-anchor="middle" x="99" y="-7" font-family="Helvetica,sans-Serif" font-size="10.00">cassert</text>
</a>
</g>
</g>
<!-- Node1&#45;&gt;Node3 -->
<g id="edge2" class="edge">
<title>Node1&#45;&gt;Node3</title>
<path fill="none" stroke="#63b8ff" d="M236.01,-54.51C207.88,-45.47 164.45,-31.52 134.05,-21.76"/>
<polygon fill="#63b8ff" stroke="#63b8ff" points="135.47,-18.22 124.88,-18.49 133.33,-24.88 135.47,-18.22"/>
</g>
<!-- Node4 -->
<g id="node4" class="node">
<title>Node4</title>
<g id="a_node4"><a xlink:title=" ">
<polygon fill="#e0e0e0" stroke="#999999" points="188,-19 142,-19 142,0 188,0 188,-19"/>
<text text-anchor="middle" x="165" y="-7" font-family="Helvetica,sans-Serif" font-size="10.00">cstdint</text>
</a>
</g>
</g>
<!-- Node1&#45;&gt;Node4 -->
<g id="edge3" class="edge">
<title>Node1&#45;&gt;Node4</title>
<path fill="none" stroke="#63b8ff" d="M247.21,-54.51C231.75,-46.24 208.6,-33.84 190.8,-24.31"/>
<polygon fill="#63b8ff" stroke="#63b8ff" points="193.01,-20.99 182.55,-19.36 189.71,-27.16 193.01,-20.99"/>
</g>
<!-- Node5 -->
<g id="node5" class="node">
<title>Node5</title>
<g id="a_node5"><a xlink:title=" ">
<polygon fill="#e0e0e0" stroke="#999999" points="260,-19 206,-19 206,0 260,0 260,-19"/>
<text text-anchor="middle" x="233" y="-7" font-family="Helvetica,sans-Serif" font-size="10.00">iostream</text>
</a>
</g>
</g>
<!-- Node1&#45;&gt;Node5 -->
<g id="edge4" class="edge">
<title>Node1&#45;&gt;Node5</title>
<path fill="none" stroke="#63b8ff" d="M258.88,-54.75C254.78,-47.73 248.88,-37.64 243.75,-28.87"/>
<polygon fill="#63b8ff" stroke="#63b8ff" points="246.3,-27.31 238.23,-20.44 240.26,-30.84 246.3,-27.31"/>
</g>
<!-- Node6 -->
<g id="node6" class="node">
<title>Node6</title>
<g id="a_node6"><a xlink:title=" ">
<polygon fill="#e0e0e0" stroke="#999999" points="313.5,-19 278.5,-19 278.5,0 313.5,0 313.5,-19"/>
<text text-anchor="middle" x="296" y="-7" font-family="Helvetica,sans-Serif" font-size="10.00">map</text>
</a>
</g>
</g>
<!-- Node1&#45;&gt;Node6 -->
<g id="edge5" class="edge">
<title>Node1&#45;&gt;Node6</title>
<path fill="none" stroke="#63b8ff" d="M269.28,-54.75C273.57,-47.66 279.74,-37.42 285.08,-28.59"/>
<polygon fill="#63b8ff" stroke="#63b8ff" points="288.43,-30.81 290.6,-20.44 282.44,-27.19 288.43,-30.81"/>
</g>
<!-- Node7 -->
<g id="node7" class="node">
<title>Node7</title>
<g id="a_node7"><a xlink:title=" ">
<polygon fill="#e0e0e0" stroke="#999999" points="384,-19 332,-19 332,0 384,0 384,-19"/>
<text text-anchor="middle" x="358" y="-7" font-family="Helvetica,sans-Serif" font-size="10.00">sstream</text>
</a>
</g>
</g>
<!-- Node1&#45;&gt;Node7 -->
<g id="edge6" class="edge">
<title>Node1&#45;&gt;Node7</title>
<path fill="none" stroke="#63b8ff" d="M279.95,-54.51C294.48,-46.31 316.19,-34.07 333.03,-24.58"/>
<polygon fill="#63b8ff" stroke="#63b8ff" points="334.3,-27.32 341.29,-19.36 330.86,-21.22 334.3,-27.32"/>
</g>
<!-- Node8 -->
<g id="node8" class="node">
<title>Node8</title>
<g id="a_node8"><a xlink:title=" ">
<polygon fill="#e0e0e0" stroke="#999999" points="443.5,-19 402.5,-19 402.5,0 443.5,0 443.5,-19"/>
<text text-anchor="middle" x="423" y="-7" font-family="Helvetica,sans-Serif" font-size="10.00">string</text>
</a>
</g>
</g>
<!-- Node1&#45;&gt;Node8 -->
<g id="edge7" class="edge">
<title>Node1&#45;&gt;Node8</title>
<path fill="none" stroke="#63b8ff" d="M290.97,-54.51C318.91,-45.2 362.5,-30.67 391.88,-20.87"/>
<polygon fill="#63b8ff" stroke="#63b8ff" points="392.62,-23.98 401,-17.5 390.41,-17.34 392.62,-23.98"/>
</g>
<!-- Node9 -->
<g id="node9" class="node">
<title>Node9</title>
<g id="a_node9"><a xlink:title=" ">
<polygon fill="#e0e0e0" stroke="#999999" points="506,-19 462,-19 462,0 506,0 506,-19"/>
<text text-anchor="middle" x="484" y="-7" font-family="Helvetica,sans-Serif" font-size="10.00">vector</text>
</a>
</g>
</g>
<!-- Node1&#45;&gt;Node9 -->
<g id="edge8" class="edge">
<title>Node1&#45;&gt;Node9</title>
<path fill="none" stroke="#63b8ff" d="M303.92,-54.54C340,-46.35 394.82,-33.66 451.14,-19.41"/>
<polygon fill="#63b8ff" stroke="#63b8ff" points="451.85,-22.58 460.67,-16.73 450.12,-15.8 451.85,-22.58"/>
</g>
</g>
</svg>
