<?xml version="1.0" encoding="UTF-8" standalone="no"?>
<!DOCTYPE svg PUBLIC "-//W3C//DTD SVG 1.1//EN"
 "http://www.w3.org/Graphics/SVG/1.1/DTD/svg11.dtd">
<!-- Generated by graphviz version 9.0.0 (20230911.1827)
 -->
<!-- Title: math::ncr_modulo_p::NCRModuloP::ncr Pages: 1 -->
<svg width="538pt" height="57pt"
 viewBox="0.00 0.00 537.75 56.50" xmlns="http://www.w3.org/2000/svg" xmlns:xlink="http://www.w3.org/1999/xlink">
<g id="graph0" class="graph" transform="scale(1 1) rotate(0) translate(4 52.5)">
<title>math::ncr_modulo_p::NCRModuloP::ncr</title>
<!-- Node1 -->
<g id="Node000001" class="node">
<title>Node1</title>
<g id="a_Node000001"><a xlink:title=" ">
<polygon fill="#999999" stroke="#666666" points="104.5,-30.5 0,-30.5 0,0 104.5,0 104.5,-30.5"/>
<text text-anchor="start" x="8" y="-17" font-family="Helvetica,sans-Serif" font-size="10.00">math::ncr_modulo_p</text>
<text text-anchor="middle" x="52.25" y="-5.75" font-family="Helvetica,sans-Serif" font-size="10.00">::NCRModuloP::ncr</text>
</a>
</g>
</g>
<!-- Node2 -->
<g id="Node000002" class="node">
<title>Node2</title>
<g id="a_Node000002"><a xlink:href="../../d6/dc1/classmath_1_1ncr__modulo__p_1_1_n_c_r_modulo_p.html#a0431ec5c876e1154d8e1e5f89e1ab34a" target="_top" xlink:title=" ">
<polygon fill="white" stroke="#666666" points="280.25,-30.5 140.5,-30.5 140.5,0 280.25,0 280.25,-30.5"/>
<text text-anchor="start" x="148.5" y="-17" font-family="Helvetica,sans-Serif" font-size="10.00">math::ncr_modulo_p</text>
<text text-anchor="middle" x="210.38" y="-5.75" font-family="Helvetica,sans-Serif" font-size="10.00">::NCRModuloP::modInverse</text>
</a>
</g>
</g>
<!-- Node1&#45;&gt;Node2 -->
<g id="edge1_Node000001_Node000002" class="edge">
<title>Node1&#45;&gt;Node2</title>
<g id="a_edge1_Node000001_Node000002"><a xlink:title=" ">
<path fill="none" stroke="#63b8ff" d="M104.8,-15.25C112.47,-15.25 120.52,-15.25 128.62,-15.25"/>
<polygon fill="#63b8ff" stroke="#63b8ff" points="128.53,-18.75 138.53,-15.25 128.53,-11.75 128.53,-18.75"/>
</a>
</g>
</g>
<!-- Node3 -->
<g id="Node000003" class="node">
<title>Node3</title>
<g id="a_Node000003"><a xlink:href="../../d6/dc1/classmath_1_1ncr__modulo__p_1_1_n_c_r_modulo_p.html#afde201f4687740454302c444f507a926" target="_top" xlink:title=" ">
<polygon fill="white" stroke="#666666" points="462,-30.5 316.25,-30.5 316.25,0 462,0 462,-30.5"/>
<text text-anchor="start" x="324.25" y="-17" font-family="Helvetica,sans-Serif" font-size="10.00">math::ncr_modulo_p</text>
<text text-anchor="middle" x="389.12" y="-5.75" font-family="Helvetica,sans-Serif" font-size="10.00">::NCRModuloP::gcdExtended</text>
</a>
</g>
</g>
<!-- Node2&#45;&gt;Node3 -->
<g id="edge2_Node000002_Node000003" class="edge">
<title>Node2&#45;&gt;Node3</title>
<g id="a_edge2_Node000002_Node000003"><a xlink:title=" ">
<path fill="none" stroke="#63b8ff" d="M280.72,-15.25C288.46,-15.25 296.39,-15.25 304.28,-15.25"/>
<polygon fill="#63b8ff" stroke="#63b8ff" points="304.26,-18.75 314.26,-15.25 304.26,-11.75 304.26,-18.75"/>
</a>
</g>
</g>
<!-- Node3&#45;&gt;Node3 -->
<g id="edge4_Node000003_Node000003" class="edge">
<title>Node3&#45;&gt;Node3</title>
<g id="a_edge4_Node000003_Node000003"><a xlink:title=" ">
<path fill="none" stroke="#63b8ff" d="M367.02,-30.99C362.51,-40.06 369.88,-48.5 389.12,-48.5 399.65,-48.5 406.63,-45.97 410.05,-42.2"/>
<polygon fill="#63b8ff" stroke="#63b8ff" points="413.5,-42.8 411.07,-32.49 406.54,-42.07 413.5,-42.8"/>
</a>
</g>
</g>
<!-- Node4 -->
<g id="Node000004" class="node">
<title>Node4</title>
<g id="a_Node000004"><a xlink:href="../../d4/da0/gcd__iterative__euclidean_8cpp.html#ae48807fa2b7000afae599e67f327545e" target="_top" xlink:title=" ">
<polygon fill="white" stroke="#666666" points="529.75,-24.88 498,-24.88 498,-5.63 529.75,-5.63 529.75,-24.88"/>
<text text-anchor="middle" x="513.88" y="-11.38" font-family="Helvetica,sans-Serif" font-size="10.00">gcd</text>
</a>
</g>
</g>
<!-- Node3&#45;&gt;Node4 -->
<g id="edge3_Node000003_Node000004" class="edge">
<title>Node3&#45;&gt;Node4</title>
<g id="a_edge3_Node000003_Node000004"><a xlink:title=" ">
<path fill="none" stroke="#63b8ff" d="M462.24,-15.25C470.69,-15.25 478.87,-15.25 486.09,-15.25"/>
<polygon fill="#63b8ff" stroke="#63b8ff" points="486.06,-18.75 496.06,-15.25 486.06,-11.75 486.06,-18.75"/>
</a>
</g>
</g>
</g>
</svg>
