<?xml version="1.0" encoding="UTF-8" standalone="no"?>
<!DOCTYPE svg PUBLIC "-//W3C//DTD SVG 1.1//EN"
 "http://www.w3.org/Graphics/SVG/1.1/DTD/svg11.dtd">
<!-- Generated by graphviz version 2.49.3 (20211023.0002)
 -->
<!-- Title: graph::explore Pages: 1 -->
<svg width="204pt" height="46pt"
 viewBox="0.00 0.00 204.00 46.00" xmlns="http://www.w3.org/2000/svg" xmlns:xlink="http://www.w3.org/1999/xlink">
<g id="graph0" class="graph" transform="scale(1 1) rotate(0) translate(4 42)">
<title>graph::explore</title>
<polygon fill="white" stroke="transparent" points="-4,4 -4,-42 200,-42 200,4 -4,4"/>
<!-- Node1 -->
<g id="node1" class="node">
<title>Node1</title>
<g id="a_node1"><a xlink:title="Explores the given vertex, exploring a vertex means traversing over all the vertices which are connec...">
<polygon fill="#bfbfbf" stroke="black" points="0,-0.5 0,-19.5 80,-19.5 80,-0.5 0,-0.5"/>
<text text-anchor="middle" x="40" y="-7.5" font-family="Helvetica,sans-Serif" font-size="10.00">graph::explore</text>
</a>
</g>
</g>
<!-- Node2 -->
<g id="node2" class="node">
<title>Node2</title>
<g id="a_node2"><a xlink:href="../../df/dce/namespacegraph.html#a3ae80bc4c6a79d041b4f3a6589eb7fb8" target="_top" xlink:title="Utility function for depth first seach algorithm this function explores the vertex which is passed in...">
<polygon fill="white" stroke="black" points="116,-0.5 116,-19.5 196,-19.5 196,-0.5 116,-0.5"/>
<text text-anchor="middle" x="156" y="-7.5" font-family="Helvetica,sans-Serif" font-size="10.00">graph::explore</text>
</a>
</g>
</g>
<!-- Node1&#45;&gt;Node2 -->
<g id="edge1" class="edge">
<title>Node1&#45;&gt;Node2</title>
<path fill="none" stroke="midnightblue" d="M80.23,-10C88.38,-10 97.07,-10 105.54,-10"/>
<polygon fill="midnightblue" stroke="midnightblue" points="105.7,-13.5 115.7,-10 105.7,-6.5 105.7,-13.5"/>
</g>
<!-- Node2&#45;&gt;Node2 -->
<g id="edge2" class="edge">
<title>Node2&#45;&gt;Node2</title>
<path fill="none" stroke="midnightblue" d="M138.12,-19.76C129.42,-28.57 135.38,-38 156,-38 168.89,-38 176.05,-34.31 177.48,-29.4"/>
<polygon fill="midnightblue" stroke="midnightblue" points="180.66,-27.9 173.88,-19.76 174.1,-30.35 180.66,-27.9"/>
</g>
</g>
</svg>
