<?xml version="1.0" encoding="UTF-8" standalone="no"?>
<!DOCTYPE svg PUBLIC "-//W3C//DTD SVG 1.1//EN"
 "http://www.w3.org/Graphics/SVG/1.1/DTD/svg11.dtd">
<!-- Generated by graphviz version 7.1.0 (20230121.1956)
 -->
<!-- Title: graph::explore Pages: 1 -->
<svg width="200pt" height="45pt"
 viewBox="0.00 0.00 200.00 45.00" xmlns="http://www.w3.org/2000/svg" xmlns:xlink="http://www.w3.org/1999/xlink">
<g id="graph0" class="graph" transform="scale(1 1) rotate(0) translate(4 41)">
<title>graph::explore</title>
<!-- Node1 -->
<g id="node1" class="node">
<title>Node1</title>
<g id="a_node1"><a xlink:title="Explores the given vertex, exploring a vertex means traversing over all the vertices which are connec...">
<polygon fill="#999999" stroke="#666666" points="78,-19 0,-19 0,0 78,0 78,-19"/>
<text text-anchor="middle" x="39" y="-7" font-family="Helvetica,sans-Serif" font-size="10.00">graph::explore</text>
</a>
</g>
</g>
<!-- Node2 -->
<g id="node2" class="node">
<title>Node2</title>
<g id="a_node2"><a xlink:href="../../df/dce/namespacegraph.html#a3ae80bc4c6a79d041b4f3a6589eb7fb8" target="_top" xlink:title="Utility function for depth first seach algorithm this function explores the vertex which is passed in...">
<polygon fill="white" stroke="#666666" points="192,-19 114,-19 114,0 192,0 192,-19"/>
<text text-anchor="middle" x="153" y="-7" font-family="Helvetica,sans-Serif" font-size="10.00">graph::explore</text>
</a>
</g>
</g>
<!-- Node1&#45;&gt;Node2 -->
<g id="edge1" class="edge">
<title>Node1&#45;&gt;Node2</title>
<path fill="none" stroke="#63b8ff" d="M78.23,-9.5C85.98,-9.5 94.24,-9.5 102.33,-9.5"/>
<polygon fill="#63b8ff" stroke="#63b8ff" points="102.05,-13 112.05,-9.5 102.05,-6 102.05,-13"/>
</g>
<!-- Node2&#45;&gt;Node2 -->
<g id="edge2" class="edge">
<title>Node2&#45;&gt;Node2</title>
<path fill="none" stroke="#63b8ff" d="M135.15,-19.37C127.01,-27.94 132.96,-37 153,-37 163.96,-37 170.7,-34.29 173.23,-30.43"/>
<polygon fill="#63b8ff" stroke="#63b8ff" points="176.7,-29.88 171.17,-20.85 169.85,-31.36 176.7,-29.88"/>
</g>
</g>
</svg>
