<?xml version="1.0" encoding="UTF-8" standalone="no"?>
<!DOCTYPE svg PUBLIC "-//W3C//DTD SVG 1.1//EN"
 "http://www.w3.org/Graphics/SVG/1.1/DTD/svg11.dtd">
<!-- Generated by graphviz version 7.0.0 (20221023.0053)
 -->
<!-- Title: graph::TravellingSalesmanProblem Pages: 1 -->
<svg width="292pt" height="138pt"
 viewBox="0.00 0.00 292.00 138.00" xmlns="http://www.w3.org/2000/svg" xmlns:xlink="http://www.w3.org/1999/xlink">
<g id="graph0" class="graph" transform="scale(1 1) rotate(0) translate(4 134)">
<title>graph::TravellingSalesmanProblem</title>
<!-- Node1 -->
<g id="node1" class="node">
<title>Node1</title>
<g id="a_node1"><a xlink:title="Function calculates the minimum path distance that will cover all the cities starting from the source...">
<polygon fill="#999999" stroke="#666666" points="132,-79.5 0,-79.5 0,-49.5 132,-49.5 132,-79.5"/>
<text text-anchor="start" x="8" y="-67.5" font-family="Helvetica,sans-Serif" font-size="10.00">graph::TravellingSalesman</text>
<text text-anchor="middle" x="66" y="-56.5" font-family="Helvetica,sans-Serif" font-size="10.00">Problem</text>
</a>
</g>
</g>
<!-- Node2 -->
<g id="node2" class="node">
<title>Node2</title>
<g id="a_node2"><a target="_blank" xlink:href="http://en.cppreference.com/w/cpp/container/vector/begin.html#" xlink:title=" ">
<polygon fill="white" stroke="#666666" points="272,-130 180,-130 180,-111 272,-111 272,-130"/>
<text text-anchor="middle" x="226" y="-118" font-family="Helvetica,sans-Serif" font-size="10.00">std::vector::begin</text>
</a>
</g>
</g>
<!-- Node1&#45;&gt;Node2 -->
<g id="edge1" class="edge">
<title>Node1&#45;&gt;Node2</title>
<path fill="none" stroke="#63b8ff" d="M106.64,-79.98C125.19,-87.08 147.64,-95.46 168,-102.5 172.41,-104.03 177.04,-105.57 181.66,-107.08"/>
<polygon fill="#63b8ff" stroke="#63b8ff" points="180.31,-110.33 190.91,-110.06 182.46,-103.66 180.31,-110.33"/>
</g>
<!-- Node3 -->
<g id="node3" class="node">
<title>Node3</title>
<g id="a_node3"><a target="_blank" xlink:href="http://en.cppreference.com/w/cpp/container/vector/end.html#" xlink:title=" ">
<polygon fill="white" stroke="#666666" points="268.5,-93 183.5,-93 183.5,-74 268.5,-74 268.5,-93"/>
<text text-anchor="middle" x="226" y="-81" font-family="Helvetica,sans-Serif" font-size="10.00">std::vector::end</text>
</a>
</g>
</g>
<!-- Node1&#45;&gt;Node3 -->
<g id="edge2" class="edge">
<title>Node1&#45;&gt;Node3</title>
<path fill="none" stroke="#63b8ff" d="M132.18,-72.34C145.32,-73.92 159,-75.56 171.68,-77.09"/>
<polygon fill="#63b8ff" stroke="#63b8ff" points="171.16,-80.55 181.5,-78.27 171.99,-73.6 171.16,-80.55"/>
</g>
<!-- Node4 -->
<g id="node4" class="node">
<title>Node4</title>
<g id="a_node4"><a target="_blank" xlink:href="http://en.cppreference.com/w/cpp/algorithm/min.html#" xlink:title=" ">
<polygon fill="white" stroke="#666666" points="252,-56 200,-56 200,-37 252,-37 252,-56"/>
<text text-anchor="middle" x="226" y="-44" font-family="Helvetica,sans-Serif" font-size="10.00">std::min</text>
</a>
</g>
</g>
<!-- Node1&#45;&gt;Node4 -->
<g id="edge3" class="edge">
<title>Node1&#45;&gt;Node4</title>
<path fill="none" stroke="#63b8ff" d="M132.18,-57.07C151.52,-54.87 172,-52.54 188.78,-50.63"/>
<polygon fill="#63b8ff" stroke="#63b8ff" points="188.71,-54.16 198.25,-49.55 187.92,-47.2 188.71,-54.16"/>
</g>
<!-- Node5 -->
<g id="node5" class="node">
<title>Node5</title>
<g id="a_node5"><a target="_blank" xlink:href="http://en.cppreference.com/w/cpp/container/vector/push_back.html#" xlink:title=" ">
<polygon fill="white" stroke="#666666" points="284,-19 168,-19 168,0 284,0 284,-19"/>
<text text-anchor="middle" x="226" y="-7" font-family="Helvetica,sans-Serif" font-size="10.00">std::vector::push_back</text>
</a>
</g>
</g>
<!-- Node1&#45;&gt;Node5 -->
<g id="edge4" class="edge">
<title>Node1&#45;&gt;Node5</title>
<path fill="none" stroke="#63b8ff" d="M109.69,-49.06C127.66,-42.62 148.82,-35.11 168,-28.5 173.15,-26.72 178.58,-24.88 183.95,-23.07"/>
<polygon fill="#63b8ff" stroke="#63b8ff" points="184.98,-26.42 193.35,-19.92 182.76,-19.78 184.98,-26.42"/>
</g>
</g>
</svg>
