<?xml version="1.0" encoding="UTF-8" standalone="no"?>
<!DOCTYPE svg PUBLIC "-//W3C//DTD SVG 1.1//EN"
 "http://www.w3.org/Graphics/SVG/1.1/DTD/svg11.dtd">
<!-- Generated by graphviz version 8.0.5 (20230430.1635)
 -->
<!-- Title: math/sum_of_digits.cpp Pages: 1 -->
<svg width="130pt" height="83pt"
 viewBox="0.00 0.00 129.88 82.50" xmlns="http://www.w3.org/2000/svg" xmlns:xlink="http://www.w3.org/1999/xlink">
<g id="graph0" class="graph" transform="scale(1 1) rotate(0) translate(4 78.5)">
<title>math/sum_of_digits.cpp</title>
<!-- Node1 -->
<g id="node1" class="node">
<title>Node1</title>
<g id="a_node1"><a xlink:title="A C++ Program to find the Sum of Digits of input integer.">
<polygon fill="#999999" stroke="#666666" points="120.25,-74.5 0,-74.5 0,-55.25 120.25,-55.25 120.25,-74.5"/>
<text text-anchor="middle" x="60.12" y="-61" font-family="Helvetica,sans-Serif" font-size="10.00">math/sum_of_digits.cpp</text>
</a>
</g>
</g>
<!-- Node2 -->
<g id="node2" class="node">
<title>Node2</title>
<g id="a_node2"><a xlink:title=" ">
<polygon fill="#e0e0e0" stroke="#999999" points="50.25,-19.25 2,-19.25 2,0 50.25,0 50.25,-19.25"/>
<text text-anchor="middle" x="26.12" y="-5.75" font-family="Helvetica,sans-Serif" font-size="10.00">cassert</text>
</a>
</g>
</g>
<!-- Node1&#45;&gt;Node2 -->
<g id="edge1" class="edge">
<title>Node1&#45;&gt;Node2</title>
<path fill="none" stroke="#63b8ff" d="M54.51,-55.08C49.96,-47.96 43.4,-37.68 37.73,-28.8"/>
<polygon fill="#63b8ff" stroke="#63b8ff" points="40.19,-27.15 31.86,-20.61 34.29,-30.92 40.19,-27.15"/>
</g>
<!-- Node3 -->
<g id="node3" class="node">
<title>Node3</title>
<g id="a_node3"><a xlink:title=" ">
<polygon fill="#e0e0e0" stroke="#999999" points="121.88,-19.25 68.38,-19.25 68.38,0 121.88,0 121.88,-19.25"/>
<text text-anchor="middle" x="95.12" y="-5.75" font-family="Helvetica,sans-Serif" font-size="10.00">iostream</text>
</a>
</g>
</g>
<!-- Node1&#45;&gt;Node3 -->
<g id="edge2" class="edge">
<title>Node1&#45;&gt;Node3</title>
<path fill="none" stroke="#63b8ff" d="M65.9,-55.08C70.59,-47.96 77.34,-37.68 83.18,-28.8"/>
<polygon fill="#63b8ff" stroke="#63b8ff" points="86.65,-30.89 89.22,-20.61 80.8,-27.04 86.65,-30.89"/>
</g>
</g>
</svg>
