<?xml version="1.0" encoding="UTF-8" standalone="no"?>
<!DOCTYPE svg PUBLIC "-//W3C//DTD SVG 1.1//EN"
 "http://www.w3.org/Graphics/SVG/1.1/DTD/svg11.dtd">
<!-- Generated by graphviz version 8.0.5 (20230430.1635)
 -->
<!-- Title: test Pages: 1 -->
<svg width="354pt" height="69pt"
 viewBox="0.00 0.00 353.75 68.88" xmlns="http://www.w3.org/2000/svg" xmlns:xlink="http://www.w3.org/1999/xlink">
<g id="graph0" class="graph" transform="scale(1 1) rotate(0) translate(4 64.88)">
<title>test</title>
<!-- Node1 -->
<g id="node1" class="node">
<title>Node1</title>
<g id="a_node1"><a xlink:title="Self&#45;test implementations.">
<polygon fill="#999999" stroke="#666666" points="32.5,-37.25 0,-37.25 0,-18 32.5,-18 32.5,-37.25"/>
<text text-anchor="middle" x="16.25" y="-23.75" font-family="Helvetica,sans-Serif" font-size="10.00">test</text>
</a>
</g>
</g>
<!-- Node2 -->
<g id="node2" class="node">
<title>Node2</title>
<g id="a_node2"><a xlink:href="../../d1/de0/namespacenumerical__methods.html#aee56dc85997b8cd42bad71a5d6bd2d93" target="_top" xlink:title="InverseFastFourierTransform is a recursive function which returns list of complex numbers.">
<polygon fill="white" stroke="#666666" points="210.5,-42.88 68.5,-42.88 68.5,-12.37 210.5,-12.37 210.5,-42.88"/>
<text text-anchor="start" x="76.5" y="-29.38" font-family="Helvetica,sans-Serif" font-size="10.00">numerical_methods::</text>
<text text-anchor="middle" x="139.5" y="-18.12" font-family="Helvetica,sans-Serif" font-size="10.00">InverseFastFourierTransform</text>
</a>
</g>
</g>
<!-- Node1&#45;&gt;Node2 -->
<g id="edge1" class="edge">
<title>Node1&#45;&gt;Node2</title>
<path fill="none" stroke="#63b8ff" d="M32.61,-27.62C39.41,-27.62 47.99,-27.62 57.3,-27.62"/>
<polygon fill="#63b8ff" stroke="#63b8ff" points="57.06,-31.13 67.06,-27.62 57.06,-24.13 57.06,-31.13"/>
</g>
<!-- Node2&#45;&gt;Node2 -->
<g id="edge3" class="edge">
<title>Node2&#45;&gt;Node2</title>
<path fill="none" stroke="#63b8ff" d="M117.66,-43.36C113.2,-52.43 120.48,-60.88 139.5,-60.88 150.2,-60.88 157.18,-58.2 160.45,-54.25"/>
<polygon fill="#63b8ff" stroke="#63b8ff" points="164.01,-54.61 161.34,-44.36 157.04,-54.04 164.01,-54.61"/>
</g>
<!-- Node3 -->
<g id="node3" class="node">
<title>Node3</title>
<g id="a_node3"><a target="_blank" xlink:href="http://en.cppreference.com/w/cpp/numeric/complex/imag.html#" xlink:title=" ">
<polygon fill="white" stroke="#666666" points="345.75,-56.25 246.5,-56.25 246.5,-37 345.75,-37 345.75,-56.25"/>
<text text-anchor="middle" x="296.12" y="-42.75" font-family="Helvetica,sans-Serif" font-size="10.00">std::complex::imag</text>
</a>
</g>
</g>
<!-- Node2&#45;&gt;Node3 -->
<g id="edge2" class="edge">
<title>Node2&#45;&gt;Node3</title>
<path fill="none" stroke="#63b8ff" d="M210.57,-36.24C218.81,-37.25 227.17,-38.27 235.25,-39.27"/>
<polygon fill="#63b8ff" stroke="#63b8ff" points="234.72,-42.85 245.07,-40.6 235.57,-35.9 234.72,-42.85"/>
</g>
<!-- Node4 -->
<g id="node4" class="node">
<title>Node4</title>
<g id="a_node4"><a target="_blank" xlink:href="http://en.cppreference.com/w/cpp/numeric/complex/real.html#" xlink:title=" ">
<polygon fill="white" stroke="#666666" points="343.12,-19.25 249.12,-19.25 249.12,0 343.12,0 343.12,-19.25"/>
<text text-anchor="middle" x="296.12" y="-5.75" font-family="Helvetica,sans-Serif" font-size="10.00">std::complex::real</text>
</a>
</g>
</g>
<!-- Node2&#45;&gt;Node4 -->
<g id="edge4" class="edge">
<title>Node2&#45;&gt;Node4</title>
<path fill="none" stroke="#63b8ff" d="M210.57,-19.47C219.78,-18.4 229.12,-17.31 238.07,-16.27"/>
<polygon fill="#63b8ff" stroke="#63b8ff" points="238.23,-19.66 247.76,-15.02 237.42,-12.7 238.23,-19.66"/>
</g>
</g>
</svg>
