<?xml version="1.0" encoding="UTF-8" standalone="no"?>
<!DOCTYPE svg PUBLIC "-//W3C//DTD SVG 1.1//EN"
 "http://www.w3.org/Graphics/SVG/1.1/DTD/svg11.dtd">
<!-- Generated by graphviz version 9.0.0 (20230911.1827)
 -->
<!-- Title: add Pages: 1 -->
<svg width="168pt" height="64pt"
 viewBox="0.00 0.00 168.25 64.25" xmlns="http://www.w3.org/2000/svg" xmlns:xlink="http://www.w3.org/1999/xlink">
<g id="graph0" class="graph" transform="scale(1 1) rotate(0) translate(4 60.25)">
<title>add</title>
<!-- Node1 -->
<g id="Node000001" class="node">
<title>Node1</title>
<g id="a_Node000001"><a xlink:title=" ">
<polygon fill="#999999" stroke="#666666" points="31.75,-37.25 0,-37.25 0,-18 31.75,-18 31.75,-37.25"/>
<text text-anchor="middle" x="15.88" y="-23.75" font-family="Helvetica,sans-Serif" font-size="10.00">add</text>
</a>
</g>
</g>
<!-- Node2 -->
<g id="Node000002" class="node">
<title>Node2</title>
<g id="a_Node000002"><a target="_blank" xlink:href="http://en.cppreference.com/w/cpp/string/basic_string/size.html#" xlink:title=" ">
<polygon fill="white" stroke="#666666" points="159.88,-56.25 68.12,-56.25 68.12,-37 159.88,-37 159.88,-56.25"/>
<text text-anchor="middle" x="114" y="-42.75" font-family="Helvetica,sans-Serif" font-size="10.00">std::string::length</text>
</a>
</g>
</g>
<!-- Node1&#45;&gt;Node2 -->
<g id="edge1_Node000001_Node000002" class="edge">
<title>Node1&#45;&gt;Node2</title>
<g id="a_edge1_Node000001_Node000002"><a xlink:title=" ">
<path fill="none" stroke="#63b8ff" d="M31.89,-30.59C38.8,-31.96 47.47,-33.67 56.56,-35.47"/>
<polygon fill="#63b8ff" stroke="#63b8ff" points="55.78,-38.88 66.27,-37.39 57.14,-32.02 55.78,-38.88"/>
</a>
</g>
</g>
<!-- Node3 -->
<g id="Node000003" class="node">
<title>Node3</title>
<g id="a_Node000003"><a target="_blank" xlink:href="http://en.cppreference.com/w/cpp/string/basic_string/substr.html#" xlink:title=" ">
<polygon fill="white" stroke="#666666" points="160.25,-19.25 67.75,-19.25 67.75,0 160.25,0 160.25,-19.25"/>
<text text-anchor="middle" x="114" y="-5.75" font-family="Helvetica,sans-Serif" font-size="10.00">std::string::substr</text>
</a>
</g>
</g>
<!-- Node1&#45;&gt;Node3 -->
<g id="edge2_Node000001_Node000003" class="edge">
<title>Node1&#45;&gt;Node3</title>
<g id="a_edge2_Node000001_Node000003"><a xlink:title=" ">
<path fill="none" stroke="#63b8ff" d="M31.89,-24.81C38.73,-23.53 47.29,-21.93 56.26,-20.25"/>
<polygon fill="#63b8ff" stroke="#63b8ff" points="56.66,-23.74 65.84,-18.46 55.37,-16.86 56.66,-23.74"/>
</a>
</g>
</g>
</g>
</svg>
