<?xml version="1.0" encoding="UTF-8" standalone="no"?>
<!DOCTYPE svg PUBLIC "-//W3C//DTD SVG 1.1//EN"
 "http://www.w3.org/Graphics/SVG/1.1/DTD/svg11.dtd">
<!-- Generated by graphviz version 7.1.0 (20230121.1956)
 -->
<!-- Title: others/vector_important_functions.cpp Pages: 1 -->
<svg width="268pt" height="93pt"
 viewBox="0.00 0.00 268.00 93.00" xmlns="http://www.w3.org/2000/svg" xmlns:xlink="http://www.w3.org/1999/xlink">
<g id="graph0" class="graph" transform="scale(1 1) rotate(0) translate(4 89)">
<title>others/vector_important_functions.cpp</title>
<!-- Node1 -->
<g id="node1" class="node">
<title>Node1</title>
<g id="a_node1"><a xlink:title="A C++ program to demonstrate working of std::sort(), std::reverse()">
<polygon fill="#999999" stroke="#666666" points="195.5,-85 76.5,-85 76.5,-55 195.5,-55 195.5,-85"/>
<text text-anchor="start" x="84.5" y="-73" font-family="Helvetica,sans-Serif" font-size="10.00">others/vector_important</text>
<text text-anchor="middle" x="136" y="-62" font-family="Helvetica,sans-Serif" font-size="10.00">_functions.cpp</text>
</a>
</g>
</g>
<!-- Node2 -->
<g id="node2" class="node">
<title>Node2</title>
<g id="a_node2"><a xlink:title=" ">
<polygon fill="#e0e0e0" stroke="#999999" points="56,-19 0,-19 0,0 56,0 56,-19"/>
<text text-anchor="middle" x="28" y="-7" font-family="Helvetica,sans-Serif" font-size="10.00">algorithm</text>
</a>
</g>
</g>
<!-- Node1&#45;&gt;Node2 -->
<g id="edge1" class="edge">
<title>Node1&#45;&gt;Node2</title>
<path fill="none" stroke="#63b8ff" d="M109.3,-54.54C92.44,-45.4 70.76,-33.66 54.02,-24.6"/>
<polygon fill="#63b8ff" stroke="#63b8ff" points="56.12,-21.75 45.66,-20.07 52.79,-27.91 56.12,-21.75"/>
</g>
<!-- Node3 -->
<g id="node3" class="node">
<title>Node3</title>
<g id="a_node3"><a xlink:title=" ">
<polygon fill="#e0e0e0" stroke="#999999" points="128,-19 74,-19 74,0 128,0 128,-19"/>
<text text-anchor="middle" x="101" y="-7" font-family="Helvetica,sans-Serif" font-size="10.00">iostream</text>
</a>
</g>
</g>
<!-- Node1&#45;&gt;Node3 -->
<g id="edge2" class="edge">
<title>Node1&#45;&gt;Node3</title>
<path fill="none" stroke="#63b8ff" d="M127.35,-54.54C122.73,-46.82 117,-37.24 112.06,-28.99"/>
<polygon fill="#63b8ff" stroke="#63b8ff" points="115.11,-27.26 106.97,-20.47 109.1,-30.85 115.11,-27.26"/>
</g>
<!-- Node4 -->
<g id="node4" class="node">
<title>Node4</title>
<g id="a_node4"><a xlink:title=" ">
<polygon fill="#e0e0e0" stroke="#999999" points="197.5,-19 146.5,-19 146.5,0 197.5,0 197.5,-19"/>
<text text-anchor="middle" x="172" y="-7" font-family="Helvetica,sans-Serif" font-size="10.00">numeric</text>
</a>
</g>
</g>
<!-- Node1&#45;&gt;Node4 -->
<g id="edge3" class="edge">
<title>Node1&#45;&gt;Node4</title>
<path fill="none" stroke="#63b8ff" d="M144.9,-54.54C149.7,-46.74 155.68,-37.03 160.79,-28.71"/>
<polygon fill="#63b8ff" stroke="#63b8ff" points="163.61,-30.82 165.87,-20.46 157.65,-27.15 163.61,-30.82"/>
</g>
<!-- Node5 -->
<g id="node5" class="node">
<title>Node5</title>
<g id="a_node5"><a xlink:title=" ">
<polygon fill="#e0e0e0" stroke="#999999" points="260,-19 216,-19 216,0 260,0 260,-19"/>
<text text-anchor="middle" x="238" y="-7" font-family="Helvetica,sans-Serif" font-size="10.00">vector</text>
</a>
</g>
</g>
<!-- Node1&#45;&gt;Node5 -->
<g id="edge4" class="edge">
<title>Node1&#45;&gt;Node5</title>
<path fill="none" stroke="#63b8ff" d="M161.21,-54.54C176.99,-45.49 197.23,-33.88 212.97,-24.85"/>
<polygon fill="#63b8ff" stroke="#63b8ff" points="214.33,-28.11 221.26,-20.1 210.85,-22.04 214.33,-28.11"/>
</g>
</g>
</svg>
