<?xml version="1.0" encoding="UTF-8" standalone="no"?>
<!DOCTYPE svg PUBLIC "-//W3C//DTD SVG 1.1//EN"
 "http://www.w3.org/Graphics/SVG/1.1/DTD/svg11.dtd">
<!-- Generated by graphviz version 2.40.1 (20161225.0304)
 -->
<!-- Title: others/vector_important_functions.cpp Pages: 1 -->
<svg width="268pt" height="95pt"
 viewBox="0.00 0.00 268.00 95.00" xmlns="http://www.w3.org/2000/svg" xmlns:xlink="http://www.w3.org/1999/xlink">
<g id="graph0" class="graph" transform="scale(1 1) rotate(0) translate(4 91)">
<title>others/vector_important_functions.cpp</title>
<polygon fill="#ffffff" stroke="transparent" points="-4,4 -4,-91 264,-91 264,4 -4,4"/>
<!-- Node0 -->
<g id="node1" class="node">
<title>Node0</title>
<polygon fill="#bfbfbf" stroke="#000000" points="76.5,-56.5 76.5,-86.5 195.5,-86.5 195.5,-56.5 76.5,-56.5"/>
<text text-anchor="start" x="84.5" y="-74.5" font-family="Helvetica,sans-Serif" font-size="10.00" fill="#000000">others/vector_important</text>
<text text-anchor="middle" x="136" y="-63.5" font-family="Helvetica,sans-Serif" font-size="10.00" fill="#000000">_functions.cpp</text>
</g>
<!-- Node1 -->
<g id="node2" class="node">
<title>Node1</title>
<polygon fill="#ffffff" stroke="#bfbfbf" points="0,-.5 0,-19.5 56,-19.5 56,-.5 0,-.5"/>
<text text-anchor="middle" x="28" y="-7.5" font-family="Helvetica,sans-Serif" font-size="10.00" fill="#000000">algorithm</text>
</g>
<!-- Node0&#45;&gt;Node1 -->
<g id="edge1" class="edge">
<title>Node0&#45;&gt;Node1</title>
<path fill="none" stroke="#191970" d="M109.5802,-56.4554C92.5086,-46.734 70.4098,-34.15 53.5191,-24.5317"/>
<polygon fill="#191970" stroke="#191970" points="55.158,-21.4373 44.7362,-19.5303 51.6941,-27.5202 55.158,-21.4373"/>
</g>
<!-- Node2 -->
<g id="node3" class="node">
<title>Node2</title>
<polygon fill="#ffffff" stroke="#bfbfbf" points="74,-.5 74,-19.5 128,-19.5 128,-.5 74,-.5"/>
<text text-anchor="middle" x="101" y="-7.5" font-family="Helvetica,sans-Serif" font-size="10.00" fill="#000000">iostream</text>
</g>
<!-- Node0&#45;&gt;Node2 -->
<g id="edge2" class="edge">
<title>Node0&#45;&gt;Node2</title>
<path fill="none" stroke="#191970" d="M127.3483,-56.2977C122.5912,-47.9388 116.6502,-37.4997 111.6143,-28.6509"/>
<polygon fill="#191970" stroke="#191970" points="114.5921,-26.8069 106.6039,-19.8469 108.5083,-30.2692 114.5921,-26.8069"/>
</g>
<!-- Node3 -->
<g id="node4" class="node">
<title>Node3</title>
<polygon fill="#ffffff" stroke="#bfbfbf" points="146.5,-.5 146.5,-19.5 197.5,-19.5 197.5,-.5 146.5,-.5"/>
<text text-anchor="middle" x="172" y="-7.5" font-family="Helvetica,sans-Serif" font-size="10.00" fill="#000000">numeric</text>
</g>
<!-- Node0&#45;&gt;Node3 -->
<g id="edge3" class="edge">
<title>Node0&#45;&gt;Node3</title>
<path fill="none" stroke="#191970" d="M144.8989,-56.2977C149.7919,-47.9388 155.9026,-37.4997 161.0824,-28.6509"/>
<polygon fill="#191970" stroke="#191970" points="164.2047,-30.2452 166.2359,-19.8469 158.1635,-26.7089 164.2047,-30.2452"/>
</g>
<!-- Node4 -->
<g id="node5" class="node">
<title>Node4</title>
<polygon fill="#ffffff" stroke="#bfbfbf" points="216,-.5 216,-19.5 260,-19.5 260,-.5 216,-.5"/>
<text text-anchor="middle" x="238" y="-7.5" font-family="Helvetica,sans-Serif" font-size="10.00" fill="#000000">vector</text>
</g>
<!-- Node0&#45;&gt;Node4 -->
<g id="edge4" class="edge">
<title>Node0&#45;&gt;Node4</title>
<path fill="none" stroke="#191970" d="M160.952,-56.4554C176.9259,-46.8241 197.5602,-34.3828 213.4543,-24.7996"/>
<polygon fill="#191970" stroke="#191970" points="215.437,-27.6912 222.1936,-19.5303 211.8226,-21.6965 215.437,-27.6912"/>
</g>
</g>
</svg>
