<?xml version="1.0" encoding="UTF-8" standalone="no"?>
<!DOCTYPE svg PUBLIC "-//W3C//DTD SVG 1.1//EN"
 "http://www.w3.org/Graphics/SVG/1.1/DTD/svg11.dtd">
<!-- Generated by graphviz version 6.0.1 (20220911.1526)
 -->
<!-- Title: main Pages: 1 -->
<svg width="167pt" height="101pt"
 viewBox="0.00 0.00 167.00 101.00" xmlns="http://www.w3.org/2000/svg" xmlns:xlink="http://www.w3.org/1999/xlink">
<g id="graph0" class="graph" transform="scale(1 1) rotate(0) translate(4 97)">
<title>main</title>
<!-- Node1 -->
<g id="node1" class="node">
<title>Node1</title>
<g id="a_node1"><a xlink:title=" ">
<polygon fill="#999999" stroke="#666666" points="38,-56 0,-56 0,-37 38,-37 38,-56"/>
<text text-anchor="middle" x="19" y="-44" font-family="Helvetica,sans-Serif" font-size="10.00">main</text>
</a>
</g>
</g>
<!-- Node2 -->
<g id="node2" class="node">
<title>Node2</title>
<g id="a_node2"><a xlink:href="../../d5/d67/bayes__theorem_8cpp.html#a655bfe51252468d232dc639a340656ba" target="_top" xlink:title=" ">
<polygon fill="white" stroke="#666666" points="159,-93 74,-93 74,-74 159,-74 159,-93"/>
<text text-anchor="middle" x="116.5" y="-81" font-family="Helvetica,sans-Serif" font-size="10.00">bayes_AgivenB</text>
</a>
</g>
</g>
<!-- Node1&#45;&gt;Node2 -->
<g id="edge1" class="edge">
<title>Node1&#45;&gt;Node2</title>
<path fill="none" stroke="#63b8ff" d="M38.41,-53.63C50.48,-58.31 66.63,-64.57 81.03,-70.14"/>
<polygon fill="#63b8ff" stroke="#63b8ff" points="80.05,-73.52 90.64,-73.87 82.58,-66.99 80.05,-73.52"/>
</g>
<!-- Node3 -->
<g id="node3" class="node">
<title>Node3</title>
<g id="a_node3"><a xlink:href="../../d5/d67/bayes__theorem_8cpp.html#abb4f22dc05887c2259fdfc55c687598f" target="_top" xlink:title=" ">
<polygon fill="white" stroke="#666666" points="159,-56 74,-56 74,-37 159,-37 159,-56"/>
<text text-anchor="middle" x="116.5" y="-44" font-family="Helvetica,sans-Serif" font-size="10.00">bayes_BgivenA</text>
</a>
</g>
</g>
<!-- Node1&#45;&gt;Node3 -->
<g id="edge2" class="edge">
<title>Node1&#45;&gt;Node3</title>
<path fill="none" stroke="#63b8ff" d="M38.41,-46.5C45.74,-46.5 54.57,-46.5 63.59,-46.5"/>
<polygon fill="#63b8ff" stroke="#63b8ff" points="63.8,-50 73.8,-46.5 63.8,-43 63.8,-50"/>
</g>
<!-- Node4 -->
<g id="node4" class="node">
<title>Node4</title>
<g id="a_node4"><a target="_blank" xlink:href="http://en.cppreference.com/w/cpp/io/manip/endl.html#" xlink:title=" ">
<polygon fill="white" stroke="#666666" points="143.5,-19 89.5,-19 89.5,0 143.5,0 143.5,-19"/>
<text text-anchor="middle" x="116.5" y="-7" font-family="Helvetica,sans-Serif" font-size="10.00">std::endl</text>
</a>
</g>
</g>
<!-- Node1&#45;&gt;Node4 -->
<g id="edge3" class="edge">
<title>Node1&#45;&gt;Node4</title>
<path fill="none" stroke="#63b8ff" d="M38.41,-39.37C50.48,-34.69 66.63,-28.43 81.03,-22.86"/>
<polygon fill="#63b8ff" stroke="#63b8ff" points="82.58,-26.01 90.64,-19.13 80.05,-19.48 82.58,-26.01"/>
</g>
</g>
</svg>
