<?xml version="1.0" encoding="UTF-8" standalone="no"?>
<!DOCTYPE svg PUBLIC "-//W3C//DTD SVG 1.1//EN"
 "http://www.w3.org/Graphics/SVG/1.1/DTD/svg11.dtd">
<!-- Generated by graphviz version 8.0.2 (20230410.1723)
 -->
<!-- Title: main Pages: 1 -->
<svg width="347pt" height="212pt"
 viewBox="0.00 0.00 347.00 212.00" xmlns="http://www.w3.org/2000/svg" xmlns:xlink="http://www.w3.org/1999/xlink">
<g id="graph0" class="graph" transform="scale(1 1) rotate(0) translate(4 208)">
<title>main</title>
<!-- Node1 -->
<g id="node1" class="node">
<title>Node1</title>
<g id="a_node1"><a xlink:title=" ">
<polygon fill="#999999" stroke="#666666" points="38,-111 0,-111 0,-92 38,-92 38,-111"/>
<text text-anchor="middle" x="19" y="-99" font-family="Helvetica,sans-Serif" font-size="10.00">main</text>
</a>
</g>
</g>
<!-- Node2 -->
<g id="node2" class="node">
<title>Node2</title>
<g id="a_node2"><a xlink:href="../../d5/d67/complex__numbers_8cpp.html#a88ec9ad42717780d6caaff9d3d6977f9" target="_top" xlink:title=" ">
<polygon fill="white" stroke="#666666" points="112,-111 74,-111 74,-92 112,-92 112,-111"/>
<text text-anchor="middle" x="93" y="-99" font-family="Helvetica,sans-Serif" font-size="10.00">tests</text>
</a>
</g>
</g>
<!-- Node1&#45;&gt;Node2 -->
<g id="edge1" class="edge">
<title>Node1&#45;&gt;Node2</title>
<path fill="none" stroke="#63b8ff" d="M38.17,-101.5C45.62,-101.5 54.42,-101.5 62.74,-101.5"/>
<polygon fill="#63b8ff" stroke="#63b8ff" points="62.59,-105 72.59,-101.5 62.59,-98 62.59,-105"/>
</g>
<!-- Node3 -->
<g id="node3" class="node">
<title>Node3</title>
<g id="a_node3"><a target="_blank" xlink:href="http://en.cppreference.com/w/cpp/io/manip/endl.html#" xlink:title=" ">
<polygon fill="white" stroke="#666666" points="225,-204 171,-204 171,-185 225,-185 225,-204"/>
<text text-anchor="middle" x="198" y="-192" font-family="Helvetica,sans-Serif" font-size="10.00">std::endl</text>
</a>
</g>
</g>
<!-- Node2&#45;&gt;Node3 -->
<g id="edge2" class="edge">
<title>Node2&#45;&gt;Node3</title>
<path fill="none" stroke="#63b8ff" d="M98.7,-111.46C106.69,-127.38 124.36,-158.55 148,-176.5 151.84,-179.41 156.2,-181.9 160.7,-184"/>
<polygon fill="#63b8ff" stroke="#63b8ff" points="159.03,-187.5 169.61,-188.01 161.66,-181.01 159.03,-187.5"/>
</g>
<!-- Node4 -->
<g id="node4" class="node">
<title>Node4</title>
<g id="a_node4"><a xlink:href="../../d5/d67/complex__numbers_8cpp.html#a5d4d5b8250b50703de888514c8e7a7a0" target="_top" xlink:title="Function to get random numbers to generate our complex numbers for test.">
<polygon fill="white" stroke="#666666" points="225,-167 171,-167 171,-148 225,-148 225,-167"/>
<text text-anchor="middle" x="198" y="-155" font-family="Helvetica,sans-Serif" font-size="10.00">get_rand</text>
</a>
</g>
</g>
<!-- Node2&#45;&gt;Node4 -->
<g id="edge3" class="edge">
<title>Node2&#45;&gt;Node4</title>
<path fill="none" stroke="#63b8ff" d="M105.85,-111.21C116.42,-119.53 132.57,-131.41 148,-139.5 151.97,-141.58 156.24,-143.53 160.54,-145.32"/>
<polygon fill="#63b8ff" stroke="#63b8ff" points="158.93,-148.84 169.52,-149.2 161.46,-142.31 158.93,-148.84"/>
</g>
<!-- Node6 -->
<g id="node6" class="node">
<title>Node6</title>
<g id="a_node6"><a target="_blank" xlink:href="http://en.cppreference.com/w/cpp/numeric/complex/imag.html#" xlink:title=" ">
<polygon fill="white" stroke="#666666" points="248,-130 148,-130 148,-111 248,-111 248,-130"/>
<text text-anchor="middle" x="198" y="-118" font-family="Helvetica,sans-Serif" font-size="10.00">std::complex::imag</text>
</a>
</g>
</g>
<!-- Node2&#45;&gt;Node6 -->
<g id="edge5" class="edge">
<title>Node2&#45;&gt;Node6</title>
<path fill="none" stroke="#63b8ff" d="M112.41,-104.9C119.57,-106.22 128.2,-107.81 137.18,-109.46"/>
<polygon fill="#63b8ff" stroke="#63b8ff" points="136.34,-113.05 146.8,-111.43 137.61,-106.17 136.34,-113.05"/>
</g>
<!-- Node7 -->
<g id="node7" class="node">
<title>Node7</title>
<g id="a_node7"><a target="_blank" xlink:href="http://en.cppreference.com/w/cpp/numeric/complex/real.html#" xlink:title=" ">
<polygon fill="white" stroke="#666666" points="245.5,-93 150.5,-93 150.5,-74 245.5,-74 245.5,-93"/>
<text text-anchor="middle" x="198" y="-81" font-family="Helvetica,sans-Serif" font-size="10.00">std::complex::real</text>
</a>
</g>
</g>
<!-- Node2&#45;&gt;Node7 -->
<g id="edge6" class="edge">
<title>Node2&#45;&gt;Node7</title>
<path fill="none" stroke="#63b8ff" d="M112.41,-98.28C120.15,-96.93 129.61,-95.28 139.37,-93.57"/>
<polygon fill="#63b8ff" stroke="#63b8ff" points="139.76,-96.88 149,-91.71 138.55,-89.99 139.76,-96.88"/>
</g>
<!-- Node8 -->
<g id="node8" class="node">
<title>Node8</title>
<g id="a_node8"><a target="_blank" xlink:href="http://en.cppreference.com/w/cpp/numeric/random/srand.html#" xlink:title=" ">
<polygon fill="white" stroke="#666666" points="228,-56 168,-56 168,-37 228,-37 228,-56"/>
<text text-anchor="middle" x="198" y="-44" font-family="Helvetica,sans-Serif" font-size="10.00">std::srand</text>
</a>
</g>
</g>
<!-- Node2&#45;&gt;Node8 -->
<g id="edge7" class="edge">
<title>Node2&#45;&gt;Node8</title>
<path fill="none" stroke="#63b8ff" d="M106.82,-91.79C117.46,-84.02 133.2,-73.19 148,-65.5 151.3,-63.79 154.79,-62.14 158.32,-60.58"/>
<polygon fill="#63b8ff" stroke="#63b8ff" points="159.41,-63.5 167.29,-56.42 156.72,-57.04 159.41,-63.5"/>
</g>
<!-- Node9 -->
<g id="node9" class="node">
<title>Node9</title>
<g id="a_node9"><a target="_blank" xlink:href="http://en.cppreference.com/w/cpp/chrono/c/time.html#" xlink:title=" ">
<polygon fill="white" stroke="#666666" points="225.5,-19 170.5,-19 170.5,0 225.5,0 225.5,-19"/>
<text text-anchor="middle" x="198" y="-7" font-family="Helvetica,sans-Serif" font-size="10.00">std::time</text>
</a>
</g>
</g>
<!-- Node2&#45;&gt;Node9 -->
<g id="edge8" class="edge">
<title>Node2&#45;&gt;Node9</title>
<path fill="none" stroke="#63b8ff" d="M98.94,-91.6C107.13,-76.11 124.94,-46.1 148,-28.5 151.67,-25.7 155.81,-23.26 160.08,-21.15"/>
<polygon fill="#63b8ff" stroke="#63b8ff" points="161.34,-23.99 169.14,-16.82 158.58,-17.56 161.34,-23.99"/>
</g>
<!-- Node5 -->
<g id="node5" class="node">
<title>Node5</title>
<g id="a_node5"><a target="_blank" xlink:href="http://en.cppreference.com/w/cpp/numeric/random/rand.html#" xlink:title=" ">
<polygon fill="white" stroke="#666666" points="339,-167 284,-167 284,-148 339,-148 339,-167"/>
<text text-anchor="middle" x="311.5" y="-155" font-family="Helvetica,sans-Serif" font-size="10.00">std::rand</text>
</a>
</g>
</g>
<!-- Node4&#45;&gt;Node5 -->
<g id="edge4" class="edge">
<title>Node4&#45;&gt;Node5</title>
<path fill="none" stroke="#63b8ff" d="M225.42,-157.5C239.62,-157.5 257.37,-157.5 272.98,-157.5"/>
<polygon fill="#63b8ff" stroke="#63b8ff" points="272.88,-161 282.88,-157.5 272.88,-154 272.88,-161"/>
</g>
</g>
</svg>
