<?xml version="1.0" encoding="UTF-8" standalone="no"?>
<!DOCTYPE svg PUBLIC "-//W3C//DTD SVG 1.1//EN"
 "http://www.w3.org/Graphics/SVG/1.1/DTD/svg11.dtd">
<!-- Generated by graphviz version 8.0.5 (20230430.1635)
 -->
<!-- Title: main Pages: 1 -->
<svg width="344pt" height="212pt"
 viewBox="0.00 0.00 344.25 212.25" xmlns="http://www.w3.org/2000/svg" xmlns:xlink="http://www.w3.org/1999/xlink">
<g id="graph0" class="graph" transform="scale(1 1) rotate(0) translate(4 208.25)">
<title>main</title>
<!-- Node1 -->
<g id="node1" class="node">
<title>Node1</title>
<g id="a_node1"><a xlink:title=" ">
<polygon fill="#999999" stroke="#666666" points="37,-111.25 0,-111.25 0,-92 37,-92 37,-111.25"/>
<text text-anchor="middle" x="18.5" y="-97.75" font-family="Helvetica,sans-Serif" font-size="10.00">main</text>
</a>
</g>
</g>
<!-- Node2 -->
<g id="node2" class="node">
<title>Node2</title>
<g id="a_node2"><a xlink:href="../../d5/d67/complex__numbers_8cpp.html#a88ec9ad42717780d6caaff9d3d6977f9" target="_top" xlink:title=" ">
<polygon fill="white" stroke="#666666" points="110.75,-111.25 73,-111.25 73,-92 110.75,-92 110.75,-111.25"/>
<text text-anchor="middle" x="91.88" y="-97.75" font-family="Helvetica,sans-Serif" font-size="10.00">tests</text>
</a>
</g>
</g>
<!-- Node1&#45;&gt;Node2 -->
<g id="edge1" class="edge">
<title>Node1&#45;&gt;Node2</title>
<path fill="none" stroke="#63b8ff" d="M37.14,-101.62C44.64,-101.62 53.57,-101.62 61.98,-101.62"/>
<polygon fill="#63b8ff" stroke="#63b8ff" points="61.94,-105.13 71.94,-101.62 61.94,-98.13 61.94,-105.13"/>
</g>
<!-- Node3 -->
<g id="node3" class="node">
<title>Node3</title>
<g id="a_node3"><a target="_blank" xlink:href="http://en.cppreference.com/w/cpp/io/manip/endl.html#" xlink:title=" ">
<polygon fill="white" stroke="#666666" points="223.12,-204.25 169.62,-204.25 169.62,-185 223.12,-185 223.12,-204.25"/>
<text text-anchor="middle" x="196.38" y="-190.75" font-family="Helvetica,sans-Serif" font-size="10.00">std::endl</text>
</a>
</g>
</g>
<!-- Node2&#45;&gt;Node3 -->
<g id="edge2" class="edge">
<title>Node2&#45;&gt;Node3</title>
<path fill="none" stroke="#63b8ff" d="M97.56,-111.58C105.53,-127.49 123.16,-158.65 146.75,-176.62 150.56,-179.53 154.88,-182 159.34,-184.1"/>
<polygon fill="#63b8ff" stroke="#63b8ff" points="157.6,-187.58 168.19,-188.11 160.25,-181.09 157.6,-187.58"/>
</g>
<!-- Node4 -->
<g id="node4" class="node">
<title>Node4</title>
<g id="a_node4"><a xlink:href="../../d5/d67/complex__numbers_8cpp.html#a5d4d5b8250b50703de888514c8e7a7a0" target="_top" xlink:title="Function to get random numbers to generate our complex numbers for test.">
<polygon fill="white" stroke="#666666" points="223.12,-167.25 169.62,-167.25 169.62,-148 223.12,-148 223.12,-167.25"/>
<text text-anchor="middle" x="196.38" y="-153.75" font-family="Helvetica,sans-Serif" font-size="10.00">get_rand</text>
</a>
</g>
</g>
<!-- Node2&#45;&gt;Node4 -->
<g id="edge3" class="edge">
<title>Node2&#45;&gt;Node4</title>
<path fill="none" stroke="#63b8ff" d="M105.12,-111.66C115.67,-119.96 131.56,-131.63 146.75,-139.62 150.74,-141.72 155.03,-143.69 159.34,-145.5"/>
<polygon fill="#63b8ff" stroke="#63b8ff" points="157.76,-149.02 168.35,-149.4 160.3,-142.5 157.76,-149.02"/>
</g>
<!-- Node6 -->
<g id="node6" class="node">
<title>Node6</title>
<g id="a_node6"><a target="_blank" xlink:href="http://en.cppreference.com/w/cpp/numeric/complex/imag.html#" xlink:title=" ">
<polygon fill="white" stroke="#666666" points="246,-130.25 146.75,-130.25 146.75,-111 246,-111 246,-130.25"/>
<text text-anchor="middle" x="196.38" y="-116.75" font-family="Helvetica,sans-Serif" font-size="10.00">std::complex::imag</text>
</a>
</g>
</g>
<!-- Node2&#45;&gt;Node6 -->
<g id="edge5" class="edge">
<title>Node2&#45;&gt;Node6</title>
<path fill="none" stroke="#63b8ff" d="M111.2,-105.02C118.32,-106.34 126.91,-107.93 135.84,-109.59"/>
<polygon fill="#63b8ff" stroke="#63b8ff" points="134.95,-113.17 145.42,-111.55 136.22,-106.29 134.95,-113.17"/>
</g>
<!-- Node7 -->
<g id="node7" class="node">
<title>Node7</title>
<g id="a_node7"><a target="_blank" xlink:href="http://en.cppreference.com/w/cpp/numeric/complex/real.html#" xlink:title=" ">
<polygon fill="white" stroke="#666666" points="243.38,-93.25 149.38,-93.25 149.38,-74 243.38,-74 243.38,-93.25"/>
<text text-anchor="middle" x="196.38" y="-79.75" font-family="Helvetica,sans-Serif" font-size="10.00">std::complex::real</text>
</a>
</g>
</g>
<!-- Node2&#45;&gt;Node7 -->
<g id="edge6" class="edge">
<title>Node2&#45;&gt;Node7</title>
<path fill="none" stroke="#63b8ff" d="M111.2,-98.41C118.98,-97.04 128.52,-95.37 138.34,-93.64"/>
<polygon fill="#63b8ff" stroke="#63b8ff" points="138.8,-96.94 148.04,-91.76 137.59,-90.04 138.8,-96.94"/>
</g>
<!-- Node8 -->
<g id="node8" class="node">
<title>Node8</title>
<g id="a_node8"><a target="_blank" xlink:href="http://en.cppreference.com/w/cpp/numeric/random/srand.html#" xlink:title=" ">
<polygon fill="white" stroke="#666666" points="226.12,-56.25 166.62,-56.25 166.62,-37 226.12,-37 226.12,-56.25"/>
<text text-anchor="middle" x="196.38" y="-42.75" font-family="Helvetica,sans-Serif" font-size="10.00">std::srand</text>
</a>
</g>
</g>
<!-- Node2&#45;&gt;Node8 -->
<g id="edge7" class="edge">
<title>Node2&#45;&gt;Node8</title>
<path fill="none" stroke="#63b8ff" d="M105.59,-91.55C116.16,-83.51 131.84,-72.35 146.75,-64.62 149.83,-63.03 153.08,-61.51 156.38,-60.07"/>
<polygon fill="#63b8ff" stroke="#63b8ff" points="157.37,-63.04 165.33,-56.04 154.74,-56.55 157.37,-63.04"/>
</g>
<!-- Node9 -->
<g id="node9" class="node">
<title>Node9</title>
<g id="a_node9"><a target="_blank" xlink:href="http://en.cppreference.com/w/cpp/chrono/c/time.html#" xlink:title=" ">
<polygon fill="white" stroke="#666666" points="223.5,-19.25 169.25,-19.25 169.25,0 223.5,0 223.5,-19.25"/>
<text text-anchor="middle" x="196.38" y="-5.75" font-family="Helvetica,sans-Serif" font-size="10.00">std::time</text>
</a>
</g>
</g>
<!-- Node2&#45;&gt;Node9 -->
<g id="edge8" class="edge">
<title>Node2&#45;&gt;Node9</title>
<path fill="none" stroke="#63b8ff" d="M97.73,-91.55C105.8,-75.78 123.44,-45.27 146.75,-27.62 150.42,-24.84 154.57,-22.46 158.86,-20.41"/>
<polygon fill="#63b8ff" stroke="#63b8ff" points="160.04,-23.3 167.95,-16.26 157.37,-16.83 160.04,-23.3"/>
</g>
<!-- Node5 -->
<g id="node5" class="node">
<title>Node5</title>
<g id="a_node5"><a target="_blank" xlink:href="http://en.cppreference.com/w/cpp/numeric/random/rand.html#" xlink:title=" ">
<polygon fill="white" stroke="#666666" points="336.25,-167.25 282,-167.25 282,-148 336.25,-148 336.25,-167.25"/>
<text text-anchor="middle" x="309.12" y="-153.75" font-family="Helvetica,sans-Serif" font-size="10.00">std::rand</text>
</a>
</g>
</g>
<!-- Node4&#45;&gt;Node5 -->
<g id="edge4" class="edge">
<title>Node4&#45;&gt;Node5</title>
<path fill="none" stroke="#63b8ff" d="M223.62,-157.62C237.72,-157.62 255.35,-157.62 270.85,-157.62"/>
<polygon fill="#63b8ff" stroke="#63b8ff" points="270.68,-161.13 280.68,-157.62 270.68,-154.13 270.68,-161.13"/>
</g>
</g>
</svg>
