<?xml version="1.0" encoding="UTF-8" standalone="no"?>
<!DOCTYPE svg PUBLIC "-//W3C//DTD SVG 1.1//EN"
 "http://www.w3.org/Graphics/SVG/1.1/DTD/svg11.dtd">
<!-- Generated by graphviz version 8.0.4 (20230421.1958)
 -->
<!-- Title: tests Pages: 1 -->
<svg width="271pt" height="212pt"
 viewBox="0.00 0.00 271.25 212.25" xmlns="http://www.w3.org/2000/svg" xmlns:xlink="http://www.w3.org/1999/xlink">
<g id="graph0" class="graph" transform="scale(1 1) rotate(0) translate(4 208.25)">
<title>tests</title>
<!-- Node1 -->
<g id="node1" class="node">
<title>Node1</title>
<g id="a_node1"><a xlink:title=" ">
<polygon fill="#999999" stroke="#666666" points="37.75,-111.25 0,-111.25 0,-92 37.75,-92 37.75,-111.25"/>
<text text-anchor="middle" x="18.88" y="-97.75" font-family="Helvetica,sans-Serif" font-size="10.00">tests</text>
</a>
</g>
</g>
<!-- Node2 -->
<g id="node2" class="node">
<title>Node2</title>
<g id="a_node2"><a target="_blank" xlink:href="http://en.cppreference.com/w/cpp/io/manip/endl.html#" xlink:title=" ">
<polygon fill="white" stroke="#666666" points="150.12,-204.25 96.62,-204.25 96.62,-185 150.12,-185 150.12,-204.25"/>
<text text-anchor="middle" x="123.38" y="-190.75" font-family="Helvetica,sans-Serif" font-size="10.00">std::endl</text>
</a>
</g>
</g>
<!-- Node1&#45;&gt;Node2 -->
<g id="edge1" class="edge">
<title>Node1&#45;&gt;Node2</title>
<path fill="none" stroke="#63b8ff" d="M24.56,-111.58C32.53,-127.49 50.16,-158.65 73.75,-176.62 77.56,-179.53 81.88,-182 86.34,-184.1"/>
<polygon fill="#63b8ff" stroke="#63b8ff" points="84.6,-187.58 95.19,-188.11 87.25,-181.09 84.6,-187.58"/>
</g>
<!-- Node3 -->
<g id="node3" class="node">
<title>Node3</title>
<g id="a_node3"><a xlink:href="../../d5/d67/complex__numbers_8cpp.html#a5d4d5b8250b50703de888514c8e7a7a0" target="_top" xlink:title="Function to get random numbers to generate our complex numbers for test.">
<polygon fill="white" stroke="#666666" points="150.12,-167.25 96.62,-167.25 96.62,-148 150.12,-148 150.12,-167.25"/>
<text text-anchor="middle" x="123.38" y="-153.75" font-family="Helvetica,sans-Serif" font-size="10.00">get_rand</text>
</a>
</g>
</g>
<!-- Node1&#45;&gt;Node3 -->
<g id="edge2" class="edge">
<title>Node1&#45;&gt;Node3</title>
<path fill="none" stroke="#63b8ff" d="M32.12,-111.66C42.67,-119.96 58.56,-131.63 73.75,-139.62 77.74,-141.72 82.03,-143.69 86.34,-145.5"/>
<polygon fill="#63b8ff" stroke="#63b8ff" points="84.76,-149.02 95.35,-149.4 87.3,-142.5 84.76,-149.02"/>
</g>
<!-- Node5 -->
<g id="node5" class="node">
<title>Node5</title>
<g id="a_node5"><a target="_blank" xlink:href="http://en.cppreference.com/w/cpp/numeric/complex/imag.html#" xlink:title=" ">
<polygon fill="white" stroke="#666666" points="173,-130.25 73.75,-130.25 73.75,-111 173,-111 173,-130.25"/>
<text text-anchor="middle" x="123.38" y="-116.75" font-family="Helvetica,sans-Serif" font-size="10.00">std::complex::imag</text>
</a>
</g>
</g>
<!-- Node1&#45;&gt;Node5 -->
<g id="edge4" class="edge">
<title>Node1&#45;&gt;Node5</title>
<path fill="none" stroke="#63b8ff" d="M38.2,-105.02C45.32,-106.34 53.91,-107.93 62.84,-109.59"/>
<polygon fill="#63b8ff" stroke="#63b8ff" points="61.95,-113.17 72.42,-111.55 63.22,-106.29 61.95,-113.17"/>
</g>
<!-- Node6 -->
<g id="node6" class="node">
<title>Node6</title>
<g id="a_node6"><a target="_blank" xlink:href="http://en.cppreference.com/w/cpp/numeric/complex/real.html#" xlink:title=" ">
<polygon fill="white" stroke="#666666" points="170.38,-93.25 76.38,-93.25 76.38,-74 170.38,-74 170.38,-93.25"/>
<text text-anchor="middle" x="123.38" y="-79.75" font-family="Helvetica,sans-Serif" font-size="10.00">std::complex::real</text>
</a>
</g>
</g>
<!-- Node1&#45;&gt;Node6 -->
<g id="edge5" class="edge">
<title>Node1&#45;&gt;Node6</title>
<path fill="none" stroke="#63b8ff" d="M38.2,-98.41C45.98,-97.04 55.52,-95.37 65.34,-93.64"/>
<polygon fill="#63b8ff" stroke="#63b8ff" points="65.8,-96.94 75.04,-91.76 64.59,-90.04 65.8,-96.94"/>
</g>
<!-- Node7 -->
<g id="node7" class="node">
<title>Node7</title>
<g id="a_node7"><a target="_blank" xlink:href="http://en.cppreference.com/w/cpp/numeric/random/srand.html#" xlink:title=" ">
<polygon fill="white" stroke="#666666" points="153.12,-56.25 93.62,-56.25 93.62,-37 153.12,-37 153.12,-56.25"/>
<text text-anchor="middle" x="123.38" y="-42.75" font-family="Helvetica,sans-Serif" font-size="10.00">std::srand</text>
</a>
</g>
</g>
<!-- Node1&#45;&gt;Node7 -->
<g id="edge6" class="edge">
<title>Node1&#45;&gt;Node7</title>
<path fill="none" stroke="#63b8ff" d="M32.59,-91.55C43.16,-83.51 58.84,-72.35 73.75,-64.62 76.83,-63.03 80.08,-61.51 83.38,-60.07"/>
<polygon fill="#63b8ff" stroke="#63b8ff" points="84.37,-63.04 92.33,-56.04 81.74,-56.55 84.37,-63.04"/>
</g>
<!-- Node8 -->
<g id="node8" class="node">
<title>Node8</title>
<g id="a_node8"><a target="_blank" xlink:href="http://en.cppreference.com/w/cpp/chrono/c/time.html#" xlink:title=" ">
<polygon fill="white" stroke="#666666" points="150.5,-19.25 96.25,-19.25 96.25,0 150.5,0 150.5,-19.25"/>
<text text-anchor="middle" x="123.38" y="-5.75" font-family="Helvetica,sans-Serif" font-size="10.00">std::time</text>
</a>
</g>
</g>
<!-- Node1&#45;&gt;Node8 -->
<g id="edge7" class="edge">
<title>Node1&#45;&gt;Node8</title>
<path fill="none" stroke="#63b8ff" d="M24.73,-91.55C32.8,-75.78 50.44,-45.27 73.75,-27.62 77.42,-24.84 81.57,-22.46 85.86,-20.41"/>
<polygon fill="#63b8ff" stroke="#63b8ff" points="87.04,-23.3 94.95,-16.26 84.37,-16.83 87.04,-23.3"/>
</g>
<!-- Node4 -->
<g id="node4" class="node">
<title>Node4</title>
<g id="a_node4"><a target="_blank" xlink:href="http://en.cppreference.com/w/cpp/numeric/random/rand.html#" xlink:title=" ">
<polygon fill="white" stroke="#666666" points="263.25,-167.25 209,-167.25 209,-148 263.25,-148 263.25,-167.25"/>
<text text-anchor="middle" x="236.12" y="-153.75" font-family="Helvetica,sans-Serif" font-size="10.00">std::rand</text>
</a>
</g>
</g>
<!-- Node3&#45;&gt;Node4 -->
<g id="edge3" class="edge">
<title>Node3&#45;&gt;Node4</title>
<path fill="none" stroke="#63b8ff" d="M150.62,-157.62C164.72,-157.62 182.35,-157.62 197.85,-157.62"/>
<polygon fill="#63b8ff" stroke="#63b8ff" points="197.68,-161.13 207.68,-157.62 197.68,-154.13 197.68,-161.13"/>
</g>
</g>
</svg>
