<?xml version="1.0" encoding="UTF-8" standalone="no"?>
<!DOCTYPE svg PUBLIC "-//W3C//DTD SVG 1.1//EN"
 "http://www.w3.org/Graphics/SVG/1.1/DTD/svg11.dtd">
<!-- Generated by graphviz version 2.44.1 (20200629.0846)
 -->
<!-- Title: main Pages: 1 -->
<svg width="347pt" height="294pt"
 viewBox="0.00 0.00 347.00 294.00" xmlns="http://www.w3.org/2000/svg" xmlns:xlink="http://www.w3.org/1999/xlink">
<g id="graph0" class="graph" transform="scale(1 1) rotate(0) translate(4 290)">
<title>main</title>
<polygon fill="white" stroke="transparent" points="-4,4 -4,-290 343,-290 343,4 -4,4"/>
<!-- Node1 -->
<g id="node1" class="node">
<title>Node1</title>
<g id="a_node1"><a xlink:title=" ">
<polygon fill="#bfbfbf" stroke="black" points="0,-133.5 0,-152.5 38,-152.5 38,-133.5 0,-133.5"/>
<text text-anchor="middle" x="19" y="-140.5" font-family="Helvetica,sans-Serif" font-size="10.00">main</text>
</a>
</g>
</g>
<!-- Node2 -->
<g id="node2" class="node">
<title>Node2</title>
<g id="a_node2"><a xlink:href="../../d5/d67/complex__numbers_8cpp.html#a88ec9ad42717780d6caaff9d3d6977f9" target="_top" xlink:title=" ">
<polygon fill="white" stroke="black" points="74,-133.5 74,-152.5 112,-152.5 112,-133.5 74,-133.5"/>
<text text-anchor="middle" x="93" y="-140.5" font-family="Helvetica,sans-Serif" font-size="10.00">tests</text>
</a>
</g>
</g>
<!-- Node1&#45;&gt;Node2 -->
<g id="edge1" class="edge">
<title>Node1&#45;&gt;Node2</title>
<path fill="none" stroke="midnightblue" d="M38.17,-143C45.87,-143 55.03,-143 63.58,-143"/>
<polygon fill="midnightblue" stroke="midnightblue" points="63.59,-146.5 73.59,-143 63.59,-139.5 63.59,-146.5"/>
</g>
<!-- Node3 -->
<g id="node3" class="node">
<title>Node3</title>
<g id="a_node3"><a target="_blank" xlink:href="http://en.cppreference.com/w/cpp/io/manip/endl.html#" target="_top" xlink:title=" ">
<polygon fill="white" stroke="black" points="171,-266.5 171,-285.5 225,-285.5 225,-266.5 171,-266.5"/>
<text text-anchor="middle" x="198" y="-273.5" font-family="Helvetica,sans-Serif" font-size="10.00">std::endl</text>
</a>
</g>
</g>
<!-- Node2&#45;&gt;Node3 -->
<g id="edge2" class="edge">
<title>Node2&#45;&gt;Node3</title>
<path fill="none" stroke="midnightblue" d="M96.02,-152.7C101.01,-174.37 115.93,-227.17 148,-257 151.87,-260.6 156.49,-263.54 161.33,-265.94"/>
<polygon fill="midnightblue" stroke="midnightblue" points="160.19,-269.26 170.77,-269.91 162.91,-262.8 160.19,-269.26"/>
</g>
<!-- Node4 -->
<g id="node4" class="node">
<title>Node4</title>
<g id="a_node4"><a xlink:href="../../d5/d67/complex__numbers_8cpp.html#a5d4d5b8250b50703de888514c8e7a7a0" target="_top" xlink:title="Function to get random numbers to generate our complex numbers for test.">
<polygon fill="white" stroke="black" points="171,-228.5 171,-247.5 225,-247.5 225,-228.5 171,-228.5"/>
<text text-anchor="middle" x="198" y="-235.5" font-family="Helvetica,sans-Serif" font-size="10.00">get_rand</text>
</a>
</g>
</g>
<!-- Node2&#45;&gt;Node4 -->
<g id="edge3" class="edge">
<title>Node2&#45;&gt;Node4</title>
<path fill="none" stroke="midnightblue" d="M98.45,-152.54C106.31,-168.42 124.12,-200.41 148,-219 152.08,-222.18 156.76,-224.88 161.56,-227.16"/>
<polygon fill="midnightblue" stroke="midnightblue" points="160.27,-230.41 170.85,-231.04 162.97,-223.95 160.27,-230.41"/>
</g>
<!-- Node6 -->
<g id="node6" class="node">
<title>Node6</title>
<g id="a_node6"><a xlink:href="../../da/d5a/class_complex.html#af8aacf982e2e6c142921bc850f6dc974" target="_top" xlink:title="Member function to get imaginary value of our complex number. Member function (getter) to access the ...">
<polygon fill="white" stroke="black" points="156.5,-190.5 156.5,-209.5 239.5,-209.5 239.5,-190.5 156.5,-190.5"/>
<text text-anchor="middle" x="198" y="-197.5" font-family="Helvetica,sans-Serif" font-size="10.00">Complex::imag</text>
</a>
</g>
</g>
<!-- Node2&#45;&gt;Node6 -->
<g id="edge5" class="edge">
<title>Node2&#45;&gt;Node6</title>
<path fill="none" stroke="midnightblue" d="M105.89,-152.65C116.48,-160.92 132.64,-172.78 148,-181 151.71,-182.99 155.67,-184.87 159.68,-186.63"/>
<polygon fill="midnightblue" stroke="midnightblue" points="158.42,-189.9 169,-190.49 161.1,-183.43 158.42,-189.9"/>
</g>
<!-- Node7 -->
<g id="node7" class="node">
<title>Node7</title>
<g id="a_node7"><a target="_blank" xlink:href="http://en.cppreference.com/w/cpp/numeric/complex/imag.html#" target="_top" xlink:title=" ">
<polygon fill="white" stroke="black" points="148,-152.5 148,-171.5 248,-171.5 248,-152.5 148,-152.5"/>
<text text-anchor="middle" x="198" y="-159.5" font-family="Helvetica,sans-Serif" font-size="10.00">std::complex::imag</text>
</a>
</g>
</g>
<!-- Node2&#45;&gt;Node7 -->
<g id="edge6" class="edge">
<title>Node2&#45;&gt;Node7</title>
<path fill="none" stroke="midnightblue" d="M112.41,-146.4C119.72,-147.75 128.57,-149.38 137.76,-151.07"/>
<polygon fill="midnightblue" stroke="midnightblue" points="137.34,-154.55 147.8,-152.93 138.61,-147.67 137.34,-154.55"/>
</g>
<!-- Node8 -->
<g id="node8" class="node">
<title>Node8</title>
<g id="a_node8"><a xlink:href="../../da/d5a/class_complex.html#a312e4b19146128408fb06e0150b0faf6" target="_top" xlink:title="Member function to get real value of our complex number. Member function (getter) to access the class...">
<polygon fill="white" stroke="black" points="159.5,-114.5 159.5,-133.5 236.5,-133.5 236.5,-114.5 159.5,-114.5"/>
<text text-anchor="middle" x="198" y="-121.5" font-family="Helvetica,sans-Serif" font-size="10.00">Complex::real</text>
</a>
</g>
</g>
<!-- Node2&#45;&gt;Node8 -->
<g id="edge7" class="edge">
<title>Node2&#45;&gt;Node8</title>
<path fill="none" stroke="midnightblue" d="M112.41,-139.6C122.74,-137.7 136.15,-135.22 149.24,-132.81"/>
<polygon fill="midnightblue" stroke="midnightblue" points="149.92,-136.24 159.12,-130.99 148.65,-129.36 149.92,-136.24"/>
</g>
<!-- Node9 -->
<g id="node9" class="node">
<title>Node9</title>
<g id="a_node9"><a target="_blank" xlink:href="http://en.cppreference.com/w/cpp/numeric/complex/real.html#" target="_top" xlink:title=" ">
<polygon fill="white" stroke="black" points="150.5,-76.5 150.5,-95.5 245.5,-95.5 245.5,-76.5 150.5,-76.5"/>
<text text-anchor="middle" x="198" y="-83.5" font-family="Helvetica,sans-Serif" font-size="10.00">std::complex::real</text>
</a>
</g>
</g>
<!-- Node2&#45;&gt;Node9 -->
<g id="edge8" class="edge">
<title>Node2&#45;&gt;Node9</title>
<path fill="none" stroke="midnightblue" d="M105.89,-133.35C116.48,-125.08 132.64,-113.22 148,-105 151.71,-103.01 155.67,-101.13 159.68,-99.37"/>
<polygon fill="midnightblue" stroke="midnightblue" points="161.1,-102.57 169,-95.51 158.42,-96.1 161.1,-102.57"/>
</g>
<!-- Node10 -->
<g id="node10" class="node">
<title>Node10</title>
<g id="a_node10"><a target="_blank" xlink:href="http://en.cppreference.com/w/cpp/numeric/random/srand.html#" target="_top" xlink:title=" ">
<polygon fill="white" stroke="black" points="168,-38.5 168,-57.5 228,-57.5 228,-38.5 168,-38.5"/>
<text text-anchor="middle" x="198" y="-45.5" font-family="Helvetica,sans-Serif" font-size="10.00">std::srand</text>
</a>
</g>
</g>
<!-- Node2&#45;&gt;Node10 -->
<g id="edge9" class="edge">
<title>Node2&#45;&gt;Node10</title>
<path fill="none" stroke="midnightblue" d="M98.45,-133.46C106.31,-117.58 124.12,-85.59 148,-67 151.19,-64.52 154.74,-62.32 158.44,-60.4"/>
<polygon fill="midnightblue" stroke="midnightblue" points="160.14,-63.47 167.79,-56.13 157.24,-57.1 160.14,-63.47"/>
</g>
<!-- Node11 -->
<g id="node11" class="node">
<title>Node11</title>
<g id="a_node11"><a target="_blank" xlink:href="http://en.cppreference.com/w/cpp/chrono/c/time.html#" target="_top" xlink:title=" ">
<polygon fill="white" stroke="black" points="170.5,-0.5 170.5,-19.5 225.5,-19.5 225.5,-0.5 170.5,-0.5"/>
<text text-anchor="middle" x="198" y="-7.5" font-family="Helvetica,sans-Serif" font-size="10.00">std::time</text>
</a>
</g>
</g>
<!-- Node2&#45;&gt;Node11 -->
<g id="edge10" class="edge">
<title>Node2&#45;&gt;Node11</title>
<path fill="none" stroke="midnightblue" d="M96.02,-133.3C101.01,-111.63 115.93,-58.83 148,-29 151.79,-25.48 156.3,-22.59 161.03,-20.21"/>
<polygon fill="midnightblue" stroke="midnightblue" points="162.44,-23.42 170.26,-16.27 159.69,-16.98 162.44,-23.42"/>
</g>
<!-- Node5 -->
<g id="node5" class="node">
<title>Node5</title>
<g id="a_node5"><a target="_blank" xlink:href="http://en.cppreference.com/w/cpp/numeric/random/rand.html#" target="_top" xlink:title=" ">
<polygon fill="white" stroke="black" points="284,-228.5 284,-247.5 339,-247.5 339,-228.5 284,-228.5"/>
<text text-anchor="middle" x="311.5" y="-235.5" font-family="Helvetica,sans-Serif" font-size="10.00">std::rand</text>
</a>
</g>
</g>
<!-- Node4&#45;&gt;Node5 -->
<g id="edge4" class="edge">
<title>Node4&#45;&gt;Node5</title>
<path fill="none" stroke="midnightblue" d="M225.14,-238C239.61,-238 257.82,-238 273.71,-238"/>
<polygon fill="midnightblue" stroke="midnightblue" points="273.75,-241.5 283.75,-238 273.75,-234.5 273.75,-241.5"/>
</g>
</g>
</svg>
