<?xml version="1.0" encoding="UTF-8" standalone="no"?>
<!DOCTYPE svg PUBLIC "-//W3C//DTD SVG 1.1//EN"
 "http://www.w3.org/Graphics/SVG/1.1/DTD/svg11.dtd">
<!-- Generated by graphviz version 8.1.0 (20230707.0739)
 -->
<!-- Title: strings::horspool::findShiftTable Pages: 1 -->
<svg width="262pt" height="248pt"
 viewBox="0.00 0.00 262.00 247.88" xmlns="http://www.w3.org/2000/svg" xmlns:xlink="http://www.w3.org/1999/xlink">
<g id="graph0" class="graph" transform="scale(1 1) rotate(0) translate(4 243.88)">
<title>strings::horspool::findShiftTable</title>
<!-- Node1 -->
<g id="Node000001" class="node">
<title>Node1</title>
<g id="a_Node000001"><a xlink:title=" ">
<polygon fill="#999999" stroke="#666666" points="94,-131.5 0,-131.5 0,-101 94,-101 94,-131.5"/>
<text text-anchor="start" x="8" y="-118" font-family="Helvetica,sans-Serif" font-size="10.00">strings::horspool::</text>
<text text-anchor="middle" x="47" y="-106.75" font-family="Helvetica,sans-Serif" font-size="10.00">findShiftTable</text>
</a>
</g>
</g>
<!-- Node1&#45;&gt;Node1 -->
<g id="edge3_Node000001_Node000001" class="edge">
<title>Node1&#45;&gt;Node1</title>
<g id="a_edge3_Node000001_Node000001"><a xlink:title=" ">
<path fill="none" stroke="#63b8ff" d="M21.31,-131.99C16.06,-141.06 24.63,-149.5 47,-149.5 59.58,-149.5 67.8,-146.83 71.65,-142.88"/>
<polygon fill="#63b8ff" stroke="#63b8ff" points="75.22,-143.27 72.69,-132.99 68.25,-142.61 75.22,-143.27"/>
</a>
</g>
</g>
<!-- Node2 -->
<g id="Node000002" class="node">
<title>Node2</title>
<g id="a_Node000002"><a target="_blank" xlink:href="http://en.cppreference.com/w/cpp/container/unordered_map/end.html#" xlink:title=" ">
<polygon fill="white" stroke="#666666" points="254,-239.88 130,-239.88 130,-220.62 254,-220.62 254,-239.88"/>
<text text-anchor="middle" x="192" y="-226.38" font-family="Helvetica,sans-Serif" font-size="10.00">std::unordered_map::end</text>
</a>
</g>
</g>
<!-- Node1&#45;&gt;Node2 -->
<g id="edge1_Node000001_Node000002" class="edge">
<title>Node1&#45;&gt;Node2</title>
<g id="a_edge1_Node000001_Node000002"><a xlink:title=" ">
<path fill="none" stroke="#63b8ff" d="M57.39,-131.77C70.9,-152.79 97.75,-190.11 130,-211.25 132.57,-212.93 135.29,-214.47 138.11,-215.88"/>
<polygon fill="#63b8ff" stroke="#63b8ff" points="136.38,-219.39 146.95,-220.19 139.19,-212.97 136.38,-219.39"/>
</a>
</g>
</g>
<!-- Node3 -->
<g id="Node000003" class="node">
<title>Node3</title>
<g id="a_Node000003"><a target="_blank" xlink:href="http://en.cppreference.com/w/cpp/container/unordered_map/find.html#" xlink:title=" ">
<polygon fill="white" stroke="#666666" points="243.12,-202.5 140.88,-202.5 140.88,-172 243.12,-172 243.12,-202.5"/>
<text text-anchor="start" x="148.88" y="-189" font-family="Helvetica,sans-Serif" font-size="10.00">std::unordered_map</text>
<text text-anchor="middle" x="192" y="-177.75" font-family="Helvetica,sans-Serif" font-size="10.00">::find</text>
</a>
</g>
</g>
<!-- Node1&#45;&gt;Node3 -->
<g id="edge2_Node000001_Node000003" class="edge">
<title>Node1&#45;&gt;Node3</title>
<g id="a_edge2_Node000001_Node000003"><a xlink:title=" ">
<path fill="none" stroke="#63b8ff" d="M73.79,-131.79C89.73,-141.12 110.75,-152.95 130,-162.25 133.5,-163.94 137.15,-165.63 140.85,-167.28"/>
<polygon fill="#63b8ff" stroke="#63b8ff" points="139.09,-170.76 149.66,-171.53 141.88,-164.34 139.09,-170.76"/>
</a>
</g>
</g>
<!-- Node4 -->
<g id="Node000004" class="node">
<title>Node4</title>
<g id="a_Node000004"><a target="_blank" xlink:href="http://en.cppreference.com/w/cpp/container/unordered_map/insert.html#" xlink:title=" ">
<polygon fill="white" stroke="#666666" points="243.12,-153.5 140.88,-153.5 140.88,-123 243.12,-123 243.12,-153.5"/>
<text text-anchor="start" x="148.88" y="-140" font-family="Helvetica,sans-Serif" font-size="10.00">std::unordered_map</text>
<text text-anchor="middle" x="192" y="-128.75" font-family="Helvetica,sans-Serif" font-size="10.00">::insert</text>
</a>
</g>
</g>
<!-- Node1&#45;&gt;Node4 -->
<g id="edge4_Node000001_Node000004" class="edge">
<title>Node1&#45;&gt;Node4</title>
<g id="a_edge4_Node000001_Node000004"><a xlink:title=" ">
<path fill="none" stroke="#63b8ff" d="M94.43,-123.39C105.79,-125.14 118.12,-127.04 130.05,-128.87"/>
<polygon fill="#63b8ff" stroke="#63b8ff" points="129.44,-132.47 139.86,-130.54 130.51,-125.56 129.44,-132.47"/>
</a>
</g>
</g>
<!-- Node5 -->
<g id="Node000005" class="node">
<title>Node5</title>
<g id="a_Node000005"><a target="_blank" xlink:href="http://en.cppreference.com/w/cpp/utility/pair/make_pair.html#" xlink:title=" ">
<polygon fill="white" stroke="#666666" points="232.25,-104.88 151.75,-104.88 151.75,-85.62 232.25,-85.62 232.25,-104.88"/>
<text text-anchor="middle" x="192" y="-91.38" font-family="Helvetica,sans-Serif" font-size="10.00">std::make_pair</text>
</a>
</g>
</g>
<!-- Node1&#45;&gt;Node5 -->
<g id="edge5_Node000001_Node000005" class="edge">
<title>Node1&#45;&gt;Node5</title>
<g id="a_edge5_Node000001_Node000005"><a xlink:title=" ">
<path fill="none" stroke="#63b8ff" d="M94.43,-109.43C109.26,-107.25 125.74,-104.83 140.82,-102.62"/>
<polygon fill="#63b8ff" stroke="#63b8ff" points="141.13,-105.96 150.52,-101.05 140.12,-99.04 141.13,-105.96"/>
</a>
</g>
</g>
<!-- Node6 -->
<g id="Node000006" class="node">
<title>Node6</title>
<g id="a_Node000006"><a target="_blank" xlink:href="http://en.cppreference.com/w/cpp/string/basic_string/size.html#" xlink:title=" ">
<polygon fill="white" stroke="#666666" points="233.75,-67.88 150.25,-67.88 150.25,-48.62 233.75,-48.62 233.75,-67.88"/>
<text text-anchor="middle" x="192" y="-54.38" font-family="Helvetica,sans-Serif" font-size="10.00">std::string::size</text>
</a>
</g>
</g>
<!-- Node1&#45;&gt;Node6 -->
<g id="edge6_Node000001_Node000006" class="edge">
<title>Node1&#45;&gt;Node6</title>
<g id="a_edge6_Node000001_Node000006"><a xlink:title=" ">
<path fill="none" stroke="#63b8ff" d="M77.07,-100.59C92.52,-92.66 111.99,-83.25 130,-76.25 134.17,-74.63 138.55,-73.07 142.96,-71.6"/>
<polygon fill="#63b8ff" stroke="#63b8ff" points="143.78,-74.69 152.25,-68.32 141.66,-68.02 143.78,-74.69"/>
</a>
</g>
</g>
<!-- Node7 -->
<g id="Node000007" class="node">
<title>Node7</title>
<g id="a_Node000007"><a target="_blank" xlink:href="http://en.cppreference.com/w/cpp/container/unordered_map/size.html#" xlink:title=" ">
<polygon fill="white" stroke="#666666" points="243.12,-30.5 140.88,-30.5 140.88,0 243.12,0 243.12,-30.5"/>
<text text-anchor="start" x="148.88" y="-17" font-family="Helvetica,sans-Serif" font-size="10.00">std::unordered_map</text>
<text text-anchor="middle" x="192" y="-5.75" font-family="Helvetica,sans-Serif" font-size="10.00">::size</text>
</a>
</g>
</g>
<!-- Node1&#45;&gt;Node7 -->
<g id="edge7_Node000001_Node000007" class="edge">
<title>Node1&#45;&gt;Node7</title>
<g id="a_edge7_Node000001_Node000007"><a xlink:title=" ">
<path fill="none" stroke="#63b8ff" d="M61.4,-100.51C76.58,-83.49 102.77,-56.49 130,-39.25 131.95,-38.01 133.98,-36.82 136.06,-35.68"/>
<polygon fill="#63b8ff" stroke="#63b8ff" points="137.07,-38.58 144.41,-30.95 133.91,-32.34 137.07,-38.58"/>
</a>
</g>
</g>
</g>
</svg>
