<?xml version="1.0" encoding="UTF-8" standalone="no"?>
<!DOCTYPE svg PUBLIC "-//W3C//DTD SVG 1.1//EN"
 "http://www.w3.org/Graphics/SVG/1.1/DTD/svg11.dtd">
<!-- Generated by graphviz version 5.0.0 (20220707.1540)
 -->
<!-- Title: strings::horspool::horspool Pages: 1 -->
<svg width="395pt" height="253pt"
 viewBox="0.00 0.00 395.00 253.00" xmlns="http://www.w3.org/2000/svg" xmlns:xlink="http://www.w3.org/1999/xlink">
<g id="graph0" class="graph" transform="scale(1 1) rotate(0) translate(4 249)">
<title>strings::horspool::horspool</title>
<polygon fill="white" stroke="transparent" points="-4,4 -4,-249 391,-249 391,4 -4,4"/>
<!-- Node1 -->
<g id="node1" class="node">
<title>Node1</title>
<g id="a_node1"><a xlink:title=" ">
<polygon fill="#bfbfbf" stroke="black" points="0,-145 0,-175 95,-175 95,-145 0,-145"/>
<text text-anchor="start" x="8" y="-163" font-family="Helvetica,sans-Serif" font-size="10.00">strings::horspool::</text>
<text text-anchor="middle" x="47.5" y="-152" font-family="Helvetica,sans-Serif" font-size="10.00">horspool</text>
</a>
</g>
</g>
<!-- Node2 -->
<g id="node2" class="node">
<title>Node2</title>
<g id="a_node2"><a target="_blank" xlink:href="http://en.cppreference.com/w/cpp/container/unordered_map/end.html#" xlink:title=" ">
<polygon fill="white" stroke="black" points="262,-225.5 262,-244.5 387,-244.5 387,-225.5 262,-225.5"/>
<text text-anchor="middle" x="324.5" y="-232.5" font-family="Helvetica,sans-Serif" font-size="10.00">std::unordered_map::end</text>
</a>
</g>
</g>
<!-- Node1&#45;&gt;Node2 -->
<g id="edge1" class="edge">
<title>Node1&#45;&gt;Node2</title>
<path fill="none" stroke="midnightblue" d="M85.51,-175.12C99.6,-180.56 115.91,-186.46 131,-191 174.7,-204.14 225,-215.51 263.22,-223.4"/>
<polygon fill="midnightblue" stroke="midnightblue" points="262.66,-226.86 273.16,-225.43 264.06,-220 262.66,-226.86"/>
</g>
<!-- Node3 -->
<g id="node3" class="node">
<title>Node3</title>
<g id="a_node3"><a target="_blank" xlink:href="http://en.cppreference.com/w/cpp/container/unordered_map/find.html#" xlink:title=" ">
<polygon fill="white" stroke="black" points="273,-176 273,-206 376,-206 376,-176 273,-176"/>
<text text-anchor="start" x="281" y="-194" font-family="Helvetica,sans-Serif" font-size="10.00">std::unordered_map</text>
<text text-anchor="middle" x="324.5" y="-183" font-family="Helvetica,sans-Serif" font-size="10.00">::find</text>
</a>
</g>
</g>
<!-- Node1&#45;&gt;Node3 -->
<g id="edge2" class="edge">
<title>Node1&#45;&gt;Node3</title>
<path fill="none" stroke="midnightblue" d="M95.13,-167.17C106.83,-168.86 119.36,-170.58 131,-172 174.88,-177.35 224.52,-182.22 262.41,-185.69"/>
<polygon fill="midnightblue" stroke="midnightblue" points="262.49,-189.22 272.77,-186.64 263.12,-182.25 262.49,-189.22"/>
</g>
<!-- Node4 -->
<g id="node4" class="node">
<title>Node4</title>
<g id="a_node4"><a xlink:href="../../d3/dfe/horspool_8cpp.html#a1a9c3aa55ccc79d0f47d50c580997336" target="_top" xlink:title=" ">
<polygon fill="white" stroke="black" points="131,-114 131,-144 226,-144 226,-114 131,-114"/>
<text text-anchor="start" x="139" y="-132" font-family="Helvetica,sans-Serif" font-size="10.00">strings::horspool::</text>
<text text-anchor="middle" x="178.5" y="-121" font-family="Helvetica,sans-Serif" font-size="10.00">findShiftTable</text>
</a>
</g>
</g>
<!-- Node1&#45;&gt;Node4 -->
<g id="edge3" class="edge">
<title>Node1&#45;&gt;Node4</title>
<path fill="none" stroke="midnightblue" d="M95.07,-148.81C103.57,-146.77 112.51,-144.62 121.25,-142.52"/>
<polygon fill="midnightblue" stroke="midnightblue" points="122.09,-145.92 131,-140.18 120.46,-139.11 122.09,-145.92"/>
</g>
<!-- Node7 -->
<g id="node7" class="node">
<title>Node7</title>
<g id="a_node7"><a target="_blank" xlink:href="http://en.cppreference.com/w/cpp/string/basic_string/size.html#" xlink:title=" ">
<polygon fill="white" stroke="black" points="282.5,-0.5 282.5,-19.5 366.5,-19.5 366.5,-0.5 282.5,-0.5"/>
<text text-anchor="middle" x="324.5" y="-7.5" font-family="Helvetica,sans-Serif" font-size="10.00">std::string::size</text>
</a>
</g>
</g>
<!-- Node1&#45;&gt;Node7 -->
<g id="edge11" class="edge">
<title>Node1&#45;&gt;Node7</title>
<path fill="none" stroke="midnightblue" d="M68.64,-144.93C105.32,-118.13 186.22,-61.92 262,-29 267.12,-26.77 272.59,-24.69 278.08,-22.78"/>
<polygon fill="midnightblue" stroke="midnightblue" points="279.49,-26 287.89,-19.54 277.3,-19.36 279.49,-26"/>
</g>
<!-- Node4&#45;&gt;Node2 -->
<g id="edge4" class="edge">
<title>Node4&#45;&gt;Node2</title>
<path fill="none" stroke="midnightblue" d="M190,-144.18C204.18,-163.57 231.23,-196.89 262,-216 265.37,-218.1 269,-219.98 272.74,-221.66"/>
<polygon fill="midnightblue" stroke="midnightblue" points="271.6,-224.98 282.19,-225.45 274.21,-218.48 271.6,-224.98"/>
</g>
<!-- Node4&#45;&gt;Node3 -->
<g id="edge5" class="edge">
<title>Node4&#45;&gt;Node3</title>
<path fill="none" stroke="midnightblue" d="M211.04,-144.06C226.33,-151.23 245.02,-159.78 262,-167 266.09,-168.74 270.34,-170.5 274.63,-172.23"/>
<polygon fill="midnightblue" stroke="midnightblue" points="273.4,-175.51 283.99,-175.98 276.01,-169.02 273.4,-175.51"/>
</g>
<!-- Node4&#45;&gt;Node4 -->
<g id="edge6" class="edge">
<title>Node4&#45;&gt;Node4</title>
<path fill="none" stroke="midnightblue" d="M155.84,-144.16C150.38,-153.56 157.93,-162.5 178.5,-162.5 191.03,-162.5 198.73,-159.18 201.6,-154.46"/>
<polygon fill="midnightblue" stroke="midnightblue" points="205.08,-154 201.16,-144.16 198.09,-154.3 205.08,-154"/>
</g>
<!-- Node5 -->
<g id="node5" class="node">
<title>Node5</title>
<g id="a_node5"><a target="_blank" xlink:href="http://en.cppreference.com/w/cpp/container/unordered_map/insert.html#" xlink:title=" ">
<polygon fill="white" stroke="black" points="273,-127 273,-157 376,-157 376,-127 273,-127"/>
<text text-anchor="start" x="281" y="-145" font-family="Helvetica,sans-Serif" font-size="10.00">std::unordered_map</text>
<text text-anchor="middle" x="324.5" y="-134" font-family="Helvetica,sans-Serif" font-size="10.00">::insert</text>
</a>
</g>
</g>
<!-- Node4&#45;&gt;Node5 -->
<g id="edge7" class="edge">
<title>Node4&#45;&gt;Node5</title>
<path fill="none" stroke="midnightblue" d="M226.25,-133.22C237.87,-134.27 250.48,-135.41 262.66,-136.51"/>
<polygon fill="midnightblue" stroke="midnightblue" points="262.48,-140.01 272.76,-137.42 263.11,-133.03 262.48,-140.01"/>
</g>
<!-- Node6 -->
<g id="node6" class="node">
<title>Node6</title>
<g id="a_node6"><a target="_blank" xlink:href="http://en.cppreference.com/w/cpp/utility/pair/make_pair.html#" xlink:title=" ">
<polygon fill="white" stroke="black" points="284,-88.5 284,-107.5 365,-107.5 365,-88.5 284,-88.5"/>
<text text-anchor="middle" x="324.5" y="-95.5" font-family="Helvetica,sans-Serif" font-size="10.00">std::make_pair</text>
</a>
</g>
</g>
<!-- Node4&#45;&gt;Node6 -->
<g id="edge8" class="edge">
<title>Node4&#45;&gt;Node6</title>
<path fill="none" stroke="midnightblue" d="M226.25,-118.94C241.48,-115.66 258.43,-112.01 273.86,-108.69"/>
<polygon fill="midnightblue" stroke="midnightblue" points="274.7,-112.09 283.74,-106.56 273.23,-105.24 274.7,-112.09"/>
</g>
<!-- Node4&#45;&gt;Node7 -->
<g id="edge9" class="edge">
<title>Node4&#45;&gt;Node7</title>
<path fill="none" stroke="midnightblue" d="M190.44,-113.67C208.56,-88.67 244.52,-40.71 262,-29 265.35,-26.75 268.98,-24.77 272.74,-23"/>
<polygon fill="midnightblue" stroke="midnightblue" points="274.36,-26.12 282.28,-19.08 271.7,-19.65 274.36,-26.12"/>
</g>
<!-- Node8 -->
<g id="node8" class="node">
<title>Node8</title>
<g id="a_node8"><a target="_blank" xlink:href="http://en.cppreference.com/w/cpp/container/unordered_map/size.html#" xlink:title=" ">
<polygon fill="white" stroke="black" points="273,-39 273,-69 376,-69 376,-39 273,-39"/>
<text text-anchor="start" x="281" y="-57" font-family="Helvetica,sans-Serif" font-size="10.00">std::unordered_map</text>
<text text-anchor="middle" x="324.5" y="-46" font-family="Helvetica,sans-Serif" font-size="10.00">::size</text>
</a>
</g>
</g>
<!-- Node4&#45;&gt;Node8 -->
<g id="edge10" class="edge">
<title>Node4&#45;&gt;Node8</title>
<path fill="none" stroke="midnightblue" d="M202.06,-113.99C218.34,-103.49 241.05,-89.52 262,-79 265.99,-77 270.18,-75.03 274.42,-73.13"/>
<polygon fill="midnightblue" stroke="midnightblue" points="275.94,-76.28 283.72,-69.09 273.15,-69.86 275.94,-76.28"/>
</g>
</g>
</svg>
