<?xml version="1.0" encoding="UTF-8" standalone="no"?>
<!DOCTYPE svg PUBLIC "-//W3C//DTD SVG 1.1//EN"
 "http://www.w3.org/Graphics/SVG/1.1/DTD/svg11.dtd">
<!-- Generated by graphviz version 9.0.0 (20230911.1827)
 -->
<!-- Title: test Pages: 1 -->
<svg width="343pt" height="223pt"
 viewBox="0.00 0.00 342.50 222.88" xmlns="http://www.w3.org/2000/svg" xmlns:xlink="http://www.w3.org/1999/xlink">
<g id="graph0" class="graph" transform="scale(1 1) rotate(0) translate(4 218.88)">
<title>test</title>
<!-- Node1 -->
<g id="Node000001" class="node">
<title>Node1</title>
<g id="a_Node000001"><a xlink:title="Self&#45;test implementations.">
<polygon fill="#999999" stroke="#666666" points="32.5,-122.88 0,-122.88 0,-103.62 32.5,-103.62 32.5,-122.88"/>
<text text-anchor="middle" x="16.25" y="-109.38" font-family="Helvetica,sans-Serif" font-size="10.00">test</text>
</a>
</g>
</g>
<!-- Node2 -->
<g id="Node000002" class="node">
<title>Node2</title>
<g id="a_Node000002"><a target="_blank" xlink:href="http://en.cppreference.com/w/cpp/io/manip/endl.html#" xlink:title=" ">
<polygon fill="white" stroke="#666666" points="152.75,-214.88 99.25,-214.88 99.25,-195.62 152.75,-195.62 152.75,-214.88"/>
<text text-anchor="middle" x="126" y="-201.38" font-family="Helvetica,sans-Serif" font-size="10.00">std::endl</text>
</a>
</g>
</g>
<!-- Node1&#45;&gt;Node2 -->
<g id="edge1_Node000001_Node000002" class="edge">
<title>Node1&#45;&gt;Node2</title>
<g id="a_edge1_Node000001_Node000002"><a xlink:title=" ">
<path fill="none" stroke="#63b8ff" d="M21.71,-123.28C29.18,-138.95 45.67,-169.2 68.5,-186.25 74.32,-190.6 81.2,-193.99 88.12,-196.63"/>
<polygon fill="#63b8ff" stroke="#63b8ff" points="86.85,-199.89 97.44,-199.69 89.04,-193.24 86.85,-199.89"/>
</a>
</g>
</g>
<!-- Node3 -->
<g id="Node000003" class="node">
<title>Node3</title>
<g id="a_Node000003"><a xlink:href="../../d1/def/classdata__structures_1_1linked__list_1_1list.html#a4649fc2c5d09dc58608cd9299db9946f" target="_top" xlink:title="Utility function that adds a new element at the end of the list.">
<polygon fill="white" stroke="#666666" points="183.5,-177.5 68.5,-177.5 68.5,-147 183.5,-147 183.5,-177.5"/>
<text text-anchor="start" x="76.5" y="-164" font-family="Helvetica,sans-Serif" font-size="10.00">data_structures::linked</text>
<text text-anchor="middle" x="126" y="-152.75" font-family="Helvetica,sans-Serif" font-size="10.00">_list::list::insert</text>
</a>
</g>
</g>
<!-- Node1&#45;&gt;Node3 -->
<g id="edge2_Node000001_Node000003" class="edge">
<title>Node1&#45;&gt;Node3</title>
<g id="a_edge2_Node000001_Node000003"><a xlink:title=" ">
<path fill="none" stroke="#63b8ff" d="M32.91,-120.69C43.04,-125.47 56.52,-131.79 68.5,-137.25 71.97,-138.83 75.57,-140.46 79.2,-142.08"/>
<polygon fill="#63b8ff" stroke="#63b8ff" points="77.44,-145.13 88,-146.01 80.3,-138.74 77.44,-145.13"/>
</a>
</g>
</g>
<!-- Node6 -->
<g id="Node000006" class="node">
<title>Node6</title>
<g id="a_Node000006"><a xlink:href="../../d1/def/classdata__structures_1_1linked__list_1_1list.html#a8b20ca89a0346c8d4193936481528c70" target="_top" xlink:title="Utility function for reversing a list.">
<polygon fill="white" stroke="#666666" points="183.5,-128.5 68.5,-128.5 68.5,-98 183.5,-98 183.5,-128.5"/>
<text text-anchor="start" x="76.5" y="-115" font-family="Helvetica,sans-Serif" font-size="10.00">data_structures::linked</text>
<text text-anchor="middle" x="126" y="-103.75" font-family="Helvetica,sans-Serif" font-size="10.00">_list::list::reverseList</text>
</a>
</g>
</g>
<!-- Node1&#45;&gt;Node6 -->
<g id="edge5_Node000001_Node000006" class="edge">
<title>Node1&#45;&gt;Node6</title>
<g id="a_edge5_Node000001_Node000006"><a xlink:title=" ">
<path fill="none" stroke="#63b8ff" d="M32.69,-113.25C39.47,-113.25 47.95,-113.25 57.01,-113.25"/>
<polygon fill="#63b8ff" stroke="#63b8ff" points="56.75,-116.75 66.75,-113.25 56.75,-109.75 56.75,-116.75"/>
</a>
</g>
</g>
<!-- Node7 -->
<g id="Node000007" class="node">
<title>Node7</title>
<g id="a_Node000007"><a xlink:href="../../d1/def/classdata__structures_1_1linked__list_1_1list.html#a89ad00dbd262e2527129813b53e16f81" target="_top" xlink:title="Utility function to find the top element of the list.">
<polygon fill="white" stroke="#666666" points="183.5,-79.5 68.5,-79.5 68.5,-49 183.5,-49 183.5,-79.5"/>
<text text-anchor="start" x="76.5" y="-66" font-family="Helvetica,sans-Serif" font-size="10.00">data_structures::linked</text>
<text text-anchor="middle" x="126" y="-54.75" font-family="Helvetica,sans-Serif" font-size="10.00">_list::list::top</text>
</a>
</g>
</g>
<!-- Node1&#45;&gt;Node7 -->
<g id="edge6_Node000001_Node000007" class="edge">
<title>Node1&#45;&gt;Node7</title>
<g id="a_edge6_Node000001_Node000007"><a xlink:title=" ">
<path fill="none" stroke="#63b8ff" d="M32.91,-105.81C43.04,-101.03 56.52,-94.71 68.5,-89.25 71.97,-87.67 75.57,-86.04 79.2,-84.42"/>
<polygon fill="#63b8ff" stroke="#63b8ff" points="80.3,-87.76 88,-80.49 77.44,-81.37 80.3,-87.76"/>
</a>
</g>
</g>
<!-- Node8 -->
<g id="Node000008" class="node">
<title>Node8</title>
<g id="a_Node000008"><a xlink:href="../../d1/def/classdata__structures_1_1linked__list_1_1list.html#aaca3be50a2a81bf3308d202a6dcee91a" target="_top" xlink:title="Utility function to find the i th element of the list.">
<polygon fill="white" stroke="#666666" points="183.5,-30.5 68.5,-30.5 68.5,0 183.5,0 183.5,-30.5"/>
<text text-anchor="start" x="76.5" y="-17" font-family="Helvetica,sans-Serif" font-size="10.00">data_structures::linked</text>
<text text-anchor="middle" x="126" y="-5.75" font-family="Helvetica,sans-Serif" font-size="10.00">_list::list::traverse</text>
</a>
</g>
</g>
<!-- Node1&#45;&gt;Node8 -->
<g id="edge8_Node000001_Node000008" class="edge">
<title>Node1&#45;&gt;Node8</title>
<g id="a_edge8_Node000001_Node000008"><a xlink:title=" ">
<path fill="none" stroke="#63b8ff" d="M22.03,-103.22C29.82,-87.81 46.6,-58.24 68.5,-40.25 69.95,-39.06 71.47,-37.91 73.04,-36.81"/>
<polygon fill="#63b8ff" stroke="#63b8ff" points="74.51,-40.02 81.18,-31.78 70.83,-34.06 74.51,-40.02"/>
</a>
</g>
</g>
<!-- Node4 -->
<g id="Node000004" class="node">
<title>Node4</title>
<g id="a_Node000004"><a xlink:href="../../d1/def/classdata__structures_1_1linked__list_1_1list.html#ae8424a4fce3d483f7c85d6f6a5c79a1a" target="_top" xlink:title=" ">
<polygon fill="white" stroke="#666666" points="334.5,-107.5 219.5,-107.5 219.5,-77 334.5,-77 334.5,-107.5"/>
<text text-anchor="start" x="227.5" y="-94" font-family="Helvetica,sans-Serif" font-size="10.00">data_structures::linked</text>
<text text-anchor="middle" x="277" y="-82.75" font-family="Helvetica,sans-Serif" font-size="10.00">_list::list::isEmpty</text>
</a>
</g>
</g>
<!-- Node3&#45;&gt;Node4 -->
<g id="edge3_Node000003_Node000004" class="edge">
<title>Node3&#45;&gt;Node4</title>
<g id="a_edge3_Node000003_Node000004"><a xlink:title=" ">
<path fill="none" stroke="#63b8ff" d="M162.95,-146.57C169.8,-143.53 176.88,-140.32 183.5,-137.25 200.24,-129.48 218.54,-120.64 234.42,-112.88"/>
<polygon fill="#63b8ff" stroke="#63b8ff" points="235.66,-116.16 243.1,-108.61 232.58,-109.88 235.66,-116.16"/>
</a>
</g>
</g>
<!-- Node5 -->
<g id="Node000005" class="node">
<title>Node5</title>
<g id="a_Node000005"><a target="_blank" xlink:href="http://en.cppreference.com/w/cpp/error/exception/what.html#" xlink:title=" ">
<polygon fill="white" stroke="#666666" points="328.88,-171.88 225.12,-171.88 225.12,-152.62 328.88,-152.62 328.88,-171.88"/>
<text text-anchor="middle" x="277" y="-158.38" font-family="Helvetica,sans-Serif" font-size="10.00">std::bad_alloc::what</text>
</a>
</g>
</g>
<!-- Node3&#45;&gt;Node5 -->
<g id="edge4_Node000003_Node000005" class="edge">
<title>Node3&#45;&gt;Node5</title>
<g id="a_edge4_Node000003_Node000005"><a xlink:title=" ">
<path fill="none" stroke="#63b8ff" d="M183.76,-162.25C193.45,-162.25 203.57,-162.25 213.41,-162.25"/>
<polygon fill="#63b8ff" stroke="#63b8ff" points="213.26,-165.75 223.26,-162.25 213.26,-158.75 213.26,-165.75"/>
</a>
</g>
</g>
<!-- Node7&#45;&gt;Node4 -->
<g id="edge7_Node000007_Node000004" class="edge">
<title>Node7&#45;&gt;Node4</title>
<g id="a_edge7_Node000007_Node000004"><a xlink:title=" ">
<path fill="none" stroke="#63b8ff" d="M183.76,-74.92C191.78,-76.42 200.11,-77.99 208.31,-79.53"/>
<polygon fill="#63b8ff" stroke="#63b8ff" points="207.44,-82.93 217.91,-81.33 208.73,-76.05 207.44,-82.93"/>
</a>
</g>
</g>
</g>
</svg>
