<?xml version="1.0" encoding="UTF-8" standalone="no"?>
<!DOCTYPE svg PUBLIC "-//W3C//DTD SVG 1.1//EN"
 "http://www.w3.org/Graphics/SVG/1.1/DTD/svg11.dtd">
<!-- Generated by graphviz version 2.49.3 (20211023.0002)
 -->
<!-- Title: main Pages: 1 -->
<svg width="421pt" height="225pt"
 viewBox="0.00 0.00 421.00 224.50" xmlns="http://www.w3.org/2000/svg" xmlns:xlink="http://www.w3.org/1999/xlink">
<g id="graph0" class="graph" transform="scale(1 1) rotate(0) translate(4 220.5)">
<title>main</title>
<polygon fill="white" stroke="transparent" points="-4,4 -4,-220.5 417,-220.5 417,4 -4,4"/>
<!-- Node1 -->
<g id="node1" class="node">
<title>Node1</title>
<g id="a_node1"><a xlink:title="Main function.">
<polygon fill="#bfbfbf" stroke="black" points="0,-104 0,-123 38,-123 38,-104 0,-104"/>
<text text-anchor="middle" x="19" y="-111" font-family="Helvetica,sans-Serif" font-size="10.00">main</text>
</a>
</g>
</g>
<!-- Node2 -->
<g id="node2" class="node">
<title>Node2</title>
<g id="a_node2"><a xlink:href="../../d6/d05/reverse__a__linked__list_8cpp.html#aa8dca7b867074164d5f45b0f3851269d" target="_top" xlink:title="Self&#45;test implementations.">
<polygon fill="white" stroke="black" points="74,-104 74,-123 107,-123 107,-104 74,-104"/>
<text text-anchor="middle" x="90.5" y="-111" font-family="Helvetica,sans-Serif" font-size="10.00">test</text>
</a>
</g>
</g>
<!-- Node1&#45;&gt;Node2 -->
<g id="edge1" class="edge">
<title>Node1&#45;&gt;Node2</title>
<path fill="none" stroke="midnightblue" d="M38.26,-113.5C46.07,-113.5 55.31,-113.5 63.79,-113.5"/>
<polygon fill="midnightblue" stroke="midnightblue" points="63.95,-117 73.95,-113.5 63.95,-110 63.95,-117"/>
</g>
<!-- Node3 -->
<g id="node3" class="node">
<title>Node3</title>
<g id="a_node3"><a target="_blank" xlink:href="http://en.cppreference.com/w/cpp/io/manip/endl.html#" xlink:title=" ">
<polygon fill="white" stroke="black" points="174.5,-197 174.5,-216 228.5,-216 228.5,-197 174.5,-197"/>
<text text-anchor="middle" x="201.5" y="-204" font-family="Helvetica,sans-Serif" font-size="10.00">std::endl</text>
</a>
</g>
</g>
<!-- Node2&#45;&gt;Node3 -->
<g id="edge2" class="edge">
<title>Node2&#45;&gt;Node3</title>
<path fill="none" stroke="midnightblue" d="M95.71,-123.17C103.05,-138.92 119.67,-170.09 143,-187.5 149.46,-192.32 157.2,-195.95 164.89,-198.68"/>
<polygon fill="midnightblue" stroke="midnightblue" points="163.89,-202.04 174.48,-201.68 165.98,-195.36 163.89,-202.04"/>
</g>
<!-- Node4 -->
<g id="node4" class="node">
<title>Node4</title>
<g id="a_node4"><a xlink:href="../../d1/def/classdata__structures_1_1linked__list_1_1list.html#a4649fc2c5d09dc58608cd9299db9946f" target="_top" xlink:title="Utility function that adds a new element at the end of the list.">
<polygon fill="white" stroke="black" points="143,-98.5 143,-128.5 260,-128.5 260,-98.5 143,-98.5"/>
<text text-anchor="start" x="151" y="-116.5" font-family="Helvetica,sans-Serif" font-size="10.00">data_structures::linked</text>
<text text-anchor="middle" x="201.5" y="-105.5" font-family="Helvetica,sans-Serif" font-size="10.00">_list::list::insert</text>
</a>
</g>
</g>
<!-- Node2&#45;&gt;Node4 -->
<g id="edge3" class="edge">
<title>Node2&#45;&gt;Node4</title>
<path fill="none" stroke="midnightblue" d="M107.12,-113.5C114.19,-113.5 123.1,-113.5 132.58,-113.5"/>
<polygon fill="midnightblue" stroke="midnightblue" points="132.62,-117 142.62,-113.5 132.62,-110 132.62,-117"/>
</g>
<!-- Node7 -->
<g id="node7" class="node">
<title>Node7</title>
<g id="a_node7"><a xlink:href="../../d1/def/classdata__structures_1_1linked__list_1_1list.html#a8b20ca89a0346c8d4193936481528c70" target="_top" xlink:title="Utility function for reversing a list.">
<polygon fill="white" stroke="black" points="143,-49.5 143,-79.5 260,-79.5 260,-49.5 143,-49.5"/>
<text text-anchor="start" x="151" y="-67.5" font-family="Helvetica,sans-Serif" font-size="10.00">data_structures::linked</text>
<text text-anchor="middle" x="201.5" y="-56.5" font-family="Helvetica,sans-Serif" font-size="10.00">_list::list::reverseList</text>
</a>
</g>
</g>
<!-- Node2&#45;&gt;Node7 -->
<g id="edge6" class="edge">
<title>Node2&#45;&gt;Node7</title>
<path fill="none" stroke="midnightblue" d="M107.17,-105.61C117.32,-100.57 130.86,-93.98 143,-88.5 146.61,-86.87 150.37,-85.22 154.16,-83.58"/>
<polygon fill="midnightblue" stroke="midnightblue" points="155.74,-86.71 163.56,-79.56 152.99,-80.27 155.74,-86.71"/>
</g>
<!-- Node8 -->
<g id="node8" class="node">
<title>Node8</title>
<g id="a_node8"><a xlink:href="../../d1/def/classdata__structures_1_1linked__list_1_1list.html#ab2d20da40d800897c31a649799d5e43d" target="_top" xlink:title="Utility function to find the top element of the list.">
<polygon fill="white" stroke="black" points="143,-147.5 143,-177.5 260,-177.5 260,-147.5 143,-147.5"/>
<text text-anchor="start" x="151" y="-165.5" font-family="Helvetica,sans-Serif" font-size="10.00">data_structures::linked</text>
<text text-anchor="middle" x="201.5" y="-154.5" font-family="Helvetica,sans-Serif" font-size="10.00">_list::list::top</text>
</a>
</g>
</g>
<!-- Node2&#45;&gt;Node8 -->
<g id="edge7" class="edge">
<title>Node2&#45;&gt;Node8</title>
<path fill="none" stroke="midnightblue" d="M107.23,-120.96C117.4,-125.75 130.95,-132.07 143,-137.5 147.3,-139.44 151.8,-141.44 156.29,-143.42"/>
<polygon fill="midnightblue" stroke="midnightblue" points="154.9,-146.63 165.47,-147.44 157.72,-140.22 154.9,-146.63"/>
</g>
<!-- Node9 -->
<g id="node9" class="node">
<title>Node9</title>
<g id="a_node9"><a xlink:href="../../d1/def/classdata__structures_1_1linked__list_1_1list.html#af42071da0067130389cb12fc526ea4fe" target="_top" xlink:title="Utility function to find the i th element of the list.">
<polygon fill="white" stroke="black" points="143,-0.5 143,-30.5 260,-30.5 260,-0.5 143,-0.5"/>
<text text-anchor="start" x="151" y="-18.5" font-family="Helvetica,sans-Serif" font-size="10.00">data_structures::linked</text>
<text text-anchor="middle" x="201.5" y="-7.5" font-family="Helvetica,sans-Serif" font-size="10.00">_list::list::traverse</text>
</a>
</g>
</g>
<!-- Node2&#45;&gt;Node9 -->
<g id="edge10" class="edge">
<title>Node2&#45;&gt;Node9</title>
<path fill="none" stroke="midnightblue" d="M96.11,-103.52C103.79,-87.9 120.59,-57.59 143,-39.5 144.58,-38.23 146.23,-37.01 147.95,-35.85"/>
<polygon fill="midnightblue" stroke="midnightblue" points="150.1,-38.64 156.9,-30.51 146.52,-32.63 150.1,-38.64"/>
</g>
<!-- Node5 -->
<g id="node5" class="node">
<title>Node5</title>
<g id="a_node5"><a xlink:href="../../d1/def/classdata__structures_1_1linked__list_1_1list.html#ae8424a4fce3d483f7c85d6f6a5c79a1a" target="_top" xlink:title="Utility function that checks if the list is empty.">
<polygon fill="white" stroke="black" points="296,-145.5 296,-175.5 413,-175.5 413,-145.5 296,-145.5"/>
<text text-anchor="start" x="304" y="-163.5" font-family="Helvetica,sans-Serif" font-size="10.00">data_structures::linked</text>
<text text-anchor="middle" x="354.5" y="-152.5" font-family="Helvetica,sans-Serif" font-size="10.00">_list::list::isEmpty</text>
</a>
</g>
</g>
<!-- Node4&#45;&gt;Node5 -->
<g id="edge4" class="edge">
<title>Node4&#45;&gt;Node5</title>
<path fill="none" stroke="midnightblue" d="M250.69,-128.5C264.99,-132.95 280.81,-137.87 295.66,-142.5"/>
<polygon fill="midnightblue" stroke="midnightblue" points="294.66,-145.85 305.25,-145.48 296.74,-139.17 294.66,-145.85"/>
</g>
<!-- Node6 -->
<g id="node6" class="node">
<title>Node6</title>
<g id="a_node6"><a target="_blank" xlink:href="http://en.cppreference.com/w/cpp/error/exception/what.html#" xlink:title=" ">
<polygon fill="white" stroke="black" points="302,-106 302,-125 407,-125 407,-106 302,-106"/>
<text text-anchor="middle" x="354.5" y="-113" font-family="Helvetica,sans-Serif" font-size="10.00">std::bad_alloc::what</text>
</a>
</g>
</g>
<!-- Node4&#45;&gt;Node6 -->
<g id="edge5" class="edge">
<title>Node4&#45;&gt;Node6</title>
<path fill="none" stroke="midnightblue" d="M260.02,-114.26C270.27,-114.4 280.99,-114.54 291.36,-114.68"/>
<polygon fill="midnightblue" stroke="midnightblue" points="291.54,-118.18 301.59,-114.81 291.64,-111.18 291.54,-118.18"/>
</g>
<!-- Node8&#45;&gt;Node5 -->
<g id="edge8" class="edge">
<title>Node8&#45;&gt;Node5</title>
<path fill="none" stroke="midnightblue" d="M260.02,-161.74C268.46,-161.63 277.23,-161.51 285.86,-161.4"/>
<polygon fill="midnightblue" stroke="midnightblue" points="285.94,-164.9 295.89,-161.26 285.85,-157.9 285.94,-164.9"/>
</g>
<!-- Node8&#45;&gt;Node6 -->
<g id="edge9" class="edge">
<title>Node8&#45;&gt;Node6</title>
<path fill="none" stroke="midnightblue" d="M250.69,-147.5C270.83,-141.23 293.97,-134.03 313.18,-128.05"/>
<polygon fill="midnightblue" stroke="midnightblue" points="314.33,-131.36 322.84,-125.04 312.25,-124.67 314.33,-131.36"/>
</g>
</g>
</svg>
