<?xml version="1.0" encoding="UTF-8" standalone="no"?>
<!DOCTYPE svg PUBLIC "-//W3C//DTD SVG 1.1//EN"
 "http://www.w3.org/Graphics/SVG/1.1/DTD/svg11.dtd">
<!-- Generated by graphviz version 9.0.0 (20230911.1827)
 -->
<!-- Title: main Pages: 1 -->
<svg width="416pt" height="223pt"
 viewBox="0.00 0.00 415.50 222.88" xmlns="http://www.w3.org/2000/svg" xmlns:xlink="http://www.w3.org/1999/xlink">

<svg id="main" version="1.1" xmlns="http://www.w3.org/2000/svg" xmlns:xlink="http://www.w3.org/1999/xlink" xml:space="preserve" onload="init(evt)">
<style type="text/css"><![CDATA[
.node, .edge {opacity: 0.7;}
.node.selected, .edge.selected {opacity: 1;}
.edge:hover path { stroke: red; }
.edge:hover polygon { stroke: red; fill: red; }
]]></style>
<script type="application/ecmascript" xlink:href="../../svg.min.js"/>
<svg id="graph" class="graph">
<g id="graph0" class="graph" transform="scale(1 1) rotate(0) translate(4 218.88)">
<title>main</title>
<!-- Node1 -->
<g id="Node000001" class="node">
<title>Node1</title>
<g id="a_Node000001"><a xlink:title="Main function.">
<polygon fill="#999999" stroke="#666666" points="37,-122.88 0,-122.88 0,-103.62 37,-103.62 37,-122.88"/>
<text text-anchor="middle" x="18.5" y="-109.38" font-family="Helvetica,sans-Serif" font-size="10.00">main</text>
</a>
</g>
</g>
<!-- Node2 -->
<g id="Node000002" class="node">
<title>Node2</title>
<g id="a_Node000002"><a xlink:href="../../d6/d05/reverse__a__linked__list_8cpp.html#aa8dca7b867074164d5f45b0f3851269d" target="_top" xlink:title="Self&#45;test implementations.">
<polygon fill="white" stroke="#666666" points="105.5,-122.88 73,-122.88 73,-103.62 105.5,-103.62 105.5,-122.88"/>
<text text-anchor="middle" x="89.25" y="-109.38" font-family="Helvetica,sans-Serif" font-size="10.00">test</text>
</a>
</g>
</g>
<!-- Node1&#45;&gt;Node2 -->
<g id="edge1_Node000001_Node000002" class="edge">
<title>Node1&#45;&gt;Node2</title>
<g id="a_edge1_Node000001_Node000002"><a xlink:title=" ">
<path fill="none" stroke="#63b8ff" d="M37.2,-113.25C44.58,-113.25 53.31,-113.25 61.45,-113.25"/>
<polygon fill="#63b8ff" stroke="#63b8ff" points="61.2,-116.75 71.2,-113.25 61.2,-109.75 61.2,-116.75"/>
</a>
</g>
</g>
<!-- Node3 -->
<g id="Node000003" class="node">
<title>Node3</title>
<g id="a_Node000003"><a target="_blank" xlink:href="http://en.cppreference.com/w/cpp/io/manip/endl.html#" xlink:title=" ">
<polygon fill="white" stroke="#666666" points="225.75,-214.88 172.25,-214.88 172.25,-195.62 225.75,-195.62 225.75,-214.88"/>
<text text-anchor="middle" x="199" y="-201.38" font-family="Helvetica,sans-Serif" font-size="10.00">std::endl</text>
</a>
</g>
</g>
<!-- Node2&#45;&gt;Node3 -->
<g id="edge2_Node000002_Node000003" class="edge">
<title>Node2&#45;&gt;Node3</title>
<g id="a_edge2_Node000002_Node000003"><a xlink:title=" ">
<path fill="none" stroke="#63b8ff" d="M94.71,-123.28C102.18,-138.95 118.67,-169.2 141.5,-186.25 147.32,-190.6 154.2,-193.99 161.12,-196.63"/>
<polygon fill="#63b8ff" stroke="#63b8ff" points="159.85,-199.89 170.44,-199.69 162.04,-193.24 159.85,-199.89"/>
</a>
</g>
</g>
<!-- Node4 -->
<g id="Node000004" class="node">
<title>Node4</title>
<g id="a_Node000004"><a xlink:href="../../d1/def/classdata__structures_1_1linked__list_1_1list.html#a4649fc2c5d09dc58608cd9299db9946f" target="_top" xlink:title="Utility function that adds a new element at the end of the list.">
<polygon fill="white" stroke="#666666" points="256.5,-177.5 141.5,-177.5 141.5,-147 256.5,-147 256.5,-177.5"/>
<text text-anchor="start" x="149.5" y="-164" font-family="Helvetica,sans-Serif" font-size="10.00">data_structures::linked</text>
<text text-anchor="middle" x="199" y="-152.75" font-family="Helvetica,sans-Serif" font-size="10.00">_list::list::insert</text>
</a>
</g>
</g>
<!-- Node2&#45;&gt;Node4 -->
<g id="edge3_Node000002_Node000004" class="edge">
<title>Node2&#45;&gt;Node4</title>
<g id="a_edge3_Node000002_Node000004"><a xlink:title=" ">
<path fill="none" stroke="#63b8ff" d="M105.91,-120.69C116.04,-125.47 129.52,-131.79 141.5,-137.25 144.97,-138.83 148.57,-140.46 152.2,-142.08"/>
<polygon fill="#63b8ff" stroke="#63b8ff" points="150.44,-145.13 161,-146.01 153.3,-138.74 150.44,-145.13"/>
</a>
</g>
</g>
<!-- Node7 -->
<g id="Node000007" class="node">
<title>Node7</title>
<g id="a_Node000007"><a xlink:href="../../d1/def/classdata__structures_1_1linked__list_1_1list.html#a8b20ca89a0346c8d4193936481528c70" target="_top" xlink:title="Utility function for reversing a list.">
<polygon fill="white" stroke="#666666" points="256.5,-128.5 141.5,-128.5 141.5,-98 256.5,-98 256.5,-128.5"/>
<text text-anchor="start" x="149.5" y="-115" font-family="Helvetica,sans-Serif" font-size="10.00">data_structures::linked</text>
<text text-anchor="middle" x="199" y="-103.75" font-family="Helvetica,sans-Serif" font-size="10.00">_list::list::reverseList</text>
</a>
</g>
</g>
<!-- Node2&#45;&gt;Node7 -->
<g id="edge6_Node000002_Node000007" class="edge">
<title>Node2&#45;&gt;Node7</title>
<g id="a_edge6_Node000002_Node000007"><a xlink:title=" ">
<path fill="none" stroke="#63b8ff" d="M105.69,-113.25C112.47,-113.25 120.95,-113.25 130.01,-113.25"/>
<polygon fill="#63b8ff" stroke="#63b8ff" points="129.75,-116.75 139.75,-113.25 129.75,-109.75 129.75,-116.75"/>
</a>
</g>
</g>
<!-- Node8 -->
<g id="Node000008" class="node">
<title>Node8</title>
<g id="a_Node000008"><a xlink:href="../../d1/def/classdata__structures_1_1linked__list_1_1list.html#a89ad00dbd262e2527129813b53e16f81" target="_top" xlink:title="Utility function to find the top element of the list.">
<polygon fill="white" stroke="#666666" points="256.5,-79.5 141.5,-79.5 141.5,-49 256.5,-49 256.5,-79.5"/>
<text text-anchor="start" x="149.5" y="-66" font-family="Helvetica,sans-Serif" font-size="10.00">data_structures::linked</text>
<text text-anchor="middle" x="199" y="-54.75" font-family="Helvetica,sans-Serif" font-size="10.00">_list::list::top</text>
</a>
</g>
</g>
<!-- Node2&#45;&gt;Node8 -->
<g id="edge7_Node000002_Node000008" class="edge">
<title>Node2&#45;&gt;Node8</title>
<g id="a_edge7_Node000002_Node000008"><a xlink:title=" ">
<path fill="none" stroke="#63b8ff" d="M105.91,-105.81C116.04,-101.03 129.52,-94.71 141.5,-89.25 144.97,-87.67 148.57,-86.04 152.2,-84.42"/>
<polygon fill="#63b8ff" stroke="#63b8ff" points="153.3,-87.76 161,-80.49 150.44,-81.37 153.3,-87.76"/>
</a>
</g>
</g>
<!-- Node9 -->
<g id="Node000009" class="node">
<title>Node9</title>
<g id="a_Node000009"><a xlink:href="../../d1/def/classdata__structures_1_1linked__list_1_1list.html#aaca3be50a2a81bf3308d202a6dcee91a" target="_top" xlink:title="Utility function to find the i th element of the list.">
<polygon fill="white" stroke="#666666" points="256.5,-30.5 141.5,-30.5 141.5,0 256.5,0 256.5,-30.5"/>
<text text-anchor="start" x="149.5" y="-17" font-family="Helvetica,sans-Serif" font-size="10.00">data_structures::linked</text>
<text text-anchor="middle" x="199" y="-5.75" font-family="Helvetica,sans-Serif" font-size="10.00">_list::list::traverse</text>
</a>
</g>
</g>
<!-- Node2&#45;&gt;Node9 -->
<g id="edge9_Node000002_Node000009" class="edge">
<title>Node2&#45;&gt;Node9</title>
<g id="a_edge9_Node000002_Node000009"><a xlink:title=" ">
<path fill="none" stroke="#63b8ff" d="M95.03,-103.22C102.82,-87.81 119.6,-58.24 141.5,-40.25 142.95,-39.06 144.47,-37.91 146.04,-36.81"/>
<polygon fill="#63b8ff" stroke="#63b8ff" points="147.51,-40.02 154.18,-31.78 143.83,-34.06 147.51,-40.02"/>
</a>
</g>
</g>
<!-- Node5 -->
<g id="Node000005" class="node">
<title>Node5</title>
<g id="a_Node000005"><a xlink:href="../../d1/def/classdata__structures_1_1linked__list_1_1list.html#ae8424a4fce3d483f7c85d6f6a5c79a1a" target="_top" xlink:title=" ">
<polygon fill="white" stroke="#666666" points="407.5,-107.5 292.5,-107.5 292.5,-77 407.5,-77 407.5,-107.5"/>
<text text-anchor="start" x="300.5" y="-94" font-family="Helvetica,sans-Serif" font-size="10.00">data_structures::linked</text>
<text text-anchor="middle" x="350" y="-82.75" font-family="Helvetica,sans-Serif" font-size="10.00">_list::list::isEmpty</text>
</a>
</g>
</g>
<!-- Node4&#45;&gt;Node5 -->
<g id="edge4_Node000004_Node000005" class="edge">
<title>Node4&#45;&gt;Node5</title>
<g id="a_edge4_Node000004_Node000005"><a xlink:title=" ">
<path fill="none" stroke="#63b8ff" d="M235.95,-146.57C242.8,-143.53 249.88,-140.32 256.5,-137.25 273.24,-129.48 291.54,-120.64 307.42,-112.88"/>
<polygon fill="#63b8ff" stroke="#63b8ff" points="308.66,-116.16 316.1,-108.61 305.58,-109.88 308.66,-116.16"/>
</a>
</g>
</g>
<!-- Node6 -->
<g id="Node000006" class="node">
<title>Node6</title>
<g id="a_Node000006"><a target="_blank" xlink:href="http://en.cppreference.com/w/cpp/error/exception/what.html#" xlink:title=" ">
<polygon fill="white" stroke="#666666" points="401.88,-171.88 298.12,-171.88 298.12,-152.62 401.88,-152.62 401.88,-171.88"/>
<text text-anchor="middle" x="350" y="-158.38" font-family="Helvetica,sans-Serif" font-size="10.00">std::bad_alloc::what</text>
</a>
</g>
</g>
<!-- Node4&#45;&gt;Node6 -->
<g id="edge5_Node000004_Node000006" class="edge">
<title>Node4&#45;&gt;Node6</title>
<g id="a_edge5_Node000004_Node000006"><a xlink:title=" ">
<path fill="none" stroke="#63b8ff" d="M256.76,-162.25C266.45,-162.25 276.57,-162.25 286.41,-162.25"/>
<polygon fill="#63b8ff" stroke="#63b8ff" points="286.26,-165.75 296.26,-162.25 286.26,-158.75 286.26,-165.75"/>
</a>
</g>
</g>
<!-- Node8&#45;&gt;Node5 -->
<g id="edge8_Node000008_Node000005" class="edge">
<title>Node8&#45;&gt;Node5</title>
<g id="a_edge8_Node000008_Node000005"><a xlink:title=" ">
<path fill="none" stroke="#63b8ff" d="M256.76,-74.92C264.78,-76.42 273.11,-77.99 281.31,-79.53"/>
<polygon fill="#63b8ff" stroke="#63b8ff" points="280.44,-82.93 290.91,-81.33 281.73,-76.05 280.44,-82.93"/>
</a>
</g>
</g>
</g>
</svg>
</svg>

<style type='text/css'>
<![CDATA[
[data-mouse-over-selected='false'] { opacity: 0.7; }
[data-mouse-over-selected='true']  { opacity: 1.0; }
]]>
</style>
<script type="application/ecmascript"><![CDATA[
document.addEventListener('DOMContentLoaded', (event) => {
  highlightEdges();
  highlightAdjacentNodes();
});
]]></script>
</svg>
