<?xml version="1.0" encoding="UTF-8" standalone="no"?>
<!DOCTYPE svg PUBLIC "-//W3C//DTD SVG 1.1//EN"
 "http://www.w3.org/Graphics/SVG/1.1/DTD/svg11.dtd">
<!-- Generated by graphviz version 7.1.0 (20230121.1956)
 -->
<!-- Title: main Pages: 1 -->
<svg width="232pt" height="64pt"
 viewBox="0.00 0.00 232.00 64.00" xmlns="http://www.w3.org/2000/svg" xmlns:xlink="http://www.w3.org/1999/xlink">
<g id="graph0" class="graph" transform="scale(1 1) rotate(0) translate(4 60)">
<title>main</title>
<!-- Node1 -->
<g id="node1" class="node">
<title>Node1</title>
<g id="a_node1"><a xlink:title=" ">
<polygon fill="#999999" stroke="#666666" points="38,-37 0,-37 0,-18 38,-18 38,-37"/>
<text text-anchor="middle" x="19" y="-25" font-family="Helvetica,sans-Serif" font-size="10.00">main</text>
</a>
</g>
</g>
<!-- Node2 -->
<g id="node2" class="node">
<title>Node2</title>
<g id="a_node2"><a xlink:href="../../db/d07/spiral__print_8cpp.html#acfff36db81326fb990a643ab198ee8a5" target="_top" xlink:title=" ">
<polygon fill="white" stroke="#666666" points="132,-56 76,-56 76,-37 132,-37 132,-56"/>
<text text-anchor="middle" x="104" y="-44" font-family="Helvetica,sans-Serif" font-size="10.00">genArray</text>
</a>
</g>
</g>
<!-- Node1&#45;&gt;Node2 -->
<g id="edge1" class="edge">
<title>Node1&#45;&gt;Node2</title>
<path fill="none" stroke="#63b8ff" d="M38.42,-31.72C46.23,-33.5 55.64,-35.66 64.83,-37.76"/>
<polygon fill="#63b8ff" stroke="#63b8ff" points="63.8,-41.12 74.33,-39.94 65.36,-34.29 63.8,-41.12"/>
</g>
<!-- Node4 -->
<g id="node4" class="node">
<title>Node4</title>
<g id="a_node4"><a xlink:href="../../db/d07/spiral__print_8cpp.html#a850d3f55e1a8d227176cdcc67352c197" target="_top" xlink:title=" ">
<polygon fill="white" stroke="#666666" points="134,-19 74,-19 74,0 134,0 134,-19"/>
<text text-anchor="middle" x="104" y="-7" font-family="Helvetica,sans-Serif" font-size="10.00">spiralPrint</text>
</a>
</g>
</g>
<!-- Node1&#45;&gt;Node4 -->
<g id="edge3" class="edge">
<title>Node1&#45;&gt;Node4</title>
<path fill="none" stroke="#63b8ff" d="M38.42,-23.51C45.59,-21.95 54.11,-20.1 62.58,-18.27"/>
<polygon fill="#63b8ff" stroke="#63b8ff" points="63.04,-21.75 72.07,-16.21 61.55,-14.91 63.04,-21.75"/>
</g>
<!-- Node3 -->
<g id="node3" class="node">
<title>Node3</title>
<g id="a_node3"><a target="_blank" xlink:href="http://en.cppreference.com/w/cpp/io/manip/endl.html#" xlink:title=" ">
<polygon fill="white" stroke="#666666" points="224,-56 170,-56 170,-37 224,-37 224,-56"/>
<text text-anchor="middle" x="197" y="-44" font-family="Helvetica,sans-Serif" font-size="10.00">std::endl</text>
</a>
</g>
</g>
<!-- Node2&#45;&gt;Node3 -->
<g id="edge2" class="edge">
<title>Node2&#45;&gt;Node3</title>
<path fill="none" stroke="#63b8ff" d="M132.3,-46.5C140.44,-46.5 149.5,-46.5 158.18,-46.5"/>
<polygon fill="#63b8ff" stroke="#63b8ff" points="158.14,-50 168.14,-46.5 158.14,-43 158.14,-50"/>
</g>
</g>
</svg>
