<?xml version="1.0" encoding="UTF-8" standalone="no"?>
<!DOCTYPE svg PUBLIC "-//W3C//DTD SVG 1.1//EN"
 "http://www.w3.org/Graphics/SVG/1.1/DTD/svg11.dtd">
<!-- Generated by graphviz version 8.0.4 (20230421.1958)
 -->
<!-- Title: main Pages: 1 -->
<svg width="230pt" height="64pt"
 viewBox="0.00 0.00 230.00 64.25" xmlns="http://www.w3.org/2000/svg" xmlns:xlink="http://www.w3.org/1999/xlink">
<g id="graph0" class="graph" transform="scale(1 1) rotate(0) translate(4 60.25)">
<title>main</title>
<!-- Node1 -->
<g id="node1" class="node">
<title>Node1</title>
<g id="a_node1"><a xlink:title=" ">
<polygon fill="#999999" stroke="#666666" points="37,-37.25 0,-37.25 0,-18 37,-18 37,-37.25"/>
<text text-anchor="middle" x="18.5" y="-23.75" font-family="Helvetica,sans-Serif" font-size="10.00">main</text>
</a>
</g>
</g>
<!-- Node2 -->
<g id="node2" class="node">
<title>Node2</title>
<g id="a_node2"><a xlink:href="../../db/d07/spiral__print_8cpp.html#acfff36db81326fb990a643ab198ee8a5" target="_top" xlink:title=" ">
<polygon fill="white" stroke="#666666" points="130.25,-56.25 75.25,-56.25 75.25,-37 130.25,-37 130.25,-56.25"/>
<text text-anchor="middle" x="102.75" y="-42.75" font-family="Helvetica,sans-Serif" font-size="10.00">genArray</text>
</a>
</g>
</g>
<!-- Node1&#45;&gt;Node2 -->
<g id="edge1" class="edge">
<title>Node1&#45;&gt;Node2</title>
<path fill="none" stroke="#63b8ff" d="M37.35,-31.75C45.31,-33.59 55.01,-35.83 64.44,-38.01"/>
<polygon fill="#63b8ff" stroke="#63b8ff" points="63.34,-41.57 73.87,-40.42 64.91,-34.75 63.34,-41.57"/>
</g>
<!-- Node4 -->
<g id="node4" class="node">
<title>Node4</title>
<g id="a_node4"><a xlink:href="../../db/d07/spiral__print_8cpp.html#a850d3f55e1a8d227176cdcc67352c197" target="_top" xlink:title=" ">
<polygon fill="white" stroke="#666666" points="132.5,-19.25 73,-19.25 73,0 132.5,0 132.5,-19.25"/>
<text text-anchor="middle" x="102.75" y="-5.75" font-family="Helvetica,sans-Serif" font-size="10.00">spiralPrint</text>
</a>
</g>
</g>
<!-- Node1&#45;&gt;Node4 -->
<g id="edge3" class="edge">
<title>Node1&#45;&gt;Node4</title>
<path fill="none" stroke="#63b8ff" d="M37.35,-23.72C44.67,-22.12 53.46,-20.19 62.16,-18.29"/>
<polygon fill="#63b8ff" stroke="#63b8ff" points="62.6,-21.56 71.62,-16 61.1,-14.72 62.6,-21.56"/>
</g>
<!-- Node3 -->
<g id="node3" class="node">
<title>Node3</title>
<g id="a_node3"><a target="_blank" xlink:href="http://en.cppreference.com/w/cpp/io/manip/endl.html#" xlink:title=" ">
<polygon fill="white" stroke="#666666" points="222,-56.25 168.5,-56.25 168.5,-37 222,-37 222,-56.25"/>
<text text-anchor="middle" x="195.25" y="-42.75" font-family="Helvetica,sans-Serif" font-size="10.00">std::endl</text>
</a>
</g>
</g>
<!-- Node2&#45;&gt;Node3 -->
<g id="edge2" class="edge">
<title>Node2&#45;&gt;Node3</title>
<path fill="none" stroke="#63b8ff" d="M130.41,-46.62C138.77,-46.62 148.15,-46.62 157.1,-46.62"/>
<polygon fill="#63b8ff" stroke="#63b8ff" points="157.09,-50.13 167.09,-46.62 157.09,-43.13 157.09,-50.13"/>
</g>
</g>
</svg>
