<?xml version="1.0" encoding="UTF-8" standalone="no"?>
<!DOCTYPE svg PUBLIC "-//W3C//DTD SVG 1.1//EN"
 "http://www.w3.org/Graphics/SVG/1.1/DTD/svg11.dtd">
<!-- Generated by graphviz version 12.1.1 (20240910.0053)
 -->
<!-- Title: tests Pages: 1 -->
<svg width="464pt" height="212pt"
 viewBox="0.00 0.00 463.50 212.25" xmlns="http://www.w3.org/2000/svg" xmlns:xlink="http://www.w3.org/1999/xlink">

<svg id="main" version="1.1" xmlns="http://www.w3.org/2000/svg" xmlns:xlink="http://www.w3.org/1999/xlink" xml:space="preserve">

<style type="text/css"><![CDATA[
.node, .edge {opacity: 0.7;}
.node.selected, .edge.selected {opacity: 1;}
.edge:hover path { stroke: red; }
.edge:hover polygon { stroke: red; fill: red; }
]]></style>
<script type="application/ecmascript" xlink:href="../../svg.min.js"/>
<svg id="graph" class="graph">
<g id="graph0" class="graph" transform="scale(1 1) rotate(0) translate(4 208.25)">
<title>tests</title>
<!-- Node1 -->
<g id="Node000001" class="node">
<title>Node1</title>
<g id="a_Node000001"><a xlink:title="Self&#45;test implementations.">
<polygon fill="#999999" stroke="#666666" points="37.75,-148.25 0,-148.25 0,-129 37.75,-129 37.75,-148.25"/>
<text text-anchor="middle" x="18.88" y="-134.75" font-family="Helvetica,sans-Serif" font-size="10.00">tests</text>
</a>
</g>
</g>
<!-- Node2 -->
<g id="Node000002" class="node">
<title>Node2</title>
<g id="a_Node000002"><a target="_blank" xlink:href="http://en.cppreference.com/w/cpp/iterator/begin.html#" xlink:title=" ">
<polygon fill="white" stroke="#666666" points="167.75,-204.25 109,-204.25 109,-185 167.75,-185 167.75,-204.25"/>
<text text-anchor="middle" x="138.38" y="-190.75" font-family="Helvetica,sans-Serif" font-size="10.00">std::begin</text>
</a>
</g>
</g>
<!-- Node1&#45;&gt;Node2 -->
<g id="edge1_Node000001_Node000002" class="edge">
<title>Node1&#45;&gt;Node2</title>
<g id="a_edge1_Node000001_Node000002"><a xlink:title=" ">
<path fill="none" stroke="#63b8ff" d="M31.55,-148.64C42,-157.14 58.05,-169.14 73.75,-176.62 81.3,-180.23 89.71,-183.24 97.87,-185.7"/>
<polygon fill="#63b8ff" stroke="#63b8ff" points="96.72,-189.01 107.3,-188.32 98.6,-182.27 96.72,-189.01"/>
</a>
</g>
</g>
<!-- Node3 -->
<g id="Node000003" class="node">
<title>Node3</title>
<g id="a_Node000003"><a target="_blank" xlink:href="http://en.cppreference.com/w/cpp/iterator/end.html#" xlink:title=" ">
<polygon fill="white" stroke="#666666" points="164,-167.25 112.75,-167.25 112.75,-148 164,-148 164,-167.25"/>
<text text-anchor="middle" x="138.38" y="-153.75" font-family="Helvetica,sans-Serif" font-size="10.00">std::end</text>
</a>
</g>
</g>
<!-- Node1&#45;&gt;Node3 -->
<g id="edge2_Node000001_Node000003" class="edge">
<title>Node1&#45;&gt;Node3</title>
<g id="a_edge2_Node000001_Node000003"><a xlink:title=" ">
<path fill="none" stroke="#63b8ff" d="M38.23,-141.59C55.04,-144.31 80.39,-148.41 101.25,-151.78"/>
<polygon fill="#63b8ff" stroke="#63b8ff" points="100.68,-155.24 111.11,-153.38 101.79,-148.33 100.68,-155.24"/>
</a>
</g>
</g>
<!-- Node4 -->
<g id="Node000004" class="node">
<title>Node4</title>
<g id="a_Node000004"><a target="_blank" xlink:href="http://en.cppreference.com/w/cpp/algorithm/is_sorted.html#" xlink:title=" ">
<polygon fill="white" stroke="#666666" points="176,-130.25 100.75,-130.25 100.75,-111 176,-111 176,-130.25"/>
<text text-anchor="middle" x="138.38" y="-116.75" font-family="Helvetica,sans-Serif" font-size="10.00">std::is_sorted</text>
</a>
</g>
</g>
<!-- Node1&#45;&gt;Node4 -->
<g id="edge3_Node000001_Node000004" class="edge">
<title>Node1&#45;&gt;Node4</title>
<g id="a_edge3_Node000001_Node000004"><a xlink:title=" ">
<path fill="none" stroke="#63b8ff" d="M38.23,-135.81C51.96,-133.71 71.39,-130.73 89.41,-127.97"/>
<polygon fill="#63b8ff" stroke="#63b8ff" points="89.83,-131.45 99.18,-126.48 88.77,-124.53 89.83,-131.45"/>
</a>
</g>
</g>
<!-- Node5 -->
<g id="Node000005" class="node">
<title>Node5</title>
<g id="a_Node000005"><a xlink:href="../../d5/d91/namespacesorting.html#a263595fd9a0163b5b997b89fab3a0dc5" target="_top" xlink:title="The main sorting function.">
<polygon fill="white" stroke="#666666" points="203,-93.25 73.75,-93.25 73.75,-74 203,-74 203,-93.25"/>
<text text-anchor="middle" x="138.38" y="-79.75" font-family="Helvetica,sans-Serif" font-size="10.00">sorting::iterativeQuickSort</text>
</a>
</g>
</g>
<!-- Node1&#45;&gt;Node5 -->
<g id="edge4_Node000001_Node000005" class="edge">
<title>Node1&#45;&gt;Node5</title>
<g id="a_edge4_Node000001_Node000005"><a xlink:title=" ">
<path fill="none" stroke="#63b8ff" d="M32.01,-128.57C42.49,-120.32 58.34,-108.86 73.75,-101.62 77.02,-100.09 80.45,-98.66 83.96,-97.33"/>
<polygon fill="#63b8ff" stroke="#63b8ff" points="84.84,-100.73 93.15,-94.15 82.55,-94.11 84.84,-100.73"/>
</a>
</g>
</g>
<!-- Node6 -->
<g id="Node000006" class="node">
<title>Node6</title>
<g id="a_Node000006"><a xlink:href="../../d5/d91/namespacesorting.html#aac8f44b28b4aa96444383030b28f8b34" target="_top" xlink:title="The partition function sorts the array from start to end and uses the last element as the pivot.">
<polygon fill="white" stroke="#666666" points="325.12,-167.25 239.38,-167.25 239.38,-148 325.12,-148 325.12,-167.25"/>
<text text-anchor="middle" x="282.25" y="-153.75" font-family="Helvetica,sans-Serif" font-size="10.00">sorting::partition</text>
</a>
</g>
</g>
<!-- Node5&#45;&gt;Node6 -->
<g id="edge5_Node000005_Node000006" class="edge">
<title>Node5&#45;&gt;Node6</title>
<g id="a_edge5_Node000005_Node000006"><a xlink:title=" ">
<path fill="none" stroke="#63b8ff" d="M186.13,-93.69C192.02,-95.86 197.79,-98.48 203,-101.62 222.91,-113.67 219.9,-126.34 239,-139.62 240.35,-140.56 241.76,-141.47 243.2,-142.34"/>
<polygon fill="#63b8ff" stroke="#63b8ff" points="241.3,-145.29 251.78,-146.86 244.56,-139.1 241.3,-145.29"/>
</a>
</g>
</g>
<!-- Node8 -->
<g id="Node000008" class="node">
<title>Node8</title>
<g id="a_Node000008"><a xlink:href="../../d1/dc2/classstack.html#a3647fb4418890f19e0dc414b8092b8b0" target="_top" xlink:title=" ">
<polygon fill="white" stroke="#666666" points="313.12,-130.25 251.38,-130.25 251.38,-111 313.12,-111 313.12,-130.25"/>
<text text-anchor="middle" x="282.25" y="-116.75" font-family="Helvetica,sans-Serif" font-size="10.00">stack::pop</text>
</a>
</g>
</g>
<!-- Node5&#45;&gt;Node8 -->
<g id="edge7_Node000005_Node000008" class="edge">
<title>Node5&#45;&gt;Node8</title>
<g id="a_edge7_Node000005_Node000008"><a xlink:title=" ">
<path fill="none" stroke="#63b8ff" d="M178.14,-93.74C197.35,-98.74 220.54,-104.79 240.06,-109.88"/>
<polygon fill="#63b8ff" stroke="#63b8ff" points="239.05,-113.24 249.61,-112.37 240.82,-106.46 239.05,-113.24"/>
</a>
</g>
</g>
<!-- Node9 -->
<g id="Node000009" class="node">
<title>Node9</title>
<g id="a_Node000009"><a xlink:href="../../d1/dc2/classstack.html#a90df277532c23519aa7ac3c08ed90a1d" target="_top" xlink:title=" ">
<polygon fill="white" stroke="#666666" points="315.75,-93.25 248.75,-93.25 248.75,-74 315.75,-74 315.75,-93.25"/>
<text text-anchor="middle" x="282.25" y="-79.75" font-family="Helvetica,sans-Serif" font-size="10.00">stack::push</text>
</a>
</g>
</g>
<!-- Node5&#45;&gt;Node9 -->
<g id="edge8_Node000005_Node000009" class="edge">
<title>Node5&#45;&gt;Node9</title>
<g id="a_edge8_Node000005_Node000009"><a xlink:title=" ">
<path fill="none" stroke="#63b8ff" d="M203.26,-83.62C214.71,-83.62 226.41,-83.62 237.14,-83.62"/>
<polygon fill="#63b8ff" stroke="#63b8ff" points="236.84,-87.13 246.84,-83.63 236.84,-80.13 236.84,-87.13"/>
</a>
</g>
</g>
<!-- Node11 -->
<g id="Node000011" class="node">
<title>Node11</title>
<g id="a_Node000011"><a target="_blank" xlink:href="http://en.cppreference.com/w/cpp/container/vector/size.html#" xlink:title=" ">
<polygon fill="white" stroke="#666666" points="325.5,-56.25 239,-56.25 239,-37 325.5,-37 325.5,-56.25"/>
<text text-anchor="middle" x="282.25" y="-42.75" font-family="Helvetica,sans-Serif" font-size="10.00">std::vector::size</text>
</a>
</g>
</g>
<!-- Node5&#45;&gt;Node11 -->
<g id="edge10_Node000005_Node000011" class="edge">
<title>Node5&#45;&gt;Node11</title>
<g id="a_edge10_Node000005_Node000011"><a xlink:title=" ">
<path fill="none" stroke="#63b8ff" d="M178.14,-73.51C194.72,-69.19 214.27,-64.09 231.87,-59.5"/>
<polygon fill="#63b8ff" stroke="#63b8ff" points="232.27,-63.02 241.06,-57.11 230.5,-56.24 232.27,-63.02"/>
</a>
</g>
</g>
<!-- Node12 -->
<g id="Node000012" class="node">
<title>Node12</title>
<g id="a_Node000012"><a xlink:href="../../d1/dc2/classstack.html#ae09630c4384903d187801921b2ddc709" target="_top" xlink:title=" ">
<polygon fill="white" stroke="#666666" points="312,-19.25 252.5,-19.25 252.5,0 312,0 312,-19.25"/>
<text text-anchor="middle" x="282.25" y="-5.75" font-family="Helvetica,sans-Serif" font-size="10.00">stack::top</text>
</a>
</g>
</g>
<!-- Node5&#45;&gt;Node12 -->
<g id="edge11_Node000005_Node000012" class="edge">
<title>Node5&#45;&gt;Node12</title>
<g id="a_edge11_Node000005_Node000012"><a xlink:title=" ">
<path fill="none" stroke="#63b8ff" d="M156,-73.54C175.53,-61.86 209.09,-42.35 239,-27.62 241.27,-26.51 243.62,-25.39 246,-24.3"/>
<polygon fill="#63b8ff" stroke="#63b8ff" points="247.37,-27.52 255.09,-20.26 244.53,-21.12 247.37,-27.52"/>
</a>
</g>
</g>
<!-- Node7 -->
<g id="Node000007" class="node">
<title>Node7</title>
<g id="a_Node000007"><a target="_blank" xlink:href="http://en.cppreference.com/w/cpp/algorithm/swap.html#" xlink:title=" ">
<polygon fill="white" stroke="#666666" points="437.88,-167.25 379.12,-167.25 379.12,-148 437.88,-148 437.88,-167.25"/>
<text text-anchor="middle" x="408.5" y="-153.75" font-family="Helvetica,sans-Serif" font-size="10.00">std::swap</text>
</a>
</g>
</g>
<!-- Node6&#45;&gt;Node7 -->
<g id="edge6_Node000006_Node000007" class="edge">
<title>Node6&#45;&gt;Node7</title>
<g id="a_edge6_Node000006_Node000007"><a xlink:title=" ">
<path fill="none" stroke="#63b8ff" d="M325.32,-157.62C338.93,-157.62 353.98,-157.62 367.44,-157.62"/>
<polygon fill="#63b8ff" stroke="#63b8ff" points="367.28,-161.13 377.28,-157.63 367.28,-154.13 367.28,-161.13"/>
</a>
</g>
</g>
<!-- Node10 -->
<g id="Node000010" class="node">
<title>Node10</title>
<g id="a_Node000010"><a target="_blank" xlink:href="http://en.cppreference.com/w/cpp/memory/shared_ptr/make_shared.html#" xlink:title=" ">
<polygon fill="white" stroke="#666666" points="455.5,-93.25 361.5,-93.25 361.5,-74 455.5,-74 455.5,-93.25"/>
<text text-anchor="middle" x="408.5" y="-79.75" font-family="Helvetica,sans-Serif" font-size="10.00">std::make_shared</text>
</a>
</g>
</g>
<!-- Node9&#45;&gt;Node10 -->
<g id="edge9_Node000009_Node000010" class="edge">
<title>Node9&#45;&gt;Node10</title>
<g id="a_edge9_Node000009_Node000010"><a xlink:title=" ">
<path fill="none" stroke="#63b8ff" d="M316.22,-83.62C326.57,-83.62 338.32,-83.62 349.86,-83.62"/>
<polygon fill="#63b8ff" stroke="#63b8ff" points="349.76,-87.13 359.76,-83.63 349.76,-80.13 349.76,-87.13"/>
</a>
</g>
</g>
</g>
</svg>
</svg>

<style type='text/css'>
<![CDATA[
[data-mouse-over-selected='false'] { opacity: 0.7; }
[data-mouse-over-selected='true']  { opacity: 1.0; }
]]>
</style>
<script type="application/ecmascript"><![CDATA[
document.addEventListener('DOMContentLoaded', (event) => {
  highlightEdges();
  highlightAdjacentNodes();
});
]]></script>
</svg>
