<?xml version="1.0" encoding="UTF-8" standalone="no"?>
<!DOCTYPE svg PUBLIC "-//W3C//DTD SVG 1.1//EN"
 "http://www.w3.org/Graphics/SVG/1.1/DTD/svg11.dtd">
<!-- Generated by graphviz version 6.0.1 (20220911.1526)
 -->
<!-- Title: test_get_elements_preorder Pages: 1 -->
<svg width="438pt" height="142pt"
 viewBox="0.00 0.00 438.00 141.50" xmlns="http://www.w3.org/2000/svg" xmlns:xlink="http://www.w3.org/1999/xlink">
<g id="graph0" class="graph" transform="scale(1 1) rotate(0) translate(4 137.5)">
<title>test_get_elements_preorder</title>
<!-- Node1 -->
<g id="node1" class="node">
<title>Node1</title>
<g id="a_node1"><a xlink:title="Function for testing get_elements_preorder().">
<polygon fill="#999999" stroke="#666666" points="137,-90.5 0,-90.5 0,-71.5 137,-71.5 137,-90.5"/>
<text text-anchor="middle" x="68.5" y="-78.5" font-family="Helvetica,sans-Serif" font-size="10.00">test_get_elements_preorder</text>
</a>
</g>
</g>
<!-- Node2 -->
<g id="node2" class="node">
<title>Node2</title>
<g id="a_node2"><a target="_blank" xlink:href="http://en.cppreference.com/w/cpp/io/manip/endl.html#" xlink:title=" ">
<polygon fill="white" stroke="#666666" points="261,-133.5 207,-133.5 207,-114.5 261,-114.5 261,-133.5"/>
<text text-anchor="middle" x="234" y="-121.5" font-family="Helvetica,sans-Serif" font-size="10.00">std::endl</text>
</a>
</g>
</g>
<!-- Node1&#45;&gt;Node2 -->
<g id="edge1" class="edge">
<title>Node1&#45;&gt;Node2</title>
<path fill="none" stroke="#63b8ff" d="M105.79,-90.54C132.98,-97.7 170.02,-107.44 197.12,-114.56"/>
<polygon fill="#63b8ff" stroke="#63b8ff" points="196.41,-118 206.97,-117.16 198.19,-111.23 196.41,-118"/>
</g>
<!-- Node3 -->
<g id="node3" class="node">
<title>Node3</title>
<g id="a_node3"><a xlink:href="../../d9/dde/classbinary__search__tree.html#a5764c1cf848f84a5b77462036a6d8c13" target="_top" xlink:title="Get all values of the BST in pre&#45;order order.">
<polygon fill="white" stroke="#666666" points="295,-96 173,-96 173,-66 295,-66 295,-96"/>
<text text-anchor="start" x="181" y="-84" font-family="Helvetica,sans-Serif" font-size="10.00">binary_search_tree</text>
<text text-anchor="middle" x="234" y="-73" font-family="Helvetica,sans-Serif" font-size="10.00">::get_elements_preorder</text>
</a>
</g>
</g>
<!-- Node1&#45;&gt;Node3 -->
<g id="edge2" class="edge">
<title>Node1&#45;&gt;Node3</title>
<path fill="none" stroke="#63b8ff" d="M137.42,-81C145.78,-81 154.33,-81 162.73,-81"/>
<polygon fill="#63b8ff" stroke="#63b8ff" points="162.86,-84.5 172.86,-81 162.86,-77.5 162.86,-84.5"/>
</g>
<!-- Node5 -->
<g id="node5" class="node">
<title>Node5</title>
<g id="a_node5"><a xlink:href="../../d9/dde/classbinary__search__tree.html#a9d1e7e10efa74d741bf48cf032df3778" target="_top" xlink:title="Recursive function to insert a value into the BST.">
<polygon fill="white" stroke="#666666" points="283.5,-30 184.5,-30 184.5,0 283.5,0 283.5,-30"/>
<text text-anchor="start" x="192.5" y="-18" font-family="Helvetica,sans-Serif" font-size="10.00">binary_search_tree</text>
<text text-anchor="middle" x="234" y="-7" font-family="Helvetica,sans-Serif" font-size="10.00">::insert</text>
</a>
</g>
</g>
<!-- Node1&#45;&gt;Node5 -->
<g id="edge5" class="edge">
<title>Node1&#45;&gt;Node5</title>
<path fill="none" stroke="#63b8ff" d="M93.27,-71.4C117.49,-61.63 155.69,-46.21 186.03,-33.96"/>
<polygon fill="#63b8ff" stroke="#63b8ff" points="187.61,-37.1 195.58,-30.11 184.99,-30.6 187.61,-37.1"/>
</g>
<!-- Node4 -->
<g id="node4" class="node">
<title>Node4</title>
<g id="a_node4"><a xlink:href="../../d9/dde/classbinary__search__tree.html#ab81edd415324d372632c42dc7dbcb9e1" target="_top" xlink:title="Recursive function to traverse the tree in pre&#45;order order.">
<polygon fill="white" stroke="#666666" points="430,-96 331,-96 331,-66 430,-66 430,-96"/>
<text text-anchor="start" x="339" y="-84" font-family="Helvetica,sans-Serif" font-size="10.00">binary_search_tree</text>
<text text-anchor="middle" x="380.5" y="-73" font-family="Helvetica,sans-Serif" font-size="10.00">::traverse_preorder</text>
</a>
</g>
</g>
<!-- Node3&#45;&gt;Node4 -->
<g id="edge3" class="edge">
<title>Node3&#45;&gt;Node4</title>
<path fill="none" stroke="#63b8ff" d="M295.03,-81C303.52,-81 312.24,-81 320.7,-81"/>
<polygon fill="#63b8ff" stroke="#63b8ff" points="320.87,-84.5 330.87,-81 320.87,-77.5 320.87,-84.5"/>
</g>
<!-- Node4&#45;&gt;Node4 -->
<g id="edge4" class="edge">
<title>Node4&#45;&gt;Node4</title>
<path fill="none" stroke="#63b8ff" d="M354.75,-96.28C349.03,-105.41 357.61,-114 380.5,-114 394.09,-114 402.64,-110.97 406.14,-106.6"/>
<polygon fill="#63b8ff" stroke="#63b8ff" points="409.65,-106.31 406.25,-96.28 402.65,-106.24 409.65,-106.31"/>
</g>
<!-- Node5&#45;&gt;Node5 -->
<g id="edge6" class="edge">
<title>Node5&#45;&gt;Node5</title>
<path fill="none" stroke="#63b8ff" d="M208.25,-30.28C202.53,-39.41 211.11,-48 234,-48 247.59,-48 256.14,-44.97 259.64,-40.6"/>
<polygon fill="#63b8ff" stroke="#63b8ff" points="263.15,-40.31 259.75,-30.28 256.15,-40.24 263.15,-40.31"/>
</g>
</g>
</svg>
