<?xml version="1.0" encoding="UTF-8" standalone="no"?>
<!DOCTYPE svg PUBLIC "-//W3C//DTD SVG 1.1//EN"
 "http://www.w3.org/Graphics/SVG/1.1/DTD/svg11.dtd">
<!-- Generated by graphviz version 5.0.1 (20220820.1526)
 -->
<!-- Title: test_insert Pages: 1 -->
<svg width="205pt" height="274pt"
 viewBox="0.00 0.00 205.00 273.50" xmlns="http://www.w3.org/2000/svg" xmlns:xlink="http://www.w3.org/1999/xlink">
<g id="graph0" class="graph" transform="scale(1 1) rotate(0) translate(4 269.5)">
<title>test_insert</title>
<!-- Node1 -->
<g id="node1" class="node">
<title>Node1</title>
<g id="a_node1"><a xlink:title="Function for testing insert().">
<polygon fill="#999999" stroke="#666666" points="62,-138.5 0,-138.5 0,-119.5 62,-119.5 62,-138.5"/>
<text text-anchor="middle" x="31" y="-126.5" font-family="Helvetica,sans-Serif" font-size="10.00">test_insert</text>
</a>
</g>
</g>
<!-- Node2 -->
<g id="node2" class="node">
<title>Node2</title>
<g id="a_node2"><a target="_blank" xlink:href="http://en.cppreference.com/w/cpp/io/manip/endl.html#" xlink:title=" ">
<polygon fill="white" stroke="#666666" points="174.5,-265.5 120.5,-265.5 120.5,-246.5 174.5,-246.5 174.5,-265.5"/>
<text text-anchor="middle" x="147.5" y="-253.5" font-family="Helvetica,sans-Serif" font-size="10.00">std::endl</text>
</a>
</g>
</g>
<!-- Node1&#45;&gt;Node2 -->
<g id="edge1" class="edge">
<title>Node1&#45;&gt;Node2</title>
<path fill="none" stroke="#63b8ff" d="M35.49,-138.81C43.41,-159.73 64.66,-209.04 98,-237 101.83,-240.21 106.26,-242.92 110.86,-245.19"/>
<polygon fill="#63b8ff" stroke="#63b8ff" points="109.82,-248.55 120.39,-249.27 112.57,-242.12 109.82,-248.55"/>
</g>
<!-- Node3 -->
<g id="node3" class="node">
<title>Node3</title>
<g id="a_node3"><a xlink:href="../../d9/dde/classbinary__search__tree.html#a75f897af6aa732a9901454401c869bcb" target="_top" xlink:title="Recursive function to find the maximum value in the BST.">
<polygon fill="white" stroke="#666666" points="197,-210 98,-210 98,-180 197,-180 197,-210"/>
<text text-anchor="start" x="106" y="-198" font-family="Helvetica,sans-Serif" font-size="10.00">binary_search_tree</text>
<text text-anchor="middle" x="147.5" y="-187" font-family="Helvetica,sans-Serif" font-size="10.00">::find_max</text>
</a>
</g>
</g>
<!-- Node1&#45;&gt;Node3 -->
<g id="edge2" class="edge">
<title>Node1&#45;&gt;Node3</title>
<path fill="none" stroke="#63b8ff" d="M46.15,-138.63C59.33,-147.45 79.66,-160.67 98,-171 100.53,-172.43 103.16,-173.86 105.83,-175.28"/>
<polygon fill="#63b8ff" stroke="#63b8ff" points="104.45,-178.5 114.94,-179.99 107.67,-172.29 104.45,-178.5"/>
</g>
<!-- Node4 -->
<g id="node4" class="node">
<title>Node4</title>
<g id="a_node4"><a xlink:href="../../d9/dde/classbinary__search__tree.html#af9a2c7c187a7ca3142c77ce342ef3153" target="_top" xlink:title="Recursive function to find the minimum value in the BST.">
<polygon fill="white" stroke="#666666" points="197,-144 98,-144 98,-114 197,-114 197,-144"/>
<text text-anchor="start" x="106" y="-132" font-family="Helvetica,sans-Serif" font-size="10.00">binary_search_tree</text>
<text text-anchor="middle" x="147.5" y="-121" font-family="Helvetica,sans-Serif" font-size="10.00">::find_min</text>
</a>
</g>
</g>
<!-- Node1&#45;&gt;Node4 -->
<g id="edge4" class="edge">
<title>Node1&#45;&gt;Node4</title>
<path fill="none" stroke="#63b8ff" d="M62.08,-129C69.89,-129 78.58,-129 87.33,-129"/>
<polygon fill="#63b8ff" stroke="#63b8ff" points="87.58,-132.5 97.58,-129 87.58,-125.5 87.58,-132.5"/>
</g>
<!-- Node5 -->
<g id="node5" class="node">
<title>Node5</title>
<g id="a_node5"><a xlink:href="../../d9/dde/classbinary__search__tree.html#a9d1e7e10efa74d741bf48cf032df3778" target="_top" xlink:title="Recursive function to insert a value into the BST.">
<polygon fill="white" stroke="#666666" points="197,-78 98,-78 98,-48 197,-48 197,-78"/>
<text text-anchor="start" x="106" y="-66" font-family="Helvetica,sans-Serif" font-size="10.00">binary_search_tree</text>
<text text-anchor="middle" x="147.5" y="-55" font-family="Helvetica,sans-Serif" font-size="10.00">::insert</text>
</a>
</g>
</g>
<!-- Node1&#45;&gt;Node5 -->
<g id="edge6" class="edge">
<title>Node1&#45;&gt;Node5</title>
<path fill="none" stroke="#63b8ff" d="M48.89,-119.26C65.26,-109.83 90.58,-95.24 111.32,-83.28"/>
<polygon fill="#63b8ff" stroke="#63b8ff" points="113.28,-86.19 120.19,-78.17 109.78,-80.13 113.28,-86.19"/>
</g>
<!-- Node6 -->
<g id="node6" class="node">
<title>Node6</title>
<g id="a_node6"><a xlink:href="../../d9/dde/classbinary__search__tree.html#a564fe43e7e8f7ecb6f10667a70fbc6f3" target="_top" xlink:title="Get the number of values in the BST.">
<polygon fill="white" stroke="#666666" points="197,-30 98,-30 98,0 197,0 197,-30"/>
<text text-anchor="start" x="106" y="-18" font-family="Helvetica,sans-Serif" font-size="10.00">binary_search_tree</text>
<text text-anchor="middle" x="147.5" y="-7" font-family="Helvetica,sans-Serif" font-size="10.00">::size</text>
</a>
</g>
</g>
<!-- Node1&#45;&gt;Node6 -->
<g id="edge8" class="edge">
<title>Node1&#45;&gt;Node6</title>
<path fill="none" stroke="#63b8ff" d="M36.97,-119.42C46.63,-101.59 69.52,-62.93 98,-39 99.36,-37.86 100.78,-36.75 102.25,-35.69"/>
<polygon fill="#63b8ff" stroke="#63b8ff" points="104.56,-38.36 111.07,-30.01 100.77,-32.48 104.56,-38.36"/>
</g>
<!-- Node3&#45;&gt;Node3 -->
<g id="edge3" class="edge">
<title>Node3&#45;&gt;Node3</title>
<path fill="none" stroke="#63b8ff" d="M127.11,-210.28C122.58,-219.41 129.38,-228 147.5,-228 158.26,-228 165.03,-224.97 167.8,-220.6"/>
<polygon fill="#63b8ff" stroke="#63b8ff" points="171.31,-220.3 167.89,-210.28 164.31,-220.25 171.31,-220.3"/>
</g>
<!-- Node4&#45;&gt;Node4 -->
<g id="edge5" class="edge">
<title>Node4&#45;&gt;Node4</title>
<path fill="none" stroke="#63b8ff" d="M127.11,-144.28C122.58,-153.41 129.38,-162 147.5,-162 158.26,-162 165.03,-158.97 167.8,-154.6"/>
<polygon fill="#63b8ff" stroke="#63b8ff" points="171.31,-154.3 167.89,-144.28 164.31,-154.25 171.31,-154.3"/>
</g>
<!-- Node5&#45;&gt;Node5 -->
<g id="edge7" class="edge">
<title>Node5&#45;&gt;Node5</title>
<path fill="none" stroke="#63b8ff" d="M127.11,-78.28C122.58,-87.41 129.38,-96 147.5,-96 158.26,-96 165.03,-92.97 167.8,-88.6"/>
<polygon fill="#63b8ff" stroke="#63b8ff" points="171.31,-88.3 167.89,-78.28 164.31,-88.25 171.31,-88.3"/>
</g>
</g>
</svg>
