<?xml version="1.0" encoding="UTF-8" standalone="no"?>
<!DOCTYPE svg PUBLIC "-//W3C//DTD SVG 1.1//EN"
 "http://www.w3.org/Graphics/SVG/1.1/DTD/svg11.dtd">
<!-- Generated by graphviz version 7.0.4 (20221203.1631)
 -->
<!-- Title: test_remove Pages: 1 -->
<svg width="349pt" height="378pt"
 viewBox="0.00 0.00 349.00 378.00" xmlns="http://www.w3.org/2000/svg" xmlns:xlink="http://www.w3.org/1999/xlink">
<g id="graph0" class="graph" transform="scale(1 1) rotate(0) translate(4 374)">
<title>test_remove</title>
<!-- Node1 -->
<g id="node1" class="node">
<title>Node1</title>
<g id="a_node1"><a xlink:title="Function for testing remove().">
<polygon fill="#999999" stroke="#666666" points="71,-204.5 0,-204.5 0,-185.5 71,-185.5 71,-204.5"/>
<text text-anchor="middle" x="35.5" y="-192.5" font-family="Helvetica,sans-Serif" font-size="10.00">test_remove</text>
</a>
</g>
</g>
<!-- Node2 -->
<g id="node2" class="node">
<title>Node2</title>
<g id="a_node2"><a xlink:href="../../d9/dde/classbinary__search__tree.html#aa4f84b2eec9b9201af1840868ddb5fb2" target="_top" xlink:title="Recursive function to check if a value is in the BST.">
<polygon fill="white" stroke="#666666" points="206,-352 107,-352 107,-322 206,-322 206,-352"/>
<text text-anchor="start" x="115" y="-340" font-family="Helvetica,sans-Serif" font-size="10.00">binary_search_tree</text>
<text text-anchor="middle" x="156.5" y="-329" font-family="Helvetica,sans-Serif" font-size="10.00">::contains</text>
</a>
</g>
</g>
<!-- Node1&#45;&gt;Node2 -->
<g id="edge1" class="edge">
<title>Node1&#45;&gt;Node2</title>
<path fill="none" stroke="#63b8ff" d="M40.11,-204.82C48.63,-226.81 71.94,-280.61 107,-313 107.75,-313.7 108.53,-314.38 109.33,-315.04"/>
<polygon fill="#63b8ff" stroke="#63b8ff" points="107.12,-317.76 117.3,-320.7 111.17,-312.06 107.12,-317.76"/>
</g>
<!-- Node3 -->
<g id="node3" class="node">
<title>Node3</title>
<g id="a_node3"><a target="_blank" xlink:href="http://en.cppreference.com/w/cpp/io/manip/endl.html#" xlink:title=" ">
<polygon fill="white" stroke="#666666" points="183.5,-303.5 129.5,-303.5 129.5,-284.5 183.5,-284.5 183.5,-303.5"/>
<text text-anchor="middle" x="156.5" y="-291.5" font-family="Helvetica,sans-Serif" font-size="10.00">std::endl</text>
</a>
</g>
</g>
<!-- Node1&#45;&gt;Node3 -->
<g id="edge3" class="edge">
<title>Node1&#45;&gt;Node3</title>
<path fill="none" stroke="#63b8ff" d="M43.82,-204.81C55.72,-220.24 80.59,-250.42 107,-270 111.39,-273.26 116.29,-276.27 121.24,-278.99"/>
<polygon fill="#63b8ff" stroke="#63b8ff" points="119.48,-282.02 129.98,-283.44 122.66,-275.78 119.48,-282.02"/>
</g>
<!-- Node4 -->
<g id="node4" class="node">
<title>Node4</title>
<g id="a_node4"><a xlink:href="../../d9/dde/classbinary__search__tree.html#a75f897af6aa732a9901454401c869bcb" target="_top" xlink:title="Recursive function to find the maximum value in the BST.">
<polygon fill="white" stroke="#666666" points="341,-196 242,-196 242,-166 341,-166 341,-196"/>
<text text-anchor="start" x="250" y="-184" font-family="Helvetica,sans-Serif" font-size="10.00">binary_search_tree</text>
<text text-anchor="middle" x="291.5" y="-173" font-family="Helvetica,sans-Serif" font-size="10.00">::find_max</text>
</a>
</g>
</g>
<!-- Node1&#45;&gt;Node4 -->
<g id="edge4" class="edge">
<title>Node1&#45;&gt;Node4</title>
<path fill="none" stroke="#63b8ff" d="M48.54,-204.97C61.88,-215.31 84.47,-230.8 107,-237 149.42,-248.68 163.87,-249.69 206,-237 227.97,-230.38 249.49,-215.97 265.31,-203.43"/>
<polygon fill="#63b8ff" stroke="#63b8ff" points="267.26,-206.35 272.76,-197.3 262.81,-200.95 267.26,-206.35"/>
</g>
<!-- Node5 -->
<g id="node5" class="node">
<title>Node5</title>
<g id="a_node5"><a xlink:href="../../d9/dde/classbinary__search__tree.html#af9a2c7c187a7ca3142c77ce342ef3153" target="_top" xlink:title="Recursive function to find the minimum value in the BST.">
<polygon fill="white" stroke="#666666" points="206,-210 107,-210 107,-180 206,-180 206,-210"/>
<text text-anchor="start" x="115" y="-198" font-family="Helvetica,sans-Serif" font-size="10.00">binary_search_tree</text>
<text text-anchor="middle" x="156.5" y="-187" font-family="Helvetica,sans-Serif" font-size="10.00">::find_min</text>
</a>
</g>
</g>
<!-- Node1&#45;&gt;Node5 -->
<g id="edge6" class="edge">
<title>Node1&#45;&gt;Node5</title>
<path fill="none" stroke="#63b8ff" d="M71.24,-195C78.88,-195 87.18,-195 95.5,-195"/>
<polygon fill="#63b8ff" stroke="#63b8ff" points="95.27,-198.5 105.27,-195 95.27,-191.5 95.27,-198.5"/>
</g>
<!-- Node6 -->
<g id="node6" class="node">
<title>Node6</title>
<g id="a_node6"><a xlink:href="../../d9/dde/classbinary__search__tree.html#a9d1e7e10efa74d741bf48cf032df3778" target="_top" xlink:title="Recursive function to insert a value into the BST.">
<polygon fill="white" stroke="#666666" points="206,-144 107,-144 107,-114 206,-114 206,-144"/>
<text text-anchor="start" x="115" y="-132" font-family="Helvetica,sans-Serif" font-size="10.00">binary_search_tree</text>
<text text-anchor="middle" x="156.5" y="-121" font-family="Helvetica,sans-Serif" font-size="10.00">::insert</text>
</a>
</g>
</g>
<!-- Node1&#45;&gt;Node6 -->
<g id="edge8" class="edge">
<title>Node1&#45;&gt;Node6</title>
<path fill="none" stroke="#63b8ff" d="M54.32,-185.12C71.03,-175.85 96.57,-161.68 117.81,-149.91"/>
<polygon fill="#63b8ff" stroke="#63b8ff" points="119.46,-152.99 126.5,-145.08 116.06,-146.87 119.46,-152.99"/>
</g>
<!-- Node7 -->
<g id="node7" class="node">
<title>Node7</title>
<g id="a_node7"><a xlink:href="../../d9/dde/classbinary__search__tree.html#af4a865ce5244608819b169fc78a41153" target="_top" xlink:title="Recursive function to remove a value from the BST.">
<polygon fill="white" stroke="#666666" points="206,-78 107,-78 107,-48 206,-48 206,-78"/>
<text text-anchor="start" x="115" y="-66" font-family="Helvetica,sans-Serif" font-size="10.00">binary_search_tree</text>
<text text-anchor="middle" x="156.5" y="-55" font-family="Helvetica,sans-Serif" font-size="10.00">::remove</text>
</a>
</g>
</g>
<!-- Node1&#45;&gt;Node7 -->
<g id="edge10" class="edge">
<title>Node1&#45;&gt;Node7</title>
<path fill="none" stroke="#63b8ff" d="M43.33,-185.04C55.31,-167.9 81.27,-132.03 107,-105 113.37,-98.31 120.71,-91.54 127.71,-85.45"/>
<polygon fill="#63b8ff" stroke="#63b8ff" points="129.8,-88.27 135.16,-79.14 125.27,-82.93 129.8,-88.27"/>
</g>
<!-- Node9 -->
<g id="node9" class="node">
<title>Node9</title>
<g id="a_node9"><a xlink:href="../../d9/dde/classbinary__search__tree.html#a564fe43e7e8f7ecb6f10667a70fbc6f3" target="_top" xlink:title="Get the number of values in the BST.">
<polygon fill="white" stroke="#666666" points="206,-30 107,-30 107,0 206,0 206,-30"/>
<text text-anchor="start" x="115" y="-18" font-family="Helvetica,sans-Serif" font-size="10.00">binary_search_tree</text>
<text text-anchor="middle" x="156.5" y="-7" font-family="Helvetica,sans-Serif" font-size="10.00">::size</text>
</a>
</g>
</g>
<!-- Node1&#45;&gt;Node9 -->
<g id="edge14" class="edge">
<title>Node1&#45;&gt;Node9</title>
<path fill="none" stroke="#63b8ff" d="M38.48,-185.29C44.36,-158.66 64.06,-83.47 107,-39 107.59,-38.39 108.19,-37.8 108.82,-37.21"/>
<polygon fill="#63b8ff" stroke="#63b8ff" points="110.71,-40.17 116.48,-31.29 106.43,-34.63 110.71,-40.17"/>
</g>
<!-- Node2&#45;&gt;Node2 -->
<g id="edge2" class="edge">
<title>Node2&#45;&gt;Node2</title>
<path fill="none" stroke="#63b8ff" d="M135.23,-352.28C130.5,-361.41 137.59,-370 156.5,-370 166.84,-370 173.64,-367.43 176.92,-363.61"/>
<polygon fill="#63b8ff" stroke="#63b8ff" points="180.39,-364.02 177.66,-353.78 173.41,-363.49 180.39,-364.02"/>
</g>
<!-- Node4&#45;&gt;Node4 -->
<g id="edge5" class="edge">
<title>Node4&#45;&gt;Node4</title>
<path fill="none" stroke="#63b8ff" d="M267.77,-196.28C262.5,-205.41 270.41,-214 291.5,-214 303.04,-214 310.63,-211.43 314.28,-207.61"/>
<polygon fill="#63b8ff" stroke="#63b8ff" points="317.75,-208.04 315.1,-197.78 310.78,-207.46 317.75,-208.04"/>
</g>
<!-- Node5&#45;&gt;Node5 -->
<g id="edge7" class="edge">
<title>Node5&#45;&gt;Node5</title>
<path fill="none" stroke="#63b8ff" d="M135.23,-210.28C130.5,-219.41 137.59,-228 156.5,-228 166.84,-228 173.64,-225.43 176.92,-221.61"/>
<polygon fill="#63b8ff" stroke="#63b8ff" points="180.39,-222.02 177.66,-211.78 173.41,-221.49 180.39,-222.02"/>
</g>
<!-- Node6&#45;&gt;Node6 -->
<g id="edge9" class="edge">
<title>Node6&#45;&gt;Node6</title>
<path fill="none" stroke="#63b8ff" d="M135.23,-144.28C130.5,-153.41 137.59,-162 156.5,-162 166.84,-162 173.64,-159.43 176.92,-155.61"/>
<polygon fill="#63b8ff" stroke="#63b8ff" points="180.39,-156.02 177.66,-145.78 173.41,-155.49 180.39,-156.02"/>
</g>
<!-- Node7&#45;&gt;Node4 -->
<g id="edge11" class="edge">
<title>Node7&#45;&gt;Node4</title>
<path fill="none" stroke="#63b8ff" d="M175.54,-78.48C184.7,-86.37 195.98,-96.16 206,-105 226.16,-122.79 248.79,-143.17 265.56,-158.35"/>
<polygon fill="#63b8ff" stroke="#63b8ff" points="262.87,-160.63 272.63,-164.75 267.57,-155.44 262.87,-160.63"/>
</g>
<!-- Node7&#45;&gt;Node7 -->
<g id="edge13" class="edge">
<title>Node7&#45;&gt;Node7</title>
<path fill="none" stroke="#63b8ff" d="M135.23,-78.28C130.5,-87.41 137.59,-96 156.5,-96 166.84,-96 173.64,-93.43 176.92,-89.61"/>
<polygon fill="#63b8ff" stroke="#63b8ff" points="180.39,-90.02 177.66,-79.78 173.41,-89.49 180.39,-90.02"/>
</g>
<!-- Node8 -->
<g id="node8" class="node">
<title>Node8</title>
<g id="a_node8"><a target="_blank" xlink:href="http://en.cppreference.com/w/cpp/utility/move.html#" xlink:title=" ">
<polygon fill="white" stroke="#666666" points="321.5,-72.5 261.5,-72.5 261.5,-53.5 321.5,-53.5 321.5,-72.5"/>
<text text-anchor="middle" x="291.5" y="-60.5" font-family="Helvetica,sans-Serif" font-size="10.00">std::move</text>
</a>
</g>
</g>
<!-- Node7&#45;&gt;Node8 -->
<g id="edge12" class="edge">
<title>Node7&#45;&gt;Node8</title>
<path fill="none" stroke="#63b8ff" d="M206.27,-63C220.63,-63 236.19,-63 249.98,-63"/>
<polygon fill="#63b8ff" stroke="#63b8ff" points="249.56,-66.5 259.56,-63 249.56,-59.5 249.56,-66.5"/>
</g>
</g>
</svg>
