<?xml version="1.0" encoding="UTF-8" standalone="no"?>
<!DOCTYPE svg PUBLIC "-//W3C//DTD SVG 1.1//EN"
 "http://www.w3.org/Graphics/SVG/1.1/DTD/svg11.dtd">
<!-- Generated by graphviz version 2.47.3 (20210619.1520)
 -->
<!-- Title: test_find_min Pages: 1 -->
<svg width="218pt" height="127pt"
 viewBox="0.00 0.00 218.00 126.50" xmlns="http://www.w3.org/2000/svg" xmlns:xlink="http://www.w3.org/1999/xlink">
<g id="graph0" class="graph" transform="scale(1 1) rotate(0) translate(4 122.5)">
<title>test_find_min</title>
<polygon fill="white" stroke="transparent" points="-4,4 -4,-122.5 214,-122.5 214,4 -4,4"/>
<!-- Node1 -->
<g id="node1" class="node">
<title>Node1</title>
<g id="a_node1"><a xlink:title="Function for testing find_min().">
<polygon fill="#bfbfbf" stroke="black" points="0,-55 0,-74 75,-74 75,-55 0,-55"/>
<text text-anchor="middle" x="37.5" y="-62" font-family="Helvetica,sans-Serif" font-size="10.00">test_find_min</text>
</a>
</g>
</g>
<!-- Node2 -->
<g id="node2" class="node">
<title>Node2</title>
<g id="a_node2"><a target="_blank" xlink:href="http://en.cppreference.com/w/cpp/io/manip/endl.html#" xlink:title=" ">
<polygon fill="white" stroke="black" points="133.5,-99 133.5,-118 187.5,-118 187.5,-99 133.5,-99"/>
<text text-anchor="middle" x="160.5" y="-106" font-family="Helvetica,sans-Serif" font-size="10.00">std::endl</text>
</a>
</g>
</g>
<!-- Node1&#45;&gt;Node2 -->
<g id="edge1" class="edge">
<title>Node1&#45;&gt;Node2</title>
<path fill="none" stroke="midnightblue" d="M64.76,-74.05C82.04,-80.33 104.88,-88.64 123.81,-95.52"/>
<polygon fill="midnightblue" stroke="midnightblue" points="122.7,-98.84 133.3,-98.97 125.09,-92.26 122.7,-98.84"/>
</g>
<!-- Node3 -->
<g id="node3" class="node">
<title>Node3</title>
<g id="a_node3"><a xlink:href="../../d9/dde/classbinary__search__tree.html#af9a2c7c187a7ca3142c77ce342ef3153" target="_top" xlink:title="Recursive function to find the minimum value in the BST.">
<polygon fill="white" stroke="black" points="111,-49.5 111,-79.5 210,-79.5 210,-49.5 111,-49.5"/>
<text text-anchor="start" x="119" y="-67.5" font-family="Helvetica,sans-Serif" font-size="10.00">binary_search_tree</text>
<text text-anchor="middle" x="160.5" y="-56.5" font-family="Helvetica,sans-Serif" font-size="10.00">::find_min</text>
</a>
</g>
</g>
<!-- Node1&#45;&gt;Node3 -->
<g id="edge2" class="edge">
<title>Node1&#45;&gt;Node3</title>
<path fill="none" stroke="midnightblue" d="M75.13,-64.5C83.23,-64.5 92.01,-64.5 100.74,-64.5"/>
<polygon fill="midnightblue" stroke="midnightblue" points="100.92,-68 110.92,-64.5 100.92,-61 100.92,-68"/>
</g>
<!-- Node4 -->
<g id="node4" class="node">
<title>Node4</title>
<g id="a_node4"><a xlink:href="../../d9/dde/classbinary__search__tree.html#a9d1e7e10efa74d741bf48cf032df3778" target="_top" xlink:title="Recursive function to insert a value into the BST.">
<polygon fill="white" stroke="black" points="111,-0.5 111,-30.5 210,-30.5 210,-0.5 111,-0.5"/>
<text text-anchor="start" x="119" y="-18.5" font-family="Helvetica,sans-Serif" font-size="10.00">binary_search_tree</text>
<text text-anchor="middle" x="160.5" y="-7.5" font-family="Helvetica,sans-Serif" font-size="10.00">::insert</text>
</a>
</g>
</g>
<!-- Node1&#45;&gt;Node4 -->
<g id="edge3" class="edge">
<title>Node1&#45;&gt;Node4</title>
<path fill="none" stroke="midnightblue" d="M62.12,-54.94C76.51,-49.11 95.4,-41.46 112.71,-34.45"/>
<polygon fill="midnightblue" stroke="midnightblue" points="114.18,-37.63 122.13,-30.63 111.55,-31.14 114.18,-37.63"/>
</g>
</g>
</svg>
