<?xml version="1.0" encoding="UTF-8" standalone="no"?>
<!DOCTYPE svg PUBLIC "-//W3C//DTD SVG 1.1//EN"
 "http://www.w3.org/Graphics/SVG/1.1/DTD/svg11.dtd">
<!-- Generated by graphviz version 8.0.5 (20230430.1635)
 -->
<!-- Title: test_contains Pages: 1 -->
<svg width="217pt" height="161pt"
 viewBox="0.00 0.00 217.00 160.50" xmlns="http://www.w3.org/2000/svg" xmlns:xlink="http://www.w3.org/1999/xlink">
<g id="graph0" class="graph" transform="scale(1 1) rotate(0) translate(4 156.5)">
<title>test_contains</title>
<!-- Node1 -->
<g id="node1" class="node">
<title>Node1</title>
<g id="a_node1"><a xlink:title="Function for testing contains().">
<polygon fill="#999999" stroke="#666666" points="74.5,-85.88 0,-85.88 0,-66.62 74.5,-66.62 74.5,-85.88"/>
<text text-anchor="middle" x="37.25" y="-72.38" font-family="Helvetica,sans-Serif" font-size="10.00">test_contains</text>
</a>
</g>
</g>
<!-- Node2 -->
<g id="node2" class="node">
<title>Node2</title>
<g id="a_node2"><a xlink:href="../../d9/dde/classbinary__search__tree.html#aa4f84b2eec9b9201af1840868ddb5fb2" target="_top" xlink:title="Recursive function to check if a value is in the BST.">
<polygon fill="white" stroke="#666666" points="209,-134.5 110.5,-134.5 110.5,-104 209,-104 209,-134.5"/>
<text text-anchor="start" x="118.5" y="-121" font-family="Helvetica,sans-Serif" font-size="10.00">binary_search_tree</text>
<text text-anchor="middle" x="159.75" y="-109.75" font-family="Helvetica,sans-Serif" font-size="10.00">::contains</text>
</a>
</g>
</g>
<!-- Node1&#45;&gt;Node2 -->
<g id="edge1" class="edge">
<title>Node1&#45;&gt;Node2</title>
<path fill="none" stroke="#63b8ff" d="M66.5,-86.33C77.81,-90.37 91.23,-95.16 104.29,-99.82"/>
<polygon fill="#63b8ff" stroke="#63b8ff" points="103.05,-103.45 113.64,-103.51 105.4,-96.85 103.05,-103.45"/>
</g>
<!-- Node3 -->
<g id="node3" class="node">
<title>Node3</title>
<g id="a_node3"><a target="_blank" xlink:href="http://en.cppreference.com/w/cpp/io/manip/endl.html#" xlink:title=" ">
<polygon fill="white" stroke="#666666" points="186.5,-85.88 133,-85.88 133,-66.62 186.5,-66.62 186.5,-85.88"/>
<text text-anchor="middle" x="159.75" y="-72.38" font-family="Helvetica,sans-Serif" font-size="10.00">std::endl</text>
</a>
</g>
</g>
<!-- Node1&#45;&gt;Node3 -->
<g id="edge3" class="edge">
<title>Node1&#45;&gt;Node3</title>
<path fill="none" stroke="#63b8ff" d="M74.73,-76.25C89.63,-76.25 106.85,-76.25 121.8,-76.25"/>
<polygon fill="#63b8ff" stroke="#63b8ff" points="121.72,-79.75 131.72,-76.25 121.72,-72.75 121.72,-79.75"/>
</g>
<!-- Node4 -->
<g id="node4" class="node">
<title>Node4</title>
<g id="a_node4"><a xlink:href="../../d9/dde/classbinary__search__tree.html#a9d1e7e10efa74d741bf48cf032df3778" target="_top" xlink:title="Recursive function to insert a value into the BST.">
<polygon fill="white" stroke="#666666" points="209,-30.5 110.5,-30.5 110.5,0 209,0 209,-30.5"/>
<text text-anchor="start" x="118.5" y="-17" font-family="Helvetica,sans-Serif" font-size="10.00">binary_search_tree</text>
<text text-anchor="middle" x="159.75" y="-5.75" font-family="Helvetica,sans-Serif" font-size="10.00">::insert</text>
</a>
</g>
</g>
<!-- Node1&#45;&gt;Node4 -->
<g id="edge4" class="edge">
<title>Node1&#45;&gt;Node4</title>
<path fill="none" stroke="#63b8ff" d="M58.15,-66.18C74.46,-57.92 98.08,-45.96 118.34,-35.71"/>
<polygon fill="#63b8ff" stroke="#63b8ff" points="119.62,-38.47 126.96,-30.84 116.46,-32.23 119.62,-38.47"/>
</g>
<!-- Node2&#45;&gt;Node2 -->
<g id="edge2" class="edge">
<title>Node2&#45;&gt;Node2</title>
<path fill="none" stroke="#63b8ff" d="M138.04,-134.99C133.61,-144.06 140.85,-152.5 159.75,-152.5 170.38,-152.5 177.32,-149.83 180.57,-145.88"/>
<polygon fill="#63b8ff" stroke="#63b8ff" points="184.14,-146.24 181.46,-135.99 177.16,-145.67 184.14,-146.24"/>
</g>
<!-- Node4&#45;&gt;Node4 -->
<g id="edge5" class="edge">
<title>Node4&#45;&gt;Node4</title>
<path fill="none" stroke="#63b8ff" d="M138.04,-30.99C133.61,-40.06 140.85,-48.5 159.75,-48.5 170.38,-48.5 177.32,-45.83 180.57,-41.88"/>
<polygon fill="#63b8ff" stroke="#63b8ff" points="184.14,-42.24 181.46,-31.99 177.16,-41.67 184.14,-42.24"/>
</g>
</g>
</svg>
