<?xml version="1.0" encoding="UTF-8" standalone="no"?>
<!DOCTYPE svg PUBLIC "-//W3C//DTD SVG 1.1//EN"
 "http://www.w3.org/Graphics/SVG/1.1/DTD/svg11.dtd">
<!-- Generated by graphviz version 9.0.0 (20230911.1827)
 -->
<!-- Title: test_get_elements_preorder Pages: 1 -->
<svg width="436pt" height="143pt"
 viewBox="0.00 0.00 436.25 142.88" xmlns="http://www.w3.org/2000/svg" xmlns:xlink="http://www.w3.org/1999/xlink">

<svg id="main" version="1.1" xmlns="http://www.w3.org/2000/svg" xmlns:xlink="http://www.w3.org/1999/xlink" xml:space="preserve" onload="init(evt)">
<style type="text/css"><![CDATA[
.node, .edge {opacity: 0.7;}
.node.selected, .edge.selected {opacity: 1;}
.edge:hover path { stroke: red; }
.edge:hover polygon { stroke: red; fill: red; }
]]></style>
<script type="application/ecmascript" xlink:href="../../svg.min.js"/>
<svg id="graph" class="graph">
<g id="graph0" class="graph" transform="scale(1 1) rotate(0) translate(4 138.88)">
<title>test_get_elements_preorder</title>
<!-- Node1 -->
<g id="Node000001" class="node">
<title>Node1</title>
<g id="a_Node000001"><a xlink:title="Function for testing get_elements_preorder().">
<polygon fill="#999999" stroke="#666666" points="136.75,-91.88 0,-91.88 0,-72.62 136.75,-72.62 136.75,-91.88"/>
<text text-anchor="middle" x="68.38" y="-78.38" font-family="Helvetica,sans-Serif" font-size="10.00">test_get_elements_preorder</text>
</a>
</g>
</g>
<!-- Node2 -->
<g id="Node000002" class="node">
<title>Node2</title>
<g id="a_Node000002"><a target="_blank" xlink:href="http://en.cppreference.com/w/cpp/io/manip/endl.html#" xlink:title=" ">
<polygon fill="white" stroke="#666666" points="260,-134.88 206.5,-134.88 206.5,-115.62 260,-115.62 260,-134.88"/>
<text text-anchor="middle" x="233.25" y="-121.38" font-family="Helvetica,sans-Serif" font-size="10.00">std::endl</text>
</a>
</g>
</g>
<!-- Node1&#45;&gt;Node2 -->
<g id="edge1_Node000001_Node000002" class="edge">
<title>Node1&#45;&gt;Node2</title>
<g id="a_edge1_Node000001_Node000002"><a xlink:title=" ">
<path fill="none" stroke="#63b8ff" d="M107.56,-92.33C134.1,-99.34 169.27,-108.62 195.49,-115.54"/>
<polygon fill="#63b8ff" stroke="#63b8ff" points="194.46,-118.89 205.02,-118.06 196.25,-112.12 194.46,-118.89"/>
</a>
</g>
</g>
<!-- Node3 -->
<g id="Node000003" class="node">
<title>Node3</title>
<g id="a_Node000003"><a xlink:href="../../d9/dde/classbinary__search__tree.html#a5764c1cf848f84a5b77462036a6d8c13" target="_top" xlink:title="Get all values of the BST in pre&#45;order order.">
<polygon fill="white" stroke="#666666" points="293.75,-97.5 172.75,-97.5 172.75,-67 293.75,-67 293.75,-97.5"/>
<text text-anchor="start" x="180.75" y="-84" font-family="Helvetica,sans-Serif" font-size="10.00">binary_search_tree</text>
<text text-anchor="middle" x="233.25" y="-72.75" font-family="Helvetica,sans-Serif" font-size="10.00">::get_elements_preorder</text>
</a>
</g>
</g>
<!-- Node1&#45;&gt;Node3 -->
<g id="edge2_Node000001_Node000003" class="edge">
<title>Node1&#45;&gt;Node3</title>
<g id="a_edge2_Node000001_Node000003"><a xlink:title=" ">
<path fill="none" stroke="#63b8ff" d="M137.03,-82.25C144.9,-82.25 152.95,-82.25 160.87,-82.25"/>
<polygon fill="#63b8ff" stroke="#63b8ff" points="160.82,-85.75 170.82,-82.25 160.82,-78.75 160.82,-85.75"/>
</a>
</g>
</g>
<!-- Node5 -->
<g id="Node000005" class="node">
<title>Node5</title>
<g id="a_Node000005"><a xlink:href="../../d9/dde/classbinary__search__tree.html#a9d1e7e10efa74d741bf48cf032df3778" target="_top" xlink:title="Recursive function to insert a value into the BST.">
<polygon fill="white" stroke="#666666" points="282.5,-30.5 184,-30.5 184,0 282.5,0 282.5,-30.5"/>
<text text-anchor="start" x="192" y="-17" font-family="Helvetica,sans-Serif" font-size="10.00">binary_search_tree</text>
<text text-anchor="middle" x="233.25" y="-5.75" font-family="Helvetica,sans-Serif" font-size="10.00">::insert</text>
</a>
</g>
</g>
<!-- Node1&#45;&gt;Node5 -->
<g id="edge5_Node000001_Node000005" class="edge">
<title>Node1&#45;&gt;Node5</title>
<g id="a_edge5_Node000001_Node000005"><a xlink:title=" ">
<path fill="none" stroke="#63b8ff" d="M93.76,-72.22C117.39,-62.5 153.9,-47.48 183.51,-35.3"/>
<polygon fill="#63b8ff" stroke="#63b8ff" points="184.75,-38.58 192.66,-31.53 182.08,-32.1 184.75,-38.58"/>
</a>
</g>
</g>
<!-- Node4 -->
<g id="Node000004" class="node">
<title>Node4</title>
<g id="a_Node000004"><a xlink:href="../../d9/dde/classbinary__search__tree.html#ab81edd415324d372632c42dc7dbcb9e1" target="_top" xlink:title="Recursive function to traverse the tree in pre&#45;order order.">
<polygon fill="white" stroke="#666666" points="428.25,-97.5 329.75,-97.5 329.75,-67 428.25,-67 428.25,-97.5"/>
<text text-anchor="start" x="337.75" y="-84" font-family="Helvetica,sans-Serif" font-size="10.00">binary_search_tree</text>
<text text-anchor="middle" x="379" y="-72.75" font-family="Helvetica,sans-Serif" font-size="10.00">::traverse_preorder</text>
</a>
</g>
</g>
<!-- Node3&#45;&gt;Node4 -->
<g id="edge3_Node000003_Node000004" class="edge">
<title>Node3&#45;&gt;Node4</title>
<g id="a_edge3_Node000003_Node000004"><a xlink:title=" ">
<path fill="none" stroke="#63b8ff" d="M293.96,-82.25C301.95,-82.25 310.13,-82.25 318.12,-82.25"/>
<polygon fill="#63b8ff" stroke="#63b8ff" points="318.11,-85.75 328.11,-82.25 318.11,-78.75 318.11,-85.75"/>
</a>
</g>
</g>
<!-- Node4&#45;&gt;Node4 -->
<g id="edge4_Node000004_Node000004" class="edge">
<title>Node4&#45;&gt;Node4</title>
<g id="a_edge4_Node000004_Node000004"><a xlink:title=" ">
<path fill="none" stroke="#63b8ff" d="M353.17,-97.99C347.9,-107.06 356.51,-115.5 379,-115.5 391.3,-115.5 399.45,-112.97 403.44,-109.2"/>
<polygon fill="#63b8ff" stroke="#63b8ff" points="406.89,-109.84 404.64,-99.49 399.94,-108.98 406.89,-109.84"/>
</a>
</g>
</g>
<!-- Node5&#45;&gt;Node5 -->
<g id="edge6_Node000005_Node000005" class="edge">
<title>Node5&#45;&gt;Node5</title>
<g id="a_edge6_Node000005_Node000005"><a xlink:title=" ">
<path fill="none" stroke="#63b8ff" d="M207.42,-30.99C202.15,-40.06 210.76,-48.5 233.25,-48.5 245.55,-48.5 253.7,-45.97 257.69,-42.2"/>
<polygon fill="#63b8ff" stroke="#63b8ff" points="261.14,-42.84 258.89,-32.49 254.19,-41.98 261.14,-42.84"/>
</a>
</g>
</g>
</g>
</svg>
</svg>

<style type='text/css'>
<![CDATA[
[data-mouse-over-selected='false'] { opacity: 0.7; }
[data-mouse-over-selected='true']  { opacity: 1.0; }
]]>
</style>
<script type="application/ecmascript"><![CDATA[
document.addEventListener('DOMContentLoaded', (event) => {
  highlightEdges();
  highlightAdjacentNodes();
});
]]></script>
</svg>
