<?xml version="1.0" encoding="UTF-8" standalone="no"?>
<!DOCTYPE svg PUBLIC "-//W3C//DTD SVG 1.1//EN"
 "http://www.w3.org/Graphics/SVG/1.1/DTD/svg11.dtd">
<!-- Generated by graphviz version 6.0.1 (20220911.1526)
 -->
<!-- Title: test_contains Pages: 1 -->
<svg width="218pt" height="160pt"
 viewBox="0.00 0.00 218.00 160.00" xmlns="http://www.w3.org/2000/svg" xmlns:xlink="http://www.w3.org/1999/xlink">
<g id="graph0" class="graph" transform="scale(1 1) rotate(0) translate(4 156)">
<title>test_contains</title>
<!-- Node1 -->
<g id="node1" class="node">
<title>Node1</title>
<g id="a_node1"><a xlink:title="Function for testing contains().">
<polygon fill="#999999" stroke="#666666" points="75,-85.5 0,-85.5 0,-66.5 75,-66.5 75,-85.5"/>
<text text-anchor="middle" x="37.5" y="-73.5" font-family="Helvetica,sans-Serif" font-size="10.00">test_contains</text>
</a>
</g>
</g>
<!-- Node2 -->
<g id="node2" class="node">
<title>Node2</title>
<g id="a_node2"><a xlink:href="../../d9/dde/classbinary__search__tree.html#aa4f84b2eec9b9201af1840868ddb5fb2" target="_top" xlink:title="Recursive function to check if a value is in the BST.">
<polygon fill="white" stroke="#666666" points="210,-134 111,-134 111,-104 210,-104 210,-134"/>
<text text-anchor="start" x="119" y="-122" font-family="Helvetica,sans-Serif" font-size="10.00">binary_search_tree</text>
<text text-anchor="middle" x="160.5" y="-111" font-family="Helvetica,sans-Serif" font-size="10.00">::contains</text>
</a>
</g>
</g>
<!-- Node1&#45;&gt;Node2 -->
<g id="edge1" class="edge">
<title>Node1&#45;&gt;Node2</title>
<path fill="none" stroke="#63b8ff" d="M65.35,-85.54C77.8,-89.97 93.04,-95.38 107.6,-100.56"/>
<polygon fill="#63b8ff" stroke="#63b8ff" points="106.44,-103.86 117.04,-103.91 108.79,-97.26 106.44,-103.86"/>
</g>
<!-- Node3 -->
<g id="node3" class="node">
<title>Node3</title>
<g id="a_node3"><a target="_blank" xlink:href="http://en.cppreference.com/w/cpp/io/manip/endl.html#" xlink:title=" ">
<polygon fill="white" stroke="#666666" points="187.5,-85.5 133.5,-85.5 133.5,-66.5 187.5,-66.5 187.5,-85.5"/>
<text text-anchor="middle" x="160.5" y="-73.5" font-family="Helvetica,sans-Serif" font-size="10.00">std::endl</text>
</a>
</g>
</g>
<!-- Node1&#45;&gt;Node3 -->
<g id="edge3" class="edge">
<title>Node1&#45;&gt;Node3</title>
<path fill="none" stroke="#63b8ff" d="M75.13,-76C90.39,-76 108.06,-76 123.28,-76"/>
<polygon fill="#63b8ff" stroke="#63b8ff" points="123.36,-79.5 133.36,-76 123.36,-72.5 123.36,-79.5"/>
</g>
<!-- Node4 -->
<g id="node4" class="node">
<title>Node4</title>
<g id="a_node4"><a xlink:href="../../d9/dde/classbinary__search__tree.html#a9d1e7e10efa74d741bf48cf032df3778" target="_top" xlink:title="Recursive function to insert a value into the BST.">
<polygon fill="white" stroke="#666666" points="210,-30 111,-30 111,0 210,0 210,-30"/>
<text text-anchor="start" x="119" y="-18" font-family="Helvetica,sans-Serif" font-size="10.00">binary_search_tree</text>
<text text-anchor="middle" x="160.5" y="-7" font-family="Helvetica,sans-Serif" font-size="10.00">::insert</text>
</a>
</g>
</g>
<!-- Node1&#45;&gt;Node4 -->
<g id="edge4" class="edge">
<title>Node1&#45;&gt;Node4</title>
<path fill="none" stroke="#63b8ff" d="M57.41,-66.47C74.2,-58 99.27,-45.36 120.37,-34.73"/>
<polygon fill="#63b8ff" stroke="#63b8ff" points="122.08,-37.78 129.43,-30.16 118.93,-31.53 122.08,-37.78"/>
</g>
<!-- Node2&#45;&gt;Node2 -->
<g id="edge2" class="edge">
<title>Node2&#45;&gt;Node2</title>
<path fill="none" stroke="#63b8ff" d="M138.88,-134.28C134.07,-143.41 141.28,-152 160.5,-152 171.91,-152 179.09,-148.97 182.03,-144.6"/>
<polygon fill="#63b8ff" stroke="#63b8ff" points="185.53,-144.31 182.12,-134.28 178.53,-144.24 185.53,-144.31"/>
</g>
<!-- Node4&#45;&gt;Node4 -->
<g id="edge5" class="edge">
<title>Node4&#45;&gt;Node4</title>
<path fill="none" stroke="#63b8ff" d="M138.88,-30.28C134.07,-39.41 141.28,-48 160.5,-48 171.91,-48 179.09,-44.97 182.03,-40.6"/>
<polygon fill="#63b8ff" stroke="#63b8ff" points="185.53,-40.31 182.12,-30.28 178.53,-40.24 185.53,-40.31"/>
</g>
</g>
</svg>
