<?xml version="1.0" encoding="UTF-8" standalone="no"?>
<!DOCTYPE svg PUBLIC "-//W3C//DTD SVG 1.1//EN"
 "http://www.w3.org/Graphics/SVG/1.1/DTD/svg11.dtd">
<!-- Generated by graphviz version 2.49.3 (20211023.0002)
 -->
<!-- Title: test_find_max Pages: 1 -->
<svg width="225pt" height="163pt"
 viewBox="0.00 0.00 225.00 162.50" xmlns="http://www.w3.org/2000/svg" xmlns:xlink="http://www.w3.org/1999/xlink">
<g id="graph0" class="graph" transform="scale(1 1) rotate(0) translate(4 158.5)">
<title>test_find_max</title>
<polygon fill="white" stroke="transparent" points="-4,4 -4,-158.5 221,-158.5 221,4 -4,4"/>
<!-- Node1 -->
<g id="node1" class="node">
<title>Node1</title>
<g id="a_node1"><a xlink:title="Function for testing find_max().">
<polygon fill="#bfbfbf" stroke="black" points="0,-73 0,-92 79,-92 79,-73 0,-73"/>
<text text-anchor="middle" x="39.5" y="-80" font-family="Helvetica,sans-Serif" font-size="10.00">test_find_max</text>
</a>
</g>
</g>
<!-- Node2 -->
<g id="node2" class="node">
<title>Node2</title>
<g id="a_node2"><a target="_blank" xlink:href="http://en.cppreference.com/w/cpp/io/manip/endl.html#" xlink:title=" ">
<polygon fill="white" stroke="black" points="139,-135 139,-154 193,-154 193,-135 139,-135"/>
<text text-anchor="middle" x="166" y="-142" font-family="Helvetica,sans-Serif" font-size="10.00">std::endl</text>
</a>
</g>
</g>
<!-- Node1&#45;&gt;Node2 -->
<g id="edge1" class="edge">
<title>Node1&#45;&gt;Node2</title>
<path fill="none" stroke="midnightblue" d="M55.52,-92.13C70.3,-101.37 93.69,-115.38 115,-125.5 119.65,-127.71 124.63,-129.85 129.59,-131.85"/>
<polygon fill="midnightblue" stroke="midnightblue" points="128.39,-135.14 138.98,-135.51 130.93,-128.62 128.39,-135.14"/>
</g>
<!-- Node3 -->
<g id="node3" class="node">
<title>Node3</title>
<g id="a_node3"><a xlink:href="../../d9/dde/classbinary__search__tree.html#a75f897af6aa732a9901454401c869bcb" target="_top" xlink:title="Recursive function to find the maximum value in the BST.">
<polygon fill="white" stroke="black" points="115,-67.5 115,-97.5 217,-97.5 217,-67.5 115,-67.5"/>
<text text-anchor="start" x="123" y="-85.5" font-family="Helvetica,sans-Serif" font-size="10.00">binary_search_tree</text>
<text text-anchor="middle" x="166" y="-74.5" font-family="Helvetica,sans-Serif" font-size="10.00">::find_max</text>
</a>
</g>
</g>
<!-- Node1&#45;&gt;Node3 -->
<g id="edge2" class="edge">
<title>Node1&#45;&gt;Node3</title>
<path fill="none" stroke="midnightblue" d="M79.21,-82.5C87.32,-82.5 96.05,-82.5 104.73,-82.5"/>
<polygon fill="midnightblue" stroke="midnightblue" points="104.85,-86 114.85,-82.5 104.85,-79 104.85,-86"/>
</g>
<!-- Node4 -->
<g id="node4" class="node">
<title>Node4</title>
<g id="a_node4"><a xlink:href="../../d9/dde/classbinary__search__tree.html#a9d1e7e10efa74d741bf48cf032df3778" target="_top" xlink:title="Recursive function to insert a value into the BST.">
<polygon fill="white" stroke="black" points="115,-0.5 115,-30.5 217,-30.5 217,-0.5 115,-0.5"/>
<text text-anchor="start" x="123" y="-18.5" font-family="Helvetica,sans-Serif" font-size="10.00">binary_search_tree</text>
<text text-anchor="middle" x="166" y="-7.5" font-family="Helvetica,sans-Serif" font-size="10.00">::insert</text>
</a>
</g>
</g>
<!-- Node1&#45;&gt;Node4 -->
<g id="edge4" class="edge">
<title>Node1&#45;&gt;Node4</title>
<path fill="none" stroke="midnightblue" d="M58.34,-72.9C76.5,-63.13 105.19,-47.69 128.24,-35.28"/>
<polygon fill="midnightblue" stroke="midnightblue" points="129.94,-38.34 137.09,-30.52 126.62,-32.18 129.94,-38.34"/>
</g>
<!-- Node3&#45;&gt;Node3 -->
<g id="edge3" class="edge">
<title>Node3&#45;&gt;Node3</title>
<path fill="none" stroke="midnightblue" d="M144.04,-97.66C138.75,-107.06 146.07,-116 166,-116 178.15,-116 185.61,-112.68 188.39,-107.96"/>
<polygon fill="midnightblue" stroke="midnightblue" points="191.87,-107.5 187.96,-97.66 184.88,-107.8 191.87,-107.5"/>
</g>
<!-- Node4&#45;&gt;Node4 -->
<g id="edge5" class="edge">
<title>Node4&#45;&gt;Node4</title>
<path fill="none" stroke="midnightblue" d="M144.04,-30.66C138.75,-40.06 146.07,-49 166,-49 178.15,-49 185.61,-45.68 188.39,-40.96"/>
<polygon fill="midnightblue" stroke="midnightblue" points="191.87,-40.5 187.96,-30.66 184.88,-40.8 191.87,-40.5"/>
</g>
</g>
</svg>
