<?xml version="1.0" encoding="UTF-8" standalone="no"?>
<!DOCTYPE svg PUBLIC "-//W3C//DTD SVG 1.1//EN"
 "http://www.w3.org/Graphics/SVG/1.1/DTD/svg11.dtd">
<!-- Generated by graphviz version 9.0.0 (20230911.1827)
 -->
<!-- Title: test_remove Pages: 1 -->
<svg width="347pt" height="382pt"
 viewBox="0.00 0.00 347.00 381.50" xmlns="http://www.w3.org/2000/svg" xmlns:xlink="http://www.w3.org/1999/xlink">
<g id="graph0" class="graph" transform="scale(1 1) rotate(0) translate(4 377.5)">
<title>test_remove</title>
<!-- Node1 -->
<g id="Node000001" class="node">
<title>Node1</title>
<g id="a_Node000001"><a xlink:title="Function for testing remove().">
<polygon fill="#999999" stroke="#666666" points="70,-207.88 0,-207.88 0,-188.62 70,-188.62 70,-207.88"/>
<text text-anchor="middle" x="35" y="-194.38" font-family="Helvetica,sans-Serif" font-size="10.00">test_remove</text>
</a>
</g>
</g>
<!-- Node2 -->
<g id="Node000002" class="node">
<title>Node2</title>
<g id="a_Node000002"><a xlink:href="../../d9/dde/classbinary__search__tree.html#aa4f84b2eec9b9201af1840868ddb5fb2" target="_top" xlink:title="Recursive function to check if a value is in the BST.">
<polygon fill="white" stroke="#666666" points="204.5,-355.5 106,-355.5 106,-325 204.5,-325 204.5,-355.5"/>
<text text-anchor="start" x="114" y="-342" font-family="Helvetica,sans-Serif" font-size="10.00">binary_search_tree</text>
<text text-anchor="middle" x="155.25" y="-330.75" font-family="Helvetica,sans-Serif" font-size="10.00">::contains</text>
</a>
</g>
</g>
<!-- Node1&#45;&gt;Node2 -->
<g id="edge1_Node000001_Node000002" class="edge">
<title>Node1&#45;&gt;Node2</title>
<g id="a_edge1_Node000001_Node000002"><a xlink:title=" ">
<path fill="none" stroke="#63b8ff" d="M39.57,-208.07C48,-230.05 71.09,-283.83 106,-316.25 106.62,-316.82 107.25,-317.39 107.9,-317.94"/>
<polygon fill="#63b8ff" stroke="#63b8ff" points="105.59,-320.59 115.74,-323.63 109.7,-314.92 105.59,-320.59"/>
</a>
</g>
</g>
<!-- Node3 -->
<g id="Node000003" class="node">
<title>Node3</title>
<g id="a_Node000003"><a target="_blank" xlink:href="http://en.cppreference.com/w/cpp/io/manip/endl.html#" xlink:title=" ">
<polygon fill="white" stroke="#666666" points="182,-306.88 128.5,-306.88 128.5,-287.62 182,-287.62 182,-306.88"/>
<text text-anchor="middle" x="155.25" y="-293.38" font-family="Helvetica,sans-Serif" font-size="10.00">std::endl</text>
</a>
</g>
</g>
<!-- Node1&#45;&gt;Node3 -->
<g id="edge3_Node000001_Node000003" class="edge">
<title>Node1&#45;&gt;Node3</title>
<g id="a_edge3_Node000001_Node000003"><a xlink:title=" ">
<path fill="none" stroke="#63b8ff" d="M43.46,-208.31C55.33,-223.81 79.87,-253.77 106,-273.25 110.16,-276.35 114.79,-279.24 119.48,-281.86"/>
<polygon fill="#63b8ff" stroke="#63b8ff" points="117.87,-284.96 128.36,-286.44 121.08,-278.74 117.87,-284.96"/>
</a>
</g>
</g>
<!-- Node4 -->
<g id="Node000004" class="node">
<title>Node4</title>
<g id="a_Node000004"><a xlink:href="../../d9/dde/classbinary__search__tree.html#a75f897af6aa732a9901454401c869bcb" target="_top" xlink:title="Recursive function to find the maximum value in the BST.">
<polygon fill="white" stroke="#666666" points="339,-198.5 240.5,-198.5 240.5,-168 339,-168 339,-198.5"/>
<text text-anchor="start" x="248.5" y="-185" font-family="Helvetica,sans-Serif" font-size="10.00">binary_search_tree</text>
<text text-anchor="middle" x="289.75" y="-173.75" font-family="Helvetica,sans-Serif" font-size="10.00">::find_max</text>
</a>
</g>
</g>
<!-- Node1&#45;&gt;Node4 -->
<g id="edge4_Node000001_Node000004" class="edge">
<title>Node1&#45;&gt;Node4</title>
<g id="a_edge4_Node000001_Node000004"><a xlink:title=" ">
<path fill="none" stroke="#63b8ff" d="M47.95,-208.22C61.17,-218.55 83.6,-234.05 106,-240.25 148.19,-251.94 162.64,-253.08 204.5,-240.25 226.52,-233.5 247.97,-218.84 263.71,-206.07"/>
<polygon fill="#63b8ff" stroke="#63b8ff" points="265.73,-208.95 271.13,-199.83 261.22,-203.59 265.73,-208.95"/>
</a>
</g>
</g>
<!-- Node5 -->
<g id="Node000005" class="node">
<title>Node5</title>
<g id="a_Node000005"><a xlink:href="../../d9/dde/classbinary__search__tree.html#af9a2c7c187a7ca3142c77ce342ef3153" target="_top" xlink:title="Recursive function to find the minimum value in the BST.">
<polygon fill="white" stroke="#666666" points="204.5,-213.5 106,-213.5 106,-183 204.5,-183 204.5,-213.5"/>
<text text-anchor="start" x="114" y="-200" font-family="Helvetica,sans-Serif" font-size="10.00">binary_search_tree</text>
<text text-anchor="middle" x="155.25" y="-188.75" font-family="Helvetica,sans-Serif" font-size="10.00">::find_min</text>
</a>
</g>
</g>
<!-- Node1&#45;&gt;Node5 -->
<g id="edge6_Node000001_Node000005" class="edge">
<title>Node1&#45;&gt;Node5</title>
<g id="a_edge6_Node000001_Node000005"><a xlink:title=" ">
<path fill="none" stroke="#63b8ff" d="M70.2,-198.25C77.8,-198.25 86.07,-198.25 94.36,-198.25"/>
<polygon fill="#63b8ff" stroke="#63b8ff" points="94.1,-201.75 104.1,-198.25 94.1,-194.75 94.1,-201.75"/>
</a>
</g>
</g>
<!-- Node6 -->
<g id="Node000006" class="node">
<title>Node6</title>
<g id="a_Node000006"><a xlink:href="../../d9/dde/classbinary__search__tree.html#a9d1e7e10efa74d741bf48cf032df3778" target="_top" xlink:title="Recursive function to insert a value into the BST.">
<polygon fill="white" stroke="#666666" points="204.5,-146.5 106,-146.5 106,-116 204.5,-116 204.5,-146.5"/>
<text text-anchor="start" x="114" y="-133" font-family="Helvetica,sans-Serif" font-size="10.00">binary_search_tree</text>
<text text-anchor="middle" x="155.25" y="-121.75" font-family="Helvetica,sans-Serif" font-size="10.00">::insert</text>
</a>
</g>
</g>
<!-- Node1&#45;&gt;Node6 -->
<g id="edge8_Node000001_Node000006" class="edge">
<title>Node1&#45;&gt;Node6</title>
<g id="a_edge8_Node000001_Node000006"><a xlink:title=" ">
<path fill="none" stroke="#63b8ff" d="M53.7,-188.22C70.31,-178.81 95.69,-164.43 116.79,-152.47"/>
<polygon fill="#63b8ff" stroke="#63b8ff" points="118.46,-155.55 125.43,-147.58 115.01,-149.46 118.46,-155.55"/>
</a>
</g>
</g>
<!-- Node7 -->
<g id="Node000007" class="node">
<title>Node7</title>
<g id="a_Node000007"><a xlink:href="../../d9/dde/classbinary__search__tree.html#af4a865ce5244608819b169fc78a41153" target="_top" xlink:title="Recursive function to remove a value from the BST.">
<polygon fill="white" stroke="#666666" points="204.5,-79.5 106,-79.5 106,-49 204.5,-49 204.5,-79.5"/>
<text text-anchor="start" x="114" y="-66" font-family="Helvetica,sans-Serif" font-size="10.00">binary_search_tree</text>
<text text-anchor="middle" x="155.25" y="-54.75" font-family="Helvetica,sans-Serif" font-size="10.00">::remove</text>
</a>
</g>
</g>
<!-- Node1&#45;&gt;Node7 -->
<g id="edge10_Node000001_Node000007" class="edge">
<title>Node1&#45;&gt;Node7</title>
<g id="a_edge10_Node000001_Node000007"><a xlink:title=" ">
<path fill="none" stroke="#63b8ff" d="M42.79,-188.21C54.69,-170.9 80.48,-134.69 106,-107.25 112.34,-100.43 119.64,-93.52 126.61,-87.29"/>
<polygon fill="#63b8ff" stroke="#63b8ff" points="128.8,-90.02 134.03,-80.81 124.19,-84.75 128.8,-90.02"/>
</a>
</g>
</g>
<!-- Node9 -->
<g id="Node000009" class="node">
<title>Node9</title>
<g id="a_Node000009"><a xlink:href="../../d9/dde/classbinary__search__tree.html#a564fe43e7e8f7ecb6f10667a70fbc6f3" target="_top" xlink:title="Get the number of values in the BST.">
<polygon fill="white" stroke="#666666" points="204.5,-30.5 106,-30.5 106,0 204.5,0 204.5,-30.5"/>
<text text-anchor="start" x="114" y="-17" font-family="Helvetica,sans-Serif" font-size="10.00">binary_search_tree</text>
<text text-anchor="middle" x="155.25" y="-5.75" font-family="Helvetica,sans-Serif" font-size="10.00">::size</text>
</a>
</g>
</g>
<!-- Node1&#45;&gt;Node9 -->
<g id="edge14_Node000001_Node000009" class="edge">
<title>Node1&#45;&gt;Node9</title>
<g id="a_edge14_Node000001_Node000009"><a xlink:title=" ">
<path fill="none" stroke="#63b8ff" d="M37.95,-188.46C43.75,-161.6 63.24,-85.7 106,-40.25 106.84,-39.36 107.72,-38.49 108.63,-37.65"/>
<polygon fill="#63b8ff" stroke="#63b8ff" points="110.58,-40.57 116.37,-31.69 106.31,-35.02 110.58,-40.57"/>
</a>
</g>
</g>
<!-- Node2&#45;&gt;Node2 -->
<g id="edge2_Node000002_Node000002" class="edge">
<title>Node2&#45;&gt;Node2</title>
<g id="a_edge2_Node000002_Node000002"><a xlink:title=" ">
<path fill="none" stroke="#63b8ff" d="M133.94,-355.99C129.59,-365.06 136.7,-373.5 155.25,-373.5 165.4,-373.5 172.12,-370.97 175.42,-367.2"/>
<polygon fill="#63b8ff" stroke="#63b8ff" points="178.87,-367.79 176.4,-357.49 171.91,-367.09 178.87,-367.79"/>
</a>
</g>
</g>
<!-- Node4&#45;&gt;Node4 -->
<g id="edge5_Node000004_Node000004" class="edge">
<title>Node4&#45;&gt;Node4</title>
<g id="a_edge5_Node000004_Node000004"><a xlink:title=" ">
<path fill="none" stroke="#63b8ff" d="M265.92,-198.99C261.05,-208.06 269,-216.5 289.75,-216.5 301.1,-216.5 308.62,-213.97 312.31,-210.2"/>
<polygon fill="#63b8ff" stroke="#63b8ff" points="315.76,-210.82 313.41,-200.49 308.8,-210.03 315.76,-210.82"/>
</a>
</g>
</g>
<!-- Node5&#45;&gt;Node5 -->
<g id="edge7_Node000005_Node000005" class="edge">
<title>Node5&#45;&gt;Node5</title>
<g id="a_edge7_Node000005_Node000005"><a xlink:title=" ">
<path fill="none" stroke="#63b8ff" d="M133.94,-213.99C129.59,-223.06 136.7,-231.5 155.25,-231.5 165.4,-231.5 172.12,-228.97 175.42,-225.2"/>
<polygon fill="#63b8ff" stroke="#63b8ff" points="178.87,-225.79 176.4,-215.49 171.91,-225.09 178.87,-225.79"/>
</a>
</g>
</g>
<!-- Node6&#45;&gt;Node6 -->
<g id="edge9_Node000006_Node000006" class="edge">
<title>Node6&#45;&gt;Node6</title>
<g id="a_edge9_Node000006_Node000006"><a xlink:title=" ">
<path fill="none" stroke="#63b8ff" d="M133.94,-146.99C129.59,-156.06 136.7,-164.5 155.25,-164.5 165.4,-164.5 172.12,-161.97 175.42,-158.2"/>
<polygon fill="#63b8ff" stroke="#63b8ff" points="178.87,-158.79 176.4,-148.49 171.91,-158.09 178.87,-158.79"/>
</a>
</g>
</g>
<!-- Node7&#45;&gt;Node4 -->
<g id="edge11_Node000007_Node000004" class="edge">
<title>Node7&#45;&gt;Node4</title>
<g id="a_edge11_Node000007_Node000004"><a xlink:title=" ">
<path fill="none" stroke="#63b8ff" d="M173.69,-79.75C182.87,-87.92 194.31,-98.11 204.5,-107.25 224.36,-125.06 246.78,-145.29 263.49,-160.4"/>
<polygon fill="#63b8ff" stroke="#63b8ff" points="260.79,-162.66 270.55,-166.78 265.48,-157.47 260.79,-162.66"/>
</a>
</g>
</g>
<!-- Node7&#45;&gt;Node7 -->
<g id="edge13_Node000007_Node000007" class="edge">
<title>Node7&#45;&gt;Node7</title>
<g id="a_edge13_Node000007_Node000007"><a xlink:title=" ">
<path fill="none" stroke="#63b8ff" d="M133.94,-79.99C129.59,-89.06 136.7,-97.5 155.25,-97.5 165.4,-97.5 172.12,-94.97 175.42,-91.2"/>
<polygon fill="#63b8ff" stroke="#63b8ff" points="178.87,-91.79 176.4,-81.49 171.91,-91.09 178.87,-91.79"/>
</a>
</g>
</g>
<!-- Node8 -->
<g id="Node000008" class="node">
<title>Node8</title>
<g id="a_Node000008"><a target="_blank" xlink:href="http://en.cppreference.com/w/cpp/utility/move.html#" xlink:title=" ">
<polygon fill="white" stroke="#666666" points="319.5,-73.88 260,-73.88 260,-54.62 319.5,-54.62 319.5,-73.88"/>
<text text-anchor="middle" x="289.75" y="-60.38" font-family="Helvetica,sans-Serif" font-size="10.00">std::move</text>
</a>
</g>
</g>
<!-- Node7&#45;&gt;Node8 -->
<g id="edge12_Node000007_Node000008" class="edge">
<title>Node7&#45;&gt;Node8</title>
<g id="a_edge12_Node000007_Node000008"><a xlink:title=" ">
<path fill="none" stroke="#63b8ff" d="M204.84,-64.25C219.26,-64.25 234.89,-64.25 248.71,-64.25"/>
<polygon fill="#63b8ff" stroke="#63b8ff" points="248.31,-67.75 258.31,-64.25 248.31,-60.75 248.31,-67.75"/>
</a>
</g>
</g>
</g>
</svg>
