<?xml version="1.0" encoding="UTF-8" standalone="no"?>
<!DOCTYPE svg PUBLIC "-//W3C//DTD SVG 1.1//EN"
 "http://www.w3.org/Graphics/SVG/1.1/DTD/svg11.dtd">
<!-- Generated by graphviz version 7.0.4 (20221203.1631)
 -->
<!-- Title: sorting::insertionSort_binsrch Pages: 1 -->
<svg width="264pt" height="82pt"
 viewBox="0.00 0.00 264.00 82.00" xmlns="http://www.w3.org/2000/svg" xmlns:xlink="http://www.w3.org/1999/xlink">
<g id="graph0" class="graph" transform="scale(1 1) rotate(0) translate(4 78)">
<title>sorting::insertionSort_binsrch</title>
<!-- Node1 -->
<g id="node1" class="node">
<title>Node1</title>
<g id="a_node1"><a xlink:title="Insertion sort function to sort the vector.">
<polygon fill="#999999" stroke="#666666" points="107,-42.5 0,-42.5 0,-12.5 107,-12.5 107,-42.5"/>
<text text-anchor="start" x="8" y="-30.5" font-family="Helvetica,sans-Serif" font-size="10.00">sorting::insertionSort</text>
<text text-anchor="middle" x="53.5" y="-19.5" font-family="Helvetica,sans-Serif" font-size="10.00">_binsrch</text>
</a>
</g>
</g>
<!-- Node2 -->
<g id="node2" class="node">
<title>Node2</title>
<g id="a_node2"><a xlink:href="../../d5/d91/namespacesorting.html#a034d8b276518a902962e87d3158b64fd" target="_top" xlink:title="Binary search function to find the most suitable pace for an element.">
<polygon fill="white" stroke="#666666" points="256,-56 143,-56 143,-37 256,-37 256,-56"/>
<text text-anchor="middle" x="199.5" y="-44" font-family="Helvetica,sans-Serif" font-size="10.00">sorting::binary_search</text>
</a>
</g>
</g>
<!-- Node1&#45;&gt;Node2 -->
<g id="edge1" class="edge">
<title>Node1&#45;&gt;Node2</title>
<path fill="none" stroke="#63b8ff" d="M107.3,-34.47C115.16,-35.5 123.34,-36.58 131.45,-37.65"/>
<polygon fill="#63b8ff" stroke="#63b8ff" points="130.93,-41.11 141.3,-38.95 131.84,-34.17 130.93,-41.11"/>
</g>
<!-- Node3 -->
<g id="node3" class="node">
<title>Node3</title>
<g id="a_node3"><a target="_blank" xlink:href="http://en.cppreference.com/w/cpp/container/vector/size.html#" xlink:title=" ">
<polygon fill="white" stroke="#666666" points="243,-19 156,-19 156,0 243,0 243,-19"/>
<text text-anchor="middle" x="199.5" y="-7" font-family="Helvetica,sans-Serif" font-size="10.00">std::vector::size</text>
</a>
</g>
</g>
<!-- Node1&#45;&gt;Node3 -->
<g id="edge3" class="edge">
<title>Node1&#45;&gt;Node3</title>
<path fill="none" stroke="#63b8ff" d="M107.3,-20.9C119.35,-19.39 132.16,-17.79 144.27,-16.28"/>
<polygon fill="#63b8ff" stroke="#63b8ff" points="144.61,-19.76 154.1,-15.05 143.74,-12.82 144.61,-19.76"/>
</g>
<!-- Node2&#45;&gt;Node2 -->
<g id="edge2" class="edge">
<title>Node2&#45;&gt;Node2</title>
<path fill="none" stroke="#63b8ff" d="M176.64,-56.37C166.22,-64.94 173.84,-74 199.5,-74 213.54,-74 222.17,-71.29 225.41,-67.43"/>
<polygon fill="#63b8ff" stroke="#63b8ff" points="228.8,-66.53 222.76,-57.83 222.05,-68.4 228.8,-66.53"/>
</g>
</g>
</svg>
