<?xml version="1.0" encoding="UTF-8" standalone="no"?>
<!DOCTYPE svg PUBLIC "-//W3C//DTD SVG 1.1//EN"
 "http://www.w3.org/Graphics/SVG/1.1/DTD/svg11.dtd">
<!-- Generated by graphviz version 5.0.0 (20220707.1540)
 -->
<!-- Title: sorting::insertionSort_binsrch Pages: 1 -->
<svg width="264pt" height="84pt"
 viewBox="0.00 0.00 264.00 84.00" xmlns="http://www.w3.org/2000/svg" xmlns:xlink="http://www.w3.org/1999/xlink">
<g id="graph0" class="graph" transform="scale(1 1) rotate(0) translate(4 80)">
<title>sorting::insertionSort_binsrch</title>
<polygon fill="white" stroke="transparent" points="-4,4 -4,-80 260,-80 260,4 -4,4"/>
<!-- Node1 -->
<g id="node1" class="node">
<title>Node1</title>
<g id="a_node1"><a xlink:title="Insertion sort function to sort the vector.">
<polygon fill="#bfbfbf" stroke="black" points="0,-14 0,-44 107,-44 107,-14 0,-14"/>
<text text-anchor="start" x="8" y="-32" font-family="Helvetica,sans-Serif" font-size="10.00">sorting::insertionSort</text>
<text text-anchor="middle" x="53.5" y="-21" font-family="Helvetica,sans-Serif" font-size="10.00">_binsrch</text>
</a>
</g>
</g>
<!-- Node2 -->
<g id="node2" class="node">
<title>Node2</title>
<g id="a_node2"><a xlink:href="../../d5/d91/namespacesorting.html#a034d8b276518a902962e87d3158b64fd" target="_top" xlink:title="Binary search function to find the most suitable pace for an element.">
<polygon fill="white" stroke="black" points="143,-38.5 143,-57.5 256,-57.5 256,-38.5 143,-38.5"/>
<text text-anchor="middle" x="199.5" y="-45.5" font-family="Helvetica,sans-Serif" font-size="10.00">sorting::binary_search</text>
</a>
</g>
</g>
<!-- Node1&#45;&gt;Node2 -->
<g id="edge1" class="edge">
<title>Node1&#45;&gt;Node2</title>
<path fill="none" stroke="midnightblue" d="M107.3,-35.97C115.61,-37.06 124.29,-38.21 132.84,-39.34"/>
<polygon fill="midnightblue" stroke="midnightblue" points="132.43,-42.81 142.8,-40.65 133.34,-35.87 132.43,-42.81"/>
</g>
<!-- Node3 -->
<g id="node3" class="node">
<title>Node3</title>
<g id="a_node3"><a target="_blank" xlink:href="http://en.cppreference.com/w/cpp/container/vector/size.html#" xlink:title=" ">
<polygon fill="white" stroke="black" points="156,-0.5 156,-19.5 243,-19.5 243,-0.5 156,-0.5"/>
<text text-anchor="middle" x="199.5" y="-7.5" font-family="Helvetica,sans-Serif" font-size="10.00">std::vector::size</text>
</a>
</g>
</g>
<!-- Node1&#45;&gt;Node3 -->
<g id="edge3" class="edge">
<title>Node1&#45;&gt;Node3</title>
<path fill="none" stroke="midnightblue" d="M107.3,-22.03C119.72,-20.39 132.96,-18.65 145.39,-17.01"/>
<polygon fill="midnightblue" stroke="midnightblue" points="146.15,-20.44 155.6,-15.66 145.23,-13.5 146.15,-20.44"/>
</g>
<!-- Node2&#45;&gt;Node2 -->
<g id="edge2" class="edge">
<title>Node2&#45;&gt;Node2</title>
<path fill="none" stroke="midnightblue" d="M177,-57.76C166.05,-66.57 173.55,-76 199.5,-76 216.53,-76 225.61,-71.94 226.75,-66.65"/>
<polygon fill="midnightblue" stroke="midnightblue" points="229.8,-64.93 222,-57.76 223.62,-68.23 229.8,-64.93"/>
</g>
</g>
</svg>
