<?xml version="1.0" encoding="UTF-8" standalone="no"?>
<!DOCTYPE svg PUBLIC "-//W3C//DTD SVG 1.1//EN"
 "http://www.w3.org/Graphics/SVG/1.1/DTD/svg11.dtd">
<!-- Generated by graphviz version 5.0.0 (20220707.1540)
 -->
<!-- Title: sorting::quickSort Pages: 1 -->
<svg width="223pt" height="46pt"
 viewBox="0.00 0.00 223.00 46.00" xmlns="http://www.w3.org/2000/svg" xmlns:xlink="http://www.w3.org/1999/xlink">
<g id="graph0" class="graph" transform="scale(1 1) rotate(0) translate(4 42)">
<title>sorting::quickSort</title>
<polygon fill="white" stroke="transparent" points="-4,4 -4,-42 219,-42 219,4 -4,4"/>
<!-- Node1 -->
<g id="node1" class="node">
<title>Node1</title>
<g id="a_node1"><a xlink:title=" ">
<polygon fill="#bfbfbf" stroke="black" points="0,-0.5 0,-19.5 93,-19.5 93,-0.5 0,-0.5"/>
<text text-anchor="middle" x="46.5" y="-7.5" font-family="Helvetica,sans-Serif" font-size="10.00">sorting::quickSort</text>
</a>
</g>
</g>
<!-- Node1&#45;&gt;Node1 -->
<g id="edge2" class="edge">
<title>Node1&#45;&gt;Node1</title>
<path fill="none" stroke="midnightblue" d="M27.39,-19.76C18.09,-28.57 24.46,-38 46.5,-38 60.62,-38 68.31,-34.13 69.57,-29.03"/>
<polygon fill="midnightblue" stroke="midnightblue" points="72.75,-27.58 65.61,-19.76 66.31,-30.33 72.75,-27.58"/>
</g>
<!-- Node2 -->
<g id="node2" class="node">
<title>Node2</title>
<g id="a_node2"><a xlink:href="../../d5/d91/namespacesorting.html#a7e7f25f31c50523990437abf2ac3907e" target="_top" xlink:title=" ">
<polygon fill="white" stroke="black" points="129,-0.5 129,-19.5 215,-19.5 215,-0.5 129,-0.5"/>
<text text-anchor="middle" x="172" y="-7.5" font-family="Helvetica,sans-Serif" font-size="10.00">sorting::partition</text>
</a>
</g>
</g>
<!-- Node1&#45;&gt;Node2 -->
<g id="edge1" class="edge">
<title>Node1&#45;&gt;Node2</title>
<path fill="none" stroke="midnightblue" d="M93.14,-10C101.44,-10 110.16,-10 118.64,-10"/>
<polygon fill="midnightblue" stroke="midnightblue" points="118.82,-13.5 128.82,-10 118.82,-6.5 118.82,-13.5"/>
</g>
</g>
</svg>
