<?xml version="1.0" encoding="UTF-8" standalone="no"?>
<!DOCTYPE svg PUBLIC "-//W3C//DTD SVG 1.1//EN"
 "http://www.w3.org/Graphics/SVG/1.1/DTD/svg11.dtd">
<!-- Generated by graphviz version 5.0.0 (20220707.1540)
 -->
<!-- Title: sorting::randomized_bogosort Pages: 1 -->
<svg width="249pt" height="142pt"
 viewBox="0.00 0.00 249.00 142.00" xmlns="http://www.w3.org/2000/svg" xmlns:xlink="http://www.w3.org/1999/xlink">
<g id="graph0" class="graph" transform="scale(1 1) rotate(0) translate(4 138)">
<title>sorting::randomized_bogosort</title>
<polygon fill="white" stroke="transparent" points="-4,4 -4,-138 245,-138 245,4 -4,4"/>
<!-- Node1 -->
<g id="node1" class="node">
<title>Node1</title>
<g id="a_node1"><a xlink:title=" ">
<polygon fill="#bfbfbf" stroke="black" points="0,-52 0,-82 102,-82 102,-52 0,-52"/>
<text text-anchor="start" x="8" y="-70" font-family="Helvetica,sans-Serif" font-size="10.00">sorting::randomized</text>
<text text-anchor="middle" x="51" y="-59" font-family="Helvetica,sans-Serif" font-size="10.00">_bogosort</text>
</a>
</g>
</g>
<!-- Node2 -->
<g id="node2" class="node">
<title>Node2</title>
<g id="a_node2"><a target="_blank" xlink:href="http://en.cppreference.com/w/cpp/container/array/begin.html#" xlink:title=" ">
<polygon fill="white" stroke="black" points="146,-114.5 146,-133.5 233,-133.5 233,-114.5 146,-114.5"/>
<text text-anchor="middle" x="189.5" y="-121.5" font-family="Helvetica,sans-Serif" font-size="10.00">std::array::begin</text>
</a>
</g>
</g>
<!-- Node1&#45;&gt;Node2 -->
<g id="edge1" class="edge">
<title>Node1&#45;&gt;Node2</title>
<path fill="none" stroke="midnightblue" d="M84.89,-82.05C100.84,-89.22 120.32,-97.78 138,-105 142.76,-106.94 147.79,-108.93 152.77,-110.84"/>
<polygon fill="midnightblue" stroke="midnightblue" points="151.59,-114.14 162.18,-114.42 154.07,-107.59 151.59,-114.14"/>
</g>
<!-- Node3 -->
<g id="node3" class="node">
<title>Node3</title>
<g id="a_node3"><a target="_blank" xlink:href="http://en.cppreference.com/w/cpp/container/array/end.html#" xlink:title=" ">
<polygon fill="white" stroke="black" points="149.5,-76.5 149.5,-95.5 229.5,-95.5 229.5,-76.5 149.5,-76.5"/>
<text text-anchor="middle" x="189.5" y="-83.5" font-family="Helvetica,sans-Serif" font-size="10.00">std::array::end</text>
</a>
</g>
</g>
<!-- Node1&#45;&gt;Node3 -->
<g id="edge2" class="edge">
<title>Node1&#45;&gt;Node3</title>
<path fill="none" stroke="midnightblue" d="M102.05,-73.97C114.18,-75.65 127.13,-77.46 139.22,-79.14"/>
<polygon fill="midnightblue" stroke="midnightblue" points="138.75,-82.61 149.14,-80.52 139.72,-75.68 138.75,-82.61"/>
</g>
<!-- Node4 -->
<g id="node4" class="node">
<title>Node4</title>
<g id="a_node4"><a target="_blank" xlink:href="http://en.cppreference.com/w/cpp/algorithm/is_sorted.html#" xlink:title=" ">
<polygon fill="white" stroke="black" points="151.5,-38.5 151.5,-57.5 227.5,-57.5 227.5,-38.5 151.5,-38.5"/>
<text text-anchor="middle" x="189.5" y="-45.5" font-family="Helvetica,sans-Serif" font-size="10.00">std::is_sorted</text>
</a>
</g>
</g>
<!-- Node1&#45;&gt;Node4 -->
<g id="edge3" class="edge">
<title>Node1&#45;&gt;Node4</title>
<path fill="none" stroke="midnightblue" d="M102.05,-60.03C114.9,-58.24 128.68,-56.33 141.37,-54.56"/>
<polygon fill="midnightblue" stroke="midnightblue" points="141.86,-58.03 151.28,-53.18 140.9,-51.09 141.86,-58.03"/>
</g>
<!-- Node5 -->
<g id="node5" class="node">
<title>Node5</title>
<g id="a_node5"><a target="_blank" xlink:href="http://en.cppreference.com/w/cpp/algorithm/random_shuffle.html#" xlink:title=" ">
<polygon fill="white" stroke="black" points="138,-0.5 138,-19.5 241,-19.5 241,-0.5 138,-0.5"/>
<text text-anchor="middle" x="189.5" y="-7.5" font-family="Helvetica,sans-Serif" font-size="10.00">std::random_shuffle</text>
</a>
</g>
</g>
<!-- Node1&#45;&gt;Node5 -->
<g id="edge4" class="edge">
<title>Node1&#45;&gt;Node5</title>
<path fill="none" stroke="midnightblue" d="M84.89,-51.95C100.84,-44.78 120.32,-36.22 138,-29 142.76,-27.06 147.79,-25.07 152.77,-23.16"/>
<polygon fill="midnightblue" stroke="midnightblue" points="154.07,-26.41 162.18,-19.58 151.59,-19.86 154.07,-26.41"/>
</g>
</g>
</svg>
