<?xml version="1.0" encoding="UTF-8" standalone="no"?>
<!DOCTYPE svg PUBLIC "-//W3C//DTD SVG 1.1//EN"
 "http://www.w3.org/Graphics/SVG/1.1/DTD/svg11.dtd">
<!-- Generated by graphviz version 8.0.5 (20230430.1635)
 -->
<!-- Title: sorting::pigeonSort Pages: 1 -->
<svg width="236pt" height="138pt"
 viewBox="0.00 0.00 235.75 138.25" xmlns="http://www.w3.org/2000/svg" xmlns:xlink="http://www.w3.org/1999/xlink">
<g id="graph0" class="graph" transform="scale(1 1) rotate(0) translate(4 134.25)">
<title>sorting::pigeonSort</title>
<!-- Node1 -->
<g id="node1" class="node">
<title>Node1</title>
<g id="a_node1"><a xlink:title=" ">
<polygon fill="#999999" stroke="#666666" points="97.75,-74.25 0,-74.25 0,-55 97.75,-55 97.75,-74.25"/>
<text text-anchor="middle" x="48.88" y="-60.75" font-family="Helvetica,sans-Serif" font-size="10.00">sorting::pigeonSort</text>
</a>
</g>
</g>
<!-- Node2 -->
<g id="node2" class="node">
<title>Node2</title>
<g id="a_node2"><a target="_blank" xlink:href="http://en.cppreference.com/w/cpp/iterator/begin.html#" xlink:title=" ">
<polygon fill="white" stroke="#666666" points="210.12,-130.25 151.38,-130.25 151.38,-111 210.12,-111 210.12,-130.25"/>
<text text-anchor="middle" x="180.75" y="-116.75" font-family="Helvetica,sans-Serif" font-size="10.00">std::begin</text>
</a>
</g>
</g>
<!-- Node1&#45;&gt;Node2 -->
<g id="edge1" class="edge">
<title>Node1&#45;&gt;Node2</title>
<path fill="none" stroke="#63b8ff" d="M71.11,-74.62C87.99,-82.47 112.24,-93.55 133.75,-102.62 136.81,-103.92 140,-105.23 143.21,-106.53"/>
<polygon fill="#63b8ff" stroke="#63b8ff" points="141.8,-110.13 152.38,-110.58 144.39,-103.63 141.8,-110.13"/>
</g>
<!-- Node3 -->
<g id="node3" class="node">
<title>Node3</title>
<g id="a_node3"><a target="_blank" xlink:href="http://en.cppreference.com/w/cpp/iterator/end.html#" xlink:title=" ">
<polygon fill="white" stroke="#666666" points="206.38,-93.25 155.12,-93.25 155.12,-74 206.38,-74 206.38,-93.25"/>
<text text-anchor="middle" x="180.75" y="-79.75" font-family="Helvetica,sans-Serif" font-size="10.00">std::end</text>
</a>
</g>
</g>
<!-- Node1&#45;&gt;Node3 -->
<g id="edge2" class="edge">
<title>Node1&#45;&gt;Node3</title>
<path fill="none" stroke="#63b8ff" d="M98.24,-71.7C113.37,-73.91 129.8,-76.32 143.91,-78.38"/>
<polygon fill="#63b8ff" stroke="#63b8ff" points="143.26,-81.97 153.67,-79.96 144.28,-75.04 143.26,-81.97"/>
</g>
<!-- Node4 -->
<g id="node4" class="node">
<title>Node4</title>
<g id="a_node4"><a target="_blank" xlink:href="http://en.cppreference.com/w/cpp/algorithm/max_element.html#" xlink:title=" ">
<polygon fill="white" stroke="#666666" points="227.75,-56.25 133.75,-56.25 133.75,-37 227.75,-37 227.75,-56.25"/>
<text text-anchor="middle" x="180.75" y="-42.75" font-family="Helvetica,sans-Serif" font-size="10.00">std::max_element</text>
</a>
</g>
</g>
<!-- Node1&#45;&gt;Node4 -->
<g id="edge3" class="edge">
<title>Node1&#45;&gt;Node4</title>
<path fill="none" stroke="#63b8ff" d="M98.24,-57.92C106.26,-56.81 114.64,-55.65 122.86,-54.51"/>
<polygon fill="#63b8ff" stroke="#63b8ff" points="123.08,-57.87 132.5,-53.03 122.12,-50.94 123.08,-57.87"/>
</g>
<!-- Node5 -->
<g id="node5" class="node">
<title>Node5</title>
<g id="a_node5"><a target="_blank" xlink:href="http://en.cppreference.com/w/cpp/algorithm/min_element.html#" xlink:title=" ">
<polygon fill="white" stroke="#666666" points="226.25,-19.25 135.25,-19.25 135.25,0 226.25,0 226.25,-19.25"/>
<text text-anchor="middle" x="180.75" y="-5.75" font-family="Helvetica,sans-Serif" font-size="10.00">std::min_element</text>
</a>
</g>
</g>
<!-- Node1&#45;&gt;Node5 -->
<g id="edge4" class="edge">
<title>Node1&#45;&gt;Node5</title>
<path fill="none" stroke="#63b8ff" d="M71.84,-54.63C88.7,-47.03 112.59,-36.43 133.75,-27.62 136.82,-26.35 140.01,-25.05 143.22,-23.75"/>
<polygon fill="#63b8ff" stroke="#63b8ff" points="144.4,-26.66 152.4,-19.71 141.82,-20.15 144.4,-26.66"/>
</g>
</g>
</svg>
