<?xml version="1.0" encoding="UTF-8" standalone="no"?>
<!DOCTYPE svg PUBLIC "-//W3C//DTD SVG 1.1//EN"
 "http://www.w3.org/Graphics/SVG/1.1/DTD/svg11.dtd">
<!-- Generated by graphviz version 5.0.1 (20220820.1526)
 -->
<!-- Title: double_hashing::addInfo Pages: 1 -->
<svg width="653pt" height="214pt"
 viewBox="0.00 0.00 653.00 214.00" xmlns="http://www.w3.org/2000/svg" xmlns:xlink="http://www.w3.org/1999/xlink">
<g id="graph0" class="graph" transform="scale(1 1) rotate(0) translate(4 210)">
<title>double_hashing::addInfo</title>
<!-- Node1 -->
<g id="node1" class="node">
<title>Node1</title>
<g id="a_node1"><a xlink:title=" ">
<polygon fill="#999999" stroke="#666666" points="122,-149 0,-149 0,-130 122,-130 122,-149"/>
<text text-anchor="middle" x="61" y="-137" font-family="Helvetica,sans-Serif" font-size="10.00">double_hashing::addInfo</text>
</a>
</g>
</g>
<!-- Node2 -->
<g id="node2" class="node">
<title>Node2</title>
<g id="a_node2"><a xlink:href="../../d0/d65/namespacedouble__hashing.html#a79a9c914a6c68275b3640303d7faad8a" target="_top" xlink:title=" ">
<polygon fill="white" stroke="#666666" points="271.5,-130 165.5,-130 165.5,-111 271.5,-111 271.5,-130"/>
<text text-anchor="middle" x="218.5" y="-118" font-family="Helvetica,sans-Serif" font-size="10.00">double_hashing::add</text>
</a>
</g>
</g>
<!-- Node1&#45;&gt;Node2 -->
<g id="edge1" class="edge">
<title>Node1&#45;&gt;Node2</title>
<path fill="none" stroke="#63b8ff" d="M122.12,-132.15C132.87,-130.84 144.1,-129.47 154.92,-128.15"/>
<polygon fill="#63b8ff" stroke="#63b8ff" points="155.63,-131.59 165.13,-126.9 154.78,-124.64 155.63,-131.59"/>
</g>
<!-- Node4 -->
<g id="node4" class="node">
<title>Node4</title>
<g id="a_node4"><a target="_blank" xlink:href="http://en.cppreference.com/w/cpp/io/manip/endl.html#" xlink:title=" ">
<polygon fill="white" stroke="#666666" points="596,-179 542,-179 542,-160 596,-160 596,-179"/>
<text text-anchor="middle" x="569" y="-167" font-family="Helvetica,sans-Serif" font-size="10.00">std::endl</text>
</a>
</g>
</g>
<!-- Node1&#45;&gt;Node4 -->
<g id="edge13" class="edge">
<title>Node1&#45;&gt;Node4</title>
<path fill="none" stroke="#63b8ff" d="M122.03,-143.06C228.08,-149.35 445.5,-162.24 531.67,-167.35"/>
<polygon fill="#63b8ff" stroke="#63b8ff" points="531.56,-170.85 541.75,-167.94 531.97,-163.86 531.56,-170.85"/>
</g>
<!-- Node5 -->
<g id="node5" class="node">
<title>Node5</title>
<g id="a_node5"><a xlink:href="../../d0/d65/namespacedouble__hashing.html#a0d90726ed1de7b3d2ae261baed048003" target="_top" xlink:title="Hash a key. Uses the STL library&#39;s std::hash() function.">
<polygon fill="white" stroke="#666666" points="633,-19 505,-19 505,0 633,0 633,-19"/>
<text text-anchor="middle" x="569" y="-7" font-family="Helvetica,sans-Serif" font-size="10.00">double_hashing::hashFxn</text>
</a>
</g>
</g>
<!-- Node1&#45;&gt;Node5 -->
<g id="edge14" class="edge">
<title>Node1&#45;&gt;Node5</title>
<path fill="none" stroke="#63b8ff" d="M83.41,-129.98C102.65,-121.68 131.83,-109.71 158,-101.5 277.1,-64.11 420.16,-35.6 501.94,-20.81"/>
<polygon fill="#63b8ff" stroke="#63b8ff" points="502.62,-24.24 511.85,-19.03 501.39,-17.35 502.62,-24.24"/>
</g>
<!-- Node10 -->
<g id="node10" class="node">
<title>Node10</title>
<g id="a_node10"><a xlink:href="../../d0/d65/namespacedouble__hashing.html#a1e901418c759627557eff359b8db38cd" target="_top" xlink:title=" ">
<polygon fill="white" stroke="#666666" points="279,-206 158,-206 158,-187 279,-187 279,-206"/>
<text text-anchor="middle" x="218.5" y="-194" font-family="Helvetica,sans-Serif" font-size="10.00">double_hashing::display</text>
</a>
</g>
</g>
<!-- Node1&#45;&gt;Node10 -->
<g id="edge11" class="edge">
<title>Node1&#45;&gt;Node10</title>
<path fill="none" stroke="#63b8ff" d="M88.03,-149.04C113.7,-158.45 153.16,-172.91 181.76,-183.4"/>
<polygon fill="#63b8ff" stroke="#63b8ff" points="180.79,-186.77 191.39,-186.93 183.2,-180.2 180.79,-186.77"/>
</g>
<!-- Node3 -->
<g id="node3" class="node">
<title>Node3</title>
<g id="a_node3"><a xlink:href="../../d0/d65/namespacedouble__hashing.html#a8f8ff4fb018e1bb32d67d8a1885d3200" target="_top" xlink:title="Performs double hashing to resolve collisions.">
<polygon fill="white" stroke="#666666" points="457,-93 315,-93 315,-74 457,-74 457,-93"/>
<text text-anchor="middle" x="386" y="-81" font-family="Helvetica,sans-Serif" font-size="10.00">double_hashing::doubleHash</text>
</a>
</g>
</g>
<!-- Node2&#45;&gt;Node3 -->
<g id="edge2" class="edge">
<title>Node2&#45;&gt;Node3</title>
<path fill="none" stroke="#63b8ff" d="M262.12,-110.97C283.56,-106.18 309.75,-100.32 332.43,-95.25"/>
<polygon fill="#63b8ff" stroke="#63b8ff" points="333.24,-98.66 342.24,-93.06 331.71,-91.83 333.24,-98.66"/>
</g>
<!-- Node9 -->
<g id="node9" class="node">
<title>Node9</title>
<g id="a_node9"><a xlink:href="../../d0/d65/namespacedouble__hashing.html#af4981819aae8bc7e7beeaef02615e30d" target="_top" xlink:title=" ">
<polygon fill="white" stroke="#666666" points="445.5,-130 326.5,-130 326.5,-111 445.5,-111 445.5,-130"/>
<text text-anchor="middle" x="386" y="-118" font-family="Helvetica,sans-Serif" font-size="10.00">double_hashing::rehash</text>
</a>
</g>
</g>
<!-- Node2&#45;&gt;Node9 -->
<g id="edge8" class="edge">
<title>Node2&#45;&gt;Node9</title>
<path fill="none" stroke="#63b8ff" d="M271.87,-114.17C285.95,-113.76 301.39,-113.65 316.22,-113.84"/>
<polygon fill="#63b8ff" stroke="#63b8ff" points="316.3,-117.34 326.36,-114.01 316.42,-110.34 316.3,-117.34"/>
</g>
<!-- Node3&#45;&gt;Node4 -->
<g id="edge3" class="edge">
<title>Node3&#45;&gt;Node4</title>
<path fill="none" stroke="#63b8ff" d="M440.3,-93.02C446.2,-95.27 451.91,-98.06 457,-101.5 479.39,-116.63 470.58,-135.41 493,-150.5 504.43,-158.2 518.74,-162.78 531.79,-165.5"/>
<polygon fill="#63b8ff" stroke="#63b8ff" points="531.44,-168.99 541.91,-167.31 532.68,-162.1 531.44,-168.99"/>
</g>
<!-- Node3&#45;&gt;Node5 -->
<g id="edge4" class="edge">
<title>Node3&#45;&gt;Node5</title>
<path fill="none" stroke="#63b8ff" d="M402.23,-73.88C422.32,-61.56 459.12,-40.28 493,-27.5 498.54,-25.41 504.4,-23.51 510.31,-21.78"/>
<polygon fill="#63b8ff" stroke="#63b8ff" points="511.53,-25.08 520.25,-19.06 509.68,-18.33 511.53,-25.08"/>
</g>
<!-- Node6 -->
<g id="node6" class="node">
<title>Node6</title>
<g id="a_node6"><a xlink:href="../../d0/d65/namespacedouble__hashing.html#a33968a1178289ab61445dd4000df7082" target="_top" xlink:title="Used for second hash function.">
<polygon fill="white" stroke="#666666" points="645,-93 493,-93 493,-74 645,-74 645,-93"/>
<text text-anchor="middle" x="569" y="-81" font-family="Helvetica,sans-Serif" font-size="10.00">double_hashing::otherHashFxn</text>
</a>
</g>
</g>
<!-- Node3&#45;&gt;Node6 -->
<g id="edge5" class="edge">
<title>Node3&#45;&gt;Node6</title>
<path fill="none" stroke="#63b8ff" d="M457.24,-83.5C465.5,-83.5 474.01,-83.5 482.45,-83.5"/>
<polygon fill="#63b8ff" stroke="#63b8ff" points="482.71,-87 492.71,-83.5 482.71,-80 482.71,-87"/>
</g>
<!-- Node7 -->
<g id="node7" class="node">
<title>Node7</title>
<g id="a_node7"><a xlink:href="../../d0/d65/namespacedouble__hashing.html#ac2adfce49ac57f6dbd1778d2c1ce0d2b" target="_top" xlink:title=" ">
<polygon fill="white" stroke="#666666" points="635,-56 503,-56 503,-37 635,-37 635,-56"/>
<text text-anchor="middle" x="569" y="-44" font-family="Helvetica,sans-Serif" font-size="10.00">double_hashing::putProber</text>
</a>
</g>
</g>
<!-- Node3&#45;&gt;Node7 -->
<g id="edge6" class="edge">
<title>Node3&#45;&gt;Node7</title>
<path fill="none" stroke="#63b8ff" d="M433.61,-73.97C457.27,-69.14 486.21,-63.22 511.17,-58.12"/>
<polygon fill="#63b8ff" stroke="#63b8ff" points="512.14,-61.49 521.23,-56.06 510.73,-54.63 512.14,-61.49"/>
</g>
<!-- Node8 -->
<g id="node8" class="node">
<title>Node8</title>
<g id="a_node8"><a xlink:href="../../d0/d65/namespacedouble__hashing.html#a29f543e2626bad58907661e1e45028a6" target="_top" xlink:title=" ">
<polygon fill="white" stroke="#666666" points="635,-141.5 503,-141.5 503,-111.5 635,-111.5 635,-141.5"/>
<text text-anchor="start" x="511" y="-129.5" font-family="Helvetica,sans-Serif" font-size="10.00">double_hashing::searching</text>
<text text-anchor="middle" x="569" y="-118.5" font-family="Helvetica,sans-Serif" font-size="10.00">Prober</text>
</a>
</g>
</g>
<!-- Node3&#45;&gt;Node8 -->
<g id="edge7" class="edge">
<title>Node3&#45;&gt;Node8</title>
<path fill="none" stroke="#63b8ff" d="M427.17,-93.04C447.13,-97.78 471.87,-103.66 495.03,-109.16"/>
<polygon fill="#63b8ff" stroke="#63b8ff" points="494.3,-112.59 504.83,-111.49 495.91,-105.78 494.3,-112.59"/>
</g>
<!-- Node9&#45;&gt;Node2 -->
<g id="edge9" class="edge">
<title>Node9&#45;&gt;Node2</title>
<path fill="none" stroke="#63b8ff" d="M326.36,-126.99C312.06,-127.31 296.71,-127.33 282.23,-127.07"/>
<polygon fill="#63b8ff" stroke="#63b8ff" points="281.94,-123.56 271.87,-126.83 281.78,-130.56 281.94,-123.56"/>
</g>
<!-- Node9&#45;&gt;Node4 -->
<g id="edge10" class="edge">
<title>Node9&#45;&gt;Node4</title>
<path fill="none" stroke="#63b8ff" d="M419.88,-130.06C440.78,-136.07 468.43,-143.91 493,-150.5 505.67,-153.9 519.59,-157.47 531.96,-160.58"/>
<polygon fill="#63b8ff" stroke="#63b8ff" points="531.37,-164.05 541.92,-163.08 533.07,-157.26 531.37,-164.05"/>
</g>
<!-- Node10&#45;&gt;Node4 -->
<g id="edge12" class="edge">
<title>Node10&#45;&gt;Node4</title>
<path fill="none" stroke="#63b8ff" d="M279.01,-191.89C351.45,-186.28 471.52,-176.97 531.52,-172.33"/>
<polygon fill="#63b8ff" stroke="#63b8ff" points="531.95,-175.8 541.65,-171.54 531.41,-168.82 531.95,-175.8"/>
</g>
</g>
</svg>
