<?xml version="1.0" encoding="UTF-8" standalone="no"?>
<!DOCTYPE svg PUBLIC "-//W3C//DTD SVG 1.1//EN"
 "http://www.w3.org/Graphics/SVG/1.1/DTD/svg11.dtd">
<!-- Generated by graphviz version 9.0.0 (20230911.1827)
 -->
<!-- Title: double_hashing::removalInfo Pages: 1 -->
<svg width="671pt" height="198pt"
 viewBox="0.00 0.00 670.50 197.57" xmlns="http://www.w3.org/2000/svg" xmlns:xlink="http://www.w3.org/1999/xlink">
<g id="graph0" class="graph" transform="scale(1 1) rotate(0) translate(4 193.57)">
<title>double_hashing::removalInfo</title>
<!-- Node1 -->
<g id="Node000001" class="node">
<title>Node1</title>
<g id="a_Node000001"><a xlink:title=" ">
<polygon fill="#999999" stroke="#666666" points="140.5,-156.25 0,-156.25 0,-137 140.5,-137 140.5,-156.25"/>
<text text-anchor="middle" x="70.25" y="-142.75" font-family="Helvetica,sans-Serif" font-size="10.00">double_hashing::removalInfo</text>
</a>
</g>
</g>
<!-- Node2 -->
<g id="Node000002" class="node">
<title>Node2</title>
<g id="a_Node000002"><a xlink:href="../../d0/d65/namespacedouble__hashing.html#a1e901418c759627557eff359b8db38cd" target="_top" xlink:title=" ">
<polygon fill="white" stroke="#666666" points="465,-175.25 344.75,-175.25 344.75,-156 465,-156 465,-175.25"/>
<text text-anchor="middle" x="404.88" y="-161.75" font-family="Helvetica,sans-Serif" font-size="10.00">double_hashing::display</text>
</a>
</g>
</g>
<!-- Node1&#45;&gt;Node2 -->
<g id="edge1_Node000001_Node000002" class="edge">
<title>Node1&#45;&gt;Node2</title>
<g id="a_edge1_Node000001_Node000002"><a xlink:title=" ">
<path fill="none" stroke="#63b8ff" d="M140.98,-150.61C197.3,-153.82 276.23,-158.33 332.88,-161.57"/>
<polygon fill="#63b8ff" stroke="#63b8ff" points="332.56,-165.06 342.75,-162.13 332.96,-158.07 332.56,-165.06"/>
</a>
</g>
</g>
<!-- Node3 -->
<g id="Node000003" class="node">
<title>Node3</title>
<g id="a_Node000003"><a target="_blank" xlink:href="http://en.cppreference.com/w/cpp/io/manip/endl.html#" xlink:title=" ">
<polygon fill="white" stroke="#666666" points="613.75,-179.25 560.25,-179.25 560.25,-160 613.75,-160 613.75,-179.25"/>
<text text-anchor="middle" x="587" y="-165.75" font-family="Helvetica,sans-Serif" font-size="10.00">std::endl</text>
</a>
</g>
</g>
<!-- Node1&#45;&gt;Node3 -->
<g id="edge3_Node000001_Node000003" class="edge">
<title>Node1&#45;&gt;Node3</title>
<g id="a_edge3_Node000001_Node000003"><a xlink:title=" ">
<path fill="none" stroke="#63b8ff" d="M112.02,-156.73C131.44,-161.24 155.06,-166.28 176.5,-169.62 307.96,-190.16 342.75,-193.59 475.5,-184.62 499.95,-182.97 527.23,-179.29 548.57,-175.98"/>
<polygon fill="#63b8ff" stroke="#63b8ff" points="548.94,-179.47 558.26,-174.44 547.84,-172.56 548.94,-179.47"/>
</a>
</g>
</g>
<!-- Node4 -->
<g id="Node000004" class="node">
<title>Node4</title>
<g id="a_Node000004"><a xlink:href="../../d0/d65/namespacedouble__hashing.html#a0d90726ed1de7b3d2ae261baed048003" target="_top" xlink:title="Hash a key. Uses the STL library&#39;s std::hash() function.">
<polygon fill="white" stroke="#666666" points="650.5,-19.25 523.5,-19.25 523.5,0 650.5,0 650.5,-19.25"/>
<text text-anchor="middle" x="587" y="-5.75" font-family="Helvetica,sans-Serif" font-size="10.00">double_hashing::hashFxn</text>
</a>
</g>
</g>
<!-- Node1&#45;&gt;Node4 -->
<g id="edge4_Node000001_Node000004" class="edge">
<title>Node1&#45;&gt;Node4</title>
<g id="a_edge4_Node000001_Node000004"><a xlink:title=" ">
<path fill="none" stroke="#63b8ff" d="M96.51,-136.62C117.67,-128.46 148.78,-116.95 176.5,-108.62 299.1,-71.79 445.46,-39.05 525.8,-22.02"/>
<polygon fill="#63b8ff" stroke="#63b8ff" points="526.14,-25.52 535.2,-20.04 524.7,-18.68 526.14,-25.52"/>
</a>
</g>
</g>
<!-- Node5 -->
<g id="Node000005" class="node">
<title>Node5</title>
<g id="a_Node000005"><a xlink:href="../../d0/d65/namespacedouble__hashing.html#a28083ecac6eb94b643281875c8665931" target="_top" xlink:title=" ">
<polygon fill="white" stroke="#666666" points="298.25,-137.25 176.5,-137.25 176.5,-118 298.25,-118 298.25,-137.25"/>
<text text-anchor="middle" x="237.38" y="-123.75" font-family="Helvetica,sans-Serif" font-size="10.00">double_hashing::remove</text>
</a>
</g>
</g>
<!-- Node1&#45;&gt;Node5 -->
<g id="edge5_Node000001_Node000005" class="edge">
<title>Node1&#45;&gt;Node5</title>
<g id="a_edge5_Node000001_Node000005"><a xlink:title=" ">
<path fill="none" stroke="#63b8ff" d="M140.8,-138.62C148.77,-137.71 156.9,-136.77 164.89,-135.85"/>
<polygon fill="#63b8ff" stroke="#63b8ff" points="165.03,-139.36 174.56,-134.74 164.23,-132.4 165.03,-139.36"/>
</a>
</g>
</g>
<!-- Node2&#45;&gt;Node3 -->
<g id="edge2_Node000002_Node000003" class="edge">
<title>Node2&#45;&gt;Node3</title>
<g id="a_edge2_Node000002_Node000003"><a xlink:title=" ">
<path fill="none" stroke="#63b8ff" d="M465.35,-166.95C492.7,-167.55 524.33,-168.26 548.33,-168.79"/>
<polygon fill="#63b8ff" stroke="#63b8ff" points="548.2,-172.29 558.28,-169.01 548.36,-165.29 548.2,-172.29"/>
</a>
</g>
</g>
<!-- Node5&#45;&gt;Node3 -->
<g id="edge12_Node000005_Node000003" class="edge">
<title>Node5&#45;&gt;Node3</title>
<g id="a_edge12_Node000005_Node000003"><a xlink:title=" ">
<path fill="none" stroke="#63b8ff" d="M298.54,-130.36C346.61,-133.05 415.61,-138.03 475.5,-146.62 500.05,-150.15 527.33,-155.81 548.65,-160.63"/>
<polygon fill="#63b8ff" stroke="#63b8ff" points="547.81,-164.03 558.34,-162.87 549.39,-157.21 547.81,-164.03"/>
</a>
</g>
</g>
<!-- Node6 -->
<g id="Node000006" class="node">
<title>Node6</title>
<g id="a_Node000006"><a xlink:href="../../d0/d65/namespacedouble__hashing.html#a8f8ff4fb018e1bb32d67d8a1885d3200" target="_top" xlink:title="Performs double hashing to resolve collisions.">
<polygon fill="white" stroke="#666666" points="475.5,-99.25 334.25,-99.25 334.25,-80 475.5,-80 475.5,-99.25"/>
<text text-anchor="middle" x="404.88" y="-85.75" font-family="Helvetica,sans-Serif" font-size="10.00">double_hashing::doubleHash</text>
</a>
</g>
</g>
<!-- Node5&#45;&gt;Node6 -->
<g id="edge6_Node000005_Node000006" class="edge">
<title>Node5&#45;&gt;Node6</title>
<g id="a_edge6_Node000005_Node000006"><a xlink:title=" ">
<path fill="none" stroke="#63b8ff" d="M282.29,-117.54C302.76,-112.84 327.33,-107.2 349.01,-102.22"/>
<polygon fill="#63b8ff" stroke="#63b8ff" points="349.6,-105.68 358.57,-100.03 348.04,-98.86 349.6,-105.68"/>
</a>
</g>
</g>
<!-- Node6&#45;&gt;Node3 -->
<g id="edge7_Node000006_Node000003" class="edge">
<title>Node6&#45;&gt;Node3</title>
<g id="a_edge7_Node000006_Node000003"><a xlink:title=" ">
<path fill="none" stroke="#63b8ff" d="M445.7,-99.69C455.87,-103.23 466.47,-107.81 475.5,-113.62 495.06,-126.22 491.37,-139.97 511.5,-151.62 522.79,-158.16 536.35,-162.33 548.79,-164.98"/>
<polygon fill="#63b8ff" stroke="#63b8ff" points="547.85,-168.37 558.32,-166.75 549.12,-161.49 547.85,-168.37"/>
</a>
</g>
</g>
<!-- Node6&#45;&gt;Node4 -->
<g id="edge8_Node000006_Node000004" class="edge">
<title>Node6&#45;&gt;Node4</title>
<g id="a_edge8_Node000006_Node000004"><a xlink:title=" ">
<path fill="none" stroke="#63b8ff" d="M419.87,-79.58C439.47,-65.96 476.6,-41.72 511.5,-27.62 515.8,-25.89 520.32,-24.29 524.9,-22.82"/>
<polygon fill="#63b8ff" stroke="#63b8ff" points="525.62,-26.26 534.22,-20.07 523.64,-19.55 525.62,-26.26"/>
</a>
</g>
</g>
<!-- Node7 -->
<g id="Node000007" class="node">
<title>Node7</title>
<g id="a_Node000007"><a xlink:href="../../d0/d65/namespacedouble__hashing.html#a33968a1178289ab61445dd4000df7082" target="_top" xlink:title="Used for second hash function.">
<polygon fill="white" stroke="#666666" points="662.5,-56.25 511.5,-56.25 511.5,-37 662.5,-37 662.5,-56.25"/>
<text text-anchor="middle" x="587" y="-42.75" font-family="Helvetica,sans-Serif" font-size="10.00">double_hashing::otherHashFxn</text>
</a>
</g>
</g>
<!-- Node6&#45;&gt;Node7 -->
<g id="edge9_Node000006_Node000007" class="edge">
<title>Node6&#45;&gt;Node7</title>
<g id="a_edge9_Node000006_Node000007"><a xlink:title=" ">
<path fill="none" stroke="#63b8ff" d="M448.11,-79.54C473.42,-73.5 505.84,-65.76 532.88,-59.31"/>
<polygon fill="#63b8ff" stroke="#63b8ff" points="533.34,-62.8 542.25,-57.07 531.71,-55.99 533.34,-62.8"/>
</a>
</g>
</g>
<!-- Node8 -->
<g id="Node000008" class="node">
<title>Node8</title>
<g id="a_Node000008"><a xlink:href="../../d0/d65/namespacedouble__hashing.html#ac2adfce49ac57f6dbd1778d2c1ce0d2b" target="_top" xlink:title=" ">
<polygon fill="white" stroke="#666666" points="652.75,-142.25 521.25,-142.25 521.25,-123 652.75,-123 652.75,-142.25"/>
<text text-anchor="middle" x="587" y="-128.75" font-family="Helvetica,sans-Serif" font-size="10.00">double_hashing::putProber</text>
</a>
</g>
</g>
<!-- Node6&#45;&gt;Node8 -->
<g id="edge10_Node000006_Node000008" class="edge">
<title>Node6&#45;&gt;Node8</title>
<g id="a_edge10_Node000006_Node000008"><a xlink:title=" ">
<path fill="none" stroke="#63b8ff" d="M448.11,-99.71C473.42,-105.75 505.84,-113.49 532.88,-119.94"/>
<polygon fill="#63b8ff" stroke="#63b8ff" points="531.71,-123.26 542.25,-122.18 533.34,-116.45 531.71,-123.26"/>
</a>
</g>
</g>
<!-- Node9 -->
<g id="Node000009" class="node">
<title>Node9</title>
<g id="a_Node000009"><a xlink:href="../../d0/d65/namespacedouble__hashing.html#a29f543e2626bad58907661e1e45028a6" target="_top" xlink:title=" ">
<polygon fill="white" stroke="#666666" points="652.75,-104.88 521.25,-104.88 521.25,-74.38 652.75,-74.38 652.75,-104.88"/>
<text text-anchor="start" x="529.25" y="-91.38" font-family="Helvetica,sans-Serif" font-size="10.00">double_hashing::searching</text>
<text text-anchor="middle" x="587" y="-80.12" font-family="Helvetica,sans-Serif" font-size="10.00">Prober</text>
</a>
</g>
</g>
<!-- Node6&#45;&gt;Node9 -->
<g id="edge11_Node000006_Node000009" class="edge">
<title>Node6&#45;&gt;Node9</title>
<g id="a_edge11_Node000006_Node000009"><a xlink:title=" ">
<path fill="none" stroke="#63b8ff" d="M475.77,-89.62C486.78,-89.62 498.22,-89.62 509.37,-89.62"/>
<polygon fill="#63b8ff" stroke="#63b8ff" points="509.34,-93.13 519.34,-89.63 509.34,-86.13 509.34,-93.13"/>
</a>
</g>
</g>
</g>
</svg>
