<?xml version="1.0" encoding="UTF-8" standalone="no"?>
<!DOCTYPE svg PUBLIC "-//W3C//DTD SVG 1.1//EN"
 "http://www.w3.org/Graphics/SVG/1.1/DTD/svg11.dtd">
<!-- Generated by graphviz version 2.49.3 (20211023.0002)
 -->
<!-- Title: double_hashing::removalInfo Pages: 1 -->
<!--zoomable 199 -->
<svg id="main" version="1.1" xmlns="http://www.w3.org/2000/svg" xmlns:xlink="http://www.w3.org/1999/xlink" xml:space="preserve" onload="init(evt)">
<style type="text/css"><![CDATA[
.edge:hover path { stroke: red; }
.edge:hover polygon { stroke: red; fill: red; }
]]></style>
<script type="text/javascript"><![CDATA[
var edges = document.getElementsByTagName('g');
if (edges && edges.length) {
  for (var i=0;i<edges.length;i++) {
    if (edges[i].id.substr(0,4)=='edge') {
      edges[i].setAttribute('class','edge');
    }
  }
}
]]></script>
        <defs>
                <circle id="rim" cx="0" cy="0" r="7"/>
                <circle id="rim2" cx="0" cy="0" r="3.5"/>
                <g id="zoomPlus">
                        <use xlink:href="#rim" fill="#404040">
                                <set attributeName="fill" to="#808080" begin="zoomplus.mouseover" end="zoomplus.mouseout"/>
                        </use>
                        <path d="M-4,0h8M0,-4v8" fill="none" stroke="white" stroke-width="1.5" pointer-events="none"/>
                </g>
                <g id="zoomMin">
                        <use xlink:href="#rim" fill="#404040">
                                <set attributeName="fill" to="#808080" begin="zoomminus.mouseover" end="zoomminus.mouseout"/>
                        </use>
                        <path d="M-4,0h8" fill="none" stroke="white" stroke-width="1.5" pointer-events="none"/>
                </g>
                <g id="dirArrow">
                        <path fill="none" stroke="white" stroke-width="1.5" d="M0,-3.0v7 M-2.5,-0.5L0,-3.0L2.5,-0.5"/>
                </g>
               <g id="resetDef">
                       <use xlink:href="#rim2" fill="#404040">
                               <set attributeName="fill" to="#808080" begin="reset.mouseover" end="reset.mouseout"/>
                       </use>
               </g>
        </defs>

<script type="text/javascript">
var viewWidth = 688;
var viewHeight = 199;
var sectionId = 'dynsection-5';
</script>
<script xlink:href="../../svgpan.js"/>
<svg id="graph" class="graph">
<g id="viewport">
<title>double_hashing::removalInfo</title>
<polygon fill="white" stroke="transparent" points="-4,4 -4,-195.47 684,-195.47 684,4 -4,4"/>
<!-- Node1 -->
<g id="node1" class="node">
<title>Node1</title>
<g id="a_node1"><a xlink:title=" ">
<polygon fill="#bfbfbf" stroke="black" points="0,-139.5 0,-158.5 145,-158.5 145,-139.5 0,-139.5"/>
<text text-anchor="middle" x="72.5" y="-146.5" font-family="Helvetica,sans-Serif" font-size="10.00">double_hashing::removalInfo</text>
</a>
</g>
</g>
<!-- Node2 -->
<g id="node2" class="node">
<title>Node2</title>
<g id="a_node2"><a xlink:href="../../d0/d65/namespacedouble__hashing.html#a1e901418c759627557eff359b8db38cd" target="_top" xlink:title=" ">
<polygon fill="white" stroke="black" points="354,-158.5 354,-177.5 478,-177.5 478,-158.5 354,-158.5"/>
<text text-anchor="middle" x="416" y="-165.5" font-family="Helvetica,sans-Serif" font-size="10.00">double_hashing::display</text>
</a>
</g>
</g>
<!-- Node1&#45;&gt;Node2 -->
<g id="edge1" class="edge">
<title>Node1&#45;&gt;Node2</title>
<path fill="none" stroke="midnightblue" d="M145.09,-152.98C203.39,-156.23 285.3,-160.78 343.56,-164.03"/>
<polygon fill="midnightblue" stroke="midnightblue" points="343.61,-167.53 353.79,-164.59 344,-160.54 343.61,-167.53"/>
</g>
<!-- Node3 -->
<g id="node3" class="node">
<title>Node3</title>
<g id="a_node3"><a target="_blank" xlink:href="http://en.cppreference.com/w/cpp/io/manip/endl.html#" xlink:title=" ">
<polygon fill="white" stroke="black" points="575.5,-164.5 575.5,-183.5 629.5,-183.5 629.5,-164.5 575.5,-164.5"/>
<text text-anchor="middle" x="602.5" y="-171.5" font-family="Helvetica,sans-Serif" font-size="10.00">std::endl</text>
</a>
</g>
</g>
<!-- Node1&#45;&gt;Node3 -->
<g id="edge3" class="edge">
<title>Node1&#45;&gt;Node3</title>
<path fill="none" stroke="midnightblue" d="M112.61,-158.53C132.91,-163.18 158.17,-168.51 181,-172 316.48,-192.69 352.18,-194.88 489,-187 514.59,-185.53 543.29,-182.18 565.29,-179.26"/>
<polygon fill="midnightblue" stroke="midnightblue" points="565.77,-182.72 575.21,-177.91 564.83,-175.79 565.77,-182.72"/>
</g>
<!-- Node4 -->
<g id="node4" class="node">
<title>Node4</title>
<g id="a_node4"><a xlink:href="../../d0/d65/namespacedouble__hashing.html#a0d90726ed1de7b3d2ae261baed048003" target="_top" xlink:title="Hash a key. Uses the STL library&#39;s std::hash() function.">
<polygon fill="white" stroke="black" points="537,-0.5 537,-19.5 668,-19.5 668,-0.5 537,-0.5"/>
<text text-anchor="middle" x="602.5" y="-7.5" font-family="Helvetica,sans-Serif" font-size="10.00">double_hashing::hashFxn</text>
</a>
</g>
</g>
<!-- Node1&#45;&gt;Node4 -->
<g id="edge4" class="edge">
<title>Node1&#45;&gt;Node4</title>
<path fill="none" stroke="midnightblue" d="M98.45,-139.35C120.09,-131.18 152.34,-119.48 181,-111 309.76,-72.89 463.85,-38.73 545.03,-21.61"/>
<polygon fill="midnightblue" stroke="midnightblue" points="545.97,-24.99 555.04,-19.5 544.53,-18.13 545.97,-24.99"/>
</g>
<!-- Node5 -->
<g id="node5" class="node">
<title>Node5</title>
<g id="a_node5"><a xlink:href="../../d0/d65/namespacedouble__hashing.html#a28083ecac6eb94b643281875c8665931" target="_top" xlink:title=" ">
<polygon fill="white" stroke="black" points="181,-120.5 181,-139.5 307,-139.5 307,-120.5 181,-120.5"/>
<text text-anchor="middle" x="244" y="-127.5" font-family="Helvetica,sans-Serif" font-size="10.00">double_hashing::remove</text>
</a>
</g>
</g>
<!-- Node1&#45;&gt;Node5 -->
<g id="edge5" class="edge">
<title>Node1&#45;&gt;Node5</title>
<path fill="none" stroke="midnightblue" d="M145.38,-140.94C153.79,-140 162.36,-139.04 170.77,-138.1"/>
<polygon fill="midnightblue" stroke="midnightblue" points="171.37,-141.55 180.92,-136.96 170.59,-134.59 171.37,-141.55"/>
</g>
<!-- Node2&#45;&gt;Node3 -->
<g id="edge2" class="edge">
<title>Node2&#45;&gt;Node3</title>
<path fill="none" stroke="midnightblue" d="M478.18,-169.99C507,-170.93 540.4,-172.01 565.17,-172.82"/>
<polygon fill="midnightblue" stroke="midnightblue" points="565.1,-176.32 575.21,-173.15 565.33,-169.32 565.1,-176.32"/>
</g>
<!-- Node5&#45;&gt;Node3 -->
<g id="edge12" class="edge">
<title>Node5&#45;&gt;Node3</title>
<path fill="none" stroke="midnightblue" d="M307.2,-132.42C356.67,-134.93 427.54,-139.83 489,-149 514.8,-152.85 543.49,-159.26 565.44,-164.63"/>
<polygon fill="midnightblue" stroke="midnightblue" points="564.78,-168.07 575.33,-167.08 566.47,-161.28 564.78,-168.07"/>
</g>
<!-- Node6 -->
<g id="node6" class="node">
<title>Node6</title>
<g id="a_node6"><a xlink:href="../../d0/d65/namespacedouble__hashing.html#a8f8ff4fb018e1bb32d67d8a1885d3200" target="_top" xlink:title="Performs double hashing to resolve collisions.">
<polygon fill="white" stroke="black" points="343,-82.5 343,-101.5 489,-101.5 489,-82.5 343,-82.5"/>
<text text-anchor="middle" x="416" y="-89.5" font-family="Helvetica,sans-Serif" font-size="10.00">double_hashing::doubleHash</text>
</a>
</g>
</g>
<!-- Node5&#45;&gt;Node6 -->
<g id="edge6" class="edge">
<title>Node5&#45;&gt;Node6</title>
<path fill="none" stroke="midnightblue" d="M287.9,-120.41C310.53,-115.35 338.5,-109.1 362.43,-103.75"/>
<polygon fill="midnightblue" stroke="midnightblue" points="363.41,-107.12 372.41,-101.52 361.89,-100.29 363.41,-107.12"/>
</g>
<!-- Node6&#45;&gt;Node3 -->
<g id="edge7" class="edge">
<title>Node6&#45;&gt;Node3</title>
<path fill="none" stroke="midnightblue" d="M457.49,-101.56C468.23,-105.13 479.48,-109.85 489,-116 508.81,-128.8 504.7,-142.99 525,-155 537.2,-162.22 552.05,-166.71 565.41,-169.49"/>
<polygon fill="midnightblue" stroke="midnightblue" points="564.8,-172.94 575.27,-171.31 566.07,-166.06 564.8,-172.94"/>
</g>
<!-- Node6&#45;&gt;Node4 -->
<g id="edge8" class="edge">
<title>Node6&#45;&gt;Node4</title>
<path fill="none" stroke="midnightblue" d="M430.66,-82.3C450.54,-68.6 489,-43.62 525,-29 531.13,-26.51 537.68,-24.28 544.27,-22.31"/>
<polygon fill="midnightblue" stroke="midnightblue" points="545.22,-25.67 553.9,-19.59 543.32,-18.94 545.22,-25.67"/>
</g>
<!-- Node7 -->
<g id="node7" class="node">
<title>Node7</title>
<g id="a_node7"><a xlink:href="../../d0/d65/namespacedouble__hashing.html#a33968a1178289ab61445dd4000df7082" target="_top" xlink:title="Used for second hash function.">
<polygon fill="white" stroke="black" points="525,-38.5 525,-57.5 680,-57.5 680,-38.5 525,-38.5"/>
<text text-anchor="middle" x="602.5" y="-45.5" font-family="Helvetica,sans-Serif" font-size="10.00">double_hashing::otherHashFxn</text>
</a>
</g>
</g>
<!-- Node6&#45;&gt;Node7 -->
<g id="edge9" class="edge">
<title>Node6&#45;&gt;Node7</title>
<path fill="none" stroke="midnightblue" d="M457.03,-82.45C484.84,-75.82 522.08,-66.94 551.78,-59.86"/>
<polygon fill="midnightblue" stroke="midnightblue" points="552.63,-63.25 561.54,-57.53 551.01,-56.44 552.63,-63.25"/>
</g>
<!-- Node8 -->
<g id="node8" class="node">
<title>Node8</title>
<g id="a_node8"><a xlink:href="../../d0/d65/namespacedouble__hashing.html#ac2adfce49ac57f6dbd1778d2c1ce0d2b" target="_top" xlink:title=" ">
<polygon fill="white" stroke="black" points="534,-126.5 534,-145.5 671,-145.5 671,-126.5 534,-126.5"/>
<text text-anchor="middle" x="602.5" y="-133.5" font-family="Helvetica,sans-Serif" font-size="10.00">double_hashing::putProber</text>
</a>
</g>
</g>
<!-- Node6&#45;&gt;Node8 -->
<g id="edge10" class="edge">
<title>Node6&#45;&gt;Node8</title>
<path fill="none" stroke="midnightblue" d="M457.03,-101.55C484.84,-108.18 522.08,-117.06 551.78,-124.14"/>
<polygon fill="midnightblue" stroke="midnightblue" points="551.01,-127.56 561.54,-126.47 552.63,-120.75 551.01,-127.56"/>
</g>
<!-- Node9 -->
<g id="node9" class="node">
<title>Node9</title>
<g id="a_node9"><a xlink:href="../../d0/d65/namespacedouble__hashing.html#a29f543e2626bad58907661e1e45028a6" target="_top" xlink:title=" ">
<polygon fill="white" stroke="black" points="534.5,-77 534.5,-107 670.5,-107 670.5,-77 534.5,-77"/>
<text text-anchor="start" x="542.5" y="-95" font-family="Helvetica,sans-Serif" font-size="10.00">double_hashing::searching</text>
<text text-anchor="middle" x="602.5" y="-84" font-family="Helvetica,sans-Serif" font-size="10.00">Prober</text>
</a>
</g>
</g>
<!-- Node6&#45;&gt;Node9 -->
<g id="edge11" class="edge">
<title>Node6&#45;&gt;Node9</title>
<path fill="none" stroke="midnightblue" d="M489.13,-92C500.62,-92 512.55,-92 524.15,-92"/>
<polygon fill="midnightblue" stroke="midnightblue" points="524.25,-95.5 534.25,-92 524.25,-88.5 524.25,-95.5"/>
</g>
</g>
</svg>
        <g id="navigator" transform="translate(0 0)" fill="#404254">
                <rect fill="#f2f5e9" fill-opacity="0.5" stroke="#606060" stroke-width=".5" x="0" y="0" width="60" height="60"/>
                <use id="zoomplus" xlink:href="#zoomPlus" x="17" y="9" onmousedown="handleZoom(evt,'in')"/>
                <use id="zoomminus" xlink:href="#zoomMin" x="42" y="9" onmousedown="handleZoom(evt,'out')"/>
                <use id="reset" xlink:href="#resetDef" x="30" y="36" onmousedown="handleReset()"/>
                <g id="arrowUp" xlink:href="#dirArrow" transform="translate(30 24)" onmousedown="handlePan(0,-1)">
                  <use xlink:href="#rim" fill="#404040">
                        <set attributeName="fill" to="#808080" begin="arrowUp.mouseover" end="arrowUp.mouseout"/>
                  </use>
                  <path fill="none" stroke="white" stroke-width="1.5" d="M0,-3.0v7 M-2.5,-0.5L0,-3.0L2.5,-0.5"/>
                </g>
                <g id="arrowRight" xlink:href="#dirArrow" transform="rotate(90) translate(36 -43)" onmousedown="handlePan(1,0)">
                  <use xlink:href="#rim" fill="#404040">
                        <set attributeName="fill" to="#808080" begin="arrowRight.mouseover" end="arrowRight.mouseout"/>
                  </use>
                  <path fill="none" stroke="white" stroke-width="1.5" d="M0,-3.0v7 M-2.5,-0.5L0,-3.0L2.5,-0.5"/>
                </g>
                <g id="arrowDown" xlink:href="#dirArrow" transform="rotate(180) translate(-30 -48)" onmousedown="handlePan(0,1)">
                  <use xlink:href="#rim" fill="#404040">
                        <set attributeName="fill" to="#808080" begin="arrowDown.mouseover" end="arrowDown.mouseout"/>
                  </use>
                  <path fill="none" stroke="white" stroke-width="1.5" d="M0,-3.0v7 M-2.5,-0.5L0,-3.0L2.5,-0.5"/>
                </g>
                <g id="arrowLeft" xlink:href="#dirArrow" transform="rotate(270) translate(-36 17)" onmousedown="handlePan(-1,0)">
                  <use xlink:href="#rim" fill="#404040">
                        <set attributeName="fill" to="#808080" begin="arrowLeft.mouseover" end="arrowLeft.mouseout"/>
                  </use>
                  <path fill="none" stroke="white" stroke-width="1.5" d="M0,-3.0v7 M-2.5,-0.5L0,-3.0L2.5,-0.5"/>
                </g>
        </g>
        <svg viewBox="0 0 15 15" width="100%" height="30px" preserveAspectRatio="xMaxYMin meet">
         <g id="arrow_out" transform="scale(0.3 0.3)">
          <a xlink:href="namespacedouble__hashing_a5d06e4598569526294f10104875f6824_cgraph_org.svg" target="_base">
           <rect id="button" ry="5" rx="5" y="6" x="6" height="38" width="38"
                fill="#f2f5e9" fill-opacity="0.5" stroke="#606060" stroke-width="1.0"/>
           <path id="arrow"
             d="M 11.500037,31.436501 C 11.940474,20.09759 22.043105,11.32322 32.158766,21.979434 L 37.068811,17.246167 C 37.068811,17.246167 37.088388,32 37.088388,32 L 22.160133,31.978069 C 22.160133,31.978069 26.997745,27.140456 26.997745,27.140456 C 18.528582,18.264221 13.291696,25.230495 11.500037,31.436501 z"
             style="fill:#404040;"/>
          </a>
         </g>
        </svg>
</svg>
