<?xml version="1.0" encoding="UTF-8" standalone="no"?>
<!DOCTYPE svg PUBLIC "-//W3C//DTD SVG 1.1//EN"
 "http://www.w3.org/Graphics/SVG/1.1/DTD/svg11.dtd">
<!-- Generated by graphviz version 7.1.0 (20230121.1956)
 -->
<!-- Title: double_hashing::addInfo Pages: 1 -->
<!--zoomable 214 -->
<svg id="main" version="1.1" xmlns="http://www.w3.org/2000/svg" xmlns:xlink="http://www.w3.org/1999/xlink" xml:space="preserve" onload="init(evt)">
<style type="text/css"><![CDATA[
.edge:hover path { stroke: red; }
.edge:hover polygon { stroke: red; fill: red; }
]]></style>
<script type="text/javascript"><![CDATA[
var edges = document.getElementsByTagName('g');
if (edges && edges.length) {
  for (var i=0;i<edges.length;i++) {
    if (edges[i].id.substr(0,4)=='edge') {
      edges[i].setAttribute('class','edge');
    }
  }
}
]]></script>
        <defs>
                <circle id="rim" cx="0" cy="0" r="7"/>
                <circle id="rim2" cx="0" cy="0" r="3.5"/>
                <g id="zoomPlus">
                        <use xlink:href="#rim" fill="#404040">
                                <set attributeName="fill" to="#808080" begin="zoomplus.mouseover" end="zoomplus.mouseout"/>
                        </use>
                        <path d="M-4,0h8M0,-4v8" fill="none" stroke="white" stroke-width="1.5" pointer-events="none"/>
                </g>
                <g id="zoomMin">
                        <use xlink:href="#rim" fill="#404040">
                                <set attributeName="fill" to="#808080" begin="zoomminus.mouseover" end="zoomminus.mouseout"/>
                        </use>
                        <path d="M-4,0h8" fill="none" stroke="white" stroke-width="1.5" pointer-events="none"/>
                </g>
                <g id="dirArrow">
                        <path fill="none" stroke="white" stroke-width="1.5" d="M0,-3.0v7 M-2.5,-0.5L0,-3.0L2.5,-0.5"/>
                </g>
               <g id="resetDef">
                       <use xlink:href="#rim2" fill="#404040">
                               <set attributeName="fill" to="#808080" begin="reset.mouseover" end="reset.mouseout"/>
                       </use>
               </g>
        </defs>

<script type="text/javascript">
var viewWidth = 653;
var viewHeight = 214;
var sectionId = 'dynsection-1';
</script>
<script xlink:href="../../svgpan.js"/>
<svg id="graph" class="graph">
<g id="viewport">
<title>double_hashing::addInfo</title>
<!-- Node1 -->
<g id="node1" class="node">
<title>Node1</title>
<g id="a_node1"><a xlink:title=" ">
<polygon fill="#999999" stroke="#666666" points="122,-149 0,-149 0,-130 122,-130 122,-149"/>
<text text-anchor="middle" x="61" y="-137" font-family="Helvetica,sans-Serif" font-size="10.00">double_hashing::addInfo</text>
</a>
</g>
</g>
<!-- Node2 -->
<g id="node2" class="node">
<title>Node2</title>
<g id="a_node2"><a xlink:href="../../d0/d65/namespacedouble__hashing.html#a79a9c914a6c68275b3640303d7faad8a" target="_top" xlink:title=" ">
<polygon fill="white" stroke="#666666" points="271.5,-130 165.5,-130 165.5,-111 271.5,-111 271.5,-130"/>
<text text-anchor="middle" x="218.5" y="-118" font-family="Helvetica,sans-Serif" font-size="10.00">double_hashing::add</text>
</a>
</g>
</g>
<!-- Node1&#45;&gt;Node2 -->
<g id="edge1" class="edge">
<title>Node1&#45;&gt;Node2</title>
<path fill="none" stroke="#63b8ff" d="M122.12,-132.15C132.54,-130.88 143.4,-129.55 153.91,-128.27"/>
<polygon fill="#63b8ff" stroke="#63b8ff" points="154.13,-131.77 163.63,-127.08 153.28,-124.82 154.13,-131.77"/>
</g>
<!-- Node4 -->
<g id="node4" class="node">
<title>Node4</title>
<g id="a_node4"><a target="_blank" xlink:href="http://en.cppreference.com/w/cpp/io/manip/endl.html#" xlink:title=" ">
<polygon fill="white" stroke="#666666" points="596,-179 542,-179 542,-160 596,-160 596,-179"/>
<text text-anchor="middle" x="569" y="-167" font-family="Helvetica,sans-Serif" font-size="10.00">std::endl</text>
</a>
</g>
</g>
<!-- Node1&#45;&gt;Node4 -->
<g id="edge13" class="edge">
<title>Node1&#45;&gt;Node4</title>
<path fill="none" stroke="#63b8ff" d="M122.28,-143.07C227.9,-149.34 443.43,-162.11 530.39,-167.27"/>
<polygon fill="#63b8ff" stroke="#63b8ff" points="530.08,-170.76 540.27,-167.86 530.49,-163.77 530.08,-170.76"/>
</g>
<!-- Node5 -->
<g id="node5" class="node">
<title>Node5</title>
<g id="a_node5"><a xlink:href="../../d0/d65/namespacedouble__hashing.html#a0d90726ed1de7b3d2ae261baed048003" target="_top" xlink:title="Hash a key. Uses the STL library&#39;s std::hash() function.">
<polygon fill="white" stroke="#666666" points="633,-19 505,-19 505,0 633,0 633,-19"/>
<text text-anchor="middle" x="569" y="-7" font-family="Helvetica,sans-Serif" font-size="10.00">double_hashing::hashFxn</text>
</a>
</g>
</g>
<!-- Node1&#45;&gt;Node5 -->
<g id="edge14" class="edge">
<title>Node1&#45;&gt;Node5</title>
<path fill="none" stroke="#63b8ff" d="M84.17,-129.66C103.42,-121.37 132.18,-109.61 158,-101.5 275.33,-64.67 415.91,-36.45 498.26,-21.47"/>
<polygon fill="#63b8ff" stroke="#63b8ff" points="498.77,-24.94 507.99,-19.72 497.53,-18.05 498.77,-24.94"/>
</g>
<!-- Node10 -->
<g id="node10" class="node">
<title>Node10</title>
<g id="a_node10"><a xlink:href="../../d0/d65/namespacedouble__hashing.html#a1e901418c759627557eff359b8db38cd" target="_top" xlink:title=" ">
<polygon fill="white" stroke="#666666" points="279,-206 158,-206 158,-187 279,-187 279,-206"/>
<text text-anchor="middle" x="218.5" y="-194" font-family="Helvetica,sans-Serif" font-size="10.00">double_hashing::display</text>
</a>
</g>
</g>
<!-- Node1&#45;&gt;Node10 -->
<g id="edge11" class="edge">
<title>Node1&#45;&gt;Node10</title>
<path fill="none" stroke="#63b8ff" d="M89.09,-149.43C114.21,-158.64 151.82,-172.43 179.86,-182.7"/>
<polygon fill="#63b8ff" stroke="#63b8ff" points="178.45,-185.91 189.04,-186.07 180.86,-179.34 178.45,-185.91"/>
</g>
<!-- Node3 -->
<g id="node3" class="node">
<title>Node3</title>
<g id="a_node3"><a xlink:href="../../d0/d65/namespacedouble__hashing.html#a8f8ff4fb018e1bb32d67d8a1885d3200" target="_top" xlink:title="Performs double hashing to resolve collisions.">
<polygon fill="white" stroke="#666666" points="457,-93 315,-93 315,-74 457,-74 457,-93"/>
<text text-anchor="middle" x="386" y="-81" font-family="Helvetica,sans-Serif" font-size="10.00">double_hashing::doubleHash</text>
</a>
</g>
</g>
<!-- Node2&#45;&gt;Node3 -->
<g id="edge2" class="edge">
<title>Node2&#45;&gt;Node3</title>
<path fill="none" stroke="#63b8ff" d="M263.85,-110.58C283.98,-106.08 308,-100.71 329.33,-95.95"/>
<polygon fill="#63b8ff" stroke="#63b8ff" points="330.05,-99.37 339.05,-93.77 328.53,-92.54 330.05,-99.37"/>
</g>
<!-- Node9 -->
<g id="node9" class="node">
<title>Node9</title>
<g id="a_node9"><a xlink:href="../../d0/d65/namespacedouble__hashing.html#af4981819aae8bc7e7beeaef02615e30d" target="_top" xlink:title=" ">
<polygon fill="white" stroke="#666666" points="445.5,-130 326.5,-130 326.5,-111 445.5,-111 445.5,-130"/>
<text text-anchor="middle" x="386" y="-118" font-family="Helvetica,sans-Serif" font-size="10.00">double_hashing::rehash</text>
</a>
</g>
</g>
<!-- Node2&#45;&gt;Node9 -->
<g id="edge8" class="edge">
<title>Node2&#45;&gt;Node9</title>
<path fill="none" stroke="#63b8ff" d="M271.87,-114.17C285.47,-113.78 300.34,-113.66 314.7,-113.82"/>
<polygon fill="#63b8ff" stroke="#63b8ff" points="314.5,-117.32 324.55,-113.98 314.61,-110.32 314.5,-117.32"/>
</g>
<!-- Node3&#45;&gt;Node4 -->
<g id="edge3" class="edge">
<title>Node3&#45;&gt;Node4</title>
<path fill="none" stroke="#63b8ff" d="M441.38,-93.44C446.89,-95.62 452.22,-98.27 457,-101.5 479.39,-116.63 470.58,-135.41 493,-150.5 504,-157.91 517.68,-162.43 530.33,-165.19"/>
<polygon fill="#63b8ff" stroke="#63b8ff" points="529.59,-168.61 540.06,-166.98 530.86,-161.73 529.59,-168.61"/>
</g>
<!-- Node3&#45;&gt;Node5 -->
<g id="edge4" class="edge">
<title>Node3&#45;&gt;Node5</title>
<path fill="none" stroke="#63b8ff" d="M402.58,-73.67C422.75,-61.32 459.31,-40.21 493,-27.5 497.71,-25.72 502.65,-24.08 507.66,-22.57"/>
<polygon fill="#63b8ff" stroke="#63b8ff" points="508.51,-25.97 517.19,-19.89 506.62,-19.23 508.51,-25.97"/>
</g>
<!-- Node6 -->
<g id="node6" class="node">
<title>Node6</title>
<g id="a_node6"><a xlink:href="../../d0/d65/namespacedouble__hashing.html#a33968a1178289ab61445dd4000df7082" target="_top" xlink:title="Used for second hash function.">
<polygon fill="white" stroke="#666666" points="645,-93 493,-93 493,-74 645,-74 645,-93"/>
<text text-anchor="middle" x="569" y="-81" font-family="Helvetica,sans-Serif" font-size="10.00">double_hashing::otherHashFxn</text>
</a>
</g>
</g>
<!-- Node3&#45;&gt;Node6 -->
<g id="edge5" class="edge">
<title>Node3&#45;&gt;Node6</title>
<path fill="none" stroke="#63b8ff" d="M457.5,-83.5C465.32,-83.5 473.36,-83.5 481.36,-83.5"/>
<polygon fill="#63b8ff" stroke="#63b8ff" points="481.09,-87 491.09,-83.5 481.09,-80 481.09,-87"/>
</g>
<!-- Node7 -->
<g id="node7" class="node">
<title>Node7</title>
<g id="a_node7"><a xlink:href="../../d0/d65/namespacedouble__hashing.html#ac2adfce49ac57f6dbd1778d2c1ce0d2b" target="_top" xlink:title=" ">
<polygon fill="white" stroke="#666666" points="635,-56 503,-56 503,-37 635,-37 635,-56"/>
<text text-anchor="middle" x="569" y="-44" font-family="Helvetica,sans-Serif" font-size="10.00">double_hashing::putProber</text>
</a>
</g>
</g>
<!-- Node3&#45;&gt;Node7 -->
<g id="edge6" class="edge">
<title>Node3&#45;&gt;Node7</title>
<path fill="none" stroke="#63b8ff" d="M435.5,-73.58C457.92,-69 484.76,-63.52 508.4,-58.68"/>
<polygon fill="#63b8ff" stroke="#63b8ff" points="508.78,-62.18 517.88,-56.75 507.38,-55.32 508.78,-62.18"/>
</g>
<!-- Node8 -->
<g id="node8" class="node">
<title>Node8</title>
<g id="a_node8"><a xlink:href="../../d0/d65/namespacedouble__hashing.html#a29f543e2626bad58907661e1e45028a6" target="_top" xlink:title=" ">
<polygon fill="white" stroke="#666666" points="635,-141.5 503,-141.5 503,-111.5 635,-111.5 635,-141.5"/>
<text text-anchor="start" x="511" y="-129.5" font-family="Helvetica,sans-Serif" font-size="10.00">double_hashing::searching</text>
<text text-anchor="middle" x="569" y="-118.5" font-family="Helvetica,sans-Serif" font-size="10.00">Prober</text>
</a>
</g>
</g>
<!-- Node3&#45;&gt;Node8 -->
<g id="edge7" class="edge">
<title>Node3&#45;&gt;Node8</title>
<path fill="none" stroke="#63b8ff" d="M428.98,-93.47C447.66,-97.91 470.24,-103.28 491.74,-108.38"/>
<polygon fill="#63b8ff" stroke="#63b8ff" points="490.84,-111.77 501.37,-110.67 492.45,-104.96 490.84,-111.77"/>
</g>
<!-- Node9&#45;&gt;Node2 -->
<g id="edge9" class="edge">
<title>Node9&#45;&gt;Node2</title>
<path fill="none" stroke="#63b8ff" d="M326.07,-127C312.11,-127.3 297.16,-127.33 283.01,-127.09"/>
<polygon fill="#63b8ff" stroke="#63b8ff" points="283.46,-123.59 273.38,-126.86 283.29,-130.59 283.46,-123.59"/>
</g>
<!-- Node9&#45;&gt;Node4 -->
<g id="edge10" class="edge">
<title>Node9&#45;&gt;Node4</title>
<path fill="none" stroke="#63b8ff" d="M421.31,-130.47C442.03,-136.43 468.98,-144.06 493,-150.5 505.19,-153.77 518.54,-157.2 530.55,-160.23"/>
<polygon fill="#63b8ff" stroke="#63b8ff" points="529.56,-163.59 540.11,-162.63 531.26,-156.8 529.56,-163.59"/>
</g>
<!-- Node10&#45;&gt;Node4 -->
<g id="edge12" class="edge">
<title>Node10&#45;&gt;Node4</title>
<path fill="none" stroke="#63b8ff" d="M279.41,-191.86C351.48,-186.28 470.26,-177.07 530.49,-172.41"/>
<polygon fill="#63b8ff" stroke="#63b8ff" points="530.51,-175.92 540.21,-171.65 529.97,-168.94 530.51,-175.92"/>
</g>
</g>
</svg>
        <g id="navigator" transform="translate(0 0)" fill="#404254">
                <rect fill="#f2f5e9" fill-opacity="0.5" stroke="#606060" stroke-width=".5" x="0" y="0" width="60" height="60"/>
                <use id="zoomplus" xlink:href="#zoomPlus" x="17" y="9" onmousedown="handleZoom(evt,'in')"/>
                <use id="zoomminus" xlink:href="#zoomMin" x="42" y="9" onmousedown="handleZoom(evt,'out')"/>
                <use id="reset" xlink:href="#resetDef" x="30" y="36" onmousedown="handleReset()"/>
                <g id="arrowUp" xlink:href="#dirArrow" transform="translate(30 24)" onmousedown="handlePan(0,-1)">
                  <use xlink:href="#rim" fill="#404040">
                        <set attributeName="fill" to="#808080" begin="arrowUp.mouseover" end="arrowUp.mouseout"/>
                  </use>
                  <path fill="none" stroke="white" stroke-width="1.5" d="M0,-3.0v7 M-2.5,-0.5L0,-3.0L2.5,-0.5"/>
                </g>
                <g id="arrowRight" xlink:href="#dirArrow" transform="rotate(90) translate(36 -43)" onmousedown="handlePan(1,0)">
                  <use xlink:href="#rim" fill="#404040">
                        <set attributeName="fill" to="#808080" begin="arrowRight.mouseover" end="arrowRight.mouseout"/>
                  </use>
                  <path fill="none" stroke="white" stroke-width="1.5" d="M0,-3.0v7 M-2.5,-0.5L0,-3.0L2.5,-0.5"/>
                </g>
                <g id="arrowDown" xlink:href="#dirArrow" transform="rotate(180) translate(-30 -48)" onmousedown="handlePan(0,1)">
                  <use xlink:href="#rim" fill="#404040">
                        <set attributeName="fill" to="#808080" begin="arrowDown.mouseover" end="arrowDown.mouseout"/>
                  </use>
                  <path fill="none" stroke="white" stroke-width="1.5" d="M0,-3.0v7 M-2.5,-0.5L0,-3.0L2.5,-0.5"/>
                </g>
                <g id="arrowLeft" xlink:href="#dirArrow" transform="rotate(270) translate(-36 17)" onmousedown="handlePan(-1,0)">
                  <use xlink:href="#rim" fill="#404040">
                        <set attributeName="fill" to="#808080" begin="arrowLeft.mouseover" end="arrowLeft.mouseout"/>
                  </use>
                  <path fill="none" stroke="white" stroke-width="1.5" d="M0,-3.0v7 M-2.5,-0.5L0,-3.0L2.5,-0.5"/>
                </g>
        </g>
        <svg viewBox="0 0 15 15" width="100%" height="30px" preserveAspectRatio="xMaxYMin meet">
         <g id="arrow_out" transform="scale(0.3 0.3)">
          <a xlink:href="namespacedouble__hashing_a9c652b2e467e5d250dfe3bed83b12560_cgraph_org.svg" target="_base">
           <rect id="button" ry="5" rx="5" y="6" x="6" height="38" width="38"
                fill="#f2f5e9" fill-opacity="0.5" stroke="#606060" stroke-width="1.0"/>
           <path id="arrow"
             d="M 11.500037,31.436501 C 11.940474,20.09759 22.043105,11.32322 32.158766,21.979434 L 37.068811,17.246167 C 37.068811,17.246167 37.088388,32 37.088388,32 L 22.160133,31.978069 C 22.160133,31.978069 26.997745,27.140456 26.997745,27.140456 C 18.528582,18.264221 13.291696,25.230495 11.500037,31.436501 z"
             style="fill:#404040;"/>
          </a>
         </g>
        </svg>
</svg>
