<?xml version="1.0" encoding="UTF-8" standalone="no"?>
<!DOCTYPE svg PUBLIC "-//W3C//DTD SVG 1.1//EN"
 "http://www.w3.org/Graphics/SVG/1.1/DTD/svg11.dtd">
<!-- Generated by graphviz version 2.49.3 (20211023.0002)
 -->
<!-- Title: double_hashing::add Pages: 1 -->
<svg width="490pt" height="192pt"
 viewBox="0.00 0.00 490.00 191.50" xmlns="http://www.w3.org/2000/svg" xmlns:xlink="http://www.w3.org/1999/xlink">
<g id="graph0" class="graph" transform="scale(1 1) rotate(0) translate(4 187.5)">
<title>double_hashing::add</title>
<polygon fill="white" stroke="transparent" points="-4,4 -4,-187.5 486,-187.5 486,4 -4,4"/>
<!-- Node1 -->
<g id="node1" class="node">
<title>Node1</title>
<g id="a_node1"><a xlink:title=" ">
<polygon fill="#bfbfbf" stroke="black" points="0,-154 0,-173 109,-173 109,-154 0,-154"/>
<text text-anchor="middle" x="54.5" y="-161" font-family="Helvetica,sans-Serif" font-size="10.00">double_hashing::add</text>
</a>
</g>
</g>
<!-- Node2 -->
<g id="node2" class="node">
<title>Node2</title>
<g id="a_node2"><a xlink:href="../../d0/d65/namespacedouble__hashing.html#a8f8ff4fb018e1bb32d67d8a1885d3200" target="_top" xlink:title="Performs double hashing to resolve collisions.">
<polygon fill="white" stroke="black" points="145,-107 145,-126 291,-126 291,-107 145,-107"/>
<text text-anchor="middle" x="218" y="-114" font-family="Helvetica,sans-Serif" font-size="10.00">double_hashing::doubleHash</text>
</a>
</g>
</g>
<!-- Node1&#45;&gt;Node2 -->
<g id="edge1" class="edge">
<title>Node1&#45;&gt;Node2</title>
<path fill="none" stroke="midnightblue" d="M88.18,-153.99C112.95,-146.78 147.19,-136.82 174.15,-128.97"/>
<polygon fill="midnightblue" stroke="midnightblue" points="175.47,-132.23 184.09,-126.08 173.51,-125.51 175.47,-132.23"/>
</g>
<!-- Node8 -->
<g id="node8" class="node">
<title>Node8</title>
<g id="a_node8"><a xlink:href="../../d0/d65/namespacedouble__hashing.html#af4981819aae8bc7e7beeaef02615e30d" target="_top" xlink:title=" ">
<polygon fill="white" stroke="black" points="156.5,-154 156.5,-173 279.5,-173 279.5,-154 156.5,-154"/>
<text text-anchor="middle" x="218" y="-161" font-family="Helvetica,sans-Serif" font-size="10.00">double_hashing::rehash</text>
</a>
</g>
</g>
<!-- Node1&#45;&gt;Node8 -->
<g id="edge7" class="edge">
<title>Node1&#45;&gt;Node8</title>
<path fill="none" stroke="midnightblue" d="M109.28,-157.1C121.11,-156.78 133.81,-156.68 146.19,-156.8"/>
<polygon fill="midnightblue" stroke="midnightblue" points="146.44,-160.3 156.49,-156.94 146.54,-153.3 146.44,-160.3"/>
</g>
<!-- Node3 -->
<g id="node3" class="node">
<title>Node3</title>
<g id="a_node3"><a target="_blank" xlink:href="http://en.cppreference.com/w/cpp/io/manip/endl.html#" xlink:title=" ">
<polygon fill="white" stroke="black" points="377.5,-164 377.5,-183 431.5,-183 431.5,-164 377.5,-164"/>
<text text-anchor="middle" x="404.5" y="-171" font-family="Helvetica,sans-Serif" font-size="10.00">std::endl</text>
</a>
</g>
</g>
<!-- Node2&#45;&gt;Node3 -->
<g id="edge2" class="edge">
<title>Node2&#45;&gt;Node3</title>
<path fill="none" stroke="midnightblue" d="M244.09,-126.09C265.84,-134.22 298.25,-145.89 327,-154.5 340.14,-158.43 354.71,-162.2 367.59,-165.32"/>
<polygon fill="midnightblue" stroke="midnightblue" points="366.95,-168.77 377.48,-167.69 368.57,-161.96 366.95,-168.77"/>
</g>
<!-- Node4 -->
<g id="node4" class="node">
<title>Node4</title>
<g id="a_node4"><a xlink:href="../../d0/d65/namespacedouble__hashing.html#a0d90726ed1de7b3d2ae261baed048003" target="_top" xlink:title="Hash a key. Uses the STL library&#39;s std::hash() function.">
<polygon fill="white" stroke="black" points="339,-126 339,-145 470,-145 470,-126 339,-126"/>
<text text-anchor="middle" x="404.5" y="-133" font-family="Helvetica,sans-Serif" font-size="10.00">double_hashing::hashFxn</text>
</a>
</g>
</g>
<!-- Node2&#45;&gt;Node4 -->
<g id="edge3" class="edge">
<title>Node2&#45;&gt;Node4</title>
<path fill="none" stroke="midnightblue" d="M291.13,-123.93C303.44,-125.2 316.26,-126.52 328.65,-127.79"/>
<polygon fill="midnightblue" stroke="midnightblue" points="328.63,-131.31 338.93,-128.85 329.34,-124.34 328.63,-131.31"/>
</g>
<!-- Node5 -->
<g id="node5" class="node">
<title>Node5</title>
<g id="a_node5"><a xlink:href="../../d0/d65/namespacedouble__hashing.html#a33968a1178289ab61445dd4000df7082" target="_top" xlink:title="Used for second hash function.">
<polygon fill="white" stroke="black" points="327,-88 327,-107 482,-107 482,-88 327,-88"/>
<text text-anchor="middle" x="404.5" y="-95" font-family="Helvetica,sans-Serif" font-size="10.00">double_hashing::otherHashFxn</text>
</a>
</g>
</g>
<!-- Node2&#45;&gt;Node5 -->
<g id="edge4" class="edge">
<title>Node2&#45;&gt;Node5</title>
<path fill="none" stroke="midnightblue" d="M291.13,-109.07C299.55,-108.2 308.21,-107.31 316.81,-106.43"/>
<polygon fill="midnightblue" stroke="midnightblue" points="317.27,-109.9 326.86,-105.39 316.55,-102.94 317.27,-109.9"/>
</g>
<!-- Node6 -->
<g id="node6" class="node">
<title>Node6</title>
<g id="a_node6"><a xlink:href="../../d0/d65/namespacedouble__hashing.html#ac2adfce49ac57f6dbd1778d2c1ce0d2b" target="_top" xlink:title=" ">
<polygon fill="white" stroke="black" points="336,-50 336,-69 473,-69 473,-50 336,-50"/>
<text text-anchor="middle" x="404.5" y="-57" font-family="Helvetica,sans-Serif" font-size="10.00">double_hashing::putProber</text>
</a>
</g>
</g>
<!-- Node2&#45;&gt;Node6 -->
<g id="edge5" class="edge">
<title>Node2&#45;&gt;Node6</title>
<path fill="none" stroke="midnightblue" d="M244.09,-106.91C265.84,-98.78 298.25,-87.11 327,-78.5 335.1,-76.07 343.75,-73.71 352.21,-71.52"/>
<polygon fill="midnightblue" stroke="midnightblue" points="353.18,-74.89 362.01,-69.04 351.46,-68.1 353.18,-74.89"/>
</g>
<!-- Node7 -->
<g id="node7" class="node">
<title>Node7</title>
<g id="a_node7"><a xlink:href="../../d0/d65/namespacedouble__hashing.html#a29f543e2626bad58907661e1e45028a6" target="_top" xlink:title=" ">
<polygon fill="white" stroke="black" points="336.5,-0.5 336.5,-30.5 472.5,-30.5 472.5,-0.5 336.5,-0.5"/>
<text text-anchor="start" x="344.5" y="-18.5" font-family="Helvetica,sans-Serif" font-size="10.00">double_hashing::searching</text>
<text text-anchor="middle" x="404.5" y="-7.5" font-family="Helvetica,sans-Serif" font-size="10.00">Prober</text>
</a>
</g>
</g>
<!-- Node2&#45;&gt;Node7 -->
<g id="edge6" class="edge">
<title>Node2&#45;&gt;Node7</title>
<path fill="none" stroke="midnightblue" d="M230.26,-106.85C249.14,-91.07 288.87,-59.6 327,-40.5 331.49,-38.25 336.23,-36.14 341.06,-34.17"/>
<polygon fill="midnightblue" stroke="midnightblue" points="342.34,-37.43 350.41,-30.57 339.82,-30.9 342.34,-37.43"/>
</g>
<!-- Node8&#45;&gt;Node1 -->
<g id="edge8" class="edge">
<title>Node8&#45;&gt;Node1</title>
<path fill="none" stroke="midnightblue" d="M156.49,-170.06C144.38,-170.29 131.62,-170.31 119.39,-170.12"/>
<polygon fill="midnightblue" stroke="midnightblue" points="119.35,-166.62 109.28,-169.9 119.2,-173.61 119.35,-166.62"/>
</g>
<!-- Node8&#45;&gt;Node3 -->
<g id="edge9" class="edge">
<title>Node8&#45;&gt;Node3</title>
<path fill="none" stroke="midnightblue" d="M279.67,-166.79C308.52,-168.35 342.07,-170.17 366.96,-171.52"/>
<polygon fill="midnightblue" stroke="midnightblue" points="366.89,-175.02 377.06,-172.07 367.27,-168.03 366.89,-175.02"/>
</g>
</g>
</svg>
