<?xml version="1.0" encoding="UTF-8" standalone="no"?>
<!DOCTYPE svg PUBLIC "-//W3C//DTD SVG 1.1//EN"
 "http://www.w3.org/Graphics/SVG/1.1/DTD/svg11.dtd">
<!-- Generated by graphviz version 2.49.3 (20211023.0002)
 -->
<!-- Title: double_hashing::addInfo Pages: 1 -->
<svg width="667pt" height="218pt"
 viewBox="0.00 0.00 667.00 218.00" xmlns="http://www.w3.org/2000/svg" xmlns:xlink="http://www.w3.org/1999/xlink">
<g id="graph0" class="graph" transform="scale(1 1) rotate(0) translate(4 214)">
<title>double_hashing::addInfo</title>
<polygon fill="white" stroke="transparent" points="-4,4 -4,-214 663,-214 663,4 -4,4"/>
<!-- Node1 -->
<g id="node1" class="node">
<title>Node1</title>
<g id="a_node1"><a xlink:title=" ">
<polygon fill="#bfbfbf" stroke="black" points="0,-133.5 0,-152.5 126,-152.5 126,-133.5 0,-133.5"/>
<text text-anchor="middle" x="63" y="-140.5" font-family="Helvetica,sans-Serif" font-size="10.00">double_hashing::addInfo</text>
</a>
</g>
</g>
<!-- Node2 -->
<g id="node2" class="node">
<title>Node2</title>
<g id="a_node2"><a xlink:href="../../d0/d65/namespacedouble__hashing.html#a79a9c914a6c68275b3640303d7faad8a" target="_top" xlink:title=" ">
<polygon fill="white" stroke="black" points="169.5,-114.5 169.5,-133.5 278.5,-133.5 278.5,-114.5 169.5,-114.5"/>
<text text-anchor="middle" x="224" y="-121.5" font-family="Helvetica,sans-Serif" font-size="10.00">double_hashing::add</text>
</a>
</g>
</g>
<!-- Node1&#45;&gt;Node2 -->
<g id="edge1" class="edge">
<title>Node1&#45;&gt;Node2</title>
<path fill="none" stroke="midnightblue" d="M126.38,-135.55C137.13,-134.26 148.32,-132.92 159.1,-131.64"/>
<polygon fill="midnightblue" stroke="midnightblue" points="159.78,-135.08 169.29,-130.42 158.95,-128.13 159.78,-135.08"/>
</g>
<!-- Node4 -->
<g id="node4" class="node">
<title>Node4</title>
<g id="a_node4"><a target="_blank" xlink:href="http://en.cppreference.com/w/cpp/io/manip/endl.html#" xlink:title=" ">
<polygon fill="white" stroke="black" points="554.5,-164.5 554.5,-183.5 608.5,-183.5 608.5,-164.5 554.5,-164.5"/>
<text text-anchor="middle" x="581.5" y="-171.5" font-family="Helvetica,sans-Serif" font-size="10.00">std::endl</text>
</a>
</g>
</g>
<!-- Node1&#45;&gt;Node4 -->
<g id="edge13" class="edge">
<title>Node1&#45;&gt;Node4</title>
<path fill="none" stroke="midnightblue" d="M126.05,-146.72C234.89,-153.26 456.94,-166.58 544.16,-171.82"/>
<polygon fill="midnightblue" stroke="midnightblue" points="544.16,-175.33 554.36,-172.43 544.58,-168.34 544.16,-175.33"/>
</g>
<!-- Node5 -->
<g id="node5" class="node">
<title>Node5</title>
<g id="a_node5"><a xlink:href="../../d0/d65/namespacedouble__hashing.html#a0d90726ed1de7b3d2ae261baed048003" target="_top" xlink:title="Hash a key. Uses the STL library&#39;s std::hash() function.">
<polygon fill="white" stroke="black" points="516,-0.5 516,-19.5 647,-19.5 647,-0.5 516,-0.5"/>
<text text-anchor="middle" x="581.5" y="-7.5" font-family="Helvetica,sans-Serif" font-size="10.00">double_hashing::hashFxn</text>
</a>
</g>
</g>
<!-- Node1&#45;&gt;Node5 -->
<g id="edge14" class="edge">
<title>Node1&#45;&gt;Node5</title>
<path fill="none" stroke="midnightblue" d="M86.27,-133.36C105.93,-125.09 135.51,-113.24 162,-105 285.1,-66.71 432.99,-36.78 515.91,-21.4"/>
<polygon fill="midnightblue" stroke="midnightblue" points="516.74,-24.81 525.94,-19.55 515.47,-17.92 516.74,-24.81"/>
</g>
<!-- Node10 -->
<g id="node10" class="node">
<title>Node10</title>
<g id="a_node10"><a xlink:href="../../d0/d65/namespacedouble__hashing.html#a1e901418c759627557eff359b8db38cd" target="_top" xlink:title=" ">
<polygon fill="white" stroke="black" points="162,-190.5 162,-209.5 286,-209.5 286,-190.5 162,-190.5"/>
<text text-anchor="middle" x="224" y="-197.5" font-family="Helvetica,sans-Serif" font-size="10.00">double_hashing::display</text>
</a>
</g>
</g>
<!-- Node1&#45;&gt;Node10 -->
<g id="edge11" class="edge">
<title>Node1&#45;&gt;Node10</title>
<path fill="none" stroke="midnightblue" d="M90.61,-152.54C116.98,-161.99 157.56,-176.54 186.84,-187.04"/>
<polygon fill="midnightblue" stroke="midnightblue" points="185.71,-190.35 196.3,-190.43 188.07,-183.76 185.71,-190.35"/>
</g>
<!-- Node3 -->
<g id="node3" class="node">
<title>Node3</title>
<g id="a_node3"><a xlink:href="../../d0/d65/namespacedouble__hashing.html#a8f8ff4fb018e1bb32d67d8a1885d3200" target="_top" xlink:title="Performs double hashing to resolve collisions.">
<polygon fill="white" stroke="black" points="322,-76.5 322,-95.5 468,-95.5 468,-76.5 322,-76.5"/>
<text text-anchor="middle" x="395" y="-83.5" font-family="Helvetica,sans-Serif" font-size="10.00">double_hashing::doubleHash</text>
</a>
</g>
</g>
<!-- Node2&#45;&gt;Node3 -->
<g id="edge2" class="edge">
<title>Node2&#45;&gt;Node3</title>
<path fill="none" stroke="midnightblue" d="M267.65,-114.41C290.15,-109.35 317.95,-103.1 341.74,-97.75"/>
<polygon fill="midnightblue" stroke="midnightblue" points="342.67,-101.13 351.66,-95.52 341.14,-94.3 342.67,-101.13"/>
</g>
<!-- Node9 -->
<g id="node9" class="node">
<title>Node9</title>
<g id="a_node9"><a xlink:href="../../d0/d65/namespacedouble__hashing.html#af4981819aae8bc7e7beeaef02615e30d" target="_top" xlink:title=" ">
<polygon fill="white" stroke="black" points="333.5,-114.5 333.5,-133.5 456.5,-133.5 456.5,-114.5 333.5,-114.5"/>
<text text-anchor="middle" x="395" y="-121.5" font-family="Helvetica,sans-Serif" font-size="10.00">double_hashing::rehash</text>
</a>
</g>
</g>
<!-- Node2&#45;&gt;Node9 -->
<g id="edge8" class="edge">
<title>Node2&#45;&gt;Node9</title>
<path fill="none" stroke="midnightblue" d="M278.94,-117.66C292.99,-117.27 308.34,-117.16 323.12,-117.33"/>
<polygon fill="midnightblue" stroke="midnightblue" points="323.18,-120.83 333.24,-117.49 323.3,-113.83 323.18,-120.83"/>
</g>
<!-- Node3&#45;&gt;Node4 -->
<g id="edge3" class="edge">
<title>Node3&#45;&gt;Node4</title>
<path fill="none" stroke="midnightblue" d="M449.37,-95.57C455.96,-98.03 462.35,-101.12 468,-105 490.56,-120.52 481.32,-139.65 504,-155 515.83,-163.01 530.73,-167.64 544.23,-170.33"/>
<polygon fill="midnightblue" stroke="midnightblue" points="543.77,-173.8 554.21,-172.02 544.94,-166.9 543.77,-173.8"/>
</g>
<!-- Node3&#45;&gt;Node5 -->
<g id="edge4" class="edge">
<title>Node3&#45;&gt;Node5</title>
<path fill="none" stroke="midnightblue" d="M411.18,-76.46C431.6,-64.01 469.34,-42.23 504,-29 510.44,-26.54 517.31,-24.31 524.19,-22.32"/>
<polygon fill="midnightblue" stroke="midnightblue" points="525.51,-25.59 534.23,-19.58 523.66,-18.84 525.51,-25.59"/>
</g>
<!-- Node6 -->
<g id="node6" class="node">
<title>Node6</title>
<g id="a_node6"><a xlink:href="../../d0/d65/namespacedouble__hashing.html#a33968a1178289ab61445dd4000df7082" target="_top" xlink:title="Used for second hash function.">
<polygon fill="white" stroke="black" points="504,-76.5 504,-95.5 659,-95.5 659,-76.5 504,-76.5"/>
<text text-anchor="middle" x="581.5" y="-83.5" font-family="Helvetica,sans-Serif" font-size="10.00">double_hashing::otherHashFxn</text>
</a>
</g>
</g>
<!-- Node3&#45;&gt;Node6 -->
<g id="edge5" class="edge">
<title>Node3&#45;&gt;Node6</title>
<path fill="none" stroke="midnightblue" d="M468.13,-86C476.55,-86 485.21,-86 493.81,-86"/>
<polygon fill="midnightblue" stroke="midnightblue" points="493.86,-89.5 503.86,-86 493.86,-82.5 493.86,-89.5"/>
</g>
<!-- Node7 -->
<g id="node7" class="node">
<title>Node7</title>
<g id="a_node7"><a xlink:href="../../d0/d65/namespacedouble__hashing.html#ac2adfce49ac57f6dbd1778d2c1ce0d2b" target="_top" xlink:title=" ">
<polygon fill="white" stroke="black" points="513,-38.5 513,-57.5 650,-57.5 650,-38.5 513,-38.5"/>
<text text-anchor="middle" x="581.5" y="-45.5" font-family="Helvetica,sans-Serif" font-size="10.00">double_hashing::putProber</text>
</a>
</g>
</g>
<!-- Node3&#45;&gt;Node7 -->
<g id="edge6" class="edge">
<title>Node3&#45;&gt;Node7</title>
<path fill="none" stroke="midnightblue" d="M442.56,-76.41C467.34,-71.31 498.02,-64.99 524.14,-59.61"/>
<polygon fill="midnightblue" stroke="midnightblue" points="525.19,-62.97 534.28,-57.52 523.78,-56.11 525.19,-62.97"/>
</g>
<!-- Node8 -->
<g id="node8" class="node">
<title>Node8</title>
<g id="a_node8"><a xlink:href="../../d0/d65/namespacedouble__hashing.html#a29f543e2626bad58907661e1e45028a6" target="_top" xlink:title=" ">
<polygon fill="white" stroke="black" points="513.5,-115 513.5,-145 649.5,-145 649.5,-115 513.5,-115"/>
<text text-anchor="start" x="521.5" y="-133" font-family="Helvetica,sans-Serif" font-size="10.00">double_hashing::searching</text>
<text text-anchor="middle" x="581.5" y="-122" font-family="Helvetica,sans-Serif" font-size="10.00">Prober</text>
</a>
</g>
</g>
<!-- Node3&#45;&gt;Node8 -->
<g id="edge7" class="edge">
<title>Node3&#45;&gt;Node8</title>
<path fill="none" stroke="midnightblue" d="M436.03,-95.55C456.9,-100.52 483.08,-106.77 507.4,-112.57"/>
<polygon fill="midnightblue" stroke="midnightblue" points="506.79,-116.02 517.33,-114.93 508.41,-109.21 506.79,-116.02"/>
</g>
<!-- Node9&#45;&gt;Node2 -->
<g id="edge9" class="edge">
<title>Node9&#45;&gt;Node2</title>
<path fill="none" stroke="midnightblue" d="M333.24,-130.51C318.96,-130.81 303.7,-130.83 289.27,-130.58"/>
<polygon fill="midnightblue" stroke="midnightblue" points="289.01,-127.07 278.94,-130.34 288.86,-134.07 289.01,-127.07"/>
</g>
<!-- Node9&#45;&gt;Node4 -->
<g id="edge10" class="edge">
<title>Node9&#45;&gt;Node4</title>
<path fill="none" stroke="midnightblue" d="M428.05,-133.53C449.49,-139.82 478.37,-148.14 504,-155 517.14,-158.52 531.62,-162.17 544.4,-165.32"/>
<polygon fill="midnightblue" stroke="midnightblue" points="543.69,-168.75 554.24,-167.73 545.36,-161.95 543.69,-168.75"/>
</g>
<!-- Node10&#45;&gt;Node4 -->
<g id="edge12" class="edge">
<title>Node10&#45;&gt;Node4</title>
<path fill="none" stroke="midnightblue" d="M286.11,-195.53C360.27,-190.11 482.93,-181.14 543.84,-176.68"/>
<polygon fill="midnightblue" stroke="midnightblue" points="544.4,-180.15 554.12,-175.93 543.89,-173.17 544.4,-180.15"/>
</g>
</g>
</svg>
