<?xml version="1.0" encoding="UTF-8" standalone="no"?>
<!DOCTYPE svg PUBLIC "-//W3C//DTD SVG 1.1//EN"
 "http://www.w3.org/Graphics/SVG/1.1/DTD/svg11.dtd">
<!-- Generated by graphviz version 8.1.0 (20230707.0739)
 -->
<!-- Title: graph/connected_components_with_dsu.cpp Pages: 1 -->
<svg width="170pt" height="94pt"
 viewBox="0.00 0.00 170.25 93.75" xmlns="http://www.w3.org/2000/svg" xmlns:xlink="http://www.w3.org/1999/xlink">
<g id="graph0" class="graph" transform="scale(1 1) rotate(0) translate(4 89.75)">
<title>graph/connected_components_with_dsu.cpp</title>
<!-- Node1 -->
<g id="Node000001" class="node">
<title>Node1</title>
<g id="a_Node000001"><a xlink:title="Disjoint union">
<polygon fill="#999999" stroke="#666666" points="160,-85.75 13.5,-85.75 13.5,-55.25 160,-55.25 160,-85.75"/>
<text text-anchor="start" x="21.5" y="-72.25" font-family="Helvetica,sans-Serif" font-size="10.00">graph/connected_components</text>
<text text-anchor="middle" x="86.75" y="-61" font-family="Helvetica,sans-Serif" font-size="10.00">_with_dsu.cpp</text>
</a>
</g>
</g>
<!-- Node2 -->
<g id="Node000002" class="node">
<title>Node2</title>
<g id="a_Node000002"><a xlink:title=" ">
<polygon fill="#e0e0e0" stroke="#999999" points="53.5,-19.25 0,-19.25 0,0 53.5,0 53.5,-19.25"/>
<text text-anchor="middle" x="26.75" y="-5.75" font-family="Helvetica,sans-Serif" font-size="10.00">iostream</text>
</a>
</g>
</g>
<!-- Node1&#45;&gt;Node2 -->
<g id="edge1_Node000001_Node000002" class="edge">
<title>Node1&#45;&gt;Node2</title>
<g id="a_edge1_Node000001_Node000002"><a xlink:title=" ">
<path fill="none" stroke="#63b8ff" d="M71.92,-54.95C63.4,-46.59 52.66,-36.05 43.8,-27.35"/>
<polygon fill="#63b8ff" stroke="#63b8ff" points="46.59,-25.21 37,-20.7 41.69,-30.2 46.59,-25.21"/>
</a>
</g>
</g>
<!-- Node3 -->
<g id="Node000003" class="node">
<title>Node3</title>
<g id="a_Node000003"><a xlink:title=" ">
<polygon fill="#e0e0e0" stroke="#999999" points="101.5,-19.25 72,-19.25 72,0 101.5,0 101.5,-19.25"/>
<text text-anchor="middle" x="86.75" y="-5.75" font-family="Helvetica,sans-Serif" font-size="10.00">set</text>
</a>
</g>
</g>
<!-- Node1&#45;&gt;Node3 -->
<g id="edge2_Node000001_Node000003" class="edge">
<title>Node1&#45;&gt;Node3</title>
<g id="a_edge2_Node000001_Node000003"><a xlink:title=" ">
<path fill="none" stroke="#63b8ff" d="M86.75,-54.95C86.75,-47.62 86.75,-38.62 86.75,-30.66"/>
<polygon fill="#63b8ff" stroke="#63b8ff" points="90.25,-30.7 86.75,-20.7 83.25,-30.7 90.25,-30.7"/>
</a>
</g>
</g>
<!-- Node4 -->
<g id="Node000004" class="node">
<title>Node4</title>
<g id="a_Node000004"><a xlink:title=" ">
<polygon fill="#e0e0e0" stroke="#999999" points="162.25,-19.25 119.25,-19.25 119.25,0 162.25,0 162.25,-19.25"/>
<text text-anchor="middle" x="140.75" y="-5.75" font-family="Helvetica,sans-Serif" font-size="10.00">vector</text>
</a>
</g>
</g>
<!-- Node1&#45;&gt;Node4 -->
<g id="edge3_Node000001_Node000004" class="edge">
<title>Node1&#45;&gt;Node4</title>
<g id="a_edge3_Node000001_Node000004"><a xlink:title=" ">
<path fill="none" stroke="#63b8ff" d="M100.1,-54.95C107.69,-46.67 117.23,-36.27 125.16,-27.62"/>
<polygon fill="#63b8ff" stroke="#63b8ff" points="127.25,-30.44 131.43,-20.7 122.09,-25.71 127.25,-30.44"/>
</a>
</g>
</g>
</g>
</svg>
