<?xml version="1.0" encoding="UTF-8" standalone="no"?>
<!DOCTYPE svg PUBLIC "-//W3C//DTD SVG 1.1//EN"
 "http://www.w3.org/Graphics/SVG/1.1/DTD/svg11.dtd">
<!-- Generated by graphviz version 8.0.2 (20230410.1723)
 -->
<!-- Title: graph/connected_components_with_dsu.cpp Pages: 1 -->
<svg width="172pt" height="93pt"
 viewBox="0.00 0.00 172.00 93.00" xmlns="http://www.w3.org/2000/svg" xmlns:xlink="http://www.w3.org/1999/xlink">
<g id="graph0" class="graph" transform="scale(1 1) rotate(0) translate(4 89)">
<title>graph/connected_components_with_dsu.cpp</title>
<!-- Node1 -->
<g id="node1" class="node">
<title>Node1</title>
<g id="a_node1"><a xlink:title="Disjoint union">
<polygon fill="#999999" stroke="#666666" points="160.5,-85 13.5,-85 13.5,-55 160.5,-55 160.5,-85"/>
<text text-anchor="start" x="21.5" y="-73" font-family="Helvetica,sans-Serif" font-size="10.00">graph/connected_components</text>
<text text-anchor="middle" x="87" y="-62" font-family="Helvetica,sans-Serif" font-size="10.00">_with_dsu.cpp</text>
</a>
</g>
</g>
<!-- Node2 -->
<g id="node2" class="node">
<title>Node2</title>
<g id="a_node2"><a xlink:title=" ">
<polygon fill="#e0e0e0" stroke="#999999" points="54,-19 0,-19 0,0 54,0 54,-19"/>
<text text-anchor="middle" x="27" y="-7" font-family="Helvetica,sans-Serif" font-size="10.00">iostream</text>
</a>
</g>
</g>
<!-- Node1&#45;&gt;Node2 -->
<g id="edge1" class="edge">
<title>Node1&#45;&gt;Node2</title>
<path fill="none" stroke="#63b8ff" d="M72.17,-54.54C63.54,-46.13 52.65,-35.51 43.72,-26.8"/>
<polygon fill="#63b8ff" stroke="#63b8ff" points="46.5,-24.65 36.9,-20.18 41.61,-29.66 46.5,-24.65"/>
</g>
<!-- Node3 -->
<g id="node3" class="node">
<title>Node3</title>
<g id="a_node3"><a xlink:title=" ">
<polygon fill="#e0e0e0" stroke="#999999" points="102,-19 72,-19 72,0 102,0 102,-19"/>
<text text-anchor="middle" x="87" y="-7" font-family="Helvetica,sans-Serif" font-size="10.00">set</text>
</a>
</g>
</g>
<!-- Node1&#45;&gt;Node3 -->
<g id="edge2" class="edge">
<title>Node1&#45;&gt;Node3</title>
<path fill="none" stroke="#63b8ff" d="M87,-54.54C87,-47.17 87,-38.1 87,-30.11"/>
<polygon fill="#63b8ff" stroke="#63b8ff" points="90.5,-30.18 87,-20.18 83.5,-30.18 90.5,-30.18"/>
</g>
<!-- Node4 -->
<g id="node4" class="node">
<title>Node4</title>
<g id="a_node4"><a xlink:title=" ">
<polygon fill="#e0e0e0" stroke="#999999" points="164,-19 120,-19 120,0 164,0 164,-19"/>
<text text-anchor="middle" x="142" y="-7" font-family="Helvetica,sans-Serif" font-size="10.00">vector</text>
</a>
</g>
</g>
<!-- Node1&#45;&gt;Node4 -->
<g id="edge3" class="edge">
<title>Node1&#45;&gt;Node4</title>
<path fill="none" stroke="#63b8ff" d="M100.6,-54.54C108.42,-46.22 118.28,-35.72 126.42,-27.07"/>
<polygon fill="#63b8ff" stroke="#63b8ff" points="128.54,-29.86 132.84,-20.18 123.44,-25.06 128.54,-29.86"/>
</g>
</g>
</svg>
