<?xml version="1.0" encoding="UTF-8" standalone="no"?>
<!DOCTYPE svg PUBLIC "-//W3C//DTD SVG 1.1//EN"
 "http://www.w3.org/Graphics/SVG/1.1/DTD/svg11.dtd">
<!-- Generated by graphviz version 8.0.2 (20230410.1723)
 -->
<!-- Title: main Pages: 1 -->
<svg width="261pt" height="131pt"
 viewBox="0.00 0.00 261.00 130.50" xmlns="http://www.w3.org/2000/svg" xmlns:xlink="http://www.w3.org/1999/xlink">
<g id="graph0" class="graph" transform="scale(1 1) rotate(0) translate(4 126.5)">
<title>main</title>
<!-- Node1 -->
<g id="node1" class="node">
<title>Node1</title>
<g id="a_node1"><a xlink:title="Main function.">
<polygon fill="#999999" stroke="#666666" points="38,-56 0,-56 0,-37 38,-37 38,-56"/>
<text text-anchor="middle" x="19" y="-44" font-family="Helvetica,sans-Serif" font-size="10.00">main</text>
</a>
</g>
</g>
<!-- Node2 -->
<g id="node2" class="node">
<title>Node2</title>
<g id="a_node2"><a xlink:href="../../d8/d9a/fast__fourier__transform_8cpp.html#aa8dca7b867074164d5f45b0f3851269d" target="_top" xlink:title="Self&#45;test implementations.">
<polygon fill="white" stroke="#666666" points="107,-56 74,-56 74,-37 107,-37 107,-56"/>
<text text-anchor="middle" x="90.5" y="-44" font-family="Helvetica,sans-Serif" font-size="10.00">test</text>
</a>
</g>
</g>
<!-- Node1&#45;&gt;Node2 -->
<g id="edge1" class="edge">
<title>Node1&#45;&gt;Node2</title>
<path fill="none" stroke="#63b8ff" d="M38.26,-46.5C45.89,-46.5 54.9,-46.5 63.23,-46.5"/>
<polygon fill="#63b8ff" stroke="#63b8ff" points="62.95,-50 72.95,-46.5 62.95,-43 62.95,-50"/>
</g>
<!-- Node3 -->
<g id="node3" class="node">
<title>Node3</title>
<g id="a_node3"><a xlink:href="../../d1/de0/namespacenumerical__methods.html#a158fd271b9a53e8f3f60b08b18857150" target="_top" xlink:title="FastFourierTransform is a recursive function which returns list of complex numbers.">
<polygon fill="white" stroke="#666666" points="253,-104.5 143,-104.5 143,-74.5 253,-74.5 253,-104.5"/>
<text text-anchor="start" x="151" y="-92.5" font-family="Helvetica,sans-Serif" font-size="10.00">numerical_methods::</text>
<text text-anchor="middle" x="198" y="-81.5" font-family="Helvetica,sans-Serif" font-size="10.00">FastFourierTransform</text>
</a>
</g>
</g>
<!-- Node2&#45;&gt;Node3 -->
<g id="edge2" class="edge">
<title>Node2&#45;&gt;Node3</title>
<path fill="none" stroke="#63b8ff" d="M107.07,-52.84C118.26,-57.41 133.99,-63.82 149.17,-70.01"/>
<polygon fill="#63b8ff" stroke="#63b8ff" points="147.44,-73.49 158.02,-74.02 150.08,-67 147.44,-73.49"/>
</g>
<!-- Node4 -->
<g id="node4" class="node">
<title>Node4</title>
<g id="a_node4"><a target="_blank" xlink:href="http://en.cppreference.com/w/cpp/numeric/complex/imag.html#" xlink:title=" ">
<polygon fill="white" stroke="#666666" points="248,-56 148,-56 148,-37 248,-37 248,-56"/>
<text text-anchor="middle" x="198" y="-44" font-family="Helvetica,sans-Serif" font-size="10.00">std::complex::imag</text>
</a>
</g>
</g>
<!-- Node2&#45;&gt;Node4 -->
<g id="edge4" class="edge">
<title>Node2&#45;&gt;Node4</title>
<path fill="none" stroke="#63b8ff" d="M107.07,-46.5C115.32,-46.5 126.04,-46.5 137.19,-46.5"/>
<polygon fill="#63b8ff" stroke="#63b8ff" points="136.95,-50 146.95,-46.5 136.95,-43 136.95,-50"/>
</g>
<!-- Node5 -->
<g id="node5" class="node">
<title>Node5</title>
<g id="a_node5"><a target="_blank" xlink:href="http://en.cppreference.com/w/cpp/numeric/complex/real.html#" xlink:title=" ">
<polygon fill="white" stroke="#666666" points="245.5,-19 150.5,-19 150.5,0 245.5,0 245.5,-19"/>
<text text-anchor="middle" x="198" y="-7" font-family="Helvetica,sans-Serif" font-size="10.00">std::complex::real</text>
</a>
</g>
</g>
<!-- Node2&#45;&gt;Node5 -->
<g id="edge5" class="edge">
<title>Node2&#45;&gt;Node5</title>
<path fill="none" stroke="#63b8ff" d="M107.07,-41.04C120.58,-36.3 140.71,-29.24 158.51,-23"/>
<polygon fill="#63b8ff" stroke="#63b8ff" points="159.37,-26.06 167.65,-19.44 157.05,-19.45 159.37,-26.06"/>
</g>
<!-- Node3&#45;&gt;Node3 -->
<g id="edge3" class="edge">
<title>Node3&#45;&gt;Node3</title>
<path fill="none" stroke="#63b8ff" d="M179.1,-104.78C174.9,-113.91 181.2,-122.5 198,-122.5 207.71,-122.5 213.91,-119.63 216.61,-115.44"/>
<polygon fill="#63b8ff" stroke="#63b8ff" points="220.12,-115.87 216.9,-105.78 213.13,-115.68 220.12,-115.87"/>
</g>
</g>
</svg>
