<?xml version="1.0" encoding="UTF-8" standalone="no"?>
<!DOCTYPE svg PUBLIC "-//W3C//DTD SVG 1.1//EN"
 "http://www.w3.org/Graphics/SVG/1.1/DTD/svg11.dtd">
<!-- Generated by graphviz version 5.0.0 (20220707.1540)
 -->
<!-- Title: main Pages: 1 -->
<svg width="261pt" height="134pt"
 viewBox="0.00 0.00 261.00 133.50" xmlns="http://www.w3.org/2000/svg" xmlns:xlink="http://www.w3.org/1999/xlink">
<g id="graph0" class="graph" transform="scale(1 1) rotate(0) translate(4 129.5)">
<title>main</title>
<polygon fill="white" stroke="transparent" points="-4,4 -4,-129.5 257,-129.5 257,4 -4,4"/>
<!-- Node1 -->
<g id="node1" class="node">
<title>Node1</title>
<g id="a_node1"><a xlink:title="Main function.">
<polygon fill="#bfbfbf" stroke="black" points="0,-38.5 0,-57.5 38,-57.5 38,-38.5 0,-38.5"/>
<text text-anchor="middle" x="19" y="-45.5" font-family="Helvetica,sans-Serif" font-size="10.00">main</text>
</a>
</g>
</g>
<!-- Node2 -->
<g id="node2" class="node">
<title>Node2</title>
<g id="a_node2"><a xlink:href="../../d8/d9a/fast__fourier__transform_8cpp.html#aa8dca7b867074164d5f45b0f3851269d" target="_top" xlink:title="Self&#45;test implementations.">
<polygon fill="white" stroke="black" points="74,-38.5 74,-57.5 107,-57.5 107,-38.5 74,-38.5"/>
<text text-anchor="middle" x="90.5" y="-45.5" font-family="Helvetica,sans-Serif" font-size="10.00">test</text>
</a>
</g>
</g>
<!-- Node1&#45;&gt;Node2 -->
<g id="edge1" class="edge">
<title>Node1&#45;&gt;Node2</title>
<path fill="none" stroke="midnightblue" d="M38.26,-48C46.07,-48 55.31,-48 63.79,-48"/>
<polygon fill="midnightblue" stroke="midnightblue" points="63.95,-51.5 73.95,-48 63.95,-44.5 63.95,-51.5"/>
</g>
<!-- Node3 -->
<g id="node3" class="node">
<title>Node3</title>
<g id="a_node3"><a xlink:href="../../d1/de0/namespacenumerical__methods.html#a158fd271b9a53e8f3f60b08b18857150" target="_top" xlink:title="FastFourierTransform is a recursive function which returns list of complex numbers.">
<polygon fill="white" stroke="black" points="143,-77 143,-107 253,-107 253,-77 143,-77"/>
<text text-anchor="start" x="151" y="-95" font-family="Helvetica,sans-Serif" font-size="10.00">numerical_methods::</text>
<text text-anchor="middle" x="198" y="-84" font-family="Helvetica,sans-Serif" font-size="10.00">FastFourierTransform</text>
</a>
</g>
</g>
<!-- Node2&#45;&gt;Node3 -->
<g id="edge2" class="edge">
<title>Node2&#45;&gt;Node3</title>
<path fill="none" stroke="midnightblue" d="M107.07,-54.49C118.74,-59.36 135.37,-66.29 151.15,-72.88"/>
<polygon fill="midnightblue" stroke="midnightblue" points="150.24,-76.29 160.82,-76.91 152.94,-69.83 150.24,-76.29"/>
</g>
<!-- Node4 -->
<g id="node4" class="node">
<title>Node4</title>
<g id="a_node4"><a target="_blank" xlink:href="http://en.cppreference.com/w/cpp/numeric/complex/imag.html#" xlink:title=" ">
<polygon fill="white" stroke="black" points="148,-38.5 148,-57.5 248,-57.5 248,-38.5 148,-38.5"/>
<text text-anchor="middle" x="198" y="-45.5" font-family="Helvetica,sans-Serif" font-size="10.00">std::complex::imag</text>
</a>
</g>
</g>
<!-- Node2&#45;&gt;Node4 -->
<g id="edge4" class="edge">
<title>Node2&#45;&gt;Node4</title>
<path fill="none" stroke="midnightblue" d="M107.07,-48C115.49,-48 126.49,-48 137.89,-48"/>
<polygon fill="midnightblue" stroke="midnightblue" points="137.95,-51.5 147.95,-48 137.95,-44.5 137.95,-51.5"/>
</g>
<!-- Node5 -->
<g id="node5" class="node">
<title>Node5</title>
<g id="a_node5"><a target="_blank" xlink:href="http://en.cppreference.com/w/cpp/numeric/complex/real.html#" xlink:title=" ">
<polygon fill="white" stroke="black" points="150.5,-0.5 150.5,-19.5 245.5,-19.5 245.5,-0.5 150.5,-0.5"/>
<text text-anchor="middle" x="198" y="-7.5" font-family="Helvetica,sans-Serif" font-size="10.00">std::complex::real</text>
</a>
</g>
</g>
<!-- Node2&#45;&gt;Node5 -->
<g id="edge5" class="edge">
<title>Node2&#45;&gt;Node5</title>
<path fill="none" stroke="midnightblue" d="M107.26,-42.12C117.44,-38.33 130.99,-33.33 143,-29 148.51,-27.01 154.35,-24.94 160.06,-22.91"/>
<polygon fill="midnightblue" stroke="midnightblue" points="161.23,-26.21 169.5,-19.59 158.91,-19.61 161.23,-26.21"/>
</g>
<!-- Node3&#45;&gt;Node3 -->
<g id="edge3" class="edge">
<title>Node3&#45;&gt;Node3</title>
<path fill="none" stroke="midnightblue" d="M179.53,-107.16C175.07,-116.56 181.23,-125.5 198,-125.5 208.22,-125.5 214.5,-122.18 216.83,-117.46"/>
<polygon fill="midnightblue" stroke="midnightblue" points="220.32,-117.03 216.47,-107.16 213.33,-117.28 220.32,-117.03"/>
</g>
</g>
</svg>
