<?xml version="1.0" encoding="UTF-8" standalone="no"?>
<!DOCTYPE svg PUBLIC "-//W3C//DTD SVG 1.1//EN"
 "http://www.w3.org/Graphics/SVG/1.1/DTD/svg11.dtd">
<!-- Generated by graphviz version 5.0.1 (20220820.1526)
 -->
<!-- Title: math/fibonacci_large.cpp Pages: 1 -->
<svg width="484pt" height="137pt"
 viewBox="0.00 0.00 484.00 137.00" xmlns="http://www.w3.org/2000/svg" xmlns:xlink="http://www.w3.org/1999/xlink">
<g id="graph0" class="graph" transform="scale(1 1) rotate(0) translate(4 133)">
<title>math/fibonacci_large.cpp</title>
<!-- Node1 -->
<g id="node1" class="node">
<title>Node1</title>
<g id="a_node1"><a xlink:title="Computes N^th Fibonacci number given as input argument. Uses custom build arbitrary integers library ...">
<polygon fill="#999999" stroke="#666666" points="199.5,-129 74.5,-129 74.5,-110 199.5,-110 199.5,-129"/>
<text text-anchor="middle" x="137" y="-117" font-family="Helvetica,sans-Serif" font-size="10.00">math/fibonacci_large.cpp</text>
</a>
</g>
</g>
<!-- Node2 -->
<g id="node2" class="node">
<title>Node2</title>
<g id="a_node2"><a xlink:title=" ">
<polygon fill="#e0e0e0" stroke="#999999" points="56,-19 0,-19 0,0 56,0 56,-19"/>
<text text-anchor="middle" x="28" y="-7" font-family="Helvetica,sans-Serif" font-size="10.00">cinttypes</text>
</a>
</g>
</g>
<!-- Node1&#45;&gt;Node2 -->
<g id="edge1" class="edge">
<title>Node1&#45;&gt;Node2</title>
<path fill="none" stroke="#63b8ff" d="M128.08,-109.66C109.71,-91.46 67.41,-49.55 44.12,-26.47"/>
<polygon fill="#63b8ff" stroke="#63b8ff" points="46.31,-23.71 36.74,-19.16 41.38,-28.68 46.31,-23.71"/>
</g>
<!-- Node3 -->
<g id="node3" class="node">
<title>Node3</title>
<g id="a_node3"><a xlink:title=" ">
<polygon fill="#e0e0e0" stroke="#999999" points="277.5,-74 236.5,-74 236.5,-55 277.5,-55 277.5,-74"/>
<text text-anchor="middle" x="257" y="-62" font-family="Helvetica,sans-Serif" font-size="10.00">ctime</text>
</a>
</g>
</g>
<!-- Node1&#45;&gt;Node3 -->
<g id="edge2" class="edge">
<title>Node1&#45;&gt;Node3</title>
<path fill="none" stroke="#63b8ff" d="M156.28,-109.98C175.67,-101.42 205.81,-88.11 228.07,-78.28"/>
<polygon fill="#63b8ff" stroke="#63b8ff" points="229.64,-81.41 237.37,-74.17 226.81,-75.01 229.64,-81.41"/>
</g>
<!-- Node4 -->
<g id="node4" class="node">
<title>Node4</title>
<g id="a_node4"><a xlink:title=" ">
<polygon fill="#e0e0e0" stroke="#999999" points="128,-19 74,-19 74,0 128,0 128,-19"/>
<text text-anchor="middle" x="101" y="-7" font-family="Helvetica,sans-Serif" font-size="10.00">iostream</text>
</a>
</g>
</g>
<!-- Node1&#45;&gt;Node4 -->
<g id="edge3" class="edge">
<title>Node1&#45;&gt;Node4</title>
<path fill="none" stroke="#63b8ff" d="M133.42,-109.71C129.84,-100.78 124.26,-86.53 120,-74 114.9,-59 109.79,-41.77 106.16,-29.05"/>
<polygon fill="#63b8ff" stroke="#63b8ff" points="109.46,-27.87 103.38,-19.19 102.72,-29.77 109.46,-27.87"/>
</g>
<!-- Node5 -->
<g id="node5" class="node">
<title>Node5</title>
<g id="a_node5"><a xlink:href="../../d4/d86/large__number_8h.html" target="_top" xlink:title="Library to perform arithmatic operations on arbitrarily large numbers.">
<polygon fill="white" stroke="#666666" points="218.5,-74 129.5,-74 129.5,-55 218.5,-55 218.5,-74"/>
<text text-anchor="middle" x="174" y="-62" font-family="Helvetica,sans-Serif" font-size="10.00">./large_number.h</text>
</a>
</g>
</g>
<!-- Node1&#45;&gt;Node5 -->
<g id="edge4" class="edge">
<title>Node1&#45;&gt;Node5</title>
<path fill="none" stroke="#63b8ff" d="M143.11,-109.75C148.28,-102.34 155.85,-91.5 162.19,-82.41"/>
<polygon fill="#63b8ff" stroke="#63b8ff" points="165.15,-84.29 168,-74.09 159.41,-80.29 165.15,-84.29"/>
</g>
<!-- Node5&#45;&gt;Node2 -->
<g id="edge7" class="edge">
<title>Node5&#45;&gt;Node2</title>
<path fill="none" stroke="#63b8ff" d="M150.54,-54.98C126.42,-46.23 88.63,-32.51 61.4,-22.62"/>
<polygon fill="#63b8ff" stroke="#63b8ff" points="62.48,-19.29 51.88,-19.17 60.09,-25.87 62.48,-19.29"/>
</g>
<!-- Node5&#45;&gt;Node4 -->
<g id="edge9" class="edge">
<title>Node5&#45;&gt;Node4</title>
<path fill="none" stroke="#63b8ff" d="M162.27,-54.98C151.27,-47 134.58,-34.88 121.4,-25.31"/>
<polygon fill="#63b8ff" stroke="#63b8ff" points="123.09,-22.21 112.94,-19.17 118.98,-27.88 123.09,-22.21"/>
</g>
<!-- Node6 -->
<g id="node6" class="node">
<title>Node6</title>
<g id="a_node6"><a xlink:title=" ">
<polygon fill="#e0e0e0" stroke="#999999" points="476,-19 420,-19 420,0 476,0 476,-19"/>
<text text-anchor="middle" x="448" y="-7" font-family="Helvetica,sans-Serif" font-size="10.00">algorithm</text>
</a>
</g>
</g>
<!-- Node5&#45;&gt;Node6 -->
<g id="edge5" class="edge">
<title>Node5&#45;&gt;Node6</title>
<path fill="none" stroke="#63b8ff" d="M218.66,-55.67C264.24,-47.55 337.27,-34.21 409.55,-19.24"/>
<polygon fill="#63b8ff" stroke="#63b8ff" points="410.67,-22.58 419.74,-17.11 409.24,-15.73 410.67,-22.58"/>
</g>
<!-- Node7 -->
<g id="node7" class="node">
<title>Node7</title>
<g id="a_node7"><a xlink:title=" ">
<polygon fill="#e0e0e0" stroke="#999999" points="195.5,-19 146.5,-19 146.5,0 195.5,0 195.5,-19"/>
<text text-anchor="middle" x="171" y="-7" font-family="Helvetica,sans-Serif" font-size="10.00">cassert</text>
</a>
</g>
</g>
<!-- Node5&#45;&gt;Node7 -->
<g id="edge6" class="edge">
<title>Node5&#45;&gt;Node7</title>
<path fill="none" stroke="#63b8ff" d="M173.5,-54.75C173.11,-47.8 172.55,-37.85 172.05,-29.13"/>
<polygon fill="#63b8ff" stroke="#63b8ff" points="175.55,-28.88 171.49,-19.09 168.56,-29.27 175.55,-28.88"/>
</g>
<!-- Node8 -->
<g id="node8" class="node">
<title>Node8</title>
<g id="a_node8"><a xlink:title=" ">
<polygon fill="#e0e0e0" stroke="#999999" points="260,-19 214,-19 214,0 260,0 260,-19"/>
<text text-anchor="middle" x="237" y="-7" font-family="Helvetica,sans-Serif" font-size="10.00">cstring</text>
</a>
</g>
</g>
<!-- Node5&#45;&gt;Node8 -->
<g id="edge8" class="edge">
<title>Node5&#45;&gt;Node8</title>
<path fill="none" stroke="#63b8ff" d="M184.12,-54.98C193.44,-47.15 207.47,-35.34 218.74,-25.86"/>
<polygon fill="#63b8ff" stroke="#63b8ff" points="221.29,-28.29 226.69,-19.17 216.79,-22.93 221.29,-28.29"/>
</g>
<!-- Node9 -->
<g id="node9" class="node">
<title>Node9</title>
<g id="a_node9"><a xlink:title=" ">
<polygon fill="#e0e0e0" stroke="#999999" points="340,-19 278,-19 278,0 340,0 340,-19"/>
<text text-anchor="middle" x="309" y="-7" font-family="Helvetica,sans-Serif" font-size="10.00">type_traits</text>
</a>
</g>
</g>
<!-- Node5&#45;&gt;Node9 -->
<g id="edge10" class="edge">
<title>Node5&#45;&gt;Node9</title>
<path fill="none" stroke="#63b8ff" d="M195.69,-54.98C217.8,-46.3 252.32,-32.75 277.45,-22.88"/>
<polygon fill="#63b8ff" stroke="#63b8ff" points="278.89,-26.08 286.92,-19.17 276.33,-19.57 278.89,-26.08"/>
</g>
<!-- Node10 -->
<g id="node10" class="node">
<title>Node10</title>
<g id="a_node10"><a xlink:title=" ">
<polygon fill="#e0e0e0" stroke="#999999" points="402,-19 358,-19 358,0 402,0 402,-19"/>
<text text-anchor="middle" x="380" y="-7" font-family="Helvetica,sans-Serif" font-size="10.00">vector</text>
</a>
</g>
</g>
<!-- Node5&#45;&gt;Node10 -->
<g id="edge11" class="edge">
<title>Node5&#45;&gt;Node10</title>
<path fill="none" stroke="#63b8ff" d="M208.25,-54.99C241.57,-46.67 293.86,-33.49 348.19,-19.18"/>
<polygon fill="#63b8ff" stroke="#63b8ff" points="349.22,-22.52 358,-16.59 347.44,-15.76 349.22,-22.52"/>
</g>
</g>
</svg>
