<?xml version="1.0" encoding="UTF-8" standalone="no"?>
<!DOCTYPE svg PUBLIC "-//W3C//DTD SVG 1.1//EN"
 "http://www.w3.org/Graphics/SVG/1.1/DTD/svg11.dtd">
<!-- Generated by graphviz version 6.0.1 (20220911.1526)
 -->
<!-- Title: data_structures/linked_list.cpp Pages: 1 -->
<svg width="192pt" height="93pt"
 viewBox="0.00 0.00 191.50 93.00" xmlns="http://www.w3.org/2000/svg" xmlns:xlink="http://www.w3.org/1999/xlink">
<g id="graph0" class="graph" transform="scale(1 1) rotate(0) translate(4 89)">
<title>data_structures/linked_list.cpp</title>
<!-- Node1 -->
<g id="node1" class="node">
<title>Node1</title>
<g id="a_node1"><a xlink:title="Implementation of singly linked list algorithm.">
<polygon fill="#999999" stroke="#666666" points="154.5,-85 41.5,-85 41.5,-55 154.5,-55 154.5,-85"/>
<text text-anchor="start" x="49.5" y="-73" font-family="Helvetica,sans-Serif" font-size="10.00">data_structures/linked</text>
<text text-anchor="middle" x="98" y="-62" font-family="Helvetica,sans-Serif" font-size="10.00">_list.cpp</text>
</a>
</g>
</g>
<!-- Node2 -->
<g id="node2" class="node">
<title>Node2</title>
<g id="a_node2"><a xlink:title=" ">
<polygon fill="#e0e0e0" stroke="#999999" points="54,-19 0,-19 0,0 54,0 54,-19"/>
<text text-anchor="middle" x="27" y="-7" font-family="Helvetica,sans-Serif" font-size="10.00">iostream</text>
</a>
</g>
</g>
<!-- Node1&#45;&gt;Node2 -->
<g id="edge1" class="edge">
<title>Node1&#45;&gt;Node2</title>
<path fill="none" stroke="#63b8ff" d="M80.81,-54.84C70.19,-46.09 56.56,-34.85 45.67,-25.88"/>
<polygon fill="#63b8ff" stroke="#63b8ff" points="47.58,-22.92 37.64,-19.27 43.13,-28.33 47.58,-22.92"/>
</g>
<!-- Node3 -->
<g id="node3" class="node">
<title>Node3</title>
<g id="a_node3"><a xlink:title=" ">
<polygon fill="#e0e0e0" stroke="#999999" points="124,-19 72,-19 72,0 124,0 124,-19"/>
<text text-anchor="middle" x="98" y="-7" font-family="Helvetica,sans-Serif" font-size="10.00">memory</text>
</a>
</g>
</g>
<!-- Node1&#45;&gt;Node3 -->
<g id="edge2" class="edge">
<title>Node1&#45;&gt;Node3</title>
<path fill="none" stroke="#63b8ff" d="M98,-54.84C98,-47.21 98,-37.7 98,-29.45"/>
<polygon fill="#63b8ff" stroke="#63b8ff" points="101.5,-29.27 98,-19.27 94.5,-29.27 101.5,-29.27"/>
</g>
<!-- Node4 -->
<g id="node4" class="node">
<title>Node4</title>
<g id="a_node4"><a xlink:title=" ">
<polygon fill="#e0e0e0" stroke="#999999" points="183.5,-19 142.5,-19 142.5,0 183.5,0 183.5,-19"/>
<text text-anchor="middle" x="163" y="-7" font-family="Helvetica,sans-Serif" font-size="10.00">string</text>
</a>
</g>
</g>
<!-- Node1&#45;&gt;Node4 -->
<g id="edge3" class="edge">
<title>Node1&#45;&gt;Node4</title>
<path fill="none" stroke="#63b8ff" d="M113.73,-54.84C123.36,-46.17 135.69,-35.08 145.61,-26.15"/>
<polygon fill="#63b8ff" stroke="#63b8ff" points="148.17,-28.56 153.26,-19.27 143.49,-23.35 148.17,-28.56"/>
</g>
</g>
</svg>
