<?xml version="1.0" encoding="UTF-8" standalone="no"?>
<!DOCTYPE svg PUBLIC "-//W3C//DTD SVG 1.1//EN"
 "http://www.w3.org/Graphics/SVG/1.1/DTD/svg11.dtd">
<!-- Generated by graphviz version 5.0.0 (20220707.1540)
 -->
<!-- Title: graph::LowestCommonAncestor Pages: 1 -->
<svg width="296pt" height="318pt"
 viewBox="0.00 0.00 295.50 318.00" xmlns="http://www.w3.org/2000/svg" xmlns:xlink="http://www.w3.org/1999/xlink">
<g id="graph0" class="graph" transform="scale(1 1) rotate(0) translate(4 314)">
<title>graph::LowestCommonAncestor</title>
<polygon fill="white" stroke="transparent" points="-4,4 -4,-314 291.5,-314 291.5,4 -4,4"/>
<!-- Node1 -->
<g id="node1" class="node">
<title>Node1</title>
<g id="a_node1"><a xlink:title=" ">
<polygon fill="#bfbfbf" stroke="black" points="27.5,-0.5 27.5,-19.5 184.5,-19.5 184.5,-0.5 27.5,-0.5"/>
<text text-anchor="middle" x="106" y="-7.5" font-family="Helvetica,sans-Serif" font-size="10.00">graph::LowestCommonAncestor</text>
</a>
</g>
</g>
<!-- Node2 -->
<g id="node2" class="node">
<title>Node2</title>
<g id="a_node2"><a xlink:href="../../d0/d58/classgraph_1_1_rooted_tree.html" target="_top" xlink:title=" ">
<polygon fill="white" stroke="black" points="107,-67.5 107,-86.5 205,-86.5 205,-67.5 107,-67.5"/>
<text text-anchor="middle" x="156" y="-74.5" font-family="Helvetica,sans-Serif" font-size="10.00">graph::RootedTree</text>
</a>
</g>
</g>
<!-- Node2&#45;&gt;Node1 -->
<g id="edge1" class="edge">
<title>Node2&#45;&gt;Node1</title>
<path fill="none" stroke="#9a32cd" stroke-dasharray="5,2" d="M143.13,-59.27C133.38,-46.6 120.39,-29.7 112.64,-19.63"/>
<polygon fill="#9a32cd" stroke="#9a32cd" points="140.39,-61.44 149.26,-67.23 145.93,-57.17 140.39,-61.44"/>
<text text-anchor="middle" x="143" y="-41" font-family="Helvetica,sans-Serif" font-size="10.00"> tree</text>
</g>
<!-- Node3 -->
<g id="node3" class="node">
<title>Node3</title>
<g id="a_node3"><a xlink:href="../../dc/d61/classgraph_1_1_graph.html" target="_top" xlink:title=" ">
<polygon fill="white" stroke="black" points="107.5,-134.5 107.5,-153.5 204.5,-153.5 204.5,-134.5 107.5,-134.5"/>
<text text-anchor="middle" x="156" y="-141.5" font-family="Helvetica,sans-Serif" font-size="10.00">graph::Graph&lt; T &gt;</text>
</a>
</g>
</g>
<!-- Node3&#45;&gt;Node2 -->
<g id="edge2" class="edge">
<title>Node3&#45;&gt;Node2</title>
<path fill="none" stroke="midnightblue" d="M156,-124.04C156,-111.67 156,-96.12 156,-86.63"/>
<polygon fill="midnightblue" stroke="midnightblue" points="152.5,-124.23 156,-134.23 159.5,-124.23 152.5,-124.23"/>
</g>
<!-- Node4 -->
<g id="node4" class="node">
<title>Node4</title>
<g id="a_node4"><a target="_blank" xlink:href="http://en.cppreference.com/w/cpp/container/map.html" xlink:title=" ">
<polygon fill="white" stroke="black" points="180.5,-212.5 180.5,-242.5 287.5,-242.5 287.5,-212.5 180.5,-212.5"/>
<text text-anchor="start" x="188.5" y="-230.5" font-family="Helvetica,sans-Serif" font-size="10.00">std::map&lt; T, std::list</text>
<text text-anchor="middle" x="234" y="-219.5" font-family="Helvetica,sans-Serif" font-size="10.00">&lt; T &gt; &gt;</text>
</a>
</g>
</g>
<!-- Node4&#45;&gt;Node3 -->
<g id="edge3" class="edge">
<title>Node4&#45;&gt;Node3</title>
<path fill="none" stroke="#9a32cd" stroke-dasharray="5,2" d="M215.95,-204.13C207.48,-194.02 197.05,-182.1 187,-172 180.56,-165.52 172.81,-158.77 166.67,-153.64"/>
<polygon fill="#9a32cd" stroke="#9a32cd" points="213.48,-206.64 222.55,-212.12 218.88,-202.18 213.48,-206.64"/>
<text text-anchor="middle" x="240" y="-180.5" font-family="Helvetica,sans-Serif" font-size="10.00"> adjacency_list</text>
</g>
<!-- Node5 -->
<g id="node5" class="node">
<title>Node5</title>
<g id="a_node5"><a xlink:title=" ">
<polygon fill="white" stroke="#bfbfbf" points="219.5,-290.5 219.5,-309.5 248.5,-309.5 248.5,-290.5 219.5,-290.5"/>
<text text-anchor="middle" x="234" y="-297.5" font-family="Helvetica,sans-Serif" font-size="10.00">T</text>
</a>
</g>
</g>
<!-- Node5&#45;&gt;Node4 -->
<g id="edge4" class="edge">
<title>Node5&#45;&gt;Node4</title>
<path fill="none" stroke="#9a32cd" stroke-dasharray="5,2" d="M234,-280.24C234,-268.41 234,-253.38 234,-242.58"/>
<polygon fill="#9a32cd" stroke="#9a32cd" points="230.5,-280.36 234,-290.36 237.5,-280.36 230.5,-280.36"/>
<text text-anchor="middle" x="246.5" y="-264" font-family="Helvetica,sans-Serif" font-size="10.00"> keys</text>
</g>
<!-- Node6 -->
<g id="node6" class="node">
<title>Node6</title>
<g id="a_node6"><a target="_blank" xlink:href="http://en.cppreference.com/w/cpp/container/vector.html" xlink:title=" ">
<polygon fill="white" stroke="black" points="43.5,-212.5 43.5,-242.5 162.5,-242.5 162.5,-212.5 43.5,-212.5"/>
<text text-anchor="start" x="51.5" y="-230.5" font-family="Helvetica,sans-Serif" font-size="10.00">std::vector&lt; std::vector</text>
<text text-anchor="middle" x="103" y="-219.5" font-family="Helvetica,sans-Serif" font-size="10.00">&lt; int &gt; &gt;</text>
</a>
</g>
</g>
<!-- Node6&#45;&gt;Node1 -->
<g id="edge8" class="edge">
<title>Node6&#45;&gt;Node1</title>
<path fill="none" stroke="#9a32cd" stroke-dasharray="5,2" d="M100.68,-202.03C98.07,-170.7 94.61,-114.75 98,-67 99.2,-50.15 102.4,-30.66 104.37,-19.69"/>
<polygon fill="#9a32cd" stroke="#9a32cd" points="97.23,-202.74 101.59,-212.4 104.2,-202.13 97.23,-202.74"/>
<text text-anchor="middle" x="103" y="-108" font-family="Helvetica,sans-Serif" font-size="10.00"> up</text>
</g>
<!-- Node6&#45;&gt;Node3 -->
<g id="edge5" class="edge">
<title>Node6&#45;&gt;Node3</title>
<path fill="none" stroke="#9a32cd" stroke-dasharray="5,2" d="M117.86,-203.65C128.7,-186.98 142.79,-165.32 150.45,-153.54"/>
<polygon fill="#9a32cd" stroke="#9a32cd" points="114.75,-202.01 112.23,-212.3 120.62,-205.83 114.75,-202.01"/>
<text text-anchor="middle" x="160" y="-180.5" font-family="Helvetica,sans-Serif" font-size="10.00"> neighbors</text>
</g>
<!-- Node7 -->
<g id="node7" class="node">
<title>Node7</title>
<g id="a_node7"><a target="_blank" xlink:href="http://en.cppreference.com/w/cpp/container/vector.html" xlink:title=" ">
<polygon fill="white" stroke="black" points="0,-290.5 0,-309.5 92,-309.5 92,-290.5 0,-290.5"/>
<text text-anchor="middle" x="46" y="-297.5" font-family="Helvetica,sans-Serif" font-size="10.00">std::vector&lt; int &gt;</text>
</a>
</g>
</g>
<!-- Node7&#45;&gt;Node2 -->
<g id="edge7" class="edge">
<title>Node7&#45;&gt;Node2</title>
<path fill="none" stroke="#9a32cd" stroke-dasharray="5,2" d="M39.49,-280.84C34.05,-263.08 28.07,-235.38 34,-212 47.3,-159.57 51.93,-141.34 92,-105 101.11,-96.74 113.12,-90.77 124.28,-86.59"/>
<polygon fill="#9a32cd" stroke="#9a32cd" points="36.21,-282.09 42.69,-290.48 42.86,-279.89 36.21,-282.09"/>
<text text-anchor="middle" x="59" y="-186" font-family="Helvetica,sans-Serif" font-size="10.00"> level</text>
<text text-anchor="middle" x="59" y="-175" font-family="Helvetica,sans-Serif" font-size="10.00">parent</text>
</g>
<!-- Node7&#45;&gt;Node6 -->
<g id="edge6" class="edge">
<title>Node7&#45;&gt;Node6</title>
<path fill="none" stroke="#9a32cd" stroke-dasharray="5,2" d="M59.43,-282.39C69.22,-270.28 82.34,-254.05 91.62,-242.58"/>
<polygon fill="#9a32cd" stroke="#9a32cd" points="56.55,-280.38 52.99,-290.36 62,-284.78 56.55,-280.38"/>
<text text-anchor="middle" x="97.5" y="-264" font-family="Helvetica,sans-Serif" font-size="10.00"> elements</text>
</g>
</g>
</svg>
