<?xml version="1.0" encoding="UTF-8" standalone="no"?>
<!DOCTYPE svg PUBLIC "-//W3C//DTD SVG 1.1//EN"
 "http://www.w3.org/Graphics/SVG/1.1/DTD/svg11.dtd">
<!-- Generated by graphviz version 2.50.0 (20211204.2007)
 -->
<!-- Title: graph::LowestCommonAncestor Pages: 1 -->
<svg width="165pt" height="152pt"
 viewBox="0.00 0.00 165.00 152.00" xmlns="http://www.w3.org/2000/svg" xmlns:xlink="http://www.w3.org/1999/xlink">
<g id="graph0" class="graph" transform="scale(1 1) rotate(0) translate(4 148)">
<title>graph::LowestCommonAncestor</title>
<polygon fill="white" stroke="transparent" points="-4,4 -4,-148 161,-148 161,4 -4,4"/>
<!-- Node1 -->
<g id="node1" class="node">
<title>Node1</title>
<g id="a_node1"><a xlink:title=" ">
<polygon fill="#bfbfbf" stroke="black" points="0,-0.5 0,-19.5 157,-19.5 157,-0.5 0,-0.5"/>
<text text-anchor="middle" x="78.5" y="-7.5" font-family="Helvetica,sans-Serif" font-size="10.00">graph::LowestCommonAncestor</text>
</a>
</g>
</g>
<!-- Node2 -->
<g id="node2" class="node">
<title>Node2</title>
<g id="a_node2"><a xlink:href="../../d0/d58/classgraph_1_1_rooted_tree.html" target="_top" xlink:title=" ">
<polygon fill="white" stroke="black" points="29.5,-67.5 29.5,-86.5 127.5,-86.5 127.5,-67.5 29.5,-67.5"/>
<text text-anchor="middle" x="78.5" y="-74.5" font-family="Helvetica,sans-Serif" font-size="10.00">graph::RootedTree</text>
</a>
</g>
</g>
<!-- Node2&#45;&gt;Node1 -->
<g id="edge1" class="edge">
<title>Node2&#45;&gt;Node1</title>
<path fill="none" stroke="#9a32cd" stroke-dasharray="5,2" d="M78.5,-57.04C78.5,-44.67 78.5,-29.12 78.5,-19.63"/>
<polygon fill="#9a32cd" stroke="#9a32cd" points="75,-57.23 78.5,-67.23 82,-57.23 75,-57.23"/>
<text text-anchor="middle" x="88.5" y="-41" font-family="Helvetica,sans-Serif" font-size="10.00"> tree</text>
</g>
<!-- Node3 -->
<g id="node3" class="node">
<title>Node3</title>
<g id="a_node3"><a xlink:href="../../dc/d61/classgraph_1_1_graph.html" target="_top" xlink:title=" ">
<polygon fill="white" stroke="black" points="30,-124.5 30,-143.5 127,-143.5 127,-124.5 30,-124.5"/>
<text text-anchor="middle" x="78.5" y="-131.5" font-family="Helvetica,sans-Serif" font-size="10.00">graph::Graph&lt; T &gt;</text>
</a>
</g>
</g>
<!-- Node3&#45;&gt;Node2 -->
<g id="edge2" class="edge">
<title>Node3&#45;&gt;Node2</title>
<path fill="none" stroke="midnightblue" d="M78.5,-114.12C78.5,-104.82 78.5,-94.06 78.5,-86.71"/>
<polygon fill="midnightblue" stroke="midnightblue" points="75,-114.41 78.5,-124.41 82,-114.41 75,-114.41"/>
</g>
</g>
</svg>
