<?xml version="1.0" encoding="UTF-8" standalone="no"?>
<!DOCTYPE svg PUBLIC "-//W3C//DTD SVG 1.1//EN"
 "http://www.w3.org/Graphics/SVG/1.1/DTD/svg11.dtd">
<!-- Generated by graphviz version 8.1.0 (20230707.0739)
 -->
<!-- Title: backtracking/sudoku_solver.cpp Pages: 1 -->
<svg width="120pt" height="94pt"
 viewBox="0.00 0.00 119.75 93.75" xmlns="http://www.w3.org/2000/svg" xmlns:xlink="http://www.w3.org/1999/xlink">
<g id="graph0" class="graph" transform="scale(1 1) rotate(0) translate(4 89.75)">
<title>backtracking/sudoku_solver.cpp</title>
<!-- Node1 -->
<g id="Node000001" class="node">
<title>Node1</title>
<g id="a_Node000001"><a xlink:title="Sudoku Solver algorithm.">
<polygon fill="#999999" stroke="#666666" points="106,-85.75 0,-85.75 0,-55.25 106,-55.25 106,-85.75"/>
<text text-anchor="start" x="8" y="-72.25" font-family="Helvetica,sans-Serif" font-size="10.00">backtracking/sudoku</text>
<text text-anchor="middle" x="53" y="-61" font-family="Helvetica,sans-Serif" font-size="10.00">_solver.cpp</text>
</a>
</g>
</g>
<!-- Node2 -->
<g id="Node000002" class="node">
<title>Node2</title>
<g id="a_Node000002"><a xlink:title=" ">
<polygon fill="#e0e0e0" stroke="#999999" points="39.88,-19.25 2.12,-19.25 2.12,0 39.88,0 39.88,-19.25"/>
<text text-anchor="middle" x="21" y="-5.75" font-family="Helvetica,sans-Serif" font-size="10.00">array</text>
</a>
</g>
</g>
<!-- Node1&#45;&gt;Node2 -->
<g id="edge1_Node000001_Node000002" class="edge">
<title>Node1&#45;&gt;Node2</title>
<g id="a_edge1_Node000001_Node000002"><a xlink:title=" ">
<path fill="none" stroke="#63b8ff" d="M45.09,-54.95C40.87,-47.19 35.64,-37.56 31.13,-29.26"/>
<polygon fill="#63b8ff" stroke="#63b8ff" points="33.78,-27.82 25.93,-20.7 27.63,-31.16 33.78,-27.82"/>
</a>
</g>
</g>
<!-- Node3 -->
<g id="Node000003" class="node">
<title>Node3</title>
<g id="a_Node000003"><a xlink:title=" ">
<polygon fill="#e0e0e0" stroke="#999999" points="111.75,-19.25 58.25,-19.25 58.25,0 111.75,0 111.75,-19.25"/>
<text text-anchor="middle" x="85" y="-5.75" font-family="Helvetica,sans-Serif" font-size="10.00">iostream</text>
</a>
</g>
</g>
<!-- Node1&#45;&gt;Node3 -->
<g id="edge2_Node000001_Node000003" class="edge">
<title>Node1&#45;&gt;Node3</title>
<g id="a_edge2_Node000001_Node000003"><a xlink:title=" ">
<path fill="none" stroke="#63b8ff" d="M60.91,-54.95C65.13,-47.19 70.36,-37.56 74.87,-29.26"/>
<polygon fill="#63b8ff" stroke="#63b8ff" points="78.37,-31.16 80.07,-20.7 72.22,-27.82 78.37,-31.16"/>
</a>
</g>
</g>
</g>
</svg>
