<?xml version="1.0" encoding="UTF-8" standalone="no"?>
<!DOCTYPE svg PUBLIC "-//W3C//DTD SVG 1.1//EN"
 "http://www.w3.org/Graphics/SVG/1.1/DTD/svg11.dtd">
<!-- Generated by graphviz version 5.0.0 (20220707.1540)
 -->
<!-- Title: main Pages: 1 -->
<svg width="305pt" height="142pt"
 viewBox="0.00 0.00 305.00 142.00" xmlns="http://www.w3.org/2000/svg" xmlns:xlink="http://www.w3.org/1999/xlink">
<g id="graph0" class="graph" transform="scale(1 1) rotate(0) translate(4 138)">
<title>main</title>
<polygon fill="white" stroke="transparent" points="-4,4 -4,-138 301,-138 301,4 -4,4"/>
<!-- Node1 -->
<g id="node1" class="node">
<title>Node1</title>
<g id="a_node1"><a xlink:title=" ">
<polygon fill="#bfbfbf" stroke="black" points="0,-57.5 0,-76.5 38,-76.5 38,-57.5 0,-57.5"/>
<text text-anchor="middle" x="19" y="-64.5" font-family="Helvetica,sans-Serif" font-size="10.00">main</text>
</a>
</g>
</g>
<!-- Node2 -->
<g id="node2" class="node">
<title>Node2</title>
<g id="a_node2"><a xlink:href="../../d0/d77/longest__palindromic__subsequence_8cpp.html#ae1a3968e7947464bee7714f6d43b7002" target="_top" xlink:title=" ">
<polygon fill="white" stroke="black" points="74,-57.5 74,-76.5 107,-76.5 107,-57.5 74,-57.5"/>
<text text-anchor="middle" x="90.5" y="-64.5" font-family="Helvetica,sans-Serif" font-size="10.00">test</text>
</a>
</g>
</g>
<!-- Node1&#45;&gt;Node2 -->
<g id="edge1" class="edge">
<title>Node1&#45;&gt;Node2</title>
<path fill="none" stroke="midnightblue" d="M38.26,-67C46.07,-67 55.31,-67 63.79,-67"/>
<polygon fill="midnightblue" stroke="midnightblue" points="63.95,-70.5 73.95,-67 63.95,-63.5 63.95,-70.5"/>
</g>
<!-- Node3 -->
<g id="node3" class="node">
<title>Node3</title>
<g id="a_node3"><a xlink:href="../../d0/d77/longest__palindromic__subsequence_8cpp.html#a6f73ddd8cd83d784036f131dfc6540c4" target="_top" xlink:title=" ">
<polygon fill="white" stroke="black" points="143,-57.5 143,-76.5 172,-76.5 172,-57.5 143,-57.5"/>
<text text-anchor="middle" x="157.5" y="-64.5" font-family="Helvetica,sans-Serif" font-size="10.00">lps</text>
</a>
</g>
</g>
<!-- Node2&#45;&gt;Node3 -->
<g id="edge2" class="edge">
<title>Node2&#45;&gt;Node3</title>
<path fill="none" stroke="midnightblue" d="M107.23,-67C114.84,-67 124.14,-67 132.6,-67"/>
<polygon fill="midnightblue" stroke="midnightblue" points="132.68,-70.5 142.68,-67 132.68,-63.5 132.68,-70.5"/>
</g>
<!-- Node4 -->
<g id="node4" class="node">
<title>Node4</title>
<g id="a_node4"><a xlink:href="../../d7/d35/matrix__exponentiation_8cpp.html#ad8389ed58fd0ec66df248014775ad1fa" target="_top" xlink:title=" ">
<polygon fill="white" stroke="black" points="236.5,-114.5 236.5,-133.5 268.5,-133.5 268.5,-114.5 236.5,-114.5"/>
<text text-anchor="middle" x="252.5" y="-121.5" font-family="Helvetica,sans-Serif" font-size="10.00">ans</text>
</a>
</g>
</g>
<!-- Node3&#45;&gt;Node4 -->
<g id="edge3" class="edge">
<title>Node3&#45;&gt;Node4</title>
<path fill="none" stroke="midnightblue" d="M169.35,-76.57C179.03,-84.8 193.82,-96.63 208,-105 213.87,-108.46 220.48,-111.67 226.75,-114.43"/>
<polygon fill="midnightblue" stroke="midnightblue" points="225.58,-117.73 236.16,-118.36 228.28,-111.28 225.58,-117.73"/>
</g>
<!-- Node5 -->
<g id="node5" class="node">
<title>Node5</title>
<g id="a_node5"><a target="_blank" xlink:href="http://en.cppreference.com/w/cpp/string/basic_string/begin.html#" xlink:title=" ">
<polygon fill="white" stroke="black" points="208,-76.5 208,-95.5 297,-95.5 297,-76.5 208,-76.5"/>
<text text-anchor="middle" x="252.5" y="-83.5" font-family="Helvetica,sans-Serif" font-size="10.00">std::string::begin</text>
</a>
</g>
</g>
<!-- Node3&#45;&gt;Node5 -->
<g id="edge4" class="edge">
<title>Node3&#45;&gt;Node5</title>
<path fill="none" stroke="midnightblue" d="M172.22,-69.8C179.27,-71.24 188.37,-73.1 197.87,-75.04"/>
<polygon fill="midnightblue" stroke="midnightblue" points="197.35,-78.51 207.85,-77.08 198.75,-71.65 197.35,-78.51"/>
</g>
<!-- Node6 -->
<g id="node6" class="node">
<title>Node6</title>
<g id="a_node6"><a target="_blank" xlink:href="http://en.cppreference.com/w/cpp/string/basic_string/end.html#" xlink:title=" ">
<polygon fill="white" stroke="black" points="211.5,-38.5 211.5,-57.5 293.5,-57.5 293.5,-38.5 211.5,-38.5"/>
<text text-anchor="middle" x="252.5" y="-45.5" font-family="Helvetica,sans-Serif" font-size="10.00">std::string::end</text>
</a>
</g>
</g>
<!-- Node3&#45;&gt;Node6 -->
<g id="edge5" class="edge">
<title>Node3&#45;&gt;Node6</title>
<path fill="none" stroke="midnightblue" d="M172.22,-64.2C180.11,-62.58 190.57,-60.45 201.29,-58.26"/>
<polygon fill="midnightblue" stroke="midnightblue" points="202.04,-61.68 211.14,-56.25 200.64,-54.82 202.04,-61.68"/>
</g>
<!-- Node7 -->
<g id="node7" class="node">
<title>Node7</title>
<g id="a_node7"><a target="_blank" xlink:href="http://en.cppreference.com/w/cpp/algorithm/max.html#" xlink:title=" ">
<polygon fill="white" stroke="black" points="225,-0.5 225,-19.5 280,-19.5 280,-0.5 225,-0.5"/>
<text text-anchor="middle" x="252.5" y="-7.5" font-family="Helvetica,sans-Serif" font-size="10.00">std::max</text>
</a>
</g>
</g>
<!-- Node3&#45;&gt;Node7 -->
<g id="edge6" class="edge">
<title>Node3&#45;&gt;Node7</title>
<path fill="none" stroke="midnightblue" d="M169.35,-57.43C179.03,-49.2 193.82,-37.37 208,-29 211,-27.23 214.2,-25.52 217.44,-23.91"/>
<polygon fill="midnightblue" stroke="midnightblue" points="219.01,-27.04 226.6,-19.64 216.05,-20.7 219.01,-27.04"/>
</g>
</g>
</svg>
