<?xml version="1.0" encoding="UTF-8" standalone="no"?>
<!DOCTYPE svg PUBLIC "-//W3C//DTD SVG 1.1//EN"
 "http://www.w3.org/Graphics/SVG/1.1/DTD/svg11.dtd">
<!-- Generated by graphviz version 6.0.1 (20220911.1526)
 -->
<!-- Title: main Pages: 1 -->
<svg width="305pt" height="101pt"
 viewBox="0.00 0.00 305.00 101.00" xmlns="http://www.w3.org/2000/svg" xmlns:xlink="http://www.w3.org/1999/xlink">
<g id="graph0" class="graph" transform="scale(1 1) rotate(0) translate(4 97)">
<title>main</title>
<!-- Node1 -->
<g id="node1" class="node">
<title>Node1</title>
<g id="a_node1"><a xlink:title=" ">
<polygon fill="#999999" stroke="#666666" points="38,-56 0,-56 0,-37 38,-37 38,-56"/>
<text text-anchor="middle" x="19" y="-44" font-family="Helvetica,sans-Serif" font-size="10.00">main</text>
</a>
</g>
</g>
<!-- Node2 -->
<g id="node2" class="node">
<title>Node2</title>
<g id="a_node2"><a xlink:href="../../d0/d77/longest__palindromic__subsequence_8cpp.html#ae1a3968e7947464bee7714f6d43b7002" target="_top" xlink:title=" ">
<polygon fill="white" stroke="#666666" points="107,-56 74,-56 74,-37 107,-37 107,-56"/>
<text text-anchor="middle" x="90.5" y="-44" font-family="Helvetica,sans-Serif" font-size="10.00">test</text>
</a>
</g>
</g>
<!-- Node1&#45;&gt;Node2 -->
<g id="edge1" class="edge">
<title>Node1&#45;&gt;Node2</title>
<path fill="none" stroke="#63b8ff" d="M38.26,-46.5C46.07,-46.5 55.31,-46.5 63.79,-46.5"/>
<polygon fill="#63b8ff" stroke="#63b8ff" points="63.95,-50 73.95,-46.5 63.95,-43 63.95,-50"/>
</g>
<!-- Node3 -->
<g id="node3" class="node">
<title>Node3</title>
<g id="a_node3"><a xlink:href="../../d0/d77/longest__palindromic__subsequence_8cpp.html#a6f73ddd8cd83d784036f131dfc6540c4" target="_top" xlink:title=" ">
<polygon fill="white" stroke="#666666" points="172,-56 143,-56 143,-37 172,-37 172,-56"/>
<text text-anchor="middle" x="157.5" y="-44" font-family="Helvetica,sans-Serif" font-size="10.00">lps</text>
</a>
</g>
</g>
<!-- Node2&#45;&gt;Node3 -->
<g id="edge2" class="edge">
<title>Node2&#45;&gt;Node3</title>
<path fill="none" stroke="#63b8ff" d="M107.23,-46.5C114.84,-46.5 124.14,-46.5 132.6,-46.5"/>
<polygon fill="#63b8ff" stroke="#63b8ff" points="132.68,-50 142.68,-46.5 132.68,-43 132.68,-50"/>
</g>
<!-- Node4 -->
<g id="node4" class="node">
<title>Node4</title>
<g id="a_node4"><a target="_blank" xlink:href="http://en.cppreference.com/w/cpp/string/basic_string/begin.html#" xlink:title=" ">
<polygon fill="white" stroke="#666666" points="297,-93 208,-93 208,-74 297,-74 297,-93"/>
<text text-anchor="middle" x="252.5" y="-81" font-family="Helvetica,sans-Serif" font-size="10.00">std::string::begin</text>
</a>
</g>
</g>
<!-- Node3&#45;&gt;Node4 -->
<g id="edge3" class="edge">
<title>Node3&#45;&gt;Node4</title>
<path fill="none" stroke="#63b8ff" d="M172.22,-51.96C184.27,-56.75 202.3,-63.93 218.12,-70.22"/>
<polygon fill="#63b8ff" stroke="#63b8ff" points="217.03,-73.55 227.61,-74 219.61,-67.05 217.03,-73.55"/>
</g>
<!-- Node5 -->
<g id="node5" class="node">
<title>Node5</title>
<g id="a_node5"><a target="_blank" xlink:href="http://en.cppreference.com/w/cpp/string/basic_string/end.html#" xlink:title=" ">
<polygon fill="white" stroke="#666666" points="293.5,-56 211.5,-56 211.5,-37 293.5,-37 293.5,-56"/>
<text text-anchor="middle" x="252.5" y="-44" font-family="Helvetica,sans-Serif" font-size="10.00">std::string::end</text>
</a>
</g>
</g>
<!-- Node3&#45;&gt;Node5 -->
<g id="edge4" class="edge">
<title>Node3&#45;&gt;Node5</title>
<path fill="none" stroke="#63b8ff" d="M172.22,-46.5C180.03,-46.5 190.36,-46.5 200.96,-46.5"/>
<polygon fill="#63b8ff" stroke="#63b8ff" points="201.14,-50 211.14,-46.5 201.14,-43 201.14,-50"/>
</g>
<!-- Node6 -->
<g id="node6" class="node">
<title>Node6</title>
<g id="a_node6"><a target="_blank" xlink:href="http://en.cppreference.com/w/cpp/algorithm/max.html#" xlink:title=" ">
<polygon fill="white" stroke="#666666" points="280,-19 225,-19 225,0 280,0 280,-19"/>
<text text-anchor="middle" x="252.5" y="-7" font-family="Helvetica,sans-Serif" font-size="10.00">std::max</text>
</a>
</g>
</g>
<!-- Node3&#45;&gt;Node6 -->
<g id="edge5" class="edge">
<title>Node3&#45;&gt;Node6</title>
<path fill="none" stroke="#63b8ff" d="M172.22,-41.04C184.27,-36.25 202.3,-29.07 218.12,-22.78"/>
<polygon fill="#63b8ff" stroke="#63b8ff" points="219.61,-25.95 227.61,-19 217.03,-19.45 219.61,-25.95"/>
</g>
</g>
</svg>
