<?xml version="1.0" encoding="UTF-8" standalone="no"?>
<!DOCTYPE svg PUBLIC "-//W3C//DTD SVG 1.1//EN"
 "http://www.w3.org/Graphics/SVG/1.1/DTD/svg11.dtd">
<!-- Generated by graphviz version 2.50.0 (20211204.2007)
 -->
<!-- Title: graph::LowestCommonAncestor::LowestCommonAncestor Pages: 1 -->
<svg width="505pt" height="39pt"
 viewBox="0.00 0.00 505.00 39.00" xmlns="http://www.w3.org/2000/svg" xmlns:xlink="http://www.w3.org/1999/xlink">
<g id="graph0" class="graph" transform="scale(1 1) rotate(0) translate(4 35)">
<title>graph::LowestCommonAncestor::LowestCommonAncestor</title>
<polygon fill="white" stroke="transparent" points="-4,4 -4,-35 501,-35 501,4 -4,4"/>
<!-- Node1 -->
<g id="node1" class="node">
<title>Node1</title>
<g id="a_node1"><a xlink:title="Stores the tree and precomputs &quot;up lifts&quot;.">
<polygon fill="#bfbfbf" stroke="black" points="0,-0.5 0,-30.5 157,-30.5 157,-0.5 0,-0.5"/>
<text text-anchor="start" x="8" y="-18.5" font-family="Helvetica,sans-Serif" font-size="10.00">graph::LowestCommonAncestor</text>
<text text-anchor="middle" x="78.5" y="-7.5" font-family="Helvetica,sans-Serif" font-size="10.00">::LowestCommonAncestor</text>
</a>
</g>
</g>
<!-- Node2 -->
<g id="node2" class="node">
<title>Node2</title>
<g id="a_node2"><a xlink:href="../../d9/d23/classgraph_1_1_lowest_common_ancestor.html#a42589cc39d6bbff6c997152f1b96e356" target="_top" xlink:title=" ">
<polygon fill="white" stroke="black" points="193,-0.5 193,-30.5 350,-30.5 350,-0.5 193,-0.5"/>
<text text-anchor="start" x="201" y="-18.5" font-family="Helvetica,sans-Serif" font-size="10.00">graph::LowestCommonAncestor</text>
<text text-anchor="middle" x="271.5" y="-7.5" font-family="Helvetica,sans-Serif" font-size="10.00">::populate_up</text>
</a>
</g>
</g>
<!-- Node1&#45;&gt;Node2 -->
<g id="edge1" class="edge">
<title>Node1&#45;&gt;Node2</title>
<path fill="none" stroke="midnightblue" d="M157.19,-15.5C165.65,-15.5 174.31,-15.5 182.88,-15.5"/>
<polygon fill="midnightblue" stroke="midnightblue" points="182.88,-19 192.88,-15.5 182.88,-12 182.88,-19"/>
</g>
<!-- Node3 -->
<g id="node3" class="node">
<title>Node3</title>
<g id="a_node3"><a xlink:href="../../dc/d61/classgraph_1_1_graph.html#a8930d1470d132b19e430d1c71f94c904" target="_top" xlink:title=" ">
<polygon fill="white" stroke="black" points="386,-0.5 386,-30.5 497,-30.5 497,-0.5 386,-0.5"/>
<text text-anchor="start" x="394" y="-18.5" font-family="Helvetica,sans-Serif" font-size="10.00">graph::Graph::number</text>
<text text-anchor="middle" x="441.5" y="-7.5" font-family="Helvetica,sans-Serif" font-size="10.00">_of_vertices</text>
</a>
</g>
</g>
<!-- Node2&#45;&gt;Node3 -->
<g id="edge2" class="edge">
<title>Node2&#45;&gt;Node3</title>
<path fill="none" stroke="midnightblue" d="M350.11,-15.5C358.66,-15.5 367.31,-15.5 375.69,-15.5"/>
<polygon fill="midnightblue" stroke="midnightblue" points="375.75,-19 385.75,-15.5 375.75,-12 375.75,-19"/>
</g>
</g>
</svg>
