<?xml version="1.0" encoding="UTF-8" standalone="no"?>
<!DOCTYPE svg PUBLIC "-//W3C//DTD SVG 1.1//EN"
 "http://www.w3.org/Graphics/SVG/1.1/DTD/svg11.dtd">
<!-- Generated by graphviz version 9.0.0 (20230911.1827)
 -->
<!-- Title: main Pages: 1 -->
<!--zoomable 88 -->

<svg id="main" version="1.1" xmlns="http://www.w3.org/2000/svg" xmlns:xlink="http://www.w3.org/1999/xlink" xml:space="preserve" onload="init(evt)">
<style type="text/css"><![CDATA[
.node, .edge {opacity: 0.7;}
.node.selected, .edge.selected {opacity: 1;}
.edge:hover path { stroke: red; }
.edge:hover polygon { stroke: red; fill: red; }
]]></style>

<defs>
  <circle id="rim" cx="0" cy="0" r="7"/>
  <circle id="rim2" cx="0" cy="0" r="3.5"/>
  <g id="zoomPlus">
    <use xlink:href="#rim" fill="#404040"><set attributeName="fill" to="#808080" begin="zoomplus.mouseover" end="zoomplus.mouseout"/></use>
    <path d="M-4,0h8M0,-4v8" fill="none" stroke="white" stroke-width="1.5" pointer-events="none"/>
  </g>
  <g id="zoomMin">
    <use xlink:href="#rim" fill="#404040"><set attributeName="fill" to="#808080" begin="zoomminus.mouseover" end="zoomminus.mouseout"/></use>
    <path d="M-4,0h8" fill="none" stroke="white" stroke-width="1.5" pointer-events="none"/>
  </g>
  <g id="arrowUp" transform="translate(30 24)">
    <use xlink:href="#rim"/>
    <path pointer-events="none" fill="none" stroke="white" stroke-width="1.5" d="M0,-3.0v7 M-2.5,-0.5L0,-3.0L2.5,-0.5"/>
  </g>
  <g id="arrowRight" transform="rotate(90) translate(36 -43)">
    <use xlink:href="#rim"/>
    <path pointer-events="none" fill="none" stroke="white" stroke-width="1.5" d="M0,-3.0v7 M-2.5,-0.5L0,-3.0L2.5,-0.5"/>
  </g>
  <g id="arrowDown" transform="rotate(180) translate(-30 -48)">
    <use xlink:href="#rim"/>
    <path pointer-events="none" fill="none" stroke="white" stroke-width="1.5" d="M0,-3.0v7 M-2.5,-0.5L0,-3.0L2.5,-0.5"/>
  </g>
  <g id="arrowLeft" transform="rotate(270) translate(-36 17)">
    <use xlink:href="#rim"/>
    <path pointer-events="none" fill="none" stroke="white" stroke-width="1.5" d="M0,-3.0v7 M-2.5,-0.5L0,-3.0L2.5,-0.5"/>
  </g>
  <g id="resetDef">
    <use xlink:href="#rim2" fill="#404040"><set attributeName="fill" to="#808080" begin="reset.mouseover" end="reset.mouseout"/></use>
  </g>
</defs>
<script type="application/ecmascript">
var viewWidth = 576;
var viewHeight = 88;
var sectionId = 'dynsection-1';
</script>
<script type="application/ecmascript" xlink:href="../../svg.min.js"/>
<svg id="graph" class="graph">
<g id="viewport">
<title>main</title>
<!-- Node1 -->
<g id="Node000001" class="node">
<title>Node1</title>
<g id="a_Node000001"><a xlink:title="Main function.">
<polygon fill="#999999" stroke="#666666" points="37,-48.88 0,-48.88 0,-29.62 37,-29.62 37,-48.88"/>
<text text-anchor="middle" x="18.5" y="-35.38" font-family="Helvetica,sans-Serif" font-size="10.00">main</text>
</a>
</g>
</g>
<!-- Node2 -->
<g id="Node000002" class="node">
<title>Node2</title>
<g id="a_Node000002"><a xlink:href="../../d6/d2e/fenwick__tree_8cpp.html#a483bb8ccf42aaf7375a83e91490eda1e" target="_top" xlink:title="Self&#45;test implementations.">
<polygon fill="white" stroke="#666666" points="110.75,-48.88 73,-48.88 73,-29.62 110.75,-29.62 110.75,-48.88"/>
<text text-anchor="middle" x="91.88" y="-35.38" font-family="Helvetica,sans-Serif" font-size="10.00">tests</text>
</a>
</g>
</g>
<!-- Node1&#45;&gt;Node2 -->
<g id="edge1_Node000001_Node000002" class="edge">
<title>Node1&#45;&gt;Node2</title>
<g id="a_edge1_Node000001_Node000002"><a xlink:title=" ">
<path fill="none" stroke="#63b8ff" d="M37.14,-39.25C44.55,-39.25 53.37,-39.25 61.69,-39.25"/>
<polygon fill="#63b8ff" stroke="#63b8ff" points="61.43,-42.75 71.43,-39.25 61.43,-35.75 61.43,-42.75"/>
</a>
</g>
</g>
<!-- Node3 -->
<g id="Node000003" class="node">
<title>Node3</title>
<g id="a_Node000003"><a xlink:href="../../de/d0d/classrange__queries_1_1fenwick__tree.html#a0914a4b1401a7c427de91c92885724fe" target="_top" xlink:title="Returns the prefix sum in range from L to R.">
<polygon fill="white" stroke="#666666" points="263.25,-77.5 146.75,-77.5 146.75,-47 263.25,-47 263.25,-77.5"/>
<text text-anchor="start" x="154.75" y="-64" font-family="Helvetica,sans-Serif" font-size="10.00">range_queries::fenwick</text>
<text text-anchor="middle" x="205" y="-52.75" font-family="Helvetica,sans-Serif" font-size="10.00">_tree::sum_range</text>
</a>
</g>
</g>
<!-- Node2&#45;&gt;Node3 -->
<g id="edge2_Node000002_Node000003" class="edge">
<title>Node2&#45;&gt;Node3</title>
<g id="a_edge2_Node000002_Node000003"><a xlink:title=" ">
<path fill="none" stroke="#63b8ff" d="M111.23,-43.05C118.24,-44.5 126.71,-46.25 135.66,-48.1"/>
<polygon fill="#63b8ff" stroke="#63b8ff" points="134.74,-51.49 145.25,-50.09 136.16,-44.64 134.74,-51.49"/>
</a>
</g>
</g>
<!-- Node6 -->
<g id="Node000006" class="node">
<title>Node6</title>
<g id="a_Node000006"><a xlink:href="../../de/d0d/classrange__queries_1_1fenwick__tree.html#a19dea5e88bbd7683a719030623315de9" target="_top" xlink:title="Updates the value of an element in original array and accordingly updates the values in BIT array.">
<polygon fill="white" stroke="#666666" points="415.75,-30.5 299.25,-30.5 299.25,0 415.75,0 415.75,-30.5"/>
<text text-anchor="start" x="307.25" y="-17" font-family="Helvetica,sans-Serif" font-size="10.00">range_queries::fenwick</text>
<text text-anchor="middle" x="357.5" y="-5.75" font-family="Helvetica,sans-Serif" font-size="10.00">_tree::update</text>
</a>
</g>
</g>
<!-- Node2&#45;&gt;Node6 -->
<g id="edge5_Node000002_Node000006" class="edge">
<title>Node2&#45;&gt;Node6</title>
<g id="a_edge5_Node000002_Node000006"><a xlink:title=" ">
<path fill="none" stroke="#63b8ff" d="M111,-37.6C146.84,-34.34 228.46,-26.91 287.78,-21.51"/>
<polygon fill="#63b8ff" stroke="#63b8ff" points="287.8,-25.02 297.44,-20.63 287.17,-18.05 287.8,-25.02"/>
</a>
</g>
</g>
<!-- Node4 -->
<g id="Node000004" class="node">
<title>Node4</title>
<g id="a_Node000004"><a xlink:href="../../de/d0d/classrange__queries_1_1fenwick__tree.html#a1fa0559d987fde0044761b17b35f5abd" target="_top" xlink:title="Returns the sum of elements in range from 0 to ID.">
<polygon fill="white" stroke="#666666" points="415.75,-79.5 299.25,-79.5 299.25,-49 415.75,-49 415.75,-79.5"/>
<text text-anchor="start" x="307.25" y="-66" font-family="Helvetica,sans-Serif" font-size="10.00">range_queries::fenwick</text>
<text text-anchor="middle" x="357.5" y="-54.75" font-family="Helvetica,sans-Serif" font-size="10.00">_tree::sum</text>
</a>
</g>
</g>
<!-- Node3&#45;&gt;Node4 -->
<g id="edge3_Node000003_Node000004" class="edge">
<title>Node3&#45;&gt;Node4</title>
<g id="a_edge3_Node000003_Node000004"><a xlink:title=" ">
<path fill="none" stroke="#63b8ff" d="M263.33,-63.01C271.23,-63.12 279.42,-63.23 287.5,-63.33"/>
<polygon fill="#63b8ff" stroke="#63b8ff" points="287.27,-66.83 297.32,-63.46 287.37,-59.83 287.27,-66.83"/>
</a>
</g>
</g>
<!-- Node5 -->
<g id="Node000005" class="node">
<title>Node5</title>
<g id="a_Node000005"><a xlink:href="../../de/d0d/classrange__queries_1_1fenwick__tree.html#ab492ebf07cab0e3c32d277ad986de801" target="_top" xlink:title="Returns the highest power of two which is not more than x.">
<polygon fill="white" stroke="#666666" points="568.25,-54.5 451.75,-54.5 451.75,-24 568.25,-24 568.25,-54.5"/>
<text text-anchor="start" x="459.75" y="-41" font-family="Helvetica,sans-Serif" font-size="10.00">range_queries::fenwick</text>
<text text-anchor="middle" x="510" y="-29.75" font-family="Helvetica,sans-Serif" font-size="10.00">_tree::offset</text>
</a>
</g>
</g>
<!-- Node4&#45;&gt;Node5 -->
<g id="edge4_Node000004_Node000005" class="edge">
<title>Node4&#45;&gt;Node5</title>
<g id="a_edge4_Node000004_Node000005"><a xlink:title=" ">
<path fill="none" stroke="#63b8ff" d="M415.83,-54.73C423.73,-53.41 431.92,-52.05 440,-50.71"/>
<polygon fill="#63b8ff" stroke="#63b8ff" points="440.55,-54.17 449.84,-49.08 439.4,-47.26 440.55,-54.17"/>
</a>
</g>
</g>
<!-- Node6&#45;&gt;Node5 -->
<g id="edge6_Node000006_Node000005" class="edge">
<title>Node6&#45;&gt;Node5</title>
<g id="a_edge6_Node000006_Node000005"><a xlink:title=" ">
<path fill="none" stroke="#63b8ff" d="M415.83,-24.39C423.73,-25.65 431.92,-26.96 440,-28.25"/>
<polygon fill="#63b8ff" stroke="#63b8ff" points="439.41,-31.7 449.84,-29.82 440.52,-24.78 439.41,-31.7"/>
</a>
</g>
</g>
</g>
</svg>

<g id="navigator" transform="translate(0 0)" fill="#404254">
  <rect fill="#f2f5e9" fill-opacity="0.5" stroke="#606060" stroke-width=".5" x="0" y="0" width="60" height="60"/>
  <use id="zoomplus" xlink:href="#zoomPlus" x="17" y="9" onmousedown="handleZoom(evt,'in')"/>
  <use id="zoomminus" xlink:href="#zoomMin" x="42" y="9" onmousedown="handleZoom(evt,'out')"/>
  <use id="reset" xlink:href="#resetDef" x="30" y="36" onmousedown="handleReset()"/>
   <use id="arrowup" xlink:href="#arrowUp" x="0" y="0" onmousedown="handlePan(0,-1)"/>
  <use id="arrowright" xlink:href="#arrowRight" x="0" y="0" onmousedown="handlePan(1,0)"/>
  <use id="arrowdown" xlink:href="#arrowDown" x="0" y="0" onmousedown="handlePan(0,1)"/>
  <use id="arrowleft" xlink:href="#arrowLeft" x="0" y="0" onmousedown="handlePan(-1,0)"/>
</g>
<svg viewBox="0 0 15 15" width="100%" height="30px" preserveAspectRatio="xMaxYMin meet">
 <g id="arrow_out" transform="scale(0.3 0.3)">
  <a xlink:href="fenwick__tree_8cpp_ae66f6b31b5ad750f1fe042a706a4e3d4_cgraph_org.svg" target="_base">
   <rect id="button" ry="5" rx="5" y="6" x="6" height="38" width="38"
        fill="#f2f5e9" fill-opacity="0.5" stroke="#606060" stroke-width="1.0"/>
   <path id="arrow"
     d="M 11.500037,31.436501 C 11.940474,20.09759 22.043105,11.32322 32.158766,21.979434 L 37.068811,17.246167 C 37.068811,17.246167 37.088388,32 37.088388,32 L 22.160133,31.978069 C 22.160133,31.978069 26.997745,27.140456 26.997745,27.140456 C 18.528582,18.264221 13.291696,25.230495 11.500037,31.436501 z"
     style="fill:#404040;"/>
  </a>
 </g>
</svg>

<style type='text/css'>
<![CDATA[
[data-mouse-over-selected='false'] { opacity: 0.7; }
[data-mouse-over-selected='true']  { opacity: 1.0; }
]]>
</style>
<script type="application/ecmascript"><![CDATA[
document.addEventListener('DOMContentLoaded', (event) => {
  highlightEdges();
  highlightAdjacentNodes();
});
]]></script>
</svg>
