<?xml version="1.0" encoding="UTF-8" standalone="no"?>
<!DOCTYPE svg PUBLIC "-//W3C//DTD SVG 1.1//EN"
 "http://www.w3.org/Graphics/SVG/1.1/DTD/svg11.dtd">
<!-- Generated by graphviz version 8.1.0 (20230707.0739)
 -->
<!-- Title: tests Pages: 1 -->
<svg width="503pt" height="88pt"
 viewBox="0.00 0.00 503.25 87.50" xmlns="http://www.w3.org/2000/svg" xmlns:xlink="http://www.w3.org/1999/xlink">
<g id="graph0" class="graph" transform="scale(1 1) rotate(0) translate(4 83.5)">
<title>tests</title>
<!-- Node1 -->
<g id="Node000001" class="node">
<title>Node1</title>
<g id="a_Node000001"><a xlink:title="Self&#45;test implementations.">
<polygon fill="#999999" stroke="#666666" points="37.75,-48.88 0,-48.88 0,-29.62 37.75,-29.62 37.75,-48.88"/>
<text text-anchor="middle" x="18.88" y="-35.38" font-family="Helvetica,sans-Serif" font-size="10.00">tests</text>
</a>
</g>
</g>
<!-- Node2 -->
<g id="Node000002" class="node">
<title>Node2</title>
<g id="a_Node000002"><a xlink:href="../../de/d0d/classrange__queries_1_1fenwick__tree.html#a0914a4b1401a7c427de91c92885724fe" target="_top" xlink:title="Returns the prefix sum in range from L to R.">
<polygon fill="white" stroke="#666666" points="190.25,-77.5 73.75,-77.5 73.75,-47 190.25,-47 190.25,-77.5"/>
<text text-anchor="start" x="81.75" y="-64" font-family="Helvetica,sans-Serif" font-size="10.00">range_queries::fenwick</text>
<text text-anchor="middle" x="132" y="-52.75" font-family="Helvetica,sans-Serif" font-size="10.00">_tree::sum_range</text>
</a>
</g>
</g>
<!-- Node1&#45;&gt;Node2 -->
<g id="edge1_Node000001_Node000002" class="edge">
<title>Node1&#45;&gt;Node2</title>
<g id="a_edge1_Node000001_Node000002"><a xlink:title=" ">
<path fill="none" stroke="#63b8ff" d="M38.23,-43.05C45.39,-44.53 54.09,-46.33 63.25,-48.23"/>
<polygon fill="#63b8ff" stroke="#63b8ff" points="62.23,-51.8 72.73,-50.4 63.65,-44.94 62.23,-51.8"/>
</a>
</g>
</g>
<!-- Node5 -->
<g id="Node000005" class="node">
<title>Node5</title>
<g id="a_Node000005"><a xlink:href="../../de/d0d/classrange__queries_1_1fenwick__tree.html#a19dea5e88bbd7683a719030623315de9" target="_top" xlink:title="Updates the value of an element in original array and accordingly updates the values in BIT array.">
<polygon fill="white" stroke="#666666" points="342.75,-30.5 226.25,-30.5 226.25,0 342.75,0 342.75,-30.5"/>
<text text-anchor="start" x="234.25" y="-17" font-family="Helvetica,sans-Serif" font-size="10.00">range_queries::fenwick</text>
<text text-anchor="middle" x="284.5" y="-5.75" font-family="Helvetica,sans-Serif" font-size="10.00">_tree::update</text>
</a>
</g>
</g>
<!-- Node1&#45;&gt;Node5 -->
<g id="edge4_Node000001_Node000005" class="edge">
<title>Node1&#45;&gt;Node5</title>
<g id="a_edge4_Node000001_Node000005"><a xlink:title=" ">
<path fill="none" stroke="#63b8ff" d="M38,-37.6C73.92,-34.33 155.8,-26.88 215.15,-21.47"/>
<polygon fill="#63b8ff" stroke="#63b8ff" points="215.31,-24.88 224.95,-20.49 214.68,-17.91 215.31,-24.88"/>
</a>
</g>
</g>
<!-- Node3 -->
<g id="Node000003" class="node">
<title>Node3</title>
<g id="a_Node000003"><a xlink:href="../../de/d0d/classrange__queries_1_1fenwick__tree.html#a1fa0559d987fde0044761b17b35f5abd" target="_top" xlink:title="Returns the sum of elements in range from 0 to ID.">
<polygon fill="white" stroke="#666666" points="342.75,-79.5 226.25,-79.5 226.25,-49 342.75,-49 342.75,-79.5"/>
<text text-anchor="start" x="234.25" y="-66" font-family="Helvetica,sans-Serif" font-size="10.00">range_queries::fenwick</text>
<text text-anchor="middle" x="284.5" y="-54.75" font-family="Helvetica,sans-Serif" font-size="10.00">_tree::sum</text>
</a>
</g>
</g>
<!-- Node2&#45;&gt;Node3 -->
<g id="edge2_Node000002_Node000003" class="edge">
<title>Node2&#45;&gt;Node3</title>
<g id="a_edge2_Node000002_Node000003"><a xlink:title=" ">
<path fill="none" stroke="#63b8ff" d="M190.33,-63.01C198.41,-63.12 206.79,-63.23 215.06,-63.34"/>
<polygon fill="#63b8ff" stroke="#63b8ff" points="214.79,-66.85 224.83,-63.48 214.88,-59.85 214.79,-66.85"/>
</a>
</g>
</g>
<!-- Node4 -->
<g id="Node000004" class="node">
<title>Node4</title>
<g id="a_Node000004"><a xlink:href="../../de/d0d/classrange__queries_1_1fenwick__tree.html#ab492ebf07cab0e3c32d277ad986de801" target="_top" xlink:title="Returns the highest power of two which is not more than x.">
<polygon fill="white" stroke="#666666" points="495.25,-54.5 378.75,-54.5 378.75,-24 495.25,-24 495.25,-54.5"/>
<text text-anchor="start" x="386.75" y="-41" font-family="Helvetica,sans-Serif" font-size="10.00">range_queries::fenwick</text>
<text text-anchor="middle" x="437" y="-29.75" font-family="Helvetica,sans-Serif" font-size="10.00">_tree::offset</text>
</a>
</g>
</g>
<!-- Node3&#45;&gt;Node4 -->
<g id="edge3_Node000003_Node000004" class="edge">
<title>Node3&#45;&gt;Node4</title>
<g id="a_edge3_Node000003_Node000004"><a xlink:title=" ">
<path fill="none" stroke="#63b8ff" d="M342.83,-54.73C350.91,-53.38 359.29,-51.99 367.56,-50.62"/>
<polygon fill="#63b8ff" stroke="#63b8ff" points="368.04,-53.92 377.33,-48.83 366.9,-47.02 368.04,-53.92"/>
</a>
</g>
</g>
<!-- Node5&#45;&gt;Node4 -->
<g id="edge5_Node000005_Node000004" class="edge">
<title>Node5&#45;&gt;Node4</title>
<g id="a_edge5_Node000005_Node000004"><a xlink:title=" ">
<path fill="none" stroke="#63b8ff" d="M342.83,-24.39C350.91,-25.68 359.29,-27.02 367.56,-28.34"/>
<polygon fill="#63b8ff" stroke="#63b8ff" points="366.91,-31.94 377.33,-30.05 368.01,-25.02 366.91,-31.94"/>
</a>
</g>
</g>
</g>
</svg>
