<?xml version="1.0" encoding="UTF-8" standalone="no"?>
<!DOCTYPE svg PUBLIC "-//W3C//DTD SVG 1.1//EN"
 "http://www.w3.org/Graphics/SVG/1.1/DTD/svg11.dtd">
<!-- Generated by graphviz version 8.0.2 (20230410.1723)
 -->
<!-- Title: graph/bidirectional_dijkstra.cpp Pages: 1 -->
<svg width="370pt" height="93pt"
 viewBox="0.00 0.00 369.50 93.00" xmlns="http://www.w3.org/2000/svg" xmlns:xlink="http://www.w3.org/1999/xlink">
<g id="graph0" class="graph" transform="scale(1 1) rotate(0) translate(4 89)">
<title>graph/bidirectional_dijkstra.cpp</title>
<!-- Node1 -->
<g id="node1" class="node">
<title>Node1</title>
<g id="a_node1"><a xlink:title="[Bidirectional Dijkstra Shortest Path Algorithm] (https://www.coursera.org/learn/algorithms&#45;on&#45;graphs...">
<polygon fill="#999999" stroke="#666666" points="237,-85 142,-85 142,-55 237,-55 237,-85"/>
<text text-anchor="start" x="150" y="-73" font-family="Helvetica,sans-Serif" font-size="10.00">graph/bidirectional</text>
<text text-anchor="middle" x="189.5" y="-62" font-family="Helvetica,sans-Serif" font-size="10.00">_dijkstra.cpp</text>
</a>
</g>
</g>
<!-- Node2 -->
<g id="node2" class="node">
<title>Node2</title>
<g id="a_node2"><a xlink:title=" ">
<polygon fill="#e0e0e0" stroke="#999999" points="49,-19 0,-19 0,0 49,0 49,-19"/>
<text text-anchor="middle" x="24.5" y="-7" font-family="Helvetica,sans-Serif" font-size="10.00">cassert</text>
</a>
</g>
</g>
<!-- Node1&#45;&gt;Node2 -->
<g id="edge1" class="edge">
<title>Node1&#45;&gt;Node2</title>
<path fill="none" stroke="#63b8ff" d="M148.71,-54.54C121.37,-44.84 85.73,-32.21 59.64,-22.96"/>
<polygon fill="#63b8ff" stroke="#63b8ff" points="61.05,-19.39 50.45,-19.35 58.71,-25.99 61.05,-19.39"/>
</g>
<!-- Node3 -->
<g id="node3" class="node">
<title>Node3</title>
<g id="a_node3"><a xlink:title=" ">
<polygon fill="#e0e0e0" stroke="#999999" points="121.5,-19 67.5,-19 67.5,0 121.5,0 121.5,-19"/>
<text text-anchor="middle" x="94.5" y="-7" font-family="Helvetica,sans-Serif" font-size="10.00">iostream</text>
</a>
</g>
</g>
<!-- Node1&#45;&gt;Node3 -->
<g id="edge2" class="edge">
<title>Node1&#45;&gt;Node3</title>
<path fill="none" stroke="#63b8ff" d="M166.02,-54.54C151.46,-45.58 132.83,-34.1 118.23,-25.11"/>
<polygon fill="#63b8ff" stroke="#63b8ff" points="120.22,-21.61 109.87,-19.35 116.55,-27.57 120.22,-21.61"/>
</g>
<!-- Node4 -->
<g id="node4" class="node">
<title>Node4</title>
<g id="a_node4"><a xlink:title=" ">
<polygon fill="#e0e0e0" stroke="#999999" points="179.5,-19 139.5,-19 139.5,0 179.5,0 179.5,-19"/>
<text text-anchor="middle" x="159.5" y="-7" font-family="Helvetica,sans-Serif" font-size="10.00">limits</text>
</a>
</g>
</g>
<!-- Node1&#45;&gt;Node4 -->
<g id="edge3" class="edge">
<title>Node1&#45;&gt;Node4</title>
<path fill="none" stroke="#63b8ff" d="M182.08,-54.54C178.08,-46.74 173.1,-37.03 168.84,-28.71"/>
<polygon fill="#63b8ff" stroke="#63b8ff" points="171.63,-27.48 163.95,-20.18 165.4,-30.67 171.63,-27.48"/>
</g>
<!-- Node5 -->
<g id="node5" class="node">
<title>Node5</title>
<g id="a_node5"><a xlink:title=" ">
<polygon fill="#e0e0e0" stroke="#999999" points="241,-19 198,-19 198,0 241,0 241,-19"/>
<text text-anchor="middle" x="219.5" y="-7" font-family="Helvetica,sans-Serif" font-size="10.00">queue</text>
</a>
</g>
</g>
<!-- Node1&#45;&gt;Node5 -->
<g id="edge4" class="edge">
<title>Node1&#45;&gt;Node5</title>
<path fill="none" stroke="#63b8ff" d="M196.92,-54.54C200.92,-46.74 205.9,-37.03 210.16,-28.71"/>
<polygon fill="#63b8ff" stroke="#63b8ff" points="213.6,-30.67 215.05,-20.18 207.37,-27.48 213.6,-30.67"/>
</g>
<!-- Node6 -->
<g id="node6" class="node">
<title>Node6</title>
<g id="a_node6"><a xlink:title=" ">
<polygon fill="#e0e0e0" stroke="#999999" points="299.5,-19 259.5,-19 259.5,0 299.5,0 299.5,-19"/>
<text text-anchor="middle" x="279.5" y="-7" font-family="Helvetica,sans-Serif" font-size="10.00">utility</text>
</a>
</g>
</g>
<!-- Node1&#45;&gt;Node6 -->
<g id="edge5" class="edge">
<title>Node1&#45;&gt;Node6</title>
<path fill="none" stroke="#63b8ff" d="M211.75,-54.54C225.53,-45.58 243.19,-34.1 257.02,-25.11"/>
<polygon fill="#63b8ff" stroke="#63b8ff" points="258.41,-27.73 264.89,-19.35 254.6,-21.86 258.41,-27.73"/>
</g>
<!-- Node7 -->
<g id="node7" class="node">
<title>Node7</title>
<g id="a_node7"><a xlink:title=" ">
<polygon fill="#e0e0e0" stroke="#999999" points="361.5,-19 317.5,-19 317.5,0 361.5,0 361.5,-19"/>
<text text-anchor="middle" x="339.5" y="-7" font-family="Helvetica,sans-Serif" font-size="10.00">vector</text>
</a>
</g>
</g>
<!-- Node1&#45;&gt;Node7 -->
<g id="edge6" class="edge">
<title>Node1&#45;&gt;Node7</title>
<path fill="none" stroke="#63b8ff" d="M226.58,-54.54C251.26,-44.92 283.36,-32.39 307.03,-23.16"/>
<polygon fill="#63b8ff" stroke="#63b8ff" points="308.21,-26.07 316.26,-19.18 305.67,-19.55 308.21,-26.07"/>
</g>
</g>
</svg>
