<?xml version="1.0" encoding="UTF-8" standalone="no"?>
<!DOCTYPE svg PUBLIC "-//W3C//DTD SVG 1.1//EN"
 "http://www.w3.org/Graphics/SVG/1.1/DTD/svg11.dtd">
<!-- Generated by graphviz version 5.0.0 (20220707.1540)
 -->
<!-- Title: dynamic_programming::mincoins_topdown::mincoins Pages: 1 -->
<svg width="211pt" height="76pt"
 viewBox="0.00 0.00 211.00 76.00" xmlns="http://www.w3.org/2000/svg" xmlns:xlink="http://www.w3.org/1999/xlink">
<g id="graph0" class="graph" transform="scale(1 1) rotate(0) translate(4 72)">
<title>dynamic_programming::mincoins_topdown::mincoins</title>
<polygon fill="white" stroke="transparent" points="-4,4 -4,-72 207,-72 207,4 -4,4"/>
<!-- Node1 -->
<g id="node1" class="node">
<title>Node1</title>
<g id="a_node1"><a xlink:title="This implementation is for finding minimum number of coins .">
<polygon fill="#bfbfbf" stroke="black" points="0,-8.5 0,-49.5 115,-49.5 115,-8.5 0,-8.5"/>
<text text-anchor="start" x="8" y="-37.5" font-family="Helvetica,sans-Serif" font-size="10.00">dynamic_programming</text>
<text text-anchor="start" x="8" y="-26.5" font-family="Helvetica,sans-Serif" font-size="10.00">::mincoins_topdown::</text>
<text text-anchor="middle" x="57.5" y="-15.5" font-family="Helvetica,sans-Serif" font-size="10.00">mincoins</text>
</a>
</g>
</g>
<!-- Node1&#45;&gt;Node1 -->
<g id="edge3" class="edge">
<title>Node1&#45;&gt;Node1</title>
<path fill="none" stroke="midnightblue" d="M35.81,-49.86C33.45,-59.54 40.68,-68 57.5,-68 68.02,-68 74.78,-64.7 77.8,-59.86"/>
<polygon fill="midnightblue" stroke="midnightblue" points="81.28,-60.25 79.19,-49.86 74.35,-59.29 81.28,-60.25"/>
</g>
<!-- Node2 -->
<g id="node2" class="node">
<title>Node2</title>
<g id="a_node2"><a xlink:href="../../d7/d35/matrix__exponentiation_8cpp.html#ad8389ed58fd0ec66df248014775ad1fa" target="_top" xlink:title=" ">
<polygon fill="white" stroke="black" points="161,-38.5 161,-57.5 193,-57.5 193,-38.5 161,-38.5"/>
<text text-anchor="middle" x="177" y="-45.5" font-family="Helvetica,sans-Serif" font-size="10.00">ans</text>
</a>
</g>
</g>
<!-- Node1&#45;&gt;Node2 -->
<g id="edge1" class="edge">
<title>Node1&#45;&gt;Node2</title>
<path fill="none" stroke="midnightblue" d="M115.18,-38.17C127.73,-40.19 140.4,-42.24 150.9,-43.94"/>
<polygon fill="midnightblue" stroke="midnightblue" points="150.54,-47.43 160.97,-45.57 151.66,-40.52 150.54,-47.43"/>
</g>
<!-- Node3 -->
<g id="node3" class="node">
<title>Node3</title>
<g id="a_node3"><a target="_blank" xlink:href="http://en.cppreference.com/w/cpp/algorithm/min.html#" xlink:title=" ">
<polygon fill="white" stroke="black" points="151,-0.5 151,-19.5 203,-19.5 203,-0.5 151,-0.5"/>
<text text-anchor="middle" x="177" y="-7.5" font-family="Helvetica,sans-Serif" font-size="10.00">std::min</text>
</a>
</g>
</g>
<!-- Node1&#45;&gt;Node3 -->
<g id="edge2" class="edge">
<title>Node1&#45;&gt;Node3</title>
<path fill="none" stroke="midnightblue" d="M115.18,-19.83C124.02,-18.41 132.91,-16.97 141.06,-15.65"/>
<polygon fill="midnightblue" stroke="midnightblue" points="141.63,-19.1 150.94,-14.05 140.51,-12.19 141.63,-19.1"/>
</g>
</g>
</svg>
