<?xml version="1.0" encoding="UTF-8" standalone="no"?>
<!DOCTYPE svg PUBLIC "-//W3C//DTD SVG 1.1//EN"
 "http://www.w3.org/Graphics/SVG/1.1/DTD/svg11.dtd">
<!-- Generated by graphviz version 8.0.5 (20230430.1635)
 -->
<!-- Title: Z_function Pages: 1 -->
<svg width="189pt" height="64pt"
 viewBox="0.00 0.00 189.25 64.25" xmlns="http://www.w3.org/2000/svg" xmlns:xlink="http://www.w3.org/1999/xlink">
<g id="graph0" class="graph" transform="scale(1 1) rotate(0) translate(4 60.25)">
<title>Z_function</title>
<!-- Node1 -->
<g id="node1" class="node">
<title>Node1</title>
<g id="a_node1"><a xlink:title="for IO operations">
<polygon fill="#999999" stroke="#666666" points="61.75,-37.25 0,-37.25 0,-18 61.75,-18 61.75,-37.25"/>
<text text-anchor="middle" x="30.88" y="-23.75" font-family="Helvetica,sans-Serif" font-size="10.00">Z_function</text>
</a>
</g>
</g>
<!-- Node2 -->
<g id="node2" class="node">
<title>Node2</title>
<g id="a_node2"><a target="_blank" xlink:href="http://en.cppreference.com/w/cpp/algorithm/min.html#" xlink:title=" ">
<polygon fill="white" stroke="#666666" points="165.12,-56.25 113.88,-56.25 113.88,-37 165.12,-37 165.12,-56.25"/>
<text text-anchor="middle" x="139.5" y="-42.75" font-family="Helvetica,sans-Serif" font-size="10.00">std::min</text>
</a>
</g>
</g>
<!-- Node1&#45;&gt;Node2 -->
<g id="edge1" class="edge">
<title>Node1&#45;&gt;Node2</title>
<path fill="none" stroke="#63b8ff" d="M62.14,-33.02C74.84,-35.28 89.7,-37.93 102.92,-40.28"/>
<polygon fill="#63b8ff" stroke="#63b8ff" points="102.09,-43.87 112.55,-42.18 103.32,-36.98 102.09,-43.87"/>
</g>
<!-- Node3 -->
<g id="node3" class="node">
<title>Node3</title>
<g id="a_node3"><a target="_blank" xlink:href="http://en.cppreference.com/w/cpp/string/basic_string/size.html#" xlink:title=" ">
<polygon fill="white" stroke="#666666" points="181.25,-19.25 97.75,-19.25 97.75,0 181.25,0 181.25,-19.25"/>
<text text-anchor="middle" x="139.5" y="-5.75" font-family="Helvetica,sans-Serif" font-size="10.00">std::string::size</text>
</a>
</g>
</g>
<!-- Node1&#45;&gt;Node3 -->
<g id="edge2" class="edge">
<title>Node1&#45;&gt;Node3</title>
<path fill="none" stroke="#63b8ff" d="M62.14,-22.52C69.85,-21.21 78.35,-19.78 86.8,-18.35"/>
<polygon fill="#63b8ff" stroke="#63b8ff" points="87.13,-21.68 96.4,-16.56 85.96,-14.78 87.13,-21.68"/>
</g>
</g>
</svg>
