<?xml version="1.0" encoding="UTF-8" standalone="no"?>
<!DOCTYPE svg PUBLIC "-//W3C//DTD SVG 1.1//EN"
 "http://www.w3.org/Graphics/SVG/1.1/DTD/svg11.dtd">
<!-- Generated by graphviz version 5.0.0 (20220707.1540)
 -->
<!-- Title: test Pages: 1 -->
<svg width="435pt" height="104pt"
 viewBox="0.00 0.00 435.00 104.00" xmlns="http://www.w3.org/2000/svg" xmlns:xlink="http://www.w3.org/1999/xlink">
<g id="graph0" class="graph" transform="scale(1 1) rotate(0) translate(4 100)">
<title>test</title>
<polygon fill="white" stroke="transparent" points="-4,4 -4,-100 431,-100 431,4 -4,4"/>
<!-- Node1 -->
<g id="node1" class="node">
<title>Node1</title>
<g id="a_node1"><a xlink:title="Self&#45;test implementations.">
<polygon fill="#bfbfbf" stroke="black" points="0,-38.5 0,-57.5 33,-57.5 33,-38.5 0,-38.5"/>
<text text-anchor="middle" x="16.5" y="-45.5" font-family="Helvetica,sans-Serif" font-size="10.00">test</text>
</a>
</g>
</g>
<!-- Node2 -->
<g id="node2" class="node">
<title>Node2</title>
<g id="a_node2"><a xlink:href="../../d3/d80/z__function_8cpp.html#ac186ca3ac3a69b5e52543bb13fe46db8" target="_top" xlink:title="Using Z_function to find a pattern in a text.">
<polygon fill="white" stroke="black" points="69,-38.5 69,-57.5 155,-57.5 155,-38.5 69,-38.5"/>
<text text-anchor="middle" x="112" y="-45.5" font-family="Helvetica,sans-Serif" font-size="10.00">find_pat_in_text</text>
</a>
</g>
</g>
<!-- Node1&#45;&gt;Node2 -->
<g id="edge1" class="edge">
<title>Node1&#45;&gt;Node2</title>
<path fill="none" stroke="midnightblue" d="M33.36,-48C40.55,-48 49.51,-48 58.76,-48"/>
<polygon fill="midnightblue" stroke="midnightblue" points="58.84,-51.5 68.84,-48 58.84,-44.5 58.84,-51.5"/>
</g>
<!-- Node3 -->
<g id="node3" class="node">
<title>Node3</title>
<g id="a_node3"><a target="_blank" xlink:href="http://en.cppreference.com/w/cpp/container/vector/push_back.html#" xlink:title=" ">
<polygon fill="white" stroke="black" points="191,-76.5 191,-95.5 307,-95.5 307,-76.5 191,-76.5"/>
<text text-anchor="middle" x="249" y="-83.5" font-family="Helvetica,sans-Serif" font-size="10.00">std::vector::push_back</text>
</a>
</g>
</g>
<!-- Node2&#45;&gt;Node3 -->
<g id="edge2" class="edge">
<title>Node2&#45;&gt;Node3</title>
<path fill="none" stroke="midnightblue" d="M147.07,-57.59C164.41,-62.47 185.7,-68.46 204.25,-73.68"/>
<polygon fill="midnightblue" stroke="midnightblue" points="203.37,-77.07 213.94,-76.41 205.27,-70.34 203.37,-77.07"/>
</g>
<!-- Node4 -->
<g id="node4" class="node">
<title>Node4</title>
<g id="a_node4"><a target="_blank" xlink:href="http://en.cppreference.com/w/cpp/string/basic_string/size.html#" xlink:title=" ">
<polygon fill="white" stroke="black" points="343,-38.5 343,-57.5 427,-57.5 427,-38.5 343,-38.5"/>
<text text-anchor="middle" x="385" y="-45.5" font-family="Helvetica,sans-Serif" font-size="10.00">std::string::size</text>
</a>
</g>
</g>
<!-- Node2&#45;&gt;Node4 -->
<g id="edge3" class="edge">
<title>Node2&#45;&gt;Node4</title>
<path fill="none" stroke="midnightblue" d="M155.05,-48C202.89,-48 281.05,-48 332.51,-48"/>
<polygon fill="midnightblue" stroke="midnightblue" points="332.74,-51.5 342.74,-48 332.74,-44.5 332.74,-51.5"/>
</g>
<!-- Node5 -->
<g id="node5" class="node">
<title>Node5</title>
<g id="a_node5"><a xlink:href="../../d3/d80/z__function_8cpp.html#ac044c4794349a8cff6256b99950d5773" target="_top" xlink:title="for IO operations">
<polygon fill="white" stroke="black" points="218,-0.5 218,-19.5 280,-19.5 280,-0.5 218,-0.5"/>
<text text-anchor="middle" x="249" y="-7.5" font-family="Helvetica,sans-Serif" font-size="10.00">Z_function</text>
</a>
</g>
</g>
<!-- Node2&#45;&gt;Node5 -->
<g id="edge4" class="edge">
<title>Node2&#45;&gt;Node5</title>
<path fill="none" stroke="midnightblue" d="M147.07,-38.41C165.56,-33.21 188.53,-26.74 207.88,-21.29"/>
<polygon fill="midnightblue" stroke="midnightblue" points="208.95,-24.63 217.63,-18.55 207.06,-17.89 208.95,-24.63"/>
</g>
<!-- Node5&#45;&gt;Node4 -->
<g id="edge6" class="edge">
<title>Node5&#45;&gt;Node4</title>
<path fill="none" stroke="midnightblue" d="M280.07,-18.53C297.9,-23.58 320.79,-30.07 340.55,-35.68"/>
<polygon fill="midnightblue" stroke="midnightblue" points="339.68,-39.07 350.26,-38.43 341.59,-32.34 339.68,-39.07"/>
</g>
<!-- Node6 -->
<g id="node6" class="node">
<title>Node6</title>
<g id="a_node6"><a target="_blank" xlink:href="http://en.cppreference.com/w/cpp/algorithm/min.html#" xlink:title=" ">
<polygon fill="white" stroke="black" points="359,-0.5 359,-19.5 411,-19.5 411,-0.5 359,-0.5"/>
<text text-anchor="middle" x="385" y="-7.5" font-family="Helvetica,sans-Serif" font-size="10.00">std::min</text>
</a>
</g>
</g>
<!-- Node5&#45;&gt;Node6 -->
<g id="edge5" class="edge">
<title>Node5&#45;&gt;Node6</title>
<path fill="none" stroke="midnightblue" d="M280.07,-10C300.4,-10 327.33,-10 348.68,-10"/>
<polygon fill="midnightblue" stroke="midnightblue" points="348.97,-13.5 358.97,-10 348.97,-6.5 348.97,-13.5"/>
</g>
</g>
</svg>
