<?xml version="1.0" encoding="UTF-8" standalone="no"?>
<!DOCTYPE svg PUBLIC "-//W3C//DTD SVG 1.1//EN"
 "http://www.w3.org/Graphics/SVG/1.1/DTD/svg11.dtd">
<!-- Generated by graphviz version 5.0.1 (20220820.1526)
 -->
<!-- Title: test Pages: 1 -->
<svg width="435pt" height="103pt"
 viewBox="0.00 0.00 435.00 103.00" xmlns="http://www.w3.org/2000/svg" xmlns:xlink="http://www.w3.org/1999/xlink">
<g id="graph0" class="graph" transform="scale(1 1) rotate(0) translate(4 99)">
<title>test</title>
<!-- Node1 -->
<g id="node1" class="node">
<title>Node1</title>
<g id="a_node1"><a xlink:title="Self&#45;test implementations.">
<polygon fill="#999999" stroke="#666666" points="33,-57 0,-57 0,-38 33,-38 33,-57"/>
<text text-anchor="middle" x="16.5" y="-45" font-family="Helvetica,sans-Serif" font-size="10.00">test</text>
</a>
</g>
</g>
<!-- Node2 -->
<g id="node2" class="node">
<title>Node2</title>
<g id="a_node2"><a xlink:href="../../d3/d80/z__function_8cpp.html#ac186ca3ac3a69b5e52543bb13fe46db8" target="_top" xlink:title="Using Z_function to find a pattern in a text.">
<polygon fill="white" stroke="#666666" points="155,-57 69,-57 69,-38 155,-38 155,-57"/>
<text text-anchor="middle" x="112" y="-45" font-family="Helvetica,sans-Serif" font-size="10.00">find_pat_in_text</text>
</a>
</g>
</g>
<!-- Node1&#45;&gt;Node2 -->
<g id="edge1" class="edge">
<title>Node1&#45;&gt;Node2</title>
<path fill="none" stroke="#63b8ff" d="M33.36,-47.5C40.55,-47.5 49.51,-47.5 58.76,-47.5"/>
<polygon fill="#63b8ff" stroke="#63b8ff" points="58.84,-51 68.84,-47.5 58.84,-44 58.84,-51"/>
</g>
<!-- Node3 -->
<g id="node3" class="node">
<title>Node3</title>
<g id="a_node3"><a target="_blank" xlink:href="http://en.cppreference.com/w/cpp/container/vector/push_back.html#" xlink:title=" ">
<polygon fill="white" stroke="#666666" points="307,-95 191,-95 191,-76 307,-76 307,-95"/>
<text text-anchor="middle" x="249" y="-83" font-family="Helvetica,sans-Serif" font-size="10.00">std::vector::push_back</text>
</a>
</g>
</g>
<!-- Node2&#45;&gt;Node3 -->
<g id="edge2" class="edge">
<title>Node2&#45;&gt;Node3</title>
<path fill="none" stroke="#63b8ff" d="M147.07,-57.09C164.41,-61.97 185.7,-67.96 204.25,-73.18"/>
<polygon fill="#63b8ff" stroke="#63b8ff" points="203.37,-76.57 213.94,-75.91 205.27,-69.84 203.37,-76.57"/>
</g>
<!-- Node4 -->
<g id="node4" class="node">
<title>Node4</title>
<g id="a_node4"><a target="_blank" xlink:href="http://en.cppreference.com/w/cpp/string/basic_string/size.html#" xlink:title=" ">
<polygon fill="white" stroke="#666666" points="427,-56 343,-56 343,-37 427,-37 427,-56"/>
<text text-anchor="middle" x="385" y="-44" font-family="Helvetica,sans-Serif" font-size="10.00">std::string::size</text>
</a>
</g>
</g>
<!-- Node2&#45;&gt;Node4 -->
<g id="edge3" class="edge">
<title>Node2&#45;&gt;Node4</title>
<path fill="none" stroke="#63b8ff" d="M155.05,-47.34C202.89,-47.17 281.05,-46.88 332.51,-46.69"/>
<polygon fill="#63b8ff" stroke="#63b8ff" points="332.76,-50.19 342.74,-46.65 332.73,-43.19 332.76,-50.19"/>
</g>
<!-- Node5 -->
<g id="node5" class="node">
<title>Node5</title>
<g id="a_node5"><a xlink:href="../../d3/d80/z__function_8cpp.html#ac044c4794349a8cff6256b99950d5773" target="_top" xlink:title="for IO operations">
<polygon fill="white" stroke="#666666" points="280,-19 218,-19 218,0 280,0 280,-19"/>
<text text-anchor="middle" x="249" y="-7" font-family="Helvetica,sans-Serif" font-size="10.00">Z_function</text>
</a>
</g>
</g>
<!-- Node2&#45;&gt;Node5 -->
<g id="edge4" class="edge">
<title>Node2&#45;&gt;Node5</title>
<path fill="none" stroke="#63b8ff" d="M147.07,-37.91C165.56,-32.71 188.53,-26.24 207.88,-20.79"/>
<polygon fill="#63b8ff" stroke="#63b8ff" points="208.95,-24.13 217.63,-18.05 207.06,-17.39 208.95,-24.13"/>
</g>
<!-- Node5&#45;&gt;Node4 -->
<g id="edge6" class="edge">
<title>Node5&#45;&gt;Node4</title>
<path fill="none" stroke="#63b8ff" d="M280.07,-17.8C297.55,-22.63 319.91,-28.8 339.4,-34.19"/>
<polygon fill="#63b8ff" stroke="#63b8ff" points="338.72,-37.63 349.29,-36.92 340.59,-30.88 338.72,-37.63"/>
</g>
<!-- Node6 -->
<g id="node6" class="node">
<title>Node6</title>
<g id="a_node6"><a target="_blank" xlink:href="http://en.cppreference.com/w/cpp/algorithm/min.html#" xlink:title=" ">
<polygon fill="white" stroke="#666666" points="411,-19 359,-19 359,0 411,0 411,-19"/>
<text text-anchor="middle" x="385" y="-7" font-family="Helvetica,sans-Serif" font-size="10.00">std::min</text>
</a>
</g>
</g>
<!-- Node5&#45;&gt;Node6 -->
<g id="edge5" class="edge">
<title>Node5&#45;&gt;Node6</title>
<path fill="none" stroke="#63b8ff" d="M280.07,-9.5C300.4,-9.5 327.33,-9.5 348.68,-9.5"/>
<polygon fill="#63b8ff" stroke="#63b8ff" points="348.97,-13 358.97,-9.5 348.97,-6 348.97,-13"/>
</g>
</g>
</svg>
