<?xml version="1.0" encoding="UTF-8" standalone="no"?>
<!DOCTYPE svg PUBLIC "-//W3C//DTD SVG 1.1//EN"
 "http://www.w3.org/Graphics/SVG/1.1/DTD/svg11.dtd">
<!-- Generated by graphviz version 8.0.5 (20230430.1635)
 -->
<!-- Title: mergeSort Pages: 1 -->
<svg width="148pt" height="45pt"
 viewBox="0.00 0.00 148.00 45.25" xmlns="http://www.w3.org/2000/svg" xmlns:xlink="http://www.w3.org/1999/xlink">
<g id="graph0" class="graph" transform="scale(1 1) rotate(0) translate(4 41.25)">
<title>mergeSort</title>
<!-- Node1 -->
<g id="node1" class="node">
<title>Node1</title>
<g id="a_node1"><a xlink:title=" ">
<polygon fill="#999999" stroke="#666666" points="61,-19.25 0,-19.25 0,0 61,0 61,-19.25"/>
<text text-anchor="middle" x="30.5" y="-5.75" font-family="Helvetica,sans-Serif" font-size="10.00">mergeSort</text>
</a>
</g>
</g>
<!-- Node1&#45;&gt;Node1 -->
<g id="edge2" class="edge">
<title>Node1&#45;&gt;Node1</title>
<path fill="none" stroke="#63b8ff" d="M16.72,-19.54C10.44,-28.15 15.03,-37.25 30.5,-37.25 39.2,-37.25 44.46,-34.37 46.28,-30.32"/>
<polygon fill="#63b8ff" stroke="#63b8ff" points="49.54,-29.73 44.28,-20.54 42.66,-31.01 49.54,-29.73"/>
</g>
<!-- Node2 -->
<g id="node2" class="node">
<title>Node2</title>
<g id="a_node2"><a xlink:href="../../d5/d4c/group__sorting.html#ga460c61cd948203b4816bef2accb3fc73" target="_top" xlink:title=" ">
<polygon fill="white" stroke="#666666" points="140,-19.25 97,-19.25 97,0 140,0 140,-19.25"/>
<text text-anchor="middle" x="118.5" y="-5.75" font-family="Helvetica,sans-Serif" font-size="10.00">merge</text>
</a>
</g>
</g>
<!-- Node1&#45;&gt;Node2 -->
<g id="edge1" class="edge">
<title>Node1&#45;&gt;Node2</title>
<path fill="none" stroke="#63b8ff" d="M61.1,-9.62C69.02,-9.62 77.62,-9.62 85.66,-9.62"/>
<polygon fill="#63b8ff" stroke="#63b8ff" points="85.53,-13.13 95.53,-9.62 85.53,-6.13 85.53,-13.13"/>
</g>
</g>
</svg>
