<?xml version="1.0" encoding="UTF-8" standalone="no"?>
<!DOCTYPE svg PUBLIC "-//W3C//DTD SVG 1.1//EN"
 "http://www.w3.org/Graphics/SVG/1.1/DTD/svg11.dtd">
<!-- Generated by graphviz version 9.0.0 (20230911.1827)
 -->
<!-- Title: test Pages: 1 -->
<svg width="548pt" height="259pt"
 viewBox="0.00 0.00 547.50 258.50" xmlns="http://www.w3.org/2000/svg" xmlns:xlink="http://www.w3.org/1999/xlink">
<g id="graph0" class="graph" transform="scale(1 1) rotate(0) translate(4 254.5)">
<title>test</title>
<!-- Node1 -->
<g id="Node000001" class="node">
<title>Node1</title>
<g id="a_Node000001"><a xlink:title="Test implementations.">
<polygon fill="#999999" stroke="#666666" points="32.5,-134.88 0,-134.88 0,-115.62 32.5,-115.62 32.5,-134.88"/>
<text text-anchor="middle" x="16.25" y="-121.38" font-family="Helvetica,sans-Serif" font-size="10.00">test</text>
</a>
</g>
</g>
<!-- Node2 -->
<g id="Node000002" class="node">
<title>Node2</title>
<g id="a_Node000002"><a xlink:href="../../d8/d28/classrange__queries_1_1per_seg_tree.html#a6d3f2465a7c5803a1ff16c5378bcc5e4" target="_top" xlink:title="Constructing the segment tree with the early passed vector. Every call creates a node to hold the sum...">
<polygon fill="white" stroke="#666666" points="201.5,-232.5 68.5,-232.5 68.5,-202 201.5,-202 201.5,-232.5"/>
<text text-anchor="start" x="76.5" y="-219" font-family="Helvetica,sans-Serif" font-size="10.00">range_queries::perSegTree</text>
<text text-anchor="middle" x="135" y="-207.75" font-family="Helvetica,sans-Serif" font-size="10.00">::construct</text>
</a>
</g>
</g>
<!-- Node1&#45;&gt;Node2 -->
<g id="edge1_Node000001_Node000002" class="edge">
<title>Node1&#45;&gt;Node2</title>
<g id="a_edge1_Node000001_Node000002"><a xlink:title=" ">
<path fill="none" stroke="#63b8ff" d="M22.53,-135.29C30.62,-149.76 47.38,-176.48 68.5,-192.25 70.29,-193.59 72.16,-194.86 74.1,-196.08"/>
<polygon fill="#63b8ff" stroke="#63b8ff" points="72.39,-199.13 82.83,-200.91 75.78,-193.01 72.39,-199.13"/>
</a>
</g>
</g>
<!-- Node3 -->
<g id="Node000003" class="node">
<title>Node3</title>
<g id="a_Node000003"><a xlink:href="../../d8/d28/classrange__queries_1_1per_seg_tree.html#ae8ae4b1835e5e8aec32f68c5059ed4d4" target="_top" xlink:title="Querying the range from index l to index r, checking at every node if it has some value to be propaga...">
<polygon fill="white" stroke="#666666" points="201.5,-97.5 68.5,-97.5 68.5,-67 201.5,-67 201.5,-97.5"/>
<text text-anchor="start" x="76.5" y="-84" font-family="Helvetica,sans-Serif" font-size="10.00">range_queries::perSegTree</text>
<text text-anchor="middle" x="135" y="-72.75" font-family="Helvetica,sans-Serif" font-size="10.00">::query</text>
</a>
</g>
</g>
<!-- Node1&#45;&gt;Node3 -->
<g id="edge3_Node000001_Node000003" class="edge">
<title>Node1&#45;&gt;Node3</title>
<g id="a_edge3_Node000001_Node000003"><a xlink:title=" ">
<path fill="none" stroke="#63b8ff" d="M33,-119.45C45.37,-114.89 63.35,-108.27 80.73,-101.87"/>
<polygon fill="#63b8ff" stroke="#63b8ff" points="81.82,-105.2 90,-98.46 79.4,-98.63 81.82,-105.2"/>
</a>
</g>
</g>
<!-- Node6 -->
<g id="Node000006" class="node">
<title>Node6</title>
<g id="a_Node000006"><a xlink:href="../../d8/d28/classrange__queries_1_1per_seg_tree.html#a0fe4e431f3e09c274ecd7d2d58dcb865" target="_top" xlink:title="Getting the number of versions after updates so far which is equal to the size of the pointers vector...">
<polygon fill="white" stroke="#666666" points="201.5,-183.5 68.5,-183.5 68.5,-153 201.5,-153 201.5,-183.5"/>
<text text-anchor="start" x="76.5" y="-170" font-family="Helvetica,sans-Serif" font-size="10.00">range_queries::perSegTree</text>
<text text-anchor="middle" x="135" y="-158.75" font-family="Helvetica,sans-Serif" font-size="10.00">::size</text>
</a>
</g>
</g>
<!-- Node1&#45;&gt;Node6 -->
<g id="edge6_Node000001_Node000006" class="edge">
<title>Node1&#45;&gt;Node6</title>
<g id="a_edge6_Node000001_Node000006"><a xlink:title=" ">
<path fill="none" stroke="#63b8ff" d="M33,-131.05C45.37,-135.61 63.35,-142.23 80.73,-148.63"/>
<polygon fill="#63b8ff" stroke="#63b8ff" points="79.4,-151.87 90,-152.04 81.82,-145.3 79.4,-151.87"/>
</a>
</g>
</g>
<!-- Node7 -->
<g id="Node000007" class="node">
<title>Node7</title>
<g id="a_Node000007"><a target="_blank" xlink:href="http://en.cppreference.com/w/cpp/container/vector/size.html#" xlink:title=" ">
<polygon fill="white" stroke="#666666" points="347.25,-155.88 260.75,-155.88 260.75,-136.62 347.25,-136.62 347.25,-155.88"/>
<text text-anchor="middle" x="304" y="-142.38" font-family="Helvetica,sans-Serif" font-size="10.00">std::vector::size</text>
</a>
</g>
</g>
<!-- Node1&#45;&gt;Node7 -->
<g id="edge8_Node000001_Node000007" class="edge">
<title>Node1&#45;&gt;Node7</title>
<g id="a_edge8_Node000001_Node000007"><a xlink:title=" ">
<path fill="none" stroke="#63b8ff" d="M32.61,-126.38C72.83,-129.33 182.69,-137.41 249.35,-142.31"/>
<polygon fill="#63b8ff" stroke="#63b8ff" points="248.72,-145.77 258.95,-143.01 249.24,-138.79 248.72,-145.77"/>
</a>
</g>
</g>
<!-- Node8 -->
<g id="Node000008" class="node">
<title>Node8</title>
<g id="a_Node000008"><a xlink:href="../../d8/d28/classrange__queries_1_1per_seg_tree.html#a24487eda25123bc4d112e8430821a6c6" target="_top" xlink:title="Doing range update, checking at every node if it has some value to be propagated. All nodes affected ...">
<polygon fill="white" stroke="#666666" points="201.5,-30.5 68.5,-30.5 68.5,0 201.5,0 201.5,-30.5"/>
<text text-anchor="start" x="76.5" y="-17" font-family="Helvetica,sans-Serif" font-size="10.00">range_queries::perSegTree</text>
<text text-anchor="middle" x="135" y="-5.75" font-family="Helvetica,sans-Serif" font-size="10.00">::update</text>
</a>
</g>
</g>
<!-- Node1&#45;&gt;Node8 -->
<g id="edge9_Node000001_Node000008" class="edge">
<title>Node1&#45;&gt;Node8</title>
<g id="a_edge9_Node000001_Node000008"><a xlink:title=" ">
<path fill="none" stroke="#63b8ff" d="M23.31,-115.33C32.09,-101.46 49.42,-76.01 68.5,-58.25 76.78,-50.55 86.59,-43.31 96.06,-37.06"/>
<polygon fill="#63b8ff" stroke="#63b8ff" points="97.89,-40.04 104.45,-31.72 94.13,-34.13 97.89,-40.04"/>
</a>
</g>
</g>
<!-- Node2&#45;&gt;Node2 -->
<g id="edge2_Node000002_Node000002" class="edge">
<title>Node2&#45;&gt;Node2</title>
<g id="a_edge2_Node000002_Node000002"><a xlink:title=" ">
<path fill="none" stroke="#63b8ff" d="M113.96,-232.99C109.66,-242.06 116.68,-250.5 135,-250.5 145.02,-250.5 151.66,-247.97 154.91,-244.2"/>
<polygon fill="#63b8ff" stroke="#63b8ff" points="158.37,-244.79 155.89,-234.49 151.41,-244.09 158.37,-244.79"/>
</a>
</g>
</g>
<!-- Node4 -->
<g id="Node000004" class="node">
<title>Node4</title>
<g id="a_Node000004"><a xlink:href="../../d8/d28/classrange__queries_1_1per_seg_tree.html#ace7f57935b3bb9446f11c239fd89ae79" target="_top" xlink:title="If there is some value to be propagated to the passed node, value is added to the node and the childr...">
<polygon fill="white" stroke="#666666" points="370.5,-73.5 237.5,-73.5 237.5,-43 370.5,-43 370.5,-73.5"/>
<text text-anchor="start" x="245.5" y="-60" font-family="Helvetica,sans-Serif" font-size="10.00">range_queries::perSegTree</text>
<text text-anchor="middle" x="304" y="-48.75" font-family="Helvetica,sans-Serif" font-size="10.00">::lazy</text>
</a>
</g>
</g>
<!-- Node3&#45;&gt;Node4 -->
<g id="edge4_Node000003_Node000004" class="edge">
<title>Node3&#45;&gt;Node4</title>
<g id="a_edge4_Node000003_Node000004"><a xlink:title=" ">
<path fill="none" stroke="#63b8ff" d="M201.52,-72.83C209.47,-71.69 217.65,-70.52 225.75,-69.35"/>
<polygon fill="#63b8ff" stroke="#63b8ff" points="226.22,-72.82 235.62,-67.93 225.22,-65.89 226.22,-72.82"/>
</a>
</g>
</g>
<!-- Node5 -->
<g id="Node000005" class="node">
<title>Node5</title>
<g id="a_Node000005"><a xlink:href="../../d8/d28/classrange__queries_1_1per_seg_tree.html#a0cec4b77d264521717cf9b0482c45817" target="_top" xlink:title="Creating a new node with the same values of curr node.">
<polygon fill="white" stroke="#666666" points="539.5,-51.5 406.5,-51.5 406.5,-21 539.5,-21 539.5,-51.5"/>
<text text-anchor="start" x="414.5" y="-38" font-family="Helvetica,sans-Serif" font-size="10.00">range_queries::perSegTree</text>
<text text-anchor="middle" x="473" y="-26.75" font-family="Helvetica,sans-Serif" font-size="10.00">::newKid</text>
</a>
</g>
</g>
<!-- Node4&#45;&gt;Node5 -->
<g id="edge5_Node000004_Node000005" class="edge">
<title>Node4&#45;&gt;Node5</title>
<g id="a_edge5_Node000004_Node000005"><a xlink:title=" ">
<path fill="none" stroke="#63b8ff" d="M370.52,-49.62C378.47,-48.57 386.65,-47.49 394.75,-46.43"/>
<polygon fill="#63b8ff" stroke="#63b8ff" points="395.16,-49.9 404.62,-45.13 394.24,-42.96 395.16,-49.9"/>
</a>
</g>
</g>
<!-- Node6&#45;&gt;Node7 -->
<g id="edge7_Node000006_Node000007" class="edge">
<title>Node6&#45;&gt;Node7</title>
<g id="a_edge7_Node000006_Node000007"><a xlink:title=" ">
<path fill="none" stroke="#63b8ff" d="M201.52,-159.62C217.25,-157.55 233.87,-155.36 249.01,-153.36"/>
<polygon fill="#63b8ff" stroke="#63b8ff" points="249.3,-156.85 258.76,-152.08 248.39,-149.91 249.3,-156.85"/>
</a>
</g>
</g>
<!-- Node8&#45;&gt;Node4 -->
<g id="edge10_Node000008_Node000004" class="edge">
<title>Node8&#45;&gt;Node4</title>
<g id="a_edge10_Node000008_Node000004"><a xlink:title=" ">
<path fill="none" stroke="#63b8ff" d="M196.76,-30.9C207.93,-33.77 219.68,-36.8 231.14,-39.75"/>
<polygon fill="#63b8ff" stroke="#63b8ff" points="229.98,-43.06 240.54,-42.17 231.73,-36.28 229.98,-43.06"/>
</a>
</g>
</g>
<!-- Node8&#45;&gt;Node5 -->
<g id="edge11_Node000008_Node000005" class="edge">
<title>Node8&#45;&gt;Node5</title>
<g id="a_edge11_Node000008_Node000005"><a xlink:title=" ">
<path fill="none" stroke="#63b8ff" d="M201.98,-19.37C257.35,-22.83 336.5,-27.78 394.8,-31.43"/>
<polygon fill="#63b8ff" stroke="#63b8ff" points="394.46,-34.91 404.66,-32.04 394.9,-27.92 394.46,-34.91"/>
</a>
</g>
</g>
<!-- Node8&#45;&gt;Node8 -->
<g id="edge12_Node000008_Node000008" class="edge">
<title>Node8&#45;&gt;Node8</title>
<g id="a_edge12_Node000008_Node000008"><a xlink:title=" ">
<path fill="none" stroke="#63b8ff" d="M113.96,-30.99C109.66,-40.06 116.68,-48.5 135,-48.5 145.02,-48.5 151.66,-45.97 154.91,-42.2"/>
<polygon fill="#63b8ff" stroke="#63b8ff" points="158.37,-42.79 155.89,-32.49 151.41,-42.09 158.37,-42.79"/>
</a>
</g>
</g>
</g>
</svg>
