<?xml version="1.0" encoding="UTF-8" standalone="no"?>
<!DOCTYPE svg PUBLIC "-//W3C//DTD SVG 1.1//EN"
 "http://www.w3.org/Graphics/SVG/1.1/DTD/svg11.dtd">
<!-- Generated by graphviz version 9.0.0 (20230911.1827)
 -->
<!-- Title: main Pages: 1 -->
<svg width="621pt" height="277pt"
 viewBox="0.00 0.00 620.50 276.50" xmlns="http://www.w3.org/2000/svg" xmlns:xlink="http://www.w3.org/1999/xlink">
<g id="graph0" class="graph" transform="scale(1 1) rotate(0) translate(4 272.5)">
<title>main</title>
<!-- Node1 -->
<g id="Node000001" class="node">
<title>Node1</title>
<g id="a_Node000001"><a xlink:title="Main function.">
<polygon fill="#999999" stroke="#666666" points="37,-152.88 0,-152.88 0,-133.62 37,-133.62 37,-152.88"/>
<text text-anchor="middle" x="18.5" y="-139.38" font-family="Helvetica,sans-Serif" font-size="10.00">main</text>
</a>
</g>
</g>
<!-- Node2 -->
<g id="Node000002" class="node">
<title>Node2</title>
<g id="a_Node000002"><a xlink:href="../../d5/d58/persistent__seg__tree__lazy__prop_8cpp.html#aa8dca7b867074164d5f45b0f3851269d" target="_top" xlink:title="Test implementations.">
<polygon fill="white" stroke="#666666" points="105.5,-152.88 73,-152.88 73,-133.62 105.5,-133.62 105.5,-152.88"/>
<text text-anchor="middle" x="89.25" y="-139.38" font-family="Helvetica,sans-Serif" font-size="10.00">test</text>
</a>
</g>
</g>
<!-- Node1&#45;&gt;Node2 -->
<g id="edge1_Node000001_Node000002" class="edge">
<title>Node1&#45;&gt;Node2</title>
<g id="a_edge1_Node000001_Node000002"><a xlink:title=" ">
<path fill="none" stroke="#63b8ff" d="M37.2,-143.25C44.58,-143.25 53.31,-143.25 61.45,-143.25"/>
<polygon fill="#63b8ff" stroke="#63b8ff" points="61.2,-146.75 71.2,-143.25 61.2,-139.75 61.2,-146.75"/>
</a>
</g>
</g>
<!-- Node3 -->
<g id="Node000003" class="node">
<title>Node3</title>
<g id="a_Node000003"><a xlink:href="../../d8/d28/classrange__queries_1_1per_seg_tree.html#a6d3f2465a7c5803a1ff16c5378bcc5e4" target="_top" xlink:title="Constructing the segment tree with the early passed vector. Every call creates a node to hold the sum...">
<polygon fill="white" stroke="#666666" points="274.5,-250.5 141.5,-250.5 141.5,-220 274.5,-220 274.5,-250.5"/>
<text text-anchor="start" x="149.5" y="-237" font-family="Helvetica,sans-Serif" font-size="10.00">range_queries::perSegTree</text>
<text text-anchor="middle" x="208" y="-225.75" font-family="Helvetica,sans-Serif" font-size="10.00">::construct</text>
</a>
</g>
</g>
<!-- Node2&#45;&gt;Node3 -->
<g id="edge2_Node000002_Node000003" class="edge">
<title>Node2&#45;&gt;Node3</title>
<g id="a_edge2_Node000002_Node000003"><a xlink:title=" ">
<path fill="none" stroke="#63b8ff" d="M95.53,-153.29C103.62,-167.76 120.38,-194.48 141.5,-210.25 143.29,-211.59 145.16,-212.86 147.1,-214.08"/>
<polygon fill="#63b8ff" stroke="#63b8ff" points="145.39,-217.13 155.83,-218.91 148.78,-211.01 145.39,-217.13"/>
</a>
</g>
</g>
<!-- Node4 -->
<g id="Node000004" class="node">
<title>Node4</title>
<g id="a_Node000004"><a xlink:href="../../d8/d28/classrange__queries_1_1per_seg_tree.html#ae8ae4b1835e5e8aec32f68c5059ed4d4" target="_top" xlink:title="Querying the range from index l to index r, checking at every node if it has some value to be propaga...">
<polygon fill="white" stroke="#666666" points="274.5,-97.5 141.5,-97.5 141.5,-67 274.5,-67 274.5,-97.5"/>
<text text-anchor="start" x="149.5" y="-84" font-family="Helvetica,sans-Serif" font-size="10.00">range_queries::perSegTree</text>
<text text-anchor="middle" x="208" y="-72.75" font-family="Helvetica,sans-Serif" font-size="10.00">::query</text>
</a>
</g>
</g>
<!-- Node2&#45;&gt;Node4 -->
<g id="edge4_Node000002_Node000004" class="edge">
<title>Node2&#45;&gt;Node4</title>
<g id="a_edge4_Node000002_Node000004"><a xlink:title=" ">
<path fill="none" stroke="#63b8ff" d="M106,-135.02C121.61,-126.86 146.19,-114.02 167.18,-103.05"/>
<polygon fill="#63b8ff" stroke="#63b8ff" points="168.56,-106.28 175.81,-98.55 165.32,-100.08 168.56,-106.28"/>
</a>
</g>
</g>
<!-- Node7 -->
<g id="Node000007" class="node">
<title>Node7</title>
<g id="a_Node000007"><a xlink:href="../../d8/d28/classrange__queries_1_1per_seg_tree.html#a0fe4e431f3e09c274ecd7d2d58dcb865" target="_top" xlink:title="Getting the number of versions after updates so far which is equal to the size of the pointers vector...">
<polygon fill="white" stroke="#666666" points="274.5,-201.5 141.5,-201.5 141.5,-171 274.5,-171 274.5,-201.5"/>
<text text-anchor="start" x="149.5" y="-188" font-family="Helvetica,sans-Serif" font-size="10.00">range_queries::perSegTree</text>
<text text-anchor="middle" x="208" y="-176.75" font-family="Helvetica,sans-Serif" font-size="10.00">::size</text>
</a>
</g>
</g>
<!-- Node2&#45;&gt;Node7 -->
<g id="edge8_Node000002_Node000007" class="edge">
<title>Node2&#45;&gt;Node7</title>
<g id="a_edge8_Node000002_Node000007"><a xlink:title=" ">
<path fill="none" stroke="#63b8ff" d="M106,-149.05C118.37,-153.61 136.35,-160.23 153.73,-166.63"/>
<polygon fill="#63b8ff" stroke="#63b8ff" points="152.4,-169.87 163,-170.04 154.82,-163.3 152.4,-169.87"/>
</a>
</g>
</g>
<!-- Node8 -->
<g id="Node000008" class="node">
<title>Node8</title>
<g id="a_Node000008"><a target="_blank" xlink:href="http://en.cppreference.com/w/cpp/container/vector/size.html#" xlink:title=" ">
<polygon fill="white" stroke="#666666" points="420.25,-173.88 333.75,-173.88 333.75,-154.62 420.25,-154.62 420.25,-173.88"/>
<text text-anchor="middle" x="377" y="-160.38" font-family="Helvetica,sans-Serif" font-size="10.00">std::vector::size</text>
</a>
</g>
</g>
<!-- Node2&#45;&gt;Node8 -->
<g id="edge10_Node000002_Node000008" class="edge">
<title>Node2&#45;&gt;Node8</title>
<g id="a_edge10_Node000002_Node000008"><a xlink:title=" ">
<path fill="none" stroke="#63b8ff" d="M105.61,-144.38C145.83,-147.33 255.69,-155.41 322.35,-160.31"/>
<polygon fill="#63b8ff" stroke="#63b8ff" points="321.72,-163.77 331.95,-161.01 322.24,-156.79 321.72,-163.77"/>
</a>
</g>
</g>
<!-- Node9 -->
<g id="Node000009" class="node">
<title>Node9</title>
<g id="a_Node000009"><a xlink:href="../../d8/d28/classrange__queries_1_1per_seg_tree.html#a24487eda25123bc4d112e8430821a6c6" target="_top" xlink:title="Doing range update, checking at every node if it has some value to be propagated. All nodes affected ...">
<polygon fill="white" stroke="#666666" points="274.5,-30.5 141.5,-30.5 141.5,0 274.5,0 274.5,-30.5"/>
<text text-anchor="start" x="149.5" y="-17" font-family="Helvetica,sans-Serif" font-size="10.00">range_queries::perSegTree</text>
<text text-anchor="middle" x="208" y="-5.75" font-family="Helvetica,sans-Serif" font-size="10.00">::update</text>
</a>
</g>
</g>
<!-- Node2&#45;&gt;Node9 -->
<g id="edge11_Node000002_Node000009" class="edge">
<title>Node2&#45;&gt;Node9</title>
<g id="a_edge11_Node000002_Node000009"><a xlink:title=" ">
<path fill="none" stroke="#63b8ff" d="M94.42,-133.38C101.93,-116.49 119.04,-81.59 141.5,-58.25 149.13,-50.32 158.48,-43.11 167.7,-36.95"/>
<polygon fill="#63b8ff" stroke="#63b8ff" points="169.34,-40.06 175.9,-31.75 165.59,-34.15 169.34,-40.06"/>
</a>
</g>
</g>
<!-- Node3&#45;&gt;Node3 -->
<g id="edge3_Node000003_Node000003" class="edge">
<title>Node3&#45;&gt;Node3</title>
<g id="a_edge3_Node000003_Node000003"><a xlink:title=" ">
<path fill="none" stroke="#63b8ff" d="M186.96,-250.99C182.66,-260.06 189.68,-268.5 208,-268.5 218.02,-268.5 224.66,-265.97 227.91,-262.2"/>
<polygon fill="#63b8ff" stroke="#63b8ff" points="231.37,-262.79 228.89,-252.49 224.41,-262.09 231.37,-262.79"/>
</a>
</g>
</g>
<!-- Node4&#45;&gt;Node4 -->
<g id="edge7_Node000004_Node000004" class="edge">
<title>Node4&#45;&gt;Node4</title>
<g id="a_edge7_Node000004_Node000004"><a xlink:title=" ">
<path fill="none" stroke="#63b8ff" d="M186.96,-97.99C182.66,-107.06 189.68,-115.5 208,-115.5 218.02,-115.5 224.66,-112.97 227.91,-109.2"/>
<polygon fill="#63b8ff" stroke="#63b8ff" points="231.37,-109.79 228.89,-99.49 224.41,-109.09 231.37,-109.79"/>
</a>
</g>
</g>
<!-- Node5 -->
<g id="Node000005" class="node">
<title>Node5</title>
<g id="a_Node000005"><a xlink:href="../../d8/d28/classrange__queries_1_1per_seg_tree.html#ace7f57935b3bb9446f11c239fd89ae79" target="_top" xlink:title="If there is some value to be propagated to the passed node, value is added to the node and the childr...">
<polygon fill="white" stroke="#666666" points="443.5,-73.5 310.5,-73.5 310.5,-43 443.5,-43 443.5,-73.5"/>
<text text-anchor="start" x="318.5" y="-60" font-family="Helvetica,sans-Serif" font-size="10.00">range_queries::perSegTree</text>
<text text-anchor="middle" x="377" y="-48.75" font-family="Helvetica,sans-Serif" font-size="10.00">::lazy</text>
</a>
</g>
</g>
<!-- Node4&#45;&gt;Node5 -->
<g id="edge5_Node000004_Node000005" class="edge">
<title>Node4&#45;&gt;Node5</title>
<g id="a_edge5_Node000004_Node000005"><a xlink:title=" ">
<path fill="none" stroke="#63b8ff" d="M274.52,-72.83C282.47,-71.69 290.65,-70.52 298.75,-69.35"/>
<polygon fill="#63b8ff" stroke="#63b8ff" points="299.22,-72.82 308.62,-67.93 298.22,-65.89 299.22,-72.82"/>
</a>
</g>
</g>
<!-- Node6 -->
<g id="Node000006" class="node">
<title>Node6</title>
<g id="a_Node000006"><a xlink:href="../../d8/d28/classrange__queries_1_1per_seg_tree.html#a0cec4b77d264521717cf9b0482c45817" target="_top" xlink:title="Creating a new node with the same values of curr node.">
<polygon fill="white" stroke="#666666" points="612.5,-51.5 479.5,-51.5 479.5,-21 612.5,-21 612.5,-51.5"/>
<text text-anchor="start" x="487.5" y="-38" font-family="Helvetica,sans-Serif" font-size="10.00">range_queries::perSegTree</text>
<text text-anchor="middle" x="546" y="-26.75" font-family="Helvetica,sans-Serif" font-size="10.00">::newKid</text>
</a>
</g>
</g>
<!-- Node5&#45;&gt;Node6 -->
<g id="edge6_Node000005_Node000006" class="edge">
<title>Node5&#45;&gt;Node6</title>
<g id="a_edge6_Node000005_Node000006"><a xlink:title=" ">
<path fill="none" stroke="#63b8ff" d="M443.52,-49.62C451.47,-48.57 459.65,-47.49 467.75,-46.43"/>
<polygon fill="#63b8ff" stroke="#63b8ff" points="468.16,-49.9 477.62,-45.13 467.24,-42.96 468.16,-49.9"/>
</a>
</g>
</g>
<!-- Node7&#45;&gt;Node8 -->
<g id="edge9_Node000007_Node000008" class="edge">
<title>Node7&#45;&gt;Node8</title>
<g id="a_edge9_Node000007_Node000008"><a xlink:title=" ">
<path fill="none" stroke="#63b8ff" d="M274.52,-177.62C290.25,-175.55 306.87,-173.36 322.01,-171.36"/>
<polygon fill="#63b8ff" stroke="#63b8ff" points="322.3,-174.85 331.76,-170.08 321.39,-167.91 322.3,-174.85"/>
</a>
</g>
</g>
<!-- Node9&#45;&gt;Node5 -->
<g id="edge12_Node000009_Node000005" class="edge">
<title>Node9&#45;&gt;Node5</title>
<g id="a_edge12_Node000009_Node000005"><a xlink:title=" ">
<path fill="none" stroke="#63b8ff" d="M269.76,-30.9C280.93,-33.77 292.68,-36.8 304.14,-39.75"/>
<polygon fill="#63b8ff" stroke="#63b8ff" points="302.98,-43.06 313.54,-42.17 304.73,-36.28 302.98,-43.06"/>
</a>
</g>
</g>
<!-- Node9&#45;&gt;Node6 -->
<g id="edge13_Node000009_Node000006" class="edge">
<title>Node9&#45;&gt;Node6</title>
<g id="a_edge13_Node000009_Node000006"><a xlink:title=" ">
<path fill="none" stroke="#63b8ff" d="M274.98,-19.37C330.35,-22.83 409.5,-27.78 467.8,-31.43"/>
<polygon fill="#63b8ff" stroke="#63b8ff" points="467.46,-34.91 477.66,-32.04 467.9,-27.92 467.46,-34.91"/>
</a>
</g>
</g>
<!-- Node9&#45;&gt;Node9 -->
<g id="edge14_Node000009_Node000009" class="edge">
<title>Node9&#45;&gt;Node9</title>
<g id="a_edge14_Node000009_Node000009"><a xlink:title=" ">
<path fill="none" stroke="#63b8ff" d="M186.96,-30.99C182.66,-40.06 189.68,-48.5 208,-48.5 218.02,-48.5 224.66,-45.97 227.91,-42.2"/>
<polygon fill="#63b8ff" stroke="#63b8ff" points="231.37,-42.79 228.89,-32.49 224.41,-42.09 231.37,-42.79"/>
</a>
</g>
</g>
</g>
</svg>
