<?xml version="1.0" encoding="UTF-8" standalone="no"?>
<!DOCTYPE svg PUBLIC "-//W3C//DTD SVG 1.1//EN"
 "http://www.w3.org/Graphics/SVG/1.1/DTD/svg11.dtd">
<!-- Generated by graphviz version 8.1.0 (20230707.0739)
 -->
<!-- Title: test Pages: 1 -->
<svg width="206pt" height="82pt"
 viewBox="0.00 0.00 205.75 82.25" xmlns="http://www.w3.org/2000/svg" xmlns:xlink="http://www.w3.org/1999/xlink">

<svg id="main" version="1.1" xmlns="http://www.w3.org/2000/svg" xmlns:xlink="http://www.w3.org/1999/xlink" xml:space="preserve" onload="init(evt)">
<style type="text/css"><![CDATA[
.node, .edge {opacity: 0.7;}
.node.selected, .edge.selected {opacity: 1;}
.edge:hover path { stroke: red; }
.edge:hover polygon { stroke: red; fill: red; }
]]></style>
<script type="application/ecmascript" xlink:href="../../svg.min.js"/>
<svg id="graph" class="graph">
<g id="graph0" class="graph" transform="scale(1 1) rotate(0) translate(4 78.25)">
<title>test</title>
<!-- Node1 -->
<g id="Node000001" class="node">
<title>Node1</title>
<g id="a_Node000001"><a xlink:title=" ">
<polygon fill="#999999" stroke="#666666" points="32.5,-46.25 0,-46.25 0,-27 32.5,-27 32.5,-46.25"/>
<text text-anchor="middle" x="16.25" y="-32.75" font-family="Helvetica,sans-Serif" font-size="10.00">test</text>
</a>
</g>
</g>
<!-- Node2 -->
<g id="Node000002" class="node">
<title>Node2</title>
<g id="a_Node000002"><a xlink:href="../../d7/d89/double__factorial_8cpp.html#a0a3c417360400093891a9ccddaa4be26" target="_top" xlink:title=" ">
<polygon fill="white" stroke="#666666" points="195.12,-74.25 71.12,-74.25 71.12,-55 195.12,-55 195.12,-74.25"/>
<text text-anchor="middle" x="133.12" y="-60.75" font-family="Helvetica,sans-Serif" font-size="10.00">double_factorial_iterative</text>
</a>
</g>
</g>
<!-- Node1&#45;&gt;Node2 -->
<g id="edge1_Node000001_Node000002" class="edge">
<title>Node1&#45;&gt;Node2</title>
<g id="a_edge1_Node000001_Node000002"><a xlink:title=" ">
<path fill="none" stroke="#63b8ff" d="M32.74,-40.4C45.02,-43.39 62.91,-47.75 80.14,-51.95"/>
<polygon fill="#63b8ff" stroke="#63b8ff" points="79.18,-55.57 89.73,-54.53 80.84,-48.77 79.18,-55.57"/>
</a>
</g>
</g>
<!-- Node3 -->
<g id="Node000003" class="node">
<title>Node3</title>
<g id="a_Node000003"><a xlink:href="../../d7/d89/double__factorial_8cpp.html#a68ba20fed2ce427f6469c7689437829d" target="_top" xlink:title=" ">
<polygon fill="white" stroke="#666666" points="197.75,-19.25 68.5,-19.25 68.5,0 197.75,0 197.75,-19.25"/>
<text text-anchor="middle" x="133.12" y="-5.75" font-family="Helvetica,sans-Serif" font-size="10.00">double_factorial_recursive</text>
</a>
</g>
</g>
<!-- Node1&#45;&gt;Node3 -->
<g id="edge2_Node000001_Node000003" class="edge">
<title>Node1&#45;&gt;Node3</title>
<g id="a_edge2_Node000001_Node000003"><a xlink:title=" ">
<path fill="none" stroke="#63b8ff" d="M32.74,-32.98C44.71,-30.17 62.02,-26.1 78.86,-22.15"/>
<polygon fill="#63b8ff" stroke="#63b8ff" points="79.29,-25.4 88.22,-19.71 77.69,-18.59 79.29,-25.4"/>
</a>
</g>
</g>
<!-- Node3&#45;&gt;Node3 -->
<g id="edge3_Node000003_Node000003" class="edge">
<title>Node3&#45;&gt;Node3</title>
<g id="a_edge3_Node000003_Node000003"><a xlink:title=" ">
<path fill="none" stroke="#63b8ff" d="M114.83,-19.54C106.48,-28.15 112.58,-37.25 133.12,-37.25 145,-37.25 152.05,-34.21 154.27,-29.98"/>
<polygon fill="#63b8ff" stroke="#63b8ff" points="157.43,-29.26 151.42,-20.54 150.68,-31.11 157.43,-29.26"/>
</a>
</g>
</g>
</g>
</svg>
</svg>

<style type='text/css'>
<![CDATA[
[data-mouse-over-selected='false'] { opacity: 0.7; }
[data-mouse-over-selected='true']  { opacity: 1.0; }
]]>
</style>
<script type="application/ecmascript"><![CDATA[
document.addEventListener('DOMContentLoaded', (event) => {
  highlightEdges();
  highlightAdjacentNodes();
});
]]></script>
</svg>
