<?xml version="1.0" encoding="UTF-8" standalone="no"?>
<!DOCTYPE svg PUBLIC "-//W3C//DTD SVG 1.1//EN"
 "http://www.w3.org/Graphics/SVG/1.1/DTD/svg11.dtd">
<!-- Generated by graphviz version 5.0.0 (20220707.1540)
 -->
<!-- Title: operations_on_datastructures::circular_linked_list::CircularLinkedList::values Pages: 1 -->
<svg width="305pt" height="50pt"
 viewBox="0.00 0.00 305.00 50.00" xmlns="http://www.w3.org/2000/svg" xmlns:xlink="http://www.w3.org/1999/xlink">
<g id="graph0" class="graph" transform="scale(1 1) rotate(0) translate(4 46)">
<title>operations_on_datastructures::circular_linked_list::CircularLinkedList::values</title>
<polygon fill="white" stroke="transparent" points="-4,4 -4,-46 301,-46 301,4 -4,4"/>
<!-- Node1 -->
<g id="node1" class="node">
<title>Node1</title>
<g id="a_node1"><a xlink:title="Returns a std::vector of the values of the Circular Linked List, beginning from a given Node.">
<polygon fill="#bfbfbf" stroke="black" points="0,-0.5 0,-41.5 145,-41.5 145,-0.5 0,-0.5"/>
<text text-anchor="start" x="8" y="-29.5" font-family="Helvetica,sans-Serif" font-size="10.00">operations_on_datastructures</text>
<text text-anchor="start" x="8" y="-18.5" font-family="Helvetica,sans-Serif" font-size="10.00">::circular_linked_list::Circular</text>
<text text-anchor="middle" x="72.5" y="-7.5" font-family="Helvetica,sans-Serif" font-size="10.00">LinkedList::values</text>
</a>
</g>
</g>
<!-- Node2 -->
<g id="node2" class="node">
<title>Node2</title>
<g id="a_node2"><a target="_blank" xlink:href="http://en.cppreference.com/w/cpp/container/vector/push_back.html#" xlink:title=" ">
<polygon fill="white" stroke="black" points="181,-11.5 181,-30.5 297,-30.5 297,-11.5 181,-11.5"/>
<text text-anchor="middle" x="239" y="-18.5" font-family="Helvetica,sans-Serif" font-size="10.00">std::vector::push_back</text>
</a>
</g>
</g>
<!-- Node1&#45;&gt;Node2 -->
<g id="edge1" class="edge">
<title>Node1&#45;&gt;Node2</title>
<path fill="none" stroke="midnightblue" d="M145.17,-21C153.67,-21 162.32,-21 170.75,-21"/>
<polygon fill="midnightblue" stroke="midnightblue" points="170.9,-24.5 180.9,-21 170.9,-17.5 170.9,-24.5"/>
</g>
</g>
</svg>
