<?xml version="1.0" encoding="UTF-8" standalone="no"?>
<!DOCTYPE svg PUBLIC "-//W3C//DTD SVG 1.1//EN"
 "http://www.w3.org/Graphics/SVG/1.1/DTD/svg11.dtd">
<!-- Generated by graphviz version 7.0.6 (20230106.0513)
 -->
<!-- Title: data_structures/binary_search_tree2.cpp Pages: 1 -->
<svg width="339pt" height="93pt"
 viewBox="0.00 0.00 338.50 93.00" xmlns="http://www.w3.org/2000/svg" xmlns:xlink="http://www.w3.org/1999/xlink">
<g id="graph0" class="graph" transform="scale(1 1) rotate(0) translate(4 89)">
<title>data_structures/binary_search_tree2.cpp</title>
<!-- Node1 -->
<g id="node1" class="node">
<title>Node1</title>
<g id="a_node1"><a xlink:title="A generic binary search tree implementation. Here you can find more information about the algorithm: ...">
<polygon fill="#999999" stroke="#666666" points="228,-85 115,-85 115,-55 228,-55 228,-85"/>
<text text-anchor="start" x="123" y="-73" font-family="Helvetica,sans-Serif" font-size="10.00">data_structures/binary</text>
<text text-anchor="middle" x="171.5" y="-62" font-family="Helvetica,sans-Serif" font-size="10.00">_search_tree2.cpp</text>
</a>
</g>
</g>
<!-- Node2 -->
<g id="node2" class="node">
<title>Node2</title>
<g id="a_node2"><a xlink:title=" ">
<polygon fill="#e0e0e0" stroke="#999999" points="49,-19 0,-19 0,0 49,0 49,-19"/>
<text text-anchor="middle" x="24.5" y="-7" font-family="Helvetica,sans-Serif" font-size="10.00">cassert</text>
</a>
</g>
</g>
<!-- Node1&#45;&gt;Node2 -->
<g id="edge1" class="edge">
<title>Node1&#45;&gt;Node2</title>
<path fill="none" stroke="#63b8ff" d="M135.16,-54.54C111.34,-45.06 80.46,-32.77 57.37,-23.58"/>
<polygon fill="#63b8ff" stroke="#63b8ff" points="58.72,-20.35 48.14,-19.91 56.13,-26.86 58.72,-20.35"/>
</g>
<!-- Node3 -->
<g id="node3" class="node">
<title>Node3</title>
<g id="a_node3"><a xlink:title=" ">
<polygon fill="#e0e0e0" stroke="#999999" points="126,-19 67,-19 67,0 126,0 126,-19"/>
<text text-anchor="middle" x="96.5" y="-7" font-family="Helvetica,sans-Serif" font-size="10.00">functional</text>
</a>
</g>
</g>
<!-- Node1&#45;&gt;Node3 -->
<g id="edge2" class="edge">
<title>Node1&#45;&gt;Node3</title>
<path fill="none" stroke="#63b8ff" d="M152.96,-54.54C141.85,-45.87 127.71,-34.85 116.37,-26"/>
<polygon fill="#63b8ff" stroke="#63b8ff" points="118.85,-23.5 108.82,-20.11 114.55,-29.02 118.85,-23.5"/>
</g>
<!-- Node4 -->
<g id="node4" class="node">
<title>Node4</title>
<g id="a_node4"><a xlink:title=" ">
<polygon fill="#e0e0e0" stroke="#999999" points="198.5,-19 144.5,-19 144.5,0 198.5,0 198.5,-19"/>
<text text-anchor="middle" x="171.5" y="-7" font-family="Helvetica,sans-Serif" font-size="10.00">iostream</text>
</a>
</g>
</g>
<!-- Node1&#45;&gt;Node4 -->
<g id="edge3" class="edge">
<title>Node1&#45;&gt;Node4</title>
<path fill="none" stroke="#63b8ff" d="M171.5,-54.54C171.5,-47.34 171.5,-38.53 171.5,-30.68"/>
<polygon fill="#63b8ff" stroke="#63b8ff" points="175,-30.69 171.5,-20.69 168,-30.69 175,-30.69"/>
</g>
<!-- Node5 -->
<g id="node5" class="node">
<title>Node5</title>
<g id="a_node5"><a xlink:title=" ">
<polygon fill="#e0e0e0" stroke="#999999" points="268.5,-19 216.5,-19 216.5,0 268.5,0 268.5,-19"/>
<text text-anchor="middle" x="242.5" y="-7" font-family="Helvetica,sans-Serif" font-size="10.00">memory</text>
</a>
</g>
</g>
<!-- Node1&#45;&gt;Node5 -->
<g id="edge4" class="edge">
<title>Node1&#45;&gt;Node5</title>
<path fill="none" stroke="#63b8ff" d="M189.05,-54.54C199.47,-45.96 212.68,-35.07 223.37,-26.26"/>
<polygon fill="#63b8ff" stroke="#63b8ff" points="225.31,-29.2 230.8,-20.14 220.86,-23.8 225.31,-29.2"/>
</g>
<!-- Node6 -->
<g id="node6" class="node">
<title>Node6</title>
<g id="a_node6"><a xlink:title=" ">
<polygon fill="#e0e0e0" stroke="#999999" points="330.5,-19 286.5,-19 286.5,0 330.5,0 330.5,-19"/>
<text text-anchor="middle" x="308.5" y="-7" font-family="Helvetica,sans-Serif" font-size="10.00">vector</text>
</a>
</g>
</g>
<!-- Node1&#45;&gt;Node6 -->
<g id="edge5" class="edge">
<title>Node1&#45;&gt;Node6</title>
<path fill="none" stroke="#63b8ff" d="M205.37,-54.54C227.36,-45.15 255.83,-32.99 277.28,-23.83"/>
<polygon fill="#63b8ff" stroke="#63b8ff" points="278.57,-27.09 286.39,-19.94 275.82,-20.65 278.57,-27.09"/>
</g>
</g>
</svg>
