<?xml version="1.0" encoding="UTF-8" standalone="no"?>
<!DOCTYPE svg PUBLIC "-//W3C//DTD SVG 1.1//EN"
 "http://www.w3.org/Graphics/SVG/1.1/DTD/svg11.dtd">
<!-- Generated by graphviz version 8.0.4 (20230421.1958)
 -->
<!-- Title: data_structures::linked_list::link Pages: 1 -->
<svg width="123pt" height="128pt"
 viewBox="0.00 0.00 123.00 127.50" xmlns="http://www.w3.org/2000/svg" xmlns:xlink="http://www.w3.org/1999/xlink">
<g id="graph0" class="graph" transform="scale(1 1) rotate(0) translate(4 123.5)">
<title>data_structures::linked_list::link</title>
<!-- Node1 -->
<g id="node1" class="node">
<title>Node1</title>
<g id="a_node1"><a xlink:title=" ">
<polygon fill="#999999" stroke="#666666" points="115,-119.5 0,-119.5 0,-89 115,-89 115,-119.5"/>
<text text-anchor="start" x="8" y="-106" font-family="Helvetica,sans-Serif" font-size="10.00">data_structures::linked</text>
<text text-anchor="middle" x="57.5" y="-94.75" font-family="Helvetica,sans-Serif" font-size="10.00">_list::link</text>
</a>
</g>
</g>
<!-- Node2 -->
<g id="node2" class="node">
<title>Node2</title>
<g id="a_node2"><a target="_blank" xlink:href="http://en.cppreference.com/w/cpp/memory/shared_ptr.html" xlink:title=" ">
<polygon fill="white" stroke="#666666" points="114.62,-41.75 0.37,-41.75 0.37,0 114.62,0 114.62,-41.75"/>
<text text-anchor="start" x="8.38" y="-28.25" font-family="Helvetica,sans-Serif" font-size="10.00">std::shared_ptr&lt; data</text>
<text text-anchor="start" x="8.38" y="-17" font-family="Helvetica,sans-Serif" font-size="10.00">_structures::linked_list</text>
<text text-anchor="middle" x="57.5" y="-5.75" font-family="Helvetica,sans-Serif" font-size="10.00">::link &gt;</text>
</a>
</g>
</g>
<!-- Node1&#45;&gt;Node2 -->
<g id="edge2" class="edge">
<title>Node1&#45;&gt;Node2</title>
<path fill="none" stroke="#9a32cd" stroke-dasharray="5,2" d="M42.07,-78.96C40.93,-76.35 39.95,-73.67 39.25,-71 36.7,-61.32 39.71,-50.89 43.98,-42.14"/>
<polygon fill="#9a32cd" stroke="#9a32cd" points="39.34,-80.28 47.06,-87.53 45.54,-77.04 39.34,-80.28"/>
<text text-anchor="middle" x="46.62" y="-61.5" font-family="Helvetica,sans-Serif" font-size="10.00"> ptr</text>
</g>
<!-- Node2&#45;&gt;Node1 -->
<g id="edge1" class="edge">
<title>Node2&#45;&gt;Node1</title>
<path fill="none" stroke="#9a32cd" stroke-dasharray="5,2" d="M57.5,-52.91C57.5,-65.21 57.5,-78.76 57.5,-88.7"/>
<polygon fill="#9a32cd" stroke="#9a32cd" points="61,-53.1 57.5,-43.1 54,-53.1 61,-53.1"/>
<text text-anchor="middle" x="72.12" y="-61.5" font-family="Helvetica,sans-Serif" font-size="10.00"> psucc</text>
</g>
</g>
</svg>
