<?xml version="1.0" encoding="UTF-8" standalone="no"?>
<!DOCTYPE svg PUBLIC "-//W3C//DTD SVG 1.1//EN"
 "http://www.w3.org/Graphics/SVG/1.1/DTD/svg11.dtd">
<!-- Generated by graphviz version 8.0.5 (20230430.1635)
 -->
<!-- Title: others/iterative_tree_traversals.cpp Pages: 1 -->
<svg width="321pt" height="94pt"
 viewBox="0.00 0.00 321.38 93.75" xmlns="http://www.w3.org/2000/svg" xmlns:xlink="http://www.w3.org/1999/xlink">
<g id="graph0" class="graph" transform="scale(1 1) rotate(0) translate(4 89.75)">
<title>others/iterative_tree_traversals.cpp</title>
<!-- Node1 -->
<g id="node1" class="node">
<title>Node1</title>
<g id="a_node1"><a xlink:title="Iterative version of Preorder, Postorder, and preorder [Traversal of the Tree] (https://en....">
<polygon fill="#999999" stroke="#666666" points="218,-85.75 115.75,-85.75 115.75,-55.25 218,-55.25 218,-85.75"/>
<text text-anchor="start" x="123.75" y="-72.25" font-family="Helvetica,sans-Serif" font-size="10.00">others/iterative_tree</text>
<text text-anchor="middle" x="166.88" y="-61" font-family="Helvetica,sans-Serif" font-size="10.00">_traversals.cpp</text>
</a>
</g>
</g>
<!-- Node2 -->
<g id="node2" class="node">
<title>Node2</title>
<g id="a_node2"><a xlink:title=" ">
<polygon fill="#e0e0e0" stroke="#999999" points="55.75,-19.25 0,-19.25 0,0 55.75,0 55.75,-19.25"/>
<text text-anchor="middle" x="27.88" y="-5.75" font-family="Helvetica,sans-Serif" font-size="10.00">algorithm</text>
</a>
</g>
</g>
<!-- Node1&#45;&gt;Node2 -->
<g id="edge1" class="edge">
<title>Node1&#45;&gt;Node2</title>
<path fill="none" stroke="#63b8ff" d="M132.16,-54.8C109.77,-45.31 80.89,-33.08 59.2,-23.89"/>
<polygon fill="#63b8ff" stroke="#63b8ff" points="60.77,-20.33 50.19,-19.65 58.03,-26.78 60.77,-20.33"/>
</g>
<!-- Node3 -->
<g id="node3" class="node">
<title>Node3</title>
<g id="a_node3"><a xlink:title=" ">
<polygon fill="#e0e0e0" stroke="#999999" points="122,-19.25 73.75,-19.25 73.75,0 122,0 122,-19.25"/>
<text text-anchor="middle" x="97.88" y="-5.75" font-family="Helvetica,sans-Serif" font-size="10.00">cassert</text>
</a>
</g>
</g>
<!-- Node1&#45;&gt;Node3 -->
<g id="edge2" class="edge">
<title>Node1&#45;&gt;Node3</title>
<path fill="none" stroke="#63b8ff" d="M149.82,-54.95C139.82,-46.41 127.16,-35.62 116.85,-26.81"/>
<polygon fill="#63b8ff" stroke="#63b8ff" points="119.39,-23.53 109.51,-19.7 114.85,-28.85 119.39,-23.53"/>
</g>
<!-- Node4 -->
<g id="node4" class="node">
<title>Node4</title>
<g id="a_node4"><a xlink:title=" ">
<polygon fill="#e0e0e0" stroke="#999999" points="193.62,-19.25 140.12,-19.25 140.12,0 193.62,0 193.62,-19.25"/>
<text text-anchor="middle" x="166.88" y="-5.75" font-family="Helvetica,sans-Serif" font-size="10.00">iostream</text>
</a>
</g>
</g>
<!-- Node1&#45;&gt;Node4 -->
<g id="edge3" class="edge">
<title>Node1&#45;&gt;Node4</title>
<path fill="none" stroke="#63b8ff" d="M166.88,-54.95C166.88,-47.62 166.88,-38.62 166.88,-30.66"/>
<polygon fill="#63b8ff" stroke="#63b8ff" points="170.38,-30.7 166.88,-20.7 163.38,-30.7 170.38,-30.7"/>
</g>
<!-- Node5 -->
<g id="node5" class="node">
<title>Node5</title>
<g id="a_node5"><a xlink:title=" ">
<polygon fill="#e0e0e0" stroke="#999999" points="251.88,-19.25 211.88,-19.25 211.88,0 251.88,0 251.88,-19.25"/>
<text text-anchor="middle" x="231.88" y="-5.75" font-family="Helvetica,sans-Serif" font-size="10.00">stack</text>
</a>
</g>
</g>
<!-- Node1&#45;&gt;Node5 -->
<g id="edge4" class="edge">
<title>Node1&#45;&gt;Node5</title>
<path fill="none" stroke="#63b8ff" d="M182.94,-54.95C192.27,-46.5 204.04,-35.83 213.71,-27.08"/>
<polygon fill="#63b8ff" stroke="#63b8ff" points="215.79,-30.01 220.85,-20.7 211.09,-24.82 215.79,-30.01"/>
</g>
<!-- Node6 -->
<g id="node6" class="node">
<title>Node6</title>
<g id="a_node6"><a xlink:title=" ">
<polygon fill="#e0e0e0" stroke="#999999" points="313.38,-19.25 270.38,-19.25 270.38,0 313.38,0 313.38,-19.25"/>
<text text-anchor="middle" x="291.88" y="-5.75" font-family="Helvetica,sans-Serif" font-size="10.00">vector</text>
</a>
</g>
</g>
<!-- Node1&#45;&gt;Node6 -->
<g id="edge5" class="edge">
<title>Node1&#45;&gt;Node6</title>
<path fill="none" stroke="#63b8ff" d="M198.1,-54.8C217.96,-45.44 243.49,-33.41 262.9,-24.27"/>
<polygon fill="#63b8ff" stroke="#63b8ff" points="264.15,-27.08 271.71,-19.65 261.17,-20.75 264.15,-27.08"/>
</g>
</g>
</svg>
