<?xml version="1.0" encoding="UTF-8" standalone="no"?>
<!DOCTYPE svg PUBLIC "-//W3C//DTD SVG 1.1//EN"
 "http://www.w3.org/Graphics/SVG/1.1/DTD/svg11.dtd">
<!-- Generated by graphviz version 7.0.4 (20221203.1631)
 -->
<!-- Title: math::parallelogram_area Pages: 1 -->
<svg width="304pt" height="45pt"
 viewBox="0.00 0.00 304.00 45.00" xmlns="http://www.w3.org/2000/svg" xmlns:xlink="http://www.w3.org/1999/xlink">
<g id="graph0" class="graph" transform="scale(1 1) rotate(0) translate(4 41)">
<title>math::parallelogram_area</title>
<!-- Node1 -->
<g id="node1" class="node">
<title>Node1</title>
<g id="a_node1"><a xlink:title="area of a parallelogram (b * h)">
<polygon fill="#999999" stroke="#666666" points="126,-19 0,-19 0,0 126,0 126,-19"/>
<text text-anchor="middle" x="63" y="-7" font-family="Helvetica,sans-Serif" font-size="10.00">math::parallelogram_area</text>
</a>
</g>
</g>
<!-- Node2 -->
<g id="node2" class="node">
<title>Node2</title>
<g id="a_node2"><a xlink:href="../../d8/dee/avltree_8cpp.html#ae4a66d8b0c2b0d626aea45977e358c83" target="_top" xlink:title=" ">
<polygon fill="white" stroke="#666666" points="205,-19 162,-19 162,0 205,0 205,-19"/>
<text text-anchor="middle" x="183.5" y="-7" font-family="Helvetica,sans-Serif" font-size="10.00">height</text>
</a>
</g>
</g>
<!-- Node1&#45;&gt;Node2 -->
<g id="edge1" class="edge">
<title>Node1&#45;&gt;Node2</title>
<path fill="none" stroke="#63b8ff" d="M126.37,-9.5C134.62,-9.5 142.78,-9.5 150.22,-9.5"/>
<polygon fill="#63b8ff" stroke="#63b8ff" points="150.07,-13 160.07,-9.5 150.07,-6 150.07,-13"/>
</g>
<!-- Node2&#45;&gt;Node2 -->
<g id="edge2" class="edge">
<title>Node2&#45;&gt;Node2</title>
<path fill="none" stroke="#63b8ff" d="M170.19,-19.37C164.12,-27.94 168.56,-37 183.5,-37 191.44,-37 196.41,-34.44 198.42,-30.76"/>
<polygon fill="#63b8ff" stroke="#63b8ff" points="201.88,-30.28 197.02,-20.87 194.95,-31.26 201.88,-30.28"/>
</g>
<!-- Node3 -->
<g id="node3" class="node">
<title>Node3</title>
<g id="a_node3"><a target="_blank" xlink:href="http://en.cppreference.com/w/cpp/algorithm/max.html#" xlink:title=" ">
<polygon fill="white" stroke="#666666" points="296,-19 241,-19 241,0 296,0 296,-19"/>
<text text-anchor="middle" x="268.5" y="-7" font-family="Helvetica,sans-Serif" font-size="10.00">std::max</text>
</a>
</g>
</g>
<!-- Node2&#45;&gt;Node3 -->
<g id="edge3" class="edge">
<title>Node2&#45;&gt;Node3</title>
<path fill="none" stroke="#63b8ff" d="M205.44,-9.5C212.69,-9.5 221.06,-9.5 229.25,-9.5"/>
<polygon fill="#63b8ff" stroke="#63b8ff" points="229.07,-13 239.07,-9.5 229.07,-6 229.07,-13"/>
</g>
</g>
</svg>
