<?xml version="1.0" encoding="UTF-8" standalone="no"?>
<!DOCTYPE svg PUBLIC "-//W3C//DTD SVG 1.1//EN"
 "http://www.w3.org/Graphics/SVG/1.1/DTD/svg11.dtd">
<!-- Generated by graphviz version 2.49.3 (20211023.0002)
 -->
<!-- Title: math::cylinder_volume Pages: 1 -->
<svg width="215pt" height="66pt"
 viewBox="0.00 0.00 215.00 66.00" xmlns="http://www.w3.org/2000/svg" xmlns:xlink="http://www.w3.org/1999/xlink">
<g id="graph0" class="graph" transform="scale(1 1) rotate(0) translate(4 62)">
<title>math::cylinder_volume</title>
<polygon fill="white" stroke="transparent" points="-4,4 -4,-62 211,-62 211,4 -4,4"/>
<!-- Node1 -->
<g id="node1" class="node">
<title>Node1</title>
<g id="a_node1"><a xlink:title="The volume of a cylinder">
<polygon fill="#bfbfbf" stroke="black" points="0,-19.5 0,-38.5 117,-38.5 117,-19.5 0,-19.5"/>
<text text-anchor="middle" x="58.5" y="-26.5" font-family="Helvetica,sans-Serif" font-size="10.00">math::cylinder_volume</text>
</a>
</g>
</g>
<!-- Node2 -->
<g id="node2" class="node">
<title>Node2</title>
<g id="a_node2"><a xlink:href="../../d8/dee/avltree_8cpp.html#ae4a66d8b0c2b0d626aea45977e358c83" target="_top" xlink:title=" ">
<polygon fill="white" stroke="black" points="158,-38.5 158,-57.5 202,-57.5 202,-38.5 158,-38.5"/>
<text text-anchor="middle" x="180" y="-45.5" font-family="Helvetica,sans-Serif" font-size="10.00">height</text>
</a>
</g>
</g>
<!-- Node1&#45;&gt;Node2 -->
<g id="edge1" class="edge">
<title>Node1&#45;&gt;Node2</title>
<path fill="none" stroke="midnightblue" d="M117.15,-38.17C127.73,-39.85 138.4,-41.54 147.83,-43.04"/>
<polygon fill="midnightblue" stroke="midnightblue" points="147.45,-46.53 157.87,-44.64 148.55,-39.61 147.45,-46.53"/>
</g>
<!-- Node3 -->
<g id="node3" class="node">
<title>Node3</title>
<g id="a_node3"><a target="_blank" xlink:href="http://en.cppreference.com/w/cpp/numeric/math/pow.html#" xlink:title=" ">
<polygon fill="white" stroke="black" points="153,-0.5 153,-19.5 207,-19.5 207,-0.5 153,-0.5"/>
<text text-anchor="middle" x="180" y="-7.5" font-family="Helvetica,sans-Serif" font-size="10.00">std::pow</text>
</a>
</g>
</g>
<!-- Node1&#45;&gt;Node3 -->
<g id="edge2" class="edge">
<title>Node1&#45;&gt;Node3</title>
<path fill="none" stroke="midnightblue" d="M117.15,-19.83C125.96,-18.43 134.84,-17.02 143,-15.72"/>
<polygon fill="midnightblue" stroke="midnightblue" points="143.59,-19.17 152.91,-14.15 142.49,-12.26 143.59,-19.17"/>
</g>
</g>
</svg>
