<?xml version="1.0" encoding="UTF-8" standalone="no"?>
<!DOCTYPE svg PUBLIC "-//W3C//DTD SVG 1.1//EN"
 "http://www.w3.org/Graphics/SVG/1.1/DTD/svg11.dtd">
<!-- Generated by graphviz version 5.0.1 (20220820.1526)
 -->
<!-- Title: math::cylinder_surface_area Pages: 1 -->
<svg width="318pt" height="45pt"
 viewBox="0.00 0.00 318.00 45.00" xmlns="http://www.w3.org/2000/svg" xmlns:xlink="http://www.w3.org/1999/xlink">
<g id="graph0" class="graph" transform="scale(1 1) rotate(0) translate(4 41)">
<title>math::cylinder_surface_area</title>
<!-- Node1 -->
<g id="node1" class="node">
<title>Node1</title>
<g id="a_node1"><a xlink:title="surface area of a cylinder (2 * pi * r * h + 2 * pi * r^2)">
<polygon fill="#999999" stroke="#666666" points="140,-19 0,-19 0,0 140,0 140,-19"/>
<text text-anchor="middle" x="70" y="-7" font-family="Helvetica,sans-Serif" font-size="10.00">math::cylinder_surface_area</text>
</a>
</g>
</g>
<!-- Node2 -->
<g id="node2" class="node">
<title>Node2</title>
<g id="a_node2"><a xlink:href="../../d8/dee/avltree_8cpp.html#ae4a66d8b0c2b0d626aea45977e358c83" target="_top" xlink:title=" ">
<polygon fill="white" stroke="#666666" points="219,-19 176,-19 176,0 219,0 219,-19"/>
<text text-anchor="middle" x="197.5" y="-7" font-family="Helvetica,sans-Serif" font-size="10.00">height</text>
</a>
</g>
</g>
<!-- Node1&#45;&gt;Node2 -->
<g id="edge1" class="edge">
<title>Node1&#45;&gt;Node2</title>
<path fill="none" stroke="#63b8ff" d="M140.36,-9.5C149.24,-9.5 157.95,-9.5 165.76,-9.5"/>
<polygon fill="#63b8ff" stroke="#63b8ff" points="165.77,-13 175.77,-9.5 165.77,-6 165.77,-13"/>
</g>
<!-- Node2&#45;&gt;Node2 -->
<g id="edge2" class="edge">
<title>Node2&#45;&gt;Node2</title>
<path fill="none" stroke="#63b8ff" d="M184.55,-19.08C178.25,-27.73 182.57,-37 197.5,-37 206.6,-37 211.75,-33.56 212.97,-28.91"/>
<polygon fill="#63b8ff" stroke="#63b8ff" points="216.32,-27.9 210.45,-19.08 209.54,-29.64 216.32,-27.9"/>
</g>
<!-- Node3 -->
<g id="node3" class="node">
<title>Node3</title>
<g id="a_node3"><a target="_blank" xlink:href="http://en.cppreference.com/w/cpp/algorithm/max.html#" xlink:title=" ">
<polygon fill="white" stroke="#666666" points="310,-19 255,-19 255,0 310,0 310,-19"/>
<text text-anchor="middle" x="282.5" y="-7" font-family="Helvetica,sans-Serif" font-size="10.00">std::max</text>
</a>
</g>
</g>
<!-- Node2&#45;&gt;Node3 -->
<g id="edge3" class="edge">
<title>Node2&#45;&gt;Node3</title>
<path fill="none" stroke="#63b8ff" d="M219.02,-9.5C226.81,-9.5 235.95,-9.5 244.8,-9.5"/>
<polygon fill="#63b8ff" stroke="#63b8ff" points="244.95,-13 254.95,-9.5 244.95,-6 244.95,-13"/>
</g>
</g>
</svg>
