<?xml version="1.0" encoding="UTF-8" standalone="no"?>
<!DOCTYPE svg PUBLIC "-//W3C//DTD SVG 1.1//EN"
 "http://www.w3.org/Graphics/SVG/1.1/DTD/svg11.dtd">
<!-- Generated by graphviz version 2.49.3 (20211023.0002)
 -->
<!-- Title: data_structures::trie_using_hashmap::Trie::predict_words Pages: 1 -->
<svg width="427pt" height="76pt"
 viewBox="0.00 0.00 427.00 76.00" xmlns="http://www.w3.org/2000/svg" xmlns:xlink="http://www.w3.org/1999/xlink">
<g id="graph0" class="graph" transform="scale(1 1) rotate(0) translate(4 72)">
<title>data_structures::trie_using_hashmap::Trie::predict_words</title>
<polygon fill="white" stroke="transparent" points="-4,4 -4,-72 423,-72 423,4 -4,4"/>
<!-- Node1 -->
<g id="node1" class="node">
<title>Node1</title>
<g id="a_node1"><a xlink:title="predict/recommend a word that starts with a given prefix">
<polygon fill="#bfbfbf" stroke="black" points="0,-8.5 0,-49.5 115,-49.5 115,-8.5 0,-8.5"/>
<text text-anchor="start" x="8" y="-37.5" font-family="Helvetica,sans-Serif" font-size="10.00">data_structures::trie</text>
<text text-anchor="start" x="8" y="-26.5" font-family="Helvetica,sans-Serif" font-size="10.00">_using_hashmap::Trie</text>
<text text-anchor="middle" x="57.5" y="-15.5" font-family="Helvetica,sans-Serif" font-size="10.00">::predict_words</text>
</a>
</g>
</g>
<!-- Node2 -->
<g id="node2" class="node">
<title>Node2</title>
<g id="a_node2"><a xlink:href="../../d3/d26/classdata__structures_1_1trie__using__hashmap_1_1_trie.html#a7bbe538c8015e8ce158e7ed43f605ebd" target="_top" xlink:title="helper function to predict/recommend words that starts with a given prefix from the end of prefix&#39;s n...">
<polygon fill="white" stroke="black" points="151,-8.5 151,-49.5 266,-49.5 266,-8.5 151,-8.5"/>
<text text-anchor="start" x="159" y="-37.5" font-family="Helvetica,sans-Serif" font-size="10.00">data_structures::trie</text>
<text text-anchor="start" x="159" y="-26.5" font-family="Helvetica,sans-Serif" font-size="10.00">_using_hashmap::Trie</text>
<text text-anchor="middle" x="208.5" y="-15.5" font-family="Helvetica,sans-Serif" font-size="10.00">::get_all_words</text>
</a>
</g>
</g>
<!-- Node1&#45;&gt;Node2 -->
<g id="edge1" class="edge">
<title>Node1&#45;&gt;Node2</title>
<path fill="none" stroke="midnightblue" d="M115.26,-29C123.56,-29 132.17,-29 140.65,-29"/>
<polygon fill="midnightblue" stroke="midnightblue" points="140.9,-32.5 150.9,-29 140.9,-25.5 140.9,-32.5"/>
</g>
<!-- Node2&#45;&gt;Node2 -->
<g id="edge2" class="edge">
<title>Node2&#45;&gt;Node2</title>
<path fill="none" stroke="midnightblue" d="M180.93,-49.86C177.92,-59.54 187.11,-68 208.5,-68 221.87,-68 230.47,-64.7 234.31,-59.86"/>
<polygon fill="midnightblue" stroke="midnightblue" points="237.78,-60.32 236.07,-49.86 230.89,-59.1 237.78,-60.32"/>
</g>
<!-- Node3 -->
<g id="node3" class="node">
<title>Node3</title>
<g id="a_node3"><a target="_blank" xlink:href="http://en.cppreference.com/w/cpp/string/basic_string/pop_back.html#" xlink:title=" ">
<polygon fill="white" stroke="black" points="306,-38.5 306,-57.5 415,-57.5 415,-38.5 306,-38.5"/>
<text text-anchor="middle" x="360.5" y="-45.5" font-family="Helvetica,sans-Serif" font-size="10.00">std::string::pop_back</text>
</a>
</g>
</g>
<!-- Node2&#45;&gt;Node3 -->
<g id="edge3" class="edge">
<title>Node2&#45;&gt;Node3</title>
<path fill="none" stroke="midnightblue" d="M266.21,-36.18C275.81,-37.4 285.85,-38.67 295.62,-39.91"/>
<polygon fill="midnightblue" stroke="midnightblue" points="295.32,-43.4 305.68,-41.18 296.2,-36.45 295.32,-43.4"/>
</g>
<!-- Node4 -->
<g id="node4" class="node">
<title>Node4</title>
<g id="a_node4"><a target="_blank" xlink:href="http://en.cppreference.com/w/cpp/container/vector/push_back.html#" xlink:title=" ">
<polygon fill="white" stroke="black" points="302,-0.5 302,-19.5 419,-19.5 419,-0.5 302,-0.5"/>
<text text-anchor="middle" x="360.5" y="-7.5" font-family="Helvetica,sans-Serif" font-size="10.00">std::vector::push_back</text>
</a>
</g>
</g>
<!-- Node2&#45;&gt;Node4 -->
<g id="edge4" class="edge">
<title>Node2&#45;&gt;Node4</title>
<path fill="none" stroke="midnightblue" d="M266.21,-21.82C274.56,-20.76 283.23,-19.66 291.77,-18.58"/>
<polygon fill="midnightblue" stroke="midnightblue" points="292.23,-22.05 301.71,-17.32 291.35,-15.1 292.23,-22.05"/>
</g>
</g>
</svg>
