<?xml version="1.0" encoding="UTF-8" standalone="no"?>
<!DOCTYPE svg PUBLIC "-//W3C//DTD SVG 1.1//EN"
 "http://www.w3.org/Graphics/SVG/1.1/DTD/svg11.dtd">
<!-- Generated by graphviz version 2.44.0 (20200408.0750)
 -->
<!-- Title: test1 Pages: 1 -->
<svg width="525pt" height="244pt"
 viewBox="0.00 0.00 525.00 244.00" xmlns="http://www.w3.org/2000/svg" xmlns:xlink="http://www.w3.org/1999/xlink">
<g id="graph0" class="graph" transform="scale(1 1) rotate(0) translate(4 240)">
<title>test1</title>
<polygon fill="white" stroke="transparent" points="-4,4 -4,-240 521,-240 521,4 -4,4"/>
<!-- Node1 -->
<g id="node1" class="node">
<title>Node1</title>
<g id="a_node1"><a xlink:title=" ">
<polygon fill="#bfbfbf" stroke="black" points="0,-152.5 0,-171.5 38,-171.5 38,-152.5 0,-152.5"/>
<text text-anchor="middle" x="19" y="-159.5" font-family="Helvetica,sans-Serif" font-size="10.00">test1</text>
</a>
</g>
</g>
<!-- Node2 -->
<g id="node2" class="node">
<title>Node2</title>
<g id="a_node2"><a target="_parent" xlink:href="http://en.cppreference.com/w/cpp/io/manip/endl.html#" xlink:title=" ">
<polygon fill="white" stroke="black" points="446.5,-216.5 446.5,-235.5 500.5,-235.5 500.5,-216.5 446.5,-216.5"/>
<text text-anchor="middle" x="473.5" y="-223.5" font-family="Helvetica,sans-Serif" font-size="10.00">std::endl</text>
</a>
</g>
</g>
<!-- Node1&#45;&gt;Node2 -->
<g id="edge1" class="edge">
<title>Node1&#45;&gt;Node2</title>
<path fill="none" stroke="midnightblue" d="M38.33,-169.02C48.7,-172.85 61.97,-177.51 74,-181 169.05,-208.58 192.66,-219.82 291,-231 336.48,-236.17 348.25,-232.46 394,-231 407.79,-230.56 422.91,-229.69 436.18,-228.8"/>
<polygon fill="midnightblue" stroke="midnightblue" points="436.62,-232.27 446.35,-228.08 436.13,-225.29 436.62,-232.27"/>
</g>
<!-- Node3 -->
<g id="node3" class="node">
<title>Node3</title>
<g id="a_node3"><a xlink:href="../../d8/df2/classadaline.html#a333825d2cc10eb37b1a59c05bad3f48d" target="_top" xlink:title=" ">
<polygon fill="white" stroke="black" points="74,-152.5 74,-171.5 136,-171.5 136,-152.5 74,-152.5"/>
<text text-anchor="middle" x="105" y="-159.5" font-family="Helvetica,sans-Serif" font-size="10.00">adaline::fit</text>
</a>
</g>
</g>
<!-- Node1&#45;&gt;Node3 -->
<g id="edge2" class="edge">
<title>Node1&#45;&gt;Node3</title>
<path fill="none" stroke="midnightblue" d="M38.23,-162C45.8,-162 54.91,-162 63.9,-162"/>
<polygon fill="midnightblue" stroke="midnightblue" points="63.92,-165.5 73.92,-162 63.92,-158.5 63.92,-165.5"/>
</g>
<!-- Node6 -->
<g id="node6" class="node">
<title>Node6</title>
<g id="a_node6"><a xlink:href="../../d8/df2/classadaline.html#a393c644e145bce30adb734e63c8f84c2" target="_top" xlink:title=" ">
<polygon fill="white" stroke="black" points="172,-114.5 172,-133.5 255,-133.5 255,-114.5 172,-114.5"/>
<text text-anchor="middle" x="213.5" y="-121.5" font-family="Helvetica,sans-Serif" font-size="10.00">adaline::predict</text>
</a>
</g>
</g>
<!-- Node1&#45;&gt;Node6 -->
<g id="edge13" class="edge">
<title>Node1&#45;&gt;Node6</title>
<path fill="none" stroke="midnightblue" d="M38.22,-154.55C48.56,-150.59 61.83,-145.94 74,-143 102.64,-136.07 135.25,-131.44 161.64,-128.49"/>
<polygon fill="midnightblue" stroke="midnightblue" points="162.23,-131.95 171.8,-127.4 161.48,-124.99 162.23,-131.95"/>
</g>
<!-- Node4 -->
<g id="node4" class="node">
<title>Node4</title>
<g id="a_node4"><a xlink:href="../../d8/df2/classadaline.html#acffd34f96651856d625ee5ec7f73eba1" target="_top" xlink:title=" ">
<polygon fill="white" stroke="black" points="291,-191 291,-221 394,-221 394,-191 291,-191"/>
<text text-anchor="start" x="299" y="-209" font-family="Helvetica,sans-Serif" font-size="10.00">adaline::check_size</text>
<text text-anchor="middle" x="342.5" y="-198" font-family="Helvetica,sans-Serif" font-size="10.00">_match</text>
</a>
</g>
</g>
<!-- Node3&#45;&gt;Node4 -->
<g id="edge3" class="edge">
<title>Node3&#45;&gt;Node4</title>
<path fill="none" stroke="midnightblue" d="M136.18,-168.63C147.41,-171.03 160.27,-173.72 172,-176 208,-183 248.43,-190.18 280.78,-195.77"/>
<polygon fill="midnightblue" stroke="midnightblue" points="280.53,-199.27 290.98,-197.52 281.72,-192.38 280.53,-199.27"/>
</g>
<!-- Node5 -->
<g id="node5" class="node">
<title>Node5</title>
<g id="a_node5"><a target="_parent" xlink:href="http://en.cppreference.com/w/cpp/container/vector/size.html#" xlink:title=" ">
<polygon fill="white" stroke="black" points="430,-175.5 430,-194.5 517,-194.5 517,-175.5 430,-175.5"/>
<text text-anchor="middle" x="473.5" y="-182.5" font-family="Helvetica,sans-Serif" font-size="10.00">std::vector::size</text>
</a>
</g>
</g>
<!-- Node3&#45;&gt;Node5 -->
<g id="edge12" class="edge">
<title>Node3&#45;&gt;Node5</title>
<path fill="none" stroke="midnightblue" d="M136.3,-163.9C198.67,-167.82 342.06,-176.81 419.9,-181.7"/>
<polygon fill="midnightblue" stroke="midnightblue" points="419.78,-185.2 429.98,-182.33 420.22,-178.21 419.78,-185.2"/>
</g>
<!-- Node3&#45;&gt;Node6 -->
<g id="edge6" class="edge">
<title>Node3&#45;&gt;Node6</title>
<path fill="none" stroke="midnightblue" d="M132.87,-152.41C145.99,-147.73 161.97,-142.03 176.15,-136.97"/>
<polygon fill="midnightblue" stroke="midnightblue" points="177.39,-140.24 185.63,-133.59 175.04,-133.65 177.39,-140.24"/>
</g>
<!-- Node4&#45;&gt;Node2 -->
<g id="edge4" class="edge">
<title>Node4&#45;&gt;Node2</title>
<path fill="none" stroke="midnightblue" d="M394.11,-213.85C408.15,-216.02 423.11,-218.34 436.15,-220.36"/>
<polygon fill="midnightblue" stroke="midnightblue" points="435.73,-223.84 446.15,-221.91 436.8,-216.92 435.73,-223.84"/>
</g>
<!-- Node4&#45;&gt;Node5 -->
<g id="edge5" class="edge">
<title>Node4&#45;&gt;Node5</title>
<path fill="none" stroke="midnightblue" d="M394.11,-197.76C402.64,-196.37 411.5,-194.93 420.07,-193.54"/>
<polygon fill="midnightblue" stroke="midnightblue" points="420.65,-196.99 429.95,-191.93 419.52,-190.08 420.65,-196.99"/>
</g>
<!-- Node6&#45;&gt;Node4 -->
<g id="edge9" class="edge">
<title>Node6&#45;&gt;Node4</title>
<path fill="none" stroke="midnightblue" d="M229.57,-133.73C249.08,-146.33 283.62,-168.63 309.18,-185.13"/>
<polygon fill="midnightblue" stroke="midnightblue" points="307.51,-188.22 317.81,-190.71 311.31,-182.34 307.51,-188.22"/>
</g>
<!-- Node7 -->
<g id="node7" class="node">
<title>Node7</title>
<g id="a_node7"><a target="_parent" xlink:href="http://en.cppreference.com/w/cpp/container/vector/back.html#" xlink:title=" ">
<polygon fill="white" stroke="black" points="297.5,-76.5 297.5,-95.5 387.5,-95.5 387.5,-76.5 297.5,-76.5"/>
<text text-anchor="middle" x="342.5" y="-83.5" font-family="Helvetica,sans-Serif" font-size="10.00">std::vector::back</text>
</a>
</g>
</g>
<!-- Node6&#45;&gt;Node7 -->
<g id="edge7" class="edge">
<title>Node6&#45;&gt;Node7</title>
<path fill="none" stroke="midnightblue" d="M246.55,-114.41C262.64,-109.6 282.34,-103.7 299.62,-98.53"/>
<polygon fill="midnightblue" stroke="midnightblue" points="300.89,-101.81 309.46,-95.59 298.88,-95.1 300.89,-101.81"/>
</g>
<!-- Node8 -->
<g id="node8" class="node">
<title>Node8</title>
<g id="a_node8"><a target="_parent" xlink:href="http://en.cppreference.com/w/cpp/container/vector/begin.html#" xlink:title=" ">
<polygon fill="white" stroke="black" points="296.5,-38.5 296.5,-57.5 388.5,-57.5 388.5,-38.5 296.5,-38.5"/>
<text text-anchor="middle" x="342.5" y="-45.5" font-family="Helvetica,sans-Serif" font-size="10.00">std::vector::begin</text>
</a>
</g>
</g>
<!-- Node6&#45;&gt;Node8 -->
<g id="edge8" class="edge">
<title>Node6&#45;&gt;Node8</title>
<path fill="none" stroke="midnightblue" d="M225.23,-114.46C239.46,-102.19 265.71,-80.82 291,-67 294.55,-65.06 298.34,-63.23 302.19,-61.54"/>
<polygon fill="midnightblue" stroke="midnightblue" points="303.85,-64.64 311.77,-57.6 301.19,-58.16 303.85,-64.64"/>
</g>
<!-- Node9 -->
<g id="node9" class="node">
<title>Node9</title>
<g id="a_node9"><a target="_parent" xlink:href="http://en.cppreference.com/w/cpp/container/vector/end.html#" xlink:title=" ">
<polygon fill="white" stroke="black" points="300,-0.5 300,-19.5 385,-19.5 385,-0.5 300,-0.5"/>
<text text-anchor="middle" x="342.5" y="-7.5" font-family="Helvetica,sans-Serif" font-size="10.00">std::vector::end</text>
</a>
</g>
</g>
<!-- Node6&#45;&gt;Node9 -->
<g id="edge10" class="edge">
<title>Node6&#45;&gt;Node9</title>
<path fill="none" stroke="midnightblue" d="M219.93,-114.22C230.95,-95.22 257.72,-53.08 291,-29 293.54,-27.16 296.27,-25.48 299.11,-23.95"/>
<polygon fill="midnightblue" stroke="midnightblue" points="300.88,-26.99 308.41,-19.54 297.88,-20.66 300.88,-26.99"/>
</g>
<!-- Node10 -->
<g id="node10" class="node">
<title>Node10</title>
<g id="a_node10"><a target="_parent" xlink:href="http://en.cppreference.com/w/cpp/algorithm/inner_product.html#" xlink:title=" ">
<polygon fill="white" stroke="black" points="295,-114.5 295,-133.5 390,-133.5 390,-114.5 295,-114.5"/>
<text text-anchor="middle" x="342.5" y="-121.5" font-family="Helvetica,sans-Serif" font-size="10.00">std::inner_product</text>
</a>
</g>
</g>
<!-- Node6&#45;&gt;Node10 -->
<g id="edge11" class="edge">
<title>Node6&#45;&gt;Node10</title>
<path fill="none" stroke="midnightblue" d="M255.03,-124C264.41,-124 274.55,-124 284.49,-124"/>
<polygon fill="midnightblue" stroke="midnightblue" points="284.72,-127.5 294.72,-124 284.72,-120.5 284.72,-127.5"/>
</g>
</g>
</svg>
