<?xml version="1.0" encoding="UTF-8" standalone="no"?>
<!DOCTYPE svg PUBLIC "-//W3C//DTD SVG 1.1//EN"
 "http://www.w3.org/Graphics/SVG/1.1/DTD/svg11.dtd">
<!-- Generated by graphviz version 6.0.1 (20220911.1526)
 -->
<!-- Title: test2 Pages: 1 -->
<svg width="678pt" height="288pt"
 viewBox="0.00 0.00 678.00 287.50" xmlns="http://www.w3.org/2000/svg" xmlns:xlink="http://www.w3.org/1999/xlink">
<g id="graph0" class="graph" transform="scale(1 1) rotate(0) translate(4 283.5)">
<title>test2</title>
<!-- Node1 -->
<g id="node1" class="node">
<title>Node1</title>
<g id="a_node1"><a xlink:title=" ">
<polygon fill="#999999" stroke="#666666" points="38,-197.5 0,-197.5 0,-178.5 38,-178.5 38,-197.5"/>
<text text-anchor="middle" x="19" y="-185.5" font-family="Helvetica,sans-Serif" font-size="10.00">test2</text>
</a>
</g>
</g>
<!-- Node2 -->
<g id="node2" class="node">
<title>Node2</title>
<g id="a_node2"><a target="_blank" xlink:href="http://en.cppreference.com/w/cpp/io/manip/endl.html#" xlink:title=" ">
<polygon fill="white" stroke="#666666" points="653.5,-279.5 599.5,-279.5 599.5,-260.5 653.5,-260.5 653.5,-279.5"/>
<text text-anchor="middle" x="626.5" y="-267.5" font-family="Helvetica,sans-Serif" font-size="10.00">std::endl</text>
</a>
</g>
</g>
<!-- Node1&#45;&gt;Node2 -->
<g id="edge1" class="edge">
<title>Node1&#45;&gt;Node2</title>
<path fill="none" stroke="#63b8ff" d="M30.72,-197.58C41.04,-206.24 57.48,-218.57 74,-225 217.92,-281 263.95,-263.08 418,-274 477.84,-278.24 547.62,-275.27 589.09,-272.68"/>
<polygon fill="#63b8ff" stroke="#63b8ff" points="589.51,-276.16 599.26,-272.02 589.05,-269.18 589.51,-276.16"/>
</g>
<!-- Node3 -->
<g id="node3" class="node">
<title>Node3</title>
<g id="a_node3"><a xlink:href="../../d6/d30/classmachine__learning_1_1adaline.html#a74e3c6c037b67895014414c5d75465e5" target="_top" xlink:title=" ">
<polygon fill="white" stroke="#666666" points="217,-216.5 74,-216.5 74,-197.5 217,-197.5 217,-216.5"/>
<text text-anchor="middle" x="145.5" y="-204.5" font-family="Helvetica,sans-Serif" font-size="10.00">machine_learning::adaline::fit</text>
</a>
</g>
</g>
<!-- Node1&#45;&gt;Node3 -->
<g id="edge2" class="edge">
<title>Node1&#45;&gt;Node3</title>
<path fill="none" stroke="#63b8ff" d="M38.1,-190.76C47.42,-192.18 59.44,-194.02 72.05,-195.94"/>
<polygon fill="#63b8ff" stroke="#63b8ff" points="71.82,-199.45 82.24,-197.5 72.88,-192.53 71.82,-199.45"/>
</g>
<!-- Node6 -->
<g id="node6" class="node">
<title>Node6</title>
<g id="a_node6"><a xlink:href="../../d6/d30/classmachine__learning_1_1adaline.html#ab11242d9ad5b03a75911e29b04f78fd3" target="_top" xlink:title=" ">
<polygon fill="white" stroke="#666666" points="382,-163 253,-163 253,-133 382,-133 382,-163"/>
<text text-anchor="start" x="261" y="-151" font-family="Helvetica,sans-Serif" font-size="10.00">machine_learning::adaline</text>
<text text-anchor="middle" x="317.5" y="-140" font-family="Helvetica,sans-Serif" font-size="10.00">::predict</text>
</a>
</g>
</g>
<!-- Node1&#45;&gt;Node6 -->
<g id="edge14" class="edge">
<title>Node1&#45;&gt;Node6</title>
<path fill="none" stroke="#63b8ff" d="M38.1,-185.56C77.81,-180.2 174.44,-167.17 242.67,-157.96"/>
<polygon fill="#63b8ff" stroke="#63b8ff" points="243.5,-161.38 252.94,-156.57 242.57,-154.44 243.5,-161.38"/>
</g>
<!-- Node12 -->
<g id="node12" class="node">
<title>Node12</title>
<g id="a_node12"><a target="_blank" xlink:href="http://en.cppreference.com/w/cpp/numeric/random/rand.html#" xlink:title=" ">
<polygon fill="white" stroke="#666666" points="173,-140.5 118,-140.5 118,-121.5 173,-121.5 173,-140.5"/>
<text text-anchor="middle" x="145.5" y="-128.5" font-family="Helvetica,sans-Serif" font-size="10.00">std::rand</text>
</a>
</g>
</g>
<!-- Node1&#45;&gt;Node12 -->
<g id="edge15" class="edge">
<title>Node1&#45;&gt;Node12</title>
<path fill="none" stroke="#63b8ff" d="M33.74,-178.43C44.38,-171.32 59.67,-161.72 74,-155 84.76,-149.96 96.87,-145.44 107.99,-141.73"/>
<polygon fill="#63b8ff" stroke="#63b8ff" points="109.4,-144.95 117.84,-138.55 107.25,-138.29 109.4,-144.95"/>
</g>
<!-- Node4 -->
<g id="node4" class="node">
<title>Node4</title>
<g id="a_node4"><a xlink:href="../../d6/d30/classmachine__learning_1_1adaline.html#ac8a9c2aaaa63b0f27ea176857e1e7d56" target="_top" xlink:title=" ">
<polygon fill="white" stroke="#666666" points="547,-265 418,-265 418,-235 547,-235 547,-265"/>
<text text-anchor="start" x="426" y="-253" font-family="Helvetica,sans-Serif" font-size="10.00">machine_learning::adaline</text>
<text text-anchor="middle" x="482.5" y="-242" font-family="Helvetica,sans-Serif" font-size="10.00">::check_size_match</text>
</a>
</g>
</g>
<!-- Node3&#45;&gt;Node4 -->
<g id="edge3" class="edge">
<title>Node3&#45;&gt;Node4</title>
<path fill="none" stroke="#63b8ff" d="M217.24,-216.34C229.18,-217.91 241.44,-219.51 253,-221 304.8,-227.69 363.23,-235.11 408.04,-240.76"/>
<polygon fill="#63b8ff" stroke="#63b8ff" points="407.6,-244.23 417.96,-242.01 408.48,-237.29 407.6,-244.23"/>
</g>
<!-- Node5 -->
<g id="node5" class="node">
<title>Node5</title>
<g id="a_node5"><a target="_blank" xlink:href="http://en.cppreference.com/w/cpp/container/vector/size.html#" xlink:title=" ">
<polygon fill="white" stroke="#666666" points="670,-239.5 583,-239.5 583,-220.5 670,-220.5 670,-239.5"/>
<text text-anchor="middle" x="626.5" y="-227.5" font-family="Helvetica,sans-Serif" font-size="10.00">std::vector::size</text>
</a>
</g>
</g>
<!-- Node3&#45;&gt;Node5 -->
<g id="edge13" class="edge">
<title>Node3&#45;&gt;Node5</title>
<path fill="none" stroke="#63b8ff" d="M217.04,-210.27C297.05,-214 431.41,-220.31 547,-226 555.24,-226.41 563.96,-226.84 572.48,-227.27"/>
<polygon fill="#63b8ff" stroke="#63b8ff" points="572.56,-230.78 582.72,-227.79 572.91,-223.79 572.56,-230.78"/>
</g>
<!-- Node3&#45;&gt;Node6 -->
<g id="edge6" class="edge">
<title>Node3&#45;&gt;Node6</title>
<path fill="none" stroke="#63b8ff" d="M174.65,-197.49C187.57,-193.11 203.07,-187.82 217,-183 232.33,-177.69 248.97,-171.87 264.17,-166.52"/>
<polygon fill="#63b8ff" stroke="#63b8ff" points="265.66,-169.71 273.92,-163.08 263.33,-163.1 265.66,-169.71"/>
</g>
<!-- Node4&#45;&gt;Node2 -->
<g id="edge4" class="edge">
<title>Node4&#45;&gt;Node2</title>
<path fill="none" stroke="#63b8ff" d="M547.02,-258.95C561.45,-260.98 576.29,-263.07 589.12,-264.88"/>
<polygon fill="#63b8ff" stroke="#63b8ff" points="588.99,-268.39 599.39,-266.32 589.97,-261.46 588.99,-268.39"/>
</g>
<!-- Node4&#45;&gt;Node5 -->
<g id="edge5" class="edge">
<title>Node4&#45;&gt;Node5</title>
<path fill="none" stroke="#63b8ff" d="M547.02,-241.05C555.63,-239.84 564.39,-238.61 572.78,-237.42"/>
<polygon fill="#63b8ff" stroke="#63b8ff" points="573.39,-240.87 582.81,-236.01 572.41,-233.94 573.39,-240.87"/>
</g>
<!-- Node6&#45;&gt;Node4 -->
<g id="edge10" class="edge">
<title>Node6&#45;&gt;Node4</title>
<path fill="none" stroke="#63b8ff" d="M342.55,-163.05C370.6,-180.6 417.12,-209.71 448.52,-229.36"/>
<polygon fill="#63b8ff" stroke="#63b8ff" points="447.02,-232.55 457.35,-234.89 450.73,-226.62 447.02,-232.55"/>
</g>
<!-- Node7 -->
<g id="node7" class="node">
<title>Node7</title>
<g id="a_node7"><a xlink:href="../../d6/d30/classmachine__learning_1_1adaline.html#a082f758fb55fe19f22b3df66f89b2325" target="_top" xlink:title=" ">
<polygon fill="white" stroke="#666666" points="547,-30 418,-30 418,0 547,0 547,-30"/>
<text text-anchor="start" x="426" y="-18" font-family="Helvetica,sans-Serif" font-size="10.00">machine_learning::adaline</text>
<text text-anchor="middle" x="482.5" y="-7" font-family="Helvetica,sans-Serif" font-size="10.00">::activation</text>
</a>
</g>
</g>
<!-- Node6&#45;&gt;Node7 -->
<g id="edge7" class="edge">
<title>Node6&#45;&gt;Node7</title>
<path fill="none" stroke="#63b8ff" d="M328.69,-132.89C345.03,-109.71 379.2,-65.33 418,-39 420.25,-37.47 422.62,-36.02 425.05,-34.65"/>
<polygon fill="#63b8ff" stroke="#63b8ff" points="426.8,-37.69 434.12,-30.03 423.63,-31.45 426.8,-37.69"/>
</g>
<!-- Node8 -->
<g id="node8" class="node">
<title>Node8</title>
<g id="a_node8"><a target="_blank" xlink:href="http://en.cppreference.com/w/cpp/container/vector/back.html#" xlink:title=" ">
<polygon fill="white" stroke="#666666" points="527.5,-178.5 437.5,-178.5 437.5,-159.5 527.5,-159.5 527.5,-178.5"/>
<text text-anchor="middle" x="482.5" y="-166.5" font-family="Helvetica,sans-Serif" font-size="10.00">std::vector::back</text>
</a>
</g>
</g>
<!-- Node6&#45;&gt;Node8 -->
<g id="edge8" class="edge">
<title>Node6&#45;&gt;Node8</title>
<path fill="none" stroke="#63b8ff" d="M382.45,-156.24C397.24,-158.14 412.83,-160.15 427.16,-162"/>
<polygon fill="#63b8ff" stroke="#63b8ff" points="426.98,-165.5 437.34,-163.31 427.87,-158.56 426.98,-165.5"/>
</g>
<!-- Node9 -->
<g id="node9" class="node">
<title>Node9</title>
<g id="a_node9"><a target="_blank" xlink:href="http://en.cppreference.com/w/cpp/container/vector/begin.html#" xlink:title=" ">
<polygon fill="white" stroke="#666666" points="528.5,-141.5 436.5,-141.5 436.5,-122.5 528.5,-122.5 528.5,-141.5"/>
<text text-anchor="middle" x="482.5" y="-129.5" font-family="Helvetica,sans-Serif" font-size="10.00">std::vector::begin</text>
</a>
</g>
</g>
<!-- Node6&#45;&gt;Node9 -->
<g id="edge9" class="edge">
<title>Node6&#45;&gt;Node9</title>
<path fill="none" stroke="#63b8ff" d="M382.45,-141.72C396.95,-140.3 412.23,-138.8 426.32,-137.42"/>
<polygon fill="#63b8ff" stroke="#63b8ff" points="426.74,-140.89 436.35,-136.43 426.06,-133.93 426.74,-140.89"/>
</g>
<!-- Node10 -->
<g id="node10" class="node">
<title>Node10</title>
<g id="a_node10"><a target="_blank" xlink:href="http://en.cppreference.com/w/cpp/container/vector/end.html#" xlink:title=" ">
<polygon fill="white" stroke="#666666" points="525,-104.5 440,-104.5 440,-85.5 525,-85.5 525,-104.5"/>
<text text-anchor="middle" x="482.5" y="-92.5" font-family="Helvetica,sans-Serif" font-size="10.00">std::vector::end</text>
</a>
</g>
</g>
<!-- Node6&#45;&gt;Node10 -->
<g id="edge11" class="edge">
<title>Node6&#45;&gt;Node10</title>
<path fill="none" stroke="#63b8ff" d="M359.46,-132.95C377.35,-126.54 398.63,-119.15 418,-113 424.02,-111.09 430.39,-109.17 436.69,-107.33"/>
<polygon fill="#63b8ff" stroke="#63b8ff" points="437.81,-110.65 446.45,-104.52 435.87,-103.92 437.81,-110.65"/>
</g>
<!-- Node11 -->
<g id="node11" class="node">
<title>Node11</title>
<g id="a_node11"><a target="_blank" xlink:href="http://en.cppreference.com/w/cpp/algorithm/inner_product.html#" xlink:title=" ">
<polygon fill="white" stroke="#666666" points="530,-67.5 435,-67.5 435,-48.5 530,-48.5 530,-67.5"/>
<text text-anchor="middle" x="482.5" y="-55.5" font-family="Helvetica,sans-Serif" font-size="10.00">std::inner_product</text>
</a>
</g>
</g>
<!-- Node6&#45;&gt;Node11 -->
<g id="edge12" class="edge">
<title>Node6&#45;&gt;Node11</title>
<path fill="none" stroke="#63b8ff" d="M335.28,-132.99C354.16,-116.82 386.34,-91.34 418,-76 421.83,-74.14 425.88,-72.45 430.01,-70.91"/>
<polygon fill="#63b8ff" stroke="#63b8ff" points="431.41,-74.13 439.73,-67.58 429.14,-67.51 431.41,-74.13"/>
</g>
</g>
</svg>
