<?xml version="1.0" encoding="UTF-8" standalone="no"?>
<!DOCTYPE svg PUBLIC "-//W3C//DTD SVG 1.1//EN"
 "http://www.w3.org/Graphics/SVG/1.1/DTD/svg11.dtd">
<!-- Generated by graphviz version 2.50.0 (20211204.2007)
 -->
<!-- Title: main Pages: 1 -->
<!--zoomable 363 -->
<svg id="main" version="1.1" xmlns="http://www.w3.org/2000/svg" xmlns:xlink="http://www.w3.org/1999/xlink" xml:space="preserve" onload="init(evt)">
<style type="text/css"><![CDATA[
.edge:hover path { stroke: red; }
.edge:hover polygon { stroke: red; fill: red; }
]]></style>
<script type="text/javascript"><![CDATA[
var edges = document.getElementsByTagName('g');
if (edges && edges.length) {
  for (var i=0;i<edges.length;i++) {
    if (edges[i].id.substr(0,4)=='edge') {
      edges[i].setAttribute('class','edge');
    }
  }
}
]]></script>
        <defs>
                <circle id="rim" cx="0" cy="0" r="7"/>
                <circle id="rim2" cx="0" cy="0" r="3.5"/>
                <g id="zoomPlus">
                        <use xlink:href="#rim" fill="#404040">
                                <set attributeName="fill" to="#808080" begin="zoomplus.mouseover" end="zoomplus.mouseout"/>
                        </use>
                        <path d="M-4,0h8M0,-4v8" fill="none" stroke="white" stroke-width="1.5" pointer-events="none"/>
                </g>
                <g id="zoomMin">
                        <use xlink:href="#rim" fill="#404040">
                                <set attributeName="fill" to="#808080" begin="zoomminus.mouseover" end="zoomminus.mouseout"/>
                        </use>
                        <path d="M-4,0h8" fill="none" stroke="white" stroke-width="1.5" pointer-events="none"/>
                </g>
                <g id="dirArrow">
                        <path fill="none" stroke="white" stroke-width="1.5" d="M0,-3.0v7 M-2.5,-0.5L0,-3.0L2.5,-0.5"/>
                </g>
               <g id="resetDef">
                       <use xlink:href="#rim2" fill="#404040">
                               <set attributeName="fill" to="#808080" begin="reset.mouseover" end="reset.mouseout"/>
                       </use>
               </g>
        </defs>

<script type="text/javascript">
var viewWidth = 774;
var viewHeight = 363;
var sectionId = 'dynsection-1';
</script>
<script xlink:href="../../svgpan.js"/>
<svg id="graph" class="graph">
<g id="viewport">
<title>main</title>
<polygon fill="white" stroke="transparent" points="-4,4 -4,-359.19 770,-359.19 770,4 -4,4"/>
<!-- Node1 -->
<g id="node1" class="node">
<title>Node1</title>
<g id="a_node1"><a xlink:title=" ">
<polygon fill="#bfbfbf" stroke="black" points="0,-212.69 0,-231.69 38,-231.69 38,-212.69 0,-212.69"/>
<text text-anchor="middle" x="19" y="-219.69" font-family="Helvetica,sans-Serif" font-size="10.00">main</text>
</a>
</g>
</g>
<!-- Node2 -->
<g id="node2" class="node">
<title>Node2</title>
<g id="a_node2"><a target="_blank" xlink:href="http://en.cppreference.com/w/cpp/io/manip/endl.html#" xlink:title=" ">
<polygon fill="white" stroke="black" points="695.5,-269.69 695.5,-288.69 749.5,-288.69 749.5,-269.69 695.5,-269.69"/>
<text text-anchor="middle" x="722.5" y="-276.69" font-family="Helvetica,sans-Serif" font-size="10.00">std::endl</text>
</a>
</g>
</g>
<!-- Node1&#45;&gt;Node2 -->
<g id="edge1" class="edge">
<title>Node1&#45;&gt;Node2</title>
<path fill="none" stroke="midnightblue" d="M24.37,-231.83C32.11,-247.88 49.75,-280.08 74,-298.19 136.67,-344.99 162.28,-355.19 240.5,-355.19 240.5,-355.19 240.5,-355.19 414.5,-355.19 517.76,-355.19 544.21,-343.24 643,-313.19 660.25,-307.95 678.79,-300.03 693.53,-293.16"/>
<polygon fill="midnightblue" stroke="midnightblue" points="695.08,-296.29 702.6,-288.83 692.07,-289.97 695.08,-296.29"/>
</g>
<!-- Node3 -->
<g id="node3" class="node">
<title>Node3</title>
<g id="a_node3"><a target="_blank" xlink:href="http://en.cppreference.com/w/cpp/numeric/random/srand.html#" xlink:title=" ">
<polygon fill="white" stroke="black" points="74,-269.69 74,-288.69 134,-288.69 134,-269.69 74,-269.69"/>
<text text-anchor="middle" x="104" y="-276.69" font-family="Helvetica,sans-Serif" font-size="10.00">std::srand</text>
</a>
</g>
</g>
<!-- Node1&#45;&gt;Node3 -->
<g id="edge2" class="edge">
<title>Node1&#45;&gt;Node3</title>
<path fill="none" stroke="midnightblue" d="M33.67,-232C44.54,-239.75 60.15,-250.79 74,-260.19 75.86,-261.46 77.8,-262.76 79.75,-264.06"/>
<polygon fill="midnightblue" stroke="midnightblue" points="77.91,-267.04 88.18,-269.62 81.76,-261.19 77.91,-267.04"/>
</g>
<!-- Node4 -->
<g id="node4" class="node">
<title>Node4</title>
<g id="a_node4"><a xlink:href="../../d5/db0/adaline__learning_8cpp.html#a52053d88ea1bcbbed9aca67ab4eeb499" target="_top" xlink:title=" ">
<polygon fill="white" stroke="black" points="85,-117.69 85,-136.69 123,-136.69 123,-117.69 85,-117.69"/>
<text text-anchor="middle" x="104" y="-124.69" font-family="Helvetica,sans-Serif" font-size="10.00">test1</text>
</a>
</g>
</g>
<!-- Node1&#45;&gt;Node4 -->
<g id="edge3" class="edge">
<title>Node1&#45;&gt;Node4</title>
<path fill="none" stroke="midnightblue" d="M28.57,-212.38C42.56,-196.37 70.48,-164.41 87.87,-144.52"/>
<polygon fill="midnightblue" stroke="midnightblue" points="90.66,-146.64 94.6,-136.81 85.39,-142.04 90.66,-146.64"/>
</g>
<!-- Node13 -->
<g id="node13" class="node">
<title>Node13</title>
<g id="a_node13"><a xlink:href="../../d5/db0/adaline__learning_8cpp.html#a379f7488a305f2571f2932b319931f82" target="_top" xlink:title=" ">
<polygon fill="white" stroke="black" points="85,-231.69 85,-250.69 123,-250.69 123,-231.69 85,-231.69"/>
<text text-anchor="middle" x="104" y="-238.69" font-family="Helvetica,sans-Serif" font-size="10.00">test2</text>
</a>
</g>
</g>
<!-- Node1&#45;&gt;Node13 -->
<g id="edge17" class="edge">
<title>Node1&#45;&gt;Node13</title>
<path fill="none" stroke="midnightblue" d="M38.01,-226.32C48.7,-228.76 62.5,-231.92 74.63,-234.7"/>
<polygon fill="midnightblue" stroke="midnightblue" points="74.21,-238.19 84.74,-237.01 75.77,-231.37 74.21,-238.19"/>
</g>
<!-- Node15 -->
<g id="node15" class="node">
<title>Node15</title>
<g id="a_node15"><a xlink:href="../../d5/db0/adaline__learning_8cpp.html#a992bdf1fdb0b9d414bcf7981d2d87aa9" target="_top" xlink:title=" ">
<polygon fill="white" stroke="black" points="85,-193.69 85,-212.69 123,-212.69 123,-193.69 85,-193.69"/>
<text text-anchor="middle" x="104" y="-200.69" font-family="Helvetica,sans-Serif" font-size="10.00">test3</text>
</a>
</g>
</g>
<!-- Node1&#45;&gt;Node15 -->
<g id="edge22" class="edge">
<title>Node1&#45;&gt;Node15</title>
<path fill="none" stroke="midnightblue" d="M38.01,-218.07C48.7,-215.62 62.5,-212.46 74.63,-209.69"/>
<polygon fill="midnightblue" stroke="midnightblue" points="75.77,-213.02 84.74,-207.37 74.21,-206.19 75.77,-213.02"/>
</g>
<!-- Node16 -->
<g id="node16" class="node">
<title>Node16</title>
<g id="a_node16"><a target="_blank" xlink:href="http://en.cppreference.com/w/cpp/chrono/c/time.html#" xlink:title=" ">
<polygon fill="white" stroke="black" points="76.5,-79.69 76.5,-98.69 131.5,-98.69 131.5,-79.69 76.5,-79.69"/>
<text text-anchor="middle" x="104" y="-86.69" font-family="Helvetica,sans-Serif" font-size="10.00">std::time</text>
</a>
</g>
</g>
<!-- Node1&#45;&gt;Node16 -->
<g id="edge27" class="edge">
<title>Node1&#45;&gt;Node16</title>
<path fill="none" stroke="midnightblue" d="M22.58,-212.64C28.62,-191.71 45.38,-141.06 74,-108.19 74.87,-107.2 75.8,-106.23 76.78,-105.3"/>
<polygon fill="midnightblue" stroke="midnightblue" points="79.26,-107.8 84.91,-98.84 74.9,-102.32 79.26,-107.8"/>
</g>
<!-- Node4&#45;&gt;Node2 -->
<g id="edge4" class="edge">
<title>Node4&#45;&gt;Node2</title>
<path fill="none" stroke="midnightblue" d="M120.98,-117.43C190.65,-76.25 471.89,75.55 643,-47.19 712.76,-97.23 721.31,-212.64 721.81,-259.19"/>
<polygon fill="midnightblue" stroke="midnightblue" points="718.31,-259.45 721.8,-269.46 725.31,-259.46 718.31,-259.45"/>
</g>
<!-- Node5 -->
<g id="node5" class="node">
<title>Node5</title>
<g id="a_node5"><a xlink:href="../../d6/d30/classmachine__learning_1_1adaline.html#a74e3c6c037b67895014414c5d75465e5" target="_top" xlink:title=" ">
<polygon fill="white" stroke="black" points="170,-117.69 170,-136.69 313,-136.69 313,-117.69 170,-117.69"/>
<text text-anchor="middle" x="241.5" y="-124.69" font-family="Helvetica,sans-Serif" font-size="10.00">machine_learning::adaline::fit</text>
</a>
</g>
</g>
<!-- Node4&#45;&gt;Node5 -->
<g id="edge5" class="edge">
<title>Node4&#45;&gt;Node5</title>
<path fill="none" stroke="midnightblue" d="M123.27,-127.19C133.16,-127.19 146.13,-127.19 159.83,-127.19"/>
<polygon fill="midnightblue" stroke="midnightblue" points="159.9,-130.69 169.9,-127.19 159.9,-123.69 159.9,-130.69"/>
</g>
<!-- Node8 -->
<g id="node8" class="node">
<title>Node8</title>
<g id="a_node8"><a xlink:href="../../d6/d30/classmachine__learning_1_1adaline.html#ab11242d9ad5b03a75911e29b04f78fd3" target="_top" xlink:title=" ">
<polygon fill="white" stroke="black" points="349,-150.19 349,-180.19 478,-180.19 478,-150.19 349,-150.19"/>
<text text-anchor="start" x="357" y="-168.19" font-family="Helvetica,sans-Serif" font-size="10.00">machine_learning::adaline</text>
<text text-anchor="middle" x="413.5" y="-157.19" font-family="Helvetica,sans-Serif" font-size="10.00">::predict</text>
</a>
</g>
</g>
<!-- Node4&#45;&gt;Node8 -->
<g id="edge16" class="edge">
<title>Node4&#45;&gt;Node8</title>
<path fill="none" stroke="midnightblue" d="M123.18,-120.37C136.05,-115.91 153.82,-110.51 170,-108.19 232.91,-99.19 251.58,-91.85 313,-108.19 339.36,-115.21 366.01,-131.04 385.08,-144.25"/>
<polygon fill="midnightblue" stroke="midnightblue" points="383.11,-147.14 393.28,-150.09 387.17,-141.44 383.11,-147.14"/>
</g>
<!-- Node6 -->
<g id="node6" class="node">
<title>Node6</title>
<g id="a_node6"><a xlink:href="../../d6/d30/classmachine__learning_1_1adaline.html#ac8a9c2aaaa63b0f27ea176857e1e7d56" target="_top" xlink:title=" ">
<polygon fill="white" stroke="black" points="514,-57.19 514,-87.19 643,-87.19 643,-57.19 514,-57.19"/>
<text text-anchor="start" x="522" y="-75.19" font-family="Helvetica,sans-Serif" font-size="10.00">machine_learning::adaline</text>
<text text-anchor="middle" x="578.5" y="-64.19" font-family="Helvetica,sans-Serif" font-size="10.00">::check_size_match</text>
</a>
</g>
</g>
<!-- Node5&#45;&gt;Node6 -->
<g id="edge6" class="edge">
<title>Node5&#45;&gt;Node6</title>
<path fill="none" stroke="midnightblue" d="M300.47,-117.68C356.88,-108.41 442.81,-94.31 503.99,-84.26"/>
<polygon fill="midnightblue" stroke="midnightblue" points="504.67,-87.7 513.97,-82.62 503.54,-80.79 504.67,-87.7"/>
</g>
<!-- Node7 -->
<g id="node7" class="node">
<title>Node7</title>
<g id="a_node7"><a target="_blank" xlink:href="http://en.cppreference.com/w/cpp/container/vector/size.html#" xlink:title=" ">
<polygon fill="white" stroke="black" points="679,-40.69 679,-59.69 766,-59.69 766,-40.69 679,-40.69"/>
<text text-anchor="middle" x="722.5" y="-47.69" font-family="Helvetica,sans-Serif" font-size="10.00">std::vector::size</text>
</a>
</g>
</g>
<!-- Node5&#45;&gt;Node7 -->
<g id="edge15" class="edge">
<title>Node5&#45;&gt;Node7</title>
<path fill="none" stroke="midnightblue" d="M264.63,-117.66C285.96,-108.72 319.28,-95.38 349,-86.19 420.99,-63.94 439.15,-55.92 514,-47.19 570.95,-40.56 585.68,-46.1 643,-47.19 651.24,-47.35 659.96,-47.6 668.48,-47.89"/>
<polygon fill="midnightblue" stroke="midnightblue" points="668.61,-51.4 678.73,-48.26 668.86,-44.4 668.61,-51.4"/>
</g>
<!-- Node5&#45;&gt;Node8 -->
<g id="edge9" class="edge">
<title>Node5&#45;&gt;Node8</title>
<path fill="none" stroke="midnightblue" d="M285.4,-136.78C301.66,-140.42 320.66,-144.67 338.95,-148.75"/>
<polygon fill="midnightblue" stroke="midnightblue" points="338.2,-152.17 348.72,-150.94 339.73,-145.34 338.2,-152.17"/>
</g>
<!-- Node6&#45;&gt;Node2 -->
<g id="edge7" class="edge">
<title>Node6&#45;&gt;Node2</title>
<path fill="none" stroke="midnightblue" d="M630.94,-87.29C635.31,-89.83 639.42,-92.77 643,-96.19 690.98,-142.12 711.16,-222.18 718.24,-259.28"/>
<polygon fill="midnightblue" stroke="midnightblue" points="714.83,-260.1 720.03,-269.33 721.72,-258.87 714.83,-260.1"/>
</g>
<!-- Node6&#45;&gt;Node7 -->
<g id="edge8" class="edge">
<title>Node6&#45;&gt;Node7</title>
<path fill="none" stroke="midnightblue" d="M643.02,-62.35C651.63,-61.02 660.39,-59.66 668.78,-58.36"/>
<polygon fill="midnightblue" stroke="midnightblue" points="669.46,-61.8 678.81,-56.81 668.39,-54.88 669.46,-61.8"/>
</g>
<!-- Node8&#45;&gt;Node6 -->
<g id="edge12" class="edge">
<title>Node8&#45;&gt;Node6</title>
<path fill="none" stroke="midnightblue" d="M433.42,-149.96C452.8,-134.88 484.23,-111.84 514,-96.19 517.27,-94.48 520.69,-92.82 524.18,-91.23"/>
<polygon fill="midnightblue" stroke="midnightblue" points="525.7,-94.39 533.5,-87.21 522.93,-87.96 525.7,-94.39"/>
</g>
<!-- Node9 -->
<g id="node9" class="node">
<title>Node9</title>
<g id="a_node9"><a xlink:href="../../d6/d30/classmachine__learning_1_1adaline.html#a082f758fb55fe19f22b3df66f89b2325" target="_top" xlink:title=" ">
<polygon fill="white" stroke="black" points="514,-106.19 514,-136.19 643,-136.19 643,-106.19 514,-106.19"/>
<text text-anchor="start" x="522" y="-124.19" font-family="Helvetica,sans-Serif" font-size="10.00">machine_learning::adaline</text>
<text text-anchor="middle" x="578.5" y="-113.19" font-family="Helvetica,sans-Serif" font-size="10.00">::activation</text>
</a>
</g>
</g>
<!-- Node8&#45;&gt;Node9 -->
<g id="edge10" class="edge">
<title>Node8&#45;&gt;Node9</title>
<path fill="none" stroke="midnightblue" d="M470.14,-150.17C483.57,-146.55 498.05,-142.64 511.89,-138.9"/>
<polygon fill="midnightblue" stroke="midnightblue" points="513.09,-142.21 521.83,-136.22 511.27,-135.45 513.09,-142.21"/>
</g>
<!-- Node10 -->
<g id="node10" class="node">
<title>Node10</title>
<g id="a_node10"><a target="_blank" xlink:href="http://en.cppreference.com/w/cpp/container/vector/begin.html#" xlink:title=" ">
<polygon fill="white" stroke="black" points="532.5,-231.69 532.5,-250.69 624.5,-250.69 624.5,-231.69 532.5,-231.69"/>
<text text-anchor="middle" x="578.5" y="-238.69" font-family="Helvetica,sans-Serif" font-size="10.00">std::vector::begin</text>
</a>
</g>
</g>
<!-- Node8&#45;&gt;Node10 -->
<g id="edge11" class="edge">
<title>Node8&#45;&gt;Node10</title>
<path fill="none" stroke="midnightblue" d="M437.44,-180.36C457.12,-192.87 486.56,-210.41 514,-222.19 519.35,-224.49 525.07,-226.62 530.8,-228.56"/>
<polygon fill="midnightblue" stroke="midnightblue" points="529.8,-231.92 540.39,-231.65 531.94,-225.25 529.8,-231.92"/>
</g>
<!-- Node11 -->
<g id="node11" class="node">
<title>Node11</title>
<g id="a_node11"><a target="_blank" xlink:href="http://en.cppreference.com/w/cpp/container/vector/end.html#" xlink:title=" ">
<polygon fill="white" stroke="black" points="536,-193.69 536,-212.69 621,-212.69 621,-193.69 536,-193.69"/>
<text text-anchor="middle" x="578.5" y="-200.69" font-family="Helvetica,sans-Serif" font-size="10.00">std::vector::end</text>
</a>
</g>
</g>
<!-- Node8&#45;&gt;Node11 -->
<g id="edge13" class="edge">
<title>Node8&#45;&gt;Node11</title>
<path fill="none" stroke="midnightblue" d="M478.45,-180.1C494.55,-183.86 511.6,-187.83 526.94,-191.41"/>
<polygon fill="midnightblue" stroke="midnightblue" points="526.21,-194.83 536.75,-193.69 527.8,-188.01 526.21,-194.83"/>
</g>
<!-- Node12 -->
<g id="node12" class="node">
<title>Node12</title>
<g id="a_node12"><a target="_blank" xlink:href="http://en.cppreference.com/w/cpp/algorithm/inner_product.html#" xlink:title=" ">
<polygon fill="white" stroke="black" points="531,-155.69 531,-174.69 626,-174.69 626,-155.69 531,-155.69"/>
<text text-anchor="middle" x="578.5" y="-162.69" font-family="Helvetica,sans-Serif" font-size="10.00">std::inner_product</text>
</a>
</g>
</g>
<!-- Node8&#45;&gt;Node12 -->
<g id="edge14" class="edge">
<title>Node8&#45;&gt;Node12</title>
<path fill="none" stroke="midnightblue" d="M478.45,-165.19C492.38,-165.19 507.03,-165.19 520.66,-165.19"/>
<polygon fill="midnightblue" stroke="midnightblue" points="520.86,-168.69 530.86,-165.19 520.86,-161.69 520.86,-168.69"/>
</g>
<!-- Node13&#45;&gt;Node2 -->
<g id="edge18" class="edge">
<title>Node13&#45;&gt;Node2</title>
<path fill="none" stroke="midnightblue" d="M119.59,-250.85C135.35,-261.07 159.59,-276.14 170,-279.19 371.84,-338.3 433.5,-311.73 643,-293.19 656.93,-291.96 672.08,-289.52 685.33,-287.02"/>
<polygon fill="midnightblue" stroke="midnightblue" points="686.35,-290.39 695.49,-285.02 685,-283.52 686.35,-290.39"/>
</g>
<!-- Node13&#45;&gt;Node5 -->
<g id="edge19" class="edge">
<title>Node13&#45;&gt;Node5</title>
<path fill="none" stroke="midnightblue" d="M120.65,-231.55C125.06,-228.67 129.8,-225.42 134,-222.19 167.15,-196.77 202.84,-163.62 223.33,-143.96"/>
<polygon fill="midnightblue" stroke="midnightblue" points="225.89,-146.35 230.65,-136.89 221.03,-141.32 225.89,-146.35"/>
</g>
<!-- Node13&#45;&gt;Node8 -->
<g id="edge20" class="edge">
<title>Node13&#45;&gt;Node8</title>
<path fill="none" stroke="midnightblue" d="M123.05,-248.19C160.15,-261.45 247.03,-286.63 313,-260.19 348.78,-245.86 378.99,-211.84 396.43,-188.66"/>
<polygon fill="midnightblue" stroke="midnightblue" points="399.42,-190.51 402.48,-180.37 393.76,-186.38 399.42,-190.51"/>
</g>
<!-- Node14 -->
<g id="node14" class="node">
<title>Node14</title>
<g id="a_node14"><a target="_blank" xlink:href="http://en.cppreference.com/w/cpp/numeric/random/rand.html#" xlink:title=" ">
<polygon fill="white" stroke="black" points="214,-231.69 214,-250.69 269,-250.69 269,-231.69 214,-231.69"/>
<text text-anchor="middle" x="241.5" y="-238.69" font-family="Helvetica,sans-Serif" font-size="10.00">std::rand</text>
</a>
</g>
</g>
<!-- Node13&#45;&gt;Node14 -->
<g id="edge21" class="edge">
<title>Node13&#45;&gt;Node14</title>
<path fill="none" stroke="midnightblue" d="M123.27,-241.19C143.72,-241.19 177.38,-241.19 203.4,-241.19"/>
<polygon fill="midnightblue" stroke="midnightblue" points="203.66,-244.69 213.66,-241.19 203.66,-237.69 203.66,-244.69"/>
</g>
<!-- Node15&#45;&gt;Node2 -->
<g id="edge23" class="edge">
<title>Node15&#45;&gt;Node2</title>
<path fill="none" stroke="midnightblue" d="M123.15,-204.27C159.37,-206.53 243.15,-212.42 313,-222.19 403.04,-234.79 423.96,-247.59 514,-260.19 573.65,-268.54 643.49,-274.07 685.02,-276.91"/>
<polygon fill="midnightblue" stroke="midnightblue" points="684.99,-280.42 695.2,-277.59 685.46,-273.43 684.99,-280.42"/>
</g>
<!-- Node15&#45;&gt;Node5 -->
<g id="edge24" class="edge">
<title>Node15&#45;&gt;Node5</title>
<path fill="none" stroke="midnightblue" d="M114.78,-193.53C126.86,-182.06 148.46,-163 170,-151.19 177.83,-146.9 186.56,-143.18 195.14,-140.04"/>
<polygon fill="midnightblue" stroke="midnightblue" points="196.39,-143.3 204.7,-136.73 194.11,-136.69 196.39,-143.3"/>
</g>
<!-- Node15&#45;&gt;Node8 -->
<g id="edge25" class="edge">
<title>Node15&#45;&gt;Node8</title>
<path fill="none" stroke="midnightblue" d="M123.11,-198.72C136.09,-195.65 154.03,-191.7 170,-189.19 226.39,-180.36 290.69,-174.17 338.9,-170.29"/>
<polygon fill="midnightblue" stroke="midnightblue" points="339.24,-173.78 348.94,-169.5 338.69,-166.8 339.24,-173.78"/>
</g>
<!-- Node15&#45;&gt;Node14 -->
<g id="edge26" class="edge">
<title>Node15&#45;&gt;Node14</title>
<path fill="none" stroke="midnightblue" d="M123.27,-208.32C143.81,-214.08 177.68,-223.58 203.74,-230.89"/>
<polygon fill="midnightblue" stroke="midnightblue" points="203.09,-234.34 213.66,-233.67 204.98,-227.6 203.09,-234.34"/>
</g>
</g>
</svg>
        <g id="navigator" transform="translate(0 0)" fill="#404254">
                <rect fill="#f2f5e9" fill-opacity="0.5" stroke="#606060" stroke-width=".5" x="0" y="0" width="60" height="60"/>
                <use id="zoomplus" xlink:href="#zoomPlus" x="17" y="9" onmousedown="handleZoom(evt,'in')"/>
                <use id="zoomminus" xlink:href="#zoomMin" x="42" y="9" onmousedown="handleZoom(evt,'out')"/>
                <use id="reset" xlink:href="#resetDef" x="30" y="36" onmousedown="handleReset()"/>
                <g id="arrowUp" xlink:href="#dirArrow" transform="translate(30 24)" onmousedown="handlePan(0,-1)">
                  <use xlink:href="#rim" fill="#404040">
                        <set attributeName="fill" to="#808080" begin="arrowUp.mouseover" end="arrowUp.mouseout"/>
                  </use>
                  <path fill="none" stroke="white" stroke-width="1.5" d="M0,-3.0v7 M-2.5,-0.5L0,-3.0L2.5,-0.5"/>
                </g>
                <g id="arrowRight" xlink:href="#dirArrow" transform="rotate(90) translate(36 -43)" onmousedown="handlePan(1,0)">
                  <use xlink:href="#rim" fill="#404040">
                        <set attributeName="fill" to="#808080" begin="arrowRight.mouseover" end="arrowRight.mouseout"/>
                  </use>
                  <path fill="none" stroke="white" stroke-width="1.5" d="M0,-3.0v7 M-2.5,-0.5L0,-3.0L2.5,-0.5"/>
                </g>
                <g id="arrowDown" xlink:href="#dirArrow" transform="rotate(180) translate(-30 -48)" onmousedown="handlePan(0,1)">
                  <use xlink:href="#rim" fill="#404040">
                        <set attributeName="fill" to="#808080" begin="arrowDown.mouseover" end="arrowDown.mouseout"/>
                  </use>
                  <path fill="none" stroke="white" stroke-width="1.5" d="M0,-3.0v7 M-2.5,-0.5L0,-3.0L2.5,-0.5"/>
                </g>
                <g id="arrowLeft" xlink:href="#dirArrow" transform="rotate(270) translate(-36 17)" onmousedown="handlePan(-1,0)">
                  <use xlink:href="#rim" fill="#404040">
                        <set attributeName="fill" to="#808080" begin="arrowLeft.mouseover" end="arrowLeft.mouseout"/>
                  </use>
                  <path fill="none" stroke="white" stroke-width="1.5" d="M0,-3.0v7 M-2.5,-0.5L0,-3.0L2.5,-0.5"/>
                </g>
        </g>
        <svg viewBox="0 0 15 15" width="100%" height="30px" preserveAspectRatio="xMaxYMin meet">
         <g id="arrow_out" transform="scale(0.3 0.3)">
          <a xlink:href="adaline__learning_8cpp_a3c04138a5bfe5d72780bb7e82a18e627_cgraph_org.svg" target="_base">
           <rect id="button" ry="5" rx="5" y="6" x="6" height="38" width="38"
                fill="#f2f5e9" fill-opacity="0.5" stroke="#606060" stroke-width="1.0"/>
           <path id="arrow"
             d="M 11.500037,31.436501 C 11.940474,20.09759 22.043105,11.32322 32.158766,21.979434 L 37.068811,17.246167 C 37.068811,17.246167 37.088388,32 37.088388,32 L 22.160133,31.978069 C 22.160133,31.978069 26.997745,27.140456 26.997745,27.140456 C 18.528582,18.264221 13.291696,25.230495 11.500037,31.436501 z"
             style="fill:#404040;"/>
          </a>
         </g>
        </svg>
</svg>
