<?xml version="1.0" encoding="UTF-8" standalone="no"?>
<!DOCTYPE svg PUBLIC "-//W3C//DTD SVG 1.1//EN"
 "http://www.w3.org/Graphics/SVG/1.1/DTD/svg11.dtd">
<!-- Generated by graphviz version 2.48.0 (20210717.1556)
 -->
<!-- Title: main Pages: 1 -->
<!--zoomable 417 -->
<svg id="main" version="1.1" xmlns="http://www.w3.org/2000/svg" xmlns:xlink="http://www.w3.org/1999/xlink" xml:space="preserve" onload="init(evt)">
<style type="text/css"><![CDATA[
.edge:hover path { stroke: red; }
.edge:hover polygon { stroke: red; fill: red; }
]]></style>
<script type="text/javascript"><![CDATA[
var edges = document.getElementsByTagName('g');
if (edges && edges.length) {
  for (var i=0;i<edges.length;i++) {
    if (edges[i].id.substr(0,4)=='edge') {
      edges[i].setAttribute('class','edge');
    }
  }
}
]]></script>
        <defs>
                <circle id="rim" cx="0" cy="0" r="7"/>
                <circle id="rim2" cx="0" cy="0" r="3.5"/>
                <g id="zoomPlus">
                        <use xlink:href="#rim" fill="#404040">
                                <set attributeName="fill" to="#808080" begin="zoomplus.mouseover" end="zoomplus.mouseout"/>
                        </use>
                        <path d="M-4,0h8M0,-4v8" fill="none" stroke="white" stroke-width="1.5" pointer-events="none"/>
                </g>
                <g id="zoomMin">
                        <use xlink:href="#rim" fill="#404040">
                                <set attributeName="fill" to="#808080" begin="zoomminus.mouseover" end="zoomminus.mouseout"/>
                        </use>
                        <path d="M-4,0h8" fill="none" stroke="white" stroke-width="1.5" pointer-events="none"/>
                </g>
                <g id="dirArrow">
                        <path fill="none" stroke="white" stroke-width="1.5" d="M0,-3.0v7 M-2.5,-0.5L0,-3.0L2.5,-0.5"/>
                </g>
               <g id="resetDef">
                       <use xlink:href="#rim2" fill="#404040">
                               <set attributeName="fill" to="#808080" begin="reset.mouseover" end="reset.mouseout"/>
                       </use>
               </g>
        </defs>

<script type="text/javascript">
var viewWidth = 785;
var viewHeight = 417;
var sectionId = 'dynsection-1';
</script>
<script xlink:href="../../svgpan.js"/>
<svg id="graph" class="graph">
<g id="viewport">
<title>main</title>
<polygon fill="white" stroke="transparent" points="-4,4 -4,-412.85 781,-412.85 781,4 -4,4"/>
<!-- Node1 -->
<g id="node1" class="node">
<title>Node1</title>
<g id="a_node1"><a xlink:title=" ">
<polygon fill="#bfbfbf" stroke="black" points="0,-241.35 0,-260.35 38,-260.35 38,-241.35 0,-241.35"/>
<text text-anchor="middle" x="19" y="-248.35" font-family="Helvetica,sans-Serif" font-size="10.00">main</text>
</a>
</g>
</g>
<!-- Node2 -->
<g id="node2" class="node">
<title>Node2</title>
<g id="a_node2"><a target="_blank" xlink:href="http://en.cppreference.com/w/cpp/io/manip/endl.html#" xlink:title=" ">
<polygon fill="white" stroke="black" points="707,-323.35 707,-342.35 761,-342.35 761,-323.35 707,-323.35"/>
<text text-anchor="middle" x="734" y="-330.35" font-family="Helvetica,sans-Serif" font-size="10.00">std::endl</text>
</a>
</g>
</g>
<!-- Node1&#45;&gt;Node2 -->
<g id="edge1" class="edge">
<title>Node1&#45;&gt;Node2</title>
<path fill="none" stroke="midnightblue" d="M24.75,-260.43C32.93,-276.09 51.03,-307.39 74,-326.85 137.54,-380.7 159.21,-408.85 242.5,-408.85 242.5,-408.85 242.5,-408.85 420.5,-408.85 525.32,-408.85 644.45,-367.98 700.54,-346.19"/>
<polygon fill="midnightblue" stroke="midnightblue" points="701.93,-349.4 709.95,-342.48 699.36,-342.89 701.93,-349.4"/>
</g>
<!-- Node3 -->
<g id="node3" class="node">
<title>Node3</title>
<g id="a_node3"><a target="_blank" xlink:href="http://en.cppreference.com/w/cpp/numeric/random/srand.html#" xlink:title=" ">
<polygon fill="white" stroke="black" points="74,-298.35 74,-317.35 134,-317.35 134,-298.35 74,-298.35"/>
<text text-anchor="middle" x="104" y="-305.35" font-family="Helvetica,sans-Serif" font-size="10.00">std::srand</text>
</a>
</g>
</g>
<!-- Node1&#45;&gt;Node3 -->
<g id="edge2" class="edge">
<title>Node1&#45;&gt;Node3</title>
<path fill="none" stroke="midnightblue" d="M33.67,-260.66C44.54,-268.41 60.15,-279.45 74,-288.85 75.86,-290.12 77.8,-291.42 79.75,-292.72"/>
<polygon fill="midnightblue" stroke="midnightblue" points="77.91,-295.7 88.18,-298.28 81.76,-289.85 77.91,-295.7"/>
</g>
<!-- Node4 -->
<g id="node4" class="node">
<title>Node4</title>
<g id="a_node4"><a xlink:href="../../d5/db0/adaline__learning_8cpp.html#a52053d88ea1bcbbed9aca67ab4eeb499" target="_top" xlink:title=" ">
<polygon fill="white" stroke="black" points="85,-260.35 85,-279.35 123,-279.35 123,-260.35 85,-260.35"/>
<text text-anchor="middle" x="104" y="-267.35" font-family="Helvetica,sans-Serif" font-size="10.00">test1</text>
</a>
</g>
</g>
<!-- Node1&#45;&gt;Node4 -->
<g id="edge3" class="edge">
<title>Node1&#45;&gt;Node4</title>
<path fill="none" stroke="midnightblue" d="M38.01,-254.98C48.7,-257.42 62.5,-260.58 74.63,-263.36"/>
<polygon fill="midnightblue" stroke="midnightblue" points="74.21,-266.85 84.74,-265.67 75.77,-260.03 74.21,-266.85"/>
</g>
<!-- Node14 -->
<g id="node14" class="node">
<title>Node14</title>
<g id="a_node14"><a xlink:href="../../d5/db0/adaline__learning_8cpp.html#a379f7488a305f2571f2932b319931f82" target="_top" xlink:title=" ">
<polygon fill="white" stroke="black" points="85,-222.35 85,-241.35 123,-241.35 123,-222.35 85,-222.35"/>
<text text-anchor="middle" x="104" y="-229.35" font-family="Helvetica,sans-Serif" font-size="10.00">test2</text>
</a>
</g>
</g>
<!-- Node1&#45;&gt;Node14 -->
<g id="edge18" class="edge">
<title>Node1&#45;&gt;Node14</title>
<path fill="none" stroke="midnightblue" d="M38.01,-246.73C48.7,-244.28 62.5,-241.12 74.63,-238.35"/>
<polygon fill="midnightblue" stroke="midnightblue" points="75.77,-241.68 84.74,-236.03 74.21,-234.85 75.77,-241.68"/>
</g>
<!-- Node16 -->
<g id="node16" class="node">
<title>Node16</title>
<g id="a_node16"><a xlink:href="../../d5/db0/adaline__learning_8cpp.html#a992bdf1fdb0b9d414bcf7981d2d87aa9" target="_top" xlink:title=" ">
<polygon fill="white" stroke="black" points="85,-184.35 85,-203.35 123,-203.35 123,-184.35 85,-184.35"/>
<text text-anchor="middle" x="104" y="-191.35" font-family="Helvetica,sans-Serif" font-size="10.00">test3</text>
</a>
</g>
</g>
<!-- Node1&#45;&gt;Node16 -->
<g id="edge23" class="edge">
<title>Node1&#45;&gt;Node16</title>
<path fill="none" stroke="midnightblue" d="M33.67,-241.04C44.54,-233.29 60.15,-222.26 74,-212.85 75.86,-211.59 77.8,-210.29 79.75,-208.99"/>
<polygon fill="midnightblue" stroke="midnightblue" points="81.76,-211.85 88.18,-203.42 77.91,-206.01 81.76,-211.85"/>
</g>
<!-- Node17 -->
<g id="node17" class="node">
<title>Node17</title>
<g id="a_node17"><a target="_blank" xlink:href="http://en.cppreference.com/w/cpp/chrono/c/time.html#" xlink:title=" ">
<polygon fill="white" stroke="black" points="77,-146.35 77,-165.35 131,-165.35 131,-146.35 77,-146.35"/>
<text text-anchor="middle" x="104" y="-153.35" font-family="Helvetica,sans-Serif" font-size="10.00">std::time</text>
</a>
</g>
</g>
<!-- Node1&#45;&gt;Node17 -->
<g id="edge28" class="edge">
<title>Node1&#45;&gt;Node17</title>
<path fill="none" stroke="midnightblue" d="M25.32,-241.1C34.04,-225.74 52.55,-195.51 74,-174.85 75.11,-173.78 76.29,-172.74 77.51,-171.72"/>
<polygon fill="midnightblue" stroke="midnightblue" points="79.97,-174.26 85.95,-165.51 75.82,-168.62 79.97,-174.26"/>
</g>
<!-- Node4&#45;&gt;Node2 -->
<g id="edge4" class="edge">
<title>Node4&#45;&gt;Node2</title>
<path fill="none" stroke="midnightblue" d="M123.2,-274.89C164.02,-286.01 266.07,-312.86 353,-327.85 427.48,-340.7 446.53,-342.62 522,-346.85 581.02,-350.16 596.12,-352.1 655,-346.85 668.73,-345.63 683.67,-343.22 696.76,-340.74"/>
<polygon fill="midnightblue" stroke="midnightblue" points="697.67,-344.13 706.8,-338.75 696.31,-337.26 697.67,-344.13"/>
</g>
<!-- Node5 -->
<g id="node5" class="node">
<title>Node5</title>
<g id="a_node5"><a xlink:href="../../d6/d30/classmachine__learning_1_1adaline.html#a74e3c6c037b67895014414c5d75465e5" target="_top" xlink:title=" ">
<polygon fill="white" stroke="black" points="170,-203.35 170,-222.35 317,-222.35 317,-203.35 170,-203.35"/>
<text text-anchor="middle" x="243.5" y="-210.35" font-family="Helvetica,sans-Serif" font-size="10.00">machine_learning::adaline::fit</text>
</a>
</g>
</g>
<!-- Node4&#45;&gt;Node5 -->
<g id="edge5" class="edge">
<title>Node4&#45;&gt;Node5</title>
<path fill="none" stroke="midnightblue" d="M123.26,-262.28C145.38,-253.11 183.04,-237.5 210.13,-226.27"/>
<polygon fill="midnightblue" stroke="midnightblue" points="211.68,-229.42 219.58,-222.35 209,-222.95 211.68,-229.42"/>
</g>
<!-- Node8 -->
<g id="node8" class="node">
<title>Node8</title>
<g id="a_node8"><a xlink:href="../../d6/d30/classmachine__learning_1_1adaline.html#ab11242d9ad5b03a75911e29b04f78fd3" target="_top" xlink:title=" ">
<polygon fill="white" stroke="black" points="353,-194.85 353,-224.85 486,-224.85 486,-194.85 353,-194.85"/>
<text text-anchor="start" x="361" y="-212.85" font-family="Helvetica,sans-Serif" font-size="10.00">machine_learning::adaline</text>
<text text-anchor="middle" x="419.5" y="-201.85" font-family="Helvetica,sans-Serif" font-size="10.00">::predict</text>
</a>
</g>
</g>
<!-- Node4&#45;&gt;Node8 -->
<g id="edge17" class="edge">
<title>Node4&#45;&gt;Node8</title>
<path fill="none" stroke="midnightblue" d="M123.13,-269.52C160.08,-268.51 246.58,-264.4 317,-247.85 336.63,-243.24 357.61,-235.83 375.37,-228.78"/>
<polygon fill="midnightblue" stroke="midnightblue" points="376.93,-231.92 384.88,-224.91 374.29,-225.43 376.93,-231.92"/>
</g>
<!-- Node6 -->
<g id="node6" class="node">
<title>Node6</title>
<g id="a_node6"><a xlink:href="../../d6/d30/classmachine__learning_1_1adaline.html#ac8a9c2aaaa63b0f27ea176857e1e7d56" target="_top" xlink:title=" ">
<polygon fill="white" stroke="black" points="522,-71.85 522,-101.85 655,-101.85 655,-71.85 522,-71.85"/>
<text text-anchor="start" x="530" y="-89.85" font-family="Helvetica,sans-Serif" font-size="10.00">machine_learning::adaline</text>
<text text-anchor="middle" x="588.5" y="-78.85" font-family="Helvetica,sans-Serif" font-size="10.00">::check_size_match</text>
</a>
</g>
</g>
<!-- Node5&#45;&gt;Node6 -->
<g id="edge6" class="edge">
<title>Node5&#45;&gt;Node6</title>
<path fill="none" stroke="midnightblue" d="M284.65,-203.28C295.25,-200.5 306.62,-197.27 317,-193.85 410.2,-163.13 430.6,-147.57 522,-111.85 527.17,-109.83 532.58,-107.74 537.98,-105.66"/>
<polygon fill="midnightblue" stroke="midnightblue" points="539.55,-108.81 547.63,-101.96 537.04,-102.27 539.55,-108.81"/>
</g>
<!-- Node7 -->
<g id="node7" class="node">
<title>Node7</title>
<g id="a_node7"><a target="_blank" xlink:href="http://en.cppreference.com/w/cpp/container/vector/size.html#" xlink:title=" ">
<polygon fill="white" stroke="black" points="691,-55.35 691,-74.35 777,-74.35 777,-55.35 691,-55.35"/>
<text text-anchor="middle" x="734" y="-62.35" font-family="Helvetica,sans-Serif" font-size="10.00">std::vector::size</text>
</a>
</g>
</g>
<!-- Node5&#45;&gt;Node7 -->
<g id="edge16" class="edge">
<title>Node5&#45;&gt;Node7</title>
<path fill="none" stroke="midnightblue" d="M301.05,-203.22C306.78,-200.76 312.24,-197.69 317,-193.85 344.53,-171.64 326.49,-146.29 353,-122.85 412.83,-69.96 443.34,-75.61 522,-61.85 575.51,-52.49 637.82,-54.98 680.78,-58.73"/>
<polygon fill="midnightblue" stroke="midnightblue" points="680.72,-62.24 691,-59.68 681.36,-55.27 680.72,-62.24"/>
</g>
<!-- Node5&#45;&gt;Node8 -->
<g id="edge9" class="edge">
<title>Node5&#45;&gt;Node8</title>
<path fill="none" stroke="midnightblue" d="M317.03,-211.6C325.45,-211.46 334.06,-211.31 342.52,-211.16"/>
<polygon fill="midnightblue" stroke="midnightblue" points="342.81,-214.66 352.75,-210.99 342.69,-207.66 342.81,-214.66"/>
</g>
<!-- Node6&#45;&gt;Node2 -->
<g id="edge7" class="edge">
<title>Node6&#45;&gt;Node2</title>
<path fill="none" stroke="midnightblue" d="M642.17,-102C646.87,-104.76 651.26,-108.02 655,-111.85 711.2,-169.49 727.12,-270.05 731.45,-312.75"/>
<polygon fill="midnightblue" stroke="midnightblue" points="727.99,-313.32 732.38,-322.96 734.96,-312.69 727.99,-313.32"/>
</g>
<!-- Node6&#45;&gt;Node7 -->
<g id="edge8" class="edge">
<title>Node6&#45;&gt;Node7</title>
<path fill="none" stroke="midnightblue" d="M655.37,-76.75C663.96,-75.44 672.66,-74.1 680.98,-72.83"/>
<polygon fill="midnightblue" stroke="midnightblue" points="681.55,-76.28 690.91,-71.31 680.49,-69.36 681.55,-76.28"/>
</g>
<!-- Node8&#45;&gt;Node6 -->
<g id="edge13" class="edge">
<title>Node8&#45;&gt;Node6</title>
<path fill="none" stroke="midnightblue" d="M432.78,-194.62C450.51,-173.49 485.2,-135.24 522,-111.85 525.11,-109.88 528.4,-108.02 531.79,-106.28"/>
<polygon fill="midnightblue" stroke="midnightblue" points="533.38,-109.39 540.91,-101.94 530.38,-103.07 533.38,-109.39"/>
</g>
<!-- Node9 -->
<g id="node9" class="node">
<title>Node9</title>
<g id="a_node9"><a xlink:href="../../d6/d30/classmachine__learning_1_1adaline.html#a082f758fb55fe19f22b3df66f89b2325" target="_top" xlink:title=" ">
<polygon fill="white" stroke="black" points="522,-235.85 522,-265.85 655,-265.85 655,-235.85 522,-235.85"/>
<text text-anchor="start" x="530" y="-253.85" font-family="Helvetica,sans-Serif" font-size="10.00">machine_learning::adaline</text>
<text text-anchor="middle" x="588.5" y="-242.85" font-family="Helvetica,sans-Serif" font-size="10.00">::activation</text>
</a>
</g>
</g>
<!-- Node8&#45;&gt;Node9 -->
<g id="edge10" class="edge">
<title>Node8&#45;&gt;Node9</title>
<path fill="none" stroke="midnightblue" d="M481.74,-224.89C492.97,-227.64 504.78,-230.54 516.27,-233.37"/>
<polygon fill="midnightblue" stroke="midnightblue" points="515.72,-236.84 526.27,-235.82 517.39,-230.04 515.72,-236.84"/>
</g>
<!-- Node10 -->
<g id="node10" class="node">
<title>Node10</title>
<g id="a_node10"><a target="_blank" xlink:href="http://en.cppreference.com/w/cpp/container/vector/back.html#" xlink:title=" ">
<polygon fill="white" stroke="black" points="544,-197.35 544,-216.35 633,-216.35 633,-197.35 544,-197.35"/>
<text text-anchor="middle" x="588.5" y="-204.35" font-family="Helvetica,sans-Serif" font-size="10.00">std::vector::back</text>
</a>
</g>
</g>
<!-- Node8&#45;&gt;Node10 -->
<g id="edge11" class="edge">
<title>Node8&#45;&gt;Node10</title>
<path fill="none" stroke="midnightblue" d="M486.02,-208.68C501.76,-208.39 518.4,-208.09 533.54,-207.82"/>
<polygon fill="midnightblue" stroke="midnightblue" points="533.83,-211.32 543.76,-207.64 533.7,-204.32 533.83,-211.32"/>
</g>
<!-- Node11 -->
<g id="node11" class="node">
<title>Node11</title>
<g id="a_node11"><a target="_blank" xlink:href="http://en.cppreference.com/w/cpp/container/vector/begin.html#" xlink:title=" ">
<polygon fill="white" stroke="black" points="542,-159.35 542,-178.35 635,-178.35 635,-159.35 542,-159.35"/>
<text text-anchor="middle" x="588.5" y="-166.35" font-family="Helvetica,sans-Serif" font-size="10.00">std::vector::begin</text>
</a>
</g>
</g>
<!-- Node8&#45;&gt;Node11 -->
<g id="edge12" class="edge">
<title>Node8&#45;&gt;Node11</title>
<path fill="none" stroke="midnightblue" d="M481.74,-194.82C500.41,-190.23 520.69,-185.26 538.45,-180.9"/>
<polygon fill="midnightblue" stroke="midnightblue" points="539.71,-184.19 548.58,-178.41 538.04,-177.39 539.71,-184.19"/>
</g>
<!-- Node12 -->
<g id="node12" class="node">
<title>Node12</title>
<g id="a_node12"><a target="_blank" xlink:href="http://en.cppreference.com/w/cpp/container/vector/end.html#" xlink:title=" ">
<polygon fill="white" stroke="black" points="546,-121.35 546,-140.35 631,-140.35 631,-121.35 546,-121.35"/>
<text text-anchor="middle" x="588.5" y="-128.35" font-family="Helvetica,sans-Serif" font-size="10.00">std::vector::end</text>
</a>
</g>
</g>
<!-- Node8&#45;&gt;Node12 -->
<g id="edge14" class="edge">
<title>Node8&#45;&gt;Node12</title>
<path fill="none" stroke="midnightblue" d="M442.22,-194.83C462.21,-181.54 493.06,-162.36 522,-149.85 527.36,-147.54 533.09,-145.41 538.84,-143.48"/>
<polygon fill="midnightblue" stroke="midnightblue" points="540.01,-146.78 548.49,-140.42 537.9,-140.1 540.01,-146.78"/>
</g>
<!-- Node13 -->
<g id="node13" class="node">
<title>Node13</title>
<g id="a_node13"><a target="_blank" xlink:href="http://en.cppreference.com/w/cpp/algorithm/inner_product.html#" xlink:title=" ">
<polygon fill="white" stroke="black" points="540,-285.35 540,-304.35 637,-304.35 637,-285.35 540,-285.35"/>
<text text-anchor="middle" x="588.5" y="-292.35" font-family="Helvetica,sans-Serif" font-size="10.00">std::inner_product</text>
</a>
</g>
</g>
<!-- Node8&#45;&gt;Node13 -->
<g id="edge15" class="edge">
<title>Node8&#45;&gt;Node13</title>
<path fill="none" stroke="midnightblue" d="M440.09,-225.11C459.82,-239.85 491.61,-261.94 522,-275.85 527.05,-278.16 532.44,-280.27 537.89,-282.16"/>
<polygon fill="midnightblue" stroke="midnightblue" points="537.09,-285.58 547.68,-285.33 539.25,-278.92 537.09,-285.58"/>
</g>
<!-- Node14&#45;&gt;Node2 -->
<g id="edge19" class="edge">
<title>Node14&#45;&gt;Node2</title>
<path fill="none" stroke="midnightblue" d="M123.15,-236.61C136.15,-239.95 154.1,-244.41 170,-247.85 325.56,-281.56 364.33,-292.02 522,-313.85 583.13,-322.32 654.76,-327.85 696.88,-330.65"/>
<polygon fill="midnightblue" stroke="midnightblue" points="696.72,-334.15 706.92,-331.31 697.17,-327.17 696.72,-334.15"/>
</g>
<!-- Node14&#45;&gt;Node5 -->
<g id="edge20" class="edge">
<title>Node14&#45;&gt;Node5</title>
<path fill="none" stroke="midnightblue" d="M123.26,-229.33C134.05,-227.84 148.53,-225.84 163.68,-223.75"/>
<polygon fill="midnightblue" stroke="midnightblue" points="164.27,-227.2 173.7,-222.36 163.31,-220.26 164.27,-227.2"/>
</g>
<!-- Node14&#45;&gt;Node8 -->
<g id="edge21" class="edge">
<title>Node14&#45;&gt;Node8</title>
<path fill="none" stroke="midnightblue" d="M123.22,-233.16C159.99,-235.5 245.64,-239.5 317,-231.85 327.64,-230.71 338.8,-228.92 349.66,-226.84"/>
<polygon fill="midnightblue" stroke="midnightblue" points="350.43,-230.26 359.54,-224.85 349.05,-223.39 350.43,-230.26"/>
</g>
<!-- Node15 -->
<g id="node15" class="node">
<title>Node15</title>
<g id="a_node15"><a target="_blank" xlink:href="http://en.cppreference.com/w/cpp/numeric/random/rand.html#" xlink:title=" ">
<polygon fill="white" stroke="black" points="216,-165.35 216,-184.35 271,-184.35 271,-165.35 216,-165.35"/>
<text text-anchor="middle" x="243.5" y="-172.35" font-family="Helvetica,sans-Serif" font-size="10.00">std::rand</text>
</a>
</g>
</g>
<!-- Node14&#45;&gt;Node15 -->
<g id="edge22" class="edge">
<title>Node14&#45;&gt;Node15</title>
<path fill="none" stroke="midnightblue" d="M120.31,-222.25C136.21,-212.4 160.1,-197.95 170,-193.85 181.34,-189.16 194.17,-185.34 205.86,-182.39"/>
<polygon fill="midnightblue" stroke="midnightblue" points="206.84,-185.76 215.76,-180.03 205.22,-178.95 206.84,-185.76"/>
</g>
<!-- Node16&#45;&gt;Node2 -->
<g id="edge24" class="edge">
<title>Node16&#45;&gt;Node2</title>
<path fill="none" stroke="midnightblue" d="M121.07,-184.17C125.39,-181.33 129.98,-178.12 134,-174.85 151.56,-160.58 150.15,-149.71 170,-138.85 361.5,-34.14 480.63,69.41 655,-61.85 696.17,-92.84 722.37,-256.1 730.39,-313.15"/>
<polygon fill="midnightblue" stroke="midnightblue" points="726.96,-313.92 731.78,-323.35 733.89,-312.97 726.96,-313.92"/>
</g>
<!-- Node16&#45;&gt;Node5 -->
<g id="edge25" class="edge">
<title>Node16&#45;&gt;Node5</title>
<path fill="none" stroke="midnightblue" d="M123.26,-196.38C134.05,-197.87 148.53,-199.87 163.68,-201.96"/>
<polygon fill="midnightblue" stroke="midnightblue" points="163.31,-205.44 173.7,-203.35 164.27,-198.51 163.31,-205.44"/>
</g>
<!-- Node16&#45;&gt;Node8 -->
<g id="edge26" class="edge">
<title>Node16&#45;&gt;Node8</title>
<path fill="none" stroke="midnightblue" d="M119.29,-184.3C135.01,-174.01 159.46,-158.71 170,-155.85 233.06,-138.77 253.61,-140.04 317,-155.85 343.03,-162.35 369.71,-176.91 389.18,-189.28"/>
<polygon fill="midnightblue" stroke="midnightblue" points="387.3,-192.23 397.59,-194.77 391.13,-186.37 387.3,-192.23"/>
</g>
<!-- Node16&#45;&gt;Node15 -->
<g id="edge27" class="edge">
<title>Node16&#45;&gt;Node15</title>
<path fill="none" stroke="midnightblue" d="M123.26,-191.33C144.22,-188.43 179.13,-183.61 205.78,-179.93"/>
<polygon fill="midnightblue" stroke="midnightblue" points="206.47,-183.36 215.9,-178.53 205.52,-176.43 206.47,-183.36"/>
</g>
</g>
</svg>
        <g id="navigator" transform="translate(0 0)" fill="#404254">
                <rect fill="#f2f5e9" fill-opacity="0.5" stroke="#606060" stroke-width=".5" x="0" y="0" width="60" height="60"/>
                <use id="zoomplus" xlink:href="#zoomPlus" x="17" y="9" onmousedown="handleZoom(evt,'in')"/>
                <use id="zoomminus" xlink:href="#zoomMin" x="42" y="9" onmousedown="handleZoom(evt,'out')"/>
                <use id="reset" xlink:href="#resetDef" x="30" y="36" onmousedown="handleReset()"/>
                <g id="arrowUp" xlink:href="#dirArrow" transform="translate(30 24)" onmousedown="handlePan(0,-1)">
                  <use xlink:href="#rim" fill="#404040">
                        <set attributeName="fill" to="#808080" begin="arrowUp.mouseover" end="arrowUp.mouseout"/>
                  </use>
                  <path fill="none" stroke="white" stroke-width="1.5" d="M0,-3.0v7 M-2.5,-0.5L0,-3.0L2.5,-0.5"/>
                </g>
                <g id="arrowRight" xlink:href="#dirArrow" transform="rotate(90) translate(36 -43)" onmousedown="handlePan(1,0)">
                  <use xlink:href="#rim" fill="#404040">
                        <set attributeName="fill" to="#808080" begin="arrowRight.mouseover" end="arrowRight.mouseout"/>
                  </use>
                  <path fill="none" stroke="white" stroke-width="1.5" d="M0,-3.0v7 M-2.5,-0.5L0,-3.0L2.5,-0.5"/>
                </g>
                <g id="arrowDown" xlink:href="#dirArrow" transform="rotate(180) translate(-30 -48)" onmousedown="handlePan(0,1)">
                  <use xlink:href="#rim" fill="#404040">
                        <set attributeName="fill" to="#808080" begin="arrowDown.mouseover" end="arrowDown.mouseout"/>
                  </use>
                  <path fill="none" stroke="white" stroke-width="1.5" d="M0,-3.0v7 M-2.5,-0.5L0,-3.0L2.5,-0.5"/>
                </g>
                <g id="arrowLeft" xlink:href="#dirArrow" transform="rotate(270) translate(-36 17)" onmousedown="handlePan(-1,0)">
                  <use xlink:href="#rim" fill="#404040">
                        <set attributeName="fill" to="#808080" begin="arrowLeft.mouseover" end="arrowLeft.mouseout"/>
                  </use>
                  <path fill="none" stroke="white" stroke-width="1.5" d="M0,-3.0v7 M-2.5,-0.5L0,-3.0L2.5,-0.5"/>
                </g>
        </g>
        <svg viewBox="0 0 15 15" width="100%" height="30px" preserveAspectRatio="xMaxYMin meet">
         <g id="arrow_out" transform="scale(0.3 0.3)">
          <a xlink:href="adaline__learning_8cpp_a3c04138a5bfe5d72780bb7e82a18e627_cgraph_org.svg" target="_base">
           <rect id="button" ry="5" rx="5" y="6" x="6" height="38" width="38"
                fill="#f2f5e9" fill-opacity="0.5" stroke="#606060" stroke-width="1.0"/>
           <path id="arrow"
             d="M 11.500037,31.436501 C 11.940474,20.09759 22.043105,11.32322 32.158766,21.979434 L 37.068811,17.246167 C 37.068811,17.246167 37.088388,32 37.088388,32 L 22.160133,31.978069 C 22.160133,31.978069 26.997745,27.140456 26.997745,27.140456 C 18.528582,18.264221 13.291696,25.230495 11.500037,31.436501 z"
             style="fill:#404040;"/>
          </a>
         </g>
        </svg>
</svg>
