<?xml version="1.0" encoding="UTF-8" standalone="no"?>
<!DOCTYPE svg PUBLIC "-//W3C//DTD SVG 1.1//EN"
 "http://www.w3.org/Graphics/SVG/1.1/DTD/svg11.dtd">
<!-- Generated by graphviz version 9.0.0 (20230911.1827)
 -->
<!-- Title: main Pages: 1 -->
<!--zoomable 325 -->

<svg id="main" version="1.1" xmlns="http://www.w3.org/2000/svg" xmlns:xlink="http://www.w3.org/1999/xlink" xml:space="preserve" onload="init(evt)">
<style type="text/css"><![CDATA[
.node, .edge {opacity: 0.7;}
.node.selected, .edge.selected {opacity: 1;}
.edge:hover path { stroke: red; }
.edge:hover polygon { stroke: red; fill: red; }
]]></style>

<defs>
  <circle id="rim" cx="0" cy="0" r="7"/>
  <circle id="rim2" cx="0" cy="0" r="3.5"/>
  <g id="zoomPlus">
    <use xlink:href="#rim" fill="#404040"><set attributeName="fill" to="#808080" begin="zoomplus.mouseover" end="zoomplus.mouseout"/></use>
    <path d="M-4,0h8M0,-4v8" fill="none" stroke="white" stroke-width="1.5" pointer-events="none"/>
  </g>
  <g id="zoomMin">
    <use xlink:href="#rim" fill="#404040"><set attributeName="fill" to="#808080" begin="zoomminus.mouseover" end="zoomminus.mouseout"/></use>
    <path d="M-4,0h8" fill="none" stroke="white" stroke-width="1.5" pointer-events="none"/>
  </g>
  <g id="arrowUp" transform="translate(30 24)">
    <use xlink:href="#rim"/>
    <path pointer-events="none" fill="none" stroke="white" stroke-width="1.5" d="M0,-3.0v7 M-2.5,-0.5L0,-3.0L2.5,-0.5"/>
  </g>
  <g id="arrowRight" transform="rotate(90) translate(36 -43)">
    <use xlink:href="#rim"/>
    <path pointer-events="none" fill="none" stroke="white" stroke-width="1.5" d="M0,-3.0v7 M-2.5,-0.5L0,-3.0L2.5,-0.5"/>
  </g>
  <g id="arrowDown" transform="rotate(180) translate(-30 -48)">
    <use xlink:href="#rim"/>
    <path pointer-events="none" fill="none" stroke="white" stroke-width="1.5" d="M0,-3.0v7 M-2.5,-0.5L0,-3.0L2.5,-0.5"/>
  </g>
  <g id="arrowLeft" transform="rotate(270) translate(-36 17)">
    <use xlink:href="#rim"/>
    <path pointer-events="none" fill="none" stroke="white" stroke-width="1.5" d="M0,-3.0v7 M-2.5,-0.5L0,-3.0L2.5,-0.5"/>
  </g>
  <g id="resetDef">
    <use xlink:href="#rim2" fill="#404040"><set attributeName="fill" to="#808080" begin="reset.mouseover" end="reset.mouseout"/></use>
  </g>
</defs>
<script type="application/ecmascript">
var viewWidth = 514;
var viewHeight = 325;
var sectionId = 'dynsection-1';
</script>
<script type="application/ecmascript" xlink:href="../../svg.min.js"/>
<svg id="graph" class="graph">
<g id="viewport">
<title>main</title>
<!-- Node1 -->
<g id="Node000001" class="node">
<title>Node1</title>
<g id="a_Node000001"><a xlink:title=" ">
<polygon fill="#999999" stroke="#666666" points="37,-168.25 0,-168.25 0,-149 37,-149 37,-168.25"/>
<text text-anchor="middle" x="18.5" y="-154.75" font-family="Helvetica,sans-Serif" font-size="10.00">main</text>
</a>
</g>
</g>
<!-- Node2 -->
<g id="Node000002" class="node">
<title>Node2</title>
<g id="a_Node000002"><a target="_blank" xlink:href="http://en.cppreference.com/w/cpp/io/manip/endl.html#" xlink:title=" ">
<polygon fill="white" stroke="#666666" points="129.5,-261.25 76,-261.25 76,-242 129.5,-242 129.5,-261.25"/>
<text text-anchor="middle" x="102.75" y="-247.75" font-family="Helvetica,sans-Serif" font-size="10.00">std::endl</text>
</a>
</g>
</g>
<!-- Node1&#45;&gt;Node2 -->
<g id="edge1_Node000001_Node000002" class="edge">
<title>Node1&#45;&gt;Node2</title>
<g id="a_edge1_Node000001_Node000002"><a xlink:title=" ">
<path fill="none" stroke="#63b8ff" d="M24.87,-168.55C33.51,-183.86 51.69,-213.56 73,-233.62 73.39,-233.99 73.78,-234.35 74.18,-234.7"/>
<polygon fill="#63b8ff" stroke="#63b8ff" points="72.03,-237.46 82.12,-240.69 76.24,-231.87 72.03,-237.46"/>
</a>
</g>
</g>
<!-- Node3 -->
<g id="Node000003" class="node">
<title>Node3</title>
<g id="a_Node000003"><a target="_blank" xlink:href="http://en.cppreference.com/w/cpp/numeric/random/srand.html#" xlink:title=" ">
<polygon fill="white" stroke="#666666" points="132.5,-224.25 73,-224.25 73,-205 132.5,-205 132.5,-224.25"/>
<text text-anchor="middle" x="102.75" y="-210.75" font-family="Helvetica,sans-Serif" font-size="10.00">std::srand</text>
</a>
</g>
</g>
<!-- Node1&#45;&gt;Node3 -->
<g id="edge2_Node000001_Node000003" class="edge">
<title>Node1&#45;&gt;Node3</title>
<g id="a_edge2_Node000001_Node000003"><a xlink:title=" ">
<path fill="none" stroke="#63b8ff" d="M32.98,-168.53C43.71,-176.33 59.16,-187.39 73,-196.62 73.86,-197.2 74.73,-197.78 75.62,-198.36"/>
<polygon fill="#63b8ff" stroke="#63b8ff" points="73.64,-201.25 83.95,-203.69 77.42,-195.35 73.64,-201.25"/>
</a>
</g>
</g>
<!-- Node4 -->
<g id="Node000004" class="node">
<title>Node4</title>
<g id="a_Node000004"><a xlink:href="../../d3/dae/dsu__path__compression_8cpp.html#ae7880ce913f3058a35ff106d5be9e243" target="_top" xlink:title="Self&#45;test implementations, 1st test.">
<polygon fill="white" stroke="#666666" points="121.62,-187.25 83.88,-187.25 83.88,-168 121.62,-168 121.62,-187.25"/>
<text text-anchor="middle" x="102.75" y="-173.75" font-family="Helvetica,sans-Serif" font-size="10.00">test1</text>
</a>
</g>
</g>
<!-- Node1&#45;&gt;Node4 -->
<g id="edge3_Node000001_Node000004" class="edge">
<title>Node1&#45;&gt;Node4</title>
<g id="a_edge3_Node000001_Node000004"><a xlink:title=" ">
<path fill="none" stroke="#63b8ff" d="M37.35,-162.75C47.62,-165.12 60.79,-168.16 72.54,-170.88"/>
<polygon fill="#63b8ff" stroke="#63b8ff" points="71.65,-174.26 82.18,-173.1 73.22,-167.44 71.65,-174.26"/>
</a>
</g>
</g>
<!-- Node16 -->
<g id="Node000016" class="node">
<title>Node16</title>
<g id="a_Node000016"><a xlink:href="../../d3/dae/dsu__path__compression_8cpp.html#a45d94ead4cf4e1ff9f87c38bc99f59ae" target="_top" xlink:title="Self&#45;implementations, 2nd test.">
<polygon fill="white" stroke="#666666" points="121.62,-150.25 83.88,-150.25 83.88,-131 121.62,-131 121.62,-150.25"/>
<text text-anchor="middle" x="102.75" y="-136.75" font-family="Helvetica,sans-Serif" font-size="10.00">test2</text>
</a>
</g>
</g>
<!-- Node1&#45;&gt;Node16 -->
<g id="edge20_Node000001_Node000016" class="edge">
<title>Node1&#45;&gt;Node16</title>
<g id="a_edge20_Node000001_Node000016"><a xlink:title=" ">
<path fill="none" stroke="#63b8ff" d="M37.35,-154.72C47.62,-152.47 60.79,-149.59 72.54,-147.02"/>
<polygon fill="#63b8ff" stroke="#63b8ff" points="73.15,-150.47 82.18,-144.91 71.66,-143.63 73.15,-150.47"/>
</a>
</g>
</g>
<!-- Node17 -->
<g id="Node000017" class="node">
<title>Node17</title>
<g id="a_Node000017"><a xlink:href="../../dd/d0c/hamiltons__cycle_8cpp.html#a0cc94918b6831f308d4fe4fa27f08299" target="_top" xlink:title=" ">
<polygon fill="white" stroke="#666666" points="121.62,-113.25 83.88,-113.25 83.88,-94 121.62,-94 121.62,-113.25"/>
<text text-anchor="middle" x="102.75" y="-99.75" font-family="Helvetica,sans-Serif" font-size="10.00">test3</text>
</a>
</g>
</g>
<!-- Node1&#45;&gt;Node17 -->
<g id="edge24_Node000001_Node000017" class="edge">
<title>Node1&#45;&gt;Node17</title>
<g id="a_edge24_Node000001_Node000017"><a xlink:title=" ">
<path fill="none" stroke="#63b8ff" d="M33.46,-148.71C44.19,-141.16 59.42,-130.57 73,-121.62 74.01,-120.96 75.04,-120.29 76.08,-119.61"/>
<polygon fill="#63b8ff" stroke="#63b8ff" points="77.72,-122.72 84.27,-114.4 73.96,-116.82 77.72,-122.72"/>
</a>
</g>
</g>
<!-- Node20 -->
<g id="Node000020" class="node">
<title>Node20</title>
<g id="a_Node000020"><a target="_blank" xlink:href="http://en.cppreference.com/w/cpp/chrono/c/time.html#" xlink:title=" ">
<polygon fill="white" stroke="#666666" points="129.88,-76.25 75.62,-76.25 75.62,-57 129.88,-57 129.88,-76.25"/>
<text text-anchor="middle" x="102.75" y="-62.75" font-family="Helvetica,sans-Serif" font-size="10.00">std::time</text>
</a>
</g>
</g>
<!-- Node1&#45;&gt;Node20 -->
<g id="edge27_Node000001_Node000020" class="edge">
<title>Node1&#45;&gt;Node20</title>
<g id="a_edge27_Node000001_Node000020"><a xlink:title=" ">
<path fill="none" stroke="#63b8ff" d="M25.04,-148.59C33.78,-133.42 51.93,-104.34 73,-84.62 73.39,-84.26 73.78,-83.9 74.19,-83.55"/>
<polygon fill="#63b8ff" stroke="#63b8ff" points="76.24,-86.38 82.13,-77.57 72.04,-80.79 76.24,-86.38"/>
</a>
</g>
</g>
<!-- Node5 -->
<g id="Node000005" class="node">
<title>Node5</title>
<g id="a_Node000005"><a target="_blank" xlink:href="http://en.cppreference.com/w/cpp/container/vector/at.html#" xlink:title=" ">
<polygon fill="white" stroke="#666666" points="247.5,-224.25 170.75,-224.25 170.75,-205 247.5,-205 247.5,-224.25"/>
<text text-anchor="middle" x="209.12" y="-210.75" font-family="Helvetica,sans-Serif" font-size="10.00">std::vector::at</text>
</a>
</g>
</g>
<!-- Node4&#45;&gt;Node5 -->
<g id="edge4_Node000004_Node000005" class="edge">
<title>Node4&#45;&gt;Node5</title>
<g id="a_edge4_Node000004_Node000005"><a xlink:title=" ">
<path fill="none" stroke="#63b8ff" d="M121.93,-184.07C134.93,-188.68 152.92,-195.06 169.11,-200.79"/>
<polygon fill="#63b8ff" stroke="#63b8ff" points="167.92,-204.09 178.51,-204.13 170.26,-197.49 167.92,-204.09"/>
</a>
</g>
</g>
<!-- Node6 -->
<g id="Node000006" class="node">
<title>Node6</title>
<g id="a_Node000006"><a xlink:href="../../dd/d1f/classdsu.html#a0ce2672c570f4235eafddb0c9a58115a" target="_top" xlink:title="prints the minimum, maximum and size of the set to which i belongs to">
<polygon fill="white" stroke="#666666" points="234.75,-130.25 183.5,-130.25 183.5,-111 234.75,-111 234.75,-130.25"/>
<text text-anchor="middle" x="209.12" y="-116.75" font-family="Helvetica,sans-Serif" font-size="10.00">dsu::get</text>
</a>
</g>
</g>
<!-- Node4&#45;&gt;Node6 -->
<g id="edge5_Node000004_Node000006" class="edge">
<title>Node4&#45;&gt;Node6</title>
<g id="a_edge5_Node000004_Node000006"><a xlink:title=" ">
<path fill="none" stroke="#63b8ff" d="M121.93,-167.7C137.92,-158.96 161.46,-146.11 179.9,-136.04"/>
<polygon fill="#63b8ff" stroke="#63b8ff" points="181.38,-139.22 188.47,-131.36 178.02,-133.08 181.38,-139.22"/>
</a>
</g>
</g>
<!-- Node11 -->
<g id="Node000011" class="node">
<title>Node11</title>
<g id="a_Node000011"><a xlink:href="../../dd/d1f/classdsu.html#a6ac30c07abca2aaa3b291504c25c3559" target="_top" xlink:title="Method that combines two disjoint sets to which i and j belongs to and make a single set having a com...">
<polygon fill="white" stroke="#666666" points="248.25,-187.25 170,-187.25 170,-168 248.25,-168 248.25,-187.25"/>
<text text-anchor="middle" x="209.12" y="-173.75" font-family="Helvetica,sans-Serif" font-size="10.00">dsu::UnionSet</text>
</a>
</g>
</g>
<!-- Node4&#45;&gt;Node11 -->
<g id="edge13_Node000004_Node000011" class="edge">
<title>Node4&#45;&gt;Node11</title>
<g id="a_edge13_Node000004_Node000011"><a xlink:title=" ">
<path fill="none" stroke="#63b8ff" d="M121.93,-177.62C132.14,-177.62 145.42,-177.62 158.49,-177.62"/>
<polygon fill="#63b8ff" stroke="#63b8ff" points="158.33,-181.13 168.33,-177.63 158.33,-174.13 158.33,-181.13"/>
</a>
</g>
</g>
<!-- Node7 -->
<g id="Node000007" class="node">
<title>Node7</title>
<g id="a_Node000007"><a xlink:href="../../dd/d1f/classdsu.html#a696141b8b092466767f4bfe1c5e46cde" target="_top" xlink:title="A utility function that returns the max element of the set to which i belongs to.">
<polygon fill="white" stroke="#666666" points="381.25,-93.25 306,-93.25 306,-74 381.25,-74 381.25,-93.25"/>
<text text-anchor="middle" x="343.62" y="-79.75" font-family="Helvetica,sans-Serif" font-size="10.00">dsu::get_max</text>
</a>
</g>
</g>
<!-- Node6&#45;&gt;Node7 -->
<g id="edge6_Node000006_Node000007" class="edge">
<title>Node6&#45;&gt;Node7</title>
<g id="a_edge6_Node000006_Node000007"><a xlink:title=" ">
<path fill="none" stroke="#63b8ff" d="M235.05,-113.67C252.06,-108.91 275.13,-102.47 295.54,-96.77"/>
<polygon fill="#63b8ff" stroke="#63b8ff" points="296.41,-100.16 305.1,-94.1 294.53,-93.42 296.41,-100.16"/>
</a>
</g>
</g>
<!-- Node9 -->
<g id="Node000009" class="node">
<title>Node9</title>
<g id="a_Node000009"><a xlink:href="../../dd/d1f/classdsu.html#ac713a5b496d0405c82e2808a85e58415" target="_top" xlink:title="A utility function that returns the min element of the set to which i belongs to.">
<polygon fill="white" stroke="#666666" points="379.75,-56.25 307.5,-56.25 307.5,-37 379.75,-37 379.75,-56.25"/>
<text text-anchor="middle" x="343.62" y="-42.75" font-family="Helvetica,sans-Serif" font-size="10.00">dsu::get_min</text>
</a>
</g>
</g>
<!-- Node6&#45;&gt;Node9 -->
<g id="edge9_Node000006_Node000009" class="edge">
<title>Node6&#45;&gt;Node9</title>
<g id="a_edge9_Node000006_Node000009"><a xlink:title=" ">
<path fill="none" stroke="#63b8ff" d="M221.12,-110.62C235.19,-98.29 260.72,-77.4 285.75,-64.62 289.17,-62.88 292.8,-61.26 296.5,-59.77"/>
<polygon fill="#63b8ff" stroke="#63b8ff" points="297.41,-63.16 305.59,-56.42 295,-56.59 297.41,-63.16"/>
</a>
</g>
</g>
<!-- Node10 -->
<g id="Node000010" class="node">
<title>Node10</title>
<g id="a_Node000010"><a xlink:href="../../dd/d1f/classdsu.html#a1c24228b0f2f49220133fb8c3566a55c" target="_top" xlink:title="A utility function that returns the size of the set to which i belongs to.">
<polygon fill="white" stroke="#666666" points="371.5,-130.25 315.75,-130.25 315.75,-111 371.5,-111 371.5,-130.25"/>
<text text-anchor="middle" x="343.62" y="-116.75" font-family="Helvetica,sans-Serif" font-size="10.00">dsu::size</text>
</a>
</g>
</g>
<!-- Node6&#45;&gt;Node10 -->
<g id="edge11_Node000006_Node000010" class="edge">
<title>Node6&#45;&gt;Node10</title>
<g id="a_edge11_Node000006_Node000010"><a xlink:title=" ">
<path fill="none" stroke="#63b8ff" d="M235.05,-120.62C254.49,-120.62 281.84,-120.62 304.1,-120.62"/>
<polygon fill="#63b8ff" stroke="#63b8ff" points="304.02,-124.13 314.02,-120.63 304.02,-117.13 304.02,-124.13"/>
</a>
</g>
</g>
<!-- Node8 -->
<g id="Node000008" class="node">
<title>Node8</title>
<g id="a_Node000008"><a xlink:href="../../dd/d1f/classdsu.html#a16851f78fe390fc1430905c83d6a2f1c" target="_top" xlink:title="Method to find the representative of the set to which i belongs to, T(n) = O(1)">
<polygon fill="white" stroke="#666666" points="506,-130.25 437.5,-130.25 437.5,-111 506,-111 506,-130.25"/>
<text text-anchor="middle" x="471.75" y="-116.75" font-family="Helvetica,sans-Serif" font-size="10.00">dsu::findSet</text>
</a>
</g>
</g>
<!-- Node7&#45;&gt;Node8 -->
<g id="edge7_Node000007_Node000008" class="edge">
<title>Node7&#45;&gt;Node8</title>
<g id="a_edge7_Node000007_Node000008"><a xlink:title=" ">
<path fill="none" stroke="#63b8ff" d="M379.09,-93.74C393.64,-98.01 410.78,-103.03 426.27,-107.58"/>
<polygon fill="#63b8ff" stroke="#63b8ff" points="425.17,-110.9 435.75,-110.36 427.14,-104.18 425.17,-110.9"/>
</a>
</g>
</g>
<!-- Node8&#45;&gt;Node8 -->
<g id="edge8_Node000008_Node000008" class="edge">
<title>Node8&#45;&gt;Node8</title>
<g id="a_edge8_Node000008_Node000008"><a xlink:title=" ">
<path fill="none" stroke="#63b8ff" d="M451.69,-130.54C442.54,-139.15 449.23,-148.25 471.75,-148.25 484.07,-148.25 491.65,-145.53 494.49,-141.65"/>
<polygon fill="#63b8ff" stroke="#63b8ff" points="497.91,-140.91 492.16,-132.01 491.11,-142.55 497.91,-140.91"/>
</a>
</g>
</g>
<!-- Node9&#45;&gt;Node8 -->
<g id="edge10_Node000009_Node000008" class="edge">
<title>Node9&#45;&gt;Node8</title>
<g id="a_edge10_Node000009_Node000008"><a xlink:title=" ">
<path fill="none" stroke="#63b8ff" d="M380.05,-55.58C387.35,-58.04 394.84,-61.05 401.5,-64.62 420.53,-74.86 439.42,-90.61 452.65,-102.8"/>
<polygon fill="#63b8ff" stroke="#63b8ff" points="450.08,-105.18 459.74,-109.52 454.89,-100.1 450.08,-105.18"/>
</a>
</g>
</g>
<!-- Node10&#45;&gt;Node8 -->
<g id="edge12_Node000010_Node000008" class="edge">
<title>Node10&#45;&gt;Node8</title>
<g id="a_edge12_Node000010_Node000008"><a xlink:title=" ">
<path fill="none" stroke="#63b8ff" d="M371.99,-120.62C387.68,-120.62 407.77,-120.62 425.72,-120.62"/>
<polygon fill="#63b8ff" stroke="#63b8ff" points="425.63,-124.13 435.63,-120.63 425.63,-117.13 425.63,-124.13"/>
</a>
</g>
</g>
<!-- Node11&#45;&gt;Node8 -->
<g id="edge14_Node000011_Node000008" class="edge">
<title>Node11&#45;&gt;Node8</title>
<g id="a_edge14_Node000011_Node000008"><a xlink:title=" ">
<path fill="none" stroke="#63b8ff" d="M248.42,-170.86C287.18,-163.81 348.75,-152.08 401.5,-139.62 409.51,-137.73 417.99,-135.56 426.17,-133.36"/>
<polygon fill="#63b8ff" stroke="#63b8ff" points="426.88,-136.8 435.6,-130.79 425.03,-130.04 426.88,-136.8"/>
</a>
</g>
</g>
<!-- Node12 -->
<g id="Node000012" class="node">
<title>Node12</title>
<g id="a_Node000012"><a xlink:href="../../dd/d1f/classdsu.html#a64d25c5986742f7c234ed449b2ff7303" target="_top" xlink:title="A utility function which check whether i and j belongs to same set or not.">
<polygon fill="white" stroke="#666666" points="379,-317.25 308.25,-317.25 308.25,-298 379,-298 379,-317.25"/>
<text text-anchor="middle" x="343.62" y="-303.75" font-family="Helvetica,sans-Serif" font-size="10.00">dsu::isSame</text>
</a>
</g>
</g>
<!-- Node11&#45;&gt;Node12 -->
<g id="edge15_Node000011_Node000012" class="edge">
<title>Node11&#45;&gt;Node12</title>
<g id="a_edge15_Node000011_Node000012"><a xlink:title=" ">
<path fill="none" stroke="#63b8ff" d="M239.18,-187.54C243.07,-189.76 246.75,-192.43 249.75,-195.62 280.41,-228.2 253.19,-258.94 285.75,-289.62 289.18,-292.86 293.2,-295.52 297.47,-297.69"/>
<polygon fill="#63b8ff" stroke="#63b8ff" points="295.81,-300.79 306.39,-301.38 298.48,-294.32 295.81,-300.79"/>
</a>
</g>
</g>
<!-- Node13 -->
<g id="Node000013" class="node">
<title>Node13</title>
<g id="a_Node000013"><a target="_blank" xlink:href="http://en.cppreference.com/w/cpp/algorithm/max.html#" xlink:title=" ">
<polygon fill="white" stroke="#666666" points="370.75,-280.25 316.5,-280.25 316.5,-261 370.75,-261 370.75,-280.25"/>
<text text-anchor="middle" x="343.62" y="-266.75" font-family="Helvetica,sans-Serif" font-size="10.00">std::max</text>
</a>
</g>
</g>
<!-- Node11&#45;&gt;Node13 -->
<g id="edge17_Node000011_Node000013" class="edge">
<title>Node11&#45;&gt;Node13</title>
<g id="a_edge17_Node000011_Node000013"><a xlink:title=" ">
<path fill="none" stroke="#63b8ff" d="M237.82,-187.67C242.07,-189.9 246.22,-192.55 249.75,-195.62 272.34,-215.31 262.02,-234.33 285.75,-252.62 291.51,-257.07 298.39,-260.43 305.34,-262.96"/>
<polygon fill="#63b8ff" stroke="#63b8ff" points="304.14,-266.25 314.72,-265.86 306.2,-259.57 304.14,-266.25"/>
</a>
</g>
</g>
<!-- Node14 -->
<g id="Node000014" class="node">
<title>Node14</title>
<g id="a_Node000014"><a target="_blank" xlink:href="http://en.cppreference.com/w/cpp/algorithm/min.html#" xlink:title=" ">
<polygon fill="white" stroke="#666666" points="369.25,-243.25 318,-243.25 318,-224 369.25,-224 369.25,-243.25"/>
<text text-anchor="middle" x="343.62" y="-229.75" font-family="Helvetica,sans-Serif" font-size="10.00">std::min</text>
</a>
</g>
</g>
<!-- Node11&#45;&gt;Node14 -->
<g id="edge18_Node000011_Node000014" class="edge">
<title>Node11&#45;&gt;Node14</title>
<g id="a_edge18_Node000011_Node000014"><a xlink:title=" ">
<path fill="none" stroke="#63b8ff" d="M232.91,-187.59C238.46,-190.13 244.35,-192.91 249.75,-195.62 266.1,-203.86 268.94,-208.38 285.75,-215.62 292.43,-218.5 299.72,-221.16 306.79,-223.49"/>
<polygon fill="#63b8ff" stroke="#63b8ff" points="305.56,-226.77 316.15,-226.43 307.66,-220.1 305.56,-226.77"/>
</a>
</g>
</g>
<!-- Node15 -->
<g id="Node000015" class="node">
<title>Node15</title>
<g id="a_Node000015"><a target="_blank" xlink:href="http://en.cppreference.com/w/cpp/algorithm/swap.html#" xlink:title=" ">
<polygon fill="white" stroke="#666666" points="373,-206.25 314.25,-206.25 314.25,-187 373,-187 373,-206.25"/>
<text text-anchor="middle" x="343.62" y="-192.75" font-family="Helvetica,sans-Serif" font-size="10.00">std::swap</text>
</a>
</g>
</g>
<!-- Node11&#45;&gt;Node15 -->
<g id="edge19_Node000011_Node000015" class="edge">
<title>Node11&#45;&gt;Node15</title>
<g id="a_edge19_Node000011_Node000015"><a xlink:title=" ">
<path fill="none" stroke="#63b8ff" d="M248.45,-183.12C265.46,-185.56 285.49,-188.43 302.69,-190.9"/>
<polygon fill="#63b8ff" stroke="#63b8ff" points="302.18,-194.36 312.57,-192.32 303.17,-187.43 302.18,-194.36"/>
</a>
</g>
</g>
<!-- Node12&#45;&gt;Node8 -->
<g id="edge16_Node000012_Node000008" class="edge">
<title>Node12&#45;&gt;Node8</title>
<g id="a_edge16_Node000012_Node000008"><a xlink:title=" ">
<path fill="none" stroke="#63b8ff" d="M379.37,-301.86C387.37,-299.2 395.33,-295.31 401.5,-289.62 445.32,-249.28 462.12,-177.14 467.96,-141.6"/>
<polygon fill="#63b8ff" stroke="#63b8ff" points="471.35,-142.57 469.37,-132.16 464.43,-141.53 471.35,-142.57"/>
</a>
</g>
</g>
<!-- Node16&#45;&gt;Node5 -->
<g id="edge21_Node000016_Node000005" class="edge">
<title>Node16&#45;&gt;Node5</title>
<g id="a_edge21_Node000016_Node000005"><a xlink:title=" ">
<path fill="none" stroke="#63b8ff" d="M121.27,-150.6C125.1,-153.05 129.04,-155.79 132.5,-158.62 150.5,-173.36 149.56,-183.12 168.5,-196.62 169.68,-197.46 170.9,-198.28 172.15,-199.07"/>
<polygon fill="#63b8ff" stroke="#63b8ff" points="170.4,-202.1 180.85,-203.86 173.78,-195.96 170.4,-202.1"/>
</a>
</g>
</g>
<!-- Node16&#45;&gt;Node6 -->
<g id="edge22_Node000016_Node000006" class="edge">
<title>Node16&#45;&gt;Node6</title>
<g id="a_edge22_Node000016_Node000006"><a xlink:title=" ">
<path fill="none" stroke="#63b8ff" d="M121.93,-137.14C135.69,-134.5 155.04,-130.8 171.92,-127.56"/>
<polygon fill="#63b8ff" stroke="#63b8ff" points="172.47,-131.02 181.63,-125.7 171.15,-124.15 172.47,-131.02"/>
</a>
</g>
</g>
<!-- Node16&#45;&gt;Node11 -->
<g id="edge23_Node000016_Node000011" class="edge">
<title>Node16&#45;&gt;Node11</title>
<g id="a_edge23_Node000016_Node000011"><a xlink:title=" ">
<path fill="none" stroke="#63b8ff" d="M121.93,-147.07C134.93,-151.68 152.92,-158.06 169.11,-163.79"/>
<polygon fill="#63b8ff" stroke="#63b8ff" points="167.92,-167.09 178.51,-167.13 170.26,-160.49 167.92,-167.09"/>
</a>
</g>
</g>
<!-- Node18 -->
<g id="Node000018" class="node">
<title>Node18</title>
<g id="a_Node000018"><a xlink:href="../../dd/d0c/hamiltons__cycle_8cpp.html#abcf824e347eecfeeb69ea0280f34f3e4" target="_top" xlink:title=" ">
<polygon fill="white" stroke="#666666" points="249.75,-56.25 168.5,-56.25 168.5,-37 249.75,-37 249.75,-56.25"/>
<text text-anchor="middle" x="209.12" y="-42.75" font-family="Helvetica,sans-Serif" font-size="10.00">hamilton_cycle</text>
</a>
</g>
</g>
<!-- Node17&#45;&gt;Node18 -->
<g id="edge25_Node000017_Node000018" class="edge">
<title>Node17&#45;&gt;Node18</title>
<g id="a_edge25_Node000017_Node000018"><a xlink:title=" ">
<path fill="none" stroke="#63b8ff" d="M121.93,-93.7C137.92,-84.96 161.46,-72.11 179.9,-62.04"/>
<polygon fill="#63b8ff" stroke="#63b8ff" points="181.38,-65.22 188.47,-57.36 178.02,-59.08 181.38,-65.22"/>
</a>
</g>
</g>
<!-- Node19 -->
<g id="Node000019" class="node">
<title>Node19</title>
<g id="a_Node000019"><a target="_blank" xlink:href="http://en.cppreference.com/w/cpp/container/vector/push_back.html#" xlink:title=" ">
<polygon fill="white" stroke="#666666" points="401.5,-19.25 285.75,-19.25 285.75,0 401.5,0 401.5,-19.25"/>
<text text-anchor="middle" x="343.62" y="-5.75" font-family="Helvetica,sans-Serif" font-size="10.00">std::vector::push_back</text>
</a>
</g>
</g>
<!-- Node18&#45;&gt;Node19 -->
<g id="edge26_Node000018_Node000019" class="edge">
<title>Node18&#45;&gt;Node19</title>
<g id="a_edge26_Node000018_Node000019"><a xlink:title=" ">
<path fill="none" stroke="#63b8ff" d="M246.33,-36.51C261.52,-32.27 279.39,-27.28 295.58,-22.76"/>
<polygon fill="#63b8ff" stroke="#63b8ff" points="296.31,-26.19 305,-20.13 294.43,-19.45 296.31,-26.19"/>
</a>
</g>
</g>
</g>
</svg>

<g id="navigator" transform="translate(0 0)" fill="#404254">
  <rect fill="#f2f5e9" fill-opacity="0.5" stroke="#606060" stroke-width=".5" x="0" y="0" width="60" height="60"/>
  <use id="zoomplus" xlink:href="#zoomPlus" x="17" y="9" onmousedown="handleZoom(evt,'in')"/>
  <use id="zoomminus" xlink:href="#zoomMin" x="42" y="9" onmousedown="handleZoom(evt,'out')"/>
  <use id="reset" xlink:href="#resetDef" x="30" y="36" onmousedown="handleReset()"/>
   <use id="arrowup" xlink:href="#arrowUp" x="0" y="0" onmousedown="handlePan(0,-1)"/>
  <use id="arrowright" xlink:href="#arrowRight" x="0" y="0" onmousedown="handlePan(1,0)"/>
  <use id="arrowdown" xlink:href="#arrowDown" x="0" y="0" onmousedown="handlePan(0,1)"/>
  <use id="arrowleft" xlink:href="#arrowLeft" x="0" y="0" onmousedown="handlePan(-1,0)"/>
</g>
<svg viewBox="0 0 15 15" width="100%" height="30px" preserveAspectRatio="xMaxYMin meet">
 <g id="arrow_out" transform="scale(0.3 0.3)">
  <a xlink:href="adaline__learning_8cpp_a3c04138a5bfe5d72780bb7e82a18e627_cgraph_org.svg" target="_base">
   <rect id="button" ry="5" rx="5" y="6" x="6" height="38" width="38"
        fill="#f2f5e9" fill-opacity="0.5" stroke="#606060" stroke-width="1.0"/>
   <path id="arrow"
     d="M 11.500037,31.436501 C 11.940474,20.09759 22.043105,11.32322 32.158766,21.979434 L 37.068811,17.246167 C 37.068811,17.246167 37.088388,32 37.088388,32 L 22.160133,31.978069 C 22.160133,31.978069 26.997745,27.140456 26.997745,27.140456 C 18.528582,18.264221 13.291696,25.230495 11.500037,31.436501 z"
     style="fill:#404040;"/>
  </a>
 </g>
</svg>

<style type='text/css'>
<![CDATA[
[data-mouse-over-selected='false'] { opacity: 0.7; }
[data-mouse-over-selected='true']  { opacity: 1.0; }
]]>
</style>
<script type="application/ecmascript"><![CDATA[
document.addEventListener('DOMContentLoaded', (event) => {
  highlightEdges();
  highlightAdjacentNodes();
});
]]></script>
</svg>
