<?xml version="1.0" encoding="UTF-8" standalone="no"?>
<!DOCTYPE svg PUBLIC "-//W3C//DTD SVG 1.1//EN"
 "http://www.w3.org/Graphics/SVG/1.1/DTD/svg11.dtd">
<!-- Generated by graphviz version 2.49.3 (20211023.0002)
 -->
<!-- Title: main Pages: 1 -->
<!--zoomable 365 -->
<svg id="main" version="1.1" xmlns="http://www.w3.org/2000/svg" xmlns:xlink="http://www.w3.org/1999/xlink" xml:space="preserve" onload="init(evt)">
<style type="text/css"><![CDATA[
.edge:hover path { stroke: red; }
.edge:hover polygon { stroke: red; fill: red; }
]]></style>
<script type="text/javascript"><![CDATA[
var edges = document.getElementsByTagName('g');
if (edges && edges.length) {
  for (var i=0;i<edges.length;i++) {
    if (edges[i].id.substr(0,4)=='edge') {
      edges[i].setAttribute('class','edge');
    }
  }
}
]]></script>
        <defs>
                <circle id="rim" cx="0" cy="0" r="7"/>
                <circle id="rim2" cx="0" cy="0" r="3.5"/>
                <g id="zoomPlus">
                        <use xlink:href="#rim" fill="#404040">
                                <set attributeName="fill" to="#808080" begin="zoomplus.mouseover" end="zoomplus.mouseout"/>
                        </use>
                        <path d="M-4,0h8M0,-4v8" fill="none" stroke="white" stroke-width="1.5" pointer-events="none"/>
                </g>
                <g id="zoomMin">
                        <use xlink:href="#rim" fill="#404040">
                                <set attributeName="fill" to="#808080" begin="zoomminus.mouseover" end="zoomminus.mouseout"/>
                        </use>
                        <path d="M-4,0h8" fill="none" stroke="white" stroke-width="1.5" pointer-events="none"/>
                </g>
                <g id="dirArrow">
                        <path fill="none" stroke="white" stroke-width="1.5" d="M0,-3.0v7 M-2.5,-0.5L0,-3.0L2.5,-0.5"/>
                </g>
               <g id="resetDef">
                       <use xlink:href="#rim2" fill="#404040">
                               <set attributeName="fill" to="#808080" begin="reset.mouseover" end="reset.mouseout"/>
                       </use>
               </g>
        </defs>

<script type="text/javascript">
var viewWidth = 785;
var viewHeight = 365;
var sectionId = 'dynsection-1';
</script>
<script xlink:href="../../svgpan.js"/>
<svg id="graph" class="graph">
<g id="viewport">
<title>main</title>
<polygon fill="white" stroke="transparent" points="-4,4 -4,-360.56 781,-360.56 781,4 -4,4"/>
<!-- Node1 -->
<g id="node1" class="node">
<title>Node1</title>
<g id="a_node1"><a xlink:title=" ">
<polygon fill="#bfbfbf" stroke="black" points="0,-214.06 0,-233.06 38,-233.06 38,-214.06 0,-214.06"/>
<text text-anchor="middle" x="19" y="-221.06" font-family="Helvetica,sans-Serif" font-size="10.00">main</text>
</a>
</g>
</g>
<!-- Node2 -->
<g id="node2" class="node">
<title>Node2</title>
<g id="a_node2"><a target="_blank" xlink:href="http://en.cppreference.com/w/cpp/io/manip/endl.html#" xlink:title=" ">
<polygon fill="white" stroke="black" points="707,-271.06 707,-290.06 761,-290.06 761,-271.06 707,-271.06"/>
<text text-anchor="middle" x="734" y="-278.06" font-family="Helvetica,sans-Serif" font-size="10.00">std::endl</text>
</a>
</g>
</g>
<!-- Node1&#45;&gt;Node2 -->
<g id="edge1" class="edge">
<title>Node1&#45;&gt;Node2</title>
<path fill="none" stroke="midnightblue" d="M24.36,-233.2C32.1,-249.26 49.72,-281.49 74,-299.56 137.43,-346.74 163.44,-356.56 242.5,-356.56 242.5,-356.56 242.5,-356.56 420.5,-356.56 525.32,-356.56 644.45,-315.69 700.54,-293.89"/>
<polygon fill="midnightblue" stroke="midnightblue" points="701.93,-297.1 709.95,-290.18 699.36,-290.59 701.93,-297.1"/>
</g>
<!-- Node3 -->
<g id="node3" class="node">
<title>Node3</title>
<g id="a_node3"><a target="_blank" xlink:href="http://en.cppreference.com/w/cpp/numeric/random/srand.html#" xlink:title=" ">
<polygon fill="white" stroke="black" points="74,-271.06 74,-290.06 134,-290.06 134,-271.06 74,-271.06"/>
<text text-anchor="middle" x="104" y="-278.06" font-family="Helvetica,sans-Serif" font-size="10.00">std::srand</text>
</a>
</g>
</g>
<!-- Node1&#45;&gt;Node3 -->
<g id="edge2" class="edge">
<title>Node1&#45;&gt;Node3</title>
<path fill="none" stroke="midnightblue" d="M33.67,-233.37C44.54,-241.11 60.15,-252.15 74,-261.56 75.86,-262.82 77.8,-264.12 79.75,-265.42"/>
<polygon fill="midnightblue" stroke="midnightblue" points="77.91,-268.4 88.18,-270.98 81.76,-262.56 77.91,-268.4"/>
</g>
<!-- Node4 -->
<g id="node4" class="node">
<title>Node4</title>
<g id="a_node4"><a xlink:href="../../d5/db0/adaline__learning_8cpp.html#a52053d88ea1bcbbed9aca67ab4eeb499" target="_top" xlink:title=" ">
<polygon fill="white" stroke="black" points="85,-119.06 85,-138.06 123,-138.06 123,-119.06 85,-119.06"/>
<text text-anchor="middle" x="104" y="-126.06" font-family="Helvetica,sans-Serif" font-size="10.00">test1</text>
</a>
</g>
</g>
<!-- Node1&#45;&gt;Node4 -->
<g id="edge3" class="edge">
<title>Node1&#45;&gt;Node4</title>
<path fill="none" stroke="midnightblue" d="M28.57,-213.75C42.56,-197.73 70.48,-165.78 87.87,-145.88"/>
<polygon fill="midnightblue" stroke="midnightblue" points="90.66,-148 94.6,-138.17 85.39,-143.4 90.66,-148"/>
</g>
<!-- Node13 -->
<g id="node13" class="node">
<title>Node13</title>
<g id="a_node13"><a xlink:href="../../d5/db0/adaline__learning_8cpp.html#a379f7488a305f2571f2932b319931f82" target="_top" xlink:title=" ">
<polygon fill="white" stroke="black" points="85,-233.06 85,-252.06 123,-252.06 123,-233.06 85,-233.06"/>
<text text-anchor="middle" x="104" y="-240.06" font-family="Helvetica,sans-Serif" font-size="10.00">test2</text>
</a>
</g>
</g>
<!-- Node1&#45;&gt;Node13 -->
<g id="edge17" class="edge">
<title>Node1&#45;&gt;Node13</title>
<path fill="none" stroke="midnightblue" d="M38.01,-227.68C48.7,-230.13 62.5,-233.28 74.63,-236.06"/>
<polygon fill="midnightblue" stroke="midnightblue" points="74.21,-239.55 84.74,-238.37 75.77,-232.73 74.21,-239.55"/>
</g>
<!-- Node15 -->
<g id="node15" class="node">
<title>Node15</title>
<g id="a_node15"><a xlink:href="../../d5/db0/adaline__learning_8cpp.html#a992bdf1fdb0b9d414bcf7981d2d87aa9" target="_top" xlink:title=" ">
<polygon fill="white" stroke="black" points="85,-195.06 85,-214.06 123,-214.06 123,-195.06 85,-195.06"/>
<text text-anchor="middle" x="104" y="-202.06" font-family="Helvetica,sans-Serif" font-size="10.00">test3</text>
</a>
</g>
</g>
<!-- Node1&#45;&gt;Node15 -->
<g id="edge22" class="edge">
<title>Node1&#45;&gt;Node15</title>
<path fill="none" stroke="midnightblue" d="M38.01,-219.43C48.7,-216.98 62.5,-213.83 74.63,-211.05"/>
<polygon fill="midnightblue" stroke="midnightblue" points="75.77,-214.38 84.74,-208.74 74.21,-207.56 75.77,-214.38"/>
</g>
<!-- Node16 -->
<g id="node16" class="node">
<title>Node16</title>
<g id="a_node16"><a target="_blank" xlink:href="http://en.cppreference.com/w/cpp/chrono/c/time.html#" xlink:title=" ">
<polygon fill="white" stroke="black" points="77,-81.06 77,-100.06 131,-100.06 131,-81.06 77,-81.06"/>
<text text-anchor="middle" x="104" y="-88.06" font-family="Helvetica,sans-Serif" font-size="10.00">std::time</text>
</a>
</g>
</g>
<!-- Node1&#45;&gt;Node16 -->
<g id="edge27" class="edge">
<title>Node1&#45;&gt;Node16</title>
<path fill="none" stroke="midnightblue" d="M22.58,-214C28.62,-193.07 45.38,-142.42 74,-109.56 74.87,-108.56 75.8,-107.59 76.78,-106.66"/>
<polygon fill="midnightblue" stroke="midnightblue" points="79.26,-109.16 84.91,-100.2 74.9,-103.68 79.26,-109.16"/>
</g>
<!-- Node4&#45;&gt;Node2 -->
<g id="edge4" class="edge">
<title>Node4&#45;&gt;Node2</title>
<path fill="none" stroke="midnightblue" d="M120.88,-118.93C191.32,-77.57 479.89,77.32 655,-48.56 724.66,-98.63 732.96,-214.01 733.36,-260.55"/>
<polygon fill="midnightblue" stroke="midnightblue" points="729.85,-260.81 733.32,-270.82 736.85,-260.83 729.85,-260.81"/>
</g>
<!-- Node5 -->
<g id="node5" class="node">
<title>Node5</title>
<g id="a_node5"><a xlink:href="../../d6/d30/classmachine__learning_1_1adaline.html#a74e3c6c037b67895014414c5d75465e5" target="_top" xlink:title=" ">
<polygon fill="white" stroke="black" points="170,-119.06 170,-138.06 317,-138.06 317,-119.06 170,-119.06"/>
<text text-anchor="middle" x="243.5" y="-126.06" font-family="Helvetica,sans-Serif" font-size="10.00">machine_learning::adaline::fit</text>
</a>
</g>
</g>
<!-- Node4&#45;&gt;Node5 -->
<g id="edge5" class="edge">
<title>Node4&#45;&gt;Node5</title>
<path fill="none" stroke="midnightblue" d="M123.26,-128.56C133.13,-128.56 146.11,-128.56 159.86,-128.56"/>
<polygon fill="midnightblue" stroke="midnightblue" points="159.97,-132.06 169.97,-128.56 159.97,-125.06 159.97,-132.06"/>
</g>
<!-- Node8 -->
<g id="node8" class="node">
<title>Node8</title>
<g id="a_node8"><a xlink:href="../../d6/d30/classmachine__learning_1_1adaline.html#ab11242d9ad5b03a75911e29b04f78fd3" target="_top" xlink:title=" ">
<polygon fill="white" stroke="black" points="353,-151.56 353,-181.56 486,-181.56 486,-151.56 353,-151.56"/>
<text text-anchor="start" x="361" y="-169.56" font-family="Helvetica,sans-Serif" font-size="10.00">machine_learning::adaline</text>
<text text-anchor="middle" x="419.5" y="-158.56" font-family="Helvetica,sans-Serif" font-size="10.00">::predict</text>
</a>
</g>
</g>
<!-- Node4&#45;&gt;Node8 -->
<g id="edge16" class="edge">
<title>Node4&#45;&gt;Node8</title>
<path fill="none" stroke="midnightblue" d="M123.18,-121.73C136.05,-117.27 153.82,-111.87 170,-109.56 234.67,-100.3 253.79,-93.02 317,-109.56 343.79,-116.56 370.98,-132.4 390.46,-145.6"/>
<polygon fill="midnightblue" stroke="midnightblue" points="388.64,-148.6 398.85,-151.44 392.64,-142.85 388.64,-148.6"/>
</g>
<!-- Node6 -->
<g id="node6" class="node">
<title>Node6</title>
<g id="a_node6"><a xlink:href="../../d6/d30/classmachine__learning_1_1adaline.html#ac8a9c2aaaa63b0f27ea176857e1e7d56" target="_top" xlink:title=" ">
<polygon fill="white" stroke="black" points="522,-58.56 522,-88.56 655,-88.56 655,-58.56 522,-58.56"/>
<text text-anchor="start" x="530" y="-76.56" font-family="Helvetica,sans-Serif" font-size="10.00">machine_learning::adaline</text>
<text text-anchor="middle" x="588.5" y="-65.56" font-family="Helvetica,sans-Serif" font-size="10.00">::check_size_match</text>
</a>
</g>
</g>
<!-- Node5&#45;&gt;Node6 -->
<g id="edge6" class="edge">
<title>Node5&#45;&gt;Node6</title>
<path fill="none" stroke="midnightblue" d="M303.85,-119.04C361.43,-109.81 449.04,-95.76 511.64,-85.72"/>
<polygon fill="midnightblue" stroke="midnightblue" points="512.54,-89.12 521.86,-84.08 511.43,-82.21 512.54,-89.12"/>
</g>
<!-- Node7 -->
<g id="node7" class="node">
<title>Node7</title>
<g id="a_node7"><a target="_blank" xlink:href="http://en.cppreference.com/w/cpp/container/vector/size.html#" xlink:title=" ">
<polygon fill="white" stroke="black" points="691,-42.06 691,-61.06 777,-61.06 777,-42.06 691,-42.06"/>
<text text-anchor="middle" x="734" y="-49.06" font-family="Helvetica,sans-Serif" font-size="10.00">std::vector::size</text>
</a>
</g>
</g>
<!-- Node5&#45;&gt;Node7 -->
<g id="edge15" class="edge">
<title>Node5&#45;&gt;Node7</title>
<path fill="none" stroke="midnightblue" d="M267.05,-119.01C288.79,-110.06 322.74,-96.72 353,-87.56 426.78,-65.21 445.41,-57.28 522,-48.56 580.73,-41.87 595.9,-47.42 655,-48.56 663.38,-48.72 672.25,-48.97 680.9,-49.27"/>
<polygon fill="midnightblue" stroke="midnightblue" points="680.79,-52.77 690.91,-49.64 681.04,-45.78 680.79,-52.77"/>
</g>
<!-- Node5&#45;&gt;Node8 -->
<g id="edge9" class="edge">
<title>Node5&#45;&gt;Node8</title>
<path fill="none" stroke="midnightblue" d="M288.41,-138.14C304.96,-141.76 324.3,-145.98 342.93,-150.05"/>
<polygon fill="midnightblue" stroke="midnightblue" points="342.37,-153.51 352.89,-152.23 343.87,-146.67 342.37,-153.51"/>
</g>
<!-- Node6&#45;&gt;Node2 -->
<g id="edge7" class="edge">
<title>Node6&#45;&gt;Node2</title>
<path fill="none" stroke="midnightblue" d="M642.88,-88.67C647.27,-91.2 651.4,-94.14 655,-97.56 703.12,-143.25 722.94,-223.43 729.84,-260.6"/>
<polygon fill="midnightblue" stroke="midnightblue" points="726.43,-261.41 731.58,-270.66 733.33,-260.21 726.43,-261.41"/>
</g>
<!-- Node6&#45;&gt;Node7 -->
<g id="edge8" class="edge">
<title>Node6&#45;&gt;Node7</title>
<path fill="none" stroke="midnightblue" d="M655.37,-63.46C663.96,-62.14 672.66,-60.81 680.98,-59.53"/>
<polygon fill="midnightblue" stroke="midnightblue" points="681.55,-62.98 690.91,-58.01 680.49,-56.06 681.55,-62.98"/>
</g>
<!-- Node8&#45;&gt;Node6 -->
<g id="edge12" class="edge">
<title>Node8&#45;&gt;Node6</title>
<path fill="none" stroke="midnightblue" d="M439.82,-151.29C459.6,-136.18 491.67,-113.12 522,-97.56 525.32,-95.85 528.79,-94.21 532.32,-92.64"/>
<polygon fill="midnightblue" stroke="midnightblue" points="533.92,-95.77 541.78,-88.66 531.2,-89.32 533.92,-95.77"/>
</g>
<!-- Node9 -->
<g id="node9" class="node">
<title>Node9</title>
<g id="a_node9"><a xlink:href="../../d6/d30/classmachine__learning_1_1adaline.html#a082f758fb55fe19f22b3df66f89b2325" target="_top" xlink:title=" ">
<polygon fill="white" stroke="black" points="522,-107.56 522,-137.56 655,-137.56 655,-107.56 522,-107.56"/>
<text text-anchor="start" x="530" y="-125.56" font-family="Helvetica,sans-Serif" font-size="10.00">machine_learning::adaline</text>
<text text-anchor="middle" x="588.5" y="-114.56" font-family="Helvetica,sans-Serif" font-size="10.00">::activation</text>
</a>
</g>
</g>
<!-- Node8&#45;&gt;Node9 -->
<g id="edge10" class="edge">
<title>Node8&#45;&gt;Node9</title>
<path fill="none" stroke="midnightblue" d="M477.5,-151.54C491.4,-147.87 506.39,-143.93 520.7,-140.16"/>
<polygon fill="midnightblue" stroke="midnightblue" points="521.69,-143.51 530.47,-137.58 519.91,-136.74 521.69,-143.51"/>
</g>
<!-- Node10 -->
<g id="node10" class="node">
<title>Node10</title>
<g id="a_node10"><a target="_blank" xlink:href="http://en.cppreference.com/w/cpp/container/vector/begin.html#" xlink:title=" ">
<polygon fill="white" stroke="black" points="542,-233.06 542,-252.06 635,-252.06 635,-233.06 542,-233.06"/>
<text text-anchor="middle" x="588.5" y="-240.06" font-family="Helvetica,sans-Serif" font-size="10.00">std::vector::begin</text>
</a>
</g>
</g>
<!-- Node8&#45;&gt;Node10 -->
<g id="edge11" class="edge">
<title>Node8&#45;&gt;Node10</title>
<path fill="none" stroke="midnightblue" d="M443.92,-181.75C464,-194.28 494.04,-211.83 522,-223.56 527.53,-225.87 533.43,-228.02 539.34,-229.96"/>
<polygon fill="midnightblue" stroke="midnightblue" points="538.65,-233.41 549.23,-233.05 540.73,-226.73 538.65,-233.41"/>
</g>
<!-- Node11 -->
<g id="node11" class="node">
<title>Node11</title>
<g id="a_node11"><a target="_blank" xlink:href="http://en.cppreference.com/w/cpp/container/vector/end.html#" xlink:title=" ">
<polygon fill="white" stroke="black" points="546,-195.06 546,-214.06 631,-214.06 631,-195.06 546,-195.06"/>
<text text-anchor="middle" x="588.5" y="-202.06" font-family="Helvetica,sans-Serif" font-size="10.00">std::vector::end</text>
</a>
</g>
</g>
<!-- Node8&#45;&gt;Node11 -->
<g id="edge13" class="edge">
<title>Node8&#45;&gt;Node11</title>
<path fill="none" stroke="midnightblue" d="M486.02,-181.46C502.51,-185.22 519.99,-189.19 535.7,-192.77"/>
<polygon fill="midnightblue" stroke="midnightblue" points="535.22,-196.25 545.75,-195.05 536.77,-189.42 535.22,-196.25"/>
</g>
<!-- Node12 -->
<g id="node12" class="node">
<title>Node12</title>
<g id="a_node12"><a target="_blank" xlink:href="http://en.cppreference.com/w/cpp/algorithm/inner_product.html#" xlink:title=" ">
<polygon fill="white" stroke="black" points="540,-157.06 540,-176.06 637,-176.06 637,-157.06 540,-157.06"/>
<text text-anchor="middle" x="588.5" y="-164.06" font-family="Helvetica,sans-Serif" font-size="10.00">std::inner_product</text>
</a>
</g>
</g>
<!-- Node8&#45;&gt;Node12 -->
<g id="edge14" class="edge">
<title>Node8&#45;&gt;Node12</title>
<path fill="none" stroke="midnightblue" d="M486.02,-166.56C500.51,-166.56 515.75,-166.56 529.9,-166.56"/>
<polygon fill="midnightblue" stroke="midnightblue" points="529.97,-170.06 539.97,-166.56 529.97,-163.06 529.97,-170.06"/>
</g>
<!-- Node13&#45;&gt;Node2 -->
<g id="edge18" class="edge">
<title>Node13&#45;&gt;Node2</title>
<path fill="none" stroke="midnightblue" d="M119.59,-252.21C135.35,-262.44 159.59,-277.51 170,-280.56 320.28,-324.48 365.46,-291.44 522,-294.56 581.1,-295.73 596.12,-299.8 655,-294.56 668.73,-293.33 683.67,-290.92 696.76,-288.44"/>
<polygon fill="midnightblue" stroke="midnightblue" points="697.67,-291.83 706.8,-286.46 696.31,-284.96 697.67,-291.83"/>
</g>
<!-- Node13&#45;&gt;Node5 -->
<g id="edge19" class="edge">
<title>Node13&#45;&gt;Node5</title>
<path fill="none" stroke="midnightblue" d="M120.63,-232.89C125.04,-230.01 129.78,-226.76 134,-223.56 167.62,-198.02 204.02,-164.91 224.96,-145.28"/>
<polygon fill="midnightblue" stroke="midnightblue" points="227.56,-147.63 232.43,-138.22 222.76,-142.54 227.56,-147.63"/>
</g>
<!-- Node13&#45;&gt;Node8 -->
<g id="edge20" class="edge">
<title>Node13&#45;&gt;Node8</title>
<path fill="none" stroke="midnightblue" d="M123.09,-249.48C160.7,-262.76 249.46,-288.23 317,-261.56 353.23,-247.25 384.12,-213.22 402,-190.03"/>
<polygon fill="midnightblue" stroke="midnightblue" points="405.02,-191.84 408.2,-181.73 399.41,-187.65 405.02,-191.84"/>
</g>
<!-- Node14 -->
<g id="node14" class="node">
<title>Node14</title>
<g id="a_node14"><a target="_blank" xlink:href="http://en.cppreference.com/w/cpp/numeric/random/rand.html#" xlink:title=" ">
<polygon fill="white" stroke="black" points="216,-233.06 216,-252.06 271,-252.06 271,-233.06 216,-233.06"/>
<text text-anchor="middle" x="243.5" y="-240.06" font-family="Helvetica,sans-Serif" font-size="10.00">std::rand</text>
</a>
</g>
</g>
<!-- Node13&#45;&gt;Node14 -->
<g id="edge21" class="edge">
<title>Node13&#45;&gt;Node14</title>
<path fill="none" stroke="midnightblue" d="M123.26,-242.56C144.22,-242.56 179.13,-242.56 205.78,-242.56"/>
<polygon fill="midnightblue" stroke="midnightblue" points="205.9,-246.06 215.9,-242.56 205.9,-239.06 205.9,-246.06"/>
</g>
<!-- Node15&#45;&gt;Node2 -->
<g id="edge23" class="edge">
<title>Node15&#45;&gt;Node2</title>
<path fill="none" stroke="midnightblue" d="M123.21,-205.61C159.97,-207.86 245.61,-213.76 317,-223.56 408.8,-236.15 430.2,-248.94 522,-261.56 583.14,-269.96 654.77,-275.51 696.88,-278.33"/>
<polygon fill="midnightblue" stroke="midnightblue" points="696.72,-281.83 706.92,-278.99 697.18,-274.85 696.72,-281.83"/>
</g>
<!-- Node15&#45;&gt;Node5 -->
<g id="edge24" class="edge">
<title>Node15&#45;&gt;Node5</title>
<path fill="none" stroke="midnightblue" d="M114.77,-194.86C126.83,-183.36 148.41,-164.27 170,-152.56 177.96,-148.24 186.83,-144.51 195.56,-141.38"/>
<polygon fill="midnightblue" stroke="midnightblue" points="196.95,-144.6 205.31,-138.08 194.71,-137.97 196.95,-144.6"/>
</g>
<!-- Node15&#45;&gt;Node8 -->
<g id="edge25" class="edge">
<title>Node15&#45;&gt;Node8</title>
<path fill="none" stroke="midnightblue" d="M123.11,-200.07C136.09,-196.99 154.03,-193.04 170,-190.56 227.58,-181.6 293.21,-175.44 342.56,-171.6"/>
<polygon fill="midnightblue" stroke="midnightblue" points="343.13,-175.06 352.84,-170.81 342.6,-168.08 343.13,-175.06"/>
</g>
<!-- Node15&#45;&gt;Node14 -->
<g id="edge26" class="edge">
<title>Node15&#45;&gt;Node14</title>
<path fill="none" stroke="midnightblue" d="M123.26,-209.6C144.31,-215.42 179.44,-225.13 206.13,-232.5"/>
<polygon fill="midnightblue" stroke="midnightblue" points="205.33,-235.91 215.9,-235.2 207.2,-229.17 205.33,-235.91"/>
</g>
</g>
</svg>
        <g id="navigator" transform="translate(0 0)" fill="#404254">
                <rect fill="#f2f5e9" fill-opacity="0.5" stroke="#606060" stroke-width=".5" x="0" y="0" width="60" height="60"/>
                <use id="zoomplus" xlink:href="#zoomPlus" x="17" y="9" onmousedown="handleZoom(evt,'in')"/>
                <use id="zoomminus" xlink:href="#zoomMin" x="42" y="9" onmousedown="handleZoom(evt,'out')"/>
                <use id="reset" xlink:href="#resetDef" x="30" y="36" onmousedown="handleReset()"/>
                <g id="arrowUp" xlink:href="#dirArrow" transform="translate(30 24)" onmousedown="handlePan(0,-1)">
                  <use xlink:href="#rim" fill="#404040">
                        <set attributeName="fill" to="#808080" begin="arrowUp.mouseover" end="arrowUp.mouseout"/>
                  </use>
                  <path fill="none" stroke="white" stroke-width="1.5" d="M0,-3.0v7 M-2.5,-0.5L0,-3.0L2.5,-0.5"/>
                </g>
                <g id="arrowRight" xlink:href="#dirArrow" transform="rotate(90) translate(36 -43)" onmousedown="handlePan(1,0)">
                  <use xlink:href="#rim" fill="#404040">
                        <set attributeName="fill" to="#808080" begin="arrowRight.mouseover" end="arrowRight.mouseout"/>
                  </use>
                  <path fill="none" stroke="white" stroke-width="1.5" d="M0,-3.0v7 M-2.5,-0.5L0,-3.0L2.5,-0.5"/>
                </g>
                <g id="arrowDown" xlink:href="#dirArrow" transform="rotate(180) translate(-30 -48)" onmousedown="handlePan(0,1)">
                  <use xlink:href="#rim" fill="#404040">
                        <set attributeName="fill" to="#808080" begin="arrowDown.mouseover" end="arrowDown.mouseout"/>
                  </use>
                  <path fill="none" stroke="white" stroke-width="1.5" d="M0,-3.0v7 M-2.5,-0.5L0,-3.0L2.5,-0.5"/>
                </g>
                <g id="arrowLeft" xlink:href="#dirArrow" transform="rotate(270) translate(-36 17)" onmousedown="handlePan(-1,0)">
                  <use xlink:href="#rim" fill="#404040">
                        <set attributeName="fill" to="#808080" begin="arrowLeft.mouseover" end="arrowLeft.mouseout"/>
                  </use>
                  <path fill="none" stroke="white" stroke-width="1.5" d="M0,-3.0v7 M-2.5,-0.5L0,-3.0L2.5,-0.5"/>
                </g>
        </g>
        <svg viewBox="0 0 15 15" width="100%" height="30px" preserveAspectRatio="xMaxYMin meet">
         <g id="arrow_out" transform="scale(0.3 0.3)">
          <a xlink:href="adaline__learning_8cpp_a3c04138a5bfe5d72780bb7e82a18e627_cgraph_org.svg" target="_base">
           <rect id="button" ry="5" rx="5" y="6" x="6" height="38" width="38"
                fill="#f2f5e9" fill-opacity="0.5" stroke="#606060" stroke-width="1.0"/>
           <path id="arrow"
             d="M 11.500037,31.436501 C 11.940474,20.09759 22.043105,11.32322 32.158766,21.979434 L 37.068811,17.246167 C 37.068811,17.246167 37.088388,32 37.088388,32 L 22.160133,31.978069 C 22.160133,31.978069 26.997745,27.140456 26.997745,27.140456 C 18.528582,18.264221 13.291696,25.230495 11.500037,31.436501 z"
             style="fill:#404040;"/>
          </a>
         </g>
        </svg>
</svg>
