<?xml version="1.0" encoding="UTF-8" standalone="no"?>
<!DOCTYPE svg PUBLIC "-//W3C//DTD SVG 1.1//EN"
 "http://www.w3.org/Graphics/SVG/1.1/DTD/svg11.dtd">
<!-- Generated by graphviz version 2.44.0 (20200408.0750)
 -->
<!-- Title: test1 Pages: 1 -->
<svg width="678pt" height="244pt"
 viewBox="0.00 0.00 678.00 244.00" xmlns="http://www.w3.org/2000/svg" xmlns:xlink="http://www.w3.org/1999/xlink">
<g id="graph0" class="graph" transform="scale(1 1) rotate(0) translate(4 240)">
<title>test1</title>
<polygon fill="white" stroke="transparent" points="-4,4 -4,-240 674,-240 674,4 -4,4"/>
<!-- Node1 -->
<g id="node1" class="node">
<title>Node1</title>
<g id="a_node1"><a xlink:title=" ">
<polygon fill="#bfbfbf" stroke="black" points="0,-152.5 0,-171.5 38,-171.5 38,-152.5 0,-152.5"/>
<text text-anchor="middle" x="19" y="-159.5" font-family="Helvetica,sans-Serif" font-size="10.00">test1</text>
</a>
</g>
</g>
<!-- Node2 -->
<g id="node2" class="node">
<title>Node2</title>
<g id="a_node2"><a target="_parent" xlink:href="http://en.cppreference.com/w/cpp/io/manip/endl.html#" xlink:title=" ">
<polygon fill="white" stroke="black" points="599.5,-216.5 599.5,-235.5 653.5,-235.5 653.5,-216.5 599.5,-216.5"/>
<text text-anchor="middle" x="626.5" y="-223.5" font-family="Helvetica,sans-Serif" font-size="10.00">std::endl</text>
</a>
</g>
</g>
<!-- Node1&#45;&gt;Node2 -->
<g id="edge1" class="edge">
<title>Node1&#45;&gt;Node2</title>
<path fill="none" stroke="midnightblue" d="M38.23,-169.41C48.57,-173.36 61.84,-178.01 74,-181 279.27,-231.52 335.71,-237.72 547,-231 560.79,-230.56 575.91,-229.69 589.18,-228.8"/>
<polygon fill="midnightblue" stroke="midnightblue" points="589.62,-232.27 599.35,-228.08 589.13,-225.29 589.62,-232.27"/>
</g>
<!-- Node3 -->
<g id="node3" class="node">
<title>Node3</title>
<g id="a_node3"><a xlink:href="../../d6/d30/classmachine__learning_1_1adaline.html#a74e3c6c037b67895014414c5d75465e5" target="_top" xlink:title=" ">
<polygon fill="white" stroke="black" points="74,-152.5 74,-171.5 217,-171.5 217,-152.5 74,-152.5"/>
<text text-anchor="middle" x="145.5" y="-159.5" font-family="Helvetica,sans-Serif" font-size="10.00">machine_learning::adaline::fit</text>
</a>
</g>
</g>
<!-- Node1&#45;&gt;Node3 -->
<g id="edge2" class="edge">
<title>Node1&#45;&gt;Node3</title>
<path fill="none" stroke="midnightblue" d="M38.1,-162C45.36,-162 54.27,-162 63.81,-162"/>
<polygon fill="midnightblue" stroke="midnightblue" points="63.94,-165.5 73.94,-162 63.94,-158.5 63.94,-165.5"/>
</g>
<!-- Node6 -->
<g id="node6" class="node">
<title>Node6</title>
<g id="a_node6"><a xlink:href="../../d6/d30/classmachine__learning_1_1adaline.html#ab11242d9ad5b03a75911e29b04f78fd3" target="_top" xlink:title=" ">
<polygon fill="white" stroke="black" points="253,-103 253,-133 382,-133 382,-103 253,-103"/>
<text text-anchor="start" x="261" y="-121" font-family="Helvetica,sans-Serif" font-size="10.00">machine_learning::adaline</text>
<text text-anchor="middle" x="317.5" y="-110" font-family="Helvetica,sans-Serif" font-size="10.00">::predict</text>
</a>
</g>
</g>
<!-- Node1&#45;&gt;Node6 -->
<g id="edge13" class="edge">
<title>Node1&#45;&gt;Node6</title>
<path fill="none" stroke="midnightblue" d="M38.18,-154.4C48.51,-150.38 61.78,-145.74 74,-143 129.81,-130.49 194.27,-124.22 242.7,-121.09"/>
<polygon fill="midnightblue" stroke="midnightblue" points="243.02,-124.58 252.78,-120.47 242.59,-117.59 243.02,-124.58"/>
</g>
<!-- Node4 -->
<g id="node4" class="node">
<title>Node4</title>
<g id="a_node4"><a xlink:href="../../d6/d30/classmachine__learning_1_1adaline.html#ac8a9c2aaaa63b0f27ea176857e1e7d56" target="_top" xlink:title=" ">
<polygon fill="white" stroke="black" points="418,-191 418,-221 547,-221 547,-191 418,-191"/>
<text text-anchor="start" x="426" y="-209" font-family="Helvetica,sans-Serif" font-size="10.00">machine_learning::adaline</text>
<text text-anchor="middle" x="482.5" y="-198" font-family="Helvetica,sans-Serif" font-size="10.00">::check_size_match</text>
</a>
</g>
</g>
<!-- Node3&#45;&gt;Node4 -->
<g id="edge3" class="edge">
<title>Node3&#45;&gt;Node4</title>
<path fill="none" stroke="midnightblue" d="M217.25,-171.3C229.18,-172.87 241.44,-174.48 253,-176 304.82,-182.81 363.24,-190.48 408.05,-196.36"/>
<polygon fill="midnightblue" stroke="midnightblue" points="407.6,-199.83 417.97,-197.66 408.51,-192.89 407.6,-199.83"/>
</g>
<!-- Node5 -->
<g id="node5" class="node">
<title>Node5</title>
<g id="a_node5"><a target="_parent" xlink:href="http://en.cppreference.com/w/cpp/container/vector/size.html#" xlink:title=" ">
<polygon fill="white" stroke="black" points="583,-175.5 583,-194.5 670,-194.5 670,-175.5 583,-175.5"/>
<text text-anchor="middle" x="626.5" y="-182.5" font-family="Helvetica,sans-Serif" font-size="10.00">std::vector::size</text>
</a>
</g>
</g>
<!-- Node3&#45;&gt;Node5 -->
<g id="edge12" class="edge">
<title>Node3&#45;&gt;Node5</title>
<path fill="none" stroke="midnightblue" d="M217.04,-165.27C297.05,-169 431.41,-175.31 547,-181 555.24,-181.41 563.96,-181.84 572.48,-182.27"/>
<polygon fill="midnightblue" stroke="midnightblue" points="572.56,-185.78 582.72,-182.79 572.91,-178.79 572.56,-185.78"/>
</g>
<!-- Node3&#45;&gt;Node6 -->
<g id="edge6" class="edge">
<title>Node3&#45;&gt;Node6</title>
<path fill="none" stroke="midnightblue" d="M183.39,-152.45C202.44,-147.52 226.31,-141.34 248.55,-135.59"/>
<polygon fill="midnightblue" stroke="midnightblue" points="249.49,-138.96 258.29,-133.07 247.73,-132.18 249.49,-138.96"/>
</g>
<!-- Node4&#45;&gt;Node2 -->
<g id="edge4" class="edge">
<title>Node4&#45;&gt;Node2</title>
<path fill="none" stroke="midnightblue" d="M547.02,-214.95C561.45,-216.98 576.29,-219.07 589.12,-220.88"/>
<polygon fill="midnightblue" stroke="midnightblue" points="588.99,-224.39 599.39,-222.32 589.97,-217.46 588.99,-224.39"/>
</g>
<!-- Node4&#45;&gt;Node5 -->
<g id="edge5" class="edge">
<title>Node4&#45;&gt;Node5</title>
<path fill="none" stroke="midnightblue" d="M547.02,-196.61C555.63,-195.33 564.39,-194.04 572.78,-192.8"/>
<polygon fill="midnightblue" stroke="midnightblue" points="573.42,-196.24 582.81,-191.31 572.4,-189.31 573.42,-196.24"/>
</g>
<!-- Node6&#45;&gt;Node4 -->
<g id="edge9" class="edge">
<title>Node6&#45;&gt;Node4</title>
<path fill="none" stroke="midnightblue" d="M346.52,-133.13C373.66,-147.78 414.96,-170.08 444.73,-186.15"/>
<polygon fill="midnightblue" stroke="midnightblue" points="443.11,-189.25 453.57,-190.92 446.44,-183.09 443.11,-189.25"/>
</g>
<!-- Node7 -->
<g id="node7" class="node">
<title>Node7</title>
<g id="a_node7"><a target="_parent" xlink:href="http://en.cppreference.com/w/cpp/container/vector/back.html#" xlink:title=" ">
<polygon fill="white" stroke="black" points="437.5,-76.5 437.5,-95.5 527.5,-95.5 527.5,-76.5 437.5,-76.5"/>
<text text-anchor="middle" x="482.5" y="-83.5" font-family="Helvetica,sans-Serif" font-size="10.00">std::vector::back</text>
</a>
</g>
</g>
<!-- Node6&#45;&gt;Node7 -->
<g id="edge7" class="edge">
<title>Node6&#45;&gt;Node7</title>
<path fill="none" stroke="midnightblue" d="M382.45,-105.44C397.24,-102.54 412.83,-99.48 427.16,-96.67"/>
<polygon fill="midnightblue" stroke="midnightblue" points="428.2,-100.03 437.34,-94.67 426.85,-93.16 428.2,-100.03"/>
</g>
<!-- Node8 -->
<g id="node8" class="node">
<title>Node8</title>
<g id="a_node8"><a target="_parent" xlink:href="http://en.cppreference.com/w/cpp/container/vector/begin.html#" xlink:title=" ">
<polygon fill="white" stroke="black" points="436.5,-38.5 436.5,-57.5 528.5,-57.5 528.5,-38.5 436.5,-38.5"/>
<text text-anchor="middle" x="482.5" y="-45.5" font-family="Helvetica,sans-Serif" font-size="10.00">std::vector::begin</text>
</a>
</g>
</g>
<!-- Node6&#45;&gt;Node8 -->
<g id="edge8" class="edge">
<title>Node6&#45;&gt;Node8</title>
<path fill="none" stroke="midnightblue" d="M344.91,-102.78C364.61,-91.85 392.42,-77.28 418,-67 423.61,-64.75 429.59,-62.62 435.55,-60.66"/>
<polygon fill="midnightblue" stroke="midnightblue" points="437.02,-63.86 445.51,-57.52 434.92,-57.19 437.02,-63.86"/>
</g>
<!-- Node9 -->
<g id="node9" class="node">
<title>Node9</title>
<g id="a_node9"><a target="_parent" xlink:href="http://en.cppreference.com/w/cpp/container/vector/end.html#" xlink:title=" ">
<polygon fill="white" stroke="black" points="440,-0.5 440,-19.5 525,-19.5 525,-0.5 440,-0.5"/>
<text text-anchor="middle" x="482.5" y="-7.5" font-family="Helvetica,sans-Serif" font-size="10.00">std::vector::end</text>
</a>
</g>
</g>
<!-- Node6&#45;&gt;Node9 -->
<g id="edge10" class="edge">
<title>Node6&#45;&gt;Node9</title>
<path fill="none" stroke="midnightblue" d="M331.45,-102.86C349.11,-83.12 382.61,-48.81 418,-29 421.95,-26.79 426.18,-24.81 430.52,-23.04"/>
<polygon fill="midnightblue" stroke="midnightblue" points="431.94,-26.25 440.11,-19.51 429.51,-19.68 431.94,-26.25"/>
</g>
<!-- Node10 -->
<g id="node10" class="node">
<title>Node10</title>
<g id="a_node10"><a target="_parent" xlink:href="http://en.cppreference.com/w/cpp/algorithm/inner_product.html#" xlink:title=" ">
<polygon fill="white" stroke="black" points="435,-114.5 435,-133.5 530,-133.5 530,-114.5 435,-114.5"/>
<text text-anchor="middle" x="482.5" y="-121.5" font-family="Helvetica,sans-Serif" font-size="10.00">std::inner_product</text>
</a>
</g>
</g>
<!-- Node6&#45;&gt;Node10 -->
<g id="edge11" class="edge">
<title>Node6&#45;&gt;Node10</title>
<path fill="none" stroke="midnightblue" d="M382.45,-120.35C396.38,-120.87 411.03,-121.41 424.66,-121.91"/>
<polygon fill="midnightblue" stroke="midnightblue" points="424.74,-125.41 434.86,-122.28 425,-118.42 424.74,-125.41"/>
</g>
</g>
</svg>
