<?xml version="1.0" encoding="UTF-8" standalone="no"?>
<!DOCTYPE svg PUBLIC "-//W3C//DTD SVG 1.1//EN"
 "http://www.w3.org/Graphics/SVG/1.1/DTD/svg11.dtd">
<!-- Generated by graphviz version 2.44.0 (20200408.0750)
 -->
<!-- Title: main Pages: 1 -->
<!--zoomable 246 -->
<svg id="main" version="1.1" xmlns="http://www.w3.org/2000/svg" xmlns:xlink="http://www.w3.org/1999/xlink" xml:space="preserve" onload="init(evt)">
<style type="text/css"><![CDATA[
.edge:hover path { stroke: red; }
.edge:hover polygon { stroke: red; fill: red; }
]]></style>
<script type="text/javascript"><![CDATA[
var edges = document.getElementsByTagName('g');
if (edges && edges.length) {
  for (var i=0;i<edges.length;i++) {
    if (edges[i].id.substr(0,4)=='edge') {
      edges[i].setAttribute('class','edge');
    }
  }
}
]]></script>
        <defs>
                <circle id="rim" cx="0" cy="0" r="7"/>
                <circle id="rim2" cx="0" cy="0" r="3.5"/>
                <g id="zoomPlus">
                        <use xlink:href="#rim" fill="#404040">
                                <set attributeName="fill" to="#808080" begin="zoomplus.mouseover" end="zoomplus.mouseout"/>
                        </use>
                        <path d="M-4,0h8M0,-4v8" fill="none" stroke="white" stroke-width="1.5" pointer-events="none"/>
                </g>
                <g id="zoomMin">
                        <use xlink:href="#rim" fill="#404040">
                                <set attributeName="fill" to="#808080" begin="zoomminus.mouseover" end="zoomminus.mouseout"/>
                        </use>
                        <path d="M-4,0h8" fill="none" stroke="white" stroke-width="1.5" pointer-events="none"/>
                </g>
                <g id="dirArrow">
                        <path fill="none" stroke="white" stroke-width="1.5" d="M0,-3.0v7 M-2.5,-0.5L0,-3.0L2.5,-0.5"/>
                </g>
               <g id="resetDef">
                       <use xlink:href="#rim2" fill="#404040">
                               <set attributeName="fill" to="#808080" begin="reset.mouseover" end="reset.mouseout"/>
                       </use>
               </g>
        </defs>

<script type="text/javascript">
var viewWidth = 621;
var viewHeight = 246;
var sectionId = 'dynsection-1';
</script>
<script xlink:href="../../svgpan.js"/>
<svg id="graph" class="graph">
<g id="viewport">
<title>main</title>
<polygon fill="white" stroke="transparent" points="-4,4 -4,-242 617,-242 617,4 -4,4"/>
<!-- Node1 -->
<g id="node1" class="node">
<title>Node1</title>
<g id="a_node1"><a xlink:title=" ">
<polygon fill="#bfbfbf" stroke="black" points="0,-76.5 0,-95.5 38,-95.5 38,-76.5 0,-76.5"/>
<text text-anchor="middle" x="19" y="-83.5" font-family="Helvetica,sans-Serif" font-size="10.00">main</text>
</a>
</g>
</g>
<!-- Node2 -->
<g id="node2" class="node">
<title>Node2</title>
<g id="a_node2"><a target="_parent" xlink:href="http://en.cppreference.com/w/cpp/io/manip/endl.html#" xlink:title=" ">
<polygon fill="white" stroke="black" points="542.5,-171.5 542.5,-190.5 596.5,-190.5 596.5,-171.5 542.5,-171.5"/>
<text text-anchor="middle" x="569.5" y="-178.5" font-family="Helvetica,sans-Serif" font-size="10.00">std::endl</text>
</a>
</g>
</g>
<!-- Node1&#45;&gt;Node2 -->
<g id="edge1" class="edge">
<title>Node1&#45;&gt;Node2</title>
<path fill="none" stroke="midnightblue" d="M25.08,-95.51C43.62,-128.78 111.24,-238 200,-238 200,-238 200,-238 310.5,-238 390.99,-238 412.33,-235.11 490,-214 507.32,-209.29 525.87,-201.63 540.58,-194.87"/>
<polygon fill="midnightblue" stroke="midnightblue" points="542.09,-198.03 549.65,-190.6 539.11,-191.69 542.09,-198.03"/>
</g>
<!-- Node3 -->
<g id="node3" class="node">
<title>Node3</title>
<g id="a_node3"><a target="_parent" xlink:href="http://en.cppreference.com/w/cpp/numeric/random/srand.html#" xlink:title=" ">
<polygon fill="white" stroke="black" points="74,-38.5 74,-57.5 134,-57.5 134,-38.5 74,-38.5"/>
<text text-anchor="middle" x="104" y="-45.5" font-family="Helvetica,sans-Serif" font-size="10.00">std::srand</text>
</a>
</g>
</g>
<!-- Node1&#45;&gt;Node3 -->
<g id="edge2" class="edge">
<title>Node1&#45;&gt;Node3</title>
<path fill="none" stroke="midnightblue" d="M38.01,-77.75C48.14,-73.12 61.06,-67.2 72.7,-61.87"/>
<polygon fill="midnightblue" stroke="midnightblue" points="74.46,-64.92 82.1,-57.57 71.55,-58.55 74.46,-64.92"/>
</g>
<!-- Node4 -->
<g id="node4" class="node">
<title>Node4</title>
<g id="a_node4"><a xlink:href="../../d5/db0/adaline__learning_8cpp.html#a52053d88ea1bcbbed9aca67ab4eeb499" target="_top" xlink:title=" ">
<polygon fill="white" stroke="black" points="85,-114.5 85,-133.5 123,-133.5 123,-114.5 85,-114.5"/>
<text text-anchor="middle" x="104" y="-121.5" font-family="Helvetica,sans-Serif" font-size="10.00">test1</text>
</a>
</g>
</g>
<!-- Node1&#45;&gt;Node4 -->
<g id="edge3" class="edge">
<title>Node1&#45;&gt;Node4</title>
<path fill="none" stroke="midnightblue" d="M38.01,-94.25C48.92,-99.24 63.06,-105.71 75.36,-111.35"/>
<polygon fill="midnightblue" stroke="midnightblue" points="74.19,-114.66 84.74,-115.64 77.1,-108.29 74.19,-114.66"/>
</g>
<!-- Node10 -->
<g id="node10" class="node">
<title>Node10</title>
<g id="a_node10"><a xlink:href="../../d5/db0/adaline__learning_8cpp.html#a379f7488a305f2571f2932b319931f82" target="_top" xlink:title=" ">
<polygon fill="white" stroke="black" points="85,-76.5 85,-95.5 123,-95.5 123,-76.5 85,-76.5"/>
<text text-anchor="middle" x="104" y="-83.5" font-family="Helvetica,sans-Serif" font-size="10.00">test2</text>
</a>
</g>
</g>
<!-- Node1&#45;&gt;Node10 -->
<g id="edge15" class="edge">
<title>Node1&#45;&gt;Node10</title>
<path fill="none" stroke="midnightblue" d="M38.01,-86C48.7,-86 62.5,-86 74.63,-86"/>
<polygon fill="midnightblue" stroke="midnightblue" points="74.74,-89.5 84.74,-86 74.74,-82.5 74.74,-89.5"/>
</g>
<!-- Node12 -->
<g id="node12" class="node">
<title>Node12</title>
<g id="a_node12"><a target="_parent" xlink:href="http://en.cppreference.com/w/cpp/chrono/c/time.html#" xlink:title=" ">
<polygon fill="white" stroke="black" points="76.5,-0.5 76.5,-19.5 131.5,-19.5 131.5,-0.5 76.5,-0.5"/>
<text text-anchor="middle" x="104" y="-7.5" font-family="Helvetica,sans-Serif" font-size="10.00">std::time</text>
</a>
</g>
</g>
<!-- Node1&#45;&gt;Node12 -->
<g id="edge20" class="edge">
<title>Node1&#45;&gt;Node12</title>
<path fill="none" stroke="midnightblue" d="M27.82,-76.47C37.82,-64.6 56.01,-44.04 74,-29 75.37,-27.86 76.8,-26.73 78.28,-25.62"/>
<polygon fill="midnightblue" stroke="midnightblue" points="80.68,-28.21 86.87,-19.62 76.67,-22.47 80.68,-28.21"/>
</g>
<!-- Node4&#45;&gt;Node2 -->
<g id="edge4" class="edge">
<title>Node4&#45;&gt;Node2</title>
<path fill="none" stroke="midnightblue" d="M113.06,-133.55C124.31,-146.07 146.05,-167.43 170,-176 296.66,-221.33 460.8,-200.68 532.42,-188.14"/>
<polygon fill="midnightblue" stroke="midnightblue" points="533.08,-191.57 542.3,-186.35 531.84,-184.68 533.08,-191.57"/>
</g>
<!-- Node5 -->
<g id="node5" class="node">
<title>Node5</title>
<g id="a_node5"><a xlink:href="../../d8/df2/classadaline.html#a333825d2cc10eb37b1a59c05bad3f48d" target="_top" xlink:title=" ">
<polygon fill="white" stroke="black" points="170,-38.5 170,-57.5 232,-57.5 232,-38.5 170,-38.5"/>
<text text-anchor="middle" x="201" y="-45.5" font-family="Helvetica,sans-Serif" font-size="10.00">adaline::fit</text>
</a>
</g>
</g>
<!-- Node4&#45;&gt;Node5 -->
<g id="edge5" class="edge">
<title>Node4&#45;&gt;Node5</title>
<path fill="none" stroke="midnightblue" d="M120.61,-114.31C125.02,-111.43 129.77,-108.19 134,-105 150.86,-92.29 168.93,-76.51 181.9,-64.78"/>
<polygon fill="midnightblue" stroke="midnightblue" points="184.59,-67.06 189.62,-57.73 179.87,-61.89 184.59,-67.06"/>
</g>
<!-- Node8 -->
<g id="node8" class="node">
<title>Node8</title>
<g id="a_node8"><a xlink:href="../../d8/df2/classadaline.html#aa7e0dcc813eb88562f42f1915e536ce3" target="_top" xlink:title=" ">
<polygon fill="white" stroke="black" points="268,-76.5 268,-95.5 351,-95.5 351,-76.5 268,-76.5"/>
<text text-anchor="middle" x="309.5" y="-83.5" font-family="Helvetica,sans-Serif" font-size="10.00">adaline::predict</text>
</a>
</g>
</g>
<!-- Node4&#45;&gt;Node8 -->
<g id="edge14" class="edge">
<title>Node4&#45;&gt;Node8</title>
<path fill="none" stroke="midnightblue" d="M123.06,-120.63C153.02,-115.03 214.04,-103.64 257.91,-95.45"/>
<polygon fill="midnightblue" stroke="midnightblue" points="258.64,-98.87 267.83,-93.59 257.36,-91.99 258.64,-98.87"/>
</g>
<!-- Node6 -->
<g id="node6" class="node">
<title>Node6</title>
<g id="a_node6"><a xlink:href="../../d8/df2/classadaline.html#acffd34f96651856d625ee5ec7f73eba1" target="_top" xlink:title=" ">
<polygon fill="white" stroke="black" points="387,-65 387,-95 490,-95 490,-65 387,-65"/>
<text text-anchor="start" x="395" y="-83" font-family="Helvetica,sans-Serif" font-size="10.00">adaline::check_size</text>
<text text-anchor="middle" x="438.5" y="-72" font-family="Helvetica,sans-Serif" font-size="10.00">_match</text>
</a>
</g>
</g>
<!-- Node5&#45;&gt;Node6 -->
<g id="edge6" class="edge">
<title>Node5&#45;&gt;Node6</title>
<path fill="none" stroke="midnightblue" d="M232.28,-51.66C262.4,-55.35 309.93,-61.3 351,-67 359.32,-68.16 368.09,-69.42 376.72,-70.69"/>
<polygon fill="midnightblue" stroke="midnightblue" points="376.35,-74.17 386.76,-72.18 377.38,-67.25 376.35,-74.17"/>
</g>
<!-- Node7 -->
<g id="node7" class="node">
<title>Node7</title>
<g id="a_node7"><a target="_parent" xlink:href="http://en.cppreference.com/w/cpp/container/vector/size.html#" xlink:title=" ">
<polygon fill="white" stroke="black" points="526,-26.5 526,-45.5 613,-45.5 613,-26.5 526,-26.5"/>
<text text-anchor="middle" x="569.5" y="-33.5" font-family="Helvetica,sans-Serif" font-size="10.00">std::vector::size</text>
</a>
</g>
</g>
<!-- Node5&#45;&gt;Node7 -->
<g id="edge13" class="edge">
<title>Node5&#45;&gt;Node7</title>
<path fill="none" stroke="midnightblue" d="M232.09,-45.45C268.68,-42.48 332.31,-37.77 387,-36 430.28,-34.6 479.4,-34.7 515.62,-35.1"/>
<polygon fill="midnightblue" stroke="midnightblue" points="515.91,-38.6 525.95,-35.22 515.99,-31.6 515.91,-38.6"/>
</g>
<!-- Node5&#45;&gt;Node8 -->
<g id="edge9" class="edge">
<title>Node5&#45;&gt;Node8</title>
<path fill="none" stroke="midnightblue" d="M228.87,-57.59C241.99,-62.27 257.97,-67.97 272.15,-73.03"/>
<polygon fill="midnightblue" stroke="midnightblue" points="271.04,-76.35 281.63,-76.41 273.39,-69.76 271.04,-76.35"/>
</g>
<!-- Node6&#45;&gt;Node2 -->
<g id="edge7" class="edge">
<title>Node6&#45;&gt;Node2</title>
<path fill="none" stroke="midnightblue" d="M473.48,-95C479.17,-98.02 484.88,-101.39 490,-105 514.29,-122.14 538.25,-146.77 553.19,-163.3"/>
<polygon fill="midnightblue" stroke="midnightblue" points="550.88,-165.96 560.13,-171.12 556.11,-161.32 550.88,-165.96"/>
</g>
<!-- Node6&#45;&gt;Node7 -->
<g id="edge8" class="edge">
<title>Node6&#45;&gt;Node7</title>
<path fill="none" stroke="midnightblue" d="M483.53,-64.98C498.83,-59.76 515.85,-53.96 530.61,-48.92"/>
<polygon fill="midnightblue" stroke="midnightblue" points="532.08,-52.12 540.42,-45.58 529.82,-45.49 532.08,-52.12"/>
</g>
<!-- Node8&#45;&gt;Node6 -->
<g id="edge11" class="edge">
<title>Node8&#45;&gt;Node6</title>
<path fill="none" stroke="midnightblue" d="M351.03,-84.09C359.17,-83.7 367.89,-83.29 376.55,-82.88"/>
<polygon fill="midnightblue" stroke="midnightblue" points="376.82,-86.37 386.65,-82.4 376.49,-79.38 376.82,-86.37"/>
</g>
<!-- Node8&#45;&gt;Node7 -->
<g id="edge12" class="edge">
<title>Node8&#45;&gt;Node7</title>
<path fill="none" stroke="midnightblue" d="M329.8,-76.41C344.97,-69.31 366.84,-60.03 387,-55 429.39,-44.42 478.77,-39.72 515.31,-37.64"/>
<polygon fill="midnightblue" stroke="midnightblue" points="515.94,-41.12 525.74,-37.1 515.57,-34.13 515.94,-41.12"/>
</g>
<!-- Node9 -->
<g id="node9" class="node">
<title>Node9</title>
<g id="a_node9"><a target="_parent" xlink:href="http://en.cppreference.com/w/cpp/container/vector/back.html#" xlink:title=" ">
<polygon fill="white" stroke="black" points="393.5,-114.5 393.5,-133.5 483.5,-133.5 483.5,-114.5 393.5,-114.5"/>
<text text-anchor="middle" x="438.5" y="-121.5" font-family="Helvetica,sans-Serif" font-size="10.00">std::vector::back</text>
</a>
</g>
</g>
<!-- Node8&#45;&gt;Node9 -->
<g id="edge10" class="edge">
<title>Node8&#45;&gt;Node9</title>
<path fill="none" stroke="midnightblue" d="M342.55,-95.59C358.64,-100.4 378.34,-106.3 395.62,-111.47"/>
<polygon fill="midnightblue" stroke="midnightblue" points="394.88,-114.9 405.46,-114.41 396.89,-108.19 394.88,-114.9"/>
</g>
<!-- Node10&#45;&gt;Node2 -->
<g id="edge16" class="edge">
<title>Node10&#45;&gt;Node2</title>
<path fill="none" stroke="midnightblue" d="M123.2,-89.98C136.23,-92.81 154.18,-96.69 170,-100 303.43,-127.93 462.28,-159.81 532.3,-173.79"/>
<polygon fill="midnightblue" stroke="midnightblue" points="531.88,-177.27 542.37,-175.8 533.25,-170.41 531.88,-177.27"/>
</g>
<!-- Node10&#45;&gt;Node5 -->
<g id="edge17" class="edge">
<title>Node10&#45;&gt;Node5</title>
<path fill="none" stroke="midnightblue" d="M123.32,-78.67C135.5,-73.8 151.85,-67.26 166.33,-61.47"/>
<polygon fill="midnightblue" stroke="midnightblue" points="168,-64.57 175.98,-57.61 165.4,-58.07 168,-64.57"/>
</g>
<!-- Node10&#45;&gt;Node8 -->
<g id="edge18" class="edge">
<title>Node10&#45;&gt;Node8</title>
<path fill="none" stroke="midnightblue" d="M123.06,-86C152.96,-86 213.79,-86 257.64,-86"/>
<polygon fill="midnightblue" stroke="midnightblue" points="257.83,-89.5 267.83,-86 257.83,-82.5 257.83,-89.5"/>
</g>
<!-- Node11 -->
<g id="node11" class="node">
<title>Node11</title>
<g id="a_node11"><a target="_parent" xlink:href="http://en.cppreference.com/w/cpp/numeric/random/rand.html#" xlink:title=" ">
<polygon fill="white" stroke="black" points="173.5,-0.5 173.5,-19.5 228.5,-19.5 228.5,-0.5 173.5,-0.5"/>
<text text-anchor="middle" x="201" y="-7.5" font-family="Helvetica,sans-Serif" font-size="10.00">std::rand</text>
</a>
</g>
</g>
<!-- Node10&#45;&gt;Node11 -->
<g id="edge19" class="edge">
<title>Node10&#45;&gt;Node11</title>
<path fill="none" stroke="midnightblue" d="M121.13,-76.38C125.45,-73.55 130.03,-70.32 134,-67 151.85,-52.08 152.04,-43.78 170,-29 171.54,-27.74 173.16,-26.49 174.83,-25.28"/>
<polygon fill="midnightblue" stroke="midnightblue" points="176.97,-28.05 183.3,-19.55 173.05,-22.25 176.97,-28.05"/>
</g>
</g>
</svg>
        <g id="navigator" transform="translate(0 0)" fill="#404254">
                <rect fill="#f2f5e9" fill-opacity="0.5" stroke="#606060" stroke-width=".5" x="0" y="0" width="60" height="60"/>
                <use id="zoomplus" xlink:href="#zoomPlus" x="17" y="9" onmousedown="handleZoom(evt,'in')"/>
                <use id="zoomminus" xlink:href="#zoomMin" x="42" y="9" onmousedown="handleZoom(evt,'out')"/>
                <use id="reset" xlink:href="#resetDef" x="30" y="36" onmousedown="handleReset()"/>
                <g id="arrowUp" xlink:href="#dirArrow" transform="translate(30 24)" onmousedown="handlePan(0,-1)">
                  <use xlink:href="#rim" fill="#404040">
                        <set attributeName="fill" to="#808080" begin="arrowUp.mouseover" end="arrowUp.mouseout"/>
                  </use>
                  <path fill="none" stroke="white" stroke-width="1.5" d="M0,-3.0v7 M-2.5,-0.5L0,-3.0L2.5,-0.5"/>
                </g>
                <g id="arrowRight" xlink:href="#dirArrow" transform="rotate(90) translate(36 -43)" onmousedown="handlePan(1,0)">
                  <use xlink:href="#rim" fill="#404040">
                        <set attributeName="fill" to="#808080" begin="arrowRight.mouseover" end="arrowRight.mouseout"/>
                  </use>
                  <path fill="none" stroke="white" stroke-width="1.5" d="M0,-3.0v7 M-2.5,-0.5L0,-3.0L2.5,-0.5"/>
                </g>
                <g id="arrowDown" xlink:href="#dirArrow" transform="rotate(180) translate(-30 -48)" onmousedown="handlePan(0,1)">
                  <use xlink:href="#rim" fill="#404040">
                        <set attributeName="fill" to="#808080" begin="arrowDown.mouseover" end="arrowDown.mouseout"/>
                  </use>
                  <path fill="none" stroke="white" stroke-width="1.5" d="M0,-3.0v7 M-2.5,-0.5L0,-3.0L2.5,-0.5"/>
                </g>
                <g id="arrowLeft" xlink:href="#dirArrow" transform="rotate(270) translate(-36 17)" onmousedown="handlePan(-1,0)">
                  <use xlink:href="#rim" fill="#404040">
                        <set attributeName="fill" to="#808080" begin="arrowLeft.mouseover" end="arrowLeft.mouseout"/>
                  </use>
                  <path fill="none" stroke="white" stroke-width="1.5" d="M0,-3.0v7 M-2.5,-0.5L0,-3.0L2.5,-0.5"/>
                </g>
        </g>
        <svg viewBox="0 0 15 15" width="100%" height="30px" preserveAspectRatio="xMaxYMin meet">
         <g id="arrow_out" transform="scale(0.3 0.3)">
          <a xlink:href="adaline__learning_8cpp_a3c04138a5bfe5d72780bb7e82a18e627_cgraph_org.svg" target="_base">
           <rect id="button" ry="5" rx="5" y="6" x="6" height="38" width="38"
                fill="#f2f5e9" fill-opacity="0.5" stroke="#606060" stroke-width="1.0"/>
           <path id="arrow"
             d="M 11.500037,31.436501 C 11.940474,20.09759 22.043105,11.32322 32.158766,21.979434 L 37.068811,17.246167 C 37.068811,17.246167 37.088388,32 37.088388,32 L 22.160133,31.978069 C 22.160133,31.978069 26.997745,27.140456 26.997745,27.140456 C 18.528582,18.264221 13.291696,25.230495 11.500037,31.436501 z"
             style="fill:#404040;"/>
          </a>
         </g>
        </svg>
</svg>
