<?xml version="1.0" encoding="UTF-8" standalone="no"?>
<!DOCTYPE svg PUBLIC "-//W3C//DTD SVG 1.1//EN"
 "http://www.w3.org/Graphics/SVG/1.1/DTD/svg11.dtd">
<!-- Generated by graphviz version 8.0.2 (20230410.1723)
 -->
<!-- Title: test3 Pages: 1 -->
<!--zoomable 288 -->
<svg id="main" version="1.1" xmlns="http://www.w3.org/2000/svg" xmlns:xlink="http://www.w3.org/1999/xlink" xml:space="preserve" onload="init(evt)">
<style type="text/css"><![CDATA[
.edge:hover path { stroke: red; }
.edge:hover polygon { stroke: red; fill: red; }
]]></style>
<script type="text/javascript"><![CDATA[
var edges = document.getElementsByTagName('g');
if (edges && edges.length) {
  for (var i=0;i<edges.length;i++) {
    if (edges[i].id.substr(0,4)=='edge') {
      edges[i].setAttribute('class','edge');
    }
  }
}
]]></script>
        <defs>
                <circle id="rim" cx="0" cy="0" r="7"/>
                <circle id="rim2" cx="0" cy="0" r="3.5"/>
                <g id="zoomPlus">
                        <use xlink:href="#rim" fill="#404040">
                                <set attributeName="fill" to="#808080" begin="zoomplus.mouseover" end="zoomplus.mouseout"/>
                        </use>
                        <path d="M-4,0h8M0,-4v8" fill="none" stroke="white" stroke-width="1.5" pointer-events="none"/>
                </g>
                <g id="zoomMin">
                        <use xlink:href="#rim" fill="#404040">
                                <set attributeName="fill" to="#808080" begin="zoomminus.mouseover" end="zoomminus.mouseout"/>
                        </use>
                        <path d="M-4,0h8" fill="none" stroke="white" stroke-width="1.5" pointer-events="none"/>
                </g>
                <g id="dirArrow">
                        <path fill="none" stroke="white" stroke-width="1.5" d="M0,-3.0v7 M-2.5,-0.5L0,-3.0L2.5,-0.5"/>
                </g>
               <g id="resetDef">
                       <use xlink:href="#rim2" fill="#404040">
                               <set attributeName="fill" to="#808080" begin="reset.mouseover" end="reset.mouseout"/>
                       </use>
               </g>
        </defs>

<script type="text/javascript">
var viewWidth = 678;
var viewHeight = 288;
var sectionId = 'dynsection-4';
</script>
<script xlink:href="../../svgpan.js"/>
<svg id="graph" class="graph">
<g id="viewport">
<title>test3</title>
<!-- Node1 -->
<g id="node1" class="node">
<title>Node1</title>
<g id="a_node1"><a xlink:title=" ">
<polygon fill="#999999" stroke="#666666" points="38,-197.5 0,-197.5 0,-178.5 38,-178.5 38,-197.5"/>
<text text-anchor="middle" x="19" y="-185.5" font-family="Helvetica,sans-Serif" font-size="10.00">test3</text>
</a>
</g>
</g>
<!-- Node2 -->
<g id="node2" class="node">
<title>Node2</title>
<g id="a_node2"><a target="_blank" xlink:href="http://en.cppreference.com/w/cpp/io/manip/endl.html#" xlink:title=" ">
<polygon fill="white" stroke="#666666" points="653.5,-279.5 599.5,-279.5 599.5,-260.5 653.5,-260.5 653.5,-279.5"/>
<text text-anchor="middle" x="626.5" y="-267.5" font-family="Helvetica,sans-Serif" font-size="10.00">std::endl</text>
</a>
</g>
</g>
<!-- Node1&#45;&gt;Node2 -->
<g id="edge1" class="edge">
<title>Node1&#45;&gt;Node2</title>
<path fill="none" stroke="#63b8ff" d="M31.12,-197.92C41.46,-206.55 57.69,-218.65 74,-225 217.92,-281 263.95,-263.08 418,-274 477.46,-278.21 546.73,-275.31 588.3,-272.73"/>
<polygon fill="#63b8ff" stroke="#63b8ff" points="588.5,-276.16 598.26,-272.02 588.05,-269.17 588.5,-276.16"/>
</g>
<!-- Node3 -->
<g id="node3" class="node">
<title>Node3</title>
<g id="a_node3"><a xlink:href="../../d6/d30/classmachine__learning_1_1adaline.html#a74e3c6c037b67895014414c5d75465e5" target="_top" xlink:title=" ">
<polygon fill="white" stroke="#666666" points="217,-216.5 74,-216.5 74,-197.5 217,-197.5 217,-216.5"/>
<text text-anchor="middle" x="145.5" y="-204.5" font-family="Helvetica,sans-Serif" font-size="10.00">machine_learning::adaline::fit</text>
</a>
</g>
</g>
<!-- Node1&#45;&gt;Node3 -->
<g id="edge2" class="edge">
<title>Node1&#45;&gt;Node3</title>
<path fill="none" stroke="#63b8ff" d="M38.37,-190.8C46.73,-192.08 57.23,-193.68 68.35,-195.38"/>
<polygon fill="#63b8ff" stroke="#63b8ff" points="67.75,-198.98 78.16,-197.03 68.8,-192.06 67.75,-198.98"/>
</g>
<!-- Node6 -->
<g id="node6" class="node">
<title>Node6</title>
<g id="a_node6"><a xlink:href="../../d6/d30/classmachine__learning_1_1adaline.html#ab11242d9ad5b03a75911e29b04f78fd3" target="_top" xlink:title=" ">
<polygon fill="white" stroke="#666666" points="382,-163 253,-163 253,-133 382,-133 382,-163"/>
<text text-anchor="start" x="261" y="-151" font-family="Helvetica,sans-Serif" font-size="10.00">machine_learning::adaline</text>
<text text-anchor="middle" x="317.5" y="-140" font-family="Helvetica,sans-Serif" font-size="10.00">::predict</text>
</a>
</g>
</g>
<!-- Node1&#45;&gt;Node6 -->
<g id="edge14" class="edge">
<title>Node1&#45;&gt;Node6</title>
<path fill="none" stroke="#63b8ff" d="M38.1,-185.56C77.66,-180.22 173.75,-167.26 241.94,-158.06"/>
<polygon fill="#63b8ff" stroke="#63b8ff" points="242.19,-161.42 251.64,-156.62 241.26,-154.48 242.19,-161.42"/>
</g>
<!-- Node12 -->
<g id="node12" class="node">
<title>Node12</title>
<g id="a_node12"><a target="_blank" xlink:href="http://en.cppreference.com/w/cpp/numeric/random/rand.html#" xlink:title=" ">
<polygon fill="white" stroke="#666666" points="173,-140.5 118,-140.5 118,-121.5 173,-121.5 173,-140.5"/>
<text text-anchor="middle" x="145.5" y="-128.5" font-family="Helvetica,sans-Serif" font-size="10.00">std::rand</text>
</a>
</g>
</g>
<!-- Node1&#45;&gt;Node12 -->
<g id="edge15" class="edge">
<title>Node1&#45;&gt;Node12</title>
<path fill="none" stroke="#63b8ff" d="M34.18,-178.14C44.8,-171.05 59.87,-161.62 74,-155 84.56,-150.05 96.43,-145.61 107.37,-141.93"/>
<polygon fill="#63b8ff" stroke="#63b8ff" points="108.07,-145.06 116.51,-138.65 105.92,-138.4 108.07,-145.06"/>
</g>
<!-- Node4 -->
<g id="node4" class="node">
<title>Node4</title>
<g id="a_node4"><a xlink:href="../../d6/d30/classmachine__learning_1_1adaline.html#ac8a9c2aaaa63b0f27ea176857e1e7d56" target="_top" xlink:title=" ">
<polygon fill="white" stroke="#666666" points="547,-265 418,-265 418,-235 547,-235 547,-265"/>
<text text-anchor="start" x="426" y="-253" font-family="Helvetica,sans-Serif" font-size="10.00">machine_learning::adaline</text>
<text text-anchor="middle" x="482.5" y="-242" font-family="Helvetica,sans-Serif" font-size="10.00">::check_size_match</text>
</a>
</g>
</g>
<!-- Node3&#45;&gt;Node4 -->
<g id="edge3" class="edge">
<title>Node3&#45;&gt;Node4</title>
<path fill="none" stroke="#63b8ff" d="M217.24,-216.34C229.18,-217.91 241.44,-219.51 253,-221 304.48,-227.65 362.49,-235.01 407.19,-240.65"/>
<polygon fill="#63b8ff" stroke="#63b8ff" points="406.6,-244.23 416.96,-242.01 407.48,-237.29 406.6,-244.23"/>
</g>
<!-- Node5 -->
<g id="node5" class="node">
<title>Node5</title>
<g id="a_node5"><a target="_blank" xlink:href="http://en.cppreference.com/w/cpp/container/vector/size.html#" xlink:title=" ">
<polygon fill="white" stroke="#666666" points="670,-239.5 583,-239.5 583,-220.5 670,-220.5 670,-239.5"/>
<text text-anchor="middle" x="626.5" y="-227.5" font-family="Helvetica,sans-Serif" font-size="10.00">std::vector::size</text>
</a>
</g>
</g>
<!-- Node3&#45;&gt;Node5 -->
<g id="edge13" class="edge">
<title>Node3&#45;&gt;Node5</title>
<path fill="none" stroke="#63b8ff" d="M217.4,-210.29C297.45,-214.02 431.59,-220.32 547,-226 555.06,-226.4 563.58,-226.82 571.92,-227.24"/>
<polygon fill="#63b8ff" stroke="#63b8ff" points="571.56,-230.78 581.72,-227.79 571.91,-223.79 571.56,-230.78"/>
</g>
<!-- Node3&#45;&gt;Node6 -->
<g id="edge6" class="edge">
<title>Node3&#45;&gt;Node6</title>
<path fill="none" stroke="#63b8ff" d="M176.02,-197.02C188.65,-192.74 203.56,-187.65 217,-183 231.9,-177.84 248.04,-172.19 262.9,-166.97"/>
<polygon fill="#63b8ff" stroke="#63b8ff" points="263.67,-170.05 271.94,-163.43 261.35,-163.45 263.67,-170.05"/>
</g>
<!-- Node4&#45;&gt;Node2 -->
<g id="edge4" class="edge">
<title>Node4&#45;&gt;Node2</title>
<path fill="none" stroke="#63b8ff" d="M547.44,-259.01C561.56,-260.99 576.05,-263.04 588.66,-264.81"/>
<polygon fill="#63b8ff" stroke="#63b8ff" points="587.81,-268.37 598.2,-266.3 588.79,-261.44 587.81,-268.37"/>
</g>
<!-- Node4&#45;&gt;Node5 -->
<g id="edge5" class="edge">
<title>Node4&#45;&gt;Node5</title>
<path fill="none" stroke="#63b8ff" d="M547.44,-240.99C555.64,-239.84 563.96,-238.67 571.97,-237.54"/>
<polygon fill="#63b8ff" stroke="#63b8ff" points="572.24,-240.89 581.66,-236.03 571.27,-233.96 572.24,-240.89"/>
</g>
<!-- Node6&#45;&gt;Node4 -->
<g id="edge10" class="edge">
<title>Node6&#45;&gt;Node4</title>
<path fill="none" stroke="#63b8ff" d="M343.26,-163.49C371.1,-180.92 416.49,-209.32 447.61,-228.79"/>
<polygon fill="#63b8ff" stroke="#63b8ff" points="445.44,-232.19 455.78,-234.53 449.16,-226.26 445.44,-232.19"/>
</g>
<!-- Node7 -->
<g id="node7" class="node">
<title>Node7</title>
<g id="a_node7"><a xlink:href="../../d6/d30/classmachine__learning_1_1adaline.html#a082f758fb55fe19f22b3df66f89b2325" target="_top" xlink:title=" ">
<polygon fill="white" stroke="#666666" points="547,-30 418,-30 418,0 547,0 547,-30"/>
<text text-anchor="start" x="426" y="-18" font-family="Helvetica,sans-Serif" font-size="10.00">machine_learning::adaline</text>
<text text-anchor="middle" x="482.5" y="-7" font-family="Helvetica,sans-Serif" font-size="10.00">::activation</text>
</a>
</g>
</g>
<!-- Node6&#45;&gt;Node7 -->
<g id="edge7" class="edge">
<title>Node6&#45;&gt;Node7</title>
<path fill="none" stroke="#63b8ff" d="M328.96,-132.51C345.4,-109.23 379.41,-65.18 418,-39 419.76,-37.81 421.58,-36.67 423.45,-35.57"/>
<polygon fill="#63b8ff" stroke="#63b8ff" points="424.9,-38.24 432.13,-30.49 421.65,-32.04 424.9,-38.24"/>
</g>
<!-- Node8 -->
<g id="node8" class="node">
<title>Node8</title>
<g id="a_node8"><a target="_blank" xlink:href="http://en.cppreference.com/w/cpp/container/vector/back.html#" xlink:title=" ">
<polygon fill="white" stroke="#666666" points="527.5,-178.5 437.5,-178.5 437.5,-159.5 527.5,-159.5 527.5,-178.5"/>
<text text-anchor="middle" x="482.5" y="-166.5" font-family="Helvetica,sans-Serif" font-size="10.00">std::vector::back</text>
</a>
</g>
</g>
<!-- Node6&#45;&gt;Node8 -->
<g id="edge8" class="edge">
<title>Node6&#45;&gt;Node8</title>
<path fill="none" stroke="#63b8ff" d="M382.45,-156.24C397.1,-158.13 412.53,-160.11 426.74,-161.95"/>
<polygon fill="#63b8ff" stroke="#63b8ff" points="425.98,-165.5 436.34,-163.31 426.87,-158.56 425.98,-165.5"/>
</g>
<!-- Node9 -->
<g id="node9" class="node">
<title>Node9</title>
<g id="a_node9"><a target="_blank" xlink:href="http://en.cppreference.com/w/cpp/container/vector/begin.html#" xlink:title=" ">
<polygon fill="white" stroke="#666666" points="528.5,-141.5 436.5,-141.5 436.5,-122.5 528.5,-122.5 528.5,-141.5"/>
<text text-anchor="middle" x="482.5" y="-129.5" font-family="Helvetica,sans-Serif" font-size="10.00">std::vector::begin</text>
</a>
</g>
</g>
<!-- Node6&#45;&gt;Node9 -->
<g id="edge9" class="edge">
<title>Node6&#45;&gt;Node9</title>
<path fill="none" stroke="#63b8ff" d="M382.45,-141.72C396.67,-140.33 411.63,-138.86 425.5,-137.5"/>
<polygon fill="#63b8ff" stroke="#63b8ff" points="425.74,-140.89 435.35,-136.43 425.06,-133.93 425.74,-140.89"/>
</g>
<!-- Node10 -->
<g id="node10" class="node">
<title>Node10</title>
<g id="a_node10"><a target="_blank" xlink:href="http://en.cppreference.com/w/cpp/container/vector/end.html#" xlink:title=" ">
<polygon fill="white" stroke="#666666" points="525,-104.5 440,-104.5 440,-85.5 525,-85.5 525,-104.5"/>
<text text-anchor="middle" x="482.5" y="-92.5" font-family="Helvetica,sans-Serif" font-size="10.00">std::vector::end</text>
</a>
</g>
</g>
<!-- Node6&#45;&gt;Node10 -->
<g id="edge11" class="edge">
<title>Node6&#45;&gt;Node10</title>
<path fill="none" stroke="#63b8ff" d="M360.43,-132.6C378.11,-126.28 398.97,-119.04 418,-113 423.26,-111.33 428.78,-109.65 434.29,-108.03"/>
<polygon fill="#63b8ff" stroke="#63b8ff" points="435.15,-111.13 443.78,-104.99 433.2,-104.41 435.15,-111.13"/>
</g>
<!-- Node11 -->
<g id="node11" class="node">
<title>Node11</title>
<g id="a_node11"><a target="_blank" xlink:href="http://en.cppreference.com/w/cpp/algorithm/inner_product.html#" xlink:title=" ">
<polygon fill="white" stroke="#666666" points="530,-67.5 435,-67.5 435,-48.5 530,-48.5 530,-67.5"/>
<text text-anchor="middle" x="482.5" y="-55.5" font-family="Helvetica,sans-Serif" font-size="10.00">std::inner_product</text>
</a>
</g>
</g>
<!-- Node6&#45;&gt;Node11 -->
<g id="edge12" class="edge">
<title>Node6&#45;&gt;Node11</title>
<path fill="none" stroke="#63b8ff" d="M335.62,-132.7C354.55,-116.51 386.53,-91.25 418,-76 421.35,-74.38 424.87,-72.88 428.47,-71.49"/>
<polygon fill="#63b8ff" stroke="#63b8ff" points="429.44,-74.51 437.72,-67.9 427.13,-67.9 429.44,-74.51"/>
</g>
</g>
</svg>
        <g id="navigator" transform="translate(0 0)" fill="#404254">
                <rect fill="#f2f5e9" fill-opacity="0.5" stroke="#606060" stroke-width=".5" x="0" y="0" width="60" height="60"/>
                <use id="zoomplus" xlink:href="#zoomPlus" x="17" y="9" onmousedown="handleZoom(evt,'in')"/>
                <use id="zoomminus" xlink:href="#zoomMin" x="42" y="9" onmousedown="handleZoom(evt,'out')"/>
                <use id="reset" xlink:href="#resetDef" x="30" y="36" onmousedown="handleReset()"/>
                <g id="arrowUp" xlink:href="#dirArrow" transform="translate(30 24)" onmousedown="handlePan(0,-1)">
                  <use xlink:href="#rim" fill="#404040">
                        <set attributeName="fill" to="#808080" begin="arrowUp.mouseover" end="arrowUp.mouseout"/>
                  </use>
                  <path fill="none" stroke="white" stroke-width="1.5" d="M0,-3.0v7 M-2.5,-0.5L0,-3.0L2.5,-0.5"/>
                </g>
                <g id="arrowRight" xlink:href="#dirArrow" transform="rotate(90) translate(36 -43)" onmousedown="handlePan(1,0)">
                  <use xlink:href="#rim" fill="#404040">
                        <set attributeName="fill" to="#808080" begin="arrowRight.mouseover" end="arrowRight.mouseout"/>
                  </use>
                  <path fill="none" stroke="white" stroke-width="1.5" d="M0,-3.0v7 M-2.5,-0.5L0,-3.0L2.5,-0.5"/>
                </g>
                <g id="arrowDown" xlink:href="#dirArrow" transform="rotate(180) translate(-30 -48)" onmousedown="handlePan(0,1)">
                  <use xlink:href="#rim" fill="#404040">
                        <set attributeName="fill" to="#808080" begin="arrowDown.mouseover" end="arrowDown.mouseout"/>
                  </use>
                  <path fill="none" stroke="white" stroke-width="1.5" d="M0,-3.0v7 M-2.5,-0.5L0,-3.0L2.5,-0.5"/>
                </g>
                <g id="arrowLeft" xlink:href="#dirArrow" transform="rotate(270) translate(-36 17)" onmousedown="handlePan(-1,0)">
                  <use xlink:href="#rim" fill="#404040">
                        <set attributeName="fill" to="#808080" begin="arrowLeft.mouseover" end="arrowLeft.mouseout"/>
                  </use>
                  <path fill="none" stroke="white" stroke-width="1.5" d="M0,-3.0v7 M-2.5,-0.5L0,-3.0L2.5,-0.5"/>
                </g>
        </g>
        <svg viewBox="0 0 15 15" width="100%" height="30px" preserveAspectRatio="xMaxYMin meet">
         <g id="arrow_out" transform="scale(0.3 0.3)">
          <a xlink:href="adaline__learning_8cpp_a992bdf1fdb0b9d414bcf7981d2d87aa9_cgraph_org.svg" target="_base">
           <rect id="button" ry="5" rx="5" y="6" x="6" height="38" width="38"
                fill="#f2f5e9" fill-opacity="0.5" stroke="#606060" stroke-width="1.0"/>
           <path id="arrow"
             d="M 11.500037,31.436501 C 11.940474,20.09759 22.043105,11.32322 32.158766,21.979434 L 37.068811,17.246167 C 37.068811,17.246167 37.088388,32 37.088388,32 L 22.160133,31.978069 C 22.160133,31.978069 26.997745,27.140456 26.997745,27.140456 C 18.528582,18.264221 13.291696,25.230495 11.500037,31.436501 z"
             style="fill:#404040;"/>
          </a>
         </g>
        </svg>
</svg>
