<?xml version="1.0" encoding="UTF-8" standalone="no"?>
<!DOCTYPE svg PUBLIC "-//W3C//DTD SVG 1.1//EN"
 "http://www.w3.org/Graphics/SVG/1.1/DTD/svg11.dtd">
<!-- Generated by graphviz version 2.49.3 (20211023.0002)
 -->
<!-- Title: machine_learning::adaline::predict Pages: 1 -->
<svg width="432pt" height="204pt"
 viewBox="0.00 0.00 432.00 203.50" xmlns="http://www.w3.org/2000/svg" xmlns:xlink="http://www.w3.org/1999/xlink">
<g id="graph0" class="graph" transform="scale(1 1) rotate(0) translate(4 199.5)">
<title>machine_learning::adaline::predict</title>
<polygon fill="white" stroke="transparent" points="-4,4 -4,-199.5 428,-199.5 428,4 -4,4"/>
<!-- Node1 -->
<g id="node1" class="node">
<title>Node1</title>
<g id="a_node1"><a xlink:title=" ">
<polygon fill="#bfbfbf" stroke="black" points="0,-77 0,-107 133,-107 133,-77 0,-77"/>
<text text-anchor="start" x="8" y="-95" font-family="Helvetica,sans-Serif" font-size="10.00">machine_learning::adaline</text>
<text text-anchor="middle" x="66.5" y="-84" font-family="Helvetica,sans-Serif" font-size="10.00">::predict</text>
</a>
</g>
</g>
<!-- Node2 -->
<g id="node2" class="node">
<title>Node2</title>
<g id="a_node2"><a xlink:href="../../d6/d30/classmachine__learning_1_1adaline.html#a082f758fb55fe19f22b3df66f89b2325" target="_top" xlink:title=" ">
<polygon fill="white" stroke="black" points="169,-165 169,-195 302,-195 302,-165 169,-165"/>
<text text-anchor="start" x="177" y="-183" font-family="Helvetica,sans-Serif" font-size="10.00">machine_learning::adaline</text>
<text text-anchor="middle" x="235.5" y="-172" font-family="Helvetica,sans-Serif" font-size="10.00">::activation</text>
</a>
</g>
</g>
<!-- Node1&#45;&gt;Node2 -->
<g id="edge1" class="edge">
<title>Node1&#45;&gt;Node2</title>
<path fill="none" stroke="midnightblue" d="M88.98,-107.02C109.06,-120.64 140.2,-140.73 169,-155 173.21,-157.09 177.64,-159.11 182.12,-161.05"/>
<polygon fill="midnightblue" stroke="midnightblue" points="180.78,-164.28 191.36,-164.88 183.47,-157.81 180.78,-164.28"/>
</g>
<!-- Node3 -->
<g id="node3" class="node">
<title>Node3</title>
<g id="a_node3"><a target="_blank" xlink:href="http://en.cppreference.com/w/cpp/container/vector/begin.html#" xlink:title=" ">
<polygon fill="white" stroke="black" points="189,-126.5 189,-145.5 282,-145.5 282,-126.5 189,-126.5"/>
<text text-anchor="middle" x="235.5" y="-133.5" font-family="Helvetica,sans-Serif" font-size="10.00">std::vector::begin</text>
</a>
</g>
</g>
<!-- Node1&#45;&gt;Node3 -->
<g id="edge2" class="edge">
<title>Node1&#45;&gt;Node3</title>
<path fill="none" stroke="midnightblue" d="M124.5,-107.02C145.36,-112.51 168.67,-118.66 188.45,-123.87"/>
<polygon fill="midnightblue" stroke="midnightblue" points="187.58,-127.26 198.15,-126.42 189.37,-120.49 187.58,-127.26"/>
</g>
<!-- Node4 -->
<g id="node4" class="node">
<title>Node4</title>
<g id="a_node4"><a xlink:href="../../d6/d30/classmachine__learning_1_1adaline.html#ac8a9c2aaaa63b0f27ea176857e1e7d56" target="_top" xlink:title=" ">
<polygon fill="white" stroke="black" points="169,-77 169,-107 302,-107 302,-77 169,-77"/>
<text text-anchor="start" x="177" y="-95" font-family="Helvetica,sans-Serif" font-size="10.00">machine_learning::adaline</text>
<text text-anchor="middle" x="235.5" y="-84" font-family="Helvetica,sans-Serif" font-size="10.00">::check_size_match</text>
</a>
</g>
</g>
<!-- Node1&#45;&gt;Node4 -->
<g id="edge3" class="edge">
<title>Node1&#45;&gt;Node4</title>
<path fill="none" stroke="midnightblue" d="M133.02,-92C141.5,-92 150.23,-92 158.85,-92"/>
<polygon fill="midnightblue" stroke="midnightblue" points="158.89,-95.5 168.89,-92 158.89,-88.5 158.89,-95.5"/>
</g>
<!-- Node7 -->
<g id="node7" class="node">
<title>Node7</title>
<g id="a_node7"><a target="_blank" xlink:href="http://en.cppreference.com/w/cpp/container/vector/end.html#" xlink:title=" ">
<polygon fill="white" stroke="black" points="193,-38.5 193,-57.5 278,-57.5 278,-38.5 193,-38.5"/>
<text text-anchor="middle" x="235.5" y="-45.5" font-family="Helvetica,sans-Serif" font-size="10.00">std::vector::end</text>
</a>
</g>
</g>
<!-- Node1&#45;&gt;Node7 -->
<g id="edge6" class="edge">
<title>Node1&#45;&gt;Node7</title>
<path fill="none" stroke="midnightblue" d="M124.5,-76.98C145.36,-71.49 168.67,-65.34 188.45,-60.13"/>
<polygon fill="midnightblue" stroke="midnightblue" points="189.37,-63.51 198.15,-57.58 187.58,-56.74 189.37,-63.51"/>
</g>
<!-- Node8 -->
<g id="node8" class="node">
<title>Node8</title>
<g id="a_node8"><a target="_blank" xlink:href="http://en.cppreference.com/w/cpp/algorithm/inner_product.html#" xlink:title=" ">
<polygon fill="white" stroke="black" points="187,-0.5 187,-19.5 284,-19.5 284,-0.5 187,-0.5"/>
<text text-anchor="middle" x="235.5" y="-7.5" font-family="Helvetica,sans-Serif" font-size="10.00">std::inner_product</text>
</a>
</g>
</g>
<!-- Node1&#45;&gt;Node8 -->
<g id="edge7" class="edge">
<title>Node1&#45;&gt;Node8</title>
<path fill="none" stroke="midnightblue" d="M87.95,-76.96C107.82,-62.94 139.25,-42.25 169,-29 174.14,-26.71 179.62,-24.62 185.15,-22.73"/>
<polygon fill="midnightblue" stroke="midnightblue" points="186.63,-25.93 195.08,-19.54 184.49,-19.26 186.63,-25.93"/>
</g>
<!-- Node5 -->
<g id="node5" class="node">
<title>Node5</title>
<g id="a_node5"><a target="_blank" xlink:href="http://en.cppreference.com/w/cpp/io/manip/endl.html#" xlink:title=" ">
<polygon fill="white" stroke="black" points="354,-101.5 354,-120.5 408,-120.5 408,-101.5 354,-101.5"/>
<text text-anchor="middle" x="381" y="-108.5" font-family="Helvetica,sans-Serif" font-size="10.00">std::endl</text>
</a>
</g>
</g>
<!-- Node4&#45;&gt;Node5 -->
<g id="edge4" class="edge">
<title>Node4&#45;&gt;Node5</title>
<path fill="none" stroke="midnightblue" d="M302.37,-100.72C316.65,-102.61 331.23,-104.54 343.85,-106.21"/>
<polygon fill="midnightblue" stroke="midnightblue" points="343.57,-109.71 353.94,-107.55 344.49,-102.77 343.57,-109.71"/>
</g>
<!-- Node6 -->
<g id="node6" class="node">
<title>Node6</title>
<g id="a_node6"><a target="_blank" xlink:href="http://en.cppreference.com/w/cpp/container/vector/size.html#" xlink:title=" ">
<polygon fill="white" stroke="black" points="338,-63.5 338,-82.5 424,-82.5 424,-63.5 338,-63.5"/>
<text text-anchor="middle" x="381" y="-70.5" font-family="Helvetica,sans-Serif" font-size="10.00">std::vector::size</text>
</a>
</g>
</g>
<!-- Node4&#45;&gt;Node6 -->
<g id="edge5" class="edge">
<title>Node4&#45;&gt;Node6</title>
<path fill="none" stroke="midnightblue" d="M302.37,-83.28C310.96,-82.14 319.66,-80.99 327.98,-79.89"/>
<polygon fill="midnightblue" stroke="midnightblue" points="328.45,-83.36 337.91,-78.57 327.54,-76.42 328.45,-83.36"/>
</g>
</g>
</svg>
