<?xml version="1.0" encoding="UTF-8" standalone="no"?>
<!DOCTYPE svg PUBLIC "-//W3C//DTD SVG 1.1//EN"
 "http://www.w3.org/Graphics/SVG/1.1/DTD/svg11.dtd">
<!-- Generated by graphviz version 2.50.0 (20211204.2007)
 -->
<!-- Title: machine_learning::adaline::fit Pages: 1 -->
<svg width="783pt" height="276pt"
 viewBox="0.00 0.00 783.00 276.49" xmlns="http://www.w3.org/2000/svg" xmlns:xlink="http://www.w3.org/1999/xlink">
<g id="graph0" class="graph" transform="scale(1 1) rotate(0) translate(4 272.49)">
<title>machine_learning::adaline::fit</title>
<polygon fill="white" stroke="transparent" points="-4,4 -4,-272.49 779,-272.49 779,4 -4,4"/>
<!-- Node1 -->
<g id="node1" class="node">
<title>Node1</title>
<g id="a_node1"><a xlink:title=" ">
<polygon fill="#bfbfbf" stroke="black" points="0,-149.5 0,-168.5 143,-168.5 143,-149.5 0,-149.5"/>
<text text-anchor="middle" x="71.5" y="-156.5" font-family="Helvetica,sans-Serif" font-size="10.00">machine_learning::adaline::fit</text>
</a>
</g>
</g>
<!-- Node2 -->
<g id="node2" class="node">
<title>Node2</title>
<g id="a_node2"><a target="_blank" xlink:href="http://en.cppreference.com/w/cpp/io/manip/endl.html#" xlink:title=" ">
<polygon fill="white" stroke="black" points="704.5,-41.5 704.5,-60.5 758.5,-60.5 758.5,-41.5 704.5,-41.5"/>
<text text-anchor="middle" x="731.5" y="-48.5" font-family="Helvetica,sans-Serif" font-size="10.00">std::endl</text>
</a>
</g>
</g>
<!-- Node1&#45;&gt;Node2 -->
<g id="edge1" class="edge">
<title>Node1&#45;&gt;Node2</title>
<path fill="none" stroke="midnightblue" d="M90.94,-168.53C167.23,-206.51 463,-339.3 652,-219 704.42,-185.63 722.42,-107.07 728.1,-70.44"/>
<polygon fill="midnightblue" stroke="midnightblue" points="731.57,-70.9 729.5,-60.51 724.64,-69.93 731.57,-70.9"/>
</g>
<!-- Node3 -->
<g id="node3" class="node">
<title>Node3</title>
<g id="a_node3"><a xlink:href="../../d6/d30/classmachine__learning_1_1adaline.html#a74e3c6c037b67895014414c5d75465e5" target="_top" xlink:title=" ">
<polygon fill="white" stroke="black" points="179,-70.5 179,-89.5 322,-89.5 322,-70.5 179,-70.5"/>
<text text-anchor="middle" x="250.5" y="-77.5" font-family="Helvetica,sans-Serif" font-size="10.00">machine_learning::adaline::fit</text>
</a>
</g>
</g>
<!-- Node1&#45;&gt;Node3 -->
<g id="edge2" class="edge">
<title>Node1&#45;&gt;Node3</title>
<path fill="none" stroke="midnightblue" d="M93.85,-149.47C124.95,-135.59 182.88,-109.74 218.62,-93.78"/>
<polygon fill="midnightblue" stroke="midnightblue" points="220.37,-96.83 228.07,-89.56 217.52,-90.44 220.37,-96.83"/>
</g>
<!-- Node4 -->
<g id="node4" class="node">
<title>Node4</title>
<g id="a_node4"><a xlink:href="../../d6/d30/classmachine__learning_1_1adaline.html#ac8a9c2aaaa63b0f27ea176857e1e7d56" target="_top" xlink:title=" ">
<polygon fill="white" stroke="black" points="523,-16 523,-46 652,-46 652,-16 523,-16"/>
<text text-anchor="start" x="531" y="-34" font-family="Helvetica,sans-Serif" font-size="10.00">machine_learning::adaline</text>
<text text-anchor="middle" x="587.5" y="-23" font-family="Helvetica,sans-Serif" font-size="10.00">::check_size_match</text>
</a>
</g>
</g>
<!-- Node3&#45;&gt;Node4 -->
<g id="edge3" class="edge">
<title>Node3&#45;&gt;Node4</title>
<path fill="none" stroke="midnightblue" d="M316.49,-70.49C372.79,-62.26 454.19,-50.35 512.88,-41.77"/>
<polygon fill="midnightblue" stroke="midnightblue" points="513.44,-45.22 522.83,-40.31 512.43,-38.3 513.44,-45.22"/>
</g>
<!-- Node5 -->
<g id="node5" class="node">
<title>Node5</title>
<g id="a_node5"><a target="_blank" xlink:href="http://en.cppreference.com/w/cpp/container/vector/size.html#" xlink:title=" ">
<polygon fill="white" stroke="black" points="688,-0.5 688,-19.5 775,-19.5 775,-0.5 688,-0.5"/>
<text text-anchor="middle" x="731.5" y="-7.5" font-family="Helvetica,sans-Serif" font-size="10.00">std::vector::size</text>
</a>
</g>
</g>
<!-- Node3&#45;&gt;Node5 -->
<g id="edge12" class="edge">
<title>Node3&#45;&gt;Node5</title>
<path fill="none" stroke="midnightblue" d="M276.63,-70.36C298.05,-62.36 329.76,-51.04 358,-43 430.28,-22.41 448.3,-14.27 523,-6 579.98,0.31 594.69,-4.54 652,-6 660.24,-6.21 668.97,-6.54 677.49,-6.93"/>
<polygon fill="midnightblue" stroke="midnightblue" points="677.58,-10.44 687.74,-7.43 677.92,-3.45 677.58,-10.44"/>
</g>
<!-- Node6 -->
<g id="node6" class="node">
<title>Node6</title>
<g id="a_node6"><a xlink:href="../../d6/d30/classmachine__learning_1_1adaline.html#ab11242d9ad5b03a75911e29b04f78fd3" target="_top" xlink:title=" ">
<polygon fill="white" stroke="black" points="358,-87 358,-117 487,-117 487,-87 358,-87"/>
<text text-anchor="start" x="366" y="-105" font-family="Helvetica,sans-Serif" font-size="10.00">machine_learning::adaline</text>
<text text-anchor="middle" x="422.5" y="-94" font-family="Helvetica,sans-Serif" font-size="10.00">::predict</text>
</a>
</g>
</g>
<!-- Node3&#45;&gt;Node6 -->
<g id="edge6" class="edge">
<title>Node3&#45;&gt;Node6</title>
<path fill="none" stroke="midnightblue" d="M322.12,-89.14C330.64,-90.24 339.36,-91.37 347.93,-92.48"/>
<polygon fill="midnightblue" stroke="midnightblue" points="347.52,-95.96 357.89,-93.77 348.42,-89.01 347.52,-95.96"/>
</g>
<!-- Node4&#45;&gt;Node2 -->
<g id="edge4" class="edge">
<title>Node4&#45;&gt;Node2</title>
<path fill="none" stroke="midnightblue" d="M652.02,-39.95C666.45,-41.98 681.29,-44.07 694.12,-45.88"/>
<polygon fill="midnightblue" stroke="midnightblue" points="693.99,-49.39 704.39,-47.32 694.97,-42.46 693.99,-49.39"/>
</g>
<!-- Node4&#45;&gt;Node5 -->
<g id="edge5" class="edge">
<title>Node4&#45;&gt;Node5</title>
<path fill="none" stroke="midnightblue" d="M652.02,-21.61C660.63,-20.33 669.39,-19.04 677.78,-17.8"/>
<polygon fill="midnightblue" stroke="midnightblue" points="678.42,-21.24 687.81,-16.31 677.4,-14.31 678.42,-21.24"/>
</g>
<!-- Node6&#45;&gt;Node4 -->
<g id="edge9" class="edge">
<title>Node6&#45;&gt;Node4</title>
<path fill="none" stroke="midnightblue" d="M453.7,-86.96C473.28,-77.41 499.43,-65 523,-55 527.14,-53.24 531.46,-51.48 535.8,-49.74"/>
<polygon fill="midnightblue" stroke="midnightblue" points="537.28,-52.92 545.32,-46.02 534.73,-46.4 537.28,-52.92"/>
</g>
<!-- Node7 -->
<g id="node7" class="node">
<title>Node7</title>
<g id="a_node7"><a xlink:href="../../d6/d30/classmachine__learning_1_1adaline.html#a082f758fb55fe19f22b3df66f89b2325" target="_top" xlink:title=" ">
<polygon fill="white" stroke="black" points="523,-65 523,-95 652,-95 652,-65 523,-65"/>
<text text-anchor="start" x="531" y="-83" font-family="Helvetica,sans-Serif" font-size="10.00">machine_learning::adaline</text>
<text text-anchor="middle" x="587.5" y="-72" font-family="Helvetica,sans-Serif" font-size="10.00">::activation</text>
</a>
</g>
</g>
<!-- Node6&#45;&gt;Node7 -->
<g id="edge7" class="edge">
<title>Node6&#45;&gt;Node7</title>
<path fill="none" stroke="midnightblue" d="M487.45,-93.37C495.85,-92.23 504.51,-91.07 513.05,-89.91"/>
<polygon fill="midnightblue" stroke="midnightblue" points="513.56,-93.38 523,-88.57 512.62,-86.44 513.56,-93.38"/>
</g>
<!-- Node8 -->
<g id="node8" class="node">
<title>Node8</title>
<g id="a_node8"><a target="_blank" xlink:href="http://en.cppreference.com/w/cpp/container/vector/begin.html#" xlink:title=" ">
<polygon fill="white" stroke="black" points="541.5,-190.5 541.5,-209.5 633.5,-209.5 633.5,-190.5 541.5,-190.5"/>
<text text-anchor="middle" x="587.5" y="-197.5" font-family="Helvetica,sans-Serif" font-size="10.00">std::vector::begin</text>
</a>
</g>
</g>
<!-- Node6&#45;&gt;Node8 -->
<g id="edge8" class="edge">
<title>Node6&#45;&gt;Node8</title>
<path fill="none" stroke="midnightblue" d="M438.71,-117.2C457.17,-134.85 489.95,-163.76 523,-181 527.3,-183.24 531.91,-185.26 536.6,-187.07"/>
<polygon fill="midnightblue" stroke="midnightblue" points="535.7,-190.47 546.29,-190.49 538.03,-183.87 535.7,-190.47"/>
</g>
<!-- Node9 -->
<g id="node9" class="node">
<title>Node9</title>
<g id="a_node9"><a target="_blank" xlink:href="http://en.cppreference.com/w/cpp/container/vector/end.html#" xlink:title=" ">
<polygon fill="white" stroke="black" points="545,-152.5 545,-171.5 630,-171.5 630,-152.5 545,-152.5"/>
<text text-anchor="middle" x="587.5" y="-159.5" font-family="Helvetica,sans-Serif" font-size="10.00">std::vector::end</text>
</a>
</g>
</g>
<!-- Node6&#45;&gt;Node9 -->
<g id="edge10" class="edge">
<title>Node6&#45;&gt;Node9</title>
<path fill="none" stroke="midnightblue" d="M457.71,-117.09C476.75,-125.24 500.99,-135.19 523,-143 529.34,-145.25 536.09,-147.46 542.74,-149.54"/>
<polygon fill="midnightblue" stroke="midnightblue" points="541.77,-152.9 552.35,-152.47 543.81,-146.2 541.77,-152.9"/>
</g>
<!-- Node10 -->
<g id="node10" class="node">
<title>Node10</title>
<g id="a_node10"><a target="_blank" xlink:href="http://en.cppreference.com/w/cpp/algorithm/inner_product.html#" xlink:title=" ">
<polygon fill="white" stroke="black" points="540,-114.5 540,-133.5 635,-133.5 635,-114.5 540,-114.5"/>
<text text-anchor="middle" x="587.5" y="-121.5" font-family="Helvetica,sans-Serif" font-size="10.00">std::inner_product</text>
</a>
</g>
</g>
<!-- Node6&#45;&gt;Node10 -->
<g id="edge11" class="edge">
<title>Node6&#45;&gt;Node10</title>
<path fill="none" stroke="midnightblue" d="M487.45,-110.63C501.38,-112.51 516.03,-114.49 529.66,-116.33"/>
<polygon fill="midnightblue" stroke="midnightblue" points="529.48,-119.84 539.86,-117.71 530.42,-112.9 529.48,-119.84"/>
</g>
</g>
</svg>
