<?xml version="1.0" encoding="UTF-8" standalone="no"?>
<!DOCTYPE svg PUBLIC "-//W3C//DTD SVG 1.1//EN"
 "http://www.w3.org/Graphics/SVG/1.1/DTD/svg11.dtd">
<!-- Generated by graphviz version 6.0.1 (20220911.1526)
 -->
<!-- Title: hashing::md5::hash_bs Pages: 1 -->
<svg width="482pt" height="229pt"
 viewBox="0.00 0.00 482.00 229.00" xmlns="http://www.w3.org/2000/svg" xmlns:xlink="http://www.w3.org/1999/xlink">
<g id="graph0" class="graph" transform="scale(1 1) rotate(0) translate(4 225)">
<title>hashing::md5::hash_bs</title>
<!-- Node1 -->
<g id="node1" class="node">
<title>Node1</title>
<g id="a_node1"><a xlink:title="The MD5 algorithm itself, taking in a bytestring.">
<polygon fill="#999999" stroke="#666666" points="118,-129 0,-129 0,-110 118,-110 118,-129"/>
<text text-anchor="middle" x="59" y="-117" font-family="Helvetica,sans-Serif" font-size="10.00">hashing::md5::hash_bs</text>
</a>
</g>
</g>
<!-- Node1&#45;&gt;Node1 -->
<g id="edge3" class="edge">
<title>Node1&#45;&gt;Node1</title>
<path fill="none" stroke="#63b8ff" d="M32.72,-129.08C19.94,-137.73 28.7,-147 59,-147 79.36,-147 90,-142.82 90.9,-137.45"/>
<polygon fill="#63b8ff" stroke="#63b8ff" points="93.76,-135.43 85.28,-129.08 87.96,-139.33 93.76,-135.43"/>
</g>
<!-- Node2 -->
<g id="node2" class="node">
<title>Node2</title>
<g id="a_node2"><a target="_blank" xlink:href="http://en.cppreference.com/w/cpp/container/vector/begin.html#" xlink:title=" ">
<polygon fill="white" stroke="#666666" points="275.5,-221 183.5,-221 183.5,-202 275.5,-202 275.5,-221"/>
<text text-anchor="middle" x="229.5" y="-209" font-family="Helvetica,sans-Serif" font-size="10.00">std::vector::begin</text>
</a>
</g>
</g>
<!-- Node1&#45;&gt;Node2 -->
<g id="edge1" class="edge">
<title>Node1&#45;&gt;Node2</title>
<path fill="none" stroke="#63b8ff" d="M69.19,-129.03C85.01,-144.87 119.06,-176.54 154,-193.5 160.11,-196.47 166.75,-198.97 173.46,-201.07"/>
<polygon fill="#63b8ff" stroke="#63b8ff" points="172.72,-204.49 183.29,-203.87 174.63,-197.76 172.72,-204.49"/>
</g>
<!-- Node3 -->
<g id="node3" class="node">
<title>Node3</title>
<g id="a_node3"><a target="_blank" xlink:href="http://en.cppreference.com/w/cpp/algorithm/copy.html#" xlink:title=" ">
<polygon fill="white" stroke="#666666" points="258,-184 201,-184 201,-165 258,-165 258,-184"/>
<text text-anchor="middle" x="229.5" y="-172" font-family="Helvetica,sans-Serif" font-size="10.00">std::copy</text>
</a>
</g>
</g>
<!-- Node1&#45;&gt;Node3 -->
<g id="edge2" class="edge">
<title>Node1&#45;&gt;Node3</title>
<path fill="none" stroke="#63b8ff" d="M81.72,-129.04C100.58,-137.08 128.75,-148.52 154,-156.5 165.78,-160.22 178.81,-163.61 190.63,-166.42"/>
<polygon fill="#63b8ff" stroke="#63b8ff" points="190.12,-169.89 200.65,-168.73 191.7,-163.07 190.12,-169.89"/>
</g>
<!-- Node4 -->
<g id="node4" class="node">
<title>Node4</title>
<g id="a_node4"><a xlink:href="../../d5/d96/md5_8cpp.html#add2bf982d5dd64a45d13cba52c2b371d" target="_top" xlink:title="Rotates the bits of a 32&#45;bit unsigned integer.">
<polygon fill="white" stroke="#666666" points="304.5,-129 154.5,-129 154.5,-110 304.5,-110 304.5,-129"/>
<text text-anchor="middle" x="229.5" y="-117" font-family="Helvetica,sans-Serif" font-size="10.00">hashing::md5::leftRotate32bits</text>
</a>
</g>
</g>
<!-- Node1&#45;&gt;Node4 -->
<g id="edge4" class="edge">
<title>Node1&#45;&gt;Node4</title>
<path fill="none" stroke="#63b8ff" d="M118.46,-119.5C126.8,-119.5 135.5,-119.5 144.21,-119.5"/>
<polygon fill="#63b8ff" stroke="#63b8ff" points="144.41,-123 154.41,-119.5 144.41,-116 144.41,-123"/>
</g>
<!-- Node5 -->
<g id="node5" class="node">
<title>Node5</title>
<g id="a_node5"><a xlink:href="../../d5/d96/md5_8cpp.html#a694712c9665051ba52b686387b87a689" target="_top" xlink:title="Sets 32&#45;bit integer to little&#45;endian if needed.">
<polygon fill="white" stroke="#666666" points="305,-74 154,-74 154,-55 305,-55 305,-74"/>
<text text-anchor="middle" x="229.5" y="-62" font-family="Helvetica,sans-Serif" font-size="10.00">hashing::md5::toLittleEndian32</text>
</a>
</g>
</g>
<!-- Node1&#45;&gt;Node5 -->
<g id="edge6" class="edge">
<title>Node1&#45;&gt;Node5</title>
<path fill="none" stroke="#63b8ff" d="M89.35,-109.92C117.05,-100.88 158.78,-87.26 189.31,-77.29"/>
<polygon fill="#63b8ff" stroke="#63b8ff" points="190.78,-80.49 199.2,-74.06 188.61,-73.84 190.78,-80.49"/>
</g>
<!-- Node7 -->
<g id="node7" class="node">
<title>Node7</title>
<g id="a_node7"><a xlink:href="../../d5/d96/md5_8cpp.html#a6be48c1e6e742f9bd329f501d61dcaef" target="_top" xlink:title="Sets 64&#45;bit integer to little&#45;endian if needed.">
<polygon fill="white" stroke="#666666" points="305,-19 154,-19 154,0 305,0 305,-19"/>
<text text-anchor="middle" x="229.5" y="-7" font-family="Helvetica,sans-Serif" font-size="10.00">hashing::md5::toLittleEndian64</text>
</a>
</g>
</g>
<!-- Node1&#45;&gt;Node7 -->
<g id="edge10" class="edge">
<title>Node1&#45;&gt;Node7</title>
<path fill="none" stroke="#63b8ff" d="M70.76,-109.98C87.7,-95.27 121.98,-66.61 154,-46.5 167.58,-37.97 183.4,-29.88 196.96,-23.45"/>
<polygon fill="#63b8ff" stroke="#63b8ff" points="198.77,-26.47 206.36,-19.08 195.82,-20.12 198.77,-26.47"/>
</g>
<!-- Node4&#45;&gt;Node4 -->
<g id="edge5" class="edge">
<title>Node4&#45;&gt;Node4</title>
<path fill="none" stroke="#63b8ff" d="M203.22,-129.08C190.44,-137.73 199.2,-147 229.5,-147 249.86,-147 260.5,-142.82 261.4,-137.45"/>
<polygon fill="#63b8ff" stroke="#63b8ff" points="264.26,-135.43 255.78,-129.08 258.46,-139.33 264.26,-135.43"/>
</g>
<!-- Node5&#45;&gt;Node5 -->
<g id="edge9" class="edge">
<title>Node5&#45;&gt;Node5</title>
<path fill="none" stroke="#63b8ff" d="M203.22,-74.08C190.44,-82.73 199.2,-92 229.5,-92 249.86,-92 260.5,-87.82 261.4,-82.45"/>
<polygon fill="#63b8ff" stroke="#63b8ff" points="264.26,-80.43 255.78,-74.08 258.46,-84.33 264.26,-80.43"/>
</g>
<!-- Node6 -->
<g id="node6" class="node">
<title>Node6</title>
<g id="a_node6"><a xlink:href="../../d5/d96/md5_8cpp.html#af8e96bde0183c4b0a7ff04668f11e446" target="_top" xlink:title="Checks whether integers are stored as big endian or not.">
<polygon fill="white" stroke="#666666" points="474,-46 341,-46 341,-27 474,-27 474,-46"/>
<text text-anchor="middle" x="407.5" y="-34" font-family="Helvetica,sans-Serif" font-size="10.00">hashing::md5::isBigEndian</text>
</a>
</g>
</g>
<!-- Node5&#45;&gt;Node6 -->
<g id="edge7" class="edge">
<title>Node5&#45;&gt;Node6</title>
<path fill="none" stroke="#63b8ff" d="M290.58,-54.94C305.44,-52.58 321.5,-50.02 336.78,-47.59"/>
<polygon fill="#63b8ff" stroke="#63b8ff" points="337.37,-51.04 346.69,-46.01 336.27,-44.13 337.37,-51.04"/>
</g>
<!-- Node6&#45;&gt;Node6 -->
<g id="edge8" class="edge">
<title>Node6&#45;&gt;Node6</title>
<path fill="none" stroke="#63b8ff" d="M380.07,-46.08C366.72,-54.73 375.86,-64 407.5,-64 428.76,-64 439.86,-59.82 440.81,-54.45"/>
<polygon fill="#63b8ff" stroke="#63b8ff" points="443.55,-52.26 434.93,-46.08 437.82,-56.28 443.55,-52.26"/>
</g>
<!-- Node7&#45;&gt;Node6 -->
<g id="edge11" class="edge">
<title>Node7&#45;&gt;Node6</title>
<path fill="none" stroke="#63b8ff" d="M292.55,-19.02C306.09,-21.1 320.53,-23.31 334.42,-25.44"/>
<polygon fill="#63b8ff" stroke="#63b8ff" points="334,-28.92 344.42,-26.98 335.06,-22 334,-28.92"/>
</g>
<!-- Node7&#45;&gt;Node7 -->
<g id="edge12" class="edge">
<title>Node7&#45;&gt;Node7</title>
<path fill="none" stroke="#63b8ff" d="M203.22,-19.08C190.44,-27.73 199.2,-37 229.5,-37 249.86,-37 260.5,-32.82 261.4,-27.45"/>
<polygon fill="#63b8ff" stroke="#63b8ff" points="264.26,-25.43 255.78,-19.08 258.46,-29.33 264.26,-25.43"/>
</g>
</g>
</svg>
