<?xml version="1.0" encoding="UTF-8" standalone="no"?>
<!DOCTYPE svg PUBLIC "-//W3C//DTD SVG 1.1//EN"
 "http://www.w3.org/Graphics/SVG/1.1/DTD/svg11.dtd">
<!-- Generated by graphviz version 9.0.0 (20230911.1827)
 -->
<!-- Title: main Pages: 1 -->
<svg width="281pt" height="138pt"
 viewBox="0.00 0.00 281.00 138.25" xmlns="http://www.w3.org/2000/svg" xmlns:xlink="http://www.w3.org/1999/xlink">

<svg id="main" version="1.1" xmlns="http://www.w3.org/2000/svg" xmlns:xlink="http://www.w3.org/1999/xlink" xml:space="preserve" onload="init(evt)">
<style type="text/css"><![CDATA[
.node, .edge {opacity: 0.7;}
.node.selected, .edge.selected {opacity: 1;}
.edge:hover path { stroke: red; }
.edge:hover polygon { stroke: red; fill: red; }
]]></style>
<script type="application/ecmascript" xlink:href="../../svg.min.js"/>
<svg id="graph" class="graph">
<g id="graph0" class="graph" transform="scale(1 1) rotate(0) translate(4 134.25)">
<title>main</title>
<!-- Node1 -->
<g id="Node000001" class="node">
<title>Node1</title>
<g id="a_Node000001"><a xlink:title="Main function.">
<polygon fill="#999999" stroke="#666666" points="37,-74.25 0,-74.25 0,-55 37,-55 37,-74.25"/>
<text text-anchor="middle" x="18.5" y="-60.75" font-family="Helvetica,sans-Serif" font-size="10.00">main</text>
</a>
</g>
</g>
<!-- Node2 -->
<g id="Node000002" class="node">
<title>Node2</title>
<g id="a_Node000002"><a xlink:href="../../d5/d96/md5_8cpp.html#ac9e1a11f44135b890dd10a00e73b5661" target="_top" xlink:title="Puts user in a loop where inputs can be given and MD5 hash will be computed and printed.">
<polygon fill="white" stroke="#666666" points="134,-93.25 73,-93.25 73,-74 134,-74 134,-93.25"/>
<text text-anchor="middle" x="103.5" y="-79.75" font-family="Helvetica,sans-Serif" font-size="10.00">interactive</text>
</a>
</g>
</g>
<!-- Node1&#45;&gt;Node2 -->
<g id="edge1_Node000001_Node000002" class="edge">
<title>Node1&#45;&gt;Node2</title>
<g id="a_edge1_Node000001_Node000002"><a xlink:title=" ">
<path fill="none" stroke="#63b8ff" d="M37.1,-68.65C44.25,-70.29 52.83,-72.25 61.39,-74.21"/>
<polygon fill="#63b8ff" stroke="#63b8ff" points="60.5,-77.6 71.03,-76.42 62.06,-70.78 60.5,-77.6"/>
</a>
</g>
</g>
<!-- Node6 -->
<g id="Node000006" class="node">
<title>Node6</title>
<g id="a_Node000006"><a xlink:href="../../d5/d96/md5_8cpp.html#aa8dca7b867074164d5f45b0f3851269d" target="_top" xlink:title="Self&#45;test implementations of well&#45;known MD5 hashes.">
<polygon fill="white" stroke="#666666" points="119.75,-56.25 87.25,-56.25 87.25,-37 119.75,-37 119.75,-56.25"/>
<text text-anchor="middle" x="103.5" y="-42.75" font-family="Helvetica,sans-Serif" font-size="10.00">test</text>
</a>
</g>
</g>
<!-- Node1&#45;&gt;Node6 -->
<g id="edge5_Node000001_Node000006" class="edge">
<title>Node1&#45;&gt;Node6</title>
<g id="a_edge5_Node000001_Node000006"><a xlink:title=" ">
<path fill="none" stroke="#63b8ff" d="M37.1,-60.81C48.4,-58.36 63.27,-55.13 75.98,-52.38"/>
<polygon fill="#63b8ff" stroke="#63b8ff" points="76.37,-55.87 85.4,-50.33 74.89,-49.03 76.37,-55.87"/>
</a>
</g>
</g>
<!-- Node3 -->
<g id="Node000003" class="node">
<title>Node3</title>
<g id="a_Node000003"><a target="_blank" xlink:href="http://en.cppreference.com/w/cpp/string/basic_string/compare.html#" xlink:title=" ">
<polygon fill="white" stroke="#666666" points="273,-130.25 170,-130.25 170,-111 273,-111 273,-130.25"/>
<text text-anchor="middle" x="221.5" y="-116.75" font-family="Helvetica,sans-Serif" font-size="10.00">std::string::compare</text>
</a>
</g>
</g>
<!-- Node2&#45;&gt;Node3 -->
<g id="edge2_Node000002_Node000003" class="edge">
<title>Node2&#45;&gt;Node3</title>
<g id="a_edge2_Node000002_Node000003"><a xlink:title=" ">
<path fill="none" stroke="#63b8ff" d="M134.37,-93.15C147.75,-97.42 163.75,-102.52 178.32,-107.17"/>
<polygon fill="#63b8ff" stroke="#63b8ff" points="177.07,-110.45 187.66,-110.15 179.2,-103.78 177.07,-110.45"/>
</a>
</g>
</g>
<!-- Node4 -->
<g id="Node000004" class="node">
<title>Node4</title>
<g id="a_Node000004"><a target="_blank" xlink:href="http://en.cppreference.com/w/cpp/io/manip/endl.html#" xlink:title=" ">
<polygon fill="white" stroke="#666666" points="248.25,-56.25 194.75,-56.25 194.75,-37 248.25,-37 248.25,-56.25"/>
<text text-anchor="middle" x="221.5" y="-42.75" font-family="Helvetica,sans-Serif" font-size="10.00">std::endl</text>
</a>
</g>
</g>
<!-- Node2&#45;&gt;Node4 -->
<g id="edge3_Node000002_Node000004" class="edge">
<title>Node2&#45;&gt;Node4</title>
<g id="a_edge3_Node000002_Node000004"><a xlink:title=" ">
<path fill="none" stroke="#63b8ff" d="M134.37,-74.1C149.43,-69.29 167.82,-63.43 183.73,-58.35"/>
<polygon fill="#63b8ff" stroke="#63b8ff" points="184.38,-61.82 192.84,-55.45 182.25,-55.15 184.38,-61.82"/>
</a>
</g>
</g>
<!-- Node5 -->
<g id="Node000005" class="node">
<title>Node5</title>
<g id="a_Node000005"><a target="_blank" xlink:href="http://en.cppreference.com/w/cpp/string/basic_string/getline.html#" xlink:title=" ">
<polygon fill="white" stroke="#666666" points="253.5,-93.25 189.5,-93.25 189.5,-74 253.5,-74 253.5,-93.25"/>
<text text-anchor="middle" x="221.5" y="-79.75" font-family="Helvetica,sans-Serif" font-size="10.00">std::getline</text>
</a>
</g>
</g>
<!-- Node2&#45;&gt;Node5 -->
<g id="edge4_Node000002_Node000005" class="edge">
<title>Node2&#45;&gt;Node5</title>
<g id="a_edge4_Node000002_Node000005"><a xlink:title=" ">
<path fill="none" stroke="#63b8ff" d="M134.37,-83.62C147.62,-83.62 163.44,-83.62 177.89,-83.62"/>
<polygon fill="#63b8ff" stroke="#63b8ff" points="177.59,-87.13 187.59,-83.63 177.59,-80.13 177.59,-87.13"/>
</a>
</g>
</g>
<!-- Node6&#45;&gt;Node4 -->
<g id="edge7_Node000006_Node000004" class="edge">
<title>Node6&#45;&gt;Node4</title>
<g id="a_edge7_Node000006_Node000004"><a xlink:title=" ">
<path fill="none" stroke="#63b8ff" d="M120.14,-46.62C136.22,-46.62 161.83,-46.62 183.15,-46.62"/>
<polygon fill="#63b8ff" stroke="#63b8ff" points="182.96,-50.13 192.96,-46.63 182.96,-43.13 182.96,-50.13"/>
</a>
</g>
</g>
<!-- Node7 -->
<g id="Node000007" class="node">
<title>Node7</title>
<g id="a_Node000007"><a xlink:href="../../d4/d7a/shell__sort2_8cpp.html#a7eb77daed2cf1513f6d68c47a1c2db1c" target="_top" xlink:title=" ">
<polygon fill="white" stroke="#666666" points="248.25,-19.25 194.75,-19.25 194.75,0 248.25,0 248.25,-19.25"/>
<text text-anchor="middle" x="221.5" y="-5.75" font-family="Helvetica,sans-Serif" font-size="10.00">compare</text>
</a>
</g>
</g>
<!-- Node6&#45;&gt;Node7 -->
<g id="edge6_Node000006_Node000007" class="edge">
<title>Node6&#45;&gt;Node7</title>
<g id="a_edge6_Node000006_Node000007"><a xlink:title=" ">
<path fill="none" stroke="#63b8ff" d="M120.14,-41.64C136.36,-36.46 162.3,-28.19 183.74,-21.35"/>
<polygon fill="#63b8ff" stroke="#63b8ff" points="184.57,-24.76 193.03,-18.39 182.44,-18.09 184.57,-24.76"/>
</a>
</g>
</g>
</g>
</svg>
</svg>

<style type='text/css'>
<![CDATA[
[data-mouse-over-selected='false'] { opacity: 0.7; }
[data-mouse-over-selected='true']  { opacity: 1.0; }
]]>
</style>
<script type="application/ecmascript"><![CDATA[
document.addEventListener('DOMContentLoaded', (event) => {
  highlightEdges();
  highlightAdjacentNodes();
});
]]></script>
</svg>
