<?xml version="1.0" encoding="UTF-8" standalone="no"?>
<!DOCTYPE svg PUBLIC "-//W3C//DTD SVG 1.1//EN"
 "http://www.w3.org/Graphics/SVG/1.1/DTD/svg11.dtd">
<!-- Generated by graphviz version 8.0.2 (20230410.1723)
 -->
<!-- Title: hashing::md5::hash Pages: 1 -->
<!--zoomable 229 -->
<svg id="main" version="1.1" xmlns="http://www.w3.org/2000/svg" xmlns:xlink="http://www.w3.org/1999/xlink" xml:space="preserve" onload="init(evt)">
<style type="text/css"><![CDATA[
.edge:hover path { stroke: red; }
.edge:hover polygon { stroke: red; fill: red; }
]]></style>
<script type="text/javascript"><![CDATA[
var edges = document.getElementsByTagName('g');
if (edges && edges.length) {
  for (var i=0;i<edges.length;i++) {
    if (edges[i].id.substr(0,4)=='edge') {
      edges[i].setAttribute('class','edge');
    }
  }
}
]]></script>
        <defs>
                <circle id="rim" cx="0" cy="0" r="7"/>
                <circle id="rim2" cx="0" cy="0" r="3.5"/>
                <g id="zoomPlus">
                        <use xlink:href="#rim" fill="#404040">
                                <set attributeName="fill" to="#808080" begin="zoomplus.mouseover" end="zoomplus.mouseout"/>
                        </use>
                        <path d="M-4,0h8M0,-4v8" fill="none" stroke="white" stroke-width="1.5" pointer-events="none"/>
                </g>
                <g id="zoomMin">
                        <use xlink:href="#rim" fill="#404040">
                                <set attributeName="fill" to="#808080" begin="zoomminus.mouseover" end="zoomminus.mouseout"/>
                        </use>
                        <path d="M-4,0h8" fill="none" stroke="white" stroke-width="1.5" pointer-events="none"/>
                </g>
                <g id="dirArrow">
                        <path fill="none" stroke="white" stroke-width="1.5" d="M0,-3.0v7 M-2.5,-0.5L0,-3.0L2.5,-0.5"/>
                </g>
               <g id="resetDef">
                       <use xlink:href="#rim2" fill="#404040">
                               <set attributeName="fill" to="#808080" begin="reset.mouseover" end="reset.mouseout"/>
                       </use>
               </g>
        </defs>

<script type="text/javascript">
var viewWidth = 620;
var viewHeight = 229;
var sectionId = 'dynsection-1';
</script>
<script xlink:href="../../svgpan.js"/>
<svg id="graph" class="graph">
<g id="viewport">
<title>hashing::md5::hash</title>
<!-- Node1 -->
<g id="node1" class="node">
<title>Node1</title>
<g id="a_node1"><a xlink:title="Converts the string to bytestring and calls the main algorithm.">
<polygon fill="#999999" stroke="#666666" points="102,-110 0,-110 0,-91 102,-91 102,-110"/>
<text text-anchor="middle" x="51" y="-98" font-family="Helvetica,sans-Serif" font-size="10.00">hashing::md5::hash</text>
</a>
</g>
</g>
<!-- Node1&#45;&gt;Node1 -->
<g id="edge1" class="edge">
<title>Node1&#45;&gt;Node1</title>
<path fill="none" stroke="#63b8ff" d="M28.14,-110.37C17.72,-118.94 25.34,-128 51,-128 65.84,-128 74.64,-124.97 77.42,-120.76"/>
<polygon fill="#63b8ff" stroke="#63b8ff" points="80.41,-119.69 73.86,-111.37 73.79,-121.96 80.41,-119.69"/>
</g>
<!-- Node2 -->
<g id="node2" class="node">
<title>Node2</title>
<g id="a_node2"><a xlink:href="../../d5/d96/md5_8cpp.html#a5341431cef7fcfc33794326e1deb2425" target="_top" xlink:title="The MD5 algorithm itself, taking in a bytestring.">
<polygon fill="white" stroke="#666666" points="256,-129 138,-129 138,-110 256,-110 256,-129"/>
<text text-anchor="middle" x="197" y="-117" font-family="Helvetica,sans-Serif" font-size="10.00">hashing::md5::hash_bs</text>
</a>
</g>
</g>
<!-- Node1&#45;&gt;Node2 -->
<g id="edge2" class="edge">
<title>Node1&#45;&gt;Node2</title>
<path fill="none" stroke="#63b8ff" d="M102.36,-107.15C110.26,-108.19 118.54,-109.28 126.77,-110.36"/>
<polygon fill="#63b8ff" stroke="#63b8ff" points="126.15,-113.95 136.52,-111.78 127.06,-107.01 126.15,-113.95"/>
</g>
<!-- Node9 -->
<g id="node9" class="node">
<title>Node9</title>
<g id="a_node9"><a target="_blank" xlink:href="http://en.cppreference.com/w/cpp/string/basic_string/size.html#" xlink:title=" ">
<polygon fill="white" stroke="#666666" points="239,-92 155,-92 155,-73 239,-73 239,-92"/>
<text text-anchor="middle" x="197" y="-80" font-family="Helvetica,sans-Serif" font-size="10.00">std::string::size</text>
</a>
</g>
</g>
<!-- Node1&#45;&gt;Node9 -->
<g id="edge15" class="edge">
<title>Node1&#45;&gt;Node9</title>
<path fill="none" stroke="#63b8ff" d="M102.36,-94.2C115.93,-92.51 130.63,-90.67 144.27,-88.97"/>
<polygon fill="#63b8ff" stroke="#63b8ff" points="144.45,-92.35 153.94,-87.63 143.58,-85.4 144.45,-92.35"/>
</g>
<!-- Node2&#45;&gt;Node2 -->
<g id="edge5" class="edge">
<title>Node2&#45;&gt;Node2</title>
<path fill="none" stroke="#63b8ff" d="M174.14,-129.37C163.72,-137.94 171.34,-147 197,-147 211.84,-147 220.64,-143.97 223.42,-139.76"/>
<polygon fill="#63b8ff" stroke="#63b8ff" points="226.41,-138.69 219.86,-130.37 219.79,-140.96 226.41,-138.69"/>
</g>
<!-- Node3 -->
<g id="node3" class="node">
<title>Node3</title>
<g id="a_node3"><a target="_blank" xlink:href="http://en.cppreference.com/w/cpp/container/vector/begin.html#" xlink:title=" ">
<polygon fill="white" stroke="#666666" points="413.5,-221 321.5,-221 321.5,-202 413.5,-202 413.5,-221"/>
<text text-anchor="middle" x="367.5" y="-209" font-family="Helvetica,sans-Serif" font-size="10.00">std::vector::begin</text>
</a>
</g>
</g>
<!-- Node2&#45;&gt;Node3 -->
<g id="edge3" class="edge">
<title>Node2&#45;&gt;Node3</title>
<path fill="none" stroke="#63b8ff" d="M207.45,-129.29C223.37,-145.21 257.25,-176.63 292,-193.5 297.97,-196.4 304.44,-198.85 310.99,-200.92"/>
<polygon fill="#63b8ff" stroke="#63b8ff" points="309.72,-204.48 320.29,-203.87 311.64,-197.75 309.72,-204.48"/>
</g>
<!-- Node4 -->
<g id="node4" class="node">
<title>Node4</title>
<g id="a_node4"><a target="_blank" xlink:href="http://en.cppreference.com/w/cpp/algorithm/copy.html#" xlink:title=" ">
<polygon fill="white" stroke="#666666" points="396,-184 339,-184 339,-165 396,-165 396,-184"/>
<text text-anchor="middle" x="367.5" y="-172" font-family="Helvetica,sans-Serif" font-size="10.00">std::copy</text>
</a>
</g>
</g>
<!-- Node2&#45;&gt;Node4 -->
<g id="edge4" class="edge">
<title>Node2&#45;&gt;Node4</title>
<path fill="none" stroke="#63b8ff" d="M220.48,-129.36C239.33,-137.38 267.08,-148.63 292,-156.5 303.66,-160.18 316.54,-163.54 328.27,-166.33"/>
<polygon fill="#63b8ff" stroke="#63b8ff" points="327.12,-169.89 337.65,-168.73 328.7,-163.07 327.12,-169.89"/>
</g>
<!-- Node5 -->
<g id="node5" class="node">
<title>Node5</title>
<g id="a_node5"><a xlink:href="../../d5/d96/md5_8cpp.html#add2bf982d5dd64a45d13cba52c2b371d" target="_top" xlink:title="Rotates the bits of a 32&#45;bit unsigned integer.">
<polygon fill="white" stroke="#666666" points="442.5,-129 292.5,-129 292.5,-110 442.5,-110 442.5,-129"/>
<text text-anchor="middle" x="367.5" y="-117" font-family="Helvetica,sans-Serif" font-size="10.00">hashing::md5::leftRotate32bits</text>
</a>
</g>
</g>
<!-- Node2&#45;&gt;Node5 -->
<g id="edge6" class="edge">
<title>Node2&#45;&gt;Node5</title>
<path fill="none" stroke="#63b8ff" d="M256.46,-119.5C264.46,-119.5 272.8,-119.5 281.15,-119.5"/>
<polygon fill="#63b8ff" stroke="#63b8ff" points="281.12,-123 291.12,-119.5 281.12,-116 281.12,-123"/>
</g>
<!-- Node6 -->
<g id="node6" class="node">
<title>Node6</title>
<g id="a_node6"><a xlink:href="../../d5/d96/md5_8cpp.html#a694712c9665051ba52b686387b87a689" target="_top" xlink:title="Sets 32&#45;bit integer to little&#45;endian if needed.">
<polygon fill="white" stroke="#666666" points="443,-74 292,-74 292,-55 443,-55 443,-74"/>
<text text-anchor="middle" x="367.5" y="-62" font-family="Helvetica,sans-Serif" font-size="10.00">hashing::md5::toLittleEndian32</text>
</a>
</g>
</g>
<!-- Node2&#45;&gt;Node6 -->
<g id="edge8" class="edge">
<title>Node2&#45;&gt;Node6</title>
<path fill="none" stroke="#63b8ff" d="M230.56,-109.54C238.86,-106.95 247.77,-104.15 256,-101.5 279.72,-93.85 306.2,-84.99 327.29,-77.87"/>
<polygon fill="#63b8ff" stroke="#63b8ff" points="328.13,-80.94 336.48,-74.41 325.88,-74.31 328.13,-80.94"/>
</g>
<!-- Node8 -->
<g id="node8" class="node">
<title>Node8</title>
<g id="a_node8"><a xlink:href="../../d5/d96/md5_8cpp.html#a6be48c1e6e742f9bd329f501d61dcaef" target="_top" xlink:title="Sets 64&#45;bit integer to little&#45;endian if needed.">
<polygon fill="white" stroke="#666666" points="443,-19 292,-19 292,0 443,0 443,-19"/>
<text text-anchor="middle" x="367.5" y="-7" font-family="Helvetica,sans-Serif" font-size="10.00">hashing::md5::toLittleEndian64</text>
</a>
</g>
</g>
<!-- Node2&#45;&gt;Node8 -->
<g id="edge12" class="edge">
<title>Node2&#45;&gt;Node8</title>
<path fill="none" stroke="#63b8ff" d="M241.75,-109.59C246.82,-107.4 251.71,-104.74 256,-101.5 279.33,-83.91 270.15,-65.9 292,-46.5 302.57,-37.12 315.94,-29.5 328.43,-23.67"/>
<polygon fill="#63b8ff" stroke="#63b8ff" points="329.44,-26.61 337.18,-19.38 326.62,-20.21 329.44,-26.61"/>
</g>
<!-- Node5&#45;&gt;Node5 -->
<g id="edge7" class="edge">
<title>Node5&#45;&gt;Node5</title>
<path fill="none" stroke="#63b8ff" d="M340.81,-129.37C328.63,-137.94 337.53,-147 367.5,-147 385.3,-147 395.66,-143.8 398.6,-139.42"/>
<polygon fill="#63b8ff" stroke="#63b8ff" points="401.41,-138.12 394.19,-130.37 395,-140.93 401.41,-138.12"/>
</g>
<!-- Node6&#45;&gt;Node6 -->
<g id="edge11" class="edge">
<title>Node6&#45;&gt;Node6</title>
<path fill="none" stroke="#63b8ff" d="M340.81,-74.37C328.63,-82.94 337.53,-92 367.5,-92 385.3,-92 395.66,-88.8 398.6,-84.42"/>
<polygon fill="#63b8ff" stroke="#63b8ff" points="401.41,-83.12 394.19,-75.37 395,-85.93 401.41,-83.12"/>
</g>
<!-- Node7 -->
<g id="node7" class="node">
<title>Node7</title>
<g id="a_node7"><a xlink:href="../../d5/d96/md5_8cpp.html#af8e96bde0183c4b0a7ff04668f11e446" target="_top" xlink:title="Checks whether integers are stored as big endian or not.">
<polygon fill="white" stroke="#666666" points="612,-46 479,-46 479,-27 612,-27 612,-46"/>
<text text-anchor="middle" x="545.5" y="-34" font-family="Helvetica,sans-Serif" font-size="10.00">hashing::md5::isBigEndian</text>
</a>
</g>
</g>
<!-- Node6&#45;&gt;Node7 -->
<g id="edge9" class="edge">
<title>Node6&#45;&gt;Node7</title>
<path fill="none" stroke="#63b8ff" d="M431.05,-54.55C444.07,-52.48 457.9,-50.28 471.26,-48.15"/>
<polygon fill="#63b8ff" stroke="#63b8ff" points="471.53,-51.49 480.86,-46.47 470.43,-44.58 471.53,-51.49"/>
</g>
<!-- Node7&#45;&gt;Node7 -->
<g id="edge10" class="edge">
<title>Node7&#45;&gt;Node7</title>
<path fill="none" stroke="#63b8ff" d="M517.63,-46.37C504.92,-54.94 514.21,-64 545.5,-64 564.57,-64 575.46,-60.63 578.19,-56.07"/>
<polygon fill="#63b8ff" stroke="#63b8ff" points="580.95,-54.76 573.37,-47.37 574.69,-57.88 580.95,-54.76"/>
</g>
<!-- Node8&#45;&gt;Node7 -->
<g id="edge13" class="edge">
<title>Node8&#45;&gt;Node7</title>
<path fill="none" stroke="#63b8ff" d="M433.54,-19.48C445.01,-21.24 457.04,-23.08 468.77,-24.88"/>
<polygon fill="#63b8ff" stroke="#63b8ff" points="468.02,-28.46 478.44,-26.52 469.08,-21.54 468.02,-28.46"/>
</g>
<!-- Node8&#45;&gt;Node8 -->
<g id="edge14" class="edge">
<title>Node8&#45;&gt;Node8</title>
<path fill="none" stroke="#63b8ff" d="M340.81,-19.37C328.63,-27.94 337.53,-37 367.5,-37 385.3,-37 395.66,-33.8 398.6,-29.42"/>
<polygon fill="#63b8ff" stroke="#63b8ff" points="401.41,-28.12 394.19,-20.37 395,-30.93 401.41,-28.12"/>
</g>
</g>
</svg>
        <g id="navigator" transform="translate(0 0)" fill="#404254">
                <rect fill="#f2f5e9" fill-opacity="0.5" stroke="#606060" stroke-width=".5" x="0" y="0" width="60" height="60"/>
                <use id="zoomplus" xlink:href="#zoomPlus" x="17" y="9" onmousedown="handleZoom(evt,'in')"/>
                <use id="zoomminus" xlink:href="#zoomMin" x="42" y="9" onmousedown="handleZoom(evt,'out')"/>
                <use id="reset" xlink:href="#resetDef" x="30" y="36" onmousedown="handleReset()"/>
                <g id="arrowUp" xlink:href="#dirArrow" transform="translate(30 24)" onmousedown="handlePan(0,-1)">
                  <use xlink:href="#rim" fill="#404040">
                        <set attributeName="fill" to="#808080" begin="arrowUp.mouseover" end="arrowUp.mouseout"/>
                  </use>
                  <path fill="none" stroke="white" stroke-width="1.5" d="M0,-3.0v7 M-2.5,-0.5L0,-3.0L2.5,-0.5"/>
                </g>
                <g id="arrowRight" xlink:href="#dirArrow" transform="rotate(90) translate(36 -43)" onmousedown="handlePan(1,0)">
                  <use xlink:href="#rim" fill="#404040">
                        <set attributeName="fill" to="#808080" begin="arrowRight.mouseover" end="arrowRight.mouseout"/>
                  </use>
                  <path fill="none" stroke="white" stroke-width="1.5" d="M0,-3.0v7 M-2.5,-0.5L0,-3.0L2.5,-0.5"/>
                </g>
                <g id="arrowDown" xlink:href="#dirArrow" transform="rotate(180) translate(-30 -48)" onmousedown="handlePan(0,1)">
                  <use xlink:href="#rim" fill="#404040">
                        <set attributeName="fill" to="#808080" begin="arrowDown.mouseover" end="arrowDown.mouseout"/>
                  </use>
                  <path fill="none" stroke="white" stroke-width="1.5" d="M0,-3.0v7 M-2.5,-0.5L0,-3.0L2.5,-0.5"/>
                </g>
                <g id="arrowLeft" xlink:href="#dirArrow" transform="rotate(270) translate(-36 17)" onmousedown="handlePan(-1,0)">
                  <use xlink:href="#rim" fill="#404040">
                        <set attributeName="fill" to="#808080" begin="arrowLeft.mouseover" end="arrowLeft.mouseout"/>
                  </use>
                  <path fill="none" stroke="white" stroke-width="1.5" d="M0,-3.0v7 M-2.5,-0.5L0,-3.0L2.5,-0.5"/>
                </g>
        </g>
        <svg viewBox="0 0 15 15" width="100%" height="30px" preserveAspectRatio="xMaxYMin meet">
         <g id="arrow_out" transform="scale(0.3 0.3)">
          <a xlink:href="md5_8cpp_a88705fab5f92adf3427b4cf76ff33edb_cgraph_org.svg" target="_base">
           <rect id="button" ry="5" rx="5" y="6" x="6" height="38" width="38"
                fill="#f2f5e9" fill-opacity="0.5" stroke="#606060" stroke-width="1.0"/>
           <path id="arrow"
             d="M 11.500037,31.436501 C 11.940474,20.09759 22.043105,11.32322 32.158766,21.979434 L 37.068811,17.246167 C 37.068811,17.246167 37.088388,32 37.088388,32 L 22.160133,31.978069 C 22.160133,31.978069 26.997745,27.140456 26.997745,27.140456 C 18.528582,18.264221 13.291696,25.230495 11.500037,31.436501 z"
             style="fill:#404040;"/>
          </a>
         </g>
        </svg>
</svg>
