<?xml version="1.0" encoding="UTF-8" standalone="no"?>
<!DOCTYPE svg PUBLIC "-//W3C//DTD SVG 1.1//EN"
 "http://www.w3.org/Graphics/SVG/1.1/DTD/svg11.dtd">
<!-- Generated by graphviz version 7.0.6 (20230106.0513)
 -->
<!-- Title: data_structures::linked_list::list::erase Pages: 1 -->
<svg width="276pt" height="76pt"
 viewBox="0.00 0.00 276.00 75.50" xmlns="http://www.w3.org/2000/svg" xmlns:xlink="http://www.w3.org/1999/xlink">
<g id="graph0" class="graph" transform="scale(1 1) rotate(0) translate(4 71.5)">
<title>data_structures::linked_list::list::erase</title>
<!-- Node1 -->
<g id="node1" class="node">
<title>Node1</title>
<g id="a_node1"><a xlink:title=" ">
<polygon fill="#999999" stroke="#666666" points="116,-45.5 0,-45.5 0,-15.5 116,-15.5 116,-45.5"/>
<text text-anchor="start" x="8" y="-33.5" font-family="Helvetica,sans-Serif" font-size="10.00">data_structures::linked</text>
<text text-anchor="middle" x="58" y="-22.5" font-family="Helvetica,sans-Serif" font-size="10.00">_list::list::erase</text>
</a>
</g>
</g>
<!-- Node2 -->
<g id="node2" class="node">
<title>Node2</title>
<g id="a_node2"><a xlink:href="../../d1/def/classdata__structures_1_1linked__list_1_1list.html#ae8424a4fce3d483f7c85d6f6a5c79a1a" target="_top" xlink:title="Utility function that checks if the list is empty.">
<polygon fill="white" stroke="#666666" points="268,-67.5 152,-67.5 152,-37.5 268,-37.5 268,-67.5"/>
<text text-anchor="start" x="160" y="-55.5" font-family="Helvetica,sans-Serif" font-size="10.00">data_structures::linked</text>
<text text-anchor="middle" x="210" y="-44.5" font-family="Helvetica,sans-Serif" font-size="10.00">_list::list::isEmpty</text>
</a>
</g>
</g>
<!-- Node1&#45;&gt;Node2 -->
<g id="edge1" class="edge">
<title>Node1&#45;&gt;Node2</title>
<path fill="none" stroke="#63b8ff" d="M116.14,-38.88C124.01,-40.04 132.17,-41.23 140.23,-42.41"/>
<polygon fill="#63b8ff" stroke="#63b8ff" points="139.63,-45.86 150.03,-43.85 140.64,-38.94 139.63,-45.86"/>
</g>
<!-- Node3 -->
<g id="node3" class="node">
<title>Node3</title>
<g id="a_node3"><a target="_blank" xlink:href="http://en.cppreference.com/w/cpp/memory/shared_ptr/reset.html#" xlink:title=" ">
<polygon fill="white" stroke="#666666" points="265,-19 155,-19 155,0 265,0 265,-19"/>
<text text-anchor="middle" x="210" y="-7" font-family="Helvetica,sans-Serif" font-size="10.00">std::shared_ptr::reset</text>
</a>
</g>
</g>
<!-- Node1&#45;&gt;Node3 -->
<g id="edge2" class="edge">
<title>Node1&#45;&gt;Node3</title>
<path fill="none" stroke="#63b8ff" d="M116.14,-22.5C125.2,-21.23 134.64,-19.91 143.87,-18.62"/>
<polygon fill="#63b8ff" stroke="#63b8ff" points="144.07,-22.12 153.49,-17.27 143.1,-15.19 144.07,-22.12"/>
</g>
</g>
</svg>
