<?xml version="1.0" encoding="UTF-8" standalone="no"?>
<!DOCTYPE svg PUBLIC "-//W3C//DTD SVG 1.1//EN"
 "http://www.w3.org/Graphics/SVG/1.1/DTD/svg11.dtd">
<!-- Generated by graphviz version 2.49.3 (20211023.0002)
 -->
<!-- Title: numerical_methods::simpson_method::f Pages: 1 -->
<svg width="205pt" height="71pt"
 viewBox="0.00 0.00 205.00 70.50" xmlns="http://www.w3.org/2000/svg" xmlns:xlink="http://www.w3.org/1999/xlink">
<g id="graph0" class="graph" transform="scale(1 1) rotate(0) translate(4 66.5)">
<title>numerical_methods::simpson_method::f</title>
<polygon fill="white" stroke="transparent" points="-4,4 -4,-66.5 201,-66.5 201,4 -4,4"/>
<!-- Node1 -->
<g id="node1" class="node">
<title>Node1</title>
<g id="a_node1"><a xlink:title="A function f(x) that will be used to test the method.">
<polygon fill="#bfbfbf" stroke="black" points="0,-14 0,-44 109,-44 109,-14 0,-14"/>
<text text-anchor="start" x="8" y="-32" font-family="Helvetica,sans-Serif" font-size="10.00">numerical_methods::</text>
<text text-anchor="middle" x="54.5" y="-21" font-family="Helvetica,sans-Serif" font-size="10.00">simpson_method::f</text>
</a>
</g>
</g>
<!-- Node1&#45;&gt;Node1 -->
<g id="edge1" class="edge">
<title>Node1&#45;&gt;Node1</title>
<path fill="none" stroke="midnightblue" d="M34.28,-44.16C29.41,-53.56 36.15,-62.5 54.5,-62.5 65.68,-62.5 72.55,-59.18 75.11,-54.46"/>
<polygon fill="midnightblue" stroke="midnightblue" points="78.6,-54.02 74.72,-44.16 71.6,-54.29 78.6,-54.02"/>
</g>
<!-- Node2 -->
<g id="node2" class="node">
<title>Node2</title>
<g id="a_node2"><a target="_blank" xlink:href="http://en.cppreference.com/w/cpp/numeric/math/log.html#" xlink:title=" ">
<polygon fill="white" stroke="black" points="146.5,-38.5 146.5,-57.5 195.5,-57.5 195.5,-38.5 146.5,-38.5"/>
<text text-anchor="middle" x="171" y="-45.5" font-family="Helvetica,sans-Serif" font-size="10.00">std::log</text>
</a>
</g>
</g>
<!-- Node1&#45;&gt;Node2 -->
<g id="edge2" class="edge">
<title>Node1&#45;&gt;Node2</title>
<path fill="none" stroke="midnightblue" d="M109.06,-37.89C118.33,-39.43 127.73,-40.99 136.28,-42.4"/>
<polygon fill="midnightblue" stroke="midnightblue" points="135.79,-45.87 146.22,-44.05 136.93,-38.96 135.79,-45.87"/>
</g>
<!-- Node3 -->
<g id="node3" class="node">
<title>Node3</title>
<g id="a_node3"><a target="_blank" xlink:href="http://en.cppreference.com/w/cpp/numeric/math/sqrt.html#" xlink:title=" ">
<polygon fill="white" stroke="black" points="145,-0.5 145,-19.5 197,-19.5 197,-0.5 145,-0.5"/>
<text text-anchor="middle" x="171" y="-7.5" font-family="Helvetica,sans-Serif" font-size="10.00">std::sqrt</text>
</a>
</g>
</g>
<!-- Node1&#45;&gt;Node3 -->
<g id="edge3" class="edge">
<title>Node1&#45;&gt;Node3</title>
<path fill="none" stroke="midnightblue" d="M109.06,-20.11C117.82,-18.66 126.69,-17.19 134.86,-15.83"/>
<polygon fill="midnightblue" stroke="midnightblue" points="135.47,-19.28 144.76,-14.19 134.32,-12.37 135.47,-19.28"/>
</g>
</g>
</svg>
