<?xml version="1.0" encoding="UTF-8" standalone="no"?>
<!DOCTYPE svg PUBLIC "-//W3C//DTD SVG 1.1//EN"
 "http://www.w3.org/Graphics/SVG/1.1/DTD/svg11.dtd">
<!-- Generated by graphviz version 2.49.3 (20211023.0002)
 -->
<!-- Title: numerical_methods::simpson_method::l Pages: 1 -->
<svg width="202pt" height="57pt"
 viewBox="0.00 0.00 202.00 57.00" xmlns="http://www.w3.org/2000/svg" xmlns:xlink="http://www.w3.org/1999/xlink">
<g id="graph0" class="graph" transform="scale(1 1) rotate(0) translate(4 53)">
<title>numerical_methods::simpson_method::l</title>
<polygon fill="white" stroke="transparent" points="-4,4 -4,-53 198,-53 198,4 -4,4"/>
<!-- Node1 -->
<g id="node1" class="node">
<title>Node1</title>
<g id="a_node1"><a xlink:title="Another test function.">
<polygon fill="#bfbfbf" stroke="black" points="0,-0.5 0,-30.5 109,-30.5 109,-0.5 0,-0.5"/>
<text text-anchor="start" x="8" y="-18.5" font-family="Helvetica,sans-Serif" font-size="10.00">numerical_methods::</text>
<text text-anchor="middle" x="54.5" y="-7.5" font-family="Helvetica,sans-Serif" font-size="10.00">simpson_method::l</text>
</a>
</g>
</g>
<!-- Node1&#45;&gt;Node1 -->
<g id="edge1" class="edge">
<title>Node1&#45;&gt;Node1</title>
<path fill="none" stroke="midnightblue" d="M34.63,-30.66C29.84,-40.06 36.46,-49 54.5,-49 65.49,-49 72.24,-45.68 74.76,-40.96"/>
<polygon fill="midnightblue" stroke="midnightblue" points="78.24,-40.52 74.37,-30.66 71.25,-40.78 78.24,-40.52"/>
</g>
<!-- Node2 -->
<g id="node2" class="node">
<title>Node2</title>
<g id="a_node2"><a target="_blank" xlink:href="http://en.cppreference.com/w/cpp/numeric/math/log.html#" xlink:title=" ">
<polygon fill="white" stroke="black" points="145,-6 145,-25 194,-25 194,-6 145,-6"/>
<text text-anchor="middle" x="169.5" y="-13" font-family="Helvetica,sans-Serif" font-size="10.00">std::log</text>
</a>
</g>
</g>
<!-- Node1&#45;&gt;Node2 -->
<g id="edge2" class="edge">
<title>Node1&#45;&gt;Node2</title>
<path fill="none" stroke="midnightblue" d="M109.02,-15.5C117.75,-15.5 126.57,-15.5 134.65,-15.5"/>
<polygon fill="midnightblue" stroke="midnightblue" points="134.77,-19 144.77,-15.5 134.77,-12 134.77,-19"/>
</g>
</g>
</svg>
