<?xml version="1.0" encoding="UTF-8" standalone="no"?>
<!DOCTYPE svg PUBLIC "-//W3C//DTD SVG 1.1//EN"
 "http://www.w3.org/Graphics/SVG/1.1/DTD/svg11.dtd">
<!-- Generated by graphviz version 8.0.4 (20230421.1958)
 -->
<!-- Title: probability::geometric_dist::geometric_distribution::range_tries Pages: 1 -->
<svg width="410pt" height="88pt"
 viewBox="0.00 0.00 410.00 87.50" xmlns="http://www.w3.org/2000/svg" xmlns:xlink="http://www.w3.org/1999/xlink">
<g id="graph0" class="graph" transform="scale(1 1) rotate(0) translate(4 83.5)">
<title>probability::geometric_dist::geometric_distribution::range_tries</title>
<!-- Node1 -->
<g id="node1" class="node">
<title>Node1</title>
<g id="a_node1"><a xlink:title="This function computes the probability to have success in a given range of tries.">
<polygon fill="#999999" stroke="#666666" points="138.25,-54.5 0,-54.5 0,-12.75 138.25,-12.75 138.25,-54.5"/>
<text text-anchor="start" x="8" y="-41" font-family="Helvetica,sans-Serif" font-size="10.00">probability::geometric</text>
<text text-anchor="start" x="8" y="-29.75" font-family="Helvetica,sans-Serif" font-size="10.00">_dist::geometric_distribution</text>
<text text-anchor="middle" x="69.12" y="-18.5" font-family="Helvetica,sans-Serif" font-size="10.00">::range_tries</text>
</a>
</g>
</g>
<!-- Node2 -->
<g id="node2" class="node">
<title>Node2</title>
<g id="a_node2"><a xlink:href="../../da/d19/classprobability_1_1geometric__dist_1_1geometric__distribution.html#a08328dc7d62188427111f176b56a105a" target="_top" xlink:title="The cumulative distribution function.">
<polygon fill="white" stroke="#666666" points="312.5,-79.5 174.25,-79.5 174.25,-37.75 312.5,-37.75 312.5,-79.5"/>
<text text-anchor="start" x="182.25" y="-66" font-family="Helvetica,sans-Serif" font-size="10.00">probability::geometric</text>
<text text-anchor="start" x="182.25" y="-54.75" font-family="Helvetica,sans-Serif" font-size="10.00">_dist::geometric_distribution</text>
<text text-anchor="middle" x="243.38" y="-43.5" font-family="Helvetica,sans-Serif" font-size="10.00">::cumulative_distribution</text>
</a>
</g>
</g>
<!-- Node1&#45;&gt;Node2 -->
<g id="edge1" class="edge">
<title>Node1&#45;&gt;Node2</title>
<path fill="none" stroke="#63b8ff" d="M138.7,-43.58C146.72,-44.74 154.96,-45.94 163.11,-47.12"/>
<polygon fill="#63b8ff" stroke="#63b8ff" points="162.36,-50.69 172.76,-48.67 163.36,-43.77 162.36,-50.69"/>
</g>
<!-- Node4 -->
<g id="node4" class="node">
<title>Node4</title>
<g id="a_node4"><a target="_blank" xlink:href="http://en.cppreference.com/w/cpp/types/numeric_limits/max.html#" xlink:title=" ">
<polygon fill="white" stroke="#666666" points="305,-19.25 181.75,-19.25 181.75,0 305,0 305,-19.25"/>
<text text-anchor="middle" x="243.38" y="-5.75" font-family="Helvetica,sans-Serif" font-size="10.00">std::numeric_limits::max</text>
</a>
</g>
</g>
<!-- Node1&#45;&gt;Node4 -->
<g id="edge3" class="edge">
<title>Node1&#45;&gt;Node4</title>
<path fill="none" stroke="#63b8ff" d="M138.7,-24.07C149.14,-22.62 159.95,-21.11 170.46,-19.65"/>
<polygon fill="#63b8ff" stroke="#63b8ff" points="170.86,-22.98 180.28,-18.14 169.9,-16.05 170.86,-22.98"/>
</g>
<!-- Node3 -->
<g id="node3" class="node">
<title>Node3</title>
<g id="a_node3"><a target="_blank" xlink:href="http://en.cppreference.com/w/cpp/numeric/math/pow.html#" xlink:title=" ">
<polygon fill="white" stroke="#666666" points="402,-68.25 348.5,-68.25 348.5,-49 402,-49 402,-68.25"/>
<text text-anchor="middle" x="375.25" y="-54.75" font-family="Helvetica,sans-Serif" font-size="10.00">std::pow</text>
</a>
</g>
</g>
<!-- Node2&#45;&gt;Node3 -->
<g id="edge2" class="edge">
<title>Node2&#45;&gt;Node3</title>
<path fill="none" stroke="#63b8ff" d="M312.74,-58.62C321.19,-58.62 329.57,-58.62 337.3,-58.62"/>
<polygon fill="#63b8ff" stroke="#63b8ff" points="337.09,-62.13 347.09,-58.62 337.09,-55.13 337.09,-62.13"/>
</g>
</g>
</svg>
