<?xml version="1.0" encoding="UTF-8" standalone="no"?>
<!DOCTYPE svg PUBLIC "-//W3C//DTD SVG 1.1//EN"
 "http://www.w3.org/Graphics/SVG/1.1/DTD/svg11.dtd">
<!-- Generated by graphviz version 7.0.6 (20230106.0513)
 -->
<!-- Title: Node&lt; ValueType &gt; Pages: 1 -->
<svg width="233pt" height="170pt"
 viewBox="0.00 0.00 232.50 170.00" xmlns="http://www.w3.org/2000/svg" xmlns:xlink="http://www.w3.org/1999/xlink">
<g id="graph0" class="graph" transform="scale(1 1) rotate(0) translate(4 166)">
<title>Node&lt; ValueType &gt;</title>
<!-- Node1 -->
<g id="node1" class="node">
<title>Node1</title>
<g id="a_node1"><a xlink:title=" ">
<polygon fill="#999999" stroke="#666666" points="108.5,-19 5.5,-19 5.5,0 108.5,0 108.5,-19"/>
<text text-anchor="middle" x="57" y="-7" font-family="Helvetica,sans-Serif" font-size="10.00">Node&lt; ValueType &gt;</text>
</a>
</g>
</g>
<!-- Node2 -->
<g id="node2" class="node">
<title>Node2</title>
<g id="a_node2"><a target="_blank" xlink:href="http://en.cppreference.com/w/cpp/memory/shared_ptr.html" xlink:title=" ">
<polygon fill="white" stroke="#666666" points="114,-162 0,-162 0,-132 114,-132 114,-162"/>
<text text-anchor="start" x="8" y="-150" font-family="Helvetica,sans-Serif" font-size="10.00">std::shared_ptr&lt; Node</text>
<text text-anchor="middle" x="57" y="-139" font-family="Helvetica,sans-Serif" font-size="10.00">&lt; ValueType &gt; &gt;</text>
</a>
</g>
</g>
<!-- Node2&#45;&gt;Node1 -->
<g id="edge1" class="edge">
<title>Node2&#45;&gt;Node1</title>
<path fill="none" stroke="#9a32cd" stroke-dasharray="5,2" d="M52.83,-120.62C50.73,-104.9 48.85,-84.3 50,-66 51.05,-49.33 53.85,-30.01 55.57,-19.12"/>
<polygon fill="#9a32cd" stroke="#9a32cd" points="49.3,-120.68 54.21,-130.07 56.23,-119.66 49.3,-120.68"/>
<text text-anchor="middle" x="61" y="-73" font-family="Helvetica,sans-Serif" font-size="10.00"> next</text>
</g>
<!-- Node3 -->
<g id="node3" class="node">
<title>Node3</title>
<g id="a_node3"><a xlink:href="../../db/d8b/struct_node.html" target="_top" xlink:title=" ">
<polygon fill="white" stroke="#666666" points="184.5,-85 81.5,-85 81.5,-66 184.5,-66 184.5,-85"/>
<text text-anchor="middle" x="133" y="-73" font-family="Helvetica,sans-Serif" font-size="10.00">Node&lt; ValueType &gt;</text>
</a>
</g>
</g>
<!-- Node2&#45;&gt;Node3 -->
<g id="edge3" class="edge">
<title>Node2&#45;&gt;Node3</title>
<path fill="none" stroke="#9a32cd" stroke-dasharray="5,2" d="M81.21,-123.86C95.57,-110.73 112.98,-94.81 123.51,-85.18"/>
<polygon fill="#9a32cd" stroke="#9a32cd" points="78.88,-121.25 73.86,-130.58 83.61,-126.41 78.88,-121.25"/>
<text text-anchor="middle" x="112" y="-106" font-family="Helvetica,sans-Serif" font-size="10.00"> next</text>
</g>
<!-- Node3&#45;&gt;Node1 -->
<g id="edge2" class="edge">
<title>Node3&#45;&gt;Node1</title>
<path fill="none" stroke="#9a32cd" stroke-dasharray="5,2" d="M113.63,-58.19C98.95,-45.83 79.35,-29.32 67.48,-19.32"/>
<polygon fill="#9a32cd" stroke="#9a32cd" points="111.37,-60.86 121.27,-64.63 115.88,-55.51 111.37,-60.86"/>
<text text-anchor="middle" x="110" y="-40" font-family="Helvetica,sans-Serif" font-size="10.00"> next</text>
</g>
<!-- Node3&#45;&gt;Node3 -->
<g id="edge4" class="edge">
<title>Node3&#45;&gt;Node3</title>
<path fill="none" stroke="#9a32cd" stroke-dasharray="5,2" d="M195.97,-79.89C200.04,-78.86 202.5,-77.4 202.5,-75.5 202.5,-72.21 195.14,-70.24 184.83,-69.57"/>
<polygon fill="#9a32cd" stroke="#9a32cd" points="195.75,-76.38 186.33,-81.22 196.71,-83.32 195.75,-76.38"/>
<text text-anchor="middle" x="213.5" y="-73" font-family="Helvetica,sans-Serif" font-size="10.00"> next</text>
</g>
</g>
</svg>
