<?xml version="1.0" encoding="UTF-8" standalone="no"?>
<!DOCTYPE svg PUBLIC "-//W3C//DTD SVG 1.1//EN"
 "http://www.w3.org/Graphics/SVG/1.1/DTD/svg11.dtd">
<!-- Generated by graphviz version 8.0.5 (20230430.1635)
 -->
<!-- Title: sorting/cycle_sort.cpp Pages: 1 -->
<svg width="262pt" height="83pt"
 viewBox="0.00 0.00 262.38 82.50" xmlns="http://www.w3.org/2000/svg" xmlns:xlink="http://www.w3.org/1999/xlink">
<g id="graph0" class="graph" transform="scale(1 1) rotate(0) translate(4 78.5)">
<title>sorting/cycle_sort.cpp</title>
<!-- Node1 -->
<g id="node1" class="node">
<title>Node1</title>
<g id="a_node1"><a xlink:title="Implementation of Cycle sort algorithm.">
<polygon fill="#999999" stroke="#666666" points="187.88,-74.5 75.88,-74.5 75.88,-55.25 187.88,-55.25 187.88,-74.5"/>
<text text-anchor="middle" x="131.88" y="-61" font-family="Helvetica,sans-Serif" font-size="10.00">sorting/cycle_sort.cpp</text>
</a>
</g>
</g>
<!-- Node2 -->
<g id="node2" class="node">
<title>Node2</title>
<g id="a_node2"><a xlink:title=" ">
<polygon fill="#e0e0e0" stroke="#999999" points="55.75,-19.25 0,-19.25 0,0 55.75,0 55.75,-19.25"/>
<text text-anchor="middle" x="27.88" y="-5.75" font-family="Helvetica,sans-Serif" font-size="10.00">algorithm</text>
</a>
</g>
</g>
<!-- Node1&#45;&gt;Node2 -->
<g id="edge1" class="edge">
<title>Node1&#45;&gt;Node2</title>
<path fill="none" stroke="#63b8ff" d="M114.23,-54.84C98.1,-46.58 73.97,-34.23 55.32,-24.68"/>
<polygon fill="#63b8ff" stroke="#63b8ff" points="57.1,-21.14 46.6,-19.7 53.91,-27.38 57.1,-21.14"/>
</g>
<!-- Node3 -->
<g id="node3" class="node">
<title>Node3</title>
<g id="a_node3"><a xlink:title=" ">
<polygon fill="#e0e0e0" stroke="#999999" points="122,-19.25 73.75,-19.25 73.75,0 122,0 122,-19.25"/>
<text text-anchor="middle" x="97.88" y="-5.75" font-family="Helvetica,sans-Serif" font-size="10.00">cassert</text>
</a>
</g>
</g>
<!-- Node1&#45;&gt;Node3 -->
<g id="edge2" class="edge">
<title>Node1&#45;&gt;Node3</title>
<path fill="none" stroke="#63b8ff" d="M126.26,-55.08C121.71,-47.96 115.15,-37.68 109.48,-28.8"/>
<polygon fill="#63b8ff" stroke="#63b8ff" points="111.94,-27.15 103.61,-20.61 106.04,-30.92 111.94,-27.15"/>
</g>
<!-- Node4 -->
<g id="node4" class="node">
<title>Node4</title>
<g id="a_node4"><a xlink:title=" ">
<polygon fill="#e0e0e0" stroke="#999999" points="193.62,-19.25 140.12,-19.25 140.12,0 193.62,0 193.62,-19.25"/>
<text text-anchor="middle" x="166.88" y="-5.75" font-family="Helvetica,sans-Serif" font-size="10.00">iostream</text>
</a>
</g>
</g>
<!-- Node1&#45;&gt;Node4 -->
<g id="edge3" class="edge">
<title>Node1&#45;&gt;Node4</title>
<path fill="none" stroke="#63b8ff" d="M137.65,-55.08C142.34,-47.96 149.09,-37.68 154.93,-28.8"/>
<polygon fill="#63b8ff" stroke="#63b8ff" points="158.4,-30.89 160.97,-20.61 152.55,-27.04 158.4,-30.89"/>
</g>
<!-- Node5 -->
<g id="node5" class="node">
<title>Node5</title>
<g id="a_node5"><a xlink:title=" ">
<polygon fill="#e0e0e0" stroke="#999999" points="254.38,-19.25 211.38,-19.25 211.38,0 254.38,0 254.38,-19.25"/>
<text text-anchor="middle" x="232.88" y="-5.75" font-family="Helvetica,sans-Serif" font-size="10.00">vector</text>
</a>
</g>
</g>
<!-- Node1&#45;&gt;Node5 -->
<g id="edge4" class="edge">
<title>Node1&#45;&gt;Node5</title>
<path fill="none" stroke="#63b8ff" d="M149.01,-54.84C164.61,-46.62 187.89,-34.34 205.97,-24.81"/>
<polygon fill="#63b8ff" stroke="#63b8ff" points="207.44,-27.46 214.66,-19.7 204.18,-21.27 207.44,-27.46"/>
</g>
</g>
</svg>
