<?xml version="1.0" encoding="UTF-8" standalone="no"?>
<!DOCTYPE svg PUBLIC "-//W3C//DTD SVG 1.1//EN"
 "http://www.w3.org/Graphics/SVG/1.1/DTD/svg11.dtd">
<!-- Generated by graphviz version 2.49.3 (20211023.0002)
 -->
<!-- Title: math/large_number.h Pages: 1 -->
<svg width="489pt" height="84pt"
 viewBox="0.00 0.00 489.00 84.00" xmlns="http://www.w3.org/2000/svg" xmlns:xlink="http://www.w3.org/1999/xlink">
<g id="graph0" class="graph" transform="scale(1 1) rotate(0) translate(4 80)">
<title>math/large_number.h</title>
<polygon fill="white" stroke="transparent" points="-4,4 -4,-80 485,-80 485,4 -4,4"/>
<!-- Node1 -->
<g id="node1" class="node">
<title>Node1</title>
<g id="a_node1"><a xlink:title="Library to perform arithmatic operations on arbitrarily large numbers.">
<polygon fill="#bfbfbf" stroke="black" points="185.5,-56.5 185.5,-75.5 296.5,-75.5 296.5,-56.5 185.5,-56.5"/>
<text text-anchor="middle" x="241" y="-63.5" font-family="Helvetica,sans-Serif" font-size="10.00">math/large_number.h</text>
</a>
</g>
</g>
<!-- Node2 -->
<g id="node2" class="node">
<title>Node2</title>
<g id="a_node2"><a xlink:title=" ">
<polygon fill="white" stroke="#bfbfbf" points="0,-0.5 0,-19.5 58,-19.5 58,-0.5 0,-0.5"/>
<text text-anchor="middle" x="29" y="-7.5" font-family="Helvetica,sans-Serif" font-size="10.00">algorithm</text>
</a>
</g>
</g>
<!-- Node1&#45;&gt;Node2 -->
<g id="edge1" class="edge">
<title>Node1&#45;&gt;Node2</title>
<path fill="none" stroke="midnightblue" d="M207.41,-56.44C169.49,-46.79 107.91,-31.1 67.93,-20.92"/>
<polygon fill="midnightblue" stroke="midnightblue" points="68.56,-17.47 58.01,-18.39 66.83,-24.25 68.56,-17.47"/>
</g>
<!-- Node3 -->
<g id="node3" class="node">
<title>Node3</title>
<g id="a_node3"><a xlink:title=" ">
<polygon fill="white" stroke="#bfbfbf" points="76.5,-0.5 76.5,-19.5 125.5,-19.5 125.5,-0.5 76.5,-0.5"/>
<text text-anchor="middle" x="101" y="-7.5" font-family="Helvetica,sans-Serif" font-size="10.00">cassert</text>
</a>
</g>
</g>
<!-- Node1&#45;&gt;Node3 -->
<g id="edge2" class="edge">
<title>Node1&#45;&gt;Node3</title>
<path fill="none" stroke="midnightblue" d="M218.82,-56.44C195.57,-47.48 158.85,-33.31 132.58,-23.18"/>
<polygon fill="midnightblue" stroke="midnightblue" points="133.67,-19.85 123.08,-19.52 131.15,-26.38 133.67,-19.85"/>
</g>
<!-- Node4 -->
<g id="node4" class="node">
<title>Node4</title>
<g id="a_node4"><a xlink:title=" ">
<polygon fill="white" stroke="#bfbfbf" points="144,-0.5 144,-19.5 200,-19.5 200,-0.5 144,-0.5"/>
<text text-anchor="middle" x="172" y="-7.5" font-family="Helvetica,sans-Serif" font-size="10.00">cinttypes</text>
</a>
</g>
</g>
<!-- Node1&#45;&gt;Node4 -->
<g id="edge3" class="edge">
<title>Node1&#45;&gt;Node4</title>
<path fill="none" stroke="midnightblue" d="M229.91,-56.32C219.51,-48.18 203.74,-35.84 191.28,-26.09"/>
<polygon fill="midnightblue" stroke="midnightblue" points="193.32,-23.24 183.29,-19.83 189.01,-28.75 193.32,-23.24"/>
</g>
<!-- Node5 -->
<g id="node5" class="node">
<title>Node5</title>
<g id="a_node5"><a xlink:title=" ">
<polygon fill="white" stroke="#bfbfbf" points="218,-0.5 218,-19.5 264,-19.5 264,-0.5 218,-0.5"/>
<text text-anchor="middle" x="241" y="-7.5" font-family="Helvetica,sans-Serif" font-size="10.00">cstring</text>
</a>
</g>
</g>
<!-- Node1&#45;&gt;Node5 -->
<g id="edge4" class="edge">
<title>Node1&#45;&gt;Node5</title>
<path fill="none" stroke="midnightblue" d="M241,-56.08C241,-49.01 241,-38.86 241,-29.99"/>
<polygon fill="midnightblue" stroke="midnightblue" points="244.5,-29.75 241,-19.75 237.5,-29.75 244.5,-29.75"/>
</g>
<!-- Node6 -->
<g id="node6" class="node">
<title>Node6</title>
<g id="a_node6"><a xlink:title=" ">
<polygon fill="white" stroke="#bfbfbf" points="282.5,-0.5 282.5,-19.5 337.5,-19.5 337.5,-0.5 282.5,-0.5"/>
<text text-anchor="middle" x="310" y="-7.5" font-family="Helvetica,sans-Serif" font-size="10.00">iostream</text>
</a>
</g>
</g>
<!-- Node1&#45;&gt;Node6 -->
<g id="edge5" class="edge">
<title>Node1&#45;&gt;Node6</title>
<path fill="none" stroke="midnightblue" d="M252.09,-56.32C262.49,-48.18 278.26,-35.84 290.72,-26.09"/>
<polygon fill="midnightblue" stroke="midnightblue" points="292.99,-28.75 298.71,-19.83 288.68,-23.24 292.99,-28.75"/>
</g>
<!-- Node7 -->
<g id="node7" class="node">
<title>Node7</title>
<g id="a_node7"><a xlink:title=" ">
<polygon fill="white" stroke="#bfbfbf" points="355.5,-0.5 355.5,-19.5 418.5,-19.5 418.5,-0.5 355.5,-0.5"/>
<text text-anchor="middle" x="387" y="-7.5" font-family="Helvetica,sans-Serif" font-size="10.00">type_traits</text>
</a>
</g>
</g>
<!-- Node1&#45;&gt;Node7 -->
<g id="edge6" class="edge">
<title>Node1&#45;&gt;Node7</title>
<path fill="none" stroke="midnightblue" d="M264.13,-56.44C288.48,-47.44 327.01,-33.19 354.42,-23.05"/>
<polygon fill="midnightblue" stroke="midnightblue" points="355.81,-26.27 363.97,-19.52 353.38,-19.7 355.81,-26.27"/>
</g>
<!-- Node8 -->
<g id="node8" class="node">
<title>Node8</title>
<g id="a_node8"><a xlink:title=" ">
<polygon fill="white" stroke="#bfbfbf" points="437,-0.5 437,-19.5 481,-19.5 481,-0.5 437,-0.5"/>
<text text-anchor="middle" x="459" y="-7.5" font-family="Helvetica,sans-Serif" font-size="10.00">vector</text>
</a>
</g>
</g>
<!-- Node1&#45;&gt;Node8 -->
<g id="edge7" class="edge">
<title>Node1&#45;&gt;Node8</title>
<path fill="none" stroke="midnightblue" d="M278.74,-56.46C314.53,-48.24 370.03,-35.19 426.82,-20.23"/>
<polygon fill="midnightblue" stroke="midnightblue" points="427.91,-23.56 436.68,-17.61 426.12,-16.79 427.91,-23.56"/>
</g>
</g>
</svg>
