<?xml version="1.0" encoding="UTF-8" standalone="no"?>
<!DOCTYPE svg PUBLIC "-//W3C//DTD SVG 1.1//EN"
 "http://www.w3.org/Graphics/SVG/1.1/DTD/svg11.dtd">
<!-- Generated by graphviz version 9.0.0 (20230911.1827)
 -->
<!-- Title: ciphers/morse_code.cpp Pages: 1 -->
<svg width="248pt" height="83pt"
 viewBox="0.00 0.00 247.62 82.50" xmlns="http://www.w3.org/2000/svg" xmlns:xlink="http://www.w3.org/1999/xlink">
<g id="graph0" class="graph" transform="scale(1 1) rotate(0) translate(4 78.5)">
<title>ciphers/morse_code.cpp</title>
<!-- Node1 -->
<g id="Node000001" class="node">
<title>Node1</title>
<g id="a_Node000001"><a xlink:title="Implementation of [Morse Code] (https://en.wikipedia.org/wiki/Morse_code).">
<polygon fill="#999999" stroke="#666666" points="186.38,-74.5 63.88,-74.5 63.88,-55.25 186.38,-55.25 186.38,-74.5"/>
<text text-anchor="middle" x="125.12" y="-61" font-family="Helvetica,sans-Serif" font-size="10.00">ciphers/morse_code.cpp</text>
</a>
</g>
</g>
<!-- Node2 -->
<g id="Node000002" class="node">
<title>Node2</title>
<g id="a_Node000002"><a xlink:title=" ">
<polygon fill="#e0e0e0" stroke="#999999" points="48.25,-19.25 0,-19.25 0,0 48.25,0 48.25,-19.25"/>
<text text-anchor="middle" x="24.12" y="-5.75" font-family="Helvetica,sans-Serif" font-size="10.00">cassert</text>
</a>
</g>
</g>
<!-- Node1&#45;&gt;Node2 -->
<g id="edge1_Node000001_Node000002" class="edge">
<title>Node1&#45;&gt;Node2</title>
<g id="a_edge1_Node000001_Node000002"><a xlink:title=" ">
<path fill="none" stroke="#63b8ff" d="M107.99,-54.84C92.47,-46.66 69.32,-34.46 51.28,-24.94"/>
<polygon fill="#63b8ff" stroke="#63b8ff" points="53.16,-21.98 42.68,-20.41 49.89,-28.17 53.16,-21.98"/>
</a>
</g>
</g>
<!-- Node3 -->
<g id="Node000003" class="node">
<title>Node3</title>
<g id="a_Node000003"><a xlink:title=" ">
<polygon fill="#e0e0e0" stroke="#999999" points="119.88,-19.25 66.38,-19.25 66.38,0 119.88,0 119.88,-19.25"/>
<text text-anchor="middle" x="93.12" y="-5.75" font-family="Helvetica,sans-Serif" font-size="10.00">iostream</text>
</a>
</g>
</g>
<!-- Node1&#45;&gt;Node3 -->
<g id="edge2_Node000001_Node000003" class="edge">
<title>Node1&#45;&gt;Node3</title>
<g id="a_edge2_Node000001_Node000003"><a xlink:title=" ">
<path fill="none" stroke="#63b8ff" d="M119.84,-55.08C115.65,-48.11 109.65,-38.12 104.39,-29.37"/>
<polygon fill="#63b8ff" stroke="#63b8ff" points="107.45,-27.68 99.3,-20.91 101.45,-31.28 107.45,-27.68"/>
</a>
</g>
</g>
<!-- Node4 -->
<g id="Node000004" class="node">
<title>Node4</title>
<g id="a_Node000004"><a xlink:title=" ">
<polygon fill="#e0e0e0" stroke="#999999" points="178.12,-19.25 138.12,-19.25 138.12,0 178.12,0 178.12,-19.25"/>
<text text-anchor="middle" x="158.12" y="-5.75" font-family="Helvetica,sans-Serif" font-size="10.00">string</text>
</a>
</g>
</g>
<!-- Node1&#45;&gt;Node4 -->
<g id="edge3_Node000001_Node000004" class="edge">
<title>Node1&#45;&gt;Node4</title>
<g id="a_edge3_Node000001_Node000004"><a xlink:title=" ">
<path fill="none" stroke="#63b8ff" d="M130.57,-55.08C134.9,-48.11 141.09,-38.12 146.51,-29.37"/>
<polygon fill="#63b8ff" stroke="#63b8ff" points="149.47,-31.24 151.76,-20.9 143.52,-27.55 149.47,-31.24"/>
</a>
</g>
</g>
<!-- Node5 -->
<g id="Node000005" class="node">
<title>Node5</title>
<g id="a_Node000005"><a xlink:title=" ">
<polygon fill="#e0e0e0" stroke="#999999" points="239.62,-19.25 196.62,-19.25 196.62,0 239.62,0 239.62,-19.25"/>
<text text-anchor="middle" x="218.12" y="-5.75" font-family="Helvetica,sans-Serif" font-size="10.00">vector</text>
</a>
</g>
</g>
<!-- Node1&#45;&gt;Node5 -->
<g id="edge4_Node000001_Node000005" class="edge">
<title>Node1&#45;&gt;Node5</title>
<g id="a_edge4_Node000001_Node000005"><a xlink:title=" ">
<path fill="none" stroke="#63b8ff" d="M140.9,-54.84C155.06,-46.73 176.11,-34.68 192.65,-25.21"/>
<polygon fill="#63b8ff" stroke="#63b8ff" points="194.02,-28.46 200.96,-20.45 190.54,-22.39 194.02,-28.46"/>
</a>
</g>
</g>
</g>
</svg>
