<?xml version="1.0" encoding="UTF-8" standalone="no"?>
<!DOCTYPE svg PUBLIC "-//W3C//DTD SVG 1.1//EN"
 "http://www.w3.org/Graphics/SVG/1.1/DTD/svg11.dtd">
<!-- Generated by graphviz version 8.0.4 (20230421.1958)
 -->
<!-- Title: data_structures::trie::deleteString Pages: 1 -->
<svg width="337pt" height="76pt"
 viewBox="0.00 0.00 337.25 75.88" xmlns="http://www.w3.org/2000/svg" xmlns:xlink="http://www.w3.org/1999/xlink">
<g id="graph0" class="graph" transform="scale(1 1) rotate(0) translate(4 71.88)">
<title>data_structures::trie::deleteString</title>
<!-- Node1 -->
<g id="node1" class="node">
<title>Node1</title>
<g id="a_node1"><a xlink:title=" ">
<polygon fill="#999999" stroke="#666666" points="103,-45.88 0,-45.88 0,-15.37 103,-15.37 103,-45.88"/>
<text text-anchor="start" x="8" y="-32.38" font-family="Helvetica,sans-Serif" font-size="10.00">data_structures::trie</text>
<text text-anchor="middle" x="51.5" y="-21.12" font-family="Helvetica,sans-Serif" font-size="10.00">::deleteString</text>
</a>
</g>
</g>
<!-- Node1&#45;&gt;Node1 -->
<g id="edge3" class="edge">
<title>Node1&#45;&gt;Node1</title>
<path fill="none" stroke="#63b8ff" d="M26.87,-46.36C21.84,-55.43 30.05,-63.88 51.5,-63.88 63.56,-63.88 71.44,-61.2 75.13,-57.25"/>
<polygon fill="#63b8ff" stroke="#63b8ff" points="78.7,-57.64 76.13,-47.36 71.73,-57 78.7,-57.64"/>
</g>
<!-- Node2 -->
<g id="node2" class="node">
<title>Node2</title>
<g id="a_node2"><a xlink:href="../../d0/d3e/classdata__structures_1_1trie.html#aab373beb3f618b90922528c68797d988" target="_top" xlink:title="Convert a character to integer for indexing.">
<polygon fill="white" stroke="#666666" points="242,-67.88 139,-67.88 139,-37.38 242,-37.38 242,-67.88"/>
<text text-anchor="start" x="147" y="-54.38" font-family="Helvetica,sans-Serif" font-size="10.00">data_structures::trie</text>
<text text-anchor="middle" x="190.5" y="-43.12" font-family="Helvetica,sans-Serif" font-size="10.00">::char_to_int</text>
</a>
</g>
</g>
<!-- Node1&#45;&gt;Node2 -->
<g id="edge1" class="edge">
<title>Node1&#45;&gt;Node2</title>
<path fill="none" stroke="#63b8ff" d="M103.12,-38.75C111.18,-40.05 119.59,-41.4 127.87,-42.73"/>
<polygon fill="#63b8ff" stroke="#63b8ff" points="127.2,-46.33 137.63,-44.46 128.31,-39.41 127.2,-46.33"/>
</g>
<!-- Node4 -->
<g id="node4" class="node">
<title>Node4</title>
<g id="a_node4"><a target="_blank" xlink:href="http://en.cppreference.com/w/cpp/string/basic_string/size.html#" xlink:title=" ">
<polygon fill="white" stroke="#666666" points="236.38,-19.25 144.62,-19.25 144.62,0 236.38,0 236.38,-19.25"/>
<text text-anchor="middle" x="190.5" y="-5.75" font-family="Helvetica,sans-Serif" font-size="10.00">std::string::length</text>
</a>
</g>
</g>
<!-- Node1&#45;&gt;Node4 -->
<g id="edge4" class="edge">
<title>Node1&#45;&gt;Node4</title>
<path fill="none" stroke="#63b8ff" d="M103.12,-22.87C113.09,-21.34 123.59,-19.73 133.72,-18.18"/>
<polygon fill="#63b8ff" stroke="#63b8ff" points="134.15,-21.5 143.51,-16.52 133.09,-14.58 134.15,-21.5"/>
</g>
<!-- Node3 -->
<g id="node3" class="node">
<title>Node3</title>
<g id="a_node3"><a target="_blank" xlink:href="http://en.cppreference.com/w/cpp/utility/program/exit.html#" xlink:title=" ">
<polygon fill="white" stroke="#666666" points="329.25,-62.25 278,-62.25 278,-43 329.25,-43 329.25,-62.25"/>
<text text-anchor="middle" x="303.62" y="-48.75" font-family="Helvetica,sans-Serif" font-size="10.00">std::exit</text>
</a>
</g>
</g>
<!-- Node2&#45;&gt;Node3 -->
<g id="edge2" class="edge">
<title>Node2&#45;&gt;Node3</title>
<path fill="none" stroke="#63b8ff" d="M242.18,-52.62C250.49,-52.62 258.95,-52.62 266.8,-52.62"/>
<polygon fill="#63b8ff" stroke="#63b8ff" points="266.78,-56.13 276.78,-52.62 266.78,-49.13 266.78,-56.13"/>
</g>
</g>
</svg>
