<?xml version="1.0" encoding="UTF-8" standalone="no"?>
<!DOCTYPE svg PUBLIC "-//W3C//DTD SVG 1.1//EN"
 "http://www.w3.org/Graphics/SVG/1.1/DTD/svg11.dtd">
<!-- Generated by graphviz version 6.0.1 (20220911.1526)
 -->
<!-- Title: data_structures/queue_using_two_stacks.cpp Pages: 1 -->
<svg width="189pt" height="93pt"
 viewBox="0.00 0.00 189.00 93.00" xmlns="http://www.w3.org/2000/svg" xmlns:xlink="http://www.w3.org/1999/xlink">
<g id="graph0" class="graph" transform="scale(1 1) rotate(0) translate(4 89)">
<title>data_structures/queue_using_two_stacks.cpp</title>
<!-- Node1 -->
<g id="node1" class="node">
<title>Node1</title>
<g id="a_node1"><a xlink:title=" ">
<polygon fill="#999999" stroke="#666666" points="154,-85 35,-85 35,-55 154,-55 154,-85"/>
<text text-anchor="start" x="43" y="-73" font-family="Helvetica,sans-Serif" font-size="10.00">data_structures/queue</text>
<text text-anchor="middle" x="94.5" y="-62" font-family="Helvetica,sans-Serif" font-size="10.00">_using_two_stacks.cpp</text>
</a>
</g>
</g>
<!-- Node2 -->
<g id="node2" class="node">
<title>Node2</title>
<g id="a_node2"><a xlink:title=" ">
<polygon fill="#e0e0e0" stroke="#999999" points="49,-19 0,-19 0,0 49,0 49,-19"/>
<text text-anchor="middle" x="24.5" y="-7" font-family="Helvetica,sans-Serif" font-size="10.00">cassert</text>
</a>
</g>
</g>
<!-- Node1&#45;&gt;Node2 -->
<g id="edge1" class="edge">
<title>Node1&#45;&gt;Node2</title>
<path fill="none" stroke="#63b8ff" d="M77.55,-54.84C67.08,-46.09 53.64,-34.85 42.91,-25.88"/>
<polygon fill="#63b8ff" stroke="#63b8ff" points="44.91,-22.99 34.99,-19.27 40.42,-28.36 44.91,-22.99"/>
</g>
<!-- Node3 -->
<g id="node3" class="node">
<title>Node3</title>
<g id="a_node3"><a xlink:title=" ">
<polygon fill="#e0e0e0" stroke="#999999" points="121.5,-19 67.5,-19 67.5,0 121.5,0 121.5,-19"/>
<text text-anchor="middle" x="94.5" y="-7" font-family="Helvetica,sans-Serif" font-size="10.00">iostream</text>
</a>
</g>
</g>
<!-- Node1&#45;&gt;Node3 -->
<g id="edge2" class="edge">
<title>Node1&#45;&gt;Node3</title>
<path fill="none" stroke="#63b8ff" d="M94.5,-54.84C94.5,-47.21 94.5,-37.7 94.5,-29.45"/>
<polygon fill="#63b8ff" stroke="#63b8ff" points="98,-29.27 94.5,-19.27 91,-29.27 98,-29.27"/>
</g>
<!-- Node4 -->
<g id="node4" class="node">
<title>Node4</title>
<g id="a_node4"><a xlink:title=" ">
<polygon fill="#e0e0e0" stroke="#999999" points="181,-19 140,-19 140,0 181,0 181,-19"/>
<text text-anchor="middle" x="160.5" y="-7" font-family="Helvetica,sans-Serif" font-size="10.00">stack</text>
</a>
</g>
</g>
<!-- Node1&#45;&gt;Node4 -->
<g id="edge3" class="edge">
<title>Node1&#45;&gt;Node4</title>
<path fill="none" stroke="#63b8ff" d="M110.48,-54.84C120.25,-46.17 132.77,-35.08 142.84,-26.15"/>
<polygon fill="#63b8ff" stroke="#63b8ff" points="145.45,-28.52 150.61,-19.27 140.81,-23.28 145.45,-28.52"/>
</g>
</g>
</svg>
