<?xml version="1.0" encoding="UTF-8" standalone="no"?>
<!DOCTYPE svg PUBLIC "-//W3C//DTD SVG 1.1//EN"
 "http://www.w3.org/Graphics/SVG/1.1/DTD/svg11.dtd">
<!-- Generated by graphviz version 8.1.0 (20230707.0739)
 -->
<!-- Title: tests Pages: 1 -->
<svg width="333pt" height="39pt"
 viewBox="0.00 0.00 332.75 38.50" xmlns="http://www.w3.org/2000/svg" xmlns:xlink="http://www.w3.org/1999/xlink">
<g id="graph0" class="graph" transform="scale(1 1) rotate(0) translate(4 34.5)">
<title>tests</title>
<!-- Node1 -->
<g id="Node000001" class="node">
<title>Node1</title>
<g id="a_Node000001"><a xlink:title=" ">
<polygon fill="#999999" stroke="#666666" points="37.75,-24.88 0,-24.88 0,-5.63 37.75,-5.63 37.75,-24.88"/>
<text text-anchor="middle" x="18.88" y="-11.38" font-family="Helvetica,sans-Serif" font-size="10.00">tests</text>
</a>
</g>
</g>
<!-- Node2 -->
<g id="Node000002" class="node">
<title>Node2</title>
<g id="a_Node000002"><a xlink:href="../../d9/d23/classgraph_1_1_lowest_common_ancestor.html#a60151e19512b48cc0b14ea121df00488" target="_top" xlink:title="Query the structure to find the lowest common ancestor. Assumes that the provided numbers are valid i...">
<polygon fill="white" stroke="#666666" points="230,-30.5 73.75,-30.5 73.75,0 230,0 230,-30.5"/>
<text text-anchor="start" x="81.75" y="-17" font-family="Helvetica,sans-Serif" font-size="10.00">graph::LowestCommonAncestor</text>
<text text-anchor="middle" x="151.88" y="-5.75" font-family="Helvetica,sans-Serif" font-size="10.00">::lowest_common_ancestor</text>
</a>
</g>
</g>
<!-- Node1&#45;&gt;Node2 -->
<g id="edge1_Node000001_Node000002" class="edge">
<title>Node1&#45;&gt;Node2</title>
<g id="a_edge1_Node000001_Node000002"><a xlink:title=" ">
<path fill="none" stroke="#63b8ff" d="M38.09,-15.25C45.01,-15.25 53.44,-15.25 62.55,-15.25"/>
<polygon fill="#63b8ff" stroke="#63b8ff" points="62.49,-18.75 72.49,-15.25 62.49,-11.75 62.49,-18.75"/>
</a>
</g>
</g>
<!-- Node3 -->
<g id="Node000003" class="node">
<title>Node3</title>
<g id="a_Node000003"><a target="_blank" xlink:href="http://en.cppreference.com/w/cpp/algorithm/swap.html#" xlink:title=" ">
<polygon fill="white" stroke="#666666" points="324.75,-24.88 266,-24.88 266,-5.63 324.75,-5.63 324.75,-24.88"/>
<text text-anchor="middle" x="295.38" y="-11.38" font-family="Helvetica,sans-Serif" font-size="10.00">std::swap</text>
</a>
</g>
</g>
<!-- Node2&#45;&gt;Node3 -->
<g id="edge2_Node000002_Node000003" class="edge">
<title>Node2&#45;&gt;Node3</title>
<g id="a_edge2_Node000002_Node000003"><a xlink:title=" ">
<path fill="none" stroke="#63b8ff" d="M230.25,-15.25C238.75,-15.25 247.11,-15.25 254.86,-15.25"/>
<polygon fill="#63b8ff" stroke="#63b8ff" points="254.7,-18.75 264.7,-15.25 254.7,-11.75 254.7,-18.75"/>
</a>
</g>
</g>
</g>
</svg>
