<?xml version="1.0" encoding="UTF-8" standalone="no"?>
<!DOCTYPE svg PUBLIC "-//W3C//DTD SVG 1.1//EN"
 "http://www.w3.org/Graphics/SVG/1.1/DTD/svg11.dtd">
<!-- Generated by graphviz version 2.44.1 (20200629.0846)
 -->
<!-- Title: main Pages: 1 -->
<svg width="408pt" height="39pt"
 viewBox="0.00 0.00 408.00 39.00" xmlns="http://www.w3.org/2000/svg" xmlns:xlink="http://www.w3.org/1999/xlink">
<g id="graph0" class="graph" transform="scale(1 1) rotate(0) translate(4 35)">
<title>main</title>
<polygon fill="white" stroke="transparent" points="-4,4 -4,-35 404,-35 404,4 -4,4"/>
<!-- Node1 -->
<g id="node1" class="node">
<title>Node1</title>
<g id="a_node1"><a xlink:title=" ">
<polygon fill="#bfbfbf" stroke="black" points="0,-6 0,-25 38,-25 38,-6 0,-6"/>
<text text-anchor="middle" x="19" y="-13" font-family="Helvetica,sans-Serif" font-size="10.00">main</text>
</a>
</g>
</g>
<!-- Node2 -->
<g id="node2" class="node">
<title>Node2</title>
<g id="a_node2"><a xlink:href="../../de/dde/lowest__common__ancestor_8cpp.html#a483bb8ccf42aaf7375a83e91490eda1e" target="_top" xlink:title=" ">
<polygon fill="white" stroke="black" points="74,-6 74,-25 112,-25 112,-6 74,-6"/>
<text text-anchor="middle" x="93" y="-13" font-family="Helvetica,sans-Serif" font-size="10.00">tests</text>
</a>
</g>
</g>
<!-- Node1&#45;&gt;Node2 -->
<g id="edge1" class="edge">
<title>Node1&#45;&gt;Node2</title>
<path fill="none" stroke="midnightblue" d="M38.17,-15.5C45.87,-15.5 55.03,-15.5 63.58,-15.5"/>
<polygon fill="midnightblue" stroke="midnightblue" points="63.59,-19 73.59,-15.5 63.59,-12 63.59,-19"/>
</g>
<!-- Node3 -->
<g id="node3" class="node">
<title>Node3</title>
<g id="a_node3"><a xlink:href="../../d9/d23/classgraph_1_1_lowest_common_ancestor.html#a60151e19512b48cc0b14ea121df00488" target="_top" xlink:title="Query the structure to find the lowest common ancestor. Assumes that the provided numbers are valid i...">
<polygon fill="white" stroke="black" points="148,-0.5 148,-30.5 305,-30.5 305,-0.5 148,-0.5"/>
<text text-anchor="start" x="156" y="-18.5" font-family="Helvetica,sans-Serif" font-size="10.00">graph::LowestCommonAncestor</text>
<text text-anchor="middle" x="226.5" y="-7.5" font-family="Helvetica,sans-Serif" font-size="10.00">::lowest_common_ancestor</text>
</a>
</g>
</g>
<!-- Node2&#45;&gt;Node3 -->
<g id="edge2" class="edge">
<title>Node2&#45;&gt;Node3</title>
<path fill="none" stroke="midnightblue" d="M112.01,-15.5C119.21,-15.5 128.08,-15.5 137.65,-15.5"/>
<polygon fill="midnightblue" stroke="midnightblue" points="137.84,-19 147.84,-15.5 137.84,-12 137.84,-19"/>
</g>
<!-- Node4 -->
<g id="node4" class="node">
<title>Node4</title>
<g id="a_node4"><a target="_blank" xlink:href="http://en.cppreference.com/w/cpp/algorithm/swap.html#" target="_top" xlink:title=" ">
<polygon fill="white" stroke="black" points="341,-6 341,-25 400,-25 400,-6 341,-6"/>
<text text-anchor="middle" x="370.5" y="-13" font-family="Helvetica,sans-Serif" font-size="10.00">std::swap</text>
</a>
</g>
</g>
<!-- Node3&#45;&gt;Node4 -->
<g id="edge3" class="edge">
<title>Node3&#45;&gt;Node4</title>
<path fill="none" stroke="midnightblue" d="M305.15,-15.5C313.97,-15.5 322.66,-15.5 330.65,-15.5"/>
<polygon fill="midnightblue" stroke="midnightblue" points="330.72,-19 340.72,-15.5 330.72,-12 330.72,-19"/>
</g>
</g>
</svg>
