<?xml version="1.0" encoding="UTF-8" standalone="no"?>
<!DOCTYPE svg PUBLIC "-//W3C//DTD SVG 1.1//EN"
 "http://www.w3.org/Graphics/SVG/1.1/DTD/svg11.dtd">
<!-- Generated by graphviz version 2.49.3 (20211023.0002)
 -->
<!-- Title: divide_and_conquer::karatsuba_algorithm::addStrings Pages: 1 -->
<svg width="277pt" height="180pt"
 viewBox="0.00 0.00 277.00 180.00" xmlns="http://www.w3.org/2000/svg" xmlns:xlink="http://www.w3.org/1999/xlink">
<g id="graph0" class="graph" transform="scale(1 1) rotate(0) translate(4 176)">
<title>divide_and_conquer::karatsuba_algorithm::addStrings</title>
<polygon fill="white" stroke="transparent" points="-4,4 -4,-176 273,-176 273,4 -4,4"/>
<!-- Node1 -->
<g id="node1" class="node">
<title>Node1</title>
<g id="a_node1"><a xlink:title="Helper function for the main function, that implements Karatsuba&#39;s algorithm for fast multiplication.">
<polygon fill="#bfbfbf" stroke="black" points="0,-65.5 0,-106.5 113,-106.5 113,-65.5 0,-65.5"/>
<text text-anchor="start" x="8" y="-94.5" font-family="Helvetica,sans-Serif" font-size="10.00">divide_and_conquer</text>
<text text-anchor="start" x="8" y="-83.5" font-family="Helvetica,sans-Serif" font-size="10.00">::karatsuba_algorithm</text>
<text text-anchor="middle" x="56.5" y="-72.5" font-family="Helvetica,sans-Serif" font-size="10.00">::addStrings</text>
</a>
</g>
</g>
<!-- Node1&#45;&gt;Node1 -->
<g id="edge1" class="edge">
<title>Node1&#45;&gt;Node1</title>
<path fill="none" stroke="midnightblue" d="M28.56,-106.86C25.52,-116.54 34.83,-125 56.5,-125 70.04,-125 78.76,-121.7 82.65,-116.86"/>
<polygon fill="midnightblue" stroke="midnightblue" points="86.12,-117.32 84.44,-106.86 79.23,-116.09 86.12,-117.32"/>
</g>
<!-- Node2 -->
<g id="node2" class="node">
<title>Node2</title>
<g id="a_node2"><a target="_blank" xlink:href="http://en.cppreference.com/w/cpp/string/basic_string/at.html#" xlink:title=" ">
<polygon fill="white" stroke="black" points="172,-152.5 172,-171.5 246,-171.5 246,-152.5 172,-152.5"/>
<text text-anchor="middle" x="209" y="-159.5" font-family="Helvetica,sans-Serif" font-size="10.00">std::string::at</text>
</a>
</g>
</g>
<!-- Node1&#45;&gt;Node2 -->
<g id="edge2" class="edge">
<title>Node1&#45;&gt;Node2</title>
<path fill="none" stroke="midnightblue" d="M86.54,-106.66C104.04,-118.45 127.1,-132.84 149,-143 153.7,-145.18 158.72,-147.21 163.77,-149.07"/>
<polygon fill="midnightblue" stroke="midnightblue" points="162.85,-152.46 173.45,-152.44 165.15,-145.85 162.85,-152.46"/>
</g>
<!-- Node3 -->
<g id="node3" class="node">
<title>Node3</title>
<g id="a_node3"><a target="_blank" xlink:href="http://en.cppreference.com/w/cpp/algorithm/max.html#" xlink:title=" ">
<polygon fill="white" stroke="black" points="182,-114.5 182,-133.5 236,-133.5 236,-114.5 182,-114.5"/>
<text text-anchor="middle" x="209" y="-121.5" font-family="Helvetica,sans-Serif" font-size="10.00">std::max</text>
</a>
</g>
</g>
<!-- Node1&#45;&gt;Node3 -->
<g id="edge3" class="edge">
<title>Node1&#45;&gt;Node3</title>
<path fill="none" stroke="midnightblue" d="M113.11,-100.04C132.71,-104.99 154.22,-110.42 171.8,-114.86"/>
<polygon fill="midnightblue" stroke="midnightblue" points="171.1,-118.29 181.65,-117.35 172.81,-111.51 171.1,-118.29"/>
</g>
<!-- Node4 -->
<g id="node4" class="node">
<title>Node4</title>
<g id="a_node4"><a target="_blank" xlink:href="http://en.cppreference.com/w/cpp/string/basic_string/size.html#" xlink:title=" ">
<polygon fill="white" stroke="black" points="167.5,-76.5 167.5,-95.5 250.5,-95.5 250.5,-76.5 167.5,-76.5"/>
<text text-anchor="middle" x="209" y="-83.5" font-family="Helvetica,sans-Serif" font-size="10.00">std::string::size</text>
</a>
</g>
</g>
<!-- Node1&#45;&gt;Node4 -->
<g id="edge4" class="edge">
<title>Node1&#45;&gt;Node4</title>
<path fill="none" stroke="midnightblue" d="M113.11,-86C127.53,-86 142.99,-86 157.15,-86"/>
<polygon fill="midnightblue" stroke="midnightblue" points="157.2,-89.5 167.2,-86 157.2,-82.5 157.2,-89.5"/>
</g>
<!-- Node5 -->
<g id="node5" class="node">
<title>Node5</title>
<g id="a_node5"><a xlink:href="../../d8/d77/namespacemachine__learning.html#a6f1c98c016ad34ff3d9f39372161bd35" target="_top" xlink:title=" ">
<polygon fill="white" stroke="black" points="149,-38.5 149,-57.5 269,-57.5 269,-38.5 149,-38.5"/>
<text text-anchor="middle" x="209" y="-45.5" font-family="Helvetica,sans-Serif" font-size="10.00">machine_learning::sum</text>
</a>
</g>
</g>
<!-- Node1&#45;&gt;Node5 -->
<g id="edge5" class="edge">
<title>Node1&#45;&gt;Node5</title>
<path fill="none" stroke="midnightblue" d="M113.11,-71.96C128.49,-68.08 145.04,-63.9 159.95,-60.13"/>
<polygon fill="midnightblue" stroke="midnightblue" points="161.13,-63.44 169.97,-57.6 159.42,-56.66 161.13,-63.44"/>
</g>
<!-- Node6 -->
<g id="node6" class="node">
<title>Node6</title>
<g id="a_node6"><a target="_blank" xlink:href="http://en.cppreference.com/w/cpp/string/basic_string/to_string.html#" xlink:title=" ">
<polygon fill="white" stroke="black" points="172,-0.5 172,-19.5 246,-19.5 246,-0.5 172,-0.5"/>
<text text-anchor="middle" x="209" y="-7.5" font-family="Helvetica,sans-Serif" font-size="10.00">std::to_string</text>
</a>
</g>
</g>
<!-- Node1&#45;&gt;Node6 -->
<g id="edge6" class="edge">
<title>Node1&#45;&gt;Node6</title>
<path fill="none" stroke="midnightblue" d="M86.54,-65.34C104.04,-53.55 127.1,-39.16 149,-29 153.7,-26.82 158.72,-24.79 163.77,-22.93"/>
<polygon fill="midnightblue" stroke="midnightblue" points="165.15,-26.15 173.45,-19.56 162.85,-19.54 165.15,-26.15"/>
</g>
</g>
</svg>
