<?xml version="1.0" encoding="UTF-8" standalone="no"?>
<!DOCTYPE svg PUBLIC "-//W3C//DTD SVG 1.1//EN"
 "http://www.w3.org/Graphics/SVG/1.1/DTD/svg11.dtd">
<!-- Generated by graphviz version 5.0.1 (20220820.1526)
 -->
<!-- Title: divide_and_conquer::karatsuba_algorithm::addStrings Pages: 1 -->
<svg width="238pt" height="138pt"
 viewBox="0.00 0.00 238.00 138.00" xmlns="http://www.w3.org/2000/svg" xmlns:xlink="http://www.w3.org/1999/xlink">
<g id="graph0" class="graph" transform="scale(1 1) rotate(0) translate(4 134)">
<title>divide_and_conquer::karatsuba_algorithm::addStrings</title>
<!-- Node1 -->
<g id="node1" class="node">
<title>Node1</title>
<g id="a_node1"><a xlink:title="Helper function for the main function, that implements Karatsuba&#39;s algorithm for fast multiplication.">
<polygon fill="#999999" stroke="#666666" points="110,-85 0,-85 0,-44 110,-44 110,-85"/>
<text text-anchor="start" x="8" y="-73" font-family="Helvetica,sans-Serif" font-size="10.00">divide_and_conquer</text>
<text text-anchor="start" x="8" y="-62" font-family="Helvetica,sans-Serif" font-size="10.00">::karatsuba_algorithm</text>
<text text-anchor="middle" x="55" y="-51" font-family="Helvetica,sans-Serif" font-size="10.00">::addStrings</text>
</a>
</g>
</g>
<!-- Node1&#45;&gt;Node1 -->
<g id="edge1" class="edge">
<title>Node1&#45;&gt;Node1</title>
<path fill="none" stroke="#63b8ff" d="M30.74,-85.1C28.09,-94.65 36.18,-103 55,-103 66.47,-103 73.95,-99.9 77.45,-95.32"/>
<polygon fill="#63b8ff" stroke="#63b8ff" points="80.96,-95.55 79.26,-85.1 74.07,-94.33 80.96,-95.55"/>
</g>
<!-- Node2 -->
<g id="node2" class="node">
<title>Node2</title>
<g id="a_node2"><a target="_blank" xlink:href="http://en.cppreference.com/w/cpp/string/basic_string/at.html#" xlink:title=" ">
<polygon fill="white" stroke="#666666" points="225,-130 151,-130 151,-111 225,-111 225,-130"/>
<text text-anchor="middle" x="188" y="-118" font-family="Helvetica,sans-Serif" font-size="10.00">std::string::at</text>
</a>
</g>
</g>
<!-- Node1&#45;&gt;Node2 -->
<g id="edge2" class="edge">
<title>Node1&#45;&gt;Node2</title>
<path fill="none" stroke="#63b8ff" d="M104.04,-85.03C121.05,-92.31 139.76,-100.3 155.09,-106.86"/>
<polygon fill="#63b8ff" stroke="#63b8ff" points="154.06,-110.23 164.63,-110.94 156.81,-103.79 154.06,-110.23"/>
</g>
<!-- Node3 -->
<g id="node3" class="node">
<title>Node3</title>
<g id="a_node3"><a target="_blank" xlink:href="http://en.cppreference.com/w/cpp/algorithm/max.html#" xlink:title=" ">
<polygon fill="white" stroke="#666666" points="215.5,-93 160.5,-93 160.5,-74 215.5,-74 215.5,-93"/>
<text text-anchor="middle" x="188" y="-81" font-family="Helvetica,sans-Serif" font-size="10.00">std::max</text>
</a>
</g>
</g>
<!-- Node1&#45;&gt;Node3 -->
<g id="edge3" class="edge">
<title>Node1&#45;&gt;Node3</title>
<path fill="none" stroke="#63b8ff" d="M110.04,-72.34C123.58,-74.3 137.8,-76.36 150.28,-78.17"/>
<polygon fill="#63b8ff" stroke="#63b8ff" points="149.91,-81.66 160.31,-79.63 150.91,-74.73 149.91,-81.66"/>
</g>
<!-- Node4 -->
<g id="node4" class="node">
<title>Node4</title>
<g id="a_node4"><a target="_blank" xlink:href="http://en.cppreference.com/w/cpp/string/basic_string/size.html#" xlink:title=" ">
<polygon fill="white" stroke="#666666" points="230,-56 146,-56 146,-37 230,-37 230,-56"/>
<text text-anchor="middle" x="188" y="-44" font-family="Helvetica,sans-Serif" font-size="10.00">std::string::size</text>
</a>
</g>
</g>
<!-- Node1&#45;&gt;Node4 -->
<g id="edge4" class="edge">
<title>Node1&#45;&gt;Node4</title>
<path fill="none" stroke="#63b8ff" d="M110.04,-57.07C118.56,-55.9 127.34,-54.7 135.79,-53.54"/>
<polygon fill="#63b8ff" stroke="#63b8ff" points="136.47,-56.98 145.9,-52.15 135.51,-50.04 136.47,-56.98"/>
</g>
<!-- Node5 -->
<g id="node5" class="node">
<title>Node5</title>
<g id="a_node5"><a target="_blank" xlink:href="http://en.cppreference.com/w/cpp/string/basic_string/to_string.html#" xlink:title=" ">
<polygon fill="white" stroke="#666666" points="225,-19 151,-19 151,0 225,0 225,-19"/>
<text text-anchor="middle" x="188" y="-7" font-family="Helvetica,sans-Serif" font-size="10.00">std::to_string</text>
</a>
</g>
</g>
<!-- Node1&#45;&gt;Node5 -->
<g id="edge5" class="edge">
<title>Node1&#45;&gt;Node5</title>
<path fill="none" stroke="#63b8ff" d="M105.15,-43.86C121.83,-36.86 140.01,-29.23 155,-22.94"/>
<polygon fill="#63b8ff" stroke="#63b8ff" points="156.47,-26.11 164.34,-19.02 153.76,-19.66 156.47,-26.11"/>
</g>
</g>
</svg>
