<?xml version="1.0" encoding="UTF-8" standalone="no"?>
<!DOCTYPE svg PUBLIC "-//W3C//DTD SVG 1.1//EN"
 "http://www.w3.org/Graphics/SVG/1.1/DTD/svg11.dtd">
<!-- Generated by graphviz version 6.0.1 (20220911.1526)
 -->
<!-- Title: spirograph::spirograph Pages: 1 -->
<svg width="209pt" height="64pt"
 viewBox="0.00 0.00 209.00 64.00" xmlns="http://www.w3.org/2000/svg" xmlns:xlink="http://www.w3.org/1999/xlink">
<g id="graph0" class="graph" transform="scale(1 1) rotate(0) translate(4 60)">
<title>spirograph::spirograph</title>
<!-- Node1 -->
<g id="node1" class="node">
<title>Node1</title>
<g id="a_node1"><a xlink:title=" ">
<polygon fill="#999999" stroke="#666666" points="113,-37 0,-37 0,-18 113,-18 113,-37"/>
<text text-anchor="middle" x="56.5" y="-25" font-family="Helvetica,sans-Serif" font-size="10.00">spirograph::spirograph</text>
</a>
</g>
</g>
<!-- Node2 -->
<g id="node2" class="node">
<title>Node2</title>
<g id="a_node2"><a target="_blank" xlink:href="http://en.cppreference.com/w/cpp/numeric/math/cos.html#" xlink:title=" ">
<polygon fill="white" stroke="#666666" points="201,-56 149,-56 149,-37 201,-37 201,-56"/>
<text text-anchor="middle" x="175" y="-44" font-family="Helvetica,sans-Serif" font-size="10.00">std::cos</text>
</a>
</g>
</g>
<!-- Node1&#45;&gt;Node2 -->
<g id="edge1" class="edge">
<title>Node1&#45;&gt;Node2</title>
<path fill="none" stroke="#63b8ff" d="M113.02,-36.55C121.84,-37.99 130.74,-39.44 138.92,-40.78"/>
<polygon fill="#63b8ff" stroke="#63b8ff" points="138.39,-44.24 148.82,-42.39 139.51,-37.33 138.39,-44.24"/>
</g>
<!-- Node3 -->
<g id="node3" class="node">
<title>Node3</title>
<g id="a_node3"><a target="_blank" xlink:href="http://en.cppreference.com/w/cpp/numeric/math/sin.html#" xlink:title=" ">
<polygon fill="white" stroke="#666666" points="199.5,-19 150.5,-19 150.5,0 199.5,0 199.5,-19"/>
<text text-anchor="middle" x="175" y="-7" font-family="Helvetica,sans-Serif" font-size="10.00">std::sin</text>
</a>
</g>
</g>
<!-- Node1&#45;&gt;Node3 -->
<g id="edge2" class="edge">
<title>Node1&#45;&gt;Node3</title>
<path fill="none" stroke="#63b8ff" d="M113.02,-18.92C122.35,-17.48 131.78,-16.02 140.34,-14.7"/>
<polygon fill="#63b8ff" stroke="#63b8ff" points="140.94,-18.15 150.28,-13.16 139.87,-11.23 140.94,-18.15"/>
</g>
</g>
</svg>
