<?xml version="1.0" encoding="UTF-8" standalone="no"?>
<!DOCTYPE svg PUBLIC "-//W3C//DTD SVG 1.1//EN"
 "http://www.w3.org/Graphics/SVG/1.1/DTD/svg11.dtd">
<!-- Generated by graphviz version 5.0.1 (20220820.1526)
 -->
<!-- Title: spirograph::test Pages: 1 -->
<svg width="242pt" height="138pt"
 viewBox="0.00 0.00 242.00 138.00" xmlns="http://www.w3.org/2000/svg" xmlns:xlink="http://www.w3.org/1999/xlink">
<g id="graph0" class="graph" transform="scale(1 1) rotate(0) translate(4 134)">
<title>spirograph::test</title>
<!-- Node1 -->
<g id="node1" class="node">
<title>Node1</title>
<g id="a_node1"><a xlink:title="Test function to save resulting points to a CSV file.">
<polygon fill="#999999" stroke="#666666" points="84,-74 0,-74 0,-55 84,-55 84,-74"/>
<text text-anchor="middle" x="42" y="-62" font-family="Helvetica,sans-Serif" font-size="10.00">spirograph::test</text>
</a>
</g>
</g>
<!-- Node2 -->
<g id="node2" class="node">
<title>Node2</title>
<g id="a_node2"><a target="_blank" xlink:href="http://en.cppreference.com/w/cpp/io/basic_ofstream/close.html#" xlink:title=" ">
<polygon fill="white" stroke="#666666" points="229,-130 125,-130 125,-111 229,-111 229,-130"/>
<text text-anchor="middle" x="177" y="-118" font-family="Helvetica,sans-Serif" font-size="10.00">std::ofstream::close</text>
</a>
</g>
</g>
<!-- Node1&#45;&gt;Node2 -->
<g id="edge1" class="edge">
<title>Node1&#45;&gt;Node2</title>
<path fill="none" stroke="#63b8ff" d="M60.4,-74.01C75.79,-82.19 99,-94 120,-102.5 124.44,-104.3 129.13,-106.04 133.84,-107.69"/>
<polygon fill="#63b8ff" stroke="#63b8ff" points="132.84,-111.05 143.43,-110.93 135.08,-104.41 132.84,-111.05"/>
</g>
<!-- Node3 -->
<g id="node3" class="node">
<title>Node3</title>
<g id="a_node3"><a target="_blank" xlink:href="http://en.cppreference.com/w/cpp/io/basic_ofstream/is_open.html#" xlink:title=" ">
<polygon fill="white" stroke="#666666" points="234,-93 120,-93 120,-74 234,-74 234,-93"/>
<text text-anchor="middle" x="177" y="-81" font-family="Helvetica,sans-Serif" font-size="10.00">std::ofstream::is_open</text>
</a>
</g>
</g>
<!-- Node1&#45;&gt;Node3 -->
<g id="edge2" class="edge">
<title>Node1&#45;&gt;Node3</title>
<path fill="none" stroke="#63b8ff" d="M84.35,-70.41C92.35,-71.55 100.93,-72.78 109.5,-74"/>
<polygon fill="#63b8ff" stroke="#63b8ff" points="109.13,-77.48 119.53,-75.43 110.12,-70.55 109.13,-77.48"/>
</g>
<!-- Node4 -->
<g id="node4" class="node">
<title>Node4</title>
<g id="a_node4"><a target="_blank" xlink:href="http://en.cppreference.com/w/cpp/io/manip/setw.html#" xlink:title=" ">
<polygon fill="white" stroke="#666666" points="205.5,-56 148.5,-56 148.5,-37 205.5,-37 205.5,-56"/>
<text text-anchor="middle" x="177" y="-44" font-family="Helvetica,sans-Serif" font-size="10.00">std::setw</text>
</a>
</g>
</g>
<!-- Node1&#45;&gt;Node4 -->
<g id="edge3" class="edge">
<title>Node1&#45;&gt;Node4</title>
<path fill="none" stroke="#63b8ff" d="M84.35,-58.9C101.53,-56.58 121.33,-53.9 138.12,-51.63"/>
<polygon fill="#63b8ff" stroke="#63b8ff" points="138.7,-55.08 148.14,-50.27 137.76,-48.14 138.7,-55.08"/>
</g>
<!-- Node5 -->
<g id="node5" class="node">
<title>Node5</title>
<g id="a_node5"><a target="_blank" xlink:href="http://en.cppreference.com/w/cpp/io/basic_stringstream/str.html#" xlink:title=" ">
<polygon fill="white" stroke="#666666" points="230.5,-19 123.5,-19 123.5,0 230.5,0 230.5,-19"/>
<text text-anchor="middle" x="177" y="-7" font-family="Helvetica,sans-Serif" font-size="10.00">std::stringstream::str</text>
</a>
</g>
</g>
<!-- Node1&#45;&gt;Node5 -->
<g id="edge4" class="edge">
<title>Node1&#45;&gt;Node5</title>
<path fill="none" stroke="#63b8ff" d="M62.04,-54.88C77.47,-47.26 99.87,-36.59 120,-28.5 125.18,-26.42 130.69,-24.36 136.14,-22.42"/>
<polygon fill="#63b8ff" stroke="#63b8ff" points="137.54,-25.64 145.84,-19.05 135.25,-19.02 137.54,-25.64"/>
</g>
</g>
</svg>
