<?xml version="1.0" encoding="UTF-8" standalone="no"?>
<!DOCTYPE svg PUBLIC "-//W3C//DTD SVG 1.1//EN"
 "http://www.w3.org/Graphics/SVG/1.1/DTD/svg11.dtd">
<!-- Generated by graphviz version 9.0.0 (20230911.1827)
 -->
<!-- Title: binary_search_tree::remove Pages: 1 -->
<svg width="241pt" height="94pt"
 viewBox="0.00 0.00 241.00 93.88" xmlns="http://www.w3.org/2000/svg" xmlns:xlink="http://www.w3.org/1999/xlink">
<g id="graph0" class="graph" transform="scale(1 1) rotate(0) translate(4 89.88)">
<title>binary_search_tree::remove</title>
<!-- Node1 -->
<g id="Node000001" class="node">
<title>Node1</title>
<g id="a_Node000001"><a xlink:title="Recursive function to remove a value from the BST.">
<polygon fill="#999999" stroke="#666666" points="98.5,-45.88 0,-45.88 0,-15.37 98.5,-15.37 98.5,-45.88"/>
<text text-anchor="start" x="8" y="-32.38" font-family="Helvetica,sans-Serif" font-size="10.00">binary_search_tree</text>
<text text-anchor="middle" x="49.25" y="-21.12" font-family="Helvetica,sans-Serif" font-size="10.00">::remove</text>
</a>
</g>
</g>
<!-- Node1&#45;&gt;Node1 -->
<g id="edge4_Node000001_Node000001" class="edge">
<title>Node1&#45;&gt;Node1</title>
<g id="a_edge4_Node000001_Node000001"><a xlink:title=" ">
<path fill="none" stroke="#63b8ff" d="M25.42,-46.36C20.55,-55.43 28.5,-63.88 49.25,-63.88 60.6,-63.88 68.12,-61.35 71.81,-57.58"/>
<polygon fill="#63b8ff" stroke="#63b8ff" points="75.26,-58.2 72.91,-47.86 68.3,-57.4 75.26,-58.2"/>
</a>
</g>
</g>
<!-- Node2 -->
<g id="Node000002" class="node">
<title>Node2</title>
<g id="a_Node000002"><a xlink:href="../../d9/dde/classbinary__search__tree.html#a75f897af6aa732a9901454401c869bcb" target="_top" xlink:title="Recursive function to find the maximum value in the BST.">
<polygon fill="white" stroke="#666666" points="233,-67.88 134.5,-67.88 134.5,-37.38 233,-37.38 233,-67.88"/>
<text text-anchor="start" x="142.5" y="-54.38" font-family="Helvetica,sans-Serif" font-size="10.00">binary_search_tree</text>
<text text-anchor="middle" x="183.75" y="-43.12" font-family="Helvetica,sans-Serif" font-size="10.00">::find_max</text>
</a>
</g>
</g>
<!-- Node1&#45;&gt;Node2 -->
<g id="edge1_Node000001_Node000002" class="edge">
<title>Node1&#45;&gt;Node2</title>
<g id="a_edge1_Node000001_Node000002"><a xlink:title=" ">
<path fill="none" stroke="#63b8ff" d="M98.84,-38.69C106.67,-39.99 114.85,-41.35 122.91,-42.69"/>
<polygon fill="#63b8ff" stroke="#63b8ff" points="122.24,-46.13 132.68,-44.31 123.39,-39.22 122.24,-46.13"/>
</a>
</g>
</g>
<!-- Node3 -->
<g id="Node000003" class="node">
<title>Node3</title>
<g id="a_Node000003"><a target="_blank" xlink:href="http://en.cppreference.com/w/cpp/utility/move.html#" xlink:title=" ">
<polygon fill="white" stroke="#666666" points="213.5,-19.25 154,-19.25 154,0 213.5,0 213.5,-19.25"/>
<text text-anchor="middle" x="183.75" y="-5.75" font-family="Helvetica,sans-Serif" font-size="10.00">std::move</text>
</a>
</g>
</g>
<!-- Node1&#45;&gt;Node3 -->
<g id="edge3_Node000001_Node000003" class="edge">
<title>Node1&#45;&gt;Node3</title>
<g id="a_edge3_Node000001_Node000003"><a xlink:title=" ">
<path fill="none" stroke="#63b8ff" d="M98.84,-22.92C113.26,-20.64 128.89,-18.16 142.71,-15.97"/>
<polygon fill="#63b8ff" stroke="#63b8ff" points="143,-19.47 152.33,-14.45 141.9,-12.56 143,-19.47"/>
</a>
</g>
</g>
<!-- Node2&#45;&gt;Node2 -->
<g id="edge2_Node000002_Node000002" class="edge">
<title>Node2&#45;&gt;Node2</title>
<g id="a_edge2_Node000002_Node000002"><a xlink:title=" ">
<path fill="none" stroke="#63b8ff" d="M159.92,-68.36C155.05,-77.43 163,-85.88 183.75,-85.88 195.1,-85.88 202.62,-83.35 206.31,-79.58"/>
<polygon fill="#63b8ff" stroke="#63b8ff" points="209.76,-80.2 207.41,-69.86 202.8,-79.4 209.76,-80.2"/>
</a>
</g>
</g>
</g>
</svg>
