<?xml version="1.0" encoding="UTF-8" standalone="no"?>
<!DOCTYPE svg PUBLIC "-//W3C//DTD SVG 1.1//EN"
 "http://www.w3.org/Graphics/SVG/1.1/DTD/svg11.dtd">
<!-- Generated by graphviz version 5.0.0 (20220707.1540)
 -->
<!-- Title: probability/geometric_dist.cpp Pages: 1 -->
<svg width="504pt" height="95pt"
 viewBox="0.00 0.00 503.50 95.00" xmlns="http://www.w3.org/2000/svg" xmlns:xlink="http://www.w3.org/1999/xlink">
<g id="graph0" class="graph" transform="scale(1 1) rotate(0) translate(4 91)">
<title>probability/geometric_dist.cpp</title>
<polygon fill="white" stroke="transparent" points="-4,4 -4,-91 499.5,-91 499.5,4 -4,4"/>
<!-- Node1 -->
<g id="node1" class="node">
<title>Node1</title>
<g id="a_node1"><a xlink:title="Geometric Distribution">
<polygon fill="#bfbfbf" stroke="black" points="194,-56.5 194,-86.5 301,-86.5 301,-56.5 194,-56.5"/>
<text text-anchor="start" x="202" y="-74.5" font-family="Helvetica,sans-Serif" font-size="10.00">probability/geometric</text>
<text text-anchor="middle" x="247.5" y="-63.5" font-family="Helvetica,sans-Serif" font-size="10.00">_dist.cpp</text>
</a>
</g>
</g>
<!-- Node2 -->
<g id="node2" class="node">
<title>Node2</title>
<g id="a_node2"><a xlink:title=" ">
<polygon fill="white" stroke="#bfbfbf" points="0,-0.5 0,-19.5 49,-19.5 49,-0.5 0,-0.5"/>
<text text-anchor="middle" x="24.5" y="-7.5" font-family="Helvetica,sans-Serif" font-size="10.00">cassert</text>
</a>
</g>
</g>
<!-- Node1&#45;&gt;Node2 -->
<g id="edge1" class="edge">
<title>Node1&#45;&gt;Node2</title>
<path fill="none" stroke="midnightblue" d="M194.93,-56.47C153.09,-45.31 95.72,-30 59.38,-20.31"/>
<polygon fill="midnightblue" stroke="midnightblue" points="59.83,-16.8 49.26,-17.61 58.02,-23.57 59.83,-16.8"/>
</g>
<!-- Node3 -->
<g id="node3" class="node">
<title>Node3</title>
<g id="a_node3"><a xlink:title=" ">
<polygon fill="white" stroke="#bfbfbf" points="67.5,-0.5 67.5,-19.5 111.5,-19.5 111.5,-0.5 67.5,-0.5"/>
<text text-anchor="middle" x="89.5" y="-7.5" font-family="Helvetica,sans-Serif" font-size="10.00">cmath</text>
</a>
</g>
</g>
<!-- Node1&#45;&gt;Node3 -->
<g id="edge2" class="edge">
<title>Node1&#45;&gt;Node3</title>
<path fill="none" stroke="midnightblue" d="M210.06,-56.4C182.99,-46.21 146.82,-32.59 121.18,-22.93"/>
<polygon fill="midnightblue" stroke="midnightblue" points="122.17,-19.56 111.57,-19.31 119.7,-26.11 122.17,-19.56"/>
</g>
<!-- Node4 -->
<g id="node4" class="node">
<title>Node4</title>
<g id="a_node4"><a xlink:title=" ">
<polygon fill="white" stroke="#bfbfbf" points="129.5,-0.5 129.5,-19.5 175.5,-19.5 175.5,-0.5 129.5,-0.5"/>
<text text-anchor="middle" x="152.5" y="-7.5" font-family="Helvetica,sans-Serif" font-size="10.00">cstdint</text>
</a>
</g>
</g>
<!-- Node1&#45;&gt;Node4 -->
<g id="edge3" class="edge">
<title>Node1&#45;&gt;Node4</title>
<path fill="none" stroke="midnightblue" d="M224.99,-56.4C209.9,-46.95 190.11,-34.56 175.03,-25.11"/>
<polygon fill="midnightblue" stroke="midnightblue" points="176.66,-22 166.32,-19.66 172.94,-27.93 176.66,-22"/>
</g>
<!-- Node5 -->
<g id="node5" class="node">
<title>Node5</title>
<g id="a_node5"><a xlink:title=" ">
<polygon fill="white" stroke="#bfbfbf" points="194,-0.5 194,-19.5 235,-19.5 235,-0.5 194,-0.5"/>
<text text-anchor="middle" x="214.5" y="-7.5" font-family="Helvetica,sans-Serif" font-size="10.00">ctime</text>
</a>
</g>
</g>
<!-- Node1&#45;&gt;Node5 -->
<g id="edge4" class="edge">
<title>Node1&#45;&gt;Node5</title>
<path fill="none" stroke="midnightblue" d="M239.68,-56.4C235.03,-48.02 229.1,-37.33 224.16,-28.42"/>
<polygon fill="midnightblue" stroke="midnightblue" points="227.21,-26.71 219.3,-19.66 221.09,-30.1 227.21,-26.71"/>
</g>
<!-- Node6 -->
<g id="node6" class="node">
<title>Node6</title>
<g id="a_node6"><a xlink:title=" ">
<polygon fill="white" stroke="#bfbfbf" points="253.5,-0.5 253.5,-19.5 307.5,-19.5 307.5,-0.5 253.5,-0.5"/>
<text text-anchor="middle" x="280.5" y="-7.5" font-family="Helvetica,sans-Serif" font-size="10.00">iostream</text>
</a>
</g>
</g>
<!-- Node1&#45;&gt;Node6 -->
<g id="edge5" class="edge">
<title>Node1&#45;&gt;Node6</title>
<path fill="none" stroke="midnightblue" d="M255.32,-56.4C259.97,-48.02 265.9,-37.33 270.84,-28.42"/>
<polygon fill="midnightblue" stroke="midnightblue" points="273.91,-30.1 275.7,-19.66 267.79,-26.71 273.91,-30.1"/>
</g>
<!-- Node7 -->
<g id="node7" class="node">
<title>Node7</title>
<g id="a_node7"><a xlink:title=" ">
<polygon fill="white" stroke="#bfbfbf" points="325.5,-0.5 325.5,-19.5 365.5,-19.5 365.5,-0.5 325.5,-0.5"/>
<text text-anchor="middle" x="345.5" y="-7.5" font-family="Helvetica,sans-Serif" font-size="10.00">limits</text>
</a>
</g>
</g>
<!-- Node1&#45;&gt;Node7 -->
<g id="edge6" class="edge">
<title>Node1&#45;&gt;Node7</title>
<path fill="none" stroke="midnightblue" d="M270.72,-56.4C286.29,-46.95 306.7,-34.56 322.26,-25.11"/>
<polygon fill="midnightblue" stroke="midnightblue" points="324.51,-27.84 331.24,-19.66 320.88,-21.86 324.51,-27.84"/>
</g>
<!-- Node8 -->
<g id="node8" class="node">
<title>Node8</title>
<g id="a_node8"><a xlink:title=" ">
<polygon fill="white" stroke="#bfbfbf" points="384,-0.5 384,-19.5 433,-19.5 433,-0.5 384,-0.5"/>
<text text-anchor="middle" x="408.5" y="-7.5" font-family="Helvetica,sans-Serif" font-size="10.00">random</text>
</a>
</g>
</g>
<!-- Node1&#45;&gt;Node8 -->
<g id="edge7" class="edge">
<title>Node1&#45;&gt;Node8</title>
<path fill="none" stroke="midnightblue" d="M285.65,-56.4C313.03,-46.28 349.54,-32.79 375.63,-23.15"/>
<polygon fill="midnightblue" stroke="midnightblue" points="376.91,-26.41 385.07,-19.66 374.48,-19.84 376.91,-26.41"/>
</g>
<!-- Node9 -->
<g id="node9" class="node">
<title>Node9</title>
<g id="a_node9"><a xlink:title=" ">
<polygon fill="white" stroke="#bfbfbf" points="451.5,-0.5 451.5,-19.5 495.5,-19.5 495.5,-0.5 451.5,-0.5"/>
<text text-anchor="middle" x="473.5" y="-7.5" font-family="Helvetica,sans-Serif" font-size="10.00">vector</text>
</a>
</g>
</g>
<!-- Node1&#45;&gt;Node9 -->
<g id="edge8" class="edge">
<title>Node1&#45;&gt;Node9</title>
<path fill="none" stroke="midnightblue" d="M301.41,-56.99C338.33,-47.63 388.64,-34.68 441.31,-20.27"/>
<polygon fill="midnightblue" stroke="midnightblue" points="442.45,-23.59 451.17,-17.57 440.6,-16.84 442.45,-23.59"/>
</g>
</g>
</svg>
