<?xml version="1.0" encoding="UTF-8" standalone="no"?>
<!DOCTYPE svg PUBLIC "-//W3C//DTD SVG 1.1//EN"
 "http://www.w3.org/Graphics/SVG/1.1/DTD/svg11.dtd">
<!-- Generated by graphviz version 5.0.0 (20220707.1540)
 -->
<!-- Title: test Pages: 1 -->
<svg width="294pt" height="306pt"
 viewBox="0.00 0.00 294.00 306.00" xmlns="http://www.w3.org/2000/svg" xmlns:xlink="http://www.w3.org/1999/xlink">
<g id="graph0" class="graph" transform="scale(1 1) rotate(0) translate(4 302)">
<title>test</title>
<polygon fill="white" stroke="transparent" points="-4,4 -4,-302 290,-302 290,4 -4,4"/>
<!-- Node1 -->
<g id="node1" class="node">
<title>Node1</title>
<g id="a_node1"><a xlink:title="Self&#45;test implementations.">
<polygon fill="#bfbfbf" stroke="black" points="0,-133.5 0,-152.5 33,-152.5 33,-133.5 0,-133.5"/>
<text text-anchor="middle" x="16.5" y="-140.5" font-family="Helvetica,sans-Serif" font-size="10.00">test</text>
</a>
</g>
</g>
<!-- Node2 -->
<g id="node2" class="node">
<title>Node2</title>
<g id="a_node2"><a xlink:href="../../dd/d47/namespacemath.html#a3fe35440c27758ecc2287e08217d63a7" target="_top" xlink:title="The volume of a cone">
<polygon fill="white" stroke="black" points="81.5,-152.5 81.5,-171.5 183.5,-171.5 183.5,-152.5 81.5,-152.5"/>
<text text-anchor="middle" x="132.5" y="-159.5" font-family="Helvetica,sans-Serif" font-size="10.00">math::cone_volume</text>
</a>
</g>
</g>
<!-- Node1&#45;&gt;Node2 -->
<g id="edge1" class="edge">
<title>Node1&#45;&gt;Node2</title>
<path fill="none" stroke="midnightblue" d="M33.35,-145.64C43.44,-147.32 57.22,-149.62 71.26,-151.96"/>
<polygon fill="midnightblue" stroke="midnightblue" points="71.04,-155.47 81.48,-153.66 72.19,-148.57 71.04,-155.47"/>
</g>
<!-- Node5 -->
<g id="node5" class="node">
<title>Node5</title>
<g id="a_node5"><a xlink:href="../../dd/d47/namespacemath.html#ae413098478fa38acaac887b7654f0725" target="_top" xlink:title="The volume of a cube">
<polygon fill="white" stroke="black" points="81.5,-76.5 81.5,-95.5 183.5,-95.5 183.5,-76.5 81.5,-76.5"/>
<text text-anchor="middle" x="132.5" y="-83.5" font-family="Helvetica,sans-Serif" font-size="10.00">math::cube_volume</text>
</a>
</g>
</g>
<!-- Node1&#45;&gt;Node5 -->
<g id="edge4" class="edge">
<title>Node1&#45;&gt;Node5</title>
<path fill="none" stroke="midnightblue" d="M28.23,-133.37C38.18,-124.87 53.71,-112.68 69,-105 73.51,-102.74 78.34,-100.68 83.24,-98.84"/>
<polygon fill="midnightblue" stroke="midnightblue" points="84.4,-102.14 92.69,-95.55 82.09,-95.53 84.4,-102.14"/>
</g>
<!-- Node6 -->
<g id="node6" class="node">
<title>Node6</title>
<g id="a_node6"><a xlink:href="../../dd/d47/namespacemath.html#abde24398be43538c62e4a496968e60ca" target="_top" xlink:title="The volume of a cylinder">
<polygon fill="white" stroke="black" points="75,-114.5 75,-133.5 190,-133.5 190,-114.5 75,-114.5"/>
<text text-anchor="middle" x="132.5" y="-121.5" font-family="Helvetica,sans-Serif" font-size="10.00">math::cylinder_volume</text>
</a>
</g>
</g>
<!-- Node1&#45;&gt;Node6 -->
<g id="edge6" class="edge">
<title>Node1&#45;&gt;Node6</title>
<path fill="none" stroke="midnightblue" d="M33.35,-140.36C41.91,-138.93 53.11,-137.06 64.88,-135.1"/>
<polygon fill="midnightblue" stroke="midnightblue" points="65.56,-138.54 74.85,-133.44 64.41,-131.63 65.56,-138.54"/>
</g>
<!-- Node7 -->
<g id="node7" class="node">
<title>Node7</title>
<g id="a_node7"><a target="_blank" xlink:href="http://en.cppreference.com/w/cpp/io/manip/endl.html#" xlink:title=" ">
<polygon fill="white" stroke="black" points="105.5,-0.5 105.5,-19.5 159.5,-19.5 159.5,-0.5 105.5,-0.5"/>
<text text-anchor="middle" x="132.5" y="-7.5" font-family="Helvetica,sans-Serif" font-size="10.00">std::endl</text>
</a>
</g>
</g>
<!-- Node1&#45;&gt;Node7 -->
<g id="edge9" class="edge">
<title>Node1&#45;&gt;Node7</title>
<path fill="none" stroke="midnightblue" d="M19.07,-133.46C23.16,-111.66 36.21,-57.81 69,-29 76.46,-22.44 86.13,-18.15 95.63,-15.34"/>
<polygon fill="midnightblue" stroke="midnightblue" points="96.5,-18.73 105.36,-12.91 94.81,-11.94 96.5,-18.73"/>
</g>
<!-- Node8 -->
<g id="node8" class="node">
<title>Node8</title>
<g id="a_node8"><a xlink:href="../../dd/d47/namespacemath.html#a94db02b3c9e55a69ac1696f30e2f761c" target="_top" xlink:title="The volume of a pyramid">
<polygon fill="white" stroke="black" points="74.5,-278.5 74.5,-297.5 190.5,-297.5 190.5,-278.5 74.5,-278.5"/>
<text text-anchor="middle" x="132.5" y="-285.5" font-family="Helvetica,sans-Serif" font-size="10.00">math::pyramid_volume</text>
</a>
</g>
</g>
<!-- Node1&#45;&gt;Node8 -->
<g id="edge10" class="edge">
<title>Node1&#45;&gt;Node8</title>
<path fill="none" stroke="midnightblue" d="M18.65,-152.81C21.93,-176.39 33.54,-236.69 69,-269 70.74,-270.58 72.6,-272.03 74.56,-273.36"/>
<polygon fill="midnightblue" stroke="midnightblue" points="73.24,-276.63 83.68,-278.46 76.65,-270.52 73.24,-276.63"/>
</g>
<!-- Node9 -->
<g id="node9" class="node">
<title>Node9</title>
<g id="a_node9"><a xlink:href="../../dd/d47/namespacemath.html#a3fdc74c24697ec5bb5c3698c96117c12" target="_top" xlink:title="The volume of a rectangular prism.">
<polygon fill="white" stroke="black" points="69,-240.5 69,-259.5 196,-259.5 196,-240.5 69,-240.5"/>
<text text-anchor="middle" x="132.5" y="-247.5" font-family="Helvetica,sans-Serif" font-size="10.00">math::rect_prism_volume</text>
</a>
</g>
</g>
<!-- Node1&#45;&gt;Node9 -->
<g id="edge12" class="edge">
<title>Node1&#45;&gt;Node9</title>
<path fill="none" stroke="midnightblue" d="M20.45,-152.52C26.53,-170.56 42.18,-209.83 69,-231 71.3,-232.81 73.76,-234.45 76.34,-235.93"/>
<polygon fill="midnightblue" stroke="midnightblue" points="74.95,-239.15 85.47,-240.4 78.03,-232.86 74.95,-239.15"/>
</g>
<!-- Node10 -->
<g id="node10" class="node">
<title>Node10</title>
<g id="a_node10"><a xlink:href="../../dd/d47/namespacemath.html#a34d66a77c19ce9b8b3a3d14352b34551" target="_top" xlink:title="The volume of a sphere">
<polygon fill="white" stroke="black" points="77.5,-38.5 77.5,-57.5 187.5,-57.5 187.5,-38.5 77.5,-38.5"/>
<text text-anchor="middle" x="132.5" y="-45.5" font-family="Helvetica,sans-Serif" font-size="10.00">math::sphere_volume</text>
</a>
</g>
</g>
<!-- Node1&#45;&gt;Node10 -->
<g id="edge14" class="edge">
<title>Node1&#45;&gt;Node10</title>
<path fill="none" stroke="midnightblue" d="M21.48,-133.27C28.59,-117.09 45.01,-84.68 69,-67 71.65,-65.05 74.5,-63.3 77.47,-61.72"/>
<polygon fill="midnightblue" stroke="midnightblue" points="79.03,-64.85 86.67,-57.51 76.12,-58.49 79.03,-64.85"/>
</g>
<!-- Node11 -->
<g id="node11" class="node">
<title>Node11</title>
<g id="a_node11"><a xlink:href="../../dd/d47/namespacemath.html#a2d704a7b72a6b2db8b76c8581b577b2c" target="_top" xlink:title="The volume of a triangular prism.">
<polygon fill="white" stroke="black" points="80,-191 80,-221 185,-221 185,-191 80,-191"/>
<text text-anchor="start" x="88" y="-209" font-family="Helvetica,sans-Serif" font-size="10.00">math::triangle_prism</text>
<text text-anchor="middle" x="132.5" y="-198" font-family="Helvetica,sans-Serif" font-size="10.00">_volume</text>
</a>
</g>
</g>
<!-- Node1&#45;&gt;Node11 -->
<g id="edge16" class="edge">
<title>Node1&#45;&gt;Node11</title>
<path fill="none" stroke="midnightblue" d="M28.79,-152.65C38.86,-160.93 54.24,-172.78 69,-181 72.62,-183.01 76.43,-184.95 80.32,-186.79"/>
<polygon fill="midnightblue" stroke="midnightblue" points="78.9,-189.99 89.46,-190.9 81.78,-183.61 78.9,-189.99"/>
</g>
<!-- Node3 -->
<g id="node3" class="node">
<title>Node3</title>
<g id="a_node3"><a xlink:href="../../d8/dee/avltree_8cpp.html#ae4a66d8b0c2b0d626aea45977e358c83" target="_top" xlink:title=" ">
<polygon fill="white" stroke="black" points="237.5,-196.5 237.5,-215.5 280.5,-215.5 280.5,-196.5 237.5,-196.5"/>
<text text-anchor="middle" x="259" y="-203.5" font-family="Helvetica,sans-Serif" font-size="10.00">height</text>
</a>
</g>
</g>
<!-- Node2&#45;&gt;Node3 -->
<g id="edge2" class="edge">
<title>Node2&#45;&gt;Node3</title>
<path fill="none" stroke="midnightblue" d="M166.76,-171.52C176.26,-174.4 186.59,-177.68 196,-181 206.42,-184.68 217.68,-189.08 227.69,-193.16"/>
<polygon fill="midnightblue" stroke="midnightblue" points="226.65,-196.51 237.23,-197.09 229.31,-190.04 226.65,-196.51"/>
</g>
<!-- Node4 -->
<g id="node4" class="node">
<title>Node4</title>
<g id="a_node4"><a target="_blank" xlink:href="http://en.cppreference.com/w/cpp/numeric/math/pow.html#" xlink:title=" ">
<polygon fill="white" stroke="black" points="232,-95.5 232,-114.5 286,-114.5 286,-95.5 232,-95.5"/>
<text text-anchor="middle" x="259" y="-102.5" font-family="Helvetica,sans-Serif" font-size="10.00">std::pow</text>
</a>
</g>
</g>
<!-- Node2&#45;&gt;Node4 -->
<g id="edge3" class="edge">
<title>Node2&#45;&gt;Node4</title>
<path fill="none" stroke="midnightblue" d="M170.43,-152.48C178.98,-149.81 187.93,-146.63 196,-143 209.81,-136.79 224.29,-128.06 235.78,-120.53"/>
<polygon fill="midnightblue" stroke="midnightblue" points="237.93,-123.3 244.28,-114.82 234.03,-117.49 237.93,-123.3"/>
</g>
<!-- Node5&#45;&gt;Node4 -->
<g id="edge5" class="edge">
<title>Node5&#45;&gt;Node4</title>
<path fill="none" stroke="midnightblue" d="M183.78,-93.67C196.52,-95.62 209.95,-97.67 221.83,-99.48"/>
<polygon fill="midnightblue" stroke="midnightblue" points="221.4,-102.96 231.82,-101 222.46,-96.04 221.4,-102.96"/>
</g>
<!-- Node6&#45;&gt;Node3 -->
<g id="edge7" class="edge">
<title>Node6&#45;&gt;Node3</title>
<path fill="none" stroke="midnightblue" d="M175.43,-133.57C182.56,-136.08 189.69,-139.18 196,-143 215.57,-154.84 233.37,-174.26 244.83,-188.41"/>
<polygon fill="midnightblue" stroke="midnightblue" points="242.18,-190.7 251.1,-196.42 247.69,-186.39 242.18,-190.7"/>
</g>
<!-- Node6&#45;&gt;Node4 -->
<g id="edge8" class="edge">
<title>Node6&#45;&gt;Node4</title>
<path fill="none" stroke="midnightblue" d="M190.29,-115.33C200.93,-113.71 211.79,-112.05 221.6,-110.55"/>
<polygon fill="midnightblue" stroke="midnightblue" points="222.43,-113.97 231.79,-109 221.37,-107.05 222.43,-113.97"/>
</g>
<!-- Node8&#45;&gt;Node3 -->
<g id="edge11" class="edge">
<title>Node8&#45;&gt;Node3</title>
<path fill="none" stroke="midnightblue" d="M175.43,-278.43C182.56,-275.92 189.69,-272.82 196,-269 215.57,-257.16 233.37,-237.74 244.83,-223.59"/>
<polygon fill="midnightblue" stroke="midnightblue" points="247.69,-225.61 251.1,-215.58 242.18,-221.3 247.69,-225.61"/>
</g>
<!-- Node9&#45;&gt;Node3 -->
<g id="edge13" class="edge">
<title>Node9&#45;&gt;Node3</title>
<path fill="none" stroke="midnightblue" d="M166.76,-240.48C176.26,-237.6 186.59,-234.32 196,-231 206.42,-227.32 217.68,-222.92 227.69,-218.84"/>
<polygon fill="midnightblue" stroke="midnightblue" points="229.31,-221.96 237.23,-214.91 226.65,-215.49 229.31,-221.96"/>
</g>
<!-- Node10&#45;&gt;Node4 -->
<g id="edge15" class="edge">
<title>Node10&#45;&gt;Node4</title>
<path fill="none" stroke="midnightblue" d="M170.43,-57.52C178.98,-60.19 187.93,-63.37 196,-67 209.81,-73.21 224.29,-81.94 235.78,-89.47"/>
<polygon fill="midnightblue" stroke="midnightblue" points="234.03,-92.51 244.28,-95.18 237.93,-86.7 234.03,-92.51"/>
</g>
<!-- Node11&#45;&gt;Node3 -->
<g id="edge17" class="edge">
<title>Node11&#45;&gt;Node3</title>
<path fill="none" stroke="midnightblue" d="M185.22,-206C199.52,-206 214.58,-206 227.27,-206"/>
<polygon fill="midnightblue" stroke="midnightblue" points="227.31,-209.5 237.31,-206 227.31,-202.5 227.31,-209.5"/>
</g>
</g>
</svg>
