<?xml version="1.0" encoding="UTF-8" standalone="no"?>
<!DOCTYPE svg PUBLIC "-//W3C//DTD SVG 1.1//EN"
 "http://www.w3.org/Graphics/SVG/1.1/DTD/svg11.dtd">
<!-- Generated by graphviz version 9.0.0 (20230911.1827)
 -->
<!-- Title: main Pages: 1 -->
<svg width="456pt" height="298pt"
 viewBox="0.00 0.00 455.50 298.25" xmlns="http://www.w3.org/2000/svg" xmlns:xlink="http://www.w3.org/1999/xlink">

<svg id="main" version="1.1" xmlns="http://www.w3.org/2000/svg" xmlns:xlink="http://www.w3.org/1999/xlink" xml:space="preserve" onload="init(evt)">
<style type="text/css"><![CDATA[
.node, .edge {opacity: 0.7;}
.node.selected, .edge.selected {opacity: 1;}
.edge:hover path { stroke: red; }
.edge:hover polygon { stroke: red; fill: red; }
]]></style>
<script type="application/ecmascript" xlink:href="../../svg.min.js"/>
<svg id="graph" class="graph">
<g id="graph0" class="graph" transform="scale(1 1) rotate(0) translate(4 294.25)">
<title>main</title>
<!-- Node1 -->
<g id="Node000001" class="node">
<title>Node1</title>
<g id="a_Node000001"><a xlink:title="Main function.">
<polygon fill="#999999" stroke="#666666" points="37,-148.25 0,-148.25 0,-129 37,-129 37,-148.25"/>
<text text-anchor="middle" x="18.5" y="-134.75" font-family="Helvetica,sans-Serif" font-size="10.00">main</text>
</a>
</g>
</g>
<!-- Node2 -->
<g id="Node000002" class="node">
<title>Node2</title>
<g id="a_Node000002"><a xlink:href="../../da/d39/volume_8cpp.html#aa8dca7b867074164d5f45b0f3851269d" target="_top" xlink:title="Self&#45;test implementations.">
<polygon fill="white" stroke="#666666" points="105.5,-148.25 73,-148.25 73,-129 105.5,-129 105.5,-148.25"/>
<text text-anchor="middle" x="89.25" y="-134.75" font-family="Helvetica,sans-Serif" font-size="10.00">test</text>
</a>
</g>
</g>
<!-- Node1&#45;&gt;Node2 -->
<g id="edge1_Node000001_Node000002" class="edge">
<title>Node1&#45;&gt;Node2</title>
<g id="a_edge1_Node000001_Node000002"><a xlink:title=" ">
<path fill="none" stroke="#63b8ff" d="M37.2,-138.62C44.58,-138.62 53.31,-138.62 61.45,-138.62"/>
<polygon fill="#63b8ff" stroke="#63b8ff" points="61.2,-142.13 71.2,-138.63 61.2,-135.13 61.2,-142.13"/>
</a>
</g>
</g>
<!-- Node3 -->
<g id="Node000003" class="node">
<title>Node3</title>
<g id="a_Node000003"><a xlink:href="../../dd/d47/namespacemath.html#a3fe35440c27758ecc2287e08217d63a7" target="_top" xlink:title="The volume of a cone">
<polygon fill="white" stroke="#666666" points="255.38,-167.25 153.88,-167.25 153.88,-148 255.38,-148 255.38,-167.25"/>
<text text-anchor="middle" x="204.62" y="-153.75" font-family="Helvetica,sans-Serif" font-size="10.00">math::cone_volume</text>
</a>
</g>
</g>
<!-- Node2&#45;&gt;Node3 -->
<g id="edge2_Node000002_Node000003" class="edge">
<title>Node2&#45;&gt;Node3</title>
<g id="a_edge2_Node000002_Node000003"><a xlink:title=" ">
<path fill="none" stroke="#63b8ff" d="M105.54,-141.19C115.32,-142.83 128.71,-145.07 142.45,-147.37"/>
<polygon fill="#63b8ff" stroke="#63b8ff" points="141.55,-150.77 151.99,-148.97 142.71,-143.87 141.55,-150.77"/>
</a>
</g>
</g>
<!-- Node7 -->
<g id="Node000007" class="node">
<title>Node7</title>
<g id="a_Node000007"><a xlink:href="../../dd/d47/namespacemath.html#ae413098478fa38acaac887b7654f0725" target="_top" xlink:title="The volume of a cube">
<polygon fill="white" stroke="#666666" points="255.38,-93.25 153.88,-93.25 153.88,-74 255.38,-74 255.38,-93.25"/>
<text text-anchor="middle" x="204.62" y="-79.75" font-family="Helvetica,sans-Serif" font-size="10.00">math::cube_volume</text>
</a>
</g>
</g>
<!-- Node2&#45;&gt;Node7 -->
<g id="edge7_Node000002_Node000007" class="edge">
<title>Node2&#45;&gt;Node7</title>
<g id="a_edge7_Node000002_Node000007"><a xlink:title=" ">
<path fill="none" stroke="#63b8ff" d="M101.72,-128.56C111.65,-120.3 126.7,-108.84 141.5,-101.62 144.43,-100.19 147.5,-98.86 150.64,-97.61"/>
<polygon fill="#63b8ff" stroke="#63b8ff" points="151.8,-100.91 160.02,-94.23 149.43,-94.32 151.8,-100.91"/>
</a>
</g>
</g>
<!-- Node8 -->
<g id="Node000008" class="node">
<title>Node8</title>
<g id="a_Node000008"><a xlink:href="../../dd/d47/namespacemath.html#abde24398be43538c62e4a496968e60ca" target="_top" xlink:title="The volume of a cylinder">
<polygon fill="white" stroke="#666666" points="261.75,-130.25 147.5,-130.25 147.5,-111 261.75,-111 261.75,-130.25"/>
<text text-anchor="middle" x="204.62" y="-116.75" font-family="Helvetica,sans-Serif" font-size="10.00">math::cylinder_volume</text>
</a>
</g>
</g>
<!-- Node2&#45;&gt;Node8 -->
<g id="edge9_Node000002_Node000008" class="edge">
<title>Node2&#45;&gt;Node8</title>
<g id="a_edge9_Node000002_Node000008"><a xlink:title=" ">
<path fill="none" stroke="#63b8ff" d="M105.54,-136.2C113.78,-134.89 124.6,-133.17 136.03,-131.36"/>
<polygon fill="#63b8ff" stroke="#63b8ff" points="136.29,-134.86 145.61,-129.84 135.19,-127.95 136.29,-134.86"/>
</a>
</g>
</g>
<!-- Node9 -->
<g id="Node000009" class="node">
<title>Node9</title>
<g id="a_Node000009"><a target="_blank" xlink:href="http://en.cppreference.com/w/cpp/io/manip/endl.html#" xlink:title=" ">
<polygon fill="white" stroke="#666666" points="231.38,-19.25 177.88,-19.25 177.88,0 231.38,0 231.38,-19.25"/>
<text text-anchor="middle" x="204.62" y="-5.75" font-family="Helvetica,sans-Serif" font-size="10.00">std::endl</text>
</a>
</g>
</g>
<!-- Node2&#45;&gt;Node9 -->
<g id="edge12_Node000002_Node000009" class="edge">
<title>Node2&#45;&gt;Node9</title>
<g id="a_edge12_Node000002_Node000009"><a xlink:title=" ">
<path fill="none" stroke="#63b8ff" d="M91.98,-128.66C96.27,-106.96 109.47,-55.16 141.5,-27.62 148.5,-21.6 157.42,-17.59 166.3,-14.92"/>
<polygon fill="#63b8ff" stroke="#63b8ff" points="167.03,-18.35 175.91,-12.57 165.36,-11.55 167.03,-18.35"/>
</a>
</g>
</g>
<!-- Node10 -->
<g id="Node000010" class="node">
<title>Node10</title>
<g id="a_Node000010"><a xlink:href="../../dd/d47/namespacemath.html#a94db02b3c9e55a69ac1696f30e2f761c" target="_top" xlink:title="The volume of a pyramid">
<polygon fill="white" stroke="#666666" points="262.12,-290.25 147.12,-290.25 147.12,-271 262.12,-271 262.12,-290.25"/>
<text text-anchor="middle" x="204.62" y="-276.75" font-family="Helvetica,sans-Serif" font-size="10.00">math::pyramid_volume</text>
</a>
</g>
</g>
<!-- Node2&#45;&gt;Node10 -->
<g id="edge13_Node000002_Node000010" class="edge">
<title>Node2&#45;&gt;Node10</title>
<g id="a_edge13_Node000002_Node000010"><a xlink:title=" ">
<path fill="none" stroke="#63b8ff" d="M91.45,-148.66C94.8,-172.18 106.45,-231.23 141.5,-262.62 142.27,-263.31 143.06,-263.98 143.88,-264.61"/>
<polygon fill="#63b8ff" stroke="#63b8ff" points="141.71,-267.39 152.05,-269.71 145.42,-261.45 141.71,-267.39"/>
</a>
</g>
</g>
<!-- Node11 -->
<g id="Node000011" class="node">
<title>Node11</title>
<g id="a_Node000011"><a xlink:href="../../dd/d47/namespacemath.html#a3fdc74c24697ec5bb5c3698c96117c12" target="_top" xlink:title="The volume of a rectangular prism.">
<polygon fill="white" stroke="#666666" points="267.75,-253.25 141.5,-253.25 141.5,-234 267.75,-234 267.75,-253.25"/>
<text text-anchor="middle" x="204.62" y="-239.75" font-family="Helvetica,sans-Serif" font-size="10.00">math::rect_prism_volume</text>
</a>
</g>
</g>
<!-- Node2&#45;&gt;Node11 -->
<g id="edge15_Node000002_Node000011" class="edge">
<title>Node2&#45;&gt;Node11</title>
<g id="a_edge15_Node000002_Node000011"><a xlink:title=" ">
<path fill="none" stroke="#63b8ff" d="M93.43,-148.48C99.71,-166.35 115.38,-204.14 141.5,-224.62 143.23,-225.98 145.06,-227.24 146.96,-228.41"/>
<polygon fill="#63b8ff" stroke="#63b8ff" points="145.1,-231.4 155.59,-232.86 148.31,-225.17 145.1,-231.4"/>
</a>
</g>
</g>
<!-- Node12 -->
<g id="Node000012" class="node">
<title>Node12</title>
<g id="a_Node000012"><a xlink:href="../../dd/d47/namespacemath.html#a34d66a77c19ce9b8b3a3d14352b34551" target="_top" xlink:title="The volume of a sphere">
<polygon fill="white" stroke="#666666" points="259.5,-56.25 149.75,-56.25 149.75,-37 259.5,-37 259.5,-56.25"/>
<text text-anchor="middle" x="204.62" y="-42.75" font-family="Helvetica,sans-Serif" font-size="10.00">math::sphere_volume</text>
</a>
</g>
</g>
<!-- Node2&#45;&gt;Node12 -->
<g id="edge17_Node000002_Node000012" class="edge">
<title>Node2&#45;&gt;Node12</title>
<g id="a_edge17_Node000002_Node000012"><a xlink:title=" ">
<path fill="none" stroke="#63b8ff" d="M94.47,-128.6C101.72,-112.63 118.03,-81.51 141.5,-64.62 142.87,-63.64 144.29,-62.71 145.75,-61.83"/>
<polygon fill="#63b8ff" stroke="#63b8ff" points="147.18,-65.03 154.55,-57.41 144.04,-58.77 147.18,-65.03"/>
</a>
</g>
</g>
<!-- Node13 -->
<g id="Node000013" class="node">
<title>Node13</title>
<g id="a_Node000013"><a xlink:href="../../dd/d47/namespacemath.html#a2d704a7b72a6b2db8b76c8581b577b2c" target="_top" xlink:title="The volume of a triangular prism.">
<polygon fill="white" stroke="#666666" points="256.88,-215.88 152.38,-215.88 152.38,-185.38 256.88,-185.38 256.88,-215.88"/>
<text text-anchor="start" x="160.38" y="-202.38" font-family="Helvetica,sans-Serif" font-size="10.00">math::triangle_prism</text>
<text text-anchor="middle" x="204.62" y="-191.12" font-family="Helvetica,sans-Serif" font-size="10.00">_volume</text>
</a>
</g>
</g>
<!-- Node2&#45;&gt;Node13 -->
<g id="edge19_Node000002_Node000013" class="edge">
<title>Node2&#45;&gt;Node13</title>
<g id="a_edge19_Node000002_Node000013"><a xlink:title=" ">
<path fill="none" stroke="#63b8ff" d="M101.85,-148.65C111.85,-156.94 126.95,-168.61 141.5,-176.62 143.81,-177.9 146.2,-179.13 148.63,-180.32"/>
<polygon fill="#63b8ff" stroke="#63b8ff" points="146.92,-183.39 157.47,-184.37 149.83,-177.02 146.92,-183.39"/>
</a>
</g>
</g>
<!-- Node4 -->
<g id="Node000004" class="node">
<title>Node4</title>
<g id="a_Node000004"><a xlink:href="../../d8/dee/avltree_8cpp.html#ae4a66d8b0c2b0d626aea45977e358c83" target="_top" xlink:title=" ">
<polygon fill="white" stroke="#666666" points="351.62,-210.25 309.38,-210.25 309.38,-191 351.62,-191 351.62,-210.25"/>
<text text-anchor="middle" x="330.5" y="-196.75" font-family="Helvetica,sans-Serif" font-size="10.00">height</text>
</a>
</g>
</g>
<!-- Node3&#45;&gt;Node4 -->
<g id="edge3_Node000003_Node000004" class="edge">
<title>Node3&#45;&gt;Node4</title>
<g id="a_edge3_Node000003_Node000004"><a xlink:title=" ">
<path fill="none" stroke="#63b8ff" d="M240.28,-167.73C249.27,-170.48 258.91,-173.56 267.75,-176.62 277.86,-180.13 288.77,-184.25 298.57,-188.09"/>
<polygon fill="#63b8ff" stroke="#63b8ff" points="297.06,-191.26 307.65,-191.68 299.64,-184.75 297.06,-191.26"/>
</a>
</g>
</g>
<!-- Node6 -->
<g id="Node000006" class="node">
<title>Node6</title>
<g id="a_Node000006"><a target="_blank" xlink:href="http://en.cppreference.com/w/cpp/numeric/math/pow.html#" xlink:title=" ">
<polygon fill="white" stroke="#666666" points="357.25,-112.25 303.75,-112.25 303.75,-93 357.25,-93 357.25,-112.25"/>
<text text-anchor="middle" x="330.5" y="-98.75" font-family="Helvetica,sans-Serif" font-size="10.00">std::pow</text>
</a>
</g>
</g>
<!-- Node3&#45;&gt;Node6 -->
<g id="edge6_Node000003_Node000006" class="edge">
<title>Node3&#45;&gt;Node6</title>
<g id="a_edge6_Node000003_Node000006"><a xlink:title=" ">
<path fill="none" stroke="#63b8ff" d="M245.93,-147.59C253.31,-145.3 260.85,-142.63 267.75,-139.62 280.91,-133.89 294.69,-125.86 305.88,-118.74"/>
<polygon fill="#63b8ff" stroke="#63b8ff" points="307.62,-121.78 314.08,-113.38 303.79,-115.92 307.62,-121.78"/>
</a>
</g>
</g>
<!-- Node4&#45;&gt;Node4 -->
<g id="edge4_Node000004_Node000004" class="edge">
<title>Node4&#45;&gt;Node4</title>
<g id="a_edge4_Node000004_Node000004"><a xlink:title=" ">
<path fill="none" stroke="#63b8ff" d="M316.43,-210.54C310.01,-219.15 314.7,-228.25 330.5,-228.25 339.14,-228.25 344.46,-225.53 346.45,-221.65"/>
<polygon fill="#63b8ff" stroke="#63b8ff" points="349.94,-221.31 344.82,-212.03 343.04,-222.47 349.94,-221.31"/>
</a>
</g>
</g>
<!-- Node5 -->
<g id="Node000005" class="node">
<title>Node5</title>
<g id="a_Node000005"><a target="_blank" xlink:href="http://en.cppreference.com/w/cpp/algorithm/max.html#" xlink:title=" ">
<polygon fill="white" stroke="#666666" points="447.5,-210.25 393.25,-210.25 393.25,-191 447.5,-191 447.5,-210.25"/>
<text text-anchor="middle" x="420.38" y="-196.75" font-family="Helvetica,sans-Serif" font-size="10.00">std::max</text>
</a>
</g>
</g>
<!-- Node4&#45;&gt;Node5 -->
<g id="edge5_Node000004_Node000005" class="edge">
<title>Node4&#45;&gt;Node5</title>
<g id="a_edge5_Node000004_Node000005"><a xlink:title=" ">
<path fill="none" stroke="#63b8ff" d="M351.88,-200.62C360.72,-200.62 371.37,-200.62 381.57,-200.62"/>
<polygon fill="#63b8ff" stroke="#63b8ff" points="381.26,-204.13 391.26,-200.63 381.26,-197.13 381.26,-204.13"/>
</a>
</g>
</g>
<!-- Node7&#45;&gt;Node6 -->
<g id="edge8_Node000007_Node000006" class="edge">
<title>Node7&#45;&gt;Node6</title>
<g id="a_edge8_Node000007_Node000006"><a xlink:title=" ">
<path fill="none" stroke="#63b8ff" d="M255.65,-91.3C267.81,-93.16 280.61,-95.13 292.07,-96.88"/>
<polygon fill="#63b8ff" stroke="#63b8ff" points="291.54,-100.34 301.95,-98.4 292.6,-93.42 291.54,-100.34"/>
</a>
</g>
</g>
<!-- Node8&#45;&gt;Node4 -->
<g id="edge10_Node000008_Node000004" class="edge">
<title>Node8&#45;&gt;Node4</title>
<g id="a_edge10_Node000008_Node000004"><a xlink:title=" ">
<path fill="none" stroke="#63b8ff" d="M250.55,-130.67C256.54,-132.85 262.44,-135.48 267.75,-138.62 286.65,-149.82 303.91,-168.16 315.34,-181.99"/>
<polygon fill="#63b8ff" stroke="#63b8ff" points="312.37,-183.87 321.33,-189.52 317.85,-179.51 312.37,-183.87"/>
</a>
</g>
</g>
<!-- Node8&#45;&gt;Node6 -->
<g id="edge11_Node000008_Node000006" class="edge">
<title>Node8&#45;&gt;Node6</title>
<g id="a_edge11_Node000008_Node000006"><a xlink:title=" ">
<path fill="none" stroke="#63b8ff" d="M262.13,-112.42C272.26,-110.94 282.6,-109.44 292.03,-108.07"/>
<polygon fill="#63b8ff" stroke="#63b8ff" points="292.53,-111.53 301.92,-106.63 291.52,-104.61 292.53,-111.53"/>
</a>
</g>
</g>
<!-- Node10&#45;&gt;Node4 -->
<g id="edge14_Node000010_Node000004" class="edge">
<title>Node10&#45;&gt;Node4</title>
<g id="a_edge14_Node000010_Node000004"><a xlink:title=" ">
<path fill="none" stroke="#63b8ff" d="M250.55,-270.58C256.54,-268.4 262.44,-265.77 267.75,-262.62 286.65,-251.43 303.91,-233.09 315.34,-219.26"/>
<polygon fill="#63b8ff" stroke="#63b8ff" points="317.85,-221.74 321.33,-211.73 312.37,-217.38 317.85,-221.74"/>
</a>
</g>
</g>
<!-- Node11&#45;&gt;Node4 -->
<g id="edge16_Node000011_Node000004" class="edge">
<title>Node11&#45;&gt;Node4</title>
<g id="a_edge16_Node000011_Node000004"><a xlink:title=" ">
<path fill="none" stroke="#63b8ff" d="M240.28,-233.52C249.27,-230.77 258.91,-227.69 267.75,-224.62 277.86,-221.12 288.77,-217 298.57,-213.16"/>
<polygon fill="#63b8ff" stroke="#63b8ff" points="299.64,-216.5 307.65,-209.57 297.06,-209.99 299.64,-216.5"/>
</a>
</g>
</g>
<!-- Node12&#45;&gt;Node6 -->
<g id="edge18_Node000012_Node000006" class="edge">
<title>Node12&#45;&gt;Node6</title>
<g id="a_edge18_Node000012_Node000006"><a xlink:title=" ">
<path fill="none" stroke="#63b8ff" d="M246.29,-56.69C253.56,-58.97 260.97,-61.62 267.75,-64.62 281.14,-70.56 295.12,-78.95 306.38,-86.34"/>
<polygon fill="#63b8ff" stroke="#63b8ff" points="304.37,-89.2 314.61,-91.89 308.29,-83.4 304.37,-89.2"/>
</a>
</g>
</g>
<!-- Node13&#45;&gt;Node4 -->
<g id="edge20_Node000013_Node000004" class="edge">
<title>Node13&#45;&gt;Node4</title>
<g id="a_edge20_Node000013_Node000004"><a xlink:title=" ">
<path fill="none" stroke="#63b8ff" d="M257.08,-200.62C270.74,-200.62 285.1,-200.62 297.4,-200.62"/>
<polygon fill="#63b8ff" stroke="#63b8ff" points="297.4,-204.13 307.4,-200.63 297.4,-197.13 297.4,-204.13"/>
</a>
</g>
</g>
</g>
</svg>
</svg>

<style type='text/css'>
<![CDATA[
[data-mouse-over-selected='false'] { opacity: 0.7; }
[data-mouse-over-selected='true']  { opacity: 1.0; }
]]>
</style>
<script type="application/ecmascript"><![CDATA[
document.addEventListener('DOMContentLoaded', (event) => {
  highlightEdges();
  highlightAdjacentNodes();
});
]]></script>
</svg>
