<?xml version="1.0" encoding="UTF-8" standalone="no"?>
<!DOCTYPE svg PUBLIC "-//W3C//DTD SVG 1.1//EN"
 "http://www.w3.org/Graphics/SVG/1.1/DTD/svg11.dtd">
<!-- Generated by graphviz version 8.0.5 (20230430.1635)
 -->
<!-- Title: dynamic_programming::subset_sum::subset_sum_problem Pages: 1 -->
<svg width="395pt" height="101pt"
 viewBox="0.00 0.00 395.00 100.75" xmlns="http://www.w3.org/2000/svg" xmlns:xlink="http://www.w3.org/1999/xlink">
<g id="graph0" class="graph" transform="scale(1 1) rotate(0) translate(4 96.75)">
<title>dynamic_programming::subset_sum::subset_sum_problem</title>
<!-- Node1 -->
<g id="node1" class="node">
<title>Node1</title>
<g id="a_node1"><a xlink:title=" ">
<polygon fill="#999999" stroke="#666666" points="114.25,-74.75 0,-74.75 0,-33 114.25,-33 114.25,-74.75"/>
<text text-anchor="start" x="8" y="-61.25" font-family="Helvetica,sans-Serif" font-size="10.00">dynamic_programming</text>
<text text-anchor="start" x="8" y="-50" font-family="Helvetica,sans-Serif" font-size="10.00">::subset_sum::subset</text>
<text text-anchor="middle" x="57.12" y="-38.75" font-family="Helvetica,sans-Serif" font-size="10.00">_sum_problem</text>
</a>
</g>
</g>
<!-- Node1&#45;&gt;Node1 -->
<g id="edge2" class="edge">
<title>Node1&#45;&gt;Node1</title>
<path fill="none" stroke="#63b8ff" d="M29.39,-75.07C26.75,-84.55 36,-92.75 57.12,-92.75 69.67,-92.75 78.03,-89.86 82.19,-85.53"/>
<polygon fill="#63b8ff" stroke="#63b8ff" points="85.78,-86.62 84.86,-76.07 79,-84.89 85.78,-86.62"/>
</g>
<!-- Node2 -->
<g id="node2" class="node">
<title>Node2</title>
<g id="a_node2"><a target="_blank" xlink:href="http://en.cppreference.com/w/cpp/container/vector/size.html#" xlink:title=" ">
<polygon fill="white" stroke="#666666" points="387,-63.5 300.5,-63.5 300.5,-44.25 387,-44.25 387,-63.5"/>
<text text-anchor="middle" x="343.75" y="-50" font-family="Helvetica,sans-Serif" font-size="10.00">std::vector::size</text>
</a>
</g>
</g>
<!-- Node1&#45;&gt;Node2 -->
<g id="edge1" class="edge">
<title>Node1&#45;&gt;Node2</title>
<path fill="none" stroke="#63b8ff" d="M114.46,-64.53C126.25,-66.34 138.62,-67.93 150.25,-68.88 200.86,-72.97 213.95,-73.68 264.5,-68.88 272.64,-68.1 281.19,-66.89 289.53,-65.47"/>
<polygon fill="#63b8ff" stroke="#63b8ff" points="290.1,-68.75 299.32,-63.52 288.86,-61.86 290.1,-68.75"/>
</g>
<!-- Node3 -->
<g id="node3" class="node">
<title>Node3</title>
<g id="a_node3"><a xlink:href="../../d6/d80/dynamic__programming_2subset__sum_8cpp.html#a280fcfb2f6fe49a31c4da572e7032607" target="_top" xlink:title=" ">
<polygon fill="white" stroke="#666666" points="264.5,-41.75 150.25,-41.75 150.25,0 264.5,0 264.5,-41.75"/>
<text text-anchor="start" x="158.25" y="-28.25" font-family="Helvetica,sans-Serif" font-size="10.00">dynamic_programming</text>
<text text-anchor="start" x="158.25" y="-17" font-family="Helvetica,sans-Serif" font-size="10.00">::subset_sum::subset</text>
<text text-anchor="middle" x="207.38" y="-5.75" font-family="Helvetica,sans-Serif" font-size="10.00">_sum_recursion</text>
</a>
</g>
</g>
<!-- Node1&#45;&gt;Node3 -->
<g id="edge3" class="edge">
<title>Node1&#45;&gt;Node3</title>
<path fill="none" stroke="#63b8ff" d="M114.59,-41.3C122.76,-39.49 131.24,-37.6 139.59,-35.74"/>
<polygon fill="#63b8ff" stroke="#63b8ff" points="140.06,-39 149.06,-33.41 138.54,-32.17 140.06,-39"/>
</g>
<!-- Node3&#45;&gt;Node2 -->
<g id="edge4" class="edge">
<title>Node3&#45;&gt;Node2</title>
<path fill="none" stroke="#63b8ff" d="M264.97,-34.77C273.65,-36.9 282.56,-39.09 291.12,-41.2"/>
<polygon fill="#63b8ff" stroke="#63b8ff" points="290.18,-44.81 300.73,-43.8 291.85,-38.02 290.18,-44.81"/>
</g>
<!-- Node3&#45;&gt;Node3 -->
<g id="edge5" class="edge">
<title>Node3&#45;&gt;Node3</title>
<path fill="none" stroke="#63b8ff" d="M182.2,-42.07C179.81,-51.55 188.2,-59.75 207.38,-59.75 218.76,-59.75 226.35,-56.86 230.13,-52.53"/>
<polygon fill="#63b8ff" stroke="#63b8ff" points="233.7,-53.6 232.55,-43.07 226.88,-52.02 233.7,-53.6"/>
</g>
</g>
</svg>
