<?xml version="1.0" encoding="UTF-8" standalone="no"?>
<!DOCTYPE svg PUBLIC "-//W3C//DTD SVG 1.1//EN"
 "http://www.w3.org/Graphics/SVG/1.1/DTD/svg11.dtd">
<!-- Generated by graphviz version 8.0.2 (20230410.1723)
 -->
<!-- Title: dynamic_programming::subset_sum::subset_sum_problem Pages: 1 -->
<svg width="397pt" height="100pt"
 viewBox="0.00 0.00 397.00 100.00" xmlns="http://www.w3.org/2000/svg" xmlns:xlink="http://www.w3.org/1999/xlink">
<g id="graph0" class="graph" transform="scale(1 1) rotate(0) translate(4 96)">
<title>dynamic_programming::subset_sum::subset_sum_problem</title>
<!-- Node1 -->
<g id="node1" class="node">
<title>Node1</title>
<g id="a_node1"><a xlink:title=" ">
<polygon fill="#999999" stroke="#666666" points="115,-74 0,-74 0,-33 115,-33 115,-74"/>
<text text-anchor="start" x="8" y="-62" font-family="Helvetica,sans-Serif" font-size="10.00">dynamic_programming</text>
<text text-anchor="start" x="8" y="-51" font-family="Helvetica,sans-Serif" font-size="10.00">::subset_sum::subset</text>
<text text-anchor="middle" x="57.5" y="-40" font-family="Helvetica,sans-Serif" font-size="10.00">_sum_problem</text>
</a>
</g>
</g>
<!-- Node1&#45;&gt;Node1 -->
<g id="edge2" class="edge">
<title>Node1&#45;&gt;Node1</title>
<path fill="none" stroke="#63b8ff" d="M29.63,-74.49C26.98,-83.88 36.27,-92 57.5,-92 70.11,-92 78.5,-89.14 82.69,-84.85"/>
<polygon fill="#63b8ff" stroke="#63b8ff" points="86.25,-86.05 85.37,-75.49 79.48,-84.29 86.25,-86.05"/>
</g>
<!-- Node2 -->
<g id="node2" class="node">
<title>Node2</title>
<g id="a_node2"><a target="_blank" xlink:href="http://en.cppreference.com/w/cpp/container/vector/size.html#" xlink:title=" ">
<polygon fill="white" stroke="#666666" points="389,-63 302,-63 302,-44 389,-44 389,-63"/>
<text text-anchor="middle" x="345.5" y="-51" font-family="Helvetica,sans-Serif" font-size="10.00">std::vector::size</text>
</a>
</g>
</g>
<!-- Node1&#45;&gt;Node2 -->
<g id="edge1" class="edge">
<title>Node1&#45;&gt;Node2</title>
<path fill="none" stroke="#63b8ff" d="M115.07,-64.15C126.9,-65.96 139.32,-67.56 151,-68.5 201.95,-72.6 215.12,-73.32 266,-68.5 274.07,-67.74 282.54,-66.54 290.81,-65.15"/>
<polygon fill="#63b8ff" stroke="#63b8ff" points="291.3,-68.44 300.52,-63.23 290.06,-61.55 291.3,-68.44"/>
</g>
<!-- Node3 -->
<g id="node3" class="node">
<title>Node3</title>
<g id="a_node3"><a xlink:href="../../d6/d80/dynamic__programming_2subset__sum_8cpp.html#a280fcfb2f6fe49a31c4da572e7032607" target="_top" xlink:title=" ">
<polygon fill="white" stroke="#666666" points="266,-41 151,-41 151,0 266,0 266,-41"/>
<text text-anchor="start" x="159" y="-29" font-family="Helvetica,sans-Serif" font-size="10.00">dynamic_programming</text>
<text text-anchor="start" x="159" y="-18" font-family="Helvetica,sans-Serif" font-size="10.00">::subset_sum::subset</text>
<text text-anchor="middle" x="208.5" y="-7" font-family="Helvetica,sans-Serif" font-size="10.00">_sum_recursion</text>
</a>
</g>
</g>
<!-- Node1&#45;&gt;Node3 -->
<g id="edge3" class="edge">
<title>Node1&#45;&gt;Node3</title>
<path fill="none" stroke="#63b8ff" d="M115.26,-40.93C123.47,-39.11 131.98,-37.23 140.37,-35.37"/>
<polygon fill="#63b8ff" stroke="#63b8ff" points="140.9,-38.61 149.9,-33.04 139.38,-31.78 140.9,-38.61"/>
</g>
<!-- Node3&#45;&gt;Node2 -->
<g id="edge4" class="edge">
<title>Node3&#45;&gt;Node2</title>
<path fill="none" stroke="#63b8ff" d="M266.36,-34.4C275.27,-36.58 284.44,-38.82 293.22,-40.97"/>
<polygon fill="#63b8ff" stroke="#63b8ff" points="292.15,-44.55 302.69,-43.53 293.81,-37.75 292.15,-44.55"/>
</g>
<!-- Node3&#45;&gt;Node3 -->
<g id="edge5" class="edge">
<title>Node3&#45;&gt;Node3</title>
<path fill="none" stroke="#63b8ff" d="M183.21,-41.49C180.81,-50.88 189.23,-59 208.5,-59 219.94,-59 227.56,-56.14 231.36,-51.85"/>
<polygon fill="#63b8ff" stroke="#63b8ff" points="234.91,-53.02 233.79,-42.49 228.09,-51.42 234.91,-53.02"/>
</g>
</g>
</svg>
