<?xml version="1.0" encoding="UTF-8" standalone="no"?>
<!DOCTYPE svg PUBLIC "-//W3C//DTD SVG 1.1//EN"
 "http://www.w3.org/Graphics/SVG/1.1/DTD/svg11.dtd">
<!-- Generated by graphviz version 7.1.0 (20230121.1956)
 -->
<!-- Title: dynamic_programming::subset_sum::subset_sum_problem Pages: 1 -->
<svg width="397pt" height="100pt"
 viewBox="0.00 0.00 397.00 100.00" xmlns="http://www.w3.org/2000/svg" xmlns:xlink="http://www.w3.org/1999/xlink">
<g id="graph0" class="graph" transform="scale(1 1) rotate(0) translate(4 96)">
<title>dynamic_programming::subset_sum::subset_sum_problem</title>
<!-- Node1 -->
<g id="node1" class="node">
<title>Node1</title>
<g id="a_node1"><a xlink:title=" ">
<polygon fill="#999999" stroke="#666666" points="115,-74 0,-74 0,-33 115,-33 115,-74"/>
<text text-anchor="start" x="8" y="-62" font-family="Helvetica,sans-Serif" font-size="10.00">dynamic_programming</text>
<text text-anchor="start" x="8" y="-51" font-family="Helvetica,sans-Serif" font-size="10.00">::subset_sum::subset</text>
<text text-anchor="middle" x="57.5" y="-40" font-family="Helvetica,sans-Serif" font-size="10.00">_sum_problem</text>
</a>
</g>
</g>
<!-- Node1&#45;&gt;Node1 -->
<g id="edge2" class="edge">
<title>Node1&#45;&gt;Node1</title>
<path fill="none" stroke="#63b8ff" d="M29.63,-74.49C26.98,-83.88 36.27,-92 57.5,-92 69.78,-92 78.06,-89.29 82.35,-85.18"/>
<polygon fill="#63b8ff" stroke="#63b8ff" points="85.61,-86.52 84.96,-75.95 78.87,-84.62 85.61,-86.52"/>
</g>
<!-- Node2 -->
<g id="node2" class="node">
<title>Node2</title>
<g id="a_node2"><a target="_blank" xlink:href="http://en.cppreference.com/w/cpp/container/vector/size.html#" xlink:title=" ">
<polygon fill="white" stroke="#666666" points="389,-63 302,-63 302,-44 389,-44 389,-63"/>
<text text-anchor="middle" x="345.5" y="-51" font-family="Helvetica,sans-Serif" font-size="10.00">std::vector::size</text>
</a>
</g>
</g>
<!-- Node1&#45;&gt;Node2 -->
<g id="edge1" class="edge">
<title>Node1&#45;&gt;Node2</title>
<path fill="none" stroke="#63b8ff" d="M115.07,-64.15C126.9,-65.96 139.32,-67.56 151,-68.5 201.95,-72.6 215.12,-73.32 266,-68.5 273.89,-67.75 282.16,-66.59 290.26,-65.24"/>
<polygon fill="#63b8ff" stroke="#63b8ff" points="290.8,-68.7 300.03,-63.49 289.57,-61.81 290.8,-68.7"/>
</g>
<!-- Node3 -->
<g id="node3" class="node">
<title>Node3</title>
<g id="a_node3"><a xlink:href="../../d6/d80/dynamic__programming_2subset__sum_8cpp.html#a280fcfb2f6fe49a31c4da572e7032607" target="_top" xlink:title=" ">
<polygon fill="white" stroke="#666666" points="266,-41 151,-41 151,0 266,0 266,-41"/>
<text text-anchor="start" x="159" y="-29" font-family="Helvetica,sans-Serif" font-size="10.00">dynamic_programming</text>
<text text-anchor="start" x="159" y="-18" font-family="Helvetica,sans-Serif" font-size="10.00">::subset_sum::subset</text>
<text text-anchor="middle" x="208.5" y="-7" font-family="Helvetica,sans-Serif" font-size="10.00">_sum_recursion</text>
</a>
</g>
</g>
<!-- Node1&#45;&gt;Node3 -->
<g id="edge3" class="edge">
<title>Node1&#45;&gt;Node3</title>
<path fill="none" stroke="#63b8ff" d="M115.26,-40.93C123.28,-39.15 131.61,-37.31 139.81,-35.49"/>
<polygon fill="#63b8ff" stroke="#63b8ff" points="140.42,-38.94 149.42,-33.36 138.9,-32.11 140.42,-38.94"/>
</g>
<!-- Node3&#45;&gt;Node2 -->
<g id="edge4" class="edge">
<title>Node3&#45;&gt;Node2</title>
<path fill="none" stroke="#63b8ff" d="M266.36,-34.4C275.08,-36.53 284.04,-38.72 292.64,-40.82"/>
<polygon fill="#63b8ff" stroke="#63b8ff" points="291.68,-44.19 302.22,-43.17 293.34,-37.39 291.68,-44.19"/>
</g>
<!-- Node3&#45;&gt;Node3 -->
<g id="edge5" class="edge">
<title>Node3&#45;&gt;Node3</title>
<path fill="none" stroke="#63b8ff" d="M183.21,-41.49C180.81,-50.88 189.23,-59 208.5,-59 219.34,-59 226.74,-56.43 230.72,-52.51"/>
<polygon fill="#63b8ff" stroke="#63b8ff" points="234.08,-53.52 233.38,-42.95 227.33,-51.65 234.08,-53.52"/>
</g>
</g>
</svg>
