<?xml version="1.0" encoding="UTF-8" standalone="no"?>
<!DOCTYPE svg PUBLIC "-//W3C//DTD SVG 1.1//EN"
 "http://www.w3.org/Graphics/SVG/1.1/DTD/svg11.dtd">
<!-- Generated by graphviz version 8.0.2 (20230410.1723)
 -->
<!-- Title: dynamic_programming::subset_sum::subset_sum_recursion Pages: 1 -->
<svg width="246pt" height="67pt"
 viewBox="0.00 0.00 246.00 67.00" xmlns="http://www.w3.org/2000/svg" xmlns:xlink="http://www.w3.org/1999/xlink">
<g id="graph0" class="graph" transform="scale(1 1) rotate(0) translate(4 63)">
<title>dynamic_programming::subset_sum::subset_sum_recursion</title>
<!-- Node1 -->
<g id="node1" class="node">
<title>Node1</title>
<g id="a_node1"><a xlink:title=" ">
<polygon fill="#999999" stroke="#666666" points="115,-41 0,-41 0,0 115,0 115,-41"/>
<text text-anchor="start" x="8" y="-29" font-family="Helvetica,sans-Serif" font-size="10.00">dynamic_programming</text>
<text text-anchor="start" x="8" y="-18" font-family="Helvetica,sans-Serif" font-size="10.00">::subset_sum::subset</text>
<text text-anchor="middle" x="57.5" y="-7" font-family="Helvetica,sans-Serif" font-size="10.00">_sum_recursion</text>
</a>
</g>
</g>
<!-- Node1&#45;&gt;Node1 -->
<g id="edge2" class="edge">
<title>Node1&#45;&gt;Node1</title>
<path fill="none" stroke="#63b8ff" d="M32.21,-41.49C29.81,-50.88 38.23,-59 57.5,-59 68.94,-59 76.56,-56.14 80.36,-51.85"/>
<polygon fill="#63b8ff" stroke="#63b8ff" points="83.91,-53.02 82.79,-42.49 77.09,-51.42 83.91,-53.02"/>
</g>
<!-- Node2 -->
<g id="node2" class="node">
<title>Node2</title>
<g id="a_node2"><a target="_blank" xlink:href="http://en.cppreference.com/w/cpp/container/vector/size.html#" xlink:title=" ">
<polygon fill="white" stroke="#666666" points="238,-30 151,-30 151,-11 238,-11 238,-30"/>
<text text-anchor="middle" x="194.5" y="-18" font-family="Helvetica,sans-Serif" font-size="10.00">std::vector::size</text>
</a>
</g>
</g>
<!-- Node1&#45;&gt;Node2 -->
<g id="edge1" class="edge">
<title>Node1&#45;&gt;Node2</title>
<path fill="none" stroke="#63b8ff" d="M115.36,-20.5C123.49,-20.5 131.82,-20.5 139.88,-20.5"/>
<polygon fill="#63b8ff" stroke="#63b8ff" points="139.65,-24 149.65,-20.5 139.65,-17 139.65,-24"/>
</g>
</g>
</svg>
