<?xml version="1.0" encoding="UTF-8" standalone="no"?>
<!DOCTYPE svg PUBLIC "-//W3C//DTD SVG 1.1//EN"
 "http://www.w3.org/Graphics/SVG/1.1/DTD/svg11.dtd">
<!-- Generated by graphviz version 9.0.0 (20230911.1827)
 -->
<!-- Title: test Pages: 1 -->
<svg width="270pt" height="249pt"
 viewBox="0.00 0.00 269.75 249.25" xmlns="http://www.w3.org/2000/svg" xmlns:xlink="http://www.w3.org/1999/xlink">

<svg id="main" version="1.1" xmlns="http://www.w3.org/2000/svg" xmlns:xlink="http://www.w3.org/1999/xlink" xml:space="preserve" onload="init(evt)">
<style type="text/css"><![CDATA[
.node, .edge {opacity: 0.7;}
.node.selected, .edge.selected {opacity: 1;}
.edge:hover path { stroke: red; }
.edge:hover polygon { stroke: red; fill: red; }
]]></style>
<script type="application/ecmascript" xlink:href="../../svg.min.js"/>
<svg id="graph" class="graph">
<g id="graph0" class="graph" transform="scale(1 1) rotate(0) translate(4 245.25)">
<title>test</title>
<!-- Node1 -->
<g id="Node000001" class="node">
<title>Node1</title>
<g id="a_Node000001"><a xlink:title=" ">
<polygon fill="#999999" stroke="#666666" points="32.5,-130.25 0,-130.25 0,-111 32.5,-111 32.5,-130.25"/>
<text text-anchor="middle" x="16.25" y="-116.75" font-family="Helvetica,sans-Serif" font-size="10.00">test</text>
</a>
</g>
</g>
<!-- Node2 -->
<g id="Node000002" class="node">
<title>Node2</title>
<g id="a_Node000002"><a target="_blank" xlink:href="http://en.cppreference.com/w/cpp/iterator/begin.html#" xlink:title=" ">
<polygon fill="white" stroke="#666666" points="147.12,-241.25 88.38,-241.25 88.38,-222 147.12,-222 147.12,-241.25"/>
<text text-anchor="middle" x="117.75" y="-227.75" font-family="Helvetica,sans-Serif" font-size="10.00">std::begin</text>
</a>
</g>
</g>
<!-- Node1&#45;&gt;Node2 -->
<g id="edge1_Node000001_Node000002" class="edge">
<title>Node1&#45;&gt;Node2</title>
<g id="a_edge1_Node000001_Node000002"><a xlink:title=" ">
<path fill="none" stroke="#63b8ff" d="M20.14,-130.53C26.11,-149.32 41.57,-190.38 68.5,-213.62 71.31,-216.05 74.47,-218.16 77.81,-220"/>
<polygon fill="#63b8ff" stroke="#63b8ff" points="76.2,-223.11 86.75,-224.09 79.11,-216.74 76.2,-223.11"/>
</a>
</g>
</g>
<!-- Node3 -->
<g id="Node000003" class="node">
<title>Node3</title>
<g id="a_Node000003"><a target="_blank" xlink:href="http://en.cppreference.com/w/cpp/container/array/data.html#" xlink:title=" ">
<polygon fill="white" stroke="#666666" points="158.75,-204.25 76.75,-204.25 76.75,-185 158.75,-185 158.75,-204.25"/>
<text text-anchor="middle" x="117.75" y="-190.75" font-family="Helvetica,sans-Serif" font-size="10.00">std::array::data</text>
</a>
</g>
</g>
<!-- Node1&#45;&gt;Node3 -->
<g id="edge2_Node000001_Node000003" class="edge">
<title>Node1&#45;&gt;Node3</title>
<g id="a_edge2_Node000001_Node000003"><a xlink:title=" ">
<path fill="none" stroke="#63b8ff" d="M24.11,-130.66C33.03,-143.03 49.71,-163.95 68.5,-176.62 70.05,-177.67 71.68,-178.67 73.35,-179.62"/>
<polygon fill="#63b8ff" stroke="#63b8ff" points="71.41,-182.56 81.93,-183.84 74.5,-176.28 71.41,-182.56"/>
</a>
</g>
</g>
<!-- Node4 -->
<g id="Node000004" class="node">
<title>Node4</title>
<g id="a_Node000004"><a target="_blank" xlink:href="http://en.cppreference.com/w/cpp/iterator/end.html#" xlink:title=" ">
<polygon fill="white" stroke="#666666" points="143.38,-167.25 92.12,-167.25 92.12,-148 143.38,-148 143.38,-167.25"/>
<text text-anchor="middle" x="117.75" y="-153.75" font-family="Helvetica,sans-Serif" font-size="10.00">std::end</text>
</a>
</g>
</g>
<!-- Node1&#45;&gt;Node4 -->
<g id="edge3_Node000001_Node000004" class="edge">
<title>Node1&#45;&gt;Node4</title>
<g id="a_edge3_Node000001_Node000004"><a xlink:title=" ">
<path fill="none" stroke="#63b8ff" d="M32.8,-126.41C45.71,-131.21 64.58,-138.23 81.16,-144.39"/>
<polygon fill="#63b8ff" stroke="#63b8ff" points="79.63,-147.56 90.22,-147.76 82.07,-140.99 79.63,-147.56"/>
</a>
</g>
</g>
<!-- Node5 -->
<g id="Node000005" class="node">
<title>Node5</title>
<g id="a_Node000005"><a target="_blank" xlink:href="http://en.cppreference.com/w/cpp/io/manip/endl.html#" xlink:title=" ">
<polygon fill="white" stroke="#666666" points="144.5,-130.25 91,-130.25 91,-111 144.5,-111 144.5,-130.25"/>
<text text-anchor="middle" x="117.75" y="-116.75" font-family="Helvetica,sans-Serif" font-size="10.00">std::endl</text>
</a>
</g>
</g>
<!-- Node1&#45;&gt;Node5 -->
<g id="edge4_Node000001_Node000005" class="edge">
<title>Node1&#45;&gt;Node5</title>
<g id="a_edge4_Node000001_Node000005"><a xlink:title=" ">
<path fill="none" stroke="#63b8ff" d="M32.8,-120.62C45.29,-120.62 63.35,-120.62 79.53,-120.62"/>
<polygon fill="#63b8ff" stroke="#63b8ff" points="79.35,-124.13 89.35,-120.63 79.35,-117.13 79.35,-124.13"/>
</a>
</g>
</g>
<!-- Node6 -->
<g id="Node000006" class="node">
<title>Node6</title>
<g id="a_Node000006"><a xlink:href="../../d5/d91/namespacesorting.html#a2f8bc626eb57acae24a94636a23af6a1" target="_top" xlink:title=" ">
<polygon fill="white" stroke="#666666" points="167,-93.25 68.5,-93.25 68.5,-74 167,-74 167,-93.25"/>
<text text-anchor="middle" x="117.75" y="-79.75" font-family="Helvetica,sans-Serif" font-size="10.00">sorting::gnomeSort</text>
</a>
</g>
</g>
<!-- Node1&#45;&gt;Node6 -->
<g id="edge5_Node000001_Node000006" class="edge">
<title>Node1&#45;&gt;Node6</title>
<g id="a_edge5_Node000001_Node000006"><a xlink:title=" ">
<path fill="none" stroke="#63b8ff" d="M32.8,-114.84C45.14,-110.25 62.93,-103.64 78.96,-97.68"/>
<polygon fill="#63b8ff" stroke="#63b8ff" points="80.12,-100.98 88.27,-94.21 77.68,-94.42 80.12,-100.98"/>
</a>
</g>
</g>
<!-- Node8 -->
<g id="Node000008" class="node">
<title>Node8</title>
<g id="a_Node000008"><a target="_blank" xlink:href="http://en.cppreference.com/w/cpp/algorithm/is_sorted.html#" xlink:title=" ">
<polygon fill="white" stroke="#666666" points="155.38,-56.25 80.12,-56.25 80.12,-37 155.38,-37 155.38,-56.25"/>
<text text-anchor="middle" x="117.75" y="-42.75" font-family="Helvetica,sans-Serif" font-size="10.00">std::is_sorted</text>
</a>
</g>
</g>
<!-- Node1&#45;&gt;Node8 -->
<g id="edge7_Node000001_Node000008" class="edge">
<title>Node1&#45;&gt;Node8</title>
<g id="a_edge7_Node000001_Node000008"><a xlink:title=" ">
<path fill="none" stroke="#63b8ff" d="M24.11,-110.59C33.03,-98.22 49.71,-77.3 68.5,-64.62 70.05,-63.58 71.68,-62.58 73.35,-61.63"/>
<polygon fill="#63b8ff" stroke="#63b8ff" points="74.5,-64.97 81.93,-57.41 71.41,-58.69 74.5,-64.97"/>
</a>
</g>
</g>
<!-- Node9 -->
<g id="Node000009" class="node">
<title>Node9</title>
<g id="a_Node000009"><a target="_blank" xlink:href="http://en.cppreference.com/w/cpp/numeric/random/rand.html#" xlink:title=" ">
<polygon fill="white" stroke="#666666" points="144.88,-19.25 90.62,-19.25 90.62,0 144.88,0 144.88,-19.25"/>
<text text-anchor="middle" x="117.75" y="-5.75" font-family="Helvetica,sans-Serif" font-size="10.00">std::rand</text>
</a>
</g>
</g>
<!-- Node1&#45;&gt;Node9 -->
<g id="edge8_Node000001_Node000009" class="edge">
<title>Node1&#45;&gt;Node9</title>
<g id="a_edge8_Node000001_Node000009"><a xlink:title=" ">
<path fill="none" stroke="#63b8ff" d="M20.14,-110.72C26.11,-91.93 41.57,-50.87 68.5,-27.62 71.87,-24.72 75.75,-22.26 79.82,-20.19"/>
<polygon fill="#63b8ff" stroke="#63b8ff" points="80.91,-23.53 88.74,-16.39 78.17,-17.09 80.91,-23.53"/>
</a>
</g>
</g>
<!-- Node7 -->
<g id="Node000007" class="node">
<title>Node7</title>
<g id="a_Node000007"><a target="_blank" xlink:href="http://en.cppreference.com/w/cpp/algorithm/swap.html#" xlink:title=" ">
<polygon fill="white" stroke="#666666" points="261.75,-93.25 203,-93.25 203,-74 261.75,-74 261.75,-93.25"/>
<text text-anchor="middle" x="232.38" y="-79.75" font-family="Helvetica,sans-Serif" font-size="10.00">std::swap</text>
</a>
</g>
</g>
<!-- Node6&#45;&gt;Node7 -->
<g id="edge6_Node000006_Node000007" class="edge">
<title>Node6&#45;&gt;Node7</title>
<g id="a_edge6_Node000006_Node000007"><a xlink:title=" ">
<path fill="none" stroke="#63b8ff" d="M167.49,-83.62C175.47,-83.62 183.65,-83.62 191.38,-83.62"/>
<polygon fill="#63b8ff" stroke="#63b8ff" points="191.17,-87.13 201.17,-83.63 191.17,-80.13 191.17,-87.13"/>
</a>
</g>
</g>
</g>
</svg>
</svg>

<style type='text/css'>
<![CDATA[
[data-mouse-over-selected='false'] { opacity: 0.7; }
[data-mouse-over-selected='true']  { opacity: 1.0; }
]]>
</style>
<script type="application/ecmascript"><![CDATA[
document.addEventListener('DOMContentLoaded', (event) => {
  highlightEdges();
  highlightAdjacentNodes();
});
]]></script>
</svg>
