<?xml version="1.0" encoding="UTF-8" standalone="no"?>
<!DOCTYPE svg PUBLIC "-//W3C//DTD SVG 1.1//EN"
 "http://www.w3.org/Graphics/SVG/1.1/DTD/svg11.dtd">
<!-- Generated by graphviz version 8.0.2 (20230410.1723)
 -->
<!-- Title: test Pages: 1 -->
<svg width="271pt" height="249pt"
 viewBox="0.00 0.00 271.00 249.00" xmlns="http://www.w3.org/2000/svg" xmlns:xlink="http://www.w3.org/1999/xlink">
<g id="graph0" class="graph" transform="scale(1 1) rotate(0) translate(4 245)">
<title>test</title>
<!-- Node1 -->
<g id="node1" class="node">
<title>Node1</title>
<g id="a_node1"><a xlink:title=" ">
<polygon fill="#999999" stroke="#666666" points="33,-130 0,-130 0,-111 33,-111 33,-130"/>
<text text-anchor="middle" x="16.5" y="-118" font-family="Helvetica,sans-Serif" font-size="10.00">test</text>
</a>
</g>
</g>
<!-- Node2 -->
<g id="node2" class="node">
<title>Node2</title>
<g id="a_node2"><a target="_blank" xlink:href="http://en.cppreference.com/w/cpp/iterator/begin.html#" xlink:title=" ">
<polygon fill="white" stroke="#666666" points="148,-241 89,-241 89,-222 148,-222 148,-241"/>
<text text-anchor="middle" x="118.5" y="-229" font-family="Helvetica,sans-Serif" font-size="10.00">std::begin</text>
</a>
</g>
</g>
<!-- Node1&#45;&gt;Node2 -->
<g id="edge1" class="edge">
<title>Node1&#45;&gt;Node2</title>
<path fill="none" stroke="#63b8ff" d="M20.41,-130.41C26.44,-149.21 41.99,-190.28 69,-213.5 72,-216.08 75.41,-218.31 78.99,-220.23"/>
<polygon fill="#63b8ff" stroke="#63b8ff" points="77.18,-223.7 87.73,-224.61 80.05,-217.31 77.18,-223.7"/>
</g>
<!-- Node3 -->
<g id="node3" class="node">
<title>Node3</title>
<g id="a_node3"><a target="_blank" xlink:href="http://en.cppreference.com/w/cpp/container/array/data.html#" xlink:title=" ">
<polygon fill="white" stroke="#666666" points="160,-204 77,-204 77,-185 160,-185 160,-204"/>
<text text-anchor="middle" x="118.5" y="-192" font-family="Helvetica,sans-Serif" font-size="10.00">std::array::data</text>
</a>
</g>
</g>
<!-- Node1&#45;&gt;Node3 -->
<g id="edge2" class="edge">
<title>Node1&#45;&gt;Node3</title>
<path fill="none" stroke="#63b8ff" d="M24.09,-130.11C32.98,-142.42 49.92,-163.69 69,-176.5 70.73,-177.66 72.55,-178.77 74.43,-179.81"/>
<polygon fill="#63b8ff" stroke="#63b8ff" points="72.6,-183.29 83.12,-184.5 75.65,-176.99 72.6,-183.29"/>
</g>
<!-- Node4 -->
<g id="node4" class="node">
<title>Node4</title>
<g id="a_node4"><a target="_blank" xlink:href="http://en.cppreference.com/w/cpp/iterator/end.html#" xlink:title=" ">
<polygon fill="white" stroke="#666666" points="144.5,-167 92.5,-167 92.5,-148 144.5,-148 144.5,-167"/>
<text text-anchor="middle" x="118.5" y="-155" font-family="Helvetica,sans-Serif" font-size="10.00">std::end</text>
</a>
</g>
</g>
<!-- Node1&#45;&gt;Node4 -->
<g id="edge3" class="edge">
<title>Node1&#45;&gt;Node4</title>
<path fill="none" stroke="#63b8ff" d="M33.12,-126.28C46.23,-131.13 65.43,-138.23 82.21,-144.44"/>
<polygon fill="#63b8ff" stroke="#63b8ff" points="80.67,-147.98 91.27,-148.16 83.1,-141.41 80.67,-147.98"/>
</g>
<!-- Node5 -->
<g id="node5" class="node">
<title>Node5</title>
<g id="a_node5"><a target="_blank" xlink:href="http://en.cppreference.com/w/cpp/io/manip/endl.html#" xlink:title=" ">
<polygon fill="white" stroke="#666666" points="145.5,-130 91.5,-130 91.5,-111 145.5,-111 145.5,-130"/>
<text text-anchor="middle" x="118.5" y="-118" font-family="Helvetica,sans-Serif" font-size="10.00">std::endl</text>
</a>
</g>
</g>
<!-- Node1&#45;&gt;Node5 -->
<g id="edge4" class="edge">
<title>Node1&#45;&gt;Node5</title>
<path fill="none" stroke="#63b8ff" d="M33.12,-120.5C45.71,-120.5 63.93,-120.5 80.22,-120.5"/>
<polygon fill="#63b8ff" stroke="#63b8ff" points="80.1,-124 90.1,-120.5 80.1,-117 80.1,-124"/>
</g>
<!-- Node6 -->
<g id="node6" class="node">
<title>Node6</title>
<g id="a_node6"><a xlink:href="../../d5/d91/namespacesorting.html#a2f8bc626eb57acae24a94636a23af6a1" target="_top" xlink:title=" ">
<polygon fill="white" stroke="#666666" points="168,-93 69,-93 69,-74 168,-74 168,-93"/>
<text text-anchor="middle" x="118.5" y="-81" font-family="Helvetica,sans-Serif" font-size="10.00">sorting::gnomeSort</text>
</a>
</g>
</g>
<!-- Node1&#45;&gt;Node6 -->
<g id="edge5" class="edge">
<title>Node1&#45;&gt;Node6</title>
<path fill="none" stroke="#63b8ff" d="M33.12,-114.72C45.86,-110.01 64.37,-103.16 80.8,-97.08"/>
<polygon fill="#63b8ff" stroke="#63b8ff" points="81.54,-100.17 89.7,-93.42 79.11,-93.6 81.54,-100.17"/>
</g>
<!-- Node8 -->
<g id="node8" class="node">
<title>Node8</title>
<g id="a_node8"><a target="_blank" xlink:href="http://en.cppreference.com/w/cpp/algorithm/is_sorted.html#" xlink:title=" ">
<polygon fill="white" stroke="#666666" points="156.5,-56 80.5,-56 80.5,-37 156.5,-37 156.5,-56"/>
<text text-anchor="middle" x="118.5" y="-44" font-family="Helvetica,sans-Serif" font-size="10.00">std::is_sorted</text>
</a>
</g>
</g>
<!-- Node1&#45;&gt;Node8 -->
<g id="edge7" class="edge">
<title>Node1&#45;&gt;Node8</title>
<path fill="none" stroke="#63b8ff" d="M24.48,-110.7C33.53,-98.61 50.38,-78.13 69,-65.5 71.26,-63.97 73.66,-62.53 76.14,-61.19"/>
<polygon fill="#63b8ff" stroke="#63b8ff" points="77.43,-63.98 84.94,-56.5 74.41,-57.66 77.43,-63.98"/>
</g>
<!-- Node9 -->
<g id="node9" class="node">
<title>Node9</title>
<g id="a_node9"><a target="_blank" xlink:href="http://en.cppreference.com/w/cpp/numeric/random/rand.html#" xlink:title=" ">
<polygon fill="white" stroke="#666666" points="146,-19 91,-19 91,0 146,0 146,-19"/>
<text text-anchor="middle" x="118.5" y="-7" font-family="Helvetica,sans-Serif" font-size="10.00">std::rand</text>
</a>
</g>
</g>
<!-- Node1&#45;&gt;Node9 -->
<g id="edge8" class="edge">
<title>Node1&#45;&gt;Node9</title>
<path fill="none" stroke="#63b8ff" d="M20.48,-110.74C26.62,-92.22 42.37,-51.71 69,-28.5 72.45,-25.49 76.43,-22.93 80.6,-20.76"/>
<polygon fill="#63b8ff" stroke="#63b8ff" points="81.79,-23.62 89.51,-16.36 78.95,-17.22 81.79,-23.62"/>
</g>
<!-- Node7 -->
<g id="node7" class="node">
<title>Node7</title>
<g id="a_node7"><a target="_blank" xlink:href="http://en.cppreference.com/w/cpp/algorithm/swap.html#" xlink:title=" ">
<polygon fill="white" stroke="#666666" points="263,-93 204,-93 204,-74 263,-74 263,-93"/>
<text text-anchor="middle" x="233.5" y="-81" font-family="Helvetica,sans-Serif" font-size="10.00">std::swap</text>
</a>
</g>
</g>
<!-- Node6&#45;&gt;Node7 -->
<g id="edge6" class="edge">
<title>Node6&#45;&gt;Node7</title>
<path fill="none" stroke="#63b8ff" d="M168.41,-83.5C176.6,-83.5 185,-83.5 192.92,-83.5"/>
<polygon fill="#63b8ff" stroke="#63b8ff" points="192.71,-87 202.71,-83.5 192.71,-80 192.71,-87"/>
</g>
</g>
</svg>
