<?xml version="1.0" encoding="UTF-8" standalone="no"?>
<!DOCTYPE svg PUBLIC "-//W3C//DTD SVG 1.1//EN"
 "http://www.w3.org/Graphics/SVG/1.1/DTD/svg11.dtd">
<!-- Generated by graphviz version 2.47.3 (20210619.1520)
 -->
<!-- Title: sorting::merge_insertion::mergeSort Pages: 1 -->
<svg width="405pt" height="134pt"
 viewBox="0.00 0.00 405.00 133.50" xmlns="http://www.w3.org/2000/svg" xmlns:xlink="http://www.w3.org/1999/xlink">
<g id="graph0" class="graph" transform="scale(1 1) rotate(0) translate(4 129.5)">
<title>sorting::merge_insertion::mergeSort</title>
<polygon fill="white" stroke="transparent" points="-4,4 -4,-129.5 401,-129.5 401,4 -4,4"/>
<!-- Node1 -->
<g id="node1" class="node">
<title>Node1</title>
<g id="a_node1"><a xlink:title="Final combined algorithm. Algorithm utilizes ::sorting::merge_insertion::InsertionSort if window leng...">
<polygon fill="#bfbfbf" stroke="black" points="0,-33 0,-63 121,-63 121,-33 0,-33"/>
<text text-anchor="start" x="8" y="-51" font-family="Helvetica,sans-Serif" font-size="10.00">sorting::merge_insertion</text>
<text text-anchor="middle" x="60.5" y="-40" font-family="Helvetica,sans-Serif" font-size="10.00">::mergeSort</text>
</a>
</g>
</g>
<!-- Node2 -->
<g id="node2" class="node">
<title>Node2</title>
<g id="a_node2"><a xlink:href="../../de/d7b/merge__insertion__sort_8cpp.html#a0cba4fbf287ab8cb978ed7f8fef886b1" target="_top" xlink:title="Insertion merge algorithm.">
<polygon fill="white" stroke="black" points="157,-77 157,-107 278,-107 278,-77 157,-77"/>
<text text-anchor="start" x="165" y="-95" font-family="Helvetica,sans-Serif" font-size="10.00">sorting::merge_insertion</text>
<text text-anchor="middle" x="217.5" y="-84" font-family="Helvetica,sans-Serif" font-size="10.00">::InsertionSort</text>
</a>
</g>
</g>
<!-- Node1&#45;&gt;Node2 -->
<g id="edge1" class="edge">
<title>Node1&#45;&gt;Node2</title>
<path fill="none" stroke="midnightblue" d="M114.41,-63.02C127.06,-66.61 140.68,-70.48 153.73,-74.18"/>
<polygon fill="midnightblue" stroke="midnightblue" points="152.99,-77.61 163.57,-76.97 154.9,-70.88 152.99,-77.61"/>
</g>
<!-- Node4 -->
<g id="node4" class="node">
<title>Node4</title>
<g id="a_node4"><a xlink:href="../../d5/d91/namespacesorting.html#aa26de383227859210f14dcf12201a079" target="_top" xlink:title="merges 2 sorted adjacent segments into a larger sorted segment">
<polygon fill="white" stroke="black" points="178,-38.5 178,-57.5 257,-57.5 257,-38.5 178,-38.5"/>
<text text-anchor="middle" x="217.5" y="-45.5" font-family="Helvetica,sans-Serif" font-size="10.00">sorting::merge</text>
</a>
</g>
</g>
<!-- Node1&#45;&gt;Node4 -->
<g id="edge4" class="edge">
<title>Node1&#45;&gt;Node4</title>
<path fill="none" stroke="midnightblue" d="M121.43,-48C136.65,-48 152.82,-48 167.43,-48"/>
<polygon fill="midnightblue" stroke="midnightblue" points="167.75,-51.5 177.75,-48 167.75,-44.5 167.75,-51.5"/>
</g>
<!-- Node6 -->
<g id="node6" class="node">
<title>Node6</title>
<g id="a_node6"><a xlink:href="../../d5/d4c/group__sorting.html#gab6b14fea48d9841e29b9fc26be6e05d7" target="_top" xlink:title=" ">
<polygon fill="white" stroke="black" points="186.5,-0.5 186.5,-19.5 248.5,-19.5 248.5,-0.5 186.5,-0.5"/>
<text text-anchor="middle" x="217.5" y="-7.5" font-family="Helvetica,sans-Serif" font-size="10.00">mergeSort</text>
</a>
</g>
</g>
<!-- Node1&#45;&gt;Node6 -->
<g id="edge6" class="edge">
<title>Node1&#45;&gt;Node6</title>
<path fill="none" stroke="midnightblue" d="M121.43,-33.31C139.77,-28.81 159.5,-23.97 176.2,-19.88"/>
<polygon fill="midnightblue" stroke="midnightblue" points="177.3,-23.22 186.17,-17.43 175.63,-16.42 177.3,-23.22"/>
</g>
<!-- Node2&#45;&gt;Node2 -->
<g id="edge3" class="edge">
<title>Node2&#45;&gt;Node2</title>
<path fill="none" stroke="midnightblue" d="M193.45,-107.16C187.65,-116.56 195.67,-125.5 217.5,-125.5 230.8,-125.5 238.98,-122.18 242.02,-117.46"/>
<polygon fill="midnightblue" stroke="midnightblue" points="245.5,-116.99 241.55,-107.16 238.51,-117.31 245.5,-116.99"/>
</g>
<!-- Node3 -->
<g id="node3" class="node">
<title>Node3</title>
<g id="a_node3"><a target="_blank" xlink:href="http://en.cppreference.com/w/cpp/container/array/data.html#" xlink:title=" ">
<polygon fill="white" stroke="black" points="314,-82.5 314,-101.5 397,-101.5 397,-82.5 314,-82.5"/>
<text text-anchor="middle" x="355.5" y="-89.5" font-family="Helvetica,sans-Serif" font-size="10.00">std::array::data</text>
</a>
</g>
</g>
<!-- Node2&#45;&gt;Node3 -->
<g id="edge2" class="edge">
<title>Node2&#45;&gt;Node3</title>
<path fill="none" stroke="midnightblue" d="M278.15,-92C286.58,-92 295.19,-92 303.44,-92"/>
<polygon fill="midnightblue" stroke="midnightblue" points="303.66,-95.5 313.66,-92 303.66,-88.5 303.66,-95.5"/>
</g>
<!-- Node5 -->
<g id="node5" class="node">
<title>Node5</title>
<g id="a_node5"><a target="_blank" xlink:href="http://en.cppreference.com/w/cpp/utility/move.html#" xlink:title=" ">
<polygon fill="white" stroke="black" points="325.5,-38.5 325.5,-57.5 385.5,-57.5 385.5,-38.5 325.5,-38.5"/>
<text text-anchor="middle" x="355.5" y="-45.5" font-family="Helvetica,sans-Serif" font-size="10.00">std::move</text>
</a>
</g>
</g>
<!-- Node4&#45;&gt;Node5 -->
<g id="edge5" class="edge">
<title>Node4&#45;&gt;Node5</title>
<path fill="none" stroke="midnightblue" d="M257.11,-48C275.31,-48 296.99,-48 315.27,-48"/>
<polygon fill="midnightblue" stroke="midnightblue" points="315.31,-51.5 325.31,-48 315.31,-44.5 315.31,-51.5"/>
</g>
<!-- Node7 -->
<g id="node7" class="node">
<title>Node7</title>
<g id="a_node7"><a xlink:href="../../d5/d4c/group__sorting.html#ga460c61cd948203b4816bef2accb3fc73" target="_top" xlink:title=" ">
<polygon fill="white" stroke="black" points="333.5,-0.5 333.5,-19.5 377.5,-19.5 377.5,-0.5 333.5,-0.5"/>
<text text-anchor="middle" x="355.5" y="-7.5" font-family="Helvetica,sans-Serif" font-size="10.00">merge</text>
</a>
</g>
</g>
<!-- Node6&#45;&gt;Node7 -->
<g id="edge7" class="edge">
<title>Node6&#45;&gt;Node7</title>
<path fill="none" stroke="midnightblue" d="M248.68,-10C270.84,-10 300.86,-10 323.26,-10"/>
<polygon fill="midnightblue" stroke="midnightblue" points="323.27,-13.5 333.27,-10 323.27,-6.5 323.27,-13.5"/>
</g>
</g>
</svg>
