<?xml version="1.0" encoding="UTF-8" standalone="no"?>
<!DOCTYPE svg PUBLIC "-//W3C//DTD SVG 1.1//EN"
 "http://www.w3.org/Graphics/SVG/1.1/DTD/svg11.dtd">
<!-- Generated by graphviz version 5.0.0 (20220707.1540)
 -->
<!-- Title: sorting::merge_insertion::InsertionSort Pages: 1 -->
<svg width="248pt" height="57pt"
 viewBox="0.00 0.00 248.00 57.00" xmlns="http://www.w3.org/2000/svg" xmlns:xlink="http://www.w3.org/1999/xlink">
<g id="graph0" class="graph" transform="scale(1 1) rotate(0) translate(4 53)">
<title>sorting::merge_insertion::InsertionSort</title>
<polygon fill="white" stroke="transparent" points="-4,4 -4,-53 244,-53 244,4 -4,4"/>
<!-- Node1 -->
<g id="node1" class="node">
<title>Node1</title>
<g id="a_node1"><a xlink:title="Insertion merge algorithm.">
<polygon fill="#bfbfbf" stroke="black" points="0,-0.5 0,-30.5 121,-30.5 121,-0.5 0,-0.5"/>
<text text-anchor="start" x="8" y="-18.5" font-family="Helvetica,sans-Serif" font-size="10.00">sorting::merge_insertion</text>
<text text-anchor="middle" x="60.5" y="-7.5" font-family="Helvetica,sans-Serif" font-size="10.00">::InsertionSort</text>
</a>
</g>
</g>
<!-- Node1&#45;&gt;Node1 -->
<g id="edge2" class="edge">
<title>Node1&#45;&gt;Node1</title>
<path fill="none" stroke="midnightblue" d="M36.45,-30.66C30.65,-40.06 38.67,-49 60.5,-49 73.8,-49 81.98,-45.68 85.02,-40.96"/>
<polygon fill="midnightblue" stroke="midnightblue" points="88.5,-40.49 84.55,-30.66 81.51,-40.81 88.5,-40.49"/>
</g>
<!-- Node2 -->
<g id="node2" class="node">
<title>Node2</title>
<g id="a_node2"><a target="_blank" xlink:href="http://en.cppreference.com/w/cpp/container/array/data.html#" xlink:title=" ">
<polygon fill="white" stroke="black" points="157,-6 157,-25 240,-25 240,-6 157,-6"/>
<text text-anchor="middle" x="198.5" y="-13" font-family="Helvetica,sans-Serif" font-size="10.00">std::array::data</text>
</a>
</g>
</g>
<!-- Node1&#45;&gt;Node2 -->
<g id="edge1" class="edge">
<title>Node1&#45;&gt;Node2</title>
<path fill="none" stroke="midnightblue" d="M121.15,-15.5C129.58,-15.5 138.19,-15.5 146.44,-15.5"/>
<polygon fill="midnightblue" stroke="midnightblue" points="146.66,-19 156.66,-15.5 146.66,-12 146.66,-19"/>
</g>
</g>
</svg>
