<?xml version="1.0" encoding="UTF-8" standalone="no"?>
<!DOCTYPE svg PUBLIC "-//W3C//DTD SVG 1.1//EN"
 "http://www.w3.org/Graphics/SVG/1.1/DTD/svg11.dtd">
<!-- Generated by graphviz version 7.0.4 (20221203.1631)
 -->
<!-- Title: test Pages: 1 -->
<svg width="153pt" height="175pt"
 viewBox="0.00 0.00 153.00 175.00" xmlns="http://www.w3.org/2000/svg" xmlns:xlink="http://www.w3.org/1999/xlink">
<g id="graph0" class="graph" transform="scale(1 1) rotate(0) translate(4 171)">
<title>test</title>
<!-- Node1 -->
<g id="node1" class="node">
<title>Node1</title>
<g id="a_node1"><a xlink:title="Function to test code using random arrays.">
<polygon fill="#999999" stroke="#666666" points="33,-93 0,-93 0,-74 33,-74 33,-93"/>
<text text-anchor="middle" x="16.5" y="-81" font-family="Helvetica,sans-Serif" font-size="10.00">test</text>
</a>
</g>
</g>
<!-- Node2 -->
<g id="node2" class="node">
<title>Node2</title>
<g id="a_node2"><a target="_blank" xlink:href="http://en.cppreference.com/w/cpp/iterator/begin.html#" xlink:title=" ">
<polygon fill="white" stroke="#666666" points="136.5,-167 77.5,-167 77.5,-148 136.5,-148 136.5,-167"/>
<text text-anchor="middle" x="107" y="-155" font-family="Helvetica,sans-Serif" font-size="10.00">std::begin</text>
</a>
</g>
</g>
<!-- Node1&#45;&gt;Node2 -->
<g id="edge1" class="edge">
<title>Node1&#45;&gt;Node2</title>
<path fill="none" stroke="#63b8ff" d="M24.61,-93.25C33.79,-105.32 50.78,-125.93 69,-139.5 70.13,-140.34 71.3,-141.16 72.51,-141.95"/>
<polygon fill="#63b8ff" stroke="#63b8ff" points="70.42,-144.79 80.83,-146.77 73.93,-138.73 70.42,-144.79"/>
</g>
<!-- Node3 -->
<g id="node3" class="node">
<title>Node3</title>
<g id="a_node3"><a target="_blank" xlink:href="http://en.cppreference.com/w/cpp/iterator/end.html#" xlink:title=" ">
<polygon fill="white" stroke="#666666" points="133,-130 81,-130 81,-111 133,-111 133,-130"/>
<text text-anchor="middle" x="107" y="-118" font-family="Helvetica,sans-Serif" font-size="10.00">std::end</text>
</a>
</g>
</g>
<!-- Node1&#45;&gt;Node3 -->
<g id="edge2" class="edge">
<title>Node1&#45;&gt;Node3</title>
<path fill="none" stroke="#63b8ff" d="M33.32,-90.11C44.07,-94.61 58.7,-100.73 72.02,-106.29"/>
<polygon fill="#63b8ff" stroke="#63b8ff" points="70.35,-109.39 80.92,-110.02 73.05,-102.93 70.35,-109.39"/>
</g>
<!-- Node4 -->
<g id="node4" class="node">
<title>Node4</title>
<g id="a_node4"><a target="_blank" xlink:href="http://en.cppreference.com/w/cpp/io/manip/endl.html#" xlink:title=" ">
<polygon fill="white" stroke="#666666" points="134,-93 80,-93 80,-74 134,-74 134,-93"/>
<text text-anchor="middle" x="107" y="-81" font-family="Helvetica,sans-Serif" font-size="10.00">std::endl</text>
</a>
</g>
</g>
<!-- Node1&#45;&gt;Node4 -->
<g id="edge3" class="edge">
<title>Node1&#45;&gt;Node4</title>
<path fill="none" stroke="#63b8ff" d="M33.32,-83.5C43.04,-83.5 55.94,-83.5 68.16,-83.5"/>
<polygon fill="#63b8ff" stroke="#63b8ff" points="68.04,-87 78.04,-83.5 68.04,-80 68.04,-87"/>
</g>
<!-- Node5 -->
<g id="node5" class="node">
<title>Node5</title>
<g id="a_node5"><a target="_blank" xlink:href="http://en.cppreference.com/w/cpp/algorithm/is_sorted.html#" xlink:title=" ">
<polygon fill="white" stroke="#666666" points="145,-56 69,-56 69,-37 145,-37 145,-56"/>
<text text-anchor="middle" x="107" y="-44" font-family="Helvetica,sans-Serif" font-size="10.00">std::is_sorted</text>
</a>
</g>
</g>
<!-- Node1&#45;&gt;Node5 -->
<g id="edge4" class="edge">
<title>Node1&#45;&gt;Node5</title>
<path fill="none" stroke="#63b8ff" d="M33.32,-76.89C44.07,-72.39 58.7,-66.27 72.02,-60.71"/>
<polygon fill="#63b8ff" stroke="#63b8ff" points="73.05,-64.07 80.92,-56.98 70.35,-57.61 73.05,-64.07"/>
</g>
<!-- Node6 -->
<g id="node6" class="node">
<title>Node6</title>
<g id="a_node6"><a target="_blank" xlink:href="http://en.cppreference.com/w/cpp/numeric/random/rand.html#" xlink:title=" ">
<polygon fill="white" stroke="#666666" points="134.5,-19 79.5,-19 79.5,0 134.5,0 134.5,-19"/>
<text text-anchor="middle" x="107" y="-7" font-family="Helvetica,sans-Serif" font-size="10.00">std::rand</text>
</a>
</g>
</g>
<!-- Node1&#45;&gt;Node6 -->
<g id="edge5" class="edge">
<title>Node1&#45;&gt;Node6</title>
<path fill="none" stroke="#63b8ff" d="M25.02,-73.58C34.36,-61.75 51.25,-41.89 69,-28.5 70.55,-27.33 72.17,-26.2 73.85,-25.11"/>
<polygon fill="#63b8ff" stroke="#63b8ff" points="75.54,-28.18 82.42,-20.12 72.02,-22.13 75.54,-28.18"/>
</g>
</g>
</svg>
