<?xml version="1.0" encoding="UTF-8" standalone="no"?>
<!DOCTYPE svg PUBLIC "-//W3C//DTD SVG 1.1//EN"
 "http://www.w3.org/Graphics/SVG/1.1/DTD/svg11.dtd">
<!-- Generated by graphviz version 9.0.0 (20230911.1827)
 -->
<!-- Title: tests Pages: 1 -->
<svg width="596pt" height="165pt"
 viewBox="0.00 0.00 595.75 165.25" xmlns="http://www.w3.org/2000/svg" xmlns:xlink="http://www.w3.org/1999/xlink">
<g id="graph0" class="graph" transform="scale(1 1) rotate(0) translate(4 161.25)">
<title>tests</title>
<!-- Node1 -->
<g id="Node000001" class="node">
<title>Node1</title>
<g id="a_Node000001"><a xlink:title=" ">
<polygon fill="#999999" stroke="#666666" points="37.75,-74.25 0,-74.25 0,-55 37.75,-55 37.75,-74.25"/>
<text text-anchor="middle" x="18.88" y="-60.75" font-family="Helvetica,sans-Serif" font-size="10.00">tests</text>
</a>
</g>
</g>
<!-- Node2 -->
<g id="Node000002" class="node">
<title>Node2</title>
<g id="a_Node000002"><a target="_blank" xlink:href="http://en.cppreference.com/w/cpp/io/manip/endl.html#" xlink:title=" ">
<polygon fill="white" stroke="#666666" points="165.12,-93.25 111.62,-93.25 111.62,-74 165.12,-74 165.12,-93.25"/>
<text text-anchor="middle" x="138.38" y="-79.75" font-family="Helvetica,sans-Serif" font-size="10.00">std::endl</text>
</a>
</g>
</g>
<!-- Node1&#45;&gt;Node2 -->
<g id="edge1_Node000001_Node000002" class="edge">
<title>Node1&#45;&gt;Node2</title>
<g id="a_edge1_Node000001_Node000002"><a xlink:title=" ">
<path fill="none" stroke="#63b8ff" d="M38.23,-67.59C54.71,-70.26 79.41,-74.25 100.03,-77.59"/>
<polygon fill="#63b8ff" stroke="#63b8ff" points="99.37,-81.03 109.8,-79.17 100.49,-74.12 99.37,-81.03"/>
</a>
</g>
</g>
<!-- Node3 -->
<g id="Node000003" class="node">
<title>Node3</title>
<g id="a_Node000003"><a xlink:href="../../d6/d42/miller__rabin_8cpp.html#a901288288ef5ebe8e97414cc30797cce" target="_top" xlink:title=" ">
<polygon fill="white" stroke="#666666" points="203,-56.25 73.75,-56.25 73.75,-37 203,-37 203,-56.25"/>
<text text-anchor="middle" x="138.38" y="-42.75" font-family="Helvetica,sans-Serif" font-size="10.00">miller_rabin_primality_test</text>
</a>
</g>
</g>
<!-- Node1&#45;&gt;Node3 -->
<g id="edge2_Node000001_Node000003" class="edge">
<title>Node1&#45;&gt;Node3</title>
<g id="a_edge2_Node000001_Node000003"><a xlink:title=" ">
<path fill="none" stroke="#63b8ff" d="M38.23,-61.81C45.04,-60.77 53.25,-59.51 62,-58.17"/>
<polygon fill="#63b8ff" stroke="#63b8ff" points="62.45,-61.64 71.8,-56.67 61.39,-54.73 62.45,-61.64"/>
</a>
</g>
</g>
<!-- Node4 -->
<g id="Node000004" class="node">
<title>Node4</title>
<g id="a_Node000004"><a xlink:href="../../d6/d42/miller__rabin_8cpp.html#a6f9c31c1047aa3191676d64571d4c506" target="_top" xlink:title=" ">
<polygon fill="white" stroke="#666666" points="300,-56.25 239,-56.25 239,-37 300,-37 300,-56.25"/>
<text text-anchor="middle" x="269.5" y="-42.75" font-family="Helvetica,sans-Serif" font-size="10.00">miller_test</text>
</a>
</g>
</g>
<!-- Node3&#45;&gt;Node4 -->
<g id="edge3_Node000003_Node000004" class="edge">
<title>Node3&#45;&gt;Node4</title>
<g id="a_edge3_Node000003_Node000004"><a xlink:title=" ">
<path fill="none" stroke="#63b8ff" d="M203.18,-46.62C211.45,-46.62 219.74,-46.62 227.5,-46.62"/>
<polygon fill="#63b8ff" stroke="#63b8ff" points="227.29,-50.13 237.29,-46.63 227.29,-43.13 227.29,-50.13"/>
</a>
</g>
</g>
<!-- Node5 -->
<g id="Node000005" class="node">
<title>Node5</title>
<g id="a_Node000005"><a xlink:href="../../d6/d42/miller__rabin_8cpp.html#ad6c2c67ea416d0e80003a88623f98b29" target="_top" xlink:title=" ">
<polygon fill="white" stroke="#666666" points="454.75,-102.25 336,-102.25 336,-83 454.75,-83 454.75,-102.25"/>
<text text-anchor="middle" x="395.38" y="-88.75" font-family="Helvetica,sans-Serif" font-size="10.00">modular_exponentiation</text>
</a>
</g>
</g>
<!-- Node4&#45;&gt;Node5 -->
<g id="edge4_Node000004_Node000005" class="edge">
<title>Node4&#45;&gt;Node5</title>
<g id="a_edge4_Node000004_Node000005"><a xlink:title=" ">
<path fill="none" stroke="#63b8ff" d="M297.68,-56.72C314.95,-63.13 337.54,-71.52 356.55,-78.58"/>
<polygon fill="#63b8ff" stroke="#63b8ff" points="355.24,-81.83 365.83,-82.03 357.68,-75.26 355.24,-81.83"/>
</a>
</g>
</g>
<!-- Node9 -->
<g id="Node000009" class="node">
<title>Node9</title>
<g id="a_Node000009"><a xlink:href="../../df/def/power__for__huge__numbers_8cpp.html#ae249a2af508aa94266023ce8aa81426f" target="_top" xlink:title=" ">
<polygon fill="white" stroke="#666666" points="416.5,-56.25 374.25,-56.25 374.25,-37 416.5,-37 416.5,-56.25"/>
<text text-anchor="middle" x="395.38" y="-42.75" font-family="Helvetica,sans-Serif" font-size="10.00">power</text>
</a>
</g>
</g>
<!-- Node4&#45;&gt;Node9 -->
<g id="edge8_Node000004_Node000009" class="edge">
<title>Node4&#45;&gt;Node9</title>
<g id="a_edge8_Node000004_Node000009"><a xlink:title=" ">
<path fill="none" stroke="#63b8ff" d="M300.49,-46.62C319.25,-46.62 343.41,-46.62 362.52,-46.62"/>
<polygon fill="#63b8ff" stroke="#63b8ff" points="362.45,-50.13 372.45,-46.63 362.45,-43.13 362.45,-50.13"/>
</a>
</g>
</g>
<!-- Node11 -->
<g id="Node000011" class="node">
<title>Node11</title>
<g id="a_Node000011"><a xlink:href="../../d6/d42/miller__rabin_8cpp.html#a091662a787d5ad4866713021f580fddb" target="_top" xlink:title=" ">
<polygon fill="white" stroke="#666666" points="435.25,-19.25 355.5,-19.25 355.5,0 435.25,0 435.25,-19.25"/>
<text text-anchor="middle" x="395.38" y="-5.75" font-family="Helvetica,sans-Serif" font-size="10.00">reverse_binary</text>
</a>
</g>
</g>
<!-- Node4&#45;&gt;Node11 -->
<g id="edge10_Node000004_Node000011" class="edge">
<title>Node4&#45;&gt;Node11</title>
<g id="a_edge10_Node000004_Node000011"><a xlink:title=" ">
<path fill="none" stroke="#63b8ff" d="M300.49,-37.67C315.26,-33.25 333.38,-27.84 349.75,-22.95"/>
<polygon fill="#63b8ff" stroke="#63b8ff" points="350.7,-26.32 359.28,-20.11 348.7,-19.61 350.7,-26.32"/>
</a>
</g>
</g>
<!-- Node6 -->
<g id="Node000006" class="node">
<title>Node6</title>
<g id="a_Node000006"><a target="_blank" xlink:href="http://en.cppreference.com/w/cpp/container/vector/begin.html#" xlink:title=" ">
<polygon fill="white" stroke="#666666" points="587.75,-157.25 490.75,-157.25 490.75,-138 587.75,-138 587.75,-157.25"/>
<text text-anchor="middle" x="539.25" y="-143.75" font-family="Helvetica,sans-Serif" font-size="10.00">std::vector::cbegin</text>
</a>
</g>
</g>
<!-- Node5&#45;&gt;Node6 -->
<g id="edge5_Node000005_Node000006" class="edge">
<title>Node5&#45;&gt;Node6</title>
<g id="a_edge5_Node000005_Node000006"><a xlink:title=" ">
<path fill="none" stroke="#63b8ff" d="M421.58,-102.6C440.57,-110.09 467.27,-120.57 490.75,-129.62 494.12,-130.93 497.64,-132.27 501.15,-133.61"/>
<polygon fill="#63b8ff" stroke="#63b8ff" points="499.59,-136.77 510.19,-137.05 502.08,-130.22 499.59,-136.77"/>
</a>
</g>
</g>
<!-- Node7 -->
<g id="Node000007" class="node">
<title>Node7</title>
<g id="a_Node000007"><a target="_blank" xlink:href="http://en.cppreference.com/w/cpp/container/vector/end.html#" xlink:title=" ">
<polygon fill="white" stroke="#666666" points="584,-120.25 494.5,-120.25 494.5,-101 584,-101 584,-120.25"/>
<text text-anchor="middle" x="539.25" y="-106.75" font-family="Helvetica,sans-Serif" font-size="10.00">std::vector::cend</text>
</a>
</g>
</g>
<!-- Node5&#45;&gt;Node7 -->
<g id="edge6_Node000005_Node000007" class="edge">
<title>Node5&#45;&gt;Node7</title>
<g id="a_edge6_Node000005_Node000007"><a xlink:title=" ">
<path fill="none" stroke="#63b8ff" d="M454.9,-100.05C464.13,-101.22 473.65,-102.43 482.81,-103.59"/>
<polygon fill="#63b8ff" stroke="#63b8ff" points="482.31,-107.06 492.67,-104.84 483.19,-100.11 482.31,-107.06"/>
</a>
</g>
</g>
<!-- Node8 -->
<g id="Node000008" class="node">
<title>Node8</title>
<g id="a_Node000008"><a target="_blank" xlink:href="http://en.cppreference.com/w/cpp/container/vector/size.html#" xlink:title=" ">
<polygon fill="white" stroke="#666666" points="582.5,-83.25 496,-83.25 496,-64 582.5,-64 582.5,-83.25"/>
<text text-anchor="middle" x="539.25" y="-69.75" font-family="Helvetica,sans-Serif" font-size="10.00">std::vector::size</text>
</a>
</g>
</g>
<!-- Node5&#45;&gt;Node8 -->
<g id="edge7_Node000005_Node000008" class="edge">
<title>Node5&#45;&gt;Node8</title>
<g id="a_edge7_Node000005_Node000008"><a xlink:title=" ">
<path fill="none" stroke="#63b8ff" d="M454.9,-84.79C464.78,-83.46 474.98,-82.1 484.72,-80.79"/>
<polygon fill="#63b8ff" stroke="#63b8ff" points="484.95,-84.29 494.39,-79.5 484.02,-77.36 484.95,-84.29"/>
</a>
</g>
</g>
<!-- Node10 -->
<g id="Node000010" class="node">
<title>Node10</title>
<g id="a_Node000010"><a xlink:href="../../df/def/power__for__huge__numbers_8cpp.html#aa141a7904f0c4668bac112d652a3acf9" target="_top" xlink:title=" ">
<polygon fill="white" stroke="#666666" points="564.12,-46.25 514.38,-46.25 514.38,-27 564.12,-27 564.12,-46.25"/>
<text text-anchor="middle" x="539.25" y="-32.75" font-family="Helvetica,sans-Serif" font-size="10.00">multiply</text>
</a>
</g>
</g>
<!-- Node9&#45;&gt;Node10 -->
<g id="edge9_Node000009_Node000010" class="edge">
<title>Node9&#45;&gt;Node10</title>
<g id="a_edge9_Node000009_Node000010"><a xlink:title=" ">
<path fill="none" stroke="#63b8ff" d="M416.7,-45.19C439.13,-43.61 475.63,-41.04 502.8,-39.12"/>
<polygon fill="#63b8ff" stroke="#63b8ff" points="502.92,-42.62 512.65,-38.43 502.43,-35.64 502.92,-42.62"/>
</a>
</g>
</g>
</g>
</svg>
