<?xml version="1.0" encoding="UTF-8" standalone="no"?>
<!DOCTYPE svg PUBLIC "-//W3C//DTD SVG 1.1//EN"
 "http://www.w3.org/Graphics/SVG/1.1/DTD/svg11.dtd">
<!-- Generated by graphviz version 8.0.2 (20230410.1723)
 -->
<!-- Title: miller_rabin_primality_test Pages: 1 -->
<svg width="525pt" height="165pt"
 viewBox="0.00 0.00 525.00 165.00" xmlns="http://www.w3.org/2000/svg" xmlns:xlink="http://www.w3.org/1999/xlink">
<g id="graph0" class="graph" transform="scale(1 1) rotate(0) translate(4 161)">
<title>miller_rabin_primality_test</title>
<!-- Node1 -->
<g id="node1" class="node">
<title>Node1</title>
<g id="a_node1"><a xlink:title=" ">
<polygon fill="#999999" stroke="#666666" points="130,-56 0,-56 0,-37 130,-37 130,-56"/>
<text text-anchor="middle" x="65" y="-44" font-family="Helvetica,sans-Serif" font-size="10.00">miller_rabin_primality_test</text>
</a>
</g>
</g>
<!-- Node2 -->
<g id="node2" class="node">
<title>Node2</title>
<g id="a_node2"><a xlink:href="../../d6/d42/miller__rabin_8cpp.html#a6f9c31c1047aa3191676d64571d4c506" target="_top" xlink:title=" ">
<polygon fill="white" stroke="#666666" points="228,-56 166,-56 166,-37 228,-37 228,-56"/>
<text text-anchor="middle" x="197" y="-44" font-family="Helvetica,sans-Serif" font-size="10.00">miller_test</text>
</a>
</g>
</g>
<!-- Node1&#45;&gt;Node2 -->
<g id="edge1" class="edge">
<title>Node1&#45;&gt;Node2</title>
<path fill="none" stroke="#63b8ff" d="M130.24,-46.5C138.67,-46.5 147.13,-46.5 155.03,-46.5"/>
<polygon fill="#63b8ff" stroke="#63b8ff" points="154.77,-50 164.77,-46.5 154.77,-43 154.77,-50"/>
</g>
<!-- Node3 -->
<g id="node3" class="node">
<title>Node3</title>
<g id="a_node3"><a xlink:href="../../d6/d42/miller__rabin_8cpp.html#ad6c2c67ea416d0e80003a88623f98b29" target="_top" xlink:title=" ">
<polygon fill="white" stroke="#666666" points="383,-102 264,-102 264,-83 383,-83 383,-102"/>
<text text-anchor="middle" x="323.5" y="-90" font-family="Helvetica,sans-Serif" font-size="10.00">modular_exponentiation</text>
</a>
</g>
</g>
<!-- Node2&#45;&gt;Node3 -->
<g id="edge2" class="edge">
<title>Node2&#45;&gt;Node3</title>
<path fill="none" stroke="#63b8ff" d="M225.01,-56.48C242.63,-62.99 265.87,-71.58 285.24,-78.73"/>
<polygon fill="#63b8ff" stroke="#63b8ff" points="283.94,-82.36 294.54,-82.54 286.37,-75.79 283.94,-82.36"/>
</g>
<!-- Node7 -->
<g id="node7" class="node">
<title>Node7</title>
<g id="a_node7"><a xlink:href="../../df/def/power__for__huge__numbers_8cpp.html#ae249a2af508aa94266023ce8aa81426f" target="_top" xlink:title=" ">
<polygon fill="white" stroke="#666666" points="345,-56 302,-56 302,-37 345,-37 345,-56"/>
<text text-anchor="middle" x="323.5" y="-44" font-family="Helvetica,sans-Serif" font-size="10.00">power</text>
</a>
</g>
</g>
<!-- Node2&#45;&gt;Node7 -->
<g id="edge6" class="edge">
<title>Node2&#45;&gt;Node7</title>
<path fill="none" stroke="#63b8ff" d="M228.46,-46.5C247.38,-46.5 271.67,-46.5 290.82,-46.5"/>
<polygon fill="#63b8ff" stroke="#63b8ff" points="290.71,-50 300.71,-46.5 290.71,-43 290.71,-50"/>
</g>
<!-- Node9 -->
<g id="node9" class="node">
<title>Node9</title>
<g id="a_node9"><a xlink:href="../../d6/d42/miller__rabin_8cpp.html#a091662a787d5ad4866713021f580fddb" target="_top" xlink:title=" ">
<polygon fill="white" stroke="#666666" points="363.5,-19 283.5,-19 283.5,0 363.5,0 363.5,-19"/>
<text text-anchor="middle" x="323.5" y="-7" font-family="Helvetica,sans-Serif" font-size="10.00">reverse_binary</text>
</a>
</g>
</g>
<!-- Node2&#45;&gt;Node9 -->
<g id="edge8" class="edge">
<title>Node2&#45;&gt;Node9</title>
<path fill="none" stroke="#63b8ff" d="M228.46,-37.45C243.46,-32.99 261.82,-27.53 278.33,-22.63"/>
<polygon fill="#63b8ff" stroke="#63b8ff" points="279.27,-25.7 287.86,-19.5 277.27,-18.99 279.27,-25.7"/>
</g>
<!-- Node4 -->
<g id="node4" class="node">
<title>Node4</title>
<g id="a_node4"><a target="_blank" xlink:href="http://en.cppreference.com/w/cpp/container/vector/begin.html#" xlink:title=" ">
<polygon fill="white" stroke="#666666" points="517,-157 419,-157 419,-138 517,-138 517,-157"/>
<text text-anchor="middle" x="468" y="-145" font-family="Helvetica,sans-Serif" font-size="10.00">std::vector::cbegin</text>
</a>
</g>
</g>
<!-- Node3&#45;&gt;Node4 -->
<g id="edge3" class="edge">
<title>Node3&#45;&gt;Node4</title>
<path fill="none" stroke="#63b8ff" d="M349.73,-102.49C368.74,-110 395.47,-120.48 419,-129.5 422.66,-130.9 426.49,-132.36 430.31,-133.8"/>
<polygon fill="#63b8ff" stroke="#63b8ff" points="428.72,-137.32 439.32,-137.57 431.19,-130.77 428.72,-137.32"/>
</g>
<!-- Node5 -->
<g id="node5" class="node">
<title>Node5</title>
<g id="a_node5"><a target="_blank" xlink:href="http://en.cppreference.com/w/cpp/container/vector/end.html#" xlink:title=" ">
<polygon fill="white" stroke="#666666" points="513,-120 423,-120 423,-101 513,-101 513,-120"/>
<text text-anchor="middle" x="468" y="-108" font-family="Helvetica,sans-Serif" font-size="10.00">std::vector::cend</text>
</a>
</g>
</g>
<!-- Node3&#45;&gt;Node5 -->
<g id="edge4" class="edge">
<title>Node3&#45;&gt;Node5</title>
<path fill="none" stroke="#63b8ff" d="M383.28,-99.93C392.76,-101.12 402.54,-102.36 411.93,-103.54"/>
<polygon fill="#63b8ff" stroke="#63b8ff" points="411.36,-107.13 421.72,-104.91 412.24,-100.18 411.36,-107.13"/>
</g>
<!-- Node6 -->
<g id="node6" class="node">
<title>Node6</title>
<g id="a_node6"><a target="_blank" xlink:href="http://en.cppreference.com/w/cpp/container/vector/size.html#" xlink:title=" ">
<polygon fill="white" stroke="#666666" points="511.5,-83 424.5,-83 424.5,-64 511.5,-64 511.5,-83"/>
<text text-anchor="middle" x="468" y="-71" font-family="Helvetica,sans-Serif" font-size="10.00">std::vector::size</text>
</a>
</g>
</g>
<!-- Node3&#45;&gt;Node6 -->
<g id="edge5" class="edge">
<title>Node3&#45;&gt;Node6</title>
<path fill="none" stroke="#63b8ff" d="M383.28,-84.66C393.2,-83.34 403.45,-81.97 413.23,-80.67"/>
<polygon fill="#63b8ff" stroke="#63b8ff" points="413.58,-84.02 423.02,-79.23 412.65,-77.08 413.58,-84.02"/>
</g>
<!-- Node8 -->
<g id="node8" class="node">
<title>Node8</title>
<g id="a_node8"><a xlink:href="../../df/def/power__for__huge__numbers_8cpp.html#aa141a7904f0c4668bac112d652a3acf9" target="_top" xlink:title=" ">
<polygon fill="white" stroke="#666666" points="493,-46 443,-46 443,-27 493,-27 493,-46"/>
<text text-anchor="middle" x="468" y="-34" font-family="Helvetica,sans-Serif" font-size="10.00">multiply</text>
</a>
</g>
</g>
<!-- Node7&#45;&gt;Node8 -->
<g id="edge7" class="edge">
<title>Node7&#45;&gt;Node8</title>
<path fill="none" stroke="#63b8ff" d="M345.22,-45.05C368.02,-43.45 405.03,-40.85 432.27,-38.94"/>
<polygon fill="#63b8ff" stroke="#63b8ff" points="432.19,-42.38 441.92,-38.19 431.7,-35.4 432.19,-42.38"/>
</g>
</g>
</svg>
