<?xml version="1.0" encoding="UTF-8" standalone="no"?>
<!DOCTYPE svg PUBLIC "-//W3C//DTD SVG 1.1//EN"
 "http://www.w3.org/Graphics/SVG/1.1/DTD/svg11.dtd">
<!-- Generated by graphviz version 9.0.0 (20230911.1827)
 -->
<!-- Title: miller_rabin_primality_test Pages: 1 -->
<!--zoomable 165 -->

<svg id="main" version="1.1" xmlns="http://www.w3.org/2000/svg" xmlns:xlink="http://www.w3.org/1999/xlink" xml:space="preserve" onload="init(evt)">
<style type="text/css"><![CDATA[
.node, .edge {opacity: 0.7;}
.node.selected, .edge.selected {opacity: 1;}
.edge:hover path { stroke: red; }
.edge:hover polygon { stroke: red; fill: red; }
]]></style>

<defs>
  <circle id="rim" cx="0" cy="0" r="7"/>
  <circle id="rim2" cx="0" cy="0" r="3.5"/>
  <g id="zoomPlus">
    <use xlink:href="#rim" fill="#404040"><set attributeName="fill" to="#808080" begin="zoomplus.mouseover" end="zoomplus.mouseout"/></use>
    <path d="M-4,0h8M0,-4v8" fill="none" stroke="white" stroke-width="1.5" pointer-events="none"/>
  </g>
  <g id="zoomMin">
    <use xlink:href="#rim" fill="#404040"><set attributeName="fill" to="#808080" begin="zoomminus.mouseover" end="zoomminus.mouseout"/></use>
    <path d="M-4,0h8" fill="none" stroke="white" stroke-width="1.5" pointer-events="none"/>
  </g>
  <g id="arrowUp" transform="translate(30 24)">
    <use xlink:href="#rim"/>
    <path pointer-events="none" fill="none" stroke="white" stroke-width="1.5" d="M0,-3.0v7 M-2.5,-0.5L0,-3.0L2.5,-0.5"/>
  </g>
  <g id="arrowRight" transform="rotate(90) translate(36 -43)">
    <use xlink:href="#rim"/>
    <path pointer-events="none" fill="none" stroke="white" stroke-width="1.5" d="M0,-3.0v7 M-2.5,-0.5L0,-3.0L2.5,-0.5"/>
  </g>
  <g id="arrowDown" transform="rotate(180) translate(-30 -48)">
    <use xlink:href="#rim"/>
    <path pointer-events="none" fill="none" stroke="white" stroke-width="1.5" d="M0,-3.0v7 M-2.5,-0.5L0,-3.0L2.5,-0.5"/>
  </g>
  <g id="arrowLeft" transform="rotate(270) translate(-36 17)">
    <use xlink:href="#rim"/>
    <path pointer-events="none" fill="none" stroke="white" stroke-width="1.5" d="M0,-3.0v7 M-2.5,-0.5L0,-3.0L2.5,-0.5"/>
  </g>
  <g id="resetDef">
    <use xlink:href="#rim2" fill="#404040"><set attributeName="fill" to="#808080" begin="reset.mouseover" end="reset.mouseout"/></use>
  </g>
</defs>
<script type="application/ecmascript">
var viewWidth = 522;
var viewHeight = 165;
var sectionId = 'dynsection-2';
</script>
<script type="application/ecmascript" xlink:href="../../svg.min.js"/>
<svg id="graph" class="graph">
<g id="viewport">
<title>miller_rabin_primality_test</title>
<!-- Node1 -->
<g id="Node000001" class="node">
<title>Node1</title>
<g id="a_Node000001"><a xlink:title=" ">
<polygon fill="#999999" stroke="#666666" points="129.25,-56.25 0,-56.25 0,-37 129.25,-37 129.25,-56.25"/>
<text text-anchor="middle" x="64.62" y="-42.75" font-family="Helvetica,sans-Serif" font-size="10.00">miller_rabin_primality_test</text>
</a>
</g>
</g>
<!-- Node2 -->
<g id="Node000002" class="node">
<title>Node2</title>
<g id="a_Node000002"><a xlink:href="../../d6/d42/miller__rabin_8cpp.html#a6f9c31c1047aa3191676d64571d4c506" target="_top" xlink:title=" ">
<polygon fill="white" stroke="#666666" points="226.25,-56.25 165.25,-56.25 165.25,-37 226.25,-37 226.25,-56.25"/>
<text text-anchor="middle" x="195.75" y="-42.75" font-family="Helvetica,sans-Serif" font-size="10.00">miller_test</text>
</a>
</g>
</g>
<!-- Node1&#45;&gt;Node2 -->
<g id="edge1_Node000001_Node000002" class="edge">
<title>Node1&#45;&gt;Node2</title>
<g id="a_edge1_Node000001_Node000002"><a xlink:title=" ">
<path fill="none" stroke="#63b8ff" d="M129.43,-46.62C137.7,-46.62 145.99,-46.62 153.75,-46.62"/>
<polygon fill="#63b8ff" stroke="#63b8ff" points="153.54,-50.13 163.54,-46.63 153.54,-43.13 153.54,-50.13"/>
</a>
</g>
</g>
<!-- Node3 -->
<g id="Node000003" class="node">
<title>Node3</title>
<g id="a_Node000003"><a xlink:href="../../d6/d42/miller__rabin_8cpp.html#ad6c2c67ea416d0e80003a88623f98b29" target="_top" xlink:title=" ">
<polygon fill="white" stroke="#666666" points="381,-102.25 262.25,-102.25 262.25,-83 381,-83 381,-102.25"/>
<text text-anchor="middle" x="321.62" y="-88.75" font-family="Helvetica,sans-Serif" font-size="10.00">modular_exponentiation</text>
</a>
</g>
</g>
<!-- Node2&#45;&gt;Node3 -->
<g id="edge2_Node000002_Node000003" class="edge">
<title>Node2&#45;&gt;Node3</title>
<g id="a_edge2_Node000002_Node000003"><a xlink:title=" ">
<path fill="none" stroke="#63b8ff" d="M223.93,-56.72C241.2,-63.13 263.79,-71.52 282.8,-78.58"/>
<polygon fill="#63b8ff" stroke="#63b8ff" points="281.49,-81.83 292.08,-82.03 283.93,-75.26 281.49,-81.83"/>
</a>
</g>
</g>
<!-- Node7 -->
<g id="Node000007" class="node">
<title>Node7</title>
<g id="a_Node000007"><a xlink:href="../../df/def/power__for__huge__numbers_8cpp.html#ae249a2af508aa94266023ce8aa81426f" target="_top" xlink:title=" ">
<polygon fill="white" stroke="#666666" points="342.75,-56.25 300.5,-56.25 300.5,-37 342.75,-37 342.75,-56.25"/>
<text text-anchor="middle" x="321.62" y="-42.75" font-family="Helvetica,sans-Serif" font-size="10.00">power</text>
</a>
</g>
</g>
<!-- Node2&#45;&gt;Node7 -->
<g id="edge6_Node000002_Node000007" class="edge">
<title>Node2&#45;&gt;Node7</title>
<g id="a_edge6_Node000002_Node000007"><a xlink:title=" ">
<path fill="none" stroke="#63b8ff" d="M226.74,-46.62C245.5,-46.62 269.66,-46.62 288.77,-46.62"/>
<polygon fill="#63b8ff" stroke="#63b8ff" points="288.7,-50.13 298.7,-46.63 288.7,-43.13 288.7,-50.13"/>
</a>
</g>
</g>
<!-- Node9 -->
<g id="Node000009" class="node">
<title>Node9</title>
<g id="a_Node000009"><a xlink:href="../../d6/d42/miller__rabin_8cpp.html#a091662a787d5ad4866713021f580fddb" target="_top" xlink:title=" ">
<polygon fill="white" stroke="#666666" points="361.5,-19.25 281.75,-19.25 281.75,0 361.5,0 361.5,-19.25"/>
<text text-anchor="middle" x="321.62" y="-5.75" font-family="Helvetica,sans-Serif" font-size="10.00">reverse_binary</text>
</a>
</g>
</g>
<!-- Node2&#45;&gt;Node9 -->
<g id="edge8_Node000002_Node000009" class="edge">
<title>Node2&#45;&gt;Node9</title>
<g id="a_edge8_Node000002_Node000009"><a xlink:title=" ">
<path fill="none" stroke="#63b8ff" d="M226.74,-37.67C241.51,-33.25 259.63,-27.84 276,-22.95"/>
<polygon fill="#63b8ff" stroke="#63b8ff" points="276.95,-26.32 285.53,-20.11 274.95,-19.61 276.95,-26.32"/>
</a>
</g>
</g>
<!-- Node4 -->
<g id="Node000004" class="node">
<title>Node4</title>
<g id="a_Node000004"><a target="_blank" xlink:href="http://en.cppreference.com/w/cpp/container/vector/begin.html#" xlink:title=" ">
<polygon fill="white" stroke="#666666" points="514,-157.25 417,-157.25 417,-138 514,-138 514,-157.25"/>
<text text-anchor="middle" x="465.5" y="-143.75" font-family="Helvetica,sans-Serif" font-size="10.00">std::vector::cbegin</text>
</a>
</g>
</g>
<!-- Node3&#45;&gt;Node4 -->
<g id="edge3_Node000003_Node000004" class="edge">
<title>Node3&#45;&gt;Node4</title>
<g id="a_edge3_Node000003_Node000004"><a xlink:title=" ">
<path fill="none" stroke="#63b8ff" d="M347.83,-102.6C366.82,-110.09 393.52,-120.57 417,-129.62 420.37,-130.93 423.89,-132.27 427.4,-133.61"/>
<polygon fill="#63b8ff" stroke="#63b8ff" points="425.84,-136.77 436.44,-137.05 428.33,-130.22 425.84,-136.77"/>
</a>
</g>
</g>
<!-- Node5 -->
<g id="Node000005" class="node">
<title>Node5</title>
<g id="a_Node000005"><a target="_blank" xlink:href="http://en.cppreference.com/w/cpp/container/vector/end.html#" xlink:title=" ">
<polygon fill="white" stroke="#666666" points="510.25,-120.25 420.75,-120.25 420.75,-101 510.25,-101 510.25,-120.25"/>
<text text-anchor="middle" x="465.5" y="-106.75" font-family="Helvetica,sans-Serif" font-size="10.00">std::vector::cend</text>
</a>
</g>
</g>
<!-- Node3&#45;&gt;Node5 -->
<g id="edge4_Node000003_Node000005" class="edge">
<title>Node3&#45;&gt;Node5</title>
<g id="a_edge4_Node000003_Node000005"><a xlink:title=" ">
<path fill="none" stroke="#63b8ff" d="M381.15,-100.05C390.38,-101.22 399.9,-102.43 409.06,-103.59"/>
<polygon fill="#63b8ff" stroke="#63b8ff" points="408.56,-107.06 418.92,-104.84 409.44,-100.11 408.56,-107.06"/>
</a>
</g>
</g>
<!-- Node6 -->
<g id="Node000006" class="node">
<title>Node6</title>
<g id="a_Node000006"><a target="_blank" xlink:href="http://en.cppreference.com/w/cpp/container/vector/size.html#" xlink:title=" ">
<polygon fill="white" stroke="#666666" points="508.75,-83.25 422.25,-83.25 422.25,-64 508.75,-64 508.75,-83.25"/>
<text text-anchor="middle" x="465.5" y="-69.75" font-family="Helvetica,sans-Serif" font-size="10.00">std::vector::size</text>
</a>
</g>
</g>
<!-- Node3&#45;&gt;Node6 -->
<g id="edge5_Node000003_Node000006" class="edge">
<title>Node3&#45;&gt;Node6</title>
<g id="a_edge5_Node000003_Node000006"><a xlink:title=" ">
<path fill="none" stroke="#63b8ff" d="M381.15,-84.79C391.03,-83.46 401.23,-82.1 410.97,-80.79"/>
<polygon fill="#63b8ff" stroke="#63b8ff" points="411.2,-84.29 420.64,-79.5 410.27,-77.36 411.2,-84.29"/>
</a>
</g>
</g>
<!-- Node8 -->
<g id="Node000008" class="node">
<title>Node8</title>
<g id="a_Node000008"><a xlink:href="../../df/def/power__for__huge__numbers_8cpp.html#aa141a7904f0c4668bac112d652a3acf9" target="_top" xlink:title=" ">
<polygon fill="white" stroke="#666666" points="490.38,-46.25 440.62,-46.25 440.62,-27 490.38,-27 490.38,-46.25"/>
<text text-anchor="middle" x="465.5" y="-32.75" font-family="Helvetica,sans-Serif" font-size="10.00">multiply</text>
</a>
</g>
</g>
<!-- Node7&#45;&gt;Node8 -->
<g id="edge7_Node000007_Node000008" class="edge">
<title>Node7&#45;&gt;Node8</title>
<g id="a_edge7_Node000007_Node000008"><a xlink:title=" ">
<path fill="none" stroke="#63b8ff" d="M342.95,-45.19C365.38,-43.61 401.88,-41.04 429.05,-39.12"/>
<polygon fill="#63b8ff" stroke="#63b8ff" points="429.17,-42.62 438.9,-38.43 428.68,-35.64 429.17,-42.62"/>
</a>
</g>
</g>
</g>
</svg>

<g id="navigator" transform="translate(0 0)" fill="#404254">
  <rect fill="#f2f5e9" fill-opacity="0.5" stroke="#606060" stroke-width=".5" x="0" y="0" width="60" height="60"/>
  <use id="zoomplus" xlink:href="#zoomPlus" x="17" y="9" onmousedown="handleZoom(evt,'in')"/>
  <use id="zoomminus" xlink:href="#zoomMin" x="42" y="9" onmousedown="handleZoom(evt,'out')"/>
  <use id="reset" xlink:href="#resetDef" x="30" y="36" onmousedown="handleReset()"/>
   <use id="arrowup" xlink:href="#arrowUp" x="0" y="0" onmousedown="handlePan(0,-1)"/>
  <use id="arrowright" xlink:href="#arrowRight" x="0" y="0" onmousedown="handlePan(1,0)"/>
  <use id="arrowdown" xlink:href="#arrowDown" x="0" y="0" onmousedown="handlePan(0,1)"/>
  <use id="arrowleft" xlink:href="#arrowLeft" x="0" y="0" onmousedown="handlePan(-1,0)"/>
</g>
<svg viewBox="0 0 15 15" width="100%" height="30px" preserveAspectRatio="xMaxYMin meet">
 <g id="arrow_out" transform="scale(0.3 0.3)">
  <a xlink:href="miller__rabin_8cpp_a901288288ef5ebe8e97414cc30797cce_cgraph_org.svg" target="_base">
   <rect id="button" ry="5" rx="5" y="6" x="6" height="38" width="38"
        fill="#f2f5e9" fill-opacity="0.5" stroke="#606060" stroke-width="1.0"/>
   <path id="arrow"
     d="M 11.500037,31.436501 C 11.940474,20.09759 22.043105,11.32322 32.158766,21.979434 L 37.068811,17.246167 C 37.068811,17.246167 37.088388,32 37.088388,32 L 22.160133,31.978069 C 22.160133,31.978069 26.997745,27.140456 26.997745,27.140456 C 18.528582,18.264221 13.291696,25.230495 11.500037,31.436501 z"
     style="fill:#404040;"/>
  </a>
 </g>
</svg>

<style type='text/css'>
<![CDATA[
[data-mouse-over-selected='false'] { opacity: 0.7; }
[data-mouse-over-selected='true']  { opacity: 1.0; }
]]>
</style>
<script type="application/ecmascript"><![CDATA[
document.addEventListener('DOMContentLoaded', (event) => {
  highlightEdges();
  highlightAdjacentNodes();
});
]]></script>
</svg>
