<?xml version="1.0" encoding="UTF-8" standalone="no"?>
<!DOCTYPE svg PUBLIC "-//W3C//DTD SVG 1.1//EN"
 "http://www.w3.org/Graphics/SVG/1.1/DTD/svg11.dtd">
<!-- Generated by graphviz version 2.49.3 (20211023.0002)
 -->
<!-- Title: numerical_methods::midpoint_rule::g Pages: 1 -->
<svg width="207pt" height="66pt"
 viewBox="0.00 0.00 207.00 66.00" xmlns="http://www.w3.org/2000/svg" xmlns:xlink="http://www.w3.org/1999/xlink">
<g id="graph0" class="graph" transform="scale(1 1) rotate(0) translate(4 62)">
<title>numerical_methods::midpoint_rule::g</title>
<polygon fill="white" stroke="transparent" points="-4,4 -4,-62 203,-62 203,4 -4,4"/>
<!-- Node1 -->
<g id="node1" class="node">
<title>Node1</title>
<g id="a_node1"><a xlink:title="A function g(x) that will be used to test the method.">
<polygon fill="#bfbfbf" stroke="black" points="0,-14 0,-44 109,-44 109,-14 0,-14"/>
<text text-anchor="start" x="8" y="-32" font-family="Helvetica,sans-Serif" font-size="10.00">numerical_methods::</text>
<text text-anchor="middle" x="54.5" y="-21" font-family="Helvetica,sans-Serif" font-size="10.00">midpoint_rule::g</text>
</a>
</g>
</g>
<!-- Node2 -->
<g id="node2" class="node">
<title>Node2</title>
<g id="a_node2"><a target="_blank" xlink:href="http://en.cppreference.com/w/cpp/numeric/math/exp.html#" xlink:title=" ">
<polygon fill="white" stroke="black" points="146,-38.5 146,-57.5 198,-57.5 198,-38.5 146,-38.5"/>
<text text-anchor="middle" x="172" y="-45.5" font-family="Helvetica,sans-Serif" font-size="10.00">std::exp</text>
</a>
</g>
</g>
<!-- Node1&#45;&gt;Node2 -->
<g id="edge1" class="edge">
<title>Node1&#45;&gt;Node2</title>
<path fill="none" stroke="midnightblue" d="M109.19,-37.83C118.32,-39.33 127.59,-40.86 136.07,-42.25"/>
<polygon fill="midnightblue" stroke="midnightblue" points="135.53,-45.71 145.97,-43.88 136.67,-38.81 135.53,-45.71"/>
</g>
<!-- Node3 -->
<g id="node3" class="node">
<title>Node3</title>
<g id="a_node3"><a target="_blank" xlink:href="http://en.cppreference.com/w/cpp/numeric/math/pow.html#" xlink:title=" ">
<polygon fill="white" stroke="black" points="145,-0.5 145,-19.5 199,-19.5 199,-0.5 145,-0.5"/>
<text text-anchor="middle" x="172" y="-7.5" font-family="Helvetica,sans-Serif" font-size="10.00">std::pow</text>
</a>
</g>
</g>
<!-- Node1&#45;&gt;Node3 -->
<g id="edge2" class="edge">
<title>Node1&#45;&gt;Node3</title>
<path fill="none" stroke="midnightblue" d="M109.19,-20.17C117.89,-18.74 126.71,-17.29 134.86,-15.94"/>
<polygon fill="midnightblue" stroke="midnightblue" points="135.47,-19.39 144.77,-14.32 134.33,-12.48 135.47,-19.39"/>
</g>
</g>
</svg>
