<?xml version="1.0" encoding="UTF-8" standalone="no"?>
<!DOCTYPE svg PUBLIC "-//W3C//DTD SVG 1.1//EN"
 "http://www.w3.org/Graphics/SVG/1.1/DTD/svg11.dtd">
<!-- Generated by graphviz version 5.0.0 (20220707.1540)
 -->
<!-- Title: tests::test4 Pages: 1 -->
<svg width="378pt" height="135pt"
 viewBox="0.00 0.00 378.00 134.50" xmlns="http://www.w3.org/2000/svg" xmlns:xlink="http://www.w3.org/1999/xlink">
<g id="graph0" class="graph" transform="scale(1 1) rotate(0) translate(4 130.5)">
<title>tests::test4</title>
<polygon fill="white" stroke="transparent" points="-4,4 -4,-130.5 374,-130.5 374,4 -4,4"/>
<!-- Node1 -->
<g id="node1" class="node">
<title>Node1</title>
<g id="a_node1"><a xlink:title="A Test to check a very large input.">
<polygon fill="#bfbfbf" stroke="black" points="0,-50 0,-69 66,-69 66,-50 0,-50"/>
<text text-anchor="middle" x="33" y="-57" font-family="Helvetica,sans-Serif" font-size="10.00">tests::test4</text>
</a>
</g>
</g>
<!-- Node2 -->
<g id="node2" class="node">
<title>Node2</title>
<g id="a_node2"><a xlink:href="../../d8/ddf/sieve__of__eratosthenes_8cpp.html#a235843bdf82d2a6cc8596ae8fd3b8df9" target="_top" xlink:title=" ">
<polygon fill="white" stroke="black" points="157,-88 157,-107 192,-107 192,-88 157,-88"/>
<text text-anchor="middle" x="174.5" y="-95" font-family="Helvetica,sans-Serif" font-size="10.00">print</text>
</a>
</g>
</g>
<!-- Node1&#45;&gt;Node2 -->
<g id="edge1" class="edge">
<title>Node1&#45;&gt;Node2</title>
<path fill="none" stroke="midnightblue" d="M66.15,-68.57C77.47,-71.74 90.29,-75.31 102,-78.5 116.76,-82.52 133.27,-86.92 146.71,-90.47"/>
<polygon fill="midnightblue" stroke="midnightblue" points="146.16,-93.94 156.73,-93.11 147.95,-87.17 146.16,-93.94"/>
</g>
<!-- Node5 -->
<g id="node5" class="node">
<title>Node5</title>
<g id="a_node5"><a target="_blank" xlink:href="http://en.cppreference.com/w/cpp/container/vector/push_back.html#" xlink:title=" ">
<polygon fill="white" stroke="black" points="116.5,-50 116.5,-69 232.5,-69 232.5,-50 116.5,-50"/>
<text text-anchor="middle" x="174.5" y="-57" font-family="Helvetica,sans-Serif" font-size="10.00">std::vector::push_back</text>
</a>
</g>
</g>
<!-- Node1&#45;&gt;Node5 -->
<g id="edge4" class="edge">
<title>Node1&#45;&gt;Node5</title>
<path fill="none" stroke="midnightblue" d="M66,-59.5C78.04,-59.5 92.23,-59.5 106.28,-59.5"/>
<polygon fill="midnightblue" stroke="midnightblue" points="106.45,-63 116.45,-59.5 106.45,-56 106.45,-63"/>
</g>
<!-- Node6 -->
<g id="node6" class="node">
<title>Node6</title>
<g id="a_node6"><a xlink:href="../../da/d6d/namespaceoperations__on__datastructures.html#afce39cf843989a39811a49ebe29dd6d8" target="_top" xlink:title="Shifts the given vector to the left by the shift amount and returns a new vector with the result....">
<polygon fill="white" stroke="black" points="102,-0.5 102,-30.5 247,-30.5 247,-0.5 102,-0.5"/>
<text text-anchor="start" x="110" y="-18.5" font-family="Helvetica,sans-Serif" font-size="10.00">operations_on_datastructures</text>
<text text-anchor="middle" x="174.5" y="-7.5" font-family="Helvetica,sans-Serif" font-size="10.00">::shift_left</text>
</a>
</g>
</g>
<!-- Node1&#45;&gt;Node6 -->
<g id="edge5" class="edge">
<title>Node1&#45;&gt;Node6</title>
<path fill="none" stroke="midnightblue" d="M64.27,-49.95C79.41,-45.18 98.26,-39.23 116.02,-33.63"/>
<polygon fill="midnightblue" stroke="midnightblue" points="117.25,-36.91 125.74,-30.57 115.15,-30.24 117.25,-36.91"/>
</g>
<!-- Node3 -->
<g id="node3" class="node">
<title>Node3</title>
<g id="a_node3"><a target="_blank" xlink:href="http://en.cppreference.com/w/cpp/io/manip/endl.html#" xlink:title=" ">
<polygon fill="white" stroke="black" points="299.5,-107 299.5,-126 353.5,-126 353.5,-107 299.5,-107"/>
<text text-anchor="middle" x="326.5" y="-114" font-family="Helvetica,sans-Serif" font-size="10.00">std::endl</text>
</a>
</g>
</g>
<!-- Node2&#45;&gt;Node3 -->
<g id="edge2" class="edge">
<title>Node2&#45;&gt;Node3</title>
<path fill="none" stroke="midnightblue" d="M192.13,-99.61C215.43,-102.56 258.4,-108 289.28,-111.91"/>
<polygon fill="midnightblue" stroke="midnightblue" points="288.88,-115.39 299.24,-113.17 289.76,-108.44 288.88,-115.39"/>
</g>
<!-- Node4 -->
<g id="node4" class="node">
<title>Node4</title>
<g id="a_node4"><a xlink:href="../../db/d93/check__prime_8cpp.html#aa18b3517017d99bb4024853bddba5532" target="_top" xlink:title="for IO operations">
<polygon fill="white" stroke="black" points="300,-69 300,-88 353,-88 353,-69 300,-69"/>
<text text-anchor="middle" x="326.5" y="-76" font-family="Helvetica,sans-Serif" font-size="10.00">is_prime</text>
</a>
</g>
</g>
<!-- Node2&#45;&gt;Node4 -->
<g id="edge3" class="edge">
<title>Node2&#45;&gt;Node4</title>
<path fill="none" stroke="midnightblue" d="M192.13,-95.39C215.56,-92.43 258.91,-86.94 289.82,-83.02"/>
<polygon fill="midnightblue" stroke="midnightblue" points="290.3,-86.49 299.78,-81.76 289.42,-79.54 290.3,-86.49"/>
</g>
<!-- Node7 -->
<g id="node7" class="node">
<title>Node7</title>
<g id="a_node7"><a target="_blank" xlink:href="http://en.cppreference.com/w/cpp/container/vector/size.html#" xlink:title=" ">
<polygon fill="white" stroke="black" points="283,-6 283,-25 370,-25 370,-6 283,-6"/>
<text text-anchor="middle" x="326.5" y="-13" font-family="Helvetica,sans-Serif" font-size="10.00">std::vector::size</text>
</a>
</g>
</g>
<!-- Node6&#45;&gt;Node7 -->
<g id="edge6" class="edge">
<title>Node6&#45;&gt;Node7</title>
<path fill="none" stroke="midnightblue" d="M247.42,-15.5C255.88,-15.5 264.39,-15.5 272.53,-15.5"/>
<polygon fill="midnightblue" stroke="midnightblue" points="272.59,-19 282.59,-15.5 272.59,-12 272.59,-19"/>
</g>
</g>
</svg>
