<?xml version="1.0" encoding="UTF-8" standalone="no"?>
<!DOCTYPE svg PUBLIC "-//W3C//DTD SVG 1.1//EN"
 "http://www.w3.org/Graphics/SVG/1.1/DTD/svg11.dtd">
<!-- Generated by graphviz version 8.0.2 (20230410.1723)
 -->
<!-- Title: main Pages: 1 -->
<svg width="570pt" height="708pt"
 viewBox="0.00 0.00 570.00 707.56" xmlns="http://www.w3.org/2000/svg" xmlns:xlink="http://www.w3.org/1999/xlink">
<g id="graph0" class="graph" transform="scale(1 1) rotate(0) translate(4 703.56)">
<title>main</title>
<!-- Node1 -->
<g id="node1" class="node">
<title>Node1</title>
<g id="a_node1"><a xlink:title=" ">
<polygon fill="#999999" stroke="#666666" points="38,-478 0,-478 0,-459 38,-459 38,-478"/>
<text text-anchor="middle" x="19" y="-466" font-family="Helvetica,sans-Serif" font-size="10.00">main</text>
</a>
</g>
</g>
<!-- Node2 -->
<g id="node2" class="node">
<title>Node2</title>
<g id="a_node2"><a xlink:href="../../d2/de9/heavy__light__decomposition_8cpp.html#a34b8683a2b429de5cce57e6d733ec817" target="_top" xlink:title=" ">
<polygon fill="white" stroke="#666666" points="118,-478 74,-478 74,-459 118,-459 118,-478"/>
<text text-anchor="middle" x="96" y="-466" font-family="Helvetica,sans-Serif" font-size="10.00">test_1</text>
</a>
</g>
</g>
<!-- Node1&#45;&gt;Node2 -->
<g id="edge1" class="edge">
<title>Node1&#45;&gt;Node2</title>
<path fill="none" stroke="#63b8ff" d="M38.16,-468.5C45.57,-468.5 54.38,-468.5 62.81,-468.5"/>
<polygon fill="#63b8ff" stroke="#63b8ff" points="62.55,-472 72.55,-468.5 62.55,-465 62.55,-472"/>
</g>
<!-- Node22 -->
<g id="node22" class="node">
<title>Node22</title>
<g id="a_node22"><a xlink:href="../../d2/de9/heavy__light__decomposition_8cpp.html#a458410412185a5f09199deaff7157a8d" target="_top" xlink:title=" ">
<polygon fill="white" stroke="#666666" points="118,-521 74,-521 74,-502 118,-502 118,-521"/>
<text text-anchor="middle" x="96" y="-509" font-family="Helvetica,sans-Serif" font-size="10.00">test_2</text>
</a>
</g>
</g>
<!-- Node1&#45;&gt;Node22 -->
<g id="edge29" class="edge">
<title>Node1&#45;&gt;Node22</title>
<path fill="none" stroke="#63b8ff" d="M37.4,-478.47C46.58,-483.74 58.04,-490.31 68.32,-496.2"/>
<polygon fill="#63b8ff" stroke="#63b8ff" points="66.28,-499.64 76.7,-501.58 69.76,-493.57 66.28,-499.64"/>
</g>
<!-- Node23 -->
<g id="node23" class="node">
<title>Node23</title>
<g id="a_node23"><a xlink:href="../../d2/de9/heavy__light__decomposition_8cpp.html#af31ec5409537703d9c8a47350386b32a" target="_top" xlink:title=" ">
<polygon fill="white" stroke="#666666" points="118,-405 74,-405 74,-386 118,-386 118,-405"/>
<text text-anchor="middle" x="96" y="-393" font-family="Helvetica,sans-Serif" font-size="10.00">test_3</text>
</a>
</g>
</g>
<!-- Node1&#45;&gt;Node23 -->
<g id="edge37" class="edge">
<title>Node1&#45;&gt;Node23</title>
<path fill="none" stroke="#63b8ff" d="M30.11,-458.65C42.26,-446.83 62.83,-426.81 77.56,-412.48"/>
<polygon fill="#63b8ff" stroke="#63b8ff" points="79.32,-415.67 84.05,-406.19 74.44,-410.66 79.32,-415.67"/>
</g>
<!-- Node3 -->
<g id="node3" class="node">
<title>Node3</title>
<g id="a_node3"><a xlink:href="../../d1/d51/classrange__queries_1_1heavy__light__decomposition_1_1_tree.html#a79ab4601c4a95c0902ac04e779e5f54d" target="_top" xlink:title="Adds an undirected edge from node u to node v in the tree.">
<polygon fill="white" stroke="#666666" points="264,-440 154,-440 154,-399 264,-399 264,-440"/>
<text text-anchor="start" x="162" y="-428" font-family="Helvetica,sans-Serif" font-size="10.00">range_queries::heavy</text>
<text text-anchor="start" x="162" y="-417" font-family="Helvetica,sans-Serif" font-size="10.00">_light_decomposition</text>
<text text-anchor="middle" x="209" y="-406" font-family="Helvetica,sans-Serif" font-size="10.00">::Tree::add_edge</text>
</a>
</g>
</g>
<!-- Node2&#45;&gt;Node3 -->
<g id="edge2" class="edge">
<title>Node2&#45;&gt;Node3</title>
<path fill="none" stroke="#63b8ff" d="M118.4,-459.05C127.66,-454.97 138.98,-449.97 150.43,-444.92"/>
<polygon fill="#63b8ff" stroke="#63b8ff" points="151.73,-447.73 159.46,-440.48 148.9,-441.32 151.73,-447.73"/>
</g>
<!-- Node4 -->
<g id="node4" class="node">
<title>Node4</title>
<g id="a_node4"><a target="_blank" xlink:href="http://en.cppreference.com/w/cpp/container/vector/push_back.html#" xlink:title=" ">
<polygon fill="white" stroke="#666666" points="416,-472 300,-472 300,-453 416,-453 416,-472"/>
<text text-anchor="middle" x="358" y="-460" font-family="Helvetica,sans-Serif" font-size="10.00">std::vector::push_back</text>
</a>
</g>
</g>
<!-- Node2&#45;&gt;Node4 -->
<g id="edge17" class="edge">
<title>Node2&#45;&gt;Node4</title>
<path fill="none" stroke="#63b8ff" d="M118.28,-468.01C155.14,-467.16 232.35,-465.38 289.02,-464.07"/>
<polygon fill="#63b8ff" stroke="#63b8ff" points="288.79,-467.55 298.71,-463.82 288.63,-460.55 288.79,-467.55"/>
</g>
<!-- Node5 -->
<g id="node5" class="node">
<title>Node5</title>
<g id="a_node5"><a xlink:href="../../d2/d8a/classrange__queries_1_1heavy__light__decomposition_1_1_h_l_d.html#ae9e979edd69678b85665c01e2ee97828" target="_top" xlink:title="This function must be called after the tree adjacency list and node values are populated The function...">
<polygon fill="white" stroke="#666666" points="264,-244 154,-244 154,-203 264,-203 264,-244"/>
<text text-anchor="start" x="162" y="-232" font-family="Helvetica,sans-Serif" font-size="10.00">range_queries::heavy</text>
<text text-anchor="start" x="162" y="-221" font-family="Helvetica,sans-Serif" font-size="10.00">_light_decomposition</text>
<text text-anchor="middle" x="209" y="-210" font-family="Helvetica,sans-Serif" font-size="10.00">::HLD::init</text>
</a>
</g>
</g>
<!-- Node2&#45;&gt;Node5 -->
<g id="edge4" class="edge">
<title>Node2&#45;&gt;Node5</title>
<path fill="none" stroke="#63b8ff" d="M101.12,-458.64C105.55,-447.88 112.67,-430.11 118,-414.5 136.26,-361 128.12,-342.76 154,-292.5 161.28,-278.35 171.63,-264.25 181.32,-252.51"/>
<polygon fill="#63b8ff" stroke="#63b8ff" points="184.4,-255.3 188.21,-245.41 179.07,-250.76 184.4,-255.3"/>
</g>
<!-- Node13 -->
<g id="node13" class="node">
<title>Node13</title>
<g id="a_node13"><a xlink:href="../../d2/d8a/classrange__queries_1_1heavy__light__decomposition_1_1_h_l_d.html#a4dfbf5d9df825eeb63b294c6849bdcab" target="_top" xlink:title="This function returns the sum of node values in the simple path from from node_1 to node_2.">
<polygon fill="white" stroke="#666666" points="264,-342 154,-342 154,-301 264,-301 264,-342"/>
<text text-anchor="start" x="162" y="-330" font-family="Helvetica,sans-Serif" font-size="10.00">range_queries::heavy</text>
<text text-anchor="start" x="162" y="-319" font-family="Helvetica,sans-Serif" font-size="10.00">_light_decomposition</text>
<text text-anchor="middle" x="209" y="-308" font-family="Helvetica,sans-Serif" font-size="10.00">::HLD::query</text>
</a>
</g>
</g>
<!-- Node2&#45;&gt;Node13 -->
<g id="edge18" class="edge">
<title>Node2&#45;&gt;Node13</title>
<path fill="none" stroke="#63b8ff" d="M103.92,-458.82C114.54,-444 135.59,-414.85 154,-390.5 163.89,-377.42 175.03,-363.12 184.61,-350.94"/>
<polygon fill="#63b8ff" stroke="#63b8ff" points="187.83,-353.52 191.27,-343.5 182.33,-349.18 187.83,-353.52"/>
</g>
<!-- Node18 -->
<g id="node18" class="node">
<title>Node18</title>
<g id="a_node18"><a xlink:href="../../d1/d51/classrange__queries_1_1heavy__light__decomposition_1_1_tree.html#a04cd96efaba147b19d3afc769b90ff70" target="_top" xlink:title="Set the values for all the nodes.">
<polygon fill="white" stroke="#666666" points="264,-538 154,-538 154,-497 264,-497 264,-538"/>
<text text-anchor="start" x="162" y="-526" font-family="Helvetica,sans-Serif" font-size="10.00">range_queries::heavy</text>
<text text-anchor="start" x="162" y="-515" font-family="Helvetica,sans-Serif" font-size="10.00">_light_decomposition</text>
<text text-anchor="middle" x="209" y="-504" font-family="Helvetica,sans-Serif" font-size="10.00">::Tree::set_node_val</text>
</a>
</g>
</g>
<!-- Node2&#45;&gt;Node18 -->
<g id="edge24" class="edge">
<title>Node2&#45;&gt;Node18</title>
<path fill="none" stroke="#63b8ff" d="M118.4,-477.95C127.66,-482.03 138.98,-487.03 150.43,-492.08"/>
<polygon fill="#63b8ff" stroke="#63b8ff" points="148.9,-495.68 159.46,-496.52 151.73,-489.27 148.9,-495.68"/>
</g>
<!-- Node19 -->
<g id="node19" class="node">
<title>Node19</title>
<g id="a_node19"><a target="_blank" xlink:href="http://en.cppreference.com/w/cpp/container/vector/size.html#" xlink:title=" ">
<polygon fill="white" stroke="#666666" points="401.5,-552 314.5,-552 314.5,-533 401.5,-533 401.5,-552"/>
<text text-anchor="middle" x="358" y="-540" font-family="Helvetica,sans-Serif" font-size="10.00">std::vector::size</text>
</a>
</g>
</g>
<!-- Node2&#45;&gt;Node19 -->
<g id="edge26" class="edge">
<title>Node2&#45;&gt;Node19</title>
<path fill="none" stroke="#63b8ff" d="M105.43,-478.03C109.37,-482.61 114.06,-488.24 118,-493.5 135.3,-516.58 128.57,-533.89 154,-547.5 204.14,-574.34 271.71,-565.36 314.82,-555.06"/>
<polygon fill="#63b8ff" stroke="#63b8ff" points="315.39,-558.27 324.23,-552.43 313.68,-551.48 315.39,-558.27"/>
</g>
<!-- Node20 -->
<g id="node20" class="node">
<title>Node20</title>
<g id="a_node20"><a xlink:href="../../d2/d8a/classrange__queries_1_1heavy__light__decomposition_1_1_h_l_d.html#a9f1cb54ed09fde931bf3220d75ee4c57" target="_top" xlink:title="This function updates the value at node with val.">
<polygon fill="white" stroke="#666666" points="264,-636 154,-636 154,-595 264,-595 264,-636"/>
<text text-anchor="start" x="162" y="-624" font-family="Helvetica,sans-Serif" font-size="10.00">range_queries::heavy</text>
<text text-anchor="start" x="162" y="-613" font-family="Helvetica,sans-Serif" font-size="10.00">_light_decomposition</text>
<text text-anchor="middle" x="209" y="-602" font-family="Helvetica,sans-Serif" font-size="10.00">::HLD::update</text>
</a>
</g>
</g>
<!-- Node2&#45;&gt;Node20 -->
<g id="edge27" class="edge">
<title>Node2&#45;&gt;Node20</title>
<path fill="none" stroke="#63b8ff" d="M106.33,-478.18C110.27,-482.61 114.71,-488.07 118,-493.5 139.71,-529.27 127.23,-548.33 154,-580.5 156.18,-583.12 158.61,-585.61 161.19,-587.97"/>
<polygon fill="#63b8ff" stroke="#63b8ff" points="158.37,-591 168.32,-594.63 162.81,-585.59 158.37,-591"/>
</g>
<!-- Node3&#45;&gt;Node4 -->
<g id="edge3" class="edge">
<title>Node3&#45;&gt;Node4</title>
<path fill="none" stroke="#63b8ff" d="M264.32,-435.39C280.27,-440.05 297.51,-445.1 312.75,-449.56"/>
<polygon fill="#63b8ff" stroke="#63b8ff" points="311.36,-453.09 321.94,-452.54 313.33,-446.37 311.36,-453.09"/>
</g>
<!-- Node6 -->
<g id="node6" class="node">
<title>Node6</title>
<g id="a_node6"><a xlink:href="../../d9/d35/classrange__queries_1_1heavy__light__decomposition_1_1_s_g.html#a41c733f5f5e262b308f7cb95c88c1e74" target="_top" xlink:title="Function that specifies the type of operation involved when segments are combined.">
<polygon fill="white" stroke="#666666" points="562,-283 452,-283 452,-242 562,-242 562,-283"/>
<text text-anchor="start" x="460" y="-271" font-family="Helvetica,sans-Serif" font-size="10.00">range_queries::heavy</text>
<text text-anchor="start" x="460" y="-260" font-family="Helvetica,sans-Serif" font-size="10.00">_light_decomposition</text>
<text text-anchor="middle" x="507" y="-249" font-family="Helvetica,sans-Serif" font-size="10.00">::SG::combine</text>
</a>
</g>
</g>
<!-- Node5&#45;&gt;Node6 -->
<g id="edge5" class="edge">
<title>Node5&#45;&gt;Node6</title>
<path fill="none" stroke="#63b8ff" d="M264.42,-227.12C306.07,-230.3 364.86,-235.64 416,-243.5 424.21,-244.76 432.8,-246.3 441.28,-247.94"/>
<polygon fill="#63b8ff" stroke="#63b8ff" points="440.43,-251.54 450.92,-250.07 441.8,-244.67 440.43,-251.54"/>
</g>
<!-- Node7 -->
<g id="node7" class="node">
<title>Node7</title>
<g id="a_node7"><a xlink:href="../../d2/d8a/classrange__queries_1_1heavy__light__decomposition_1_1_h_l_d.html#af64848d6630c39d0f09ce2359cc7c4f8" target="_top" xlink:title="Utility function to assign heavy child to each node (&#45;1 for a leaf node)">
<polygon fill="white" stroke="#666666" points="413,-41 303,-41 303,0 413,0 413,-41"/>
<text text-anchor="start" x="311" y="-29" font-family="Helvetica,sans-Serif" font-size="10.00">range_queries::heavy</text>
<text text-anchor="start" x="311" y="-18" font-family="Helvetica,sans-Serif" font-size="10.00">_light_decomposition</text>
<text text-anchor="middle" x="358" y="-7" font-family="Helvetica,sans-Serif" font-size="10.00">::HLD::dfs_hc</text>
</a>
</g>
</g>
<!-- Node5&#45;&gt;Node7 -->
<g id="edge6" class="edge">
<title>Node5&#45;&gt;Node7</title>
<path fill="none" stroke="#63b8ff" d="M219.2,-202.75C233.62,-171.59 263.68,-111.75 300,-68.5 305.92,-61.45 312.95,-54.61 320.02,-48.41"/>
<polygon fill="#63b8ff" stroke="#63b8ff" points="321.89,-50.57 327.27,-41.45 317.37,-45.22 321.89,-50.57"/>
</g>
<!-- Node8 -->
<g id="node8" class="node">
<title>Node8</title>
<g id="a_node8"><a xlink:href="../../d2/d8a/classrange__queries_1_1heavy__light__decomposition_1_1_h_l_d.html#a0579062b384e54b611b80c6337c7f2c8" target="_top" xlink:title="Utility function to lable the nodes so that heavy chains have a contigous lable.">
<polygon fill="white" stroke="#666666" points="413,-293 303,-293 303,-252 413,-252 413,-293"/>
<text text-anchor="start" x="311" y="-281" font-family="Helvetica,sans-Serif" font-size="10.00">range_queries::heavy</text>
<text text-anchor="start" x="311" y="-270" font-family="Helvetica,sans-Serif" font-size="10.00">_light_decomposition</text>
<text text-anchor="middle" x="358" y="-259" font-family="Helvetica,sans-Serif" font-size="10.00">::HLD::dfs_labels</text>
</a>
</g>
</g>
<!-- Node5&#45;&gt;Node8 -->
<g id="edge8" class="edge">
<title>Node5&#45;&gt;Node8</title>
<path fill="none" stroke="#63b8ff" d="M264.32,-241.61C273.57,-244.69 283.25,-247.92 292.73,-251.08"/>
<polygon fill="#63b8ff" stroke="#63b8ff" points="291.31,-254.63 301.9,-254.47 293.52,-247.99 291.31,-254.63"/>
</g>
<!-- Node9 -->
<g id="node9" class="node">
<title>Node9</title>
<g id="a_node9"><a xlink:href="../../d2/d8a/classrange__queries_1_1heavy__light__decomposition_1_1_h_l_d.html#a2dfbda148aad0bfaba2ebfda9ebc915a" target="_top" xlink:title="Utility function to assign highest parent that can be reached though heavy chains.">
<polygon fill="white" stroke="#666666" points="413,-177 303,-177 303,-136 413,-136 413,-177"/>
<text text-anchor="start" x="311" y="-165" font-family="Helvetica,sans-Serif" font-size="10.00">range_queries::heavy</text>
<text text-anchor="start" x="311" y="-154" font-family="Helvetica,sans-Serif" font-size="10.00">_light_decomposition</text>
<text text-anchor="middle" x="358" y="-143" font-family="Helvetica,sans-Serif" font-size="10.00">::HLD::dfs_par</text>
</a>
</g>
</g>
<!-- Node5&#45;&gt;Node9 -->
<g id="edge10" class="edge">
<title>Node5&#45;&gt;Node9</title>
<path fill="none" stroke="#63b8ff" d="M255.71,-202.67C270.16,-196.08 286.29,-188.73 301.35,-181.86"/>
<polygon fill="#63b8ff" stroke="#63b8ff" points="302.42,-184.77 310.07,-177.43 299.52,-178.4 302.42,-184.77"/>
</g>
<!-- Node10 -->
<g id="node10" class="node">
<title>Node10</title>
<g id="a_node10"><a xlink:href="../../d1/d51/classrange__queries_1_1heavy__light__decomposition_1_1_tree.html#ad22d760a5a33545a70e7ea5e1786c8dc" target="_top" xlink:title="This function must be called after the tree adjacency list and node values are populated The function...">
<polygon fill="white" stroke="#666666" points="413,-118 303,-118 303,-77 413,-77 413,-118"/>
<text text-anchor="start" x="311" y="-106" font-family="Helvetica,sans-Serif" font-size="10.00">range_queries::heavy</text>
<text text-anchor="start" x="311" y="-95" font-family="Helvetica,sans-Serif" font-size="10.00">_light_decomposition</text>
<text text-anchor="middle" x="358" y="-84" font-family="Helvetica,sans-Serif" font-size="10.00">::Tree::init</text>
</a>
</g>
</g>
<!-- Node5&#45;&gt;Node10 -->
<g id="edge12" class="edge">
<title>Node5&#45;&gt;Node10</title>
<path fill="none" stroke="#63b8ff" d="M225.9,-202.86C242.69,-182.01 270.74,-149.79 300,-127.5 301.44,-126.41 302.92,-125.33 304.44,-124.27"/>
<polygon fill="#63b8ff" stroke="#63b8ff" points="305.92,-126.84 312.42,-118.47 302.12,-120.96 305.92,-126.84"/>
</g>
<!-- Node7&#45;&gt;Node7 -->
<g id="edge7" class="edge">
<title>Node7&#45;&gt;Node7</title>
<path fill="none" stroke="#63b8ff" d="M330.5,-41.49C327.88,-50.88 337.05,-59 358,-59 370.44,-59 378.73,-56.14 382.86,-51.85"/>
<polygon fill="#63b8ff" stroke="#63b8ff" points="386.42,-53.04 385.5,-42.49 379.64,-51.31 386.42,-53.04"/>
</g>
<!-- Node8&#45;&gt;Node8 -->
<g id="edge9" class="edge">
<title>Node8&#45;&gt;Node8</title>
<path fill="none" stroke="#63b8ff" d="M330.5,-293.49C327.88,-302.88 337.05,-311 358,-311 370.44,-311 378.73,-308.14 382.86,-303.85"/>
<polygon fill="#63b8ff" stroke="#63b8ff" points="386.42,-305.04 385.5,-294.49 379.64,-303.31 386.42,-305.04"/>
</g>
<!-- Node9&#45;&gt;Node9 -->
<g id="edge11" class="edge">
<title>Node9&#45;&gt;Node9</title>
<path fill="none" stroke="#63b8ff" d="M330.5,-177.49C327.88,-186.88 337.05,-195 358,-195 370.44,-195 378.73,-192.14 382.86,-187.85"/>
<polygon fill="#63b8ff" stroke="#63b8ff" points="386.42,-189.04 385.5,-178.49 379.64,-187.31 386.42,-189.04"/>
</g>
<!-- Node11 -->
<g id="node11" class="node">
<title>Node11</title>
<g id="a_node11"><a xlink:href="../../d1/d51/classrange__queries_1_1heavy__light__decomposition_1_1_tree.html#ae8de7aefcb6635d3dacdd174cd4890c4" target="_top" xlink:title="Utility function to populate the t_par vector.">
<polygon fill="white" stroke="#666666" points="562,-79 452,-79 452,-38 562,-38 562,-79"/>
<text text-anchor="start" x="460" y="-67" font-family="Helvetica,sans-Serif" font-size="10.00">range_queries::heavy</text>
<text text-anchor="start" x="460" y="-56" font-family="Helvetica,sans-Serif" font-size="10.00">_light_decomposition</text>
<text text-anchor="middle" x="507" y="-45" font-family="Helvetica,sans-Serif" font-size="10.00">::Tree::dfs_lca</text>
</a>
</g>
</g>
<!-- Node10&#45;&gt;Node11 -->
<g id="edge13" class="edge">
<title>Node10&#45;&gt;Node11</title>
<path fill="none" stroke="#63b8ff" d="M413.32,-83.09C422.47,-80.66 432.05,-78.12 441.43,-75.63"/>
<polygon fill="#63b8ff" stroke="#63b8ff" points="442.14,-78.8 450.9,-72.85 440.34,-72.03 442.14,-78.8"/>
</g>
<!-- Node12 -->
<g id="node12" class="node">
<title>Node12</title>
<g id="a_node12"><a xlink:href="../../d1/d51/classrange__queries_1_1heavy__light__decomposition_1_1_tree.html#aa339c31ec74cd86a4842a8b09653d460" target="_top" xlink:title="Utility function to compute sub&#45;tree sizes.">
<polygon fill="white" stroke="#666666" points="562,-156 452,-156 452,-115 562,-115 562,-156"/>
<text text-anchor="start" x="460" y="-144" font-family="Helvetica,sans-Serif" font-size="10.00">range_queries::heavy</text>
<text text-anchor="start" x="460" y="-133" font-family="Helvetica,sans-Serif" font-size="10.00">_light_decomposition</text>
<text text-anchor="middle" x="507" y="-122" font-family="Helvetica,sans-Serif" font-size="10.00">::Tree::dfs_size</text>
</a>
</g>
</g>
<!-- Node10&#45;&gt;Node12 -->
<g id="edge15" class="edge">
<title>Node10&#45;&gt;Node12</title>
<path fill="none" stroke="#63b8ff" d="M413.32,-111.54C422.47,-113.91 432.05,-116.38 441.43,-118.81"/>
<polygon fill="#63b8ff" stroke="#63b8ff" points="440.35,-122.4 450.9,-121.52 442.1,-115.62 440.35,-122.4"/>
</g>
<!-- Node11&#45;&gt;Node11 -->
<g id="edge14" class="edge">
<title>Node11&#45;&gt;Node11</title>
<path fill="none" stroke="#63b8ff" d="M479.5,-79.49C476.88,-88.88 486.05,-97 507,-97 519.44,-97 527.73,-94.14 531.86,-89.85"/>
<polygon fill="#63b8ff" stroke="#63b8ff" points="535.42,-91.04 534.5,-80.49 528.64,-89.31 535.42,-91.04"/>
</g>
<!-- Node12&#45;&gt;Node12 -->
<g id="edge16" class="edge">
<title>Node12&#45;&gt;Node12</title>
<path fill="none" stroke="#63b8ff" d="M479.5,-156.49C476.88,-165.88 486.05,-174 507,-174 519.44,-174 527.73,-171.14 531.86,-166.85"/>
<polygon fill="#63b8ff" stroke="#63b8ff" points="535.42,-168.04 534.5,-157.49 528.64,-166.31 535.42,-168.04"/>
</g>
<!-- Node14 -->
<g id="node14" class="node">
<title>Node14</title>
<g id="a_node14"><a xlink:href="../../d2/d8a/classrange__queries_1_1heavy__light__decomposition_1_1_h_l_d.html#a7d5b40c076347a6aabfb37a0590f2f24" target="_top" xlink:title="Utility function to break down a path query into two chain queries.">
<polygon fill="white" stroke="#666666" points="413,-370 303,-370 303,-329 413,-329 413,-370"/>
<text text-anchor="start" x="311" y="-358" font-family="Helvetica,sans-Serif" font-size="10.00">range_queries::heavy</text>
<text text-anchor="start" x="311" y="-347" font-family="Helvetica,sans-Serif" font-size="10.00">_light_decomposition</text>
<text text-anchor="middle" x="358" y="-336" font-family="Helvetica,sans-Serif" font-size="10.00">::HLD::chain_query</text>
</a>
</g>
</g>
<!-- Node13&#45;&gt;Node14 -->
<g id="edge19" class="edge">
<title>Node13&#45;&gt;Node14</title>
<path fill="none" stroke="#63b8ff" d="M264.32,-331.85C273.37,-333.57 282.84,-335.37 292.13,-337.14"/>
<polygon fill="#63b8ff" stroke="#63b8ff" points="291.43,-340.76 301.9,-339.2 292.74,-333.89 291.43,-340.76"/>
</g>
<!-- Node16 -->
<g id="node16" class="node">
<title>Node16</title>
<g id="a_node16"><a xlink:href="../../d1/d51/classrange__queries_1_1heavy__light__decomposition_1_1_tree.html#ae2b407e64aaf9878fbee7ee6efe9c7d4" target="_top" xlink:title="The function returns the least common ancestor of two nodes.">
<polygon fill="white" stroke="#666666" points="413,-429 303,-429 303,-388 413,-388 413,-429"/>
<text text-anchor="start" x="311" y="-417" font-family="Helvetica,sans-Serif" font-size="10.00">range_queries::heavy</text>
<text text-anchor="start" x="311" y="-406" font-family="Helvetica,sans-Serif" font-size="10.00">_light_decomposition</text>
<text text-anchor="middle" x="358" y="-395" font-family="Helvetica,sans-Serif" font-size="10.00">::Tree::lca</text>
</a>
</g>
</g>
<!-- Node13&#45;&gt;Node16 -->
<g id="edge22" class="edge">
<title>Node13&#45;&gt;Node16</title>
<path fill="none" stroke="#63b8ff" d="M241.96,-342.2C266.6,-358.15 296.98,-377.76 300,-379.5 301.77,-380.52 303.58,-381.54 305.41,-382.55"/>
<polygon fill="#63b8ff" stroke="#63b8ff" points="303.26,-385.91 313.72,-387.6 306.59,-379.76 303.26,-385.91"/>
</g>
<!-- Node14&#45;&gt;Node6 -->
<g id="edge20" class="edge">
<title>Node14&#45;&gt;Node6</title>
<path fill="none" stroke="#63b8ff" d="M401.28,-328.6C406.28,-325.95 411.28,-323.21 416,-320.5 432.84,-310.82 450.93,-299.38 466.44,-289.23"/>
<polygon fill="#63b8ff" stroke="#63b8ff" points="467.82,-291.85 474.24,-283.43 463.97,-286.01 467.82,-291.85"/>
</g>
<!-- Node15 -->
<g id="node15" class="node">
<title>Node15</title>
<g id="a_node15"><a target="_blank" xlink:href="http://en.cppreference.com/w/cpp/algorithm/swap.html#" xlink:title=" ">
<polygon fill="white" stroke="#666666" points="536.5,-359 477.5,-359 477.5,-340 536.5,-340 536.5,-359"/>
<text text-anchor="middle" x="507" y="-347" font-family="Helvetica,sans-Serif" font-size="10.00">std::swap</text>
</a>
</g>
</g>
<!-- Node14&#45;&gt;Node15 -->
<g id="edge21" class="edge">
<title>Node14&#45;&gt;Node15</title>
<path fill="none" stroke="#63b8ff" d="M413.32,-349.5C430.86,-349.5 449.97,-349.5 466.26,-349.5"/>
<polygon fill="#63b8ff" stroke="#63b8ff" points="466.03,-353 476.03,-349.5 466.03,-346 466.03,-353"/>
</g>
<!-- Node17 -->
<g id="node17" class="node">
<title>Node17</title>
<g id="a_node17"><a xlink:href="../../d1/d51/classrange__queries_1_1heavy__light__decomposition_1_1_tree.html#ac7761255f2ba06b398b9aae5e4dce5f3" target="_top" xlink:title="The function lifts a node, k units up the tree. The lifting is done in place, and the result is store...">
<polygon fill="white" stroke="#666666" points="562,-429 452,-429 452,-388 562,-388 562,-429"/>
<text text-anchor="start" x="460" y="-417" font-family="Helvetica,sans-Serif" font-size="10.00">range_queries::heavy</text>
<text text-anchor="start" x="460" y="-406" font-family="Helvetica,sans-Serif" font-size="10.00">_light_decomposition</text>
<text text-anchor="middle" x="507" y="-395" font-family="Helvetica,sans-Serif" font-size="10.00">::Tree::lift</text>
</a>
</g>
</g>
<!-- Node16&#45;&gt;Node17 -->
<g id="edge23" class="edge">
<title>Node16&#45;&gt;Node17</title>
<path fill="none" stroke="#63b8ff" d="M413.32,-408.5C422.37,-408.5 431.84,-408.5 441.13,-408.5"/>
<polygon fill="#63b8ff" stroke="#63b8ff" points="440.9,-412 450.9,-408.5 440.9,-405 440.9,-412"/>
</g>
<!-- Node18&#45;&gt;Node19 -->
<g id="edge25" class="edge">
<title>Node18&#45;&gt;Node19</title>
<path fill="none" stroke="#63b8ff" d="M264.32,-526.74C277.23,-528.93 290.98,-531.27 303.84,-533.46"/>
<polygon fill="#63b8ff" stroke="#63b8ff" points="302.94,-537.03 313.38,-535.25 304.11,-530.13 302.94,-537.03"/>
</g>
<!-- Node21 -->
<g id="node21" class="node">
<title>Node21</title>
<g id="a_node21"><a xlink:href="../../d9/d35/classrange__queries_1_1heavy__light__decomposition_1_1_s_g.html#a3c75bf5770790f8eba8cc92227b5400c" target="_top" xlink:title="Update the value at a node.">
<polygon fill="white" stroke="#666666" points="413,-636 303,-636 303,-595 413,-595 413,-636"/>
<text text-anchor="start" x="311" y="-624" font-family="Helvetica,sans-Serif" font-size="10.00">range_queries::heavy</text>
<text text-anchor="start" x="311" y="-613" font-family="Helvetica,sans-Serif" font-size="10.00">_light_decomposition</text>
<text text-anchor="middle" x="358" y="-602" font-family="Helvetica,sans-Serif" font-size="10.00">::SG::update</text>
</a>
</g>
</g>
<!-- Node20&#45;&gt;Node21 -->
<g id="edge28" class="edge">
<title>Node20&#45;&gt;Node21</title>
<path fill="none" stroke="#63b8ff" d="M264.32,-615.5C273.37,-615.5 282.84,-615.5 292.13,-615.5"/>
<polygon fill="#63b8ff" stroke="#63b8ff" points="291.9,-619 301.9,-615.5 291.9,-612 291.9,-619"/>
</g>
<!-- Node22&#45;&gt;Node3 -->
<g id="edge30" class="edge">
<title>Node22&#45;&gt;Node3</title>
<path fill="none" stroke="#63b8ff" d="M108.88,-501.65C124.45,-488.75 152.4,-465.58 174.66,-447.13"/>
<polygon fill="#63b8ff" stroke="#63b8ff" points="176.41,-449.4 181.87,-440.33 171.94,-444.01 176.41,-449.4"/>
</g>
<!-- Node22&#45;&gt;Node4 -->
<g id="edge32" class="edge">
<title>Node22&#45;&gt;Node4</title>
<path fill="none" stroke="#63b8ff" d="M97.67,-521.18C100.02,-546.84 110.35,-616.63 154,-645.5 194.78,-672.47 224.81,-674.73 264,-645.5 308.98,-611.96 272.3,-573.29 300,-524.5 309.74,-507.35 325.03,-491.06 337.33,-479.49"/>
<polygon fill="#63b8ff" stroke="#63b8ff" points="339.22,-482.59 344.26,-473.27 334.51,-477.41 339.22,-482.59"/>
</g>
<!-- Node22&#45;&gt;Node5 -->
<g id="edge31" class="edge">
<title>Node22&#45;&gt;Node5</title>
<path fill="none" stroke="#63b8ff" d="M107.77,-501.65C111.56,-497.62 115.49,-492.68 118,-487.5 156.39,-408.17 117.8,-372.85 154,-292.5 160.49,-278.1 170.59,-264.04 180.31,-252.4"/>
<polygon fill="#63b8ff" stroke="#63b8ff" points="183.36,-255.23 187.27,-245.39 178.07,-250.65 183.36,-255.23"/>
</g>
<!-- Node22&#45;&gt;Node13 -->
<g id="edge33" class="edge">
<title>Node22&#45;&gt;Node13</title>
<path fill="none" stroke="#63b8ff" d="M106.87,-501.86C110.73,-497.71 114.94,-492.64 118,-487.5 141.53,-447.99 131.56,-430.64 154,-390.5 161.82,-376.5 172.36,-362.33 182.05,-350.51"/>
<polygon fill="#63b8ff" stroke="#63b8ff" points="185.15,-353.25 188.9,-343.35 179.79,-348.75 185.15,-353.25"/>
</g>
<!-- Node22&#45;&gt;Node18 -->
<g id="edge34" class="edge">
<title>Node22&#45;&gt;Node18</title>
<path fill="none" stroke="#63b8ff" d="M118.4,-512.66C125.66,-513.05 134.18,-513.51 143.04,-513.99"/>
<polygon fill="#63b8ff" stroke="#63b8ff" points="142.77,-517.53 152.94,-514.58 143.15,-510.54 142.77,-517.53"/>
</g>
<!-- Node22&#45;&gt;Node19 -->
<g id="edge35" class="edge">
<title>Node22&#45;&gt;Node19</title>
<path fill="none" stroke="#63b8ff" d="M96.79,-521.26C96.75,-550.98 101.18,-640.71 154,-678.5 193.76,-706.94 223.62,-706.06 264,-678.5 300.27,-653.75 273.67,-621.63 300,-586.5 308.23,-575.51 319.89,-565.86 330.53,-558.41"/>
<polygon fill="#63b8ff" stroke="#63b8ff" points="332.1,-560.9 338.49,-552.45 328.22,-555.07 332.1,-560.9"/>
</g>
<!-- Node22&#45;&gt;Node20 -->
<g id="edge36" class="edge">
<title>Node22&#45;&gt;Node20</title>
<path fill="none" stroke="#63b8ff" d="M103.57,-521.21C113.42,-535.34 133.12,-561.9 154,-580.5 156.97,-583.15 160.16,-585.73 163.44,-588.22"/>
<polygon fill="#63b8ff" stroke="#63b8ff" points="161.13,-591.59 171.3,-594.58 165.22,-585.9 161.13,-591.59"/>
</g>
<!-- Node23&#45;&gt;Node3 -->
<g id="edge38" class="edge">
<title>Node23&#45;&gt;Node3</title>
<path fill="none" stroke="#63b8ff" d="M118.4,-400.13C125.74,-401.71 134.37,-403.58 143.33,-405.52"/>
<polygon fill="#63b8ff" stroke="#63b8ff" points="142.43,-409.12 152.94,-407.81 143.91,-402.28 142.43,-409.12"/>
</g>
<!-- Node23&#45;&gt;Node4 -->
<g id="edge40" class="edge">
<title>Node23&#45;&gt;Node4</title>
<path fill="none" stroke="#63b8ff" d="M99.01,-385.53C103.96,-363.94 118.96,-313.15 154,-292.5 196.12,-267.67 225.51,-262.35 264,-292.5 316.61,-333.71 256.59,-387.69 300,-438.5 302.82,-441.8 306.18,-444.66 309.82,-447.13"/>
<polygon fill="#63b8ff" stroke="#63b8ff" points="307.93,-450.65 318.36,-452.52 311.37,-444.55 307.93,-450.65"/>
</g>
<!-- Node23&#45;&gt;Node5 -->
<g id="edge39" class="edge">
<title>Node23&#45;&gt;Node5</title>
<path fill="none" stroke="#63b8ff" d="M98.93,-385.83C104.13,-361.89 120.35,-298.86 154,-258.5 156.18,-255.88 158.61,-253.39 161.2,-251.04"/>
<polygon fill="#63b8ff" stroke="#63b8ff" points="162.81,-253.42 168.33,-244.37 158.38,-248 162.81,-253.42"/>
</g>
<!-- Node23&#45;&gt;Node13 -->
<g id="edge41" class="edge">
<title>Node23&#45;&gt;Node13</title>
<path fill="none" stroke="#63b8ff" d="M110.99,-385.79C122.49,-377.84 139.23,-366.34 154,-356.5 157.98,-353.85 162.13,-351.11 166.3,-348.38"/>
<polygon fill="#63b8ff" stroke="#63b8ff" points="167.9,-350.86 174.36,-342.47 164.07,-345 167.9,-350.86"/>
</g>
<!-- Node23&#45;&gt;Node18 -->
<g id="edge42" class="edge">
<title>Node23&#45;&gt;Node18</title>
<path fill="none" stroke="#63b8ff" d="M106.08,-405.48C122.51,-423.53 157.7,-462.21 182.1,-489.03"/>
<polygon fill="#63b8ff" stroke="#63b8ff" points="178.97,-490.89 188.29,-495.94 184.15,-486.18 178.97,-490.89"/>
</g>
<!-- Node23&#45;&gt;Node19 -->
<g id="edge43" class="edge">
<title>Node23&#45;&gt;Node19</title>
<path fill="none" stroke="#63b8ff" d="M118.45,-387.51C152.54,-376.29 219.74,-360.41 264,-390.5 299.97,-414.95 276.75,-444.74 300,-481.5 310.45,-498.02 325.71,-514.07 337.81,-525.55"/>
<polygon fill="#63b8ff" stroke="#63b8ff" points="334.87,-527.51 344.59,-531.72 339.61,-522.37 334.87,-527.51"/>
</g>
<!-- Node23&#45;&gt;Node20 -->
<g id="edge44" class="edge">
<title>Node23&#45;&gt;Node20</title>
<path fill="none" stroke="#63b8ff" d="M100.75,-405.23C104.97,-416.21 112.02,-434.62 118,-450.5 134.2,-493.54 131.42,-507.44 154,-547.5 161.67,-561.1 171.97,-574.83 181.52,-586.36"/>
<polygon fill="#63b8ff" stroke="#63b8ff" points="179.48,-588.36 188.63,-593.7 184.81,-583.82 179.48,-588.36"/>
</g>
</g>
</svg>
