<?xml version="1.0" encoding="UTF-8" standalone="no"?>
<!DOCTYPE svg PUBLIC "-//W3C//DTD SVG 1.1//EN"
 "http://www.w3.org/Graphics/SVG/1.1/DTD/svg11.dtd">
<!-- Generated by graphviz version 6.0.1 (20220911.1526)
 -->
<!-- Title: main Pages: 1 -->
<!--zoomable 708 -->
<svg id="main" version="1.1" xmlns="http://www.w3.org/2000/svg" xmlns:xlink="http://www.w3.org/1999/xlink" xml:space="preserve" onload="init(evt)">
<style type="text/css"><![CDATA[
.edge:hover path { stroke: red; }
.edge:hover polygon { stroke: red; fill: red; }
]]></style>
<script type="text/javascript"><![CDATA[
var edges = document.getElementsByTagName('g');
if (edges && edges.length) {
  for (var i=0;i<edges.length;i++) {
    if (edges[i].id.substr(0,4)=='edge') {
      edges[i].setAttribute('class','edge');
    }
  }
}
]]></script>
        <defs>
                <circle id="rim" cx="0" cy="0" r="7"/>
                <circle id="rim2" cx="0" cy="0" r="3.5"/>
                <g id="zoomPlus">
                        <use xlink:href="#rim" fill="#404040">
                                <set attributeName="fill" to="#808080" begin="zoomplus.mouseover" end="zoomplus.mouseout"/>
                        </use>
                        <path d="M-4,0h8M0,-4v8" fill="none" stroke="white" stroke-width="1.5" pointer-events="none"/>
                </g>
                <g id="zoomMin">
                        <use xlink:href="#rim" fill="#404040">
                                <set attributeName="fill" to="#808080" begin="zoomminus.mouseover" end="zoomminus.mouseout"/>
                        </use>
                        <path d="M-4,0h8" fill="none" stroke="white" stroke-width="1.5" pointer-events="none"/>
                </g>
                <g id="dirArrow">
                        <path fill="none" stroke="white" stroke-width="1.5" d="M0,-3.0v7 M-2.5,-0.5L0,-3.0L2.5,-0.5"/>
                </g>
               <g id="resetDef">
                       <use xlink:href="#rim2" fill="#404040">
                               <set attributeName="fill" to="#808080" begin="reset.mouseover" end="reset.mouseout"/>
                       </use>
               </g>
        </defs>

<script type="text/javascript">
var viewWidth = 570;
var viewHeight = 708;
var sectionId = 'dynsection-1';
</script>
<script xlink:href="../../svgpan.js"/>
<svg id="graph" class="graph">
<g id="viewport">
<title>main</title>
<!-- Node1 -->
<g id="node1" class="node">
<title>Node1</title>
<g id="a_node1"><a xlink:title=" ">
<polygon fill="#999999" stroke="#666666" points="38,-478 0,-478 0,-459 38,-459 38,-478"/>
<text text-anchor="middle" x="19" y="-466" font-family="Helvetica,sans-Serif" font-size="10.00">main</text>
</a>
</g>
</g>
<!-- Node2 -->
<g id="node2" class="node">
<title>Node2</title>
<g id="a_node2"><a xlink:href="../../d2/de9/heavy__light__decomposition_8cpp.html#a34b8683a2b429de5cce57e6d733ec817" target="_top" xlink:title=" ">
<polygon fill="white" stroke="#666666" points="118,-478 74,-478 74,-459 118,-459 118,-478"/>
<text text-anchor="middle" x="96" y="-466" font-family="Helvetica,sans-Serif" font-size="10.00">test_1</text>
</a>
</g>
</g>
<!-- Node1&#45;&gt;Node2 -->
<g id="edge1" class="edge">
<title>Node1&#45;&gt;Node2</title>
<path fill="none" stroke="#63b8ff" d="M38.16,-468.5C45.8,-468.5 54.92,-468.5 63.59,-468.5"/>
<polygon fill="#63b8ff" stroke="#63b8ff" points="63.82,-472 73.82,-468.5 63.82,-465 63.82,-472"/>
</g>
<!-- Node22 -->
<g id="node22" class="node">
<title>Node22</title>
<g id="a_node22"><a xlink:href="../../d2/de9/heavy__light__decomposition_8cpp.html#a458410412185a5f09199deaff7157a8d" target="_top" xlink:title=" ">
<polygon fill="white" stroke="#666666" points="118,-521 74,-521 74,-502 118,-502 118,-521"/>
<text text-anchor="middle" x="96" y="-509" font-family="Helvetica,sans-Serif" font-size="10.00">test_2</text>
</a>
</g>
</g>
<!-- Node1&#45;&gt;Node22 -->
<g id="edge29" class="edge">
<title>Node1&#45;&gt;Node22</title>
<path fill="none" stroke="#63b8ff" d="M36.64,-478.04C46.35,-483.61 58.8,-490.75 69.7,-497"/>
<polygon fill="#63b8ff" stroke="#63b8ff" points="67.99,-500.05 78.4,-501.98 71.47,-493.97 67.99,-500.05"/>
</g>
<!-- Node23 -->
<g id="node23" class="node">
<title>Node23</title>
<g id="a_node23"><a xlink:href="../../d2/de9/heavy__light__decomposition_8cpp.html#af31ec5409537703d9c8a47350386b32a" target="_top" xlink:title=" ">
<polygon fill="white" stroke="#666666" points="118,-405 74,-405 74,-386 118,-386 118,-405"/>
<text text-anchor="middle" x="96" y="-393" font-family="Helvetica,sans-Serif" font-size="10.00">test_3</text>
</a>
</g>
</g>
<!-- Node1&#45;&gt;Node23 -->
<g id="edge37" class="edge">
<title>Node1&#45;&gt;Node23</title>
<path fill="none" stroke="#63b8ff" d="M29.8,-458.96C41.87,-447.22 62.56,-427.07 77.4,-412.63"/>
<polygon fill="#63b8ff" stroke="#63b8ff" points="80.23,-414.76 84.95,-405.28 75.35,-409.75 80.23,-414.76"/>
</g>
<!-- Node3 -->
<g id="node3" class="node">
<title>Node3</title>
<g id="a_node3"><a xlink:href="../../d1/d51/classrange__queries_1_1heavy__light__decomposition_1_1_tree.html#a79ab4601c4a95c0902ac04e779e5f54d" target="_top" xlink:title="Adds an undirected edge from node u to node v in the tree.">
<polygon fill="white" stroke="#666666" points="264,-440 154,-440 154,-399 264,-399 264,-440"/>
<text text-anchor="start" x="162" y="-428" font-family="Helvetica,sans-Serif" font-size="10.00">range_queries::heavy</text>
<text text-anchor="start" x="162" y="-417" font-family="Helvetica,sans-Serif" font-size="10.00">_light_decomposition</text>
<text text-anchor="middle" x="209" y="-406" font-family="Helvetica,sans-Serif" font-size="10.00">::Tree::add_edge</text>
</a>
</g>
</g>
<!-- Node2&#45;&gt;Node3 -->
<g id="edge2" class="edge">
<title>Node2&#45;&gt;Node3</title>
<path fill="none" stroke="#63b8ff" d="M118.14,-459.17C127.86,-454.88 139.91,-449.56 151.98,-444.23"/>
<polygon fill="#63b8ff" stroke="#63b8ff" points="153.45,-447.4 161.19,-440.16 150.63,-441 153.45,-447.4"/>
</g>
<!-- Node4 -->
<g id="node4" class="node">
<title>Node4</title>
<g id="a_node4"><a target="_blank" xlink:href="http://en.cppreference.com/w/cpp/container/vector/push_back.html#" xlink:title=" ">
<polygon fill="white" stroke="#666666" points="416,-472 300,-472 300,-453 416,-453 416,-472"/>
<text text-anchor="middle" x="358" y="-460" font-family="Helvetica,sans-Serif" font-size="10.00">std::vector::push_back</text>
</a>
</g>
</g>
<!-- Node2&#45;&gt;Node4 -->
<g id="edge17" class="edge">
<title>Node2&#45;&gt;Node4</title>
<path fill="none" stroke="#63b8ff" d="M118.28,-468.01C155.27,-467.16 232.91,-465.36 289.64,-464.05"/>
<polygon fill="#63b8ff" stroke="#63b8ff" points="290.06,-467.55 299.97,-463.82 289.89,-460.55 290.06,-467.55"/>
</g>
<!-- Node5 -->
<g id="node5" class="node">
<title>Node5</title>
<g id="a_node5"><a xlink:href="../../d2/d8a/classrange__queries_1_1heavy__light__decomposition_1_1_h_l_d.html#ae9e979edd69678b85665c01e2ee97828" target="_top" xlink:title="This function must be called after the tree adjacency list and node values are populated The function...">
<polygon fill="white" stroke="#666666" points="264,-244 154,-244 154,-203 264,-203 264,-244"/>
<text text-anchor="start" x="162" y="-232" font-family="Helvetica,sans-Serif" font-size="10.00">range_queries::heavy</text>
<text text-anchor="start" x="162" y="-221" font-family="Helvetica,sans-Serif" font-size="10.00">_light_decomposition</text>
<text text-anchor="middle" x="209" y="-210" font-family="Helvetica,sans-Serif" font-size="10.00">::HLD::init</text>
</a>
</g>
</g>
<!-- Node2&#45;&gt;Node5 -->
<g id="edge4" class="edge">
<title>Node2&#45;&gt;Node5</title>
<path fill="none" stroke="#63b8ff" d="M101.12,-458.64C105.55,-447.88 112.67,-430.11 118,-414.5 136.26,-361 128.12,-342.76 154,-292.5 161.41,-278.11 172,-263.75 181.83,-251.9"/>
<polygon fill="#63b8ff" stroke="#63b8ff" points="184.64,-253.99 188.47,-244.12 179.32,-249.45 184.64,-253.99"/>
</g>
<!-- Node13 -->
<g id="node13" class="node">
<title>Node13</title>
<g id="a_node13"><a xlink:href="../../d2/d8a/classrange__queries_1_1heavy__light__decomposition_1_1_h_l_d.html#a4dfbf5d9df825eeb63b294c6849bdcab" target="_top" xlink:title="This function returns the sum of node values in the simple path from from node_1 to node_2.">
<polygon fill="white" stroke="#666666" points="264,-342 154,-342 154,-301 264,-301 264,-342"/>
<text text-anchor="start" x="162" y="-330" font-family="Helvetica,sans-Serif" font-size="10.00">range_queries::heavy</text>
<text text-anchor="start" x="162" y="-319" font-family="Helvetica,sans-Serif" font-size="10.00">_light_decomposition</text>
<text text-anchor="middle" x="209" y="-308" font-family="Helvetica,sans-Serif" font-size="10.00">::HLD::query</text>
</a>
</g>
</g>
<!-- Node2&#45;&gt;Node13 -->
<g id="edge18" class="edge">
<title>Node2&#45;&gt;Node13</title>
<path fill="none" stroke="#63b8ff" d="M103.92,-458.82C114.54,-444 135.59,-414.85 154,-390.5 164.07,-377.19 175.42,-362.62 185.11,-350.31"/>
<polygon fill="#63b8ff" stroke="#63b8ff" points="188.07,-352.21 191.52,-342.2 182.57,-347.88 188.07,-352.21"/>
</g>
<!-- Node18 -->
<g id="node18" class="node">
<title>Node18</title>
<g id="a_node18"><a xlink:href="../../d1/d51/classrange__queries_1_1heavy__light__decomposition_1_1_tree.html#a04cd96efaba147b19d3afc769b90ff70" target="_top" xlink:title="Set the values for all the nodes.">
<polygon fill="white" stroke="#666666" points="264,-538 154,-538 154,-497 264,-497 264,-538"/>
<text text-anchor="start" x="162" y="-526" font-family="Helvetica,sans-Serif" font-size="10.00">range_queries::heavy</text>
<text text-anchor="start" x="162" y="-515" font-family="Helvetica,sans-Serif" font-size="10.00">_light_decomposition</text>
<text text-anchor="middle" x="209" y="-504" font-family="Helvetica,sans-Serif" font-size="10.00">::Tree::set_node_val</text>
</a>
</g>
</g>
<!-- Node2&#45;&gt;Node18 -->
<g id="edge24" class="edge">
<title>Node2&#45;&gt;Node18</title>
<path fill="none" stroke="#63b8ff" d="M118.14,-477.83C127.86,-482.12 139.91,-487.44 151.98,-492.77"/>
<polygon fill="#63b8ff" stroke="#63b8ff" points="150.63,-496 161.19,-496.84 153.45,-489.6 150.63,-496"/>
</g>
<!-- Node19 -->
<g id="node19" class="node">
<title>Node19</title>
<g id="a_node19"><a target="_blank" xlink:href="http://en.cppreference.com/w/cpp/container/vector/size.html#" xlink:title=" ">
<polygon fill="white" stroke="#666666" points="401.5,-552 314.5,-552 314.5,-533 401.5,-533 401.5,-552"/>
<text text-anchor="middle" x="358" y="-540" font-family="Helvetica,sans-Serif" font-size="10.00">std::vector::size</text>
</a>
</g>
</g>
<!-- Node2&#45;&gt;Node19 -->
<g id="edge26" class="edge">
<title>Node2&#45;&gt;Node19</title>
<path fill="none" stroke="#63b8ff" d="M105.43,-478.03C109.37,-482.61 114.06,-488.24 118,-493.5 135.3,-516.58 128.57,-533.89 154,-547.5 204.93,-574.76 273.83,-565.07 316.83,-554.57"/>
<polygon fill="#63b8ff" stroke="#63b8ff" points="317.84,-557.92 326.65,-552.05 316.1,-551.15 317.84,-557.92"/>
</g>
<!-- Node20 -->
<g id="node20" class="node">
<title>Node20</title>
<g id="a_node20"><a xlink:href="../../d2/d8a/classrange__queries_1_1heavy__light__decomposition_1_1_h_l_d.html#a9f1cb54ed09fde931bf3220d75ee4c57" target="_top" xlink:title="This function updates the value at node with val.">
<polygon fill="white" stroke="#666666" points="264,-636 154,-636 154,-595 264,-595 264,-636"/>
<text text-anchor="start" x="162" y="-624" font-family="Helvetica,sans-Serif" font-size="10.00">range_queries::heavy</text>
<text text-anchor="start" x="162" y="-613" font-family="Helvetica,sans-Serif" font-size="10.00">_light_decomposition</text>
<text text-anchor="middle" x="209" y="-602" font-family="Helvetica,sans-Serif" font-size="10.00">::HLD::update</text>
</a>
</g>
</g>
<!-- Node2&#45;&gt;Node20 -->
<g id="edge27" class="edge">
<title>Node2&#45;&gt;Node20</title>
<path fill="none" stroke="#63b8ff" d="M106.33,-478.18C110.27,-482.61 114.71,-488.07 118,-493.5 139.71,-529.27 127.23,-548.33 154,-580.5 156.35,-583.33 159,-586.01 161.81,-588.53"/>
<polygon fill="#63b8ff" stroke="#63b8ff" points="159.63,-591.26 169.6,-594.84 164.03,-585.82 159.63,-591.26"/>
</g>
<!-- Node3&#45;&gt;Node4 -->
<g id="edge3" class="edge">
<title>Node3&#45;&gt;Node4</title>
<path fill="none" stroke="#63b8ff" d="M264.32,-435.39C280.82,-440.22 298.72,-445.45 314.34,-450.02"/>
<polygon fill="#63b8ff" stroke="#63b8ff" points="313.66,-453.47 324.24,-452.92 315.62,-446.75 313.66,-453.47"/>
</g>
<!-- Node6 -->
<g id="node6" class="node">
<title>Node6</title>
<g id="a_node6"><a xlink:href="../../d9/d35/classrange__queries_1_1heavy__light__decomposition_1_1_s_g.html#a41c733f5f5e262b308f7cb95c88c1e74" target="_top" xlink:title="Function that specifies the type of operation involved when segments are combined.">
<polygon fill="white" stroke="#666666" points="562,-283 452,-283 452,-242 562,-242 562,-283"/>
<text text-anchor="start" x="460" y="-271" font-family="Helvetica,sans-Serif" font-size="10.00">range_queries::heavy</text>
<text text-anchor="start" x="460" y="-260" font-family="Helvetica,sans-Serif" font-size="10.00">_light_decomposition</text>
<text text-anchor="middle" x="507" y="-249" font-family="Helvetica,sans-Serif" font-size="10.00">::SG::combine</text>
</a>
</g>
</g>
<!-- Node5&#45;&gt;Node6 -->
<g id="edge5" class="edge">
<title>Node5&#45;&gt;Node6</title>
<path fill="none" stroke="#63b8ff" d="M264.42,-227.12C306.07,-230.3 364.86,-235.64 416,-243.5 424.4,-244.79 433.19,-246.36 441.85,-248.05"/>
<polygon fill="#63b8ff" stroke="#63b8ff" points="441.43,-251.53 451.92,-250.07 442.81,-244.67 441.43,-251.53"/>
</g>
<!-- Node7 -->
<g id="node7" class="node">
<title>Node7</title>
<g id="a_node7"><a xlink:href="../../d2/d8a/classrange__queries_1_1heavy__light__decomposition_1_1_h_l_d.html#af64848d6630c39d0f09ce2359cc7c4f8" target="_top" xlink:title="Utility function to assign heavy child to each node (&#45;1 for a leaf node)">
<polygon fill="white" stroke="#666666" points="413,-41 303,-41 303,0 413,0 413,-41"/>
<text text-anchor="start" x="311" y="-29" font-family="Helvetica,sans-Serif" font-size="10.00">range_queries::heavy</text>
<text text-anchor="start" x="311" y="-18" font-family="Helvetica,sans-Serif" font-size="10.00">_light_decomposition</text>
<text text-anchor="middle" x="358" y="-7" font-family="Helvetica,sans-Serif" font-size="10.00">::HLD::dfs_hc</text>
</a>
</g>
</g>
<!-- Node5&#45;&gt;Node7 -->
<g id="edge6" class="edge">
<title>Node5&#45;&gt;Node7</title>
<path fill="none" stroke="#63b8ff" d="M219.2,-202.75C233.62,-171.59 263.68,-111.75 300,-68.5 306.11,-61.22 313.4,-54.17 320.7,-47.82"/>
<polygon fill="#63b8ff" stroke="#63b8ff" points="323.16,-50.32 328.57,-41.21 318.66,-44.96 323.16,-50.32"/>
</g>
<!-- Node8 -->
<g id="node8" class="node">
<title>Node8</title>
<g id="a_node8"><a xlink:href="../../d2/d8a/classrange__queries_1_1heavy__light__decomposition_1_1_h_l_d.html#a0579062b384e54b611b80c6337c7f2c8" target="_top" xlink:title="Utility function to lable the nodes so that heavy chains have a contigous lable.">
<polygon fill="white" stroke="#666666" points="413,-293 303,-293 303,-252 413,-252 413,-293"/>
<text text-anchor="start" x="311" y="-281" font-family="Helvetica,sans-Serif" font-size="10.00">range_queries::heavy</text>
<text text-anchor="start" x="311" y="-270" font-family="Helvetica,sans-Serif" font-size="10.00">_light_decomposition</text>
<text text-anchor="middle" x="358" y="-259" font-family="Helvetica,sans-Serif" font-size="10.00">::HLD::dfs_labels</text>
</a>
</g>
</g>
<!-- Node5&#45;&gt;Node8 -->
<g id="edge8" class="edge">
<title>Node5&#45;&gt;Node8</title>
<path fill="none" stroke="#63b8ff" d="M264.32,-241.61C273.77,-244.76 283.67,-248.06 293.34,-251.28"/>
<polygon fill="#63b8ff" stroke="#63b8ff" points="292.31,-254.63 302.9,-254.47 294.52,-247.99 292.31,-254.63"/>
</g>
<!-- Node9 -->
<g id="node9" class="node">
<title>Node9</title>
<g id="a_node9"><a xlink:href="../../d2/d8a/classrange__queries_1_1heavy__light__decomposition_1_1_h_l_d.html#a2dfbda148aad0bfaba2ebfda9ebc915a" target="_top" xlink:title="Utility function to assign highest parent that can be reached though heavy chains.">
<polygon fill="white" stroke="#666666" points="413,-177 303,-177 303,-136 413,-136 413,-177"/>
<text text-anchor="start" x="311" y="-165" font-family="Helvetica,sans-Serif" font-size="10.00">range_queries::heavy</text>
<text text-anchor="start" x="311" y="-154" font-family="Helvetica,sans-Serif" font-size="10.00">_light_decomposition</text>
<text text-anchor="middle" x="358" y="-143" font-family="Helvetica,sans-Serif" font-size="10.00">::HLD::dfs_par</text>
</a>
</g>
</g>
<!-- Node5&#45;&gt;Node9 -->
<g id="edge10" class="edge">
<title>Node5&#45;&gt;Node9</title>
<path fill="none" stroke="#63b8ff" d="M255.3,-202.85C270.18,-196.07 286.88,-188.46 302.38,-181.4"/>
<polygon fill="#63b8ff" stroke="#63b8ff" points="304.2,-184.41 311.85,-177.08 301.29,-178.04 304.2,-184.41"/>
</g>
<!-- Node10 -->
<g id="node10" class="node">
<title>Node10</title>
<g id="a_node10"><a xlink:href="../../d1/d51/classrange__queries_1_1heavy__light__decomposition_1_1_tree.html#ad22d760a5a33545a70e7ea5e1786c8dc" target="_top" xlink:title="This function must be called after the tree adjacency list and node values are populated The function...">
<polygon fill="white" stroke="#666666" points="413,-118 303,-118 303,-77 413,-77 413,-118"/>
<text text-anchor="start" x="311" y="-106" font-family="Helvetica,sans-Serif" font-size="10.00">range_queries::heavy</text>
<text text-anchor="start" x="311" y="-95" font-family="Helvetica,sans-Serif" font-size="10.00">_light_decomposition</text>
<text text-anchor="middle" x="358" y="-84" font-family="Helvetica,sans-Serif" font-size="10.00">::Tree::init</text>
</a>
</g>
</g>
<!-- Node5&#45;&gt;Node10 -->
<g id="edge12" class="edge">
<title>Node5&#45;&gt;Node10</title>
<path fill="none" stroke="#63b8ff" d="M225.9,-202.86C242.69,-182.01 270.74,-149.79 300,-127.5 301.77,-126.15 303.61,-124.83 305.5,-123.54"/>
<polygon fill="#63b8ff" stroke="#63b8ff" points="307.47,-126.44 314.01,-118.11 303.7,-120.54 307.47,-126.44"/>
</g>
<!-- Node7&#45;&gt;Node7 -->
<g id="edge7" class="edge">
<title>Node7&#45;&gt;Node7</title>
<path fill="none" stroke="#63b8ff" d="M330.61,-41.1C327.63,-50.65 336.76,-59 358,-59 371.28,-59 379.82,-55.74 383.63,-50.96"/>
<polygon fill="#63b8ff" stroke="#63b8ff" points="387.08,-51.55 385.39,-41.1 380.19,-50.33 387.08,-51.55"/>
</g>
<!-- Node8&#45;&gt;Node8 -->
<g id="edge9" class="edge">
<title>Node8&#45;&gt;Node8</title>
<path fill="none" stroke="#63b8ff" d="M330.61,-293.1C327.63,-302.65 336.76,-311 358,-311 371.28,-311 379.82,-307.74 383.63,-302.96"/>
<polygon fill="#63b8ff" stroke="#63b8ff" points="387.08,-303.55 385.39,-293.1 380.19,-302.33 387.08,-303.55"/>
</g>
<!-- Node9&#45;&gt;Node9 -->
<g id="edge11" class="edge">
<title>Node9&#45;&gt;Node9</title>
<path fill="none" stroke="#63b8ff" d="M330.61,-177.1C327.63,-186.65 336.76,-195 358,-195 371.28,-195 379.82,-191.74 383.63,-186.96"/>
<polygon fill="#63b8ff" stroke="#63b8ff" points="387.08,-187.55 385.39,-177.1 380.19,-186.33 387.08,-187.55"/>
</g>
<!-- Node11 -->
<g id="node11" class="node">
<title>Node11</title>
<g id="a_node11"><a xlink:href="../../d1/d51/classrange__queries_1_1heavy__light__decomposition_1_1_tree.html#ae8de7aefcb6635d3dacdd174cd4890c4" target="_top" xlink:title="Utility function to populate the t_par vector.">
<polygon fill="white" stroke="#666666" points="562,-79 452,-79 452,-38 562,-38 562,-79"/>
<text text-anchor="start" x="460" y="-67" font-family="Helvetica,sans-Serif" font-size="10.00">range_queries::heavy</text>
<text text-anchor="start" x="460" y="-56" font-family="Helvetica,sans-Serif" font-size="10.00">_light_decomposition</text>
<text text-anchor="middle" x="507" y="-45" font-family="Helvetica,sans-Serif" font-size="10.00">::Tree::dfs_lca</text>
</a>
</g>
</g>
<!-- Node10&#45;&gt;Node11 -->
<g id="edge13" class="edge">
<title>Node10&#45;&gt;Node11</title>
<path fill="none" stroke="#63b8ff" d="M413.32,-83.09C422.67,-80.61 432.46,-78.01 442.03,-75.47"/>
<polygon fill="#63b8ff" stroke="#63b8ff" points="443.14,-78.8 451.9,-72.85 441.34,-72.03 443.14,-78.8"/>
</g>
<!-- Node12 -->
<g id="node12" class="node">
<title>Node12</title>
<g id="a_node12"><a xlink:href="../../d1/d51/classrange__queries_1_1heavy__light__decomposition_1_1_tree.html#aa339c31ec74cd86a4842a8b09653d460" target="_top" xlink:title="Utility function to compute sub&#45;tree sizes.">
<polygon fill="white" stroke="#666666" points="562,-156 452,-156 452,-115 562,-115 562,-156"/>
<text text-anchor="start" x="460" y="-144" font-family="Helvetica,sans-Serif" font-size="10.00">range_queries::heavy</text>
<text text-anchor="start" x="460" y="-133" font-family="Helvetica,sans-Serif" font-size="10.00">_light_decomposition</text>
<text text-anchor="middle" x="507" y="-122" font-family="Helvetica,sans-Serif" font-size="10.00">::Tree::dfs_size</text>
</a>
</g>
</g>
<!-- Node10&#45;&gt;Node12 -->
<g id="edge15" class="edge">
<title>Node10&#45;&gt;Node12</title>
<path fill="none" stroke="#63b8ff" d="M413.32,-111.54C422.67,-113.96 432.46,-116.49 442.03,-118.96"/>
<polygon fill="#63b8ff" stroke="#63b8ff" points="441.35,-122.4 451.9,-121.52 443.1,-115.62 441.35,-122.4"/>
</g>
<!-- Node11&#45;&gt;Node11 -->
<g id="edge14" class="edge">
<title>Node11&#45;&gt;Node11</title>
<path fill="none" stroke="#63b8ff" d="M479.61,-79.1C476.63,-88.65 485.76,-97 507,-97 520.28,-97 528.82,-93.74 532.63,-88.96"/>
<polygon fill="#63b8ff" stroke="#63b8ff" points="536.08,-89.55 534.39,-79.1 529.19,-88.33 536.08,-89.55"/>
</g>
<!-- Node12&#45;&gt;Node12 -->
<g id="edge16" class="edge">
<title>Node12&#45;&gt;Node12</title>
<path fill="none" stroke="#63b8ff" d="M479.61,-156.1C476.63,-165.65 485.76,-174 507,-174 520.28,-174 528.82,-170.74 532.63,-165.96"/>
<polygon fill="#63b8ff" stroke="#63b8ff" points="536.08,-166.55 534.39,-156.1 529.19,-165.33 536.08,-166.55"/>
</g>
<!-- Node14 -->
<g id="node14" class="node">
<title>Node14</title>
<g id="a_node14"><a xlink:href="../../d2/d8a/classrange__queries_1_1heavy__light__decomposition_1_1_h_l_d.html#a7d5b40c076347a6aabfb37a0590f2f24" target="_top" xlink:title="Utility function to break down a path query into two chain queries.">
<polygon fill="white" stroke="#666666" points="413,-370 303,-370 303,-329 413,-329 413,-370"/>
<text text-anchor="start" x="311" y="-358" font-family="Helvetica,sans-Serif" font-size="10.00">range_queries::heavy</text>
<text text-anchor="start" x="311" y="-347" font-family="Helvetica,sans-Serif" font-size="10.00">_light_decomposition</text>
<text text-anchor="middle" x="358" y="-336" font-family="Helvetica,sans-Serif" font-size="10.00">::HLD::chain_query</text>
</a>
</g>
</g>
<!-- Node13&#45;&gt;Node14 -->
<g id="edge19" class="edge">
<title>Node13&#45;&gt;Node14</title>
<path fill="none" stroke="#63b8ff" d="M264.32,-331.85C273.67,-333.63 283.46,-335.49 293.03,-337.32"/>
<polygon fill="#63b8ff" stroke="#63b8ff" points="292.43,-340.76 302.9,-339.2 293.74,-333.89 292.43,-340.76"/>
</g>
<!-- Node16 -->
<g id="node16" class="node">
<title>Node16</title>
<g id="a_node16"><a xlink:href="../../d1/d51/classrange__queries_1_1heavy__light__decomposition_1_1_tree.html#ae2b407e64aaf9878fbee7ee6efe9c7d4" target="_top" xlink:title="The function returns the least common ancestor of two nodes.">
<polygon fill="white" stroke="#666666" points="413,-429 303,-429 303,-388 413,-388 413,-429"/>
<text text-anchor="start" x="311" y="-417" font-family="Helvetica,sans-Serif" font-size="10.00">range_queries::heavy</text>
<text text-anchor="start" x="311" y="-406" font-family="Helvetica,sans-Serif" font-size="10.00">_light_decomposition</text>
<text text-anchor="middle" x="358" y="-395" font-family="Helvetica,sans-Serif" font-size="10.00">::Tree::lca</text>
</a>
</g>
</g>
<!-- Node13&#45;&gt;Node16 -->
<g id="edge22" class="edge">
<title>Node13&#45;&gt;Node16</title>
<path fill="none" stroke="#63b8ff" d="M241.96,-342.2C266.6,-358.15 296.98,-377.76 300,-379.5 301.99,-380.65 304.04,-381.8 306.11,-382.94"/>
<polygon fill="#63b8ff" stroke="#63b8ff" points="304.87,-386.25 315.33,-387.92 308.2,-380.09 304.87,-386.25"/>
</g>
<!-- Node14&#45;&gt;Node6 -->
<g id="edge20" class="edge">
<title>Node14&#45;&gt;Node6</title>
<path fill="none" stroke="#63b8ff" d="M400.67,-328.92C405.87,-326.17 411.09,-323.32 416,-320.5 433.13,-310.65 451.56,-298.98 467.25,-288.7"/>
<polygon fill="#63b8ff" stroke="#63b8ff" points="469.24,-291.58 475.66,-283.15 465.38,-285.74 469.24,-291.58"/>
</g>
<!-- Node15 -->
<g id="node15" class="node">
<title>Node15</title>
<g id="a_node15"><a target="_blank" xlink:href="http://en.cppreference.com/w/cpp/algorithm/swap.html#" xlink:title=" ">
<polygon fill="white" stroke="#666666" points="536.5,-359 477.5,-359 477.5,-340 536.5,-340 536.5,-359"/>
<text text-anchor="middle" x="507" y="-347" font-family="Helvetica,sans-Serif" font-size="10.00">std::swap</text>
</a>
</g>
</g>
<!-- Node14&#45;&gt;Node15 -->
<g id="edge21" class="edge">
<title>Node14&#45;&gt;Node15</title>
<path fill="none" stroke="#63b8ff" d="M413.32,-349.5C431.17,-349.5 450.63,-349.5 467.1,-349.5"/>
<polygon fill="#63b8ff" stroke="#63b8ff" points="467.44,-353 477.44,-349.5 467.44,-346 467.44,-353"/>
</g>
<!-- Node17 -->
<g id="node17" class="node">
<title>Node17</title>
<g id="a_node17"><a xlink:href="../../d1/d51/classrange__queries_1_1heavy__light__decomposition_1_1_tree.html#ac7761255f2ba06b398b9aae5e4dce5f3" target="_top" xlink:title="The function lifts a node, k units up the tree. The lifting is done in place, and the result is store...">
<polygon fill="white" stroke="#666666" points="562,-429 452,-429 452,-388 562,-388 562,-429"/>
<text text-anchor="start" x="460" y="-417" font-family="Helvetica,sans-Serif" font-size="10.00">range_queries::heavy</text>
<text text-anchor="start" x="460" y="-406" font-family="Helvetica,sans-Serif" font-size="10.00">_light_decomposition</text>
<text text-anchor="middle" x="507" y="-395" font-family="Helvetica,sans-Serif" font-size="10.00">::Tree::lift</text>
</a>
</g>
</g>
<!-- Node16&#45;&gt;Node17 -->
<g id="edge23" class="edge">
<title>Node16&#45;&gt;Node17</title>
<path fill="none" stroke="#63b8ff" d="M413.32,-408.5C422.57,-408.5 432.25,-408.5 441.73,-408.5"/>
<polygon fill="#63b8ff" stroke="#63b8ff" points="441.9,-412 451.9,-408.5 441.9,-405 441.9,-412"/>
</g>
<!-- Node18&#45;&gt;Node19 -->
<g id="edge25" class="edge">
<title>Node18&#45;&gt;Node19</title>
<path fill="none" stroke="#63b8ff" d="M264.32,-526.74C277.36,-528.96 291.26,-531.32 304.22,-533.52"/>
<polygon fill="#63b8ff" stroke="#63b8ff" points="303.94,-537.03 314.38,-535.25 305.11,-530.13 303.94,-537.03"/>
</g>
<!-- Node21 -->
<g id="node21" class="node">
<title>Node21</title>
<g id="a_node21"><a xlink:href="../../d9/d35/classrange__queries_1_1heavy__light__decomposition_1_1_s_g.html#a3c75bf5770790f8eba8cc92227b5400c" target="_top" xlink:title="Update the value at a node.">
<polygon fill="white" stroke="#666666" points="413,-636 303,-636 303,-595 413,-595 413,-636"/>
<text text-anchor="start" x="311" y="-624" font-family="Helvetica,sans-Serif" font-size="10.00">range_queries::heavy</text>
<text text-anchor="start" x="311" y="-613" font-family="Helvetica,sans-Serif" font-size="10.00">_light_decomposition</text>
<text text-anchor="middle" x="358" y="-602" font-family="Helvetica,sans-Serif" font-size="10.00">::SG::update</text>
</a>
</g>
</g>
<!-- Node20&#45;&gt;Node21 -->
<g id="edge28" class="edge">
<title>Node20&#45;&gt;Node21</title>
<path fill="none" stroke="#63b8ff" d="M264.32,-615.5C273.57,-615.5 283.25,-615.5 292.73,-615.5"/>
<polygon fill="#63b8ff" stroke="#63b8ff" points="292.9,-619 302.9,-615.5 292.9,-612 292.9,-619"/>
</g>
<!-- Node22&#45;&gt;Node3 -->
<g id="edge30" class="edge">
<title>Node22&#45;&gt;Node3</title>
<path fill="none" stroke="#63b8ff" d="M108.88,-501.65C124.52,-488.69 152.65,-465.38 174.95,-446.89"/>
<polygon fill="#63b8ff" stroke="#63b8ff" points="177.41,-449.4 182.87,-440.33 172.94,-444.01 177.41,-449.4"/>
</g>
<!-- Node22&#45;&gt;Node4 -->
<g id="edge32" class="edge">
<title>Node22&#45;&gt;Node4</title>
<path fill="none" stroke="#63b8ff" d="M97.67,-521.18C100.02,-546.84 110.35,-616.63 154,-645.5 194.78,-672.47 224.81,-674.73 264,-645.5 308.98,-611.96 272.3,-573.29 300,-524.5 309.83,-507.18 325.33,-490.75 337.69,-479.15"/>
<polygon fill="#63b8ff" stroke="#63b8ff" points="340.21,-481.59 345.26,-472.27 335.51,-476.41 340.21,-481.59"/>
</g>
<!-- Node22&#45;&gt;Node5 -->
<g id="edge31" class="edge">
<title>Node22&#45;&gt;Node5</title>
<path fill="none" stroke="#63b8ff" d="M107.77,-501.65C111.56,-497.62 115.49,-492.68 118,-487.5 156.39,-408.17 117.8,-372.85 154,-292.5 160.6,-277.85 170.95,-263.54 180.82,-251.79"/>
<polygon fill="#63b8ff" stroke="#63b8ff" points="183.6,-253.93 187.54,-244.09 178.33,-249.33 183.6,-253.93"/>
</g>
<!-- Node22&#45;&gt;Node13 -->
<g id="edge33" class="edge">
<title>Node22&#45;&gt;Node13</title>
<path fill="none" stroke="#63b8ff" d="M106.87,-501.86C110.73,-497.71 114.94,-492.64 118,-487.5 141.53,-447.99 131.56,-430.64 154,-390.5 161.96,-376.26 172.73,-361.84 182.55,-349.89"/>
<polygon fill="#63b8ff" stroke="#63b8ff" points="185.4,-351.95 189.16,-342.05 180.04,-347.44 185.4,-351.95"/>
</g>
<!-- Node22&#45;&gt;Node18 -->
<g id="edge34" class="edge">
<title>Node22&#45;&gt;Node18</title>
<path fill="none" stroke="#63b8ff" d="M118.14,-512.64C125.62,-513.05 134.48,-513.53 143.67,-514.02"/>
<polygon fill="#63b8ff" stroke="#63b8ff" points="143.55,-517.52 153.72,-514.57 143.92,-510.53 143.55,-517.52"/>
</g>
<!-- Node22&#45;&gt;Node19 -->
<g id="edge35" class="edge">
<title>Node22&#45;&gt;Node19</title>
<path fill="none" stroke="#63b8ff" d="M96.79,-521.26C96.75,-550.98 101.18,-640.71 154,-678.5 193.76,-706.94 223.62,-706.06 264,-678.5 300.27,-653.75 273.67,-621.63 300,-586.5 308.52,-575.13 320.71,-565.19 331.62,-557.64"/>
<polygon fill="#63b8ff" stroke="#63b8ff" points="333.58,-560.54 340.02,-552.13 329.74,-554.7 333.58,-560.54"/>
</g>
<!-- Node22&#45;&gt;Node20 -->
<g id="edge36" class="edge">
<title>Node22&#45;&gt;Node20</title>
<path fill="none" stroke="#63b8ff" d="M103.57,-521.21C113.42,-535.34 133.12,-561.9 154,-580.5 157.33,-583.46 160.93,-586.35 164.64,-589.12"/>
<polygon fill="#63b8ff" stroke="#63b8ff" points="162.69,-592.03 172.87,-594.97 166.74,-586.32 162.69,-592.03"/>
</g>
<!-- Node23&#45;&gt;Node3 -->
<g id="edge38" class="edge">
<title>Node23&#45;&gt;Node3</title>
<path fill="none" stroke="#63b8ff" d="M118.14,-400.07C125.62,-401.69 134.48,-403.6 143.67,-405.59"/>
<polygon fill="#63b8ff" stroke="#63b8ff" points="143.21,-409.07 153.72,-407.76 144.69,-402.23 143.21,-409.07"/>
</g>
<!-- Node23&#45;&gt;Node4 -->
<g id="edge40" class="edge">
<title>Node23&#45;&gt;Node4</title>
<path fill="none" stroke="#63b8ff" d="M98.93,-385.85C103.8,-364.45 118.79,-313.26 154,-292.5 196.12,-267.67 225.51,-262.35 264,-292.5 316.61,-333.71 256.59,-387.69 300,-438.5 303.19,-442.23 307.06,-445.4 311.26,-448.08"/>
<polygon fill="#63b8ff" stroke="#63b8ff" points="309.78,-451.26 320.25,-452.93 313.11,-445.1 309.78,-451.26"/>
</g>
<!-- Node23&#45;&gt;Node5 -->
<g id="edge39" class="edge">
<title>Node23&#45;&gt;Node5</title>
<path fill="none" stroke="#63b8ff" d="M98.93,-385.83C104.13,-361.89 120.35,-298.86 154,-258.5 156.36,-255.67 159,-253 161.82,-250.47"/>
<polygon fill="#63b8ff" stroke="#63b8ff" points="164.04,-253.18 169.61,-244.17 159.63,-247.74 164.04,-253.18"/>
</g>
<!-- Node23&#45;&gt;Node13 -->
<g id="edge41" class="edge">
<title>Node23&#45;&gt;Node13</title>
<path fill="none" stroke="#63b8ff" d="M110.99,-385.79C122.49,-377.84 139.23,-366.34 154,-356.5 158.31,-353.63 162.82,-350.66 167.33,-347.71"/>
<polygon fill="#63b8ff" stroke="#63b8ff" points="169.47,-350.49 175.93,-342.1 165.64,-344.63 169.47,-350.49"/>
</g>
<!-- Node23&#45;&gt;Node18 -->
<g id="edge42" class="edge">
<title>Node23&#45;&gt;Node18</title>
<path fill="none" stroke="#63b8ff" d="M105.71,-405.07C121.99,-422.97 157.61,-462.12 182.2,-489.14"/>
<polygon fill="#63b8ff" stroke="#63b8ff" points="179.81,-491.72 189.13,-496.76 184.99,-487.01 179.81,-491.72"/>
</g>
<!-- Node23&#45;&gt;Node19 -->
<g id="edge43" class="edge">
<title>Node23&#45;&gt;Node19</title>
<path fill="none" stroke="#63b8ff" d="M118.17,-387.6C152.17,-376.38 219.62,-360.33 264,-390.5 299.97,-414.95 276.75,-444.74 300,-481.5 310.55,-498.18 326.01,-514.37 338.16,-525.88"/>
<polygon fill="#63b8ff" stroke="#63b8ff" points="335.86,-528.52 345.59,-532.72 340.61,-523.37 335.86,-528.52"/>
</g>
<!-- Node23&#45;&gt;Node20 -->
<g id="edge44" class="edge">
<title>Node23&#45;&gt;Node20</title>
<path fill="none" stroke="#63b8ff" d="M100.75,-405.23C104.97,-416.21 112.02,-434.62 118,-450.5 134.2,-493.54 131.42,-507.44 154,-547.5 161.82,-561.37 172.38,-575.37 182.09,-587.03"/>
<polygon fill="#63b8ff" stroke="#63b8ff" points="179.47,-589.37 188.63,-594.7 184.8,-584.82 179.47,-589.37"/>
</g>
</g>
</svg>
        <g id="navigator" transform="translate(0 0)" fill="#404254">
                <rect fill="#f2f5e9" fill-opacity="0.5" stroke="#606060" stroke-width=".5" x="0" y="0" width="60" height="60"/>
                <use id="zoomplus" xlink:href="#zoomPlus" x="17" y="9" onmousedown="handleZoom(evt,'in')"/>
                <use id="zoomminus" xlink:href="#zoomMin" x="42" y="9" onmousedown="handleZoom(evt,'out')"/>
                <use id="reset" xlink:href="#resetDef" x="30" y="36" onmousedown="handleReset()"/>
                <g id="arrowUp" xlink:href="#dirArrow" transform="translate(30 24)" onmousedown="handlePan(0,-1)">
                  <use xlink:href="#rim" fill="#404040">
                        <set attributeName="fill" to="#808080" begin="arrowUp.mouseover" end="arrowUp.mouseout"/>
                  </use>
                  <path fill="none" stroke="white" stroke-width="1.5" d="M0,-3.0v7 M-2.5,-0.5L0,-3.0L2.5,-0.5"/>
                </g>
                <g id="arrowRight" xlink:href="#dirArrow" transform="rotate(90) translate(36 -43)" onmousedown="handlePan(1,0)">
                  <use xlink:href="#rim" fill="#404040">
                        <set attributeName="fill" to="#808080" begin="arrowRight.mouseover" end="arrowRight.mouseout"/>
                  </use>
                  <path fill="none" stroke="white" stroke-width="1.5" d="M0,-3.0v7 M-2.5,-0.5L0,-3.0L2.5,-0.5"/>
                </g>
                <g id="arrowDown" xlink:href="#dirArrow" transform="rotate(180) translate(-30 -48)" onmousedown="handlePan(0,1)">
                  <use xlink:href="#rim" fill="#404040">
                        <set attributeName="fill" to="#808080" begin="arrowDown.mouseover" end="arrowDown.mouseout"/>
                  </use>
                  <path fill="none" stroke="white" stroke-width="1.5" d="M0,-3.0v7 M-2.5,-0.5L0,-3.0L2.5,-0.5"/>
                </g>
                <g id="arrowLeft" xlink:href="#dirArrow" transform="rotate(270) translate(-36 17)" onmousedown="handlePan(-1,0)">
                  <use xlink:href="#rim" fill="#404040">
                        <set attributeName="fill" to="#808080" begin="arrowLeft.mouseover" end="arrowLeft.mouseout"/>
                  </use>
                  <path fill="none" stroke="white" stroke-width="1.5" d="M0,-3.0v7 M-2.5,-0.5L0,-3.0L2.5,-0.5"/>
                </g>
        </g>
        <svg viewBox="0 0 15 15" width="100%" height="30px" preserveAspectRatio="xMaxYMin meet">
         <g id="arrow_out" transform="scale(0.3 0.3)">
          <a xlink:href="heavy__light__decomposition_8cpp_ae66f6b31b5ad750f1fe042a706a4e3d4_cgraph_org.svg" target="_base">
           <rect id="button" ry="5" rx="5" y="6" x="6" height="38" width="38"
                fill="#f2f5e9" fill-opacity="0.5" stroke="#606060" stroke-width="1.0"/>
           <path id="arrow"
             d="M 11.500037,31.436501 C 11.940474,20.09759 22.043105,11.32322 32.158766,21.979434 L 37.068811,17.246167 C 37.068811,17.246167 37.088388,32 37.088388,32 L 22.160133,31.978069 C 22.160133,31.978069 26.997745,27.140456 26.997745,27.140456 C 18.528582,18.264221 13.291696,25.230495 11.500037,31.436501 z"
             style="fill:#404040;"/>
          </a>
         </g>
        </svg>
</svg>
