<?xml version="1.0" encoding="UTF-8" standalone="no"?>
<!DOCTYPE svg PUBLIC "-//W3C//DTD SVG 1.1//EN"
 "http://www.w3.org/Graphics/SVG/1.1/DTD/svg11.dtd">
<!-- Generated by graphviz version 2.48.0 (20210717.1556)
 -->
<!-- Title: ternary_search Pages: 1 -->
<svg width="230pt" height="104pt"
 viewBox="0.00 0.00 230.00 104.00" xmlns="http://www.w3.org/2000/svg" xmlns:xlink="http://www.w3.org/1999/xlink">
<g id="graph0" class="graph" transform="scale(1 1) rotate(0) translate(4 100)">
<title>ternary_search</title>
<polygon fill="white" stroke="transparent" points="-4,4 -4,-100 226,-100 226,4 -4,4"/>
<!-- Node1 -->
<g id="node1" class="node">
<title>Node1</title>
<g id="a_node1"><a xlink:title=" ">
<polygon fill="#bfbfbf" stroke="black" points="0,-38.5 0,-57.5 83,-57.5 83,-38.5 0,-38.5"/>
<text text-anchor="middle" x="41.5" y="-45.5" font-family="Helvetica,sans-Serif" font-size="10.00">ternary_search</text>
</a>
</g>
</g>
<!-- Node2 -->
<g id="node2" class="node">
<title>Node2</title>
<g id="a_node2"><a target="_blank" xlink:href="http://en.cppreference.com/w/cpp/io/manip/endl.html#" xlink:title=" ">
<polygon fill="white" stroke="black" points="143.5,-76.5 143.5,-95.5 197.5,-95.5 197.5,-76.5 143.5,-76.5"/>
<text text-anchor="middle" x="170.5" y="-83.5" font-family="Helvetica,sans-Serif" font-size="10.00">std::endl</text>
</a>
</g>
</g>
<!-- Node1&#45;&gt;Node2 -->
<g id="edge1" class="edge">
<title>Node1&#45;&gt;Node2</title>
<path fill="none" stroke="midnightblue" d="M74.55,-57.59C92.61,-62.99 115.22,-69.76 133.84,-75.33"/>
<polygon fill="midnightblue" stroke="midnightblue" points="132.86,-78.69 143.45,-78.2 134.87,-71.98 132.86,-78.69"/>
</g>
<!-- Node3 -->
<g id="node3" class="node">
<title>Node3</title>
<g id="a_node3"><a xlink:href="../../dc/dfe/ternary__search_8cpp.html#ae30dfe2894191bfeffe5b3b1854b95b0" target="_top" xlink:title=" ">
<polygon fill="white" stroke="black" points="123.5,-38.5 123.5,-57.5 217.5,-57.5 217.5,-38.5 123.5,-38.5"/>
<text text-anchor="middle" x="170.5" y="-45.5" font-family="Helvetica,sans-Serif" font-size="10.00">it_ternary_search</text>
</a>
</g>
</g>
<!-- Node1&#45;&gt;Node3 -->
<g id="edge2" class="edge">
<title>Node1&#45;&gt;Node3</title>
<path fill="none" stroke="midnightblue" d="M83.03,-48C92.61,-48 103,-48 113.15,-48"/>
<polygon fill="midnightblue" stroke="midnightblue" points="113.17,-51.5 123.17,-48 113.17,-44.5 113.17,-51.5"/>
</g>
<!-- Node4 -->
<g id="node4" class="node">
<title>Node4</title>
<g id="a_node4"><a xlink:href="../../dc/dfe/ternary__search_8cpp.html#a93d0099db95022f1eb90ddfd68f73ead" target="_top" xlink:title=" ">
<polygon fill="white" stroke="black" points="119,-0.5 119,-19.5 222,-19.5 222,-0.5 119,-0.5"/>
<text text-anchor="middle" x="170.5" y="-7.5" font-family="Helvetica,sans-Serif" font-size="10.00">rec_ternary_search</text>
</a>
</g>
</g>
<!-- Node1&#45;&gt;Node4 -->
<g id="edge3" class="edge">
<title>Node1&#45;&gt;Node4</title>
<path fill="none" stroke="midnightblue" d="M74.55,-38.41C90.64,-33.6 110.34,-27.7 127.62,-22.53"/>
<polygon fill="midnightblue" stroke="midnightblue" points="128.89,-25.81 137.46,-19.59 126.88,-19.1 128.89,-25.81"/>
</g>
</g>
</svg>
