<?xml version="1.0" encoding="UTF-8" standalone="no"?>
<!DOCTYPE svg PUBLIC "-//W3C//DTD SVG 1.1//EN"
 "http://www.w3.org/Graphics/SVG/1.1/DTD/svg11.dtd">
<!-- Generated by graphviz version 5.0.0 (20220707.1540)
 -->
<!-- Title: main Pages: 1 -->
<svg width="299pt" height="122pt"
 viewBox="0.00 0.00 299.00 122.00" xmlns="http://www.w3.org/2000/svg" xmlns:xlink="http://www.w3.org/1999/xlink">
<g id="graph0" class="graph" transform="scale(1 1) rotate(0) translate(4 118)">
<title>main</title>
<polygon fill="white" stroke="transparent" points="-4,4 -4,-118 295,-118 295,4 -4,4"/>
<!-- Node1 -->
<g id="node1" class="node">
<title>Node1</title>
<g id="a_node1"><a xlink:title=" ">
<polygon fill="#bfbfbf" stroke="black" points="0,-75.5 0,-94.5 38,-94.5 38,-75.5 0,-75.5"/>
<text text-anchor="middle" x="19" y="-82.5" font-family="Helvetica,sans-Serif" font-size="10.00">main</text>
</a>
</g>
</g>
<!-- Node2 -->
<g id="node2" class="node">
<title>Node2</title>
<g id="a_node2"><a xlink:href="../../dc/dfe/ternary__search_8cpp.html#a7f7d866eccdabe51bb16818a792618b1" target="_top" xlink:title=" ">
<polygon fill="white" stroke="black" points="86.5,-94.5 86.5,-113.5 142.5,-113.5 142.5,-94.5 86.5,-94.5"/>
<text text-anchor="middle" x="114.5" y="-101.5" font-family="Helvetica,sans-Serif" font-size="10.00">get_input</text>
</a>
</g>
</g>
<!-- Node1&#45;&gt;Node2 -->
<g id="edge1" class="edge">
<title>Node1&#45;&gt;Node2</title>
<path fill="none" stroke="midnightblue" d="M38.03,-88.66C48.94,-90.88 63.26,-93.79 76.48,-96.48"/>
<polygon fill="midnightblue" stroke="midnightblue" points="75.82,-99.91 86.31,-98.48 77.21,-93.05 75.82,-99.91"/>
</g>
<!-- Node3 -->
<g id="node3" class="node">
<title>Node3</title>
<g id="a_node3"><a xlink:href="../../dc/dfe/ternary__search_8cpp.html#aef655a27eb82efa299bf9d0becf6e9c8" target="_top" xlink:title=" ">
<polygon fill="white" stroke="black" points="74,-56.5 74,-75.5 155,-75.5 155,-56.5 74,-56.5"/>
<text text-anchor="middle" x="114.5" y="-63.5" font-family="Helvetica,sans-Serif" font-size="10.00">ternary_search</text>
</a>
</g>
</g>
<!-- Node1&#45;&gt;Node3 -->
<g id="edge2" class="edge">
<title>Node1&#45;&gt;Node3</title>
<path fill="none" stroke="midnightblue" d="M38.03,-81.34C45.51,-79.82 54.6,-77.97 63.83,-76.09"/>
<polygon fill="midnightblue" stroke="midnightblue" points="64.74,-79.48 73.85,-74.06 63.35,-72.62 64.74,-79.48"/>
</g>
<!-- Node4 -->
<g id="node4" class="node">
<title>Node4</title>
<g id="a_node4"><a target="_blank" xlink:href="http://en.cppreference.com/w/cpp/io/manip/endl.html#" xlink:title=" ">
<polygon fill="white" stroke="black" points="214,-94.5 214,-113.5 268,-113.5 268,-94.5 214,-94.5"/>
<text text-anchor="middle" x="241" y="-101.5" font-family="Helvetica,sans-Serif" font-size="10.00">std::endl</text>
</a>
</g>
</g>
<!-- Node3&#45;&gt;Node4 -->
<g id="edge3" class="edge">
<title>Node3&#45;&gt;Node4</title>
<path fill="none" stroke="midnightblue" d="M146.92,-75.59C164.3,-80.89 185.97,-87.51 204.03,-93.02"/>
<polygon fill="midnightblue" stroke="midnightblue" points="203.06,-96.38 213.64,-95.96 205.1,-89.69 203.06,-96.38"/>
</g>
<!-- Node5 -->
<g id="node5" class="node">
<title>Node5</title>
<g id="a_node5"><a xlink:href="../../dc/dfe/ternary__search_8cpp.html#ae30dfe2894191bfeffe5b3b1854b95b0" target="_top" xlink:title=" ">
<polygon fill="white" stroke="black" points="195,-56.5 195,-75.5 287,-75.5 287,-56.5 195,-56.5"/>
<text text-anchor="middle" x="241" y="-63.5" font-family="Helvetica,sans-Serif" font-size="10.00">it_ternary_search</text>
</a>
</g>
</g>
<!-- Node3&#45;&gt;Node5 -->
<g id="edge4" class="edge">
<title>Node3&#45;&gt;Node5</title>
<path fill="none" stroke="midnightblue" d="M155.23,-66C164.53,-66 174.6,-66 184.44,-66"/>
<polygon fill="midnightblue" stroke="midnightblue" points="184.58,-69.5 194.58,-66 184.58,-62.5 184.58,-69.5"/>
</g>
<!-- Node6 -->
<g id="node6" class="node">
<title>Node6</title>
<g id="a_node6"><a xlink:href="../../dc/dfe/ternary__search_8cpp.html#a93d0099db95022f1eb90ddfd68f73ead" target="_top" xlink:title=" ">
<polygon fill="white" stroke="black" points="191,-0.5 191,-19.5 291,-19.5 291,-0.5 191,-0.5"/>
<text text-anchor="middle" x="241" y="-7.5" font-family="Helvetica,sans-Serif" font-size="10.00">rec_ternary_search</text>
</a>
</g>
</g>
<!-- Node3&#45;&gt;Node6 -->
<g id="edge5" class="edge">
<title>Node3&#45;&gt;Node6</title>
<path fill="none" stroke="midnightblue" d="M136.9,-56.37C156.98,-47.34 187.2,-33.75 209.74,-23.61"/>
<polygon fill="midnightblue" stroke="midnightblue" points="211.19,-26.8 218.88,-19.5 208.32,-20.41 211.19,-26.8"/>
</g>
<!-- Node6&#45;&gt;Node6 -->
<g id="edge6" class="edge">
<title>Node6&#45;&gt;Node6</title>
<path fill="none" stroke="midnightblue" d="M221.58,-19.76C212.13,-28.57 218.61,-38 241,-38 255.35,-38 263.16,-34.13 264.44,-29.03"/>
<polygon fill="midnightblue" stroke="midnightblue" points="267.61,-27.54 260.42,-19.76 261.18,-30.32 267.61,-27.54"/>
</g>
</g>
</svg>
