<?xml version="1.0" encoding="UTF-8" standalone="no"?>
<!DOCTYPE svg PUBLIC "-//W3C//DTD SVG 1.1//EN"
 "http://www.w3.org/Graphics/SVG/1.1/DTD/svg11.dtd">
<!-- Generated by graphviz version 7.1.0 (20230121.1956)
 -->
<!-- Title: ternary_search Pages: 1 -->
<svg width="225pt" height="119pt"
 viewBox="0.00 0.00 225.00 119.00" xmlns="http://www.w3.org/2000/svg" xmlns:xlink="http://www.w3.org/1999/xlink">
<g id="graph0" class="graph" transform="scale(1 1) rotate(0) translate(4 115)">
<title>ternary_search</title>
<!-- Node1 -->
<g id="node1" class="node">
<title>Node1</title>
<g id="a_node1"><a xlink:title=" ">
<polygon fill="#999999" stroke="#666666" points="81,-74 0,-74 0,-55 81,-55 81,-74"/>
<text text-anchor="middle" x="40.5" y="-62" font-family="Helvetica,sans-Serif" font-size="10.00">ternary_search</text>
</a>
</g>
</g>
<!-- Node2 -->
<g id="node2" class="node">
<title>Node2</title>
<g id="a_node2"><a target="_blank" xlink:href="http://en.cppreference.com/w/cpp/io/manip/endl.html#" xlink:title=" ">
<polygon fill="white" stroke="#666666" points="194,-111 140,-111 140,-92 194,-92 194,-111"/>
<text text-anchor="middle" x="167" y="-99" font-family="Helvetica,sans-Serif" font-size="10.00">std::endl</text>
</a>
</g>
</g>
<!-- Node1&#45;&gt;Node2 -->
<g id="edge1" class="edge">
<title>Node1&#45;&gt;Node2</title>
<path fill="none" stroke="#63b8ff" d="M74.86,-74.42C91.53,-79.37 111.74,-85.37 128.89,-90.47"/>
<polygon fill="#63b8ff" stroke="#63b8ff" points="127.61,-93.74 138.2,-93.24 129.61,-87.03 127.61,-93.74"/>
</g>
<!-- Node3 -->
<g id="node3" class="node">
<title>Node3</title>
<g id="a_node3"><a xlink:href="../../dc/dfe/ternary__search_8cpp.html#ae30dfe2894191bfeffe5b3b1854b95b0" target="_top" xlink:title=" ">
<polygon fill="white" stroke="#666666" points="213,-74 121,-74 121,-55 213,-55 213,-74"/>
<text text-anchor="middle" x="167" y="-62" font-family="Helvetica,sans-Serif" font-size="10.00">it_ternary_search</text>
</a>
</g>
</g>
<!-- Node1&#45;&gt;Node3 -->
<g id="edge2" class="edge">
<title>Node1&#45;&gt;Node3</title>
<path fill="none" stroke="#63b8ff" d="M81.23,-64.5C90.14,-64.5 99.75,-64.5 109.2,-64.5"/>
<polygon fill="#63b8ff" stroke="#63b8ff" points="109.07,-68 119.07,-64.5 109.07,-61 109.07,-68"/>
</g>
<!-- Node4 -->
<g id="node4" class="node">
<title>Node4</title>
<g id="a_node4"><a xlink:href="../../dc/dfe/ternary__search_8cpp.html#a93d0099db95022f1eb90ddfd68f73ead" target="_top" xlink:title=" ">
<polygon fill="white" stroke="#666666" points="217,-19 117,-19 117,0 217,0 217,-19"/>
<text text-anchor="middle" x="167" y="-7" font-family="Helvetica,sans-Serif" font-size="10.00">rec_ternary_search</text>
</a>
</g>
</g>
<!-- Node1&#45;&gt;Node4 -->
<g id="edge3" class="edge">
<title>Node1&#45;&gt;Node4</title>
<path fill="none" stroke="#63b8ff" d="M64.05,-54.54C83.35,-46.01 111.39,-33.62 133.18,-24"/>
<polygon fill="#63b8ff" stroke="#63b8ff" points="134.5,-27.24 142.24,-20 131.68,-20.84 134.5,-27.24"/>
</g>
<!-- Node4&#45;&gt;Node4 -->
<g id="edge4" class="edge">
<title>Node4&#45;&gt;Node4</title>
<path fill="none" stroke="#63b8ff" d="M147.2,-19.37C138.16,-27.94 144.76,-37 167,-37 179.16,-37 186.65,-34.29 189.45,-30.43"/>
<polygon fill="#63b8ff" stroke="#63b8ff" points="192.89,-29.75 187.16,-20.84 186.08,-31.38 192.89,-29.75"/>
</g>
</g>
</svg>
