<?xml version="1.0" encoding="UTF-8" standalone="no"?>
<!DOCTYPE svg PUBLIC "-//W3C//DTD SVG 1.1//EN"
 "http://www.w3.org/Graphics/SVG/1.1/DTD/svg11.dtd">
<!-- Generated by graphviz version 5.0.0 (20220707.1540)
 -->
<!-- Title: ternary_search Pages: 1 -->
<svg width="225pt" height="122pt"
 viewBox="0.00 0.00 225.00 122.00" xmlns="http://www.w3.org/2000/svg" xmlns:xlink="http://www.w3.org/1999/xlink">
<g id="graph0" class="graph" transform="scale(1 1) rotate(0) translate(4 118)">
<title>ternary_search</title>
<polygon fill="white" stroke="transparent" points="-4,4 -4,-118 221,-118 221,4 -4,4"/>
<!-- Node1 -->
<g id="node1" class="node">
<title>Node1</title>
<g id="a_node1"><a xlink:title=" ">
<polygon fill="#bfbfbf" stroke="black" points="0,-56.5 0,-75.5 81,-75.5 81,-56.5 0,-56.5"/>
<text text-anchor="middle" x="40.5" y="-63.5" font-family="Helvetica,sans-Serif" font-size="10.00">ternary_search</text>
</a>
</g>
</g>
<!-- Node2 -->
<g id="node2" class="node">
<title>Node2</title>
<g id="a_node2"><a target="_blank" xlink:href="http://en.cppreference.com/w/cpp/io/manip/endl.html#" xlink:title=" ">
<polygon fill="white" stroke="black" points="140,-94.5 140,-113.5 194,-113.5 194,-94.5 140,-94.5"/>
<text text-anchor="middle" x="167" y="-101.5" font-family="Helvetica,sans-Serif" font-size="10.00">std::endl</text>
</a>
</g>
</g>
<!-- Node1&#45;&gt;Node2 -->
<g id="edge1" class="edge">
<title>Node1&#45;&gt;Node2</title>
<path fill="none" stroke="midnightblue" d="M72.92,-75.59C90.3,-80.89 111.97,-87.51 130.03,-93.02"/>
<polygon fill="midnightblue" stroke="midnightblue" points="129.06,-96.38 139.64,-95.96 131.1,-89.69 129.06,-96.38"/>
</g>
<!-- Node3 -->
<g id="node3" class="node">
<title>Node3</title>
<g id="a_node3"><a xlink:href="../../dc/dfe/ternary__search_8cpp.html#ae30dfe2894191bfeffe5b3b1854b95b0" target="_top" xlink:title=" ">
<polygon fill="white" stroke="black" points="121,-56.5 121,-75.5 213,-75.5 213,-56.5 121,-56.5"/>
<text text-anchor="middle" x="167" y="-63.5" font-family="Helvetica,sans-Serif" font-size="10.00">it_ternary_search</text>
</a>
</g>
</g>
<!-- Node1&#45;&gt;Node3 -->
<g id="edge2" class="edge">
<title>Node1&#45;&gt;Node3</title>
<path fill="none" stroke="midnightblue" d="M81.23,-66C90.53,-66 100.6,-66 110.44,-66"/>
<polygon fill="midnightblue" stroke="midnightblue" points="110.58,-69.5 120.58,-66 110.58,-62.5 110.58,-69.5"/>
</g>
<!-- Node4 -->
<g id="node4" class="node">
<title>Node4</title>
<g id="a_node4"><a xlink:href="../../dc/dfe/ternary__search_8cpp.html#a93d0099db95022f1eb90ddfd68f73ead" target="_top" xlink:title=" ">
<polygon fill="white" stroke="black" points="117,-0.5 117,-19.5 217,-19.5 217,-0.5 117,-0.5"/>
<text text-anchor="middle" x="167" y="-7.5" font-family="Helvetica,sans-Serif" font-size="10.00">rec_ternary_search</text>
</a>
</g>
</g>
<!-- Node1&#45;&gt;Node4 -->
<g id="edge3" class="edge">
<title>Node1&#45;&gt;Node4</title>
<path fill="none" stroke="midnightblue" d="M62.9,-56.37C82.98,-47.34 113.2,-33.75 135.74,-23.61"/>
<polygon fill="midnightblue" stroke="midnightblue" points="137.19,-26.8 144.88,-19.5 134.32,-20.41 137.19,-26.8"/>
</g>
<!-- Node4&#45;&gt;Node4 -->
<g id="edge4" class="edge">
<title>Node4&#45;&gt;Node4</title>
<path fill="none" stroke="midnightblue" d="M147.58,-19.76C138.13,-28.57 144.61,-38 167,-38 181.35,-38 189.16,-34.13 190.44,-29.03"/>
<polygon fill="midnightblue" stroke="midnightblue" points="193.61,-27.54 186.42,-19.76 187.18,-30.32 193.61,-27.54"/>
</g>
</g>
</svg>
