<?xml version="1.0" encoding="UTF-8" standalone="no"?>
<!DOCTYPE svg PUBLIC "-//W3C//DTD SVG 1.1//EN"
 "http://www.w3.org/Graphics/SVG/1.1/DTD/svg11.dtd">
<!-- Generated by graphviz version 7.0.6 (20230106.0513)
 -->
<!-- Title: main Pages: 1 -->
<svg width="277pt" height="193pt"
 viewBox="0.00 0.00 277.00 193.00" xmlns="http://www.w3.org/2000/svg" xmlns:xlink="http://www.w3.org/1999/xlink">
<g id="graph0" class="graph" transform="scale(1 1) rotate(0) translate(4 189)">
<title>main</title>
<!-- Node1 -->
<g id="node1" class="node">
<title>Node1</title>
<g id="a_node1"><a xlink:title=" ">
<polygon fill="#999999" stroke="#666666" points="38,-110 0,-110 0,-91 38,-91 38,-110"/>
<text text-anchor="middle" x="19" y="-98" font-family="Helvetica,sans-Serif" font-size="10.00">main</text>
</a>
</g>
</g>
<!-- Node2 -->
<g id="node2" class="node">
<title>Node2</title>
<g id="a_node2"><a target="_blank" xlink:href="http://en.cppreference.com/w/cpp/numeric/random/srand.html#" xlink:title=" ">
<polygon fill="white" stroke="#666666" points="137.5,-166 77.5,-166 77.5,-147 137.5,-147 137.5,-166"/>
<text text-anchor="middle" x="107.5" y="-154" font-family="Helvetica,sans-Serif" font-size="10.00">std::srand</text>
</a>
</g>
</g>
<!-- Node1&#45;&gt;Node2 -->
<g id="edge1" class="edge">
<title>Node1&#45;&gt;Node2</title>
<path fill="none" stroke="#63b8ff" d="M33.05,-110.28C43.82,-118.2 59.62,-129.5 74,-138.5 75.23,-139.27 76.49,-140.04 77.78,-140.82"/>
<polygon fill="#63b8ff" stroke="#63b8ff" points="76.02,-143.84 86.43,-145.8 79.51,-137.77 76.02,-143.84"/>
</g>
<!-- Node3 -->
<g id="node3" class="node">
<title>Node3</title>
<g id="a_node3"><a xlink:href="../../d3/d4c/quick__sort__3_8cpp.html#a2635b04ad943fa28b7bbf8d1e6479792" target="_top" xlink:title=" ">
<polygon fill="white" stroke="#666666" points="141,-129 74,-129 74,-110 141,-110 141,-129"/>
<text text-anchor="middle" x="107.5" y="-117" font-family="Helvetica,sans-Serif" font-size="10.00">test_double</text>
</a>
</g>
</g>
<!-- Node1&#45;&gt;Node3 -->
<g id="edge2" class="edge">
<title>Node1&#45;&gt;Node3</title>
<path fill="none" stroke="#63b8ff" d="M38.34,-104.53C45.45,-106.09 53.91,-107.95 62.42,-109.82"/>
<polygon fill="#63b8ff" stroke="#63b8ff" points="61.52,-113.2 72.03,-111.93 63.02,-106.37 61.52,-113.2"/>
</g>
<!-- Node9 -->
<g id="node9" class="node">
<title>Node9</title>
<g id="a_node9"><a xlink:href="../../d3/d4c/quick__sort__3_8cpp.html#a07e5c62de28aeddea986890ce7ac1bda" target="_top" xlink:title=" ">
<polygon fill="white" stroke="#666666" points="132,-92 83,-92 83,-73 132,-73 132,-92"/>
<text text-anchor="middle" x="107.5" y="-80" font-family="Helvetica,sans-Serif" font-size="10.00">test_int</text>
</a>
</g>
</g>
<!-- Node1&#45;&gt;Node9 -->
<g id="edge9" class="edge">
<title>Node1&#45;&gt;Node9</title>
<path fill="none" stroke="#63b8ff" d="M38.34,-96.68C48.01,-94.67 60.21,-92.13 71.59,-89.76"/>
<polygon fill="#63b8ff" stroke="#63b8ff" points="72.03,-93.25 81.11,-87.78 70.61,-86.39 72.03,-93.25"/>
</g>
<!-- Node10 -->
<g id="node10" class="node">
<title>Node10</title>
<g id="a_node10"><a target="_blank" xlink:href="http://en.cppreference.com/w/cpp/chrono/c/time.html#" xlink:title=" ">
<polygon fill="white" stroke="#666666" points="135,-55 80,-55 80,-36 135,-36 135,-55"/>
<text text-anchor="middle" x="107.5" y="-43" font-family="Helvetica,sans-Serif" font-size="10.00">std::time</text>
</a>
</g>
</g>
<!-- Node1&#45;&gt;Node10 -->
<g id="edge15" class="edge">
<title>Node1&#45;&gt;Node10</title>
<path fill="none" stroke="#63b8ff" d="M34.06,-90.79C44.87,-83.41 60.24,-73.1 74,-64.5 75.83,-63.36 77.73,-62.19 79.64,-61.03"/>
<polygon fill="#63b8ff" stroke="#63b8ff" points="81.07,-64.26 87.88,-56.14 77.5,-58.24 81.07,-64.26"/>
</g>
<!-- Node4 -->
<g id="node4" class="node">
<title>Node4</title>
<g id="a_node4"><a target="_blank" xlink:href="http://en.cppreference.com/w/cpp/iterator/begin.html#" xlink:title=" ">
<polygon fill="white" stroke="#666666" points="252.5,-148 193.5,-148 193.5,-129 252.5,-129 252.5,-148"/>
<text text-anchor="middle" x="223" y="-136" font-family="Helvetica,sans-Serif" font-size="10.00">std::begin</text>
</a>
</g>
</g>
<!-- Node3&#45;&gt;Node4 -->
<g id="edge3" class="edge">
<title>Node3&#45;&gt;Node4</title>
<path fill="none" stroke="#63b8ff" d="M141.33,-125C153.99,-127.11 168.59,-129.56 181.86,-131.78"/>
<polygon fill="#63b8ff" stroke="#63b8ff" points="181.17,-135.21 191.61,-133.41 182.33,-128.31 181.17,-135.21"/>
</g>
<!-- Node5 -->
<g id="node5" class="node">
<title>Node5</title>
<g id="a_node5"><a target="_blank" xlink:href="http://en.cppreference.com/w/cpp/iterator/end.html#" xlink:title=" ">
<polygon fill="white" stroke="#666666" points="249,-111 197,-111 197,-92 249,-92 249,-111"/>
<text text-anchor="middle" x="223" y="-99" font-family="Helvetica,sans-Serif" font-size="10.00">std::end</text>
</a>
</g>
</g>
<!-- Node3&#45;&gt;Node5 -->
<g id="edge4" class="edge">
<title>Node3&#45;&gt;Node5</title>
<path fill="none" stroke="#63b8ff" d="M141.33,-114.29C155.14,-112.1 171.26,-109.55 185.45,-107.3"/>
<polygon fill="#63b8ff" stroke="#63b8ff" points="185.99,-110.75 195.32,-105.73 184.9,-103.84 185.99,-110.75"/>
</g>
<!-- Node6 -->
<g id="node6" class="node">
<title>Node6</title>
<g id="a_node6"><a target="_blank" xlink:href="http://en.cppreference.com/w/cpp/algorithm/is_sorted.html#" xlink:title=" ">
<polygon fill="white" stroke="#666666" points="261,-74 185,-74 185,-55 261,-55 261,-74"/>
<text text-anchor="middle" x="223" y="-62" font-family="Helvetica,sans-Serif" font-size="10.00">std::is_sorted</text>
</a>
</g>
</g>
<!-- Node3&#45;&gt;Node6 -->
<g id="edge5" class="edge">
<title>Node3&#45;&gt;Node6</title>
<path fill="none" stroke="#63b8ff" d="M126.32,-109.61C140.02,-102.13 159.51,-91.77 177,-83.5 180.3,-81.94 183.76,-80.37 187.23,-78.83"/>
<polygon fill="#63b8ff" stroke="#63b8ff" points="188.36,-82.16 196.16,-74.98 185.59,-75.73 188.36,-82.16"/>
</g>
<!-- Node7 -->
<g id="node7" class="node">
<title>Node7</title>
<g id="a_node7"><a xlink:href="../../d5/d91/namespacesorting.html#a9f59fe72dacc1f1218ef3c303d843168" target="_top" xlink:title=" ">
<polygon fill="white" stroke="#666666" points="269,-19 177,-19 177,0 269,0 269,-19"/>
<text text-anchor="middle" x="223" y="-7" font-family="Helvetica,sans-Serif" font-size="10.00">sorting::quicksort</text>
</a>
</g>
</g>
<!-- Node3&#45;&gt;Node7 -->
<g id="edge6" class="edge">
<title>Node3&#45;&gt;Node7</title>
<path fill="none" stroke="#63b8ff" d="M129.8,-109.67C133.76,-107.31 137.69,-104.57 141,-101.5 162.41,-81.62 157.49,-68.25 177,-46.5 183.55,-39.19 191.6,-32.11 199.07,-26.13"/>
<polygon fill="#63b8ff" stroke="#63b8ff" points="201.08,-29.01 206.87,-20.14 196.81,-23.46 201.08,-29.01"/>
</g>
<!-- Node8 -->
<g id="node8" class="node">
<title>Node8</title>
<g id="a_node8"><a target="_blank" xlink:href="http://en.cppreference.com/w/cpp/numeric/random/rand.html#" xlink:title=" ">
<polygon fill="white" stroke="#666666" points="250.5,-185 195.5,-185 195.5,-166 250.5,-166 250.5,-185"/>
<text text-anchor="middle" x="223" y="-173" font-family="Helvetica,sans-Serif" font-size="10.00">std::rand</text>
</a>
</g>
</g>
<!-- Node3&#45;&gt;Node8 -->
<g id="edge8" class="edge">
<title>Node3&#45;&gt;Node8</title>
<path fill="none" stroke="#63b8ff" d="M125.71,-129.37C142.57,-138.98 167.11,-152.8 177,-157.5 179.59,-158.73 182.3,-159.96 185.03,-161.15"/>
<polygon fill="#63b8ff" stroke="#63b8ff" points="183.61,-164.35 194.19,-164.99 186.32,-157.9 183.61,-164.35"/>
</g>
<!-- Node7&#45;&gt;Node7 -->
<g id="edge7" class="edge">
<title>Node7&#45;&gt;Node7</title>
<path fill="none" stroke="#63b8ff" d="M204.92,-19.37C196.67,-27.94 202.7,-37 223,-37 234.1,-37 240.94,-34.29 243.5,-30.43"/>
<polygon fill="#63b8ff" stroke="#63b8ff" points="246.96,-29.87 241.41,-20.85 240.12,-31.36 246.96,-29.87"/>
</g>
<!-- Node9&#45;&gt;Node4 -->
<g id="edge10" class="edge">
<title>Node9&#45;&gt;Node4</title>
<path fill="none" stroke="#63b8ff" d="M125.71,-92.37C142.57,-101.98 167.11,-115.8 177,-120.5 179.59,-121.73 182.3,-122.96 185.03,-124.15"/>
<polygon fill="#63b8ff" stroke="#63b8ff" points="183.61,-127.35 194.19,-127.99 186.32,-120.9 183.61,-127.35"/>
</g>
<!-- Node9&#45;&gt;Node5 -->
<g id="edge11" class="edge">
<title>Node9&#45;&gt;Node5</title>
<path fill="none" stroke="#63b8ff" d="M132.29,-86.48C147.76,-89.07 168.22,-92.5 185.69,-95.42"/>
<polygon fill="#63b8ff" stroke="#63b8ff" points="184.73,-98.81 195.17,-97.01 185.88,-91.91 184.73,-98.81"/>
</g>
<!-- Node9&#45;&gt;Node6 -->
<g id="edge12" class="edge">
<title>Node9&#45;&gt;Node6</title>
<path fill="none" stroke="#63b8ff" d="M132.29,-78.73C144.3,-76.82 159.31,-74.44 173.6,-72.18"/>
<polygon fill="#63b8ff" stroke="#63b8ff" points="174.01,-75.65 183.34,-70.63 172.91,-68.74 174.01,-75.65"/>
</g>
<!-- Node9&#45;&gt;Node7 -->
<g id="edge13" class="edge">
<title>Node9&#45;&gt;Node7</title>
<path fill="none" stroke="#63b8ff" d="M127.23,-72.51C131.78,-69.97 136.6,-67.2 141,-64.5 161.03,-52.19 183.05,-37.13 199.08,-25.88"/>
<polygon fill="#63b8ff" stroke="#63b8ff" points="200.82,-28.93 206.97,-20.3 196.78,-23.22 200.82,-28.93"/>
</g>
<!-- Node9&#45;&gt;Node8 -->
<g id="edge14" class="edge">
<title>Node9&#45;&gt;Node8</title>
<path fill="none" stroke="#63b8ff" d="M128.79,-92.37C133.09,-94.99 137.41,-98.06 141,-101.5 162.36,-121.97 154.18,-138.67 177,-157.5 179.49,-159.56 182.25,-161.4 185.14,-163.06"/>
<polygon fill="#63b8ff" stroke="#63b8ff" points="183.38,-166.09 193.91,-167.29 186.42,-159.79 183.38,-166.09"/>
</g>
</g>
</svg>
