<?xml version="1.0" encoding="UTF-8" standalone="no"?>
<!DOCTYPE svg PUBLIC "-//W3C//DTD SVG 1.1//EN"
 "http://www.w3.org/Graphics/SVG/1.1/DTD/svg11.dtd">
<!-- Generated by graphviz version 7.0.6 (20230106.0513)
 -->
<!-- Title: test_int Pages: 1 -->
<svg width="185pt" height="193pt"
 viewBox="0.00 0.00 185.00 193.00" xmlns="http://www.w3.org/2000/svg" xmlns:xlink="http://www.w3.org/1999/xlink">
<g id="graph0" class="graph" transform="scale(1 1) rotate(0) translate(4 189)">
<title>test_int</title>
<!-- Node1 -->
<g id="node1" class="node">
<title>Node1</title>
<g id="a_node1"><a xlink:title=" ">
<polygon fill="#999999" stroke="#666666" points="49,-111 0,-111 0,-92 49,-92 49,-111"/>
<text text-anchor="middle" x="24.5" y="-99" font-family="Helvetica,sans-Serif" font-size="10.00">test_int</text>
</a>
</g>
</g>
<!-- Node2 -->
<g id="node2" class="node">
<title>Node2</title>
<g id="a_node2"><a target="_blank" xlink:href="http://en.cppreference.com/w/cpp/iterator/begin.html#" xlink:title=" ">
<polygon fill="white" stroke="#666666" points="160.5,-185 101.5,-185 101.5,-166 160.5,-166 160.5,-185"/>
<text text-anchor="middle" x="131" y="-173" font-family="Helvetica,sans-Serif" font-size="10.00">std::begin</text>
</a>
</g>
</g>
<!-- Node1&#45;&gt;Node2 -->
<g id="edge1" class="edge">
<title>Node1&#45;&gt;Node2</title>
<path fill="none" stroke="#63b8ff" d="M33.87,-111.39C44.64,-123.61 64.43,-144.38 85,-157.5 86.86,-158.69 88.82,-159.82 90.82,-160.9"/>
<polygon fill="#63b8ff" stroke="#63b8ff" points="89.22,-164.01 99.75,-165.17 92.24,-157.7 89.22,-164.01"/>
</g>
<!-- Node3 -->
<g id="node3" class="node">
<title>Node3</title>
<g id="a_node3"><a target="_blank" xlink:href="http://en.cppreference.com/w/cpp/iterator/end.html#" xlink:title=" ">
<polygon fill="white" stroke="#666666" points="157,-148 105,-148 105,-129 157,-129 157,-148"/>
<text text-anchor="middle" x="131" y="-136" font-family="Helvetica,sans-Serif" font-size="10.00">std::end</text>
</a>
</g>
</g>
<!-- Node1&#45;&gt;Node3 -->
<g id="edge2" class="edge">
<title>Node1&#45;&gt;Node3</title>
<path fill="none" stroke="#63b8ff" d="M49.47,-109.99C62.63,-114.65 79.21,-120.52 93.9,-125.72"/>
<polygon fill="#63b8ff" stroke="#63b8ff" points="92.66,-128.99 103.25,-129.03 94.99,-122.39 92.66,-128.99"/>
</g>
<!-- Node4 -->
<g id="node4" class="node">
<title>Node4</title>
<g id="a_node4"><a target="_blank" xlink:href="http://en.cppreference.com/w/cpp/algorithm/is_sorted.html#" xlink:title=" ">
<polygon fill="white" stroke="#666666" points="169,-111 93,-111 93,-92 169,-92 169,-111"/>
<text text-anchor="middle" x="131" y="-99" font-family="Helvetica,sans-Serif" font-size="10.00">std::is_sorted</text>
</a>
</g>
</g>
<!-- Node1&#45;&gt;Node4 -->
<g id="edge3" class="edge">
<title>Node1&#45;&gt;Node4</title>
<path fill="none" stroke="#63b8ff" d="M49.47,-101.5C58.96,-101.5 70.21,-101.5 81.26,-101.5"/>
<polygon fill="#63b8ff" stroke="#63b8ff" points="81.1,-105 91.1,-101.5 81.1,-98 81.1,-105"/>
</g>
<!-- Node5 -->
<g id="node5" class="node">
<title>Node5</title>
<g id="a_node5"><a xlink:href="../../d5/d91/namespacesorting.html#a9f59fe72dacc1f1218ef3c303d843168" target="_top" xlink:title=" ">
<polygon fill="white" stroke="#666666" points="177,-56 85,-56 85,-37 177,-37 177,-56"/>
<text text-anchor="middle" x="131" y="-44" font-family="Helvetica,sans-Serif" font-size="10.00">sorting::quicksort</text>
</a>
</g>
</g>
<!-- Node1&#45;&gt;Node5 -->
<g id="edge4" class="edge">
<title>Node1&#45;&gt;Node5</title>
<path fill="none" stroke="#63b8ff" d="M44.18,-91.67C59.98,-83.35 82.89,-71.29 101.06,-61.73"/>
<polygon fill="#63b8ff" stroke="#63b8ff" points="102.57,-64.89 109.79,-57.14 99.31,-58.7 102.57,-64.89"/>
</g>
<!-- Node6 -->
<g id="node6" class="node">
<title>Node6</title>
<g id="a_node6"><a target="_blank" xlink:href="http://en.cppreference.com/w/cpp/numeric/random/rand.html#" xlink:title=" ">
<polygon fill="white" stroke="#666666" points="158.5,-19 103.5,-19 103.5,0 158.5,0 158.5,-19"/>
<text text-anchor="middle" x="131" y="-7" font-family="Helvetica,sans-Serif" font-size="10.00">std::rand</text>
</a>
</g>
</g>
<!-- Node1&#45;&gt;Node6 -->
<g id="edge6" class="edge">
<title>Node1&#45;&gt;Node6</title>
<path fill="none" stroke="#63b8ff" d="M31.26,-91.71C40.72,-76.36 60.93,-46.54 85,-28.5 87.46,-26.66 90.13,-24.95 92.89,-23.39"/>
<polygon fill="#63b8ff" stroke="#63b8ff" points="94.36,-26.56 101.78,-18.99 91.26,-20.29 94.36,-26.56"/>
</g>
<!-- Node5&#45;&gt;Node5 -->
<g id="edge5" class="edge">
<title>Node5&#45;&gt;Node5</title>
<path fill="none" stroke="#63b8ff" d="M114.33,-56.37C106.72,-64.94 112.28,-74 131,-74 141.24,-74 147.54,-71.29 149.9,-67.43"/>
<polygon fill="#63b8ff" stroke="#63b8ff" points="153.38,-66.96 147.97,-57.85 146.52,-68.35 153.38,-66.96"/>
</g>
</g>
</svg>
