<?xml version="1.0" encoding="UTF-8" standalone="no"?>
<!DOCTYPE svg PUBLIC "-//W3C//DTD SVG 1.1//EN"
 "http://www.w3.org/Graphics/SVG/1.1/DTD/svg11.dtd">
<!-- Generated by graphviz version 8.0.4 (20230421.1958)
 -->
<!-- Title: test_int Pages: 1 -->
<svg width="183pt" height="193pt"
 viewBox="0.00 0.00 183.25 193.25" xmlns="http://www.w3.org/2000/svg" xmlns:xlink="http://www.w3.org/1999/xlink">
<g id="graph0" class="graph" transform="scale(1 1) rotate(0) translate(4 189.25)">
<title>test_int</title>
<!-- Node1 -->
<g id="node1" class="node">
<title>Node1</title>
<g id="a_node1"><a xlink:title=" ">
<polygon fill="#999999" stroke="#666666" points="48.25,-111.25 0,-111.25 0,-92 48.25,-92 48.25,-111.25"/>
<text text-anchor="middle" x="24.12" y="-97.75" font-family="Helvetica,sans-Serif" font-size="10.00">test_int</text>
</a>
</g>
</g>
<!-- Node2 -->
<g id="node2" class="node">
<title>Node2</title>
<g id="a_node2"><a target="_blank" xlink:href="http://en.cppreference.com/w/cpp/iterator/begin.html#" xlink:title=" ">
<polygon fill="white" stroke="#666666" points="159.12,-185.25 100.38,-185.25 100.38,-166 159.12,-166 159.12,-185.25"/>
<text text-anchor="middle" x="129.75" y="-171.75" font-family="Helvetica,sans-Serif" font-size="10.00">std::begin</text>
</a>
</g>
</g>
<!-- Node1&#45;&gt;Node2 -->
<g id="edge1" class="edge">
<title>Node1&#45;&gt;Node2</title>
<path fill="none" stroke="#63b8ff" d="M33.44,-111.51C44.14,-123.72 63.79,-144.48 84.25,-157.62 86.24,-158.91 88.34,-160.13 90.5,-161.28"/>
<polygon fill="#63b8ff" stroke="#63b8ff" points="88.65,-164.75 99.18,-165.92 91.68,-158.44 88.65,-164.75"/>
</g>
<!-- Node3 -->
<g id="node3" class="node">
<title>Node3</title>
<g id="a_node3"><a target="_blank" xlink:href="http://en.cppreference.com/w/cpp/iterator/end.html#" xlink:title=" ">
<polygon fill="white" stroke="#666666" points="155.38,-148.25 104.12,-148.25 104.12,-129 155.38,-129 155.38,-148.25"/>
<text text-anchor="middle" x="129.75" y="-134.75" font-family="Helvetica,sans-Serif" font-size="10.00">std::end</text>
</a>
</g>
</g>
<!-- Node1&#45;&gt;Node3 -->
<g id="edge2" class="edge">
<title>Node1&#45;&gt;Node3</title>
<path fill="none" stroke="#63b8ff" d="M48.64,-110.02C61.9,-114.76 78.73,-120.77 93.54,-126.05"/>
<polygon fill="#63b8ff" stroke="#63b8ff" points="92.29,-129.68 102.88,-129.75 94.64,-123.09 92.29,-129.68"/>
</g>
<!-- Node4 -->
<g id="node4" class="node">
<title>Node4</title>
<g id="a_node4"><a target="_blank" xlink:href="http://en.cppreference.com/w/cpp/algorithm/is_sorted.html#" xlink:title=" ">
<polygon fill="white" stroke="#666666" points="167.38,-111.25 92.12,-111.25 92.12,-92 167.38,-92 167.38,-111.25"/>
<text text-anchor="middle" x="129.75" y="-97.75" font-family="Helvetica,sans-Serif" font-size="10.00">std::is_sorted</text>
</a>
</g>
</g>
<!-- Node1&#45;&gt;Node4 -->
<g id="edge3" class="edge">
<title>Node1&#45;&gt;Node4</title>
<path fill="none" stroke="#63b8ff" d="M48.64,-101.62C58.32,-101.62 69.91,-101.62 81.22,-101.62"/>
<polygon fill="#63b8ff" stroke="#63b8ff" points="80.91,-105.13 90.91,-101.62 80.91,-98.13 80.91,-105.13"/>
</g>
<!-- Node5 -->
<g id="node5" class="node">
<title>Node5</title>
<g id="a_node5"><a xlink:href="../../d5/d91/namespacesorting.html#a9f59fe72dacc1f1218ef3c303d843168" target="_top" xlink:title=" ">
<polygon fill="white" stroke="#666666" points="175.25,-56.25 84.25,-56.25 84.25,-37 175.25,-37 175.25,-56.25"/>
<text text-anchor="middle" x="129.75" y="-42.75" font-family="Helvetica,sans-Serif" font-size="10.00">sorting::quicksort</text>
</a>
</g>
</g>
<!-- Node1&#45;&gt;Node5 -->
<g id="edge4" class="edge">
<title>Node1&#45;&gt;Node5</title>
<path fill="none" stroke="#63b8ff" d="M44.13,-91.54C59.83,-83.2 82.37,-71.24 100.23,-61.76"/>
<polygon fill="#63b8ff" stroke="#63b8ff" points="101.67,-64.43 108.86,-56.65 98.39,-58.25 101.67,-64.43"/>
</g>
<!-- Node6 -->
<g id="node6" class="node">
<title>Node6</title>
<g id="a_node6"><a target="_blank" xlink:href="http://en.cppreference.com/w/cpp/numeric/random/rand.html#" xlink:title=" ">
<polygon fill="white" stroke="#666666" points="156.88,-19.25 102.62,-19.25 102.62,0 156.88,0 156.88,-19.25"/>
<text text-anchor="middle" x="129.75" y="-5.75" font-family="Helvetica,sans-Serif" font-size="10.00">std::rand</text>
</a>
</g>
</g>
<!-- Node1&#45;&gt;Node6 -->
<g id="edge6" class="edge">
<title>Node1&#45;&gt;Node6</title>
<path fill="none" stroke="#63b8ff" d="M30.77,-91.65C40.06,-76.02 59.99,-45.71 84.25,-27.62 86.76,-25.76 89.48,-24.05 92.31,-22.5"/>
<polygon fill="#63b8ff" stroke="#63b8ff" points="93.63,-25.27 101.15,-17.8 90.62,-18.95 93.63,-25.27"/>
</g>
<!-- Node5&#45;&gt;Node5 -->
<g id="edge5" class="edge">
<title>Node5&#45;&gt;Node5</title>
<path fill="none" stroke="#63b8ff" d="M113.21,-56.54C105.67,-65.15 111.18,-74.25 129.75,-74.25 140.48,-74.25 146.85,-71.21 148.86,-66.98"/>
<polygon fill="#63b8ff" stroke="#63b8ff" points="152.08,-66.41 146.29,-57.54 145.28,-68.09 152.08,-66.41"/>
</g>
</g>
</svg>
