<?xml version="1.0" encoding="UTF-8" standalone="no"?>
<!DOCTYPE svg PUBLIC "-//W3C//DTD SVG 1.1//EN"
 "http://www.w3.org/Graphics/SVG/1.1/DTD/svg11.dtd">
<!-- Generated by graphviz version 8.1.0 (20230707.0739)
 -->
<!-- Title: hashing/sha1.cpp Pages: 1 -->
<svg width="440pt" height="83pt"
 viewBox="0.00 0.00 440.38 82.50" xmlns="http://www.w3.org/2000/svg" xmlns:xlink="http://www.w3.org/1999/xlink">
<g id="graph0" class="graph" transform="scale(1 1) rotate(0) translate(4 78.5)">
<title>hashing/sha1.cpp</title>
<!-- Node1 -->
<g id="Node000001" class="node">
<title>Node1</title>
<g id="a_Node000001"><a xlink:title="Simple C++ implementation of the SHA&#45;1 Hashing Algorithm">
<polygon fill="#999999" stroke="#666666" points="265.12,-74.5 172.62,-74.5 172.62,-55.25 265.12,-55.25 265.12,-74.5"/>
<text text-anchor="middle" x="218.88" y="-61" font-family="Helvetica,sans-Serif" font-size="10.00">hashing/sha1.cpp</text>
</a>
</g>
</g>
<!-- Node2 -->
<g id="Node000002" class="node">
<title>Node2</title>
<g id="a_Node000002"><a xlink:title=" ">
<polygon fill="#e0e0e0" stroke="#999999" points="55.75,-19.25 0,-19.25 0,0 55.75,0 55.75,-19.25"/>
<text text-anchor="middle" x="27.88" y="-5.75" font-family="Helvetica,sans-Serif" font-size="10.00">algorithm</text>
</a>
</g>
</g>
<!-- Node1&#45;&gt;Node2 -->
<g id="edge1_Node000001_Node000002" class="edge">
<title>Node1&#45;&gt;Node2</title>
<g id="a_edge1_Node000001_Node000002"><a xlink:title=" ">
<path fill="none" stroke="#63b8ff" d="M186.47,-54.84C153.29,-45.59 101.72,-31.21 66.45,-21.38"/>
<polygon fill="#63b8ff" stroke="#63b8ff" points="67.64,-17.8 57.07,-18.49 65.76,-24.54 67.64,-17.8"/>
</a>
</g>
</g>
<!-- Node3 -->
<g id="Node000003" class="node">
<title>Node3</title>
<g id="a_Node000003"><a xlink:title=" ">
<polygon fill="#e0e0e0" stroke="#999999" points="111.75,-19.25 74,-19.25 74,0 111.75,0 111.75,-19.25"/>
<text text-anchor="middle" x="92.88" y="-5.75" font-family="Helvetica,sans-Serif" font-size="10.00">array</text>
</a>
</g>
</g>
<!-- Node1&#45;&gt;Node3 -->
<g id="edge2_Node000001_Node000003" class="edge">
<title>Node1&#45;&gt;Node3</title>
<g id="a_edge2_Node000001_Node000003"><a xlink:title=" ">
<path fill="none" stroke="#63b8ff" d="M197.5,-54.84C176.68,-46.04 144.87,-32.6 121.8,-22.85"/>
<polygon fill="#63b8ff" stroke="#63b8ff" points="123.45,-19.32 112.88,-18.66 120.73,-25.77 123.45,-19.32"/>
</a>
</g>
</g>
<!-- Node4 -->
<g id="Node000004" class="node">
<title>Node4</title>
<g id="a_Node000004"><a xlink:title=" ">
<polygon fill="#e0e0e0" stroke="#999999" points="178,-19.25 129.75,-19.25 129.75,0 178,0 178,-19.25"/>
<text text-anchor="middle" x="153.88" y="-5.75" font-family="Helvetica,sans-Serif" font-size="10.00">cassert</text>
</a>
</g>
</g>
<!-- Node1&#45;&gt;Node4 -->
<g id="edge3_Node000001_Node000004" class="edge">
<title>Node1&#45;&gt;Node4</title>
<g id="a_edge3_Node000001_Node000004"><a xlink:title=" ">
<path fill="none" stroke="#63b8ff" d="M207.85,-54.84C198.36,-47.07 184.45,-35.67 173.13,-26.4"/>
<polygon fill="#63b8ff" stroke="#63b8ff" points="175.69,-23.15 165.74,-19.52 171.26,-28.57 175.69,-23.15"/>
</a>
</g>
</g>
<!-- Node5 -->
<g id="Node000005" class="node">
<title>Node5</title>
<g id="a_Node000005"><a xlink:title=" ">
<polygon fill="#e0e0e0" stroke="#999999" points="241.5,-19.25 196.25,-19.25 196.25,0 241.5,0 241.5,-19.25"/>
<text text-anchor="middle" x="218.88" y="-5.75" font-family="Helvetica,sans-Serif" font-size="10.00">cstring</text>
</a>
</g>
</g>
<!-- Node1&#45;&gt;Node5 -->
<g id="edge4_Node000001_Node000005" class="edge">
<title>Node1&#45;&gt;Node5</title>
<g id="a_edge4_Node000001_Node000005"><a xlink:title=" ">
<path fill="none" stroke="#63b8ff" d="M218.88,-55.08C218.88,-48.42 218.88,-38.99 218.88,-30.53"/>
<polygon fill="#63b8ff" stroke="#63b8ff" points="222.38,-30.61 218.88,-20.61 215.38,-30.61 222.38,-30.61"/>
</a>
</g>
</g>
<!-- Node6 -->
<g id="Node000006" class="node">
<title>Node6</title>
<g id="a_Node000006"><a xlink:title=" ">
<polygon fill="#e0e0e0" stroke="#999999" points="312.62,-19.25 259.12,-19.25 259.12,0 312.62,0 312.62,-19.25"/>
<text text-anchor="middle" x="285.88" y="-5.75" font-family="Helvetica,sans-Serif" font-size="10.00">iostream</text>
</a>
</g>
</g>
<!-- Node1&#45;&gt;Node6 -->
<g id="edge5_Node000001_Node000006" class="edge">
<title>Node1&#45;&gt;Node6</title>
<g id="a_edge5_Node000001_Node000006"><a xlink:title=" ">
<path fill="none" stroke="#63b8ff" d="M230.24,-54.84C240.12,-46.99 254.64,-35.45 266.37,-26.12"/>
<polygon fill="#63b8ff" stroke="#63b8ff" points="268.03,-28.49 273.68,-19.52 263.67,-23.01 268.03,-28.49"/>
</a>
</g>
</g>
<!-- Node7 -->
<g id="Node000007" class="node">
<title>Node7</title>
<g id="a_Node000007"><a xlink:title=" ">
<polygon fill="#e0e0e0" stroke="#999999" points="370.88,-19.25 330.88,-19.25 330.88,0 370.88,0 370.88,-19.25"/>
<text text-anchor="middle" x="350.88" y="-5.75" font-family="Helvetica,sans-Serif" font-size="10.00">string</text>
</a>
</g>
</g>
<!-- Node1&#45;&gt;Node7 -->
<g id="edge6_Node000001_Node000007" class="edge">
<title>Node1&#45;&gt;Node7</title>
<g id="a_edge6_Node000001_Node000007"><a xlink:title=" ">
<path fill="none" stroke="#63b8ff" d="M241.27,-54.84C263.05,-46.05 296.31,-32.64 320.48,-22.89"/>
<polygon fill="#63b8ff" stroke="#63b8ff" points="321.58,-25.81 329.54,-18.83 318.96,-19.32 321.58,-25.81"/>
</a>
</g>
</g>
<!-- Node8 -->
<g id="Node000008" class="node">
<title>Node8</title>
<g id="a_Node000008"><a xlink:title=" ">
<polygon fill="#e0e0e0" stroke="#999999" points="432.38,-19.25 389.38,-19.25 389.38,0 432.38,0 432.38,-19.25"/>
<text text-anchor="middle" x="410.88" y="-5.75" font-family="Helvetica,sans-Serif" font-size="10.00">vector</text>
</a>
</g>
</g>
<!-- Node1&#45;&gt;Node8 -->
<g id="edge7_Node000001_Node000008" class="edge">
<title>Node1&#45;&gt;Node8</title>
<g id="a_edge7_Node000001_Node000008"><a xlink:title=" ">
<path fill="none" stroke="#63b8ff" d="M251.56,-54.82C282,-46.4 328.9,-33.4 378.84,-19.54"/>
<polygon fill="#63b8ff" stroke="#63b8ff" points="379.5,-22.71 388.2,-16.66 377.62,-15.96 379.5,-22.71"/>
</a>
</g>
</g>
</g>
</svg>
