<?xml version="1.0" encoding="UTF-8" standalone="no"?>
<!DOCTYPE svg PUBLIC "-//W3C//DTD SVG 1.1//EN"
 "http://www.w3.org/Graphics/SVG/1.1/DTD/svg11.dtd">
<!-- Generated by graphviz version 12.1.2 (20240928.0832)
 -->
<!-- Title: longest_increasing_subsequence_using_binary_search Pages: 1 -->
<svg width="279pt" height="101pt"
 viewBox="0.00 0.00 278.50 101.25" xmlns="http://www.w3.org/2000/svg" xmlns:xlink="http://www.w3.org/1999/xlink">
<g id="graph0" class="graph" transform="scale(1 1) rotate(0) translate(4 97.25)">
<title>longest_increasing_subsequence_using_binary_search</title>
<!-- Node1 -->
<g id="Node000001" class="node">
<title>Node1</title>
<g id="a_Node000001"><a xlink:title="for std::uint32_t">
<polygon fill="#999999" stroke="#666666" points="139,-67.5 0,-67.5 0,-25.75 139,-25.75 139,-67.5"/>
<text text-anchor="start" x="8" y="-54" font-family="Helvetica,sans-Serif" font-size="10.00">longest_increasing</text>
<text text-anchor="start" x="8" y="-42.75" font-family="Helvetica,sans-Serif" font-size="10.00">_subsequence_using_binary</text>
<text text-anchor="middle" x="69.5" y="-31.5" font-family="Helvetica,sans-Serif" font-size="10.00">_search</text>
</a>
</g>
</g>
<!-- Node2 -->
<g id="Node000002" class="node">
<title>Node2</title>
<g id="a_Node000002"><a target="_blank" xlink:href="http://en.cppreference.com/w/cpp/container/vector/empty.html#" xlink:title=" ">
<polygon fill="white" stroke="#666666" points="270.5,-93.25 175,-93.25 175,-74 270.5,-74 270.5,-93.25"/>
<text text-anchor="middle" x="222.75" y="-79.75" font-family="Helvetica,sans-Serif" font-size="10.00">std::vector::empty</text>
</a>
</g>
</g>
<!-- Node1&#45;&gt;Node2 -->
<g id="edge1_Node000001_Node000002" class="edge">
<title>Node1&#45;&gt;Node2</title>
<g id="a_edge1_Node000001_Node000002"><a xlink:title=" ">
<path fill="none" stroke="#63b8ff" d="M139.49,-63.5C149.57,-65.97 159.8,-68.47 169.48,-70.84"/>
<polygon fill="#63b8ff" stroke="#63b8ff" points="168.51,-74.21 179.06,-73.18 170.18,-67.41 168.51,-74.21"/>
</a>
</g>
</g>
<!-- Node3 -->
<g id="Node000003" class="node">
<title>Node3</title>
<g id="a_Node000003"><a target="_blank" xlink:href="http://en.cppreference.com/w/cpp/algorithm/lower_bound.html#" xlink:title=" ">
<polygon fill="white" stroke="#666666" points="267.88,-56.25 177.62,-56.25 177.62,-37 267.88,-37 267.88,-56.25"/>
<text text-anchor="middle" x="222.75" y="-42.75" font-family="Helvetica,sans-Serif" font-size="10.00">std::lower_bound</text>
</a>
</g>
</g>
<!-- Node1&#45;&gt;Node3 -->
<g id="edge2_Node000001_Node000003" class="edge">
<title>Node1&#45;&gt;Node3</title>
<g id="a_edge2_Node000001_Node000003"><a xlink:title=" ">
<path fill="none" stroke="#63b8ff" d="M139.49,-46.62C148.38,-46.62 157.39,-46.62 166.03,-46.62"/>
<polygon fill="#63b8ff" stroke="#63b8ff" points="166.03,-50.13 176.03,-46.63 166.03,-43.13 166.03,-50.13"/>
</a>
</g>
</g>
<!-- Node4 -->
<g id="Node000004" class="node">
<title>Node4</title>
<g id="a_Node000004"><a target="_blank" xlink:href="http://en.cppreference.com/w/cpp/container/vector/size.html#" xlink:title=" ">
<polygon fill="white" stroke="#666666" points="266,-19.25 179.5,-19.25 179.5,0 266,0 266,-19.25"/>
<text text-anchor="middle" x="222.75" y="-5.75" font-family="Helvetica,sans-Serif" font-size="10.00">std::vector::size</text>
</a>
</g>
</g>
<!-- Node1&#45;&gt;Node4 -->
<g id="edge3_Node000001_Node000004" class="edge">
<title>Node1&#45;&gt;Node4</title>
<g id="a_edge3_Node000001_Node000004"><a xlink:title=" ">
<path fill="none" stroke="#63b8ff" d="M139.49,-29.75C149.57,-27.28 159.8,-24.78 169.48,-22.41"/>
<polygon fill="#63b8ff" stroke="#63b8ff" points="170.18,-25.84 179.06,-20.07 168.51,-19.04 170.18,-25.84"/>
</a>
</g>
</g>
</g>
</svg>
