<?xml version="1.0" encoding="UTF-8" standalone="no"?>
<!DOCTYPE svg PUBLIC "-//W3C//DTD SVG 1.1//EN"
 "http://www.w3.org/Graphics/SVG/1.1/DTD/svg11.dtd">
<!-- Generated by graphviz version 5.0.0 (20220707.1540)
 -->
<!-- Title: data_structures/reverse_a_linked_list.cpp Pages: 1 -->
<svg width="253pt" height="95pt"
 viewBox="0.00 0.00 253.00 95.00" xmlns="http://www.w3.org/2000/svg" xmlns:xlink="http://www.w3.org/1999/xlink">
<g id="graph0" class="graph" transform="scale(1 1) rotate(0) translate(4 91)">
<title>data_structures/reverse_a_linked_list.cpp</title>
<polygon fill="white" stroke="transparent" points="-4,4 -4,-91 249,-91 249,4 -4,4"/>
<!-- Node1 -->
<g id="node1" class="node">
<title>Node1</title>
<g id="a_node1"><a xlink:title="Implementation of Reversing a single linked list">
<polygon fill="#bfbfbf" stroke="black" points="70,-56.5 70,-86.5 189,-86.5 189,-56.5 70,-56.5"/>
<text text-anchor="start" x="78" y="-74.5" font-family="Helvetica,sans-Serif" font-size="10.00">data_structures/reverse</text>
<text text-anchor="middle" x="129.5" y="-63.5" font-family="Helvetica,sans-Serif" font-size="10.00">_a_linked_list.cpp</text>
</a>
</g>
</g>
<!-- Node2 -->
<g id="node2" class="node">
<title>Node2</title>
<g id="a_node2"><a xlink:title=" ">
<polygon fill="white" stroke="#bfbfbf" points="0,-0.5 0,-19.5 49,-19.5 49,-0.5 0,-0.5"/>
<text text-anchor="middle" x="24.5" y="-7.5" font-family="Helvetica,sans-Serif" font-size="10.00">cassert</text>
</a>
</g>
</g>
<!-- Node1&#45;&gt;Node2 -->
<g id="edge1" class="edge">
<title>Node1&#45;&gt;Node2</title>
<path fill="none" stroke="midnightblue" d="M104.62,-56.4C87.79,-46.86 65.66,-34.32 48.93,-24.84"/>
<polygon fill="midnightblue" stroke="midnightblue" points="50.2,-21.54 39.78,-19.66 46.75,-27.63 50.2,-21.54"/>
</g>
<!-- Node3 -->
<g id="node3" class="node">
<title>Node3</title>
<g id="a_node3"><a xlink:title=" ">
<polygon fill="white" stroke="#bfbfbf" points="67.5,-0.5 67.5,-19.5 121.5,-19.5 121.5,-0.5 67.5,-0.5"/>
<text text-anchor="middle" x="94.5" y="-7.5" font-family="Helvetica,sans-Serif" font-size="10.00">iostream</text>
</a>
</g>
</g>
<!-- Node1&#45;&gt;Node3 -->
<g id="edge2" class="edge">
<title>Node1&#45;&gt;Node3</title>
<path fill="none" stroke="midnightblue" d="M121.21,-56.4C116.28,-48.02 109.99,-37.33 104.75,-28.42"/>
<polygon fill="midnightblue" stroke="midnightblue" points="107.68,-26.5 99.59,-19.66 101.65,-30.05 107.68,-26.5"/>
</g>
<!-- Node4 -->
<g id="node4" class="node">
<title>Node4</title>
<g id="a_node4"><a xlink:title=" ">
<polygon fill="white" stroke="#bfbfbf" points="139.5,-0.5 139.5,-19.5 191.5,-19.5 191.5,-0.5 139.5,-0.5"/>
<text text-anchor="middle" x="165.5" y="-7.5" font-family="Helvetica,sans-Serif" font-size="10.00">memory</text>
</a>
</g>
</g>
<!-- Node1&#45;&gt;Node4 -->
<g id="edge3" class="edge">
<title>Node1&#45;&gt;Node4</title>
<path fill="none" stroke="midnightblue" d="M138.03,-56.4C143.1,-48.02 149.57,-37.33 154.96,-28.42"/>
<polygon fill="midnightblue" stroke="midnightblue" points="158.08,-30.03 160.26,-19.66 152.09,-26.4 158.08,-30.03"/>
</g>
<!-- Node5 -->
<g id="node5" class="node">
<title>Node5</title>
<g id="a_node5"><a xlink:title=" ">
<polygon fill="white" stroke="#bfbfbf" points="210,-0.5 210,-19.5 245,-19.5 245,-0.5 210,-0.5"/>
<text text-anchor="middle" x="227.5" y="-7.5" font-family="Helvetica,sans-Serif" font-size="10.00">new</text>
</a>
</g>
</g>
<!-- Node1&#45;&gt;Node5 -->
<g id="edge4" class="edge">
<title>Node1&#45;&gt;Node5</title>
<path fill="none" stroke="midnightblue" d="M152.72,-56.4C168.29,-46.95 188.7,-34.56 204.26,-25.11"/>
<polygon fill="midnightblue" stroke="midnightblue" points="206.51,-27.84 213.24,-19.66 202.88,-21.86 206.51,-27.84"/>
</g>
</g>
</svg>
