<?xml version="1.0" encoding="UTF-8" standalone="no"?>
<!DOCTYPE svg PUBLIC "-//W3C//DTD SVG 1.1//EN"
 "http://www.w3.org/Graphics/SVG/1.1/DTD/svg11.dtd">
<!-- Generated by graphviz version 9.0.0 (20230911.1827)
 -->
<!-- Title: data_structures/reverse_a_linked_list.cpp Pages: 1 -->
<svg width="180pt" height="94pt"
 viewBox="0.00 0.00 180.12 93.75" xmlns="http://www.w3.org/2000/svg" xmlns:xlink="http://www.w3.org/1999/xlink">
<g id="graph0" class="graph" transform="scale(1 1) rotate(0) translate(4 89.75)">
<title>data_structures/reverse_a_linked_list.cpp</title>
<!-- Node1 -->
<g id="Node000001" class="node">
<title>Node1</title>
<g id="a_Node000001"><a xlink:title="Implementation of Reversing a single linked list">
<polygon fill="#999999" stroke="#666666" points="152.5,-85.75 33.75,-85.75 33.75,-55.25 152.5,-55.25 152.5,-85.75"/>
<text text-anchor="start" x="41.75" y="-72.25" font-family="Helvetica,sans-Serif" font-size="10.00">data_structures/reverse</text>
<text text-anchor="middle" x="93.12" y="-61" font-family="Helvetica,sans-Serif" font-size="10.00">_a_linked_list.cpp</text>
</a>
</g>
</g>
<!-- Node2 -->
<g id="Node000002" class="node">
<title>Node2</title>
<g id="a_Node000002"><a xlink:title=" ">
<polygon fill="#e0e0e0" stroke="#999999" points="48.25,-19.25 0,-19.25 0,0 48.25,0 48.25,-19.25"/>
<text text-anchor="middle" x="24.12" y="-5.75" font-family="Helvetica,sans-Serif" font-size="10.00">cassert</text>
</a>
</g>
</g>
<!-- Node1&#45;&gt;Node2 -->
<g id="edge1_Node000001_Node000002" class="edge">
<title>Node1&#45;&gt;Node2</title>
<g id="a_edge1_Node000001_Node000002"><a xlink:title=" ">
<path fill="none" stroke="#63b8ff" d="M76.07,-54.95C66.17,-46.5 53.67,-35.83 43.41,-27.08"/>
<polygon fill="#63b8ff" stroke="#63b8ff" points="45.79,-24.51 35.91,-20.68 41.25,-29.84 45.79,-24.51"/>
</a>
</g>
</g>
<!-- Node3 -->
<g id="Node000003" class="node">
<title>Node3</title>
<g id="a_Node000003"><a xlink:title=" ">
<polygon fill="#e0e0e0" stroke="#999999" points="119.88,-19.25 66.38,-19.25 66.38,0 119.88,0 119.88,-19.25"/>
<text text-anchor="middle" x="93.12" y="-5.75" font-family="Helvetica,sans-Serif" font-size="10.00">iostream</text>
</a>
</g>
</g>
<!-- Node1&#45;&gt;Node3 -->
<g id="edge2_Node000001_Node000003" class="edge">
<title>Node1&#45;&gt;Node3</title>
<g id="a_edge2_Node000001_Node000003"><a xlink:title=" ">
<path fill="none" stroke="#63b8ff" d="M93.12,-54.95C93.12,-47.71 93.12,-38.84 93.12,-30.94"/>
<polygon fill="#63b8ff" stroke="#63b8ff" points="96.63,-31.21 93.13,-21.21 89.63,-31.21 96.63,-31.21"/>
</a>
</g>
</g>
<!-- Node4 -->
<g id="Node000004" class="node">
<title>Node4</title>
<g id="a_Node000004"><a xlink:title=" ">
<polygon fill="#e0e0e0" stroke="#999999" points="172.12,-19.25 138.12,-19.25 138.12,0 172.12,0 172.12,-19.25"/>
<text text-anchor="middle" x="155.12" y="-5.75" font-family="Helvetica,sans-Serif" font-size="10.00">new</text>
</a>
</g>
</g>
<!-- Node1&#45;&gt;Node4 -->
<g id="edge3_Node000001_Node000004" class="edge">
<title>Node1&#45;&gt;Node4</title>
<g id="a_edge3_Node000001_Node000004"><a xlink:title=" ">
<path fill="none" stroke="#63b8ff" d="M108.45,-54.95C117.16,-46.67 128.12,-36.27 137.23,-27.62"/>
<polygon fill="#63b8ff" stroke="#63b8ff" points="139.63,-30.17 144.47,-20.74 134.81,-25.09 139.63,-30.17"/>
</a>
</g>
</g>
</g>
</svg>
