<?xml version="1.0" encoding="UTF-8" standalone="no"?>
<!DOCTYPE svg PUBLIC "-//W3C//DTD SVG 1.1//EN"
 "http://www.w3.org/Graphics/SVG/1.1/DTD/svg11.dtd">
<!-- Generated by graphviz version 8.0.2 (20230410.1723)
 -->
<!-- Title: main Pages: 1 -->
<svg width="322pt" height="101pt"
 viewBox="0.00 0.00 322.00 101.00" xmlns="http://www.w3.org/2000/svg" xmlns:xlink="http://www.w3.org/1999/xlink">
<g id="graph0" class="graph" transform="scale(1 1) rotate(0) translate(4 97)">
<title>main</title>
<!-- Node1 -->
<g id="node1" class="node">
<title>Node1</title>
<g id="a_node1"><a xlink:title=" ">
<polygon fill="#999999" stroke="#666666" points="38,-56 0,-56 0,-37 38,-37 38,-56"/>
<text text-anchor="middle" x="19" y="-44" font-family="Helvetica,sans-Serif" font-size="10.00">main</text>
</a>
</g>
</g>
<!-- Node2 -->
<g id="node2" class="node">
<title>Node2</title>
<g id="a_node2"><a xlink:href="../../d2/d52/heap__sort_8cpp.html#ae1a3968e7947464bee7714f6d43b7002" target="_top" xlink:title=" ">
<polygon fill="white" stroke="#666666" points="107,-56 74,-56 74,-37 107,-37 107,-56"/>
<text text-anchor="middle" x="90.5" y="-44" font-family="Helvetica,sans-Serif" font-size="10.00">test</text>
</a>
</g>
</g>
<!-- Node1&#45;&gt;Node2 -->
<g id="edge1" class="edge">
<title>Node1&#45;&gt;Node2</title>
<path fill="none" stroke="#63b8ff" d="M38.26,-46.5C45.89,-46.5 54.9,-46.5 63.23,-46.5"/>
<polygon fill="#63b8ff" stroke="#63b8ff" points="62.95,-50 72.95,-46.5 62.95,-43 62.95,-50"/>
</g>
<!-- Node3 -->
<g id="node3" class="node">
<title>Node3</title>
<g id="a_node3"><a xlink:href="../../d5/d4c/group__sorting.html#ga29d28b140174dbdde7c9f5157758435f" target="_top" xlink:title=" ">
<polygon fill="white" stroke="#666666" points="209,-93 153,-93 153,-74 209,-74 209,-93"/>
<text text-anchor="middle" x="181" y="-81" font-family="Helvetica,sans-Serif" font-size="10.00">heapSort</text>
</a>
</g>
</g>
<!-- Node2&#45;&gt;Node3 -->
<g id="edge2" class="edge">
<title>Node2&#45;&gt;Node3</title>
<path fill="none" stroke="#63b8ff" d="M107.32,-53.11C118.18,-57.65 132.99,-63.85 146.41,-69.46"/>
<polygon fill="#63b8ff" stroke="#63b8ff" points="144.74,-72.97 155.32,-73.6 147.44,-66.51 144.74,-72.97"/>
</g>
<!-- Node5 -->
<g id="node5" class="node">
<title>Node5</title>
<g id="a_node5"><a target="_blank" xlink:href="http://en.cppreference.com/w/cpp/algorithm/is_sorted.html#" xlink:title=" ">
<polygon fill="white" stroke="#666666" points="219,-56 143,-56 143,-37 219,-37 219,-56"/>
<text text-anchor="middle" x="181" y="-44" font-family="Helvetica,sans-Serif" font-size="10.00">std::is_sorted</text>
</a>
</g>
</g>
<!-- Node2&#45;&gt;Node5 -->
<g id="edge4" class="edge">
<title>Node2&#45;&gt;Node5</title>
<path fill="none" stroke="#63b8ff" d="M107.32,-46.5C114.32,-46.5 122.96,-46.5 131.82,-46.5"/>
<polygon fill="#63b8ff" stroke="#63b8ff" points="131.63,-50 141.63,-46.5 131.63,-43 131.63,-50"/>
</g>
<!-- Node6 -->
<g id="node6" class="node">
<title>Node6</title>
<g id="a_node6"><a xlink:href="../../d2/d52/heap__sort_8cpp.html#a9ed3e1510afdf3edd06cf2b68769a767" target="_top" xlink:title=" ">
<polygon fill="white" stroke="#666666" points="210.5,-19 151.5,-19 151.5,0 210.5,0 210.5,-19"/>
<text text-anchor="middle" x="181" y="-7" font-family="Helvetica,sans-Serif" font-size="10.00">printArray</text>
</a>
</g>
</g>
<!-- Node2&#45;&gt;Node6 -->
<g id="edge5" class="edge">
<title>Node2&#45;&gt;Node6</title>
<path fill="none" stroke="#63b8ff" d="M107.32,-39.89C118.18,-35.35 132.99,-29.15 146.41,-23.54"/>
<polygon fill="#63b8ff" stroke="#63b8ff" points="147.44,-26.49 155.32,-19.4 144.74,-20.03 147.44,-26.49"/>
</g>
<!-- Node4 -->
<g id="node4" class="node">
<title>Node4</title>
<g id="a_node4"><a target="_blank" xlink:href="http://en.cppreference.com/w/cpp/algorithm/swap.html#" xlink:title=" ">
<polygon fill="white" stroke="#666666" points="314,-93 255,-93 255,-74 314,-74 314,-93"/>
<text text-anchor="middle" x="284.5" y="-81" font-family="Helvetica,sans-Serif" font-size="10.00">std::swap</text>
</a>
</g>
</g>
<!-- Node3&#45;&gt;Node4 -->
<g id="edge3" class="edge">
<title>Node3&#45;&gt;Node4</title>
<path fill="none" stroke="#63b8ff" d="M209.47,-83.5C220.06,-83.5 232.37,-83.5 243.88,-83.5"/>
<polygon fill="#63b8ff" stroke="#63b8ff" points="243.59,-87 253.59,-83.5 243.59,-80 243.59,-87"/>
</g>
</g>
</svg>
