<?xml version="1.0" encoding="UTF-8" standalone="no"?>
<!DOCTYPE svg PUBLIC "-//W3C//DTD SVG 1.1//EN"
 "http://www.w3.org/Graphics/SVG/1.1/DTD/svg11.dtd">
<!-- Generated by graphviz version 8.0.2 (20230410.1723)
 -->
<!-- Title: backtracking/rat_maze.cpp Pages: 1 -->
<svg width="186pt" height="82pt"
 viewBox="0.00 0.00 186.00 82.00" xmlns="http://www.w3.org/2000/svg" xmlns:xlink="http://www.w3.org/1999/xlink">
<g id="graph0" class="graph" transform="scale(1 1) rotate(0) translate(4 78)">
<title>backtracking/rat_maze.cpp</title>
<!-- Node1 -->
<g id="node1" class="node">
<title>Node1</title>
<g id="a_node1"><a xlink:title="Implements Rat in a Maze algorithm.">
<polygon fill="#999999" stroke="#666666" points="148,-74 14,-74 14,-55 148,-55 148,-74"/>
<text text-anchor="middle" x="81" y="-62" font-family="Helvetica,sans-Serif" font-size="10.00">backtracking/rat_maze.cpp</text>
</a>
</g>
</g>
<!-- Node2 -->
<g id="node2" class="node">
<title>Node2</title>
<g id="a_node2"><a xlink:title=" ">
<polygon fill="#e0e0e0" stroke="#999999" points="38,-19 0,-19 0,0 38,0 38,-19"/>
<text text-anchor="middle" x="19" y="-7" font-family="Helvetica,sans-Serif" font-size="10.00">array</text>
</a>
</g>
</g>
<!-- Node1&#45;&gt;Node2 -->
<g id="edge1" class="edge">
<title>Node1&#45;&gt;Node2</title>
<path fill="none" stroke="#63b8ff" d="M70.48,-54.51C61.52,-46.85 48.43,-35.66 37.69,-26.47"/>
<polygon fill="#63b8ff" stroke="#63b8ff" points="40.24,-23.2 30.36,-19.36 35.69,-28.52 40.24,-23.2"/>
</g>
<!-- Node3 -->
<g id="node3" class="node">
<title>Node3</title>
<g id="a_node3"><a xlink:title=" ">
<polygon fill="#e0e0e0" stroke="#999999" points="105.5,-19 56.5,-19 56.5,0 105.5,0 105.5,-19"/>
<text text-anchor="middle" x="81" y="-7" font-family="Helvetica,sans-Serif" font-size="10.00">cassert</text>
</a>
</g>
</g>
<!-- Node1&#45;&gt;Node3 -->
<g id="edge2" class="edge">
<title>Node1&#45;&gt;Node3</title>
<path fill="none" stroke="#63b8ff" d="M81,-54.75C81,-48.11 81,-38.73 81,-30.31"/>
<polygon fill="#63b8ff" stroke="#63b8ff" points="84.5,-30.44 81,-20.44 77.5,-30.44 84.5,-30.44"/>
</g>
<!-- Node4 -->
<g id="node4" class="node">
<title>Node4</title>
<g id="a_node4"><a xlink:title=" ">
<polygon fill="#e0e0e0" stroke="#999999" points="178,-19 124,-19 124,0 178,0 178,-19"/>
<text text-anchor="middle" x="151" y="-7" font-family="Helvetica,sans-Serif" font-size="10.00">iostream</text>
</a>
</g>
</g>
<!-- Node1&#45;&gt;Node4 -->
<g id="edge3" class="edge">
<title>Node1&#45;&gt;Node4</title>
<path fill="none" stroke="#63b8ff" d="M92.87,-54.51C103.19,-46.7 118.37,-35.21 130.63,-25.93"/>
<polygon fill="#63b8ff" stroke="#63b8ff" points="132.44,-28.18 138.3,-19.36 128.22,-22.6 132.44,-28.18"/>
</g>
</g>
</svg>
