<?xml version="1.0" encoding="UTF-8" standalone="no"?>
<!DOCTYPE svg PUBLIC "-//W3C//DTD SVG 1.1//EN"
 "http://www.w3.org/Graphics/SVG/1.1/DTD/svg11.dtd">
<!-- Generated by graphviz version 5.0.1 (20220820.1526)
 -->
<!-- Title: backtracking::rat_maze::solveMaze Pages: 1 -->
<svg width="217pt" height="56pt"
 viewBox="0.00 0.00 217.00 56.00" xmlns="http://www.w3.org/2000/svg" xmlns:xlink="http://www.w3.org/1999/xlink">
<g id="graph0" class="graph" transform="scale(1 1) rotate(0) translate(4 52)">
<title>backtracking::rat_maze::solveMaze</title>
<!-- Node1 -->
<g id="node1" class="node">
<title>Node1</title>
<g id="a_node1"><a xlink:title="Solve rat maze problem.">
<polygon fill="#999999" stroke="#666666" points="119,-30 0,-30 0,0 119,0 119,-30"/>
<text text-anchor="start" x="8" y="-18" font-family="Helvetica,sans-Serif" font-size="10.00">backtracking::rat_maze</text>
<text text-anchor="middle" x="59.5" y="-7" font-family="Helvetica,sans-Serif" font-size="10.00">::solveMaze</text>
</a>
</g>
</g>
<!-- Node1&#45;&gt;Node1 -->
<g id="edge2" class="edge">
<title>Node1&#45;&gt;Node1</title>
<path fill="none" stroke="#63b8ff" d="M38.05,-30.28C33.29,-39.41 40.44,-48 59.5,-48 70.82,-48 77.94,-44.97 80.85,-40.6"/>
<polygon fill="#63b8ff" stroke="#63b8ff" points="84.36,-40.31 80.95,-30.28 77.36,-40.24 84.36,-40.31"/>
</g>
<!-- Node2 -->
<g id="node2" class="node">
<title>Node2</title>
<g id="a_node2"><a target="_blank" xlink:href="http://en.cppreference.com/w/cpp/io/manip/endl.html#" xlink:title=" ">
<polygon fill="white" stroke="#666666" points="209,-24.5 155,-24.5 155,-5.5 209,-5.5 209,-24.5"/>
<text text-anchor="middle" x="182" y="-12.5" font-family="Helvetica,sans-Serif" font-size="10.00">std::endl</text>
</a>
</g>
</g>
<!-- Node1&#45;&gt;Node2 -->
<g id="edge1" class="edge">
<title>Node1&#45;&gt;Node2</title>
<path fill="none" stroke="#63b8ff" d="M119.34,-15C127.98,-15 136.66,-15 144.66,-15"/>
<polygon fill="#63b8ff" stroke="#63b8ff" points="144.74,-18.5 154.74,-15 144.74,-11.5 144.74,-18.5"/>
</g>
</g>
</svg>
