<?xml version="1.0" encoding="UTF-8" standalone="no"?>
<!DOCTYPE svg PUBLIC "-//W3C//DTD SVG 1.1//EN"
 "http://www.w3.org/Graphics/SVG/1.1/DTD/svg11.dtd">
<!-- Generated by graphviz version 2.49.1 (20210923.0004)
 -->
<!-- Title: test Pages: 1 -->
<svg width="264pt" height="104pt"
 viewBox="0.00 0.00 264.00 104.00" xmlns="http://www.w3.org/2000/svg" xmlns:xlink="http://www.w3.org/1999/xlink">
<g id="graph0" class="graph" transform="scale(1 1) rotate(0) translate(4 100)">
<title>test</title>
<polygon fill="white" stroke="transparent" points="-4,4 -4,-100 260,-100 260,4 -4,4"/>
<!-- Node1 -->
<g id="node1" class="node">
<title>Node1</title>
<g id="a_node1"><a xlink:title="Function to test the correctness of the Tree Reversal.">
<polygon fill="#bfbfbf" stroke="black" points="0,-38.5 0,-57.5 33,-57.5 33,-38.5 0,-38.5"/>
<text text-anchor="middle" x="16.5" y="-45.5" font-family="Helvetica,sans-Serif" font-size="10.00">test</text>
</a>
</g>
</g>
<!-- Node2 -->
<g id="node2" class="node">
<title>Node2</title>
<g id="a_node2"><a xlink:href="../../d9/df4/namespacetests.html#a167c24bd817469ae47358d12e034f2d5" target="_top" xlink:title="&lt; Use the BinaryTree">
<polygon fill="white" stroke="black" points="69,-76.5 69,-95.5 134,-95.5 134,-76.5 69,-76.5"/>
<text text-anchor="middle" x="101.5" y="-83.5" font-family="Helvetica,sans-Serif" font-size="10.00">tests::test1</text>
</a>
</g>
</g>
<!-- Node1&#45;&gt;Node2 -->
<g id="edge1" class="edge">
<title>Node1&#45;&gt;Node2</title>
<path fill="none" stroke="midnightblue" d="M33.11,-55.15C43.59,-59.94 57.73,-66.42 70.36,-72.2"/>
<polygon fill="midnightblue" stroke="midnightblue" points="69.08,-75.46 79.63,-76.44 71.99,-69.1 69.08,-75.46"/>
</g>
<!-- Node4 -->
<g id="node4" class="node">
<title>Node4</title>
<g id="a_node4"><a xlink:href="../../d9/df4/namespacetests.html#abdd77344d4af8fd56d14a5cabbf2f669" target="_top" xlink:title="A Test to check an edge case (NULL root element)">
<polygon fill="white" stroke="black" points="69,-38.5 69,-57.5 134,-57.5 134,-38.5 69,-38.5"/>
<text text-anchor="middle" x="101.5" y="-45.5" font-family="Helvetica,sans-Serif" font-size="10.00">tests::test2</text>
</a>
</g>
</g>
<!-- Node1&#45;&gt;Node4 -->
<g id="edge3" class="edge">
<title>Node1&#45;&gt;Node4</title>
<path fill="none" stroke="midnightblue" d="M33.11,-48C40.41,-48 49.49,-48 58.6,-48"/>
<polygon fill="midnightblue" stroke="midnightblue" points="58.8,-51.5 68.8,-48 58.8,-44.5 58.8,-51.5"/>
</g>
<!-- Node5 -->
<g id="node5" class="node">
<title>Node5</title>
<g id="a_node5"><a xlink:href="../../d9/df4/namespacetests.html#aa515639572647508b94986489aab6d76" target="_top" xlink:title="A Test to check correct reversal of a Binary Tree.">
<polygon fill="white" stroke="black" points="69,-0.5 69,-19.5 134,-19.5 134,-0.5 69,-0.5"/>
<text text-anchor="middle" x="101.5" y="-7.5" font-family="Helvetica,sans-Serif" font-size="10.00">tests::test3</text>
</a>
</g>
</g>
<!-- Node1&#45;&gt;Node5 -->
<g id="edge5" class="edge">
<title>Node1&#45;&gt;Node5</title>
<path fill="none" stroke="midnightblue" d="M33.11,-40.85C43.59,-36.06 57.73,-29.58 70.36,-23.8"/>
<polygon fill="midnightblue" stroke="midnightblue" points="71.99,-26.9 79.63,-19.56 69.08,-20.54 71.99,-26.9"/>
</g>
<!-- Node3 -->
<g id="node3" class="node">
<title>Node3</title>
<g id="a_node3"><a target="_blank" xlink:href="http://en.cppreference.com/w/cpp/container/vector/size.html#" xlink:title=" ">
<polygon fill="white" stroke="black" points="170,-57.5 170,-76.5 256,-76.5 256,-57.5 170,-57.5"/>
<text text-anchor="middle" x="213" y="-64.5" font-family="Helvetica,sans-Serif" font-size="10.00">std::vector::size</text>
</a>
</g>
</g>
<!-- Node2&#45;&gt;Node3 -->
<g id="edge2" class="edge">
<title>Node2&#45;&gt;Node3</title>
<path fill="none" stroke="midnightblue" d="M134.17,-80.5C142.16,-79.12 150.95,-77.59 159.67,-76.08"/>
<polygon fill="midnightblue" stroke="midnightblue" points="160.55,-79.48 169.8,-74.32 159.35,-72.58 160.55,-79.48"/>
</g>
<!-- Node4&#45;&gt;Node3 -->
<g id="edge4" class="edge">
<title>Node4&#45;&gt;Node3</title>
<path fill="none" stroke="midnightblue" d="M134.17,-53.5C142.16,-54.88 150.95,-56.41 159.67,-57.92"/>
<polygon fill="midnightblue" stroke="midnightblue" points="159.35,-61.42 169.8,-59.68 160.55,-54.52 159.35,-61.42"/>
</g>
</g>
</svg>
