<?xml version="1.0" encoding="UTF-8" standalone="no"?>
<!DOCTYPE svg PUBLIC "-//W3C//DTD SVG 1.1//EN"
 "http://www.w3.org/Graphics/SVG/1.1/DTD/svg11.dtd">
<!-- Generated by graphviz version 2.49.3 (20211023.0002)
 -->
<!-- Title: main Pages: 1 -->
<!--zoomable 123 -->
<svg id="main" version="1.1" xmlns="http://www.w3.org/2000/svg" xmlns:xlink="http://www.w3.org/1999/xlink" xml:space="preserve" onload="init(evt)">
<style type="text/css"><![CDATA[
.edge:hover path { stroke: red; }
.edge:hover polygon { stroke: red; fill: red; }
]]></style>
<script type="text/javascript"><![CDATA[
var edges = document.getElementsByTagName('g');
if (edges && edges.length) {
  for (var i=0;i<edges.length;i++) {
    if (edges[i].id.substr(0,4)=='edge') {
      edges[i].setAttribute('class','edge');
    }
  }
}
]]></script>
        <defs>
                <circle id="rim" cx="0" cy="0" r="7"/>
                <circle id="rim2" cx="0" cy="0" r="3.5"/>
                <g id="zoomPlus">
                        <use xlink:href="#rim" fill="#404040">
                                <set attributeName="fill" to="#808080" begin="zoomplus.mouseover" end="zoomplus.mouseout"/>
                        </use>
                        <path d="M-4,0h8M0,-4v8" fill="none" stroke="white" stroke-width="1.5" pointer-events="none"/>
                </g>
                <g id="zoomMin">
                        <use xlink:href="#rim" fill="#404040">
                                <set attributeName="fill" to="#808080" begin="zoomminus.mouseover" end="zoomminus.mouseout"/>
                        </use>
                        <path d="M-4,0h8" fill="none" stroke="white" stroke-width="1.5" pointer-events="none"/>
                </g>
                <g id="dirArrow">
                        <path fill="none" stroke="white" stroke-width="1.5" d="M0,-3.0v7 M-2.5,-0.5L0,-3.0L2.5,-0.5"/>
                </g>
               <g id="resetDef">
                       <use xlink:href="#rim2" fill="#404040">
                               <set attributeName="fill" to="#808080" begin="reset.mouseover" end="reset.mouseout"/>
                       </use>
               </g>
        </defs>

<script type="text/javascript">
var viewWidth = 523;
var viewHeight = 123;
var sectionId = 'dynsection-1';
</script>
<script xlink:href="../../svgpan.js"/>
<svg id="graph" class="graph">
<g id="viewport">
<title>main</title>
<polygon fill="white" stroke="transparent" points="-4,4 -4,-119 519,-119 519,4 -4,4"/>
<!-- Node1 -->
<g id="node1" class="node">
<title>Node1</title>
<g id="a_node1"><a xlink:title="main function">
<polygon fill="#bfbfbf" stroke="black" points="0,-38.5 0,-57.5 38,-57.5 38,-38.5 0,-38.5"/>
<text text-anchor="middle" x="19" y="-45.5" font-family="Helvetica,sans-Serif" font-size="10.00">main</text>
</a>
</g>
</g>
<!-- Node2 -->
<g id="node2" class="node">
<title>Node2</title>
<g id="a_node2"><a xlink:href="../../d4/db6/reverse__binary__tree_8cpp.html#aa8dca7b867074164d5f45b0f3851269d" target="_top" xlink:title="Function to test the correctness of the Tree Reversal.">
<polygon fill="white" stroke="black" points="74,-38.5 74,-57.5 107,-57.5 107,-38.5 74,-38.5"/>
<text text-anchor="middle" x="90.5" y="-45.5" font-family="Helvetica,sans-Serif" font-size="10.00">test</text>
</a>
</g>
</g>
<!-- Node1&#45;&gt;Node2 -->
<g id="edge1" class="edge">
<title>Node1&#45;&gt;Node2</title>
<path fill="none" stroke="midnightblue" d="M38.26,-48C46.07,-48 55.31,-48 63.79,-48"/>
<polygon fill="midnightblue" stroke="midnightblue" points="63.95,-51.5 73.95,-48 63.95,-44.5 63.95,-51.5"/>
</g>
<!-- Node3 -->
<g id="node3" class="node">
<title>Node3</title>
<g id="a_node3"><a xlink:href="../../d9/df4/namespacetests.html#a167c24bd817469ae47358d12e034f2d5" target="_top" xlink:title="A Test to check an simple case.">
<polygon fill="white" stroke="black" points="143,-76.5 143,-95.5 208,-95.5 208,-76.5 143,-76.5"/>
<text text-anchor="middle" x="175.5" y="-83.5" font-family="Helvetica,sans-Serif" font-size="10.00">tests::test1</text>
</a>
</g>
</g>
<!-- Node2&#45;&gt;Node3 -->
<g id="edge2" class="edge">
<title>Node2&#45;&gt;Node3</title>
<path fill="none" stroke="midnightblue" d="M107.11,-55.15C117.59,-59.94 131.73,-66.42 144.36,-72.2"/>
<polygon fill="midnightblue" stroke="midnightblue" points="143.08,-75.46 153.63,-76.44 145.99,-69.1 143.08,-75.46"/>
</g>
<!-- Node9 -->
<g id="node9" class="node">
<title>Node9</title>
<g id="a_node9"><a xlink:href="../../d9/df4/namespacetests.html#abdd77344d4af8fd56d14a5cabbf2f669" target="_top" xlink:title="A Test to check an empty vector.">
<polygon fill="white" stroke="black" points="143,-38.5 143,-57.5 208,-57.5 208,-38.5 143,-38.5"/>
<text text-anchor="middle" x="175.5" y="-45.5" font-family="Helvetica,sans-Serif" font-size="10.00">tests::test2</text>
</a>
</g>
</g>
<!-- Node2&#45;&gt;Node9 -->
<g id="edge8" class="edge">
<title>Node2&#45;&gt;Node9</title>
<path fill="none" stroke="midnightblue" d="M107.11,-48C114.41,-48 123.49,-48 132.6,-48"/>
<polygon fill="midnightblue" stroke="midnightblue" points="132.8,-51.5 142.8,-48 132.8,-44.5 132.8,-51.5"/>
</g>
<!-- Node10 -->
<g id="node10" class="node">
<title>Node10</title>
<g id="a_node10"><a xlink:href="../../d9/df4/namespacetests.html#aa515639572647508b94986489aab6d76" target="_top" xlink:title="A Test to check an invalid shift value.">
<polygon fill="white" stroke="black" points="143,-0.5 143,-19.5 208,-19.5 208,-0.5 143,-0.5"/>
<text text-anchor="middle" x="175.5" y="-7.5" font-family="Helvetica,sans-Serif" font-size="10.00">tests::test3</text>
</a>
</g>
</g>
<!-- Node2&#45;&gt;Node10 -->
<g id="edge11" class="edge">
<title>Node2&#45;&gt;Node10</title>
<path fill="none" stroke="midnightblue" d="M107.11,-40.85C117.59,-36.06 131.73,-29.58 144.36,-23.8"/>
<polygon fill="midnightblue" stroke="midnightblue" points="145.99,-26.9 153.63,-19.56 143.08,-20.54 145.99,-26.9"/>
</g>
<!-- Node4 -->
<g id="node4" class="node">
<title>Node4</title>
<g id="a_node4"><a xlink:href="../../d8/ddf/sieve__of__eratosthenes_8cpp.html#a235843bdf82d2a6cc8596ae8fd3b8df9" target="_top" xlink:title=" ">
<polygon fill="white" stroke="black" points="300.5,-60.5 300.5,-79.5 336.5,-79.5 336.5,-60.5 300.5,-60.5"/>
<text text-anchor="middle" x="318.5" y="-67.5" font-family="Helvetica,sans-Serif" font-size="10.00">print</text>
</a>
</g>
</g>
<!-- Node3&#45;&gt;Node4 -->
<g id="edge3" class="edge">
<title>Node3&#45;&gt;Node4</title>
<path fill="none" stroke="midnightblue" d="M208.14,-82.41C232.79,-79.61 266.64,-75.77 290.13,-73.11"/>
<polygon fill="midnightblue" stroke="midnightblue" points="290.58,-76.58 300.12,-71.97 289.79,-69.62 290.58,-76.58"/>
</g>
<!-- Node7 -->
<g id="node7" class="node">
<title>Node7</title>
<g id="a_node7"><a xlink:href="../../da/d6d/namespaceoperations__on__datastructures.html#afce39cf843989a39811a49ebe29dd6d8" target="_top" xlink:title="Shifts the given vector to the left by the shift amount and returns a new vector with the result....">
<polygon fill="white" stroke="black" points="244,-11 244,-41 393,-41 393,-11 244,-11"/>
<text text-anchor="start" x="252" y="-29" font-family="Helvetica,sans-Serif" font-size="10.00">operations_on_datastructures</text>
<text text-anchor="middle" x="318.5" y="-18" font-family="Helvetica,sans-Serif" font-size="10.00">::shift_left</text>
</a>
</g>
</g>
<!-- Node3&#45;&gt;Node7 -->
<g id="edge6" class="edge">
<title>Node3&#45;&gt;Node7</title>
<path fill="none" stroke="midnightblue" d="M193.36,-76.35C206.81,-68.88 226.27,-58.56 244,-51 249.11,-48.82 254.49,-46.69 259.91,-44.66"/>
<polygon fill="midnightblue" stroke="midnightblue" points="261.46,-47.82 269.66,-41.11 259.07,-41.24 261.46,-47.82"/>
</g>
<!-- Node5 -->
<g id="node5" class="node">
<title>Node5</title>
<g id="a_node5"><a target="_blank" xlink:href="http://en.cppreference.com/w/cpp/io/manip/endl.html#" xlink:title=" ">
<polygon fill="white" stroke="black" points="445,-57.5 445,-76.5 499,-76.5 499,-57.5 445,-57.5"/>
<text text-anchor="middle" x="472" y="-64.5" font-family="Helvetica,sans-Serif" font-size="10.00">std::endl</text>
</a>
</g>
</g>
<!-- Node4&#45;&gt;Node5 -->
<g id="edge4" class="edge">
<title>Node4&#45;&gt;Node5</title>
<path fill="none" stroke="midnightblue" d="M336.58,-69.66C360.29,-69.19 403.76,-68.33 434.84,-67.72"/>
<polygon fill="midnightblue" stroke="midnightblue" points="434.94,-71.21 444.87,-67.52 434.8,-64.22 434.94,-71.21"/>
</g>
<!-- Node6 -->
<g id="node6" class="node">
<title>Node6</title>
<g id="a_node6"><a xlink:href="../../db/d93/check__prime_8cpp.html#aa18b3517017d99bb4024853bddba5532" target="_top" xlink:title="for IO operations">
<polygon fill="white" stroke="black" points="445,-95.5 445,-114.5 499,-114.5 499,-95.5 445,-95.5"/>
<text text-anchor="middle" x="472" y="-102.5" font-family="Helvetica,sans-Serif" font-size="10.00">is_prime</text>
</a>
</g>
</g>
<!-- Node4&#45;&gt;Node6 -->
<g id="edge5" class="edge">
<title>Node4&#45;&gt;Node6</title>
<path fill="none" stroke="midnightblue" d="M336.58,-73.95C360.29,-79.42 403.76,-89.47 434.84,-96.65"/>
<polygon fill="midnightblue" stroke="midnightblue" points="434.33,-100.12 444.87,-98.96 435.91,-93.3 434.33,-100.12"/>
</g>
<!-- Node8 -->
<g id="node8" class="node">
<title>Node8</title>
<g id="a_node8"><a target="_blank" xlink:href="http://en.cppreference.com/w/cpp/container/vector/size.html#" xlink:title=" ">
<polygon fill="white" stroke="black" points="429,-16.5 429,-35.5 515,-35.5 515,-16.5 429,-16.5"/>
<text text-anchor="middle" x="472" y="-23.5" font-family="Helvetica,sans-Serif" font-size="10.00">std::vector::size</text>
</a>
</g>
</g>
<!-- Node7&#45;&gt;Node8 -->
<g id="edge7" class="edge">
<title>Node7&#45;&gt;Node8</title>
<path fill="none" stroke="midnightblue" d="M393.03,-26C401.62,-26 410.24,-26 418.47,-26"/>
<polygon fill="midnightblue" stroke="midnightblue" points="418.63,-29.5 428.63,-26 418.63,-22.5 418.63,-29.5"/>
</g>
<!-- Node9&#45;&gt;Node4 -->
<g id="edge9" class="edge">
<title>Node9&#45;&gt;Node4</title>
<path fill="none" stroke="midnightblue" d="M208.14,-52.94C232.79,-56.78 266.64,-62.06 290.13,-65.73"/>
<polygon fill="midnightblue" stroke="midnightblue" points="289.7,-69.2 300.12,-67.29 290.78,-62.29 289.7,-69.2"/>
</g>
<!-- Node9&#45;&gt;Node7 -->
<g id="edge10" class="edge">
<title>Node9&#45;&gt;Node7</title>
<path fill="none" stroke="midnightblue" d="M208.14,-43.06C216.01,-41.83 224.82,-40.46 233.94,-39.04"/>
<polygon fill="midnightblue" stroke="midnightblue" points="234.57,-42.48 243.91,-37.48 233.49,-35.57 234.57,-42.48"/>
</g>
<!-- Node10&#45;&gt;Node4 -->
<g id="edge12" class="edge">
<title>Node10&#45;&gt;Node4</title>
<path fill="none" stroke="midnightblue" d="M192.54,-19.65C197.5,-22.64 202.98,-25.95 208,-29 224.03,-38.73 226.73,-43.68 244,-51 258.8,-57.27 276.17,-61.88 290.31,-64.98"/>
<polygon fill="midnightblue" stroke="midnightblue" points="289.9,-68.47 300.4,-67.07 291.31,-61.62 289.9,-68.47"/>
</g>
<!-- Node10&#45;&gt;Node7 -->
<g id="edge13" class="edge">
<title>Node10&#45;&gt;Node7</title>
<path fill="none" stroke="midnightblue" d="M208.14,-13.59C216.01,-14.48 224.82,-15.48 233.94,-16.52"/>
<polygon fill="midnightblue" stroke="midnightblue" points="233.58,-20 243.91,-17.65 234.37,-13.04 233.58,-20"/>
</g>
</g>
</svg>
        <g id="navigator" transform="translate(0 0)" fill="#404254">
                <rect fill="#f2f5e9" fill-opacity="0.5" stroke="#606060" stroke-width=".5" x="0" y="0" width="60" height="60"/>
                <use id="zoomplus" xlink:href="#zoomPlus" x="17" y="9" onmousedown="handleZoom(evt,'in')"/>
                <use id="zoomminus" xlink:href="#zoomMin" x="42" y="9" onmousedown="handleZoom(evt,'out')"/>
                <use id="reset" xlink:href="#resetDef" x="30" y="36" onmousedown="handleReset()"/>
                <g id="arrowUp" xlink:href="#dirArrow" transform="translate(30 24)" onmousedown="handlePan(0,-1)">
                  <use xlink:href="#rim" fill="#404040">
                        <set attributeName="fill" to="#808080" begin="arrowUp.mouseover" end="arrowUp.mouseout"/>
                  </use>
                  <path fill="none" stroke="white" stroke-width="1.5" d="M0,-3.0v7 M-2.5,-0.5L0,-3.0L2.5,-0.5"/>
                </g>
                <g id="arrowRight" xlink:href="#dirArrow" transform="rotate(90) translate(36 -43)" onmousedown="handlePan(1,0)">
                  <use xlink:href="#rim" fill="#404040">
                        <set attributeName="fill" to="#808080" begin="arrowRight.mouseover" end="arrowRight.mouseout"/>
                  </use>
                  <path fill="none" stroke="white" stroke-width="1.5" d="M0,-3.0v7 M-2.5,-0.5L0,-3.0L2.5,-0.5"/>
                </g>
                <g id="arrowDown" xlink:href="#dirArrow" transform="rotate(180) translate(-30 -48)" onmousedown="handlePan(0,1)">
                  <use xlink:href="#rim" fill="#404040">
                        <set attributeName="fill" to="#808080" begin="arrowDown.mouseover" end="arrowDown.mouseout"/>
                  </use>
                  <path fill="none" stroke="white" stroke-width="1.5" d="M0,-3.0v7 M-2.5,-0.5L0,-3.0L2.5,-0.5"/>
                </g>
                <g id="arrowLeft" xlink:href="#dirArrow" transform="rotate(270) translate(-36 17)" onmousedown="handlePan(-1,0)">
                  <use xlink:href="#rim" fill="#404040">
                        <set attributeName="fill" to="#808080" begin="arrowLeft.mouseover" end="arrowLeft.mouseout"/>
                  </use>
                  <path fill="none" stroke="white" stroke-width="1.5" d="M0,-3.0v7 M-2.5,-0.5L0,-3.0L2.5,-0.5"/>
                </g>
        </g>
        <svg viewBox="0 0 15 15" width="100%" height="30px" preserveAspectRatio="xMaxYMin meet">
         <g id="arrow_out" transform="scale(0.3 0.3)">
          <a xlink:href="reverse__binary__tree_8cpp_ae66f6b31b5ad750f1fe042a706a4e3d4_cgraph_org.svg" target="_base">
           <rect id="button" ry="5" rx="5" y="6" x="6" height="38" width="38"
                fill="#f2f5e9" fill-opacity="0.5" stroke="#606060" stroke-width="1.0"/>
           <path id="arrow"
             d="M 11.500037,31.436501 C 11.940474,20.09759 22.043105,11.32322 32.158766,21.979434 L 37.068811,17.246167 C 37.068811,17.246167 37.088388,32 37.088388,32 L 22.160133,31.978069 C 22.160133,31.978069 26.997745,27.140456 26.997745,27.140456 C 18.528582,18.264221 13.291696,25.230495 11.500037,31.436501 z"
             style="fill:#404040;"/>
          </a>
         </g>
        </svg>
</svg>
