<?xml version="1.0" encoding="UTF-8" standalone="no"?>
<!DOCTYPE svg PUBLIC "-//W3C//DTD SVG 1.1//EN"
 "http://www.w3.org/Graphics/SVG/1.1/DTD/svg11.dtd">
<!-- Generated by graphviz version 13.0.1 (20250615.1724)
 -->
<!-- Title: data_structures::linked_list::list Pages: 1 -->
<svg width="306pt" height="157pt"
 viewBox="0.00 0.00 306.00 157.00" xmlns="http://www.w3.org/2000/svg" xmlns:xlink="http://www.w3.org/1999/xlink">
<g id="graph0" class="graph" transform="scale(1 1) rotate(0) translate(4 153.18)">
<title>data_structures::linked_list::list</title>
<!-- Node1 -->
<g id="Node000001" class="node">
<title>Node1</title>
<g id="a_Node000001"><a xlink:title=" ">
<polygon fill="#999999" stroke="#666666" points="298.25,-50.5 183.25,-50.5 183.25,-20 298.25,-20 298.25,-50.5"/>
<text xml:space="preserve" text-anchor="start" x="191.25" y="-37" font-family="Helvetica,sans-Serif" font-size="10.00">data_structures::linked</text>
<text xml:space="preserve" text-anchor="middle" x="240.75" y="-25.75" font-family="Helvetica,sans-Serif" font-size="10.00">_list::list</text>
</a>
</g>
</g>
<!-- Node2 -->
<g id="Node000002" class="node">
<title>Node2</title>
<g id="a_Node000002"><a xlink:title=" ">
<polygon fill="white" stroke="#666666" points="114.62,-132.12 0.37,-132.12 0.37,-90.38 114.62,-90.38 114.62,-132.12"/>
<text xml:space="preserve" text-anchor="start" x="8.38" y="-118.62" font-family="Helvetica,sans-Serif" font-size="10.00">std::shared_ptr&lt; data</text>
<text xml:space="preserve" text-anchor="start" x="8.38" y="-107.38" font-family="Helvetica,sans-Serif" font-size="10.00">_structures::linked_list</text>
<text xml:space="preserve" text-anchor="middle" x="57.5" y="-96.12" font-family="Helvetica,sans-Serif" font-size="10.00">::link &gt;</text>
</a>
</g>
</g>
<!-- Node2&#45;&gt;Node1 -->
<g id="edge1_Node000001_Node000002" class="edge">
<title>Node2&#45;&gt;Node1</title>
<g id="a_edge1_Node000001_Node000002"><a xlink:title=" ">
<path fill="none" stroke="#9a32cd" stroke-dasharray="5,2" d="M101.91,-84.42C111.92,-78.82 122.66,-73.26 133,-68.75 148.85,-61.84 166.58,-55.68 182.97,-50.6"/>
<polygon fill="#9a32cd" stroke="#9a32cd" points="100.45,-81.22 93.51,-89.24 103.93,-87.3 100.45,-81.22"/>
</a>
</g>
<text xml:space="preserve" text-anchor="start" x="140.88" y="-88.75" font-family="Helvetica,sans-Serif" font-size="10.00" fill="grey">first</text>
<text xml:space="preserve" text-anchor="start" x="140.88" y="-73.5" font-family="Helvetica,sans-Serif" font-size="10.00" fill="grey">last</text>
</g>
<!-- Node3 -->
<g id="Node000003" class="node">
<title>Node3</title>
<g id="a_Node000003"><a xlink:href="../../de/d9d/classdata__structures_1_1linked__list_1_1link.html" target="_top" xlink:title=" ">
<polygon fill="white" stroke="#666666" points="298.25,-146.5 183.25,-146.5 183.25,-116 298.25,-116 298.25,-146.5"/>
<text xml:space="preserve" text-anchor="start" x="191.25" y="-133" font-family="Helvetica,sans-Serif" font-size="10.00">data_structures::linked</text>
<text xml:space="preserve" text-anchor="middle" x="240.75" y="-121.75" font-family="Helvetica,sans-Serif" font-size="10.00">_list::link</text>
</a>
</g>
</g>
<!-- Node2&#45;&gt;Node3 -->
<g id="edge3_Node000003_Node000002" class="edge">
<title>Node2&#45;&gt;Node3</title>
<g id="a_edge3_Node000003_Node000002"><a xlink:title=" ">
<path fill="none" stroke="#9a32cd" stroke-dasharray="5,2" d="M126.23,-105.49C139.23,-105.43 152.7,-106.09 165.25,-108 175.83,-109.61 186.98,-112.44 197.33,-115.59"/>
<polygon fill="#9a32cd" stroke="#9a32cd" points="126.4,-101.99 116.48,-105.69 126.55,-108.99 126.4,-101.99"/>
</a>
</g>
<text xml:space="preserve" text-anchor="start" x="136" y="-112.75" font-family="Helvetica,sans-Serif" font-size="10.00" fill="grey">psucc</text>
</g>
<!-- Node3&#45;&gt;Node2 -->
<g id="edge2_Node000002_Node000003" class="edge">
<title>Node3&#45;&gt;Node2</title>
<g id="a_edge2_Node000002_Node000003"><a xlink:title=" ">
<path fill="none" stroke="#9a32cd" stroke-dasharray="5,2" d="M171.64,-132.19C158.77,-131.74 145.44,-130.85 133,-129.25 127.06,-128.49 120.91,-127.43 114.8,-126.22"/>
<polygon fill="#9a32cd" stroke="#9a32cd" points="171.2,-135.68 181.28,-132.44 171.38,-128.69 171.2,-135.68"/>
</a>
</g>
<text xml:space="preserve" text-anchor="start" x="143.5" y="-136.68" font-family="Helvetica,sans-Serif" font-size="10.00" fill="grey">ptr</text>
</g>
<!-- Node4 -->
<g id="Node000004" class="node">
<title>Node4</title>
<g id="a_Node000004"><a xlink:href="../../d4/d0e/classdata__structures_1_1linked__list_1_1_node.html" target="_top" xlink:title=" ">
<polygon fill="white" stroke="#666666" points="115,-30.5 0,-30.5 0,0 115,0 115,-30.5"/>
<text xml:space="preserve" text-anchor="start" x="8" y="-17" font-family="Helvetica,sans-Serif" font-size="10.00">data_structures::linked</text>
<text xml:space="preserve" text-anchor="middle" x="57.5" y="-5.75" font-family="Helvetica,sans-Serif" font-size="10.00">_list::Node</text>
</a>
</g>
</g>
<!-- Node4&#45;&gt;Node1 -->
<g id="edge4_Node000001_Node000004" class="edge">
<title>Node4&#45;&gt;Node1</title>
<g id="a_edge4_Node000001_Node000004"><a xlink:title=" ">
<path fill="none" stroke="#9a32cd" stroke-dasharray="5,2" d="M126.62,-13.23C139.49,-13.56 152.81,-14.37 165.25,-16 171.74,-16.85 178.48,-18.08 185.12,-19.51"/>
<polygon fill="#9a32cd" stroke="#9a32cd" points="127.03,-9.74 116.98,-13.09 126.92,-16.74 127.03,-9.74"/>
</a>
</g>
<text xml:space="preserve" text-anchor="start" x="138.62" y="-20.75" font-family="Helvetica,sans-Serif" font-size="10.00" fill="grey">head</text>
</g>
<!-- Node4&#45;&gt;Node4 -->
<g id="edge5_Node000004_Node000004" class="edge">
<title>Node4&#45;&gt;Node4</title>
<g id="a_edge5_Node000004_Node000004"><a xlink:title=" ">
<path fill="none" stroke="#9a32cd" stroke-dasharray="5,2" d="M42.13,-42.2C44.65,-45.97 49.77,-48.5 57.5,-48.5 71.64,-48.5 77.05,-40.06 73.74,-30.99"/>
<polygon fill="#9a32cd" stroke="#9a32cd" points="45.64,-42.19 41.38,-32.49 38.67,-42.74 45.64,-42.19"/>
</a>
</g>
<text xml:space="preserve" text-anchor="start" x="48.12" y="-53.25" font-family="Helvetica,sans-Serif" font-size="10.00" fill="grey">next</text>
</g>
</g>
</svg>
