<?xml version="1.0" encoding="UTF-8" standalone="no"?>
<!DOCTYPE svg PUBLIC "-//W3C//DTD SVG 1.1//EN"
 "http://www.w3.org/Graphics/SVG/1.1/DTD/svg11.dtd">
<!-- Generated by graphviz version 2.49.3 (20211023.0002)
 -->
<!-- Title: main Pages: 1 -->
<svg width="276pt" height="104pt"
 viewBox="0.00 0.00 276.00 104.00" xmlns="http://www.w3.org/2000/svg" xmlns:xlink="http://www.w3.org/1999/xlink">
<g id="graph0" class="graph" transform="scale(1 1) rotate(0) translate(4 100)">
<title>main</title>
<polygon fill="white" stroke="transparent" points="-4,4 -4,-100 272,-100 272,4 -4,4"/>
<!-- Node1 -->
<g id="node1" class="node">
<title>Node1</title>
<g id="a_node1"><a xlink:title=" ">
<polygon fill="#bfbfbf" stroke="black" points="0,-38.5 0,-57.5 38,-57.5 38,-38.5 0,-38.5"/>
<text text-anchor="middle" x="19" y="-45.5" font-family="Helvetica,sans-Serif" font-size="10.00">main</text>
</a>
</g>
</g>
<!-- Node2 -->
<g id="node2" class="node">
<title>Node2</title>
<g id="a_node2"><a target="_blank" xlink:href="http://en.cppreference.com/w/cpp/io/manip/endl.html#" xlink:title=" ">
<polygon fill="white" stroke="black" points="74,-76.5 74,-95.5 128,-95.5 128,-76.5 74,-76.5"/>
<text text-anchor="middle" x="101" y="-83.5" font-family="Helvetica,sans-Serif" font-size="10.00">std::endl</text>
</a>
</g>
</g>
<!-- Node1&#45;&gt;Node2 -->
<g id="edge1" class="edge">
<title>Node1&#45;&gt;Node2</title>
<path fill="none" stroke="midnightblue" d="M38.15,-56.62C47.78,-61.2 59.84,-66.93 70.75,-72.11"/>
<polygon fill="midnightblue" stroke="midnightblue" points="69.42,-75.35 79.95,-76.48 72.42,-69.03 69.42,-75.35"/>
</g>
<!-- Node3 -->
<g id="node3" class="node">
<title>Node3</title>
<g id="a_node3"><a xlink:href="../../d0/da2/number__of__positive__divisors_8cpp.html#ad89ccced8504b5116046cfa03066ffeb" target="_top" xlink:title=" ">
<polygon fill="white" stroke="black" points="164,-14 164,-44 268,-44 268,-14 164,-14"/>
<text text-anchor="start" x="172" y="-32" font-family="Helvetica,sans-Serif" font-size="10.00">number_of_positive</text>
<text text-anchor="middle" x="216" y="-21" font-family="Helvetica,sans-Serif" font-size="10.00">_divisors</text>
</a>
</g>
</g>
<!-- Node1&#45;&gt;Node3 -->
<g id="edge2" class="edge">
<title>Node1&#45;&gt;Node3</title>
<path fill="none" stroke="midnightblue" d="M38.35,-46.21C64.51,-43.66 113.79,-38.86 153.67,-34.98"/>
<polygon fill="midnightblue" stroke="midnightblue" points="154.24,-38.44 163.85,-33.98 153.56,-31.47 154.24,-38.44"/>
</g>
<!-- Node4 -->
<g id="node4" class="node">
<title>Node4</title>
<g id="a_node4"><a xlink:href="../../d0/da2/number__of__positive__divisors_8cpp.html#a88ec9ad42717780d6caaff9d3d6977f9" target="_top" xlink:title=" ">
<polygon fill="white" stroke="black" points="82,-0.5 82,-19.5 120,-19.5 120,-0.5 82,-0.5"/>
<text text-anchor="middle" x="101" y="-7.5" font-family="Helvetica,sans-Serif" font-size="10.00">tests</text>
</a>
</g>
</g>
<!-- Node1&#45;&gt;Node4 -->
<g id="edge3" class="edge">
<title>Node1&#45;&gt;Node4</title>
<path fill="none" stroke="midnightblue" d="M38.15,-39.38C48.38,-34.52 61.36,-28.35 72.78,-22.93"/>
<polygon fill="midnightblue" stroke="midnightblue" points="74.39,-26.04 81.92,-18.59 71.38,-19.72 74.39,-26.04"/>
</g>
<!-- Node4&#45;&gt;Node3 -->
<g id="edge4" class="edge">
<title>Node4&#45;&gt;Node3</title>
<path fill="none" stroke="midnightblue" d="M120.16,-13.05C129.51,-14.63 141.52,-16.64 153.82,-18.71"/>
<polygon fill="midnightblue" stroke="midnightblue" points="153.27,-22.17 163.71,-20.38 154.43,-15.27 153.27,-22.17"/>
</g>
</g>
</svg>
