<?xml version="1.0" encoding="UTF-8" standalone="no"?>
<!DOCTYPE svg PUBLIC "-//W3C//DTD SVG 1.1//EN"
 "http://www.w3.org/Graphics/SVG/1.1/DTD/svg11.dtd">
<!-- Generated by graphviz version 9.0.0 (20230911.1827)
 -->
<!-- Title: main Pages: 1 -->
<svg width="271pt" height="103pt"
 viewBox="0.00 0.00 271.25 103.25" xmlns="http://www.w3.org/2000/svg" xmlns:xlink="http://www.w3.org/1999/xlink">

<svg id="main" version="1.1" xmlns="http://www.w3.org/2000/svg" xmlns:xlink="http://www.w3.org/1999/xlink" xml:space="preserve" onload="init(evt)">
<style type="text/css"><![CDATA[
.node, .edge {opacity: 0.7;}
.node.selected, .edge.selected {opacity: 1;}
.edge:hover path { stroke: red; }
.edge:hover polygon { stroke: red; fill: red; }
]]></style>
<script type="application/ecmascript" xlink:href="../../svg.min.js"/>
<svg id="graph" class="graph">
<g id="graph0" class="graph" transform="scale(1 1) rotate(0) translate(4 99.25)">
<title>main</title>
<!-- Node1 -->
<g id="Node000001" class="node">
<title>Node1</title>
<g id="a_Node000001"><a xlink:title=" ">
<polygon fill="#999999" stroke="#666666" points="37,-57.25 0,-57.25 0,-38 37,-38 37,-57.25"/>
<text text-anchor="middle" x="18.5" y="-43.75" font-family="Helvetica,sans-Serif" font-size="10.00">main</text>
</a>
</g>
</g>
<!-- Node2 -->
<g id="Node000002" class="node">
<title>Node2</title>
<g id="a_Node000002"><a target="_blank" xlink:href="http://en.cppreference.com/w/cpp/io/manip/endl.html#" xlink:title=" ">
<polygon fill="white" stroke="#666666" points="126.5,-95.25 73,-95.25 73,-76 126.5,-76 126.5,-95.25"/>
<text text-anchor="middle" x="99.75" y="-81.75" font-family="Helvetica,sans-Serif" font-size="10.00">std::endl</text>
</a>
</g>
</g>
<!-- Node1&#45;&gt;Node2 -->
<g id="edge1_Node000001_Node000002" class="edge">
<title>Node1&#45;&gt;Node2</title>
<g id="a_edge1_Node000001_Node000002"><a xlink:title=" ">
<path fill="none" stroke="#63b8ff" d="M37.48,-56.25C46.36,-60.51 57.34,-65.77 67.53,-70.66"/>
<polygon fill="#63b8ff" stroke="#63b8ff" points="65.86,-73.73 76.39,-74.9 68.88,-67.42 65.86,-73.73"/>
</a>
</g>
</g>
<!-- Node3 -->
<g id="Node000003" class="node">
<title>Node3</title>
<g id="a_Node000003"><a xlink:href="../../d0/da2/number__of__positive__divisors_8cpp.html#ad89ccced8504b5116046cfa03066ffeb" target="_top" xlink:title=" ">
<polygon fill="white" stroke="#666666" points="263.25,-43.88 162.5,-43.88 162.5,-13.37 263.25,-13.37 263.25,-43.88"/>
<text text-anchor="start" x="170.5" y="-30.38" font-family="Helvetica,sans-Serif" font-size="10.00">number_of_positive</text>
<text text-anchor="middle" x="212.88" y="-19.12" font-family="Helvetica,sans-Serif" font-size="10.00">_divisors</text>
</a>
</g>
</g>
<!-- Node1&#45;&gt;Node3 -->
<g id="edge2_Node000001_Node000003" class="edge">
<title>Node1&#45;&gt;Node3</title>
<g id="a_edge2_Node000001_Node000003"><a xlink:title=" ">
<path fill="none" stroke="#63b8ff" d="M37.25,-45.87C62.82,-43.35 111.26,-38.56 150.65,-34.67"/>
<polygon fill="#63b8ff" stroke="#63b8ff" points="150.91,-38.16 160.51,-33.7 150.22,-31.2 150.91,-38.16"/>
</a>
</g>
</g>
<!-- Node4 -->
<g id="Node000004" class="node">
<title>Node4</title>
<g id="a_Node000004"><a xlink:href="../../d0/da2/number__of__positive__divisors_8cpp.html#a88ec9ad42717780d6caaff9d3d6977f9" target="_top" xlink:title=" ">
<polygon fill="white" stroke="#666666" points="118.62,-19.25 80.88,-19.25 80.88,0 118.62,0 118.62,-19.25"/>
<text text-anchor="middle" x="99.75" y="-5.75" font-family="Helvetica,sans-Serif" font-size="10.00">tests</text>
</a>
</g>
</g>
<!-- Node1&#45;&gt;Node4 -->
<g id="edge3_Node000001_Node000004" class="edge">
<title>Node1&#45;&gt;Node4</title>
<g id="a_edge3_Node000001_Node000004"><a xlink:title=" ">
<path fill="none" stroke="#63b8ff" d="M37.48,-39C47.14,-34.37 59.28,-28.55 70.19,-23.32"/>
<polygon fill="#63b8ff" stroke="#63b8ff" points="71.7,-26.48 79.2,-19 68.67,-20.17 71.7,-26.48"/>
</a>
</g>
</g>
<!-- Node4&#45;&gt;Node3 -->
<g id="edge4_Node000004_Node000003" class="edge">
<title>Node4&#45;&gt;Node3</title>
<g id="a_edge4_Node000004_Node000003"><a xlink:title=" ">
<path fill="none" stroke="#63b8ff" d="M119.1,-12.76C128.07,-14.3 139.43,-16.24 151.11,-18.23"/>
<polygon fill="#63b8ff" stroke="#63b8ff" points="150.39,-21.66 160.83,-19.9 151.57,-14.76 150.39,-21.66"/>
</a>
</g>
</g>
</g>
</svg>
</svg>

<style type='text/css'>
<![CDATA[
[data-mouse-over-selected='false'] { opacity: 0.7; }
[data-mouse-over-selected='true']  { opacity: 1.0; }
]]>
</style>
<script type="application/ecmascript"><![CDATA[
document.addEventListener('DOMContentLoaded', (event) => {
  highlightEdges();
  highlightAdjacentNodes();
});
]]></script>
</svg>
