<?xml version="1.0" encoding="UTF-8" standalone="no"?>
<!DOCTYPE svg PUBLIC "-//W3C//DTD SVG 1.1//EN"
 "http://www.w3.org/Graphics/SVG/1.1/DTD/svg11.dtd">
<!-- Generated by graphviz version 7.0.4 (20221203.1631)
 -->
<!-- Title: forward_euler Pages: 1 -->
<svg width="320pt" height="212pt"
 viewBox="0.00 0.00 320.00 212.00" xmlns="http://www.w3.org/2000/svg" xmlns:xlink="http://www.w3.org/1999/xlink">
<g id="graph0" class="graph" transform="scale(1 1) rotate(0) translate(4 208)">
<title>forward_euler</title>
<!-- Node1 -->
<g id="node1" class="node">
<title>Node1</title>
<g id="a_node1"><a xlink:title="Compute approximation using the forward&#45;Euler method in the given limits.">
<polygon fill="#999999" stroke="#666666" points="75,-111 0,-111 0,-92 75,-92 75,-111"/>
<text text-anchor="middle" x="37.5" y="-99" font-family="Helvetica,sans-Serif" font-size="10.00">forward_euler</text>
</a>
</g>
</g>
<!-- Node2 -->
<g id="node2" class="node">
<title>Node2</title>
<g id="a_node2"><a target="_blank" xlink:href="http://en.cppreference.com/w/cpp/chrono/c/clock.html#" xlink:title=" ">
<polygon fill="white" stroke="#666666" points="197.5,-204 138.5,-204 138.5,-185 197.5,-185 197.5,-204"/>
<text text-anchor="middle" x="168" y="-192" font-family="Helvetica,sans-Serif" font-size="10.00">std::clock</text>
</a>
</g>
</g>
<!-- Node1&#45;&gt;Node2 -->
<g id="edge1" class="edge">
<title>Node1&#45;&gt;Node2</title>
<path fill="none" stroke="#63b8ff" d="M45.38,-111.26C57.09,-127.17 82.4,-158.7 111,-176.5 116.02,-179.62 121.63,-182.25 127.31,-184.46"/>
<polygon fill="#63b8ff" stroke="#63b8ff" points="126.16,-187.76 136.75,-187.69 128.43,-181.14 126.16,-187.76"/>
</g>
<!-- Node3 -->
<g id="node3" class="node">
<title>Node3</title>
<g id="a_node3"><a target="_blank" xlink:href="http://en.cppreference.com/w/cpp/io/basic_ofstream/close.html#" xlink:title=" ">
<polygon fill="white" stroke="#666666" points="220,-167 116,-167 116,-148 220,-148 220,-167"/>
<text text-anchor="middle" x="168" y="-155" font-family="Helvetica,sans-Serif" font-size="10.00">std::ofstream::close</text>
</a>
</g>
</g>
<!-- Node1&#45;&gt;Node3 -->
<g id="edge2" class="edge">
<title>Node1&#45;&gt;Node3</title>
<path fill="none" stroke="#63b8ff" d="M55.38,-111.41C69.83,-119.63 91.34,-131.26 111,-139.5 114.59,-141.01 118.36,-142.46 122.17,-143.85"/>
<polygon fill="#63b8ff" stroke="#63b8ff" points="120.88,-147.11 131.47,-147.08 123.17,-140.49 120.88,-147.11"/>
</g>
<!-- Node4 -->
<g id="node4" class="node">
<title>Node4</title>
<g id="a_node4"><a xlink:href="../../d6/d60/group__ode.html#ga195d23bbdfcb80e83c9cda45c9ad5723" target="_top" xlink:title="Compute next step approximation using the forward&#45;Euler method.">
<polygon fill="white" stroke="#666666" points="217.5,-130 118.5,-130 118.5,-111 217.5,-111 217.5,-130"/>
<text text-anchor="middle" x="168" y="-118" font-family="Helvetica,sans-Serif" font-size="10.00">forward_euler_step</text>
</a>
</g>
</g>
<!-- Node1&#45;&gt;Node4 -->
<g id="edge3" class="edge">
<title>Node1&#45;&gt;Node4</title>
<path fill="none" stroke="#63b8ff" d="M75.32,-106.94C85.23,-108.41 96.21,-110.03 107.03,-111.63"/>
<polygon fill="#63b8ff" stroke="#63b8ff" points="106.29,-115.06 116.69,-113.06 107.31,-108.14 106.29,-115.06"/>
</g>
<!-- Node6 -->
<g id="node6" class="node">
<title>Node6</title>
<g id="a_node6"><a target="_blank" xlink:href="http://en.cppreference.com/w/cpp/io/basic_ofstream/is_open.html#" xlink:title=" ">
<polygon fill="white" stroke="#666666" points="225,-93 111,-93 111,-74 225,-74 225,-93"/>
<text text-anchor="middle" x="168" y="-81" font-family="Helvetica,sans-Serif" font-size="10.00">std::ofstream::is_open</text>
</a>
</g>
</g>
<!-- Node1&#45;&gt;Node6 -->
<g id="edge5" class="edge">
<title>Node1&#45;&gt;Node6</title>
<path fill="none" stroke="#63b8ff" d="M75.32,-96.34C82.87,-95.28 91.04,-94.14 99.28,-92.99"/>
<polygon fill="#63b8ff" stroke="#63b8ff" points="99.6,-96.48 109.02,-91.62 98.63,-89.54 99.6,-96.48"/>
</g>
<!-- Node7 -->
<g id="node7" class="node">
<title>Node7</title>
<g id="a_node7"><a target="_blank" xlink:href="http://en.cppreference.com/w/cpp/io/basic_ofstream/open.html#" xlink:title=" ">
<polygon fill="white" stroke="#666666" points="218.5,-56 117.5,-56 117.5,-37 218.5,-37 218.5,-56"/>
<text text-anchor="middle" x="168" y="-44" font-family="Helvetica,sans-Serif" font-size="10.00">std::ofstream::open</text>
</a>
</g>
</g>
<!-- Node1&#45;&gt;Node7 -->
<g id="edge6" class="edge">
<title>Node1&#45;&gt;Node7</title>
<path fill="none" stroke="#63b8ff" d="M56.66,-91.63C71.14,-83.98 92.05,-73.38 111,-65.5 115.37,-63.68 119.99,-61.9 124.62,-60.21"/>
<polygon fill="#63b8ff" stroke="#63b8ff" points="125.64,-63.56 133.9,-56.93 123.31,-56.96 125.64,-63.56"/>
</g>
<!-- Node8 -->
<g id="node8" class="node">
<title>Node8</title>
<g id="a_node8"><a target="_blank" xlink:href="http://en.cppreference.com/w/cpp/io/c/perror.html#" xlink:title=" ">
<polygon fill="white" stroke="#666666" points="198.5,-19 137.5,-19 137.5,0 198.5,0 198.5,-19"/>
<text text-anchor="middle" x="168" y="-7" font-family="Helvetica,sans-Serif" font-size="10.00">std::perror</text>
</a>
</g>
</g>
<!-- Node1&#45;&gt;Node8 -->
<g id="edge7" class="edge">
<title>Node1&#45;&gt;Node8</title>
<path fill="none" stroke="#63b8ff" d="M45.86,-91.55C57.86,-76 83.12,-45.9 111,-28.5 115.83,-25.49 121.19,-22.89 126.64,-20.66"/>
<polygon fill="#63b8ff" stroke="#63b8ff" points="127.47,-24.09 135.65,-17.36 125.06,-17.51 127.47,-24.09"/>
</g>
<!-- Node5 -->
<g id="node5" class="node">
<title>Node5</title>
<g id="a_node5"><a xlink:href="../../db/dd3/ode__forward__euler_8cpp.html#abaeae8f62a018d197f0187a1c80a90fe" target="_top" xlink:title="Problem statement for a system with first&#45;order differential equations. Updates the system differenti...">
<polygon fill="white" stroke="#666666" points="312,-130 261,-130 261,-111 312,-111 312,-130"/>
<text text-anchor="middle" x="286.5" y="-118" font-family="Helvetica,sans-Serif" font-size="10.00">problem</text>
</a>
</g>
</g>
<!-- Node4&#45;&gt;Node5 -->
<g id="edge4" class="edge">
<title>Node4&#45;&gt;Node5</title>
<path fill="none" stroke="#63b8ff" d="M217.73,-120.5C228.4,-120.5 239.5,-120.5 249.56,-120.5"/>
<polygon fill="#63b8ff" stroke="#63b8ff" points="249.28,-124 259.28,-120.5 249.28,-117 249.28,-124"/>
</g>
</g>
</svg>
