<?xml version="1.0" encoding="UTF-8" standalone="no"?>
<!DOCTYPE svg PUBLIC "-//W3C//DTD SVG 1.1//EN"
 "http://www.w3.org/Graphics/SVG/1.1/DTD/svg11.dtd">
<!-- Generated by graphviz version 5.0.1 (20220820.1526)
 -->
<!-- Title: semi_implicit_euler Pages: 1 -->
<svg width="355pt" height="212pt"
 viewBox="0.00 0.00 355.00 212.00" xmlns="http://www.w3.org/2000/svg" xmlns:xlink="http://www.w3.org/1999/xlink">
<g id="graph0" class="graph" transform="scale(1 1) rotate(0) translate(4 208)">
<title>semi_implicit_euler</title>
<!-- Node1 -->
<g id="node1" class="node">
<title>Node1</title>
<g id="a_node1"><a xlink:title="Compute approximation using the semi&#45;implicit&#45;Euler method in the given limits.">
<polygon fill="#999999" stroke="#666666" points="100,-111 0,-111 0,-92 100,-92 100,-111"/>
<text text-anchor="middle" x="50" y="-99" font-family="Helvetica,sans-Serif" font-size="10.00">semi_implicit_euler</text>
</a>
</g>
</g>
<!-- Node2 -->
<g id="node2" class="node">
<title>Node2</title>
<g id="a_node2"><a target="_blank" xlink:href="http://en.cppreference.com/w/cpp/chrono/c/clock.html#" xlink:title=" ">
<polygon fill="white" stroke="#666666" points="227.5,-204 168.5,-204 168.5,-185 227.5,-185 227.5,-204"/>
<text text-anchor="middle" x="198" y="-192" font-family="Helvetica,sans-Serif" font-size="10.00">std::clock</text>
</a>
</g>
</g>
<!-- Node1&#45;&gt;Node2 -->
<g id="edge1" class="edge">
<title>Node1&#45;&gt;Node2</title>
<path fill="none" stroke="#63b8ff" d="M59.18,-111.03C73.28,-126.88 103.79,-158.7 136,-176.5 143,-180.37 150.92,-183.49 158.68,-185.97"/>
<polygon fill="#63b8ff" stroke="#63b8ff" points="157.76,-189.35 168.34,-188.79 159.72,-182.63 157.76,-189.35"/>
</g>
<!-- Node3 -->
<g id="node3" class="node">
<title>Node3</title>
<g id="a_node3"><a target="_blank" xlink:href="http://en.cppreference.com/w/cpp/io/basic_ofstream/close.html#" xlink:title=" ">
<polygon fill="white" stroke="#666666" points="250,-167 146,-167 146,-148 250,-148 250,-167"/>
<text text-anchor="middle" x="198" y="-155" font-family="Helvetica,sans-Serif" font-size="10.00">std::ofstream::close</text>
</a>
</g>
</g>
<!-- Node1&#45;&gt;Node3 -->
<g id="edge2" class="edge">
<title>Node1&#45;&gt;Node3</title>
<path fill="none" stroke="#63b8ff" d="M70.27,-111.01C87.31,-119.19 112.95,-130.99 136,-139.5 141.11,-141.39 146.53,-143.22 151.93,-144.94"/>
<polygon fill="#63b8ff" stroke="#63b8ff" points="150.99,-148.31 161.58,-147.92 153.05,-141.63 150.99,-148.31"/>
</g>
<!-- Node4 -->
<g id="node4" class="node">
<title>Node4</title>
<g id="a_node4"><a target="_blank" xlink:href="http://en.cppreference.com/w/cpp/io/basic_ofstream/is_open.html#" xlink:title=" ">
<polygon fill="white" stroke="#666666" points="255,-130 141,-130 141,-111 255,-111 255,-130"/>
<text text-anchor="middle" x="198" y="-118" font-family="Helvetica,sans-Serif" font-size="10.00">std::ofstream::is_open</text>
</a>
</g>
</g>
<!-- Node1&#45;&gt;Node4 -->
<g id="edge3" class="edge">
<title>Node1&#45;&gt;Node4</title>
<path fill="none" stroke="#63b8ff" d="M100.02,-107.88C109.84,-109.16 120.31,-110.52 130.6,-111.86"/>
<polygon fill="#63b8ff" stroke="#63b8ff" points="130.43,-115.37 140.8,-113.19 131.33,-108.42 130.43,-115.37"/>
</g>
<!-- Node5 -->
<g id="node5" class="node">
<title>Node5</title>
<g id="a_node5"><a target="_blank" xlink:href="http://en.cppreference.com/w/cpp/io/basic_ofstream/open.html#" xlink:title=" ">
<polygon fill="white" stroke="#666666" points="248.5,-93 147.5,-93 147.5,-74 248.5,-74 248.5,-93"/>
<text text-anchor="middle" x="198" y="-81" font-family="Helvetica,sans-Serif" font-size="10.00">std::ofstream::open</text>
</a>
</g>
</g>
<!-- Node1&#45;&gt;Node5 -->
<g id="edge4" class="edge">
<title>Node1&#45;&gt;Node5</title>
<path fill="none" stroke="#63b8ff" d="M100.02,-95.46C111.93,-93.99 124.8,-92.4 137.14,-90.88"/>
<polygon fill="#63b8ff" stroke="#63b8ff" points="137.86,-94.32 147.36,-89.62 137.01,-87.37 137.86,-94.32"/>
</g>
<!-- Node6 -->
<g id="node6" class="node">
<title>Node6</title>
<g id="a_node6"><a target="_blank" xlink:href="http://en.cppreference.com/w/cpp/io/c/perror.html#" xlink:title=" ">
<polygon fill="white" stroke="#666666" points="228.5,-56 167.5,-56 167.5,-37 228.5,-37 228.5,-56"/>
<text text-anchor="middle" x="198" y="-44" font-family="Helvetica,sans-Serif" font-size="10.00">std::perror</text>
</a>
</g>
</g>
<!-- Node1&#45;&gt;Node6 -->
<g id="edge5" class="edge">
<title>Node1&#45;&gt;Node6</title>
<path fill="none" stroke="#63b8ff" d="M72.08,-91.89C89.14,-84.27 113.88,-73.61 136,-65.5 142.95,-62.95 150.41,-60.45 157.66,-58.13"/>
<polygon fill="#63b8ff" stroke="#63b8ff" points="158.83,-61.43 167.33,-55.1 156.74,-54.75 158.83,-61.43"/>
</g>
<!-- Node7 -->
<g id="node7" class="node">
<title>Node7</title>
<g id="a_node7"><a xlink:href="../../d6/d60/group__ode.html#ga827bf009831ddc477c5fa8891d5cb35f" target="_top" xlink:title="Compute next step approximation using the semi&#45;implicit&#45;Euler method.">
<polygon fill="white" stroke="#666666" points="260,-19 136,-19 136,0 260,0 260,-19"/>
<text text-anchor="middle" x="198" y="-7" font-family="Helvetica,sans-Serif" font-size="10.00">semi_implicit_euler_step</text>
</a>
</g>
</g>
<!-- Node1&#45;&gt;Node7 -->
<g id="edge6" class="edge">
<title>Node1&#45;&gt;Node7</title>
<path fill="none" stroke="#63b8ff" d="M59.96,-91.54C74.48,-75.97 104.69,-45.84 136,-28.5 139.93,-26.33 144.14,-24.36 148.44,-22.6"/>
<polygon fill="#63b8ff" stroke="#63b8ff" points="149.8,-25.83 157.95,-19.06 147.35,-19.27 149.8,-25.83"/>
</g>
<!-- Node8 -->
<g id="node8" class="node">
<title>Node8</title>
<g id="a_node8"><a xlink:href="../../d3/d06/ode__semi__implicit__euler_8cpp.html#abaeae8f62a018d197f0187a1c80a90fe" target="_top" xlink:title="Problem statement for a system with first&#45;order differential equations. Updates the system differenti...">
<polygon fill="white" stroke="#666666" points="347,-19 296,-19 296,0 347,0 347,-19"/>
<text text-anchor="middle" x="321.5" y="-7" font-family="Helvetica,sans-Serif" font-size="10.00">problem</text>
</a>
</g>
</g>
<!-- Node7&#45;&gt;Node8 -->
<g id="edge7" class="edge">
<title>Node7&#45;&gt;Node8</title>
<path fill="none" stroke="#63b8ff" d="M260.11,-9.5C268.9,-9.5 277.68,-9.5 285.72,-9.5"/>
<polygon fill="#63b8ff" stroke="#63b8ff" points="285.79,-13 295.79,-9.5 285.79,-6 285.79,-13"/>
</g>
</g>
</svg>
