<?xml version="1.0" encoding="UTF-8" standalone="no"?>
<!DOCTYPE svg PUBLIC "-//W3C//DTD SVG 1.1//EN"
 "http://www.w3.org/Graphics/SVG/1.1/DTD/svg11.dtd">
<!-- Generated by graphviz version 7.0.6 (20230106.0513)
 -->
<!-- Title: midpoint_euler Pages: 1 -->
<svg width="325pt" height="212pt"
 viewBox="0.00 0.00 325.00 212.00" xmlns="http://www.w3.org/2000/svg" xmlns:xlink="http://www.w3.org/1999/xlink">
<g id="graph0" class="graph" transform="scale(1 1) rotate(0) translate(4 208)">
<title>midpoint_euler</title>
<!-- Node1 -->
<g id="node1" class="node">
<title>Node1</title>
<g id="a_node1"><a xlink:title="Compute approximation using the midpoint&#45;Euler method in the given limits.">
<polygon fill="#999999" stroke="#666666" points="80,-111 0,-111 0,-92 80,-92 80,-111"/>
<text text-anchor="middle" x="40" y="-99" font-family="Helvetica,sans-Serif" font-size="10.00">midpoint_euler</text>
</a>
</g>
</g>
<!-- Node2 -->
<g id="node2" class="node">
<title>Node2</title>
<g id="a_node2"><a target="_blank" xlink:href="http://en.cppreference.com/w/cpp/chrono/c/clock.html#" xlink:title=" ">
<polygon fill="white" stroke="#666666" points="202.5,-204 143.5,-204 143.5,-185 202.5,-185 202.5,-204"/>
<text text-anchor="middle" x="173" y="-192" font-family="Helvetica,sans-Serif" font-size="10.00">std::clock</text>
</a>
</g>
</g>
<!-- Node1&#45;&gt;Node2 -->
<g id="edge1" class="edge">
<title>Node1&#45;&gt;Node2</title>
<path fill="none" stroke="#63b8ff" d="M48.2,-111.25C60.42,-127.15 86.77,-158.65 116,-176.5 121.05,-179.58 126.67,-182.19 132.36,-184.38"/>
<polygon fill="#63b8ff" stroke="#63b8ff" points="131.21,-187.69 141.8,-187.61 133.47,-181.06 131.21,-187.69"/>
</g>
<!-- Node3 -->
<g id="node3" class="node">
<title>Node3</title>
<g id="a_node3"><a target="_blank" xlink:href="http://en.cppreference.com/w/cpp/io/basic_ofstream/close.html#" xlink:title=" ">
<polygon fill="white" stroke="#666666" points="225,-167 121,-167 121,-148 225,-148 225,-167"/>
<text text-anchor="middle" x="173" y="-155" font-family="Helvetica,sans-Serif" font-size="10.00">std::ofstream::close</text>
</a>
</g>
</g>
<!-- Node1&#45;&gt;Node3 -->
<g id="edge2" class="edge">
<title>Node1&#45;&gt;Node3</title>
<path fill="none" stroke="#63b8ff" d="M58.51,-111.37C73.48,-119.56 95.75,-131.18 116,-139.5 119.65,-141 123.48,-142.46 127.35,-143.85"/>
<polygon fill="#63b8ff" stroke="#63b8ff" points="126.2,-147.16 136.8,-147.1 128.48,-140.54 126.2,-147.16"/>
</g>
<!-- Node4 -->
<g id="node4" class="node">
<title>Node4</title>
<g id="a_node4"><a target="_blank" xlink:href="http://en.cppreference.com/w/cpp/io/basic_ofstream/is_open.html#" xlink:title=" ">
<polygon fill="white" stroke="#666666" points="230,-130 116,-130 116,-111 230,-111 230,-130"/>
<text text-anchor="middle" x="173" y="-118" font-family="Helvetica,sans-Serif" font-size="10.00">std::ofstream::is_open</text>
</a>
</g>
</g>
<!-- Node1&#45;&gt;Node4 -->
<g id="edge3" class="edge">
<title>Node1&#45;&gt;Node4</title>
<path fill="none" stroke="#63b8ff" d="M80.3,-107.2C87.97,-108.31 96.21,-109.51 104.5,-110.71"/>
<polygon fill="#63b8ff" stroke="#63b8ff" points="103.88,-114.16 114.28,-112.13 104.88,-107.23 103.88,-114.16"/>
</g>
<!-- Node5 -->
<g id="node5" class="node">
<title>Node5</title>
<g id="a_node5"><a xlink:href="../../d6/d60/group__ode.html#ga8c319db420c3d97a83e9dcca803b6812" target="_top" xlink:title="Compute next step approximation using the midpoint&#45;Euler method.">
<polygon fill="white" stroke="#666666" points="225,-93 121,-93 121,-74 225,-74 225,-93"/>
<text text-anchor="middle" x="173" y="-81" font-family="Helvetica,sans-Serif" font-size="10.00">midpoint_euler_step</text>
</a>
</g>
</g>
<!-- Node1&#45;&gt;Node5 -->
<g id="edge4" class="edge">
<title>Node1&#45;&gt;Node5</title>
<path fill="none" stroke="#63b8ff" d="M80.3,-96.1C89.5,-94.84 99.53,-93.46 109.46,-92.09"/>
<polygon fill="#63b8ff" stroke="#63b8ff" points="109.66,-95.6 119.09,-90.77 108.71,-88.66 109.66,-95.6"/>
</g>
<!-- Node7 -->
<g id="node7" class="node">
<title>Node7</title>
<g id="a_node7"><a target="_blank" xlink:href="http://en.cppreference.com/w/cpp/io/basic_ofstream/open.html#" xlink:title=" ">
<polygon fill="white" stroke="#666666" points="223.5,-56 122.5,-56 122.5,-37 223.5,-37 223.5,-56"/>
<text text-anchor="middle" x="173" y="-44" font-family="Helvetica,sans-Serif" font-size="10.00">std::ofstream::open</text>
</a>
</g>
</g>
<!-- Node1&#45;&gt;Node7 -->
<g id="edge6" class="edge">
<title>Node1&#45;&gt;Node7</title>
<path fill="none" stroke="#63b8ff" d="M60.14,-91.53C75.12,-83.91 96.61,-73.41 116,-65.5 120.38,-63.71 125.01,-61.95 129.64,-60.27"/>
<polygon fill="#63b8ff" stroke="#63b8ff" points="130.66,-63.62 138.93,-57 128.34,-57.01 130.66,-63.62"/>
</g>
<!-- Node8 -->
<g id="node8" class="node">
<title>Node8</title>
<g id="a_node8"><a target="_blank" xlink:href="http://en.cppreference.com/w/cpp/io/c/perror.html#" xlink:title=" ">
<polygon fill="white" stroke="#666666" points="203.5,-19 142.5,-19 142.5,0 203.5,0 203.5,-19"/>
<text text-anchor="middle" x="173" y="-7" font-family="Helvetica,sans-Serif" font-size="10.00">std::perror</text>
</a>
</g>
</g>
<!-- Node1&#45;&gt;Node8 -->
<g id="edge7" class="edge">
<title>Node1&#45;&gt;Node8</title>
<path fill="none" stroke="#63b8ff" d="M48.69,-91.57C61.22,-76.03 87.49,-45.96 116,-28.5 120.86,-25.53 126.23,-22.95 131.68,-20.74"/>
<polygon fill="#63b8ff" stroke="#63b8ff" points="132.51,-24.16 140.71,-17.44 130.11,-17.59 132.51,-24.16"/>
</g>
<!-- Node6 -->
<g id="node6" class="node">
<title>Node6</title>
<g id="a_node6"><a xlink:href="../../d6/dd3/ode__midpoint__euler_8cpp.html#abaeae8f62a018d197f0187a1c80a90fe" target="_top" xlink:title="Problem statement for a system with first&#45;order differential equations. Updates the system differenti...">
<polygon fill="white" stroke="#666666" points="317,-93 266,-93 266,-74 317,-74 317,-93"/>
<text text-anchor="middle" x="291.5" y="-81" font-family="Helvetica,sans-Serif" font-size="10.00">problem</text>
</a>
</g>
</g>
<!-- Node5&#45;&gt;Node6 -->
<g id="edge5" class="edge">
<title>Node5&#45;&gt;Node6</title>
<path fill="none" stroke="#63b8ff" d="M225.44,-83.5C235.19,-83.5 245.19,-83.5 254.34,-83.5"/>
<polygon fill="#63b8ff" stroke="#63b8ff" points="254.28,-87 264.28,-83.5 254.28,-80 254.28,-87"/>
</g>
</g>
</svg>
