<?xml version="1.0" encoding="UTF-8" standalone="no"?>
<!DOCTYPE svg PUBLIC "-//W3C//DTD SVG 1.1//EN"
 "http://www.w3.org/Graphics/SVG/1.1/DTD/svg11.dtd">
<!-- Generated by graphviz version 8.0.2 (20230410.1723)
 -->
<!-- Title: cpu_scheduling_algorithms/fcfs_scheduling.cpp Pages: 1 -->
<svg width="614pt" height="93pt"
 viewBox="0.00 0.00 614.00 93.00" xmlns="http://www.w3.org/2000/svg" xmlns:xlink="http://www.w3.org/1999/xlink">
<g id="graph0" class="graph" transform="scale(1 1) rotate(0) translate(4 89)">
<title>cpu_scheduling_algorithms/fcfs_scheduling.cpp</title>
<!-- Node1 -->
<g id="node1" class="node">
<title>Node1</title>
<g id="a_node1"><a xlink:title="Implementation of FCFS CPU scheduling algorithm.">
<polygon fill="#999999" stroke="#666666" points="356,-85 222,-85 222,-55 356,-55 356,-85"/>
<text text-anchor="start" x="230" y="-73" font-family="Helvetica,sans-Serif" font-size="10.00">cpu_scheduling_algorithms</text>
<text text-anchor="middle" x="289" y="-62" font-family="Helvetica,sans-Serif" font-size="10.00">/fcfs_scheduling.cpp</text>
</a>
</g>
</g>
<!-- Node2 -->
<g id="node2" class="node">
<title>Node2</title>
<g id="a_node2"><a xlink:title=" ">
<polygon fill="#e0e0e0" stroke="#999999" points="56,-19 0,-19 0,0 56,0 56,-19"/>
<text text-anchor="middle" x="28" y="-7" font-family="Helvetica,sans-Serif" font-size="10.00">algorithm</text>
</a>
</g>
</g>
<!-- Node1&#45;&gt;Node2 -->
<g id="edge1" class="edge">
<title>Node1&#45;&gt;Node2</title>
<path fill="none" stroke="#63b8ff" d="M223.79,-54.56C181.62,-45.19 125.25,-32.62 66.82,-19.4"/>
<polygon fill="#63b8ff" stroke="#63b8ff" points="67.8,-15.81 57.28,-17.02 66.26,-22.64 67.8,-15.81"/>
</g>
<!-- Node3 -->
<g id="node3" class="node">
<title>Node3</title>
<g id="a_node3"><a xlink:title=" ">
<polygon fill="#e0e0e0" stroke="#999999" points="123.5,-19 74.5,-19 74.5,0 123.5,0 123.5,-19"/>
<text text-anchor="middle" x="99" y="-7" font-family="Helvetica,sans-Serif" font-size="10.00">cassert</text>
</a>
</g>
</g>
<!-- Node1&#45;&gt;Node3 -->
<g id="edge2" class="edge">
<title>Node1&#45;&gt;Node3</title>
<path fill="none" stroke="#63b8ff" d="M242.03,-54.54C208.61,-44.25 164.42,-30.64 134.06,-21.29"/>
<polygon fill="#63b8ff" stroke="#63b8ff" points="135.52,-17.77 124.93,-18.18 133.46,-24.46 135.52,-17.77"/>
</g>
<!-- Node4 -->
<g id="node4" class="node">
<title>Node4</title>
<g id="a_node4"><a xlink:title=" ">
<polygon fill="#e0e0e0" stroke="#999999" points="186.5,-19 141.5,-19 141.5,0 186.5,0 186.5,-19"/>
<text text-anchor="middle" x="164" y="-7" font-family="Helvetica,sans-Serif" font-size="10.00">cstdlib</text>
</a>
</g>
</g>
<!-- Node1&#45;&gt;Node4 -->
<g id="edge3" class="edge">
<title>Node1&#45;&gt;Node4</title>
<path fill="none" stroke="#63b8ff" d="M258.1,-54.54C238.12,-45.19 212.3,-33.1 192.76,-23.96"/>
<polygon fill="#63b8ff" stroke="#63b8ff" points="194.44,-20.41 183.9,-19.35 191.48,-26.76 194.44,-20.41"/>
</g>
<!-- Node5 -->
<g id="node5" class="node">
<title>Node5</title>
<g id="a_node5"><a xlink:title=" ">
<polygon fill="#e0e0e0" stroke="#999999" points="245.5,-19 204.5,-19 204.5,0 245.5,0 245.5,-19"/>
<text text-anchor="middle" x="225" y="-7" font-family="Helvetica,sans-Serif" font-size="10.00">ctime</text>
</a>
</g>
</g>
<!-- Node1&#45;&gt;Node5 -->
<g id="edge4" class="edge">
<title>Node1&#45;&gt;Node5</title>
<path fill="none" stroke="#63b8ff" d="M273.18,-54.54C263.88,-46.04 252.12,-35.29 242.54,-26.53"/>
<polygon fill="#63b8ff" stroke="#63b8ff" points="245.23,-24.34 235.49,-20.18 240.51,-29.51 245.23,-24.34"/>
</g>
<!-- Node6 -->
<g id="node6" class="node">
<title>Node6</title>
<g id="a_node6"><a xlink:title=" ">
<polygon fill="#e0e0e0" stroke="#999999" points="314,-19 264,-19 264,0 314,0 314,-19"/>
<text text-anchor="middle" x="289" y="-7" font-family="Helvetica,sans-Serif" font-size="10.00">iomanip</text>
</a>
</g>
</g>
<!-- Node1&#45;&gt;Node6 -->
<g id="edge5" class="edge">
<title>Node1&#45;&gt;Node6</title>
<path fill="none" stroke="#63b8ff" d="M289,-54.54C289,-47.17 289,-38.1 289,-30.11"/>
<polygon fill="#63b8ff" stroke="#63b8ff" points="292.5,-30.18 289,-20.18 285.5,-30.18 292.5,-30.18"/>
</g>
<!-- Node7 -->
<g id="node7" class="node">
<title>Node7</title>
<g id="a_node7"><a xlink:title=" ">
<polygon fill="#e0e0e0" stroke="#999999" points="386,-19 332,-19 332,0 386,0 386,-19"/>
<text text-anchor="middle" x="359" y="-7" font-family="Helvetica,sans-Serif" font-size="10.00">iostream</text>
</a>
</g>
</g>
<!-- Node1&#45;&gt;Node7 -->
<g id="edge6" class="edge">
<title>Node1&#45;&gt;Node7</title>
<path fill="none" stroke="#63b8ff" d="M306.3,-54.54C316.68,-45.87 329.87,-34.85 340.46,-26"/>
<polygon fill="#63b8ff" stroke="#63b8ff" points="342.19,-28.27 347.62,-19.18 337.7,-22.9 342.19,-28.27"/>
</g>
<!-- Node8 -->
<g id="node8" class="node">
<title>Node8</title>
<g id="a_node8"><a xlink:title=" ">
<polygon fill="#e0e0e0" stroke="#999999" points="447.5,-19 404.5,-19 404.5,0 447.5,0 447.5,-19"/>
<text text-anchor="middle" x="426" y="-7" font-family="Helvetica,sans-Serif" font-size="10.00">queue</text>
</a>
</g>
</g>
<!-- Node1&#45;&gt;Node8 -->
<g id="edge7" class="edge">
<title>Node1&#45;&gt;Node8</title>
<path fill="none" stroke="#63b8ff" d="M322.87,-54.54C345.06,-45.06 373.85,-32.77 395.37,-23.58"/>
<polygon fill="#63b8ff" stroke="#63b8ff" points="396.46,-26.49 404.28,-19.35 393.71,-20.05 396.46,-26.49"/>
</g>
<!-- Node9 -->
<g id="node9" class="node">
<title>Node9</title>
<g id="a_node9"><a xlink:title=" ">
<polygon fill="#e0e0e0" stroke="#999999" points="544,-19 466,-19 466,0 544,0 544,-19"/>
<text text-anchor="middle" x="505" y="-7" font-family="Helvetica,sans-Serif" font-size="10.00">unordered_set</text>
</a>
</g>
</g>
<!-- Node1&#45;&gt;Node9 -->
<g id="edge8" class="edge">
<title>Node1&#45;&gt;Node9</title>
<path fill="none" stroke="#63b8ff" d="M342.39,-54.54C379.19,-44.57 427.46,-31.5 461.83,-22.19"/>
<polygon fill="#63b8ff" stroke="#63b8ff" points="462.28,-25.42 471.02,-19.43 460.45,-18.67 462.28,-25.42"/>
</g>
<!-- Node10 -->
<g id="node10" class="node">
<title>Node10</title>
<g id="a_node10"><a xlink:title=" ">
<polygon fill="#e0e0e0" stroke="#999999" points="606,-19 562,-19 562,0 606,0 606,-19"/>
<text text-anchor="middle" x="584" y="-7" font-family="Helvetica,sans-Serif" font-size="10.00">vector</text>
</a>
</g>
</g>
<!-- Node1&#45;&gt;Node10 -->
<g id="edge9" class="edge">
<title>Node1&#45;&gt;Node10</title>
<path fill="none" stroke="#63b8ff" d="M356.31,-57.79C407.34,-48.94 479.4,-35.69 551.13,-19.29"/>
<polygon fill="#63b8ff" stroke="#63b8ff" points="551.75,-22.5 560.7,-16.84 550.17,-15.68 551.75,-22.5"/>
</g>
</g>
</svg>
