<?xml version="1.0" encoding="UTF-8" standalone="no"?>
<!DOCTYPE svg PUBLIC "-//W3C//DTD SVG 1.1//EN"
 "http://www.w3.org/Graphics/SVG/1.1/DTD/svg11.dtd">
<!-- Generated by graphviz version 9.0.0 (20230911.1827)
 -->
<!-- Title: data_structures::tree_234::Tree234::Print Pages: 1 -->
<svg width="278pt" height="150pt"
 viewBox="0.00 0.00 277.75 149.88" xmlns="http://www.w3.org/2000/svg" xmlns:xlink="http://www.w3.org/1999/xlink">

<svg id="main" version="1.1" xmlns="http://www.w3.org/2000/svg" xmlns:xlink="http://www.w3.org/1999/xlink" xml:space="preserve" onload="init(evt)">
<style type="text/css"><![CDATA[
.node, .edge {opacity: 0.7;}
.node.selected, .edge.selected {opacity: 1;}
.edge:hover path { stroke: red; }
.edge:hover polygon { stroke: red; fill: red; }
]]></style>
<script type="application/ecmascript" xlink:href="../../svg.min.js"/>
<svg id="graph" class="graph">
<g id="graph0" class="graph" transform="scale(1 1) rotate(0) translate(4 145.88)">
<title>data_structures::tree_234::Tree234::Print</title>
<!-- Node1 -->
<g id="Node000001" class="node">
<title>Node1</title>
<g id="a_Node000001"><a xlink:title="Print tree into a dot file.">
<polygon fill="#999999" stroke="#666666" points="106,-91.5 0,-91.5 0,-61 106,-61 106,-91.5"/>
<text text-anchor="start" x="8" y="-78" font-family="Helvetica,sans-Serif" font-size="10.00">data_structures::tree</text>
<text text-anchor="middle" x="53" y="-66.75" font-family="Helvetica,sans-Serif" font-size="10.00">_234::Tree234::Print</text>
</a>
</g>
</g>
<!-- Node2 -->
<g id="Node000002" class="node">
<title>Node2</title>
<g id="a_Node000002"><a target="_blank" xlink:href="http://en.cppreference.com/w/cpp/io/basic_ofstream/close.html#" xlink:title=" ">
<polygon fill="white" stroke="#666666" points="257.38,-141.88 154.38,-141.88 154.38,-122.62 257.38,-122.62 257.38,-141.88"/>
<text text-anchor="middle" x="205.88" y="-128.38" font-family="Helvetica,sans-Serif" font-size="10.00">std::ofstream::close</text>
</a>
</g>
</g>
<!-- Node1&#45;&gt;Node2 -->
<g id="edge1_Node000001_Node000002" class="edge">
<title>Node1&#45;&gt;Node2</title>
<g id="a_edge1_Node000001_Node000002"><a xlink:title=" ">
<path fill="none" stroke="#63b8ff" d="M87.44,-91.9C103.71,-99.2 123.67,-107.7 142,-114.25 146.45,-115.84 151.12,-117.39 155.81,-118.87"/>
<polygon fill="#63b8ff" stroke="#63b8ff" points="154.69,-122.19 165.27,-121.74 156.72,-115.49 154.69,-122.19"/>
</a>
</g>
</g>
<!-- Node3 -->
<g id="Node000003" class="node">
<title>Node3</title>
<g id="a_Node000003"><a target="_blank" xlink:href="http://en.cppreference.com/w/cpp/io/manip/endl.html#" xlink:title=" ">
<polygon fill="white" stroke="#666666" points="232.62,-104.88 179.12,-104.88 179.12,-85.62 232.62,-85.62 232.62,-104.88"/>
<text text-anchor="middle" x="205.88" y="-91.38" font-family="Helvetica,sans-Serif" font-size="10.00">std::endl</text>
</a>
</g>
</g>
<!-- Node1&#45;&gt;Node3 -->
<g id="edge2_Node000001_Node000003" class="edge">
<title>Node1&#45;&gt;Node3</title>
<g id="a_edge2_Node000001_Node000003"><a xlink:title=" ">
<path fill="none" stroke="#63b8ff" d="M106.35,-82.84C126.55,-85.39 149.2,-88.24 167.68,-90.57"/>
<polygon fill="#63b8ff" stroke="#63b8ff" points="167.01,-94.01 177.37,-91.79 167.89,-87.06 167.01,-94.01"/>
</a>
</g>
</g>
<!-- Node4 -->
<g id="Node000004" class="node">
<title>Node4</title>
<g id="a_Node000004"><a target="_blank" xlink:href="http://en.cppreference.com/w/cpp/io/basic_ofstream/open.html#" xlink:title=" ">
<polygon fill="white" stroke="#666666" points="256.25,-67.88 155.5,-67.88 155.5,-48.62 256.25,-48.62 256.25,-67.88"/>
<text text-anchor="middle" x="205.88" y="-54.38" font-family="Helvetica,sans-Serif" font-size="10.00">std::ofstream::open</text>
</a>
</g>
</g>
<!-- Node1&#45;&gt;Node4 -->
<g id="edge3_Node000001_Node000004" class="edge">
<title>Node1&#45;&gt;Node4</title>
<g id="a_edge3_Node000001_Node000004"><a xlink:title=" ">
<path fill="none" stroke="#63b8ff" d="M106.35,-70C118.47,-68.56 131.47,-67.01 143.92,-65.52"/>
<polygon fill="#63b8ff" stroke="#63b8ff" points="144.14,-69.02 153.66,-64.36 143.31,-62.07 144.14,-69.02"/>
</a>
</g>
</g>
<!-- Node5 -->
<g id="Node000005" class="node">
<title>Node5</title>
<g id="a_Node000005"><a xlink:href="../../d3/d95/classdata__structures_1_1tree__234_1_1_tree234.html#af260f0760344771bf8fce4fc9b1739be" target="_top" xlink:title="Print the tree to a dot file. You can convert it to picture with graphviz.">
<polygon fill="white" stroke="#666666" points="269.75,-30.5 142,-30.5 142,0 269.75,0 269.75,-30.5"/>
<text text-anchor="start" x="150" y="-17" font-family="Helvetica,sans-Serif" font-size="10.00">data_structures::tree</text>
<text text-anchor="middle" x="205.88" y="-5.75" font-family="Helvetica,sans-Serif" font-size="10.00">_234::Tree234::PrintNode</text>
</a>
</g>
</g>
<!-- Node1&#45;&gt;Node5 -->
<g id="edge4_Node000001_Node000005" class="edge">
<title>Node1&#45;&gt;Node5</title>
<g id="a_edge4_Node000001_Node000005"><a xlink:title=" ">
<path fill="none" stroke="#63b8ff" d="M90.28,-60.68C106.11,-53.96 124.93,-46.1 142,-39.25 145.42,-37.88 148.94,-36.48 152.5,-35.09"/>
<polygon fill="#63b8ff" stroke="#63b8ff" points="153.73,-38.37 161.79,-31.48 151.2,-31.84 153.73,-38.37"/>
</a>
</g>
</g>
</g>
</svg>
</svg>

<style type='text/css'>
<![CDATA[
[data-mouse-over-selected='false'] { opacity: 0.7; }
[data-mouse-over-selected='true']  { opacity: 1.0; }
]]>
</style>
<script type="application/ecmascript"><![CDATA[
document.addEventListener('DOMContentLoaded', (event) => {
  highlightEdges();
  highlightAdjacentNodes();
});
]]></script>
</svg>
