<?xml version="1.0" encoding="UTF-8" standalone="no"?>
<!DOCTYPE svg PUBLIC "-//W3C//DTD SVG 1.1//EN"
 "http://www.w3.org/Graphics/SVG/1.1/DTD/svg11.dtd">
<!-- Generated by graphviz version 2.49.3 (20211023.0002)
 -->
<!-- Title: data_structures::tree_234::Tree234::Insert Pages: 1 -->
<svg width="855pt" height="330pt"
 viewBox="0.00 0.00 855.00 329.55" xmlns="http://www.w3.org/2000/svg" xmlns:xlink="http://www.w3.org/1999/xlink">
<g id="graph0" class="graph" transform="scale(1 1) rotate(0) translate(4 325.55)">
<title>data_structures::tree_234::Tree234::Insert</title>
<polygon fill="white" stroke="transparent" points="-4,4 -4,-325.55 851,-325.55 851,4 -4,4"/>
<!-- Node1 -->
<g id="node1" class="node">
<title>Node1</title>
<g id="a_node1"><a xlink:title="A helper function used by post&#45;merge insert.">
<polygon fill="#bfbfbf" stroke="black" points="0,-154.83 0,-184.83 112,-184.83 112,-154.83 0,-154.83"/>
<text text-anchor="start" x="8" y="-172.83" font-family="Helvetica,sans-Serif" font-size="10.00">data_structures::tree</text>
<text text-anchor="middle" x="56" y="-161.83" font-family="Helvetica,sans-Serif" font-size="10.00">_234::Tree234::Insert</text>
</a>
</g>
</g>
<!-- Node2 -->
<g id="node2" class="node">
<title>Node2</title>
<g id="a_node2"><a xlink:href="../../dd/d40/classdata__structures_1_1tree__234_1_1_node.html#a22fd25c6c811c64b6b27b0850d8c532f" target="_top" xlink:title="Check if item is in the node.">
<polygon fill="white" stroke="black" points="713.5,-269.83 713.5,-299.83 826.5,-299.83 826.5,-269.83 713.5,-269.83"/>
<text text-anchor="start" x="721.5" y="-287.83" font-family="Helvetica,sans-Serif" font-size="10.00">data_structures::tree</text>
<text text-anchor="middle" x="770" y="-276.83" font-family="Helvetica,sans-Serif" font-size="10.00">_234::Node::Contains</text>
</a>
</g>
</g>
<!-- Node1&#45;&gt;Node2 -->
<g id="edge1" class="edge">
<title>Node1&#45;&gt;Node2</title>
<path fill="none" stroke="midnightblue" d="M65.85,-184.97C79.96,-207.42 109.86,-248.73 148,-265.83 334.74,-349.53 585.76,-319.6 703.23,-298.5"/>
<polygon fill="midnightblue" stroke="midnightblue" points="703.95,-301.92 713.15,-296.68 702.69,-295.04 703.95,-301.92"/>
</g>
<!-- Node3 -->
<g id="node3" class="node">
<title>Node3</title>
<g id="a_node3"><a target="_blank" xlink:href="http://en.cppreference.com/w/cpp/memory/unique_ptr/get.html#" xlink:title=" ">
<polygon fill="white" stroke="black" points="171,-237.33 171,-256.33 273,-256.33 273,-237.33 171,-237.33"/>
<text text-anchor="middle" x="222" y="-244.33" font-family="Helvetica,sans-Serif" font-size="10.00">std::unique_ptr::get</text>
</a>
</g>
</g>
<!-- Node1&#45;&gt;Node3 -->
<g id="edge2" class="edge">
<title>Node1&#45;&gt;Node3</title>
<path fill="none" stroke="midnightblue" d="M76.58,-184.88C94.35,-197.9 121.72,-216.38 148,-227.83 153.46,-230.21 159.28,-232.34 165.17,-234.24"/>
<polygon fill="midnightblue" stroke="midnightblue" points="164.5,-237.7 175.08,-237.22 166.52,-230.99 164.5,-237.7"/>
</g>
<!-- Node4 -->
<g id="node4" class="node">
<title>Node4</title>
<g id="a_node4"><a xlink:href="../../dd/d40/classdata__structures_1_1tree__234_1_1_node.html#a91322b3bb0b2b2175eb56e9e10d7db46" target="_top" xlink:title="Get next node which is possibly contains item.">
<polygon fill="white" stroke="black" points="148,-177.33 148,-218.33 296,-218.33 296,-177.33 148,-177.33"/>
<text text-anchor="start" x="156" y="-206.33" font-family="Helvetica,sans-Serif" font-size="10.00">data_structures::tree</text>
<text text-anchor="start" x="156" y="-195.33" font-family="Helvetica,sans-Serif" font-size="10.00">_234::Node::GetNextPossible</text>
<text text-anchor="middle" x="222" y="-184.33" font-family="Helvetica,sans-Serif" font-size="10.00">Child</text>
</a>
</g>
</g>
<!-- Node1&#45;&gt;Node4 -->
<g id="edge3" class="edge">
<title>Node1&#45;&gt;Node4</title>
<path fill="none" stroke="midnightblue" d="M112.07,-179.23C120.38,-180.65 129.11,-182.14 137.86,-183.63"/>
<polygon fill="midnightblue" stroke="midnightblue" points="137.28,-187.09 147.73,-185.32 138.46,-180.19 137.28,-187.09"/>
</g>
<!-- Node5 -->
<g id="node5" class="node">
<title>Node5</title>
<g id="a_node5"><a xlink:href="../../d3/d95/classdata__structures_1_1tree__234_1_1_tree234.html#a6749ebb40710c9752a2771eda03c6b3e" target="_top" xlink:title="Insert item to tree.">
<polygon fill="white" stroke="black" points="166,-127.83 166,-157.83 278,-157.83 278,-127.83 166,-127.83"/>
<text text-anchor="start" x="174" y="-145.83" font-family="Helvetica,sans-Serif" font-size="10.00">data_structures::tree</text>
<text text-anchor="middle" x="222" y="-134.83" font-family="Helvetica,sans-Serif" font-size="10.00">_234::Tree234::Insert</text>
</a>
</g>
</g>
<!-- Node1&#45;&gt;Node5 -->
<g id="edge4" class="edge">
<title>Node1&#45;&gt;Node5</title>
<path fill="none" stroke="midnightblue" d="M112.07,-160.76C126.13,-158.45 141.38,-155.94 155.89,-153.55"/>
<polygon fill="midnightblue" stroke="midnightblue" points="156.5,-156.99 165.8,-151.92 155.36,-150.09 156.5,-156.99"/>
</g>
<!-- Node7 -->
<g id="node7" class="node">
<title>Node7</title>
<g id="a_node7"><a xlink:href="../../d3/d95/classdata__structures_1_1tree__234_1_1_tree234.html#a11f0d016dff7f7e62b3dddb9fdf47805" target="_top" xlink:title="A helper function used during post&#45;merge insert.">
<polygon fill="white" stroke="black" points="152.5,-78.83 152.5,-108.83 291.5,-108.83 291.5,-78.83 152.5,-78.83"/>
<text text-anchor="start" x="160.5" y="-96.83" font-family="Helvetica,sans-Serif" font-size="10.00">data_structures::tree</text>
<text text-anchor="middle" x="222" y="-85.83" font-family="Helvetica,sans-Serif" font-size="10.00">_234::Tree234::MergeNode</text>
</a>
</g>
</g>
<!-- Node1&#45;&gt;Node7 -->
<g id="edge6" class="edge">
<title>Node1&#45;&gt;Node7</title>
<path fill="none" stroke="midnightblue" d="M81.1,-154.74C99.09,-143.87 124.52,-129.32 148,-118.83 152.97,-116.61 158.2,-114.46 163.48,-112.42"/>
<polygon fill="midnightblue" stroke="midnightblue" points="164.85,-115.65 173,-108.88 162.41,-109.09 164.85,-115.65"/>
</g>
<!-- Node16 -->
<g id="node16" class="node">
<title>Node16</title>
<g id="a_node16"><a target="_blank" xlink:href="http://en.cppreference.com/w/cpp/memory/unique_ptr/reset.html#" xlink:title=" ">
<polygon fill="white" stroke="black" points="167,-40.33 167,-59.33 277,-59.33 277,-40.33 167,-40.33"/>
<text text-anchor="middle" x="222" y="-47.33" font-family="Helvetica,sans-Serif" font-size="10.00">std::unique_ptr::reset</text>
</a>
</g>
</g>
<!-- Node1&#45;&gt;Node16 -->
<g id="edge18" class="edge">
<title>Node1&#45;&gt;Node16</title>
<path fill="none" stroke="midnightblue" d="M66.53,-154.83C81.29,-132.83 111.78,-92.03 148,-69.83 152.19,-67.26 156.72,-65.01 161.39,-63.05"/>
<polygon fill="midnightblue" stroke="midnightblue" points="162.98,-66.19 171.12,-59.41 160.53,-59.64 162.98,-66.19"/>
</g>
<!-- Node6 -->
<g id="node6" class="node">
<title>Node6</title>
<g id="a_node6"><a xlink:href="../../d3/d95/classdata__structures_1_1tree__234_1_1_tree234.html#a07811b3c564a3a443b106c9aa717629d" target="_top" xlink:title="A insert implementation of pre&#45;split.">
<polygon fill="white" stroke="black" points="344,-225.83 344,-255.83 491,-255.83 491,-225.83 344,-225.83"/>
<text text-anchor="start" x="352" y="-243.83" font-family="Helvetica,sans-Serif" font-size="10.00">data_structures::tree</text>
<text text-anchor="middle" x="417.5" y="-232.83" font-family="Helvetica,sans-Serif" font-size="10.00">_234::Tree234::InsertPreSplit</text>
</a>
</g>
</g>
<!-- Node5&#45;&gt;Node6 -->
<g id="edge5" class="edge">
<title>Node5&#45;&gt;Node6</title>
<path fill="none" stroke="midnightblue" d="M278.25,-157.64C284.53,-160.49 290.6,-163.86 296,-167.83 317.78,-183.83 309.8,-201.42 332,-216.83 334.14,-218.31 336.37,-219.71 338.66,-221.01"/>
<polygon fill="midnightblue" stroke="midnightblue" points="337.31,-224.25 347.82,-225.64 340.47,-218.01 337.31,-224.25"/>
</g>
<!-- Node8 -->
<g id="node8" class="node">
<title>Node8</title>
<g id="a_node8"><a xlink:href="../../dd/d40/classdata__structures_1_1tree__234_1_1_node.html#a164574a9209b5df66368530d090b32c4" target="_top" xlink:title="Get the child pointer at position of index.">
<polygon fill="white" stroke="black" points="361,-78.83 361,-108.83 474,-108.83 474,-78.83 361,-78.83"/>
<text text-anchor="start" x="369" y="-96.83" font-family="Helvetica,sans-Serif" font-size="10.00">data_structures::tree</text>
<text text-anchor="middle" x="417.5" y="-85.83" font-family="Helvetica,sans-Serif" font-size="10.00">_234::Node::GetChild</text>
</a>
</g>
</g>
<!-- Node7&#45;&gt;Node8 -->
<g id="edge7" class="edge">
<title>Node7&#45;&gt;Node8</title>
<path fill="none" stroke="midnightblue" d="M291.77,-93.83C310.92,-93.83 331.67,-93.83 350.65,-93.83"/>
<polygon fill="midnightblue" stroke="midnightblue" points="350.69,-97.33 360.69,-93.83 350.69,-90.33 350.69,-97.33"/>
</g>
<!-- Node9 -->
<g id="node9" class="node">
<title>Node9</title>
<g id="a_node9"><a xlink:href="../../dd/d40/classdata__structures_1_1tree__234_1_1_node.html#a4808acb43668ff8cfd6f7cb44ceedad3" target="_top" xlink:title="Get item of the \index index.">
<polygon fill="white" stroke="black" points="363,-29.83 363,-59.83 472,-59.83 472,-29.83 363,-29.83"/>
<text text-anchor="start" x="371" y="-47.83" font-family="Helvetica,sans-Serif" font-size="10.00">data_structures::tree</text>
<text text-anchor="middle" x="417.5" y="-36.83" font-family="Helvetica,sans-Serif" font-size="10.00">_234::Node::GetItem</text>
</a>
</g>
</g>
<!-- Node7&#45;&gt;Node9 -->
<g id="edge8" class="edge">
<title>Node7&#45;&gt;Node9</title>
<path fill="none" stroke="midnightblue" d="M282.37,-78.79C304.73,-73.13 330.23,-66.68 352.95,-60.92"/>
<polygon fill="midnightblue" stroke="midnightblue" points="354,-64.27 362.83,-58.42 352.28,-57.48 354,-64.27"/>
</g>
<!-- Node10 -->
<g id="node10" class="node">
<title>Node10</title>
<g id="a_node10"><a xlink:href="../../dd/d40/classdata__structures_1_1tree__234_1_1_node.html#a4a37381c0ef93d5ae2118b2e554974dd" target="_top" xlink:title="Check if node is a full (4&#45;node)">
<polygon fill="white" stroke="black" points="716,-130.83 716,-160.83 824,-160.83 824,-130.83 716,-130.83"/>
<text text-anchor="start" x="724" y="-148.83" font-family="Helvetica,sans-Serif" font-size="10.00">data_structures::tree</text>
<text text-anchor="middle" x="770" y="-137.83" font-family="Helvetica,sans-Serif" font-size="10.00">_234::Node::IsFull</text>
</a>
</g>
</g>
<!-- Node7&#45;&gt;Node10 -->
<g id="edge9" class="edge">
<title>Node7&#45;&gt;Node10</title>
<path fill="none" stroke="midnightblue" d="M279,-78.67C285.01,-75.89 290.82,-72.64 296,-68.83 317.78,-52.83 307.89,-32.03 332,-19.83 399.81,14.49 428.85,-3.15 503,-19.83 593.39,-40.15 689.18,-94.89 737.37,-125.1"/>
<polygon fill="midnightblue" stroke="midnightblue" points="735.76,-128.23 746.08,-130.62 739.51,-122.31 735.76,-128.23"/>
</g>
<!-- Node11 -->
<g id="node11" class="node">
<title>Node11</title>
<g id="a_node11"><a xlink:href="../../d3/d95/classdata__structures_1_1tree__234_1_1_tree234.html#ad37e29e2a4a6cc0eb65cbd5595e1da95" target="_top" xlink:title="Merge node to a not&#45;full target node.">
<polygon fill="white" stroke="black" points="332,-176.83 332,-206.83 503,-206.83 503,-176.83 332,-176.83"/>
<text text-anchor="start" x="340" y="-194.83" font-family="Helvetica,sans-Serif" font-size="10.00">data_structures::tree</text>
<text text-anchor="middle" x="417.5" y="-183.83" font-family="Helvetica,sans-Serif" font-size="10.00">_234::Tree234::MergeNodeNotFull</text>
</a>
</g>
</g>
<!-- Node7&#45;&gt;Node11 -->
<g id="edge10" class="edge">
<title>Node7&#45;&gt;Node11</title>
<path fill="none" stroke="midnightblue" d="M279,-108.98C285.01,-111.76 290.82,-115.02 296,-118.83 317.78,-134.83 309.8,-152.42 332,-167.83 334.14,-169.31 336.37,-170.71 338.66,-172.01"/>
<polygon fill="midnightblue" stroke="midnightblue" points="337.31,-175.25 347.82,-176.64 340.47,-169.01 337.31,-175.25"/>
</g>
<!-- Node15 -->
<g id="node15" class="node">
<title>Node15</title>
<g id="a_node15"><a xlink:href="../../d3/d95/classdata__structures_1_1tree__234_1_1_tree234.html#a370b625ca9f16bbef2b65e024ef78ea9" target="_top" xlink:title="Split a 4&#45;node to 1 parent and 2 children, and return the parent node.">
<polygon fill="white" stroke="black" points="352.5,-127.83 352.5,-157.83 482.5,-157.83 482.5,-127.83 352.5,-127.83"/>
<text text-anchor="start" x="360.5" y="-145.83" font-family="Helvetica,sans-Serif" font-size="10.00">data_structures::tree</text>
<text text-anchor="middle" x="417.5" y="-134.83" font-family="Helvetica,sans-Serif" font-size="10.00">_234::Tree234::SplitNode</text>
</a>
</g>
</g>
<!-- Node7&#45;&gt;Node15 -->
<g id="edge17" class="edge">
<title>Node7&#45;&gt;Node15</title>
<path fill="none" stroke="midnightblue" d="M282.37,-108.86C302.9,-114.06 326.07,-119.93 347.31,-125.31"/>
<polygon fill="midnightblue" stroke="midnightblue" points="346.69,-128.76 357.24,-127.82 348.41,-121.97 346.69,-128.76"/>
</g>
<!-- Node11&#45;&gt;Node10 -->
<g id="edge15" class="edge">
<title>Node11&#45;&gt;Node10</title>
<path fill="none" stroke="midnightblue" d="M481.08,-176.76C499.63,-172.72 520.06,-168.68 539,-165.83 595.01,-157.39 659.26,-152.17 705.6,-149.19"/>
<polygon fill="midnightblue" stroke="midnightblue" points="706.03,-152.67 715.79,-148.55 705.59,-145.68 706.03,-152.67"/>
</g>
<!-- Node12 -->
<g id="node12" class="node">
<title>Node12</title>
<g id="a_node12"><a xlink:href="../../dd/d40/classdata__structures_1_1tree__234_1_1_node.html#a8e809ae85ae00e937f67ddb76951b6bb" target="_top" xlink:title="Insert item to the proper position of the node and return the position index.">
<polygon fill="white" stroke="black" points="539,-223.83 539,-253.83 657,-253.83 657,-223.83 539,-223.83"/>
<text text-anchor="start" x="547" y="-241.83" font-family="Helvetica,sans-Serif" font-size="10.00">data_structures::tree</text>
<text text-anchor="middle" x="598" y="-230.83" font-family="Helvetica,sans-Serif" font-size="10.00">_234::Node::InsertItem</text>
</a>
</g>
</g>
<!-- Node11&#45;&gt;Node12 -->
<g id="edge11" class="edge">
<title>Node11&#45;&gt;Node12</title>
<path fill="none" stroke="midnightblue" d="M475.47,-206.83C492.86,-211.41 512.14,-216.48 530.12,-221.22"/>
<polygon fill="midnightblue" stroke="midnightblue" points="529.4,-224.65 539.96,-223.81 531.18,-217.88 529.4,-224.65"/>
</g>
<!-- Node14 -->
<g id="node14" class="node">
<title>Node14</title>
<g id="a_node14"><a xlink:href="../../dd/d40/classdata__structures_1_1tree__234_1_1_node.html#ab4e5f7b7b260bb81d9441652cc124c74" target="_top" xlink:title="Set child pointer to the position of index.">
<polygon fill="white" stroke="black" points="542,-174.83 542,-204.83 654,-204.83 654,-174.83 542,-174.83"/>
<text text-anchor="start" x="550" y="-192.83" font-family="Helvetica,sans-Serif" font-size="10.00">data_structures::tree</text>
<text text-anchor="middle" x="598" y="-181.83" font-family="Helvetica,sans-Serif" font-size="10.00">_234::Node::SetChild</text>
</a>
</g>
</g>
<!-- Node11&#45;&gt;Node14 -->
<g id="edge16" class="edge">
<title>Node11&#45;&gt;Node14</title>
<path fill="none" stroke="midnightblue" d="M503.05,-190.88C512.6,-190.77 522.24,-190.67 531.5,-190.56"/>
<polygon fill="midnightblue" stroke="midnightblue" points="531.82,-194.06 541.78,-190.45 531.74,-187.06 531.82,-194.06"/>
</g>
<!-- Node12&#45;&gt;Node2 -->
<g id="edge12" class="edge">
<title>Node12&#45;&gt;Node2</title>
<path fill="none" stroke="midnightblue" d="M654.66,-253.89C670.3,-258.12 687.45,-262.76 703.6,-267.13"/>
<polygon fill="midnightblue" stroke="midnightblue" points="702.93,-270.58 713.5,-269.81 704.76,-263.82 702.93,-270.58"/>
</g>
<!-- Node12&#45;&gt;Node10 -->
<g id="edge14" class="edge">
<title>Node12&#45;&gt;Node10</title>
<path fill="none" stroke="midnightblue" d="M637.77,-223.8C644.27,-220.99 650.89,-217.95 657,-214.83 685.42,-200.31 716.19,-181.08 738.27,-166.61"/>
<polygon fill="midnightblue" stroke="midnightblue" points="740.46,-169.36 746.87,-160.93 736.6,-163.52 740.46,-169.36"/>
</g>
<!-- Node13 -->
<g id="node13" class="node">
<title>Node13</title>
<g id="a_node13"><a xlink:href="../../dd/d40/classdata__structures_1_1tree__234_1_1_node.html#a306a30931f54c84098b38d6bc8f4a956" target="_top" xlink:title="Insert a value to the index position.">
<polygon fill="white" stroke="black" points="693,-220.83 693,-250.83 847,-250.83 847,-220.83 693,-220.83"/>
<text text-anchor="start" x="701" y="-238.83" font-family="Helvetica,sans-Serif" font-size="10.00">data_structures::tree</text>
<text text-anchor="middle" x="770" y="-227.83" font-family="Helvetica,sans-Serif" font-size="10.00">_234::Node::InsertItemByIndex</text>
</a>
</g>
</g>
<!-- Node12&#45;&gt;Node13 -->
<g id="edge13" class="edge">
<title>Node12&#45;&gt;Node13</title>
<path fill="none" stroke="midnightblue" d="M657.03,-237.8C665.33,-237.66 674,-237.5 682.7,-237.35"/>
<polygon fill="midnightblue" stroke="midnightblue" points="682.96,-240.85 692.9,-237.17 682.84,-233.85 682.96,-240.85"/>
</g>
</g>
</svg>
