<?xml version="1.0" encoding="UTF-8" standalone="no"?>
<!DOCTYPE svg PUBLIC "-//W3C//DTD SVG 1.1//EN"
 "http://www.w3.org/Graphics/SVG/1.1/DTD/svg11.dtd">
<!-- Generated by graphviz version 2.44.1 (20200629.0846)
 -->
<!-- Title: data_structures::tree_234::Tree234::InsertPostMerge Pages: 1 -->
<svg width="1036pt" height="185pt"
 viewBox="0.00 0.00 1036.00 185.00" xmlns="http://www.w3.org/2000/svg" xmlns:xlink="http://www.w3.org/1999/xlink">
<g id="graph0" class="graph" transform="scale(1 1) rotate(0) translate(4 181)">
<title>data_structures::tree_234::Tree234::InsertPostMerge</title>
<polygon fill="white" stroke="transparent" points="-4,4 -4,-181 1032,-181 1032,4 -4,4"/>
<!-- Node1 -->
<g id="node1" class="node">
<title>Node1</title>
<g id="a_node1"><a xlink:title="A insert implementation of post&#45;merge.">
<polygon fill="#bfbfbf" stroke="black" points="0,-49.5 0,-79.5 157,-79.5 157,-49.5 0,-49.5"/>
<text text-anchor="start" x="8" y="-67.5" font-family="Helvetica,sans-Serif" font-size="10.00">data_structures::tree</text>
<text text-anchor="middle" x="78.5" y="-56.5" font-family="Helvetica,sans-Serif" font-size="10.00">_234::Tree234::InsertPostMerge</text>
</a>
</g>
</g>
<!-- Node2 -->
<g id="node2" class="node">
<title>Node2</title>
<g id="a_node2"><a xlink:href="../../d3/d95/classdata__structures_1_1tree__234_1_1_tree234.html#a6749ebb40710c9752a2771eda03c6b3e" target="_top" xlink:title="Insert item to tree.">
<polygon fill="white" stroke="black" points="193,-49.5 193,-79.5 303,-79.5 303,-49.5 193,-49.5"/>
<text text-anchor="start" x="201" y="-67.5" font-family="Helvetica,sans-Serif" font-size="10.00">data_structures::tree</text>
<text text-anchor="middle" x="248" y="-56.5" font-family="Helvetica,sans-Serif" font-size="10.00">_234::Tree234::Insert</text>
</a>
</g>
</g>
<!-- Node1&#45;&gt;Node2 -->
<g id="edge1" class="edge">
<title>Node1&#45;&gt;Node2</title>
<path fill="none" stroke="midnightblue" d="M157.37,-64.5C165.78,-64.5 174.26,-64.5 182.49,-64.5"/>
<polygon fill="midnightblue" stroke="midnightblue" points="182.75,-68 192.75,-64.5 182.75,-61 182.75,-68"/>
</g>
<!-- Node3 -->
<g id="node3" class="node">
<title>Node3</title>
<g id="a_node3"><a xlink:href="../../d3/d95/classdata__structures_1_1tree__234_1_1_tree234.html#a07811b3c564a3a443b106c9aa717629d" target="_top" xlink:title="A insert implementation of pre&#45;split.">
<polygon fill="white" stroke="black" points="339,-49.5 339,-79.5 483,-79.5 483,-49.5 339,-49.5"/>
<text text-anchor="start" x="347" y="-67.5" font-family="Helvetica,sans-Serif" font-size="10.00">data_structures::tree</text>
<text text-anchor="middle" x="411" y="-56.5" font-family="Helvetica,sans-Serif" font-size="10.00">_234::Tree234::InsertPreSplit</text>
</a>
</g>
</g>
<!-- Node2&#45;&gt;Node3 -->
<g id="edge2" class="edge">
<title>Node2&#45;&gt;Node3</title>
<path fill="none" stroke="midnightblue" d="M303.06,-64.5C311.33,-64.5 320.02,-64.5 328.73,-64.5"/>
<polygon fill="midnightblue" stroke="midnightblue" points="328.93,-68 338.93,-64.5 328.93,-61 328.93,-68"/>
</g>
<!-- Node4 -->
<g id="node4" class="node">
<title>Node4</title>
<g id="a_node4"><a target="_blank" xlink:href="http://en.cppreference.com/w/cpp/memory/unique_ptr/get.html#" target="_top" xlink:title=" ">
<polygon fill="white" stroke="black" points="552,-99 552,-118 653,-118 653,-99 552,-99"/>
<text text-anchor="middle" x="602.5" y="-106" font-family="Helvetica,sans-Serif" font-size="10.00">std::unique_ptr::get</text>
</a>
</g>
</g>
<!-- Node3&#45;&gt;Node4 -->
<g id="edge3" class="edge">
<title>Node3&#45;&gt;Node4</title>
<path fill="none" stroke="midnightblue" d="M476.69,-79.52C500.88,-85.14 527.98,-91.43 550.74,-96.71"/>
<polygon fill="midnightblue" stroke="midnightblue" points="550,-100.14 560.53,-98.99 551.58,-93.32 550,-100.14"/>
</g>
<!-- Node5 -->
<g id="node5" class="node">
<title>Node5</title>
<g id="a_node5"><a xlink:href="../../d3/d95/classdata__structures_1_1tree__234_1_1_tree234.html#ad37e29e2a4a6cc0eb65cbd5595e1da95" target="_top" xlink:title="Merge node to a not&#45;full target node.">
<polygon fill="white" stroke="black" points="519,-49.5 519,-79.5 686,-79.5 686,-49.5 519,-49.5"/>
<text text-anchor="start" x="527" y="-67.5" font-family="Helvetica,sans-Serif" font-size="10.00">data_structures::tree</text>
<text text-anchor="middle" x="602.5" y="-56.5" font-family="Helvetica,sans-Serif" font-size="10.00">_234::Tree234::MergeNodeNotFull</text>
</a>
</g>
</g>
<!-- Node3&#45;&gt;Node5 -->
<g id="edge4" class="edge">
<title>Node3&#45;&gt;Node5</title>
<path fill="none" stroke="midnightblue" d="M483.1,-64.5C491.48,-64.5 500.12,-64.5 508.74,-64.5"/>
<polygon fill="midnightblue" stroke="midnightblue" points="508.84,-68 518.84,-64.5 508.84,-61 508.84,-68"/>
</g>
<!-- Node11 -->
<g id="node11" class="node">
<title>Node11</title>
<g id="a_node11"><a xlink:href="../../d3/d95/classdata__structures_1_1tree__234_1_1_tree234.html#a370b625ca9f16bbef2b65e024ef78ea9" target="_top" xlink:title="Split a 4&#45;node to 1 parent and 2 children, and return the parent node.">
<polygon fill="white" stroke="black" points="538.5,-0.5 538.5,-30.5 666.5,-30.5 666.5,-0.5 538.5,-0.5"/>
<text text-anchor="start" x="546.5" y="-18.5" font-family="Helvetica,sans-Serif" font-size="10.00">data_structures::tree</text>
<text text-anchor="middle" x="602.5" y="-7.5" font-family="Helvetica,sans-Serif" font-size="10.00">_234::Tree234::SplitNode</text>
</a>
</g>
</g>
<!-- Node3&#45;&gt;Node11 -->
<g id="edge11" class="edge">
<title>Node3&#45;&gt;Node11</title>
<path fill="none" stroke="midnightblue" d="M470.14,-49.47C490.24,-44.27 512.94,-38.4 533.74,-33.02"/>
<polygon fill="midnightblue" stroke="midnightblue" points="534.66,-36.4 543.47,-30.51 532.91,-29.62 534.66,-36.4"/>
</g>
<!-- Node6 -->
<g id="node6" class="node">
<title>Node6</title>
<g id="a_node6"><a xlink:href="../../dd/d40/classdata__structures_1_1tree__234_1_1_node.html#a8e809ae85ae00e937f67ddb76951b6bb" target="_top" xlink:title="Insert item to the proper position of the node and return the position index.">
<polygon fill="white" stroke="black" points="722,-95.5 722,-125.5 839,-125.5 839,-95.5 722,-95.5"/>
<text text-anchor="start" x="730" y="-113.5" font-family="Helvetica,sans-Serif" font-size="10.00">data_structures::tree</text>
<text text-anchor="middle" x="780.5" y="-102.5" font-family="Helvetica,sans-Serif" font-size="10.00">_234::Node::InsertItem</text>
</a>
</g>
</g>
<!-- Node5&#45;&gt;Node6 -->
<g id="edge5" class="edge">
<title>Node5&#45;&gt;Node6</title>
<path fill="none" stroke="midnightblue" d="M661.13,-79.56C677.47,-83.83 695.41,-88.52 712.26,-92.93"/>
<polygon fill="midnightblue" stroke="midnightblue" points="711.48,-96.34 722.04,-95.48 713.25,-89.57 711.48,-96.34"/>
</g>
<!-- Node9 -->
<g id="node9" class="node">
<title>Node9</title>
<g id="a_node9"><a xlink:href="../../dd/d40/classdata__structures_1_1tree__234_1_1_node.html#a4a37381c0ef93d5ae2118b2e554974dd" target="_top" xlink:title="Check if node is a full (4&#45;node)">
<polygon fill="white" stroke="black" points="898,-48.5 898,-78.5 1005,-78.5 1005,-48.5 898,-48.5"/>
<text text-anchor="start" x="906" y="-66.5" font-family="Helvetica,sans-Serif" font-size="10.00">data_structures::tree</text>
<text text-anchor="middle" x="951.5" y="-55.5" font-family="Helvetica,sans-Serif" font-size="10.00">_234::Node::IsFull</text>
</a>
</g>
</g>
<!-- Node5&#45;&gt;Node9 -->
<g id="edge9" class="edge">
<title>Node5&#45;&gt;Node9</title>
<path fill="none" stroke="midnightblue" d="M686.17,-64.26C747.98,-64.08 831.2,-63.84 887.63,-63.68"/>
<polygon fill="midnightblue" stroke="midnightblue" points="887.85,-67.18 897.84,-63.65 887.83,-60.18 887.85,-67.18"/>
</g>
<!-- Node10 -->
<g id="node10" class="node">
<title>Node10</title>
<g id="a_node10"><a xlink:href="../../dd/d40/classdata__structures_1_1tree__234_1_1_node.html#ab4e5f7b7b260bb81d9441652cc124c74" target="_top" xlink:title="Set child pointer to the position of index.">
<polygon fill="white" stroke="black" points="725.5,-5.5 725.5,-35.5 835.5,-35.5 835.5,-5.5 725.5,-5.5"/>
<text text-anchor="start" x="733.5" y="-23.5" font-family="Helvetica,sans-Serif" font-size="10.00">data_structures::tree</text>
<text text-anchor="middle" x="780.5" y="-12.5" font-family="Helvetica,sans-Serif" font-size="10.00">_234::Node::SetChild</text>
</a>
</g>
</g>
<!-- Node5&#45;&gt;Node10 -->
<g id="edge10" class="edge">
<title>Node5&#45;&gt;Node10</title>
<path fill="none" stroke="midnightblue" d="M663.58,-49.48C680.31,-45.3 698.54,-40.74 715.49,-36.5"/>
<polygon fill="midnightblue" stroke="midnightblue" points="716.45,-39.87 725.3,-34.05 714.75,-33.08 716.45,-39.87"/>
</g>
<!-- Node7 -->
<g id="node7" class="node">
<title>Node7</title>
<g id="a_node7"><a xlink:href="../../dd/d40/classdata__structures_1_1tree__234_1_1_node.html#a22fd25c6c811c64b6b27b0850d8c532f" target="_top" xlink:title="Check if item is in the node.">
<polygon fill="white" stroke="black" points="895.5,-146.5 895.5,-176.5 1007.5,-176.5 1007.5,-146.5 895.5,-146.5"/>
<text text-anchor="start" x="903.5" y="-164.5" font-family="Helvetica,sans-Serif" font-size="10.00">data_structures::tree</text>
<text text-anchor="middle" x="951.5" y="-153.5" font-family="Helvetica,sans-Serif" font-size="10.00">_234::Node::Contains</text>
</a>
</g>
</g>
<!-- Node6&#45;&gt;Node7 -->
<g id="edge6" class="edge">
<title>Node6&#45;&gt;Node7</title>
<path fill="none" stroke="midnightblue" d="M831.29,-125.53C850.03,-131.18 871.53,-137.67 891.06,-143.56"/>
<polygon fill="midnightblue" stroke="midnightblue" points="890.19,-146.96 900.77,-146.49 892.21,-140.25 890.19,-146.96"/>
</g>
<!-- Node8 -->
<g id="node8" class="node">
<title>Node8</title>
<g id="a_node8"><a xlink:href="../../dd/d40/classdata__structures_1_1tree__234_1_1_node.html#a306a30931f54c84098b38d6bc8f4a956" target="_top" xlink:title="Insert a value to the index position.">
<polygon fill="white" stroke="black" points="875,-97.5 875,-127.5 1028,-127.5 1028,-97.5 875,-97.5"/>
<text text-anchor="start" x="883" y="-115.5" font-family="Helvetica,sans-Serif" font-size="10.00">data_structures::tree</text>
<text text-anchor="middle" x="951.5" y="-104.5" font-family="Helvetica,sans-Serif" font-size="10.00">_234::Node::InsertItemByIndex</text>
</a>
</g>
</g>
<!-- Node6&#45;&gt;Node8 -->
<g id="edge7" class="edge">
<title>Node6&#45;&gt;Node8</title>
<path fill="none" stroke="midnightblue" d="M839.19,-111.18C847.43,-111.28 856.06,-111.38 864.71,-111.48"/>
<polygon fill="midnightblue" stroke="midnightblue" points="864.8,-114.99 874.84,-111.6 864.89,-107.99 864.8,-114.99"/>
</g>
<!-- Node6&#45;&gt;Node9 -->
<g id="edge8" class="edge">
<title>Node6&#45;&gt;Node9</title>
<path fill="none" stroke="midnightblue" d="M835.44,-95.5C852.15,-90.85 870.71,-85.69 887.96,-80.89"/>
<polygon fill="midnightblue" stroke="midnightblue" points="889.24,-84.17 897.94,-78.12 887.37,-77.42 889.24,-84.17"/>
</g>
</g>
</svg>
