<?xml version="1.0" encoding="UTF-8" standalone="no"?>
<!DOCTYPE svg PUBLIC "-//W3C//DTD SVG 1.1//EN"
 "http://www.w3.org/Graphics/SVG/1.1/DTD/svg11.dtd">
<!-- Generated by graphviz version 2.49.3 (20211023.0002)
 -->
<!-- Title: data_structures::tree_234::Tree234::RemovePreMerge Pages: 1 -->
<!--zoomable 480 -->
<svg id="main" version="1.1" xmlns="http://www.w3.org/2000/svg" xmlns:xlink="http://www.w3.org/1999/xlink" xml:space="preserve" onload="init(evt)">
<style type="text/css"><![CDATA[
.edge:hover path { stroke: red; }
.edge:hover polygon { stroke: red; fill: red; }
]]></style>
<script type="text/javascript"><![CDATA[
var edges = document.getElementsByTagName('g');
if (edges && edges.length) {
  for (var i=0;i<edges.length;i++) {
    if (edges[i].id.substr(0,4)=='edge') {
      edges[i].setAttribute('class','edge');
    }
  }
}
]]></script>
        <defs>
                <circle id="rim" cx="0" cy="0" r="7"/>
                <circle id="rim2" cx="0" cy="0" r="3.5"/>
                <g id="zoomPlus">
                        <use xlink:href="#rim" fill="#404040">
                                <set attributeName="fill" to="#808080" begin="zoomplus.mouseover" end="zoomplus.mouseout"/>
                        </use>
                        <path d="M-4,0h8M0,-4v8" fill="none" stroke="white" stroke-width="1.5" pointer-events="none"/>
                </g>
                <g id="zoomMin">
                        <use xlink:href="#rim" fill="#404040">
                                <set attributeName="fill" to="#808080" begin="zoomminus.mouseover" end="zoomminus.mouseout"/>
                        </use>
                        <path d="M-4,0h8" fill="none" stroke="white" stroke-width="1.5" pointer-events="none"/>
                </g>
                <g id="dirArrow">
                        <path fill="none" stroke="white" stroke-width="1.5" d="M0,-3.0v7 M-2.5,-0.5L0,-3.0L2.5,-0.5"/>
                </g>
               <g id="resetDef">
                       <use xlink:href="#rim2" fill="#404040">
                               <set attributeName="fill" to="#808080" begin="reset.mouseover" end="reset.mouseout"/>
                       </use>
               </g>
        </defs>

<script type="text/javascript">
var viewWidth = 567;
var viewHeight = 480;
var sectionId = 'dynsection-11';
</script>
<script xlink:href="../../svgpan.js"/>
<svg id="graph" class="graph">
<g id="viewport">
<title>data_structures::tree_234::Tree234::RemovePreMerge</title>
<polygon fill="white" stroke="transparent" points="-4,4 -4,-476 563,-476 563,4 -4,4"/>
<!-- Node1 -->
<g id="node1" class="node">
<title>Node1</title>
<g id="a_node1"><a xlink:title="Main function implement the pre&#45;merge remove operation.">
<polygon fill="#bfbfbf" stroke="black" points="0,-196.5 0,-226.5 168,-226.5 168,-196.5 0,-196.5"/>
<text text-anchor="start" x="8" y="-214.5" font-family="Helvetica,sans-Serif" font-size="10.00">data_structures::tree</text>
<text text-anchor="middle" x="84" y="-203.5" font-family="Helvetica,sans-Serif" font-size="10.00">_234::Tree234::RemovePreMerge</text>
</a>
</g>
</g>
<!-- Node2 -->
<g id="node2" class="node">
<title>Node2</title>
<g id="a_node2"><a xlink:href="../../d3/d95/classdata__structures_1_1tree__234_1_1_tree234.html#ac85ba5abfd6d34dcd908b2afe6464657" target="_top" xlink:title="Get the max item of the tree.">
<polygon fill="white" stroke="black" points="204,-392.5 204,-422.5 365,-422.5 365,-392.5 204,-392.5"/>
<text text-anchor="start" x="212" y="-410.5" font-family="Helvetica,sans-Serif" font-size="10.00">data_structures::tree</text>
<text text-anchor="middle" x="284.5" y="-399.5" font-family="Helvetica,sans-Serif" font-size="10.00">_234::Tree234::GetTreeMaxItem</text>
</a>
</g>
</g>
<!-- Node1&#45;&gt;Node2 -->
<g id="edge1" class="edge">
<title>Node1&#45;&gt;Node2</title>
<path fill="none" stroke="midnightblue" d="M91.27,-226.7C105.88,-260.22 145.44,-340.86 204,-383.5 205.89,-384.88 207.87,-386.18 209.9,-387.41"/>
<polygon fill="midnightblue" stroke="midnightblue" points="208.7,-390.73 219.17,-392.32 211.98,-384.55 208.7,-390.73"/>
</g>
<!-- Node5 -->
<g id="node5" class="node">
<title>Node5</title>
<g id="a_node5"><a xlink:href="../../d3/d95/classdata__structures_1_1tree__234_1_1_tree234.html#a65a1235659356166a3e9b451c64fcc36" target="_top" xlink:title="Get the min item of the tree.">
<polygon fill="white" stroke="black" points="205,-343.5 205,-373.5 364,-373.5 364,-343.5 205,-343.5"/>
<text text-anchor="start" x="213" y="-361.5" font-family="Helvetica,sans-Serif" font-size="10.00">data_structures::tree</text>
<text text-anchor="middle" x="284.5" y="-350.5" font-family="Helvetica,sans-Serif" font-size="10.00">_234::Tree234::GetTreeMinItem</text>
</a>
</g>
</g>
<!-- Node1&#45;&gt;Node5 -->
<g id="edge4" class="edge">
<title>Node1&#45;&gt;Node5</title>
<path fill="none" stroke="midnightblue" d="M95.63,-226.77C114.49,-252.72 156.31,-305.42 204,-334.5 206.77,-336.19 209.67,-337.77 212.65,-339.24"/>
<polygon fill="midnightblue" stroke="midnightblue" points="211.24,-342.44 221.79,-343.35 214.11,-336.06 211.24,-342.44"/>
</g>
<!-- Node8 -->
<g id="node8" class="node">
<title>Node8</title>
<g id="a_node8"><a xlink:href="../../dd/d40/classdata__structures_1_1tree__234_1_1_node.html#afd9f83e2d5d7f22f79c1348e98914631" target="_top" xlink:title="Check if node is a 2&#45;node.">
<polygon fill="white" stroke="black" points="229,-294.5 229,-324.5 340,-324.5 340,-294.5 229,-294.5"/>
<text text-anchor="start" x="237" y="-312.5" font-family="Helvetica,sans-Serif" font-size="10.00">data_structures::tree</text>
<text text-anchor="middle" x="284.5" y="-301.5" font-family="Helvetica,sans-Serif" font-size="10.00">_234::Node::Is2Node</text>
</a>
</g>
</g>
<!-- Node1&#45;&gt;Node8 -->
<g id="edge7" class="edge">
<title>Node1&#45;&gt;Node8</title>
<path fill="none" stroke="midnightblue" d="M105.56,-226.63C128.56,-243 167.43,-268.96 204,-285.5 208.93,-287.73 214.11,-289.82 219.38,-291.76"/>
<polygon fill="midnightblue" stroke="midnightblue" points="218.32,-295.1 228.91,-295.11 220.64,-288.49 218.32,-295.1"/>
</g>
<!-- Node9 -->
<g id="node9" class="node">
<title>Node9</title>
<g id="a_node9"><a xlink:href="../../dd/d40/classdata__structures_1_1tree__234_1_1_node.html#a6c5f929afcbad5219646990edee22e18" target="_top" xlink:title="Check if node is a 3&#45;node or 4&#45;node, this is useful when we delete item from 2&#45;3&#45;4 tree.">
<polygon fill="white" stroke="black" points="226,-245.5 226,-275.5 343,-275.5 343,-245.5 226,-245.5"/>
<text text-anchor="start" x="234" y="-263.5" font-family="Helvetica,sans-Serif" font-size="10.00">data_structures::tree</text>
<text text-anchor="middle" x="284.5" y="-252.5" font-family="Helvetica,sans-Serif" font-size="10.00">_234::Node::Is34Node</text>
</a>
</g>
</g>
<!-- Node1&#45;&gt;Node9 -->
<g id="edge8" class="edge">
<title>Node1&#45;&gt;Node9</title>
<path fill="none" stroke="midnightblue" d="M145.91,-226.53C168.04,-232 193.19,-238.21 215.87,-243.81"/>
<polygon fill="midnightblue" stroke="midnightblue" points="215.22,-247.25 225.77,-246.25 216.9,-240.45 215.22,-247.25"/>
</g>
<!-- Node10 -->
<g id="node10" class="node">
<title>Node10</title>
<g id="a_node10"><a xlink:href="../../d3/d95/classdata__structures_1_1tree__234_1_1_tree234.html#ae58dca20f08eaf9313f6e7b0869c2d0e" target="_top" xlink:title="Do the actual left rotate operation.">
<polygon fill="white" stroke="black" points="218,-196.5 218,-226.5 351,-226.5 351,-196.5 218,-196.5"/>
<text text-anchor="start" x="226" y="-214.5" font-family="Helvetica,sans-Serif" font-size="10.00">data_structures::tree</text>
<text text-anchor="middle" x="284.5" y="-203.5" font-family="Helvetica,sans-Serif" font-size="10.00">_234::Tree234::LeftRotate</text>
</a>
</g>
</g>
<!-- Node1&#45;&gt;Node10 -->
<g id="edge9" class="edge">
<title>Node1&#45;&gt;Node10</title>
<path fill="none" stroke="midnightblue" d="M168.03,-211.5C181.11,-211.5 194.57,-211.5 207.48,-211.5"/>
<polygon fill="midnightblue" stroke="midnightblue" points="207.7,-215 217.7,-211.5 207.7,-208 207.7,-215"/>
</g>
<!-- Node11 -->
<g id="node11" class="node">
<title>Node11</title>
<g id="a_node11"><a xlink:href="../../d3/d95/classdata__structures_1_1tree__234_1_1_tree234.html#a36f4d5f603f7edb7db7c73fb53ba14e9" target="_top" xlink:title="Merge the item at index of the parent node, and its left and right child.">
<polygon fill="white" stroke="black" points="227,-147.5 227,-177.5 342,-177.5 342,-147.5 227,-147.5"/>
<text text-anchor="start" x="235" y="-165.5" font-family="Helvetica,sans-Serif" font-size="10.00">data_structures::tree</text>
<text text-anchor="middle" x="284.5" y="-154.5" font-family="Helvetica,sans-Serif" font-size="10.00">_234::Tree234::Merge</text>
</a>
</g>
</g>
<!-- Node1&#45;&gt;Node11 -->
<g id="edge10" class="edge">
<title>Node1&#45;&gt;Node11</title>
<path fill="none" stroke="midnightblue" d="M145.91,-196.47C168.34,-190.93 193.87,-184.63 216.79,-178.97"/>
<polygon fill="midnightblue" stroke="midnightblue" points="217.9,-182.3 226.77,-176.5 216.23,-175.5 217.9,-182.3"/>
</g>
<!-- Node12 -->
<g id="node12" class="node">
<title>Node12</title>
<g id="a_node12"><a xlink:href="../../d3/d95/classdata__structures_1_1tree__234_1_1_tree234.html#ae68f8e62be02657c1287def6b38d7cc9" target="_top" xlink:title="Do the actual right rotate operation.">
<polygon fill="white" stroke="black" points="214.5,-98.5 214.5,-128.5 354.5,-128.5 354.5,-98.5 214.5,-98.5"/>
<text text-anchor="start" x="222.5" y="-116.5" font-family="Helvetica,sans-Serif" font-size="10.00">data_structures::tree</text>
<text text-anchor="middle" x="284.5" y="-105.5" font-family="Helvetica,sans-Serif" font-size="10.00">_234::Tree234::RightRotate</text>
</a>
</g>
</g>
<!-- Node1&#45;&gt;Node12 -->
<g id="edge11" class="edge">
<title>Node1&#45;&gt;Node12</title>
<path fill="none" stroke="midnightblue" d="M106.05,-196.38C129.16,-180.3 167.83,-154.98 204,-138.5 209.02,-136.21 214.31,-134.05 219.67,-132.03"/>
<polygon fill="midnightblue" stroke="midnightblue" points="221.14,-135.22 229.37,-128.55 218.78,-128.64 221.14,-135.22"/>
</g>
<!-- Node13 -->
<g id="node13" class="node">
<title>Node13</title>
<g id="a_node13"><a xlink:href="../../d3/d95/classdata__structures_1_1tree__234_1_1_tree234.html#ac5361479dd996eb331759f33808657d9" target="_top" xlink:title="A handy function to try if we can do a left rotate to the target node.">
<polygon fill="white" stroke="black" points="211,-49.5 211,-79.5 358,-79.5 358,-49.5 211,-49.5"/>
<text text-anchor="start" x="219" y="-67.5" font-family="Helvetica,sans-Serif" font-size="10.00">data_structures::tree</text>
<text text-anchor="middle" x="284.5" y="-56.5" font-family="Helvetica,sans-Serif" font-size="10.00">_234::Tree234::TryLeftRotate</text>
</a>
</g>
</g>
<!-- Node1&#45;&gt;Node13 -->
<g id="edge12" class="edge">
<title>Node1&#45;&gt;Node13</title>
<path fill="none" stroke="midnightblue" d="M95.7,-196.42C114.65,-170.77 156.61,-118.63 204,-89.5 207.37,-87.43 210.93,-85.51 214.59,-83.75"/>
<polygon fill="midnightblue" stroke="midnightblue" points="216.15,-86.89 223.88,-79.65 213.32,-80.48 216.15,-86.89"/>
</g>
<!-- Node14 -->
<g id="node14" class="node">
<title>Node14</title>
<g id="a_node14"><a xlink:href="../../d3/d95/classdata__structures_1_1tree__234_1_1_tree234.html#aec0642d1d151521ca7c70ea85cdb15d3" target="_top" xlink:title="A handy function to try if we can do a right rotate to the target node.">
<polygon fill="white" stroke="black" points="207.5,-0.5 207.5,-30.5 361.5,-30.5 361.5,-0.5 207.5,-0.5"/>
<text text-anchor="start" x="215.5" y="-18.5" font-family="Helvetica,sans-Serif" font-size="10.00">data_structures::tree</text>
<text text-anchor="middle" x="284.5" y="-7.5" font-family="Helvetica,sans-Serif" font-size="10.00">_234::Tree234::TryRightRotate</text>
</a>
</g>
</g>
<!-- Node1&#45;&gt;Node14 -->
<g id="edge13" class="edge">
<title>Node1&#45;&gt;Node14</title>
<path fill="none" stroke="midnightblue" d="M91.27,-196.3C105.88,-162.78 145.44,-82.14 204,-39.5 205.89,-38.12 207.87,-36.82 209.9,-35.59"/>
<polygon fill="midnightblue" stroke="midnightblue" points="211.98,-38.45 219.17,-30.68 208.7,-32.27 211.98,-38.45"/>
</g>
<!-- Node3 -->
<g id="node3" class="node">
<title>Node3</title>
<g id="a_node3"><a xlink:href="../../dd/d40/classdata__structures_1_1tree__234_1_1_node.html#a2753b6053b8c86c5bd987a44fdfa0a57" target="_top" xlink:title="Get max item (rightmost) in the current node.">
<polygon fill="white" stroke="black" points="416,-441.5 416,-471.5 544,-471.5 544,-441.5 416,-441.5"/>
<text text-anchor="start" x="424" y="-459.5" font-family="Helvetica,sans-Serif" font-size="10.00">data_structures::tree</text>
<text text-anchor="middle" x="480" y="-448.5" font-family="Helvetica,sans-Serif" font-size="10.00">_234::Node::GetMaxItem</text>
</a>
</g>
</g>
<!-- Node2&#45;&gt;Node3 -->
<g id="edge2" class="edge">
<title>Node2&#45;&gt;Node3</title>
<path fill="none" stroke="midnightblue" d="M344.87,-422.53C365.4,-427.73 388.57,-433.6 409.81,-438.98"/>
<polygon fill="midnightblue" stroke="midnightblue" points="409.19,-442.43 419.74,-441.49 410.91,-435.65 409.19,-442.43"/>
</g>
<!-- Node4 -->
<g id="node4" class="node">
<title>Node4</title>
<g id="a_node4"><a xlink:href="../../dd/d40/classdata__structures_1_1tree__234_1_1_node.html#a731f9ae385840cf0a06d55e7f9924a94" target="_top" xlink:title="Get rightmose child of the current node.">
<polygon fill="white" stroke="black" points="401,-392.5 401,-422.5 559,-422.5 559,-392.5 401,-392.5"/>
<text text-anchor="start" x="409" y="-410.5" font-family="Helvetica,sans-Serif" font-size="10.00">data_structures::tree</text>
<text text-anchor="middle" x="480" y="-399.5" font-family="Helvetica,sans-Serif" font-size="10.00">_234::Node::GetRightmostChild</text>
</a>
</g>
</g>
<!-- Node2&#45;&gt;Node4 -->
<g id="edge3" class="edge">
<title>Node2&#45;&gt;Node4</title>
<path fill="none" stroke="midnightblue" d="M365.04,-407.5C373.42,-407.5 381.97,-407.5 390.43,-407.5"/>
<polygon fill="midnightblue" stroke="midnightblue" points="390.7,-411 400.7,-407.5 390.7,-404 390.7,-411"/>
</g>
<!-- Node6 -->
<g id="node6" class="node">
<title>Node6</title>
<g id="a_node6"><a xlink:href="../../dd/d40/classdata__structures_1_1tree__234_1_1_node.html#ac6f619a1605cb46196360889fff4529e" target="_top" xlink:title="Get leftmose child of the current node.">
<polygon fill="white" stroke="black" points="404.5,-343.5 404.5,-373.5 555.5,-373.5 555.5,-343.5 404.5,-343.5"/>
<text text-anchor="start" x="412.5" y="-361.5" font-family="Helvetica,sans-Serif" font-size="10.00">data_structures::tree</text>
<text text-anchor="middle" x="480" y="-350.5" font-family="Helvetica,sans-Serif" font-size="10.00">_234::Node::GetLeftmostChild</text>
</a>
</g>
</g>
<!-- Node5&#45;&gt;Node6 -->
<g id="edge5" class="edge">
<title>Node5&#45;&gt;Node6</title>
<path fill="none" stroke="midnightblue" d="M364.2,-358.5C374.07,-358.5 384.19,-358.5 394.14,-358.5"/>
<polygon fill="midnightblue" stroke="midnightblue" points="394.43,-362 404.43,-358.5 394.43,-355 394.43,-362"/>
</g>
<!-- Node7 -->
<g id="node7" class="node">
<title>Node7</title>
<g id="a_node7"><a xlink:href="../../dd/d40/classdata__structures_1_1tree__234_1_1_node.html#a5438d0a47850f520b2262b5a42f75b71" target="_top" xlink:title="get min item (leftmost) in the current node">
<polygon fill="white" stroke="black" points="417.5,-294.5 417.5,-324.5 542.5,-324.5 542.5,-294.5 417.5,-294.5"/>
<text text-anchor="start" x="425.5" y="-312.5" font-family="Helvetica,sans-Serif" font-size="10.00">data_structures::tree</text>
<text text-anchor="middle" x="480" y="-301.5" font-family="Helvetica,sans-Serif" font-size="10.00">_234::Node::GetMinItem</text>
</a>
</g>
</g>
<!-- Node5&#45;&gt;Node7 -->
<g id="edge6" class="edge">
<title>Node5&#45;&gt;Node7</title>
<path fill="none" stroke="midnightblue" d="M344.87,-343.47C365.4,-338.27 388.57,-332.4 409.81,-327.02"/>
<polygon fill="midnightblue" stroke="midnightblue" points="410.91,-330.35 419.74,-324.51 409.19,-323.57 410.91,-330.35"/>
</g>
</g>
</svg>
        <g id="navigator" transform="translate(0 0)" fill="#404254">
                <rect fill="#f2f5e9" fill-opacity="0.5" stroke="#606060" stroke-width=".5" x="0" y="0" width="60" height="60"/>
                <use id="zoomplus" xlink:href="#zoomPlus" x="17" y="9" onmousedown="handleZoom(evt,'in')"/>
                <use id="zoomminus" xlink:href="#zoomMin" x="42" y="9" onmousedown="handleZoom(evt,'out')"/>
                <use id="reset" xlink:href="#resetDef" x="30" y="36" onmousedown="handleReset()"/>
                <g id="arrowUp" xlink:href="#dirArrow" transform="translate(30 24)" onmousedown="handlePan(0,-1)">
                  <use xlink:href="#rim" fill="#404040">
                        <set attributeName="fill" to="#808080" begin="arrowUp.mouseover" end="arrowUp.mouseout"/>
                  </use>
                  <path fill="none" stroke="white" stroke-width="1.5" d="M0,-3.0v7 M-2.5,-0.5L0,-3.0L2.5,-0.5"/>
                </g>
                <g id="arrowRight" xlink:href="#dirArrow" transform="rotate(90) translate(36 -43)" onmousedown="handlePan(1,0)">
                  <use xlink:href="#rim" fill="#404040">
                        <set attributeName="fill" to="#808080" begin="arrowRight.mouseover" end="arrowRight.mouseout"/>
                  </use>
                  <path fill="none" stroke="white" stroke-width="1.5" d="M0,-3.0v7 M-2.5,-0.5L0,-3.0L2.5,-0.5"/>
                </g>
                <g id="arrowDown" xlink:href="#dirArrow" transform="rotate(180) translate(-30 -48)" onmousedown="handlePan(0,1)">
                  <use xlink:href="#rim" fill="#404040">
                        <set attributeName="fill" to="#808080" begin="arrowDown.mouseover" end="arrowDown.mouseout"/>
                  </use>
                  <path fill="none" stroke="white" stroke-width="1.5" d="M0,-3.0v7 M-2.5,-0.5L0,-3.0L2.5,-0.5"/>
                </g>
                <g id="arrowLeft" xlink:href="#dirArrow" transform="rotate(270) translate(-36 17)" onmousedown="handlePan(-1,0)">
                  <use xlink:href="#rim" fill="#404040">
                        <set attributeName="fill" to="#808080" begin="arrowLeft.mouseover" end="arrowLeft.mouseout"/>
                  </use>
                  <path fill="none" stroke="white" stroke-width="1.5" d="M0,-3.0v7 M-2.5,-0.5L0,-3.0L2.5,-0.5"/>
                </g>
        </g>
        <svg viewBox="0 0 15 15" width="100%" height="30px" preserveAspectRatio="xMaxYMin meet">
         <g id="arrow_out" transform="scale(0.3 0.3)">
          <a xlink:href="classdata__structures_1_1tree__234_1_1_tree234_a61dd051a74e5f36c8dc03dae8dca6ef4_cgraph_org.svg" target="_base">
           <rect id="button" ry="5" rx="5" y="6" x="6" height="38" width="38"
                fill="#f2f5e9" fill-opacity="0.5" stroke="#606060" stroke-width="1.0"/>
           <path id="arrow"
             d="M 11.500037,31.436501 C 11.940474,20.09759 22.043105,11.32322 32.158766,21.979434 L 37.068811,17.246167 C 37.068811,17.246167 37.088388,32 37.088388,32 L 22.160133,31.978069 C 22.160133,31.978069 26.997745,27.140456 26.997745,27.140456 C 18.528582,18.264221 13.291696,25.230495 11.500037,31.436501 z"
             style="fill:#404040;"/>
          </a>
         </g>
        </svg>
</svg>
