<?xml version="1.0" encoding="UTF-8" standalone="no"?>
<!DOCTYPE svg PUBLIC "-//W3C//DTD SVG 1.1//EN"
 "http://www.w3.org/Graphics/SVG/1.1/DTD/svg11.dtd">
<!-- Generated by graphviz version 8.0.5 (20230430.1635)
 -->
<!-- Title: data_structures::tree_234::Tree234::TryRightRotate Pages: 1 -->
<svg width="332pt" height="88pt"
 viewBox="0.00 0.00 331.75 87.50" xmlns="http://www.w3.org/2000/svg" xmlns:xlink="http://www.w3.org/1999/xlink">
<g id="graph0" class="graph" transform="scale(1 1) rotate(0) translate(4 83.5)">
<title>data_structures::tree_234::Tree234::TryRightRotate</title>
<!-- Node1 -->
<g id="node1" class="node">
<title>Node1</title>
<g id="a_node1"><a xlink:title="A handy function to try if we can do a right rotate to the target node.">
<polygon fill="#999999" stroke="#666666" points="151,-54.5 0,-54.5 0,-24 151,-24 151,-54.5"/>
<text text-anchor="start" x="8" y="-41" font-family="Helvetica,sans-Serif" font-size="10.00">data_structures::tree</text>
<text text-anchor="middle" x="75.5" y="-29.75" font-family="Helvetica,sans-Serif" font-size="10.00">_234::Tree234::TryRightRotate</text>
</a>
</g>
</g>
<!-- Node2 -->
<g id="node2" class="node">
<title>Node2</title>
<g id="a_node2"><a xlink:href="../../dd/d40/classdata__structures_1_1tree__234_1_1_node.html#afd9f83e2d5d7f22f79c1348e98914631" target="_top" xlink:title="Check if node is a 2&#45;node.">
<polygon fill="white" stroke="#666666" points="309.88,-79.5 200.88,-79.5 200.88,-49 309.88,-49 309.88,-79.5"/>
<text text-anchor="start" x="208.88" y="-66" font-family="Helvetica,sans-Serif" font-size="10.00">data_structures::tree</text>
<text text-anchor="middle" x="255.38" y="-54.75" font-family="Helvetica,sans-Serif" font-size="10.00">_234::Node::Is2Node</text>
</a>
</g>
</g>
<!-- Node1&#45;&gt;Node2 -->
<g id="edge1" class="edge">
<title>Node1&#45;&gt;Node2</title>
<path fill="none" stroke="#63b8ff" d="M151.42,-49.78C164.2,-51.58 177.37,-53.43 189.85,-55.18"/>
<polygon fill="#63b8ff" stroke="#63b8ff" points="189.22,-58.77 199.61,-56.69 190.19,-51.84 189.22,-58.77"/>
</g>
<!-- Node3 -->
<g id="node3" class="node">
<title>Node3</title>
<g id="a_node3"><a xlink:href="../../d3/d95/classdata__structures_1_1tree__234_1_1_tree234.html#ae68f8e62be02657c1287def6b38d7cc9" target="_top" xlink:title="Do the actual right rotate operation.">
<polygon fill="white" stroke="#666666" points="323.75,-30.5 187,-30.5 187,0 323.75,0 323.75,-30.5"/>
<text text-anchor="start" x="195" y="-17" font-family="Helvetica,sans-Serif" font-size="10.00">data_structures::tree</text>
<text text-anchor="middle" x="255.38" y="-5.75" font-family="Helvetica,sans-Serif" font-size="10.00">_234::Tree234::RightRotate</text>
</a>
</g>
</g>
<!-- Node1&#45;&gt;Node3 -->
<g id="edge2" class="edge">
<title>Node1&#45;&gt;Node3</title>
<path fill="none" stroke="#63b8ff" d="M151.42,-29.14C159.54,-28.05 167.82,-26.93 175.98,-25.83"/>
<polygon fill="#63b8ff" stroke="#63b8ff" points="176.17,-29.2 185.61,-24.39 175.24,-22.26 176.17,-29.2"/>
</g>
</g>
</svg>
