<?xml version="1.0" encoding="UTF-8" standalone="no"?>
<!DOCTYPE svg PUBLIC "-//W3C//DTD SVG 1.1//EN"
 "http://www.w3.org/Graphics/SVG/1.1/DTD/svg11.dtd">
<!-- Generated by graphviz version 8.0.5 (20230430.1635)
 -->
<!-- Title: data_structures::tree_234::Tree234::Traverse Pages: 1 -->
<svg width="220pt" height="57pt"
 viewBox="0.00 0.00 220.00 56.50" xmlns="http://www.w3.org/2000/svg" xmlns:xlink="http://www.w3.org/1999/xlink">
<g id="graph0" class="graph" transform="scale(1 1) rotate(0) translate(4 52.5)">
<title>data_structures::tree_234::Tree234::Traverse</title>
<!-- Node1 -->
<g id="node1" class="node">
<title>Node1</title>
<g id="a_node1"><a xlink:title="In&#45;order traverse.">
<polygon fill="#999999" stroke="#666666" points="122.5,-30.5 0,-30.5 0,0 122.5,0 122.5,-30.5"/>
<text text-anchor="start" x="8" y="-17" font-family="Helvetica,sans-Serif" font-size="10.00">data_structures::tree</text>
<text text-anchor="middle" x="61.25" y="-5.75" font-family="Helvetica,sans-Serif" font-size="10.00">_234::Tree234::Traverse</text>
</a>
</g>
</g>
<!-- Node1&#45;&gt;Node1 -->
<g id="edge2" class="edge">
<title>Node1&#45;&gt;Node1</title>
<path fill="none" stroke="#63b8ff" d="M39.28,-30.99C34.79,-40.06 42.12,-48.5 61.25,-48.5 72.01,-48.5 79.04,-45.83 82.33,-41.88"/>
<polygon fill="#63b8ff" stroke="#63b8ff" points="85.89,-42.24 83.22,-31.99 78.92,-41.67 85.89,-42.24"/>
</g>
<!-- Node2 -->
<g id="node2" class="node">
<title>Node2</title>
<g id="a_node2"><a target="_blank" xlink:href="http://en.cppreference.com/w/cpp/io/manip/endl.html#" xlink:title=" ">
<polygon fill="white" stroke="#666666" points="212,-24.88 158.5,-24.88 158.5,-5.63 212,-5.63 212,-24.88"/>
<text text-anchor="middle" x="185.25" y="-11.38" font-family="Helvetica,sans-Serif" font-size="10.00">std::endl</text>
</a>
</g>
</g>
<!-- Node1&#45;&gt;Node2 -->
<g id="edge1" class="edge">
<title>Node1&#45;&gt;Node2</title>
<path fill="none" stroke="#63b8ff" d="M122.89,-15.25C131.25,-15.25 139.62,-15.25 147.36,-15.25"/>
<polygon fill="#63b8ff" stroke="#63b8ff" points="147.2,-18.75 157.2,-15.25 147.2,-11.75 147.2,-18.75"/>
</g>
</g>
</svg>
