<?xml version="1.0" encoding="UTF-8" standalone="no"?>
<!DOCTYPE svg PUBLIC "-//W3C//DTD SVG 1.1//EN"
 "http://www.w3.org/Graphics/SVG/1.1/DTD/svg11.dtd">
<!-- Generated by graphviz version 6.0.1 (20220911.1526)
 -->
<!-- Title: data_structures::stack_using_queue::Stack::push Pages: 1 -->
<svg width="274pt" height="138pt"
 viewBox="0.00 0.00 274.00 138.00" xmlns="http://www.w3.org/2000/svg" xmlns:xlink="http://www.w3.org/1999/xlink">
<g id="graph0" class="graph" transform="scale(1 1) rotate(0) translate(4 134)">
<title>data_structures::stack_using_queue::Stack::push</title>
<!-- Node1 -->
<g id="node1" class="node">
<title>Node1</title>
<g id="a_node1"><a xlink:title="Inserts an element to the top of the stack.">
<polygon fill="#999999" stroke="#666666" points="135,-79.5 0,-79.5 0,-49.5 135,-49.5 135,-79.5"/>
<text text-anchor="start" x="8" y="-67.5" font-family="Helvetica,sans-Serif" font-size="10.00">data_structures::stack</text>
<text text-anchor="middle" x="67.5" y="-56.5" font-family="Helvetica,sans-Serif" font-size="10.00">_using_queue::Stack::push</text>
</a>
</g>
</g>
<!-- Node2 -->
<g id="node2" class="node">
<title>Node2</title>
<g id="a_node2"><a target="_blank" xlink:href="http://en.cppreference.com/w/cpp/container/queue/empty.html#" xlink:title=" ">
<polygon fill="white" stroke="#666666" points="266,-130 171,-130 171,-111 266,-111 266,-130"/>
<text text-anchor="middle" x="218.5" y="-118" font-family="Helvetica,sans-Serif" font-size="10.00">std::queue::empty</text>
</a>
</g>
</g>
<!-- Node1&#45;&gt;Node2 -->
<g id="edge1" class="edge">
<title>Node1&#45;&gt;Node2</title>
<path fill="none" stroke="#63b8ff" d="M108.43,-79.51C131.56,-88.2 160.4,-99.04 182.61,-107.39"/>
<polygon fill="#63b8ff" stroke="#63b8ff" points="181.41,-110.67 192,-110.92 183.87,-104.12 181.41,-110.67"/>
</g>
<!-- Node3 -->
<g id="node3" class="node">
<title>Node3</title>
<g id="a_node3"><a target="_blank" xlink:href="http://en.cppreference.com/w/cpp/container/queue/front.html#" xlink:title=" ">
<polygon fill="white" stroke="#666666" points="262.5,-93 174.5,-93 174.5,-74 262.5,-74 262.5,-93"/>
<text text-anchor="middle" x="218.5" y="-81" font-family="Helvetica,sans-Serif" font-size="10.00">std::queue::front</text>
</a>
</g>
</g>
<!-- Node1&#45;&gt;Node3 -->
<g id="edge2" class="edge">
<title>Node1&#45;&gt;Node3</title>
<path fill="none" stroke="#63b8ff" d="M135.16,-73C144.94,-74.25 154.91,-75.52 164.38,-76.73"/>
<polygon fill="#63b8ff" stroke="#63b8ff" points="164.06,-80.21 174.42,-78.01 164.94,-73.27 164.06,-80.21"/>
</g>
<!-- Node4 -->
<g id="node4" class="node">
<title>Node4</title>
<g id="a_node4"><a target="_blank" xlink:href="http://en.cppreference.com/w/cpp/container/queue/pop.html#" xlink:title=" ">
<polygon fill="white" stroke="#666666" points="260.5,-56 176.5,-56 176.5,-37 260.5,-37 260.5,-56"/>
<text text-anchor="middle" x="218.5" y="-44" font-family="Helvetica,sans-Serif" font-size="10.00">std::queue::pop</text>
</a>
</g>
</g>
<!-- Node1&#45;&gt;Node4 -->
<g id="edge3" class="edge">
<title>Node1&#45;&gt;Node4</title>
<path fill="none" stroke="#63b8ff" d="M135.16,-56.45C145.51,-55.2 156.06,-53.92 166.01,-52.72"/>
<polygon fill="#63b8ff" stroke="#63b8ff" points="166.62,-56.17 176.13,-51.5 165.78,-49.22 166.62,-56.17"/>
</g>
<!-- Node5 -->
<g id="node5" class="node">
<title>Node5</title>
<g id="a_node5"><a target="_blank" xlink:href="http://en.cppreference.com/w/cpp/container/queue/push.html#" xlink:title=" ">
<polygon fill="white" stroke="#666666" points="263,-19 174,-19 174,0 263,0 263,-19"/>
<text text-anchor="middle" x="218.5" y="-7" font-family="Helvetica,sans-Serif" font-size="10.00">std::queue::push</text>
</a>
</g>
</g>
<!-- Node1&#45;&gt;Node5 -->
<g id="edge4" class="edge">
<title>Node1&#45;&gt;Node5</title>
<path fill="none" stroke="#63b8ff" d="M109.21,-49.47C131.93,-41.09 159.96,-30.74 181.81,-22.67"/>
<polygon fill="#63b8ff" stroke="#63b8ff" points="183.21,-25.89 191.38,-19.14 180.78,-19.32 183.21,-25.89"/>
</g>
</g>
</svg>
