<?xml version="1.0" encoding="UTF-8" standalone="no"?>
<!DOCTYPE svg PUBLIC "-//W3C//DTD SVG 1.1//EN"
 "http://www.w3.org/Graphics/SVG/1.1/DTD/svg11.dtd">
<!-- Generated by graphviz version 7.1.0 (20230121.1956)
 -->
<!-- Title: main Pages: 1 -->
<!--zoomable 214 -->
<svg id="main" version="1.1" xmlns="http://www.w3.org/2000/svg" xmlns:xlink="http://www.w3.org/1999/xlink" xml:space="preserve" onload="init(evt)">
<style type="text/css"><![CDATA[
.edge:hover path { stroke: red; }
.edge:hover polygon { stroke: red; fill: red; }
]]></style>
<script type="text/javascript"><![CDATA[
var edges = document.getElementsByTagName('g');
if (edges && edges.length) {
  for (var i=0;i<edges.length;i++) {
    if (edges[i].id.substr(0,4)=='edge') {
      edges[i].setAttribute('class','edge');
    }
  }
}
]]></script>
        <defs>
                <circle id="rim" cx="0" cy="0" r="7"/>
                <circle id="rim2" cx="0" cy="0" r="3.5"/>
                <g id="zoomPlus">
                        <use xlink:href="#rim" fill="#404040">
                                <set attributeName="fill" to="#808080" begin="zoomplus.mouseover" end="zoomplus.mouseout"/>
                        </use>
                        <path d="M-4,0h8M0,-4v8" fill="none" stroke="white" stroke-width="1.5" pointer-events="none"/>
                </g>
                <g id="zoomMin">
                        <use xlink:href="#rim" fill="#404040">
                                <set attributeName="fill" to="#808080" begin="zoomminus.mouseover" end="zoomminus.mouseout"/>
                        </use>
                        <path d="M-4,0h8" fill="none" stroke="white" stroke-width="1.5" pointer-events="none"/>
                </g>
                <g id="dirArrow">
                        <path fill="none" stroke="white" stroke-width="1.5" d="M0,-3.0v7 M-2.5,-0.5L0,-3.0L2.5,-0.5"/>
                </g>
               <g id="resetDef">
                       <use xlink:href="#rim2" fill="#404040">
                               <set attributeName="fill" to="#808080" begin="reset.mouseover" end="reset.mouseout"/>
                       </use>
               </g>
        </defs>

<script type="text/javascript">
var viewWidth = 790;
var viewHeight = 214;
var sectionId = 'dynsection-2';
</script>
<script xlink:href="../../svgpan.js"/>
<svg id="graph" class="graph">
<g id="viewport">
<title>main</title>
<!-- Node1 -->
<g id="node1" class="node">
<title>Node1</title>
<g id="a_node1"><a xlink:title=" ">
<polygon fill="#999999" stroke="#666666" points="38,-111 0,-111 0,-92 38,-92 38,-111"/>
<text text-anchor="middle" x="19" y="-99" font-family="Helvetica,sans-Serif" font-size="10.00">main</text>
</a>
</g>
</g>
<!-- Node2 -->
<g id="node2" class="node">
<title>Node2</title>
<g id="a_node2"><a xlink:href="../../de/d75/qr__eigen__values_8cpp.html#a9bbf469d5525a816b0d6ca812119093d" target="_top" xlink:title=" ">
<polygon fill="white" stroke="#666666" points="150,-206 74,-206 74,-187 150,-187 150,-206"/>
<text text-anchor="middle" x="112" y="-194" font-family="Helvetica,sans-Serif" font-size="10.00">create_matrix</text>
</a>
</g>
</g>
<!-- Node1&#45;&gt;Node2 -->
<g id="edge1" class="edge">
<title>Node1&#45;&gt;Node2</title>
<path fill="none" stroke="#63b8ff" d="M25.75,-111.06C34.76,-125.53 53.34,-153.33 74,-172.5 76.95,-175.24 80.25,-177.87 83.63,-180.31"/>
<polygon fill="#63b8ff" stroke="#63b8ff" points="81.64,-183.18 91.9,-185.82 85.52,-177.36 81.64,-183.18"/>
</g>
<!-- Node4 -->
<g id="node4" class="node">
<title>Node4</title>
<g id="a_node4"><a xlink:href="../../d2/d3b/namespaceqr__algorithm.html#a28e2fa3e803abaea6c568dc45d69d8cc" target="_top" xlink:title=" ">
<polygon fill="white" stroke="#666666" points="285,-141.5 186,-141.5 186,-111.5 285,-111.5 285,-141.5"/>
<text text-anchor="start" x="194" y="-129.5" font-family="Helvetica,sans-Serif" font-size="10.00">qr_algorithm::eigen</text>
<text text-anchor="middle" x="235.5" y="-118.5" font-family="Helvetica,sans-Serif" font-size="10.00">_values</text>
</a>
</g>
</g>
<!-- Node1&#45;&gt;Node4 -->
<g id="edge3" class="edge">
<title>Node1&#45;&gt;Node4</title>
<path fill="none" stroke="#63b8ff" d="M30.14,-111.28C40.3,-120.34 56.85,-133.19 74,-138.5 106.33,-148.51 144,-146.36 174.71,-141.32"/>
<polygon fill="#63b8ff" stroke="#63b8ff" points="174.98,-144.83 184.2,-139.62 173.74,-137.94 174.98,-144.83"/>
</g>
<!-- Node11 -->
<g id="node11" class="node">
<title>Node11</title>
<g id="a_node11"><a target="_blank" xlink:href="http://en.cppreference.com/w/cpp/numeric/random/srand.html#" xlink:title=" ">
<polygon fill="white" stroke="#666666" points="142,-56 82,-56 82,-37 142,-37 142,-56"/>
<text text-anchor="middle" x="112" y="-44" font-family="Helvetica,sans-Serif" font-size="10.00">std::srand</text>
</a>
</g>
</g>
<!-- Node1&#45;&gt;Node11 -->
<g id="edge12" class="edge">
<title>Node1&#45;&gt;Node11</title>
<path fill="none" stroke="#63b8ff" d="M32.96,-91.82C43.68,-84 59.46,-72.96 74,-64.5 75.66,-63.54 77.37,-62.58 79.11,-61.63"/>
<polygon fill="#63b8ff" stroke="#63b8ff" points="80.56,-64.82 87.85,-57.14 77.36,-58.6 80.56,-64.82"/>
</g>
<!-- Node12 -->
<g id="node12" class="node">
<title>Node12</title>
<g id="a_node12"><a xlink:href="../../de/d75/qr__eigen__values_8cpp.html#a1440a7779ac56f47a3f355ce4a8c7da0" target="_top" xlink:title=" ">
<polygon fill="white" stroke="#666666" points="131,-130 93,-130 93,-111 131,-111 131,-130"/>
<text text-anchor="middle" x="112" y="-118" font-family="Helvetica,sans-Serif" font-size="10.00">test1</text>
</a>
</g>
</g>
<!-- Node1&#45;&gt;Node12 -->
<g id="edge13" class="edge">
<title>Node1&#45;&gt;Node12</title>
<path fill="none" stroke="#63b8ff" d="M38.42,-105.34C50.75,-107.92 67.26,-111.37 81.42,-114.32"/>
<polygon fill="#63b8ff" stroke="#63b8ff" points="80.63,-117.73 91.13,-116.35 82.06,-110.88 80.63,-117.73"/>
</g>
<!-- Node14 -->
<g id="node14" class="node">
<title>Node14</title>
<g id="a_node14"><a xlink:href="../../de/d75/qr__eigen__values_8cpp.html#a0283886819c7c140a023582b7269e2d0" target="_top" xlink:title=" ">
<polygon fill="white" stroke="#666666" points="131,-93 93,-93 93,-74 131,-74 131,-93"/>
<text text-anchor="middle" x="112" y="-81" font-family="Helvetica,sans-Serif" font-size="10.00">test2</text>
</a>
</g>
</g>
<!-- Node1&#45;&gt;Node14 -->
<g id="edge16" class="edge">
<title>Node1&#45;&gt;Node14</title>
<path fill="none" stroke="#63b8ff" d="M38.42,-97.86C50.75,-95.42 67.26,-92.15 81.42,-89.35"/>
<polygon fill="#63b8ff" stroke="#63b8ff" points="82,-92.8 91.13,-87.43 80.64,-85.94 82,-92.8"/>
</g>
<!-- Node15 -->
<g id="node15" class="node">
<title>Node15</title>
<g id="a_node15"><a target="_blank" xlink:href="http://en.cppreference.com/w/cpp/chrono/c/time.html#" xlink:title=" ">
<polygon fill="white" stroke="#666666" points="139.5,-19 84.5,-19 84.5,0 139.5,0 139.5,-19"/>
<text text-anchor="middle" x="112" y="-7" font-family="Helvetica,sans-Serif" font-size="10.00">std::time</text>
</a>
</g>
</g>
<!-- Node1&#45;&gt;Node15 -->
<g id="edge19" class="edge">
<title>Node1&#45;&gt;Node15</title>
<path fill="none" stroke="#63b8ff" d="M25.09,-91.69C33.48,-76.29 51.55,-46.28 74,-27.5 74.93,-26.72 75.9,-25.97 76.9,-25.24"/>
<polygon fill="#63b8ff" stroke="#63b8ff" points="78.52,-28.35 85.19,-20.12 74.84,-22.4 78.52,-28.35"/>
</g>
<!-- Node3 -->
<g id="node3" class="node">
<title>Node3</title>
<g id="a_node3"><a target="_blank" xlink:href="http://en.cppreference.com/w/cpp/numeric/random/rand.html#" xlink:title=" ">
<polygon fill="white" stroke="#666666" points="263,-206 208,-206 208,-187 263,-187 263,-206"/>
<text text-anchor="middle" x="235.5" y="-194" font-family="Helvetica,sans-Serif" font-size="10.00">std::rand</text>
</a>
</g>
</g>
<!-- Node2&#45;&gt;Node3 -->
<g id="edge2" class="edge">
<title>Node2&#45;&gt;Node3</title>
<path fill="none" stroke="#63b8ff" d="M150.45,-196.5C165.08,-196.5 181.84,-196.5 196.53,-196.5"/>
<polygon fill="#63b8ff" stroke="#63b8ff" points="196.27,-200 206.27,-196.5 196.27,-193 196.27,-200"/>
</g>
<!-- Node5 -->
<g id="node5" class="node">
<title>Node5</title>
<g id="a_node5"><a xlink:href="../../de/d75/qr__eigen__values_8cpp.html#abb8bf4c55e10685a5eb2ad3797fde1ae" target="_top" xlink:title=" ">
<polygon fill="white" stroke="#666666" points="418,-164 364,-164 364,-145 418,-145 418,-164"/>
<text text-anchor="middle" x="391" y="-152" font-family="Helvetica,sans-Serif" font-size="10.00">mat_mul</text>
</a>
</g>
</g>
<!-- Node4&#45;&gt;Node5 -->
<g id="edge4" class="edge">
<title>Node4&#45;&gt;Node5</title>
<path fill="none" stroke="#63b8ff" d="M285.49,-135.44C307.2,-139.4 332.34,-143.98 352.51,-147.66"/>
<polygon fill="#63b8ff" stroke="#63b8ff" points="351.8,-151.09 362.27,-149.44 353.06,-144.2 351.8,-151.09"/>
</g>
<!-- Node6 -->
<g id="node6" class="node">
<title>Node6</title>
<g id="a_node6"><a xlink:href="../../d2/d3b/namespaceqr__algorithm.html#a73ce637634fc49e1d10d190eb388ebf1" target="_top" xlink:title=" ">
<polygon fill="white" stroke="#666666" points="461,-109 321,-109 321,-90 461,-90 461,-109"/>
<text text-anchor="middle" x="391" y="-97" font-family="Helvetica,sans-Serif" font-size="10.00">qr_algorithm::qr_decompose</text>
</a>
</g>
</g>
<!-- Node4&#45;&gt;Node6 -->
<g id="edge5" class="edge">
<title>Node4&#45;&gt;Node6</title>
<path fill="none" stroke="#63b8ff" d="M285.49,-117.88C297.11,-115.84 309.71,-113.62 322.01,-111.46"/>
<polygon fill="#63b8ff" stroke="#63b8ff" points="322.45,-114.94 331.69,-109.76 321.24,-108.04 322.45,-114.94"/>
</g>
<!-- Node6&#45;&gt;Node6 -->
<g id="edge6" class="edge">
<title>Node6&#45;&gt;Node6</title>
<path fill="none" stroke="#63b8ff" d="M366.66,-109.37C355.55,-117.94 363.67,-127 391,-127 406.38,-127 415.67,-124.13 418.88,-120.1"/>
<polygon fill="#63b8ff" stroke="#63b8ff" points="422.27,-119.21 415.82,-110.81 415.63,-121.4 422.27,-119.21"/>
</g>
<!-- Node7 -->
<g id="node7" class="node">
<title>Node7</title>
<g id="a_node7"><a xlink:href="../../d2/d3b/namespaceqr__algorithm.html#ad16da2183db22378435042f26af43d5f" target="_top" xlink:title=" ">
<polygon fill="white" stroke="#666666" points="624,-128 497,-128 497,-109 624,-109 624,-128"/>
<text text-anchor="middle" x="560.5" y="-116" font-family="Helvetica,sans-Serif" font-size="10.00">qr_algorithm::vector_mag</text>
</a>
</g>
</g>
<!-- Node6&#45;&gt;Node7 -->
<g id="edge7" class="edge">
<title>Node6&#45;&gt;Node7</title>
<path fill="none" stroke="#63b8ff" d="M461.1,-107.34C469.12,-108.25 477.33,-109.18 485.42,-110.1"/>
<polygon fill="#63b8ff" stroke="#63b8ff" points="484.9,-113.56 495.23,-111.21 485.69,-106.61 484.9,-113.56"/>
</g>
<!-- Node10 -->
<g id="node10" class="node">
<title>Node10</title>
<g id="a_node10"><a xlink:href="../../d2/d3b/namespaceqr__algorithm.html#a6d3c7dce1f142141f509d09f6c0e25dc" target="_top" xlink:title=" ">
<polygon fill="white" stroke="#666666" points="622.5,-91 498.5,-91 498.5,-72 622.5,-72 622.5,-91"/>
<text text-anchor="middle" x="560.5" y="-79" font-family="Helvetica,sans-Serif" font-size="10.00">qr_algorithm::vector_proj</text>
</a>
</g>
</g>
<!-- Node6&#45;&gt;Node10 -->
<g id="edge10" class="edge">
<title>Node6&#45;&gt;Node10</title>
<path fill="none" stroke="#63b8ff" d="M461.1,-92.07C469.52,-91.17 478.15,-90.24 486.63,-89.33"/>
<polygon fill="#63b8ff" stroke="#63b8ff" points="486.99,-92.81 496.56,-88.26 486.24,-85.85 486.99,-92.81"/>
</g>
<!-- Node8 -->
<g id="node8" class="node">
<title>Node8</title>
<g id="a_node8"><a target="_blank" xlink:href="http://en.cppreference.com/w/cpp/numeric/math/sqrt.html#" xlink:title=" ">
<polygon fill="white" stroke="#666666" points="747.5,-128 694.5,-128 694.5,-109 747.5,-109 747.5,-128"/>
<text text-anchor="middle" x="721" y="-116" font-family="Helvetica,sans-Serif" font-size="10.00">std::sqrt</text>
</a>
</g>
</g>
<!-- Node7&#45;&gt;Node8 -->
<g id="edge8" class="edge">
<title>Node7&#45;&gt;Node8</title>
<path fill="none" stroke="#63b8ff" d="M624.14,-118.5C643.97,-118.5 665.25,-118.5 682.71,-118.5"/>
<polygon fill="#63b8ff" stroke="#63b8ff" points="682.61,-122 692.61,-118.5 682.61,-115 682.61,-122"/>
</g>
<!-- Node9 -->
<g id="node9" class="node">
<title>Node9</title>
<g id="a_node9"><a xlink:href="../../d2/d3b/namespaceqr__algorithm.html#a8ea313a1a1b5f9d0e3e332c29c6446ec" target="_top" xlink:title=" ">
<polygon fill="white" stroke="#666666" points="782,-91 660,-91 660,-72 782,-72 782,-91"/>
<text text-anchor="middle" x="721" y="-79" font-family="Helvetica,sans-Serif" font-size="10.00">qr_algorithm::vector_dot</text>
</a>
</g>
</g>
<!-- Node7&#45;&gt;Node9 -->
<g id="edge9" class="edge">
<title>Node7&#45;&gt;Node9</title>
<path fill="none" stroke="#63b8ff" d="M603.98,-108.58C623.16,-104.11 646.05,-98.76 666.4,-94.01"/>
<polygon fill="#63b8ff" stroke="#63b8ff" points="666.99,-97.47 675.93,-91.79 665.4,-90.65 666.99,-97.47"/>
</g>
<!-- Node10&#45;&gt;Node9 -->
<g id="edge11" class="edge">
<title>Node10&#45;&gt;Node9</title>
<path fill="none" stroke="#63b8ff" d="M622.78,-81.5C631.1,-81.5 639.71,-81.5 648.2,-81.5"/>
<polygon fill="#63b8ff" stroke="#63b8ff" points="648.15,-85 658.15,-81.5 648.15,-78 648.15,-85"/>
</g>
<!-- Node12&#45;&gt;Node4 -->
<g id="edge14" class="edge">
<title>Node12&#45;&gt;Node4</title>
<path fill="none" stroke="#63b8ff" d="M131.45,-121.41C143.05,-121.98 158.72,-122.76 174.34,-123.53"/>
<polygon fill="#63b8ff" stroke="#63b8ff" points="173.97,-127.01 184.13,-124.01 174.31,-120.02 173.97,-127.01"/>
</g>
<!-- Node13 -->
<g id="node13" class="node">
<title>Node13</title>
<g id="a_node13"><a target="_blank" xlink:href="http://en.cppreference.com/w/cpp/io/manip/endl.html#" xlink:title=" ">
<polygon fill="white" stroke="#666666" points="262.5,-93 208.5,-93 208.5,-74 262.5,-74 262.5,-93"/>
<text text-anchor="middle" x="235.5" y="-81" font-family="Helvetica,sans-Serif" font-size="10.00">std::endl</text>
</a>
</g>
</g>
<!-- Node12&#45;&gt;Node13 -->
<g id="edge15" class="edge">
<title>Node12&#45;&gt;Node13</title>
<path fill="none" stroke="#63b8ff" d="M131.45,-114.88C148.86,-109.58 175.48,-101.47 197.3,-94.83"/>
<polygon fill="#63b8ff" stroke="#63b8ff" points="198.2,-98.21 206.75,-91.95 196.16,-91.52 198.2,-98.21"/>
</g>
<!-- Node14&#45;&gt;Node4 -->
<g id="edge17" class="edge">
<title>Node14&#45;&gt;Node4</title>
<path fill="none" stroke="#63b8ff" d="M131.45,-90.03C144.48,-94.64 162.66,-101.08 180.13,-107.26"/>
<polygon fill="#63b8ff" stroke="#63b8ff" points="178.85,-110.52 189.44,-110.55 181.18,-103.92 178.85,-110.52"/>
</g>
<!-- Node14&#45;&gt;Node13 -->
<g id="edge18" class="edge">
<title>Node14&#45;&gt;Node13</title>
<path fill="none" stroke="#63b8ff" d="M131.45,-83.5C148.71,-83.5 174.99,-83.5 196.7,-83.5"/>
<polygon fill="#63b8ff" stroke="#63b8ff" points="196.68,-87 206.68,-83.5 196.68,-80 196.68,-87"/>
</g>
</g>
</svg>
        <g id="navigator" transform="translate(0 0)" fill="#404254">
                <rect fill="#f2f5e9" fill-opacity="0.5" stroke="#606060" stroke-width=".5" x="0" y="0" width="60" height="60"/>
                <use id="zoomplus" xlink:href="#zoomPlus" x="17" y="9" onmousedown="handleZoom(evt,'in')"/>
                <use id="zoomminus" xlink:href="#zoomMin" x="42" y="9" onmousedown="handleZoom(evt,'out')"/>
                <use id="reset" xlink:href="#resetDef" x="30" y="36" onmousedown="handleReset()"/>
                <g id="arrowUp" xlink:href="#dirArrow" transform="translate(30 24)" onmousedown="handlePan(0,-1)">
                  <use xlink:href="#rim" fill="#404040">
                        <set attributeName="fill" to="#808080" begin="arrowUp.mouseover" end="arrowUp.mouseout"/>
                  </use>
                  <path fill="none" stroke="white" stroke-width="1.5" d="M0,-3.0v7 M-2.5,-0.5L0,-3.0L2.5,-0.5"/>
                </g>
                <g id="arrowRight" xlink:href="#dirArrow" transform="rotate(90) translate(36 -43)" onmousedown="handlePan(1,0)">
                  <use xlink:href="#rim" fill="#404040">
                        <set attributeName="fill" to="#808080" begin="arrowRight.mouseover" end="arrowRight.mouseout"/>
                  </use>
                  <path fill="none" stroke="white" stroke-width="1.5" d="M0,-3.0v7 M-2.5,-0.5L0,-3.0L2.5,-0.5"/>
                </g>
                <g id="arrowDown" xlink:href="#dirArrow" transform="rotate(180) translate(-30 -48)" onmousedown="handlePan(0,1)">
                  <use xlink:href="#rim" fill="#404040">
                        <set attributeName="fill" to="#808080" begin="arrowDown.mouseover" end="arrowDown.mouseout"/>
                  </use>
                  <path fill="none" stroke="white" stroke-width="1.5" d="M0,-3.0v7 M-2.5,-0.5L0,-3.0L2.5,-0.5"/>
                </g>
                <g id="arrowLeft" xlink:href="#dirArrow" transform="rotate(270) translate(-36 17)" onmousedown="handlePan(-1,0)">
                  <use xlink:href="#rim" fill="#404040">
                        <set attributeName="fill" to="#808080" begin="arrowLeft.mouseover" end="arrowLeft.mouseout"/>
                  </use>
                  <path fill="none" stroke="white" stroke-width="1.5" d="M0,-3.0v7 M-2.5,-0.5L0,-3.0L2.5,-0.5"/>
                </g>
        </g>
        <svg viewBox="0 0 15 15" width="100%" height="30px" preserveAspectRatio="xMaxYMin meet">
         <g id="arrow_out" transform="scale(0.3 0.3)">
          <a xlink:href="qr__eigen__values_8cpp_a3c04138a5bfe5d72780bb7e82a18e627_cgraph_org.svg" target="_base">
           <rect id="button" ry="5" rx="5" y="6" x="6" height="38" width="38"
                fill="#f2f5e9" fill-opacity="0.5" stroke="#606060" stroke-width="1.0"/>
           <path id="arrow"
             d="M 11.500037,31.436501 C 11.940474,20.09759 22.043105,11.32322 32.158766,21.979434 L 37.068811,17.246167 C 37.068811,17.246167 37.088388,32 37.088388,32 L 22.160133,31.978069 C 22.160133,31.978069 26.997745,27.140456 26.997745,27.140456 C 18.528582,18.264221 13.291696,25.230495 11.500037,31.436501 z"
             style="fill:#404040;"/>
          </a>
         </g>
        </svg>
</svg>
