<?xml version="1.0" encoding="UTF-8" standalone="no"?>
<!DOCTYPE svg PUBLIC "-//W3C//DTD SVG 1.1//EN"
 "http://www.w3.org/Graphics/SVG/1.1/DTD/svg11.dtd">
<!-- Generated by graphviz version 5.0.1 (20220820.1526)
 -->
<!-- Title: probability::windowed_median::WindowedMedian::insert Pages: 1 -->
<svg width="455pt" height="279pt"
 viewBox="0.00 0.00 455.00 279.00" xmlns="http://www.w3.org/2000/svg" xmlns:xlink="http://www.w3.org/1999/xlink">
<g id="graph0" class="graph" transform="scale(1 1) rotate(0) translate(4 275)">
<title>probability::windowed_median::WindowedMedian::insert</title>
<!-- Node1 -->
<g id="node1" class="node">
<title>Node1</title>
<g id="a_node1"><a xlink:title="Insert a new value to the stream.">
<polygon fill="#999999" stroke="#666666" points="137,-128 0,-128 0,-87 137,-87 137,-128"/>
<text text-anchor="start" x="8" y="-116" font-family="Helvetica,sans-Serif" font-size="10.00">probability::windowed</text>
<text text-anchor="start" x="8" y="-105" font-family="Helvetica,sans-Serif" font-size="10.00">_median::WindowedMedian</text>
<text text-anchor="middle" x="68.5" y="-94" font-family="Helvetica,sans-Serif" font-size="10.00">::insert</text>
</a>
</g>
</g>
<!-- Node2 -->
<g id="node2" class="node">
<title>Node2</title>
<g id="a_node2"><a xlink:href="../../df/d34/classprobability_1_1windowed__median_1_1_windowed_median.html#af544e271ea19a6fd69a6b3ed6816453e" target="_top" xlink:title="Erases a value from a sorted multi&#45;value BST.">
<polygon fill="white" stroke="#666666" points="310,-248 173,-248 173,-207 310,-207 310,-248"/>
<text text-anchor="start" x="181" y="-236" font-family="Helvetica,sans-Serif" font-size="10.00">probability::windowed</text>
<text text-anchor="start" x="181" y="-225" font-family="Helvetica,sans-Serif" font-size="10.00">_median::WindowedMedian</text>
<text text-anchor="middle" x="241.5" y="-214" font-family="Helvetica,sans-Serif" font-size="10.00">::eraseFromSorted</text>
</a>
</g>
</g>
<!-- Node1&#45;&gt;Node2 -->
<g id="edge1" class="edge">
<title>Node1&#45;&gt;Node2</title>
<path fill="none" stroke="#63b8ff" d="M88.97,-128.04C108.7,-148 140.84,-178.18 173,-198.5 174.93,-199.72 176.91,-200.91 178.94,-202.07"/>
<polygon fill="#63b8ff" stroke="#63b8ff" points="177.59,-205.31 188.06,-206.94 180.89,-199.14 177.59,-205.31"/>
</g>
<!-- Node6 -->
<g id="node6" class="node">
<title>Node6</title>
<g id="a_node6"><a target="_blank" xlink:href="http://en.cppreference.com/w/cpp/container/list/front.html#" xlink:title=" ">
<polygon fill="white" stroke="#666666" points="278.5,-189 204.5,-189 204.5,-170 278.5,-170 278.5,-189"/>
<text text-anchor="middle" x="241.5" y="-177" font-family="Helvetica,sans-Serif" font-size="10.00">std::list::front</text>
</a>
</g>
</g>
<!-- Node1&#45;&gt;Node6 -->
<g id="edge5" class="edge">
<title>Node1&#45;&gt;Node6</title>
<path fill="none" stroke="#63b8ff" d="M104.52,-128.24C124.16,-139.23 149.39,-152.32 173,-161.5 179.84,-164.16 187.22,-166.57 194.49,-168.69"/>
<polygon fill="#63b8ff" stroke="#63b8ff" points="193.73,-172.11 204.3,-171.41 195.6,-165.37 193.73,-172.11"/>
</g>
<!-- Node7 -->
<g id="node7" class="node">
<title>Node7</title>
<g id="a_node7"><a xlink:href="../../df/d34/classprobability_1_1windowed__median_1_1_windowed_median.html#a3a7f57679e9cd6c9f042dfd0612b2b24" target="_top" xlink:title="Inserts a value to a sorted multi&#45;value BST.">
<polygon fill="white" stroke="#666666" points="310,-152 173,-152 173,-111 310,-111 310,-152"/>
<text text-anchor="start" x="181" y="-140" font-family="Helvetica,sans-Serif" font-size="10.00">probability::windowed</text>
<text text-anchor="start" x="181" y="-129" font-family="Helvetica,sans-Serif" font-size="10.00">_median::WindowedMedian</text>
<text text-anchor="middle" x="241.5" y="-118" font-family="Helvetica,sans-Serif" font-size="10.00">::insertToSorted</text>
</a>
</g>
</g>
<!-- Node1&#45;&gt;Node7 -->
<g id="edge6" class="edge">
<title>Node1&#45;&gt;Node7</title>
<path fill="none" stroke="#63b8ff" d="M137.08,-116.99C145.54,-118.17 154.24,-119.39 162.83,-120.6"/>
<polygon fill="#63b8ff" stroke="#63b8ff" points="162.46,-124.08 172.85,-122 163.43,-117.15 162.46,-124.08"/>
</g>
<!-- Node10 -->
<g id="node10" class="node">
<title>Node10</title>
<g id="a_node10"><a target="_blank" xlink:href="http://en.cppreference.com/w/cpp/container/list/pop_front.html#" xlink:title=" ">
<polygon fill="white" stroke="#666666" points="289,-93 194,-93 194,-74 289,-74 289,-93"/>
<text text-anchor="middle" x="241.5" y="-81" font-family="Helvetica,sans-Serif" font-size="10.00">std::list::pop_front</text>
</a>
</g>
</g>
<!-- Node1&#45;&gt;Node10 -->
<g id="edge10" class="edge">
<title>Node1&#45;&gt;Node10</title>
<path fill="none" stroke="#63b8ff" d="M137.08,-98.01C152.56,-95.84 168.85,-93.56 183.81,-91.46"/>
<polygon fill="#63b8ff" stroke="#63b8ff" points="184.51,-94.89 193.93,-90.04 183.54,-87.96 184.51,-94.89"/>
</g>
<!-- Node11 -->
<g id="node11" class="node">
<title>Node11</title>
<g id="a_node11"><a target="_blank" xlink:href="http://en.cppreference.com/w/cpp/container/list/push_back.html#" xlink:title=" ">
<polygon fill="white" stroke="#666666" points="292.5,-56 190.5,-56 190.5,-37 292.5,-37 292.5,-56"/>
<text text-anchor="middle" x="241.5" y="-44" font-family="Helvetica,sans-Serif" font-size="10.00">std::list::push_back</text>
</a>
</g>
</g>
<!-- Node1&#45;&gt;Node11 -->
<g id="edge11" class="edge">
<title>Node1&#45;&gt;Node11</title>
<path fill="none" stroke="#63b8ff" d="M117,-86.93C134.45,-79.72 154.47,-71.85 173,-65.5 179.81,-63.17 187.07,-60.9 194.22,-58.79"/>
<polygon fill="#63b8ff" stroke="#63b8ff" points="195.2,-62.15 203.84,-56.02 193.26,-55.42 195.2,-62.15"/>
</g>
<!-- Node12 -->
<g id="node12" class="node">
<title>Node12</title>
<g id="a_node12"><a target="_blank" xlink:href="http://en.cppreference.com/w/cpp/container/list/size.html#" xlink:title=" ">
<polygon fill="white" stroke="#666666" points="278,-19 205,-19 205,0 278,0 278,-19"/>
<text text-anchor="middle" x="241.5" y="-7" font-family="Helvetica,sans-Serif" font-size="10.00">std::list::size</text>
</a>
</g>
</g>
<!-- Node1&#45;&gt;Node12 -->
<g id="edge12" class="edge">
<title>Node1&#45;&gt;Node12</title>
<path fill="none" stroke="#63b8ff" d="M90.77,-86.9C110.56,-68.81 141.65,-43.01 173,-27.5 179.88,-24.1 187.48,-21.28 195.03,-18.96"/>
<polygon fill="#63b8ff" stroke="#63b8ff" points="196.17,-22.27 204.85,-16.2 194.28,-15.54 196.17,-22.27"/>
</g>
<!-- Node3 -->
<g id="node3" class="node">
<title>Node3</title>
<g id="a_node3"><a target="_blank" xlink:href="http://en.cppreference.com/w/cpp/container/multiset/erase.html#" xlink:title=" ">
<polygon fill="white" stroke="#666666" points="447,-271 346,-271 346,-252 447,-252 447,-271"/>
<text text-anchor="middle" x="396.5" y="-259" font-family="Helvetica,sans-Serif" font-size="10.00">std::multiset::erase</text>
</a>
</g>
</g>
<!-- Node2&#45;&gt;Node3 -->
<g id="edge2" class="edge">
<title>Node2&#45;&gt;Node3</title>
<path fill="none" stroke="#63b8ff" d="M310.05,-242.51C320.97,-244.94 332.14,-247.42 342.65,-249.75"/>
<polygon fill="#63b8ff" stroke="#63b8ff" points="341.97,-253.19 352.49,-251.94 343.48,-246.36 341.97,-253.19"/>
</g>
<!-- Node4 -->
<g id="node4" class="node">
<title>Node4</title>
<g id="a_node4"><a target="_blank" xlink:href="http://en.cppreference.com/w/cpp/container/multiset/find.html#" xlink:title=" ">
<polygon fill="white" stroke="#666666" points="442.5,-234 350.5,-234 350.5,-215 442.5,-215 442.5,-234"/>
<text text-anchor="middle" x="396.5" y="-222" font-family="Helvetica,sans-Serif" font-size="10.00">std::multiset::find</text>
</a>
</g>
</g>
<!-- Node2&#45;&gt;Node4 -->
<g id="edge3" class="edge">
<title>Node2&#45;&gt;Node4</title>
<path fill="none" stroke="#63b8ff" d="M310.05,-226.18C320.15,-225.98 330.46,-225.78 340.27,-225.58"/>
<polygon fill="#63b8ff" stroke="#63b8ff" points="340.34,-229.08 350.27,-225.39 340.21,-222.08 340.34,-229.08"/>
</g>
<!-- Node5 -->
<g id="node5" class="node">
<title>Node5</title>
<g id="a_node5"><a target="_blank" xlink:href="http://en.cppreference.com/w/cpp/container/multiset/size.html#" xlink:title=" ">
<polygon fill="white" stroke="#666666" points="444,-194 349,-194 349,-175 444,-175 444,-194"/>
<text text-anchor="middle" x="396.5" y="-182" font-family="Helvetica,sans-Serif" font-size="10.00">std::multiset::size</text>
</a>
</g>
</g>
<!-- Node2&#45;&gt;Node5 -->
<g id="edge4" class="edge">
<title>Node2&#45;&gt;Node5</title>
<path fill="none" stroke="#63b8ff" d="M310.05,-208.51C324.08,-204.57 338.51,-200.52 351.42,-196.89"/>
<polygon fill="#63b8ff" stroke="#63b8ff" points="352.74,-200.15 361.42,-194.08 350.85,-193.41 352.74,-200.15"/>
</g>
<!-- Node7&#45;&gt;Node5 -->
<g id="edge9" class="edge">
<title>Node7&#45;&gt;Node5</title>
<path fill="none" stroke="#63b8ff" d="M302.09,-152.14C321.03,-158.7 341.42,-165.77 358.31,-171.62"/>
<polygon fill="#63b8ff" stroke="#63b8ff" points="357.21,-174.94 367.81,-174.91 359.5,-168.33 357.21,-174.94"/>
</g>
<!-- Node8 -->
<g id="node8" class="node">
<title>Node8</title>
<g id="a_node8"><a target="_blank" xlink:href="http://en.cppreference.com/w/cpp/container/multiset/begin.html#" xlink:title=" ">
<polygon fill="white" stroke="#666666" points="446.5,-152 346.5,-152 346.5,-133 446.5,-133 446.5,-152"/>
<text text-anchor="middle" x="396.5" y="-140" font-family="Helvetica,sans-Serif" font-size="10.00">std::multiset::begin</text>
</a>
</g>
</g>
<!-- Node7&#45;&gt;Node8 -->
<g id="edge7" class="edge">
<title>Node7&#45;&gt;Node8</title>
<path fill="none" stroke="#63b8ff" d="M310.05,-136.36C318.7,-136.98 327.51,-137.61 336.02,-138.22"/>
<polygon fill="#63b8ff" stroke="#63b8ff" points="336,-141.73 346.22,-138.96 336.5,-134.75 336,-141.73"/>
</g>
<!-- Node9 -->
<g id="node9" class="node">
<title>Node9</title>
<g id="a_node9"><a target="_blank" xlink:href="http://en.cppreference.com/w/cpp/container/multiset/insert.html#" xlink:title=" ">
<polygon fill="white" stroke="#666666" points="447,-115 346,-115 346,-96 447,-96 447,-115"/>
<text text-anchor="middle" x="396.5" y="-103" font-family="Helvetica,sans-Serif" font-size="10.00">std::multiset::insert</text>
</a>
</g>
</g>
<!-- Node7&#45;&gt;Node9 -->
<g id="edge8" class="edge">
<title>Node7&#45;&gt;Node9</title>
<path fill="none" stroke="#63b8ff" d="M310.05,-120.02C318.59,-118.57 327.28,-117.09 335.68,-115.67"/>
<polygon fill="#63b8ff" stroke="#63b8ff" points="336.49,-119.08 345.77,-113.95 335.32,-112.18 336.49,-119.08"/>
</g>
</g>
</svg>
