<?xml version="1.0" encoding="UTF-8" standalone="no"?>
<!DOCTYPE svg PUBLIC "-//W3C//DTD SVG 1.1//EN"
 "http://www.w3.org/Graphics/SVG/1.1/DTD/svg11.dtd">
<!-- Generated by graphviz version 7.0.4 (20221203.1631)
 -->
<!-- Title: test1 Pages: 1 -->
<svg width="988pt" height="703pt"
 viewBox="0.00 0.00 988.00 703.00" xmlns="http://www.w3.org/2000/svg" xmlns:xlink="http://www.w3.org/1999/xlink">
<g id="graph0" class="graph" transform="scale(1 1) rotate(0) translate(4 699)">
<title>test1</title>
<!-- Node1 -->
<g id="node1" class="node">
<title>Node1</title>
<g id="a_node1"><a xlink:title="simple test to insert a given array and delete some item, and print the tree">
<polygon fill="#999999" stroke="#666666" points="38,-290.5 0,-290.5 0,-271.5 38,-271.5 38,-290.5"/>
<text text-anchor="middle" x="19" y="-278.5" font-family="Helvetica,sans-Serif" font-size="10.00">test1</text>
</a>
</g>
</g>
<!-- Node2 -->
<g id="node2" class="node">
<title>Node2</title>
<g id="a_node2"><a xlink:href="../../d3/d95/classdata__structures_1_1tree__234_1_1_tree234.html#a6749ebb40710c9752a2771eda03c6b3e" target="_top" xlink:title="Insert item to tree.">
<polygon fill="white" stroke="#666666" points="190,-437 80,-437 80,-407 190,-407 190,-437"/>
<text text-anchor="start" x="88" y="-425" font-family="Helvetica,sans-Serif" font-size="10.00">data_structures::tree</text>
<text text-anchor="middle" x="135" y="-414" font-family="Helvetica,sans-Serif" font-size="10.00">_234::Tree234::Insert</text>
</a>
</g>
</g>
<!-- Node1&#45;&gt;Node2 -->
<g id="edge1" class="edge">
<title>Node1&#45;&gt;Node2</title>
<path fill="none" stroke="#63b8ff" d="M27.84,-290.69C45.6,-312.66 89.36,-366.79 114.81,-398.27"/>
<polygon fill="#63b8ff" stroke="#63b8ff" points="111.81,-400.12 120.82,-405.7 117.25,-395.72 111.81,-400.12"/>
</g>
<!-- Node12 -->
<g id="node12" class="node">
<title>Node12</title>
<g id="a_node12"><a xlink:href="../../d3/d95/classdata__structures_1_1tree__234_1_1_tree234.html#a2e9a9db7792cf5383f4c4cc418255165" target="_top" xlink:title="Print tree into a dot file.">
<polygon fill="white" stroke="#666666" points="188.5,-210 81.5,-210 81.5,-180 188.5,-180 188.5,-210"/>
<text text-anchor="start" x="89.5" y="-198" font-family="Helvetica,sans-Serif" font-size="10.00">data_structures::tree</text>
<text text-anchor="middle" x="135" y="-187" font-family="Helvetica,sans-Serif" font-size="10.00">_234::Tree234::Print</text>
</a>
</g>
</g>
<!-- Node1&#45;&gt;Node12 -->
<g id="edge12" class="edge">
<title>Node1&#45;&gt;Node12</title>
<path fill="none" stroke="#63b8ff" d="M33.08,-271.13C50.45,-258.03 81.64,-234.5 104.76,-217.06"/>
<polygon fill="#63b8ff" stroke="#63b8ff" points="106.72,-219.96 112.6,-211.15 102.5,-214.38 106.72,-219.96"/>
</g>
<!-- Node17 -->
<g id="node17" class="node">
<title>Node17</title>
<g id="a_node17"><a xlink:href="../../d3/d95/classdata__structures_1_1tree__234_1_1_tree234.html#a5da1be3f5b5d967ebb36a201f3ebad11" target="_top" xlink:title="Remove item from tree.">
<polygon fill="white" stroke="#666666" points="196,-296 74,-296 74,-266 196,-266 196,-296"/>
<text text-anchor="start" x="82" y="-284" font-family="Helvetica,sans-Serif" font-size="10.00">data_structures::tree</text>
<text text-anchor="middle" x="135" y="-273" font-family="Helvetica,sans-Serif" font-size="10.00">_234::Tree234::Remove</text>
</a>
</g>
</g>
<!-- Node1&#45;&gt;Node17 -->
<g id="edge17" class="edge">
<title>Node1&#45;&gt;Node17</title>
<path fill="none" stroke="#63b8ff" d="M38.32,-281C45.22,-281 53.56,-281 62.4,-281"/>
<polygon fill="#63b8ff" stroke="#63b8ff" points="62.28,-284.5 72.28,-281 62.28,-277.5 62.28,-284.5"/>
</g>
<!-- Node3 -->
<g id="node3" class="node">
<title>Node3</title>
<g id="a_node3"><a xlink:href="../../d3/d95/classdata__structures_1_1tree__234_1_1_tree234.html#a07811b3c564a3a443b106c9aa717629d" target="_top" xlink:title="A insert implementation of pre&#45;split.">
<polygon fill="white" stroke="#666666" points="386,-536 242,-536 242,-506 386,-506 386,-536"/>
<text text-anchor="start" x="250" y="-524" font-family="Helvetica,sans-Serif" font-size="10.00">data_structures::tree</text>
<text text-anchor="middle" x="314" y="-513" font-family="Helvetica,sans-Serif" font-size="10.00">_234::Tree234::InsertPreSplit</text>
</a>
</g>
</g>
<!-- Node2&#45;&gt;Node3 -->
<g id="edge2" class="edge">
<title>Node2&#45;&gt;Node3</title>
<path fill="none" stroke="#63b8ff" d="M163.66,-437.47C193.79,-454.32 242.17,-481.38 275.66,-500.11"/>
<polygon fill="#63b8ff" stroke="#63b8ff" points="273.78,-503.07 284.22,-504.9 277.2,-496.96 273.78,-503.07"/>
</g>
<!-- Node4 -->
<g id="node4" class="node">
<title>Node4</title>
<g id="a_node4"><a target="_blank" xlink:href="http://en.cppreference.com/w/cpp/memory/unique_ptr/get.html#" xlink:title=" ">
<polygon fill="white" stroke="#666666" points="566,-597.5 465,-597.5 465,-578.5 566,-578.5 566,-597.5"/>
<text text-anchor="middle" x="515.5" y="-585.5" font-family="Helvetica,sans-Serif" font-size="10.00">std::unique_ptr::get</text>
</a>
</g>
</g>
<!-- Node3&#45;&gt;Node4 -->
<g id="edge3" class="edge">
<title>Node3&#45;&gt;Node4</title>
<path fill="none" stroke="#63b8ff" d="M348.51,-536.45C371.61,-546.68 403.23,-559.85 432,-569 439.15,-571.27 446.73,-573.4 454.29,-575.34"/>
<polygon fill="#63b8ff" stroke="#63b8ff" points="453.27,-578.69 463.82,-577.69 454.94,-571.89 453.27,-578.69"/>
</g>
<!-- Node5 -->
<g id="node5" class="node">
<title>Node5</title>
<g id="a_node5"><a xlink:href="../../d3/d95/classdata__structures_1_1tree__234_1_1_tree234.html#ad37e29e2a4a6cc0eb65cbd5595e1da95" target="_top" xlink:title="Merge node to a not&#45;full target node.">
<polygon fill="white" stroke="#666666" points="599,-560 432,-560 432,-530 599,-530 599,-560"/>
<text text-anchor="start" x="440" y="-548" font-family="Helvetica,sans-Serif" font-size="10.00">data_structures::tree</text>
<text text-anchor="middle" x="515.5" y="-537" font-family="Helvetica,sans-Serif" font-size="10.00">_234::Tree234::MergeNodeNotFull</text>
</a>
</g>
</g>
<!-- Node3&#45;&gt;Node5 -->
<g id="edge4" class="edge">
<title>Node3&#45;&gt;Node5</title>
<path fill="none" stroke="#63b8ff" d="M386.46,-529.6C397.45,-530.92 408.93,-532.3 420.32,-533.67"/>
<polygon fill="#63b8ff" stroke="#63b8ff" points="419.8,-537.13 430.15,-534.85 420.64,-530.18 419.8,-537.13"/>
</g>
<!-- Node11 -->
<g id="node11" class="node">
<title>Node11</title>
<g id="a_node11"><a xlink:href="../../d3/d95/classdata__structures_1_1tree__234_1_1_tree234.html#a370b625ca9f16bbef2b65e024ef78ea9" target="_top" xlink:title="Split a 4&#45;node to 1 parent and 2 children, and return the parent node.">
<polygon fill="white" stroke="#666666" points="579.5,-512 451.5,-512 451.5,-482 579.5,-482 579.5,-512"/>
<text text-anchor="start" x="459.5" y="-500" font-family="Helvetica,sans-Serif" font-size="10.00">data_structures::tree</text>
<text text-anchor="middle" x="515.5" y="-489" font-family="Helvetica,sans-Serif" font-size="10.00">_234::Tree234::SplitNode</text>
</a>
</g>
</g>
<!-- Node3&#45;&gt;Node11 -->
<g id="edge11" class="edge">
<title>Node3&#45;&gt;Node11</title>
<path fill="none" stroke="#63b8ff" d="M386.46,-512.4C403.79,-510.32 422.37,-508.08 439.85,-505.98"/>
<polygon fill="#63b8ff" stroke="#63b8ff" points="440.14,-509.47 449.65,-504.8 439.3,-502.52 440.14,-509.47"/>
</g>
<!-- Node6 -->
<g id="node6" class="node">
<title>Node6</title>
<g id="a_node6"><a xlink:href="../../dd/d40/classdata__structures_1_1tree__234_1_1_node.html#a8e809ae85ae00e937f67ddb76951b6bb" target="_top" xlink:title="Insert item to the proper position of the node and return the position index.">
<polygon fill="white" stroke="#666666" points="771.5,-646 654.5,-646 654.5,-616 771.5,-616 771.5,-646"/>
<text text-anchor="start" x="662.5" y="-634" font-family="Helvetica,sans-Serif" font-size="10.00">data_structures::tree</text>
<text text-anchor="middle" x="713" y="-623" font-family="Helvetica,sans-Serif" font-size="10.00">_234::Node::InsertItem</text>
</a>
</g>
</g>
<!-- Node5&#45;&gt;Node6 -->
<g id="edge5" class="edge">
<title>Node5&#45;&gt;Node6</title>
<path fill="none" stroke="#63b8ff" d="M577.56,-560.45C584.97,-563.21 592.28,-566.38 599,-570 617.33,-579.88 617.12,-589.31 635,-600 641.73,-604.02 649.07,-607.73 656.46,-611.08"/>
<polygon fill="#63b8ff" stroke="#63b8ff" points="654.93,-614.23 665.5,-614.98 657.7,-607.81 654.93,-614.23"/>
</g>
<!-- Node9 -->
<g id="node9" class="node">
<title>Node9</title>
<g id="a_node9"><a xlink:href="../../dd/d40/classdata__structures_1_1tree__234_1_1_node.html#a4a37381c0ef93d5ae2118b2e554974dd" target="_top" xlink:title="Check if node is a full (4&#45;node)">
<polygon fill="white" stroke="#666666" points="957,-599 850,-599 850,-569 957,-569 957,-599"/>
<text text-anchor="start" x="858" y="-587" font-family="Helvetica,sans-Serif" font-size="10.00">data_structures::tree</text>
<text text-anchor="middle" x="903.5" y="-576" font-family="Helvetica,sans-Serif" font-size="10.00">_234::Node::IsFull</text>
</a>
</g>
</g>
<!-- Node5&#45;&gt;Node9 -->
<g id="edge9" class="edge">
<title>Node5&#45;&gt;Node9</title>
<path fill="none" stroke="#63b8ff" d="M592.47,-560.5C606.56,-562.98 621.19,-565.29 635,-567 704.2,-575.59 784.03,-579.95 838.35,-582.09"/>
<polygon fill="#63b8ff" stroke="#63b8ff" points="837.9,-585.57 848.03,-582.45 838.17,-578.58 837.9,-585.57"/>
</g>
<!-- Node10 -->
<g id="node10" class="node">
<title>Node10</title>
<g id="a_node10"><a xlink:href="../../dd/d40/classdata__structures_1_1tree__234_1_1_node.html#ab4e5f7b7b260bb81d9441652cc124c74" target="_top" xlink:title="Set child pointer to the position of index.">
<polygon fill="white" stroke="#666666" points="768,-558 658,-558 658,-528 768,-528 768,-558"/>
<text text-anchor="start" x="666" y="-546" font-family="Helvetica,sans-Serif" font-size="10.00">data_structures::tree</text>
<text text-anchor="middle" x="713" y="-535" font-family="Helvetica,sans-Serif" font-size="10.00">_234::Node::SetChild</text>
</a>
</g>
</g>
<!-- Node5&#45;&gt;Node10 -->
<g id="edge10" class="edge">
<title>Node5&#45;&gt;Node10</title>
<path fill="none" stroke="#63b8ff" d="M599.41,-544.15C615.08,-543.99 631.28,-543.83 646.33,-543.67"/>
<polygon fill="#63b8ff" stroke="#63b8ff" points="646.12,-547.17 656.08,-543.57 646.04,-540.17 646.12,-547.17"/>
</g>
<!-- Node7 -->
<g id="node7" class="node">
<title>Node7</title>
<g id="a_node7"><a xlink:href="../../dd/d40/classdata__structures_1_1tree__234_1_1_node.html#a22fd25c6c811c64b6b27b0850d8c532f" target="_top" xlink:title="Check if item is in the node.">
<polygon fill="white" stroke="#666666" points="959.5,-647 847.5,-647 847.5,-617 959.5,-617 959.5,-647"/>
<text text-anchor="start" x="855.5" y="-635" font-family="Helvetica,sans-Serif" font-size="10.00">data_structures::tree</text>
<text text-anchor="middle" x="903.5" y="-624" font-family="Helvetica,sans-Serif" font-size="10.00">_234::Node::Contains</text>
</a>
</g>
</g>
<!-- Node6&#45;&gt;Node7 -->
<g id="edge6" class="edge">
<title>Node6&#45;&gt;Node7</title>
<path fill="none" stroke="#63b8ff" d="M771.84,-631.31C792.02,-631.41 814.83,-631.53 835.68,-631.65"/>
<polygon fill="#63b8ff" stroke="#63b8ff" points="835.5,-635.14 845.52,-631.7 835.54,-628.14 835.5,-635.14"/>
</g>
<!-- Node8 -->
<g id="node8" class="node">
<title>Node8</title>
<g id="a_node8"><a xlink:href="../../dd/d40/classdata__structures_1_1tree__234_1_1_node.html#a306a30931f54c84098b38d6bc8f4a956" target="_top" xlink:title="Insert a value to the index position.">
<polygon fill="white" stroke="#666666" points="980,-695 827,-695 827,-665 980,-665 980,-695"/>
<text text-anchor="start" x="835" y="-683" font-family="Helvetica,sans-Serif" font-size="10.00">data_structures::tree</text>
<text text-anchor="middle" x="903.5" y="-672" font-family="Helvetica,sans-Serif" font-size="10.00">_234::Node::InsertItemByIndex</text>
</a>
</g>
</g>
<!-- Node6&#45;&gt;Node8 -->
<g id="edge7" class="edge">
<title>Node6&#45;&gt;Node8</title>
<path fill="none" stroke="#63b8ff" d="M771.84,-646.03C790.92,-651 812.36,-656.57 832.27,-661.74"/>
<polygon fill="#63b8ff" stroke="#63b8ff" points="831.12,-665.06 841.68,-664.19 832.88,-658.29 831.12,-665.06"/>
</g>
<!-- Node6&#45;&gt;Node9 -->
<g id="edge8" class="edge">
<title>Node6&#45;&gt;Node9</title>
<path fill="none" stroke="#63b8ff" d="M771.84,-616.58C792.94,-611.32 816.92,-605.34 838.53,-599.95"/>
<polygon fill="#63b8ff" stroke="#63b8ff" points="839.26,-603.37 848.12,-597.56 837.57,-596.58 839.26,-603.37"/>
</g>
<!-- Node13 -->
<g id="node13" class="node">
<title>Node13</title>
<g id="a_node13"><a target="_blank" xlink:href="http://en.cppreference.com/w/cpp/io/basic_ofstream/close.html#" xlink:title=" ">
<polygon fill="white" stroke="#666666" points="366,-161.5 262,-161.5 262,-142.5 366,-142.5 366,-161.5"/>
<text text-anchor="middle" x="314" y="-149.5" font-family="Helvetica,sans-Serif" font-size="10.00">std::ofstream::close</text>
</a>
</g>
</g>
<!-- Node12&#45;&gt;Node13 -->
<g id="edge13" class="edge">
<title>Node12&#45;&gt;Node13</title>
<path fill="none" stroke="#63b8ff" d="M188.78,-181.66C202.82,-178.15 217.97,-174.4 232,-171 240.69,-168.9 249.91,-166.7 258.89,-164.58"/>
<polygon fill="#63b8ff" stroke="#63b8ff" points="259.69,-167.98 268.62,-162.29 258.09,-161.17 259.69,-167.98"/>
</g>
<!-- Node14 -->
<g id="node14" class="node">
<title>Node14</title>
<g id="a_node14"><a target="_blank" xlink:href="http://en.cppreference.com/w/cpp/io/manip/endl.html#" xlink:title=" ">
<polygon fill="white" stroke="#666666" points="341,-124.5 287,-124.5 287,-105.5 341,-105.5 341,-124.5"/>
<text text-anchor="middle" x="314" y="-112.5" font-family="Helvetica,sans-Serif" font-size="10.00">std::endl</text>
</a>
</g>
</g>
<!-- Node12&#45;&gt;Node14 -->
<g id="edge14" class="edge">
<title>Node12&#45;&gt;Node14</title>
<path fill="none" stroke="#63b8ff" d="M155.07,-179.75C173.67,-165.61 203.26,-145.02 232,-133 245.71,-127.27 261.51,-123.23 275.51,-120.46"/>
<polygon fill="#63b8ff" stroke="#63b8ff" points="276.04,-123.92 285.26,-118.69 274.79,-117.03 276.04,-123.92"/>
</g>
<!-- Node15 -->
<g id="node15" class="node">
<title>Node15</title>
<g id="a_node15"><a target="_blank" xlink:href="http://en.cppreference.com/w/cpp/io/basic_ofstream/open.html#" xlink:title=" ">
<polygon fill="white" stroke="#666666" points="364.5,-247.5 263.5,-247.5 263.5,-228.5 364.5,-228.5 364.5,-247.5"/>
<text text-anchor="middle" x="314" y="-235.5" font-family="Helvetica,sans-Serif" font-size="10.00">std::ofstream::open</text>
</a>
</g>
</g>
<!-- Node12&#45;&gt;Node15 -->
<g id="edge15" class="edge">
<title>Node12&#45;&gt;Node15</title>
<path fill="none" stroke="#63b8ff" d="M188.78,-208.34C202.82,-211.85 217.97,-215.6 232,-219 240.69,-221.1 249.91,-223.3 258.89,-225.42"/>
<polygon fill="#63b8ff" stroke="#63b8ff" points="258.09,-228.83 268.62,-227.71 259.69,-222.02 258.09,-228.83"/>
</g>
<!-- Node16 -->
<g id="node16" class="node">
<title>Node16</title>
<g id="a_node16"><a xlink:href="../../d3/d95/classdata__structures_1_1tree__234_1_1_tree234.html#af260f0760344771bf8fce4fc9b1739be" target="_top" xlink:title="Print the tree to a dot file. You can convert it to picture with graphviz.">
<polygon fill="white" stroke="#666666" points="378,-210 250,-210 250,-180 378,-180 378,-210"/>
<text text-anchor="start" x="258" y="-198" font-family="Helvetica,sans-Serif" font-size="10.00">data_structures::tree</text>
<text text-anchor="middle" x="314" y="-187" font-family="Helvetica,sans-Serif" font-size="10.00">_234::Tree234::PrintNode</text>
</a>
</g>
</g>
<!-- Node12&#45;&gt;Node16 -->
<g id="edge16" class="edge">
<title>Node12&#45;&gt;Node16</title>
<path fill="none" stroke="#63b8ff" d="M188.63,-195C204.19,-195 221.54,-195 238.22,-195"/>
<polygon fill="#63b8ff" stroke="#63b8ff" points="238.12,-198.5 248.12,-195 238.12,-191.5 238.12,-198.5"/>
</g>
<!-- Node18 -->
<g id="node18" class="node">
<title>Node18</title>
<g id="a_node18"><a xlink:href="../../d3/d95/classdata__structures_1_1tree__234_1_1_tree234.html#a61dd051a74e5f36c8dc03dae8dca6ef4" target="_top" xlink:title="Main function implement the pre&#45;merge remove operation.">
<polygon fill="white" stroke="#666666" points="396,-296 232,-296 232,-266 396,-266 396,-296"/>
<text text-anchor="start" x="240" y="-284" font-family="Helvetica,sans-Serif" font-size="10.00">data_structures::tree</text>
<text text-anchor="middle" x="314" y="-273" font-family="Helvetica,sans-Serif" font-size="10.00">_234::Tree234::RemovePreMerge</text>
</a>
</g>
</g>
<!-- Node17&#45;&gt;Node18 -->
<g id="edge18" class="edge">
<title>Node17&#45;&gt;Node18</title>
<path fill="none" stroke="#63b8ff" d="M196.42,-281C204.11,-281 212.12,-281 220.17,-281"/>
<polygon fill="#63b8ff" stroke="#63b8ff" points="220.05,-284.5 230.05,-281 220.05,-277.5 220.05,-284.5"/>
</g>
<!-- Node19 -->
<g id="node19" class="node">
<title>Node19</title>
<g id="a_node19"><a xlink:href="../../d3/d95/classdata__structures_1_1tree__234_1_1_tree234.html#ac85ba5abfd6d34dcd908b2afe6464657" target="_top" xlink:title="Get the max item of the tree.">
<polygon fill="white" stroke="#666666" points="594.5,-146 436.5,-146 436.5,-116 594.5,-116 594.5,-146"/>
<text text-anchor="start" x="444.5" y="-134" font-family="Helvetica,sans-Serif" font-size="10.00">data_structures::tree</text>
<text text-anchor="middle" x="515.5" y="-123" font-family="Helvetica,sans-Serif" font-size="10.00">_234::Tree234::GetTreeMaxItem</text>
</a>
</g>
</g>
<!-- Node18&#45;&gt;Node19 -->
<g id="edge19" class="edge">
<title>Node18&#45;&gt;Node19</title>
<path fill="none" stroke="#63b8ff" d="M384.26,-265.62C388.49,-263.16 392.46,-260.31 396,-257 429.59,-225.6 399.2,-192.23 432,-160 434.99,-157.06 438.3,-154.42 441.82,-152.04"/>
<polygon fill="#63b8ff" stroke="#63b8ff" points="443.38,-155.18 450.25,-147.12 439.85,-149.14 443.38,-155.18"/>
</g>
<!-- Node22 -->
<g id="node22" class="node">
<title>Node22</title>
<g id="a_node22"><a xlink:href="../../d3/d95/classdata__structures_1_1tree__234_1_1_tree234.html#a65a1235659356166a3e9b451c64fcc36" target="_top" xlink:title="Get the min item of the tree.">
<polygon fill="white" stroke="#666666" points="593,-78 438,-78 438,-48 593,-48 593,-78"/>
<text text-anchor="start" x="446" y="-66" font-family="Helvetica,sans-Serif" font-size="10.00">data_structures::tree</text>
<text text-anchor="middle" x="515.5" y="-55" font-family="Helvetica,sans-Serif" font-size="10.00">_234::Tree234::GetTreeMinItem</text>
</a>
</g>
</g>
<!-- Node18&#45;&gt;Node22 -->
<g id="edge22" class="edge">
<title>Node18&#45;&gt;Node22</title>
<path fill="none" stroke="#63b8ff" d="M385.47,-265.61C389.31,-263.15 392.87,-260.3 396,-257 443.19,-207.26 390.06,-161.24 432,-107 439.3,-97.56 449.21,-89.91 459.63,-83.81"/>
<polygon fill="#63b8ff" stroke="#63b8ff" points="461.2,-86.94 468.37,-79.13 457.9,-80.76 461.2,-86.94"/>
</g>
<!-- Node25 -->
<g id="node25" class="node">
<title>Node25</title>
<g id="a_node25"><a xlink:href="../../dd/d40/classdata__structures_1_1tree__234_1_1_node.html#afd9f83e2d5d7f22f79c1348e98914631" target="_top" xlink:title="Check if node is a 2&#45;node.">
<polygon fill="white" stroke="#666666" points="768,-270 658,-270 658,-240 768,-240 768,-270"/>
<text text-anchor="start" x="666" y="-258" font-family="Helvetica,sans-Serif" font-size="10.00">data_structures::tree</text>
<text text-anchor="middle" x="713" y="-247" font-family="Helvetica,sans-Serif" font-size="10.00">_234::Node::Is2Node</text>
</a>
</g>
</g>
<!-- Node18&#45;&gt;Node25 -->
<g id="edge25" class="edge">
<title>Node18&#45;&gt;Node25</title>
<path fill="none" stroke="#63b8ff" d="M396.3,-275.68C470.22,-270.83 577.93,-263.78 646.47,-259.29"/>
<polygon fill="#63b8ff" stroke="#63b8ff" points="646.28,-262.81 656.03,-258.67 645.82,-255.83 646.28,-262.81"/>
</g>
<!-- Node26 -->
<g id="node26" class="node">
<title>Node26</title>
<g id="a_node26"><a xlink:href="../../dd/d40/classdata__structures_1_1tree__234_1_1_node.html#a6c5f929afcbad5219646990edee22e18" target="_top" xlink:title="Check if node is a 3&#45;node or 4&#45;node, this is useful when we delete item from 2&#45;3&#45;4 tree.">
<polygon fill="white" stroke="#666666" points="573,-459 458,-459 458,-429 573,-429 573,-459"/>
<text text-anchor="start" x="466" y="-447" font-family="Helvetica,sans-Serif" font-size="10.00">data_structures::tree</text>
<text text-anchor="middle" x="515.5" y="-436" font-family="Helvetica,sans-Serif" font-size="10.00">_234::Node::Is34Node</text>
</a>
</g>
</g>
<!-- Node18&#45;&gt;Node26 -->
<g id="edge26" class="edge">
<title>Node18&#45;&gt;Node26</title>
<path fill="none" stroke="#63b8ff" d="M323.5,-296.08C340.39,-324.65 380.98,-386.78 432,-420 436.72,-423.07 441.85,-425.76 447.16,-428.12"/>
<polygon fill="#63b8ff" stroke="#63b8ff" points="445.53,-431.24 456.12,-431.68 448.12,-424.73 445.53,-431.24"/>
</g>
<!-- Node27 -->
<g id="node27" class="node">
<title>Node27</title>
<g id="a_node27"><a xlink:href="../../d3/d95/classdata__structures_1_1tree__234_1_1_tree234.html#ae58dca20f08eaf9313f6e7b0869c2d0e" target="_top" xlink:title="Do the actual left rotate operation.">
<polygon fill="white" stroke="#666666" points="778.5,-318 647.5,-318 647.5,-288 778.5,-288 778.5,-318"/>
<text text-anchor="start" x="655.5" y="-306" font-family="Helvetica,sans-Serif" font-size="10.00">data_structures::tree</text>
<text text-anchor="middle" x="713" y="-295" font-family="Helvetica,sans-Serif" font-size="10.00">_234::Tree234::LeftRotate</text>
</a>
</g>
</g>
<!-- Node18&#45;&gt;Node27 -->
<g id="edge27" class="edge">
<title>Node18&#45;&gt;Node27</title>
<path fill="none" stroke="#63b8ff" d="M344.86,-296.35C367.96,-307.32 401.12,-321.15 432,-327 504.92,-340.82 525.18,-334.75 599,-327 612.17,-325.62 626.06,-323.35 639.42,-320.75"/>
<polygon fill="#63b8ff" stroke="#63b8ff" points="639.91,-324.22 649.02,-318.8 638.52,-317.36 639.91,-324.22"/>
</g>
<!-- Node28 -->
<g id="node28" class="node">
<title>Node28</title>
<g id="a_node28"><a xlink:href="../../d3/d95/classdata__structures_1_1tree__234_1_1_tree234.html#a36f4d5f603f7edb7db7c73fb53ba14e9" target="_top" xlink:title="Merge the item at index of the parent node, and its left and right child.">
<polygon fill="white" stroke="#666666" points="571.5,-411 459.5,-411 459.5,-381 571.5,-381 571.5,-411"/>
<text text-anchor="start" x="467.5" y="-399" font-family="Helvetica,sans-Serif" font-size="10.00">data_structures::tree</text>
<text text-anchor="middle" x="515.5" y="-388" font-family="Helvetica,sans-Serif" font-size="10.00">_234::Tree234::Merge</text>
</a>
</g>
</g>
<!-- Node18&#45;&gt;Node28 -->
<g id="edge28" class="edge">
<title>Node18&#45;&gt;Node28</title>
<path fill="none" stroke="#63b8ff" d="M335.41,-296.46C358.2,-313.33 396.56,-340.52 432,-360 442.38,-365.71 453.84,-371.19 464.84,-376.08"/>
<polygon fill="#63b8ff" stroke="#63b8ff" points="463.23,-379.2 473.8,-379.97 466.02,-372.78 463.23,-379.2"/>
</g>
<!-- Node33 -->
<g id="node33" class="node">
<title>Node33</title>
<g id="a_node33"><a xlink:href="../../d3/d95/classdata__structures_1_1tree__234_1_1_tree234.html#ae68f8e62be02657c1287def6b38d7cc9" target="_top" xlink:title="Do the actual right rotate operation.">
<polygon fill="white" stroke="#666666" points="781.5,-222 644.5,-222 644.5,-192 781.5,-192 781.5,-222"/>
<text text-anchor="start" x="652.5" y="-210" font-family="Helvetica,sans-Serif" font-size="10.00">data_structures::tree</text>
<text text-anchor="middle" x="713" y="-199" font-family="Helvetica,sans-Serif" font-size="10.00">_234::Tree234::RightRotate</text>
</a>
</g>
</g>
<!-- Node18&#45;&gt;Node33 -->
<g id="edge35" class="edge">
<title>Node18&#45;&gt;Node33</title>
<path fill="none" stroke="#63b8ff" d="M382.5,-265.58C387.3,-263.13 391.87,-260.29 396,-257 421.51,-236.65 403.83,-209.48 432,-193 464.9,-173.76 562.35,-183.3 633.05,-193.61"/>
<polygon fill="#63b8ff" stroke="#63b8ff" points="632.25,-197.03 642.65,-195.04 633.28,-190.11 632.25,-197.03"/>
</g>
<!-- Node34 -->
<g id="node34" class="node">
<title>Node34</title>
<g id="a_node34"><a xlink:href="../../d3/d95/classdata__structures_1_1tree__234_1_1_tree234.html#ac5361479dd996eb331759f33808657d9" target="_top" xlink:title="A handy function to try if we can do a left rotate to the target node.">
<polygon fill="white" stroke="#666666" points="588,-318 443,-318 443,-288 588,-288 588,-318"/>
<text text-anchor="start" x="451" y="-306" font-family="Helvetica,sans-Serif" font-size="10.00">data_structures::tree</text>
<text text-anchor="middle" x="515.5" y="-295" font-family="Helvetica,sans-Serif" font-size="10.00">_234::Tree234::TryLeftRotate</text>
</a>
</g>
</g>
<!-- Node18&#45;&gt;Node34 -->
<g id="edge36" class="edge">
<title>Node18&#45;&gt;Node34</title>
<path fill="none" stroke="#63b8ff" d="M396.43,-289.98C407.91,-291.25 419.72,-292.55 431.22,-293.82"/>
<polygon fill="#63b8ff" stroke="#63b8ff" points="430.78,-297.29 441.1,-294.91 431.55,-290.33 430.78,-297.29"/>
</g>
<!-- Node35 -->
<g id="node35" class="node">
<title>Node35</title>
<g id="a_node35"><a xlink:href="../../d3/d95/classdata__structures_1_1tree__234_1_1_tree234.html#aec0642d1d151521ca7c70ea85cdb15d3" target="_top" xlink:title="A handy function to try if we can do a right rotate to the target node.">
<polygon fill="white" stroke="#666666" points="591.5,-232 439.5,-232 439.5,-202 591.5,-202 591.5,-232"/>
<text text-anchor="start" x="447.5" y="-220" font-family="Helvetica,sans-Serif" font-size="10.00">data_structures::tree</text>
<text text-anchor="middle" x="515.5" y="-209" font-family="Helvetica,sans-Serif" font-size="10.00">_234::Tree234::TryRightRotate</text>
</a>
</g>
</g>
<!-- Node18&#45;&gt;Node35 -->
<g id="edge39" class="edge">
<title>Node18&#45;&gt;Node35</title>
<path fill="none" stroke="#63b8ff" d="M368.24,-265.53C377.51,-262.75 387.05,-259.83 396,-257 416.7,-250.44 439.3,-242.91 459.17,-236.16"/>
<polygon fill="#63b8ff" stroke="#63b8ff" points="460.13,-239.53 468.46,-232.99 457.87,-232.9 460.13,-239.53"/>
</g>
<!-- Node20 -->
<g id="node20" class="node">
<title>Node20</title>
<g id="a_node20"><a xlink:href="../../dd/d40/classdata__structures_1_1tree__234_1_1_node.html#a2753b6053b8c86c5bd987a44fdfa0a57" target="_top" xlink:title="Get max item (rightmost) in the current node.">
<polygon fill="white" stroke="#666666" points="776.5,-174 649.5,-174 649.5,-144 776.5,-144 776.5,-174"/>
<text text-anchor="start" x="657.5" y="-162" font-family="Helvetica,sans-Serif" font-size="10.00">data_structures::tree</text>
<text text-anchor="middle" x="713" y="-151" font-family="Helvetica,sans-Serif" font-size="10.00">_234::Node::GetMaxItem</text>
</a>
</g>
</g>
<!-- Node19&#45;&gt;Node20 -->
<g id="edge20" class="edge">
<title>Node19&#45;&gt;Node20</title>
<path fill="none" stroke="#63b8ff" d="M594.89,-142.23C609.14,-144.27 623.96,-146.39 638.08,-148.41"/>
<polygon fill="#63b8ff" stroke="#63b8ff" points="637.33,-151.84 647.72,-149.79 638.32,-144.91 637.33,-151.84"/>
</g>
<!-- Node21 -->
<g id="node21" class="node">
<title>Node21</title>
<g id="a_node21"><a xlink:href="../../dd/d40/classdata__structures_1_1tree__234_1_1_node.html#a731f9ae385840cf0a06d55e7f9924a94" target="_top" xlink:title="Get rightmose child of the current node.">
<polygon fill="white" stroke="#666666" points="791,-126 635,-126 635,-96 791,-96 791,-126"/>
<text text-anchor="start" x="643" y="-114" font-family="Helvetica,sans-Serif" font-size="10.00">data_structures::tree</text>
<text text-anchor="middle" x="713" y="-103" font-family="Helvetica,sans-Serif" font-size="10.00">_234::Node::GetRightmostChild</text>
</a>
</g>
</g>
<!-- Node19&#45;&gt;Node21 -->
<g id="edge21" class="edge">
<title>Node19&#45;&gt;Node21</title>
<path fill="none" stroke="#63b8ff" d="M594.89,-122.98C604.18,-122.03 613.71,-121.05 623.13,-120.09"/>
<polygon fill="#63b8ff" stroke="#63b8ff" points="623.45,-123.58 633.04,-119.08 622.74,-116.61 623.45,-123.58"/>
</g>
<!-- Node23 -->
<g id="node23" class="node">
<title>Node23</title>
<g id="a_node23"><a xlink:href="../../dd/d40/classdata__structures_1_1tree__234_1_1_node.html#ac6f619a1605cb46196360889fff4529e" target="_top" xlink:title="Get leftmose child of the current node.">
<polygon fill="white" stroke="#666666" points="787.5,-78 638.5,-78 638.5,-48 787.5,-48 787.5,-78"/>
<text text-anchor="start" x="646.5" y="-66" font-family="Helvetica,sans-Serif" font-size="10.00">data_structures::tree</text>
<text text-anchor="middle" x="713" y="-55" font-family="Helvetica,sans-Serif" font-size="10.00">_234::Node::GetLeftmostChild</text>
</a>
</g>
</g>
<!-- Node22&#45;&gt;Node23 -->
<g id="edge23" class="edge">
<title>Node22&#45;&gt;Node23</title>
<path fill="none" stroke="#63b8ff" d="M593.49,-63C604.43,-63 615.74,-63 626.83,-63"/>
<polygon fill="#63b8ff" stroke="#63b8ff" points="626.76,-66.5 636.76,-63 626.76,-59.5 626.76,-66.5"/>
</g>
<!-- Node24 -->
<g id="node24" class="node">
<title>Node24</title>
<g id="a_node24"><a xlink:href="../../dd/d40/classdata__structures_1_1tree__234_1_1_node.html#a5438d0a47850f520b2262b5a42f75b71" target="_top" xlink:title="get min item (leftmost) in the current node">
<polygon fill="white" stroke="#666666" points="775,-30 651,-30 651,0 775,0 775,-30"/>
<text text-anchor="start" x="659" y="-18" font-family="Helvetica,sans-Serif" font-size="10.00">data_structures::tree</text>
<text text-anchor="middle" x="713" y="-7" font-family="Helvetica,sans-Serif" font-size="10.00">_234::Node::GetMinItem</text>
</a>
</g>
</g>
<!-- Node22&#45;&gt;Node24 -->
<g id="edge24" class="edge">
<title>Node22&#45;&gt;Node24</title>
<path fill="none" stroke="#63b8ff" d="M579.43,-47.55C598.56,-42.85 619.73,-37.66 639.43,-32.82"/>
<polygon fill="#63b8ff" stroke="#63b8ff" points="640.17,-36.24 649.05,-30.46 638.5,-29.44 640.17,-36.24"/>
</g>
<!-- Node28&#45;&gt;Node10 -->
<g id="edge32" class="edge">
<title>Node28&#45;&gt;Node10</title>
<path fill="none" stroke="#63b8ff" d="M571.8,-404.3C581.76,-407.83 591.38,-412.86 599,-420 633.17,-452 601.13,-486.67 635,-519 638.69,-522.52 642.89,-525.53 647.37,-528.09"/>
<polygon fill="#63b8ff" stroke="#63b8ff" points="645.69,-531.16 656.21,-532.37 648.74,-524.86 645.69,-531.16"/>
</g>
<!-- Node28&#45;&gt;Node25 -->
<g id="edge31" class="edge">
<title>Node28&#45;&gt;Node25</title>
<path fill="none" stroke="#63b8ff" d="M537.31,-380.76C554.72,-367.52 579.73,-347.32 599,-327 617.35,-307.65 613.22,-294.38 635,-279 638.86,-276.27 643.04,-273.85 647.39,-271.7"/>
<polygon fill="#63b8ff" stroke="#63b8ff" points="648.64,-274.97 656.39,-267.75 645.83,-268.56 648.64,-274.97"/>
</g>
<!-- Node29 -->
<g id="node29" class="node">
<title>Node29</title>
<g id="a_node29"><a xlink:href="../../dd/d40/classdata__structures_1_1tree__234_1_1_node.html#a164574a9209b5df66368530d090b32c4" target="_top" xlink:title="Get the child pointer at position of index.">
<polygon fill="white" stroke="#666666" points="768.5,-366 657.5,-366 657.5,-336 768.5,-336 768.5,-366"/>
<text text-anchor="start" x="665.5" y="-354" font-family="Helvetica,sans-Serif" font-size="10.00">data_structures::tree</text>
<text text-anchor="middle" x="713" y="-343" font-family="Helvetica,sans-Serif" font-size="10.00">_234::Node::GetChild</text>
</a>
</g>
</g>
<!-- Node28&#45;&gt;Node29 -->
<g id="edge29" class="edge">
<title>Node28&#45;&gt;Node29</title>
<path fill="none" stroke="#63b8ff" d="M572,-383.23C595,-377.93 621.86,-371.75 645.87,-366.22"/>
<polygon fill="#63b8ff" stroke="#63b8ff" points="646.6,-369.64 655.56,-363.99 645.03,-362.82 646.6,-369.64"/>
</g>
<!-- Node30 -->
<g id="node30" class="node">
<title>Node30</title>
<g id="a_node30"><a xlink:href="../../dd/d40/classdata__structures_1_1tree__234_1_1_node.html#a4808acb43668ff8cfd6f7cb44ceedad3" target="_top" xlink:title="Get item of the \index index.">
<polygon fill="white" stroke="#666666" points="767,-510 659,-510 659,-480 767,-480 767,-510"/>
<text text-anchor="start" x="667" y="-498" font-family="Helvetica,sans-Serif" font-size="10.00">data_structures::tree</text>
<text text-anchor="middle" x="713" y="-487" font-family="Helvetica,sans-Serif" font-size="10.00">_234::Node::GetItem</text>
</a>
</g>
</g>
<!-- Node28&#45;&gt;Node30 -->
<g id="edge30" class="edge">
<title>Node28&#45;&gt;Node30</title>
<path fill="none" stroke="#63b8ff" d="M571.7,-406.44C581.34,-409.79 590.86,-414.2 599,-420 621.59,-436.11 612.57,-454.67 635,-471 639.12,-474 643.63,-476.63 648.33,-478.94"/>
<polygon fill="#63b8ff" stroke="#63b8ff" points="646.9,-482.14 657.47,-482.9 649.68,-475.71 646.9,-482.14"/>
</g>
<!-- Node31 -->
<g id="node31" class="node">
<title>Node31</title>
<g id="a_node31"><a xlink:href="../../dd/d40/classdata__structures_1_1tree__234_1_1_node.html#af564fd4b0992fff69f90de201542d3d1" target="_top" xlink:title="Set the item count of the node.">
<polygon fill="white" stroke="#666666" points="770,-462 656,-462 656,-432 770,-432 770,-462"/>
<text text-anchor="start" x="664" y="-450" font-family="Helvetica,sans-Serif" font-size="10.00">data_structures::tree</text>
<text text-anchor="middle" x="713" y="-439" font-family="Helvetica,sans-Serif" font-size="10.00">_234::Node::SetCount</text>
</a>
</g>
</g>
<!-- Node28&#45;&gt;Node31 -->
<g id="edge33" class="edge">
<title>Node28&#45;&gt;Node31</title>
<path fill="none" stroke="#63b8ff" d="M572,-410.48C594.61,-416.38 620.95,-423.25 644.65,-429.43"/>
<polygon fill="#63b8ff" stroke="#63b8ff" points="643.66,-432.79 654.22,-431.93 645.43,-426.02 643.66,-432.79"/>
</g>
<!-- Node32 -->
<g id="node32" class="node">
<title>Node32</title>
<g id="a_node32"><a xlink:href="../../dd/d40/classdata__structures_1_1tree__234_1_1_node.html#aaa89a3016b5dd1be3552321c34343cbc" target="_top" xlink:title="Set item value at position of index.">
<polygon fill="white" stroke="#666666" points="766.5,-414 659.5,-414 659.5,-384 766.5,-384 766.5,-414"/>
<text text-anchor="start" x="667.5" y="-402" font-family="Helvetica,sans-Serif" font-size="10.00">data_structures::tree</text>
<text text-anchor="middle" x="713" y="-391" font-family="Helvetica,sans-Serif" font-size="10.00">_234::Node::SetItem</text>
</a>
</g>
</g>
<!-- Node28&#45;&gt;Node32 -->
<g id="edge34" class="edge">
<title>Node28&#45;&gt;Node32</title>
<path fill="none" stroke="#63b8ff" d="M572,-396.85C595.58,-397.21 623.23,-397.64 647.7,-398.01"/>
<polygon fill="#63b8ff" stroke="#63b8ff" points="647.49,-401.51 657.54,-398.16 647.6,-394.51 647.49,-401.51"/>
</g>
<!-- Node34&#45;&gt;Node25 -->
<g id="edge37" class="edge">
<title>Node34&#45;&gt;Node25</title>
<path fill="none" stroke="#63b8ff" d="M579.43,-287.55C600.92,-282.27 624.98,-276.37 646.65,-271.05"/>
<polygon fill="#63b8ff" stroke="#63b8ff" points="647.39,-274.47 656.26,-268.68 645.72,-267.67 647.39,-274.47"/>
</g>
<!-- Node34&#45;&gt;Node27 -->
<g id="edge38" class="edge">
<title>Node34&#45;&gt;Node27</title>
<path fill="none" stroke="#63b8ff" d="M588.46,-303C603.97,-303 620.41,-303 636.06,-303"/>
<polygon fill="#63b8ff" stroke="#63b8ff" points="635.78,-306.5 645.78,-303 635.78,-299.5 635.78,-306.5"/>
</g>
<!-- Node35&#45;&gt;Node25 -->
<g id="edge40" class="edge">
<title>Node35&#45;&gt;Node25</title>
<path fill="none" stroke="#63b8ff" d="M591.81,-231.64C609.81,-235.14 628.88,-238.84 646.4,-242.25"/>
<polygon fill="#63b8ff" stroke="#63b8ff" points="645.7,-245.68 656.18,-244.15 647.03,-238.81 645.7,-245.68"/>
</g>
<!-- Node35&#45;&gt;Node33 -->
<g id="edge41" class="edge">
<title>Node35&#45;&gt;Node33</title>
<path fill="none" stroke="#63b8ff" d="M591.81,-213.15C605.25,-212.46 619.3,-211.74 632.85,-211.05"/>
<polygon fill="#63b8ff" stroke="#63b8ff" points="632.77,-214.56 642.58,-210.55 632.41,-207.57 632.77,-214.56"/>
</g>
</g>
</svg>
