<?xml version="1.0" encoding="UTF-8" standalone="no"?>
<!DOCTYPE svg PUBLIC "-//W3C//DTD SVG 1.1//EN"
 "http://www.w3.org/Graphics/SVG/1.1/DTD/svg11.dtd">
<!-- Generated by graphviz version 8.0.2 (20230410.1723)
 -->
<!-- Title: add Pages: 1 -->
<svg width="189pt" height="175pt"
 viewBox="0.00 0.00 189.00 175.00" xmlns="http://www.w3.org/2000/svg" xmlns:xlink="http://www.w3.org/1999/xlink">
<g id="graph0" class="graph" transform="scale(1 1) rotate(0) translate(4 171)">
<title>add</title>
<!-- Node1 -->
<g id="node1" class="node">
<title>Node1</title>
<g id="a_node1"><a xlink:title="Adding two string.">
<polygon fill="#999999" stroke="#666666" points="32,-93 0,-93 0,-74 32,-74 32,-93"/>
<text text-anchor="middle" x="16" y="-81" font-family="Helvetica,sans-Serif" font-size="10.00">add</text>
</a>
</g>
</g>
<!-- Node2 -->
<g id="node2" class="node">
<title>Node2</title>
<g id="a_node2"><a target="_blank" xlink:href="http://en.cppreference.com/w/cpp/string/basic_string/begin.html#" xlink:title=" ">
<polygon fill="white" stroke="#666666" points="169,-167 80,-167 80,-148 169,-148 169,-167"/>
<text text-anchor="middle" x="124.5" y="-155" font-family="Helvetica,sans-Serif" font-size="10.00">std::string::begin</text>
</a>
</g>
</g>
<!-- Node1&#45;&gt;Node2 -->
<g id="edge1" class="edge">
<title>Node1&#45;&gt;Node2</title>
<path fill="none" stroke="#63b8ff" d="M23.43,-93.24C32.12,-105.68 48.77,-127.1 68,-139.5 70.01,-140.79 72.11,-142 74.28,-143.13"/>
<polygon fill="#63b8ff" stroke="#63b8ff" points="72.56,-146.64 83.12,-147.57 75.44,-140.26 72.56,-146.64"/>
</g>
<!-- Node3 -->
<g id="node3" class="node">
<title>Node3</title>
<g id="a_node3"><a target="_blank" xlink:href="http://en.cppreference.com/w/cpp/string/basic_string/end.html#" xlink:title=" ">
<polygon fill="white" stroke="#666666" points="165.5,-130 83.5,-130 83.5,-111 165.5,-111 165.5,-130"/>
<text text-anchor="middle" x="124.5" y="-118" font-family="Helvetica,sans-Serif" font-size="10.00">std::string::end</text>
</a>
</g>
</g>
<!-- Node1&#45;&gt;Node3 -->
<g id="edge2" class="edge">
<title>Node1&#45;&gt;Node3</title>
<path fill="none" stroke="#63b8ff" d="M32.11,-89.32C42.23,-93.18 55.86,-98.27 68,-102.5 72.48,-104.06 77.18,-105.65 81.86,-107.21"/>
<polygon fill="#63b8ff" stroke="#63b8ff" points="80.42,-110.75 91.02,-110.55 82.61,-104.1 80.42,-110.75"/>
</g>
<!-- Node4 -->
<g id="node4" class="node">
<title>Node4</title>
<g id="a_node4"><a target="_blank" xlink:href="http://en.cppreference.com/w/cpp/string/basic_string/push_back.html#" xlink:title=" ">
<polygon fill="white" stroke="#666666" points="181,-93 68,-93 68,-74 181,-74 181,-93"/>
<text text-anchor="middle" x="124.5" y="-81" font-family="Helvetica,sans-Serif" font-size="10.00">std::string::push_back</text>
</a>
</g>
</g>
<!-- Node1&#45;&gt;Node4 -->
<g id="edge3" class="edge">
<title>Node1&#45;&gt;Node4</title>
<path fill="none" stroke="#63b8ff" d="M32.26,-83.5C39.12,-83.5 47.74,-83.5 56.92,-83.5"/>
<polygon fill="#63b8ff" stroke="#63b8ff" points="56.89,-87 66.89,-83.5 56.89,-80 56.89,-87"/>
</g>
<!-- Node5 -->
<g id="node5" class="node">
<title>Node5</title>
<g id="a_node5"><a target="_blank" xlink:href="http://en.cppreference.com/w/cpp/algorithm/reverse.html#" xlink:title=" ">
<polygon fill="white" stroke="#666666" points="158.5,-56 90.5,-56 90.5,-37 158.5,-37 158.5,-56"/>
<text text-anchor="middle" x="124.5" y="-44" font-family="Helvetica,sans-Serif" font-size="10.00">std::reverse</text>
</a>
</g>
</g>
<!-- Node1&#45;&gt;Node5 -->
<g id="edge4" class="edge">
<title>Node1&#45;&gt;Node5</title>
<path fill="none" stroke="#63b8ff" d="M32.16,-78.11C42.3,-74.51 55.94,-69.69 68,-65.5 73.22,-63.69 78.71,-61.79 84.14,-59.92"/>
<polygon fill="#63b8ff" stroke="#63b8ff" points="85.07,-62.96 93.39,-56.41 82.8,-56.34 85.07,-62.96"/>
</g>
<!-- Node6 -->
<g id="node6" class="node">
<title>Node6</title>
<g id="a_node6"><a target="_blank" xlink:href="http://en.cppreference.com/w/cpp/string/basic_string/size.html#" xlink:title=" ">
<polygon fill="white" stroke="#666666" points="166.5,-19 82.5,-19 82.5,0 166.5,0 166.5,-19"/>
<text text-anchor="middle" x="124.5" y="-7" font-family="Helvetica,sans-Serif" font-size="10.00">std::string::size</text>
</a>
</g>
</g>
<!-- Node1&#45;&gt;Node6 -->
<g id="edge5" class="edge">
<title>Node1&#45;&gt;Node6</title>
<path fill="none" stroke="#63b8ff" d="M23.8,-73.56C32.65,-61.34 49.22,-40.71 68,-28.5 70.6,-26.81 73.37,-25.25 76.23,-23.82"/>
<polygon fill="#63b8ff" stroke="#63b8ff" points="77.45,-26.66 85.19,-19.42 74.62,-20.26 77.45,-26.66"/>
</g>
</g>
</svg>
