<?xml version="1.0" encoding="UTF-8" standalone="no"?>
<!DOCTYPE svg PUBLIC "-//W3C//DTD SVG 1.1//EN"
 "http://www.w3.org/Graphics/SVG/1.1/DTD/svg11.dtd">
<!-- Generated by graphviz version 8.0.2 (20230410.1723)
 -->
<!-- Title: math/check_amicable_pair.cpp Pages: 1 -->
<svg width="130pt" height="93pt"
 viewBox="0.00 0.00 129.50 93.00" xmlns="http://www.w3.org/2000/svg" xmlns:xlink="http://www.w3.org/1999/xlink">
<g id="graph0" class="graph" transform="scale(1 1) rotate(0) translate(4 89)">
<title>math/check_amicable_pair.cpp</title>
<!-- Node1 -->
<g id="node1" class="node">
<title>Node1</title>
<g id="a_node1"><a xlink:title="A C++ Program to check whether a pair of number is amicable pair or not.">
<polygon fill="#999999" stroke="#666666" points="115.5,-85 3.5,-85 3.5,-55 115.5,-55 115.5,-85"/>
<text text-anchor="start" x="11.5" y="-73" font-family="Helvetica,sans-Serif" font-size="10.00">math/check_amicable</text>
<text text-anchor="middle" x="59.5" y="-62" font-family="Helvetica,sans-Serif" font-size="10.00">_pair.cpp</text>
</a>
</g>
</g>
<!-- Node2 -->
<g id="node2" class="node">
<title>Node2</title>
<g id="a_node2"><a xlink:title=" ">
<polygon fill="#e0e0e0" stroke="#999999" points="49,-19 0,-19 0,0 49,0 49,-19"/>
<text text-anchor="middle" x="24.5" y="-7" font-family="Helvetica,sans-Serif" font-size="10.00">cassert</text>
</a>
</g>
</g>
<!-- Node1&#45;&gt;Node2 -->
<g id="edge1" class="edge">
<title>Node1&#45;&gt;Node2</title>
<path fill="none" stroke="#63b8ff" d="M50.85,-54.54C46.13,-46.65 40.24,-36.81 35.23,-28.44"/>
<polygon fill="#63b8ff" stroke="#63b8ff" points="37.83,-26.96 29.69,-20.18 31.82,-30.55 37.83,-26.96"/>
</g>
<!-- Node3 -->
<g id="node3" class="node">
<title>Node3</title>
<g id="a_node3"><a xlink:title=" ">
<polygon fill="#e0e0e0" stroke="#999999" points="121.5,-19 67.5,-19 67.5,0 121.5,0 121.5,-19"/>
<text text-anchor="middle" x="94.5" y="-7" font-family="Helvetica,sans-Serif" font-size="10.00">iostream</text>
</a>
</g>
</g>
<!-- Node1&#45;&gt;Node3 -->
<g id="edge2" class="edge">
<title>Node1&#45;&gt;Node3</title>
<path fill="none" stroke="#63b8ff" d="M68.15,-54.54C72.87,-46.65 78.76,-36.81 83.77,-28.44"/>
<polygon fill="#63b8ff" stroke="#63b8ff" points="87.18,-30.55 89.31,-20.18 81.17,-26.96 87.18,-30.55"/>
</g>
</g>
</svg>
