<?xml version="1.0" encoding="UTF-8" standalone="no"?>
<!DOCTYPE svg PUBLIC "-//W3C//DTD SVG 1.1//EN"
 "http://www.w3.org/Graphics/SVG/1.1/DTD/svg11.dtd">
<!-- Generated by graphviz version 2.49.3 (20211023.0002)
 -->
<!-- Title: range_queries/heavy_light_decomposition.cpp Pages: 1 -->
<svg width="573pt" height="95pt"
 viewBox="0.00 0.00 573.00 95.00" xmlns="http://www.w3.org/2000/svg" xmlns:xlink="http://www.w3.org/1999/xlink">
<g id="graph0" class="graph" transform="scale(1 1) rotate(0) translate(4 91)">
<title>range_queries/heavy_light_decomposition.cpp</title>
<polygon fill="white" stroke="transparent" points="-4,4 -4,-91 569,-91 569,4 -4,4"/>
<!-- Node1 -->
<g id="node1" class="node">
<title>Node1</title>
<g id="a_node1"><a xlink:title="Heavy Light Decomposition implementation">
<polygon fill="#bfbfbf" stroke="black" points="233.5,-56.5 233.5,-86.5 362.5,-86.5 362.5,-56.5 233.5,-56.5"/>
<text text-anchor="start" x="241.5" y="-74.5" font-family="Helvetica,sans-Serif" font-size="10.00">range_queries/heavy</text>
<text text-anchor="middle" x="298" y="-63.5" font-family="Helvetica,sans-Serif" font-size="10.00">_light_decomposition.cpp</text>
</a>
</g>
</g>
<!-- Node2 -->
<g id="node2" class="node">
<title>Node2</title>
<g id="a_node2"><a xlink:title=" ">
<polygon fill="white" stroke="#bfbfbf" points="0,-0.5 0,-19.5 58,-19.5 58,-0.5 0,-0.5"/>
<text text-anchor="middle" x="29" y="-7.5" font-family="Helvetica,sans-Serif" font-size="10.00">algorithm</text>
</a>
</g>
</g>
<!-- Node1&#45;&gt;Node2 -->
<g id="edge1" class="edge">
<title>Node1&#45;&gt;Node2</title>
<path fill="none" stroke="midnightblue" d="M233.21,-56.65C189.22,-47.17 129.48,-34.16 67.93,-20.18"/>
<polygon fill="midnightblue" stroke="midnightblue" points="68.56,-16.74 58.03,-17.93 67.01,-23.56 68.56,-16.74"/>
</g>
<!-- Node3 -->
<g id="node3" class="node">
<title>Node3</title>
<g id="a_node3"><a xlink:title=" ">
<polygon fill="white" stroke="#bfbfbf" points="76.5,-0.5 76.5,-19.5 125.5,-19.5 125.5,-0.5 76.5,-0.5"/>
<text text-anchor="middle" x="101" y="-7.5" font-family="Helvetica,sans-Serif" font-size="10.00">cassert</text>
</a>
</g>
</g>
<!-- Node1&#45;&gt;Node3 -->
<g id="edge2" class="edge">
<title>Node1&#45;&gt;Node3</title>
<path fill="none" stroke="midnightblue" d="M251.31,-56.4C215.79,-45.67 167.7,-31.14 135.57,-21.44"/>
<polygon fill="midnightblue" stroke="midnightblue" points="136.33,-18.01 125.74,-18.47 134.3,-24.71 136.33,-18.01"/>
</g>
<!-- Node4 -->
<g id="node4" class="node">
<title>Node4</title>
<g id="a_node4"><a xlink:title=" ">
<polygon fill="white" stroke="#bfbfbf" points="144,-0.5 144,-19.5 188,-19.5 188,-0.5 144,-0.5"/>
<text text-anchor="middle" x="166" y="-7.5" font-family="Helvetica,sans-Serif" font-size="10.00">cmath</text>
</a>
</g>
</g>
<!-- Node1&#45;&gt;Node4 -->
<g id="edge3" class="edge">
<title>Node1&#45;&gt;Node4</title>
<path fill="none" stroke="midnightblue" d="M266.72,-56.4C244.77,-46.51 215.66,-33.38 194.38,-23.79"/>
<polygon fill="midnightblue" stroke="midnightblue" points="195.76,-20.58 185.21,-19.66 192.89,-26.96 195.76,-20.58"/>
</g>
<!-- Node5 -->
<g id="node5" class="node">
<title>Node5</title>
<g id="a_node5"><a xlink:title=" ">
<polygon fill="white" stroke="#bfbfbf" points="206,-0.5 206,-19.5 252,-19.5 252,-0.5 206,-0.5"/>
<text text-anchor="middle" x="229" y="-7.5" font-family="Helvetica,sans-Serif" font-size="10.00">cstring</text>
</a>
</g>
</g>
<!-- Node1&#45;&gt;Node5 -->
<g id="edge4" class="edge">
<title>Node1&#45;&gt;Node5</title>
<path fill="none" stroke="midnightblue" d="M281.65,-56.4C271.1,-47.31 257.4,-35.49 246.62,-26.19"/>
<polygon fill="midnightblue" stroke="midnightblue" points="248.9,-23.54 239.04,-19.66 244.33,-28.84 248.9,-23.54"/>
</g>
<!-- Node6 -->
<g id="node6" class="node">
<title>Node6</title>
<g id="a_node6"><a xlink:title=" ">
<polygon fill="white" stroke="#bfbfbf" points="270.5,-0.5 270.5,-19.5 325.5,-19.5 325.5,-0.5 270.5,-0.5"/>
<text text-anchor="middle" x="298" y="-7.5" font-family="Helvetica,sans-Serif" font-size="10.00">iostream</text>
</a>
</g>
</g>
<!-- Node1&#45;&gt;Node6 -->
<g id="edge5" class="edge">
<title>Node1&#45;&gt;Node6</title>
<path fill="none" stroke="midnightblue" d="M298,-56.4C298,-48.47 298,-38.46 298,-29.86"/>
<polygon fill="midnightblue" stroke="midnightblue" points="301.5,-29.66 298,-19.66 294.5,-29.66 301.5,-29.66"/>
</g>
<!-- Node7 -->
<g id="node7" class="node">
<title>Node7</title>
<g id="a_node7"><a xlink:title=" ">
<polygon fill="white" stroke="#bfbfbf" points="343.5,-0.5 343.5,-19.5 372.5,-19.5 372.5,-0.5 343.5,-0.5"/>
<text text-anchor="middle" x="358" y="-7.5" font-family="Helvetica,sans-Serif" font-size="10.00">list</text>
</a>
</g>
</g>
<!-- Node1&#45;&gt;Node7 -->
<g id="edge6" class="edge">
<title>Node1&#45;&gt;Node7</title>
<path fill="none" stroke="midnightblue" d="M312.22,-56.4C321.21,-47.49 332.84,-35.95 342.13,-26.74"/>
<polygon fill="midnightblue" stroke="midnightblue" points="344.63,-29.18 349.27,-19.66 339.7,-24.21 344.63,-29.18"/>
</g>
<!-- Node8 -->
<g id="node8" class="node">
<title>Node8</title>
<g id="a_node8"><a xlink:title=" ">
<polygon fill="white" stroke="#bfbfbf" points="391,-0.5 391,-19.5 443,-19.5 443,-0.5 391,-0.5"/>
<text text-anchor="middle" x="417" y="-7.5" font-family="Helvetica,sans-Serif" font-size="10.00">numeric</text>
</a>
</g>
</g>
<!-- Node1&#45;&gt;Node8 -->
<g id="edge7" class="edge">
<title>Node1&#45;&gt;Node8</title>
<path fill="none" stroke="midnightblue" d="M326.2,-56.4C345.72,-46.64 371.53,-33.74 390.63,-24.18"/>
<polygon fill="midnightblue" stroke="midnightblue" points="392.31,-27.26 399.68,-19.66 389.17,-21 392.31,-27.26"/>
</g>
<!-- Node9 -->
<g id="node9" class="node">
<title>Node9</title>
<g id="a_node9"><a xlink:title=" ">
<polygon fill="white" stroke="#bfbfbf" points="461.5,-0.5 461.5,-19.5 502.5,-19.5 502.5,-0.5 461.5,-0.5"/>
<text text-anchor="middle" x="482" y="-7.5" font-family="Helvetica,sans-Serif" font-size="10.00">string</text>
</a>
</g>
</g>
<!-- Node1&#45;&gt;Node9 -->
<g id="edge8" class="edge">
<title>Node1&#45;&gt;Node9</title>
<path fill="none" stroke="midnightblue" d="M341.61,-56.4C375.45,-45.46 421.5,-30.56 451.49,-20.87"/>
<polygon fill="midnightblue" stroke="midnightblue" points="452.94,-24.08 461.38,-17.67 450.79,-17.42 452.94,-24.08"/>
</g>
<!-- Node10 -->
<g id="node10" class="node">
<title>Node10</title>
<g id="a_node10"><a xlink:title=" ">
<polygon fill="white" stroke="#bfbfbf" points="521,-0.5 521,-19.5 565,-19.5 565,-0.5 521,-0.5"/>
<text text-anchor="middle" x="543" y="-7.5" font-family="Helvetica,sans-Serif" font-size="10.00">vector</text>
</a>
</g>
</g>
<!-- Node1&#45;&gt;Node10 -->
<g id="edge9" class="edge">
<title>Node1&#45;&gt;Node10</title>
<path fill="none" stroke="midnightblue" d="M361.42,-56.42C401.78,-47.26 455.36,-34.71 511.01,-20.17"/>
<polygon fill="midnightblue" stroke="midnightblue" points="511.91,-23.55 520.69,-17.62 510.13,-16.78 511.91,-23.55"/>
</g>
</g>
</svg>
