<?xml version="1.0" encoding="UTF-8" standalone="no"?>
<!DOCTYPE svg PUBLIC "-//W3C//DTD SVG 1.1//EN"
 "http://www.w3.org/Graphics/SVG/1.1/DTD/svg11.dtd">
<!-- Generated by graphviz version 8.0.5 (20230430.1635)
 -->
<!-- Title: range_queries/heavy_light_decomposition.cpp Pages: 1 -->
<svg width="560pt" height="94pt"
 viewBox="0.00 0.00 560.38 93.75" xmlns="http://www.w3.org/2000/svg" xmlns:xlink="http://www.w3.org/1999/xlink">
<g id="graph0" class="graph" transform="scale(1 1) rotate(0) translate(4 89.75)">
<title>range_queries/heavy_light_decomposition.cpp</title>
<!-- Node1 -->
<g id="node1" class="node">
<title>Node1</title>
<g id="a_node1"><a xlink:title="Heavy Light Decomposition implementation">
<polygon fill="#999999" stroke="#666666" points="354,-85.75 227.75,-85.75 227.75,-55.25 354,-55.25 354,-85.75"/>
<text text-anchor="start" x="235.75" y="-72.25" font-family="Helvetica,sans-Serif" font-size="10.00">range_queries/heavy</text>
<text text-anchor="middle" x="290.88" y="-61" font-family="Helvetica,sans-Serif" font-size="10.00">_light_decomposition.cpp</text>
</a>
</g>
</g>
<!-- Node2 -->
<g id="node2" class="node">
<title>Node2</title>
<g id="a_node2"><a xlink:title=" ">
<polygon fill="#e0e0e0" stroke="#999999" points="55.75,-19.25 0,-19.25 0,0 55.75,0 55.75,-19.25"/>
<text text-anchor="middle" x="27.88" y="-5.75" font-family="Helvetica,sans-Serif" font-size="10.00">algorithm</text>
</a>
</g>
</g>
<!-- Node1&#45;&gt;Node2 -->
<g id="edge1" class="edge">
<title>Node1&#45;&gt;Node2</title>
<path fill="none" stroke="#63b8ff" d="M227.52,-55.59C184.67,-46.15 126.52,-33.25 66.57,-19.62"/>
<polygon fill="#63b8ff" stroke="#63b8ff" points="67.68,-16.05 57.15,-17.25 66.12,-22.88 67.68,-16.05"/>
</g>
<!-- Node3 -->
<g id="node3" class="node">
<title>Node3</title>
<g id="a_node3"><a xlink:title=" ">
<polygon fill="#e0e0e0" stroke="#999999" points="122,-19.25 73.75,-19.25 73.75,0 122,0 122,-19.25"/>
<text text-anchor="middle" x="97.88" y="-5.75" font-family="Helvetica,sans-Serif" font-size="10.00">cassert</text>
</a>
</g>
</g>
<!-- Node1&#45;&gt;Node3 -->
<g id="edge2" class="edge">
<title>Node1&#45;&gt;Node3</title>
<path fill="none" stroke="#63b8ff" d="M242.67,-54.8C208.41,-44.35 163.22,-30.56 132.49,-21.19"/>
<polygon fill="#63b8ff" stroke="#63b8ff" points="133.86,-17.64 123.27,-18.07 131.81,-24.33 133.86,-17.64"/>
</g>
<!-- Node4 -->
<g id="node4" class="node">
<title>Node4</title>
<g id="a_node4"><a xlink:title=" ">
<polygon fill="#e0e0e0" stroke="#999999" points="183.38,-19.25 140.38,-19.25 140.38,0 183.38,0 183.38,-19.25"/>
<text text-anchor="middle" x="161.88" y="-5.75" font-family="Helvetica,sans-Serif" font-size="10.00">cmath</text>
</a>
</g>
</g>
<!-- Node1&#45;&gt;Node4 -->
<g id="edge3" class="edge">
<title>Node1&#45;&gt;Node4</title>
<path fill="none" stroke="#63b8ff" d="M258.66,-54.8C238.07,-45.4 211.56,-33.3 191.5,-24.14"/>
<polygon fill="#63b8ff" stroke="#63b8ff" points="193.21,-20.62 182.66,-19.65 190.3,-26.99 193.21,-20.62"/>
</g>
<!-- Node5 -->
<g id="node5" class="node">
<title>Node5</title>
<g id="a_node5"><a xlink:title=" ">
<polygon fill="#e0e0e0" stroke="#999999" points="246.5,-19.25 201.25,-19.25 201.25,0 246.5,0 246.5,-19.25"/>
<text text-anchor="middle" x="223.88" y="-5.75" font-family="Helvetica,sans-Serif" font-size="10.00">cstring</text>
</a>
</g>
</g>
<!-- Node1&#45;&gt;Node5 -->
<g id="edge4" class="edge">
<title>Node1&#45;&gt;Node5</title>
<path fill="none" stroke="#63b8ff" d="M274.31,-54.95C264.6,-46.41 252.31,-35.62 242.3,-26.81"/>
<polygon fill="#63b8ff" stroke="#63b8ff" points="245.03,-23.67 235.2,-19.7 240.41,-28.93 245.03,-23.67"/>
</g>
<!-- Node6 -->
<g id="node6" class="node">
<title>Node6</title>
<g id="a_node6"><a xlink:title=" ">
<polygon fill="#e0e0e0" stroke="#999999" points="317.62,-19.25 264.12,-19.25 264.12,0 317.62,0 317.62,-19.25"/>
<text text-anchor="middle" x="290.88" y="-5.75" font-family="Helvetica,sans-Serif" font-size="10.00">iostream</text>
</a>
</g>
</g>
<!-- Node1&#45;&gt;Node6 -->
<g id="edge5" class="edge">
<title>Node1&#45;&gt;Node6</title>
<path fill="none" stroke="#63b8ff" d="M290.88,-54.95C290.88,-47.62 290.88,-38.62 290.88,-30.66"/>
<polygon fill="#63b8ff" stroke="#63b8ff" points="294.38,-30.7 290.88,-20.7 287.38,-30.7 294.38,-30.7"/>
</g>
<!-- Node7 -->
<g id="node7" class="node">
<title>Node7</title>
<g id="a_node7"><a xlink:title=" ">
<polygon fill="#e0e0e0" stroke="#999999" points="364.27,-19.25 335.48,-19.25 335.48,0 364.27,0 364.27,-19.25"/>
<text text-anchor="middle" x="349.88" y="-5.75" font-family="Helvetica,sans-Serif" font-size="10.00">list</text>
</a>
</g>
</g>
<!-- Node1&#45;&gt;Node7 -->
<g id="edge6" class="edge">
<title>Node1&#45;&gt;Node7</title>
<path fill="none" stroke="#63b8ff" d="M305.46,-54.95C313.84,-46.59 324.39,-36.05 333.11,-27.35"/>
<polygon fill="#63b8ff" stroke="#63b8ff" points="335.17,-30.24 339.78,-20.7 330.23,-25.29 335.17,-30.24"/>
</g>
<!-- Node8 -->
<g id="node8" class="node">
<title>Node8</title>
<g id="a_node8"><a xlink:title=" ">
<polygon fill="#e0e0e0" stroke="#999999" points="433.12,-19.25 382.62,-19.25 382.62,0 433.12,0 433.12,-19.25"/>
<text text-anchor="middle" x="407.88" y="-5.75" font-family="Helvetica,sans-Serif" font-size="10.00">numeric</text>
</a>
</g>
</g>
<!-- Node1&#45;&gt;Node8 -->
<g id="edge7" class="edge">
<title>Node1&#45;&gt;Node8</title>
<path fill="none" stroke="#63b8ff" d="M320.1,-54.8C338.51,-45.53 362.15,-33.63 380.25,-24.52"/>
<polygon fill="#63b8ff" stroke="#63b8ff" points="381.57,-27.28 388.93,-19.65 378.43,-21.02 381.57,-27.28"/>
</g>
<!-- Node9 -->
<g id="node9" class="node">
<title>Node9</title>
<g id="a_node9"><a xlink:title=" ">
<polygon fill="#e0e0e0" stroke="#999999" points="490.88,-19.25 450.88,-19.25 450.88,0 490.88,0 490.88,-19.25"/>
<text text-anchor="middle" x="470.88" y="-5.75" font-family="Helvetica,sans-Serif" font-size="10.00">string</text>
</a>
</g>
</g>
<!-- Node1&#45;&gt;Node9 -->
<g id="edge8" class="edge">
<title>Node1&#45;&gt;Node9</title>
<path fill="none" stroke="#63b8ff" d="M335.83,-54.8C368.52,-44.1 411.88,-29.92 440.55,-20.54"/>
<polygon fill="#63b8ff" stroke="#63b8ff" points="441.35,-23.64 449.76,-17.2 439.17,-16.99 441.35,-23.64"/>
</g>
<!-- Node10 -->
<g id="node10" class="node">
<title>Node10</title>
<g id="a_node10"><a xlink:title=" ">
<polygon fill="#e0e0e0" stroke="#999999" points="552.38,-19.25 509.38,-19.25 509.38,0 552.38,0 552.38,-19.25"/>
<text text-anchor="middle" x="530.88" y="-5.75" font-family="Helvetica,sans-Serif" font-size="10.00">vector</text>
</a>
</g>
</g>
<!-- Node1&#45;&gt;Node10 -->
<g id="edge9" class="edge">
<title>Node1&#45;&gt;Node10</title>
<path fill="none" stroke="#63b8ff" d="M354.13,-54.91C393.14,-45.76 444.44,-33.49 498.42,-19.56"/>
<polygon fill="#63b8ff" stroke="#63b8ff" points="499.08,-22.74 507.89,-16.85 497.33,-15.97 499.08,-22.74"/>
</g>
</g>
</svg>
