<?xml version="1.0" encoding="UTF-8" standalone="no"?>
<!DOCTYPE svg PUBLIC "-//W3C//DTD SVG 1.1//EN"
 "http://www.w3.org/Graphics/SVG/1.1/DTD/svg11.dtd">
<!-- Generated by graphviz version 9.0.0 (20230911.1827)
 -->
<!-- Title: range_queries::perSegTree::query Pages: 1 -->
<svg width="648pt" height="57pt"
 viewBox="0.00 0.00 648.00 56.50" xmlns="http://www.w3.org/2000/svg" xmlns:xlink="http://www.w3.org/1999/xlink">
<g id="graph0" class="graph" transform="scale(1 1) rotate(0) translate(4 52.5)">
<title>range_queries::perSegTree::query</title>
<!-- Node1 -->
<g id="Node000001" class="node">
<title>Node1</title>
<g id="a_Node000001"><a xlink:title="Querying the range from index l to index r, getting the sum of the elements whose index x satisfies l...">
<polygon fill="#999999" stroke="#666666" points="133,-30.5 0,-30.5 0,0 133,0 133,-30.5"/>
<text text-anchor="start" x="8" y="-17" font-family="Helvetica,sans-Serif" font-size="10.00">range_queries::perSegTree</text>
<text text-anchor="middle" x="66.5" y="-5.75" font-family="Helvetica,sans-Serif" font-size="10.00">::query</text>
</a>
</g>
</g>
<!-- Node2 -->
<g id="Node000002" class="node">
<title>Node2</title>
<g id="a_Node000002"><a xlink:href="../../d8/d28/classrange__queries_1_1per_seg_tree.html#ae8ae4b1835e5e8aec32f68c5059ed4d4" target="_top" xlink:title="Querying the range from index l to index r, checking at every node if it has some value to be propaga...">
<polygon fill="white" stroke="#666666" points="302,-30.5 169,-30.5 169,0 302,0 302,-30.5"/>
<text text-anchor="start" x="177" y="-17" font-family="Helvetica,sans-Serif" font-size="10.00">range_queries::perSegTree</text>
<text text-anchor="middle" x="235.5" y="-5.75" font-family="Helvetica,sans-Serif" font-size="10.00">::query</text>
</a>
</g>
</g>
<!-- Node1&#45;&gt;Node2 -->
<g id="edge1_Node000001_Node000002" class="edge">
<title>Node1&#45;&gt;Node2</title>
<g id="a_edge1_Node000001_Node000002"><a xlink:title=" ">
<path fill="none" stroke="#63b8ff" d="M133.02,-15.25C140.97,-15.25 149.15,-15.25 157.25,-15.25"/>
<polygon fill="#63b8ff" stroke="#63b8ff" points="157.1,-18.75 167.1,-15.25 157.1,-11.75 157.1,-18.75"/>
</a>
</g>
</g>
<!-- Node2&#45;&gt;Node2 -->
<g id="edge4_Node000002_Node000002" class="edge">
<title>Node2&#45;&gt;Node2</title>
<g id="a_edge4_Node000002_Node000002"><a xlink:title=" ">
<path fill="none" stroke="#63b8ff" d="M205.55,-30.99C199.44,-40.06 209.42,-48.5 235.5,-48.5 249.76,-48.5 259.21,-45.97 263.84,-42.2"/>
<polygon fill="#63b8ff" stroke="#63b8ff" points="267.28,-42.88 265.23,-32.48 260.35,-41.89 267.28,-42.88"/>
</a>
</g>
</g>
<!-- Node3 -->
<g id="Node000003" class="node">
<title>Node3</title>
<g id="a_Node000003"><a xlink:href="../../d8/d28/classrange__queries_1_1per_seg_tree.html#ace7f57935b3bb9446f11c239fd89ae79" target="_top" xlink:title="If there is some value to be propagated to the passed node, value is added to the node and the childr...">
<polygon fill="white" stroke="#666666" points="471,-30.5 338,-30.5 338,0 471,0 471,-30.5"/>
<text text-anchor="start" x="346" y="-17" font-family="Helvetica,sans-Serif" font-size="10.00">range_queries::perSegTree</text>
<text text-anchor="middle" x="404.5" y="-5.75" font-family="Helvetica,sans-Serif" font-size="10.00">::lazy</text>
</a>
</g>
</g>
<!-- Node2&#45;&gt;Node3 -->
<g id="edge2_Node000002_Node000003" class="edge">
<title>Node2&#45;&gt;Node3</title>
<g id="a_edge2_Node000002_Node000003"><a xlink:title=" ">
<path fill="none" stroke="#63b8ff" d="M302.02,-15.25C309.97,-15.25 318.15,-15.25 326.25,-15.25"/>
<polygon fill="#63b8ff" stroke="#63b8ff" points="326.1,-18.75 336.1,-15.25 326.1,-11.75 326.1,-18.75"/>
</a>
</g>
</g>
<!-- Node4 -->
<g id="Node000004" class="node">
<title>Node4</title>
<g id="a_Node000004"><a xlink:href="../../d8/d28/classrange__queries_1_1per_seg_tree.html#a0cec4b77d264521717cf9b0482c45817" target="_top" xlink:title="Creating a new node with the same values of curr node.">
<polygon fill="white" stroke="#666666" points="640,-30.5 507,-30.5 507,0 640,0 640,-30.5"/>
<text text-anchor="start" x="515" y="-17" font-family="Helvetica,sans-Serif" font-size="10.00">range_queries::perSegTree</text>
<text text-anchor="middle" x="573.5" y="-5.75" font-family="Helvetica,sans-Serif" font-size="10.00">::newKid</text>
</a>
</g>
</g>
<!-- Node3&#45;&gt;Node4 -->
<g id="edge3_Node000003_Node000004" class="edge">
<title>Node3&#45;&gt;Node4</title>
<g id="a_edge3_Node000003_Node000004"><a xlink:title=" ">
<path fill="none" stroke="#63b8ff" d="M471.02,-15.25C478.97,-15.25 487.15,-15.25 495.25,-15.25"/>
<polygon fill="#63b8ff" stroke="#63b8ff" points="495.1,-18.75 505.1,-15.25 495.1,-11.75 495.1,-18.75"/>
</a>
</g>
</g>
</g>
</svg>
