<?xml version="1.0" encoding="UTF-8" standalone="no"?>
<!DOCTYPE svg PUBLIC "-//W3C//DTD SVG 1.1//EN"
 "http://www.w3.org/Graphics/SVG/1.1/DTD/svg11.dtd">
<!-- Generated by graphviz version 7.0.0 (20221023.0053)
 -->
<!-- Title: range_queries::perSegTree::update Pages: 1 -->
<svg width="652pt" height="131pt"
 viewBox="0.00 0.00 652.00 130.50" xmlns="http://www.w3.org/2000/svg" xmlns:xlink="http://www.w3.org/1999/xlink">
<g id="graph0" class="graph" transform="scale(1 1) rotate(0) translate(4 126.5)">
<title>range_queries::perSegTree::update</title>
<!-- Node1 -->
<g id="node1" class="node">
<title>Node1</title>
<g id="a_node1"><a xlink:title="Doing range update by passing the left and right indexes of the range as well as the value to be adde...">
<polygon fill="#999999" stroke="#666666" points="134,-91 0,-91 0,-61 134,-61 134,-91"/>
<text text-anchor="start" x="8" y="-79" font-family="Helvetica,sans-Serif" font-size="10.00">range_queries::perSegTree</text>
<text text-anchor="middle" x="67" y="-68" font-family="Helvetica,sans-Serif" font-size="10.00">::update</text>
</a>
</g>
</g>
<!-- Node2 -->
<g id="node2" class="node">
<title>Node2</title>
<g id="a_node2"><a target="_blank" xlink:href="http://en.cppreference.com/w/cpp/container/vector/push_back.html#" xlink:title=" ">
<polygon fill="white" stroke="#666666" points="295,-122.5 179,-122.5 179,-103.5 295,-103.5 295,-122.5"/>
<text text-anchor="middle" x="237" y="-110.5" font-family="Helvetica,sans-Serif" font-size="10.00">std::vector::push_back</text>
</a>
</g>
</g>
<!-- Node1&#45;&gt;Node2 -->
<g id="edge1" class="edge">
<title>Node1&#45;&gt;Node2</title>
<path fill="none" stroke="#63b8ff" d="M134.4,-90.62C149.45,-93.94 165.3,-97.43 179.88,-100.64"/>
<polygon fill="#63b8ff" stroke="#63b8ff" points="178.75,-103.98 189.27,-102.71 180.26,-97.14 178.75,-103.98"/>
</g>
<!-- Node3 -->
<g id="node3" class="node">
<title>Node3</title>
<g id="a_node3"><a target="_blank" xlink:href="http://en.cppreference.com/w/cpp/container/vector/size.html#" xlink:title=" ">
<polygon fill="white" stroke="#666666" points="280.5,-85.5 193.5,-85.5 193.5,-66.5 280.5,-66.5 280.5,-85.5"/>
<text text-anchor="middle" x="237" y="-73.5" font-family="Helvetica,sans-Serif" font-size="10.00">std::vector::size</text>
</a>
</g>
</g>
<!-- Node1&#45;&gt;Node3 -->
<g id="edge2" class="edge">
<title>Node1&#45;&gt;Node3</title>
<path fill="none" stroke="#63b8ff" d="M134.4,-76C150.18,-76 166.84,-76 182,-76"/>
<polygon fill="#63b8ff" stroke="#63b8ff" points="181.74,-79.5 191.74,-76 181.74,-72.5 181.74,-79.5"/>
</g>
<!-- Node4 -->
<g id="node4" class="node">
<title>Node4</title>
<g id="a_node4"><a xlink:href="../../d8/d28/classrange__queries_1_1per_seg_tree.html#a24487eda25123bc4d112e8430821a6c6" target="_top" xlink:title="Doing range update, checking at every node if it has some value to be propagated. All nodes affected ...">
<polygon fill="white" stroke="#666666" points="304,-30 170,-30 170,0 304,0 304,-30"/>
<text text-anchor="start" x="178" y="-18" font-family="Helvetica,sans-Serif" font-size="10.00">range_queries::perSegTree</text>
<text text-anchor="middle" x="237" y="-7" font-family="Helvetica,sans-Serif" font-size="10.00">::update</text>
</a>
</g>
</g>
<!-- Node1&#45;&gt;Node4 -->
<g id="edge3" class="edge">
<title>Node1&#45;&gt;Node4</title>
<path fill="none" stroke="#63b8ff" d="M110.39,-60.61C132.3,-52.65 159.25,-42.87 182.56,-34.4"/>
<polygon fill="#63b8ff" stroke="#63b8ff" points="183.7,-37.71 191.91,-31.01 181.31,-31.13 183.7,-37.71"/>
</g>
<!-- Node4&#45;&gt;Node4 -->
<g id="edge7" class="edge">
<title>Node4&#45;&gt;Node4</title>
<path fill="none" stroke="#63b8ff" d="M207.12,-30.28C200.48,-39.41 210.44,-48 237,-48 251.53,-48 261.09,-45.43 265.68,-41.61"/>
<polygon fill="#63b8ff" stroke="#63b8ff" points="269.15,-42.09 266.72,-31.78 262.19,-41.36 269.15,-42.09"/>
</g>
<!-- Node5 -->
<g id="node5" class="node">
<title>Node5</title>
<g id="a_node5"><a xlink:href="../../d8/d28/classrange__queries_1_1per_seg_tree.html#ace7f57935b3bb9446f11c239fd89ae79" target="_top" xlink:title="If there is some value to be propagated to the passed node, value is added to the node and the childr...">
<polygon fill="white" stroke="#666666" points="474,-52 340,-52 340,-22 474,-22 474,-52"/>
<text text-anchor="start" x="348" y="-40" font-family="Helvetica,sans-Serif" font-size="10.00">range_queries::perSegTree</text>
<text text-anchor="middle" x="407" y="-29" font-family="Helvetica,sans-Serif" font-size="10.00">::lazy</text>
</a>
</g>
</g>
<!-- Node4&#45;&gt;Node5 -->
<g id="edge4" class="edge">
<title>Node4&#45;&gt;Node5</title>
<path fill="none" stroke="#63b8ff" d="M304.4,-23.69C312.25,-24.72 320.32,-25.78 328.32,-26.83"/>
<polygon fill="#63b8ff" stroke="#63b8ff" points="327.66,-30.27 338.03,-28.1 328.57,-23.33 327.66,-30.27"/>
</g>
<!-- Node6 -->
<g id="node6" class="node">
<title>Node6</title>
<g id="a_node6"><a xlink:href="../../d8/d28/classrange__queries_1_1per_seg_tree.html#a0cec4b77d264521717cf9b0482c45817" target="_top" xlink:title="Creating a new node with the same values of curr node.">
<polygon fill="white" stroke="#666666" points="644,-30 510,-30 510,0 644,0 644,-30"/>
<text text-anchor="start" x="518" y="-18" font-family="Helvetica,sans-Serif" font-size="10.00">range_queries::perSegTree</text>
<text text-anchor="middle" x="577" y="-7" font-family="Helvetica,sans-Serif" font-size="10.00">::newKid</text>
</a>
</g>
</g>
<!-- Node4&#45;&gt;Node6 -->
<g id="edge6" class="edge">
<title>Node4&#45;&gt;Node6</title>
<path fill="none" stroke="#63b8ff" d="M304.39,-13.51C316.25,-13.3 328.49,-13.11 340,-13 399.55,-12.42 414.45,-12.42 474,-13 481.82,-13.08 489.99,-13.19 498.14,-13.32"/>
<polygon fill="#63b8ff" stroke="#63b8ff" points="498.04,-16.81 508.1,-13.48 498.16,-9.82 498.04,-16.81"/>
</g>
<!-- Node5&#45;&gt;Node6 -->
<g id="edge5" class="edge">
<title>Node5&#45;&gt;Node6</title>
<path fill="none" stroke="#63b8ff" d="M474.4,-28.31C482.25,-27.28 490.32,-26.22 498.32,-25.17"/>
<polygon fill="#63b8ff" stroke="#63b8ff" points="498.57,-28.67 508.03,-23.9 497.66,-21.73 498.57,-28.67"/>
</g>
</g>
</svg>
