<?xml version="1.0" encoding="UTF-8" standalone="no"?>
<!DOCTYPE svg PUBLIC "-//W3C//DTD SVG 1.1//EN"
 "http://www.w3.org/Graphics/SVG/1.1/DTD/svg11.dtd">
<!-- Generated by graphviz version 8.1.0 (20230707.0739)
 -->
<!-- Title: geometry/line_segment_intersection.cpp Pages: 1 -->
<svg width="136pt" height="94pt"
 viewBox="0.00 0.00 135.62 93.75" xmlns="http://www.w3.org/2000/svg" xmlns:xlink="http://www.w3.org/1999/xlink">
<g id="graph0" class="graph" transform="scale(1 1) rotate(0) translate(4 89.75)">
<title>geometry/line_segment_intersection.cpp</title>
<!-- Node1 -->
<g id="Node000001" class="node">
<title>Node1</title>
<g id="a_Node000001"><a xlink:title="check whether two line segments intersect each other or not.">
<polygon fill="#999999" stroke="#666666" points="122.5,-85.75 5.25,-85.75 5.25,-55.25 122.5,-55.25 122.5,-85.75"/>
<text text-anchor="start" x="13.25" y="-72.25" font-family="Helvetica,sans-Serif" font-size="10.00">geometry/line_segment</text>
<text text-anchor="middle" x="63.88" y="-61" font-family="Helvetica,sans-Serif" font-size="10.00">_intersection.cpp</text>
</a>
</g>
</g>
<!-- Node2 -->
<g id="Node000002" class="node">
<title>Node2</title>
<g id="a_Node000002"><a xlink:title=" ">
<polygon fill="#e0e0e0" stroke="#999999" points="55.75,-19.25 0,-19.25 0,0 55.75,0 55.75,-19.25"/>
<text text-anchor="middle" x="27.88" y="-5.75" font-family="Helvetica,sans-Serif" font-size="10.00">algorithm</text>
</a>
</g>
</g>
<!-- Node1&#45;&gt;Node2 -->
<g id="edge1_Node000001_Node000002" class="edge">
<title>Node1&#45;&gt;Node2</title>
<g id="a_edge1_Node000001_Node000002"><a xlink:title=" ">
<path fill="none" stroke="#63b8ff" d="M54.98,-54.95C50.18,-47.1 44.21,-37.35 39.1,-28.99"/>
<polygon fill="#63b8ff" stroke="#63b8ff" points="41.63,-27.41 33.42,-20.7 35.66,-31.06 41.63,-27.41"/>
</a>
</g>
</g>
<!-- Node3 -->
<g id="Node000003" class="node">
<title>Node3</title>
<g id="a_Node000003"><a xlink:title=" ">
<polygon fill="#e0e0e0" stroke="#999999" points="127.62,-19.25 74.12,-19.25 74.12,0 127.62,0 127.62,-19.25"/>
<text text-anchor="middle" x="100.88" y="-5.75" font-family="Helvetica,sans-Serif" font-size="10.00">iostream</text>
</a>
</g>
</g>
<!-- Node1&#45;&gt;Node3 -->
<g id="edge2_Node000001_Node000003" class="edge">
<title>Node1&#45;&gt;Node3</title>
<g id="a_edge2_Node000001_Node000003"><a xlink:title=" ">
<path fill="none" stroke="#63b8ff" d="M73.02,-54.95C77.95,-47.1 84.08,-37.35 89.34,-28.99"/>
<polygon fill="#63b8ff" stroke="#63b8ff" points="92.81,-31.03 95.17,-20.7 86.89,-27.31 92.81,-31.03"/>
</a>
</g>
</g>
</g>
</svg>
