<?xml version="1.0" encoding="UTF-8" standalone="no"?>
<!DOCTYPE svg PUBLIC "-//W3C//DTD SVG 1.1//EN"
 "http://www.w3.org/Graphics/SVG/1.1/DTD/svg11.dtd">
<!-- Generated by graphviz version 5.0.1 (20220820.1526)
 -->
<!-- Title: graph::HKGraph::hopcroftKarpAlgorithm Pages: 1 -->
<svg width="400pt" height="82pt"
 viewBox="0.00 0.00 400.00 82.00" xmlns="http://www.w3.org/2000/svg" xmlns:xlink="http://www.w3.org/1999/xlink">
<g id="graph0" class="graph" transform="scale(1 1) rotate(0) translate(4 78)">
<title>graph::HKGraph::hopcroftKarpAlgorithm</title>
<!-- Node1 -->
<g id="node1" class="node">
<title>Node1</title>
<g id="a_node1"><a xlink:title="This function counts the number of augmenting paths between left and right sides of the Bipartite gra...">
<polygon fill="#999999" stroke="#666666" points="128,-51.5 0,-51.5 0,-21.5 128,-21.5 128,-51.5"/>
<text text-anchor="start" x="8" y="-39.5" font-family="Helvetica,sans-Serif" font-size="10.00">graph::HKGraph::hopcroft</text>
<text text-anchor="middle" x="64" y="-28.5" font-family="Helvetica,sans-Serif" font-size="10.00">KarpAlgorithm</text>
</a>
</g>
</g>
<!-- Node2 -->
<g id="node2" class="node">
<title>Node2</title>
<g id="a_node2"><a xlink:href="../../d8/d69/classgraph_1_1_h_k_graph.html#a7491add14d9fc04f679114ca6d6f0f93" target="_top" xlink:title="This function checks for the possibility of augmented path availability.">
<polygon fill="white" stroke="#666666" points="271,-74 164,-74 164,-55 271,-55 271,-74"/>
<text text-anchor="middle" x="217.5" y="-62" font-family="Helvetica,sans-Serif" font-size="10.00">graph::HKGraph::bfs</text>
</a>
</g>
</g>
<!-- Node1&#45;&gt;Node2 -->
<g id="edge1" class="edge">
<title>Node1&#45;&gt;Node2</title>
<path fill="none" stroke="#63b8ff" d="M128.37,-48.21C137.11,-49.83 146.08,-51.49 154.79,-53.1"/>
<polygon fill="#63b8ff" stroke="#63b8ff" points="154.4,-56.58 164.87,-54.96 155.67,-49.7 154.4,-56.58"/>
</g>
<!-- Node4 -->
<g id="node4" class="node">
<title>Node4</title>
<g id="a_node4"><a xlink:href="../../d8/d69/classgraph_1_1_h_k_graph.html#ae794950cb3407b6b47d3dc986cf714c0" target="_top" xlink:title="This functions checks whether an augmenting path is available exists beginning with free vertex u.">
<polygon fill="white" stroke="#666666" points="271,-19 164,-19 164,0 271,0 271,-19"/>
<text text-anchor="middle" x="217.5" y="-7" font-family="Helvetica,sans-Serif" font-size="10.00">graph::HKGraph::dfs</text>
</a>
</g>
</g>
<!-- Node1&#45;&gt;Node4 -->
<g id="edge3" class="edge">
<title>Node1&#45;&gt;Node4</title>
<path fill="none" stroke="#63b8ff" d="M128.37,-25.21C136.79,-23.71 145.41,-22.17 153.82,-20.67"/>
<polygon fill="#63b8ff" stroke="#63b8ff" points="154.7,-24.07 163.93,-18.87 153.47,-17.18 154.7,-24.07"/>
</g>
<!-- Node3 -->
<g id="node3" class="node">
<title>Node3</title>
<g id="a_node3"><a target="_blank" xlink:href="http://en.cppreference.com/w/cpp/container/vector/end.html#" xlink:title=" ">
<polygon fill="white" stroke="#666666" points="392,-46 307,-46 307,-27 392,-27 392,-46"/>
<text text-anchor="middle" x="349.5" y="-34" font-family="Helvetica,sans-Serif" font-size="10.00">std::vector::end</text>
</a>
</g>
</g>
<!-- Node2&#45;&gt;Node3 -->
<g id="edge2" class="edge">
<title>Node2&#45;&gt;Node3</title>
<path fill="none" stroke="#63b8ff" d="M262.88,-54.94C273.91,-52.57 285.83,-50 297.17,-47.55"/>
<polygon fill="#63b8ff" stroke="#63b8ff" points="297.91,-50.98 306.95,-45.45 296.44,-44.13 297.91,-50.98"/>
</g>
<!-- Node4&#45;&gt;Node3 -->
<g id="edge5" class="edge">
<title>Node4&#45;&gt;Node3</title>
<path fill="none" stroke="#63b8ff" d="M264.33,-19.02C274.86,-21.21 286.12,-23.54 296.87,-25.78"/>
<polygon fill="#63b8ff" stroke="#63b8ff" points="296.48,-29.27 306.98,-27.88 297.9,-22.42 296.48,-29.27"/>
</g>
<!-- Node4&#45;&gt;Node4 -->
<g id="edge4" class="edge">
<title>Node4&#45;&gt;Node4</title>
<path fill="none" stroke="#63b8ff" d="M197.15,-19.08C187.26,-27.73 194.04,-37 217.5,-37 232.53,-37 240.71,-33.2 242.05,-28.19"/>
<polygon fill="#63b8ff" stroke="#63b8ff" points="245.22,-26.69 237.85,-19.08 238.86,-29.63 245.22,-26.69"/>
</g>
</g>
</svg>
