<?xml version="1.0" encoding="UTF-8" standalone="no"?>
<!DOCTYPE svg PUBLIC "-//W3C//DTD SVG 1.1//EN"
 "http://www.w3.org/Graphics/SVG/1.1/DTD/svg11.dtd">
<!-- Generated by graphviz version 2.40.1 (20161225.0304)
 -->
<!-- Title: sorting/quick_sort.cpp Pages: 1 -->
<svg width="126pt" height="84pt"
 viewBox="0.00 0.00 125.50 84.00" xmlns="http://www.w3.org/2000/svg" xmlns:xlink="http://www.w3.org/1999/xlink">
<g id="graph0" class="graph" transform="scale(1 1) rotate(0) translate(4 80)">
<title>sorting/quick_sort.cpp</title>
<polygon fill="#ffffff" stroke="transparent" points="-4,4 -4,-80 121.5,-80 121.5,4 -4,4"/>
<!-- Node0 -->
<g id="node1" class="node">
<title>Node0</title>
<polygon fill="#bfbfbf" stroke="#000000" points="0,-56.5 0,-75.5 113,-75.5 113,-56.5 0,-56.5"/>
<text text-anchor="middle" x="56.5" y="-63.5" font-family="Helvetica,sans-Serif" font-size="10.00" fill="#000000">sorting/quick_sort.cpp</text>
</g>
<!-- Node1 -->
<g id="node2" class="node">
<title>Node1</title>
<polygon fill="#ffffff" stroke="#bfbfbf" points="0,-.5 0,-19.5 45,-19.5 45,-.5 0,-.5"/>
<text text-anchor="middle" x="22.5" y="-7.5" font-family="Helvetica,sans-Serif" font-size="10.00" fill="#000000">cstdlib</text>
</g>
<!-- Node0&#45;&gt;Node1 -->
<g id="edge1" class="edge">
<title>Node0&#45;&gt;Node1</title>
<path fill="none" stroke="#191970" d="M50.5777,-56.2455C45.8973,-48.5367 39.2327,-37.5598 33.5711,-28.2348"/>
<polygon fill="#191970" stroke="#191970" points="36.5361,-26.3741 28.3545,-19.6427 30.5525,-30.007 36.5361,-26.3741"/>
</g>
<!-- Node2 -->
<g id="node3" class="node">
<title>Node2</title>
<polygon fill="#ffffff" stroke="#bfbfbf" points="63.5,-.5 63.5,-19.5 117.5,-19.5 117.5,-.5 63.5,-.5"/>
<text text-anchor="middle" x="90.5" y="-7.5" font-family="Helvetica,sans-Serif" font-size="10.00" fill="#000000">iostream</text>
</g>
<!-- Node0&#45;&gt;Node2 -->
<g id="edge2" class="edge">
<title>Node0&#45;&gt;Node2</title>
<path fill="none" stroke="#191970" d="M62.4223,-56.2455C67.1027,-48.5367 73.7673,-37.5598 79.4289,-28.2348"/>
<polygon fill="#191970" stroke="#191970" points="82.4475,-30.007 84.6455,-19.6427 76.4639,-26.3741 82.4475,-30.007"/>
</g>
</g>
</svg>
