<?xml version="1.0" encoding="UTF-8" standalone="no"?>
<!DOCTYPE svg PUBLIC "-//W3C//DTD SVG 1.1//EN"
 "http://www.w3.org/Graphics/SVG/1.1/DTD/svg11.dtd">
<!-- Generated by graphviz version 5.0.0 (20220707.1540)
 -->
<!-- Title: bit_manipulation/hamming_distance.cpp Pages: 1 -->
<svg width="138pt" height="95pt"
 viewBox="0.00 0.00 138.00 95.00" xmlns="http://www.w3.org/2000/svg" xmlns:xlink="http://www.w3.org/1999/xlink">
<g id="graph0" class="graph" transform="scale(1 1) rotate(0) translate(4 91)">
<title>bit_manipulation/hamming_distance.cpp</title>
<polygon fill="white" stroke="transparent" points="-4,4 -4,-91 134,-91 134,4 -4,4"/>
<!-- Node1 -->
<g id="node1" class="node">
<title>Node1</title>
<g id="a_node1"><a xlink:title="Returns the Hamming distance between two integers.">
<polygon fill="#bfbfbf" stroke="black" points="0,-56.5 0,-86.5 130,-86.5 130,-56.5 0,-56.5"/>
<text text-anchor="start" x="8" y="-74.5" font-family="Helvetica,sans-Serif" font-size="10.00">bit_manipulation/hamming</text>
<text text-anchor="middle" x="65" y="-63.5" font-family="Helvetica,sans-Serif" font-size="10.00">_distance.cpp</text>
</a>
</g>
</g>
<!-- Node2 -->
<g id="node2" class="node">
<title>Node2</title>
<g id="a_node2"><a xlink:title=" ">
<polygon fill="white" stroke="#bfbfbf" points="5.5,-0.5 5.5,-19.5 54.5,-19.5 54.5,-0.5 5.5,-0.5"/>
<text text-anchor="middle" x="30" y="-7.5" font-family="Helvetica,sans-Serif" font-size="10.00">cassert</text>
</a>
</g>
</g>
<!-- Node1&#45;&gt;Node2 -->
<g id="edge1" class="edge">
<title>Node1&#45;&gt;Node2</title>
<path fill="none" stroke="midnightblue" d="M56.71,-56.4C51.78,-48.02 45.49,-37.33 40.25,-28.42"/>
<polygon fill="midnightblue" stroke="midnightblue" points="43.18,-26.5 35.09,-19.66 37.15,-30.05 43.18,-26.5"/>
</g>
<!-- Node3 -->
<g id="node3" class="node">
<title>Node3</title>
<g id="a_node3"><a xlink:title=" ">
<polygon fill="white" stroke="#bfbfbf" points="73,-0.5 73,-19.5 127,-19.5 127,-0.5 73,-0.5"/>
<text text-anchor="middle" x="100" y="-7.5" font-family="Helvetica,sans-Serif" font-size="10.00">iostream</text>
</a>
</g>
</g>
<!-- Node1&#45;&gt;Node3 -->
<g id="edge2" class="edge">
<title>Node1&#45;&gt;Node3</title>
<path fill="none" stroke="midnightblue" d="M73.29,-56.4C78.22,-48.02 84.51,-37.33 89.75,-28.42"/>
<polygon fill="midnightblue" stroke="midnightblue" points="92.85,-30.05 94.91,-19.66 86.82,-26.5 92.85,-30.05"/>
</g>
</g>
</svg>
